M48
; DRILL file {KiCad (6.0.5)} date Tue Sep 15 22:20:46 2026
; FORMAT={-:-/ absolute / inch / decimal}
; #@! TF.CreationDate,2026-09-15T22:20:46-04:00
; #@! TF.GenerationSoftware,Kicad,Pcbnew,(6.0.5)
; #@! TF.FileFunction,Plated,1,2,PTH
FMAT,2
INCH
; #@! TA.AperFunction,Plated,PTH,ViaDrill
T1C0.0157
; #@! TA.AperFunction,Plated,PTH,ComponentDrill
T2C0.0315
; #@! TA.AperFunction,Plated,PTH,ComponentDrill
T3C0.0354
; #@! TA.AperFunction,Plated,PTH,ComponentDrill
T4C0.0394
; #@! TA.AperFunction,Plated,PTH,ComponentDrill
T5C0.0398
; #@! TA.AperFunction,Plated,PTH,ComponentDrill
T6C0.0433
; #@! TA.AperFunction,Plated,PTH,ComponentDrill
T7C0.0461
; #@! TA.AperFunction,Plated,PTH,ComponentDrill
T8C0.0512
; #@! TA.AperFunction,Plated,PTH,ComponentDrill
T9C0.0591
; #@! TA.AperFunction,Plated,PTH,ComponentDrill
T10C0.0629
%
G90
G05
T1
X1.8012Y-4.7594
X1.9173Y-4.9543
X1.9252Y-4.726
X2.0472Y-4.9524
X5.1476Y-4.7594
X5.2421Y-4.726
X5.2638Y-4.9543
X5.3937Y-4.9524
X5.4587Y-4.8421
X8.4941Y-4.7594
X8.5492Y-6.1748
X8.5551Y-6.0075
X8.5886Y-4.724
X8.5886Y-4.9524
X8.7539Y-4.9524
X8.8051Y-4.8421
X8.8358Y-6.0244
X8.9965Y-6.1748
X9.2697Y-5.974
T2
X1.6358Y-3.6531
X1.6358Y-3.9531
X1.7358Y-3.6531
X1.7358Y-3.9531
X1.8358Y-3.6531
X1.8358Y-3.9531
X1.9358Y-3.6531
X1.9358Y-3.9531
X2.0358Y-3.6531
X2.0358Y-3.9531
X2.1358Y-3.6531
X2.1358Y-3.9531
X2.2358Y-3.6531
X2.2358Y-3.9531
X2.3358Y-3.6531
X2.3358Y-3.9531
X3.3425Y-5.1295
X3.3425Y-5.228
X3.4596Y-5.1295
X3.4596Y-5.4295
X3.6841Y-5.3407
X3.7825Y-5.3407
X3.7904Y-5.5337
X3.7904Y-5.8337
X3.935Y-5.2679
X3.935Y-5.5679
X3.935Y-5.6571
X3.935Y-5.9571
X4.202Y-5.7705
X4.2165Y-6.0508
X4.3165Y-5.9508
X4.3165Y-6.1508
X4.502Y-5.7705
X4.5622Y-5.9474
X4.6343Y-5.7945
X4.7343Y-5.7945
X4.8343Y-5.7945
X4.8622Y-5.9474
X4.9695Y-5.722
X4.9695Y-6.022
X4.9823Y-3.6531
X4.9823Y-3.9531
X5.0823Y-3.6531
X5.0823Y-3.9531
X5.1823Y-3.6531
X5.1823Y-3.9531
X5.2823Y-3.6531
X5.2823Y-3.9531
X5.3823Y-3.6531
X5.3823Y-3.9531
X5.4823Y-3.6531
X5.4823Y-3.9531
X5.4884Y-5.752
X5.4884Y-5.8776
X5.5823Y-3.6531
X5.5823Y-3.9531
X5.6823Y-3.6531
X5.6823Y-3.9531
X5.7884Y-5.752
X5.7884Y-5.8776
X6.3474Y-6.0478
X6.3474Y-6.1463
X6.3474Y-6.2358
X6.3474Y-6.3343
X8.3291Y-3.6531
X8.3291Y-3.9531
X8.4291Y-3.6531
X8.4291Y-3.9531
X8.5291Y-3.6531
X8.5291Y-3.9531
X8.5487Y-5.8224
X8.6291Y-3.6531
X8.6291Y-3.9531
X8.7291Y-3.6531
X8.7291Y-3.9531
X8.7416Y-5.8224
X8.8291Y-3.6531
X8.8291Y-3.9531
X8.9291Y-3.6531
X8.9291Y-3.9531
X9.0291Y-3.6531
X9.0291Y-3.9531
T3
X3.8927Y-6.0823
X3.8927Y-6.1846
X3.8927Y-6.287
T4
X1.9138Y-4.2211
X1.9138Y-4.3211
X1.9138Y-4.4211
X1.9138Y-4.5211
X1.9138Y-4.6211
X2.0138Y-4.2211
X2.0138Y-4.3211
X2.0138Y-4.4211
X2.0138Y-4.5211
X2.0138Y-4.6211
X4.9906Y-6.265
X5.0888Y-5.7203
X5.0888Y-6.0203
X5.1888Y-5.7203
X5.1888Y-6.0203
X5.2589Y-4.2211
X5.2589Y-4.3211
X5.2589Y-4.4211
X5.2589Y-4.5211
X5.2589Y-4.6211
X5.2888Y-5.7203
X5.2888Y-6.0203
X5.3589Y-4.2211
X5.3589Y-4.3211
X5.3589Y-4.4211
X5.3589Y-4.5211
X5.3589Y-4.6211
X5.3843Y-6.265
X5.3888Y-5.7203
X5.3888Y-6.0203
X6.3484Y-5.7854
X6.3484Y-5.8854
X6.8327Y-6.0609
X6.8327Y-6.2578
X6.9311Y-4.2224
X6.9311Y-4.3224
X6.9311Y-4.4224
X6.9311Y-4.5224
X6.9311Y-4.6224
X7.0311Y-4.2224
X7.0311Y-4.3224
X7.0311Y-4.4224
X7.0311Y-4.5224
X7.0311Y-4.6224
X8.1024Y-6.2126
X8.1024Y-6.3126
X8.2067Y-6.2122
X8.2067Y-6.3122
X8.313Y-6.2116
X8.313Y-6.3116
X8.6053Y-4.2211
X8.6053Y-4.3211
X8.6053Y-4.4211
X8.6053Y-4.5211
X8.6053Y-4.6211
X8.7053Y-4.2211
X8.7053Y-4.3211
X8.7053Y-4.4211
X8.7053Y-4.5211
X8.7053Y-4.6211
T5
X5.8917Y-5.8437
X6.0925Y-5.7965
T6
X3.4102Y-5.5346
X3.5102Y-5.5346
X3.5797Y-5.1276
X3.6102Y-5.5346
X3.8797Y-5.1276
X6.2118Y-5.7843
X6.2118Y-5.8843
X6.2315Y-6.0689
X6.2315Y-6.1689
X6.2315Y-6.2689
X7.5331Y-6.0862
X7.5331Y-6.2122
X7.9331Y-6.0862
X7.9331Y-6.2122
T7
X6.9831Y-5.1033
T8
X4.7244Y-6.102
X4.7244Y-6.2988
T9
X6.9831Y-5.8907
T10
X1.2048Y-4.2674
X1.2048Y-4.4445
X1.2048Y-4.6216
X1.2737Y-4.1296
X1.2737Y-4.7594
X1.4311Y-4.0902
X1.4311Y-4.7988
X1.5885Y-4.1296
X1.5885Y-4.7594
X1.6574Y-4.2674
X1.6574Y-4.4445
X1.6574Y-4.6216
X2.2678Y-4.2674
X2.2678Y-4.4445
X2.2678Y-4.6216
X2.3367Y-4.1296
X2.3367Y-4.7594
X2.4941Y-4.0902
X2.4941Y-4.7988
X2.6515Y-4.1296
X2.6515Y-4.7594
X2.7204Y-4.2674
X2.7204Y-4.4445
X2.7204Y-4.6216
X4.5513Y-4.2674
X4.5513Y-4.4445
X4.5513Y-4.6216
X4.6202Y-4.1296
X4.6202Y-4.7594
X4.7776Y-4.0902
X4.7776Y-4.7988
X4.935Y-4.1296
X4.935Y-4.7594
X5.0039Y-4.2674
X5.0039Y-4.4445
X5.0039Y-4.6216
X5.6143Y-4.2674
X5.6143Y-4.4445
X5.6143Y-4.6216
X5.6832Y-4.1296
X5.6832Y-4.7594
X5.8406Y-4.0902
X5.8406Y-4.7988
X5.998Y-4.1296
X5.998Y-4.7594
X6.0669Y-4.2674
X6.0669Y-4.4445
X6.0669Y-4.6216
X7.8976Y-4.2713
X7.8976Y-4.4484
X7.8976Y-4.6255
X7.9665Y-4.1335
X7.9665Y-4.7633
X8.1239Y-4.0941
X8.1239Y-4.8027
X8.2813Y-4.1335
X8.2813Y-4.7633
X8.3502Y-4.2713
X8.3502Y-4.4484
X8.3502Y-4.6255
X8.9607Y-4.2674
X8.9607Y-4.4445
X8.9607Y-4.6216
X9.0296Y-4.1296
X9.0296Y-4.7594
X9.187Y-4.0902
X9.187Y-4.7988
X9.3444Y-4.1296
X9.3444Y-4.7594
X9.4133Y-4.2674
X9.4133Y-4.4445
X9.4133Y-4.6216
T0
M30
