%TF.GenerationSoftware,KiCad,Pcbnew,(6.0.5)*%
%TF.CreationDate,2026-09-15T22:22:39-04:00*%
%TF.ProjectId,SR_digit_board,53525f64-6967-4697-945f-626f6172642e,rev?*%
%TF.SameCoordinates,Original*%
%TF.FileFunction,Paste,Bot*%
%TF.FilePolarity,Positive*%
%FSLAX46Y46*%
G04 Gerber Fmt 4.6, Leading zero omitted, Abs format (unit mm)*
G04 Created by KiCad (PCBNEW (6.0.5)) date 2026-09-15 22:22:39*
%MOMM*%
%LPD*%
G01*
G04 APERTURE LIST*
G04 Aperture macros list*
%AMRoundRect*
0 Rectangle with rounded corners*
0 $1 Rounding radius*
0 $2 $3 $4 $5 $6 $7 $8 $9 X,Y pos of 4 corners*
0 Add a 4 corners polygon primitive as box body*
4,1,4,$2,$3,$4,$5,$6,$7,$8,$9,$2,$3,0*
0 Add four circle primitives for the rounded corners*
1,1,$1+$1,$2,$3*
1,1,$1+$1,$4,$5*
1,1,$1+$1,$6,$7*
1,1,$1+$1,$8,$9*
0 Add four rect primitives between the rounded corners*
20,1,$1+$1,$2,$3,$4,$5,0*
20,1,$1+$1,$4,$5,$6,$7,0*
20,1,$1+$1,$6,$7,$8,$9,0*
20,1,$1+$1,$8,$9,$2,$3,0*%
G04 Aperture macros list end*
%ADD10RoundRect,0.250000X-0.350000X-0.450000X0.350000X-0.450000X0.350000X0.450000X-0.350000X0.450000X0*%
%ADD11R,1.500000X2.000000*%
%ADD12R,3.800000X2.000000*%
%ADD13RoundRect,0.250000X-0.450000X0.350000X-0.450000X-0.350000X0.450000X-0.350000X0.450000X0.350000X0*%
%ADD14RoundRect,0.250000X0.450000X-0.350000X0.450000X0.350000X-0.450000X0.350000X-0.450000X-0.350000X0*%
%ADD15RoundRect,0.250000X0.350000X0.450000X-0.350000X0.450000X-0.350000X-0.450000X0.350000X-0.450000X0*%
%ADD16RoundRect,0.250000X0.475000X-0.337500X0.475000X0.337500X-0.475000X0.337500X-0.475000X-0.337500X0*%
G04 APERTURE END LIST*
D10*
%TO.C,15k*%
X210750000Y-123390000D03*
X208750000Y-123390000D03*
%TD*%
D11*
%TO.C,MPSA42*%
X58150000Y-125740000D03*
D12*
X60450000Y-132040000D03*
D11*
X60450000Y-125740000D03*
X62750000Y-125740000D03*
%TD*%
%TO.C,MPSA42*%
X143150000Y-125740000D03*
X145450000Y-125740000D03*
D12*
X145450000Y-132040000D03*
D11*
X147750000Y-125740000D03*
%TD*%
D10*
%TO.C,33k*%
X43750000Y-127390000D03*
X45750000Y-127390000D03*
%TD*%
D11*
%TO.C,MPSA92*%
X201750000Y-132140000D03*
D12*
X199450000Y-125840000D03*
D11*
X199450000Y-132140000D03*
X197150000Y-132140000D03*
%TD*%
D13*
%TO.C,470k*%
X34250000Y-130490000D03*
X34250000Y-132490000D03*
%TD*%
D14*
%TO.C,100k*%
X139650000Y-132490000D03*
X139650000Y-130490000D03*
%TD*%
D11*
%TO.C,MPSA42*%
X206850000Y-125790000D03*
D12*
X209150000Y-132090000D03*
D11*
X209150000Y-125790000D03*
X211450000Y-125790000D03*
%TD*%
D15*
%TO.C,33k*%
X55750000Y-125990000D03*
X53750000Y-125990000D03*
%TD*%
D11*
%TO.C,MPSA92*%
X31750000Y-132140000D03*
X29450000Y-132140000D03*
D12*
X29450000Y-125840000D03*
D11*
X27150000Y-132140000D03*
%TD*%
D13*
%TO.C,470k*%
X204250000Y-130490000D03*
X204250000Y-132490000D03*
%TD*%
D15*
%TO.C,33k*%
X225750000Y-125990000D03*
X223750000Y-125990000D03*
%TD*%
D14*
%TO.C,470k*%
X235350000Y-132490000D03*
X235350000Y-130490000D03*
%TD*%
D10*
%TO.C,33k*%
X213750000Y-127390000D03*
X215750000Y-127390000D03*
%TD*%
D15*
%TO.C,33k*%
X140750000Y-125990000D03*
X138750000Y-125990000D03*
%TD*%
D13*
%TO.C,470k*%
X119250000Y-130490000D03*
X119250000Y-132490000D03*
%TD*%
D11*
%TO.C,MPSA42*%
X228150000Y-125740000D03*
D12*
X230450000Y-132040000D03*
D11*
X230450000Y-125740000D03*
X232750000Y-125740000D03*
%TD*%
D14*
%TO.C,100k*%
X44650000Y-132490000D03*
X44650000Y-130490000D03*
%TD*%
%TO.C,470k*%
X65350000Y-132490000D03*
X65350000Y-130490000D03*
%TD*%
D11*
%TO.C,MPSA92*%
X152950000Y-125790000D03*
D12*
X155250000Y-132090000D03*
D11*
X155250000Y-125790000D03*
X157550000Y-125790000D03*
%TD*%
D10*
%TO.C,15k*%
X123750000Y-123390000D03*
X125750000Y-123390000D03*
%TD*%
D11*
%TO.C,MPSA42*%
X121850000Y-125790000D03*
D12*
X124150000Y-132090000D03*
D11*
X124150000Y-125790000D03*
X126450000Y-125790000D03*
%TD*%
D15*
%TO.C,15k*%
X69650000Y-123390000D03*
X67650000Y-123390000D03*
%TD*%
D14*
%TO.C,100k*%
X214650000Y-132490000D03*
X214650000Y-130490000D03*
%TD*%
%TO.C,470k*%
X150350000Y-132490000D03*
X150350000Y-130490000D03*
%TD*%
D11*
%TO.C,MPSA92*%
X67950000Y-125790000D03*
D12*
X70250000Y-132090000D03*
D11*
X70250000Y-125790000D03*
X72550000Y-125790000D03*
%TD*%
D15*
%TO.C,15k*%
X239650000Y-123390000D03*
X237650000Y-123390000D03*
%TD*%
D16*
%TO.C,22p*%
X226750000Y-149927500D03*
X226750000Y-147852500D03*
%TD*%
%TO.C,22p*%
X212450000Y-149927500D03*
X212450000Y-147852500D03*
%TD*%
D10*
%TO.C,15k*%
X38800000Y-123390000D03*
X40800000Y-123390000D03*
%TD*%
D11*
%TO.C,MPSA92*%
X116750000Y-132140000D03*
D12*
X114450000Y-125840000D03*
D11*
X114450000Y-132140000D03*
X112150000Y-132140000D03*
%TD*%
%TO.C,MPSA92*%
X237950000Y-125790000D03*
X240250000Y-125790000D03*
D12*
X240250000Y-132090000D03*
D11*
X242550000Y-125790000D03*
%TD*%
D15*
%TO.C,15k*%
X154650000Y-123390000D03*
X152650000Y-123390000D03*
%TD*%
D11*
%TO.C,MPSA42*%
X36850000Y-125790000D03*
D12*
X39150000Y-132090000D03*
D11*
X39150000Y-125790000D03*
X41450000Y-125790000D03*
%TD*%
D14*
%TO.C,100k*%
X224650000Y-132490000D03*
X224650000Y-130490000D03*
%TD*%
%TO.C,100k*%
X129650000Y-132490000D03*
X129650000Y-130490000D03*
%TD*%
%TO.C,100k*%
X54650000Y-132490000D03*
X54650000Y-130490000D03*
%TD*%
D10*
%TO.C,33k*%
X128750000Y-127390000D03*
X130750000Y-127390000D03*
%TD*%
M02*
