%TF.GenerationSoftware,KiCad,Pcbnew,(6.0.5)*%
%TF.CreationDate,2026-09-15T22:22:39-04:00*%
%TF.ProjectId,SR_digit_board,53525f64-6967-4697-945f-626f6172642e,rev?*%
%TF.SameCoordinates,Original*%
%TF.FileFunction,Profile,NP*%
%FSLAX46Y46*%
G04 Gerber Fmt 4.6, Leading zero omitted, Abs format (unit mm)*
G04 Created by KiCad (PCBNEW (6.0.5)) date 2026-09-15 22:22:39*
%MOMM*%
%LPD*%
G01*
G04 APERTURE LIST*
%TA.AperFunction,Profile*%
%ADD10C,0.100000*%
%TD*%
G04 APERTURE END LIST*
D10*
X165850000Y-128565000D02*
X165850000Y-140590000D01*
X104350000Y-140540000D02*
G75*
G03*
X105400000Y-141590000I1050000J0D01*
G01*
X17900000Y-162590000D02*
X251900000Y-162590000D01*
X165850000Y-159565000D02*
G75*
G03*
X167850000Y-159565000I1000000J0D01*
G01*
X102350000Y-159590000D02*
G75*
G03*
X104350000Y-159590000I1000000J0D01*
G01*
X80900000Y-104590000D02*
X80900000Y-124590000D01*
X188900000Y-100590000D02*
X188900000Y-81590000D01*
X105350000Y-143590001D02*
G75*
G03*
X104350000Y-144597107I-134J-999892D01*
G01*
X80900000Y-124590000D02*
G75*
G03*
X82900000Y-124590000I1000000J0D01*
G01*
X188900000Y-148090000D02*
X188900000Y-144597107D01*
X104350000Y-100590000D02*
X104350000Y-81590000D01*
X102350000Y-128590000D02*
X102350000Y-148590000D01*
X186900000Y-100590000D02*
G75*
G03*
X188900000Y-100590000I1000000J0D01*
G01*
X251900000Y-78590000D02*
X17900000Y-78590000D01*
X167850000Y-148565000D02*
X167850000Y-128565000D01*
X82900000Y-100590000D02*
X82900000Y-81590000D01*
X120750000Y-143590000D02*
G75*
G03*
X120750000Y-141590000I0J1000000D01*
G01*
X80900000Y-100590000D02*
G75*
G03*
X82900000Y-100590000I1000000J0D01*
G01*
X82900000Y-124590000D02*
X82900000Y-104590000D01*
X167850000Y-159565000D02*
X167850000Y-152565000D01*
X20900000Y-141590000D02*
G75*
G03*
X20900000Y-143590000I0J-1000000D01*
G01*
X79800000Y-141590000D02*
X63750000Y-141590000D01*
X59750000Y-143590000D02*
G75*
G03*
X59750000Y-141590000I0J1000000D01*
G01*
X189950000Y-143590000D02*
G75*
G03*
X188900000Y-144597107I-42236J-1006879D01*
G01*
X188900000Y-104590000D02*
G75*
G03*
X186900000Y-104590000I-1000000J0D01*
G01*
X104350000Y-152590000D02*
G75*
G03*
X102350000Y-152590000I-1000000J0D01*
G01*
X79800000Y-141590000D02*
G75*
G03*
X80900000Y-140540000I48767J1050101D01*
G01*
X186900000Y-81590000D02*
X186900000Y-100590000D01*
X206050000Y-141590000D02*
X190000000Y-141590000D01*
X102350000Y-100590000D02*
G75*
G03*
X104350000Y-100590000I1000000J0D01*
G01*
X206050000Y-143590000D02*
G75*
G03*
X206050000Y-141590000I0J1000000D01*
G01*
X104350000Y-148590000D02*
X104350000Y-144597107D01*
X186900000Y-124590000D02*
G75*
G03*
X188900000Y-124590000I1000000J0D01*
G01*
X35750000Y-143590000D02*
G75*
G03*
X35750000Y-141590000I0J1000000D01*
G01*
X80900000Y-152590000D02*
X80900000Y-159590000D01*
X82900000Y-152590000D02*
G75*
G03*
X80900000Y-152590000I-1000000J0D01*
G01*
X148800000Y-143590000D02*
X164850000Y-143590000D01*
X104350000Y-140540000D02*
X104350000Y-128590000D01*
X35750000Y-141590000D02*
X20900000Y-141590000D01*
X189950000Y-143590000D02*
X206050000Y-143590000D01*
X186900000Y-128590000D02*
X186900000Y-148090000D01*
X102350000Y-124590000D02*
G75*
G03*
X104350000Y-124590000I1000000J0D01*
G01*
X59750000Y-143590000D02*
X39750000Y-143590000D01*
X165850000Y-124565000D02*
G75*
G03*
X167850000Y-124565000I1000000J0D01*
G01*
X63750000Y-141590000D02*
G75*
G03*
X63750000Y-143590000I0J-1000000D01*
G01*
X59750000Y-141590000D02*
X39750000Y-141590000D01*
X120750000Y-141590000D02*
X105400000Y-141590000D01*
X167850000Y-104565000D02*
G75*
G03*
X165850000Y-104565000I-1000000J0D01*
G01*
X165849999Y-144572107D02*
G75*
G03*
X164850000Y-143590000I-999999J-18055D01*
G01*
X248900000Y-141590000D02*
X234050000Y-141590000D01*
X165850000Y-81565000D02*
X165850000Y-100565000D01*
X186900000Y-148090000D02*
G75*
G03*
X188900000Y-148090000I1000000J0D01*
G01*
X102350000Y-152590000D02*
X102350000Y-159590000D01*
X188900000Y-153090000D02*
G75*
G03*
X186900000Y-153090000I-1000000J0D01*
G01*
X102350000Y-148590000D02*
G75*
G03*
X104350000Y-148590000I1000000J0D01*
G01*
X248900000Y-143590000D02*
G75*
G03*
X248900000Y-141590000I0J1000000D01*
G01*
X234050000Y-141590000D02*
G75*
G03*
X234050000Y-143590000I0J-1000000D01*
G01*
X82900000Y-128590000D02*
G75*
G03*
X80900000Y-128590000I-1000000J0D01*
G01*
X167850000Y-81565000D02*
G75*
G03*
X165850000Y-81565000I-1000000J0D01*
G01*
X167850000Y-100565000D02*
X167850000Y-81565000D01*
X148750000Y-141589999D02*
G75*
G03*
X148800000Y-143590000I-19J-1000626D01*
G01*
X144750000Y-141590000D02*
X124750000Y-141590000D01*
X188900000Y-81590000D02*
G75*
G03*
X186900000Y-81590000I-1000000J0D01*
G01*
X124750000Y-141590000D02*
G75*
G03*
X124750000Y-143590000I0J-1000000D01*
G01*
X188900000Y-128590000D02*
G75*
G03*
X186900000Y-128590000I-1000000J0D01*
G01*
X164800000Y-141590000D02*
X148750000Y-141590000D01*
X104350000Y-159590000D02*
X104350000Y-152590000D01*
X20900000Y-143590000D02*
X35750000Y-143590000D01*
X102350000Y-81590000D02*
X102350000Y-100590000D01*
X82900000Y-159590000D02*
X82900000Y-152590000D01*
X17900000Y-78590000D02*
X17900000Y-162590000D01*
X165850000Y-152565000D02*
X165850000Y-159565000D01*
X186900000Y-159590000D02*
G75*
G03*
X188900000Y-159590000I1000000J0D01*
G01*
X188900000Y-140540000D02*
X188900000Y-128590000D01*
X104350000Y-128590000D02*
G75*
G03*
X102350000Y-128590000I-1000000J0D01*
G01*
X80900000Y-81590000D02*
X80900000Y-100590000D01*
X164800000Y-141589999D02*
G75*
G03*
X165850000Y-140590000I24959J1025043D01*
G01*
X105350000Y-143590000D02*
X120750000Y-143590000D01*
X165850000Y-144572107D02*
X165850000Y-148565000D01*
X80900000Y-144597107D02*
X80900000Y-148590000D01*
X82900000Y-81590000D02*
G75*
G03*
X80900000Y-81590000I-1000000J0D01*
G01*
X251900000Y-162590000D02*
X251900000Y-78590000D01*
X63750000Y-143590000D02*
X79850000Y-143590000D01*
X167850000Y-152565000D02*
G75*
G03*
X165850000Y-152565000I-1000000J0D01*
G01*
X186900000Y-153090000D02*
X186900000Y-159590000D01*
X165850000Y-100565000D02*
G75*
G03*
X167850000Y-100565000I1000000J0D01*
G01*
X188900000Y-140540000D02*
G75*
G03*
X190000000Y-141590000I1051119J-18D01*
G01*
X230050000Y-143590000D02*
X210050000Y-143590000D01*
X144750000Y-143590000D02*
X124750000Y-143590000D01*
X104350000Y-124590000D02*
X104350000Y-104590000D01*
X82900000Y-148590000D02*
X82900000Y-128590000D01*
X186900000Y-104590000D02*
X186900000Y-124590000D01*
X230050000Y-141590000D02*
X210050000Y-141590000D01*
X165850000Y-148565000D02*
G75*
G03*
X167850000Y-148565000I1000000J0D01*
G01*
X188900000Y-159590000D02*
X188900000Y-153090000D01*
X104350000Y-81590000D02*
G75*
G03*
X102350000Y-81590000I-1000000J0D01*
G01*
X167850000Y-128565000D02*
G75*
G03*
X165850000Y-128565000I-1000000J0D01*
G01*
X80899999Y-144597107D02*
G75*
G03*
X79850000Y-143590000I-1007984J-1D01*
G01*
X80900000Y-159590000D02*
G75*
G03*
X82900000Y-159590000I1000000J0D01*
G01*
X234050000Y-143590000D02*
X248900000Y-143590000D01*
X167850000Y-124565000D02*
X167850000Y-104565000D01*
X104350000Y-104590000D02*
G75*
G03*
X102350000Y-104590000I-1000000J0D01*
G01*
X230050000Y-143590000D02*
G75*
G03*
X230050000Y-141590000I0J1000000D01*
G01*
X188900000Y-124590000D02*
X188900000Y-104590000D01*
X144750000Y-143590000D02*
G75*
G03*
X144750000Y-141590000I0J1000000D01*
G01*
X80900000Y-148590000D02*
G75*
G03*
X82900000Y-148590000I1000000J0D01*
G01*
X102350000Y-104590000D02*
X102350000Y-124590000D01*
X82900000Y-104590000D02*
G75*
G03*
X80900000Y-104590000I-1000000J0D01*
G01*
X165850000Y-104565000D02*
X165850000Y-124565000D01*
X210050000Y-141590000D02*
G75*
G03*
X210050000Y-143590000I0J-1000000D01*
G01*
X39750000Y-141590000D02*
G75*
G03*
X39750000Y-143590000I0J-1000000D01*
G01*
X80900000Y-128590000D02*
X80900000Y-140540000D01*
M02*
