%TF.GenerationSoftware,KiCad,Pcbnew,(6.0.5)*%
%TF.CreationDate,2026-09-15T22:22:39-04:00*%
%TF.ProjectId,SR_digit_board,53525f64-6967-4697-945f-626f6172642e,rev?*%
%TF.SameCoordinates,Original*%
%TF.FileFunction,Legend,Top*%
%TF.FilePolarity,Positive*%
%FSLAX46Y46*%
G04 Gerber Fmt 4.6, Leading zero omitted, Abs format (unit mm)*
G04 Created by KiCad (PCBNEW (6.0.5)) date 2026-09-15 22:22:39*
%MOMM*%
%LPD*%
G01*
G04 APERTURE LIST*
%ADD10C,0.150000*%
%ADD11C,0.120000*%
%ADD12C,0.127000*%
%ADD13C,0.254000*%
%ADD14C,0.100000*%
G04 APERTURE END LIST*
D10*
X217990001Y-127400000D02*
G75*
G03*
X217990001Y-127400000I-148661J0D01*
G01*
X132950001Y-127490000D02*
G75*
G03*
X132950001Y-127490000I-148661J0D01*
G01*
X47920001Y-127460000D02*
G75*
G03*
X47920001Y-127460000I-148661J0D01*
G01*
X236026271Y-158620000D02*
G75*
G03*
X236026271Y-158620000I-266271J0D01*
G01*
X221130238Y-157240000D02*
G75*
G03*
X221130238Y-157240000I-210238J0D01*
G01*
D11*
X235025500Y-237744000D02*
G75*
G03*
X235025500Y-237744000I-3600000J0D01*
G01*
X97880000Y-236456000D02*
G75*
G03*
X97880000Y-236456000I-3600000J0D01*
G01*
D12*
X246284547Y-236247428D02*
X247046452Y-236247428D01*
X246665500Y-236628380D02*
X246665500Y-235866476D01*
X109139047Y-234959428D02*
X109900952Y-234959428D01*
X109520000Y-235340380D02*
X109520000Y-234578476D01*
D10*
%TO.C,R25*%
X224907142Y-158092380D02*
X224573809Y-157616190D01*
X224335714Y-158092380D02*
X224335714Y-157092380D01*
X224716666Y-157092380D01*
X224811904Y-157140000D01*
X224859523Y-157187619D01*
X224907142Y-157282857D01*
X224907142Y-157425714D01*
X224859523Y-157520952D01*
X224811904Y-157568571D01*
X224716666Y-157616190D01*
X224335714Y-157616190D01*
X225288095Y-157187619D02*
X225335714Y-157140000D01*
X225430952Y-157092380D01*
X225669047Y-157092380D01*
X225764285Y-157140000D01*
X225811904Y-157187619D01*
X225859523Y-157282857D01*
X225859523Y-157378095D01*
X225811904Y-157520952D01*
X225240476Y-158092380D01*
X225859523Y-158092380D01*
X226764285Y-157092380D02*
X226288095Y-157092380D01*
X226240476Y-157568571D01*
X226288095Y-157520952D01*
X226383333Y-157473333D01*
X226621428Y-157473333D01*
X226716666Y-157520952D01*
X226764285Y-157568571D01*
X226811904Y-157663809D01*
X226811904Y-157901904D01*
X226764285Y-157997142D01*
X226716666Y-158044761D01*
X226621428Y-158092380D01*
X226383333Y-158092380D01*
X226288095Y-158044761D01*
X226240476Y-157997142D01*
%TO.C,8025 RTC*%
X234010952Y-157605714D02*
X233963333Y-157700952D01*
X233915714Y-157748571D01*
X233820476Y-157796190D01*
X233772857Y-157796190D01*
X233677619Y-157748571D01*
X233630000Y-157700952D01*
X233582380Y-157605714D01*
X233582380Y-157415238D01*
X233630000Y-157320000D01*
X233677619Y-157272380D01*
X233772857Y-157224761D01*
X233820476Y-157224761D01*
X233915714Y-157272380D01*
X233963333Y-157320000D01*
X234010952Y-157415238D01*
X234010952Y-157605714D01*
X234058571Y-157700952D01*
X234106190Y-157748571D01*
X234201428Y-157796190D01*
X234391904Y-157796190D01*
X234487142Y-157748571D01*
X234534761Y-157700952D01*
X234582380Y-157605714D01*
X234582380Y-157415238D01*
X234534761Y-157320000D01*
X234487142Y-157272380D01*
X234391904Y-157224761D01*
X234201428Y-157224761D01*
X234106190Y-157272380D01*
X234058571Y-157320000D01*
X234010952Y-157415238D01*
X233582380Y-156605714D02*
X233582380Y-156510476D01*
X233630000Y-156415238D01*
X233677619Y-156367619D01*
X233772857Y-156320000D01*
X233963333Y-156272380D01*
X234201428Y-156272380D01*
X234391904Y-156320000D01*
X234487142Y-156367619D01*
X234534761Y-156415238D01*
X234582380Y-156510476D01*
X234582380Y-156605714D01*
X234534761Y-156700952D01*
X234487142Y-156748571D01*
X234391904Y-156796190D01*
X234201428Y-156843809D01*
X233963333Y-156843809D01*
X233772857Y-156796190D01*
X233677619Y-156748571D01*
X233630000Y-156700952D01*
X233582380Y-156605714D01*
X233677619Y-155891428D02*
X233630000Y-155843809D01*
X233582380Y-155748571D01*
X233582380Y-155510476D01*
X233630000Y-155415238D01*
X233677619Y-155367619D01*
X233772857Y-155320000D01*
X233868095Y-155320000D01*
X234010952Y-155367619D01*
X234582380Y-155939047D01*
X234582380Y-155320000D01*
X233582380Y-154415238D02*
X233582380Y-154891428D01*
X234058571Y-154939047D01*
X234010952Y-154891428D01*
X233963333Y-154796190D01*
X233963333Y-154558095D01*
X234010952Y-154462857D01*
X234058571Y-154415238D01*
X234153809Y-154367619D01*
X234391904Y-154367619D01*
X234487142Y-154415238D01*
X234534761Y-154462857D01*
X234582380Y-154558095D01*
X234582380Y-154796190D01*
X234534761Y-154891428D01*
X234487142Y-154939047D01*
X234582380Y-152605714D02*
X234106190Y-152939047D01*
X234582380Y-153177142D02*
X233582380Y-153177142D01*
X233582380Y-152796190D01*
X233630000Y-152700952D01*
X233677619Y-152653333D01*
X233772857Y-152605714D01*
X233915714Y-152605714D01*
X234010952Y-152653333D01*
X234058571Y-152700952D01*
X234106190Y-152796190D01*
X234106190Y-153177142D01*
X233582380Y-152320000D02*
X233582380Y-151748571D01*
X234582380Y-152034285D02*
X233582380Y-152034285D01*
X234487142Y-150843809D02*
X234534761Y-150891428D01*
X234582380Y-151034285D01*
X234582380Y-151129523D01*
X234534761Y-151272380D01*
X234439523Y-151367619D01*
X234344285Y-151415238D01*
X234153809Y-151462857D01*
X234010952Y-151462857D01*
X233820476Y-151415238D01*
X233725238Y-151367619D01*
X233630000Y-151272380D01*
X233582380Y-151129523D01*
X233582380Y-151034285D01*
X233630000Y-150891428D01*
X233677619Y-150843809D01*
%TO.C,595 SR*%
X132758571Y-125262380D02*
X132282380Y-125262380D01*
X132234761Y-125738571D01*
X132282380Y-125690952D01*
X132377619Y-125643333D01*
X132615714Y-125643333D01*
X132710952Y-125690952D01*
X132758571Y-125738571D01*
X132806190Y-125833809D01*
X132806190Y-126071904D01*
X132758571Y-126167142D01*
X132710952Y-126214761D01*
X132615714Y-126262380D01*
X132377619Y-126262380D01*
X132282380Y-126214761D01*
X132234761Y-126167142D01*
X133282380Y-126262380D02*
X133472857Y-126262380D01*
X133568095Y-126214761D01*
X133615714Y-126167142D01*
X133710952Y-126024285D01*
X133758571Y-125833809D01*
X133758571Y-125452857D01*
X133710952Y-125357619D01*
X133663333Y-125310000D01*
X133568095Y-125262380D01*
X133377619Y-125262380D01*
X133282380Y-125310000D01*
X133234761Y-125357619D01*
X133187142Y-125452857D01*
X133187142Y-125690952D01*
X133234761Y-125786190D01*
X133282380Y-125833809D01*
X133377619Y-125881428D01*
X133568095Y-125881428D01*
X133663333Y-125833809D01*
X133710952Y-125786190D01*
X133758571Y-125690952D01*
X134663333Y-125262380D02*
X134187142Y-125262380D01*
X134139523Y-125738571D01*
X134187142Y-125690952D01*
X134282380Y-125643333D01*
X134520476Y-125643333D01*
X134615714Y-125690952D01*
X134663333Y-125738571D01*
X134710952Y-125833809D01*
X134710952Y-126071904D01*
X134663333Y-126167142D01*
X134615714Y-126214761D01*
X134520476Y-126262380D01*
X134282380Y-126262380D01*
X134187142Y-126214761D01*
X134139523Y-126167142D01*
X135853809Y-126214761D02*
X135996666Y-126262380D01*
X136234761Y-126262380D01*
X136330000Y-126214761D01*
X136377619Y-126167142D01*
X136425238Y-126071904D01*
X136425238Y-125976666D01*
X136377619Y-125881428D01*
X136330000Y-125833809D01*
X136234761Y-125786190D01*
X136044285Y-125738571D01*
X135949047Y-125690952D01*
X135901428Y-125643333D01*
X135853809Y-125548095D01*
X135853809Y-125452857D01*
X135901428Y-125357619D01*
X135949047Y-125310000D01*
X136044285Y-125262380D01*
X136282380Y-125262380D01*
X136425238Y-125310000D01*
X137425238Y-126262380D02*
X137091904Y-125786190D01*
X136853809Y-126262380D02*
X136853809Y-125262380D01*
X137234761Y-125262380D01*
X137330000Y-125310000D01*
X137377619Y-125357619D01*
X137425238Y-125452857D01*
X137425238Y-125595714D01*
X137377619Y-125690952D01*
X137330000Y-125738571D01*
X137234761Y-125786190D01*
X136853809Y-125786190D01*
X47818571Y-125252380D02*
X47342380Y-125252380D01*
X47294761Y-125728571D01*
X47342380Y-125680952D01*
X47437619Y-125633333D01*
X47675714Y-125633333D01*
X47770952Y-125680952D01*
X47818571Y-125728571D01*
X47866190Y-125823809D01*
X47866190Y-126061904D01*
X47818571Y-126157142D01*
X47770952Y-126204761D01*
X47675714Y-126252380D01*
X47437619Y-126252380D01*
X47342380Y-126204761D01*
X47294761Y-126157142D01*
X48342380Y-126252380D02*
X48532857Y-126252380D01*
X48628095Y-126204761D01*
X48675714Y-126157142D01*
X48770952Y-126014285D01*
X48818571Y-125823809D01*
X48818571Y-125442857D01*
X48770952Y-125347619D01*
X48723333Y-125300000D01*
X48628095Y-125252380D01*
X48437619Y-125252380D01*
X48342380Y-125300000D01*
X48294761Y-125347619D01*
X48247142Y-125442857D01*
X48247142Y-125680952D01*
X48294761Y-125776190D01*
X48342380Y-125823809D01*
X48437619Y-125871428D01*
X48628095Y-125871428D01*
X48723333Y-125823809D01*
X48770952Y-125776190D01*
X48818571Y-125680952D01*
X49723333Y-125252380D02*
X49247142Y-125252380D01*
X49199523Y-125728571D01*
X49247142Y-125680952D01*
X49342380Y-125633333D01*
X49580476Y-125633333D01*
X49675714Y-125680952D01*
X49723333Y-125728571D01*
X49770952Y-125823809D01*
X49770952Y-126061904D01*
X49723333Y-126157142D01*
X49675714Y-126204761D01*
X49580476Y-126252380D01*
X49342380Y-126252380D01*
X49247142Y-126204761D01*
X49199523Y-126157142D01*
X50913809Y-126204761D02*
X51056666Y-126252380D01*
X51294761Y-126252380D01*
X51390000Y-126204761D01*
X51437619Y-126157142D01*
X51485238Y-126061904D01*
X51485238Y-125966666D01*
X51437619Y-125871428D01*
X51390000Y-125823809D01*
X51294761Y-125776190D01*
X51104285Y-125728571D01*
X51009047Y-125680952D01*
X50961428Y-125633333D01*
X50913809Y-125538095D01*
X50913809Y-125442857D01*
X50961428Y-125347619D01*
X51009047Y-125300000D01*
X51104285Y-125252380D01*
X51342380Y-125252380D01*
X51485238Y-125300000D01*
X52485238Y-126252380D02*
X52151904Y-125776190D01*
X51913809Y-126252380D02*
X51913809Y-125252380D01*
X52294761Y-125252380D01*
X52390000Y-125300000D01*
X52437619Y-125347619D01*
X52485238Y-125442857D01*
X52485238Y-125585714D01*
X52437619Y-125680952D01*
X52390000Y-125728571D01*
X52294761Y-125776190D01*
X51913809Y-125776190D01*
%TO.C,328P*%
X216474285Y-154122380D02*
X217093333Y-154122380D01*
X216760000Y-154503333D01*
X216902857Y-154503333D01*
X216998095Y-154550952D01*
X217045714Y-154598571D01*
X217093333Y-154693809D01*
X217093333Y-154931904D01*
X217045714Y-155027142D01*
X216998095Y-155074761D01*
X216902857Y-155122380D01*
X216617142Y-155122380D01*
X216521904Y-155074761D01*
X216474285Y-155027142D01*
X217474285Y-154217619D02*
X217521904Y-154170000D01*
X217617142Y-154122380D01*
X217855238Y-154122380D01*
X217950476Y-154170000D01*
X217998095Y-154217619D01*
X218045714Y-154312857D01*
X218045714Y-154408095D01*
X217998095Y-154550952D01*
X217426666Y-155122380D01*
X218045714Y-155122380D01*
X218617142Y-154550952D02*
X218521904Y-154503333D01*
X218474285Y-154455714D01*
X218426666Y-154360476D01*
X218426666Y-154312857D01*
X218474285Y-154217619D01*
X218521904Y-154170000D01*
X218617142Y-154122380D01*
X218807619Y-154122380D01*
X218902857Y-154170000D01*
X218950476Y-154217619D01*
X218998095Y-154312857D01*
X218998095Y-154360476D01*
X218950476Y-154455714D01*
X218902857Y-154503333D01*
X218807619Y-154550952D01*
X218617142Y-154550952D01*
X218521904Y-154598571D01*
X218474285Y-154646190D01*
X218426666Y-154741428D01*
X218426666Y-154931904D01*
X218474285Y-155027142D01*
X218521904Y-155074761D01*
X218617142Y-155122380D01*
X218807619Y-155122380D01*
X218902857Y-155074761D01*
X218950476Y-155027142D01*
X218998095Y-154931904D01*
X218998095Y-154741428D01*
X218950476Y-154646190D01*
X218902857Y-154598571D01*
X218807619Y-154550952D01*
X219426666Y-155122380D02*
X219426666Y-154122380D01*
X219807619Y-154122380D01*
X219902857Y-154170000D01*
X219950476Y-154217619D01*
X219998095Y-154312857D01*
X219998095Y-154455714D01*
X219950476Y-154550952D01*
X219902857Y-154598571D01*
X219807619Y-154646190D01*
X219426666Y-154646190D01*
%TO.C,595 SR*%
X217778571Y-125102380D02*
X217302380Y-125102380D01*
X217254761Y-125578571D01*
X217302380Y-125530952D01*
X217397619Y-125483333D01*
X217635714Y-125483333D01*
X217730952Y-125530952D01*
X217778571Y-125578571D01*
X217826190Y-125673809D01*
X217826190Y-125911904D01*
X217778571Y-126007142D01*
X217730952Y-126054761D01*
X217635714Y-126102380D01*
X217397619Y-126102380D01*
X217302380Y-126054761D01*
X217254761Y-126007142D01*
X218302380Y-126102380D02*
X218492857Y-126102380D01*
X218588095Y-126054761D01*
X218635714Y-126007142D01*
X218730952Y-125864285D01*
X218778571Y-125673809D01*
X218778571Y-125292857D01*
X218730952Y-125197619D01*
X218683333Y-125150000D01*
X218588095Y-125102380D01*
X218397619Y-125102380D01*
X218302380Y-125150000D01*
X218254761Y-125197619D01*
X218207142Y-125292857D01*
X218207142Y-125530952D01*
X218254761Y-125626190D01*
X218302380Y-125673809D01*
X218397619Y-125721428D01*
X218588095Y-125721428D01*
X218683333Y-125673809D01*
X218730952Y-125626190D01*
X218778571Y-125530952D01*
X219683333Y-125102380D02*
X219207142Y-125102380D01*
X219159523Y-125578571D01*
X219207142Y-125530952D01*
X219302380Y-125483333D01*
X219540476Y-125483333D01*
X219635714Y-125530952D01*
X219683333Y-125578571D01*
X219730952Y-125673809D01*
X219730952Y-125911904D01*
X219683333Y-126007142D01*
X219635714Y-126054761D01*
X219540476Y-126102380D01*
X219302380Y-126102380D01*
X219207142Y-126054761D01*
X219159523Y-126007142D01*
X220873809Y-126054761D02*
X221016666Y-126102380D01*
X221254761Y-126102380D01*
X221350000Y-126054761D01*
X221397619Y-126007142D01*
X221445238Y-125911904D01*
X221445238Y-125816666D01*
X221397619Y-125721428D01*
X221350000Y-125673809D01*
X221254761Y-125626190D01*
X221064285Y-125578571D01*
X220969047Y-125530952D01*
X220921428Y-125483333D01*
X220873809Y-125388095D01*
X220873809Y-125292857D01*
X220921428Y-125197619D01*
X220969047Y-125150000D01*
X221064285Y-125102380D01*
X221302380Y-125102380D01*
X221445238Y-125150000D01*
X222445238Y-126102380D02*
X222111904Y-125626190D01*
X221873809Y-126102380D02*
X221873809Y-125102380D01*
X222254761Y-125102380D01*
X222350000Y-125150000D01*
X222397619Y-125197619D01*
X222445238Y-125292857D01*
X222445238Y-125435714D01*
X222397619Y-125530952D01*
X222350000Y-125578571D01*
X222254761Y-125626190D01*
X221873809Y-125626190D01*
D11*
%TO.C,R25*%
X225322936Y-158555000D02*
X225777064Y-158555000D01*
X225322936Y-160025000D02*
X225777064Y-160025000D01*
D13*
%TO.C,D5*%
X196426780Y-122911240D02*
X196426780Y-103068760D01*
X216269260Y-103068760D02*
X216269260Y-122911240D01*
X196425587Y-122909819D02*
G75*
G03*
X216269260Y-122911240I9922433J8324698D01*
G01*
X216270453Y-103070181D02*
G75*
G03*
X196426780Y-103068760I-9922433J-8324699D01*
G01*
D11*
X201776020Y-122896000D02*
G75*
G03*
X201776020Y-122896000I-508000J0D01*
G01*
D12*
X208888020Y-112990000D02*
G75*
G03*
X208888020Y-112990000I-2540000J0D01*
G01*
D11*
%TO.C,8025 RTC*%
X231390000Y-149080000D02*
X231390000Y-149920000D01*
X236910000Y-159500000D02*
X236910000Y-158660000D01*
X234150000Y-149080000D02*
X236910000Y-149080000D01*
X236910000Y-158660000D02*
X238600000Y-158660000D01*
X231390000Y-159500000D02*
X231390000Y-158660000D01*
X234150000Y-159500000D02*
X231390000Y-159500000D01*
X234150000Y-149080000D02*
X231390000Y-149080000D01*
X234150000Y-159500000D02*
X236910000Y-159500000D01*
X236910000Y-149080000D02*
X236910000Y-149920000D01*
D10*
%TO.C,595 SR*%
X137575000Y-128040000D02*
X137575000Y-123540000D01*
X132025000Y-129165000D02*
X132025000Y-123540000D01*
D11*
%TO.C,J7*%
X174720000Y-107250000D02*
X174720000Y-105920000D01*
X177320000Y-108520000D02*
X177320000Y-105920000D01*
X177320000Y-105920000D02*
X179920000Y-105920000D01*
X174720000Y-105920000D02*
X176050000Y-105920000D01*
X179920000Y-105920000D02*
X179920000Y-118740000D01*
X174720000Y-108520000D02*
X174720000Y-118740000D01*
X174720000Y-118740000D02*
X179920000Y-118740000D01*
X174720000Y-108520000D02*
X177320000Y-108520000D01*
D13*
%TO.C,D2*%
X73271240Y-102968760D02*
X73271240Y-122811240D01*
X53428760Y-122811240D02*
X53428760Y-102968760D01*
X53427567Y-122809819D02*
G75*
G03*
X73271240Y-122811240I9922433J8324698D01*
G01*
X73272433Y-102970181D02*
G75*
G03*
X53428760Y-102968760I-9922433J-8324699D01*
G01*
D11*
X58778000Y-123050000D02*
G75*
G03*
X58778000Y-123050000I-508000J0D01*
G01*
D12*
X65890000Y-112890000D02*
G75*
G03*
X65890000Y-112890000I-2540000J0D01*
G01*
D13*
%TO.C,D4*%
X138428760Y-122811240D02*
X138428760Y-102968760D01*
X158271240Y-102968760D02*
X158271240Y-122811240D01*
X138427567Y-122809819D02*
G75*
G03*
X158271240Y-122811240I9922433J8324698D01*
G01*
X158272433Y-102970181D02*
G75*
G03*
X138428760Y-102968760I-9922433J-8324699D01*
G01*
D12*
X150890000Y-112890000D02*
G75*
G03*
X150890000Y-112890000I-2540000J0D01*
G01*
D11*
X143778000Y-123050000D02*
G75*
G03*
X143778000Y-123050000I-508000J0D01*
G01*
D13*
%TO.C,D3*%
X111428760Y-122811240D02*
X111428760Y-102968760D01*
X131271240Y-102968760D02*
X131271240Y-122811240D01*
X111427567Y-122809819D02*
G75*
G03*
X131271240Y-122811240I9922433J8324698D01*
G01*
X131272433Y-102970181D02*
G75*
G03*
X111428760Y-102968760I-9922433J-8324699D01*
G01*
D12*
X123890000Y-112890000D02*
G75*
G03*
X123890000Y-112890000I-2540000J0D01*
G01*
D11*
X116778000Y-122796000D02*
G75*
G03*
X116778000Y-122796000I-508000J0D01*
G01*
%TO.C,J3*%
X47280000Y-108485000D02*
X47280000Y-118705000D01*
X47280000Y-105885000D02*
X48610000Y-105885000D01*
X47280000Y-118705000D02*
X52480000Y-118705000D01*
X52480000Y-105885000D02*
X52480000Y-118705000D01*
X47280000Y-108485000D02*
X49880000Y-108485000D01*
X49880000Y-105885000D02*
X52480000Y-105885000D01*
X47280000Y-107215000D02*
X47280000Y-105885000D01*
X49880000Y-108485000D02*
X49880000Y-105885000D01*
D10*
%TO.C,595 SR*%
X47025000Y-129165000D02*
X47025000Y-123540000D01*
X52575000Y-128040000D02*
X52575000Y-123540000D01*
D14*
%TO.C,328P*%
X221600000Y-158190000D02*
X221950000Y-157840000D01*
X221950000Y-157740000D02*
X223250000Y-157740000D01*
X214750000Y-150990000D02*
X215200000Y-150990000D01*
X214750000Y-158190000D02*
X214750000Y-157740000D01*
X214750000Y-158190000D02*
X215200000Y-158190000D01*
X221950000Y-157840000D02*
X221950000Y-157740000D01*
X221950000Y-150990000D02*
X221950000Y-151440000D01*
X221500000Y-158190000D02*
X221600000Y-158190000D01*
X221950000Y-150990000D02*
X221500000Y-150990000D01*
X214750000Y-150990000D02*
X214750000Y-151440000D01*
D11*
%TO.C,J4*%
X217245000Y-107215000D02*
X217245000Y-105885000D01*
X219845000Y-108485000D02*
X219845000Y-105885000D01*
X217245000Y-108485000D02*
X219845000Y-108485000D01*
X217245000Y-118705000D02*
X222445000Y-118705000D01*
X217245000Y-108485000D02*
X217245000Y-118705000D01*
X219845000Y-105885000D02*
X222445000Y-105885000D01*
X222445000Y-105885000D02*
X222445000Y-118705000D01*
X217245000Y-105885000D02*
X218575000Y-105885000D01*
D13*
%TO.C,D6*%
X243271240Y-102968760D02*
X243271240Y-122811240D01*
X223428760Y-122811240D02*
X223428760Y-102968760D01*
X223427567Y-122809819D02*
G75*
G03*
X243271240Y-122811240I9922433J8324698D01*
G01*
X243272433Y-102970181D02*
G75*
G03*
X223428760Y-102968760I-9922433J-8324699D01*
G01*
D12*
X235890000Y-112890000D02*
G75*
G03*
X235890000Y-112890000I-2540000J0D01*
G01*
D10*
%TO.C,595 SR*%
X222575000Y-128040000D02*
X222575000Y-123540000D01*
X217025000Y-129165000D02*
X217025000Y-123540000D01*
D11*
%TO.C,J2*%
X132245000Y-107215000D02*
X132245000Y-105885000D01*
X132245000Y-118705000D02*
X137445000Y-118705000D01*
X132245000Y-105885000D02*
X133575000Y-105885000D01*
X134845000Y-105885000D02*
X137445000Y-105885000D01*
X134845000Y-108485000D02*
X134845000Y-105885000D01*
X132245000Y-108485000D02*
X132245000Y-118705000D01*
X132245000Y-108485000D02*
X134845000Y-108485000D01*
X137445000Y-105885000D02*
X137445000Y-118705000D01*
D13*
%TO.C,D1*%
X46271240Y-102968760D02*
X46271240Y-122811240D01*
X26428760Y-122811240D02*
X26428760Y-102968760D01*
X46272433Y-102970181D02*
G75*
G03*
X26428760Y-102968760I-9922433J-8324699D01*
G01*
X26427567Y-122809819D02*
G75*
G03*
X46271240Y-122811240I9922433J8324698D01*
G01*
D12*
X38890000Y-112890000D02*
G75*
G03*
X38890000Y-112890000I-2540000J0D01*
G01*
D11*
X31778000Y-123050000D02*
G75*
G03*
X31778000Y-123050000I-508000J0D01*
G01*
%TD*%
M02*
