%TF.GenerationSoftware,KiCad,Pcbnew,(6.0.5)*%
%TF.CreationDate,2026-09-15T22:22:39-04:00*%
%TF.ProjectId,SR_digit_board,53525f64-6967-4697-945f-626f6172642e,rev?*%
%TF.SameCoordinates,Original*%
%TF.FileFunction,Soldermask,Bot*%
%TF.FilePolarity,Negative*%
%FSLAX46Y46*%
G04 Gerber Fmt 4.6, Leading zero omitted, Abs format (unit mm)*
G04 Created by KiCad (PCBNEW (6.0.5)) date 2026-09-15 22:22:39*
%MOMM*%
%LPD*%
G01*
G04 APERTURE LIST*
G04 Aperture macros list*
%AMRoundRect*
0 Rectangle with rounded corners*
0 $1 Rounding radius*
0 $2 $3 $4 $5 $6 $7 $8 $9 X,Y pos of 4 corners*
0 Add a 4 corners polygon primitive as box body*
4,1,4,$2,$3,$4,$5,$6,$7,$8,$9,$2,$3,0*
0 Add four circle primitives for the rounded corners*
1,1,$1+$1,$2,$3*
1,1,$1+$1,$4,$5*
1,1,$1+$1,$6,$7*
1,1,$1+$1,$8,$9*
0 Add four rect primitives between the rounded corners*
20,1,$1+$1,$2,$3,$4,$5,0*
20,1,$1+$1,$4,$5,$6,$7,0*
20,1,$1+$1,$6,$7,$8,$9,0*
20,1,$1+$1,$8,$9,$2,$3,0*%
G04 Aperture macros list end*
%ADD10R,1.500000X1.500000*%
%ADD11C,1.500000*%
%ADD12O,3.500000X3.500000*%
%ADD13R,2.000000X1.905000*%
%ADD14O,2.000000X1.905000*%
%ADD15R,1.905000X2.000000*%
%ADD16O,1.905000X2.000000*%
%ADD17R,2.200000X2.200000*%
%ADD18O,2.200000X2.200000*%
%ADD19C,1.600000*%
%ADD20O,1.600000X1.600000*%
%ADD21C,4.998720*%
%ADD22C,2.397760*%
%ADD23C,1.440000*%
%ADD24C,2.500000*%
%ADD25R,2.170000X2.170000*%
%ADD26C,2.000000*%
%ADD27R,1.700000X1.700000*%
%ADD28O,1.700000X1.700000*%
%ADD29R,1.600000X1.600000*%
%ADD30C,1.700000*%
%ADD31R,2.000000X2.000000*%
%ADD32C,2.010000*%
%ADD33C,2.600000*%
%ADD34RoundRect,0.250000X-0.350000X-0.450000X0.350000X-0.450000X0.350000X0.450000X-0.350000X0.450000X0*%
%ADD35R,1.500000X2.000000*%
%ADD36R,3.800000X2.000000*%
%ADD37R,1.600000X2.400000*%
%ADD38O,1.600000X2.400000*%
%ADD39RoundRect,0.250000X-0.450000X0.350000X-0.450000X-0.350000X0.450000X-0.350000X0.450000X0.350000X0*%
%ADD40RoundRect,0.250000X0.450000X-0.350000X0.450000X0.350000X-0.450000X0.350000X-0.450000X-0.350000X0*%
%ADD41RoundRect,0.250000X0.350000X0.450000X-0.350000X0.450000X-0.350000X-0.450000X0.350000X-0.450000X0*%
%ADD42RoundRect,0.250000X0.475000X-0.337500X0.475000X0.337500X-0.475000X0.337500X-0.475000X-0.337500X0*%
G04 APERTURE END LIST*
D10*
%TO.C,MPSA55*%
X98875000Y-154490000D03*
D11*
X98875000Y-157090000D03*
X98875000Y-159690000D03*
%TD*%
D12*
%TO.C,MC7805 Reg*%
X141620000Y-156690000D03*
D13*
X158280000Y-159230000D03*
D14*
X158280000Y-156690000D03*
X158280000Y-154150000D03*
%TD*%
D12*
%TO.C,IRF740*%
X89160000Y-157240000D03*
D15*
X91700000Y-140580000D03*
D16*
X89160000Y-140580000D03*
X86620000Y-140580000D03*
%TD*%
D17*
%TO.C,D10*%
X201500000Y-157790000D03*
D18*
X191340000Y-157790000D03*
%TD*%
D10*
%TO.C,BC547*%
X122790000Y-147180000D03*
D11*
X120250000Y-147180000D03*
X117710000Y-147180000D03*
%TD*%
D19*
%TO.C,4.7k*%
X99950000Y-133805000D03*
D20*
X99950000Y-141425000D03*
%TD*%
D21*
%TO.C,D5*%
X206348020Y-112990000D03*
D22*
X212096040Y-117488340D03*
X212096040Y-112990000D03*
X212096040Y-108491660D03*
X210345980Y-104991540D03*
X206348020Y-103990780D03*
X202350060Y-104991540D03*
X200600000Y-108491660D03*
X200600000Y-112990000D03*
X200600000Y-117488340D03*
X202350060Y-120988460D03*
X210345980Y-120988460D03*
X206348020Y-121989220D03*
%TD*%
D19*
%TO.C,47p*%
X84900000Y-130290000D03*
X84900000Y-132790000D03*
%TD*%
D23*
%TO.C,1k Pot*%
X109640000Y-156230000D03*
X107100000Y-153690000D03*
X109640000Y-151150000D03*
%TD*%
D18*
%TO.C,<-D*%
X157780000Y-149460000D03*
D17*
X157780000Y-146920000D03*
%TD*%
D24*
%TO.C,BAT1*%
X177370000Y-149624300D03*
D25*
X177370000Y-129624300D03*
%TD*%
D26*
%TO.C,2.2n*%
X126760000Y-159130000D03*
X136760000Y-159130000D03*
%TD*%
D27*
%TO.C,J7*%
X176050000Y-107250000D03*
D28*
X178590000Y-107250000D03*
X176050000Y-109790000D03*
X178590000Y-109790000D03*
X176050000Y-112330000D03*
X178590000Y-112330000D03*
X176050000Y-114870000D03*
X178590000Y-114870000D03*
X176050000Y-117410000D03*
X178590000Y-117410000D03*
%TD*%
D21*
%TO.C,D2*%
X63350000Y-112890000D03*
D22*
X69098020Y-117388340D03*
X69098020Y-112890000D03*
X69098020Y-108391660D03*
X67347960Y-104891540D03*
X63350000Y-103890780D03*
X59352040Y-104891540D03*
X57601980Y-108391660D03*
X57601980Y-112890000D03*
X57601980Y-117388340D03*
X59352040Y-120888460D03*
X67347960Y-120888460D03*
X63350000Y-121889220D03*
%TD*%
D19*
%TO.C,33k*%
X123500000Y-151065000D03*
D20*
X115880000Y-151065000D03*
%TD*%
D17*
%TO.C,D8*%
X201500000Y-154590000D03*
D18*
X191340000Y-154590000D03*
%TD*%
D21*
%TO.C,D4*%
X148350000Y-112890000D03*
D22*
X154098020Y-117388340D03*
X154098020Y-112890000D03*
X154098020Y-108391660D03*
X152347960Y-104891540D03*
X148350000Y-103890780D03*
X144352040Y-104891540D03*
X142601980Y-108391660D03*
X142601980Y-112890000D03*
X142601980Y-117388340D03*
X144352040Y-120888460D03*
X152347960Y-120888460D03*
X148350000Y-121889220D03*
%TD*%
D19*
%TO.C,1k*%
X139405000Y-146100000D03*
D20*
X147025000Y-146100000D03*
%TD*%
D21*
%TO.C,D3*%
X121350000Y-112890000D03*
D22*
X127098020Y-117388340D03*
X127098020Y-112890000D03*
X127098020Y-108391660D03*
X125347960Y-104891540D03*
X121350000Y-103890780D03*
X117352040Y-104891540D03*
X115601980Y-108391660D03*
X115601980Y-112890000D03*
X115601980Y-117388340D03*
X117352040Y-120888460D03*
X125347960Y-120888460D03*
X121350000Y-121889220D03*
%TD*%
D19*
%TO.C,1u*%
X93575000Y-135655000D03*
D29*
X96075000Y-135655000D03*
%TD*%
D27*
%TO.C,J3*%
X48610000Y-107215000D03*
D28*
X51150000Y-107215000D03*
X48610000Y-109755000D03*
X51150000Y-109755000D03*
X48610000Y-112295000D03*
X51150000Y-112295000D03*
X48610000Y-114835000D03*
X51150000Y-114835000D03*
X48610000Y-117375000D03*
X51150000Y-117375000D03*
%TD*%
D19*
%TO.C,1k*%
X126225000Y-152960000D03*
D20*
X126225000Y-145340000D03*
%TD*%
D27*
%TO.C,SW3*%
X211150000Y-160315000D03*
D28*
X211150000Y-157775000D03*
%TD*%
D17*
%TO.C,D11*%
X98545000Y-130240000D03*
D18*
X90925000Y-130240000D03*
%TD*%
D27*
%TO.C,J4*%
X218575000Y-107215000D03*
D28*
X221115000Y-107215000D03*
X218575000Y-109755000D03*
X221115000Y-109755000D03*
X218575000Y-112295000D03*
X221115000Y-112295000D03*
X218575000Y-114835000D03*
X221115000Y-114835000D03*
X218575000Y-117375000D03*
X221115000Y-117375000D03*
%TD*%
D27*
%TO.C,BarrelJack*%
X161250000Y-146950000D03*
D30*
X161250000Y-149490000D03*
%TD*%
D19*
%TO.C,10k*%
X147025000Y-149290000D03*
D20*
X139405000Y-149290000D03*
%TD*%
D21*
%TO.C,D6*%
X233350000Y-112890000D03*
D22*
X239098020Y-117388340D03*
X239098020Y-112890000D03*
X239098020Y-108391660D03*
X237347960Y-104891540D03*
X233350000Y-103890780D03*
X229352040Y-104891540D03*
X227601980Y-108391660D03*
X227601980Y-112890000D03*
X227601980Y-117388340D03*
X229352040Y-120888460D03*
X237347960Y-120888460D03*
X233350000Y-121889220D03*
%TD*%
D19*
%TO.C,1k*%
X87875000Y-137910000D03*
D20*
X87875000Y-130290000D03*
%TD*%
D27*
%TO.C,SW1*%
X205800000Y-160340000D03*
D28*
X205800000Y-157800000D03*
%TD*%
D26*
%TO.C,470u*%
X173550000Y-158947323D03*
D31*
X173550000Y-153947323D03*
%TD*%
D27*
%TO.C,J2*%
X133575000Y-107215000D03*
D28*
X136115000Y-107215000D03*
X133575000Y-109755000D03*
X136115000Y-109755000D03*
X133575000Y-112295000D03*
X136115000Y-112295000D03*
X133575000Y-114835000D03*
X136115000Y-114835000D03*
X133575000Y-117375000D03*
X136115000Y-117375000D03*
%TD*%
D27*
%TO.C,SW2*%
X208450000Y-160330000D03*
D28*
X208450000Y-157790000D03*
%TD*%
D29*
%TO.C,NE555*%
X136875000Y-152915000D03*
D19*
X134335000Y-152915000D03*
X131795000Y-152915000D03*
X129255000Y-152915000D03*
X129255000Y-145295000D03*
X131795000Y-145295000D03*
X134335000Y-145295000D03*
X136875000Y-145295000D03*
%TD*%
%TO.C,220nTANT*%
X161225000Y-153615000D03*
X161225000Y-156115000D03*
%TD*%
D29*
%TO.C,D9*%
X96275000Y-140555000D03*
D20*
X96275000Y-148175000D03*
%TD*%
D32*
%TO.C,F1*%
X154750000Y-147230000D03*
X149650000Y-148430000D03*
%TD*%
D20*
%TO.C,220k*%
X99950000Y-143690000D03*
D19*
X99950000Y-151310000D03*
%TD*%
D21*
%TO.C,D1*%
X36350000Y-112890000D03*
D22*
X42098020Y-117388340D03*
X42098020Y-112890000D03*
X42098020Y-108391660D03*
X40347960Y-104891540D03*
X36350000Y-103890780D03*
X32352040Y-104891540D03*
X30601980Y-108391660D03*
X30601980Y-112890000D03*
X30601980Y-117388340D03*
X32352040Y-120888460D03*
X40347960Y-120888460D03*
X36350000Y-121889220D03*
%TD*%
D19*
%TO.C,220nTANT*%
X161225000Y-158390000D03*
X161225000Y-160890000D03*
%TD*%
D33*
%TO.C,100uH*%
X120000000Y-154990000D03*
X120000000Y-159990000D03*
%TD*%
D20*
%TO.C,470*%
X114350000Y-146570000D03*
D19*
X106730000Y-146570000D03*
%TD*%
D34*
%TO.C,15k*%
X210750000Y-123390000D03*
X208750000Y-123390000D03*
%TD*%
D35*
%TO.C,MPSA42*%
X58150000Y-125740000D03*
D36*
X60450000Y-132040000D03*
D35*
X60450000Y-125740000D03*
X62750000Y-125740000D03*
%TD*%
%TO.C,MPSA42*%
X143150000Y-125740000D03*
X145450000Y-125740000D03*
D36*
X145450000Y-132040000D03*
D35*
X147750000Y-125740000D03*
%TD*%
D34*
%TO.C,33k*%
X43750000Y-127390000D03*
X45750000Y-127390000D03*
%TD*%
D37*
%TO.C,K155ID1*%
X41550000Y-92790000D03*
D38*
X44090000Y-92790000D03*
X46630000Y-92790000D03*
X49170000Y-92790000D03*
X51710000Y-92790000D03*
X54250000Y-92790000D03*
X56790000Y-92790000D03*
X59330000Y-92790000D03*
X59330000Y-100410000D03*
X56790000Y-100410000D03*
X54250000Y-100410000D03*
X51710000Y-100410000D03*
X49170000Y-100410000D03*
X46630000Y-100410000D03*
X44090000Y-100410000D03*
X41550000Y-100410000D03*
%TD*%
D35*
%TO.C,MPSA92*%
X201750000Y-132140000D03*
D36*
X199450000Y-125840000D03*
D35*
X199450000Y-132140000D03*
X197150000Y-132140000D03*
%TD*%
D39*
%TO.C,470k*%
X34250000Y-130490000D03*
X34250000Y-132490000D03*
%TD*%
D40*
%TO.C,100k*%
X139650000Y-132490000D03*
X139650000Y-130490000D03*
%TD*%
D35*
%TO.C,MPSA42*%
X206850000Y-125790000D03*
D36*
X209150000Y-132090000D03*
D35*
X209150000Y-125790000D03*
X211450000Y-125790000D03*
%TD*%
D41*
%TO.C,33k*%
X55750000Y-125990000D03*
X53750000Y-125990000D03*
%TD*%
D35*
%TO.C,MPSA92*%
X31750000Y-132140000D03*
X29450000Y-132140000D03*
D36*
X29450000Y-125840000D03*
D35*
X27150000Y-132140000D03*
%TD*%
D39*
%TO.C,470k*%
X204250000Y-130490000D03*
X204250000Y-132490000D03*
%TD*%
D41*
%TO.C,33k*%
X225750000Y-125990000D03*
X223750000Y-125990000D03*
%TD*%
D40*
%TO.C,470k*%
X235350000Y-132490000D03*
X235350000Y-130490000D03*
%TD*%
D34*
%TO.C,33k*%
X213750000Y-127390000D03*
X215750000Y-127390000D03*
%TD*%
D41*
%TO.C,33k*%
X140750000Y-125990000D03*
X138750000Y-125990000D03*
%TD*%
D39*
%TO.C,470k*%
X119250000Y-130490000D03*
X119250000Y-132490000D03*
%TD*%
D35*
%TO.C,MPSA42*%
X228150000Y-125740000D03*
D36*
X230450000Y-132040000D03*
D35*
X230450000Y-125740000D03*
X232750000Y-125740000D03*
%TD*%
D40*
%TO.C,100k*%
X44650000Y-132490000D03*
X44650000Y-130490000D03*
%TD*%
%TO.C,470k*%
X65350000Y-132490000D03*
X65350000Y-130490000D03*
%TD*%
D35*
%TO.C,MPSA92*%
X152950000Y-125790000D03*
D36*
X155250000Y-132090000D03*
D35*
X155250000Y-125790000D03*
X157550000Y-125790000D03*
%TD*%
D34*
%TO.C,15k*%
X123750000Y-123390000D03*
X125750000Y-123390000D03*
%TD*%
D35*
%TO.C,MPSA42*%
X121850000Y-125790000D03*
D36*
X124150000Y-132090000D03*
D35*
X124150000Y-125790000D03*
X126450000Y-125790000D03*
%TD*%
D41*
%TO.C,15k*%
X69650000Y-123390000D03*
X67650000Y-123390000D03*
%TD*%
D40*
%TO.C,100k*%
X214650000Y-132490000D03*
X214650000Y-130490000D03*
%TD*%
%TO.C,470k*%
X150350000Y-132490000D03*
X150350000Y-130490000D03*
%TD*%
D37*
%TO.C,K155ID1*%
X211560000Y-92790000D03*
D38*
X214100000Y-92790000D03*
X216640000Y-92790000D03*
X219180000Y-92790000D03*
X221720000Y-92790000D03*
X224260000Y-92790000D03*
X226800000Y-92790000D03*
X229340000Y-92790000D03*
X229340000Y-100410000D03*
X226800000Y-100410000D03*
X224260000Y-100410000D03*
X221720000Y-100410000D03*
X219180000Y-100410000D03*
X216640000Y-100410000D03*
X214100000Y-100410000D03*
X211560000Y-100410000D03*
%TD*%
D35*
%TO.C,MPSA92*%
X67950000Y-125790000D03*
D36*
X70250000Y-132090000D03*
D35*
X70250000Y-125790000D03*
X72550000Y-125790000D03*
%TD*%
D41*
%TO.C,15k*%
X239650000Y-123390000D03*
X237650000Y-123390000D03*
%TD*%
D42*
%TO.C,22p*%
X226750000Y-149927500D03*
X226750000Y-147852500D03*
%TD*%
%TO.C,22p*%
X212450000Y-149927500D03*
X212450000Y-147852500D03*
%TD*%
D34*
%TO.C,15k*%
X38800000Y-123390000D03*
X40800000Y-123390000D03*
%TD*%
D35*
%TO.C,MPSA92*%
X116750000Y-132140000D03*
D36*
X114450000Y-125840000D03*
D35*
X114450000Y-132140000D03*
X112150000Y-132140000D03*
%TD*%
D11*
%TO.C,16Mhz*%
X217137500Y-147890000D03*
X222037500Y-147890000D03*
%TD*%
D35*
%TO.C,MPSA92*%
X237950000Y-125790000D03*
X240250000Y-125790000D03*
D36*
X240250000Y-132090000D03*
D35*
X242550000Y-125790000D03*
%TD*%
D41*
%TO.C,15k*%
X154650000Y-123390000D03*
X152650000Y-123390000D03*
%TD*%
D35*
%TO.C,MPSA42*%
X36850000Y-125790000D03*
D36*
X39150000Y-132090000D03*
D35*
X39150000Y-125790000D03*
X41450000Y-125790000D03*
%TD*%
D37*
%TO.C,K155ID1*%
X126550000Y-92790000D03*
D38*
X129090000Y-92790000D03*
X131630000Y-92790000D03*
X134170000Y-92790000D03*
X136710000Y-92790000D03*
X139250000Y-92790000D03*
X141790000Y-92790000D03*
X144330000Y-92790000D03*
X144330000Y-100410000D03*
X141790000Y-100410000D03*
X139250000Y-100410000D03*
X136710000Y-100410000D03*
X134170000Y-100410000D03*
X131630000Y-100410000D03*
X129090000Y-100410000D03*
X126550000Y-100410000D03*
%TD*%
D40*
%TO.C,100k*%
X224650000Y-132490000D03*
X224650000Y-130490000D03*
%TD*%
%TO.C,100k*%
X129650000Y-132490000D03*
X129650000Y-130490000D03*
%TD*%
%TO.C,100k*%
X54650000Y-132490000D03*
X54650000Y-130490000D03*
%TD*%
D34*
%TO.C,33k*%
X128750000Y-127390000D03*
X130750000Y-127390000D03*
%TD*%
M02*
