%TF.GenerationSoftware,KiCad,Pcbnew,(6.0.5)*%
%TF.CreationDate,2026-09-15T22:22:39-04:00*%
%TF.ProjectId,SR_digit_board,53525f64-6967-4697-945f-626f6172642e,rev?*%
%TF.SameCoordinates,Original*%
%TF.FileFunction,Soldermask,Top*%
%TF.FilePolarity,Negative*%
%FSLAX46Y46*%
G04 Gerber Fmt 4.6, Leading zero omitted, Abs format (unit mm)*
G04 Created by KiCad (PCBNEW (6.0.5)) date 2026-09-15 22:22:39*
%MOMM*%
%LPD*%
G01*
G04 APERTURE LIST*
G04 Aperture macros list*
%AMRoundRect*
0 Rectangle with rounded corners*
0 $1 Rounding radius*
0 $2 $3 $4 $5 $6 $7 $8 $9 X,Y pos of 4 corners*
0 Add a 4 corners polygon primitive as box body*
4,1,4,$2,$3,$4,$5,$6,$7,$8,$9,$2,$3,0*
0 Add four circle primitives for the rounded corners*
1,1,$1+$1,$2,$3*
1,1,$1+$1,$4,$5*
1,1,$1+$1,$6,$7*
1,1,$1+$1,$8,$9*
0 Add four rect primitives between the rounded corners*
20,1,$1+$1,$2,$3,$4,$5,0*
20,1,$1+$1,$4,$5,$6,$7,0*
20,1,$1+$1,$6,$7,$8,$9,0*
20,1,$1+$1,$8,$9,$2,$3,0*%
G04 Aperture macros list end*
%ADD10R,1.500000X1.500000*%
%ADD11C,1.500000*%
%ADD12O,3.500000X3.500000*%
%ADD13R,2.000000X1.905000*%
%ADD14O,2.000000X1.905000*%
%ADD15R,1.905000X2.000000*%
%ADD16O,1.905000X2.000000*%
%ADD17RoundRect,0.250000X-0.350000X-0.450000X0.350000X-0.450000X0.350000X0.450000X-0.350000X0.450000X0*%
%ADD18R,2.200000X2.200000*%
%ADD19O,2.200000X2.200000*%
%ADD20C,1.600000*%
%ADD21O,1.600000X1.600000*%
%ADD22C,4.998720*%
%ADD23C,2.397760*%
%ADD24C,1.440000*%
%ADD25RoundRect,0.150000X0.837500X0.150000X-0.837500X0.150000X-0.837500X-0.150000X0.837500X-0.150000X0*%
%ADD26C,2.500000*%
%ADD27R,2.170000X2.170000*%
%ADD28R,0.450000X1.050000*%
%ADD29C,2.000000*%
%ADD30R,1.700000X1.700000*%
%ADD31O,1.700000X1.700000*%
%ADD32R,1.600000X1.600000*%
%ADD33R,1.500000X0.550000*%
%ADD34R,0.550000X1.500000*%
%ADD35C,1.700000*%
%ADD36R,2.000000X2.000000*%
%ADD37C,2.010000*%
%ADD38C,2.600000*%
%ADD39R,1.600000X2.400000*%
%ADD40O,1.600000X2.400000*%
G04 APERTURE END LIST*
D10*
%TO.C,MPSA55*%
X98875000Y-154490000D03*
D11*
X98875000Y-157090000D03*
X98875000Y-159690000D03*
%TD*%
D12*
%TO.C,MC7805 Reg*%
X141620000Y-156690000D03*
D13*
X158280000Y-159230000D03*
D14*
X158280000Y-156690000D03*
X158280000Y-154150000D03*
%TD*%
D12*
%TO.C,IRF740*%
X89160000Y-157240000D03*
D15*
X91700000Y-140580000D03*
D16*
X89160000Y-140580000D03*
X86620000Y-140580000D03*
%TD*%
D17*
%TO.C,R25*%
X224550000Y-159290000D03*
X226550000Y-159290000D03*
%TD*%
D18*
%TO.C,D10*%
X201500000Y-157790000D03*
D19*
X191340000Y-157790000D03*
%TD*%
D10*
%TO.C,BC547*%
X122790000Y-147180000D03*
D11*
X120250000Y-147180000D03*
X117710000Y-147180000D03*
%TD*%
D20*
%TO.C,4.7k*%
X99950000Y-133805000D03*
D21*
X99950000Y-141425000D03*
%TD*%
D22*
%TO.C,D5*%
X206348020Y-112990000D03*
D23*
X212096040Y-117488340D03*
X212096040Y-112990000D03*
X212096040Y-108491660D03*
X210345980Y-104991540D03*
X206348020Y-103990780D03*
X202350060Y-104991540D03*
X200600000Y-108491660D03*
X200600000Y-112990000D03*
X200600000Y-117488340D03*
X202350060Y-120988460D03*
X210345980Y-120988460D03*
X206348020Y-121989220D03*
%TD*%
D20*
%TO.C,47p*%
X84900000Y-130290000D03*
X84900000Y-132790000D03*
%TD*%
D24*
%TO.C,1k Pot*%
X109640000Y-156230000D03*
X107100000Y-153690000D03*
X109640000Y-151150000D03*
%TD*%
D19*
%TO.C,<-D*%
X157780000Y-149460000D03*
D18*
X157780000Y-146920000D03*
%TD*%
D25*
%TO.C,8025 RTC*%
X237612500Y-158100000D03*
X237612500Y-156830000D03*
X237612500Y-155560000D03*
X237612500Y-154290000D03*
X237612500Y-153020000D03*
X237612500Y-151750000D03*
X237612500Y-150480000D03*
X230687500Y-150480000D03*
X230687500Y-151750000D03*
X230687500Y-153020000D03*
X230687500Y-154290000D03*
X230687500Y-155560000D03*
X230687500Y-156830000D03*
X230687500Y-158100000D03*
%TD*%
D26*
%TO.C,BAT1*%
X177370000Y-149624300D03*
D27*
X177370000Y-129624300D03*
%TD*%
D28*
%TO.C,595 SR*%
X132575000Y-128565000D03*
X133225000Y-128565000D03*
X133875000Y-128565000D03*
X134525000Y-128565000D03*
X135175000Y-128565000D03*
X135825000Y-128565000D03*
X136475000Y-128565000D03*
X137125000Y-128565000D03*
X137125000Y-123015000D03*
X136475000Y-123015000D03*
X135825000Y-123015000D03*
X135175000Y-123015000D03*
X134525000Y-123015000D03*
X133875000Y-123015000D03*
X133225000Y-123015000D03*
X132575000Y-123015000D03*
%TD*%
D29*
%TO.C,2.2n*%
X126760000Y-159130000D03*
X136760000Y-159130000D03*
%TD*%
D30*
%TO.C,J7*%
X176050000Y-107250000D03*
D31*
X178590000Y-107250000D03*
X176050000Y-109790000D03*
X178590000Y-109790000D03*
X176050000Y-112330000D03*
X178590000Y-112330000D03*
X176050000Y-114870000D03*
X178590000Y-114870000D03*
X176050000Y-117410000D03*
X178590000Y-117410000D03*
%TD*%
D22*
%TO.C,D2*%
X63350000Y-112890000D03*
D23*
X69098020Y-117388340D03*
X69098020Y-112890000D03*
X69098020Y-108391660D03*
X67347960Y-104891540D03*
X63350000Y-103890780D03*
X59352040Y-104891540D03*
X57601980Y-108391660D03*
X57601980Y-112890000D03*
X57601980Y-117388340D03*
X59352040Y-120888460D03*
X67347960Y-120888460D03*
X63350000Y-121889220D03*
%TD*%
D20*
%TO.C,33k*%
X123500000Y-151065000D03*
D21*
X115880000Y-151065000D03*
%TD*%
D18*
%TO.C,D8*%
X201500000Y-154590000D03*
D19*
X191340000Y-154590000D03*
%TD*%
D22*
%TO.C,D4*%
X148350000Y-112890000D03*
D23*
X154098020Y-117388340D03*
X154098020Y-112890000D03*
X154098020Y-108391660D03*
X152347960Y-104891540D03*
X148350000Y-103890780D03*
X144352040Y-104891540D03*
X142601980Y-108391660D03*
X142601980Y-112890000D03*
X142601980Y-117388340D03*
X144352040Y-120888460D03*
X152347960Y-120888460D03*
X148350000Y-121889220D03*
%TD*%
D20*
%TO.C,1k*%
X139405000Y-146100000D03*
D21*
X147025000Y-146100000D03*
%TD*%
D22*
%TO.C,D3*%
X121350000Y-112890000D03*
D23*
X127098020Y-117388340D03*
X127098020Y-112890000D03*
X127098020Y-108391660D03*
X125347960Y-104891540D03*
X121350000Y-103890780D03*
X117352040Y-104891540D03*
X115601980Y-108391660D03*
X115601980Y-112890000D03*
X115601980Y-117388340D03*
X117352040Y-120888460D03*
X125347960Y-120888460D03*
X121350000Y-121889220D03*
%TD*%
D20*
%TO.C,1u*%
X93575000Y-135655000D03*
D32*
X96075000Y-135655000D03*
%TD*%
D30*
%TO.C,J3*%
X48610000Y-107215000D03*
D31*
X51150000Y-107215000D03*
X48610000Y-109755000D03*
X51150000Y-109755000D03*
X48610000Y-112295000D03*
X51150000Y-112295000D03*
X48610000Y-114835000D03*
X51150000Y-114835000D03*
X48610000Y-117375000D03*
X51150000Y-117375000D03*
%TD*%
D28*
%TO.C,595 SR*%
X47575000Y-128565000D03*
X48225000Y-128565000D03*
X48875000Y-128565000D03*
X49525000Y-128565000D03*
X50175000Y-128565000D03*
X50825000Y-128565000D03*
X51475000Y-128565000D03*
X52125000Y-128565000D03*
X52125000Y-123015000D03*
X51475000Y-123015000D03*
X50825000Y-123015000D03*
X50175000Y-123015000D03*
X49525000Y-123015000D03*
X48875000Y-123015000D03*
X48225000Y-123015000D03*
X47575000Y-123015000D03*
%TD*%
D33*
%TO.C,328P*%
X222550000Y-157390000D03*
X222550000Y-156590000D03*
X222550000Y-155790000D03*
X222550000Y-154990000D03*
X222550000Y-154190000D03*
X222550000Y-153390000D03*
X222550000Y-152590000D03*
X222550000Y-151790000D03*
D34*
X221150000Y-150390000D03*
X220350000Y-150390000D03*
X219550000Y-150390000D03*
X218750000Y-150390000D03*
X217950000Y-150390000D03*
X217150000Y-150390000D03*
X216350000Y-150390000D03*
X215550000Y-150390000D03*
D33*
X214150000Y-151790000D03*
X214150000Y-152590000D03*
X214150000Y-153390000D03*
X214150000Y-154190000D03*
X214150000Y-154990000D03*
X214150000Y-155790000D03*
X214150000Y-156590000D03*
X214150000Y-157390000D03*
D34*
X215550000Y-158790000D03*
X216350000Y-158790000D03*
X217150000Y-158790000D03*
X217950000Y-158790000D03*
X218750000Y-158790000D03*
X219550000Y-158790000D03*
X220350000Y-158790000D03*
X221150000Y-158790000D03*
%TD*%
D20*
%TO.C,1k*%
X126225000Y-152960000D03*
D21*
X126225000Y-145340000D03*
%TD*%
D30*
%TO.C,SW3*%
X211150000Y-160315000D03*
D31*
X211150000Y-157775000D03*
%TD*%
D18*
%TO.C,D11*%
X98545000Y-130240000D03*
D19*
X90925000Y-130240000D03*
%TD*%
D30*
%TO.C,J4*%
X218575000Y-107215000D03*
D31*
X221115000Y-107215000D03*
X218575000Y-109755000D03*
X221115000Y-109755000D03*
X218575000Y-112295000D03*
X221115000Y-112295000D03*
X218575000Y-114835000D03*
X221115000Y-114835000D03*
X218575000Y-117375000D03*
X221115000Y-117375000D03*
%TD*%
D30*
%TO.C,BarrelJack*%
X161250000Y-146950000D03*
D35*
X161250000Y-149490000D03*
%TD*%
D20*
%TO.C,10k*%
X147025000Y-149290000D03*
D21*
X139405000Y-149290000D03*
%TD*%
D22*
%TO.C,D6*%
X233350000Y-112890000D03*
D23*
X239098020Y-117388340D03*
X239098020Y-112890000D03*
X239098020Y-108391660D03*
X237347960Y-104891540D03*
X233350000Y-103890780D03*
X229352040Y-104891540D03*
X227601980Y-108391660D03*
X227601980Y-112890000D03*
X227601980Y-117388340D03*
X229352040Y-120888460D03*
X237347960Y-120888460D03*
X233350000Y-121889220D03*
%TD*%
D28*
%TO.C,595 SR*%
X217575000Y-128565000D03*
X218225000Y-128565000D03*
X218875000Y-128565000D03*
X219525000Y-128565000D03*
X220175000Y-128565000D03*
X220825000Y-128565000D03*
X221475000Y-128565000D03*
X222125000Y-128565000D03*
X222125000Y-123015000D03*
X221475000Y-123015000D03*
X220825000Y-123015000D03*
X220175000Y-123015000D03*
X219525000Y-123015000D03*
X218875000Y-123015000D03*
X218225000Y-123015000D03*
X217575000Y-123015000D03*
%TD*%
D20*
%TO.C,1k*%
X87875000Y-137910000D03*
D21*
X87875000Y-130290000D03*
%TD*%
D30*
%TO.C,SW1*%
X205800000Y-160340000D03*
D31*
X205800000Y-157800000D03*
%TD*%
D29*
%TO.C,470u*%
X173550000Y-158947323D03*
D36*
X173550000Y-153947323D03*
%TD*%
D30*
%TO.C,J2*%
X133575000Y-107215000D03*
D31*
X136115000Y-107215000D03*
X133575000Y-109755000D03*
X136115000Y-109755000D03*
X133575000Y-112295000D03*
X136115000Y-112295000D03*
X133575000Y-114835000D03*
X136115000Y-114835000D03*
X133575000Y-117375000D03*
X136115000Y-117375000D03*
%TD*%
D30*
%TO.C,SW2*%
X208450000Y-160330000D03*
D31*
X208450000Y-157790000D03*
%TD*%
D32*
%TO.C,NE555*%
X136875000Y-152915000D03*
D20*
X134335000Y-152915000D03*
X131795000Y-152915000D03*
X129255000Y-152915000D03*
X129255000Y-145295000D03*
X131795000Y-145295000D03*
X134335000Y-145295000D03*
X136875000Y-145295000D03*
%TD*%
%TO.C,220nTANT*%
X161225000Y-153615000D03*
X161225000Y-156115000D03*
%TD*%
D32*
%TO.C,D9*%
X96275000Y-140555000D03*
D21*
X96275000Y-148175000D03*
%TD*%
D37*
%TO.C,F1*%
X154750000Y-147230000D03*
X149650000Y-148430000D03*
%TD*%
D21*
%TO.C,220k*%
X99950000Y-143690000D03*
D20*
X99950000Y-151310000D03*
%TD*%
D22*
%TO.C,D1*%
X36350000Y-112890000D03*
D23*
X42098020Y-117388340D03*
X42098020Y-112890000D03*
X42098020Y-108391660D03*
X40347960Y-104891540D03*
X36350000Y-103890780D03*
X32352040Y-104891540D03*
X30601980Y-108391660D03*
X30601980Y-112890000D03*
X30601980Y-117388340D03*
X32352040Y-120888460D03*
X40347960Y-120888460D03*
X36350000Y-121889220D03*
%TD*%
D20*
%TO.C,220nTANT*%
X161225000Y-158390000D03*
X161225000Y-160890000D03*
%TD*%
D38*
%TO.C,100uH*%
X120000000Y-154990000D03*
X120000000Y-159990000D03*
%TD*%
D21*
%TO.C,470*%
X114350000Y-146570000D03*
D20*
X106730000Y-146570000D03*
%TD*%
D39*
%TO.C,K155ID1*%
X41550000Y-92790000D03*
D40*
X44090000Y-92790000D03*
X46630000Y-92790000D03*
X49170000Y-92790000D03*
X51710000Y-92790000D03*
X54250000Y-92790000D03*
X56790000Y-92790000D03*
X59330000Y-92790000D03*
X59330000Y-100410000D03*
X56790000Y-100410000D03*
X54250000Y-100410000D03*
X51710000Y-100410000D03*
X49170000Y-100410000D03*
X46630000Y-100410000D03*
X44090000Y-100410000D03*
X41550000Y-100410000D03*
%TD*%
D39*
%TO.C,K155ID1*%
X211560000Y-92790000D03*
D40*
X214100000Y-92790000D03*
X216640000Y-92790000D03*
X219180000Y-92790000D03*
X221720000Y-92790000D03*
X224260000Y-92790000D03*
X226800000Y-92790000D03*
X229340000Y-92790000D03*
X229340000Y-100410000D03*
X226800000Y-100410000D03*
X224260000Y-100410000D03*
X221720000Y-100410000D03*
X219180000Y-100410000D03*
X216640000Y-100410000D03*
X214100000Y-100410000D03*
X211560000Y-100410000D03*
%TD*%
D11*
%TO.C,16Mhz*%
X217137500Y-147890000D03*
X222037500Y-147890000D03*
%TD*%
D39*
%TO.C,K155ID1*%
X126550000Y-92790000D03*
D40*
X129090000Y-92790000D03*
X131630000Y-92790000D03*
X134170000Y-92790000D03*
X136710000Y-92790000D03*
X139250000Y-92790000D03*
X141790000Y-92790000D03*
X144330000Y-92790000D03*
X144330000Y-100410000D03*
X141790000Y-100410000D03*
X139250000Y-100410000D03*
X136710000Y-100410000D03*
X134170000Y-100410000D03*
X131630000Y-100410000D03*
X129090000Y-100410000D03*
X126550000Y-100410000D03*
%TD*%
M02*
