G04 #@! TF.GenerationSoftware,KiCad,Pcbnew,(5.1.0)-1*
G04 #@! TF.CreationDate,2021-08-12T02:51:48-05:00*
G04 #@! TF.ProjectId,nixie_legacy-power,6e697869-655f-46c6-9567-6163792d706f,rev?*
G04 #@! TF.SameCoordinates,Original*
G04 #@! TF.FileFunction,Copper,L2,Bot*
G04 #@! TF.FilePolarity,Positive*
%FSLAX46Y46*%
G04 Gerber Fmt 4.6, Leading zero omitted, Abs format (unit mm)*
G04 Created by KiCad (PCBNEW (5.1.0)-1) date 2021-08-12 02:51:48*
%MOMM*%
%LPD*%
G04 APERTURE LIST*
%ADD10C,1.500000*%
%ADD11R,1.500000X1.500000*%
%ADD12C,2.600000*%
%ADD13R,1.600000X1.600000*%
%ADD14O,1.600000X1.600000*%
%ADD15O,2.200000X2.200000*%
%ADD16R,2.200000X2.200000*%
%ADD17R,2.000000X1.905000*%
%ADD18O,2.000000X1.905000*%
%ADD19R,2.000000X2.000000*%
%ADD20C,2.000000*%
%ADD21C,1.600000*%
%ADD22O,1.700000X1.700000*%
%ADD23R,1.700000X1.700000*%
%ADD24C,1.440000*%
%ADD25C,2.010000*%
%ADD26C,0.635000*%
%ADD27C,0.254000*%
%ADD28C,0.381000*%
%ADD29C,0.250000*%
G04 APERTURE END LIST*
D10*
X107696000Y-91888000D03*
X107696000Y-89288000D03*
D11*
X107696000Y-94488000D03*
D12*
X92964000Y-113284000D03*
X92964000Y-118284000D03*
D13*
X97091500Y-93472000D03*
D14*
X104076500Y-93472000D03*
D15*
X94488000Y-98806000D03*
D16*
X94488000Y-96266000D03*
D17*
X102616000Y-112522000D03*
D18*
X102616000Y-115062000D03*
X102616000Y-117602000D03*
D19*
X90932000Y-105918000D03*
D20*
X95932000Y-105918000D03*
D21*
X114300000Y-112776000D03*
D13*
X111800000Y-112776000D03*
D14*
X99314000Y-110998000D03*
D21*
X99314000Y-118618000D03*
D15*
X107442000Y-118364000D03*
D16*
X115062000Y-118364000D03*
D14*
X118364000Y-118618000D03*
D21*
X118364000Y-110998000D03*
D14*
X113284000Y-107950000D03*
D21*
X113284000Y-100330000D03*
D22*
X118364000Y-107950000D03*
X118364000Y-105410000D03*
D23*
X118364000Y-102870000D03*
D22*
X90170000Y-99314000D03*
D23*
X90170000Y-96774000D03*
D21*
X107696000Y-113538000D03*
X107696000Y-111038000D03*
D20*
X108966000Y-106680000D03*
X106426000Y-106680000D03*
D19*
X103886000Y-106680000D03*
D21*
X115864000Y-99568000D03*
X118364000Y-99568000D03*
X109982000Y-99568000D03*
X109982000Y-102068000D03*
D10*
X106426000Y-85090000D03*
X106426000Y-87630000D03*
D11*
X106426000Y-82550000D03*
D21*
X103124000Y-83058000D03*
X103124000Y-85598000D03*
X103124000Y-88138000D03*
X103124000Y-90678000D03*
X95504000Y-90678000D03*
X95504000Y-88138000D03*
X95504000Y-85598000D03*
D13*
X95504000Y-83058000D03*
D24*
X115062000Y-89154000D03*
X117602000Y-86614000D03*
X115062000Y-84074000D03*
D14*
X110744000Y-79756000D03*
D21*
X118364000Y-79756000D03*
D14*
X118364000Y-93472000D03*
D21*
X110744000Y-93472000D03*
D14*
X107950000Y-79756000D03*
D21*
X100330000Y-79756000D03*
D14*
X98044000Y-79756000D03*
D21*
X90424000Y-79756000D03*
X118364000Y-96520000D03*
D14*
X110744000Y-96520000D03*
D25*
X99314000Y-96012000D03*
X98114000Y-101112000D03*
D20*
X91186000Y-93058000D03*
X91186000Y-83058000D03*
D26*
X114300000Y-112776000D02*
X115824000Y-111252000D01*
X115824000Y-111252000D02*
X115824000Y-106934000D01*
X115824000Y-106172000D02*
X116078000Y-105918000D01*
X115824000Y-106172000D02*
X115824000Y-105410000D01*
X118364000Y-105410000D02*
X117161919Y-105410000D01*
X117161919Y-105410000D02*
X115316000Y-105410000D01*
X114300000Y-105410000D02*
X115824000Y-106934000D01*
X116713000Y-106045000D02*
X114935000Y-106045000D01*
X114935000Y-106045000D02*
X114300000Y-105410000D01*
X115062000Y-106172000D02*
X114935000Y-106045000D01*
X115824000Y-106934000D02*
X116713000Y-106045000D01*
X115316000Y-105918000D02*
X115570000Y-106172000D01*
X115316000Y-105410000D02*
X115316000Y-105918000D01*
X115824000Y-106172000D02*
X115570000Y-106172000D01*
X115570000Y-106172000D02*
X115062000Y-106172000D01*
X116332000Y-105664000D02*
X116713000Y-106045000D01*
X116332000Y-105410000D02*
X116332000Y-105664000D01*
X116332000Y-105410000D02*
X117161919Y-105410000D01*
X114300000Y-105410000D02*
X116332000Y-105410000D01*
X118364000Y-105410000D02*
X117856000Y-105410000D01*
X117475000Y-105791000D02*
X116967000Y-105791000D01*
X117856000Y-105410000D02*
X117475000Y-105791000D01*
X116713000Y-106045000D02*
X116967000Y-105791000D01*
D27*
X90424000Y-80887370D02*
X91070630Y-81534000D01*
X90424000Y-79756000D02*
X90424000Y-80887370D01*
X91186000Y-81643787D02*
X91186000Y-83058000D01*
X91076213Y-81534000D02*
X91186000Y-81643787D01*
X91070630Y-81534000D02*
X91076213Y-81534000D01*
X93726000Y-85598000D02*
X95504000Y-85598000D01*
X91186000Y-83058000D02*
X93726000Y-85598000D01*
X98044000Y-88138000D02*
X103124000Y-88138000D01*
X95504000Y-85598000D02*
X98044000Y-88138000D01*
X107656000Y-110998000D02*
X107696000Y-111038000D01*
X99314000Y-110998000D02*
X107656000Y-110998000D01*
D26*
X118110000Y-118364000D02*
X115062000Y-118364000D01*
X118364000Y-118618000D02*
X118110000Y-118364000D01*
X111800000Y-116626000D02*
X111800000Y-112776000D01*
X115062000Y-118364000D02*
X113538000Y-118364000D01*
X113538000Y-118364000D02*
X111800000Y-116626000D01*
D28*
X111800000Y-109434000D02*
X113284000Y-107950000D01*
X111800000Y-112776000D02*
X111800000Y-109434000D01*
D27*
X96774000Y-88138000D02*
X95504000Y-88138000D01*
X104076500Y-93472000D02*
X102108000Y-93472000D01*
X102108000Y-93472000D02*
X96774000Y-88138000D01*
D29*
X109160000Y-91888000D02*
X110744000Y-93472000D01*
X104076500Y-93472000D02*
X105660500Y-91888000D01*
X105660500Y-91888000D02*
X109160000Y-91888000D01*
D26*
X94060000Y-118618000D02*
X99314000Y-118618000D01*
X107442000Y-117602000D02*
X107442000Y-118364000D01*
X104902000Y-115062000D02*
X107442000Y-117602000D01*
X100838000Y-115062000D02*
X104902000Y-115062000D01*
X99314000Y-118618000D02*
X99314000Y-116586000D01*
X99314000Y-116586000D02*
X100838000Y-115062000D01*
X118364000Y-110998000D02*
X118364000Y-107950000D01*
D29*
X104902000Y-84074000D02*
X106426000Y-82550000D01*
X103124000Y-90678000D02*
X104902000Y-88900000D01*
X104902000Y-88900000D02*
X104902000Y-84074000D01*
X104902000Y-90678000D02*
X103124000Y-90678000D01*
X110490000Y-90678000D02*
X104902000Y-90678000D01*
X112268000Y-92456000D02*
X110490000Y-90678000D01*
X110744000Y-96520000D02*
X112268000Y-94996000D01*
X112268000Y-94996000D02*
X112268000Y-92456000D01*
D27*
X113538000Y-86614000D02*
X117602000Y-86614000D01*
X106426000Y-85090000D02*
X112014000Y-85090000D01*
X112014000Y-85090000D02*
X113538000Y-86614000D01*
X98044000Y-79756000D02*
X100330000Y-79756000D01*
X100330000Y-82804000D02*
X100330000Y-79756000D01*
X103124000Y-85598000D02*
X100330000Y-82804000D01*
X115062000Y-97790000D02*
X115062000Y-89154000D01*
X113284000Y-99568000D02*
X115062000Y-97790000D01*
X115062000Y-83055767D02*
X115062000Y-84074000D01*
X115062000Y-81926630D02*
X115062000Y-83055767D01*
X117232630Y-79756000D02*
X115062000Y-81926630D01*
X118364000Y-79756000D02*
X117232630Y-79756000D01*
D29*
X99568000Y-93472000D02*
X101092000Y-94996000D01*
X97091500Y-93472000D02*
X99568000Y-93472000D01*
X101092000Y-94996000D02*
X105918000Y-94996000D01*
X105918000Y-94996000D02*
X106426000Y-94488000D01*
X106426000Y-94488000D02*
X107696000Y-94488000D01*
D27*
X107188000Y-96012000D02*
X107696000Y-95504000D01*
X102362000Y-96012000D02*
X107188000Y-96012000D01*
X100076000Y-98298000D02*
X102362000Y-96012000D01*
X102362000Y-112522000D02*
X98552000Y-112522000D01*
X102616000Y-112268000D02*
X102362000Y-112522000D01*
X97790000Y-111760000D02*
X97790000Y-109982000D01*
X97790000Y-109982000D02*
X100076000Y-107696000D01*
X107696000Y-95504000D02*
X107696000Y-94488000D01*
X98552000Y-112522000D02*
X97790000Y-111760000D01*
X100076000Y-107696000D02*
X100076000Y-98298000D01*
D26*
X112522000Y-102870000D02*
X108966000Y-106426000D01*
X118364000Y-102870000D02*
X112522000Y-102870000D01*
X118364000Y-99568000D02*
X118364000Y-102870000D01*
D27*
G36*
X120244001Y-105791000D02*
G01*
X119798163Y-105791000D01*
X119805476Y-105766890D01*
X119684155Y-105537000D01*
X118491000Y-105537000D01*
X118491000Y-105557000D01*
X118237000Y-105557000D01*
X118237000Y-105537000D01*
X117043845Y-105537000D01*
X116922524Y-105766890D01*
X116929837Y-105791000D01*
X112776000Y-105791000D01*
X112751224Y-105793440D01*
X112727399Y-105800667D01*
X112705443Y-105812403D01*
X112686197Y-105828197D01*
X109421394Y-109093000D01*
X99756631Y-109093000D01*
X100588353Y-108261278D01*
X100617422Y-108237422D01*
X100712645Y-108121392D01*
X100783402Y-107989015D01*
X100826974Y-107845378D01*
X100838000Y-107733426D01*
X100838000Y-107733424D01*
X100841686Y-107696001D01*
X100838000Y-107658578D01*
X100838000Y-105680000D01*
X102247928Y-105680000D01*
X102247928Y-107680000D01*
X102260188Y-107804482D01*
X102296498Y-107924180D01*
X102355463Y-108034494D01*
X102434815Y-108131185D01*
X102531506Y-108210537D01*
X102641820Y-108269502D01*
X102761518Y-108305812D01*
X102886000Y-108318072D01*
X104886000Y-108318072D01*
X105010482Y-108305812D01*
X105130180Y-108269502D01*
X105240494Y-108210537D01*
X105337185Y-108131185D01*
X105416537Y-108034494D01*
X105475502Y-107924180D01*
X105491037Y-107872967D01*
X105565956Y-108079814D01*
X105855571Y-108220704D01*
X106167108Y-108302384D01*
X106488595Y-108321718D01*
X106807675Y-108277961D01*
X107112088Y-108172795D01*
X107286044Y-108079814D01*
X107381808Y-107815413D01*
X106426000Y-106859605D01*
X106411858Y-106873748D01*
X106232253Y-106694143D01*
X106246395Y-106680000D01*
X106605605Y-106680000D01*
X107561413Y-107635808D01*
X107623280Y-107613400D01*
X107696013Y-107722252D01*
X107923748Y-107949987D01*
X108191537Y-108128918D01*
X108489088Y-108252168D01*
X108804967Y-108315000D01*
X109127033Y-108315000D01*
X109442912Y-108252168D01*
X109740463Y-108128918D01*
X110008252Y-107949987D01*
X110235987Y-107722252D01*
X110414918Y-107454463D01*
X110538168Y-107156912D01*
X110601000Y-106841033D01*
X110601000Y-106518967D01*
X110538168Y-106203088D01*
X110537518Y-106201520D01*
X112916538Y-103822500D01*
X116886023Y-103822500D01*
X116888188Y-103844482D01*
X116924498Y-103964180D01*
X116983463Y-104074494D01*
X117062815Y-104171185D01*
X117159506Y-104250537D01*
X117269820Y-104309502D01*
X117350466Y-104333966D01*
X117266412Y-104409731D01*
X117092359Y-104643080D01*
X116967175Y-104905901D01*
X116922524Y-105053110D01*
X117043845Y-105283000D01*
X118237000Y-105283000D01*
X118237000Y-105263000D01*
X118491000Y-105263000D01*
X118491000Y-105283000D01*
X119684155Y-105283000D01*
X119805476Y-105053110D01*
X119760825Y-104905901D01*
X119635641Y-104643080D01*
X119461588Y-104409731D01*
X119377534Y-104333966D01*
X119458180Y-104309502D01*
X119568494Y-104250537D01*
X119665185Y-104171185D01*
X119744537Y-104074494D01*
X119803502Y-103964180D01*
X119839812Y-103844482D01*
X119852072Y-103720000D01*
X119852072Y-102020000D01*
X119839812Y-101895518D01*
X119803502Y-101775820D01*
X119744537Y-101665506D01*
X119665185Y-101568815D01*
X119568494Y-101489463D01*
X119458180Y-101430498D01*
X119338482Y-101394188D01*
X119316500Y-101392023D01*
X119316500Y-100644896D01*
X119478637Y-100482759D01*
X119635680Y-100247727D01*
X119743853Y-99986574D01*
X119799000Y-99709335D01*
X119799000Y-99426665D01*
X119743853Y-99149426D01*
X119635680Y-98888273D01*
X119478637Y-98653241D01*
X119278759Y-98453363D01*
X119043727Y-98296320D01*
X118782574Y-98188147D01*
X118505335Y-98133000D01*
X118222665Y-98133000D01*
X117945426Y-98188147D01*
X117684273Y-98296320D01*
X117449241Y-98453363D01*
X117249363Y-98653241D01*
X117115308Y-98853869D01*
X117100671Y-98826486D01*
X116856702Y-98754903D01*
X116043605Y-99568000D01*
X116856702Y-100381097D01*
X117100671Y-100309514D01*
X117114324Y-100280659D01*
X117249363Y-100482759D01*
X117411500Y-100644896D01*
X117411501Y-101392023D01*
X117389518Y-101394188D01*
X117269820Y-101430498D01*
X117159506Y-101489463D01*
X117062815Y-101568815D01*
X116983463Y-101665506D01*
X116924498Y-101775820D01*
X116888188Y-101895518D01*
X116886023Y-101917500D01*
X112568784Y-101917500D01*
X112521999Y-101912892D01*
X112382163Y-101926665D01*
X112335277Y-101931283D01*
X112155731Y-101985748D01*
X111990259Y-102074194D01*
X111845222Y-102193222D01*
X111815393Y-102229569D01*
X111165975Y-102878987D01*
X111253680Y-102747727D01*
X111361853Y-102486574D01*
X111417000Y-102209335D01*
X111417000Y-101926665D01*
X111361853Y-101649426D01*
X111253680Y-101388273D01*
X111096637Y-101153241D01*
X110896759Y-100953363D01*
X110696131Y-100819308D01*
X110723514Y-100804671D01*
X110795097Y-100560702D01*
X109982000Y-99747605D01*
X109168903Y-100560702D01*
X109240486Y-100804671D01*
X109269341Y-100818324D01*
X109067241Y-100953363D01*
X108867363Y-101153241D01*
X108710320Y-101388273D01*
X108602147Y-101649426D01*
X108547000Y-101926665D01*
X108547000Y-102209335D01*
X108602147Y-102486574D01*
X108710320Y-102747727D01*
X108867363Y-102982759D01*
X109067241Y-103182637D01*
X109302273Y-103339680D01*
X109563426Y-103447853D01*
X109840665Y-103503000D01*
X110123335Y-103503000D01*
X110400574Y-103447853D01*
X110661727Y-103339680D01*
X110792987Y-103251975D01*
X108999962Y-105045000D01*
X108804967Y-105045000D01*
X108489088Y-105107832D01*
X108191537Y-105231082D01*
X107923748Y-105410013D01*
X107696013Y-105637748D01*
X107623280Y-105746600D01*
X107561413Y-105724192D01*
X106605605Y-106680000D01*
X106246395Y-106680000D01*
X106232253Y-106665858D01*
X106411858Y-106486253D01*
X106426000Y-106500395D01*
X107381808Y-105544587D01*
X107286044Y-105280186D01*
X106996429Y-105139296D01*
X106684892Y-105057616D01*
X106363405Y-105038282D01*
X106044325Y-105082039D01*
X105739912Y-105187205D01*
X105565956Y-105280186D01*
X105491037Y-105487033D01*
X105475502Y-105435820D01*
X105416537Y-105325506D01*
X105337185Y-105228815D01*
X105240494Y-105149463D01*
X105130180Y-105090498D01*
X105010482Y-105054188D01*
X104886000Y-105041928D01*
X102886000Y-105041928D01*
X102761518Y-105054188D01*
X102641820Y-105090498D01*
X102531506Y-105149463D01*
X102434815Y-105228815D01*
X102355463Y-105325506D01*
X102296498Y-105435820D01*
X102260188Y-105555518D01*
X102247928Y-105680000D01*
X100838000Y-105680000D01*
X100838000Y-100406532D01*
X102064227Y-100406532D01*
X102114916Y-100858434D01*
X102252415Y-101291885D01*
X102471486Y-101690373D01*
X102763784Y-102038721D01*
X103118178Y-102323661D01*
X103521167Y-102534338D01*
X103957402Y-102662729D01*
X104410266Y-102703943D01*
X104862512Y-102656410D01*
X105296911Y-102521941D01*
X105696919Y-102305658D01*
X106047300Y-102015798D01*
X106334706Y-101663402D01*
X106548192Y-101261894D01*
X106679626Y-100826566D01*
X106724000Y-100374000D01*
X106723092Y-100308943D01*
X106666098Y-99857792D01*
X106593154Y-99638512D01*
X108541783Y-99638512D01*
X108583213Y-99918130D01*
X108678397Y-100184292D01*
X108745329Y-100309514D01*
X108989298Y-100381097D01*
X109802395Y-99568000D01*
X110161605Y-99568000D01*
X110974702Y-100381097D01*
X111218671Y-100309514D01*
X111275853Y-100188665D01*
X111849000Y-100188665D01*
X111849000Y-100471335D01*
X111904147Y-100748574D01*
X112012320Y-101009727D01*
X112169363Y-101244759D01*
X112369241Y-101444637D01*
X112604273Y-101601680D01*
X112865426Y-101709853D01*
X113142665Y-101765000D01*
X113425335Y-101765000D01*
X113702574Y-101709853D01*
X113963727Y-101601680D01*
X114198759Y-101444637D01*
X114398637Y-101244759D01*
X114555680Y-101009727D01*
X114663853Y-100748574D01*
X114701223Y-100560702D01*
X115050903Y-100560702D01*
X115122486Y-100804671D01*
X115377996Y-100925571D01*
X115652184Y-100994300D01*
X115934512Y-101008217D01*
X116214130Y-100966787D01*
X116480292Y-100871603D01*
X116605514Y-100804671D01*
X116677097Y-100560702D01*
X115864000Y-99747605D01*
X115050903Y-100560702D01*
X114701223Y-100560702D01*
X114719000Y-100471335D01*
X114719000Y-100336411D01*
X114871298Y-100381097D01*
X115684395Y-99568000D01*
X115670253Y-99553858D01*
X115849858Y-99374253D01*
X115864000Y-99388395D01*
X116677097Y-98575298D01*
X116605514Y-98331329D01*
X116350004Y-98210429D01*
X116075816Y-98141700D01*
X115793488Y-98127783D01*
X115741343Y-98135509D01*
X115769401Y-98083016D01*
X115769402Y-98083015D01*
X115812974Y-97939378D01*
X115824000Y-97827426D01*
X115824000Y-97827423D01*
X115827686Y-97790000D01*
X115824000Y-97752577D01*
X115824000Y-96378665D01*
X116929000Y-96378665D01*
X116929000Y-96661335D01*
X116984147Y-96938574D01*
X117092320Y-97199727D01*
X117249363Y-97434759D01*
X117449241Y-97634637D01*
X117684273Y-97791680D01*
X117945426Y-97899853D01*
X118222665Y-97955000D01*
X118505335Y-97955000D01*
X118782574Y-97899853D01*
X119043727Y-97791680D01*
X119278759Y-97634637D01*
X119478637Y-97434759D01*
X119635680Y-97199727D01*
X119743853Y-96938574D01*
X119799000Y-96661335D01*
X119799000Y-96378665D01*
X119743853Y-96101426D01*
X119635680Y-95840273D01*
X119478637Y-95605241D01*
X119278759Y-95405363D01*
X119043727Y-95248320D01*
X118782574Y-95140147D01*
X118505335Y-95085000D01*
X118222665Y-95085000D01*
X117945426Y-95140147D01*
X117684273Y-95248320D01*
X117449241Y-95405363D01*
X117249363Y-95605241D01*
X117092320Y-95840273D01*
X116984147Y-96101426D01*
X116929000Y-96378665D01*
X115824000Y-96378665D01*
X115824000Y-93821039D01*
X116972096Y-93821039D01*
X117012754Y-93955087D01*
X117132963Y-94209420D01*
X117300481Y-94435414D01*
X117508869Y-94624385D01*
X117750119Y-94769070D01*
X118014960Y-94863909D01*
X118237000Y-94742624D01*
X118237000Y-93599000D01*
X118491000Y-93599000D01*
X118491000Y-94742624D01*
X118713040Y-94863909D01*
X118977881Y-94769070D01*
X119219131Y-94624385D01*
X119427519Y-94435414D01*
X119595037Y-94209420D01*
X119715246Y-93955087D01*
X119755904Y-93821039D01*
X119633915Y-93599000D01*
X118491000Y-93599000D01*
X118237000Y-93599000D01*
X117094085Y-93599000D01*
X116972096Y-93821039D01*
X115824000Y-93821039D01*
X115824000Y-93122961D01*
X116972096Y-93122961D01*
X117094085Y-93345000D01*
X118237000Y-93345000D01*
X118237000Y-92201376D01*
X118491000Y-92201376D01*
X118491000Y-93345000D01*
X119633915Y-93345000D01*
X119755904Y-93122961D01*
X119715246Y-92988913D01*
X119595037Y-92734580D01*
X119427519Y-92508586D01*
X119219131Y-92319615D01*
X118977881Y-92174930D01*
X118713040Y-92080091D01*
X118491000Y-92201376D01*
X118237000Y-92201376D01*
X118014960Y-92080091D01*
X117750119Y-92174930D01*
X117508869Y-92319615D01*
X117300481Y-92508586D01*
X117132963Y-92734580D01*
X117012754Y-92988913D01*
X116972096Y-93122961D01*
X115824000Y-93122961D01*
X115824000Y-90274492D01*
X115925762Y-90206497D01*
X116114497Y-90017762D01*
X116262785Y-89795833D01*
X116364928Y-89549239D01*
X116417000Y-89287456D01*
X116417000Y-89020544D01*
X116364928Y-88758761D01*
X116262785Y-88512167D01*
X116114497Y-88290238D01*
X115925762Y-88101503D01*
X115703833Y-87953215D01*
X115457239Y-87851072D01*
X115195456Y-87799000D01*
X114928544Y-87799000D01*
X114666761Y-87851072D01*
X114420167Y-87953215D01*
X114198238Y-88101503D01*
X114009503Y-88290238D01*
X113861215Y-88512167D01*
X113759072Y-88758761D01*
X113707000Y-89020544D01*
X113707000Y-89287456D01*
X113759072Y-89549239D01*
X113861215Y-89795833D01*
X114009503Y-90017762D01*
X114198238Y-90206497D01*
X114300001Y-90274493D01*
X114300000Y-97474370D01*
X112795088Y-98979282D01*
X112604273Y-99058320D01*
X112369241Y-99215363D01*
X112169363Y-99415241D01*
X112012320Y-99650273D01*
X111904147Y-99911426D01*
X111849000Y-100188665D01*
X111275853Y-100188665D01*
X111339571Y-100054004D01*
X111408300Y-99779816D01*
X111422217Y-99497488D01*
X111380787Y-99217870D01*
X111285603Y-98951708D01*
X111218671Y-98826486D01*
X110974702Y-98754903D01*
X110161605Y-99568000D01*
X109802395Y-99568000D01*
X108989298Y-98754903D01*
X108745329Y-98826486D01*
X108624429Y-99081996D01*
X108555700Y-99356184D01*
X108541783Y-99638512D01*
X106593154Y-99638512D01*
X106522561Y-99426304D01*
X106297948Y-99030913D01*
X106000814Y-98686680D01*
X105858252Y-98575298D01*
X109168903Y-98575298D01*
X109982000Y-99388395D01*
X110795097Y-98575298D01*
X110723514Y-98331329D01*
X110468004Y-98210429D01*
X110193816Y-98141700D01*
X109911488Y-98127783D01*
X109631870Y-98169213D01*
X109365708Y-98264397D01*
X109240486Y-98331329D01*
X109168903Y-98575298D01*
X105858252Y-98575298D01*
X105642476Y-98406716D01*
X105236585Y-98201686D01*
X104798600Y-98079398D01*
X104345204Y-98044511D01*
X103893667Y-98098354D01*
X103461187Y-98238875D01*
X103064237Y-98460722D01*
X102717938Y-98755446D01*
X102435480Y-99111820D01*
X102227621Y-99516270D01*
X102102278Y-99953390D01*
X102064227Y-100406532D01*
X100838000Y-100406532D01*
X100838000Y-98613630D01*
X102677631Y-96774000D01*
X107150577Y-96774000D01*
X107188000Y-96777686D01*
X107225423Y-96774000D01*
X107225426Y-96774000D01*
X107337378Y-96762974D01*
X107481015Y-96719402D01*
X107613392Y-96648645D01*
X107729422Y-96553422D01*
X107753284Y-96524346D01*
X108208347Y-96069283D01*
X108237422Y-96045422D01*
X108332645Y-95929392D01*
X108361145Y-95876072D01*
X108446000Y-95876072D01*
X108570482Y-95863812D01*
X108690180Y-95827502D01*
X108800494Y-95768537D01*
X108897185Y-95689185D01*
X108976537Y-95592494D01*
X109035502Y-95482180D01*
X109071812Y-95362482D01*
X109084072Y-95238000D01*
X109084072Y-93738000D01*
X109071812Y-93613518D01*
X109035502Y-93493820D01*
X108976537Y-93383506D01*
X108897185Y-93286815D01*
X108800494Y-93207463D01*
X108690180Y-93148498D01*
X108570482Y-93112188D01*
X108446000Y-93099928D01*
X108375155Y-93099928D01*
X108578886Y-92963799D01*
X108771799Y-92770886D01*
X108850420Y-92653221D01*
X109345312Y-93148114D01*
X109309000Y-93330665D01*
X109309000Y-93613335D01*
X109364147Y-93890574D01*
X109472320Y-94151727D01*
X109629363Y-94386759D01*
X109829241Y-94586637D01*
X110064273Y-94743680D01*
X110325426Y-94851853D01*
X110602665Y-94907000D01*
X110885335Y-94907000D01*
X111162574Y-94851853D01*
X111423727Y-94743680D01*
X111489396Y-94699802D01*
X111069906Y-95119292D01*
X111025309Y-95105764D01*
X110814492Y-95085000D01*
X110673508Y-95085000D01*
X110462691Y-95105764D01*
X110192192Y-95187818D01*
X109942899Y-95321068D01*
X109724392Y-95500392D01*
X109545068Y-95718899D01*
X109411818Y-95968192D01*
X109329764Y-96238691D01*
X109302057Y-96520000D01*
X109329764Y-96801309D01*
X109411818Y-97071808D01*
X109545068Y-97321101D01*
X109724392Y-97539608D01*
X109942899Y-97718932D01*
X110192192Y-97852182D01*
X110462691Y-97934236D01*
X110673508Y-97955000D01*
X110814492Y-97955000D01*
X111025309Y-97934236D01*
X111295808Y-97852182D01*
X111545101Y-97718932D01*
X111763608Y-97539608D01*
X111942932Y-97321101D01*
X112076182Y-97071808D01*
X112158236Y-96801309D01*
X112185943Y-96520000D01*
X112158236Y-96238691D01*
X112144708Y-96194094D01*
X112779009Y-95559794D01*
X112808001Y-95536001D01*
X112831795Y-95507008D01*
X112831799Y-95507004D01*
X112902973Y-95420277D01*
X112902974Y-95420276D01*
X112973546Y-95288247D01*
X113017003Y-95144986D01*
X113028000Y-95033333D01*
X113028000Y-95033324D01*
X113031676Y-94996001D01*
X113028000Y-94958678D01*
X113028000Y-92493325D01*
X113031676Y-92456000D01*
X113028000Y-92418675D01*
X113028000Y-92418667D01*
X113017003Y-92307014D01*
X112973546Y-92163753D01*
X112902974Y-92031724D01*
X112808001Y-91915999D01*
X112779003Y-91892201D01*
X111053804Y-90167003D01*
X111030001Y-90137999D01*
X110914276Y-90043026D01*
X110782247Y-89972454D01*
X110638986Y-89928997D01*
X110527333Y-89918000D01*
X110527322Y-89918000D01*
X110490000Y-89914324D01*
X110452678Y-89918000D01*
X108930276Y-89918000D01*
X109007760Y-89752884D01*
X109073250Y-89488040D01*
X109085812Y-89215508D01*
X109044965Y-88945762D01*
X108952277Y-88689168D01*
X108891860Y-88576137D01*
X108652993Y-88510612D01*
X107875605Y-89288000D01*
X107889748Y-89302143D01*
X107710143Y-89481748D01*
X107696000Y-89467605D01*
X107681858Y-89481748D01*
X107502253Y-89302143D01*
X107516395Y-89288000D01*
X107502253Y-89273858D01*
X107681858Y-89094253D01*
X107696000Y-89108395D01*
X108473388Y-88331007D01*
X108407863Y-88092140D01*
X108160884Y-87976240D01*
X107896040Y-87910750D01*
X107784563Y-87905612D01*
X107803250Y-87830040D01*
X107815812Y-87557508D01*
X107774965Y-87287762D01*
X107682277Y-87031168D01*
X107621860Y-86918137D01*
X107382993Y-86852612D01*
X106605605Y-87630000D01*
X106619748Y-87644143D01*
X106440143Y-87823748D01*
X106426000Y-87809605D01*
X106411858Y-87823748D01*
X106232253Y-87644143D01*
X106246395Y-87630000D01*
X106232253Y-87615858D01*
X106411858Y-87436253D01*
X106426000Y-87450395D01*
X107203388Y-86673007D01*
X107137863Y-86434140D01*
X106979523Y-86359836D01*
X107082043Y-86317371D01*
X107308886Y-86165799D01*
X107501799Y-85972886D01*
X107582573Y-85852000D01*
X111698370Y-85852000D01*
X112972721Y-87126352D01*
X112996578Y-87155422D01*
X113112608Y-87250645D01*
X113244985Y-87321402D01*
X113388622Y-87364974D01*
X113500574Y-87376000D01*
X113500576Y-87376000D01*
X113537999Y-87379686D01*
X113575422Y-87376000D01*
X116481508Y-87376000D01*
X116549503Y-87477762D01*
X116738238Y-87666497D01*
X116960167Y-87814785D01*
X117206761Y-87916928D01*
X117468544Y-87969000D01*
X117735456Y-87969000D01*
X117997239Y-87916928D01*
X118243833Y-87814785D01*
X118465762Y-87666497D01*
X118654497Y-87477762D01*
X118802785Y-87255833D01*
X118904928Y-87009239D01*
X118957000Y-86747456D01*
X118957000Y-86480544D01*
X118904928Y-86218761D01*
X118802785Y-85972167D01*
X118654497Y-85750238D01*
X118465762Y-85561503D01*
X118243833Y-85413215D01*
X117997239Y-85311072D01*
X117735456Y-85259000D01*
X117468544Y-85259000D01*
X117206761Y-85311072D01*
X116960167Y-85413215D01*
X116738238Y-85561503D01*
X116549503Y-85750238D01*
X116481508Y-85852000D01*
X113853631Y-85852000D01*
X112579284Y-84577654D01*
X112555422Y-84548578D01*
X112439392Y-84453355D01*
X112307015Y-84382598D01*
X112163378Y-84339026D01*
X112051426Y-84328000D01*
X112051423Y-84328000D01*
X112014000Y-84324314D01*
X111976577Y-84328000D01*
X107582573Y-84328000D01*
X107501799Y-84207114D01*
X107308886Y-84014201D01*
X107198652Y-83940544D01*
X113707000Y-83940544D01*
X113707000Y-84207456D01*
X113759072Y-84469239D01*
X113861215Y-84715833D01*
X114009503Y-84937762D01*
X114198238Y-85126497D01*
X114420167Y-85274785D01*
X114666761Y-85376928D01*
X114928544Y-85429000D01*
X115195456Y-85429000D01*
X115457239Y-85376928D01*
X115703833Y-85274785D01*
X115925762Y-85126497D01*
X116114497Y-84937762D01*
X116262785Y-84715833D01*
X116364928Y-84469239D01*
X116417000Y-84207456D01*
X116417000Y-83940544D01*
X116364928Y-83678761D01*
X116262785Y-83432167D01*
X116114497Y-83210238D01*
X115925762Y-83021503D01*
X115824000Y-82953508D01*
X115824000Y-82242260D01*
X117322432Y-80743828D01*
X117449241Y-80870637D01*
X117684273Y-81027680D01*
X117945426Y-81135853D01*
X118222665Y-81191000D01*
X118505335Y-81191000D01*
X118782574Y-81135853D01*
X119043727Y-81027680D01*
X119278759Y-80870637D01*
X119478637Y-80670759D01*
X119635680Y-80435727D01*
X119743853Y-80174574D01*
X119799000Y-79897335D01*
X119799000Y-79614665D01*
X119743853Y-79337426D01*
X119635680Y-79076273D01*
X119478637Y-78841241D01*
X119278759Y-78641363D01*
X119043727Y-78484320D01*
X118782574Y-78376147D01*
X118505335Y-78321000D01*
X118222665Y-78321000D01*
X117945426Y-78376147D01*
X117684273Y-78484320D01*
X117449241Y-78641363D01*
X117249363Y-78841241D01*
X117143918Y-78999051D01*
X117083252Y-79005026D01*
X116939615Y-79048598D01*
X116807238Y-79119355D01*
X116691208Y-79214578D01*
X116667351Y-79243648D01*
X114549654Y-81361346D01*
X114520578Y-81385208D01*
X114484810Y-81428792D01*
X114425355Y-81501238D01*
X114413181Y-81524015D01*
X114354598Y-81633616D01*
X114311026Y-81777253D01*
X114300000Y-81889204D01*
X114296314Y-81926630D01*
X114300000Y-81964054D01*
X114300001Y-82953507D01*
X114198238Y-83021503D01*
X114009503Y-83210238D01*
X113861215Y-83432167D01*
X113759072Y-83678761D01*
X113707000Y-83940544D01*
X107198652Y-83940544D01*
X107192517Y-83936445D01*
X107300482Y-83925812D01*
X107420180Y-83889502D01*
X107530494Y-83830537D01*
X107627185Y-83751185D01*
X107706537Y-83654494D01*
X107765502Y-83544180D01*
X107801812Y-83424482D01*
X107814072Y-83300000D01*
X107814072Y-81800000D01*
X107801812Y-81675518D01*
X107765502Y-81555820D01*
X107706537Y-81445506D01*
X107627185Y-81348815D01*
X107530494Y-81269463D01*
X107420180Y-81210498D01*
X107300482Y-81174188D01*
X107176000Y-81161928D01*
X105676000Y-81161928D01*
X105551518Y-81174188D01*
X105431820Y-81210498D01*
X105321506Y-81269463D01*
X105224815Y-81348815D01*
X105145463Y-81445506D01*
X105086498Y-81555820D01*
X105050188Y-81675518D01*
X105037928Y-81800000D01*
X105037928Y-82863270D01*
X104523526Y-83377673D01*
X104559000Y-83199335D01*
X104559000Y-82916665D01*
X104503853Y-82639426D01*
X104395680Y-82378273D01*
X104238637Y-82143241D01*
X104038759Y-81943363D01*
X103803727Y-81786320D01*
X103542574Y-81678147D01*
X103265335Y-81623000D01*
X102982665Y-81623000D01*
X102705426Y-81678147D01*
X102444273Y-81786320D01*
X102209241Y-81943363D01*
X102009363Y-82143241D01*
X101852320Y-82378273D01*
X101744147Y-82639426D01*
X101689000Y-82916665D01*
X101689000Y-83085370D01*
X101092000Y-82488370D01*
X101092000Y-80972707D01*
X101244759Y-80870637D01*
X101444637Y-80670759D01*
X101601680Y-80435727D01*
X101709853Y-80174574D01*
X101765000Y-79897335D01*
X101765000Y-79756000D01*
X106508057Y-79756000D01*
X106535764Y-80037309D01*
X106617818Y-80307808D01*
X106751068Y-80557101D01*
X106930392Y-80775608D01*
X107148899Y-80954932D01*
X107398192Y-81088182D01*
X107668691Y-81170236D01*
X107879508Y-81191000D01*
X108020492Y-81191000D01*
X108231309Y-81170236D01*
X108501808Y-81088182D01*
X108751101Y-80954932D01*
X108969608Y-80775608D01*
X109148932Y-80557101D01*
X109282182Y-80307808D01*
X109364236Y-80037309D01*
X109379434Y-79883002D01*
X109474084Y-79883002D01*
X109352096Y-80105039D01*
X109392754Y-80239087D01*
X109512963Y-80493420D01*
X109680481Y-80719414D01*
X109888869Y-80908385D01*
X110130119Y-81053070D01*
X110394960Y-81147909D01*
X110617000Y-81026624D01*
X110617000Y-79883000D01*
X110871000Y-79883000D01*
X110871000Y-81026624D01*
X111093040Y-81147909D01*
X111357881Y-81053070D01*
X111599131Y-80908385D01*
X111807519Y-80719414D01*
X111975037Y-80493420D01*
X112095246Y-80239087D01*
X112135904Y-80105039D01*
X112013915Y-79883000D01*
X110871000Y-79883000D01*
X110617000Y-79883000D01*
X110597000Y-79883000D01*
X110597000Y-79629000D01*
X110617000Y-79629000D01*
X110617000Y-78485376D01*
X110871000Y-78485376D01*
X110871000Y-79629000D01*
X112013915Y-79629000D01*
X112135904Y-79406961D01*
X112095246Y-79272913D01*
X111975037Y-79018580D01*
X111807519Y-78792586D01*
X111599131Y-78603615D01*
X111357881Y-78458930D01*
X111093040Y-78364091D01*
X110871000Y-78485376D01*
X110617000Y-78485376D01*
X110394960Y-78364091D01*
X110130119Y-78458930D01*
X109888869Y-78603615D01*
X109680481Y-78792586D01*
X109512963Y-79018580D01*
X109392754Y-79272913D01*
X109352096Y-79406961D01*
X109474084Y-79628998D01*
X109379434Y-79628998D01*
X109364236Y-79474691D01*
X109282182Y-79204192D01*
X109148932Y-78954899D01*
X108969608Y-78736392D01*
X108751101Y-78557068D01*
X108501808Y-78423818D01*
X108231309Y-78341764D01*
X108020492Y-78321000D01*
X107879508Y-78321000D01*
X107668691Y-78341764D01*
X107398192Y-78423818D01*
X107148899Y-78557068D01*
X106930392Y-78736392D01*
X106751068Y-78954899D01*
X106617818Y-79204192D01*
X106535764Y-79474691D01*
X106508057Y-79756000D01*
X101765000Y-79756000D01*
X101765000Y-79614665D01*
X101709853Y-79337426D01*
X101601680Y-79076273D01*
X101444637Y-78841241D01*
X101244759Y-78641363D01*
X101009727Y-78484320D01*
X100748574Y-78376147D01*
X100471335Y-78321000D01*
X100188665Y-78321000D01*
X99911426Y-78376147D01*
X99650273Y-78484320D01*
X99415241Y-78641363D01*
X99215363Y-78841241D01*
X99185874Y-78885374D01*
X99063608Y-78736392D01*
X98845101Y-78557068D01*
X98595808Y-78423818D01*
X98325309Y-78341764D01*
X98114492Y-78321000D01*
X97973508Y-78321000D01*
X97762691Y-78341764D01*
X97492192Y-78423818D01*
X97242899Y-78557068D01*
X97024392Y-78736392D01*
X96845068Y-78954899D01*
X96711818Y-79204192D01*
X96629764Y-79474691D01*
X96602057Y-79756000D01*
X96629764Y-80037309D01*
X96711818Y-80307808D01*
X96845068Y-80557101D01*
X97024392Y-80775608D01*
X97242899Y-80954932D01*
X97492192Y-81088182D01*
X97762691Y-81170236D01*
X97973508Y-81191000D01*
X98114492Y-81191000D01*
X98325309Y-81170236D01*
X98595808Y-81088182D01*
X98845101Y-80954932D01*
X99063608Y-80775608D01*
X99185874Y-80626626D01*
X99215363Y-80670759D01*
X99415241Y-80870637D01*
X99568001Y-80972707D01*
X99568000Y-82766577D01*
X99564314Y-82804000D01*
X99568000Y-82841423D01*
X99568000Y-82841425D01*
X99579026Y-82953377D01*
X99622598Y-83097014D01*
X99622599Y-83097015D01*
X99693355Y-83229392D01*
X99732983Y-83277678D01*
X99788578Y-83345422D01*
X99817654Y-83369284D01*
X101724843Y-85276473D01*
X101689000Y-85456665D01*
X101689000Y-85739335D01*
X101744147Y-86016574D01*
X101852320Y-86277727D01*
X102009363Y-86512759D01*
X102209241Y-86712637D01*
X102441759Y-86868000D01*
X102209241Y-87023363D01*
X102009363Y-87223241D01*
X101907293Y-87376000D01*
X98359631Y-87376000D01*
X96903157Y-85919527D01*
X96939000Y-85739335D01*
X96939000Y-85456665D01*
X96883853Y-85179426D01*
X96775680Y-84918273D01*
X96618637Y-84683241D01*
X96420039Y-84484643D01*
X96428482Y-84483812D01*
X96548180Y-84447502D01*
X96658494Y-84388537D01*
X96755185Y-84309185D01*
X96834537Y-84212494D01*
X96893502Y-84102180D01*
X96929812Y-83982482D01*
X96942072Y-83858000D01*
X96939000Y-83343750D01*
X96780250Y-83185000D01*
X95631000Y-83185000D01*
X95631000Y-83205000D01*
X95377000Y-83205000D01*
X95377000Y-83185000D01*
X94227750Y-83185000D01*
X94069000Y-83343750D01*
X94065928Y-83858000D01*
X94078188Y-83982482D01*
X94114498Y-84102180D01*
X94173463Y-84212494D01*
X94252815Y-84309185D01*
X94349506Y-84388537D01*
X94459820Y-84447502D01*
X94579518Y-84483812D01*
X94587961Y-84484643D01*
X94389363Y-84683241D01*
X94287293Y-84836000D01*
X94041631Y-84836000D01*
X92753006Y-83547375D01*
X92758168Y-83534912D01*
X92821000Y-83219033D01*
X92821000Y-82896967D01*
X92758168Y-82581088D01*
X92634918Y-82283537D01*
X92617855Y-82258000D01*
X94065928Y-82258000D01*
X94069000Y-82772250D01*
X94227750Y-82931000D01*
X95377000Y-82931000D01*
X95377000Y-81781750D01*
X95631000Y-81781750D01*
X95631000Y-82931000D01*
X96780250Y-82931000D01*
X96939000Y-82772250D01*
X96942072Y-82258000D01*
X96929812Y-82133518D01*
X96893502Y-82013820D01*
X96834537Y-81903506D01*
X96755185Y-81806815D01*
X96658494Y-81727463D01*
X96548180Y-81668498D01*
X96428482Y-81632188D01*
X96304000Y-81619928D01*
X95789750Y-81623000D01*
X95631000Y-81781750D01*
X95377000Y-81781750D01*
X95218250Y-81623000D01*
X94704000Y-81619928D01*
X94579518Y-81632188D01*
X94459820Y-81668498D01*
X94349506Y-81727463D01*
X94252815Y-81806815D01*
X94173463Y-81903506D01*
X94114498Y-82013820D01*
X94078188Y-82133518D01*
X94065928Y-82258000D01*
X92617855Y-82258000D01*
X92455987Y-82015748D01*
X92228252Y-81788013D01*
X91960463Y-81609082D01*
X91947749Y-81603816D01*
X91936974Y-81494409D01*
X91893402Y-81350772D01*
X91822645Y-81218395D01*
X91727422Y-81102365D01*
X91698347Y-81078504D01*
X91641497Y-81021654D01*
X91617635Y-80992578D01*
X91557431Y-80943170D01*
X91411828Y-80797568D01*
X91538637Y-80670759D01*
X91695680Y-80435727D01*
X91803853Y-80174574D01*
X91859000Y-79897335D01*
X91859000Y-79614665D01*
X91803853Y-79337426D01*
X91695680Y-79076273D01*
X91538637Y-78841241D01*
X91338759Y-78641363D01*
X91103727Y-78484320D01*
X90842574Y-78376147D01*
X90565335Y-78321000D01*
X90282665Y-78321000D01*
X90005426Y-78376147D01*
X89744273Y-78484320D01*
X89509241Y-78641363D01*
X89309363Y-78841241D01*
X89152320Y-79076273D01*
X89044147Y-79337426D01*
X88989000Y-79614665D01*
X88989000Y-79897335D01*
X89044147Y-80174574D01*
X89152320Y-80435727D01*
X89309363Y-80670759D01*
X89509241Y-80870637D01*
X89667052Y-80976083D01*
X89673027Y-81036748D01*
X89716599Y-81180385D01*
X89787355Y-81312762D01*
X89858721Y-81399721D01*
X89882579Y-81428792D01*
X89911649Y-81452649D01*
X90205651Y-81746651D01*
X90143748Y-81788013D01*
X89916013Y-82015748D01*
X89737082Y-82283537D01*
X89613832Y-82581088D01*
X89551000Y-82896967D01*
X89551000Y-83219033D01*
X89613832Y-83534912D01*
X89737082Y-83832463D01*
X89916013Y-84100252D01*
X90143748Y-84327987D01*
X90411537Y-84506918D01*
X90709088Y-84630168D01*
X91024967Y-84693000D01*
X91347033Y-84693000D01*
X91662912Y-84630168D01*
X91675375Y-84625006D01*
X93160720Y-86110351D01*
X93184578Y-86139422D01*
X93300608Y-86234645D01*
X93432985Y-86305402D01*
X93576622Y-86348974D01*
X93688574Y-86360000D01*
X93688576Y-86360000D01*
X93725999Y-86363686D01*
X93763422Y-86360000D01*
X94287293Y-86360000D01*
X94389363Y-86512759D01*
X94589241Y-86712637D01*
X94821759Y-86868000D01*
X94589241Y-87023363D01*
X94389363Y-87223241D01*
X94232320Y-87458273D01*
X94124147Y-87719426D01*
X94069000Y-87996665D01*
X94069000Y-88279335D01*
X94124147Y-88556574D01*
X94232320Y-88817727D01*
X94389363Y-89052759D01*
X94589241Y-89252637D01*
X94821759Y-89408000D01*
X94589241Y-89563363D01*
X94389363Y-89763241D01*
X94232320Y-89998273D01*
X94124147Y-90259426D01*
X94069000Y-90536665D01*
X94069000Y-90819335D01*
X94124147Y-91096574D01*
X94232320Y-91357727D01*
X94389363Y-91592759D01*
X94589241Y-91792637D01*
X94824273Y-91949680D01*
X95085426Y-92057853D01*
X95362665Y-92113000D01*
X95645335Y-92113000D01*
X95922574Y-92057853D01*
X96183727Y-91949680D01*
X96418759Y-91792637D01*
X96618637Y-91592759D01*
X96775680Y-91357727D01*
X96883853Y-91096574D01*
X96939000Y-90819335D01*
X96939000Y-90536665D01*
X96883853Y-90259426D01*
X96775680Y-89998273D01*
X96618637Y-89763241D01*
X96418759Y-89563363D01*
X96186241Y-89408000D01*
X96418759Y-89252637D01*
X96614883Y-89056513D01*
X101542721Y-93984352D01*
X101566578Y-94013422D01*
X101682608Y-94108645D01*
X101814985Y-94179402D01*
X101958622Y-94222974D01*
X102070574Y-94234000D01*
X102070576Y-94234000D01*
X102090881Y-94236000D01*
X101406803Y-94236000D01*
X100131803Y-92961002D01*
X100108001Y-92931999D01*
X99992276Y-92837026D01*
X99860247Y-92766454D01*
X99716986Y-92722997D01*
X99605333Y-92712000D01*
X99605322Y-92712000D01*
X99568000Y-92708324D01*
X99530678Y-92712000D01*
X98529572Y-92712000D01*
X98529572Y-92672000D01*
X98517312Y-92547518D01*
X98481002Y-92427820D01*
X98422037Y-92317506D01*
X98342685Y-92220815D01*
X98245994Y-92141463D01*
X98135680Y-92082498D01*
X98015982Y-92046188D01*
X97891500Y-92033928D01*
X96291500Y-92033928D01*
X96167018Y-92046188D01*
X96047320Y-92082498D01*
X95937006Y-92141463D01*
X95840315Y-92220815D01*
X95760963Y-92317506D01*
X95701998Y-92427820D01*
X95665688Y-92547518D01*
X95653428Y-92672000D01*
X95653428Y-94272000D01*
X95665688Y-94396482D01*
X95701998Y-94516180D01*
X95715285Y-94541038D01*
X95712482Y-94540188D01*
X95588000Y-94527928D01*
X93388000Y-94527928D01*
X93263518Y-94540188D01*
X93143820Y-94576498D01*
X93033506Y-94635463D01*
X92936815Y-94714815D01*
X92857463Y-94811506D01*
X92798498Y-94921820D01*
X92762188Y-95041518D01*
X92749928Y-95166000D01*
X92749928Y-97366000D01*
X92762188Y-97490482D01*
X92798498Y-97610180D01*
X92857463Y-97720494D01*
X92936815Y-97817185D01*
X93014959Y-97881316D01*
X92877314Y-98138832D01*
X92778105Y-98465881D01*
X92744606Y-98806000D01*
X92778105Y-99146119D01*
X92877314Y-99473168D01*
X93038421Y-99774578D01*
X93255234Y-100038766D01*
X93519422Y-100255579D01*
X93820832Y-100416686D01*
X94147881Y-100515895D01*
X94402775Y-100541000D01*
X94573225Y-100541000D01*
X94828119Y-100515895D01*
X95155168Y-100416686D01*
X95456578Y-100255579D01*
X95720766Y-100038766D01*
X95937579Y-99774578D01*
X96098686Y-99473168D01*
X96197895Y-99146119D01*
X96231394Y-98806000D01*
X96197895Y-98465881D01*
X96098686Y-98138832D01*
X95961041Y-97881316D01*
X96039185Y-97817185D01*
X96118537Y-97720494D01*
X96177502Y-97610180D01*
X96213812Y-97490482D01*
X96226072Y-97366000D01*
X96226072Y-95166000D01*
X96213812Y-95041518D01*
X96177502Y-94921820D01*
X96164215Y-94896962D01*
X96167018Y-94897812D01*
X96291500Y-94910072D01*
X97891500Y-94910072D01*
X98015982Y-94897812D01*
X98135680Y-94861502D01*
X98156106Y-94850584D01*
X98040129Y-94966561D01*
X97860651Y-95235169D01*
X97737025Y-95533630D01*
X97674000Y-95850474D01*
X97674000Y-96173526D01*
X97737025Y-96490370D01*
X97860651Y-96788831D01*
X98040129Y-97057439D01*
X98268561Y-97285871D01*
X98537169Y-97465349D01*
X98835630Y-97588975D01*
X99152474Y-97652000D01*
X99475526Y-97652000D01*
X99686295Y-97610075D01*
X99563649Y-97732721D01*
X99534579Y-97756578D01*
X99510722Y-97785648D01*
X99510721Y-97785649D01*
X99439355Y-97872608D01*
X99368599Y-98004985D01*
X99325027Y-98148622D01*
X99310314Y-98298000D01*
X99314001Y-98335433D01*
X99314001Y-99992691D01*
X99159439Y-99838129D01*
X98890831Y-99658651D01*
X98592370Y-99535025D01*
X98275526Y-99472000D01*
X97952474Y-99472000D01*
X97635630Y-99535025D01*
X97337169Y-99658651D01*
X97068561Y-99838129D01*
X96840129Y-100066561D01*
X96660651Y-100335169D01*
X96537025Y-100633630D01*
X96474000Y-100950474D01*
X96474000Y-101273526D01*
X96537025Y-101590370D01*
X96660651Y-101888831D01*
X96840129Y-102157439D01*
X97068561Y-102385871D01*
X97337169Y-102565349D01*
X97635630Y-102688975D01*
X97952474Y-102752000D01*
X98275526Y-102752000D01*
X98592370Y-102688975D01*
X98890831Y-102565349D01*
X99159439Y-102385871D01*
X99314001Y-102231309D01*
X99314000Y-107380369D01*
X97601370Y-109093000D01*
X88544000Y-109093000D01*
X88544000Y-104918000D01*
X89293928Y-104918000D01*
X89293928Y-106918000D01*
X89306188Y-107042482D01*
X89342498Y-107162180D01*
X89401463Y-107272494D01*
X89480815Y-107369185D01*
X89577506Y-107448537D01*
X89687820Y-107507502D01*
X89807518Y-107543812D01*
X89932000Y-107556072D01*
X91932000Y-107556072D01*
X92056482Y-107543812D01*
X92176180Y-107507502D01*
X92286494Y-107448537D01*
X92383185Y-107369185D01*
X92462537Y-107272494D01*
X92521502Y-107162180D01*
X92554496Y-107053413D01*
X94976192Y-107053413D01*
X95071956Y-107317814D01*
X95361571Y-107458704D01*
X95673108Y-107540384D01*
X95994595Y-107559718D01*
X96313675Y-107515961D01*
X96618088Y-107410795D01*
X96792044Y-107317814D01*
X96887808Y-107053413D01*
X95932000Y-106097605D01*
X94976192Y-107053413D01*
X92554496Y-107053413D01*
X92557812Y-107042482D01*
X92570072Y-106918000D01*
X92570072Y-105980595D01*
X94290282Y-105980595D01*
X94334039Y-106299675D01*
X94439205Y-106604088D01*
X94532186Y-106778044D01*
X94796587Y-106873808D01*
X95752395Y-105918000D01*
X96111605Y-105918000D01*
X97067413Y-106873808D01*
X97331814Y-106778044D01*
X97472704Y-106488429D01*
X97554384Y-106176892D01*
X97573718Y-105855405D01*
X97529961Y-105536325D01*
X97424795Y-105231912D01*
X97331814Y-105057956D01*
X97067413Y-104962192D01*
X96111605Y-105918000D01*
X95752395Y-105918000D01*
X94796587Y-104962192D01*
X94532186Y-105057956D01*
X94391296Y-105347571D01*
X94309616Y-105659108D01*
X94290282Y-105980595D01*
X92570072Y-105980595D01*
X92570072Y-104918000D01*
X92557812Y-104793518D01*
X92554497Y-104782587D01*
X94976192Y-104782587D01*
X95932000Y-105738395D01*
X96887808Y-104782587D01*
X96792044Y-104518186D01*
X96502429Y-104377296D01*
X96190892Y-104295616D01*
X95869405Y-104276282D01*
X95550325Y-104320039D01*
X95245912Y-104425205D01*
X95071956Y-104518186D01*
X94976192Y-104782587D01*
X92554497Y-104782587D01*
X92521502Y-104673820D01*
X92462537Y-104563506D01*
X92383185Y-104466815D01*
X92286494Y-104387463D01*
X92176180Y-104328498D01*
X92056482Y-104292188D01*
X91932000Y-104279928D01*
X89932000Y-104279928D01*
X89807518Y-104292188D01*
X89687820Y-104328498D01*
X89577506Y-104387463D01*
X89480815Y-104466815D01*
X89401463Y-104563506D01*
X89342498Y-104673820D01*
X89306188Y-104793518D01*
X89293928Y-104918000D01*
X88544000Y-104918000D01*
X88544000Y-99670890D01*
X88728524Y-99670890D01*
X88773175Y-99818099D01*
X88898359Y-100080920D01*
X89072412Y-100314269D01*
X89288645Y-100509178D01*
X89538748Y-100658157D01*
X89813109Y-100755481D01*
X90043000Y-100634814D01*
X90043000Y-99441000D01*
X90297000Y-99441000D01*
X90297000Y-100634814D01*
X90526891Y-100755481D01*
X90801252Y-100658157D01*
X91051355Y-100509178D01*
X91267588Y-100314269D01*
X91441641Y-100080920D01*
X91566825Y-99818099D01*
X91611476Y-99670890D01*
X91490155Y-99441000D01*
X90297000Y-99441000D01*
X90043000Y-99441000D01*
X88849845Y-99441000D01*
X88728524Y-99670890D01*
X88544000Y-99670890D01*
X88544000Y-95924000D01*
X88681928Y-95924000D01*
X88681928Y-97624000D01*
X88694188Y-97748482D01*
X88730498Y-97868180D01*
X88789463Y-97978494D01*
X88868815Y-98075185D01*
X88965506Y-98154537D01*
X89075820Y-98213502D01*
X89156466Y-98237966D01*
X89072412Y-98313731D01*
X88898359Y-98547080D01*
X88773175Y-98809901D01*
X88728524Y-98957110D01*
X88849845Y-99187000D01*
X90043000Y-99187000D01*
X90043000Y-99167000D01*
X90297000Y-99167000D01*
X90297000Y-99187000D01*
X91490155Y-99187000D01*
X91611476Y-98957110D01*
X91566825Y-98809901D01*
X91441641Y-98547080D01*
X91267588Y-98313731D01*
X91183534Y-98237966D01*
X91264180Y-98213502D01*
X91374494Y-98154537D01*
X91471185Y-98075185D01*
X91550537Y-97978494D01*
X91609502Y-97868180D01*
X91645812Y-97748482D01*
X91658072Y-97624000D01*
X91658072Y-95924000D01*
X91645812Y-95799518D01*
X91609502Y-95679820D01*
X91550537Y-95569506D01*
X91471185Y-95472815D01*
X91374494Y-95393463D01*
X91264180Y-95334498D01*
X91144482Y-95298188D01*
X91020000Y-95285928D01*
X89320000Y-95285928D01*
X89195518Y-95298188D01*
X89075820Y-95334498D01*
X88965506Y-95393463D01*
X88868815Y-95472815D01*
X88789463Y-95569506D01*
X88730498Y-95679820D01*
X88694188Y-95799518D01*
X88681928Y-95924000D01*
X88544000Y-95924000D01*
X88544000Y-94193413D01*
X90230192Y-94193413D01*
X90325956Y-94457814D01*
X90615571Y-94598704D01*
X90927108Y-94680384D01*
X91248595Y-94699718D01*
X91567675Y-94655961D01*
X91872088Y-94550795D01*
X92046044Y-94457814D01*
X92141808Y-94193413D01*
X91186000Y-93237605D01*
X90230192Y-94193413D01*
X88544000Y-94193413D01*
X88544000Y-93120595D01*
X89544282Y-93120595D01*
X89588039Y-93439675D01*
X89693205Y-93744088D01*
X89786186Y-93918044D01*
X90050587Y-94013808D01*
X91006395Y-93058000D01*
X91365605Y-93058000D01*
X92321413Y-94013808D01*
X92585814Y-93918044D01*
X92726704Y-93628429D01*
X92808384Y-93316892D01*
X92827718Y-92995405D01*
X92783961Y-92676325D01*
X92678795Y-92371912D01*
X92585814Y-92197956D01*
X92321413Y-92102192D01*
X91365605Y-93058000D01*
X91006395Y-93058000D01*
X90050587Y-92102192D01*
X89786186Y-92197956D01*
X89645296Y-92487571D01*
X89563616Y-92799108D01*
X89544282Y-93120595D01*
X88544000Y-93120595D01*
X88544000Y-91922587D01*
X90230192Y-91922587D01*
X91186000Y-92878395D01*
X92141808Y-91922587D01*
X92046044Y-91658186D01*
X91756429Y-91517296D01*
X91444892Y-91435616D01*
X91123405Y-91416282D01*
X90804325Y-91460039D01*
X90499912Y-91565205D01*
X90325956Y-91658186D01*
X90230192Y-91922587D01*
X88544000Y-91922587D01*
X88544000Y-78130000D01*
X120244000Y-78130000D01*
X120244001Y-105791000D01*
X120244001Y-105791000D01*
G37*
X120244001Y-105791000D02*
X119798163Y-105791000D01*
X119805476Y-105766890D01*
X119684155Y-105537000D01*
X118491000Y-105537000D01*
X118491000Y-105557000D01*
X118237000Y-105557000D01*
X118237000Y-105537000D01*
X117043845Y-105537000D01*
X116922524Y-105766890D01*
X116929837Y-105791000D01*
X112776000Y-105791000D01*
X112751224Y-105793440D01*
X112727399Y-105800667D01*
X112705443Y-105812403D01*
X112686197Y-105828197D01*
X109421394Y-109093000D01*
X99756631Y-109093000D01*
X100588353Y-108261278D01*
X100617422Y-108237422D01*
X100712645Y-108121392D01*
X100783402Y-107989015D01*
X100826974Y-107845378D01*
X100838000Y-107733426D01*
X100838000Y-107733424D01*
X100841686Y-107696001D01*
X100838000Y-107658578D01*
X100838000Y-105680000D01*
X102247928Y-105680000D01*
X102247928Y-107680000D01*
X102260188Y-107804482D01*
X102296498Y-107924180D01*
X102355463Y-108034494D01*
X102434815Y-108131185D01*
X102531506Y-108210537D01*
X102641820Y-108269502D01*
X102761518Y-108305812D01*
X102886000Y-108318072D01*
X104886000Y-108318072D01*
X105010482Y-108305812D01*
X105130180Y-108269502D01*
X105240494Y-108210537D01*
X105337185Y-108131185D01*
X105416537Y-108034494D01*
X105475502Y-107924180D01*
X105491037Y-107872967D01*
X105565956Y-108079814D01*
X105855571Y-108220704D01*
X106167108Y-108302384D01*
X106488595Y-108321718D01*
X106807675Y-108277961D01*
X107112088Y-108172795D01*
X107286044Y-108079814D01*
X107381808Y-107815413D01*
X106426000Y-106859605D01*
X106411858Y-106873748D01*
X106232253Y-106694143D01*
X106246395Y-106680000D01*
X106605605Y-106680000D01*
X107561413Y-107635808D01*
X107623280Y-107613400D01*
X107696013Y-107722252D01*
X107923748Y-107949987D01*
X108191537Y-108128918D01*
X108489088Y-108252168D01*
X108804967Y-108315000D01*
X109127033Y-108315000D01*
X109442912Y-108252168D01*
X109740463Y-108128918D01*
X110008252Y-107949987D01*
X110235987Y-107722252D01*
X110414918Y-107454463D01*
X110538168Y-107156912D01*
X110601000Y-106841033D01*
X110601000Y-106518967D01*
X110538168Y-106203088D01*
X110537518Y-106201520D01*
X112916538Y-103822500D01*
X116886023Y-103822500D01*
X116888188Y-103844482D01*
X116924498Y-103964180D01*
X116983463Y-104074494D01*
X117062815Y-104171185D01*
X117159506Y-104250537D01*
X117269820Y-104309502D01*
X117350466Y-104333966D01*
X117266412Y-104409731D01*
X117092359Y-104643080D01*
X116967175Y-104905901D01*
X116922524Y-105053110D01*
X117043845Y-105283000D01*
X118237000Y-105283000D01*
X118237000Y-105263000D01*
X118491000Y-105263000D01*
X118491000Y-105283000D01*
X119684155Y-105283000D01*
X119805476Y-105053110D01*
X119760825Y-104905901D01*
X119635641Y-104643080D01*
X119461588Y-104409731D01*
X119377534Y-104333966D01*
X119458180Y-104309502D01*
X119568494Y-104250537D01*
X119665185Y-104171185D01*
X119744537Y-104074494D01*
X119803502Y-103964180D01*
X119839812Y-103844482D01*
X119852072Y-103720000D01*
X119852072Y-102020000D01*
X119839812Y-101895518D01*
X119803502Y-101775820D01*
X119744537Y-101665506D01*
X119665185Y-101568815D01*
X119568494Y-101489463D01*
X119458180Y-101430498D01*
X119338482Y-101394188D01*
X119316500Y-101392023D01*
X119316500Y-100644896D01*
X119478637Y-100482759D01*
X119635680Y-100247727D01*
X119743853Y-99986574D01*
X119799000Y-99709335D01*
X119799000Y-99426665D01*
X119743853Y-99149426D01*
X119635680Y-98888273D01*
X119478637Y-98653241D01*
X119278759Y-98453363D01*
X119043727Y-98296320D01*
X118782574Y-98188147D01*
X118505335Y-98133000D01*
X118222665Y-98133000D01*
X117945426Y-98188147D01*
X117684273Y-98296320D01*
X117449241Y-98453363D01*
X117249363Y-98653241D01*
X117115308Y-98853869D01*
X117100671Y-98826486D01*
X116856702Y-98754903D01*
X116043605Y-99568000D01*
X116856702Y-100381097D01*
X117100671Y-100309514D01*
X117114324Y-100280659D01*
X117249363Y-100482759D01*
X117411500Y-100644896D01*
X117411501Y-101392023D01*
X117389518Y-101394188D01*
X117269820Y-101430498D01*
X117159506Y-101489463D01*
X117062815Y-101568815D01*
X116983463Y-101665506D01*
X116924498Y-101775820D01*
X116888188Y-101895518D01*
X116886023Y-101917500D01*
X112568784Y-101917500D01*
X112521999Y-101912892D01*
X112382163Y-101926665D01*
X112335277Y-101931283D01*
X112155731Y-101985748D01*
X111990259Y-102074194D01*
X111845222Y-102193222D01*
X111815393Y-102229569D01*
X111165975Y-102878987D01*
X111253680Y-102747727D01*
X111361853Y-102486574D01*
X111417000Y-102209335D01*
X111417000Y-101926665D01*
X111361853Y-101649426D01*
X111253680Y-101388273D01*
X111096637Y-101153241D01*
X110896759Y-100953363D01*
X110696131Y-100819308D01*
X110723514Y-100804671D01*
X110795097Y-100560702D01*
X109982000Y-99747605D01*
X109168903Y-100560702D01*
X109240486Y-100804671D01*
X109269341Y-100818324D01*
X109067241Y-100953363D01*
X108867363Y-101153241D01*
X108710320Y-101388273D01*
X108602147Y-101649426D01*
X108547000Y-101926665D01*
X108547000Y-102209335D01*
X108602147Y-102486574D01*
X108710320Y-102747727D01*
X108867363Y-102982759D01*
X109067241Y-103182637D01*
X109302273Y-103339680D01*
X109563426Y-103447853D01*
X109840665Y-103503000D01*
X110123335Y-103503000D01*
X110400574Y-103447853D01*
X110661727Y-103339680D01*
X110792987Y-103251975D01*
X108999962Y-105045000D01*
X108804967Y-105045000D01*
X108489088Y-105107832D01*
X108191537Y-105231082D01*
X107923748Y-105410013D01*
X107696013Y-105637748D01*
X107623280Y-105746600D01*
X107561413Y-105724192D01*
X106605605Y-106680000D01*
X106246395Y-106680000D01*
X106232253Y-106665858D01*
X106411858Y-106486253D01*
X106426000Y-106500395D01*
X107381808Y-105544587D01*
X107286044Y-105280186D01*
X106996429Y-105139296D01*
X106684892Y-105057616D01*
X106363405Y-105038282D01*
X106044325Y-105082039D01*
X105739912Y-105187205D01*
X105565956Y-105280186D01*
X105491037Y-105487033D01*
X105475502Y-105435820D01*
X105416537Y-105325506D01*
X105337185Y-105228815D01*
X105240494Y-105149463D01*
X105130180Y-105090498D01*
X105010482Y-105054188D01*
X104886000Y-105041928D01*
X102886000Y-105041928D01*
X102761518Y-105054188D01*
X102641820Y-105090498D01*
X102531506Y-105149463D01*
X102434815Y-105228815D01*
X102355463Y-105325506D01*
X102296498Y-105435820D01*
X102260188Y-105555518D01*
X102247928Y-105680000D01*
X100838000Y-105680000D01*
X100838000Y-100406532D01*
X102064227Y-100406532D01*
X102114916Y-100858434D01*
X102252415Y-101291885D01*
X102471486Y-101690373D01*
X102763784Y-102038721D01*
X103118178Y-102323661D01*
X103521167Y-102534338D01*
X103957402Y-102662729D01*
X104410266Y-102703943D01*
X104862512Y-102656410D01*
X105296911Y-102521941D01*
X105696919Y-102305658D01*
X106047300Y-102015798D01*
X106334706Y-101663402D01*
X106548192Y-101261894D01*
X106679626Y-100826566D01*
X106724000Y-100374000D01*
X106723092Y-100308943D01*
X106666098Y-99857792D01*
X106593154Y-99638512D01*
X108541783Y-99638512D01*
X108583213Y-99918130D01*
X108678397Y-100184292D01*
X108745329Y-100309514D01*
X108989298Y-100381097D01*
X109802395Y-99568000D01*
X110161605Y-99568000D01*
X110974702Y-100381097D01*
X111218671Y-100309514D01*
X111275853Y-100188665D01*
X111849000Y-100188665D01*
X111849000Y-100471335D01*
X111904147Y-100748574D01*
X112012320Y-101009727D01*
X112169363Y-101244759D01*
X112369241Y-101444637D01*
X112604273Y-101601680D01*
X112865426Y-101709853D01*
X113142665Y-101765000D01*
X113425335Y-101765000D01*
X113702574Y-101709853D01*
X113963727Y-101601680D01*
X114198759Y-101444637D01*
X114398637Y-101244759D01*
X114555680Y-101009727D01*
X114663853Y-100748574D01*
X114701223Y-100560702D01*
X115050903Y-100560702D01*
X115122486Y-100804671D01*
X115377996Y-100925571D01*
X115652184Y-100994300D01*
X115934512Y-101008217D01*
X116214130Y-100966787D01*
X116480292Y-100871603D01*
X116605514Y-100804671D01*
X116677097Y-100560702D01*
X115864000Y-99747605D01*
X115050903Y-100560702D01*
X114701223Y-100560702D01*
X114719000Y-100471335D01*
X114719000Y-100336411D01*
X114871298Y-100381097D01*
X115684395Y-99568000D01*
X115670253Y-99553858D01*
X115849858Y-99374253D01*
X115864000Y-99388395D01*
X116677097Y-98575298D01*
X116605514Y-98331329D01*
X116350004Y-98210429D01*
X116075816Y-98141700D01*
X115793488Y-98127783D01*
X115741343Y-98135509D01*
X115769401Y-98083016D01*
X115769402Y-98083015D01*
X115812974Y-97939378D01*
X115824000Y-97827426D01*
X115824000Y-97827423D01*
X115827686Y-97790000D01*
X115824000Y-97752577D01*
X115824000Y-96378665D01*
X116929000Y-96378665D01*
X116929000Y-96661335D01*
X116984147Y-96938574D01*
X117092320Y-97199727D01*
X117249363Y-97434759D01*
X117449241Y-97634637D01*
X117684273Y-97791680D01*
X117945426Y-97899853D01*
X118222665Y-97955000D01*
X118505335Y-97955000D01*
X118782574Y-97899853D01*
X119043727Y-97791680D01*
X119278759Y-97634637D01*
X119478637Y-97434759D01*
X119635680Y-97199727D01*
X119743853Y-96938574D01*
X119799000Y-96661335D01*
X119799000Y-96378665D01*
X119743853Y-96101426D01*
X119635680Y-95840273D01*
X119478637Y-95605241D01*
X119278759Y-95405363D01*
X119043727Y-95248320D01*
X118782574Y-95140147D01*
X118505335Y-95085000D01*
X118222665Y-95085000D01*
X117945426Y-95140147D01*
X117684273Y-95248320D01*
X117449241Y-95405363D01*
X117249363Y-95605241D01*
X117092320Y-95840273D01*
X116984147Y-96101426D01*
X116929000Y-96378665D01*
X115824000Y-96378665D01*
X115824000Y-93821039D01*
X116972096Y-93821039D01*
X117012754Y-93955087D01*
X117132963Y-94209420D01*
X117300481Y-94435414D01*
X117508869Y-94624385D01*
X117750119Y-94769070D01*
X118014960Y-94863909D01*
X118237000Y-94742624D01*
X118237000Y-93599000D01*
X118491000Y-93599000D01*
X118491000Y-94742624D01*
X118713040Y-94863909D01*
X118977881Y-94769070D01*
X119219131Y-94624385D01*
X119427519Y-94435414D01*
X119595037Y-94209420D01*
X119715246Y-93955087D01*
X119755904Y-93821039D01*
X119633915Y-93599000D01*
X118491000Y-93599000D01*
X118237000Y-93599000D01*
X117094085Y-93599000D01*
X116972096Y-93821039D01*
X115824000Y-93821039D01*
X115824000Y-93122961D01*
X116972096Y-93122961D01*
X117094085Y-93345000D01*
X118237000Y-93345000D01*
X118237000Y-92201376D01*
X118491000Y-92201376D01*
X118491000Y-93345000D01*
X119633915Y-93345000D01*
X119755904Y-93122961D01*
X119715246Y-92988913D01*
X119595037Y-92734580D01*
X119427519Y-92508586D01*
X119219131Y-92319615D01*
X118977881Y-92174930D01*
X118713040Y-92080091D01*
X118491000Y-92201376D01*
X118237000Y-92201376D01*
X118014960Y-92080091D01*
X117750119Y-92174930D01*
X117508869Y-92319615D01*
X117300481Y-92508586D01*
X117132963Y-92734580D01*
X117012754Y-92988913D01*
X116972096Y-93122961D01*
X115824000Y-93122961D01*
X115824000Y-90274492D01*
X115925762Y-90206497D01*
X116114497Y-90017762D01*
X116262785Y-89795833D01*
X116364928Y-89549239D01*
X116417000Y-89287456D01*
X116417000Y-89020544D01*
X116364928Y-88758761D01*
X116262785Y-88512167D01*
X116114497Y-88290238D01*
X115925762Y-88101503D01*
X115703833Y-87953215D01*
X115457239Y-87851072D01*
X115195456Y-87799000D01*
X114928544Y-87799000D01*
X114666761Y-87851072D01*
X114420167Y-87953215D01*
X114198238Y-88101503D01*
X114009503Y-88290238D01*
X113861215Y-88512167D01*
X113759072Y-88758761D01*
X113707000Y-89020544D01*
X113707000Y-89287456D01*
X113759072Y-89549239D01*
X113861215Y-89795833D01*
X114009503Y-90017762D01*
X114198238Y-90206497D01*
X114300001Y-90274493D01*
X114300000Y-97474370D01*
X112795088Y-98979282D01*
X112604273Y-99058320D01*
X112369241Y-99215363D01*
X112169363Y-99415241D01*
X112012320Y-99650273D01*
X111904147Y-99911426D01*
X111849000Y-100188665D01*
X111275853Y-100188665D01*
X111339571Y-100054004D01*
X111408300Y-99779816D01*
X111422217Y-99497488D01*
X111380787Y-99217870D01*
X111285603Y-98951708D01*
X111218671Y-98826486D01*
X110974702Y-98754903D01*
X110161605Y-99568000D01*
X109802395Y-99568000D01*
X108989298Y-98754903D01*
X108745329Y-98826486D01*
X108624429Y-99081996D01*
X108555700Y-99356184D01*
X108541783Y-99638512D01*
X106593154Y-99638512D01*
X106522561Y-99426304D01*
X106297948Y-99030913D01*
X106000814Y-98686680D01*
X105858252Y-98575298D01*
X109168903Y-98575298D01*
X109982000Y-99388395D01*
X110795097Y-98575298D01*
X110723514Y-98331329D01*
X110468004Y-98210429D01*
X110193816Y-98141700D01*
X109911488Y-98127783D01*
X109631870Y-98169213D01*
X109365708Y-98264397D01*
X109240486Y-98331329D01*
X109168903Y-98575298D01*
X105858252Y-98575298D01*
X105642476Y-98406716D01*
X105236585Y-98201686D01*
X104798600Y-98079398D01*
X104345204Y-98044511D01*
X103893667Y-98098354D01*
X103461187Y-98238875D01*
X103064237Y-98460722D01*
X102717938Y-98755446D01*
X102435480Y-99111820D01*
X102227621Y-99516270D01*
X102102278Y-99953390D01*
X102064227Y-100406532D01*
X100838000Y-100406532D01*
X100838000Y-98613630D01*
X102677631Y-96774000D01*
X107150577Y-96774000D01*
X107188000Y-96777686D01*
X107225423Y-96774000D01*
X107225426Y-96774000D01*
X107337378Y-96762974D01*
X107481015Y-96719402D01*
X107613392Y-96648645D01*
X107729422Y-96553422D01*
X107753284Y-96524346D01*
X108208347Y-96069283D01*
X108237422Y-96045422D01*
X108332645Y-95929392D01*
X108361145Y-95876072D01*
X108446000Y-95876072D01*
X108570482Y-95863812D01*
X108690180Y-95827502D01*
X108800494Y-95768537D01*
X108897185Y-95689185D01*
X108976537Y-95592494D01*
X109035502Y-95482180D01*
X109071812Y-95362482D01*
X109084072Y-95238000D01*
X109084072Y-93738000D01*
X109071812Y-93613518D01*
X109035502Y-93493820D01*
X108976537Y-93383506D01*
X108897185Y-93286815D01*
X108800494Y-93207463D01*
X108690180Y-93148498D01*
X108570482Y-93112188D01*
X108446000Y-93099928D01*
X108375155Y-93099928D01*
X108578886Y-92963799D01*
X108771799Y-92770886D01*
X108850420Y-92653221D01*
X109345312Y-93148114D01*
X109309000Y-93330665D01*
X109309000Y-93613335D01*
X109364147Y-93890574D01*
X109472320Y-94151727D01*
X109629363Y-94386759D01*
X109829241Y-94586637D01*
X110064273Y-94743680D01*
X110325426Y-94851853D01*
X110602665Y-94907000D01*
X110885335Y-94907000D01*
X111162574Y-94851853D01*
X111423727Y-94743680D01*
X111489396Y-94699802D01*
X111069906Y-95119292D01*
X111025309Y-95105764D01*
X110814492Y-95085000D01*
X110673508Y-95085000D01*
X110462691Y-95105764D01*
X110192192Y-95187818D01*
X109942899Y-95321068D01*
X109724392Y-95500392D01*
X109545068Y-95718899D01*
X109411818Y-95968192D01*
X109329764Y-96238691D01*
X109302057Y-96520000D01*
X109329764Y-96801309D01*
X109411818Y-97071808D01*
X109545068Y-97321101D01*
X109724392Y-97539608D01*
X109942899Y-97718932D01*
X110192192Y-97852182D01*
X110462691Y-97934236D01*
X110673508Y-97955000D01*
X110814492Y-97955000D01*
X111025309Y-97934236D01*
X111295808Y-97852182D01*
X111545101Y-97718932D01*
X111763608Y-97539608D01*
X111942932Y-97321101D01*
X112076182Y-97071808D01*
X112158236Y-96801309D01*
X112185943Y-96520000D01*
X112158236Y-96238691D01*
X112144708Y-96194094D01*
X112779009Y-95559794D01*
X112808001Y-95536001D01*
X112831795Y-95507008D01*
X112831799Y-95507004D01*
X112902973Y-95420277D01*
X112902974Y-95420276D01*
X112973546Y-95288247D01*
X113017003Y-95144986D01*
X113028000Y-95033333D01*
X113028000Y-95033324D01*
X113031676Y-94996001D01*
X113028000Y-94958678D01*
X113028000Y-92493325D01*
X113031676Y-92456000D01*
X113028000Y-92418675D01*
X113028000Y-92418667D01*
X113017003Y-92307014D01*
X112973546Y-92163753D01*
X112902974Y-92031724D01*
X112808001Y-91915999D01*
X112779003Y-91892201D01*
X111053804Y-90167003D01*
X111030001Y-90137999D01*
X110914276Y-90043026D01*
X110782247Y-89972454D01*
X110638986Y-89928997D01*
X110527333Y-89918000D01*
X110527322Y-89918000D01*
X110490000Y-89914324D01*
X110452678Y-89918000D01*
X108930276Y-89918000D01*
X109007760Y-89752884D01*
X109073250Y-89488040D01*
X109085812Y-89215508D01*
X109044965Y-88945762D01*
X108952277Y-88689168D01*
X108891860Y-88576137D01*
X108652993Y-88510612D01*
X107875605Y-89288000D01*
X107889748Y-89302143D01*
X107710143Y-89481748D01*
X107696000Y-89467605D01*
X107681858Y-89481748D01*
X107502253Y-89302143D01*
X107516395Y-89288000D01*
X107502253Y-89273858D01*
X107681858Y-89094253D01*
X107696000Y-89108395D01*
X108473388Y-88331007D01*
X108407863Y-88092140D01*
X108160884Y-87976240D01*
X107896040Y-87910750D01*
X107784563Y-87905612D01*
X107803250Y-87830040D01*
X107815812Y-87557508D01*
X107774965Y-87287762D01*
X107682277Y-87031168D01*
X107621860Y-86918137D01*
X107382993Y-86852612D01*
X106605605Y-87630000D01*
X106619748Y-87644143D01*
X106440143Y-87823748D01*
X106426000Y-87809605D01*
X106411858Y-87823748D01*
X106232253Y-87644143D01*
X106246395Y-87630000D01*
X106232253Y-87615858D01*
X106411858Y-87436253D01*
X106426000Y-87450395D01*
X107203388Y-86673007D01*
X107137863Y-86434140D01*
X106979523Y-86359836D01*
X107082043Y-86317371D01*
X107308886Y-86165799D01*
X107501799Y-85972886D01*
X107582573Y-85852000D01*
X111698370Y-85852000D01*
X112972721Y-87126352D01*
X112996578Y-87155422D01*
X113112608Y-87250645D01*
X113244985Y-87321402D01*
X113388622Y-87364974D01*
X113500574Y-87376000D01*
X113500576Y-87376000D01*
X113537999Y-87379686D01*
X113575422Y-87376000D01*
X116481508Y-87376000D01*
X116549503Y-87477762D01*
X116738238Y-87666497D01*
X116960167Y-87814785D01*
X117206761Y-87916928D01*
X117468544Y-87969000D01*
X117735456Y-87969000D01*
X117997239Y-87916928D01*
X118243833Y-87814785D01*
X118465762Y-87666497D01*
X118654497Y-87477762D01*
X118802785Y-87255833D01*
X118904928Y-87009239D01*
X118957000Y-86747456D01*
X118957000Y-86480544D01*
X118904928Y-86218761D01*
X118802785Y-85972167D01*
X118654497Y-85750238D01*
X118465762Y-85561503D01*
X118243833Y-85413215D01*
X117997239Y-85311072D01*
X117735456Y-85259000D01*
X117468544Y-85259000D01*
X117206761Y-85311072D01*
X116960167Y-85413215D01*
X116738238Y-85561503D01*
X116549503Y-85750238D01*
X116481508Y-85852000D01*
X113853631Y-85852000D01*
X112579284Y-84577654D01*
X112555422Y-84548578D01*
X112439392Y-84453355D01*
X112307015Y-84382598D01*
X112163378Y-84339026D01*
X112051426Y-84328000D01*
X112051423Y-84328000D01*
X112014000Y-84324314D01*
X111976577Y-84328000D01*
X107582573Y-84328000D01*
X107501799Y-84207114D01*
X107308886Y-84014201D01*
X107198652Y-83940544D01*
X113707000Y-83940544D01*
X113707000Y-84207456D01*
X113759072Y-84469239D01*
X113861215Y-84715833D01*
X114009503Y-84937762D01*
X114198238Y-85126497D01*
X114420167Y-85274785D01*
X114666761Y-85376928D01*
X114928544Y-85429000D01*
X115195456Y-85429000D01*
X115457239Y-85376928D01*
X115703833Y-85274785D01*
X115925762Y-85126497D01*
X116114497Y-84937762D01*
X116262785Y-84715833D01*
X116364928Y-84469239D01*
X116417000Y-84207456D01*
X116417000Y-83940544D01*
X116364928Y-83678761D01*
X116262785Y-83432167D01*
X116114497Y-83210238D01*
X115925762Y-83021503D01*
X115824000Y-82953508D01*
X115824000Y-82242260D01*
X117322432Y-80743828D01*
X117449241Y-80870637D01*
X117684273Y-81027680D01*
X117945426Y-81135853D01*
X118222665Y-81191000D01*
X118505335Y-81191000D01*
X118782574Y-81135853D01*
X119043727Y-81027680D01*
X119278759Y-80870637D01*
X119478637Y-80670759D01*
X119635680Y-80435727D01*
X119743853Y-80174574D01*
X119799000Y-79897335D01*
X119799000Y-79614665D01*
X119743853Y-79337426D01*
X119635680Y-79076273D01*
X119478637Y-78841241D01*
X119278759Y-78641363D01*
X119043727Y-78484320D01*
X118782574Y-78376147D01*
X118505335Y-78321000D01*
X118222665Y-78321000D01*
X117945426Y-78376147D01*
X117684273Y-78484320D01*
X117449241Y-78641363D01*
X117249363Y-78841241D01*
X117143918Y-78999051D01*
X117083252Y-79005026D01*
X116939615Y-79048598D01*
X116807238Y-79119355D01*
X116691208Y-79214578D01*
X116667351Y-79243648D01*
X114549654Y-81361346D01*
X114520578Y-81385208D01*
X114484810Y-81428792D01*
X114425355Y-81501238D01*
X114413181Y-81524015D01*
X114354598Y-81633616D01*
X114311026Y-81777253D01*
X114300000Y-81889204D01*
X114296314Y-81926630D01*
X114300000Y-81964054D01*
X114300001Y-82953507D01*
X114198238Y-83021503D01*
X114009503Y-83210238D01*
X113861215Y-83432167D01*
X113759072Y-83678761D01*
X113707000Y-83940544D01*
X107198652Y-83940544D01*
X107192517Y-83936445D01*
X107300482Y-83925812D01*
X107420180Y-83889502D01*
X107530494Y-83830537D01*
X107627185Y-83751185D01*
X107706537Y-83654494D01*
X107765502Y-83544180D01*
X107801812Y-83424482D01*
X107814072Y-83300000D01*
X107814072Y-81800000D01*
X107801812Y-81675518D01*
X107765502Y-81555820D01*
X107706537Y-81445506D01*
X107627185Y-81348815D01*
X107530494Y-81269463D01*
X107420180Y-81210498D01*
X107300482Y-81174188D01*
X107176000Y-81161928D01*
X105676000Y-81161928D01*
X105551518Y-81174188D01*
X105431820Y-81210498D01*
X105321506Y-81269463D01*
X105224815Y-81348815D01*
X105145463Y-81445506D01*
X105086498Y-81555820D01*
X105050188Y-81675518D01*
X105037928Y-81800000D01*
X105037928Y-82863270D01*
X104523526Y-83377673D01*
X104559000Y-83199335D01*
X104559000Y-82916665D01*
X104503853Y-82639426D01*
X104395680Y-82378273D01*
X104238637Y-82143241D01*
X104038759Y-81943363D01*
X103803727Y-81786320D01*
X103542574Y-81678147D01*
X103265335Y-81623000D01*
X102982665Y-81623000D01*
X102705426Y-81678147D01*
X102444273Y-81786320D01*
X102209241Y-81943363D01*
X102009363Y-82143241D01*
X101852320Y-82378273D01*
X101744147Y-82639426D01*
X101689000Y-82916665D01*
X101689000Y-83085370D01*
X101092000Y-82488370D01*
X101092000Y-80972707D01*
X101244759Y-80870637D01*
X101444637Y-80670759D01*
X101601680Y-80435727D01*
X101709853Y-80174574D01*
X101765000Y-79897335D01*
X101765000Y-79756000D01*
X106508057Y-79756000D01*
X106535764Y-80037309D01*
X106617818Y-80307808D01*
X106751068Y-80557101D01*
X106930392Y-80775608D01*
X107148899Y-80954932D01*
X107398192Y-81088182D01*
X107668691Y-81170236D01*
X107879508Y-81191000D01*
X108020492Y-81191000D01*
X108231309Y-81170236D01*
X108501808Y-81088182D01*
X108751101Y-80954932D01*
X108969608Y-80775608D01*
X109148932Y-80557101D01*
X109282182Y-80307808D01*
X109364236Y-80037309D01*
X109379434Y-79883002D01*
X109474084Y-79883002D01*
X109352096Y-80105039D01*
X109392754Y-80239087D01*
X109512963Y-80493420D01*
X109680481Y-80719414D01*
X109888869Y-80908385D01*
X110130119Y-81053070D01*
X110394960Y-81147909D01*
X110617000Y-81026624D01*
X110617000Y-79883000D01*
X110871000Y-79883000D01*
X110871000Y-81026624D01*
X111093040Y-81147909D01*
X111357881Y-81053070D01*
X111599131Y-80908385D01*
X111807519Y-80719414D01*
X111975037Y-80493420D01*
X112095246Y-80239087D01*
X112135904Y-80105039D01*
X112013915Y-79883000D01*
X110871000Y-79883000D01*
X110617000Y-79883000D01*
X110597000Y-79883000D01*
X110597000Y-79629000D01*
X110617000Y-79629000D01*
X110617000Y-78485376D01*
X110871000Y-78485376D01*
X110871000Y-79629000D01*
X112013915Y-79629000D01*
X112135904Y-79406961D01*
X112095246Y-79272913D01*
X111975037Y-79018580D01*
X111807519Y-78792586D01*
X111599131Y-78603615D01*
X111357881Y-78458930D01*
X111093040Y-78364091D01*
X110871000Y-78485376D01*
X110617000Y-78485376D01*
X110394960Y-78364091D01*
X110130119Y-78458930D01*
X109888869Y-78603615D01*
X109680481Y-78792586D01*
X109512963Y-79018580D01*
X109392754Y-79272913D01*
X109352096Y-79406961D01*
X109474084Y-79628998D01*
X109379434Y-79628998D01*
X109364236Y-79474691D01*
X109282182Y-79204192D01*
X109148932Y-78954899D01*
X108969608Y-78736392D01*
X108751101Y-78557068D01*
X108501808Y-78423818D01*
X108231309Y-78341764D01*
X108020492Y-78321000D01*
X107879508Y-78321000D01*
X107668691Y-78341764D01*
X107398192Y-78423818D01*
X107148899Y-78557068D01*
X106930392Y-78736392D01*
X106751068Y-78954899D01*
X106617818Y-79204192D01*
X106535764Y-79474691D01*
X106508057Y-79756000D01*
X101765000Y-79756000D01*
X101765000Y-79614665D01*
X101709853Y-79337426D01*
X101601680Y-79076273D01*
X101444637Y-78841241D01*
X101244759Y-78641363D01*
X101009727Y-78484320D01*
X100748574Y-78376147D01*
X100471335Y-78321000D01*
X100188665Y-78321000D01*
X99911426Y-78376147D01*
X99650273Y-78484320D01*
X99415241Y-78641363D01*
X99215363Y-78841241D01*
X99185874Y-78885374D01*
X99063608Y-78736392D01*
X98845101Y-78557068D01*
X98595808Y-78423818D01*
X98325309Y-78341764D01*
X98114492Y-78321000D01*
X97973508Y-78321000D01*
X97762691Y-78341764D01*
X97492192Y-78423818D01*
X97242899Y-78557068D01*
X97024392Y-78736392D01*
X96845068Y-78954899D01*
X96711818Y-79204192D01*
X96629764Y-79474691D01*
X96602057Y-79756000D01*
X96629764Y-80037309D01*
X96711818Y-80307808D01*
X96845068Y-80557101D01*
X97024392Y-80775608D01*
X97242899Y-80954932D01*
X97492192Y-81088182D01*
X97762691Y-81170236D01*
X97973508Y-81191000D01*
X98114492Y-81191000D01*
X98325309Y-81170236D01*
X98595808Y-81088182D01*
X98845101Y-80954932D01*
X99063608Y-80775608D01*
X99185874Y-80626626D01*
X99215363Y-80670759D01*
X99415241Y-80870637D01*
X99568001Y-80972707D01*
X99568000Y-82766577D01*
X99564314Y-82804000D01*
X99568000Y-82841423D01*
X99568000Y-82841425D01*
X99579026Y-82953377D01*
X99622598Y-83097014D01*
X99622599Y-83097015D01*
X99693355Y-83229392D01*
X99732983Y-83277678D01*
X99788578Y-83345422D01*
X99817654Y-83369284D01*
X101724843Y-85276473D01*
X101689000Y-85456665D01*
X101689000Y-85739335D01*
X101744147Y-86016574D01*
X101852320Y-86277727D01*
X102009363Y-86512759D01*
X102209241Y-86712637D01*
X102441759Y-86868000D01*
X102209241Y-87023363D01*
X102009363Y-87223241D01*
X101907293Y-87376000D01*
X98359631Y-87376000D01*
X96903157Y-85919527D01*
X96939000Y-85739335D01*
X96939000Y-85456665D01*
X96883853Y-85179426D01*
X96775680Y-84918273D01*
X96618637Y-84683241D01*
X96420039Y-84484643D01*
X96428482Y-84483812D01*
X96548180Y-84447502D01*
X96658494Y-84388537D01*
X96755185Y-84309185D01*
X96834537Y-84212494D01*
X96893502Y-84102180D01*
X96929812Y-83982482D01*
X96942072Y-83858000D01*
X96939000Y-83343750D01*
X96780250Y-83185000D01*
X95631000Y-83185000D01*
X95631000Y-83205000D01*
X95377000Y-83205000D01*
X95377000Y-83185000D01*
X94227750Y-83185000D01*
X94069000Y-83343750D01*
X94065928Y-83858000D01*
X94078188Y-83982482D01*
X94114498Y-84102180D01*
X94173463Y-84212494D01*
X94252815Y-84309185D01*
X94349506Y-84388537D01*
X94459820Y-84447502D01*
X94579518Y-84483812D01*
X94587961Y-84484643D01*
X94389363Y-84683241D01*
X94287293Y-84836000D01*
X94041631Y-84836000D01*
X92753006Y-83547375D01*
X92758168Y-83534912D01*
X92821000Y-83219033D01*
X92821000Y-82896967D01*
X92758168Y-82581088D01*
X92634918Y-82283537D01*
X92617855Y-82258000D01*
X94065928Y-82258000D01*
X94069000Y-82772250D01*
X94227750Y-82931000D01*
X95377000Y-82931000D01*
X95377000Y-81781750D01*
X95631000Y-81781750D01*
X95631000Y-82931000D01*
X96780250Y-82931000D01*
X96939000Y-82772250D01*
X96942072Y-82258000D01*
X96929812Y-82133518D01*
X96893502Y-82013820D01*
X96834537Y-81903506D01*
X96755185Y-81806815D01*
X96658494Y-81727463D01*
X96548180Y-81668498D01*
X96428482Y-81632188D01*
X96304000Y-81619928D01*
X95789750Y-81623000D01*
X95631000Y-81781750D01*
X95377000Y-81781750D01*
X95218250Y-81623000D01*
X94704000Y-81619928D01*
X94579518Y-81632188D01*
X94459820Y-81668498D01*
X94349506Y-81727463D01*
X94252815Y-81806815D01*
X94173463Y-81903506D01*
X94114498Y-82013820D01*
X94078188Y-82133518D01*
X94065928Y-82258000D01*
X92617855Y-82258000D01*
X92455987Y-82015748D01*
X92228252Y-81788013D01*
X91960463Y-81609082D01*
X91947749Y-81603816D01*
X91936974Y-81494409D01*
X91893402Y-81350772D01*
X91822645Y-81218395D01*
X91727422Y-81102365D01*
X91698347Y-81078504D01*
X91641497Y-81021654D01*
X91617635Y-80992578D01*
X91557431Y-80943170D01*
X91411828Y-80797568D01*
X91538637Y-80670759D01*
X91695680Y-80435727D01*
X91803853Y-80174574D01*
X91859000Y-79897335D01*
X91859000Y-79614665D01*
X91803853Y-79337426D01*
X91695680Y-79076273D01*
X91538637Y-78841241D01*
X91338759Y-78641363D01*
X91103727Y-78484320D01*
X90842574Y-78376147D01*
X90565335Y-78321000D01*
X90282665Y-78321000D01*
X90005426Y-78376147D01*
X89744273Y-78484320D01*
X89509241Y-78641363D01*
X89309363Y-78841241D01*
X89152320Y-79076273D01*
X89044147Y-79337426D01*
X88989000Y-79614665D01*
X88989000Y-79897335D01*
X89044147Y-80174574D01*
X89152320Y-80435727D01*
X89309363Y-80670759D01*
X89509241Y-80870637D01*
X89667052Y-80976083D01*
X89673027Y-81036748D01*
X89716599Y-81180385D01*
X89787355Y-81312762D01*
X89858721Y-81399721D01*
X89882579Y-81428792D01*
X89911649Y-81452649D01*
X90205651Y-81746651D01*
X90143748Y-81788013D01*
X89916013Y-82015748D01*
X89737082Y-82283537D01*
X89613832Y-82581088D01*
X89551000Y-82896967D01*
X89551000Y-83219033D01*
X89613832Y-83534912D01*
X89737082Y-83832463D01*
X89916013Y-84100252D01*
X90143748Y-84327987D01*
X90411537Y-84506918D01*
X90709088Y-84630168D01*
X91024967Y-84693000D01*
X91347033Y-84693000D01*
X91662912Y-84630168D01*
X91675375Y-84625006D01*
X93160720Y-86110351D01*
X93184578Y-86139422D01*
X93300608Y-86234645D01*
X93432985Y-86305402D01*
X93576622Y-86348974D01*
X93688574Y-86360000D01*
X93688576Y-86360000D01*
X93725999Y-86363686D01*
X93763422Y-86360000D01*
X94287293Y-86360000D01*
X94389363Y-86512759D01*
X94589241Y-86712637D01*
X94821759Y-86868000D01*
X94589241Y-87023363D01*
X94389363Y-87223241D01*
X94232320Y-87458273D01*
X94124147Y-87719426D01*
X94069000Y-87996665D01*
X94069000Y-88279335D01*
X94124147Y-88556574D01*
X94232320Y-88817727D01*
X94389363Y-89052759D01*
X94589241Y-89252637D01*
X94821759Y-89408000D01*
X94589241Y-89563363D01*
X94389363Y-89763241D01*
X94232320Y-89998273D01*
X94124147Y-90259426D01*
X94069000Y-90536665D01*
X94069000Y-90819335D01*
X94124147Y-91096574D01*
X94232320Y-91357727D01*
X94389363Y-91592759D01*
X94589241Y-91792637D01*
X94824273Y-91949680D01*
X95085426Y-92057853D01*
X95362665Y-92113000D01*
X95645335Y-92113000D01*
X95922574Y-92057853D01*
X96183727Y-91949680D01*
X96418759Y-91792637D01*
X96618637Y-91592759D01*
X96775680Y-91357727D01*
X96883853Y-91096574D01*
X96939000Y-90819335D01*
X96939000Y-90536665D01*
X96883853Y-90259426D01*
X96775680Y-89998273D01*
X96618637Y-89763241D01*
X96418759Y-89563363D01*
X96186241Y-89408000D01*
X96418759Y-89252637D01*
X96614883Y-89056513D01*
X101542721Y-93984352D01*
X101566578Y-94013422D01*
X101682608Y-94108645D01*
X101814985Y-94179402D01*
X101958622Y-94222974D01*
X102070574Y-94234000D01*
X102070576Y-94234000D01*
X102090881Y-94236000D01*
X101406803Y-94236000D01*
X100131803Y-92961002D01*
X100108001Y-92931999D01*
X99992276Y-92837026D01*
X99860247Y-92766454D01*
X99716986Y-92722997D01*
X99605333Y-92712000D01*
X99605322Y-92712000D01*
X99568000Y-92708324D01*
X99530678Y-92712000D01*
X98529572Y-92712000D01*
X98529572Y-92672000D01*
X98517312Y-92547518D01*
X98481002Y-92427820D01*
X98422037Y-92317506D01*
X98342685Y-92220815D01*
X98245994Y-92141463D01*
X98135680Y-92082498D01*
X98015982Y-92046188D01*
X97891500Y-92033928D01*
X96291500Y-92033928D01*
X96167018Y-92046188D01*
X96047320Y-92082498D01*
X95937006Y-92141463D01*
X95840315Y-92220815D01*
X95760963Y-92317506D01*
X95701998Y-92427820D01*
X95665688Y-92547518D01*
X95653428Y-92672000D01*
X95653428Y-94272000D01*
X95665688Y-94396482D01*
X95701998Y-94516180D01*
X95715285Y-94541038D01*
X95712482Y-94540188D01*
X95588000Y-94527928D01*
X93388000Y-94527928D01*
X93263518Y-94540188D01*
X93143820Y-94576498D01*
X93033506Y-94635463D01*
X92936815Y-94714815D01*
X92857463Y-94811506D01*
X92798498Y-94921820D01*
X92762188Y-95041518D01*
X92749928Y-95166000D01*
X92749928Y-97366000D01*
X92762188Y-97490482D01*
X92798498Y-97610180D01*
X92857463Y-97720494D01*
X92936815Y-97817185D01*
X93014959Y-97881316D01*
X92877314Y-98138832D01*
X92778105Y-98465881D01*
X92744606Y-98806000D01*
X92778105Y-99146119D01*
X92877314Y-99473168D01*
X93038421Y-99774578D01*
X93255234Y-100038766D01*
X93519422Y-100255579D01*
X93820832Y-100416686D01*
X94147881Y-100515895D01*
X94402775Y-100541000D01*
X94573225Y-100541000D01*
X94828119Y-100515895D01*
X95155168Y-100416686D01*
X95456578Y-100255579D01*
X95720766Y-100038766D01*
X95937579Y-99774578D01*
X96098686Y-99473168D01*
X96197895Y-99146119D01*
X96231394Y-98806000D01*
X96197895Y-98465881D01*
X96098686Y-98138832D01*
X95961041Y-97881316D01*
X96039185Y-97817185D01*
X96118537Y-97720494D01*
X96177502Y-97610180D01*
X96213812Y-97490482D01*
X96226072Y-97366000D01*
X96226072Y-95166000D01*
X96213812Y-95041518D01*
X96177502Y-94921820D01*
X96164215Y-94896962D01*
X96167018Y-94897812D01*
X96291500Y-94910072D01*
X97891500Y-94910072D01*
X98015982Y-94897812D01*
X98135680Y-94861502D01*
X98156106Y-94850584D01*
X98040129Y-94966561D01*
X97860651Y-95235169D01*
X97737025Y-95533630D01*
X97674000Y-95850474D01*
X97674000Y-96173526D01*
X97737025Y-96490370D01*
X97860651Y-96788831D01*
X98040129Y-97057439D01*
X98268561Y-97285871D01*
X98537169Y-97465349D01*
X98835630Y-97588975D01*
X99152474Y-97652000D01*
X99475526Y-97652000D01*
X99686295Y-97610075D01*
X99563649Y-97732721D01*
X99534579Y-97756578D01*
X99510722Y-97785648D01*
X99510721Y-97785649D01*
X99439355Y-97872608D01*
X99368599Y-98004985D01*
X99325027Y-98148622D01*
X99310314Y-98298000D01*
X99314001Y-98335433D01*
X99314001Y-99992691D01*
X99159439Y-99838129D01*
X98890831Y-99658651D01*
X98592370Y-99535025D01*
X98275526Y-99472000D01*
X97952474Y-99472000D01*
X97635630Y-99535025D01*
X97337169Y-99658651D01*
X97068561Y-99838129D01*
X96840129Y-100066561D01*
X96660651Y-100335169D01*
X96537025Y-100633630D01*
X96474000Y-100950474D01*
X96474000Y-101273526D01*
X96537025Y-101590370D01*
X96660651Y-101888831D01*
X96840129Y-102157439D01*
X97068561Y-102385871D01*
X97337169Y-102565349D01*
X97635630Y-102688975D01*
X97952474Y-102752000D01*
X98275526Y-102752000D01*
X98592370Y-102688975D01*
X98890831Y-102565349D01*
X99159439Y-102385871D01*
X99314001Y-102231309D01*
X99314000Y-107380369D01*
X97601370Y-109093000D01*
X88544000Y-109093000D01*
X88544000Y-104918000D01*
X89293928Y-104918000D01*
X89293928Y-106918000D01*
X89306188Y-107042482D01*
X89342498Y-107162180D01*
X89401463Y-107272494D01*
X89480815Y-107369185D01*
X89577506Y-107448537D01*
X89687820Y-107507502D01*
X89807518Y-107543812D01*
X89932000Y-107556072D01*
X91932000Y-107556072D01*
X92056482Y-107543812D01*
X92176180Y-107507502D01*
X92286494Y-107448537D01*
X92383185Y-107369185D01*
X92462537Y-107272494D01*
X92521502Y-107162180D01*
X92554496Y-107053413D01*
X94976192Y-107053413D01*
X95071956Y-107317814D01*
X95361571Y-107458704D01*
X95673108Y-107540384D01*
X95994595Y-107559718D01*
X96313675Y-107515961D01*
X96618088Y-107410795D01*
X96792044Y-107317814D01*
X96887808Y-107053413D01*
X95932000Y-106097605D01*
X94976192Y-107053413D01*
X92554496Y-107053413D01*
X92557812Y-107042482D01*
X92570072Y-106918000D01*
X92570072Y-105980595D01*
X94290282Y-105980595D01*
X94334039Y-106299675D01*
X94439205Y-106604088D01*
X94532186Y-106778044D01*
X94796587Y-106873808D01*
X95752395Y-105918000D01*
X96111605Y-105918000D01*
X97067413Y-106873808D01*
X97331814Y-106778044D01*
X97472704Y-106488429D01*
X97554384Y-106176892D01*
X97573718Y-105855405D01*
X97529961Y-105536325D01*
X97424795Y-105231912D01*
X97331814Y-105057956D01*
X97067413Y-104962192D01*
X96111605Y-105918000D01*
X95752395Y-105918000D01*
X94796587Y-104962192D01*
X94532186Y-105057956D01*
X94391296Y-105347571D01*
X94309616Y-105659108D01*
X94290282Y-105980595D01*
X92570072Y-105980595D01*
X92570072Y-104918000D01*
X92557812Y-104793518D01*
X92554497Y-104782587D01*
X94976192Y-104782587D01*
X95932000Y-105738395D01*
X96887808Y-104782587D01*
X96792044Y-104518186D01*
X96502429Y-104377296D01*
X96190892Y-104295616D01*
X95869405Y-104276282D01*
X95550325Y-104320039D01*
X95245912Y-104425205D01*
X95071956Y-104518186D01*
X94976192Y-104782587D01*
X92554497Y-104782587D01*
X92521502Y-104673820D01*
X92462537Y-104563506D01*
X92383185Y-104466815D01*
X92286494Y-104387463D01*
X92176180Y-104328498D01*
X92056482Y-104292188D01*
X91932000Y-104279928D01*
X89932000Y-104279928D01*
X89807518Y-104292188D01*
X89687820Y-104328498D01*
X89577506Y-104387463D01*
X89480815Y-104466815D01*
X89401463Y-104563506D01*
X89342498Y-104673820D01*
X89306188Y-104793518D01*
X89293928Y-104918000D01*
X88544000Y-104918000D01*
X88544000Y-99670890D01*
X88728524Y-99670890D01*
X88773175Y-99818099D01*
X88898359Y-100080920D01*
X89072412Y-100314269D01*
X89288645Y-100509178D01*
X89538748Y-100658157D01*
X89813109Y-100755481D01*
X90043000Y-100634814D01*
X90043000Y-99441000D01*
X90297000Y-99441000D01*
X90297000Y-100634814D01*
X90526891Y-100755481D01*
X90801252Y-100658157D01*
X91051355Y-100509178D01*
X91267588Y-100314269D01*
X91441641Y-100080920D01*
X91566825Y-99818099D01*
X91611476Y-99670890D01*
X91490155Y-99441000D01*
X90297000Y-99441000D01*
X90043000Y-99441000D01*
X88849845Y-99441000D01*
X88728524Y-99670890D01*
X88544000Y-99670890D01*
X88544000Y-95924000D01*
X88681928Y-95924000D01*
X88681928Y-97624000D01*
X88694188Y-97748482D01*
X88730498Y-97868180D01*
X88789463Y-97978494D01*
X88868815Y-98075185D01*
X88965506Y-98154537D01*
X89075820Y-98213502D01*
X89156466Y-98237966D01*
X89072412Y-98313731D01*
X88898359Y-98547080D01*
X88773175Y-98809901D01*
X88728524Y-98957110D01*
X88849845Y-99187000D01*
X90043000Y-99187000D01*
X90043000Y-99167000D01*
X90297000Y-99167000D01*
X90297000Y-99187000D01*
X91490155Y-99187000D01*
X91611476Y-98957110D01*
X91566825Y-98809901D01*
X91441641Y-98547080D01*
X91267588Y-98313731D01*
X91183534Y-98237966D01*
X91264180Y-98213502D01*
X91374494Y-98154537D01*
X91471185Y-98075185D01*
X91550537Y-97978494D01*
X91609502Y-97868180D01*
X91645812Y-97748482D01*
X91658072Y-97624000D01*
X91658072Y-95924000D01*
X91645812Y-95799518D01*
X91609502Y-95679820D01*
X91550537Y-95569506D01*
X91471185Y-95472815D01*
X91374494Y-95393463D01*
X91264180Y-95334498D01*
X91144482Y-95298188D01*
X91020000Y-95285928D01*
X89320000Y-95285928D01*
X89195518Y-95298188D01*
X89075820Y-95334498D01*
X88965506Y-95393463D01*
X88868815Y-95472815D01*
X88789463Y-95569506D01*
X88730498Y-95679820D01*
X88694188Y-95799518D01*
X88681928Y-95924000D01*
X88544000Y-95924000D01*
X88544000Y-94193413D01*
X90230192Y-94193413D01*
X90325956Y-94457814D01*
X90615571Y-94598704D01*
X90927108Y-94680384D01*
X91248595Y-94699718D01*
X91567675Y-94655961D01*
X91872088Y-94550795D01*
X92046044Y-94457814D01*
X92141808Y-94193413D01*
X91186000Y-93237605D01*
X90230192Y-94193413D01*
X88544000Y-94193413D01*
X88544000Y-93120595D01*
X89544282Y-93120595D01*
X89588039Y-93439675D01*
X89693205Y-93744088D01*
X89786186Y-93918044D01*
X90050587Y-94013808D01*
X91006395Y-93058000D01*
X91365605Y-93058000D01*
X92321413Y-94013808D01*
X92585814Y-93918044D01*
X92726704Y-93628429D01*
X92808384Y-93316892D01*
X92827718Y-92995405D01*
X92783961Y-92676325D01*
X92678795Y-92371912D01*
X92585814Y-92197956D01*
X92321413Y-92102192D01*
X91365605Y-93058000D01*
X91006395Y-93058000D01*
X90050587Y-92102192D01*
X89786186Y-92197956D01*
X89645296Y-92487571D01*
X89563616Y-92799108D01*
X89544282Y-93120595D01*
X88544000Y-93120595D01*
X88544000Y-91922587D01*
X90230192Y-91922587D01*
X91186000Y-92878395D01*
X92141808Y-91922587D01*
X92046044Y-91658186D01*
X91756429Y-91517296D01*
X91444892Y-91435616D01*
X91123405Y-91416282D01*
X90804325Y-91460039D01*
X90499912Y-91565205D01*
X90325956Y-91658186D01*
X90230192Y-91922587D01*
X88544000Y-91922587D01*
X88544000Y-78130000D01*
X120244000Y-78130000D01*
X120244001Y-105791000D01*
M02*
