G04 #@! TF.GenerationSoftware,KiCad,Pcbnew,(5.1.0)-1*
G04 #@! TF.CreationDate,2021-10-08T02:38:57-05:00*
G04 #@! TF.ProjectId,nixie_legacy-power,6e697869-655f-46c6-9567-6163792d706f,rev?*
G04 #@! TF.SameCoordinates,Original*
G04 #@! TF.FileFunction,Legend,Bot*
G04 #@! TF.FilePolarity,Positive*
%FSLAX46Y46*%
G04 Gerber Fmt 4.6, Leading zero omitted, Abs format (unit mm)*
G04 Created by KiCad (PCBNEW (5.1.0)-1) date 2021-10-08 02:38:57*
%MOMM*%
%LPD*%
G04 APERTURE LIST*
%ADD10C,0.150000*%
%ADD11C,0.200000*%
%ADD12C,0.500000*%
G04 APERTURE END LIST*
D10*
X89654000Y-118522285D02*
X89701619Y-118617523D01*
X89701619Y-118760380D01*
X89654000Y-118903238D01*
X89558761Y-118998476D01*
X89463523Y-119046095D01*
X89273047Y-119093714D01*
X89130190Y-119093714D01*
X88939714Y-119046095D01*
X88844476Y-118998476D01*
X88749238Y-118903238D01*
X88701619Y-118760380D01*
X88701619Y-118665142D01*
X88749238Y-118522285D01*
X88796857Y-118474666D01*
X89130190Y-118474666D01*
X89130190Y-118665142D01*
X88701619Y-118046095D02*
X89368285Y-118046095D01*
X89701619Y-118046095D02*
X89654000Y-118093714D01*
X89606380Y-118046095D01*
X89654000Y-117998476D01*
X89701619Y-118046095D01*
X89606380Y-118046095D01*
X88701619Y-117427047D02*
X88749238Y-117522285D01*
X88844476Y-117569904D01*
X89701619Y-117569904D01*
X88701619Y-116617523D02*
X89701619Y-116617523D01*
X88749238Y-116617523D02*
X88701619Y-116712761D01*
X88701619Y-116903238D01*
X88749238Y-116998476D01*
X88796857Y-117046095D01*
X88892095Y-117093714D01*
X89177809Y-117093714D01*
X89273047Y-117046095D01*
X89320666Y-116998476D01*
X89368285Y-116903238D01*
X89368285Y-116712761D01*
X89320666Y-116617523D01*
X88749238Y-115760380D02*
X88701619Y-115855619D01*
X88701619Y-116046095D01*
X88749238Y-116141333D01*
X88844476Y-116188952D01*
X89225428Y-116188952D01*
X89320666Y-116141333D01*
X89368285Y-116046095D01*
X89368285Y-115855619D01*
X89320666Y-115760380D01*
X89225428Y-115712761D01*
X89130190Y-115712761D01*
X89034952Y-116188952D01*
X88701619Y-115284190D02*
X89368285Y-115284190D01*
X89177809Y-115284190D02*
X89273047Y-115236571D01*
X89320666Y-115188952D01*
X89368285Y-115093714D01*
X89368285Y-114998476D01*
X89606380Y-113950857D02*
X89654000Y-113903238D01*
X89701619Y-113808000D01*
X89701619Y-113569904D01*
X89654000Y-113474666D01*
X89606380Y-113427047D01*
X89511142Y-113379428D01*
X89415904Y-113379428D01*
X89273047Y-113427047D01*
X88701619Y-113998476D01*
X88701619Y-113379428D01*
X89701619Y-112760380D02*
X89701619Y-112665142D01*
X89654000Y-112569904D01*
X89606380Y-112522285D01*
X89511142Y-112474666D01*
X89320666Y-112427047D01*
X89082571Y-112427047D01*
X88892095Y-112474666D01*
X88796857Y-112522285D01*
X88749238Y-112569904D01*
X88701619Y-112665142D01*
X88701619Y-112760380D01*
X88749238Y-112855619D01*
X88796857Y-112903238D01*
X88892095Y-112950857D01*
X89082571Y-112998476D01*
X89320666Y-112998476D01*
X89511142Y-112950857D01*
X89606380Y-112903238D01*
X89654000Y-112855619D01*
X89701619Y-112760380D01*
X89606380Y-112046095D02*
X89654000Y-111998476D01*
X89701619Y-111903238D01*
X89701619Y-111665142D01*
X89654000Y-111569904D01*
X89606380Y-111522285D01*
X89511142Y-111474666D01*
X89415904Y-111474666D01*
X89273047Y-111522285D01*
X88701619Y-112093714D01*
X88701619Y-111474666D01*
X88701619Y-110522285D02*
X88701619Y-111093714D01*
X88701619Y-110808000D02*
X89701619Y-110808000D01*
X89558761Y-110903238D01*
X89463523Y-110998476D01*
X89415904Y-111093714D01*
D11*
X117293428Y-109398619D02*
X116995809Y-110498619D01*
X116757714Y-109712904D01*
X116519619Y-110498619D01*
X116222000Y-109398619D01*
X115805333Y-110184333D02*
X115210095Y-110184333D01*
X115924380Y-110498619D02*
X115507714Y-109398619D01*
X115091047Y-110498619D01*
X113960095Y-110498619D02*
X114376761Y-109974809D01*
X114674380Y-110498619D02*
X114674380Y-109398619D01*
X114198190Y-109398619D01*
X114079142Y-109451000D01*
X114019619Y-109503380D01*
X113960095Y-109608142D01*
X113960095Y-109765285D01*
X114019619Y-109870047D01*
X114079142Y-109922428D01*
X114198190Y-109974809D01*
X114674380Y-109974809D01*
X113424380Y-110498619D02*
X113424380Y-109398619D01*
X112710095Y-110498619D01*
X112710095Y-109398619D01*
X112114857Y-110498619D02*
X112114857Y-109398619D01*
X111519619Y-110498619D02*
X111519619Y-109398619D01*
X110805333Y-110498619D01*
X110805333Y-109398619D01*
X109555333Y-109451000D02*
X109674380Y-109398619D01*
X109852952Y-109398619D01*
X110031523Y-109451000D01*
X110150571Y-109555761D01*
X110210095Y-109660523D01*
X110269619Y-109870047D01*
X110269619Y-110027190D01*
X110210095Y-110236714D01*
X110150571Y-110341476D01*
X110031523Y-110446238D01*
X109852952Y-110498619D01*
X109733904Y-110498619D01*
X109555333Y-110446238D01*
X109495809Y-110393857D01*
X109495809Y-110027190D01*
X109733904Y-110027190D01*
X108960095Y-110393857D02*
X108900571Y-110446238D01*
X108960095Y-110498619D01*
X109019619Y-110446238D01*
X108960095Y-110393857D01*
X108960095Y-110498619D01*
X108960095Y-109817666D02*
X108900571Y-109870047D01*
X108960095Y-109922428D01*
X109019619Y-109870047D01*
X108960095Y-109817666D01*
X108960095Y-109922428D01*
X117174380Y-116048619D02*
X117174380Y-114948619D01*
X117174380Y-115472428D02*
X116460095Y-115472428D01*
X116460095Y-116048619D02*
X116460095Y-114948619D01*
X115864857Y-116048619D02*
X115864857Y-115315285D01*
X115864857Y-114948619D02*
X115924380Y-115001000D01*
X115864857Y-115053380D01*
X115805333Y-115001000D01*
X115864857Y-114948619D01*
X115864857Y-115053380D01*
X114733904Y-115315285D02*
X114733904Y-116205761D01*
X114793428Y-116310523D01*
X114852952Y-116362904D01*
X114972000Y-116415285D01*
X115150571Y-116415285D01*
X115269619Y-116362904D01*
X114733904Y-115996238D02*
X114852952Y-116048619D01*
X115091047Y-116048619D01*
X115210095Y-115996238D01*
X115269619Y-115943857D01*
X115329142Y-115839095D01*
X115329142Y-115524809D01*
X115269619Y-115420047D01*
X115210095Y-115367666D01*
X115091047Y-115315285D01*
X114852952Y-115315285D01*
X114733904Y-115367666D01*
X114138666Y-116048619D02*
X114138666Y-114948619D01*
X113602952Y-116048619D02*
X113602952Y-115472428D01*
X113662476Y-115367666D01*
X113781523Y-115315285D01*
X113960095Y-115315285D01*
X114079142Y-115367666D01*
X114138666Y-115420047D01*
X112233904Y-114948619D02*
X111817238Y-116048619D01*
X111400571Y-114948619D01*
X110805333Y-116048619D02*
X110924380Y-115996238D01*
X110983904Y-115943857D01*
X111043428Y-115839095D01*
X111043428Y-115524809D01*
X110983904Y-115420047D01*
X110924380Y-115367666D01*
X110805333Y-115315285D01*
X110626761Y-115315285D01*
X110507714Y-115367666D01*
X110448190Y-115420047D01*
X110388666Y-115524809D01*
X110388666Y-115839095D01*
X110448190Y-115943857D01*
X110507714Y-115996238D01*
X110626761Y-116048619D01*
X110805333Y-116048619D01*
X109674380Y-116048619D02*
X109793428Y-115996238D01*
X109852952Y-115891476D01*
X109852952Y-114948619D01*
X109376761Y-115315285D02*
X108900571Y-115315285D01*
X109198190Y-114948619D02*
X109198190Y-115891476D01*
X109138666Y-115996238D01*
X109019619Y-116048619D01*
X108900571Y-116048619D01*
X107948190Y-116048619D02*
X107948190Y-115472428D01*
X108007714Y-115367666D01*
X108126761Y-115315285D01*
X108364857Y-115315285D01*
X108483904Y-115367666D01*
X107948190Y-115996238D02*
X108067238Y-116048619D01*
X108364857Y-116048619D01*
X108483904Y-115996238D01*
X108543428Y-115891476D01*
X108543428Y-115786714D01*
X108483904Y-115681952D01*
X108364857Y-115629571D01*
X108067238Y-115629571D01*
X107948190Y-115577190D01*
X106817238Y-115315285D02*
X106817238Y-116205761D01*
X106876761Y-116310523D01*
X106936285Y-116362904D01*
X107055333Y-116415285D01*
X107233904Y-116415285D01*
X107352952Y-116362904D01*
X106817238Y-115996238D02*
X106936285Y-116048619D01*
X107174380Y-116048619D01*
X107293428Y-115996238D01*
X107352952Y-115943857D01*
X107412476Y-115839095D01*
X107412476Y-115524809D01*
X107352952Y-115420047D01*
X107293428Y-115367666D01*
X107174380Y-115315285D01*
X106936285Y-115315285D01*
X106817238Y-115367666D01*
X105745809Y-115996238D02*
X105864857Y-116048619D01*
X106102952Y-116048619D01*
X106222000Y-115996238D01*
X106281523Y-115891476D01*
X106281523Y-115472428D01*
X106222000Y-115367666D01*
X106102952Y-115315285D01*
X105864857Y-115315285D01*
X105745809Y-115367666D01*
X105686285Y-115472428D01*
X105686285Y-115577190D01*
X106281523Y-115681952D01*
D12*
X108966000Y-109220000D02*
X88138000Y-109220000D01*
X112776000Y-105410000D02*
X108966000Y-109220000D01*
X120650000Y-105410000D02*
X112776000Y-105410000D01*
M02*
