G04 #@! TF.GenerationSoftware,KiCad,Pcbnew,(5.1.0)-1*
G04 #@! TF.CreationDate,2021-07-24T01:49:12-05:00*
G04 #@! TF.ProjectId,nixie_legacy,6e697869-655f-46c6-9567-6163792e6b69,rev?*
G04 #@! TF.SameCoordinates,Original*
G04 #@! TF.FileFunction,Copper,L2,Bot*
G04 #@! TF.FilePolarity,Positive*
%FSLAX46Y46*%
G04 Gerber Fmt 4.6, Leading zero omitted, Abs format (unit mm)*
G04 Created by KiCad (PCBNEW (5.1.0)-1) date 2021-07-24 01:49:12*
%MOMM*%
%LPD*%
G04 APERTURE LIST*
%ADD10O,2.200000X2.200000*%
%ADD11R,2.200000X2.200000*%
%ADD12O,1.600000X1.600000*%
%ADD13R,1.600000X1.600000*%
%ADD14R,1.500000X1.500000*%
%ADD15C,1.500000*%
%ADD16C,1.600000*%
%ADD17C,1.440000*%
%ADD18R,1.905000X2.000000*%
%ADD19O,1.905000X2.000000*%
%ADD20C,2.600000*%
%ADD21O,1.700000X1.700000*%
%ADD22R,1.700000X1.700000*%
%ADD23C,2.010000*%
%ADD24C,2.000000*%
%ADD25R,2.000000X2.000000*%
%ADD26C,0.254000*%
%ADD27C,0.635000*%
G04 APERTURE END LIST*
D10*
X99060000Y-115570000D03*
D11*
X106680000Y-115570000D03*
D12*
X110744000Y-96774000D03*
D13*
X118364000Y-96774000D03*
D14*
X107442000Y-88138000D03*
D15*
X107442000Y-83058000D03*
X107442000Y-85598000D03*
D12*
X118364000Y-116586000D03*
D16*
X118364000Y-108966000D03*
X103124000Y-83058000D03*
X103124000Y-85598000D03*
X103124000Y-88138000D03*
X103124000Y-90678000D03*
X95504000Y-90678000D03*
X95504000Y-88138000D03*
X95504000Y-85598000D03*
D13*
X95504000Y-83058000D03*
D17*
X115062000Y-89154000D03*
X117602000Y-86614000D03*
X115062000Y-84074000D03*
D12*
X110744000Y-79756000D03*
D16*
X118364000Y-79756000D03*
D12*
X113030000Y-107696000D03*
D16*
X113030000Y-100076000D03*
D12*
X106680000Y-112522000D03*
D16*
X99060000Y-112522000D03*
D12*
X118364000Y-93472000D03*
D16*
X110744000Y-93472000D03*
D12*
X107950000Y-79756000D03*
D16*
X100330000Y-79756000D03*
D12*
X98044000Y-79756000D03*
D16*
X90424000Y-79756000D03*
D12*
X103124000Y-93980000D03*
D16*
X95504000Y-93980000D03*
D18*
X96774000Y-104648000D03*
D19*
X94234000Y-104648000D03*
X91694000Y-104648000D03*
D14*
X107442000Y-96012000D03*
D15*
X107442000Y-90812000D03*
X107442000Y-93412000D03*
D20*
X95678000Y-113030000D03*
X90678000Y-113030000D03*
D21*
X118364000Y-105918000D03*
X118364000Y-103378000D03*
D22*
X118364000Y-100838000D03*
D21*
X90678000Y-100076000D03*
D22*
X90678000Y-97536000D03*
D23*
X99080000Y-98736000D03*
X93980000Y-97536000D03*
D16*
X112522000Y-112562000D03*
D13*
X112522000Y-115062000D03*
D16*
X100624000Y-109474000D03*
X103124000Y-109474000D03*
D24*
X91186000Y-93058000D03*
X91186000Y-83058000D03*
X108204000Y-102616000D03*
D25*
X103204000Y-102616000D03*
D26*
X90424000Y-80887370D02*
X91070630Y-81534000D01*
X90424000Y-79756000D02*
X90424000Y-80887370D01*
X91186000Y-81643787D02*
X91186000Y-83058000D01*
X91076213Y-81534000D02*
X91186000Y-81643787D01*
X91070630Y-81534000D02*
X91076213Y-81534000D01*
X93726000Y-85598000D02*
X95504000Y-85598000D01*
X91186000Y-83058000D02*
X93726000Y-85598000D01*
X98044000Y-88138000D02*
X103124000Y-88138000D01*
X95504000Y-85598000D02*
X98044000Y-88138000D01*
X103124000Y-109474000D02*
X105156000Y-109474000D01*
X106680000Y-110998000D02*
X106680000Y-112522000D01*
X105156000Y-109474000D02*
X106680000Y-110998000D01*
X112014000Y-115570000D02*
X112522000Y-115062000D01*
X106680000Y-115570000D02*
X112014000Y-115570000D01*
X118364000Y-116586000D02*
X118364000Y-113030000D01*
X118364000Y-113030000D02*
X113030000Y-107696000D01*
X117232630Y-116586000D02*
X118364000Y-116586000D01*
X112992000Y-116586000D02*
X117232630Y-116586000D01*
X112522000Y-116116000D02*
X112992000Y-116586000D01*
X112522000Y-115062000D02*
X112522000Y-116116000D01*
X110744000Y-96774000D02*
X110744000Y-93472000D01*
X107502000Y-93472000D02*
X107442000Y-93412000D01*
X110744000Y-93472000D02*
X107502000Y-93472000D01*
X96303999Y-88937999D02*
X95504000Y-88138000D01*
X102616000Y-95250000D02*
X96303999Y-88937999D01*
X107442000Y-93412000D02*
X105604000Y-95250000D01*
X105604000Y-95250000D02*
X102616000Y-95250000D01*
X94234000Y-111586000D02*
X95678000Y-113030000D01*
X94234000Y-104648000D02*
X94234000Y-111586000D01*
X99060000Y-112522000D02*
X99060000Y-115570000D01*
X95678000Y-113030000D02*
X97028000Y-114380000D01*
X97870000Y-114380000D02*
X99060000Y-115570000D01*
X97028000Y-114380000D02*
X97870000Y-114380000D01*
D27*
X90678000Y-97536000D02*
X93980000Y-97536000D01*
D26*
X118364000Y-108966000D02*
X118364000Y-105918000D01*
X103124000Y-93980000D02*
X103124000Y-90678000D01*
X105664000Y-88138000D02*
X107442000Y-88138000D01*
X103124000Y-90678000D02*
X105664000Y-88138000D01*
X113538000Y-86614000D02*
X117602000Y-86614000D01*
X107442000Y-85598000D02*
X112522000Y-85598000D01*
X112522000Y-85598000D02*
X113538000Y-86614000D01*
X98044000Y-79756000D02*
X100330000Y-79756000D01*
X100330000Y-82804000D02*
X100330000Y-79756000D01*
X103124000Y-85598000D02*
X100330000Y-82804000D01*
X113030000Y-91186000D02*
X115062000Y-89154000D01*
X113030000Y-100076000D02*
X113030000Y-91186000D01*
X115062000Y-83055767D02*
X115062000Y-84074000D01*
X115062000Y-81926630D02*
X115062000Y-83055767D01*
X117232630Y-79756000D02*
X115062000Y-81926630D01*
X118364000Y-79756000D02*
X117232630Y-79756000D01*
X107442000Y-97016000D02*
X107442000Y-96012000D01*
X118364000Y-96774000D02*
X118364000Y-97828000D01*
X96774000Y-104600500D02*
X96774000Y-104648000D01*
X105362500Y-96012000D02*
X96774000Y-104600500D01*
X107442000Y-96012000D02*
X105362500Y-96012000D01*
X112026000Y-101600000D02*
X107442000Y-97016000D01*
X118364000Y-97828000D02*
X114592000Y-101600000D01*
X114592000Y-101600000D02*
X112026000Y-101600000D01*
G36*
X120244001Y-117450000D02*
G01*
X119511312Y-117450000D01*
X119562932Y-117387101D01*
X119696182Y-117137808D01*
X119778236Y-116867309D01*
X119805943Y-116586000D01*
X119778236Y-116304691D01*
X119696182Y-116034192D01*
X119562932Y-115784899D01*
X119383608Y-115566392D01*
X119165101Y-115387068D01*
X119126000Y-115366168D01*
X119126000Y-113067422D01*
X119129686Y-113029999D01*
X119121550Y-112947392D01*
X119114974Y-112880622D01*
X119071402Y-112736985D01*
X119000645Y-112604608D01*
X118905422Y-112488578D01*
X118876352Y-112464721D01*
X114431366Y-108019736D01*
X114444236Y-107977309D01*
X114471943Y-107696000D01*
X114444236Y-107414691D01*
X114362182Y-107144192D01*
X114228932Y-106894899D01*
X114049608Y-106676392D01*
X113831101Y-106497068D01*
X113581808Y-106363818D01*
X113311309Y-106281764D01*
X113100492Y-106261000D01*
X112959508Y-106261000D01*
X112748691Y-106281764D01*
X112478192Y-106363818D01*
X112228899Y-106497068D01*
X112010392Y-106676392D01*
X111831068Y-106894899D01*
X111697818Y-107144192D01*
X111615764Y-107414691D01*
X111588057Y-107696000D01*
X111615764Y-107977309D01*
X111697818Y-108247808D01*
X111831068Y-108497101D01*
X112010392Y-108715608D01*
X112228899Y-108894932D01*
X112478192Y-109028182D01*
X112748691Y-109110236D01*
X112959508Y-109131000D01*
X113100492Y-109131000D01*
X113311309Y-109110236D01*
X113353736Y-109097366D01*
X117602001Y-113345632D01*
X117602000Y-115366168D01*
X117562899Y-115387068D01*
X117344392Y-115566392D01*
X117165068Y-115784899D01*
X117144168Y-115824000D01*
X113960072Y-115824000D01*
X113960072Y-114262000D01*
X113947812Y-114137518D01*
X113911502Y-114017820D01*
X113852537Y-113907506D01*
X113773185Y-113810815D01*
X113676494Y-113731463D01*
X113566180Y-113672498D01*
X113446482Y-113636188D01*
X113322000Y-113623928D01*
X113314785Y-113623928D01*
X113335097Y-113554702D01*
X112522000Y-112741605D01*
X111708903Y-113554702D01*
X111729215Y-113623928D01*
X111722000Y-113623928D01*
X111597518Y-113636188D01*
X111477820Y-113672498D01*
X111367506Y-113731463D01*
X111270815Y-113810815D01*
X111191463Y-113907506D01*
X111132498Y-114017820D01*
X111096188Y-114137518D01*
X111083928Y-114262000D01*
X111083928Y-114808000D01*
X108418072Y-114808000D01*
X108418072Y-114470000D01*
X108405812Y-114345518D01*
X108369502Y-114225820D01*
X108310537Y-114115506D01*
X108231185Y-114018815D01*
X108134494Y-113939463D01*
X108024180Y-113880498D01*
X107904482Y-113844188D01*
X107780000Y-113831928D01*
X107273442Y-113831928D01*
X107481101Y-113720932D01*
X107699608Y-113541608D01*
X107878932Y-113323101D01*
X108012182Y-113073808D01*
X108094236Y-112803309D01*
X108111058Y-112632512D01*
X111081783Y-112632512D01*
X111123213Y-112912130D01*
X111218397Y-113178292D01*
X111285329Y-113303514D01*
X111529298Y-113375097D01*
X112342395Y-112562000D01*
X112701605Y-112562000D01*
X113514702Y-113375097D01*
X113758671Y-113303514D01*
X113879571Y-113048004D01*
X113948300Y-112773816D01*
X113962217Y-112491488D01*
X113920787Y-112211870D01*
X113825603Y-111945708D01*
X113758671Y-111820486D01*
X113514702Y-111748903D01*
X112701605Y-112562000D01*
X112342395Y-112562000D01*
X111529298Y-111748903D01*
X111285329Y-111820486D01*
X111164429Y-112075996D01*
X111095700Y-112350184D01*
X111081783Y-112632512D01*
X108111058Y-112632512D01*
X108121943Y-112522000D01*
X108094236Y-112240691D01*
X108012182Y-111970192D01*
X107878932Y-111720899D01*
X107754517Y-111569298D01*
X111708903Y-111569298D01*
X112522000Y-112382395D01*
X113335097Y-111569298D01*
X113263514Y-111325329D01*
X113008004Y-111204429D01*
X112733816Y-111135700D01*
X112451488Y-111121783D01*
X112171870Y-111163213D01*
X111905708Y-111258397D01*
X111780486Y-111325329D01*
X111708903Y-111569298D01*
X107754517Y-111569298D01*
X107699608Y-111502392D01*
X107481101Y-111323068D01*
X107442000Y-111302168D01*
X107442000Y-111035422D01*
X107445686Y-110997999D01*
X107437434Y-110914217D01*
X107430974Y-110848622D01*
X107387402Y-110704985D01*
X107316645Y-110572608D01*
X107221422Y-110456578D01*
X107192353Y-110432722D01*
X105721284Y-108961654D01*
X105697422Y-108932578D01*
X105581392Y-108837355D01*
X105449015Y-108766598D01*
X105305378Y-108723026D01*
X105193426Y-108712000D01*
X105193423Y-108712000D01*
X105156000Y-108708314D01*
X105118577Y-108712000D01*
X104340707Y-108712000D01*
X104238637Y-108559241D01*
X104038759Y-108359363D01*
X103803727Y-108202320D01*
X103542574Y-108094147D01*
X103265335Y-108039000D01*
X102982665Y-108039000D01*
X102705426Y-108094147D01*
X102444273Y-108202320D01*
X102209241Y-108359363D01*
X102009363Y-108559241D01*
X101875308Y-108759869D01*
X101860671Y-108732486D01*
X101616702Y-108660903D01*
X100803605Y-109474000D01*
X101616702Y-110287097D01*
X101860671Y-110215514D01*
X101874324Y-110186659D01*
X102009363Y-110388759D01*
X102209241Y-110588637D01*
X102444273Y-110745680D01*
X102705426Y-110853853D01*
X102982665Y-110909000D01*
X103265335Y-110909000D01*
X103542574Y-110853853D01*
X103803727Y-110745680D01*
X104038759Y-110588637D01*
X104238637Y-110388759D01*
X104340707Y-110236000D01*
X104840370Y-110236000D01*
X105910530Y-111306161D01*
X105878899Y-111323068D01*
X105660392Y-111502392D01*
X105481068Y-111720899D01*
X105347818Y-111970192D01*
X105265764Y-112240691D01*
X105238057Y-112522000D01*
X105265764Y-112803309D01*
X105347818Y-113073808D01*
X105481068Y-113323101D01*
X105660392Y-113541608D01*
X105878899Y-113720932D01*
X106086558Y-113831928D01*
X105580000Y-113831928D01*
X105455518Y-113844188D01*
X105335820Y-113880498D01*
X105225506Y-113939463D01*
X105128815Y-114018815D01*
X105049463Y-114115506D01*
X104990498Y-114225820D01*
X104954188Y-114345518D01*
X104941928Y-114470000D01*
X104941928Y-116670000D01*
X104954188Y-116794482D01*
X104990498Y-116914180D01*
X105049463Y-117024494D01*
X105128815Y-117121185D01*
X105225506Y-117200537D01*
X105335820Y-117259502D01*
X105455518Y-117295812D01*
X105580000Y-117308072D01*
X107780000Y-117308072D01*
X107904482Y-117295812D01*
X108024180Y-117259502D01*
X108134494Y-117200537D01*
X108231185Y-117121185D01*
X108310537Y-117024494D01*
X108369502Y-116914180D01*
X108405812Y-116794482D01*
X108418072Y-116670000D01*
X108418072Y-116332000D01*
X111293741Y-116332000D01*
X111367506Y-116392537D01*
X111477820Y-116451502D01*
X111597518Y-116487812D01*
X111722000Y-116500072D01*
X111863269Y-116500072D01*
X111885355Y-116541392D01*
X111952678Y-116623425D01*
X111980579Y-116657422D01*
X112009649Y-116681279D01*
X112426716Y-117098346D01*
X112450578Y-117127422D01*
X112566608Y-117222645D01*
X112698985Y-117293402D01*
X112842622Y-117336974D01*
X112954574Y-117348000D01*
X112954576Y-117348000D01*
X112991999Y-117351686D01*
X113029422Y-117348000D01*
X117144168Y-117348000D01*
X117165068Y-117387101D01*
X117216688Y-117450000D01*
X88544000Y-117450000D01*
X88544000Y-112839419D01*
X88743000Y-112839419D01*
X88743000Y-113220581D01*
X88817361Y-113594419D01*
X88963225Y-113946566D01*
X89174987Y-114263491D01*
X89444509Y-114533013D01*
X89761434Y-114744775D01*
X90113581Y-114890639D01*
X90487419Y-114965000D01*
X90868581Y-114965000D01*
X91242419Y-114890639D01*
X91594566Y-114744775D01*
X91911491Y-114533013D01*
X92181013Y-114263491D01*
X92392775Y-113946566D01*
X92538639Y-113594419D01*
X92613000Y-113220581D01*
X92613000Y-112839419D01*
X92538639Y-112465581D01*
X92392775Y-112113434D01*
X92181013Y-111796509D01*
X91911491Y-111526987D01*
X91594566Y-111315225D01*
X91242419Y-111169361D01*
X90868581Y-111095000D01*
X90487419Y-111095000D01*
X90113581Y-111169361D01*
X89761434Y-111315225D01*
X89444509Y-111526987D01*
X89174987Y-111796509D01*
X88963225Y-112113434D01*
X88817361Y-112465581D01*
X88743000Y-112839419D01*
X88544000Y-112839419D01*
X88544000Y-105021863D01*
X90141622Y-105021863D01*
X90235121Y-105318446D01*
X90384684Y-105591089D01*
X90584563Y-105829315D01*
X90827077Y-106023969D01*
X91102906Y-106167571D01*
X91321020Y-106238563D01*
X91567000Y-106118594D01*
X91567000Y-104775000D01*
X90268430Y-104775000D01*
X90141622Y-105021863D01*
X88544000Y-105021863D01*
X88544000Y-104274137D01*
X90141622Y-104274137D01*
X90268430Y-104521000D01*
X91567000Y-104521000D01*
X91567000Y-103177406D01*
X91321020Y-103057437D01*
X91102906Y-103128429D01*
X90827077Y-103272031D01*
X90584563Y-103466685D01*
X90384684Y-103704911D01*
X90235121Y-103977554D01*
X90141622Y-104274137D01*
X88544000Y-104274137D01*
X88544000Y-100432890D01*
X89236524Y-100432890D01*
X89281175Y-100580099D01*
X89406359Y-100842920D01*
X89580412Y-101076269D01*
X89796645Y-101271178D01*
X90046748Y-101420157D01*
X90321109Y-101517481D01*
X90551000Y-101396814D01*
X90551000Y-100203000D01*
X90805000Y-100203000D01*
X90805000Y-101396814D01*
X91034891Y-101517481D01*
X91309252Y-101420157D01*
X91559355Y-101271178D01*
X91775588Y-101076269D01*
X91949641Y-100842920D01*
X92074825Y-100580099D01*
X92119476Y-100432890D01*
X91998155Y-100203000D01*
X90805000Y-100203000D01*
X90551000Y-100203000D01*
X89357845Y-100203000D01*
X89236524Y-100432890D01*
X88544000Y-100432890D01*
X88544000Y-96686000D01*
X89189928Y-96686000D01*
X89189928Y-98386000D01*
X89202188Y-98510482D01*
X89238498Y-98630180D01*
X89297463Y-98740494D01*
X89376815Y-98837185D01*
X89473506Y-98916537D01*
X89583820Y-98975502D01*
X89664466Y-98999966D01*
X89580412Y-99075731D01*
X89406359Y-99309080D01*
X89281175Y-99571901D01*
X89236524Y-99719110D01*
X89357845Y-99949000D01*
X90551000Y-99949000D01*
X90551000Y-99929000D01*
X90805000Y-99929000D01*
X90805000Y-99949000D01*
X91998155Y-99949000D01*
X92119476Y-99719110D01*
X92074825Y-99571901D01*
X91949641Y-99309080D01*
X91775588Y-99075731D01*
X91691534Y-98999966D01*
X91772180Y-98975502D01*
X91882494Y-98916537D01*
X91979185Y-98837185D01*
X92058537Y-98740494D01*
X92117502Y-98630180D01*
X92153812Y-98510482D01*
X92155977Y-98488500D01*
X92644029Y-98488500D01*
X92706129Y-98581439D01*
X92934561Y-98809871D01*
X93203169Y-98989349D01*
X93501630Y-99112975D01*
X93818474Y-99176000D01*
X94141526Y-99176000D01*
X94458370Y-99112975D01*
X94756831Y-98989349D01*
X95025439Y-98809871D01*
X95253871Y-98581439D01*
X95258524Y-98574474D01*
X97440000Y-98574474D01*
X97440000Y-98897526D01*
X97503025Y-99214370D01*
X97626651Y-99512831D01*
X97806129Y-99781439D01*
X98034561Y-100009871D01*
X98303169Y-100189349D01*
X98601630Y-100312975D01*
X98918474Y-100376000D01*
X99241526Y-100376000D01*
X99558370Y-100312975D01*
X99856831Y-100189349D01*
X100125439Y-100009871D01*
X100353871Y-99781439D01*
X100533349Y-99512831D01*
X100656975Y-99214370D01*
X100720000Y-98897526D01*
X100720000Y-98574474D01*
X100656975Y-98257630D01*
X100533349Y-97959169D01*
X100353871Y-97690561D01*
X100125439Y-97462129D01*
X99856831Y-97282651D01*
X99558370Y-97159025D01*
X99241526Y-97096000D01*
X98918474Y-97096000D01*
X98601630Y-97159025D01*
X98303169Y-97282651D01*
X98034561Y-97462129D01*
X97806129Y-97690561D01*
X97626651Y-97959169D01*
X97503025Y-98257630D01*
X97440000Y-98574474D01*
X95258524Y-98574474D01*
X95433349Y-98312831D01*
X95556975Y-98014370D01*
X95620000Y-97697526D01*
X95620000Y-97374474D01*
X95556975Y-97057630D01*
X95433349Y-96759169D01*
X95253871Y-96490561D01*
X95025439Y-96262129D01*
X94756831Y-96082651D01*
X94458370Y-95959025D01*
X94141526Y-95896000D01*
X93818474Y-95896000D01*
X93501630Y-95959025D01*
X93203169Y-96082651D01*
X92934561Y-96262129D01*
X92706129Y-96490561D01*
X92644029Y-96583500D01*
X92155977Y-96583500D01*
X92153812Y-96561518D01*
X92117502Y-96441820D01*
X92058537Y-96331506D01*
X91979185Y-96234815D01*
X91882494Y-96155463D01*
X91772180Y-96096498D01*
X91652482Y-96060188D01*
X91528000Y-96047928D01*
X89828000Y-96047928D01*
X89703518Y-96060188D01*
X89583820Y-96096498D01*
X89473506Y-96155463D01*
X89376815Y-96234815D01*
X89297463Y-96331506D01*
X89238498Y-96441820D01*
X89202188Y-96561518D01*
X89189928Y-96686000D01*
X88544000Y-96686000D01*
X88544000Y-94193413D01*
X90230192Y-94193413D01*
X90325956Y-94457814D01*
X90615571Y-94598704D01*
X90927108Y-94680384D01*
X91248595Y-94699718D01*
X91567675Y-94655961D01*
X91872088Y-94550795D01*
X92046044Y-94457814D01*
X92141808Y-94193413D01*
X91186000Y-93237605D01*
X90230192Y-94193413D01*
X88544000Y-94193413D01*
X88544000Y-93120595D01*
X89544282Y-93120595D01*
X89588039Y-93439675D01*
X89693205Y-93744088D01*
X89786186Y-93918044D01*
X90050587Y-94013808D01*
X91006395Y-93058000D01*
X91365605Y-93058000D01*
X92321413Y-94013808D01*
X92585814Y-93918044D01*
X92624429Y-93838665D01*
X94069000Y-93838665D01*
X94069000Y-94121335D01*
X94124147Y-94398574D01*
X94232320Y-94659727D01*
X94389363Y-94894759D01*
X94589241Y-95094637D01*
X94824273Y-95251680D01*
X95085426Y-95359853D01*
X95362665Y-95415000D01*
X95645335Y-95415000D01*
X95922574Y-95359853D01*
X96183727Y-95251680D01*
X96418759Y-95094637D01*
X96618637Y-94894759D01*
X96775680Y-94659727D01*
X96883853Y-94398574D01*
X96939000Y-94121335D01*
X96939000Y-93838665D01*
X96883853Y-93561426D01*
X96775680Y-93300273D01*
X96618637Y-93065241D01*
X96418759Y-92865363D01*
X96183727Y-92708320D01*
X95922574Y-92600147D01*
X95645335Y-92545000D01*
X95362665Y-92545000D01*
X95085426Y-92600147D01*
X94824273Y-92708320D01*
X94589241Y-92865363D01*
X94389363Y-93065241D01*
X94232320Y-93300273D01*
X94124147Y-93561426D01*
X94069000Y-93838665D01*
X92624429Y-93838665D01*
X92726704Y-93628429D01*
X92808384Y-93316892D01*
X92827718Y-92995405D01*
X92783961Y-92676325D01*
X92678795Y-92371912D01*
X92585814Y-92197956D01*
X92321413Y-92102192D01*
X91365605Y-93058000D01*
X91006395Y-93058000D01*
X90050587Y-92102192D01*
X89786186Y-92197956D01*
X89645296Y-92487571D01*
X89563616Y-92799108D01*
X89544282Y-93120595D01*
X88544000Y-93120595D01*
X88544000Y-91922587D01*
X90230192Y-91922587D01*
X91186000Y-92878395D01*
X92141808Y-91922587D01*
X92046044Y-91658186D01*
X91756429Y-91517296D01*
X91444892Y-91435616D01*
X91123405Y-91416282D01*
X90804325Y-91460039D01*
X90499912Y-91565205D01*
X90325956Y-91658186D01*
X90230192Y-91922587D01*
X88544000Y-91922587D01*
X88544000Y-79614665D01*
X88989000Y-79614665D01*
X88989000Y-79897335D01*
X89044147Y-80174574D01*
X89152320Y-80435727D01*
X89309363Y-80670759D01*
X89509241Y-80870637D01*
X89667052Y-80976083D01*
X89673027Y-81036748D01*
X89716599Y-81180385D01*
X89787355Y-81312762D01*
X89858721Y-81399721D01*
X89882579Y-81428792D01*
X89911649Y-81452649D01*
X90205651Y-81746651D01*
X90143748Y-81788013D01*
X89916013Y-82015748D01*
X89737082Y-82283537D01*
X89613832Y-82581088D01*
X89551000Y-82896967D01*
X89551000Y-83219033D01*
X89613832Y-83534912D01*
X89737082Y-83832463D01*
X89916013Y-84100252D01*
X90143748Y-84327987D01*
X90411537Y-84506918D01*
X90709088Y-84630168D01*
X91024967Y-84693000D01*
X91347033Y-84693000D01*
X91662912Y-84630168D01*
X91675375Y-84625006D01*
X93160720Y-86110351D01*
X93184578Y-86139422D01*
X93300608Y-86234645D01*
X93432985Y-86305402D01*
X93576622Y-86348974D01*
X93688574Y-86360000D01*
X93688576Y-86360000D01*
X93725999Y-86363686D01*
X93763422Y-86360000D01*
X94287293Y-86360000D01*
X94389363Y-86512759D01*
X94589241Y-86712637D01*
X94821759Y-86868000D01*
X94589241Y-87023363D01*
X94389363Y-87223241D01*
X94232320Y-87458273D01*
X94124147Y-87719426D01*
X94069000Y-87996665D01*
X94069000Y-88279335D01*
X94124147Y-88556574D01*
X94232320Y-88817727D01*
X94389363Y-89052759D01*
X94589241Y-89252637D01*
X94821759Y-89408000D01*
X94589241Y-89563363D01*
X94389363Y-89763241D01*
X94232320Y-89998273D01*
X94124147Y-90259426D01*
X94069000Y-90536665D01*
X94069000Y-90819335D01*
X94124147Y-91096574D01*
X94232320Y-91357727D01*
X94389363Y-91592759D01*
X94589241Y-91792637D01*
X94824273Y-91949680D01*
X95085426Y-92057853D01*
X95362665Y-92113000D01*
X95645335Y-92113000D01*
X95922574Y-92057853D01*
X96183727Y-91949680D01*
X96418759Y-91792637D01*
X96618637Y-91592759D01*
X96775680Y-91357727D01*
X96883853Y-91096574D01*
X96939000Y-90819335D01*
X96939000Y-90650630D01*
X102050721Y-95762352D01*
X102074578Y-95791422D01*
X102190608Y-95886645D01*
X102322985Y-95957402D01*
X102466622Y-96000974D01*
X102578574Y-96012000D01*
X102578576Y-96012000D01*
X102615999Y-96015686D01*
X102653422Y-96012000D01*
X104284869Y-96012000D01*
X97286942Y-103009928D01*
X95821500Y-103009928D01*
X95697018Y-103022188D01*
X95577320Y-103058498D01*
X95467006Y-103117463D01*
X95370315Y-103196815D01*
X95290963Y-103293506D01*
X95246095Y-103377446D01*
X95120235Y-103274155D01*
X94844449Y-103126745D01*
X94545204Y-103035970D01*
X94234000Y-103005319D01*
X93922797Y-103035970D01*
X93623552Y-103126745D01*
X93347766Y-103274155D01*
X93106037Y-103472537D01*
X92958837Y-103651899D01*
X92803437Y-103466685D01*
X92560923Y-103272031D01*
X92285094Y-103128429D01*
X92066980Y-103057437D01*
X91821000Y-103177406D01*
X91821000Y-104521000D01*
X91841000Y-104521000D01*
X91841000Y-104775000D01*
X91821000Y-104775000D01*
X91821000Y-106118594D01*
X92066980Y-106238563D01*
X92285094Y-106167571D01*
X92560923Y-106023969D01*
X92803437Y-105829315D01*
X92958838Y-105644100D01*
X93106037Y-105823463D01*
X93347765Y-106021845D01*
X93472000Y-106088250D01*
X93472001Y-111548567D01*
X93468314Y-111586000D01*
X93483027Y-111735378D01*
X93526599Y-111879015D01*
X93597355Y-112011392D01*
X93668721Y-112098351D01*
X93692579Y-112127422D01*
X93721649Y-112151279D01*
X93881384Y-112311015D01*
X93817361Y-112465581D01*
X93743000Y-112839419D01*
X93743000Y-113220581D01*
X93817361Y-113594419D01*
X93963225Y-113946566D01*
X94174987Y-114263491D01*
X94444509Y-114533013D01*
X94761434Y-114744775D01*
X95113581Y-114890639D01*
X95487419Y-114965000D01*
X95868581Y-114965000D01*
X96242419Y-114890639D01*
X96396985Y-114826616D01*
X96462720Y-114892351D01*
X96486578Y-114921422D01*
X96602608Y-115016645D01*
X96734985Y-115087402D01*
X96878622Y-115130974D01*
X96990574Y-115142000D01*
X96990576Y-115142000D01*
X97027999Y-115145686D01*
X97065422Y-115142000D01*
X97376763Y-115142000D01*
X97350105Y-115229881D01*
X97316606Y-115570000D01*
X97350105Y-115910119D01*
X97449314Y-116237168D01*
X97610421Y-116538578D01*
X97827234Y-116802766D01*
X98091422Y-117019579D01*
X98392832Y-117180686D01*
X98719881Y-117279895D01*
X98974775Y-117305000D01*
X99145225Y-117305000D01*
X99400119Y-117279895D01*
X99727168Y-117180686D01*
X100028578Y-117019579D01*
X100292766Y-116802766D01*
X100509579Y-116538578D01*
X100670686Y-116237168D01*
X100769895Y-115910119D01*
X100803394Y-115570000D01*
X100769895Y-115229881D01*
X100670686Y-114902832D01*
X100509579Y-114601422D01*
X100292766Y-114337234D01*
X100028578Y-114120421D01*
X99822000Y-114010003D01*
X99822000Y-113738707D01*
X99974759Y-113636637D01*
X100174637Y-113436759D01*
X100331680Y-113201727D01*
X100439853Y-112940574D01*
X100495000Y-112663335D01*
X100495000Y-112380665D01*
X100439853Y-112103426D01*
X100331680Y-111842273D01*
X100174637Y-111607241D01*
X99974759Y-111407363D01*
X99739727Y-111250320D01*
X99478574Y-111142147D01*
X99201335Y-111087000D01*
X98918665Y-111087000D01*
X98641426Y-111142147D01*
X98380273Y-111250320D01*
X98145241Y-111407363D01*
X97945363Y-111607241D01*
X97788320Y-111842273D01*
X97680147Y-112103426D01*
X97625000Y-112380665D01*
X97625000Y-112663335D01*
X97680147Y-112940574D01*
X97788320Y-113201727D01*
X97945363Y-113436759D01*
X98145241Y-113636637D01*
X98298000Y-113738707D01*
X98298000Y-113745496D01*
X98295392Y-113743355D01*
X98163015Y-113672598D01*
X98019378Y-113629026D01*
X97907426Y-113618000D01*
X97907423Y-113618000D01*
X97870000Y-113614314D01*
X97832577Y-113618000D01*
X97528871Y-113618000D01*
X97538639Y-113594419D01*
X97613000Y-113220581D01*
X97613000Y-112839419D01*
X97538639Y-112465581D01*
X97392775Y-112113434D01*
X97181013Y-111796509D01*
X96911491Y-111526987D01*
X96594566Y-111315225D01*
X96242419Y-111169361D01*
X95868581Y-111095000D01*
X95487419Y-111095000D01*
X95113581Y-111169361D01*
X94996000Y-111218065D01*
X94996000Y-110466702D01*
X99810903Y-110466702D01*
X99882486Y-110710671D01*
X100137996Y-110831571D01*
X100412184Y-110900300D01*
X100694512Y-110914217D01*
X100974130Y-110872787D01*
X101240292Y-110777603D01*
X101365514Y-110710671D01*
X101437097Y-110466702D01*
X100624000Y-109653605D01*
X99810903Y-110466702D01*
X94996000Y-110466702D01*
X94996000Y-109544512D01*
X99183783Y-109544512D01*
X99225213Y-109824130D01*
X99320397Y-110090292D01*
X99387329Y-110215514D01*
X99631298Y-110287097D01*
X100444395Y-109474000D01*
X99631298Y-108660903D01*
X99387329Y-108732486D01*
X99266429Y-108987996D01*
X99197700Y-109262184D01*
X99183783Y-109544512D01*
X94996000Y-109544512D01*
X94996000Y-108481298D01*
X99810903Y-108481298D01*
X100624000Y-109294395D01*
X101437097Y-108481298D01*
X101365514Y-108237329D01*
X101110004Y-108116429D01*
X100835816Y-108047700D01*
X100553488Y-108033783D01*
X100273870Y-108075213D01*
X100007708Y-108170397D01*
X99882486Y-108237329D01*
X99810903Y-108481298D01*
X94996000Y-108481298D01*
X94996000Y-106088249D01*
X95120234Y-106021845D01*
X95246095Y-105918553D01*
X95290963Y-106002494D01*
X95370315Y-106099185D01*
X95467006Y-106178537D01*
X95577320Y-106237502D01*
X95697018Y-106273812D01*
X95821500Y-106286072D01*
X97726500Y-106286072D01*
X97850982Y-106273812D01*
X97970680Y-106237502D01*
X98080994Y-106178537D01*
X98177685Y-106099185D01*
X98257037Y-106002494D01*
X98302200Y-105918000D01*
X116871815Y-105918000D01*
X116900487Y-106209111D01*
X116985401Y-106489034D01*
X117123294Y-106747014D01*
X117308866Y-106973134D01*
X117534986Y-107158706D01*
X117602001Y-107194526D01*
X117602000Y-107749293D01*
X117449241Y-107851363D01*
X117249363Y-108051241D01*
X117092320Y-108286273D01*
X116984147Y-108547426D01*
X116929000Y-108824665D01*
X116929000Y-109107335D01*
X116984147Y-109384574D01*
X117092320Y-109645727D01*
X117249363Y-109880759D01*
X117449241Y-110080637D01*
X117684273Y-110237680D01*
X117945426Y-110345853D01*
X118222665Y-110401000D01*
X118505335Y-110401000D01*
X118782574Y-110345853D01*
X119043727Y-110237680D01*
X119278759Y-110080637D01*
X119478637Y-109880759D01*
X119635680Y-109645727D01*
X119743853Y-109384574D01*
X119799000Y-109107335D01*
X119799000Y-108824665D01*
X119743853Y-108547426D01*
X119635680Y-108286273D01*
X119478637Y-108051241D01*
X119278759Y-107851363D01*
X119126000Y-107749293D01*
X119126000Y-107194526D01*
X119193014Y-107158706D01*
X119419134Y-106973134D01*
X119604706Y-106747014D01*
X119742599Y-106489034D01*
X119827513Y-106209111D01*
X119856185Y-105918000D01*
X119827513Y-105626889D01*
X119742599Y-105346966D01*
X119604706Y-105088986D01*
X119419134Y-104862866D01*
X119193014Y-104677294D01*
X119128477Y-104642799D01*
X119245355Y-104573178D01*
X119461588Y-104378269D01*
X119635641Y-104144920D01*
X119760825Y-103882099D01*
X119805476Y-103734890D01*
X119684155Y-103505000D01*
X118491000Y-103505000D01*
X118491000Y-103525000D01*
X118237000Y-103525000D01*
X118237000Y-103505000D01*
X117043845Y-103505000D01*
X116922524Y-103734890D01*
X116967175Y-103882099D01*
X117092359Y-104144920D01*
X117266412Y-104378269D01*
X117482645Y-104573178D01*
X117599523Y-104642799D01*
X117534986Y-104677294D01*
X117308866Y-104862866D01*
X117123294Y-105088986D01*
X116985401Y-105346966D01*
X116900487Y-105626889D01*
X116871815Y-105918000D01*
X98302200Y-105918000D01*
X98316002Y-105892180D01*
X98352312Y-105772482D01*
X98364572Y-105648000D01*
X98364572Y-104087558D01*
X100836130Y-101616000D01*
X101565928Y-101616000D01*
X101565928Y-103616000D01*
X101578188Y-103740482D01*
X101614498Y-103860180D01*
X101673463Y-103970494D01*
X101752815Y-104067185D01*
X101849506Y-104146537D01*
X101959820Y-104205502D01*
X102079518Y-104241812D01*
X102204000Y-104254072D01*
X104204000Y-104254072D01*
X104328482Y-104241812D01*
X104448180Y-104205502D01*
X104558494Y-104146537D01*
X104655185Y-104067185D01*
X104734537Y-103970494D01*
X104793502Y-103860180D01*
X104826496Y-103751413D01*
X107248192Y-103751413D01*
X107343956Y-104015814D01*
X107633571Y-104156704D01*
X107945108Y-104238384D01*
X108266595Y-104257718D01*
X108585675Y-104213961D01*
X108890088Y-104108795D01*
X109064044Y-104015814D01*
X109159808Y-103751413D01*
X108204000Y-102795605D01*
X107248192Y-103751413D01*
X104826496Y-103751413D01*
X104829812Y-103740482D01*
X104842072Y-103616000D01*
X104842072Y-102678595D01*
X106562282Y-102678595D01*
X106606039Y-102997675D01*
X106711205Y-103302088D01*
X106804186Y-103476044D01*
X107068587Y-103571808D01*
X108024395Y-102616000D01*
X108383605Y-102616000D01*
X109339413Y-103571808D01*
X109603814Y-103476044D01*
X109744704Y-103186429D01*
X109826384Y-102874892D01*
X109845718Y-102553405D01*
X109801961Y-102234325D01*
X109696795Y-101929912D01*
X109603814Y-101755956D01*
X109339413Y-101660192D01*
X108383605Y-102616000D01*
X108024395Y-102616000D01*
X107068587Y-101660192D01*
X106804186Y-101755956D01*
X106663296Y-102045571D01*
X106581616Y-102357108D01*
X106562282Y-102678595D01*
X104842072Y-102678595D01*
X104842072Y-101616000D01*
X104829812Y-101491518D01*
X104826497Y-101480587D01*
X107248192Y-101480587D01*
X108204000Y-102436395D01*
X109159808Y-101480587D01*
X109064044Y-101216186D01*
X108774429Y-101075296D01*
X108462892Y-100993616D01*
X108141405Y-100974282D01*
X107822325Y-101018039D01*
X107517912Y-101123205D01*
X107343956Y-101216186D01*
X107248192Y-101480587D01*
X104826497Y-101480587D01*
X104793502Y-101371820D01*
X104734537Y-101261506D01*
X104655185Y-101164815D01*
X104558494Y-101085463D01*
X104448180Y-101026498D01*
X104328482Y-100990188D01*
X104204000Y-100977928D01*
X102204000Y-100977928D01*
X102079518Y-100990188D01*
X101959820Y-101026498D01*
X101849506Y-101085463D01*
X101752815Y-101164815D01*
X101673463Y-101261506D01*
X101614498Y-101371820D01*
X101578188Y-101491518D01*
X101565928Y-101616000D01*
X100836130Y-101616000D01*
X105678131Y-96774000D01*
X106055110Y-96774000D01*
X106066188Y-96886482D01*
X106102498Y-97006180D01*
X106161463Y-97116494D01*
X106240815Y-97213185D01*
X106337506Y-97292537D01*
X106447820Y-97351502D01*
X106567518Y-97387812D01*
X106692000Y-97400072D01*
X106783269Y-97400072D01*
X106805355Y-97441392D01*
X106822374Y-97462129D01*
X106900578Y-97557422D01*
X106929654Y-97581284D01*
X111460721Y-102112352D01*
X111484578Y-102141422D01*
X111513648Y-102165279D01*
X111600607Y-102236645D01*
X111671364Y-102274465D01*
X111732985Y-102307402D01*
X111876622Y-102350974D01*
X111988574Y-102362000D01*
X111988577Y-102362000D01*
X112026000Y-102365686D01*
X112063423Y-102362000D01*
X114554577Y-102362000D01*
X114592000Y-102365686D01*
X114629423Y-102362000D01*
X114629426Y-102362000D01*
X114741378Y-102350974D01*
X114885015Y-102307402D01*
X115017392Y-102236645D01*
X115133422Y-102141422D01*
X115157284Y-102112346D01*
X116875928Y-100393702D01*
X116875928Y-101688000D01*
X116888188Y-101812482D01*
X116924498Y-101932180D01*
X116983463Y-102042494D01*
X117062815Y-102139185D01*
X117159506Y-102218537D01*
X117269820Y-102277502D01*
X117350466Y-102301966D01*
X117266412Y-102377731D01*
X117092359Y-102611080D01*
X116967175Y-102873901D01*
X116922524Y-103021110D01*
X117043845Y-103251000D01*
X118237000Y-103251000D01*
X118237000Y-103231000D01*
X118491000Y-103231000D01*
X118491000Y-103251000D01*
X119684155Y-103251000D01*
X119805476Y-103021110D01*
X119760825Y-102873901D01*
X119635641Y-102611080D01*
X119461588Y-102377731D01*
X119377534Y-102301966D01*
X119458180Y-102277502D01*
X119568494Y-102218537D01*
X119665185Y-102139185D01*
X119744537Y-102042494D01*
X119803502Y-101932180D01*
X119839812Y-101812482D01*
X119852072Y-101688000D01*
X119852072Y-99988000D01*
X119839812Y-99863518D01*
X119803502Y-99743820D01*
X119744537Y-99633506D01*
X119665185Y-99536815D01*
X119568494Y-99457463D01*
X119458180Y-99398498D01*
X119338482Y-99362188D01*
X119214000Y-99349928D01*
X117919702Y-99349928D01*
X118876346Y-98393284D01*
X118905422Y-98369422D01*
X118965857Y-98295781D01*
X119000645Y-98253393D01*
X119022731Y-98212072D01*
X119164000Y-98212072D01*
X119288482Y-98199812D01*
X119408180Y-98163502D01*
X119518494Y-98104537D01*
X119615185Y-98025185D01*
X119694537Y-97928494D01*
X119753502Y-97818180D01*
X119789812Y-97698482D01*
X119802072Y-97574000D01*
X119802072Y-95974000D01*
X119789812Y-95849518D01*
X119753502Y-95729820D01*
X119694537Y-95619506D01*
X119615185Y-95522815D01*
X119518494Y-95443463D01*
X119408180Y-95384498D01*
X119288482Y-95348188D01*
X119164000Y-95335928D01*
X117564000Y-95335928D01*
X117439518Y-95348188D01*
X117319820Y-95384498D01*
X117209506Y-95443463D01*
X117112815Y-95522815D01*
X117033463Y-95619506D01*
X116974498Y-95729820D01*
X116938188Y-95849518D01*
X116925928Y-95974000D01*
X116925928Y-97574000D01*
X116938188Y-97698482D01*
X116974498Y-97818180D01*
X117033463Y-97928494D01*
X117102164Y-98012206D01*
X114276370Y-100838000D01*
X114246707Y-100838000D01*
X114301680Y-100755727D01*
X114409853Y-100494574D01*
X114465000Y-100217335D01*
X114465000Y-99934665D01*
X114409853Y-99657426D01*
X114301680Y-99396273D01*
X114144637Y-99161241D01*
X113944759Y-98961363D01*
X113792000Y-98859293D01*
X113792000Y-93821039D01*
X116972096Y-93821039D01*
X117012754Y-93955087D01*
X117132963Y-94209420D01*
X117300481Y-94435414D01*
X117508869Y-94624385D01*
X117750119Y-94769070D01*
X118014960Y-94863909D01*
X118237000Y-94742624D01*
X118237000Y-93599000D01*
X118491000Y-93599000D01*
X118491000Y-94742624D01*
X118713040Y-94863909D01*
X118977881Y-94769070D01*
X119219131Y-94624385D01*
X119427519Y-94435414D01*
X119595037Y-94209420D01*
X119715246Y-93955087D01*
X119755904Y-93821039D01*
X119633915Y-93599000D01*
X118491000Y-93599000D01*
X118237000Y-93599000D01*
X117094085Y-93599000D01*
X116972096Y-93821039D01*
X113792000Y-93821039D01*
X113792000Y-93122961D01*
X116972096Y-93122961D01*
X117094085Y-93345000D01*
X118237000Y-93345000D01*
X118237000Y-92201376D01*
X118491000Y-92201376D01*
X118491000Y-93345000D01*
X119633915Y-93345000D01*
X119755904Y-93122961D01*
X119715246Y-92988913D01*
X119595037Y-92734580D01*
X119427519Y-92508586D01*
X119219131Y-92319615D01*
X118977881Y-92174930D01*
X118713040Y-92080091D01*
X118491000Y-92201376D01*
X118237000Y-92201376D01*
X118014960Y-92080091D01*
X117750119Y-92174930D01*
X117508869Y-92319615D01*
X117300481Y-92508586D01*
X117132963Y-92734580D01*
X117012754Y-92988913D01*
X116972096Y-93122961D01*
X113792000Y-93122961D01*
X113792000Y-91501630D01*
X114808507Y-90485123D01*
X114928544Y-90509000D01*
X115195456Y-90509000D01*
X115457239Y-90456928D01*
X115703833Y-90354785D01*
X115925762Y-90206497D01*
X116114497Y-90017762D01*
X116262785Y-89795833D01*
X116364928Y-89549239D01*
X116417000Y-89287456D01*
X116417000Y-89020544D01*
X116364928Y-88758761D01*
X116262785Y-88512167D01*
X116114497Y-88290238D01*
X115925762Y-88101503D01*
X115703833Y-87953215D01*
X115457239Y-87851072D01*
X115195456Y-87799000D01*
X114928544Y-87799000D01*
X114666761Y-87851072D01*
X114420167Y-87953215D01*
X114198238Y-88101503D01*
X114009503Y-88290238D01*
X113861215Y-88512167D01*
X113759072Y-88758761D01*
X113707000Y-89020544D01*
X113707000Y-89287456D01*
X113730877Y-89407493D01*
X112517649Y-90620721D01*
X112488579Y-90644578D01*
X112464722Y-90673648D01*
X112464721Y-90673649D01*
X112393355Y-90760608D01*
X112322599Y-90892985D01*
X112279027Y-91036622D01*
X112264314Y-91186000D01*
X112268001Y-91223433D01*
X112268000Y-98859293D01*
X112115241Y-98961363D01*
X111915363Y-99161241D01*
X111758320Y-99396273D01*
X111650147Y-99657426D01*
X111595000Y-99934665D01*
X111595000Y-100091369D01*
X108676374Y-97172744D01*
X108722537Y-97116494D01*
X108781502Y-97006180D01*
X108817812Y-96886482D01*
X108830072Y-96762000D01*
X108830072Y-95262000D01*
X108817812Y-95137518D01*
X108781502Y-95017820D01*
X108722537Y-94907506D01*
X108643185Y-94810815D01*
X108546494Y-94731463D01*
X108436180Y-94672498D01*
X108316482Y-94636188D01*
X108192000Y-94623928D01*
X108121155Y-94623928D01*
X108324886Y-94487799D01*
X108517799Y-94294886D01*
X108558482Y-94234000D01*
X109527293Y-94234000D01*
X109629363Y-94386759D01*
X109829241Y-94586637D01*
X109982001Y-94688707D01*
X109982000Y-95554168D01*
X109942899Y-95575068D01*
X109724392Y-95754392D01*
X109545068Y-95972899D01*
X109411818Y-96222192D01*
X109329764Y-96492691D01*
X109302057Y-96774000D01*
X109329764Y-97055309D01*
X109411818Y-97325808D01*
X109545068Y-97575101D01*
X109724392Y-97793608D01*
X109942899Y-97972932D01*
X110192192Y-98106182D01*
X110462691Y-98188236D01*
X110673508Y-98209000D01*
X110814492Y-98209000D01*
X111025309Y-98188236D01*
X111295808Y-98106182D01*
X111545101Y-97972932D01*
X111763608Y-97793608D01*
X111942932Y-97575101D01*
X112076182Y-97325808D01*
X112158236Y-97055309D01*
X112185943Y-96774000D01*
X112158236Y-96492691D01*
X112076182Y-96222192D01*
X111942932Y-95972899D01*
X111763608Y-95754392D01*
X111545101Y-95575068D01*
X111506000Y-95554168D01*
X111506000Y-94688707D01*
X111658759Y-94586637D01*
X111858637Y-94386759D01*
X112015680Y-94151727D01*
X112123853Y-93890574D01*
X112179000Y-93613335D01*
X112179000Y-93330665D01*
X112123853Y-93053426D01*
X112015680Y-92792273D01*
X111858637Y-92557241D01*
X111658759Y-92357363D01*
X111423727Y-92200320D01*
X111162574Y-92092147D01*
X110885335Y-92037000D01*
X110602665Y-92037000D01*
X110325426Y-92092147D01*
X110064273Y-92200320D01*
X109829241Y-92357363D01*
X109629363Y-92557241D01*
X109527293Y-92710000D01*
X108638663Y-92710000D01*
X108517799Y-92529114D01*
X108324886Y-92336201D01*
X108098043Y-92184629D01*
X107921345Y-92111439D01*
X108040832Y-92068277D01*
X108153863Y-92007860D01*
X108219388Y-91768993D01*
X107442000Y-90991605D01*
X106664612Y-91768993D01*
X106730137Y-92007860D01*
X106956390Y-92114034D01*
X106785957Y-92184629D01*
X106559114Y-92336201D01*
X106366201Y-92529114D01*
X106214629Y-92755957D01*
X106110225Y-93008011D01*
X106057000Y-93275589D01*
X106057000Y-93548411D01*
X106085364Y-93691006D01*
X105288370Y-94488000D01*
X104469471Y-94488000D01*
X104538236Y-94261309D01*
X104565943Y-93980000D01*
X104538236Y-93698691D01*
X104456182Y-93428192D01*
X104322932Y-93178899D01*
X104143608Y-92960392D01*
X103925101Y-92781068D01*
X103886000Y-92760168D01*
X103886000Y-91894707D01*
X104038759Y-91792637D01*
X104238637Y-91592759D01*
X104395680Y-91357727D01*
X104503853Y-91096574D01*
X104546039Y-90884492D01*
X106052188Y-90884492D01*
X106093035Y-91154238D01*
X106185723Y-91410832D01*
X106246140Y-91523863D01*
X106485007Y-91589388D01*
X107262395Y-90812000D01*
X107621605Y-90812000D01*
X108398993Y-91589388D01*
X108637860Y-91523863D01*
X108753760Y-91276884D01*
X108819250Y-91012040D01*
X108831812Y-90739508D01*
X108790965Y-90469762D01*
X108698277Y-90213168D01*
X108637860Y-90100137D01*
X108398993Y-90034612D01*
X107621605Y-90812000D01*
X107262395Y-90812000D01*
X106485007Y-90034612D01*
X106246140Y-90100137D01*
X106130240Y-90347116D01*
X106064750Y-90611960D01*
X106052188Y-90884492D01*
X104546039Y-90884492D01*
X104559000Y-90819335D01*
X104559000Y-90536665D01*
X104523157Y-90356473D01*
X105979631Y-88900000D01*
X106055110Y-88900000D01*
X106066188Y-89012482D01*
X106102498Y-89132180D01*
X106161463Y-89242494D01*
X106240815Y-89339185D01*
X106337506Y-89418537D01*
X106447820Y-89477502D01*
X106567518Y-89513812D01*
X106692000Y-89526072D01*
X106925253Y-89526072D01*
X106843168Y-89555723D01*
X106730137Y-89616140D01*
X106664612Y-89855007D01*
X107442000Y-90632395D01*
X108219388Y-89855007D01*
X108153863Y-89616140D01*
X107961931Y-89526072D01*
X108192000Y-89526072D01*
X108316482Y-89513812D01*
X108436180Y-89477502D01*
X108546494Y-89418537D01*
X108643185Y-89339185D01*
X108722537Y-89242494D01*
X108781502Y-89132180D01*
X108817812Y-89012482D01*
X108830072Y-88888000D01*
X108830072Y-87388000D01*
X108817812Y-87263518D01*
X108781502Y-87143820D01*
X108722537Y-87033506D01*
X108643185Y-86936815D01*
X108546494Y-86857463D01*
X108436180Y-86798498D01*
X108316482Y-86762188D01*
X108208517Y-86751555D01*
X108324886Y-86673799D01*
X108517799Y-86480886D01*
X108598573Y-86360000D01*
X112206370Y-86360000D01*
X112972721Y-87126351D01*
X112996578Y-87155422D01*
X113025648Y-87179279D01*
X113112607Y-87250645D01*
X113183364Y-87288465D01*
X113244985Y-87321402D01*
X113388622Y-87364974D01*
X113500574Y-87376000D01*
X113500577Y-87376000D01*
X113538000Y-87379686D01*
X113575423Y-87376000D01*
X116481508Y-87376000D01*
X116549503Y-87477762D01*
X116738238Y-87666497D01*
X116960167Y-87814785D01*
X117206761Y-87916928D01*
X117468544Y-87969000D01*
X117735456Y-87969000D01*
X117997239Y-87916928D01*
X118243833Y-87814785D01*
X118465762Y-87666497D01*
X118654497Y-87477762D01*
X118802785Y-87255833D01*
X118904928Y-87009239D01*
X118957000Y-86747456D01*
X118957000Y-86480544D01*
X118904928Y-86218761D01*
X118802785Y-85972167D01*
X118654497Y-85750238D01*
X118465762Y-85561503D01*
X118243833Y-85413215D01*
X117997239Y-85311072D01*
X117735456Y-85259000D01*
X117468544Y-85259000D01*
X117206761Y-85311072D01*
X116960167Y-85413215D01*
X116738238Y-85561503D01*
X116549503Y-85750238D01*
X116481508Y-85852000D01*
X113853631Y-85852000D01*
X113087284Y-85085654D01*
X113063422Y-85056578D01*
X112947392Y-84961355D01*
X112815015Y-84890598D01*
X112671378Y-84847026D01*
X112559426Y-84836000D01*
X112559423Y-84836000D01*
X112522000Y-84832314D01*
X112484577Y-84836000D01*
X108598573Y-84836000D01*
X108517799Y-84715114D01*
X108324886Y-84522201D01*
X108098043Y-84370629D01*
X107998721Y-84329489D01*
X108040832Y-84314277D01*
X108153863Y-84253860D01*
X108219388Y-84014993D01*
X108144939Y-83940544D01*
X113707000Y-83940544D01*
X113707000Y-84207456D01*
X113759072Y-84469239D01*
X113861215Y-84715833D01*
X114009503Y-84937762D01*
X114198238Y-85126497D01*
X114420167Y-85274785D01*
X114666761Y-85376928D01*
X114928544Y-85429000D01*
X115195456Y-85429000D01*
X115457239Y-85376928D01*
X115703833Y-85274785D01*
X115925762Y-85126497D01*
X116114497Y-84937762D01*
X116262785Y-84715833D01*
X116364928Y-84469239D01*
X116417000Y-84207456D01*
X116417000Y-83940544D01*
X116364928Y-83678761D01*
X116262785Y-83432167D01*
X116114497Y-83210238D01*
X115925762Y-83021503D01*
X115824000Y-82953508D01*
X115824000Y-82242260D01*
X117322432Y-80743828D01*
X117449241Y-80870637D01*
X117684273Y-81027680D01*
X117945426Y-81135853D01*
X118222665Y-81191000D01*
X118505335Y-81191000D01*
X118782574Y-81135853D01*
X119043727Y-81027680D01*
X119278759Y-80870637D01*
X119478637Y-80670759D01*
X119635680Y-80435727D01*
X119743853Y-80174574D01*
X119799000Y-79897335D01*
X119799000Y-79614665D01*
X119743853Y-79337426D01*
X119635680Y-79076273D01*
X119478637Y-78841241D01*
X119278759Y-78641363D01*
X119043727Y-78484320D01*
X118782574Y-78376147D01*
X118505335Y-78321000D01*
X118222665Y-78321000D01*
X117945426Y-78376147D01*
X117684273Y-78484320D01*
X117449241Y-78641363D01*
X117249363Y-78841241D01*
X117143918Y-78999051D01*
X117083252Y-79005026D01*
X116939615Y-79048598D01*
X116807238Y-79119355D01*
X116691208Y-79214578D01*
X116667351Y-79243648D01*
X114549654Y-81361346D01*
X114520578Y-81385208D01*
X114484810Y-81428792D01*
X114425355Y-81501238D01*
X114413181Y-81524015D01*
X114354598Y-81633616D01*
X114311026Y-81777253D01*
X114302666Y-81862140D01*
X114296314Y-81926630D01*
X114300000Y-81964054D01*
X114300001Y-82953507D01*
X114198238Y-83021503D01*
X114009503Y-83210238D01*
X113861215Y-83432167D01*
X113759072Y-83678761D01*
X113707000Y-83940544D01*
X108144939Y-83940544D01*
X107442000Y-83237605D01*
X106664612Y-84014993D01*
X106730137Y-84253860D01*
X106888477Y-84328164D01*
X106785957Y-84370629D01*
X106559114Y-84522201D01*
X106366201Y-84715114D01*
X106214629Y-84941957D01*
X106110225Y-85194011D01*
X106057000Y-85461589D01*
X106057000Y-85734411D01*
X106110225Y-86001989D01*
X106214629Y-86254043D01*
X106366201Y-86480886D01*
X106559114Y-86673799D01*
X106675483Y-86751555D01*
X106567518Y-86762188D01*
X106447820Y-86798498D01*
X106337506Y-86857463D01*
X106240815Y-86936815D01*
X106161463Y-87033506D01*
X106102498Y-87143820D01*
X106066188Y-87263518D01*
X106055110Y-87376000D01*
X105701422Y-87376000D01*
X105663999Y-87372314D01*
X105626576Y-87376000D01*
X105626574Y-87376000D01*
X105514622Y-87387026D01*
X105370985Y-87430598D01*
X105238608Y-87501355D01*
X105122578Y-87596578D01*
X105098721Y-87625648D01*
X104559000Y-88165369D01*
X104559000Y-87996665D01*
X104503853Y-87719426D01*
X104395680Y-87458273D01*
X104238637Y-87223241D01*
X104038759Y-87023363D01*
X103806241Y-86868000D01*
X104038759Y-86712637D01*
X104238637Y-86512759D01*
X104395680Y-86277727D01*
X104503853Y-86016574D01*
X104559000Y-85739335D01*
X104559000Y-85456665D01*
X104503853Y-85179426D01*
X104395680Y-84918273D01*
X104238637Y-84683241D01*
X104038759Y-84483363D01*
X103806241Y-84328000D01*
X104038759Y-84172637D01*
X104238637Y-83972759D01*
X104395680Y-83737727D01*
X104503853Y-83476574D01*
X104559000Y-83199335D01*
X104559000Y-83130492D01*
X106052188Y-83130492D01*
X106093035Y-83400238D01*
X106185723Y-83656832D01*
X106246140Y-83769863D01*
X106485007Y-83835388D01*
X107262395Y-83058000D01*
X107621605Y-83058000D01*
X108398993Y-83835388D01*
X108637860Y-83769863D01*
X108753760Y-83522884D01*
X108819250Y-83258040D01*
X108831812Y-82985508D01*
X108790965Y-82715762D01*
X108698277Y-82459168D01*
X108637860Y-82346137D01*
X108398993Y-82280612D01*
X107621605Y-83058000D01*
X107262395Y-83058000D01*
X106485007Y-82280612D01*
X106246140Y-82346137D01*
X106130240Y-82593116D01*
X106064750Y-82857960D01*
X106052188Y-83130492D01*
X104559000Y-83130492D01*
X104559000Y-82916665D01*
X104503853Y-82639426D01*
X104395680Y-82378273D01*
X104238637Y-82143241D01*
X104196403Y-82101007D01*
X106664612Y-82101007D01*
X107442000Y-82878395D01*
X108219388Y-82101007D01*
X108153863Y-81862140D01*
X107906884Y-81746240D01*
X107642040Y-81680750D01*
X107369508Y-81668188D01*
X107099762Y-81709035D01*
X106843168Y-81801723D01*
X106730137Y-81862140D01*
X106664612Y-82101007D01*
X104196403Y-82101007D01*
X104038759Y-81943363D01*
X103803727Y-81786320D01*
X103542574Y-81678147D01*
X103265335Y-81623000D01*
X102982665Y-81623000D01*
X102705426Y-81678147D01*
X102444273Y-81786320D01*
X102209241Y-81943363D01*
X102009363Y-82143241D01*
X101852320Y-82378273D01*
X101744147Y-82639426D01*
X101689000Y-82916665D01*
X101689000Y-83085370D01*
X101092000Y-82488370D01*
X101092000Y-80972707D01*
X101244759Y-80870637D01*
X101444637Y-80670759D01*
X101601680Y-80435727D01*
X101709853Y-80174574D01*
X101765000Y-79897335D01*
X101765000Y-79756000D01*
X106508057Y-79756000D01*
X106535764Y-80037309D01*
X106617818Y-80307808D01*
X106751068Y-80557101D01*
X106930392Y-80775608D01*
X107148899Y-80954932D01*
X107398192Y-81088182D01*
X107668691Y-81170236D01*
X107879508Y-81191000D01*
X108020492Y-81191000D01*
X108231309Y-81170236D01*
X108501808Y-81088182D01*
X108751101Y-80954932D01*
X108969608Y-80775608D01*
X109148932Y-80557101D01*
X109282182Y-80307808D01*
X109364236Y-80037309D01*
X109379434Y-79883002D01*
X109474084Y-79883002D01*
X109352096Y-80105039D01*
X109392754Y-80239087D01*
X109512963Y-80493420D01*
X109680481Y-80719414D01*
X109888869Y-80908385D01*
X110130119Y-81053070D01*
X110394960Y-81147909D01*
X110617000Y-81026624D01*
X110617000Y-79883000D01*
X110871000Y-79883000D01*
X110871000Y-81026624D01*
X111093040Y-81147909D01*
X111357881Y-81053070D01*
X111599131Y-80908385D01*
X111807519Y-80719414D01*
X111975037Y-80493420D01*
X112095246Y-80239087D01*
X112135904Y-80105039D01*
X112013915Y-79883000D01*
X110871000Y-79883000D01*
X110617000Y-79883000D01*
X110597000Y-79883000D01*
X110597000Y-79629000D01*
X110617000Y-79629000D01*
X110617000Y-78485376D01*
X110871000Y-78485376D01*
X110871000Y-79629000D01*
X112013915Y-79629000D01*
X112135904Y-79406961D01*
X112095246Y-79272913D01*
X111975037Y-79018580D01*
X111807519Y-78792586D01*
X111599131Y-78603615D01*
X111357881Y-78458930D01*
X111093040Y-78364091D01*
X110871000Y-78485376D01*
X110617000Y-78485376D01*
X110394960Y-78364091D01*
X110130119Y-78458930D01*
X109888869Y-78603615D01*
X109680481Y-78792586D01*
X109512963Y-79018580D01*
X109392754Y-79272913D01*
X109352096Y-79406961D01*
X109474084Y-79628998D01*
X109379434Y-79628998D01*
X109364236Y-79474691D01*
X109282182Y-79204192D01*
X109148932Y-78954899D01*
X108969608Y-78736392D01*
X108751101Y-78557068D01*
X108501808Y-78423818D01*
X108231309Y-78341764D01*
X108020492Y-78321000D01*
X107879508Y-78321000D01*
X107668691Y-78341764D01*
X107398192Y-78423818D01*
X107148899Y-78557068D01*
X106930392Y-78736392D01*
X106751068Y-78954899D01*
X106617818Y-79204192D01*
X106535764Y-79474691D01*
X106508057Y-79756000D01*
X101765000Y-79756000D01*
X101765000Y-79614665D01*
X101709853Y-79337426D01*
X101601680Y-79076273D01*
X101444637Y-78841241D01*
X101244759Y-78641363D01*
X101009727Y-78484320D01*
X100748574Y-78376147D01*
X100471335Y-78321000D01*
X100188665Y-78321000D01*
X99911426Y-78376147D01*
X99650273Y-78484320D01*
X99415241Y-78641363D01*
X99215363Y-78841241D01*
X99185874Y-78885374D01*
X99063608Y-78736392D01*
X98845101Y-78557068D01*
X98595808Y-78423818D01*
X98325309Y-78341764D01*
X98114492Y-78321000D01*
X97973508Y-78321000D01*
X97762691Y-78341764D01*
X97492192Y-78423818D01*
X97242899Y-78557068D01*
X97024392Y-78736392D01*
X96845068Y-78954899D01*
X96711818Y-79204192D01*
X96629764Y-79474691D01*
X96602057Y-79756000D01*
X96629764Y-80037309D01*
X96711818Y-80307808D01*
X96845068Y-80557101D01*
X97024392Y-80775608D01*
X97242899Y-80954932D01*
X97492192Y-81088182D01*
X97762691Y-81170236D01*
X97973508Y-81191000D01*
X98114492Y-81191000D01*
X98325309Y-81170236D01*
X98595808Y-81088182D01*
X98845101Y-80954932D01*
X99063608Y-80775608D01*
X99185874Y-80626626D01*
X99215363Y-80670759D01*
X99415241Y-80870637D01*
X99568001Y-80972707D01*
X99568000Y-82766577D01*
X99564314Y-82804000D01*
X99568000Y-82841423D01*
X99568000Y-82841425D01*
X99579026Y-82953377D01*
X99622598Y-83097014D01*
X99655535Y-83158635D01*
X99693355Y-83229392D01*
X99716866Y-83258040D01*
X99788578Y-83345422D01*
X99817654Y-83369284D01*
X101724843Y-85276473D01*
X101689000Y-85456665D01*
X101689000Y-85739335D01*
X101744147Y-86016574D01*
X101852320Y-86277727D01*
X102009363Y-86512759D01*
X102209241Y-86712637D01*
X102441759Y-86868000D01*
X102209241Y-87023363D01*
X102009363Y-87223241D01*
X101907293Y-87376000D01*
X98359631Y-87376000D01*
X96903157Y-85919527D01*
X96939000Y-85739335D01*
X96939000Y-85456665D01*
X96883853Y-85179426D01*
X96775680Y-84918273D01*
X96618637Y-84683241D01*
X96420039Y-84484643D01*
X96428482Y-84483812D01*
X96548180Y-84447502D01*
X96658494Y-84388537D01*
X96755185Y-84309185D01*
X96834537Y-84212494D01*
X96893502Y-84102180D01*
X96929812Y-83982482D01*
X96942072Y-83858000D01*
X96939000Y-83343750D01*
X96780250Y-83185000D01*
X95631000Y-83185000D01*
X95631000Y-83205000D01*
X95377000Y-83205000D01*
X95377000Y-83185000D01*
X94227750Y-83185000D01*
X94069000Y-83343750D01*
X94065928Y-83858000D01*
X94078188Y-83982482D01*
X94114498Y-84102180D01*
X94173463Y-84212494D01*
X94252815Y-84309185D01*
X94349506Y-84388537D01*
X94459820Y-84447502D01*
X94579518Y-84483812D01*
X94587961Y-84484643D01*
X94389363Y-84683241D01*
X94287293Y-84836000D01*
X94041631Y-84836000D01*
X92753006Y-83547375D01*
X92758168Y-83534912D01*
X92821000Y-83219033D01*
X92821000Y-82896967D01*
X92758168Y-82581088D01*
X92634918Y-82283537D01*
X92617855Y-82258000D01*
X94065928Y-82258000D01*
X94069000Y-82772250D01*
X94227750Y-82931000D01*
X95377000Y-82931000D01*
X95377000Y-81781750D01*
X95631000Y-81781750D01*
X95631000Y-82931000D01*
X96780250Y-82931000D01*
X96939000Y-82772250D01*
X96942072Y-82258000D01*
X96929812Y-82133518D01*
X96893502Y-82013820D01*
X96834537Y-81903506D01*
X96755185Y-81806815D01*
X96658494Y-81727463D01*
X96548180Y-81668498D01*
X96428482Y-81632188D01*
X96304000Y-81619928D01*
X95789750Y-81623000D01*
X95631000Y-81781750D01*
X95377000Y-81781750D01*
X95218250Y-81623000D01*
X94704000Y-81619928D01*
X94579518Y-81632188D01*
X94459820Y-81668498D01*
X94349506Y-81727463D01*
X94252815Y-81806815D01*
X94173463Y-81903506D01*
X94114498Y-82013820D01*
X94078188Y-82133518D01*
X94065928Y-82258000D01*
X92617855Y-82258000D01*
X92455987Y-82015748D01*
X92228252Y-81788013D01*
X91960463Y-81609082D01*
X91947749Y-81603816D01*
X91936974Y-81494409D01*
X91893402Y-81350772D01*
X91822645Y-81218395D01*
X91727422Y-81102365D01*
X91698347Y-81078504D01*
X91641497Y-81021654D01*
X91617635Y-80992578D01*
X91557431Y-80943170D01*
X91411828Y-80797568D01*
X91538637Y-80670759D01*
X91695680Y-80435727D01*
X91803853Y-80174574D01*
X91859000Y-79897335D01*
X91859000Y-79614665D01*
X91803853Y-79337426D01*
X91695680Y-79076273D01*
X91538637Y-78841241D01*
X91338759Y-78641363D01*
X91103727Y-78484320D01*
X90842574Y-78376147D01*
X90565335Y-78321000D01*
X90282665Y-78321000D01*
X90005426Y-78376147D01*
X89744273Y-78484320D01*
X89509241Y-78641363D01*
X89309363Y-78841241D01*
X89152320Y-79076273D01*
X89044147Y-79337426D01*
X88989000Y-79614665D01*
X88544000Y-79614665D01*
X88544000Y-78130000D01*
X120244000Y-78130000D01*
X120244001Y-117450000D01*
X120244001Y-117450000D01*
G37*
X120244001Y-117450000D02*
X119511312Y-117450000D01*
X119562932Y-117387101D01*
X119696182Y-117137808D01*
X119778236Y-116867309D01*
X119805943Y-116586000D01*
X119778236Y-116304691D01*
X119696182Y-116034192D01*
X119562932Y-115784899D01*
X119383608Y-115566392D01*
X119165101Y-115387068D01*
X119126000Y-115366168D01*
X119126000Y-113067422D01*
X119129686Y-113029999D01*
X119121550Y-112947392D01*
X119114974Y-112880622D01*
X119071402Y-112736985D01*
X119000645Y-112604608D01*
X118905422Y-112488578D01*
X118876352Y-112464721D01*
X114431366Y-108019736D01*
X114444236Y-107977309D01*
X114471943Y-107696000D01*
X114444236Y-107414691D01*
X114362182Y-107144192D01*
X114228932Y-106894899D01*
X114049608Y-106676392D01*
X113831101Y-106497068D01*
X113581808Y-106363818D01*
X113311309Y-106281764D01*
X113100492Y-106261000D01*
X112959508Y-106261000D01*
X112748691Y-106281764D01*
X112478192Y-106363818D01*
X112228899Y-106497068D01*
X112010392Y-106676392D01*
X111831068Y-106894899D01*
X111697818Y-107144192D01*
X111615764Y-107414691D01*
X111588057Y-107696000D01*
X111615764Y-107977309D01*
X111697818Y-108247808D01*
X111831068Y-108497101D01*
X112010392Y-108715608D01*
X112228899Y-108894932D01*
X112478192Y-109028182D01*
X112748691Y-109110236D01*
X112959508Y-109131000D01*
X113100492Y-109131000D01*
X113311309Y-109110236D01*
X113353736Y-109097366D01*
X117602001Y-113345632D01*
X117602000Y-115366168D01*
X117562899Y-115387068D01*
X117344392Y-115566392D01*
X117165068Y-115784899D01*
X117144168Y-115824000D01*
X113960072Y-115824000D01*
X113960072Y-114262000D01*
X113947812Y-114137518D01*
X113911502Y-114017820D01*
X113852537Y-113907506D01*
X113773185Y-113810815D01*
X113676494Y-113731463D01*
X113566180Y-113672498D01*
X113446482Y-113636188D01*
X113322000Y-113623928D01*
X113314785Y-113623928D01*
X113335097Y-113554702D01*
X112522000Y-112741605D01*
X111708903Y-113554702D01*
X111729215Y-113623928D01*
X111722000Y-113623928D01*
X111597518Y-113636188D01*
X111477820Y-113672498D01*
X111367506Y-113731463D01*
X111270815Y-113810815D01*
X111191463Y-113907506D01*
X111132498Y-114017820D01*
X111096188Y-114137518D01*
X111083928Y-114262000D01*
X111083928Y-114808000D01*
X108418072Y-114808000D01*
X108418072Y-114470000D01*
X108405812Y-114345518D01*
X108369502Y-114225820D01*
X108310537Y-114115506D01*
X108231185Y-114018815D01*
X108134494Y-113939463D01*
X108024180Y-113880498D01*
X107904482Y-113844188D01*
X107780000Y-113831928D01*
X107273442Y-113831928D01*
X107481101Y-113720932D01*
X107699608Y-113541608D01*
X107878932Y-113323101D01*
X108012182Y-113073808D01*
X108094236Y-112803309D01*
X108111058Y-112632512D01*
X111081783Y-112632512D01*
X111123213Y-112912130D01*
X111218397Y-113178292D01*
X111285329Y-113303514D01*
X111529298Y-113375097D01*
X112342395Y-112562000D01*
X112701605Y-112562000D01*
X113514702Y-113375097D01*
X113758671Y-113303514D01*
X113879571Y-113048004D01*
X113948300Y-112773816D01*
X113962217Y-112491488D01*
X113920787Y-112211870D01*
X113825603Y-111945708D01*
X113758671Y-111820486D01*
X113514702Y-111748903D01*
X112701605Y-112562000D01*
X112342395Y-112562000D01*
X111529298Y-111748903D01*
X111285329Y-111820486D01*
X111164429Y-112075996D01*
X111095700Y-112350184D01*
X111081783Y-112632512D01*
X108111058Y-112632512D01*
X108121943Y-112522000D01*
X108094236Y-112240691D01*
X108012182Y-111970192D01*
X107878932Y-111720899D01*
X107754517Y-111569298D01*
X111708903Y-111569298D01*
X112522000Y-112382395D01*
X113335097Y-111569298D01*
X113263514Y-111325329D01*
X113008004Y-111204429D01*
X112733816Y-111135700D01*
X112451488Y-111121783D01*
X112171870Y-111163213D01*
X111905708Y-111258397D01*
X111780486Y-111325329D01*
X111708903Y-111569298D01*
X107754517Y-111569298D01*
X107699608Y-111502392D01*
X107481101Y-111323068D01*
X107442000Y-111302168D01*
X107442000Y-111035422D01*
X107445686Y-110997999D01*
X107437434Y-110914217D01*
X107430974Y-110848622D01*
X107387402Y-110704985D01*
X107316645Y-110572608D01*
X107221422Y-110456578D01*
X107192353Y-110432722D01*
X105721284Y-108961654D01*
X105697422Y-108932578D01*
X105581392Y-108837355D01*
X105449015Y-108766598D01*
X105305378Y-108723026D01*
X105193426Y-108712000D01*
X105193423Y-108712000D01*
X105156000Y-108708314D01*
X105118577Y-108712000D01*
X104340707Y-108712000D01*
X104238637Y-108559241D01*
X104038759Y-108359363D01*
X103803727Y-108202320D01*
X103542574Y-108094147D01*
X103265335Y-108039000D01*
X102982665Y-108039000D01*
X102705426Y-108094147D01*
X102444273Y-108202320D01*
X102209241Y-108359363D01*
X102009363Y-108559241D01*
X101875308Y-108759869D01*
X101860671Y-108732486D01*
X101616702Y-108660903D01*
X100803605Y-109474000D01*
X101616702Y-110287097D01*
X101860671Y-110215514D01*
X101874324Y-110186659D01*
X102009363Y-110388759D01*
X102209241Y-110588637D01*
X102444273Y-110745680D01*
X102705426Y-110853853D01*
X102982665Y-110909000D01*
X103265335Y-110909000D01*
X103542574Y-110853853D01*
X103803727Y-110745680D01*
X104038759Y-110588637D01*
X104238637Y-110388759D01*
X104340707Y-110236000D01*
X104840370Y-110236000D01*
X105910530Y-111306161D01*
X105878899Y-111323068D01*
X105660392Y-111502392D01*
X105481068Y-111720899D01*
X105347818Y-111970192D01*
X105265764Y-112240691D01*
X105238057Y-112522000D01*
X105265764Y-112803309D01*
X105347818Y-113073808D01*
X105481068Y-113323101D01*
X105660392Y-113541608D01*
X105878899Y-113720932D01*
X106086558Y-113831928D01*
X105580000Y-113831928D01*
X105455518Y-113844188D01*
X105335820Y-113880498D01*
X105225506Y-113939463D01*
X105128815Y-114018815D01*
X105049463Y-114115506D01*
X104990498Y-114225820D01*
X104954188Y-114345518D01*
X104941928Y-114470000D01*
X104941928Y-116670000D01*
X104954188Y-116794482D01*
X104990498Y-116914180D01*
X105049463Y-117024494D01*
X105128815Y-117121185D01*
X105225506Y-117200537D01*
X105335820Y-117259502D01*
X105455518Y-117295812D01*
X105580000Y-117308072D01*
X107780000Y-117308072D01*
X107904482Y-117295812D01*
X108024180Y-117259502D01*
X108134494Y-117200537D01*
X108231185Y-117121185D01*
X108310537Y-117024494D01*
X108369502Y-116914180D01*
X108405812Y-116794482D01*
X108418072Y-116670000D01*
X108418072Y-116332000D01*
X111293741Y-116332000D01*
X111367506Y-116392537D01*
X111477820Y-116451502D01*
X111597518Y-116487812D01*
X111722000Y-116500072D01*
X111863269Y-116500072D01*
X111885355Y-116541392D01*
X111952678Y-116623425D01*
X111980579Y-116657422D01*
X112009649Y-116681279D01*
X112426716Y-117098346D01*
X112450578Y-117127422D01*
X112566608Y-117222645D01*
X112698985Y-117293402D01*
X112842622Y-117336974D01*
X112954574Y-117348000D01*
X112954576Y-117348000D01*
X112991999Y-117351686D01*
X113029422Y-117348000D01*
X117144168Y-117348000D01*
X117165068Y-117387101D01*
X117216688Y-117450000D01*
X88544000Y-117450000D01*
X88544000Y-112839419D01*
X88743000Y-112839419D01*
X88743000Y-113220581D01*
X88817361Y-113594419D01*
X88963225Y-113946566D01*
X89174987Y-114263491D01*
X89444509Y-114533013D01*
X89761434Y-114744775D01*
X90113581Y-114890639D01*
X90487419Y-114965000D01*
X90868581Y-114965000D01*
X91242419Y-114890639D01*
X91594566Y-114744775D01*
X91911491Y-114533013D01*
X92181013Y-114263491D01*
X92392775Y-113946566D01*
X92538639Y-113594419D01*
X92613000Y-113220581D01*
X92613000Y-112839419D01*
X92538639Y-112465581D01*
X92392775Y-112113434D01*
X92181013Y-111796509D01*
X91911491Y-111526987D01*
X91594566Y-111315225D01*
X91242419Y-111169361D01*
X90868581Y-111095000D01*
X90487419Y-111095000D01*
X90113581Y-111169361D01*
X89761434Y-111315225D01*
X89444509Y-111526987D01*
X89174987Y-111796509D01*
X88963225Y-112113434D01*
X88817361Y-112465581D01*
X88743000Y-112839419D01*
X88544000Y-112839419D01*
X88544000Y-105021863D01*
X90141622Y-105021863D01*
X90235121Y-105318446D01*
X90384684Y-105591089D01*
X90584563Y-105829315D01*
X90827077Y-106023969D01*
X91102906Y-106167571D01*
X91321020Y-106238563D01*
X91567000Y-106118594D01*
X91567000Y-104775000D01*
X90268430Y-104775000D01*
X90141622Y-105021863D01*
X88544000Y-105021863D01*
X88544000Y-104274137D01*
X90141622Y-104274137D01*
X90268430Y-104521000D01*
X91567000Y-104521000D01*
X91567000Y-103177406D01*
X91321020Y-103057437D01*
X91102906Y-103128429D01*
X90827077Y-103272031D01*
X90584563Y-103466685D01*
X90384684Y-103704911D01*
X90235121Y-103977554D01*
X90141622Y-104274137D01*
X88544000Y-104274137D01*
X88544000Y-100432890D01*
X89236524Y-100432890D01*
X89281175Y-100580099D01*
X89406359Y-100842920D01*
X89580412Y-101076269D01*
X89796645Y-101271178D01*
X90046748Y-101420157D01*
X90321109Y-101517481D01*
X90551000Y-101396814D01*
X90551000Y-100203000D01*
X90805000Y-100203000D01*
X90805000Y-101396814D01*
X91034891Y-101517481D01*
X91309252Y-101420157D01*
X91559355Y-101271178D01*
X91775588Y-101076269D01*
X91949641Y-100842920D01*
X92074825Y-100580099D01*
X92119476Y-100432890D01*
X91998155Y-100203000D01*
X90805000Y-100203000D01*
X90551000Y-100203000D01*
X89357845Y-100203000D01*
X89236524Y-100432890D01*
X88544000Y-100432890D01*
X88544000Y-96686000D01*
X89189928Y-96686000D01*
X89189928Y-98386000D01*
X89202188Y-98510482D01*
X89238498Y-98630180D01*
X89297463Y-98740494D01*
X89376815Y-98837185D01*
X89473506Y-98916537D01*
X89583820Y-98975502D01*
X89664466Y-98999966D01*
X89580412Y-99075731D01*
X89406359Y-99309080D01*
X89281175Y-99571901D01*
X89236524Y-99719110D01*
X89357845Y-99949000D01*
X90551000Y-99949000D01*
X90551000Y-99929000D01*
X90805000Y-99929000D01*
X90805000Y-99949000D01*
X91998155Y-99949000D01*
X92119476Y-99719110D01*
X92074825Y-99571901D01*
X91949641Y-99309080D01*
X91775588Y-99075731D01*
X91691534Y-98999966D01*
X91772180Y-98975502D01*
X91882494Y-98916537D01*
X91979185Y-98837185D01*
X92058537Y-98740494D01*
X92117502Y-98630180D01*
X92153812Y-98510482D01*
X92155977Y-98488500D01*
X92644029Y-98488500D01*
X92706129Y-98581439D01*
X92934561Y-98809871D01*
X93203169Y-98989349D01*
X93501630Y-99112975D01*
X93818474Y-99176000D01*
X94141526Y-99176000D01*
X94458370Y-99112975D01*
X94756831Y-98989349D01*
X95025439Y-98809871D01*
X95253871Y-98581439D01*
X95258524Y-98574474D01*
X97440000Y-98574474D01*
X97440000Y-98897526D01*
X97503025Y-99214370D01*
X97626651Y-99512831D01*
X97806129Y-99781439D01*
X98034561Y-100009871D01*
X98303169Y-100189349D01*
X98601630Y-100312975D01*
X98918474Y-100376000D01*
X99241526Y-100376000D01*
X99558370Y-100312975D01*
X99856831Y-100189349D01*
X100125439Y-100009871D01*
X100353871Y-99781439D01*
X100533349Y-99512831D01*
X100656975Y-99214370D01*
X100720000Y-98897526D01*
X100720000Y-98574474D01*
X100656975Y-98257630D01*
X100533349Y-97959169D01*
X100353871Y-97690561D01*
X100125439Y-97462129D01*
X99856831Y-97282651D01*
X99558370Y-97159025D01*
X99241526Y-97096000D01*
X98918474Y-97096000D01*
X98601630Y-97159025D01*
X98303169Y-97282651D01*
X98034561Y-97462129D01*
X97806129Y-97690561D01*
X97626651Y-97959169D01*
X97503025Y-98257630D01*
X97440000Y-98574474D01*
X95258524Y-98574474D01*
X95433349Y-98312831D01*
X95556975Y-98014370D01*
X95620000Y-97697526D01*
X95620000Y-97374474D01*
X95556975Y-97057630D01*
X95433349Y-96759169D01*
X95253871Y-96490561D01*
X95025439Y-96262129D01*
X94756831Y-96082651D01*
X94458370Y-95959025D01*
X94141526Y-95896000D01*
X93818474Y-95896000D01*
X93501630Y-95959025D01*
X93203169Y-96082651D01*
X92934561Y-96262129D01*
X92706129Y-96490561D01*
X92644029Y-96583500D01*
X92155977Y-96583500D01*
X92153812Y-96561518D01*
X92117502Y-96441820D01*
X92058537Y-96331506D01*
X91979185Y-96234815D01*
X91882494Y-96155463D01*
X91772180Y-96096498D01*
X91652482Y-96060188D01*
X91528000Y-96047928D01*
X89828000Y-96047928D01*
X89703518Y-96060188D01*
X89583820Y-96096498D01*
X89473506Y-96155463D01*
X89376815Y-96234815D01*
X89297463Y-96331506D01*
X89238498Y-96441820D01*
X89202188Y-96561518D01*
X89189928Y-96686000D01*
X88544000Y-96686000D01*
X88544000Y-94193413D01*
X90230192Y-94193413D01*
X90325956Y-94457814D01*
X90615571Y-94598704D01*
X90927108Y-94680384D01*
X91248595Y-94699718D01*
X91567675Y-94655961D01*
X91872088Y-94550795D01*
X92046044Y-94457814D01*
X92141808Y-94193413D01*
X91186000Y-93237605D01*
X90230192Y-94193413D01*
X88544000Y-94193413D01*
X88544000Y-93120595D01*
X89544282Y-93120595D01*
X89588039Y-93439675D01*
X89693205Y-93744088D01*
X89786186Y-93918044D01*
X90050587Y-94013808D01*
X91006395Y-93058000D01*
X91365605Y-93058000D01*
X92321413Y-94013808D01*
X92585814Y-93918044D01*
X92624429Y-93838665D01*
X94069000Y-93838665D01*
X94069000Y-94121335D01*
X94124147Y-94398574D01*
X94232320Y-94659727D01*
X94389363Y-94894759D01*
X94589241Y-95094637D01*
X94824273Y-95251680D01*
X95085426Y-95359853D01*
X95362665Y-95415000D01*
X95645335Y-95415000D01*
X95922574Y-95359853D01*
X96183727Y-95251680D01*
X96418759Y-95094637D01*
X96618637Y-94894759D01*
X96775680Y-94659727D01*
X96883853Y-94398574D01*
X96939000Y-94121335D01*
X96939000Y-93838665D01*
X96883853Y-93561426D01*
X96775680Y-93300273D01*
X96618637Y-93065241D01*
X96418759Y-92865363D01*
X96183727Y-92708320D01*
X95922574Y-92600147D01*
X95645335Y-92545000D01*
X95362665Y-92545000D01*
X95085426Y-92600147D01*
X94824273Y-92708320D01*
X94589241Y-92865363D01*
X94389363Y-93065241D01*
X94232320Y-93300273D01*
X94124147Y-93561426D01*
X94069000Y-93838665D01*
X92624429Y-93838665D01*
X92726704Y-93628429D01*
X92808384Y-93316892D01*
X92827718Y-92995405D01*
X92783961Y-92676325D01*
X92678795Y-92371912D01*
X92585814Y-92197956D01*
X92321413Y-92102192D01*
X91365605Y-93058000D01*
X91006395Y-93058000D01*
X90050587Y-92102192D01*
X89786186Y-92197956D01*
X89645296Y-92487571D01*
X89563616Y-92799108D01*
X89544282Y-93120595D01*
X88544000Y-93120595D01*
X88544000Y-91922587D01*
X90230192Y-91922587D01*
X91186000Y-92878395D01*
X92141808Y-91922587D01*
X92046044Y-91658186D01*
X91756429Y-91517296D01*
X91444892Y-91435616D01*
X91123405Y-91416282D01*
X90804325Y-91460039D01*
X90499912Y-91565205D01*
X90325956Y-91658186D01*
X90230192Y-91922587D01*
X88544000Y-91922587D01*
X88544000Y-79614665D01*
X88989000Y-79614665D01*
X88989000Y-79897335D01*
X89044147Y-80174574D01*
X89152320Y-80435727D01*
X89309363Y-80670759D01*
X89509241Y-80870637D01*
X89667052Y-80976083D01*
X89673027Y-81036748D01*
X89716599Y-81180385D01*
X89787355Y-81312762D01*
X89858721Y-81399721D01*
X89882579Y-81428792D01*
X89911649Y-81452649D01*
X90205651Y-81746651D01*
X90143748Y-81788013D01*
X89916013Y-82015748D01*
X89737082Y-82283537D01*
X89613832Y-82581088D01*
X89551000Y-82896967D01*
X89551000Y-83219033D01*
X89613832Y-83534912D01*
X89737082Y-83832463D01*
X89916013Y-84100252D01*
X90143748Y-84327987D01*
X90411537Y-84506918D01*
X90709088Y-84630168D01*
X91024967Y-84693000D01*
X91347033Y-84693000D01*
X91662912Y-84630168D01*
X91675375Y-84625006D01*
X93160720Y-86110351D01*
X93184578Y-86139422D01*
X93300608Y-86234645D01*
X93432985Y-86305402D01*
X93576622Y-86348974D01*
X93688574Y-86360000D01*
X93688576Y-86360000D01*
X93725999Y-86363686D01*
X93763422Y-86360000D01*
X94287293Y-86360000D01*
X94389363Y-86512759D01*
X94589241Y-86712637D01*
X94821759Y-86868000D01*
X94589241Y-87023363D01*
X94389363Y-87223241D01*
X94232320Y-87458273D01*
X94124147Y-87719426D01*
X94069000Y-87996665D01*
X94069000Y-88279335D01*
X94124147Y-88556574D01*
X94232320Y-88817727D01*
X94389363Y-89052759D01*
X94589241Y-89252637D01*
X94821759Y-89408000D01*
X94589241Y-89563363D01*
X94389363Y-89763241D01*
X94232320Y-89998273D01*
X94124147Y-90259426D01*
X94069000Y-90536665D01*
X94069000Y-90819335D01*
X94124147Y-91096574D01*
X94232320Y-91357727D01*
X94389363Y-91592759D01*
X94589241Y-91792637D01*
X94824273Y-91949680D01*
X95085426Y-92057853D01*
X95362665Y-92113000D01*
X95645335Y-92113000D01*
X95922574Y-92057853D01*
X96183727Y-91949680D01*
X96418759Y-91792637D01*
X96618637Y-91592759D01*
X96775680Y-91357727D01*
X96883853Y-91096574D01*
X96939000Y-90819335D01*
X96939000Y-90650630D01*
X102050721Y-95762352D01*
X102074578Y-95791422D01*
X102190608Y-95886645D01*
X102322985Y-95957402D01*
X102466622Y-96000974D01*
X102578574Y-96012000D01*
X102578576Y-96012000D01*
X102615999Y-96015686D01*
X102653422Y-96012000D01*
X104284869Y-96012000D01*
X97286942Y-103009928D01*
X95821500Y-103009928D01*
X95697018Y-103022188D01*
X95577320Y-103058498D01*
X95467006Y-103117463D01*
X95370315Y-103196815D01*
X95290963Y-103293506D01*
X95246095Y-103377446D01*
X95120235Y-103274155D01*
X94844449Y-103126745D01*
X94545204Y-103035970D01*
X94234000Y-103005319D01*
X93922797Y-103035970D01*
X93623552Y-103126745D01*
X93347766Y-103274155D01*
X93106037Y-103472537D01*
X92958837Y-103651899D01*
X92803437Y-103466685D01*
X92560923Y-103272031D01*
X92285094Y-103128429D01*
X92066980Y-103057437D01*
X91821000Y-103177406D01*
X91821000Y-104521000D01*
X91841000Y-104521000D01*
X91841000Y-104775000D01*
X91821000Y-104775000D01*
X91821000Y-106118594D01*
X92066980Y-106238563D01*
X92285094Y-106167571D01*
X92560923Y-106023969D01*
X92803437Y-105829315D01*
X92958838Y-105644100D01*
X93106037Y-105823463D01*
X93347765Y-106021845D01*
X93472000Y-106088250D01*
X93472001Y-111548567D01*
X93468314Y-111586000D01*
X93483027Y-111735378D01*
X93526599Y-111879015D01*
X93597355Y-112011392D01*
X93668721Y-112098351D01*
X93692579Y-112127422D01*
X93721649Y-112151279D01*
X93881384Y-112311015D01*
X93817361Y-112465581D01*
X93743000Y-112839419D01*
X93743000Y-113220581D01*
X93817361Y-113594419D01*
X93963225Y-113946566D01*
X94174987Y-114263491D01*
X94444509Y-114533013D01*
X94761434Y-114744775D01*
X95113581Y-114890639D01*
X95487419Y-114965000D01*
X95868581Y-114965000D01*
X96242419Y-114890639D01*
X96396985Y-114826616D01*
X96462720Y-114892351D01*
X96486578Y-114921422D01*
X96602608Y-115016645D01*
X96734985Y-115087402D01*
X96878622Y-115130974D01*
X96990574Y-115142000D01*
X96990576Y-115142000D01*
X97027999Y-115145686D01*
X97065422Y-115142000D01*
X97376763Y-115142000D01*
X97350105Y-115229881D01*
X97316606Y-115570000D01*
X97350105Y-115910119D01*
X97449314Y-116237168D01*
X97610421Y-116538578D01*
X97827234Y-116802766D01*
X98091422Y-117019579D01*
X98392832Y-117180686D01*
X98719881Y-117279895D01*
X98974775Y-117305000D01*
X99145225Y-117305000D01*
X99400119Y-117279895D01*
X99727168Y-117180686D01*
X100028578Y-117019579D01*
X100292766Y-116802766D01*
X100509579Y-116538578D01*
X100670686Y-116237168D01*
X100769895Y-115910119D01*
X100803394Y-115570000D01*
X100769895Y-115229881D01*
X100670686Y-114902832D01*
X100509579Y-114601422D01*
X100292766Y-114337234D01*
X100028578Y-114120421D01*
X99822000Y-114010003D01*
X99822000Y-113738707D01*
X99974759Y-113636637D01*
X100174637Y-113436759D01*
X100331680Y-113201727D01*
X100439853Y-112940574D01*
X100495000Y-112663335D01*
X100495000Y-112380665D01*
X100439853Y-112103426D01*
X100331680Y-111842273D01*
X100174637Y-111607241D01*
X99974759Y-111407363D01*
X99739727Y-111250320D01*
X99478574Y-111142147D01*
X99201335Y-111087000D01*
X98918665Y-111087000D01*
X98641426Y-111142147D01*
X98380273Y-111250320D01*
X98145241Y-111407363D01*
X97945363Y-111607241D01*
X97788320Y-111842273D01*
X97680147Y-112103426D01*
X97625000Y-112380665D01*
X97625000Y-112663335D01*
X97680147Y-112940574D01*
X97788320Y-113201727D01*
X97945363Y-113436759D01*
X98145241Y-113636637D01*
X98298000Y-113738707D01*
X98298000Y-113745496D01*
X98295392Y-113743355D01*
X98163015Y-113672598D01*
X98019378Y-113629026D01*
X97907426Y-113618000D01*
X97907423Y-113618000D01*
X97870000Y-113614314D01*
X97832577Y-113618000D01*
X97528871Y-113618000D01*
X97538639Y-113594419D01*
X97613000Y-113220581D01*
X97613000Y-112839419D01*
X97538639Y-112465581D01*
X97392775Y-112113434D01*
X97181013Y-111796509D01*
X96911491Y-111526987D01*
X96594566Y-111315225D01*
X96242419Y-111169361D01*
X95868581Y-111095000D01*
X95487419Y-111095000D01*
X95113581Y-111169361D01*
X94996000Y-111218065D01*
X94996000Y-110466702D01*
X99810903Y-110466702D01*
X99882486Y-110710671D01*
X100137996Y-110831571D01*
X100412184Y-110900300D01*
X100694512Y-110914217D01*
X100974130Y-110872787D01*
X101240292Y-110777603D01*
X101365514Y-110710671D01*
X101437097Y-110466702D01*
X100624000Y-109653605D01*
X99810903Y-110466702D01*
X94996000Y-110466702D01*
X94996000Y-109544512D01*
X99183783Y-109544512D01*
X99225213Y-109824130D01*
X99320397Y-110090292D01*
X99387329Y-110215514D01*
X99631298Y-110287097D01*
X100444395Y-109474000D01*
X99631298Y-108660903D01*
X99387329Y-108732486D01*
X99266429Y-108987996D01*
X99197700Y-109262184D01*
X99183783Y-109544512D01*
X94996000Y-109544512D01*
X94996000Y-108481298D01*
X99810903Y-108481298D01*
X100624000Y-109294395D01*
X101437097Y-108481298D01*
X101365514Y-108237329D01*
X101110004Y-108116429D01*
X100835816Y-108047700D01*
X100553488Y-108033783D01*
X100273870Y-108075213D01*
X100007708Y-108170397D01*
X99882486Y-108237329D01*
X99810903Y-108481298D01*
X94996000Y-108481298D01*
X94996000Y-106088249D01*
X95120234Y-106021845D01*
X95246095Y-105918553D01*
X95290963Y-106002494D01*
X95370315Y-106099185D01*
X95467006Y-106178537D01*
X95577320Y-106237502D01*
X95697018Y-106273812D01*
X95821500Y-106286072D01*
X97726500Y-106286072D01*
X97850982Y-106273812D01*
X97970680Y-106237502D01*
X98080994Y-106178537D01*
X98177685Y-106099185D01*
X98257037Y-106002494D01*
X98302200Y-105918000D01*
X116871815Y-105918000D01*
X116900487Y-106209111D01*
X116985401Y-106489034D01*
X117123294Y-106747014D01*
X117308866Y-106973134D01*
X117534986Y-107158706D01*
X117602001Y-107194526D01*
X117602000Y-107749293D01*
X117449241Y-107851363D01*
X117249363Y-108051241D01*
X117092320Y-108286273D01*
X116984147Y-108547426D01*
X116929000Y-108824665D01*
X116929000Y-109107335D01*
X116984147Y-109384574D01*
X117092320Y-109645727D01*
X117249363Y-109880759D01*
X117449241Y-110080637D01*
X117684273Y-110237680D01*
X117945426Y-110345853D01*
X118222665Y-110401000D01*
X118505335Y-110401000D01*
X118782574Y-110345853D01*
X119043727Y-110237680D01*
X119278759Y-110080637D01*
X119478637Y-109880759D01*
X119635680Y-109645727D01*
X119743853Y-109384574D01*
X119799000Y-109107335D01*
X119799000Y-108824665D01*
X119743853Y-108547426D01*
X119635680Y-108286273D01*
X119478637Y-108051241D01*
X119278759Y-107851363D01*
X119126000Y-107749293D01*
X119126000Y-107194526D01*
X119193014Y-107158706D01*
X119419134Y-106973134D01*
X119604706Y-106747014D01*
X119742599Y-106489034D01*
X119827513Y-106209111D01*
X119856185Y-105918000D01*
X119827513Y-105626889D01*
X119742599Y-105346966D01*
X119604706Y-105088986D01*
X119419134Y-104862866D01*
X119193014Y-104677294D01*
X119128477Y-104642799D01*
X119245355Y-104573178D01*
X119461588Y-104378269D01*
X119635641Y-104144920D01*
X119760825Y-103882099D01*
X119805476Y-103734890D01*
X119684155Y-103505000D01*
X118491000Y-103505000D01*
X118491000Y-103525000D01*
X118237000Y-103525000D01*
X118237000Y-103505000D01*
X117043845Y-103505000D01*
X116922524Y-103734890D01*
X116967175Y-103882099D01*
X117092359Y-104144920D01*
X117266412Y-104378269D01*
X117482645Y-104573178D01*
X117599523Y-104642799D01*
X117534986Y-104677294D01*
X117308866Y-104862866D01*
X117123294Y-105088986D01*
X116985401Y-105346966D01*
X116900487Y-105626889D01*
X116871815Y-105918000D01*
X98302200Y-105918000D01*
X98316002Y-105892180D01*
X98352312Y-105772482D01*
X98364572Y-105648000D01*
X98364572Y-104087558D01*
X100836130Y-101616000D01*
X101565928Y-101616000D01*
X101565928Y-103616000D01*
X101578188Y-103740482D01*
X101614498Y-103860180D01*
X101673463Y-103970494D01*
X101752815Y-104067185D01*
X101849506Y-104146537D01*
X101959820Y-104205502D01*
X102079518Y-104241812D01*
X102204000Y-104254072D01*
X104204000Y-104254072D01*
X104328482Y-104241812D01*
X104448180Y-104205502D01*
X104558494Y-104146537D01*
X104655185Y-104067185D01*
X104734537Y-103970494D01*
X104793502Y-103860180D01*
X104826496Y-103751413D01*
X107248192Y-103751413D01*
X107343956Y-104015814D01*
X107633571Y-104156704D01*
X107945108Y-104238384D01*
X108266595Y-104257718D01*
X108585675Y-104213961D01*
X108890088Y-104108795D01*
X109064044Y-104015814D01*
X109159808Y-103751413D01*
X108204000Y-102795605D01*
X107248192Y-103751413D01*
X104826496Y-103751413D01*
X104829812Y-103740482D01*
X104842072Y-103616000D01*
X104842072Y-102678595D01*
X106562282Y-102678595D01*
X106606039Y-102997675D01*
X106711205Y-103302088D01*
X106804186Y-103476044D01*
X107068587Y-103571808D01*
X108024395Y-102616000D01*
X108383605Y-102616000D01*
X109339413Y-103571808D01*
X109603814Y-103476044D01*
X109744704Y-103186429D01*
X109826384Y-102874892D01*
X109845718Y-102553405D01*
X109801961Y-102234325D01*
X109696795Y-101929912D01*
X109603814Y-101755956D01*
X109339413Y-101660192D01*
X108383605Y-102616000D01*
X108024395Y-102616000D01*
X107068587Y-101660192D01*
X106804186Y-101755956D01*
X106663296Y-102045571D01*
X106581616Y-102357108D01*
X106562282Y-102678595D01*
X104842072Y-102678595D01*
X104842072Y-101616000D01*
X104829812Y-101491518D01*
X104826497Y-101480587D01*
X107248192Y-101480587D01*
X108204000Y-102436395D01*
X109159808Y-101480587D01*
X109064044Y-101216186D01*
X108774429Y-101075296D01*
X108462892Y-100993616D01*
X108141405Y-100974282D01*
X107822325Y-101018039D01*
X107517912Y-101123205D01*
X107343956Y-101216186D01*
X107248192Y-101480587D01*
X104826497Y-101480587D01*
X104793502Y-101371820D01*
X104734537Y-101261506D01*
X104655185Y-101164815D01*
X104558494Y-101085463D01*
X104448180Y-101026498D01*
X104328482Y-100990188D01*
X104204000Y-100977928D01*
X102204000Y-100977928D01*
X102079518Y-100990188D01*
X101959820Y-101026498D01*
X101849506Y-101085463D01*
X101752815Y-101164815D01*
X101673463Y-101261506D01*
X101614498Y-101371820D01*
X101578188Y-101491518D01*
X101565928Y-101616000D01*
X100836130Y-101616000D01*
X105678131Y-96774000D01*
X106055110Y-96774000D01*
X106066188Y-96886482D01*
X106102498Y-97006180D01*
X106161463Y-97116494D01*
X106240815Y-97213185D01*
X106337506Y-97292537D01*
X106447820Y-97351502D01*
X106567518Y-97387812D01*
X106692000Y-97400072D01*
X106783269Y-97400072D01*
X106805355Y-97441392D01*
X106822374Y-97462129D01*
X106900578Y-97557422D01*
X106929654Y-97581284D01*
X111460721Y-102112352D01*
X111484578Y-102141422D01*
X111513648Y-102165279D01*
X111600607Y-102236645D01*
X111671364Y-102274465D01*
X111732985Y-102307402D01*
X111876622Y-102350974D01*
X111988574Y-102362000D01*
X111988577Y-102362000D01*
X112026000Y-102365686D01*
X112063423Y-102362000D01*
X114554577Y-102362000D01*
X114592000Y-102365686D01*
X114629423Y-102362000D01*
X114629426Y-102362000D01*
X114741378Y-102350974D01*
X114885015Y-102307402D01*
X115017392Y-102236645D01*
X115133422Y-102141422D01*
X115157284Y-102112346D01*
X116875928Y-100393702D01*
X116875928Y-101688000D01*
X116888188Y-101812482D01*
X116924498Y-101932180D01*
X116983463Y-102042494D01*
X117062815Y-102139185D01*
X117159506Y-102218537D01*
X117269820Y-102277502D01*
X117350466Y-102301966D01*
X117266412Y-102377731D01*
X117092359Y-102611080D01*
X116967175Y-102873901D01*
X116922524Y-103021110D01*
X117043845Y-103251000D01*
X118237000Y-103251000D01*
X118237000Y-103231000D01*
X118491000Y-103231000D01*
X118491000Y-103251000D01*
X119684155Y-103251000D01*
X119805476Y-103021110D01*
X119760825Y-102873901D01*
X119635641Y-102611080D01*
X119461588Y-102377731D01*
X119377534Y-102301966D01*
X119458180Y-102277502D01*
X119568494Y-102218537D01*
X119665185Y-102139185D01*
X119744537Y-102042494D01*
X119803502Y-101932180D01*
X119839812Y-101812482D01*
X119852072Y-101688000D01*
X119852072Y-99988000D01*
X119839812Y-99863518D01*
X119803502Y-99743820D01*
X119744537Y-99633506D01*
X119665185Y-99536815D01*
X119568494Y-99457463D01*
X119458180Y-99398498D01*
X119338482Y-99362188D01*
X119214000Y-99349928D01*
X117919702Y-99349928D01*
X118876346Y-98393284D01*
X118905422Y-98369422D01*
X118965857Y-98295781D01*
X119000645Y-98253393D01*
X119022731Y-98212072D01*
X119164000Y-98212072D01*
X119288482Y-98199812D01*
X119408180Y-98163502D01*
X119518494Y-98104537D01*
X119615185Y-98025185D01*
X119694537Y-97928494D01*
X119753502Y-97818180D01*
X119789812Y-97698482D01*
X119802072Y-97574000D01*
X119802072Y-95974000D01*
X119789812Y-95849518D01*
X119753502Y-95729820D01*
X119694537Y-95619506D01*
X119615185Y-95522815D01*
X119518494Y-95443463D01*
X119408180Y-95384498D01*
X119288482Y-95348188D01*
X119164000Y-95335928D01*
X117564000Y-95335928D01*
X117439518Y-95348188D01*
X117319820Y-95384498D01*
X117209506Y-95443463D01*
X117112815Y-95522815D01*
X117033463Y-95619506D01*
X116974498Y-95729820D01*
X116938188Y-95849518D01*
X116925928Y-95974000D01*
X116925928Y-97574000D01*
X116938188Y-97698482D01*
X116974498Y-97818180D01*
X117033463Y-97928494D01*
X117102164Y-98012206D01*
X114276370Y-100838000D01*
X114246707Y-100838000D01*
X114301680Y-100755727D01*
X114409853Y-100494574D01*
X114465000Y-100217335D01*
X114465000Y-99934665D01*
X114409853Y-99657426D01*
X114301680Y-99396273D01*
X114144637Y-99161241D01*
X113944759Y-98961363D01*
X113792000Y-98859293D01*
X113792000Y-93821039D01*
X116972096Y-93821039D01*
X117012754Y-93955087D01*
X117132963Y-94209420D01*
X117300481Y-94435414D01*
X117508869Y-94624385D01*
X117750119Y-94769070D01*
X118014960Y-94863909D01*
X118237000Y-94742624D01*
X118237000Y-93599000D01*
X118491000Y-93599000D01*
X118491000Y-94742624D01*
X118713040Y-94863909D01*
X118977881Y-94769070D01*
X119219131Y-94624385D01*
X119427519Y-94435414D01*
X119595037Y-94209420D01*
X119715246Y-93955087D01*
X119755904Y-93821039D01*
X119633915Y-93599000D01*
X118491000Y-93599000D01*
X118237000Y-93599000D01*
X117094085Y-93599000D01*
X116972096Y-93821039D01*
X113792000Y-93821039D01*
X113792000Y-93122961D01*
X116972096Y-93122961D01*
X117094085Y-93345000D01*
X118237000Y-93345000D01*
X118237000Y-92201376D01*
X118491000Y-92201376D01*
X118491000Y-93345000D01*
X119633915Y-93345000D01*
X119755904Y-93122961D01*
X119715246Y-92988913D01*
X119595037Y-92734580D01*
X119427519Y-92508586D01*
X119219131Y-92319615D01*
X118977881Y-92174930D01*
X118713040Y-92080091D01*
X118491000Y-92201376D01*
X118237000Y-92201376D01*
X118014960Y-92080091D01*
X117750119Y-92174930D01*
X117508869Y-92319615D01*
X117300481Y-92508586D01*
X117132963Y-92734580D01*
X117012754Y-92988913D01*
X116972096Y-93122961D01*
X113792000Y-93122961D01*
X113792000Y-91501630D01*
X114808507Y-90485123D01*
X114928544Y-90509000D01*
X115195456Y-90509000D01*
X115457239Y-90456928D01*
X115703833Y-90354785D01*
X115925762Y-90206497D01*
X116114497Y-90017762D01*
X116262785Y-89795833D01*
X116364928Y-89549239D01*
X116417000Y-89287456D01*
X116417000Y-89020544D01*
X116364928Y-88758761D01*
X116262785Y-88512167D01*
X116114497Y-88290238D01*
X115925762Y-88101503D01*
X115703833Y-87953215D01*
X115457239Y-87851072D01*
X115195456Y-87799000D01*
X114928544Y-87799000D01*
X114666761Y-87851072D01*
X114420167Y-87953215D01*
X114198238Y-88101503D01*
X114009503Y-88290238D01*
X113861215Y-88512167D01*
X113759072Y-88758761D01*
X113707000Y-89020544D01*
X113707000Y-89287456D01*
X113730877Y-89407493D01*
X112517649Y-90620721D01*
X112488579Y-90644578D01*
X112464722Y-90673648D01*
X112464721Y-90673649D01*
X112393355Y-90760608D01*
X112322599Y-90892985D01*
X112279027Y-91036622D01*
X112264314Y-91186000D01*
X112268001Y-91223433D01*
X112268000Y-98859293D01*
X112115241Y-98961363D01*
X111915363Y-99161241D01*
X111758320Y-99396273D01*
X111650147Y-99657426D01*
X111595000Y-99934665D01*
X111595000Y-100091369D01*
X108676374Y-97172744D01*
X108722537Y-97116494D01*
X108781502Y-97006180D01*
X108817812Y-96886482D01*
X108830072Y-96762000D01*
X108830072Y-95262000D01*
X108817812Y-95137518D01*
X108781502Y-95017820D01*
X108722537Y-94907506D01*
X108643185Y-94810815D01*
X108546494Y-94731463D01*
X108436180Y-94672498D01*
X108316482Y-94636188D01*
X108192000Y-94623928D01*
X108121155Y-94623928D01*
X108324886Y-94487799D01*
X108517799Y-94294886D01*
X108558482Y-94234000D01*
X109527293Y-94234000D01*
X109629363Y-94386759D01*
X109829241Y-94586637D01*
X109982001Y-94688707D01*
X109982000Y-95554168D01*
X109942899Y-95575068D01*
X109724392Y-95754392D01*
X109545068Y-95972899D01*
X109411818Y-96222192D01*
X109329764Y-96492691D01*
X109302057Y-96774000D01*
X109329764Y-97055309D01*
X109411818Y-97325808D01*
X109545068Y-97575101D01*
X109724392Y-97793608D01*
X109942899Y-97972932D01*
X110192192Y-98106182D01*
X110462691Y-98188236D01*
X110673508Y-98209000D01*
X110814492Y-98209000D01*
X111025309Y-98188236D01*
X111295808Y-98106182D01*
X111545101Y-97972932D01*
X111763608Y-97793608D01*
X111942932Y-97575101D01*
X112076182Y-97325808D01*
X112158236Y-97055309D01*
X112185943Y-96774000D01*
X112158236Y-96492691D01*
X112076182Y-96222192D01*
X111942932Y-95972899D01*
X111763608Y-95754392D01*
X111545101Y-95575068D01*
X111506000Y-95554168D01*
X111506000Y-94688707D01*
X111658759Y-94586637D01*
X111858637Y-94386759D01*
X112015680Y-94151727D01*
X112123853Y-93890574D01*
X112179000Y-93613335D01*
X112179000Y-93330665D01*
X112123853Y-93053426D01*
X112015680Y-92792273D01*
X111858637Y-92557241D01*
X111658759Y-92357363D01*
X111423727Y-92200320D01*
X111162574Y-92092147D01*
X110885335Y-92037000D01*
X110602665Y-92037000D01*
X110325426Y-92092147D01*
X110064273Y-92200320D01*
X109829241Y-92357363D01*
X109629363Y-92557241D01*
X109527293Y-92710000D01*
X108638663Y-92710000D01*
X108517799Y-92529114D01*
X108324886Y-92336201D01*
X108098043Y-92184629D01*
X107921345Y-92111439D01*
X108040832Y-92068277D01*
X108153863Y-92007860D01*
X108219388Y-91768993D01*
X107442000Y-90991605D01*
X106664612Y-91768993D01*
X106730137Y-92007860D01*
X106956390Y-92114034D01*
X106785957Y-92184629D01*
X106559114Y-92336201D01*
X106366201Y-92529114D01*
X106214629Y-92755957D01*
X106110225Y-93008011D01*
X106057000Y-93275589D01*
X106057000Y-93548411D01*
X106085364Y-93691006D01*
X105288370Y-94488000D01*
X104469471Y-94488000D01*
X104538236Y-94261309D01*
X104565943Y-93980000D01*
X104538236Y-93698691D01*
X104456182Y-93428192D01*
X104322932Y-93178899D01*
X104143608Y-92960392D01*
X103925101Y-92781068D01*
X103886000Y-92760168D01*
X103886000Y-91894707D01*
X104038759Y-91792637D01*
X104238637Y-91592759D01*
X104395680Y-91357727D01*
X104503853Y-91096574D01*
X104546039Y-90884492D01*
X106052188Y-90884492D01*
X106093035Y-91154238D01*
X106185723Y-91410832D01*
X106246140Y-91523863D01*
X106485007Y-91589388D01*
X107262395Y-90812000D01*
X107621605Y-90812000D01*
X108398993Y-91589388D01*
X108637860Y-91523863D01*
X108753760Y-91276884D01*
X108819250Y-91012040D01*
X108831812Y-90739508D01*
X108790965Y-90469762D01*
X108698277Y-90213168D01*
X108637860Y-90100137D01*
X108398993Y-90034612D01*
X107621605Y-90812000D01*
X107262395Y-90812000D01*
X106485007Y-90034612D01*
X106246140Y-90100137D01*
X106130240Y-90347116D01*
X106064750Y-90611960D01*
X106052188Y-90884492D01*
X104546039Y-90884492D01*
X104559000Y-90819335D01*
X104559000Y-90536665D01*
X104523157Y-90356473D01*
X105979631Y-88900000D01*
X106055110Y-88900000D01*
X106066188Y-89012482D01*
X106102498Y-89132180D01*
X106161463Y-89242494D01*
X106240815Y-89339185D01*
X106337506Y-89418537D01*
X106447820Y-89477502D01*
X106567518Y-89513812D01*
X106692000Y-89526072D01*
X106925253Y-89526072D01*
X106843168Y-89555723D01*
X106730137Y-89616140D01*
X106664612Y-89855007D01*
X107442000Y-90632395D01*
X108219388Y-89855007D01*
X108153863Y-89616140D01*
X107961931Y-89526072D01*
X108192000Y-89526072D01*
X108316482Y-89513812D01*
X108436180Y-89477502D01*
X108546494Y-89418537D01*
X108643185Y-89339185D01*
X108722537Y-89242494D01*
X108781502Y-89132180D01*
X108817812Y-89012482D01*
X108830072Y-88888000D01*
X108830072Y-87388000D01*
X108817812Y-87263518D01*
X108781502Y-87143820D01*
X108722537Y-87033506D01*
X108643185Y-86936815D01*
X108546494Y-86857463D01*
X108436180Y-86798498D01*
X108316482Y-86762188D01*
X108208517Y-86751555D01*
X108324886Y-86673799D01*
X108517799Y-86480886D01*
X108598573Y-86360000D01*
X112206370Y-86360000D01*
X112972721Y-87126351D01*
X112996578Y-87155422D01*
X113025648Y-87179279D01*
X113112607Y-87250645D01*
X113183364Y-87288465D01*
X113244985Y-87321402D01*
X113388622Y-87364974D01*
X113500574Y-87376000D01*
X113500577Y-87376000D01*
X113538000Y-87379686D01*
X113575423Y-87376000D01*
X116481508Y-87376000D01*
X116549503Y-87477762D01*
X116738238Y-87666497D01*
X116960167Y-87814785D01*
X117206761Y-87916928D01*
X117468544Y-87969000D01*
X117735456Y-87969000D01*
X117997239Y-87916928D01*
X118243833Y-87814785D01*
X118465762Y-87666497D01*
X118654497Y-87477762D01*
X118802785Y-87255833D01*
X118904928Y-87009239D01*
X118957000Y-86747456D01*
X118957000Y-86480544D01*
X118904928Y-86218761D01*
X118802785Y-85972167D01*
X118654497Y-85750238D01*
X118465762Y-85561503D01*
X118243833Y-85413215D01*
X117997239Y-85311072D01*
X117735456Y-85259000D01*
X117468544Y-85259000D01*
X117206761Y-85311072D01*
X116960167Y-85413215D01*
X116738238Y-85561503D01*
X116549503Y-85750238D01*
X116481508Y-85852000D01*
X113853631Y-85852000D01*
X113087284Y-85085654D01*
X113063422Y-85056578D01*
X112947392Y-84961355D01*
X112815015Y-84890598D01*
X112671378Y-84847026D01*
X112559426Y-84836000D01*
X112559423Y-84836000D01*
X112522000Y-84832314D01*
X112484577Y-84836000D01*
X108598573Y-84836000D01*
X108517799Y-84715114D01*
X108324886Y-84522201D01*
X108098043Y-84370629D01*
X107998721Y-84329489D01*
X108040832Y-84314277D01*
X108153863Y-84253860D01*
X108219388Y-84014993D01*
X108144939Y-83940544D01*
X113707000Y-83940544D01*
X113707000Y-84207456D01*
X113759072Y-84469239D01*
X113861215Y-84715833D01*
X114009503Y-84937762D01*
X114198238Y-85126497D01*
X114420167Y-85274785D01*
X114666761Y-85376928D01*
X114928544Y-85429000D01*
X115195456Y-85429000D01*
X115457239Y-85376928D01*
X115703833Y-85274785D01*
X115925762Y-85126497D01*
X116114497Y-84937762D01*
X116262785Y-84715833D01*
X116364928Y-84469239D01*
X116417000Y-84207456D01*
X116417000Y-83940544D01*
X116364928Y-83678761D01*
X116262785Y-83432167D01*
X116114497Y-83210238D01*
X115925762Y-83021503D01*
X115824000Y-82953508D01*
X115824000Y-82242260D01*
X117322432Y-80743828D01*
X117449241Y-80870637D01*
X117684273Y-81027680D01*
X117945426Y-81135853D01*
X118222665Y-81191000D01*
X118505335Y-81191000D01*
X118782574Y-81135853D01*
X119043727Y-81027680D01*
X119278759Y-80870637D01*
X119478637Y-80670759D01*
X119635680Y-80435727D01*
X119743853Y-80174574D01*
X119799000Y-79897335D01*
X119799000Y-79614665D01*
X119743853Y-79337426D01*
X119635680Y-79076273D01*
X119478637Y-78841241D01*
X119278759Y-78641363D01*
X119043727Y-78484320D01*
X118782574Y-78376147D01*
X118505335Y-78321000D01*
X118222665Y-78321000D01*
X117945426Y-78376147D01*
X117684273Y-78484320D01*
X117449241Y-78641363D01*
X117249363Y-78841241D01*
X117143918Y-78999051D01*
X117083252Y-79005026D01*
X116939615Y-79048598D01*
X116807238Y-79119355D01*
X116691208Y-79214578D01*
X116667351Y-79243648D01*
X114549654Y-81361346D01*
X114520578Y-81385208D01*
X114484810Y-81428792D01*
X114425355Y-81501238D01*
X114413181Y-81524015D01*
X114354598Y-81633616D01*
X114311026Y-81777253D01*
X114302666Y-81862140D01*
X114296314Y-81926630D01*
X114300000Y-81964054D01*
X114300001Y-82953507D01*
X114198238Y-83021503D01*
X114009503Y-83210238D01*
X113861215Y-83432167D01*
X113759072Y-83678761D01*
X113707000Y-83940544D01*
X108144939Y-83940544D01*
X107442000Y-83237605D01*
X106664612Y-84014993D01*
X106730137Y-84253860D01*
X106888477Y-84328164D01*
X106785957Y-84370629D01*
X106559114Y-84522201D01*
X106366201Y-84715114D01*
X106214629Y-84941957D01*
X106110225Y-85194011D01*
X106057000Y-85461589D01*
X106057000Y-85734411D01*
X106110225Y-86001989D01*
X106214629Y-86254043D01*
X106366201Y-86480886D01*
X106559114Y-86673799D01*
X106675483Y-86751555D01*
X106567518Y-86762188D01*
X106447820Y-86798498D01*
X106337506Y-86857463D01*
X106240815Y-86936815D01*
X106161463Y-87033506D01*
X106102498Y-87143820D01*
X106066188Y-87263518D01*
X106055110Y-87376000D01*
X105701422Y-87376000D01*
X105663999Y-87372314D01*
X105626576Y-87376000D01*
X105626574Y-87376000D01*
X105514622Y-87387026D01*
X105370985Y-87430598D01*
X105238608Y-87501355D01*
X105122578Y-87596578D01*
X105098721Y-87625648D01*
X104559000Y-88165369D01*
X104559000Y-87996665D01*
X104503853Y-87719426D01*
X104395680Y-87458273D01*
X104238637Y-87223241D01*
X104038759Y-87023363D01*
X103806241Y-86868000D01*
X104038759Y-86712637D01*
X104238637Y-86512759D01*
X104395680Y-86277727D01*
X104503853Y-86016574D01*
X104559000Y-85739335D01*
X104559000Y-85456665D01*
X104503853Y-85179426D01*
X104395680Y-84918273D01*
X104238637Y-84683241D01*
X104038759Y-84483363D01*
X103806241Y-84328000D01*
X104038759Y-84172637D01*
X104238637Y-83972759D01*
X104395680Y-83737727D01*
X104503853Y-83476574D01*
X104559000Y-83199335D01*
X104559000Y-83130492D01*
X106052188Y-83130492D01*
X106093035Y-83400238D01*
X106185723Y-83656832D01*
X106246140Y-83769863D01*
X106485007Y-83835388D01*
X107262395Y-83058000D01*
X107621605Y-83058000D01*
X108398993Y-83835388D01*
X108637860Y-83769863D01*
X108753760Y-83522884D01*
X108819250Y-83258040D01*
X108831812Y-82985508D01*
X108790965Y-82715762D01*
X108698277Y-82459168D01*
X108637860Y-82346137D01*
X108398993Y-82280612D01*
X107621605Y-83058000D01*
X107262395Y-83058000D01*
X106485007Y-82280612D01*
X106246140Y-82346137D01*
X106130240Y-82593116D01*
X106064750Y-82857960D01*
X106052188Y-83130492D01*
X104559000Y-83130492D01*
X104559000Y-82916665D01*
X104503853Y-82639426D01*
X104395680Y-82378273D01*
X104238637Y-82143241D01*
X104196403Y-82101007D01*
X106664612Y-82101007D01*
X107442000Y-82878395D01*
X108219388Y-82101007D01*
X108153863Y-81862140D01*
X107906884Y-81746240D01*
X107642040Y-81680750D01*
X107369508Y-81668188D01*
X107099762Y-81709035D01*
X106843168Y-81801723D01*
X106730137Y-81862140D01*
X106664612Y-82101007D01*
X104196403Y-82101007D01*
X104038759Y-81943363D01*
X103803727Y-81786320D01*
X103542574Y-81678147D01*
X103265335Y-81623000D01*
X102982665Y-81623000D01*
X102705426Y-81678147D01*
X102444273Y-81786320D01*
X102209241Y-81943363D01*
X102009363Y-82143241D01*
X101852320Y-82378273D01*
X101744147Y-82639426D01*
X101689000Y-82916665D01*
X101689000Y-83085370D01*
X101092000Y-82488370D01*
X101092000Y-80972707D01*
X101244759Y-80870637D01*
X101444637Y-80670759D01*
X101601680Y-80435727D01*
X101709853Y-80174574D01*
X101765000Y-79897335D01*
X101765000Y-79756000D01*
X106508057Y-79756000D01*
X106535764Y-80037309D01*
X106617818Y-80307808D01*
X106751068Y-80557101D01*
X106930392Y-80775608D01*
X107148899Y-80954932D01*
X107398192Y-81088182D01*
X107668691Y-81170236D01*
X107879508Y-81191000D01*
X108020492Y-81191000D01*
X108231309Y-81170236D01*
X108501808Y-81088182D01*
X108751101Y-80954932D01*
X108969608Y-80775608D01*
X109148932Y-80557101D01*
X109282182Y-80307808D01*
X109364236Y-80037309D01*
X109379434Y-79883002D01*
X109474084Y-79883002D01*
X109352096Y-80105039D01*
X109392754Y-80239087D01*
X109512963Y-80493420D01*
X109680481Y-80719414D01*
X109888869Y-80908385D01*
X110130119Y-81053070D01*
X110394960Y-81147909D01*
X110617000Y-81026624D01*
X110617000Y-79883000D01*
X110871000Y-79883000D01*
X110871000Y-81026624D01*
X111093040Y-81147909D01*
X111357881Y-81053070D01*
X111599131Y-80908385D01*
X111807519Y-80719414D01*
X111975037Y-80493420D01*
X112095246Y-80239087D01*
X112135904Y-80105039D01*
X112013915Y-79883000D01*
X110871000Y-79883000D01*
X110617000Y-79883000D01*
X110597000Y-79883000D01*
X110597000Y-79629000D01*
X110617000Y-79629000D01*
X110617000Y-78485376D01*
X110871000Y-78485376D01*
X110871000Y-79629000D01*
X112013915Y-79629000D01*
X112135904Y-79406961D01*
X112095246Y-79272913D01*
X111975037Y-79018580D01*
X111807519Y-78792586D01*
X111599131Y-78603615D01*
X111357881Y-78458930D01*
X111093040Y-78364091D01*
X110871000Y-78485376D01*
X110617000Y-78485376D01*
X110394960Y-78364091D01*
X110130119Y-78458930D01*
X109888869Y-78603615D01*
X109680481Y-78792586D01*
X109512963Y-79018580D01*
X109392754Y-79272913D01*
X109352096Y-79406961D01*
X109474084Y-79628998D01*
X109379434Y-79628998D01*
X109364236Y-79474691D01*
X109282182Y-79204192D01*
X109148932Y-78954899D01*
X108969608Y-78736392D01*
X108751101Y-78557068D01*
X108501808Y-78423818D01*
X108231309Y-78341764D01*
X108020492Y-78321000D01*
X107879508Y-78321000D01*
X107668691Y-78341764D01*
X107398192Y-78423818D01*
X107148899Y-78557068D01*
X106930392Y-78736392D01*
X106751068Y-78954899D01*
X106617818Y-79204192D01*
X106535764Y-79474691D01*
X106508057Y-79756000D01*
X101765000Y-79756000D01*
X101765000Y-79614665D01*
X101709853Y-79337426D01*
X101601680Y-79076273D01*
X101444637Y-78841241D01*
X101244759Y-78641363D01*
X101009727Y-78484320D01*
X100748574Y-78376147D01*
X100471335Y-78321000D01*
X100188665Y-78321000D01*
X99911426Y-78376147D01*
X99650273Y-78484320D01*
X99415241Y-78641363D01*
X99215363Y-78841241D01*
X99185874Y-78885374D01*
X99063608Y-78736392D01*
X98845101Y-78557068D01*
X98595808Y-78423818D01*
X98325309Y-78341764D01*
X98114492Y-78321000D01*
X97973508Y-78321000D01*
X97762691Y-78341764D01*
X97492192Y-78423818D01*
X97242899Y-78557068D01*
X97024392Y-78736392D01*
X96845068Y-78954899D01*
X96711818Y-79204192D01*
X96629764Y-79474691D01*
X96602057Y-79756000D01*
X96629764Y-80037309D01*
X96711818Y-80307808D01*
X96845068Y-80557101D01*
X97024392Y-80775608D01*
X97242899Y-80954932D01*
X97492192Y-81088182D01*
X97762691Y-81170236D01*
X97973508Y-81191000D01*
X98114492Y-81191000D01*
X98325309Y-81170236D01*
X98595808Y-81088182D01*
X98845101Y-80954932D01*
X99063608Y-80775608D01*
X99185874Y-80626626D01*
X99215363Y-80670759D01*
X99415241Y-80870637D01*
X99568001Y-80972707D01*
X99568000Y-82766577D01*
X99564314Y-82804000D01*
X99568000Y-82841423D01*
X99568000Y-82841425D01*
X99579026Y-82953377D01*
X99622598Y-83097014D01*
X99655535Y-83158635D01*
X99693355Y-83229392D01*
X99716866Y-83258040D01*
X99788578Y-83345422D01*
X99817654Y-83369284D01*
X101724843Y-85276473D01*
X101689000Y-85456665D01*
X101689000Y-85739335D01*
X101744147Y-86016574D01*
X101852320Y-86277727D01*
X102009363Y-86512759D01*
X102209241Y-86712637D01*
X102441759Y-86868000D01*
X102209241Y-87023363D01*
X102009363Y-87223241D01*
X101907293Y-87376000D01*
X98359631Y-87376000D01*
X96903157Y-85919527D01*
X96939000Y-85739335D01*
X96939000Y-85456665D01*
X96883853Y-85179426D01*
X96775680Y-84918273D01*
X96618637Y-84683241D01*
X96420039Y-84484643D01*
X96428482Y-84483812D01*
X96548180Y-84447502D01*
X96658494Y-84388537D01*
X96755185Y-84309185D01*
X96834537Y-84212494D01*
X96893502Y-84102180D01*
X96929812Y-83982482D01*
X96942072Y-83858000D01*
X96939000Y-83343750D01*
X96780250Y-83185000D01*
X95631000Y-83185000D01*
X95631000Y-83205000D01*
X95377000Y-83205000D01*
X95377000Y-83185000D01*
X94227750Y-83185000D01*
X94069000Y-83343750D01*
X94065928Y-83858000D01*
X94078188Y-83982482D01*
X94114498Y-84102180D01*
X94173463Y-84212494D01*
X94252815Y-84309185D01*
X94349506Y-84388537D01*
X94459820Y-84447502D01*
X94579518Y-84483812D01*
X94587961Y-84484643D01*
X94389363Y-84683241D01*
X94287293Y-84836000D01*
X94041631Y-84836000D01*
X92753006Y-83547375D01*
X92758168Y-83534912D01*
X92821000Y-83219033D01*
X92821000Y-82896967D01*
X92758168Y-82581088D01*
X92634918Y-82283537D01*
X92617855Y-82258000D01*
X94065928Y-82258000D01*
X94069000Y-82772250D01*
X94227750Y-82931000D01*
X95377000Y-82931000D01*
X95377000Y-81781750D01*
X95631000Y-81781750D01*
X95631000Y-82931000D01*
X96780250Y-82931000D01*
X96939000Y-82772250D01*
X96942072Y-82258000D01*
X96929812Y-82133518D01*
X96893502Y-82013820D01*
X96834537Y-81903506D01*
X96755185Y-81806815D01*
X96658494Y-81727463D01*
X96548180Y-81668498D01*
X96428482Y-81632188D01*
X96304000Y-81619928D01*
X95789750Y-81623000D01*
X95631000Y-81781750D01*
X95377000Y-81781750D01*
X95218250Y-81623000D01*
X94704000Y-81619928D01*
X94579518Y-81632188D01*
X94459820Y-81668498D01*
X94349506Y-81727463D01*
X94252815Y-81806815D01*
X94173463Y-81903506D01*
X94114498Y-82013820D01*
X94078188Y-82133518D01*
X94065928Y-82258000D01*
X92617855Y-82258000D01*
X92455987Y-82015748D01*
X92228252Y-81788013D01*
X91960463Y-81609082D01*
X91947749Y-81603816D01*
X91936974Y-81494409D01*
X91893402Y-81350772D01*
X91822645Y-81218395D01*
X91727422Y-81102365D01*
X91698347Y-81078504D01*
X91641497Y-81021654D01*
X91617635Y-80992578D01*
X91557431Y-80943170D01*
X91411828Y-80797568D01*
X91538637Y-80670759D01*
X91695680Y-80435727D01*
X91803853Y-80174574D01*
X91859000Y-79897335D01*
X91859000Y-79614665D01*
X91803853Y-79337426D01*
X91695680Y-79076273D01*
X91538637Y-78841241D01*
X91338759Y-78641363D01*
X91103727Y-78484320D01*
X90842574Y-78376147D01*
X90565335Y-78321000D01*
X90282665Y-78321000D01*
X90005426Y-78376147D01*
X89744273Y-78484320D01*
X89509241Y-78641363D01*
X89309363Y-78841241D01*
X89152320Y-79076273D01*
X89044147Y-79337426D01*
X88989000Y-79614665D01*
X88544000Y-79614665D01*
X88544000Y-78130000D01*
X120244000Y-78130000D01*
X120244001Y-117450000D01*
M02*
