M48
; DRILL file {KiCad (5.1.0)-1} date 8/12/2021 2:51:47 AM
; FORMAT={-:-/ absolute / inch / decimal}
; #@! TF.CreationDate,2021-08-12T02:51:47-05:00
; #@! TF.GenerationSoftware,Kicad,Pcbnew,(5.1.0)-1
; #@! TF.FileFunction,Plated,1,2,PTH
FMAT,2
INCH
T1C0.0315
T2C0.0354
T3C0.0394
T4C0.0398
T5C0.0433
T6C0.0512
%
G90
G05
T1
X4.46Y-3.95
X4.46Y-4.25
X3.8225Y-3.68
X4.0975Y-3.68
X3.95Y-3.14
X4.25Y-3.14
X4.24Y-4.3716
X4.24Y-4.47
X4.19Y-3.25
X4.19Y-3.35
X4.19Y-3.45
X4.4016Y-4.44
X4.5Y-4.44
X4.36Y-3.14
X4.66Y-3.14
X4.33Y-3.92
X4.33Y-4.0184
X4.66Y-4.37
X4.66Y-4.67
X3.56Y-3.14
X3.86Y-3.14
X4.5616Y-3.92
X4.66Y-3.92
X3.91Y-4.37
X3.91Y-4.67
X4.36Y-3.8
X4.66Y-3.8
X4.53Y-3.31
X4.53Y-3.51
X4.63Y-3.41
X4.36Y-3.68
X4.66Y-3.68
T2
X4.24Y-3.5153
X4.24Y-3.6176
X4.24Y-3.72
T3
X4.66Y-4.05
X4.66Y-4.15
X4.66Y-4.25
X3.58Y-4.17
X3.7769Y-4.17
X4.09Y-4.2
X4.19Y-4.2
X4.29Y-4.2
X3.55Y-3.81
X3.55Y-3.91
X3.59Y-3.27
X3.59Y-3.6637
X3.76Y-3.27
X3.76Y-3.37
X3.76Y-3.47
X3.76Y-3.57
X4.06Y-3.27
X4.06Y-3.37
X4.06Y-3.47
X4.06Y-3.57
T4
X3.8628Y-3.9808
X3.91Y-3.78
T5
X4.23Y-4.66
X4.53Y-4.66
X3.72Y-3.79
X3.72Y-3.89
X4.04Y-4.43
X4.04Y-4.53
X4.04Y-4.63
T6
X3.66Y-4.46
X3.66Y-4.6569
T0
M30
