M48
; DRILL file {KiCad (5.1.0)-1} date 7/24/2021 1:49:09 AM
; FORMAT={-:-/ absolute / inch / decimal}
; #@! TF.CreationDate,2021-07-24T01:49:09-05:00
; #@! TF.GenerationSoftware,Kicad,Pcbnew,(5.1.0)-1
; #@! TF.FileFunction,Plated,1,2,PTH
FMAT,2
INCH
T1C0.0315
T2C0.0354
T3C0.0394
T4C0.0398
T5C0.0433
T6C0.0512
%
G90
G05
T1
X3.9616Y-4.31
X3.95Y-3.14
X3.56Y-3.14
X4.43Y-4.4316
X4.43Y-4.53
X4.36Y-3.14
X4.66Y-3.14
X4.66Y-4.29
X4.66Y-4.59
X4.23Y-3.27
X4.23Y-3.37
X4.23Y-3.47
X3.76Y-3.7
X4.06Y-3.7
X4.36Y-3.68
X4.66Y-3.68
X4.45Y-3.94
X4.45Y-4.24
X4.36Y-3.81
X4.66Y-3.81
X4.06Y-4.31
X4.25Y-3.14
X3.86Y-3.14
X4.53Y-3.31
X4.53Y-3.51
X4.63Y-3.41
X3.9Y-4.43
X4.2Y-4.43
T2
X4.23Y-3.5753
X4.23Y-3.6776
X4.23Y-3.78
T3
X3.57Y-3.84
X3.57Y-3.94
X4.66Y-3.97
X4.66Y-4.07
X4.66Y-4.17
X3.76Y-3.27
X3.76Y-3.37
X3.76Y-3.47
X3.76Y-3.57
X4.06Y-3.27
X4.06Y-3.37
X4.06Y-3.47
X4.06Y-3.57
X3.59Y-3.27
X3.59Y-3.6637
X4.0631Y-4.04
X4.26Y-4.04
T4
X3.7Y-3.84
X3.9008Y-3.8872
T5
X3.61Y-4.12
X3.71Y-4.12
X3.81Y-4.12
X3.9Y-4.55
X4.2Y-4.55
T6
X3.57Y-4.45
X3.7669Y-4.45
T0
M30
