G04 #@! TF.GenerationSoftware,KiCad,Pcbnew,(5.1.0)-1*
G04 #@! TF.CreationDate,2021-08-07T23:55:13-05:00*
G04 #@! TF.ProjectId,nixie_legacy-power,6e697869-655f-46c6-9567-6163792d706f,rev?*
G04 #@! TF.SameCoordinates,Original*
G04 #@! TF.FileFunction,Copper,L1,Top*
G04 #@! TF.FilePolarity,Positive*
%FSLAX46Y46*%
G04 Gerber Fmt 4.6, Leading zero omitted, Abs format (unit mm)*
G04 Created by KiCad (PCBNEW (5.1.0)-1) date 2021-08-07 23:55:13*
%MOMM*%
%LPD*%
G04 APERTURE LIST*
%ADD10C,0.200000*%
%ADD11R,2.000000X1.905000*%
%ADD12O,2.000000X1.905000*%
%ADD13C,2.000000*%
%ADD14R,2.000000X2.000000*%
%ADD15C,1.600000*%
%ADD16R,1.600000X1.600000*%
%ADD17C,2.600000*%
%ADD18O,1.600000X1.600000*%
%ADD19O,2.200000X2.200000*%
%ADD20R,2.200000X2.200000*%
%ADD21O,1.700000X1.700000*%
%ADD22R,1.700000X1.700000*%
%ADD23R,1.500000X1.500000*%
%ADD24C,1.500000*%
%ADD25C,1.440000*%
%ADD26C,2.010000*%
%ADD27C,0.635000*%
%ADD28C,0.254000*%
G04 APERTURE END LIST*
D10*
X89421857Y-117979142D02*
X88588523Y-118276761D01*
X89421857Y-118574380D01*
X89719476Y-118991047D02*
X89779000Y-119050571D01*
X89838523Y-119169619D01*
X89838523Y-119467238D01*
X89779000Y-119586285D01*
X89719476Y-119645809D01*
X89600428Y-119705333D01*
X89481380Y-119705333D01*
X89302809Y-119645809D01*
X88588523Y-118931523D01*
X88588523Y-119705333D01*
X88588523Y-107877095D02*
X89838523Y-107877095D01*
X88588523Y-108591380D01*
X89838523Y-108591380D01*
X88588523Y-109186619D02*
X89421857Y-109186619D01*
X89838523Y-109186619D02*
X89779000Y-109127095D01*
X89719476Y-109186619D01*
X89779000Y-109246142D01*
X89838523Y-109186619D01*
X89719476Y-109186619D01*
X88588523Y-109662809D02*
X89421857Y-110317571D01*
X89421857Y-109662809D02*
X88588523Y-110317571D01*
X88588523Y-110793761D02*
X89421857Y-110793761D01*
X89838523Y-110793761D02*
X89779000Y-110734238D01*
X89719476Y-110793761D01*
X89779000Y-110853285D01*
X89838523Y-110793761D01*
X89719476Y-110793761D01*
X88648047Y-111865190D02*
X88588523Y-111746142D01*
X88588523Y-111508047D01*
X88648047Y-111389000D01*
X88767095Y-111329476D01*
X89243285Y-111329476D01*
X89362333Y-111389000D01*
X89421857Y-111508047D01*
X89421857Y-111746142D01*
X89362333Y-111865190D01*
X89243285Y-111924714D01*
X89124238Y-111924714D01*
X89005190Y-111329476D01*
X88588523Y-113412809D02*
X89838523Y-113412809D01*
X89838523Y-113889000D01*
X89779000Y-114008047D01*
X89719476Y-114067571D01*
X89600428Y-114127095D01*
X89421857Y-114127095D01*
X89302809Y-114067571D01*
X89243285Y-114008047D01*
X89183761Y-113889000D01*
X89183761Y-113412809D01*
X89421857Y-114543761D02*
X88588523Y-114781857D01*
X89183761Y-115019952D01*
X88588523Y-115258047D01*
X89421857Y-115496142D01*
X88588523Y-115972333D02*
X89421857Y-115972333D01*
X89183761Y-115972333D02*
X89302809Y-116031857D01*
X89362333Y-116091380D01*
X89421857Y-116210428D01*
X89421857Y-116329476D01*
D11*
X102616000Y-112522000D03*
D12*
X102616000Y-115062000D03*
X102616000Y-117602000D03*
D13*
X98298000Y-105410000D03*
D14*
X93298000Y-105410000D03*
D15*
X114300000Y-112776000D03*
D16*
X111800000Y-112776000D03*
D17*
X92964000Y-117522000D03*
X92964000Y-112522000D03*
D18*
X99314000Y-110998000D03*
D15*
X99314000Y-118618000D03*
D19*
X107442000Y-118364000D03*
D20*
X115062000Y-118364000D03*
D18*
X118364000Y-118618000D03*
D15*
X118364000Y-110998000D03*
D18*
X113284000Y-107188000D03*
D15*
X113284000Y-99568000D03*
D21*
X118364000Y-107950000D03*
X118364000Y-105410000D03*
D22*
X118364000Y-102870000D03*
D21*
X90424000Y-99568000D03*
D22*
X90424000Y-97028000D03*
D15*
X107696000Y-113538000D03*
X107696000Y-111038000D03*
D13*
X108966000Y-106680000D03*
X106426000Y-106680000D03*
D14*
X103886000Y-106680000D03*
D15*
X115864000Y-99568000D03*
X118364000Y-99568000D03*
X110236000Y-99608000D03*
X110236000Y-102108000D03*
D18*
X118364000Y-96520000D03*
D16*
X110744000Y-96520000D03*
D23*
X107442000Y-88138000D03*
D24*
X107442000Y-83058000D03*
X107442000Y-85598000D03*
D15*
X103124000Y-83058000D03*
X103124000Y-85598000D03*
X103124000Y-88138000D03*
X103124000Y-90678000D03*
X95504000Y-90678000D03*
X95504000Y-88138000D03*
X95504000Y-85598000D03*
D16*
X95504000Y-83058000D03*
D25*
X115062000Y-89154000D03*
X117602000Y-86614000D03*
X115062000Y-84074000D03*
D18*
X110744000Y-79756000D03*
D15*
X118364000Y-79756000D03*
D18*
X118364000Y-93472000D03*
D15*
X110744000Y-93472000D03*
D18*
X107950000Y-79756000D03*
D15*
X100330000Y-79756000D03*
D18*
X98044000Y-79756000D03*
D15*
X90424000Y-79756000D03*
D18*
X103124000Y-93980000D03*
D15*
X95504000Y-93980000D03*
D23*
X107442000Y-96012000D03*
D24*
X107442000Y-90812000D03*
X107442000Y-93412000D03*
D26*
X98826000Y-98228000D03*
X93726000Y-97028000D03*
D13*
X91186000Y-93058000D03*
X91186000Y-83058000D03*
D27*
X106426000Y-79756000D02*
X103124000Y-83058000D01*
X107950000Y-79756000D02*
X106426000Y-79756000D01*
X103124000Y-83058000D02*
X95504000Y-90678000D01*
X95504000Y-90678000D02*
X95504000Y-93980000D01*
X92964000Y-110683523D02*
X92964000Y-112522000D01*
X93784394Y-109863129D02*
X92964000Y-110683523D01*
X93784394Y-107531394D02*
X93784394Y-109863129D01*
X93298000Y-107045000D02*
X93784394Y-107531394D01*
X93298000Y-105410000D02*
X93298000Y-107045000D01*
X99324000Y-98726000D02*
X99324000Y-98736000D01*
X98826000Y-98228000D02*
X99324000Y-98726000D01*
X93298000Y-103775000D02*
X93298000Y-105410000D01*
X98826000Y-98247000D02*
X93298000Y-103775000D01*
X98826000Y-98228000D02*
X98826000Y-98247000D01*
X98572000Y-98228000D02*
X98826000Y-98228000D01*
X95504000Y-93980000D02*
X95504000Y-95160000D01*
X95504000Y-95160000D02*
X98572000Y-98228000D01*
X105410000Y-104902000D02*
X107442000Y-104902000D01*
X98826000Y-101620000D02*
X100330000Y-103124000D01*
X107442000Y-104902000D02*
X110236000Y-102108000D01*
X98826000Y-98228000D02*
X98826000Y-101620000D01*
X100330000Y-103124000D02*
X100330000Y-104505000D01*
X100330000Y-104505000D02*
X102251000Y-106426000D01*
X102251000Y-106426000D02*
X103886000Y-106426000D01*
X103886000Y-106426000D02*
X105410000Y-104902000D01*
D28*
G36*
X120244001Y-119990000D02*
G01*
X118784544Y-119990000D01*
X118915808Y-119950182D01*
X119165101Y-119816932D01*
X119383608Y-119637608D01*
X119562932Y-119419101D01*
X119696182Y-119169808D01*
X119778236Y-118899309D01*
X119805943Y-118618000D01*
X119778236Y-118336691D01*
X119696182Y-118066192D01*
X119562932Y-117816899D01*
X119383608Y-117598392D01*
X119165101Y-117419068D01*
X118915808Y-117285818D01*
X118645309Y-117203764D01*
X118434492Y-117183000D01*
X118293508Y-117183000D01*
X118082691Y-117203764D01*
X117812192Y-117285818D01*
X117562899Y-117419068D01*
X117344392Y-117598392D01*
X117165068Y-117816899D01*
X117031818Y-118066192D01*
X116949764Y-118336691D01*
X116922057Y-118618000D01*
X116949764Y-118899309D01*
X117031818Y-119169808D01*
X117165068Y-119419101D01*
X117344392Y-119637608D01*
X117562899Y-119816932D01*
X117812192Y-119950182D01*
X117943456Y-119990000D01*
X116522022Y-119990000D01*
X116613185Y-119915185D01*
X116692537Y-119818494D01*
X116751502Y-119708180D01*
X116787812Y-119588482D01*
X116800072Y-119464000D01*
X116800072Y-117264000D01*
X116787812Y-117139518D01*
X116751502Y-117019820D01*
X116692537Y-116909506D01*
X116613185Y-116812815D01*
X116516494Y-116733463D01*
X116406180Y-116674498D01*
X116286482Y-116638188D01*
X116162000Y-116625928D01*
X113962000Y-116625928D01*
X113837518Y-116638188D01*
X113717820Y-116674498D01*
X113607506Y-116733463D01*
X113510815Y-116812815D01*
X113431463Y-116909506D01*
X113372498Y-117019820D01*
X113336188Y-117139518D01*
X113323928Y-117264000D01*
X113323928Y-119464000D01*
X113336188Y-119588482D01*
X113372498Y-119708180D01*
X113431463Y-119818494D01*
X113510815Y-119915185D01*
X113601978Y-119990000D01*
X108058684Y-119990000D01*
X108109168Y-119974686D01*
X108410578Y-119813579D01*
X108674766Y-119596766D01*
X108891579Y-119332578D01*
X109052686Y-119031168D01*
X109151895Y-118704119D01*
X109185394Y-118364000D01*
X109151895Y-118023881D01*
X109052686Y-117696832D01*
X108891579Y-117395422D01*
X108674766Y-117131234D01*
X108410578Y-116914421D01*
X108109168Y-116753314D01*
X107782119Y-116654105D01*
X107527225Y-116629000D01*
X107356775Y-116629000D01*
X107101881Y-116654105D01*
X106774832Y-116753314D01*
X106473422Y-116914421D01*
X106209234Y-117131234D01*
X105992421Y-117395422D01*
X105831314Y-117696832D01*
X105732105Y-118023881D01*
X105698606Y-118364000D01*
X105732105Y-118704119D01*
X105831314Y-119031168D01*
X105992421Y-119332578D01*
X106209234Y-119596766D01*
X106473422Y-119813579D01*
X106774832Y-119974686D01*
X106825316Y-119990000D01*
X99751533Y-119990000D01*
X99993727Y-119889680D01*
X100228759Y-119732637D01*
X100428637Y-119532759D01*
X100585680Y-119297727D01*
X100693853Y-119036574D01*
X100749000Y-118759335D01*
X100749000Y-118476665D01*
X100693853Y-118199426D01*
X100600885Y-117974980D01*
X101025437Y-117974980D01*
X101096429Y-118193094D01*
X101240031Y-118468923D01*
X101434685Y-118711437D01*
X101672911Y-118911316D01*
X101945554Y-119060879D01*
X102242137Y-119154378D01*
X102489000Y-119027570D01*
X102489000Y-117729000D01*
X102743000Y-117729000D01*
X102743000Y-119027570D01*
X102989863Y-119154378D01*
X103286446Y-119060879D01*
X103559089Y-118911316D01*
X103797315Y-118711437D01*
X103991969Y-118468923D01*
X104135571Y-118193094D01*
X104206563Y-117974980D01*
X104086594Y-117729000D01*
X102743000Y-117729000D01*
X102489000Y-117729000D01*
X101145406Y-117729000D01*
X101025437Y-117974980D01*
X100600885Y-117974980D01*
X100585680Y-117938273D01*
X100428637Y-117703241D01*
X100228759Y-117503363D01*
X99993727Y-117346320D01*
X99732574Y-117238147D01*
X99455335Y-117183000D01*
X99172665Y-117183000D01*
X98895426Y-117238147D01*
X98634273Y-117346320D01*
X98399241Y-117503363D01*
X98199363Y-117703241D01*
X98042320Y-117938273D01*
X97934147Y-118199426D01*
X97879000Y-118476665D01*
X97879000Y-118759335D01*
X97934147Y-119036574D01*
X98042320Y-119297727D01*
X98199363Y-119532759D01*
X98399241Y-119732637D01*
X98634273Y-119889680D01*
X98876467Y-119990000D01*
X90739000Y-119990000D01*
X90739000Y-117331419D01*
X91029000Y-117331419D01*
X91029000Y-117712581D01*
X91103361Y-118086419D01*
X91249225Y-118438566D01*
X91460987Y-118755491D01*
X91730509Y-119025013D01*
X92047434Y-119236775D01*
X92399581Y-119382639D01*
X92773419Y-119457000D01*
X93154581Y-119457000D01*
X93528419Y-119382639D01*
X93880566Y-119236775D01*
X94197491Y-119025013D01*
X94467013Y-118755491D01*
X94678775Y-118438566D01*
X94824639Y-118086419D01*
X94899000Y-117712581D01*
X94899000Y-117331419D01*
X94824639Y-116957581D01*
X94678775Y-116605434D01*
X94467013Y-116288509D01*
X94197491Y-116018987D01*
X93880566Y-115807225D01*
X93528419Y-115661361D01*
X93154581Y-115587000D01*
X92773419Y-115587000D01*
X92399581Y-115661361D01*
X92047434Y-115807225D01*
X91730509Y-116018987D01*
X91460987Y-116288509D01*
X91249225Y-116605434D01*
X91103361Y-116957581D01*
X91029000Y-117331419D01*
X90739000Y-117331419D01*
X90739000Y-115062000D01*
X100973319Y-115062000D01*
X101003970Y-115373204D01*
X101094745Y-115672449D01*
X101242155Y-115948235D01*
X101440537Y-116189963D01*
X101619899Y-116337163D01*
X101434685Y-116492563D01*
X101240031Y-116735077D01*
X101096429Y-117010906D01*
X101025437Y-117229020D01*
X101145406Y-117475000D01*
X102489000Y-117475000D01*
X102489000Y-117455000D01*
X102743000Y-117455000D01*
X102743000Y-117475000D01*
X104086594Y-117475000D01*
X104206563Y-117229020D01*
X104135571Y-117010906D01*
X103991969Y-116735077D01*
X103797315Y-116492563D01*
X103612101Y-116337163D01*
X103791463Y-116189963D01*
X103989845Y-115948235D01*
X104137255Y-115672449D01*
X104228030Y-115373204D01*
X104258681Y-115062000D01*
X104228030Y-114750796D01*
X104161266Y-114530702D01*
X106882903Y-114530702D01*
X106954486Y-114774671D01*
X107209996Y-114895571D01*
X107484184Y-114964300D01*
X107766512Y-114978217D01*
X108046130Y-114936787D01*
X108312292Y-114841603D01*
X108437514Y-114774671D01*
X108509097Y-114530702D01*
X107696000Y-113717605D01*
X106882903Y-114530702D01*
X104161266Y-114530702D01*
X104137255Y-114451551D01*
X103989845Y-114175765D01*
X103886554Y-114049905D01*
X103970494Y-114005037D01*
X104067185Y-113925685D01*
X104146537Y-113828994D01*
X104205502Y-113718680D01*
X104238921Y-113608512D01*
X106255783Y-113608512D01*
X106297213Y-113888130D01*
X106392397Y-114154292D01*
X106459329Y-114279514D01*
X106703298Y-114351097D01*
X107516395Y-113538000D01*
X107875605Y-113538000D01*
X108688702Y-114351097D01*
X108932671Y-114279514D01*
X109053571Y-114024004D01*
X109122300Y-113749816D01*
X109136217Y-113467488D01*
X109094787Y-113187870D01*
X108999603Y-112921708D01*
X108932671Y-112796486D01*
X108688702Y-112724903D01*
X107875605Y-113538000D01*
X107516395Y-113538000D01*
X106703298Y-112724903D01*
X106459329Y-112796486D01*
X106338429Y-113051996D01*
X106269700Y-113326184D01*
X106255783Y-113608512D01*
X104238921Y-113608512D01*
X104241812Y-113598982D01*
X104254072Y-113474500D01*
X104254072Y-111569500D01*
X104241812Y-111445018D01*
X104205502Y-111325320D01*
X104146537Y-111215006D01*
X104067185Y-111118315D01*
X103970494Y-111038963D01*
X103860180Y-110979998D01*
X103740482Y-110943688D01*
X103616000Y-110931428D01*
X101616000Y-110931428D01*
X101491518Y-110943688D01*
X101371820Y-110979998D01*
X101261506Y-111038963D01*
X101164815Y-111118315D01*
X101085463Y-111215006D01*
X101026498Y-111325320D01*
X100990188Y-111445018D01*
X100977928Y-111569500D01*
X100977928Y-113474500D01*
X100990188Y-113598982D01*
X101026498Y-113718680D01*
X101085463Y-113828994D01*
X101164815Y-113925685D01*
X101261506Y-114005037D01*
X101345446Y-114049905D01*
X101242155Y-114175765D01*
X101094745Y-114451551D01*
X101003970Y-114750796D01*
X100973319Y-115062000D01*
X90739000Y-115062000D01*
X90739000Y-112331419D01*
X91029000Y-112331419D01*
X91029000Y-112712581D01*
X91103361Y-113086419D01*
X91249225Y-113438566D01*
X91460987Y-113755491D01*
X91730509Y-114025013D01*
X92047434Y-114236775D01*
X92399581Y-114382639D01*
X92773419Y-114457000D01*
X93154581Y-114457000D01*
X93528419Y-114382639D01*
X93880566Y-114236775D01*
X94197491Y-114025013D01*
X94467013Y-113755491D01*
X94678775Y-113438566D01*
X94824639Y-113086419D01*
X94899000Y-112712581D01*
X94899000Y-112331419D01*
X94824639Y-111957581D01*
X94678775Y-111605434D01*
X94467013Y-111288509D01*
X94197491Y-111018987D01*
X94166082Y-110998000D01*
X97872057Y-110998000D01*
X97899764Y-111279309D01*
X97981818Y-111549808D01*
X98115068Y-111799101D01*
X98294392Y-112017608D01*
X98512899Y-112196932D01*
X98762192Y-112330182D01*
X99032691Y-112412236D01*
X99243508Y-112433000D01*
X99384492Y-112433000D01*
X99595309Y-112412236D01*
X99865808Y-112330182D01*
X100115101Y-112196932D01*
X100333608Y-112017608D01*
X100512932Y-111799101D01*
X100646182Y-111549808D01*
X100728236Y-111279309D01*
X100755943Y-110998000D01*
X100745963Y-110896665D01*
X106261000Y-110896665D01*
X106261000Y-111179335D01*
X106316147Y-111456574D01*
X106424320Y-111717727D01*
X106581363Y-111952759D01*
X106781241Y-112152637D01*
X106981869Y-112286692D01*
X106954486Y-112301329D01*
X106882903Y-112545298D01*
X107696000Y-113358395D01*
X108509097Y-112545298D01*
X108437514Y-112301329D01*
X108408659Y-112287676D01*
X108610759Y-112152637D01*
X108787396Y-111976000D01*
X110361928Y-111976000D01*
X110361928Y-113576000D01*
X110374188Y-113700482D01*
X110410498Y-113820180D01*
X110469463Y-113930494D01*
X110548815Y-114027185D01*
X110645506Y-114106537D01*
X110755820Y-114165502D01*
X110875518Y-114201812D01*
X111000000Y-114214072D01*
X112600000Y-114214072D01*
X112724482Y-114201812D01*
X112844180Y-114165502D01*
X112954494Y-114106537D01*
X113051185Y-114027185D01*
X113130537Y-113930494D01*
X113189502Y-113820180D01*
X113205117Y-113768702D01*
X113486903Y-113768702D01*
X113558486Y-114012671D01*
X113813996Y-114133571D01*
X114088184Y-114202300D01*
X114370512Y-114216217D01*
X114650130Y-114174787D01*
X114916292Y-114079603D01*
X115041514Y-114012671D01*
X115113097Y-113768702D01*
X114300000Y-112955605D01*
X113486903Y-113768702D01*
X113205117Y-113768702D01*
X113225812Y-113700482D01*
X113238072Y-113576000D01*
X113238072Y-113568785D01*
X113307298Y-113589097D01*
X114120395Y-112776000D01*
X114479605Y-112776000D01*
X115292702Y-113589097D01*
X115536671Y-113517514D01*
X115657571Y-113262004D01*
X115726300Y-112987816D01*
X115740217Y-112705488D01*
X115698787Y-112425870D01*
X115603603Y-112159708D01*
X115536671Y-112034486D01*
X115292702Y-111962903D01*
X114479605Y-112776000D01*
X114120395Y-112776000D01*
X113307298Y-111962903D01*
X113238072Y-111983215D01*
X113238072Y-111976000D01*
X113225812Y-111851518D01*
X113205118Y-111783298D01*
X113486903Y-111783298D01*
X114300000Y-112596395D01*
X115113097Y-111783298D01*
X115041514Y-111539329D01*
X114786004Y-111418429D01*
X114511816Y-111349700D01*
X114229488Y-111335783D01*
X113949870Y-111377213D01*
X113683708Y-111472397D01*
X113558486Y-111539329D01*
X113486903Y-111783298D01*
X113205118Y-111783298D01*
X113189502Y-111731820D01*
X113130537Y-111621506D01*
X113051185Y-111524815D01*
X112954494Y-111445463D01*
X112844180Y-111386498D01*
X112724482Y-111350188D01*
X112600000Y-111337928D01*
X111000000Y-111337928D01*
X110875518Y-111350188D01*
X110755820Y-111386498D01*
X110645506Y-111445463D01*
X110548815Y-111524815D01*
X110469463Y-111621506D01*
X110410498Y-111731820D01*
X110374188Y-111851518D01*
X110361928Y-111976000D01*
X108787396Y-111976000D01*
X108810637Y-111952759D01*
X108967680Y-111717727D01*
X109075853Y-111456574D01*
X109131000Y-111179335D01*
X109131000Y-110896665D01*
X109123044Y-110856665D01*
X116929000Y-110856665D01*
X116929000Y-111139335D01*
X116984147Y-111416574D01*
X117092320Y-111677727D01*
X117249363Y-111912759D01*
X117449241Y-112112637D01*
X117684273Y-112269680D01*
X117945426Y-112377853D01*
X118222665Y-112433000D01*
X118505335Y-112433000D01*
X118782574Y-112377853D01*
X119043727Y-112269680D01*
X119278759Y-112112637D01*
X119478637Y-111912759D01*
X119635680Y-111677727D01*
X119743853Y-111416574D01*
X119799000Y-111139335D01*
X119799000Y-110856665D01*
X119743853Y-110579426D01*
X119635680Y-110318273D01*
X119478637Y-110083241D01*
X119278759Y-109883363D01*
X119043727Y-109726320D01*
X118782574Y-109618147D01*
X118505335Y-109563000D01*
X118222665Y-109563000D01*
X117945426Y-109618147D01*
X117684273Y-109726320D01*
X117449241Y-109883363D01*
X117249363Y-110083241D01*
X117092320Y-110318273D01*
X116984147Y-110579426D01*
X116929000Y-110856665D01*
X109123044Y-110856665D01*
X109075853Y-110619426D01*
X108967680Y-110358273D01*
X108810637Y-110123241D01*
X108610759Y-109923363D01*
X108375727Y-109766320D01*
X108114574Y-109658147D01*
X107837335Y-109603000D01*
X107554665Y-109603000D01*
X107277426Y-109658147D01*
X107016273Y-109766320D01*
X106781241Y-109923363D01*
X106581363Y-110123241D01*
X106424320Y-110358273D01*
X106316147Y-110619426D01*
X106261000Y-110896665D01*
X100745963Y-110896665D01*
X100728236Y-110716691D01*
X100646182Y-110446192D01*
X100512932Y-110196899D01*
X100333608Y-109978392D01*
X100115101Y-109799068D01*
X99865808Y-109665818D01*
X99595309Y-109583764D01*
X99384492Y-109563000D01*
X99243508Y-109563000D01*
X99032691Y-109583764D01*
X98762192Y-109665818D01*
X98512899Y-109799068D01*
X98294392Y-109978392D01*
X98115068Y-110196899D01*
X97981818Y-110446192D01*
X97899764Y-110716691D01*
X97872057Y-110998000D01*
X94166082Y-110998000D01*
X94064461Y-110930100D01*
X94424825Y-110569736D01*
X94461172Y-110539907D01*
X94580200Y-110394870D01*
X94668646Y-110229398D01*
X94723111Y-110049852D01*
X94736894Y-109909914D01*
X94741502Y-109863130D01*
X94736894Y-109816345D01*
X94736894Y-107578179D01*
X94741502Y-107531394D01*
X94723111Y-107344671D01*
X94712670Y-107310251D01*
X94668646Y-107165125D01*
X94580200Y-106999653D01*
X94568521Y-106985422D01*
X94652494Y-106940537D01*
X94749185Y-106861185D01*
X94828537Y-106764494D01*
X94887502Y-106654180D01*
X94920496Y-106545413D01*
X97342192Y-106545413D01*
X97437956Y-106809814D01*
X97727571Y-106950704D01*
X98039108Y-107032384D01*
X98360595Y-107051718D01*
X98679675Y-107007961D01*
X98984088Y-106902795D01*
X99158044Y-106809814D01*
X99253808Y-106545413D01*
X98298000Y-105589605D01*
X97342192Y-106545413D01*
X94920496Y-106545413D01*
X94923812Y-106534482D01*
X94936072Y-106410000D01*
X94936072Y-105472595D01*
X96656282Y-105472595D01*
X96700039Y-105791675D01*
X96805205Y-106096088D01*
X96898186Y-106270044D01*
X97162587Y-106365808D01*
X98118395Y-105410000D01*
X97162587Y-104454192D01*
X96898186Y-104549956D01*
X96757296Y-104839571D01*
X96675616Y-105151108D01*
X96656282Y-105472595D01*
X94936072Y-105472595D01*
X94936072Y-104410000D01*
X94923812Y-104285518D01*
X94887502Y-104165820D01*
X94828537Y-104055506D01*
X94749185Y-103958815D01*
X94652494Y-103879463D01*
X94579560Y-103840478D01*
X97873501Y-100546537D01*
X97873501Y-101573206D01*
X97868892Y-101620000D01*
X97887283Y-101806722D01*
X97922034Y-101921278D01*
X97941749Y-101986269D01*
X98030195Y-102151741D01*
X98149223Y-102296778D01*
X98185564Y-102326602D01*
X99377500Y-103518539D01*
X99377501Y-104166943D01*
X99369475Y-104158917D01*
X99253807Y-104274585D01*
X99158044Y-104010186D01*
X98868429Y-103869296D01*
X98556892Y-103787616D01*
X98235405Y-103768282D01*
X97916325Y-103812039D01*
X97611912Y-103917205D01*
X97437956Y-104010186D01*
X97342192Y-104274587D01*
X98298000Y-105230395D01*
X98312143Y-105216253D01*
X98491748Y-105395858D01*
X98477605Y-105410000D01*
X99433413Y-106365808D01*
X99697814Y-106270044D01*
X99838704Y-105980429D01*
X99920384Y-105668892D01*
X99933231Y-105455269D01*
X101544397Y-107066436D01*
X101574222Y-107102778D01*
X101719259Y-107221806D01*
X101884731Y-107310252D01*
X102064277Y-107364717D01*
X102247928Y-107382806D01*
X102247928Y-107680000D01*
X102260188Y-107804482D01*
X102296498Y-107924180D01*
X102355463Y-108034494D01*
X102434815Y-108131185D01*
X102531506Y-108210537D01*
X102641820Y-108269502D01*
X102761518Y-108305812D01*
X102886000Y-108318072D01*
X104886000Y-108318072D01*
X105010482Y-108305812D01*
X105130180Y-108269502D01*
X105240494Y-108210537D01*
X105337185Y-108131185D01*
X105416537Y-108034494D01*
X105475502Y-107924180D01*
X105491037Y-107872967D01*
X105565956Y-108079814D01*
X105855571Y-108220704D01*
X106167108Y-108302384D01*
X106488595Y-108321718D01*
X106807675Y-108277961D01*
X107112088Y-108172795D01*
X107286044Y-108079814D01*
X107381808Y-107815413D01*
X106426000Y-106859605D01*
X106411858Y-106873748D01*
X106232253Y-106694143D01*
X106246395Y-106680000D01*
X106232253Y-106665858D01*
X106411858Y-106486253D01*
X106426000Y-106500395D01*
X106440143Y-106486253D01*
X106619748Y-106665858D01*
X106605605Y-106680000D01*
X107561413Y-107635808D01*
X107623280Y-107613400D01*
X107696013Y-107722252D01*
X107923748Y-107949987D01*
X108191537Y-108128918D01*
X108489088Y-108252168D01*
X108804967Y-108315000D01*
X109127033Y-108315000D01*
X109442912Y-108252168D01*
X109740463Y-108128918D01*
X110008252Y-107949987D01*
X110235987Y-107722252D01*
X110414918Y-107454463D01*
X110525290Y-107188000D01*
X111842057Y-107188000D01*
X111869764Y-107469309D01*
X111951818Y-107739808D01*
X112085068Y-107989101D01*
X112264392Y-108207608D01*
X112482899Y-108386932D01*
X112732192Y-108520182D01*
X113002691Y-108602236D01*
X113213508Y-108623000D01*
X113354492Y-108623000D01*
X113565309Y-108602236D01*
X113835808Y-108520182D01*
X114085101Y-108386932D01*
X114303608Y-108207608D01*
X114482932Y-107989101D01*
X114503831Y-107950000D01*
X116871815Y-107950000D01*
X116900487Y-108241111D01*
X116985401Y-108521034D01*
X117123294Y-108779014D01*
X117308866Y-109005134D01*
X117534986Y-109190706D01*
X117792966Y-109328599D01*
X118072889Y-109413513D01*
X118291050Y-109435000D01*
X118436950Y-109435000D01*
X118655111Y-109413513D01*
X118935034Y-109328599D01*
X119193014Y-109190706D01*
X119419134Y-109005134D01*
X119604706Y-108779014D01*
X119742599Y-108521034D01*
X119827513Y-108241111D01*
X119856185Y-107950000D01*
X119827513Y-107658889D01*
X119742599Y-107378966D01*
X119604706Y-107120986D01*
X119419134Y-106894866D01*
X119193014Y-106709294D01*
X119128477Y-106674799D01*
X119245355Y-106605178D01*
X119461588Y-106410269D01*
X119635641Y-106176920D01*
X119760825Y-105914099D01*
X119805476Y-105766890D01*
X119684155Y-105537000D01*
X118491000Y-105537000D01*
X118491000Y-105557000D01*
X118237000Y-105557000D01*
X118237000Y-105537000D01*
X117043845Y-105537000D01*
X116922524Y-105766890D01*
X116967175Y-105914099D01*
X117092359Y-106176920D01*
X117266412Y-106410269D01*
X117482645Y-106605178D01*
X117599523Y-106674799D01*
X117534986Y-106709294D01*
X117308866Y-106894866D01*
X117123294Y-107120986D01*
X116985401Y-107378966D01*
X116900487Y-107658889D01*
X116871815Y-107950000D01*
X114503831Y-107950000D01*
X114616182Y-107739808D01*
X114698236Y-107469309D01*
X114725943Y-107188000D01*
X114698236Y-106906691D01*
X114616182Y-106636192D01*
X114482932Y-106386899D01*
X114303608Y-106168392D01*
X114085101Y-105989068D01*
X113835808Y-105855818D01*
X113565309Y-105773764D01*
X113354492Y-105753000D01*
X113213508Y-105753000D01*
X113002691Y-105773764D01*
X112732192Y-105855818D01*
X112482899Y-105989068D01*
X112264392Y-106168392D01*
X112085068Y-106386899D01*
X111951818Y-106636192D01*
X111869764Y-106906691D01*
X111842057Y-107188000D01*
X110525290Y-107188000D01*
X110538168Y-107156912D01*
X110601000Y-106841033D01*
X110601000Y-106518967D01*
X110538168Y-106203088D01*
X110414918Y-105905537D01*
X110235987Y-105637748D01*
X110008252Y-105410013D01*
X109740463Y-105231082D01*
X109442912Y-105107832D01*
X109127033Y-105045000D01*
X108804967Y-105045000D01*
X108606576Y-105084462D01*
X110148039Y-103543000D01*
X110377335Y-103543000D01*
X110654574Y-103487853D01*
X110915727Y-103379680D01*
X111150759Y-103222637D01*
X111350637Y-103022759D01*
X111507680Y-102787727D01*
X111615853Y-102526574D01*
X111671000Y-102249335D01*
X111671000Y-102020000D01*
X116875928Y-102020000D01*
X116875928Y-103720000D01*
X116888188Y-103844482D01*
X116924498Y-103964180D01*
X116983463Y-104074494D01*
X117062815Y-104171185D01*
X117159506Y-104250537D01*
X117269820Y-104309502D01*
X117350466Y-104333966D01*
X117266412Y-104409731D01*
X117092359Y-104643080D01*
X116967175Y-104905901D01*
X116922524Y-105053110D01*
X117043845Y-105283000D01*
X118237000Y-105283000D01*
X118237000Y-105263000D01*
X118491000Y-105263000D01*
X118491000Y-105283000D01*
X119684155Y-105283000D01*
X119805476Y-105053110D01*
X119760825Y-104905901D01*
X119635641Y-104643080D01*
X119461588Y-104409731D01*
X119377534Y-104333966D01*
X119458180Y-104309502D01*
X119568494Y-104250537D01*
X119665185Y-104171185D01*
X119744537Y-104074494D01*
X119803502Y-103964180D01*
X119839812Y-103844482D01*
X119852072Y-103720000D01*
X119852072Y-102020000D01*
X119839812Y-101895518D01*
X119803502Y-101775820D01*
X119744537Y-101665506D01*
X119665185Y-101568815D01*
X119568494Y-101489463D01*
X119458180Y-101430498D01*
X119338482Y-101394188D01*
X119214000Y-101381928D01*
X117514000Y-101381928D01*
X117389518Y-101394188D01*
X117269820Y-101430498D01*
X117159506Y-101489463D01*
X117062815Y-101568815D01*
X116983463Y-101665506D01*
X116924498Y-101775820D01*
X116888188Y-101895518D01*
X116875928Y-102020000D01*
X111671000Y-102020000D01*
X111671000Y-101966665D01*
X111615853Y-101689426D01*
X111507680Y-101428273D01*
X111350637Y-101193241D01*
X111150759Y-100993363D01*
X110950131Y-100859308D01*
X110977514Y-100844671D01*
X111049097Y-100600702D01*
X110236000Y-99787605D01*
X109422903Y-100600702D01*
X109494486Y-100844671D01*
X109523341Y-100858324D01*
X109321241Y-100993363D01*
X109121363Y-101193241D01*
X108964320Y-101428273D01*
X108856147Y-101689426D01*
X108801000Y-101966665D01*
X108801000Y-102195961D01*
X107047462Y-103949500D01*
X105456784Y-103949500D01*
X105409999Y-103944892D01*
X105268640Y-103958815D01*
X105223277Y-103963283D01*
X105043731Y-104017748D01*
X104878259Y-104106194D01*
X104733222Y-104225222D01*
X104703393Y-104261569D01*
X103923034Y-105041928D01*
X102886000Y-105041928D01*
X102761518Y-105054188D01*
X102641820Y-105090498D01*
X102531506Y-105149463D01*
X102434815Y-105228815D01*
X102419507Y-105247468D01*
X101282500Y-104110462D01*
X101282500Y-103170784D01*
X101287108Y-103123999D01*
X101268717Y-102937277D01*
X101214252Y-102757731D01*
X101125806Y-102592259D01*
X101006778Y-102447222D01*
X100970436Y-102417397D01*
X99778500Y-101225462D01*
X99778500Y-100406532D01*
X102064227Y-100406532D01*
X102114916Y-100858434D01*
X102252415Y-101291885D01*
X102471486Y-101690373D01*
X102763784Y-102038721D01*
X103118178Y-102323661D01*
X103521167Y-102534338D01*
X103957402Y-102662729D01*
X104410266Y-102703943D01*
X104862512Y-102656410D01*
X105296911Y-102521941D01*
X105696919Y-102305658D01*
X106047300Y-102015798D01*
X106334706Y-101663402D01*
X106548192Y-101261894D01*
X106679626Y-100826566D01*
X106724000Y-100374000D01*
X106723092Y-100308943D01*
X106666098Y-99857792D01*
X106606460Y-99678512D01*
X108795783Y-99678512D01*
X108837213Y-99958130D01*
X108932397Y-100224292D01*
X108999329Y-100349514D01*
X109243298Y-100421097D01*
X110056395Y-99608000D01*
X110415605Y-99608000D01*
X111228702Y-100421097D01*
X111472671Y-100349514D01*
X111593571Y-100094004D01*
X111662300Y-99819816D01*
X111676217Y-99537488D01*
X111659797Y-99426665D01*
X111849000Y-99426665D01*
X111849000Y-99709335D01*
X111904147Y-99986574D01*
X112012320Y-100247727D01*
X112169363Y-100482759D01*
X112369241Y-100682637D01*
X112604273Y-100839680D01*
X112865426Y-100947853D01*
X113142665Y-101003000D01*
X113425335Y-101003000D01*
X113702574Y-100947853D01*
X113963727Y-100839680D01*
X114198759Y-100682637D01*
X114320694Y-100560702D01*
X115050903Y-100560702D01*
X115122486Y-100804671D01*
X115377996Y-100925571D01*
X115652184Y-100994300D01*
X115934512Y-101008217D01*
X116214130Y-100966787D01*
X116480292Y-100871603D01*
X116605514Y-100804671D01*
X116677097Y-100560702D01*
X115864000Y-99747605D01*
X115050903Y-100560702D01*
X114320694Y-100560702D01*
X114398637Y-100482759D01*
X114555680Y-100247727D01*
X114572543Y-100207016D01*
X114627329Y-100309514D01*
X114871298Y-100381097D01*
X115684395Y-99568000D01*
X116043605Y-99568000D01*
X116856702Y-100381097D01*
X117100671Y-100309514D01*
X117114324Y-100280659D01*
X117249363Y-100482759D01*
X117449241Y-100682637D01*
X117684273Y-100839680D01*
X117945426Y-100947853D01*
X118222665Y-101003000D01*
X118505335Y-101003000D01*
X118782574Y-100947853D01*
X119043727Y-100839680D01*
X119278759Y-100682637D01*
X119478637Y-100482759D01*
X119635680Y-100247727D01*
X119743853Y-99986574D01*
X119799000Y-99709335D01*
X119799000Y-99426665D01*
X119743853Y-99149426D01*
X119635680Y-98888273D01*
X119478637Y-98653241D01*
X119278759Y-98453363D01*
X119043727Y-98296320D01*
X118782574Y-98188147D01*
X118505335Y-98133000D01*
X118222665Y-98133000D01*
X117945426Y-98188147D01*
X117684273Y-98296320D01*
X117449241Y-98453363D01*
X117249363Y-98653241D01*
X117115308Y-98853869D01*
X117100671Y-98826486D01*
X116856702Y-98754903D01*
X116043605Y-99568000D01*
X115684395Y-99568000D01*
X114871298Y-98754903D01*
X114627329Y-98826486D01*
X114575478Y-98936069D01*
X114555680Y-98888273D01*
X114398637Y-98653241D01*
X114320694Y-98575298D01*
X115050903Y-98575298D01*
X115864000Y-99388395D01*
X116677097Y-98575298D01*
X116605514Y-98331329D01*
X116350004Y-98210429D01*
X116075816Y-98141700D01*
X115793488Y-98127783D01*
X115513870Y-98169213D01*
X115247708Y-98264397D01*
X115122486Y-98331329D01*
X115050903Y-98575298D01*
X114320694Y-98575298D01*
X114198759Y-98453363D01*
X113963727Y-98296320D01*
X113702574Y-98188147D01*
X113425335Y-98133000D01*
X113142665Y-98133000D01*
X112865426Y-98188147D01*
X112604273Y-98296320D01*
X112369241Y-98453363D01*
X112169363Y-98653241D01*
X112012320Y-98888273D01*
X111904147Y-99149426D01*
X111849000Y-99426665D01*
X111659797Y-99426665D01*
X111634787Y-99257870D01*
X111539603Y-98991708D01*
X111472671Y-98866486D01*
X111228702Y-98794903D01*
X110415605Y-99608000D01*
X110056395Y-99608000D01*
X109243298Y-98794903D01*
X108999329Y-98866486D01*
X108878429Y-99121996D01*
X108809700Y-99396184D01*
X108795783Y-99678512D01*
X106606460Y-99678512D01*
X106522561Y-99426304D01*
X106297948Y-99030913D01*
X106000814Y-98686680D01*
X105909450Y-98615298D01*
X109422903Y-98615298D01*
X110236000Y-99428395D01*
X111049097Y-98615298D01*
X110977514Y-98371329D01*
X110722004Y-98250429D01*
X110447816Y-98181700D01*
X110165488Y-98167783D01*
X109885870Y-98209213D01*
X109619708Y-98304397D01*
X109494486Y-98371329D01*
X109422903Y-98615298D01*
X105909450Y-98615298D01*
X105642476Y-98406716D01*
X105236585Y-98201686D01*
X104798600Y-98079398D01*
X104345204Y-98044511D01*
X103893667Y-98098354D01*
X103461187Y-98238875D01*
X103064237Y-98460722D01*
X102717938Y-98755446D01*
X102435480Y-99111820D01*
X102227621Y-99516270D01*
X102102278Y-99953390D01*
X102064227Y-100406532D01*
X99778500Y-100406532D01*
X99778500Y-99573092D01*
X99855741Y-99531806D01*
X100000778Y-99412778D01*
X100119806Y-99267741D01*
X100184294Y-99147091D01*
X100279349Y-99004831D01*
X100402975Y-98706370D01*
X100466000Y-98389526D01*
X100466000Y-98066474D01*
X100402975Y-97749630D01*
X100279349Y-97451169D01*
X100099871Y-97182561D01*
X99871439Y-96954129D01*
X99602831Y-96774651D01*
X99304370Y-96651025D01*
X98987526Y-96588000D01*
X98664474Y-96588000D01*
X98347630Y-96651025D01*
X98343694Y-96652655D01*
X96602217Y-94911179D01*
X96618637Y-94894759D01*
X96775680Y-94659727D01*
X96883853Y-94398574D01*
X96939000Y-94121335D01*
X96939000Y-93980000D01*
X101682057Y-93980000D01*
X101709764Y-94261309D01*
X101791818Y-94531808D01*
X101925068Y-94781101D01*
X102104392Y-94999608D01*
X102322899Y-95178932D01*
X102572192Y-95312182D01*
X102842691Y-95394236D01*
X103053508Y-95415000D01*
X103194492Y-95415000D01*
X103405309Y-95394236D01*
X103675808Y-95312182D01*
X103769691Y-95262000D01*
X106053928Y-95262000D01*
X106053928Y-96762000D01*
X106066188Y-96886482D01*
X106102498Y-97006180D01*
X106161463Y-97116494D01*
X106240815Y-97213185D01*
X106337506Y-97292537D01*
X106447820Y-97351502D01*
X106567518Y-97387812D01*
X106692000Y-97400072D01*
X108192000Y-97400072D01*
X108316482Y-97387812D01*
X108436180Y-97351502D01*
X108546494Y-97292537D01*
X108643185Y-97213185D01*
X108722537Y-97116494D01*
X108781502Y-97006180D01*
X108817812Y-96886482D01*
X108830072Y-96762000D01*
X108830072Y-95720000D01*
X109305928Y-95720000D01*
X109305928Y-97320000D01*
X109318188Y-97444482D01*
X109354498Y-97564180D01*
X109413463Y-97674494D01*
X109492815Y-97771185D01*
X109589506Y-97850537D01*
X109699820Y-97909502D01*
X109819518Y-97945812D01*
X109944000Y-97958072D01*
X111544000Y-97958072D01*
X111668482Y-97945812D01*
X111788180Y-97909502D01*
X111898494Y-97850537D01*
X111995185Y-97771185D01*
X112074537Y-97674494D01*
X112133502Y-97564180D01*
X112169812Y-97444482D01*
X112182072Y-97320000D01*
X112182072Y-96520000D01*
X116922057Y-96520000D01*
X116949764Y-96801309D01*
X117031818Y-97071808D01*
X117165068Y-97321101D01*
X117344392Y-97539608D01*
X117562899Y-97718932D01*
X117812192Y-97852182D01*
X118082691Y-97934236D01*
X118293508Y-97955000D01*
X118434492Y-97955000D01*
X118645309Y-97934236D01*
X118915808Y-97852182D01*
X119165101Y-97718932D01*
X119383608Y-97539608D01*
X119562932Y-97321101D01*
X119696182Y-97071808D01*
X119778236Y-96801309D01*
X119805943Y-96520000D01*
X119778236Y-96238691D01*
X119696182Y-95968192D01*
X119562932Y-95718899D01*
X119383608Y-95500392D01*
X119165101Y-95321068D01*
X118915808Y-95187818D01*
X118645309Y-95105764D01*
X118434492Y-95085000D01*
X118293508Y-95085000D01*
X118082691Y-95105764D01*
X117812192Y-95187818D01*
X117562899Y-95321068D01*
X117344392Y-95500392D01*
X117165068Y-95718899D01*
X117031818Y-95968192D01*
X116949764Y-96238691D01*
X116922057Y-96520000D01*
X112182072Y-96520000D01*
X112182072Y-95720000D01*
X112169812Y-95595518D01*
X112133502Y-95475820D01*
X112074537Y-95365506D01*
X111995185Y-95268815D01*
X111898494Y-95189463D01*
X111788180Y-95130498D01*
X111668482Y-95094188D01*
X111544000Y-95081928D01*
X109944000Y-95081928D01*
X109819518Y-95094188D01*
X109699820Y-95130498D01*
X109589506Y-95189463D01*
X109492815Y-95268815D01*
X109413463Y-95365506D01*
X109354498Y-95475820D01*
X109318188Y-95595518D01*
X109305928Y-95720000D01*
X108830072Y-95720000D01*
X108830072Y-95262000D01*
X108817812Y-95137518D01*
X108781502Y-95017820D01*
X108722537Y-94907506D01*
X108643185Y-94810815D01*
X108546494Y-94731463D01*
X108436180Y-94672498D01*
X108316482Y-94636188D01*
X108192000Y-94623928D01*
X108121155Y-94623928D01*
X108324886Y-94487799D01*
X108517799Y-94294886D01*
X108669371Y-94068043D01*
X108773775Y-93815989D01*
X108827000Y-93548411D01*
X108827000Y-93330665D01*
X109309000Y-93330665D01*
X109309000Y-93613335D01*
X109364147Y-93890574D01*
X109472320Y-94151727D01*
X109629363Y-94386759D01*
X109829241Y-94586637D01*
X110064273Y-94743680D01*
X110325426Y-94851853D01*
X110602665Y-94907000D01*
X110885335Y-94907000D01*
X111162574Y-94851853D01*
X111423727Y-94743680D01*
X111658759Y-94586637D01*
X111858637Y-94386759D01*
X112015680Y-94151727D01*
X112123853Y-93890574D01*
X112137684Y-93821039D01*
X116972096Y-93821039D01*
X117012754Y-93955087D01*
X117132963Y-94209420D01*
X117300481Y-94435414D01*
X117508869Y-94624385D01*
X117750119Y-94769070D01*
X118014960Y-94863909D01*
X118237000Y-94742624D01*
X118237000Y-93599000D01*
X118491000Y-93599000D01*
X118491000Y-94742624D01*
X118713040Y-94863909D01*
X118977881Y-94769070D01*
X119219131Y-94624385D01*
X119427519Y-94435414D01*
X119595037Y-94209420D01*
X119715246Y-93955087D01*
X119755904Y-93821039D01*
X119633915Y-93599000D01*
X118491000Y-93599000D01*
X118237000Y-93599000D01*
X117094085Y-93599000D01*
X116972096Y-93821039D01*
X112137684Y-93821039D01*
X112179000Y-93613335D01*
X112179000Y-93330665D01*
X112137685Y-93122961D01*
X116972096Y-93122961D01*
X117094085Y-93345000D01*
X118237000Y-93345000D01*
X118237000Y-92201376D01*
X118491000Y-92201376D01*
X118491000Y-93345000D01*
X119633915Y-93345000D01*
X119755904Y-93122961D01*
X119715246Y-92988913D01*
X119595037Y-92734580D01*
X119427519Y-92508586D01*
X119219131Y-92319615D01*
X118977881Y-92174930D01*
X118713040Y-92080091D01*
X118491000Y-92201376D01*
X118237000Y-92201376D01*
X118014960Y-92080091D01*
X117750119Y-92174930D01*
X117508869Y-92319615D01*
X117300481Y-92508586D01*
X117132963Y-92734580D01*
X117012754Y-92988913D01*
X116972096Y-93122961D01*
X112137685Y-93122961D01*
X112123853Y-93053426D01*
X112015680Y-92792273D01*
X111858637Y-92557241D01*
X111658759Y-92357363D01*
X111423727Y-92200320D01*
X111162574Y-92092147D01*
X110885335Y-92037000D01*
X110602665Y-92037000D01*
X110325426Y-92092147D01*
X110064273Y-92200320D01*
X109829241Y-92357363D01*
X109629363Y-92557241D01*
X109472320Y-92792273D01*
X109364147Y-93053426D01*
X109309000Y-93330665D01*
X108827000Y-93330665D01*
X108827000Y-93275589D01*
X108773775Y-93008011D01*
X108669371Y-92755957D01*
X108517799Y-92529114D01*
X108324886Y-92336201D01*
X108098043Y-92184629D01*
X107921345Y-92111439D01*
X108040832Y-92068277D01*
X108153863Y-92007860D01*
X108219388Y-91768993D01*
X107442000Y-90991605D01*
X106664612Y-91768993D01*
X106730137Y-92007860D01*
X106956390Y-92114034D01*
X106785957Y-92184629D01*
X106559114Y-92336201D01*
X106366201Y-92529114D01*
X106214629Y-92755957D01*
X106110225Y-93008011D01*
X106057000Y-93275589D01*
X106057000Y-93548411D01*
X106110225Y-93815989D01*
X106214629Y-94068043D01*
X106366201Y-94294886D01*
X106559114Y-94487799D01*
X106762845Y-94623928D01*
X106692000Y-94623928D01*
X106567518Y-94636188D01*
X106447820Y-94672498D01*
X106337506Y-94731463D01*
X106240815Y-94810815D01*
X106161463Y-94907506D01*
X106102498Y-95017820D01*
X106066188Y-95137518D01*
X106053928Y-95262000D01*
X103769691Y-95262000D01*
X103925101Y-95178932D01*
X104143608Y-94999608D01*
X104322932Y-94781101D01*
X104456182Y-94531808D01*
X104538236Y-94261309D01*
X104565943Y-93980000D01*
X104538236Y-93698691D01*
X104456182Y-93428192D01*
X104322932Y-93178899D01*
X104143608Y-92960392D01*
X103925101Y-92781068D01*
X103675808Y-92647818D01*
X103405309Y-92565764D01*
X103194492Y-92545000D01*
X103053508Y-92545000D01*
X102842691Y-92565764D01*
X102572192Y-92647818D01*
X102322899Y-92781068D01*
X102104392Y-92960392D01*
X101925068Y-93178899D01*
X101791818Y-93428192D01*
X101709764Y-93698691D01*
X101682057Y-93980000D01*
X96939000Y-93980000D01*
X96939000Y-93838665D01*
X96883853Y-93561426D01*
X96775680Y-93300273D01*
X96618637Y-93065241D01*
X96456500Y-92903104D01*
X96456500Y-91754896D01*
X96618637Y-91592759D01*
X96775680Y-91357727D01*
X96883853Y-91096574D01*
X96939000Y-90819335D01*
X96939000Y-90590038D01*
X101705708Y-85823330D01*
X101744147Y-86016574D01*
X101852320Y-86277727D01*
X102009363Y-86512759D01*
X102209241Y-86712637D01*
X102441759Y-86868000D01*
X102209241Y-87023363D01*
X102009363Y-87223241D01*
X101852320Y-87458273D01*
X101744147Y-87719426D01*
X101689000Y-87996665D01*
X101689000Y-88279335D01*
X101744147Y-88556574D01*
X101852320Y-88817727D01*
X102009363Y-89052759D01*
X102209241Y-89252637D01*
X102441759Y-89408000D01*
X102209241Y-89563363D01*
X102009363Y-89763241D01*
X101852320Y-89998273D01*
X101744147Y-90259426D01*
X101689000Y-90536665D01*
X101689000Y-90819335D01*
X101744147Y-91096574D01*
X101852320Y-91357727D01*
X102009363Y-91592759D01*
X102209241Y-91792637D01*
X102444273Y-91949680D01*
X102705426Y-92057853D01*
X102982665Y-92113000D01*
X103265335Y-92113000D01*
X103542574Y-92057853D01*
X103803727Y-91949680D01*
X104038759Y-91792637D01*
X104238637Y-91592759D01*
X104395680Y-91357727D01*
X104503853Y-91096574D01*
X104546039Y-90884492D01*
X106052188Y-90884492D01*
X106093035Y-91154238D01*
X106185723Y-91410832D01*
X106246140Y-91523863D01*
X106485007Y-91589388D01*
X107262395Y-90812000D01*
X107621605Y-90812000D01*
X108398993Y-91589388D01*
X108637860Y-91523863D01*
X108753760Y-91276884D01*
X108819250Y-91012040D01*
X108831812Y-90739508D01*
X108790965Y-90469762D01*
X108698277Y-90213168D01*
X108637860Y-90100137D01*
X108398993Y-90034612D01*
X107621605Y-90812000D01*
X107262395Y-90812000D01*
X106485007Y-90034612D01*
X106246140Y-90100137D01*
X106130240Y-90347116D01*
X106064750Y-90611960D01*
X106052188Y-90884492D01*
X104546039Y-90884492D01*
X104559000Y-90819335D01*
X104559000Y-90536665D01*
X104503853Y-90259426D01*
X104395680Y-89998273D01*
X104238637Y-89763241D01*
X104038759Y-89563363D01*
X103806241Y-89408000D01*
X104038759Y-89252637D01*
X104238637Y-89052759D01*
X104395680Y-88817727D01*
X104503853Y-88556574D01*
X104559000Y-88279335D01*
X104559000Y-87996665D01*
X104503853Y-87719426D01*
X104395680Y-87458273D01*
X104348726Y-87388000D01*
X106053928Y-87388000D01*
X106053928Y-88888000D01*
X106066188Y-89012482D01*
X106102498Y-89132180D01*
X106161463Y-89242494D01*
X106240815Y-89339185D01*
X106337506Y-89418537D01*
X106447820Y-89477502D01*
X106567518Y-89513812D01*
X106692000Y-89526072D01*
X106925253Y-89526072D01*
X106843168Y-89555723D01*
X106730137Y-89616140D01*
X106664612Y-89855007D01*
X107442000Y-90632395D01*
X108219388Y-89855007D01*
X108153863Y-89616140D01*
X107961931Y-89526072D01*
X108192000Y-89526072D01*
X108316482Y-89513812D01*
X108436180Y-89477502D01*
X108546494Y-89418537D01*
X108643185Y-89339185D01*
X108722537Y-89242494D01*
X108781502Y-89132180D01*
X108815366Y-89020544D01*
X113707000Y-89020544D01*
X113707000Y-89287456D01*
X113759072Y-89549239D01*
X113861215Y-89795833D01*
X114009503Y-90017762D01*
X114198238Y-90206497D01*
X114420167Y-90354785D01*
X114666761Y-90456928D01*
X114928544Y-90509000D01*
X115195456Y-90509000D01*
X115457239Y-90456928D01*
X115703833Y-90354785D01*
X115925762Y-90206497D01*
X116114497Y-90017762D01*
X116262785Y-89795833D01*
X116364928Y-89549239D01*
X116417000Y-89287456D01*
X116417000Y-89020544D01*
X116364928Y-88758761D01*
X116262785Y-88512167D01*
X116114497Y-88290238D01*
X115925762Y-88101503D01*
X115703833Y-87953215D01*
X115457239Y-87851072D01*
X115195456Y-87799000D01*
X114928544Y-87799000D01*
X114666761Y-87851072D01*
X114420167Y-87953215D01*
X114198238Y-88101503D01*
X114009503Y-88290238D01*
X113861215Y-88512167D01*
X113759072Y-88758761D01*
X113707000Y-89020544D01*
X108815366Y-89020544D01*
X108817812Y-89012482D01*
X108830072Y-88888000D01*
X108830072Y-87388000D01*
X108817812Y-87263518D01*
X108781502Y-87143820D01*
X108722537Y-87033506D01*
X108643185Y-86936815D01*
X108546494Y-86857463D01*
X108436180Y-86798498D01*
X108316482Y-86762188D01*
X108208517Y-86751555D01*
X108324886Y-86673799D01*
X108517799Y-86480886D01*
X108518027Y-86480544D01*
X116247000Y-86480544D01*
X116247000Y-86747456D01*
X116299072Y-87009239D01*
X116401215Y-87255833D01*
X116549503Y-87477762D01*
X116738238Y-87666497D01*
X116960167Y-87814785D01*
X117206761Y-87916928D01*
X117468544Y-87969000D01*
X117735456Y-87969000D01*
X117997239Y-87916928D01*
X118243833Y-87814785D01*
X118465762Y-87666497D01*
X118654497Y-87477762D01*
X118802785Y-87255833D01*
X118904928Y-87009239D01*
X118957000Y-86747456D01*
X118957000Y-86480544D01*
X118904928Y-86218761D01*
X118802785Y-85972167D01*
X118654497Y-85750238D01*
X118465762Y-85561503D01*
X118243833Y-85413215D01*
X117997239Y-85311072D01*
X117735456Y-85259000D01*
X117468544Y-85259000D01*
X117206761Y-85311072D01*
X116960167Y-85413215D01*
X116738238Y-85561503D01*
X116549503Y-85750238D01*
X116401215Y-85972167D01*
X116299072Y-86218761D01*
X116247000Y-86480544D01*
X108518027Y-86480544D01*
X108669371Y-86254043D01*
X108773775Y-86001989D01*
X108827000Y-85734411D01*
X108827000Y-85461589D01*
X108773775Y-85194011D01*
X108669371Y-84941957D01*
X108517799Y-84715114D01*
X108324886Y-84522201D01*
X108098043Y-84370629D01*
X107998721Y-84329489D01*
X108040832Y-84314277D01*
X108153863Y-84253860D01*
X108219388Y-84014993D01*
X108144939Y-83940544D01*
X113707000Y-83940544D01*
X113707000Y-84207456D01*
X113759072Y-84469239D01*
X113861215Y-84715833D01*
X114009503Y-84937762D01*
X114198238Y-85126497D01*
X114420167Y-85274785D01*
X114666761Y-85376928D01*
X114928544Y-85429000D01*
X115195456Y-85429000D01*
X115457239Y-85376928D01*
X115703833Y-85274785D01*
X115925762Y-85126497D01*
X116114497Y-84937762D01*
X116262785Y-84715833D01*
X116364928Y-84469239D01*
X116417000Y-84207456D01*
X116417000Y-83940544D01*
X116364928Y-83678761D01*
X116262785Y-83432167D01*
X116114497Y-83210238D01*
X115925762Y-83021503D01*
X115703833Y-82873215D01*
X115457239Y-82771072D01*
X115195456Y-82719000D01*
X114928544Y-82719000D01*
X114666761Y-82771072D01*
X114420167Y-82873215D01*
X114198238Y-83021503D01*
X114009503Y-83210238D01*
X113861215Y-83432167D01*
X113759072Y-83678761D01*
X113707000Y-83940544D01*
X108144939Y-83940544D01*
X107442000Y-83237605D01*
X106664612Y-84014993D01*
X106730137Y-84253860D01*
X106888477Y-84328164D01*
X106785957Y-84370629D01*
X106559114Y-84522201D01*
X106366201Y-84715114D01*
X106214629Y-84941957D01*
X106110225Y-85194011D01*
X106057000Y-85461589D01*
X106057000Y-85734411D01*
X106110225Y-86001989D01*
X106214629Y-86254043D01*
X106366201Y-86480886D01*
X106559114Y-86673799D01*
X106675483Y-86751555D01*
X106567518Y-86762188D01*
X106447820Y-86798498D01*
X106337506Y-86857463D01*
X106240815Y-86936815D01*
X106161463Y-87033506D01*
X106102498Y-87143820D01*
X106066188Y-87263518D01*
X106053928Y-87388000D01*
X104348726Y-87388000D01*
X104238637Y-87223241D01*
X104038759Y-87023363D01*
X103806241Y-86868000D01*
X104038759Y-86712637D01*
X104238637Y-86512759D01*
X104395680Y-86277727D01*
X104503853Y-86016574D01*
X104559000Y-85739335D01*
X104559000Y-85456665D01*
X104503853Y-85179426D01*
X104395680Y-84918273D01*
X104238637Y-84683241D01*
X104038759Y-84483363D01*
X103806241Y-84328000D01*
X104038759Y-84172637D01*
X104238637Y-83972759D01*
X104395680Y-83737727D01*
X104503853Y-83476574D01*
X104559000Y-83199335D01*
X104559000Y-83130492D01*
X106052188Y-83130492D01*
X106093035Y-83400238D01*
X106185723Y-83656832D01*
X106246140Y-83769863D01*
X106485007Y-83835388D01*
X107262395Y-83058000D01*
X107621605Y-83058000D01*
X108398993Y-83835388D01*
X108637860Y-83769863D01*
X108753760Y-83522884D01*
X108819250Y-83258040D01*
X108831812Y-82985508D01*
X108790965Y-82715762D01*
X108698277Y-82459168D01*
X108637860Y-82346137D01*
X108398993Y-82280612D01*
X107621605Y-83058000D01*
X107262395Y-83058000D01*
X106485007Y-82280612D01*
X106246140Y-82346137D01*
X106130240Y-82593116D01*
X106064750Y-82857960D01*
X106052188Y-83130492D01*
X104559000Y-83130492D01*
X104559000Y-82970038D01*
X105428031Y-82101007D01*
X106664612Y-82101007D01*
X107442000Y-82878395D01*
X108219388Y-82101007D01*
X108153863Y-81862140D01*
X107906884Y-81746240D01*
X107642040Y-81680750D01*
X107369508Y-81668188D01*
X107099762Y-81709035D01*
X106843168Y-81801723D01*
X106730137Y-81862140D01*
X106664612Y-82101007D01*
X105428031Y-82101007D01*
X106820539Y-80708500D01*
X106875318Y-80708500D01*
X106930392Y-80775608D01*
X107148899Y-80954932D01*
X107398192Y-81088182D01*
X107668691Y-81170236D01*
X107879508Y-81191000D01*
X108020492Y-81191000D01*
X108231309Y-81170236D01*
X108501808Y-81088182D01*
X108751101Y-80954932D01*
X108969608Y-80775608D01*
X109148932Y-80557101D01*
X109282182Y-80307808D01*
X109364236Y-80037309D01*
X109379434Y-79883002D01*
X109474084Y-79883002D01*
X109352096Y-80105039D01*
X109392754Y-80239087D01*
X109512963Y-80493420D01*
X109680481Y-80719414D01*
X109888869Y-80908385D01*
X110130119Y-81053070D01*
X110394960Y-81147909D01*
X110617000Y-81026624D01*
X110617000Y-79883000D01*
X110871000Y-79883000D01*
X110871000Y-81026624D01*
X111093040Y-81147909D01*
X111357881Y-81053070D01*
X111599131Y-80908385D01*
X111807519Y-80719414D01*
X111975037Y-80493420D01*
X112095246Y-80239087D01*
X112135904Y-80105039D01*
X112013915Y-79883000D01*
X110871000Y-79883000D01*
X110617000Y-79883000D01*
X110597000Y-79883000D01*
X110597000Y-79629000D01*
X110617000Y-79629000D01*
X110617000Y-78485376D01*
X110871000Y-78485376D01*
X110871000Y-79629000D01*
X112013915Y-79629000D01*
X112021790Y-79614665D01*
X116929000Y-79614665D01*
X116929000Y-79897335D01*
X116984147Y-80174574D01*
X117092320Y-80435727D01*
X117249363Y-80670759D01*
X117449241Y-80870637D01*
X117684273Y-81027680D01*
X117945426Y-81135853D01*
X118222665Y-81191000D01*
X118505335Y-81191000D01*
X118782574Y-81135853D01*
X119043727Y-81027680D01*
X119278759Y-80870637D01*
X119478637Y-80670759D01*
X119635680Y-80435727D01*
X119743853Y-80174574D01*
X119799000Y-79897335D01*
X119799000Y-79614665D01*
X119743853Y-79337426D01*
X119635680Y-79076273D01*
X119478637Y-78841241D01*
X119278759Y-78641363D01*
X119043727Y-78484320D01*
X118782574Y-78376147D01*
X118505335Y-78321000D01*
X118222665Y-78321000D01*
X117945426Y-78376147D01*
X117684273Y-78484320D01*
X117449241Y-78641363D01*
X117249363Y-78841241D01*
X117092320Y-79076273D01*
X116984147Y-79337426D01*
X116929000Y-79614665D01*
X112021790Y-79614665D01*
X112135904Y-79406961D01*
X112095246Y-79272913D01*
X111975037Y-79018580D01*
X111807519Y-78792586D01*
X111599131Y-78603615D01*
X111357881Y-78458930D01*
X111093040Y-78364091D01*
X110871000Y-78485376D01*
X110617000Y-78485376D01*
X110394960Y-78364091D01*
X110130119Y-78458930D01*
X109888869Y-78603615D01*
X109680481Y-78792586D01*
X109512963Y-79018580D01*
X109392754Y-79272913D01*
X109352096Y-79406961D01*
X109474084Y-79628998D01*
X109379434Y-79628998D01*
X109364236Y-79474691D01*
X109282182Y-79204192D01*
X109148932Y-78954899D01*
X108969608Y-78736392D01*
X108751101Y-78557068D01*
X108501808Y-78423818D01*
X108231309Y-78341764D01*
X108020492Y-78321000D01*
X107879508Y-78321000D01*
X107668691Y-78341764D01*
X107398192Y-78423818D01*
X107148899Y-78557068D01*
X106930392Y-78736392D01*
X106875318Y-78803500D01*
X106472784Y-78803500D01*
X106425999Y-78798892D01*
X106239277Y-78817283D01*
X106059731Y-78871748D01*
X105894259Y-78960194D01*
X105749222Y-79079222D01*
X105719397Y-79115564D01*
X103211962Y-81623000D01*
X102982665Y-81623000D01*
X102705426Y-81678147D01*
X102444273Y-81786320D01*
X102209241Y-81943363D01*
X102009363Y-82143241D01*
X101852320Y-82378273D01*
X101744147Y-82639426D01*
X101689000Y-82916665D01*
X101689000Y-83145962D01*
X96922292Y-87912670D01*
X96883853Y-87719426D01*
X96775680Y-87458273D01*
X96618637Y-87223241D01*
X96418759Y-87023363D01*
X96186241Y-86868000D01*
X96418759Y-86712637D01*
X96618637Y-86512759D01*
X96775680Y-86277727D01*
X96883853Y-86016574D01*
X96939000Y-85739335D01*
X96939000Y-85456665D01*
X96883853Y-85179426D01*
X96775680Y-84918273D01*
X96618637Y-84683241D01*
X96420039Y-84484643D01*
X96428482Y-84483812D01*
X96548180Y-84447502D01*
X96658494Y-84388537D01*
X96755185Y-84309185D01*
X96834537Y-84212494D01*
X96893502Y-84102180D01*
X96929812Y-83982482D01*
X96942072Y-83858000D01*
X96939000Y-83343750D01*
X96780250Y-83185000D01*
X95631000Y-83185000D01*
X95631000Y-83205000D01*
X95377000Y-83205000D01*
X95377000Y-83185000D01*
X94227750Y-83185000D01*
X94069000Y-83343750D01*
X94065928Y-83858000D01*
X94078188Y-83982482D01*
X94114498Y-84102180D01*
X94173463Y-84212494D01*
X94252815Y-84309185D01*
X94349506Y-84388537D01*
X94459820Y-84447502D01*
X94579518Y-84483812D01*
X94587961Y-84484643D01*
X94389363Y-84683241D01*
X94232320Y-84918273D01*
X94124147Y-85179426D01*
X94069000Y-85456665D01*
X94069000Y-85739335D01*
X94124147Y-86016574D01*
X94232320Y-86277727D01*
X94389363Y-86512759D01*
X94589241Y-86712637D01*
X94821759Y-86868000D01*
X94589241Y-87023363D01*
X94389363Y-87223241D01*
X94232320Y-87458273D01*
X94124147Y-87719426D01*
X94069000Y-87996665D01*
X94069000Y-88279335D01*
X94124147Y-88556574D01*
X94232320Y-88817727D01*
X94389363Y-89052759D01*
X94589241Y-89252637D01*
X94821759Y-89408000D01*
X94589241Y-89563363D01*
X94389363Y-89763241D01*
X94232320Y-89998273D01*
X94124147Y-90259426D01*
X94069000Y-90536665D01*
X94069000Y-90819335D01*
X94124147Y-91096574D01*
X94232320Y-91357727D01*
X94389363Y-91592759D01*
X94551500Y-91754896D01*
X94551501Y-92903103D01*
X94389363Y-93065241D01*
X94232320Y-93300273D01*
X94124147Y-93561426D01*
X94069000Y-93838665D01*
X94069000Y-94121335D01*
X94124147Y-94398574D01*
X94232320Y-94659727D01*
X94389363Y-94894759D01*
X94551501Y-95056897D01*
X94551501Y-95113206D01*
X94546892Y-95160000D01*
X94565283Y-95346722D01*
X94619749Y-95526269D01*
X94645610Y-95574651D01*
X94708195Y-95691741D01*
X94744772Y-95736311D01*
X94502831Y-95574651D01*
X94204370Y-95451025D01*
X93887526Y-95388000D01*
X93564474Y-95388000D01*
X93247630Y-95451025D01*
X92949169Y-95574651D01*
X92680561Y-95754129D01*
X92452129Y-95982561D01*
X92272651Y-96251169D01*
X92149025Y-96549630D01*
X92086000Y-96866474D01*
X92086000Y-97189526D01*
X92149025Y-97506370D01*
X92272651Y-97804831D01*
X92452129Y-98073439D01*
X92680561Y-98301871D01*
X92949169Y-98481349D01*
X93247630Y-98604975D01*
X93564474Y-98668000D01*
X93887526Y-98668000D01*
X94204370Y-98604975D01*
X94502831Y-98481349D01*
X94771439Y-98301871D01*
X94999871Y-98073439D01*
X95179349Y-97804831D01*
X95302975Y-97506370D01*
X95366000Y-97189526D01*
X95366000Y-96866474D01*
X95302975Y-96549630D01*
X95179349Y-96251169D01*
X95040845Y-96043883D01*
X97186000Y-98189039D01*
X97186000Y-98389526D01*
X97210959Y-98515003D01*
X92657569Y-103068393D01*
X92621222Y-103098222D01*
X92502194Y-103243259D01*
X92413748Y-103408732D01*
X92389747Y-103487853D01*
X92359283Y-103588278D01*
X92341195Y-103771928D01*
X92298000Y-103771928D01*
X92173518Y-103784188D01*
X92053820Y-103820498D01*
X91943506Y-103879463D01*
X91846815Y-103958815D01*
X91767463Y-104055506D01*
X91708498Y-104165820D01*
X91672188Y-104285518D01*
X91659928Y-104410000D01*
X91659928Y-106410000D01*
X91672188Y-106534482D01*
X91708498Y-106654180D01*
X91767463Y-106764494D01*
X91846815Y-106861185D01*
X91943506Y-106940537D01*
X92053820Y-106999502D01*
X92173518Y-107035812D01*
X92298000Y-107048072D01*
X92341195Y-107048072D01*
X92359283Y-107231722D01*
X92413749Y-107411269D01*
X92477957Y-107531394D01*
X92502195Y-107576741D01*
X92621223Y-107721778D01*
X92657565Y-107751603D01*
X92831894Y-107925932D01*
X92831895Y-109468590D01*
X92323569Y-109976916D01*
X92287222Y-110006745D01*
X92168194Y-110151782D01*
X92079748Y-110317255D01*
X92056204Y-110394870D01*
X92025283Y-110496801D01*
X92006892Y-110683523D01*
X92011500Y-110730308D01*
X92011500Y-110831235D01*
X91730509Y-111018987D01*
X91460987Y-111288509D01*
X91249225Y-111605434D01*
X91103361Y-111957581D01*
X91029000Y-112331419D01*
X90739000Y-112331419D01*
X90739000Y-106844476D01*
X88544000Y-106844476D01*
X88544000Y-99924890D01*
X88982524Y-99924890D01*
X89027175Y-100072099D01*
X89152359Y-100334920D01*
X89326412Y-100568269D01*
X89542645Y-100763178D01*
X89792748Y-100912157D01*
X90067109Y-101009481D01*
X90297000Y-100888814D01*
X90297000Y-99695000D01*
X90551000Y-99695000D01*
X90551000Y-100888814D01*
X90780891Y-101009481D01*
X91055252Y-100912157D01*
X91305355Y-100763178D01*
X91521588Y-100568269D01*
X91695641Y-100334920D01*
X91820825Y-100072099D01*
X91865476Y-99924890D01*
X91744155Y-99695000D01*
X90551000Y-99695000D01*
X90297000Y-99695000D01*
X89103845Y-99695000D01*
X88982524Y-99924890D01*
X88544000Y-99924890D01*
X88544000Y-96178000D01*
X88935928Y-96178000D01*
X88935928Y-97878000D01*
X88948188Y-98002482D01*
X88984498Y-98122180D01*
X89043463Y-98232494D01*
X89122815Y-98329185D01*
X89219506Y-98408537D01*
X89329820Y-98467502D01*
X89410466Y-98491966D01*
X89326412Y-98567731D01*
X89152359Y-98801080D01*
X89027175Y-99063901D01*
X88982524Y-99211110D01*
X89103845Y-99441000D01*
X90297000Y-99441000D01*
X90297000Y-99421000D01*
X90551000Y-99421000D01*
X90551000Y-99441000D01*
X91744155Y-99441000D01*
X91865476Y-99211110D01*
X91820825Y-99063901D01*
X91695641Y-98801080D01*
X91521588Y-98567731D01*
X91437534Y-98491966D01*
X91518180Y-98467502D01*
X91628494Y-98408537D01*
X91725185Y-98329185D01*
X91804537Y-98232494D01*
X91863502Y-98122180D01*
X91899812Y-98002482D01*
X91912072Y-97878000D01*
X91912072Y-96178000D01*
X91899812Y-96053518D01*
X91863502Y-95933820D01*
X91804537Y-95823506D01*
X91725185Y-95726815D01*
X91628494Y-95647463D01*
X91518180Y-95588498D01*
X91398482Y-95552188D01*
X91274000Y-95539928D01*
X89574000Y-95539928D01*
X89449518Y-95552188D01*
X89329820Y-95588498D01*
X89219506Y-95647463D01*
X89122815Y-95726815D01*
X89043463Y-95823506D01*
X88984498Y-95933820D01*
X88948188Y-96053518D01*
X88935928Y-96178000D01*
X88544000Y-96178000D01*
X88544000Y-94193413D01*
X90230192Y-94193413D01*
X90325956Y-94457814D01*
X90615571Y-94598704D01*
X90927108Y-94680384D01*
X91248595Y-94699718D01*
X91567675Y-94655961D01*
X91872088Y-94550795D01*
X92046044Y-94457814D01*
X92141808Y-94193413D01*
X91186000Y-93237605D01*
X90230192Y-94193413D01*
X88544000Y-94193413D01*
X88544000Y-93120595D01*
X89544282Y-93120595D01*
X89588039Y-93439675D01*
X89693205Y-93744088D01*
X89786186Y-93918044D01*
X90050587Y-94013808D01*
X91006395Y-93058000D01*
X91365605Y-93058000D01*
X92321413Y-94013808D01*
X92585814Y-93918044D01*
X92726704Y-93628429D01*
X92808384Y-93316892D01*
X92827718Y-92995405D01*
X92783961Y-92676325D01*
X92678795Y-92371912D01*
X92585814Y-92197956D01*
X92321413Y-92102192D01*
X91365605Y-93058000D01*
X91006395Y-93058000D01*
X90050587Y-92102192D01*
X89786186Y-92197956D01*
X89645296Y-92487571D01*
X89563616Y-92799108D01*
X89544282Y-93120595D01*
X88544000Y-93120595D01*
X88544000Y-91922587D01*
X90230192Y-91922587D01*
X91186000Y-92878395D01*
X92141808Y-91922587D01*
X92046044Y-91658186D01*
X91756429Y-91517296D01*
X91444892Y-91435616D01*
X91123405Y-91416282D01*
X90804325Y-91460039D01*
X90499912Y-91565205D01*
X90325956Y-91658186D01*
X90230192Y-91922587D01*
X88544000Y-91922587D01*
X88544000Y-82896967D01*
X89551000Y-82896967D01*
X89551000Y-83219033D01*
X89613832Y-83534912D01*
X89737082Y-83832463D01*
X89916013Y-84100252D01*
X90143748Y-84327987D01*
X90411537Y-84506918D01*
X90709088Y-84630168D01*
X91024967Y-84693000D01*
X91347033Y-84693000D01*
X91662912Y-84630168D01*
X91960463Y-84506918D01*
X92228252Y-84327987D01*
X92455987Y-84100252D01*
X92634918Y-83832463D01*
X92758168Y-83534912D01*
X92821000Y-83219033D01*
X92821000Y-82896967D01*
X92758168Y-82581088D01*
X92634918Y-82283537D01*
X92617855Y-82258000D01*
X94065928Y-82258000D01*
X94069000Y-82772250D01*
X94227750Y-82931000D01*
X95377000Y-82931000D01*
X95377000Y-81781750D01*
X95631000Y-81781750D01*
X95631000Y-82931000D01*
X96780250Y-82931000D01*
X96939000Y-82772250D01*
X96942072Y-82258000D01*
X96929812Y-82133518D01*
X96893502Y-82013820D01*
X96834537Y-81903506D01*
X96755185Y-81806815D01*
X96658494Y-81727463D01*
X96548180Y-81668498D01*
X96428482Y-81632188D01*
X96304000Y-81619928D01*
X95789750Y-81623000D01*
X95631000Y-81781750D01*
X95377000Y-81781750D01*
X95218250Y-81623000D01*
X94704000Y-81619928D01*
X94579518Y-81632188D01*
X94459820Y-81668498D01*
X94349506Y-81727463D01*
X94252815Y-81806815D01*
X94173463Y-81903506D01*
X94114498Y-82013820D01*
X94078188Y-82133518D01*
X94065928Y-82258000D01*
X92617855Y-82258000D01*
X92455987Y-82015748D01*
X92228252Y-81788013D01*
X91960463Y-81609082D01*
X91662912Y-81485832D01*
X91347033Y-81423000D01*
X91024967Y-81423000D01*
X90709088Y-81485832D01*
X90411537Y-81609082D01*
X90143748Y-81788013D01*
X89916013Y-82015748D01*
X89737082Y-82283537D01*
X89613832Y-82581088D01*
X89551000Y-82896967D01*
X88544000Y-82896967D01*
X88544000Y-79614665D01*
X88989000Y-79614665D01*
X88989000Y-79897335D01*
X89044147Y-80174574D01*
X89152320Y-80435727D01*
X89309363Y-80670759D01*
X89509241Y-80870637D01*
X89744273Y-81027680D01*
X90005426Y-81135853D01*
X90282665Y-81191000D01*
X90565335Y-81191000D01*
X90842574Y-81135853D01*
X91103727Y-81027680D01*
X91338759Y-80870637D01*
X91538637Y-80670759D01*
X91695680Y-80435727D01*
X91803853Y-80174574D01*
X91859000Y-79897335D01*
X91859000Y-79756000D01*
X96602057Y-79756000D01*
X96629764Y-80037309D01*
X96711818Y-80307808D01*
X96845068Y-80557101D01*
X97024392Y-80775608D01*
X97242899Y-80954932D01*
X97492192Y-81088182D01*
X97762691Y-81170236D01*
X97973508Y-81191000D01*
X98114492Y-81191000D01*
X98325309Y-81170236D01*
X98595808Y-81088182D01*
X98845101Y-80954932D01*
X99063608Y-80775608D01*
X99185874Y-80626626D01*
X99215363Y-80670759D01*
X99415241Y-80870637D01*
X99650273Y-81027680D01*
X99911426Y-81135853D01*
X100188665Y-81191000D01*
X100471335Y-81191000D01*
X100748574Y-81135853D01*
X101009727Y-81027680D01*
X101244759Y-80870637D01*
X101444637Y-80670759D01*
X101601680Y-80435727D01*
X101709853Y-80174574D01*
X101765000Y-79897335D01*
X101765000Y-79614665D01*
X101709853Y-79337426D01*
X101601680Y-79076273D01*
X101444637Y-78841241D01*
X101244759Y-78641363D01*
X101009727Y-78484320D01*
X100748574Y-78376147D01*
X100471335Y-78321000D01*
X100188665Y-78321000D01*
X99911426Y-78376147D01*
X99650273Y-78484320D01*
X99415241Y-78641363D01*
X99215363Y-78841241D01*
X99185874Y-78885374D01*
X99063608Y-78736392D01*
X98845101Y-78557068D01*
X98595808Y-78423818D01*
X98325309Y-78341764D01*
X98114492Y-78321000D01*
X97973508Y-78321000D01*
X97762691Y-78341764D01*
X97492192Y-78423818D01*
X97242899Y-78557068D01*
X97024392Y-78736392D01*
X96845068Y-78954899D01*
X96711818Y-79204192D01*
X96629764Y-79474691D01*
X96602057Y-79756000D01*
X91859000Y-79756000D01*
X91859000Y-79614665D01*
X91803853Y-79337426D01*
X91695680Y-79076273D01*
X91538637Y-78841241D01*
X91338759Y-78641363D01*
X91103727Y-78484320D01*
X90842574Y-78376147D01*
X90565335Y-78321000D01*
X90282665Y-78321000D01*
X90005426Y-78376147D01*
X89744273Y-78484320D01*
X89509241Y-78641363D01*
X89309363Y-78841241D01*
X89152320Y-79076273D01*
X89044147Y-79337426D01*
X88989000Y-79614665D01*
X88544000Y-79614665D01*
X88544000Y-78130000D01*
X120244000Y-78130000D01*
X120244001Y-119990000D01*
X120244001Y-119990000D01*
G37*
X120244001Y-119990000D02*
X118784544Y-119990000D01*
X118915808Y-119950182D01*
X119165101Y-119816932D01*
X119383608Y-119637608D01*
X119562932Y-119419101D01*
X119696182Y-119169808D01*
X119778236Y-118899309D01*
X119805943Y-118618000D01*
X119778236Y-118336691D01*
X119696182Y-118066192D01*
X119562932Y-117816899D01*
X119383608Y-117598392D01*
X119165101Y-117419068D01*
X118915808Y-117285818D01*
X118645309Y-117203764D01*
X118434492Y-117183000D01*
X118293508Y-117183000D01*
X118082691Y-117203764D01*
X117812192Y-117285818D01*
X117562899Y-117419068D01*
X117344392Y-117598392D01*
X117165068Y-117816899D01*
X117031818Y-118066192D01*
X116949764Y-118336691D01*
X116922057Y-118618000D01*
X116949764Y-118899309D01*
X117031818Y-119169808D01*
X117165068Y-119419101D01*
X117344392Y-119637608D01*
X117562899Y-119816932D01*
X117812192Y-119950182D01*
X117943456Y-119990000D01*
X116522022Y-119990000D01*
X116613185Y-119915185D01*
X116692537Y-119818494D01*
X116751502Y-119708180D01*
X116787812Y-119588482D01*
X116800072Y-119464000D01*
X116800072Y-117264000D01*
X116787812Y-117139518D01*
X116751502Y-117019820D01*
X116692537Y-116909506D01*
X116613185Y-116812815D01*
X116516494Y-116733463D01*
X116406180Y-116674498D01*
X116286482Y-116638188D01*
X116162000Y-116625928D01*
X113962000Y-116625928D01*
X113837518Y-116638188D01*
X113717820Y-116674498D01*
X113607506Y-116733463D01*
X113510815Y-116812815D01*
X113431463Y-116909506D01*
X113372498Y-117019820D01*
X113336188Y-117139518D01*
X113323928Y-117264000D01*
X113323928Y-119464000D01*
X113336188Y-119588482D01*
X113372498Y-119708180D01*
X113431463Y-119818494D01*
X113510815Y-119915185D01*
X113601978Y-119990000D01*
X108058684Y-119990000D01*
X108109168Y-119974686D01*
X108410578Y-119813579D01*
X108674766Y-119596766D01*
X108891579Y-119332578D01*
X109052686Y-119031168D01*
X109151895Y-118704119D01*
X109185394Y-118364000D01*
X109151895Y-118023881D01*
X109052686Y-117696832D01*
X108891579Y-117395422D01*
X108674766Y-117131234D01*
X108410578Y-116914421D01*
X108109168Y-116753314D01*
X107782119Y-116654105D01*
X107527225Y-116629000D01*
X107356775Y-116629000D01*
X107101881Y-116654105D01*
X106774832Y-116753314D01*
X106473422Y-116914421D01*
X106209234Y-117131234D01*
X105992421Y-117395422D01*
X105831314Y-117696832D01*
X105732105Y-118023881D01*
X105698606Y-118364000D01*
X105732105Y-118704119D01*
X105831314Y-119031168D01*
X105992421Y-119332578D01*
X106209234Y-119596766D01*
X106473422Y-119813579D01*
X106774832Y-119974686D01*
X106825316Y-119990000D01*
X99751533Y-119990000D01*
X99993727Y-119889680D01*
X100228759Y-119732637D01*
X100428637Y-119532759D01*
X100585680Y-119297727D01*
X100693853Y-119036574D01*
X100749000Y-118759335D01*
X100749000Y-118476665D01*
X100693853Y-118199426D01*
X100600885Y-117974980D01*
X101025437Y-117974980D01*
X101096429Y-118193094D01*
X101240031Y-118468923D01*
X101434685Y-118711437D01*
X101672911Y-118911316D01*
X101945554Y-119060879D01*
X102242137Y-119154378D01*
X102489000Y-119027570D01*
X102489000Y-117729000D01*
X102743000Y-117729000D01*
X102743000Y-119027570D01*
X102989863Y-119154378D01*
X103286446Y-119060879D01*
X103559089Y-118911316D01*
X103797315Y-118711437D01*
X103991969Y-118468923D01*
X104135571Y-118193094D01*
X104206563Y-117974980D01*
X104086594Y-117729000D01*
X102743000Y-117729000D01*
X102489000Y-117729000D01*
X101145406Y-117729000D01*
X101025437Y-117974980D01*
X100600885Y-117974980D01*
X100585680Y-117938273D01*
X100428637Y-117703241D01*
X100228759Y-117503363D01*
X99993727Y-117346320D01*
X99732574Y-117238147D01*
X99455335Y-117183000D01*
X99172665Y-117183000D01*
X98895426Y-117238147D01*
X98634273Y-117346320D01*
X98399241Y-117503363D01*
X98199363Y-117703241D01*
X98042320Y-117938273D01*
X97934147Y-118199426D01*
X97879000Y-118476665D01*
X97879000Y-118759335D01*
X97934147Y-119036574D01*
X98042320Y-119297727D01*
X98199363Y-119532759D01*
X98399241Y-119732637D01*
X98634273Y-119889680D01*
X98876467Y-119990000D01*
X90739000Y-119990000D01*
X90739000Y-117331419D01*
X91029000Y-117331419D01*
X91029000Y-117712581D01*
X91103361Y-118086419D01*
X91249225Y-118438566D01*
X91460987Y-118755491D01*
X91730509Y-119025013D01*
X92047434Y-119236775D01*
X92399581Y-119382639D01*
X92773419Y-119457000D01*
X93154581Y-119457000D01*
X93528419Y-119382639D01*
X93880566Y-119236775D01*
X94197491Y-119025013D01*
X94467013Y-118755491D01*
X94678775Y-118438566D01*
X94824639Y-118086419D01*
X94899000Y-117712581D01*
X94899000Y-117331419D01*
X94824639Y-116957581D01*
X94678775Y-116605434D01*
X94467013Y-116288509D01*
X94197491Y-116018987D01*
X93880566Y-115807225D01*
X93528419Y-115661361D01*
X93154581Y-115587000D01*
X92773419Y-115587000D01*
X92399581Y-115661361D01*
X92047434Y-115807225D01*
X91730509Y-116018987D01*
X91460987Y-116288509D01*
X91249225Y-116605434D01*
X91103361Y-116957581D01*
X91029000Y-117331419D01*
X90739000Y-117331419D01*
X90739000Y-115062000D01*
X100973319Y-115062000D01*
X101003970Y-115373204D01*
X101094745Y-115672449D01*
X101242155Y-115948235D01*
X101440537Y-116189963D01*
X101619899Y-116337163D01*
X101434685Y-116492563D01*
X101240031Y-116735077D01*
X101096429Y-117010906D01*
X101025437Y-117229020D01*
X101145406Y-117475000D01*
X102489000Y-117475000D01*
X102489000Y-117455000D01*
X102743000Y-117455000D01*
X102743000Y-117475000D01*
X104086594Y-117475000D01*
X104206563Y-117229020D01*
X104135571Y-117010906D01*
X103991969Y-116735077D01*
X103797315Y-116492563D01*
X103612101Y-116337163D01*
X103791463Y-116189963D01*
X103989845Y-115948235D01*
X104137255Y-115672449D01*
X104228030Y-115373204D01*
X104258681Y-115062000D01*
X104228030Y-114750796D01*
X104161266Y-114530702D01*
X106882903Y-114530702D01*
X106954486Y-114774671D01*
X107209996Y-114895571D01*
X107484184Y-114964300D01*
X107766512Y-114978217D01*
X108046130Y-114936787D01*
X108312292Y-114841603D01*
X108437514Y-114774671D01*
X108509097Y-114530702D01*
X107696000Y-113717605D01*
X106882903Y-114530702D01*
X104161266Y-114530702D01*
X104137255Y-114451551D01*
X103989845Y-114175765D01*
X103886554Y-114049905D01*
X103970494Y-114005037D01*
X104067185Y-113925685D01*
X104146537Y-113828994D01*
X104205502Y-113718680D01*
X104238921Y-113608512D01*
X106255783Y-113608512D01*
X106297213Y-113888130D01*
X106392397Y-114154292D01*
X106459329Y-114279514D01*
X106703298Y-114351097D01*
X107516395Y-113538000D01*
X107875605Y-113538000D01*
X108688702Y-114351097D01*
X108932671Y-114279514D01*
X109053571Y-114024004D01*
X109122300Y-113749816D01*
X109136217Y-113467488D01*
X109094787Y-113187870D01*
X108999603Y-112921708D01*
X108932671Y-112796486D01*
X108688702Y-112724903D01*
X107875605Y-113538000D01*
X107516395Y-113538000D01*
X106703298Y-112724903D01*
X106459329Y-112796486D01*
X106338429Y-113051996D01*
X106269700Y-113326184D01*
X106255783Y-113608512D01*
X104238921Y-113608512D01*
X104241812Y-113598982D01*
X104254072Y-113474500D01*
X104254072Y-111569500D01*
X104241812Y-111445018D01*
X104205502Y-111325320D01*
X104146537Y-111215006D01*
X104067185Y-111118315D01*
X103970494Y-111038963D01*
X103860180Y-110979998D01*
X103740482Y-110943688D01*
X103616000Y-110931428D01*
X101616000Y-110931428D01*
X101491518Y-110943688D01*
X101371820Y-110979998D01*
X101261506Y-111038963D01*
X101164815Y-111118315D01*
X101085463Y-111215006D01*
X101026498Y-111325320D01*
X100990188Y-111445018D01*
X100977928Y-111569500D01*
X100977928Y-113474500D01*
X100990188Y-113598982D01*
X101026498Y-113718680D01*
X101085463Y-113828994D01*
X101164815Y-113925685D01*
X101261506Y-114005037D01*
X101345446Y-114049905D01*
X101242155Y-114175765D01*
X101094745Y-114451551D01*
X101003970Y-114750796D01*
X100973319Y-115062000D01*
X90739000Y-115062000D01*
X90739000Y-112331419D01*
X91029000Y-112331419D01*
X91029000Y-112712581D01*
X91103361Y-113086419D01*
X91249225Y-113438566D01*
X91460987Y-113755491D01*
X91730509Y-114025013D01*
X92047434Y-114236775D01*
X92399581Y-114382639D01*
X92773419Y-114457000D01*
X93154581Y-114457000D01*
X93528419Y-114382639D01*
X93880566Y-114236775D01*
X94197491Y-114025013D01*
X94467013Y-113755491D01*
X94678775Y-113438566D01*
X94824639Y-113086419D01*
X94899000Y-112712581D01*
X94899000Y-112331419D01*
X94824639Y-111957581D01*
X94678775Y-111605434D01*
X94467013Y-111288509D01*
X94197491Y-111018987D01*
X94166082Y-110998000D01*
X97872057Y-110998000D01*
X97899764Y-111279309D01*
X97981818Y-111549808D01*
X98115068Y-111799101D01*
X98294392Y-112017608D01*
X98512899Y-112196932D01*
X98762192Y-112330182D01*
X99032691Y-112412236D01*
X99243508Y-112433000D01*
X99384492Y-112433000D01*
X99595309Y-112412236D01*
X99865808Y-112330182D01*
X100115101Y-112196932D01*
X100333608Y-112017608D01*
X100512932Y-111799101D01*
X100646182Y-111549808D01*
X100728236Y-111279309D01*
X100755943Y-110998000D01*
X100745963Y-110896665D01*
X106261000Y-110896665D01*
X106261000Y-111179335D01*
X106316147Y-111456574D01*
X106424320Y-111717727D01*
X106581363Y-111952759D01*
X106781241Y-112152637D01*
X106981869Y-112286692D01*
X106954486Y-112301329D01*
X106882903Y-112545298D01*
X107696000Y-113358395D01*
X108509097Y-112545298D01*
X108437514Y-112301329D01*
X108408659Y-112287676D01*
X108610759Y-112152637D01*
X108787396Y-111976000D01*
X110361928Y-111976000D01*
X110361928Y-113576000D01*
X110374188Y-113700482D01*
X110410498Y-113820180D01*
X110469463Y-113930494D01*
X110548815Y-114027185D01*
X110645506Y-114106537D01*
X110755820Y-114165502D01*
X110875518Y-114201812D01*
X111000000Y-114214072D01*
X112600000Y-114214072D01*
X112724482Y-114201812D01*
X112844180Y-114165502D01*
X112954494Y-114106537D01*
X113051185Y-114027185D01*
X113130537Y-113930494D01*
X113189502Y-113820180D01*
X113205117Y-113768702D01*
X113486903Y-113768702D01*
X113558486Y-114012671D01*
X113813996Y-114133571D01*
X114088184Y-114202300D01*
X114370512Y-114216217D01*
X114650130Y-114174787D01*
X114916292Y-114079603D01*
X115041514Y-114012671D01*
X115113097Y-113768702D01*
X114300000Y-112955605D01*
X113486903Y-113768702D01*
X113205117Y-113768702D01*
X113225812Y-113700482D01*
X113238072Y-113576000D01*
X113238072Y-113568785D01*
X113307298Y-113589097D01*
X114120395Y-112776000D01*
X114479605Y-112776000D01*
X115292702Y-113589097D01*
X115536671Y-113517514D01*
X115657571Y-113262004D01*
X115726300Y-112987816D01*
X115740217Y-112705488D01*
X115698787Y-112425870D01*
X115603603Y-112159708D01*
X115536671Y-112034486D01*
X115292702Y-111962903D01*
X114479605Y-112776000D01*
X114120395Y-112776000D01*
X113307298Y-111962903D01*
X113238072Y-111983215D01*
X113238072Y-111976000D01*
X113225812Y-111851518D01*
X113205118Y-111783298D01*
X113486903Y-111783298D01*
X114300000Y-112596395D01*
X115113097Y-111783298D01*
X115041514Y-111539329D01*
X114786004Y-111418429D01*
X114511816Y-111349700D01*
X114229488Y-111335783D01*
X113949870Y-111377213D01*
X113683708Y-111472397D01*
X113558486Y-111539329D01*
X113486903Y-111783298D01*
X113205118Y-111783298D01*
X113189502Y-111731820D01*
X113130537Y-111621506D01*
X113051185Y-111524815D01*
X112954494Y-111445463D01*
X112844180Y-111386498D01*
X112724482Y-111350188D01*
X112600000Y-111337928D01*
X111000000Y-111337928D01*
X110875518Y-111350188D01*
X110755820Y-111386498D01*
X110645506Y-111445463D01*
X110548815Y-111524815D01*
X110469463Y-111621506D01*
X110410498Y-111731820D01*
X110374188Y-111851518D01*
X110361928Y-111976000D01*
X108787396Y-111976000D01*
X108810637Y-111952759D01*
X108967680Y-111717727D01*
X109075853Y-111456574D01*
X109131000Y-111179335D01*
X109131000Y-110896665D01*
X109123044Y-110856665D01*
X116929000Y-110856665D01*
X116929000Y-111139335D01*
X116984147Y-111416574D01*
X117092320Y-111677727D01*
X117249363Y-111912759D01*
X117449241Y-112112637D01*
X117684273Y-112269680D01*
X117945426Y-112377853D01*
X118222665Y-112433000D01*
X118505335Y-112433000D01*
X118782574Y-112377853D01*
X119043727Y-112269680D01*
X119278759Y-112112637D01*
X119478637Y-111912759D01*
X119635680Y-111677727D01*
X119743853Y-111416574D01*
X119799000Y-111139335D01*
X119799000Y-110856665D01*
X119743853Y-110579426D01*
X119635680Y-110318273D01*
X119478637Y-110083241D01*
X119278759Y-109883363D01*
X119043727Y-109726320D01*
X118782574Y-109618147D01*
X118505335Y-109563000D01*
X118222665Y-109563000D01*
X117945426Y-109618147D01*
X117684273Y-109726320D01*
X117449241Y-109883363D01*
X117249363Y-110083241D01*
X117092320Y-110318273D01*
X116984147Y-110579426D01*
X116929000Y-110856665D01*
X109123044Y-110856665D01*
X109075853Y-110619426D01*
X108967680Y-110358273D01*
X108810637Y-110123241D01*
X108610759Y-109923363D01*
X108375727Y-109766320D01*
X108114574Y-109658147D01*
X107837335Y-109603000D01*
X107554665Y-109603000D01*
X107277426Y-109658147D01*
X107016273Y-109766320D01*
X106781241Y-109923363D01*
X106581363Y-110123241D01*
X106424320Y-110358273D01*
X106316147Y-110619426D01*
X106261000Y-110896665D01*
X100745963Y-110896665D01*
X100728236Y-110716691D01*
X100646182Y-110446192D01*
X100512932Y-110196899D01*
X100333608Y-109978392D01*
X100115101Y-109799068D01*
X99865808Y-109665818D01*
X99595309Y-109583764D01*
X99384492Y-109563000D01*
X99243508Y-109563000D01*
X99032691Y-109583764D01*
X98762192Y-109665818D01*
X98512899Y-109799068D01*
X98294392Y-109978392D01*
X98115068Y-110196899D01*
X97981818Y-110446192D01*
X97899764Y-110716691D01*
X97872057Y-110998000D01*
X94166082Y-110998000D01*
X94064461Y-110930100D01*
X94424825Y-110569736D01*
X94461172Y-110539907D01*
X94580200Y-110394870D01*
X94668646Y-110229398D01*
X94723111Y-110049852D01*
X94736894Y-109909914D01*
X94741502Y-109863130D01*
X94736894Y-109816345D01*
X94736894Y-107578179D01*
X94741502Y-107531394D01*
X94723111Y-107344671D01*
X94712670Y-107310251D01*
X94668646Y-107165125D01*
X94580200Y-106999653D01*
X94568521Y-106985422D01*
X94652494Y-106940537D01*
X94749185Y-106861185D01*
X94828537Y-106764494D01*
X94887502Y-106654180D01*
X94920496Y-106545413D01*
X97342192Y-106545413D01*
X97437956Y-106809814D01*
X97727571Y-106950704D01*
X98039108Y-107032384D01*
X98360595Y-107051718D01*
X98679675Y-107007961D01*
X98984088Y-106902795D01*
X99158044Y-106809814D01*
X99253808Y-106545413D01*
X98298000Y-105589605D01*
X97342192Y-106545413D01*
X94920496Y-106545413D01*
X94923812Y-106534482D01*
X94936072Y-106410000D01*
X94936072Y-105472595D01*
X96656282Y-105472595D01*
X96700039Y-105791675D01*
X96805205Y-106096088D01*
X96898186Y-106270044D01*
X97162587Y-106365808D01*
X98118395Y-105410000D01*
X97162587Y-104454192D01*
X96898186Y-104549956D01*
X96757296Y-104839571D01*
X96675616Y-105151108D01*
X96656282Y-105472595D01*
X94936072Y-105472595D01*
X94936072Y-104410000D01*
X94923812Y-104285518D01*
X94887502Y-104165820D01*
X94828537Y-104055506D01*
X94749185Y-103958815D01*
X94652494Y-103879463D01*
X94579560Y-103840478D01*
X97873501Y-100546537D01*
X97873501Y-101573206D01*
X97868892Y-101620000D01*
X97887283Y-101806722D01*
X97922034Y-101921278D01*
X97941749Y-101986269D01*
X98030195Y-102151741D01*
X98149223Y-102296778D01*
X98185564Y-102326602D01*
X99377500Y-103518539D01*
X99377501Y-104166943D01*
X99369475Y-104158917D01*
X99253807Y-104274585D01*
X99158044Y-104010186D01*
X98868429Y-103869296D01*
X98556892Y-103787616D01*
X98235405Y-103768282D01*
X97916325Y-103812039D01*
X97611912Y-103917205D01*
X97437956Y-104010186D01*
X97342192Y-104274587D01*
X98298000Y-105230395D01*
X98312143Y-105216253D01*
X98491748Y-105395858D01*
X98477605Y-105410000D01*
X99433413Y-106365808D01*
X99697814Y-106270044D01*
X99838704Y-105980429D01*
X99920384Y-105668892D01*
X99933231Y-105455269D01*
X101544397Y-107066436D01*
X101574222Y-107102778D01*
X101719259Y-107221806D01*
X101884731Y-107310252D01*
X102064277Y-107364717D01*
X102247928Y-107382806D01*
X102247928Y-107680000D01*
X102260188Y-107804482D01*
X102296498Y-107924180D01*
X102355463Y-108034494D01*
X102434815Y-108131185D01*
X102531506Y-108210537D01*
X102641820Y-108269502D01*
X102761518Y-108305812D01*
X102886000Y-108318072D01*
X104886000Y-108318072D01*
X105010482Y-108305812D01*
X105130180Y-108269502D01*
X105240494Y-108210537D01*
X105337185Y-108131185D01*
X105416537Y-108034494D01*
X105475502Y-107924180D01*
X105491037Y-107872967D01*
X105565956Y-108079814D01*
X105855571Y-108220704D01*
X106167108Y-108302384D01*
X106488595Y-108321718D01*
X106807675Y-108277961D01*
X107112088Y-108172795D01*
X107286044Y-108079814D01*
X107381808Y-107815413D01*
X106426000Y-106859605D01*
X106411858Y-106873748D01*
X106232253Y-106694143D01*
X106246395Y-106680000D01*
X106232253Y-106665858D01*
X106411858Y-106486253D01*
X106426000Y-106500395D01*
X106440143Y-106486253D01*
X106619748Y-106665858D01*
X106605605Y-106680000D01*
X107561413Y-107635808D01*
X107623280Y-107613400D01*
X107696013Y-107722252D01*
X107923748Y-107949987D01*
X108191537Y-108128918D01*
X108489088Y-108252168D01*
X108804967Y-108315000D01*
X109127033Y-108315000D01*
X109442912Y-108252168D01*
X109740463Y-108128918D01*
X110008252Y-107949987D01*
X110235987Y-107722252D01*
X110414918Y-107454463D01*
X110525290Y-107188000D01*
X111842057Y-107188000D01*
X111869764Y-107469309D01*
X111951818Y-107739808D01*
X112085068Y-107989101D01*
X112264392Y-108207608D01*
X112482899Y-108386932D01*
X112732192Y-108520182D01*
X113002691Y-108602236D01*
X113213508Y-108623000D01*
X113354492Y-108623000D01*
X113565309Y-108602236D01*
X113835808Y-108520182D01*
X114085101Y-108386932D01*
X114303608Y-108207608D01*
X114482932Y-107989101D01*
X114503831Y-107950000D01*
X116871815Y-107950000D01*
X116900487Y-108241111D01*
X116985401Y-108521034D01*
X117123294Y-108779014D01*
X117308866Y-109005134D01*
X117534986Y-109190706D01*
X117792966Y-109328599D01*
X118072889Y-109413513D01*
X118291050Y-109435000D01*
X118436950Y-109435000D01*
X118655111Y-109413513D01*
X118935034Y-109328599D01*
X119193014Y-109190706D01*
X119419134Y-109005134D01*
X119604706Y-108779014D01*
X119742599Y-108521034D01*
X119827513Y-108241111D01*
X119856185Y-107950000D01*
X119827513Y-107658889D01*
X119742599Y-107378966D01*
X119604706Y-107120986D01*
X119419134Y-106894866D01*
X119193014Y-106709294D01*
X119128477Y-106674799D01*
X119245355Y-106605178D01*
X119461588Y-106410269D01*
X119635641Y-106176920D01*
X119760825Y-105914099D01*
X119805476Y-105766890D01*
X119684155Y-105537000D01*
X118491000Y-105537000D01*
X118491000Y-105557000D01*
X118237000Y-105557000D01*
X118237000Y-105537000D01*
X117043845Y-105537000D01*
X116922524Y-105766890D01*
X116967175Y-105914099D01*
X117092359Y-106176920D01*
X117266412Y-106410269D01*
X117482645Y-106605178D01*
X117599523Y-106674799D01*
X117534986Y-106709294D01*
X117308866Y-106894866D01*
X117123294Y-107120986D01*
X116985401Y-107378966D01*
X116900487Y-107658889D01*
X116871815Y-107950000D01*
X114503831Y-107950000D01*
X114616182Y-107739808D01*
X114698236Y-107469309D01*
X114725943Y-107188000D01*
X114698236Y-106906691D01*
X114616182Y-106636192D01*
X114482932Y-106386899D01*
X114303608Y-106168392D01*
X114085101Y-105989068D01*
X113835808Y-105855818D01*
X113565309Y-105773764D01*
X113354492Y-105753000D01*
X113213508Y-105753000D01*
X113002691Y-105773764D01*
X112732192Y-105855818D01*
X112482899Y-105989068D01*
X112264392Y-106168392D01*
X112085068Y-106386899D01*
X111951818Y-106636192D01*
X111869764Y-106906691D01*
X111842057Y-107188000D01*
X110525290Y-107188000D01*
X110538168Y-107156912D01*
X110601000Y-106841033D01*
X110601000Y-106518967D01*
X110538168Y-106203088D01*
X110414918Y-105905537D01*
X110235987Y-105637748D01*
X110008252Y-105410013D01*
X109740463Y-105231082D01*
X109442912Y-105107832D01*
X109127033Y-105045000D01*
X108804967Y-105045000D01*
X108606576Y-105084462D01*
X110148039Y-103543000D01*
X110377335Y-103543000D01*
X110654574Y-103487853D01*
X110915727Y-103379680D01*
X111150759Y-103222637D01*
X111350637Y-103022759D01*
X111507680Y-102787727D01*
X111615853Y-102526574D01*
X111671000Y-102249335D01*
X111671000Y-102020000D01*
X116875928Y-102020000D01*
X116875928Y-103720000D01*
X116888188Y-103844482D01*
X116924498Y-103964180D01*
X116983463Y-104074494D01*
X117062815Y-104171185D01*
X117159506Y-104250537D01*
X117269820Y-104309502D01*
X117350466Y-104333966D01*
X117266412Y-104409731D01*
X117092359Y-104643080D01*
X116967175Y-104905901D01*
X116922524Y-105053110D01*
X117043845Y-105283000D01*
X118237000Y-105283000D01*
X118237000Y-105263000D01*
X118491000Y-105263000D01*
X118491000Y-105283000D01*
X119684155Y-105283000D01*
X119805476Y-105053110D01*
X119760825Y-104905901D01*
X119635641Y-104643080D01*
X119461588Y-104409731D01*
X119377534Y-104333966D01*
X119458180Y-104309502D01*
X119568494Y-104250537D01*
X119665185Y-104171185D01*
X119744537Y-104074494D01*
X119803502Y-103964180D01*
X119839812Y-103844482D01*
X119852072Y-103720000D01*
X119852072Y-102020000D01*
X119839812Y-101895518D01*
X119803502Y-101775820D01*
X119744537Y-101665506D01*
X119665185Y-101568815D01*
X119568494Y-101489463D01*
X119458180Y-101430498D01*
X119338482Y-101394188D01*
X119214000Y-101381928D01*
X117514000Y-101381928D01*
X117389518Y-101394188D01*
X117269820Y-101430498D01*
X117159506Y-101489463D01*
X117062815Y-101568815D01*
X116983463Y-101665506D01*
X116924498Y-101775820D01*
X116888188Y-101895518D01*
X116875928Y-102020000D01*
X111671000Y-102020000D01*
X111671000Y-101966665D01*
X111615853Y-101689426D01*
X111507680Y-101428273D01*
X111350637Y-101193241D01*
X111150759Y-100993363D01*
X110950131Y-100859308D01*
X110977514Y-100844671D01*
X111049097Y-100600702D01*
X110236000Y-99787605D01*
X109422903Y-100600702D01*
X109494486Y-100844671D01*
X109523341Y-100858324D01*
X109321241Y-100993363D01*
X109121363Y-101193241D01*
X108964320Y-101428273D01*
X108856147Y-101689426D01*
X108801000Y-101966665D01*
X108801000Y-102195961D01*
X107047462Y-103949500D01*
X105456784Y-103949500D01*
X105409999Y-103944892D01*
X105268640Y-103958815D01*
X105223277Y-103963283D01*
X105043731Y-104017748D01*
X104878259Y-104106194D01*
X104733222Y-104225222D01*
X104703393Y-104261569D01*
X103923034Y-105041928D01*
X102886000Y-105041928D01*
X102761518Y-105054188D01*
X102641820Y-105090498D01*
X102531506Y-105149463D01*
X102434815Y-105228815D01*
X102419507Y-105247468D01*
X101282500Y-104110462D01*
X101282500Y-103170784D01*
X101287108Y-103123999D01*
X101268717Y-102937277D01*
X101214252Y-102757731D01*
X101125806Y-102592259D01*
X101006778Y-102447222D01*
X100970436Y-102417397D01*
X99778500Y-101225462D01*
X99778500Y-100406532D01*
X102064227Y-100406532D01*
X102114916Y-100858434D01*
X102252415Y-101291885D01*
X102471486Y-101690373D01*
X102763784Y-102038721D01*
X103118178Y-102323661D01*
X103521167Y-102534338D01*
X103957402Y-102662729D01*
X104410266Y-102703943D01*
X104862512Y-102656410D01*
X105296911Y-102521941D01*
X105696919Y-102305658D01*
X106047300Y-102015798D01*
X106334706Y-101663402D01*
X106548192Y-101261894D01*
X106679626Y-100826566D01*
X106724000Y-100374000D01*
X106723092Y-100308943D01*
X106666098Y-99857792D01*
X106606460Y-99678512D01*
X108795783Y-99678512D01*
X108837213Y-99958130D01*
X108932397Y-100224292D01*
X108999329Y-100349514D01*
X109243298Y-100421097D01*
X110056395Y-99608000D01*
X110415605Y-99608000D01*
X111228702Y-100421097D01*
X111472671Y-100349514D01*
X111593571Y-100094004D01*
X111662300Y-99819816D01*
X111676217Y-99537488D01*
X111659797Y-99426665D01*
X111849000Y-99426665D01*
X111849000Y-99709335D01*
X111904147Y-99986574D01*
X112012320Y-100247727D01*
X112169363Y-100482759D01*
X112369241Y-100682637D01*
X112604273Y-100839680D01*
X112865426Y-100947853D01*
X113142665Y-101003000D01*
X113425335Y-101003000D01*
X113702574Y-100947853D01*
X113963727Y-100839680D01*
X114198759Y-100682637D01*
X114320694Y-100560702D01*
X115050903Y-100560702D01*
X115122486Y-100804671D01*
X115377996Y-100925571D01*
X115652184Y-100994300D01*
X115934512Y-101008217D01*
X116214130Y-100966787D01*
X116480292Y-100871603D01*
X116605514Y-100804671D01*
X116677097Y-100560702D01*
X115864000Y-99747605D01*
X115050903Y-100560702D01*
X114320694Y-100560702D01*
X114398637Y-100482759D01*
X114555680Y-100247727D01*
X114572543Y-100207016D01*
X114627329Y-100309514D01*
X114871298Y-100381097D01*
X115684395Y-99568000D01*
X116043605Y-99568000D01*
X116856702Y-100381097D01*
X117100671Y-100309514D01*
X117114324Y-100280659D01*
X117249363Y-100482759D01*
X117449241Y-100682637D01*
X117684273Y-100839680D01*
X117945426Y-100947853D01*
X118222665Y-101003000D01*
X118505335Y-101003000D01*
X118782574Y-100947853D01*
X119043727Y-100839680D01*
X119278759Y-100682637D01*
X119478637Y-100482759D01*
X119635680Y-100247727D01*
X119743853Y-99986574D01*
X119799000Y-99709335D01*
X119799000Y-99426665D01*
X119743853Y-99149426D01*
X119635680Y-98888273D01*
X119478637Y-98653241D01*
X119278759Y-98453363D01*
X119043727Y-98296320D01*
X118782574Y-98188147D01*
X118505335Y-98133000D01*
X118222665Y-98133000D01*
X117945426Y-98188147D01*
X117684273Y-98296320D01*
X117449241Y-98453363D01*
X117249363Y-98653241D01*
X117115308Y-98853869D01*
X117100671Y-98826486D01*
X116856702Y-98754903D01*
X116043605Y-99568000D01*
X115684395Y-99568000D01*
X114871298Y-98754903D01*
X114627329Y-98826486D01*
X114575478Y-98936069D01*
X114555680Y-98888273D01*
X114398637Y-98653241D01*
X114320694Y-98575298D01*
X115050903Y-98575298D01*
X115864000Y-99388395D01*
X116677097Y-98575298D01*
X116605514Y-98331329D01*
X116350004Y-98210429D01*
X116075816Y-98141700D01*
X115793488Y-98127783D01*
X115513870Y-98169213D01*
X115247708Y-98264397D01*
X115122486Y-98331329D01*
X115050903Y-98575298D01*
X114320694Y-98575298D01*
X114198759Y-98453363D01*
X113963727Y-98296320D01*
X113702574Y-98188147D01*
X113425335Y-98133000D01*
X113142665Y-98133000D01*
X112865426Y-98188147D01*
X112604273Y-98296320D01*
X112369241Y-98453363D01*
X112169363Y-98653241D01*
X112012320Y-98888273D01*
X111904147Y-99149426D01*
X111849000Y-99426665D01*
X111659797Y-99426665D01*
X111634787Y-99257870D01*
X111539603Y-98991708D01*
X111472671Y-98866486D01*
X111228702Y-98794903D01*
X110415605Y-99608000D01*
X110056395Y-99608000D01*
X109243298Y-98794903D01*
X108999329Y-98866486D01*
X108878429Y-99121996D01*
X108809700Y-99396184D01*
X108795783Y-99678512D01*
X106606460Y-99678512D01*
X106522561Y-99426304D01*
X106297948Y-99030913D01*
X106000814Y-98686680D01*
X105909450Y-98615298D01*
X109422903Y-98615298D01*
X110236000Y-99428395D01*
X111049097Y-98615298D01*
X110977514Y-98371329D01*
X110722004Y-98250429D01*
X110447816Y-98181700D01*
X110165488Y-98167783D01*
X109885870Y-98209213D01*
X109619708Y-98304397D01*
X109494486Y-98371329D01*
X109422903Y-98615298D01*
X105909450Y-98615298D01*
X105642476Y-98406716D01*
X105236585Y-98201686D01*
X104798600Y-98079398D01*
X104345204Y-98044511D01*
X103893667Y-98098354D01*
X103461187Y-98238875D01*
X103064237Y-98460722D01*
X102717938Y-98755446D01*
X102435480Y-99111820D01*
X102227621Y-99516270D01*
X102102278Y-99953390D01*
X102064227Y-100406532D01*
X99778500Y-100406532D01*
X99778500Y-99573092D01*
X99855741Y-99531806D01*
X100000778Y-99412778D01*
X100119806Y-99267741D01*
X100184294Y-99147091D01*
X100279349Y-99004831D01*
X100402975Y-98706370D01*
X100466000Y-98389526D01*
X100466000Y-98066474D01*
X100402975Y-97749630D01*
X100279349Y-97451169D01*
X100099871Y-97182561D01*
X99871439Y-96954129D01*
X99602831Y-96774651D01*
X99304370Y-96651025D01*
X98987526Y-96588000D01*
X98664474Y-96588000D01*
X98347630Y-96651025D01*
X98343694Y-96652655D01*
X96602217Y-94911179D01*
X96618637Y-94894759D01*
X96775680Y-94659727D01*
X96883853Y-94398574D01*
X96939000Y-94121335D01*
X96939000Y-93980000D01*
X101682057Y-93980000D01*
X101709764Y-94261309D01*
X101791818Y-94531808D01*
X101925068Y-94781101D01*
X102104392Y-94999608D01*
X102322899Y-95178932D01*
X102572192Y-95312182D01*
X102842691Y-95394236D01*
X103053508Y-95415000D01*
X103194492Y-95415000D01*
X103405309Y-95394236D01*
X103675808Y-95312182D01*
X103769691Y-95262000D01*
X106053928Y-95262000D01*
X106053928Y-96762000D01*
X106066188Y-96886482D01*
X106102498Y-97006180D01*
X106161463Y-97116494D01*
X106240815Y-97213185D01*
X106337506Y-97292537D01*
X106447820Y-97351502D01*
X106567518Y-97387812D01*
X106692000Y-97400072D01*
X108192000Y-97400072D01*
X108316482Y-97387812D01*
X108436180Y-97351502D01*
X108546494Y-97292537D01*
X108643185Y-97213185D01*
X108722537Y-97116494D01*
X108781502Y-97006180D01*
X108817812Y-96886482D01*
X108830072Y-96762000D01*
X108830072Y-95720000D01*
X109305928Y-95720000D01*
X109305928Y-97320000D01*
X109318188Y-97444482D01*
X109354498Y-97564180D01*
X109413463Y-97674494D01*
X109492815Y-97771185D01*
X109589506Y-97850537D01*
X109699820Y-97909502D01*
X109819518Y-97945812D01*
X109944000Y-97958072D01*
X111544000Y-97958072D01*
X111668482Y-97945812D01*
X111788180Y-97909502D01*
X111898494Y-97850537D01*
X111995185Y-97771185D01*
X112074537Y-97674494D01*
X112133502Y-97564180D01*
X112169812Y-97444482D01*
X112182072Y-97320000D01*
X112182072Y-96520000D01*
X116922057Y-96520000D01*
X116949764Y-96801309D01*
X117031818Y-97071808D01*
X117165068Y-97321101D01*
X117344392Y-97539608D01*
X117562899Y-97718932D01*
X117812192Y-97852182D01*
X118082691Y-97934236D01*
X118293508Y-97955000D01*
X118434492Y-97955000D01*
X118645309Y-97934236D01*
X118915808Y-97852182D01*
X119165101Y-97718932D01*
X119383608Y-97539608D01*
X119562932Y-97321101D01*
X119696182Y-97071808D01*
X119778236Y-96801309D01*
X119805943Y-96520000D01*
X119778236Y-96238691D01*
X119696182Y-95968192D01*
X119562932Y-95718899D01*
X119383608Y-95500392D01*
X119165101Y-95321068D01*
X118915808Y-95187818D01*
X118645309Y-95105764D01*
X118434492Y-95085000D01*
X118293508Y-95085000D01*
X118082691Y-95105764D01*
X117812192Y-95187818D01*
X117562899Y-95321068D01*
X117344392Y-95500392D01*
X117165068Y-95718899D01*
X117031818Y-95968192D01*
X116949764Y-96238691D01*
X116922057Y-96520000D01*
X112182072Y-96520000D01*
X112182072Y-95720000D01*
X112169812Y-95595518D01*
X112133502Y-95475820D01*
X112074537Y-95365506D01*
X111995185Y-95268815D01*
X111898494Y-95189463D01*
X111788180Y-95130498D01*
X111668482Y-95094188D01*
X111544000Y-95081928D01*
X109944000Y-95081928D01*
X109819518Y-95094188D01*
X109699820Y-95130498D01*
X109589506Y-95189463D01*
X109492815Y-95268815D01*
X109413463Y-95365506D01*
X109354498Y-95475820D01*
X109318188Y-95595518D01*
X109305928Y-95720000D01*
X108830072Y-95720000D01*
X108830072Y-95262000D01*
X108817812Y-95137518D01*
X108781502Y-95017820D01*
X108722537Y-94907506D01*
X108643185Y-94810815D01*
X108546494Y-94731463D01*
X108436180Y-94672498D01*
X108316482Y-94636188D01*
X108192000Y-94623928D01*
X108121155Y-94623928D01*
X108324886Y-94487799D01*
X108517799Y-94294886D01*
X108669371Y-94068043D01*
X108773775Y-93815989D01*
X108827000Y-93548411D01*
X108827000Y-93330665D01*
X109309000Y-93330665D01*
X109309000Y-93613335D01*
X109364147Y-93890574D01*
X109472320Y-94151727D01*
X109629363Y-94386759D01*
X109829241Y-94586637D01*
X110064273Y-94743680D01*
X110325426Y-94851853D01*
X110602665Y-94907000D01*
X110885335Y-94907000D01*
X111162574Y-94851853D01*
X111423727Y-94743680D01*
X111658759Y-94586637D01*
X111858637Y-94386759D01*
X112015680Y-94151727D01*
X112123853Y-93890574D01*
X112137684Y-93821039D01*
X116972096Y-93821039D01*
X117012754Y-93955087D01*
X117132963Y-94209420D01*
X117300481Y-94435414D01*
X117508869Y-94624385D01*
X117750119Y-94769070D01*
X118014960Y-94863909D01*
X118237000Y-94742624D01*
X118237000Y-93599000D01*
X118491000Y-93599000D01*
X118491000Y-94742624D01*
X118713040Y-94863909D01*
X118977881Y-94769070D01*
X119219131Y-94624385D01*
X119427519Y-94435414D01*
X119595037Y-94209420D01*
X119715246Y-93955087D01*
X119755904Y-93821039D01*
X119633915Y-93599000D01*
X118491000Y-93599000D01*
X118237000Y-93599000D01*
X117094085Y-93599000D01*
X116972096Y-93821039D01*
X112137684Y-93821039D01*
X112179000Y-93613335D01*
X112179000Y-93330665D01*
X112137685Y-93122961D01*
X116972096Y-93122961D01*
X117094085Y-93345000D01*
X118237000Y-93345000D01*
X118237000Y-92201376D01*
X118491000Y-92201376D01*
X118491000Y-93345000D01*
X119633915Y-93345000D01*
X119755904Y-93122961D01*
X119715246Y-92988913D01*
X119595037Y-92734580D01*
X119427519Y-92508586D01*
X119219131Y-92319615D01*
X118977881Y-92174930D01*
X118713040Y-92080091D01*
X118491000Y-92201376D01*
X118237000Y-92201376D01*
X118014960Y-92080091D01*
X117750119Y-92174930D01*
X117508869Y-92319615D01*
X117300481Y-92508586D01*
X117132963Y-92734580D01*
X117012754Y-92988913D01*
X116972096Y-93122961D01*
X112137685Y-93122961D01*
X112123853Y-93053426D01*
X112015680Y-92792273D01*
X111858637Y-92557241D01*
X111658759Y-92357363D01*
X111423727Y-92200320D01*
X111162574Y-92092147D01*
X110885335Y-92037000D01*
X110602665Y-92037000D01*
X110325426Y-92092147D01*
X110064273Y-92200320D01*
X109829241Y-92357363D01*
X109629363Y-92557241D01*
X109472320Y-92792273D01*
X109364147Y-93053426D01*
X109309000Y-93330665D01*
X108827000Y-93330665D01*
X108827000Y-93275589D01*
X108773775Y-93008011D01*
X108669371Y-92755957D01*
X108517799Y-92529114D01*
X108324886Y-92336201D01*
X108098043Y-92184629D01*
X107921345Y-92111439D01*
X108040832Y-92068277D01*
X108153863Y-92007860D01*
X108219388Y-91768993D01*
X107442000Y-90991605D01*
X106664612Y-91768993D01*
X106730137Y-92007860D01*
X106956390Y-92114034D01*
X106785957Y-92184629D01*
X106559114Y-92336201D01*
X106366201Y-92529114D01*
X106214629Y-92755957D01*
X106110225Y-93008011D01*
X106057000Y-93275589D01*
X106057000Y-93548411D01*
X106110225Y-93815989D01*
X106214629Y-94068043D01*
X106366201Y-94294886D01*
X106559114Y-94487799D01*
X106762845Y-94623928D01*
X106692000Y-94623928D01*
X106567518Y-94636188D01*
X106447820Y-94672498D01*
X106337506Y-94731463D01*
X106240815Y-94810815D01*
X106161463Y-94907506D01*
X106102498Y-95017820D01*
X106066188Y-95137518D01*
X106053928Y-95262000D01*
X103769691Y-95262000D01*
X103925101Y-95178932D01*
X104143608Y-94999608D01*
X104322932Y-94781101D01*
X104456182Y-94531808D01*
X104538236Y-94261309D01*
X104565943Y-93980000D01*
X104538236Y-93698691D01*
X104456182Y-93428192D01*
X104322932Y-93178899D01*
X104143608Y-92960392D01*
X103925101Y-92781068D01*
X103675808Y-92647818D01*
X103405309Y-92565764D01*
X103194492Y-92545000D01*
X103053508Y-92545000D01*
X102842691Y-92565764D01*
X102572192Y-92647818D01*
X102322899Y-92781068D01*
X102104392Y-92960392D01*
X101925068Y-93178899D01*
X101791818Y-93428192D01*
X101709764Y-93698691D01*
X101682057Y-93980000D01*
X96939000Y-93980000D01*
X96939000Y-93838665D01*
X96883853Y-93561426D01*
X96775680Y-93300273D01*
X96618637Y-93065241D01*
X96456500Y-92903104D01*
X96456500Y-91754896D01*
X96618637Y-91592759D01*
X96775680Y-91357727D01*
X96883853Y-91096574D01*
X96939000Y-90819335D01*
X96939000Y-90590038D01*
X101705708Y-85823330D01*
X101744147Y-86016574D01*
X101852320Y-86277727D01*
X102009363Y-86512759D01*
X102209241Y-86712637D01*
X102441759Y-86868000D01*
X102209241Y-87023363D01*
X102009363Y-87223241D01*
X101852320Y-87458273D01*
X101744147Y-87719426D01*
X101689000Y-87996665D01*
X101689000Y-88279335D01*
X101744147Y-88556574D01*
X101852320Y-88817727D01*
X102009363Y-89052759D01*
X102209241Y-89252637D01*
X102441759Y-89408000D01*
X102209241Y-89563363D01*
X102009363Y-89763241D01*
X101852320Y-89998273D01*
X101744147Y-90259426D01*
X101689000Y-90536665D01*
X101689000Y-90819335D01*
X101744147Y-91096574D01*
X101852320Y-91357727D01*
X102009363Y-91592759D01*
X102209241Y-91792637D01*
X102444273Y-91949680D01*
X102705426Y-92057853D01*
X102982665Y-92113000D01*
X103265335Y-92113000D01*
X103542574Y-92057853D01*
X103803727Y-91949680D01*
X104038759Y-91792637D01*
X104238637Y-91592759D01*
X104395680Y-91357727D01*
X104503853Y-91096574D01*
X104546039Y-90884492D01*
X106052188Y-90884492D01*
X106093035Y-91154238D01*
X106185723Y-91410832D01*
X106246140Y-91523863D01*
X106485007Y-91589388D01*
X107262395Y-90812000D01*
X107621605Y-90812000D01*
X108398993Y-91589388D01*
X108637860Y-91523863D01*
X108753760Y-91276884D01*
X108819250Y-91012040D01*
X108831812Y-90739508D01*
X108790965Y-90469762D01*
X108698277Y-90213168D01*
X108637860Y-90100137D01*
X108398993Y-90034612D01*
X107621605Y-90812000D01*
X107262395Y-90812000D01*
X106485007Y-90034612D01*
X106246140Y-90100137D01*
X106130240Y-90347116D01*
X106064750Y-90611960D01*
X106052188Y-90884492D01*
X104546039Y-90884492D01*
X104559000Y-90819335D01*
X104559000Y-90536665D01*
X104503853Y-90259426D01*
X104395680Y-89998273D01*
X104238637Y-89763241D01*
X104038759Y-89563363D01*
X103806241Y-89408000D01*
X104038759Y-89252637D01*
X104238637Y-89052759D01*
X104395680Y-88817727D01*
X104503853Y-88556574D01*
X104559000Y-88279335D01*
X104559000Y-87996665D01*
X104503853Y-87719426D01*
X104395680Y-87458273D01*
X104348726Y-87388000D01*
X106053928Y-87388000D01*
X106053928Y-88888000D01*
X106066188Y-89012482D01*
X106102498Y-89132180D01*
X106161463Y-89242494D01*
X106240815Y-89339185D01*
X106337506Y-89418537D01*
X106447820Y-89477502D01*
X106567518Y-89513812D01*
X106692000Y-89526072D01*
X106925253Y-89526072D01*
X106843168Y-89555723D01*
X106730137Y-89616140D01*
X106664612Y-89855007D01*
X107442000Y-90632395D01*
X108219388Y-89855007D01*
X108153863Y-89616140D01*
X107961931Y-89526072D01*
X108192000Y-89526072D01*
X108316482Y-89513812D01*
X108436180Y-89477502D01*
X108546494Y-89418537D01*
X108643185Y-89339185D01*
X108722537Y-89242494D01*
X108781502Y-89132180D01*
X108815366Y-89020544D01*
X113707000Y-89020544D01*
X113707000Y-89287456D01*
X113759072Y-89549239D01*
X113861215Y-89795833D01*
X114009503Y-90017762D01*
X114198238Y-90206497D01*
X114420167Y-90354785D01*
X114666761Y-90456928D01*
X114928544Y-90509000D01*
X115195456Y-90509000D01*
X115457239Y-90456928D01*
X115703833Y-90354785D01*
X115925762Y-90206497D01*
X116114497Y-90017762D01*
X116262785Y-89795833D01*
X116364928Y-89549239D01*
X116417000Y-89287456D01*
X116417000Y-89020544D01*
X116364928Y-88758761D01*
X116262785Y-88512167D01*
X116114497Y-88290238D01*
X115925762Y-88101503D01*
X115703833Y-87953215D01*
X115457239Y-87851072D01*
X115195456Y-87799000D01*
X114928544Y-87799000D01*
X114666761Y-87851072D01*
X114420167Y-87953215D01*
X114198238Y-88101503D01*
X114009503Y-88290238D01*
X113861215Y-88512167D01*
X113759072Y-88758761D01*
X113707000Y-89020544D01*
X108815366Y-89020544D01*
X108817812Y-89012482D01*
X108830072Y-88888000D01*
X108830072Y-87388000D01*
X108817812Y-87263518D01*
X108781502Y-87143820D01*
X108722537Y-87033506D01*
X108643185Y-86936815D01*
X108546494Y-86857463D01*
X108436180Y-86798498D01*
X108316482Y-86762188D01*
X108208517Y-86751555D01*
X108324886Y-86673799D01*
X108517799Y-86480886D01*
X108518027Y-86480544D01*
X116247000Y-86480544D01*
X116247000Y-86747456D01*
X116299072Y-87009239D01*
X116401215Y-87255833D01*
X116549503Y-87477762D01*
X116738238Y-87666497D01*
X116960167Y-87814785D01*
X117206761Y-87916928D01*
X117468544Y-87969000D01*
X117735456Y-87969000D01*
X117997239Y-87916928D01*
X118243833Y-87814785D01*
X118465762Y-87666497D01*
X118654497Y-87477762D01*
X118802785Y-87255833D01*
X118904928Y-87009239D01*
X118957000Y-86747456D01*
X118957000Y-86480544D01*
X118904928Y-86218761D01*
X118802785Y-85972167D01*
X118654497Y-85750238D01*
X118465762Y-85561503D01*
X118243833Y-85413215D01*
X117997239Y-85311072D01*
X117735456Y-85259000D01*
X117468544Y-85259000D01*
X117206761Y-85311072D01*
X116960167Y-85413215D01*
X116738238Y-85561503D01*
X116549503Y-85750238D01*
X116401215Y-85972167D01*
X116299072Y-86218761D01*
X116247000Y-86480544D01*
X108518027Y-86480544D01*
X108669371Y-86254043D01*
X108773775Y-86001989D01*
X108827000Y-85734411D01*
X108827000Y-85461589D01*
X108773775Y-85194011D01*
X108669371Y-84941957D01*
X108517799Y-84715114D01*
X108324886Y-84522201D01*
X108098043Y-84370629D01*
X107998721Y-84329489D01*
X108040832Y-84314277D01*
X108153863Y-84253860D01*
X108219388Y-84014993D01*
X108144939Y-83940544D01*
X113707000Y-83940544D01*
X113707000Y-84207456D01*
X113759072Y-84469239D01*
X113861215Y-84715833D01*
X114009503Y-84937762D01*
X114198238Y-85126497D01*
X114420167Y-85274785D01*
X114666761Y-85376928D01*
X114928544Y-85429000D01*
X115195456Y-85429000D01*
X115457239Y-85376928D01*
X115703833Y-85274785D01*
X115925762Y-85126497D01*
X116114497Y-84937762D01*
X116262785Y-84715833D01*
X116364928Y-84469239D01*
X116417000Y-84207456D01*
X116417000Y-83940544D01*
X116364928Y-83678761D01*
X116262785Y-83432167D01*
X116114497Y-83210238D01*
X115925762Y-83021503D01*
X115703833Y-82873215D01*
X115457239Y-82771072D01*
X115195456Y-82719000D01*
X114928544Y-82719000D01*
X114666761Y-82771072D01*
X114420167Y-82873215D01*
X114198238Y-83021503D01*
X114009503Y-83210238D01*
X113861215Y-83432167D01*
X113759072Y-83678761D01*
X113707000Y-83940544D01*
X108144939Y-83940544D01*
X107442000Y-83237605D01*
X106664612Y-84014993D01*
X106730137Y-84253860D01*
X106888477Y-84328164D01*
X106785957Y-84370629D01*
X106559114Y-84522201D01*
X106366201Y-84715114D01*
X106214629Y-84941957D01*
X106110225Y-85194011D01*
X106057000Y-85461589D01*
X106057000Y-85734411D01*
X106110225Y-86001989D01*
X106214629Y-86254043D01*
X106366201Y-86480886D01*
X106559114Y-86673799D01*
X106675483Y-86751555D01*
X106567518Y-86762188D01*
X106447820Y-86798498D01*
X106337506Y-86857463D01*
X106240815Y-86936815D01*
X106161463Y-87033506D01*
X106102498Y-87143820D01*
X106066188Y-87263518D01*
X106053928Y-87388000D01*
X104348726Y-87388000D01*
X104238637Y-87223241D01*
X104038759Y-87023363D01*
X103806241Y-86868000D01*
X104038759Y-86712637D01*
X104238637Y-86512759D01*
X104395680Y-86277727D01*
X104503853Y-86016574D01*
X104559000Y-85739335D01*
X104559000Y-85456665D01*
X104503853Y-85179426D01*
X104395680Y-84918273D01*
X104238637Y-84683241D01*
X104038759Y-84483363D01*
X103806241Y-84328000D01*
X104038759Y-84172637D01*
X104238637Y-83972759D01*
X104395680Y-83737727D01*
X104503853Y-83476574D01*
X104559000Y-83199335D01*
X104559000Y-83130492D01*
X106052188Y-83130492D01*
X106093035Y-83400238D01*
X106185723Y-83656832D01*
X106246140Y-83769863D01*
X106485007Y-83835388D01*
X107262395Y-83058000D01*
X107621605Y-83058000D01*
X108398993Y-83835388D01*
X108637860Y-83769863D01*
X108753760Y-83522884D01*
X108819250Y-83258040D01*
X108831812Y-82985508D01*
X108790965Y-82715762D01*
X108698277Y-82459168D01*
X108637860Y-82346137D01*
X108398993Y-82280612D01*
X107621605Y-83058000D01*
X107262395Y-83058000D01*
X106485007Y-82280612D01*
X106246140Y-82346137D01*
X106130240Y-82593116D01*
X106064750Y-82857960D01*
X106052188Y-83130492D01*
X104559000Y-83130492D01*
X104559000Y-82970038D01*
X105428031Y-82101007D01*
X106664612Y-82101007D01*
X107442000Y-82878395D01*
X108219388Y-82101007D01*
X108153863Y-81862140D01*
X107906884Y-81746240D01*
X107642040Y-81680750D01*
X107369508Y-81668188D01*
X107099762Y-81709035D01*
X106843168Y-81801723D01*
X106730137Y-81862140D01*
X106664612Y-82101007D01*
X105428031Y-82101007D01*
X106820539Y-80708500D01*
X106875318Y-80708500D01*
X106930392Y-80775608D01*
X107148899Y-80954932D01*
X107398192Y-81088182D01*
X107668691Y-81170236D01*
X107879508Y-81191000D01*
X108020492Y-81191000D01*
X108231309Y-81170236D01*
X108501808Y-81088182D01*
X108751101Y-80954932D01*
X108969608Y-80775608D01*
X109148932Y-80557101D01*
X109282182Y-80307808D01*
X109364236Y-80037309D01*
X109379434Y-79883002D01*
X109474084Y-79883002D01*
X109352096Y-80105039D01*
X109392754Y-80239087D01*
X109512963Y-80493420D01*
X109680481Y-80719414D01*
X109888869Y-80908385D01*
X110130119Y-81053070D01*
X110394960Y-81147909D01*
X110617000Y-81026624D01*
X110617000Y-79883000D01*
X110871000Y-79883000D01*
X110871000Y-81026624D01*
X111093040Y-81147909D01*
X111357881Y-81053070D01*
X111599131Y-80908385D01*
X111807519Y-80719414D01*
X111975037Y-80493420D01*
X112095246Y-80239087D01*
X112135904Y-80105039D01*
X112013915Y-79883000D01*
X110871000Y-79883000D01*
X110617000Y-79883000D01*
X110597000Y-79883000D01*
X110597000Y-79629000D01*
X110617000Y-79629000D01*
X110617000Y-78485376D01*
X110871000Y-78485376D01*
X110871000Y-79629000D01*
X112013915Y-79629000D01*
X112021790Y-79614665D01*
X116929000Y-79614665D01*
X116929000Y-79897335D01*
X116984147Y-80174574D01*
X117092320Y-80435727D01*
X117249363Y-80670759D01*
X117449241Y-80870637D01*
X117684273Y-81027680D01*
X117945426Y-81135853D01*
X118222665Y-81191000D01*
X118505335Y-81191000D01*
X118782574Y-81135853D01*
X119043727Y-81027680D01*
X119278759Y-80870637D01*
X119478637Y-80670759D01*
X119635680Y-80435727D01*
X119743853Y-80174574D01*
X119799000Y-79897335D01*
X119799000Y-79614665D01*
X119743853Y-79337426D01*
X119635680Y-79076273D01*
X119478637Y-78841241D01*
X119278759Y-78641363D01*
X119043727Y-78484320D01*
X118782574Y-78376147D01*
X118505335Y-78321000D01*
X118222665Y-78321000D01*
X117945426Y-78376147D01*
X117684273Y-78484320D01*
X117449241Y-78641363D01*
X117249363Y-78841241D01*
X117092320Y-79076273D01*
X116984147Y-79337426D01*
X116929000Y-79614665D01*
X112021790Y-79614665D01*
X112135904Y-79406961D01*
X112095246Y-79272913D01*
X111975037Y-79018580D01*
X111807519Y-78792586D01*
X111599131Y-78603615D01*
X111357881Y-78458930D01*
X111093040Y-78364091D01*
X110871000Y-78485376D01*
X110617000Y-78485376D01*
X110394960Y-78364091D01*
X110130119Y-78458930D01*
X109888869Y-78603615D01*
X109680481Y-78792586D01*
X109512963Y-79018580D01*
X109392754Y-79272913D01*
X109352096Y-79406961D01*
X109474084Y-79628998D01*
X109379434Y-79628998D01*
X109364236Y-79474691D01*
X109282182Y-79204192D01*
X109148932Y-78954899D01*
X108969608Y-78736392D01*
X108751101Y-78557068D01*
X108501808Y-78423818D01*
X108231309Y-78341764D01*
X108020492Y-78321000D01*
X107879508Y-78321000D01*
X107668691Y-78341764D01*
X107398192Y-78423818D01*
X107148899Y-78557068D01*
X106930392Y-78736392D01*
X106875318Y-78803500D01*
X106472784Y-78803500D01*
X106425999Y-78798892D01*
X106239277Y-78817283D01*
X106059731Y-78871748D01*
X105894259Y-78960194D01*
X105749222Y-79079222D01*
X105719397Y-79115564D01*
X103211962Y-81623000D01*
X102982665Y-81623000D01*
X102705426Y-81678147D01*
X102444273Y-81786320D01*
X102209241Y-81943363D01*
X102009363Y-82143241D01*
X101852320Y-82378273D01*
X101744147Y-82639426D01*
X101689000Y-82916665D01*
X101689000Y-83145962D01*
X96922292Y-87912670D01*
X96883853Y-87719426D01*
X96775680Y-87458273D01*
X96618637Y-87223241D01*
X96418759Y-87023363D01*
X96186241Y-86868000D01*
X96418759Y-86712637D01*
X96618637Y-86512759D01*
X96775680Y-86277727D01*
X96883853Y-86016574D01*
X96939000Y-85739335D01*
X96939000Y-85456665D01*
X96883853Y-85179426D01*
X96775680Y-84918273D01*
X96618637Y-84683241D01*
X96420039Y-84484643D01*
X96428482Y-84483812D01*
X96548180Y-84447502D01*
X96658494Y-84388537D01*
X96755185Y-84309185D01*
X96834537Y-84212494D01*
X96893502Y-84102180D01*
X96929812Y-83982482D01*
X96942072Y-83858000D01*
X96939000Y-83343750D01*
X96780250Y-83185000D01*
X95631000Y-83185000D01*
X95631000Y-83205000D01*
X95377000Y-83205000D01*
X95377000Y-83185000D01*
X94227750Y-83185000D01*
X94069000Y-83343750D01*
X94065928Y-83858000D01*
X94078188Y-83982482D01*
X94114498Y-84102180D01*
X94173463Y-84212494D01*
X94252815Y-84309185D01*
X94349506Y-84388537D01*
X94459820Y-84447502D01*
X94579518Y-84483812D01*
X94587961Y-84484643D01*
X94389363Y-84683241D01*
X94232320Y-84918273D01*
X94124147Y-85179426D01*
X94069000Y-85456665D01*
X94069000Y-85739335D01*
X94124147Y-86016574D01*
X94232320Y-86277727D01*
X94389363Y-86512759D01*
X94589241Y-86712637D01*
X94821759Y-86868000D01*
X94589241Y-87023363D01*
X94389363Y-87223241D01*
X94232320Y-87458273D01*
X94124147Y-87719426D01*
X94069000Y-87996665D01*
X94069000Y-88279335D01*
X94124147Y-88556574D01*
X94232320Y-88817727D01*
X94389363Y-89052759D01*
X94589241Y-89252637D01*
X94821759Y-89408000D01*
X94589241Y-89563363D01*
X94389363Y-89763241D01*
X94232320Y-89998273D01*
X94124147Y-90259426D01*
X94069000Y-90536665D01*
X94069000Y-90819335D01*
X94124147Y-91096574D01*
X94232320Y-91357727D01*
X94389363Y-91592759D01*
X94551500Y-91754896D01*
X94551501Y-92903103D01*
X94389363Y-93065241D01*
X94232320Y-93300273D01*
X94124147Y-93561426D01*
X94069000Y-93838665D01*
X94069000Y-94121335D01*
X94124147Y-94398574D01*
X94232320Y-94659727D01*
X94389363Y-94894759D01*
X94551501Y-95056897D01*
X94551501Y-95113206D01*
X94546892Y-95160000D01*
X94565283Y-95346722D01*
X94619749Y-95526269D01*
X94645610Y-95574651D01*
X94708195Y-95691741D01*
X94744772Y-95736311D01*
X94502831Y-95574651D01*
X94204370Y-95451025D01*
X93887526Y-95388000D01*
X93564474Y-95388000D01*
X93247630Y-95451025D01*
X92949169Y-95574651D01*
X92680561Y-95754129D01*
X92452129Y-95982561D01*
X92272651Y-96251169D01*
X92149025Y-96549630D01*
X92086000Y-96866474D01*
X92086000Y-97189526D01*
X92149025Y-97506370D01*
X92272651Y-97804831D01*
X92452129Y-98073439D01*
X92680561Y-98301871D01*
X92949169Y-98481349D01*
X93247630Y-98604975D01*
X93564474Y-98668000D01*
X93887526Y-98668000D01*
X94204370Y-98604975D01*
X94502831Y-98481349D01*
X94771439Y-98301871D01*
X94999871Y-98073439D01*
X95179349Y-97804831D01*
X95302975Y-97506370D01*
X95366000Y-97189526D01*
X95366000Y-96866474D01*
X95302975Y-96549630D01*
X95179349Y-96251169D01*
X95040845Y-96043883D01*
X97186000Y-98189039D01*
X97186000Y-98389526D01*
X97210959Y-98515003D01*
X92657569Y-103068393D01*
X92621222Y-103098222D01*
X92502194Y-103243259D01*
X92413748Y-103408732D01*
X92389747Y-103487853D01*
X92359283Y-103588278D01*
X92341195Y-103771928D01*
X92298000Y-103771928D01*
X92173518Y-103784188D01*
X92053820Y-103820498D01*
X91943506Y-103879463D01*
X91846815Y-103958815D01*
X91767463Y-104055506D01*
X91708498Y-104165820D01*
X91672188Y-104285518D01*
X91659928Y-104410000D01*
X91659928Y-106410000D01*
X91672188Y-106534482D01*
X91708498Y-106654180D01*
X91767463Y-106764494D01*
X91846815Y-106861185D01*
X91943506Y-106940537D01*
X92053820Y-106999502D01*
X92173518Y-107035812D01*
X92298000Y-107048072D01*
X92341195Y-107048072D01*
X92359283Y-107231722D01*
X92413749Y-107411269D01*
X92477957Y-107531394D01*
X92502195Y-107576741D01*
X92621223Y-107721778D01*
X92657565Y-107751603D01*
X92831894Y-107925932D01*
X92831895Y-109468590D01*
X92323569Y-109976916D01*
X92287222Y-110006745D01*
X92168194Y-110151782D01*
X92079748Y-110317255D01*
X92056204Y-110394870D01*
X92025283Y-110496801D01*
X92006892Y-110683523D01*
X92011500Y-110730308D01*
X92011500Y-110831235D01*
X91730509Y-111018987D01*
X91460987Y-111288509D01*
X91249225Y-111605434D01*
X91103361Y-111957581D01*
X91029000Y-112331419D01*
X90739000Y-112331419D01*
X90739000Y-106844476D01*
X88544000Y-106844476D01*
X88544000Y-99924890D01*
X88982524Y-99924890D01*
X89027175Y-100072099D01*
X89152359Y-100334920D01*
X89326412Y-100568269D01*
X89542645Y-100763178D01*
X89792748Y-100912157D01*
X90067109Y-101009481D01*
X90297000Y-100888814D01*
X90297000Y-99695000D01*
X90551000Y-99695000D01*
X90551000Y-100888814D01*
X90780891Y-101009481D01*
X91055252Y-100912157D01*
X91305355Y-100763178D01*
X91521588Y-100568269D01*
X91695641Y-100334920D01*
X91820825Y-100072099D01*
X91865476Y-99924890D01*
X91744155Y-99695000D01*
X90551000Y-99695000D01*
X90297000Y-99695000D01*
X89103845Y-99695000D01*
X88982524Y-99924890D01*
X88544000Y-99924890D01*
X88544000Y-96178000D01*
X88935928Y-96178000D01*
X88935928Y-97878000D01*
X88948188Y-98002482D01*
X88984498Y-98122180D01*
X89043463Y-98232494D01*
X89122815Y-98329185D01*
X89219506Y-98408537D01*
X89329820Y-98467502D01*
X89410466Y-98491966D01*
X89326412Y-98567731D01*
X89152359Y-98801080D01*
X89027175Y-99063901D01*
X88982524Y-99211110D01*
X89103845Y-99441000D01*
X90297000Y-99441000D01*
X90297000Y-99421000D01*
X90551000Y-99421000D01*
X90551000Y-99441000D01*
X91744155Y-99441000D01*
X91865476Y-99211110D01*
X91820825Y-99063901D01*
X91695641Y-98801080D01*
X91521588Y-98567731D01*
X91437534Y-98491966D01*
X91518180Y-98467502D01*
X91628494Y-98408537D01*
X91725185Y-98329185D01*
X91804537Y-98232494D01*
X91863502Y-98122180D01*
X91899812Y-98002482D01*
X91912072Y-97878000D01*
X91912072Y-96178000D01*
X91899812Y-96053518D01*
X91863502Y-95933820D01*
X91804537Y-95823506D01*
X91725185Y-95726815D01*
X91628494Y-95647463D01*
X91518180Y-95588498D01*
X91398482Y-95552188D01*
X91274000Y-95539928D01*
X89574000Y-95539928D01*
X89449518Y-95552188D01*
X89329820Y-95588498D01*
X89219506Y-95647463D01*
X89122815Y-95726815D01*
X89043463Y-95823506D01*
X88984498Y-95933820D01*
X88948188Y-96053518D01*
X88935928Y-96178000D01*
X88544000Y-96178000D01*
X88544000Y-94193413D01*
X90230192Y-94193413D01*
X90325956Y-94457814D01*
X90615571Y-94598704D01*
X90927108Y-94680384D01*
X91248595Y-94699718D01*
X91567675Y-94655961D01*
X91872088Y-94550795D01*
X92046044Y-94457814D01*
X92141808Y-94193413D01*
X91186000Y-93237605D01*
X90230192Y-94193413D01*
X88544000Y-94193413D01*
X88544000Y-93120595D01*
X89544282Y-93120595D01*
X89588039Y-93439675D01*
X89693205Y-93744088D01*
X89786186Y-93918044D01*
X90050587Y-94013808D01*
X91006395Y-93058000D01*
X91365605Y-93058000D01*
X92321413Y-94013808D01*
X92585814Y-93918044D01*
X92726704Y-93628429D01*
X92808384Y-93316892D01*
X92827718Y-92995405D01*
X92783961Y-92676325D01*
X92678795Y-92371912D01*
X92585814Y-92197956D01*
X92321413Y-92102192D01*
X91365605Y-93058000D01*
X91006395Y-93058000D01*
X90050587Y-92102192D01*
X89786186Y-92197956D01*
X89645296Y-92487571D01*
X89563616Y-92799108D01*
X89544282Y-93120595D01*
X88544000Y-93120595D01*
X88544000Y-91922587D01*
X90230192Y-91922587D01*
X91186000Y-92878395D01*
X92141808Y-91922587D01*
X92046044Y-91658186D01*
X91756429Y-91517296D01*
X91444892Y-91435616D01*
X91123405Y-91416282D01*
X90804325Y-91460039D01*
X90499912Y-91565205D01*
X90325956Y-91658186D01*
X90230192Y-91922587D01*
X88544000Y-91922587D01*
X88544000Y-82896967D01*
X89551000Y-82896967D01*
X89551000Y-83219033D01*
X89613832Y-83534912D01*
X89737082Y-83832463D01*
X89916013Y-84100252D01*
X90143748Y-84327987D01*
X90411537Y-84506918D01*
X90709088Y-84630168D01*
X91024967Y-84693000D01*
X91347033Y-84693000D01*
X91662912Y-84630168D01*
X91960463Y-84506918D01*
X92228252Y-84327987D01*
X92455987Y-84100252D01*
X92634918Y-83832463D01*
X92758168Y-83534912D01*
X92821000Y-83219033D01*
X92821000Y-82896967D01*
X92758168Y-82581088D01*
X92634918Y-82283537D01*
X92617855Y-82258000D01*
X94065928Y-82258000D01*
X94069000Y-82772250D01*
X94227750Y-82931000D01*
X95377000Y-82931000D01*
X95377000Y-81781750D01*
X95631000Y-81781750D01*
X95631000Y-82931000D01*
X96780250Y-82931000D01*
X96939000Y-82772250D01*
X96942072Y-82258000D01*
X96929812Y-82133518D01*
X96893502Y-82013820D01*
X96834537Y-81903506D01*
X96755185Y-81806815D01*
X96658494Y-81727463D01*
X96548180Y-81668498D01*
X96428482Y-81632188D01*
X96304000Y-81619928D01*
X95789750Y-81623000D01*
X95631000Y-81781750D01*
X95377000Y-81781750D01*
X95218250Y-81623000D01*
X94704000Y-81619928D01*
X94579518Y-81632188D01*
X94459820Y-81668498D01*
X94349506Y-81727463D01*
X94252815Y-81806815D01*
X94173463Y-81903506D01*
X94114498Y-82013820D01*
X94078188Y-82133518D01*
X94065928Y-82258000D01*
X92617855Y-82258000D01*
X92455987Y-82015748D01*
X92228252Y-81788013D01*
X91960463Y-81609082D01*
X91662912Y-81485832D01*
X91347033Y-81423000D01*
X91024967Y-81423000D01*
X90709088Y-81485832D01*
X90411537Y-81609082D01*
X90143748Y-81788013D01*
X89916013Y-82015748D01*
X89737082Y-82283537D01*
X89613832Y-82581088D01*
X89551000Y-82896967D01*
X88544000Y-82896967D01*
X88544000Y-79614665D01*
X88989000Y-79614665D01*
X88989000Y-79897335D01*
X89044147Y-80174574D01*
X89152320Y-80435727D01*
X89309363Y-80670759D01*
X89509241Y-80870637D01*
X89744273Y-81027680D01*
X90005426Y-81135853D01*
X90282665Y-81191000D01*
X90565335Y-81191000D01*
X90842574Y-81135853D01*
X91103727Y-81027680D01*
X91338759Y-80870637D01*
X91538637Y-80670759D01*
X91695680Y-80435727D01*
X91803853Y-80174574D01*
X91859000Y-79897335D01*
X91859000Y-79756000D01*
X96602057Y-79756000D01*
X96629764Y-80037309D01*
X96711818Y-80307808D01*
X96845068Y-80557101D01*
X97024392Y-80775608D01*
X97242899Y-80954932D01*
X97492192Y-81088182D01*
X97762691Y-81170236D01*
X97973508Y-81191000D01*
X98114492Y-81191000D01*
X98325309Y-81170236D01*
X98595808Y-81088182D01*
X98845101Y-80954932D01*
X99063608Y-80775608D01*
X99185874Y-80626626D01*
X99215363Y-80670759D01*
X99415241Y-80870637D01*
X99650273Y-81027680D01*
X99911426Y-81135853D01*
X100188665Y-81191000D01*
X100471335Y-81191000D01*
X100748574Y-81135853D01*
X101009727Y-81027680D01*
X101244759Y-80870637D01*
X101444637Y-80670759D01*
X101601680Y-80435727D01*
X101709853Y-80174574D01*
X101765000Y-79897335D01*
X101765000Y-79614665D01*
X101709853Y-79337426D01*
X101601680Y-79076273D01*
X101444637Y-78841241D01*
X101244759Y-78641363D01*
X101009727Y-78484320D01*
X100748574Y-78376147D01*
X100471335Y-78321000D01*
X100188665Y-78321000D01*
X99911426Y-78376147D01*
X99650273Y-78484320D01*
X99415241Y-78641363D01*
X99215363Y-78841241D01*
X99185874Y-78885374D01*
X99063608Y-78736392D01*
X98845101Y-78557068D01*
X98595808Y-78423818D01*
X98325309Y-78341764D01*
X98114492Y-78321000D01*
X97973508Y-78321000D01*
X97762691Y-78341764D01*
X97492192Y-78423818D01*
X97242899Y-78557068D01*
X97024392Y-78736392D01*
X96845068Y-78954899D01*
X96711818Y-79204192D01*
X96629764Y-79474691D01*
X96602057Y-79756000D01*
X91859000Y-79756000D01*
X91859000Y-79614665D01*
X91803853Y-79337426D01*
X91695680Y-79076273D01*
X91538637Y-78841241D01*
X91338759Y-78641363D01*
X91103727Y-78484320D01*
X90842574Y-78376147D01*
X90565335Y-78321000D01*
X90282665Y-78321000D01*
X90005426Y-78376147D01*
X89744273Y-78484320D01*
X89509241Y-78641363D01*
X89309363Y-78841241D01*
X89152320Y-79076273D01*
X89044147Y-79337426D01*
X88989000Y-79614665D01*
X88544000Y-79614665D01*
X88544000Y-78130000D01*
X120244000Y-78130000D01*
X120244001Y-119990000D01*
M02*
