G04 #@! TF.GenerationSoftware,KiCad,Pcbnew,(5.1.0)-1*
G04 #@! TF.CreationDate,2021-07-24T01:49:12-05:00*
G04 #@! TF.ProjectId,nixie_legacy,6e697869-655f-46c6-9567-6163792e6b69,rev?*
G04 #@! TF.SameCoordinates,Original*
G04 #@! TF.FileFunction,Copper,L1,Top*
G04 #@! TF.FilePolarity,Positive*
%FSLAX46Y46*%
G04 Gerber Fmt 4.6, Leading zero omitted, Abs format (unit mm)*
G04 Created by KiCad (PCBNEW (5.1.0)-1) date 2021-07-24 01:49:12*
%MOMM*%
%LPD*%
G04 APERTURE LIST*
%ADD10C,0.200000*%
%ADD11O,2.200000X2.200000*%
%ADD12R,2.200000X2.200000*%
%ADD13O,1.600000X1.600000*%
%ADD14R,1.600000X1.600000*%
%ADD15R,1.500000X1.500000*%
%ADD16C,1.500000*%
%ADD17C,1.600000*%
%ADD18C,1.440000*%
%ADD19R,1.905000X2.000000*%
%ADD20O,1.905000X2.000000*%
%ADD21C,2.600000*%
%ADD22O,1.700000X1.700000*%
%ADD23R,1.700000X1.700000*%
%ADD24C,2.010000*%
%ADD25C,2.000000*%
%ADD26R,2.000000X2.000000*%
%ADD27C,0.635000*%
%ADD28C,0.254000*%
G04 APERTURE END LIST*
D10*
X100961142Y-116572142D02*
X101258761Y-117405476D01*
X101556380Y-116572142D01*
X102687333Y-117405476D02*
X101973047Y-117405476D01*
X102330190Y-117405476D02*
X102330190Y-116155476D01*
X102211142Y-116334047D01*
X102092095Y-116453095D01*
X101973047Y-116512619D01*
X88827095Y-117405476D02*
X88827095Y-116155476D01*
X89541380Y-117405476D01*
X89541380Y-116155476D01*
X90136619Y-117405476D02*
X90136619Y-116572142D01*
X90136619Y-116155476D02*
X90077095Y-116215000D01*
X90136619Y-116274523D01*
X90196142Y-116215000D01*
X90136619Y-116155476D01*
X90136619Y-116274523D01*
X90612809Y-117405476D02*
X91267571Y-116572142D01*
X90612809Y-116572142D02*
X91267571Y-117405476D01*
X91743761Y-117405476D02*
X91743761Y-116572142D01*
X91743761Y-116155476D02*
X91684238Y-116215000D01*
X91743761Y-116274523D01*
X91803285Y-116215000D01*
X91743761Y-116155476D01*
X91743761Y-116274523D01*
X92815190Y-117345952D02*
X92696142Y-117405476D01*
X92458047Y-117405476D01*
X92339000Y-117345952D01*
X92279476Y-117226904D01*
X92279476Y-116750714D01*
X92339000Y-116631666D01*
X92458047Y-116572142D01*
X92696142Y-116572142D01*
X92815190Y-116631666D01*
X92874714Y-116750714D01*
X92874714Y-116869761D01*
X92279476Y-116988809D01*
X94362809Y-117405476D02*
X94362809Y-116155476D01*
X94839000Y-116155476D01*
X94958047Y-116215000D01*
X95017571Y-116274523D01*
X95077095Y-116393571D01*
X95077095Y-116572142D01*
X95017571Y-116691190D01*
X94958047Y-116750714D01*
X94839000Y-116810238D01*
X94362809Y-116810238D01*
X95493761Y-116572142D02*
X95731857Y-117405476D01*
X95969952Y-116810238D01*
X96208047Y-117405476D01*
X96446142Y-116572142D01*
X96922333Y-117405476D02*
X96922333Y-116572142D01*
X96922333Y-116810238D02*
X96981857Y-116691190D01*
X97041380Y-116631666D01*
X97160428Y-116572142D01*
X97279476Y-116572142D01*
D11*
X99060000Y-115570000D03*
D12*
X106680000Y-115570000D03*
D13*
X110744000Y-96774000D03*
D14*
X118364000Y-96774000D03*
D15*
X107442000Y-88138000D03*
D16*
X107442000Y-83058000D03*
X107442000Y-85598000D03*
D13*
X118364000Y-116586000D03*
D17*
X118364000Y-108966000D03*
X103124000Y-83058000D03*
X103124000Y-85598000D03*
X103124000Y-88138000D03*
X103124000Y-90678000D03*
X95504000Y-90678000D03*
X95504000Y-88138000D03*
X95504000Y-85598000D03*
D14*
X95504000Y-83058000D03*
D18*
X115062000Y-89154000D03*
X117602000Y-86614000D03*
X115062000Y-84074000D03*
D13*
X110744000Y-79756000D03*
D17*
X118364000Y-79756000D03*
D13*
X113030000Y-107696000D03*
D17*
X113030000Y-100076000D03*
D13*
X106680000Y-112522000D03*
D17*
X99060000Y-112522000D03*
D13*
X118364000Y-93472000D03*
D17*
X110744000Y-93472000D03*
D13*
X107950000Y-79756000D03*
D17*
X100330000Y-79756000D03*
D13*
X98044000Y-79756000D03*
D17*
X90424000Y-79756000D03*
D13*
X103124000Y-93980000D03*
D17*
X95504000Y-93980000D03*
D19*
X96774000Y-104648000D03*
D20*
X94234000Y-104648000D03*
X91694000Y-104648000D03*
D15*
X107442000Y-96012000D03*
D16*
X107442000Y-90812000D03*
X107442000Y-93412000D03*
D21*
X95678000Y-113030000D03*
X90678000Y-113030000D03*
D22*
X118364000Y-105918000D03*
X118364000Y-103378000D03*
D23*
X118364000Y-100838000D03*
D22*
X90678000Y-100076000D03*
D23*
X90678000Y-97536000D03*
D24*
X99080000Y-98736000D03*
X93980000Y-97536000D03*
D17*
X112522000Y-112562000D03*
D14*
X112522000Y-115062000D03*
D17*
X100624000Y-109474000D03*
X103124000Y-109474000D03*
D25*
X91186000Y-93058000D03*
X91186000Y-83058000D03*
X108204000Y-102616000D03*
D26*
X103204000Y-102616000D03*
D27*
X106426000Y-79756000D02*
X103124000Y-83058000D01*
X107950000Y-79756000D02*
X106426000Y-79756000D01*
X103124000Y-83058000D02*
X95504000Y-90678000D01*
X95504000Y-90678000D02*
X95504000Y-93980000D01*
X95504000Y-95160000D02*
X99080000Y-98736000D01*
X95504000Y-93980000D02*
X95504000Y-95160000D01*
X99324000Y-98736000D02*
X103204000Y-102616000D01*
X99080000Y-98736000D02*
X99324000Y-98736000D01*
X103204000Y-104251000D02*
X100267000Y-107188000D01*
X103204000Y-102616000D02*
X103204000Y-104251000D01*
X96520000Y-107188000D02*
X90678000Y-113030000D01*
X100267000Y-107188000D02*
X96520000Y-107188000D01*
X116083073Y-100838000D02*
X118364000Y-100838000D01*
X112273073Y-104648000D02*
X116083073Y-100838000D01*
X107442000Y-104648000D02*
X112273073Y-104648000D01*
X103204000Y-102616000D02*
X105410000Y-102616000D01*
X105410000Y-102616000D02*
X107442000Y-104648000D01*
D28*
G36*
X120244001Y-117450000D02*
G01*
X119511312Y-117450000D01*
X119562932Y-117387101D01*
X119696182Y-117137808D01*
X119778236Y-116867309D01*
X119805943Y-116586000D01*
X119778236Y-116304691D01*
X119696182Y-116034192D01*
X119562932Y-115784899D01*
X119383608Y-115566392D01*
X119165101Y-115387068D01*
X118915808Y-115253818D01*
X118645309Y-115171764D01*
X118434492Y-115151000D01*
X118293508Y-115151000D01*
X118082691Y-115171764D01*
X117812192Y-115253818D01*
X117562899Y-115387068D01*
X117344392Y-115566392D01*
X117165068Y-115784899D01*
X117031818Y-116034192D01*
X116949764Y-116304691D01*
X116922057Y-116586000D01*
X116949764Y-116867309D01*
X117031818Y-117137808D01*
X117165068Y-117387101D01*
X117216688Y-117450000D01*
X103660429Y-117450000D01*
X103660429Y-115255000D01*
X100772369Y-115255000D01*
X100769895Y-115229881D01*
X100670686Y-114902832D01*
X100509579Y-114601422D01*
X100401724Y-114470000D01*
X104941928Y-114470000D01*
X104941928Y-116670000D01*
X104954188Y-116794482D01*
X104990498Y-116914180D01*
X105049463Y-117024494D01*
X105128815Y-117121185D01*
X105225506Y-117200537D01*
X105335820Y-117259502D01*
X105455518Y-117295812D01*
X105580000Y-117308072D01*
X107780000Y-117308072D01*
X107904482Y-117295812D01*
X108024180Y-117259502D01*
X108134494Y-117200537D01*
X108231185Y-117121185D01*
X108310537Y-117024494D01*
X108369502Y-116914180D01*
X108405812Y-116794482D01*
X108418072Y-116670000D01*
X108418072Y-114470000D01*
X108405812Y-114345518D01*
X108380478Y-114262000D01*
X111083928Y-114262000D01*
X111083928Y-115862000D01*
X111096188Y-115986482D01*
X111132498Y-116106180D01*
X111191463Y-116216494D01*
X111270815Y-116313185D01*
X111367506Y-116392537D01*
X111477820Y-116451502D01*
X111597518Y-116487812D01*
X111722000Y-116500072D01*
X113322000Y-116500072D01*
X113446482Y-116487812D01*
X113566180Y-116451502D01*
X113676494Y-116392537D01*
X113773185Y-116313185D01*
X113852537Y-116216494D01*
X113911502Y-116106180D01*
X113947812Y-115986482D01*
X113960072Y-115862000D01*
X113960072Y-114262000D01*
X113947812Y-114137518D01*
X113911502Y-114017820D01*
X113852537Y-113907506D01*
X113773185Y-113810815D01*
X113676494Y-113731463D01*
X113566180Y-113672498D01*
X113446482Y-113636188D01*
X113322000Y-113623928D01*
X113314785Y-113623928D01*
X113335097Y-113554702D01*
X112522000Y-112741605D01*
X111708903Y-113554702D01*
X111729215Y-113623928D01*
X111722000Y-113623928D01*
X111597518Y-113636188D01*
X111477820Y-113672498D01*
X111367506Y-113731463D01*
X111270815Y-113810815D01*
X111191463Y-113907506D01*
X111132498Y-114017820D01*
X111096188Y-114137518D01*
X111083928Y-114262000D01*
X108380478Y-114262000D01*
X108369502Y-114225820D01*
X108310537Y-114115506D01*
X108231185Y-114018815D01*
X108134494Y-113939463D01*
X108024180Y-113880498D01*
X107904482Y-113844188D01*
X107780000Y-113831928D01*
X107273442Y-113831928D01*
X107481101Y-113720932D01*
X107699608Y-113541608D01*
X107878932Y-113323101D01*
X108012182Y-113073808D01*
X108094236Y-112803309D01*
X108111058Y-112632512D01*
X111081783Y-112632512D01*
X111123213Y-112912130D01*
X111218397Y-113178292D01*
X111285329Y-113303514D01*
X111529298Y-113375097D01*
X112342395Y-112562000D01*
X112701605Y-112562000D01*
X113514702Y-113375097D01*
X113758671Y-113303514D01*
X113879571Y-113048004D01*
X113948300Y-112773816D01*
X113962217Y-112491488D01*
X113920787Y-112211870D01*
X113825603Y-111945708D01*
X113758671Y-111820486D01*
X113514702Y-111748903D01*
X112701605Y-112562000D01*
X112342395Y-112562000D01*
X111529298Y-111748903D01*
X111285329Y-111820486D01*
X111164429Y-112075996D01*
X111095700Y-112350184D01*
X111081783Y-112632512D01*
X108111058Y-112632512D01*
X108121943Y-112522000D01*
X108094236Y-112240691D01*
X108012182Y-111970192D01*
X107878932Y-111720899D01*
X107754517Y-111569298D01*
X111708903Y-111569298D01*
X112522000Y-112382395D01*
X113335097Y-111569298D01*
X113263514Y-111325329D01*
X113008004Y-111204429D01*
X112733816Y-111135700D01*
X112451488Y-111121783D01*
X112171870Y-111163213D01*
X111905708Y-111258397D01*
X111780486Y-111325329D01*
X111708903Y-111569298D01*
X107754517Y-111569298D01*
X107699608Y-111502392D01*
X107481101Y-111323068D01*
X107231808Y-111189818D01*
X106961309Y-111107764D01*
X106750492Y-111087000D01*
X106609508Y-111087000D01*
X106398691Y-111107764D01*
X106128192Y-111189818D01*
X105878899Y-111323068D01*
X105660392Y-111502392D01*
X105481068Y-111720899D01*
X105347818Y-111970192D01*
X105265764Y-112240691D01*
X105238057Y-112522000D01*
X105265764Y-112803309D01*
X105347818Y-113073808D01*
X105481068Y-113323101D01*
X105660392Y-113541608D01*
X105878899Y-113720932D01*
X106086558Y-113831928D01*
X105580000Y-113831928D01*
X105455518Y-113844188D01*
X105335820Y-113880498D01*
X105225506Y-113939463D01*
X105128815Y-114018815D01*
X105049463Y-114115506D01*
X104990498Y-114225820D01*
X104954188Y-114345518D01*
X104941928Y-114470000D01*
X100401724Y-114470000D01*
X100292766Y-114337234D01*
X100028578Y-114120421D01*
X99727168Y-113959314D01*
X99503588Y-113891492D01*
X99739727Y-113793680D01*
X99974759Y-113636637D01*
X100174637Y-113436759D01*
X100331680Y-113201727D01*
X100439853Y-112940574D01*
X100495000Y-112663335D01*
X100495000Y-112380665D01*
X100439853Y-112103426D01*
X100331680Y-111842273D01*
X100174637Y-111607241D01*
X99974759Y-111407363D01*
X99739727Y-111250320D01*
X99478574Y-111142147D01*
X99201335Y-111087000D01*
X98918665Y-111087000D01*
X98641426Y-111142147D01*
X98380273Y-111250320D01*
X98145241Y-111407363D01*
X97945363Y-111607241D01*
X97788320Y-111842273D01*
X97680147Y-112103426D01*
X97625000Y-112380665D01*
X97625000Y-112663335D01*
X97680147Y-112940574D01*
X97788320Y-113201727D01*
X97945363Y-113436759D01*
X98145241Y-113636637D01*
X98380273Y-113793680D01*
X98616412Y-113891492D01*
X98392832Y-113959314D01*
X98091422Y-114120421D01*
X97827234Y-114337234D01*
X97610421Y-114601422D01*
X97449314Y-114902832D01*
X97350105Y-115229881D01*
X97347631Y-115255000D01*
X88544000Y-115255000D01*
X88544000Y-112839419D01*
X88743000Y-112839419D01*
X88743000Y-113220581D01*
X88817361Y-113594419D01*
X88963225Y-113946566D01*
X89174987Y-114263491D01*
X89444509Y-114533013D01*
X89761434Y-114744775D01*
X90113581Y-114890639D01*
X90487419Y-114965000D01*
X90868581Y-114965000D01*
X91242419Y-114890639D01*
X91594566Y-114744775D01*
X91911491Y-114533013D01*
X92181013Y-114263491D01*
X92392775Y-113946566D01*
X92538639Y-113594419D01*
X92613000Y-113220581D01*
X92613000Y-112839419D01*
X93743000Y-112839419D01*
X93743000Y-113220581D01*
X93817361Y-113594419D01*
X93963225Y-113946566D01*
X94174987Y-114263491D01*
X94444509Y-114533013D01*
X94761434Y-114744775D01*
X95113581Y-114890639D01*
X95487419Y-114965000D01*
X95868581Y-114965000D01*
X96242419Y-114890639D01*
X96594566Y-114744775D01*
X96911491Y-114533013D01*
X97181013Y-114263491D01*
X97392775Y-113946566D01*
X97538639Y-113594419D01*
X97613000Y-113220581D01*
X97613000Y-112839419D01*
X97538639Y-112465581D01*
X97392775Y-112113434D01*
X97181013Y-111796509D01*
X96911491Y-111526987D01*
X96594566Y-111315225D01*
X96242419Y-111169361D01*
X95868581Y-111095000D01*
X95487419Y-111095000D01*
X95113581Y-111169361D01*
X94761434Y-111315225D01*
X94444509Y-111526987D01*
X94174987Y-111796509D01*
X93963225Y-112113434D01*
X93817361Y-112465581D01*
X93743000Y-112839419D01*
X92613000Y-112839419D01*
X92547070Y-112507968D01*
X94588336Y-110466702D01*
X99810903Y-110466702D01*
X99882486Y-110710671D01*
X100137996Y-110831571D01*
X100412184Y-110900300D01*
X100694512Y-110914217D01*
X100974130Y-110872787D01*
X101240292Y-110777603D01*
X101365514Y-110710671D01*
X101437097Y-110466702D01*
X100624000Y-109653605D01*
X99810903Y-110466702D01*
X94588336Y-110466702D01*
X95510526Y-109544512D01*
X99183783Y-109544512D01*
X99225213Y-109824130D01*
X99320397Y-110090292D01*
X99387329Y-110215514D01*
X99631298Y-110287097D01*
X100444395Y-109474000D01*
X100803605Y-109474000D01*
X101616702Y-110287097D01*
X101860671Y-110215514D01*
X101874324Y-110186659D01*
X102009363Y-110388759D01*
X102209241Y-110588637D01*
X102444273Y-110745680D01*
X102705426Y-110853853D01*
X102982665Y-110909000D01*
X103265335Y-110909000D01*
X103542574Y-110853853D01*
X103803727Y-110745680D01*
X104038759Y-110588637D01*
X104238637Y-110388759D01*
X104395680Y-110153727D01*
X104503853Y-109892574D01*
X104559000Y-109615335D01*
X104559000Y-109332665D01*
X104503853Y-109055426D01*
X104395680Y-108794273D01*
X104238637Y-108559241D01*
X104038759Y-108359363D01*
X103803727Y-108202320D01*
X103542574Y-108094147D01*
X103265335Y-108039000D01*
X102982665Y-108039000D01*
X102705426Y-108094147D01*
X102444273Y-108202320D01*
X102209241Y-108359363D01*
X102009363Y-108559241D01*
X101875308Y-108759869D01*
X101860671Y-108732486D01*
X101616702Y-108660903D01*
X100803605Y-109474000D01*
X100444395Y-109474000D01*
X99631298Y-108660903D01*
X99387329Y-108732486D01*
X99266429Y-108987996D01*
X99197700Y-109262184D01*
X99183783Y-109544512D01*
X95510526Y-109544512D01*
X96914538Y-108140500D01*
X100091309Y-108140500D01*
X100007708Y-108170397D01*
X99882486Y-108237329D01*
X99810903Y-108481298D01*
X100624000Y-109294395D01*
X101437097Y-108481298D01*
X101365514Y-108237329D01*
X101110004Y-108116429D01*
X100835816Y-108047700D01*
X100692427Y-108040632D01*
X100798741Y-107983806D01*
X100943778Y-107864778D01*
X100973607Y-107828431D01*
X101106038Y-107696000D01*
X111588057Y-107696000D01*
X111615764Y-107977309D01*
X111697818Y-108247808D01*
X111831068Y-108497101D01*
X112010392Y-108715608D01*
X112228899Y-108894932D01*
X112478192Y-109028182D01*
X112748691Y-109110236D01*
X112959508Y-109131000D01*
X113100492Y-109131000D01*
X113311309Y-109110236D01*
X113581808Y-109028182D01*
X113831101Y-108894932D01*
X113916721Y-108824665D01*
X116929000Y-108824665D01*
X116929000Y-109107335D01*
X116984147Y-109384574D01*
X117092320Y-109645727D01*
X117249363Y-109880759D01*
X117449241Y-110080637D01*
X117684273Y-110237680D01*
X117945426Y-110345853D01*
X118222665Y-110401000D01*
X118505335Y-110401000D01*
X118782574Y-110345853D01*
X119043727Y-110237680D01*
X119278759Y-110080637D01*
X119478637Y-109880759D01*
X119635680Y-109645727D01*
X119743853Y-109384574D01*
X119799000Y-109107335D01*
X119799000Y-108824665D01*
X119743853Y-108547426D01*
X119635680Y-108286273D01*
X119478637Y-108051241D01*
X119278759Y-107851363D01*
X119043727Y-107694320D01*
X118782574Y-107586147D01*
X118505335Y-107531000D01*
X118222665Y-107531000D01*
X117945426Y-107586147D01*
X117684273Y-107694320D01*
X117449241Y-107851363D01*
X117249363Y-108051241D01*
X117092320Y-108286273D01*
X116984147Y-108547426D01*
X116929000Y-108824665D01*
X113916721Y-108824665D01*
X114049608Y-108715608D01*
X114228932Y-108497101D01*
X114362182Y-108247808D01*
X114444236Y-107977309D01*
X114471943Y-107696000D01*
X114444236Y-107414691D01*
X114362182Y-107144192D01*
X114228932Y-106894899D01*
X114049608Y-106676392D01*
X113831101Y-106497068D01*
X113581808Y-106363818D01*
X113311309Y-106281764D01*
X113100492Y-106261000D01*
X112959508Y-106261000D01*
X112748691Y-106281764D01*
X112478192Y-106363818D01*
X112228899Y-106497068D01*
X112010392Y-106676392D01*
X111831068Y-106894899D01*
X111697818Y-107144192D01*
X111615764Y-107414691D01*
X111588057Y-107696000D01*
X101106038Y-107696000D01*
X102884038Y-105918000D01*
X116871815Y-105918000D01*
X116900487Y-106209111D01*
X116985401Y-106489034D01*
X117123294Y-106747014D01*
X117308866Y-106973134D01*
X117534986Y-107158706D01*
X117792966Y-107296599D01*
X118072889Y-107381513D01*
X118291050Y-107403000D01*
X118436950Y-107403000D01*
X118655111Y-107381513D01*
X118935034Y-107296599D01*
X119193014Y-107158706D01*
X119419134Y-106973134D01*
X119604706Y-106747014D01*
X119742599Y-106489034D01*
X119827513Y-106209111D01*
X119856185Y-105918000D01*
X119827513Y-105626889D01*
X119742599Y-105346966D01*
X119604706Y-105088986D01*
X119419134Y-104862866D01*
X119193014Y-104677294D01*
X119128477Y-104642799D01*
X119245355Y-104573178D01*
X119461588Y-104378269D01*
X119635641Y-104144920D01*
X119760825Y-103882099D01*
X119805476Y-103734890D01*
X119684155Y-103505000D01*
X118491000Y-103505000D01*
X118491000Y-103525000D01*
X118237000Y-103525000D01*
X118237000Y-103505000D01*
X117043845Y-103505000D01*
X116922524Y-103734890D01*
X116967175Y-103882099D01*
X117092359Y-104144920D01*
X117266412Y-104378269D01*
X117482645Y-104573178D01*
X117599523Y-104642799D01*
X117534986Y-104677294D01*
X117308866Y-104862866D01*
X117123294Y-105088986D01*
X116985401Y-105346966D01*
X116900487Y-105626889D01*
X116871815Y-105918000D01*
X102884038Y-105918000D01*
X103844436Y-104957603D01*
X103880778Y-104927778D01*
X103999806Y-104782741D01*
X104088252Y-104617269D01*
X104142717Y-104437723D01*
X104156500Y-104297785D01*
X104160806Y-104254072D01*
X104204000Y-104254072D01*
X104328482Y-104241812D01*
X104448180Y-104205502D01*
X104558494Y-104146537D01*
X104655185Y-104067185D01*
X104734537Y-103970494D01*
X104793502Y-103860180D01*
X104829812Y-103740482D01*
X104842072Y-103616000D01*
X104842072Y-103568500D01*
X105015462Y-103568500D01*
X106735397Y-105288436D01*
X106765222Y-105324778D01*
X106910259Y-105443806D01*
X107075731Y-105532252D01*
X107238854Y-105581735D01*
X107255277Y-105586717D01*
X107442000Y-105605108D01*
X107488785Y-105600500D01*
X112226288Y-105600500D01*
X112273073Y-105605108D01*
X112319858Y-105600500D01*
X112459796Y-105586717D01*
X112639342Y-105532252D01*
X112804814Y-105443806D01*
X112949851Y-105324778D01*
X112979680Y-105288431D01*
X116477611Y-101790500D01*
X116886023Y-101790500D01*
X116888188Y-101812482D01*
X116924498Y-101932180D01*
X116983463Y-102042494D01*
X117062815Y-102139185D01*
X117159506Y-102218537D01*
X117269820Y-102277502D01*
X117350466Y-102301966D01*
X117266412Y-102377731D01*
X117092359Y-102611080D01*
X116967175Y-102873901D01*
X116922524Y-103021110D01*
X117043845Y-103251000D01*
X118237000Y-103251000D01*
X118237000Y-103231000D01*
X118491000Y-103231000D01*
X118491000Y-103251000D01*
X119684155Y-103251000D01*
X119805476Y-103021110D01*
X119760825Y-102873901D01*
X119635641Y-102611080D01*
X119461588Y-102377731D01*
X119377534Y-102301966D01*
X119458180Y-102277502D01*
X119568494Y-102218537D01*
X119665185Y-102139185D01*
X119744537Y-102042494D01*
X119803502Y-101932180D01*
X119839812Y-101812482D01*
X119852072Y-101688000D01*
X119852072Y-99988000D01*
X119839812Y-99863518D01*
X119803502Y-99743820D01*
X119744537Y-99633506D01*
X119665185Y-99536815D01*
X119568494Y-99457463D01*
X119458180Y-99398498D01*
X119338482Y-99362188D01*
X119214000Y-99349928D01*
X117514000Y-99349928D01*
X117389518Y-99362188D01*
X117269820Y-99398498D01*
X117159506Y-99457463D01*
X117062815Y-99536815D01*
X116983463Y-99633506D01*
X116924498Y-99743820D01*
X116888188Y-99863518D01*
X116886023Y-99885500D01*
X116129858Y-99885500D01*
X116083073Y-99880892D01*
X116036288Y-99885500D01*
X115896350Y-99899283D01*
X115806577Y-99926515D01*
X115716803Y-99953748D01*
X115634068Y-99997971D01*
X115551332Y-100042194D01*
X115406295Y-100161222D01*
X115376466Y-100197569D01*
X111878535Y-103695500D01*
X109447058Y-103695500D01*
X109455083Y-103687475D01*
X109339415Y-103571807D01*
X109603814Y-103476044D01*
X109744704Y-103186429D01*
X109826384Y-102874892D01*
X109845718Y-102553405D01*
X109801961Y-102234325D01*
X109696795Y-101929912D01*
X109603814Y-101755956D01*
X109339413Y-101660192D01*
X108383605Y-102616000D01*
X108397748Y-102630143D01*
X108218143Y-102809748D01*
X108204000Y-102795605D01*
X108189858Y-102809748D01*
X108010253Y-102630143D01*
X108024395Y-102616000D01*
X107068587Y-101660192D01*
X106804186Y-101755956D01*
X106663296Y-102045571D01*
X106581616Y-102357108D01*
X106576881Y-102435843D01*
X106116607Y-101975569D01*
X106086778Y-101939222D01*
X105941741Y-101820194D01*
X105776269Y-101731748D01*
X105596723Y-101677283D01*
X105456785Y-101663500D01*
X105410000Y-101658892D01*
X105363215Y-101663500D01*
X104842072Y-101663500D01*
X104842072Y-101616000D01*
X104829812Y-101491518D01*
X104826497Y-101480587D01*
X107248192Y-101480587D01*
X108204000Y-102436395D01*
X109159808Y-101480587D01*
X109064044Y-101216186D01*
X108774429Y-101075296D01*
X108462892Y-100993616D01*
X108141405Y-100974282D01*
X107822325Y-101018039D01*
X107517912Y-101123205D01*
X107343956Y-101216186D01*
X107248192Y-101480587D01*
X104826497Y-101480587D01*
X104793502Y-101371820D01*
X104734537Y-101261506D01*
X104655185Y-101164815D01*
X104558494Y-101085463D01*
X104448180Y-101026498D01*
X104328482Y-100990188D01*
X104204000Y-100977928D01*
X102912966Y-100977928D01*
X101869703Y-99934665D01*
X111595000Y-99934665D01*
X111595000Y-100217335D01*
X111650147Y-100494574D01*
X111758320Y-100755727D01*
X111915363Y-100990759D01*
X112115241Y-101190637D01*
X112350273Y-101347680D01*
X112611426Y-101455853D01*
X112888665Y-101511000D01*
X113171335Y-101511000D01*
X113448574Y-101455853D01*
X113709727Y-101347680D01*
X113944759Y-101190637D01*
X114144637Y-100990759D01*
X114301680Y-100755727D01*
X114409853Y-100494574D01*
X114465000Y-100217335D01*
X114465000Y-99934665D01*
X114409853Y-99657426D01*
X114301680Y-99396273D01*
X114144637Y-99161241D01*
X113944759Y-98961363D01*
X113709727Y-98804320D01*
X113448574Y-98696147D01*
X113171335Y-98641000D01*
X112888665Y-98641000D01*
X112611426Y-98696147D01*
X112350273Y-98804320D01*
X112115241Y-98961363D01*
X111915363Y-99161241D01*
X111758320Y-99396273D01*
X111650147Y-99657426D01*
X111595000Y-99934665D01*
X101869703Y-99934665D01*
X100720000Y-98784962D01*
X100720000Y-98574474D01*
X100656975Y-98257630D01*
X100533349Y-97959169D01*
X100353871Y-97690561D01*
X100125439Y-97462129D01*
X99856831Y-97282651D01*
X99558370Y-97159025D01*
X99241526Y-97096000D01*
X98918474Y-97096000D01*
X98808845Y-97117807D01*
X96602217Y-94911179D01*
X96618637Y-94894759D01*
X96775680Y-94659727D01*
X96883853Y-94398574D01*
X96939000Y-94121335D01*
X96939000Y-93980000D01*
X101682057Y-93980000D01*
X101709764Y-94261309D01*
X101791818Y-94531808D01*
X101925068Y-94781101D01*
X102104392Y-94999608D01*
X102322899Y-95178932D01*
X102572192Y-95312182D01*
X102842691Y-95394236D01*
X103053508Y-95415000D01*
X103194492Y-95415000D01*
X103405309Y-95394236D01*
X103675808Y-95312182D01*
X103769691Y-95262000D01*
X106053928Y-95262000D01*
X106053928Y-96762000D01*
X106066188Y-96886482D01*
X106102498Y-97006180D01*
X106161463Y-97116494D01*
X106240815Y-97213185D01*
X106337506Y-97292537D01*
X106447820Y-97351502D01*
X106567518Y-97387812D01*
X106692000Y-97400072D01*
X108192000Y-97400072D01*
X108316482Y-97387812D01*
X108436180Y-97351502D01*
X108546494Y-97292537D01*
X108643185Y-97213185D01*
X108722537Y-97116494D01*
X108781502Y-97006180D01*
X108817812Y-96886482D01*
X108828890Y-96774000D01*
X109302057Y-96774000D01*
X109329764Y-97055309D01*
X109411818Y-97325808D01*
X109545068Y-97575101D01*
X109724392Y-97793608D01*
X109942899Y-97972932D01*
X110192192Y-98106182D01*
X110462691Y-98188236D01*
X110673508Y-98209000D01*
X110814492Y-98209000D01*
X111025309Y-98188236D01*
X111295808Y-98106182D01*
X111545101Y-97972932D01*
X111763608Y-97793608D01*
X111942932Y-97575101D01*
X112076182Y-97325808D01*
X112158236Y-97055309D01*
X112185943Y-96774000D01*
X112158236Y-96492691D01*
X112076182Y-96222192D01*
X111943521Y-95974000D01*
X116925928Y-95974000D01*
X116925928Y-97574000D01*
X116938188Y-97698482D01*
X116974498Y-97818180D01*
X117033463Y-97928494D01*
X117112815Y-98025185D01*
X117209506Y-98104537D01*
X117319820Y-98163502D01*
X117439518Y-98199812D01*
X117564000Y-98212072D01*
X119164000Y-98212072D01*
X119288482Y-98199812D01*
X119408180Y-98163502D01*
X119518494Y-98104537D01*
X119615185Y-98025185D01*
X119694537Y-97928494D01*
X119753502Y-97818180D01*
X119789812Y-97698482D01*
X119802072Y-97574000D01*
X119802072Y-95974000D01*
X119789812Y-95849518D01*
X119753502Y-95729820D01*
X119694537Y-95619506D01*
X119615185Y-95522815D01*
X119518494Y-95443463D01*
X119408180Y-95384498D01*
X119288482Y-95348188D01*
X119164000Y-95335928D01*
X117564000Y-95335928D01*
X117439518Y-95348188D01*
X117319820Y-95384498D01*
X117209506Y-95443463D01*
X117112815Y-95522815D01*
X117033463Y-95619506D01*
X116974498Y-95729820D01*
X116938188Y-95849518D01*
X116925928Y-95974000D01*
X111943521Y-95974000D01*
X111942932Y-95972899D01*
X111763608Y-95754392D01*
X111545101Y-95575068D01*
X111295808Y-95441818D01*
X111025309Y-95359764D01*
X110814492Y-95339000D01*
X110673508Y-95339000D01*
X110462691Y-95359764D01*
X110192192Y-95441818D01*
X109942899Y-95575068D01*
X109724392Y-95754392D01*
X109545068Y-95972899D01*
X109411818Y-96222192D01*
X109329764Y-96492691D01*
X109302057Y-96774000D01*
X108828890Y-96774000D01*
X108830072Y-96762000D01*
X108830072Y-95262000D01*
X108817812Y-95137518D01*
X108781502Y-95017820D01*
X108722537Y-94907506D01*
X108643185Y-94810815D01*
X108546494Y-94731463D01*
X108436180Y-94672498D01*
X108316482Y-94636188D01*
X108192000Y-94623928D01*
X108121155Y-94623928D01*
X108324886Y-94487799D01*
X108517799Y-94294886D01*
X108669371Y-94068043D01*
X108773775Y-93815989D01*
X108827000Y-93548411D01*
X108827000Y-93330665D01*
X109309000Y-93330665D01*
X109309000Y-93613335D01*
X109364147Y-93890574D01*
X109472320Y-94151727D01*
X109629363Y-94386759D01*
X109829241Y-94586637D01*
X110064273Y-94743680D01*
X110325426Y-94851853D01*
X110602665Y-94907000D01*
X110885335Y-94907000D01*
X111162574Y-94851853D01*
X111423727Y-94743680D01*
X111658759Y-94586637D01*
X111858637Y-94386759D01*
X112015680Y-94151727D01*
X112123853Y-93890574D01*
X112137684Y-93821039D01*
X116972096Y-93821039D01*
X117012754Y-93955087D01*
X117132963Y-94209420D01*
X117300481Y-94435414D01*
X117508869Y-94624385D01*
X117750119Y-94769070D01*
X118014960Y-94863909D01*
X118237000Y-94742624D01*
X118237000Y-93599000D01*
X118491000Y-93599000D01*
X118491000Y-94742624D01*
X118713040Y-94863909D01*
X118977881Y-94769070D01*
X119219131Y-94624385D01*
X119427519Y-94435414D01*
X119595037Y-94209420D01*
X119715246Y-93955087D01*
X119755904Y-93821039D01*
X119633915Y-93599000D01*
X118491000Y-93599000D01*
X118237000Y-93599000D01*
X117094085Y-93599000D01*
X116972096Y-93821039D01*
X112137684Y-93821039D01*
X112179000Y-93613335D01*
X112179000Y-93330665D01*
X112137685Y-93122961D01*
X116972096Y-93122961D01*
X117094085Y-93345000D01*
X118237000Y-93345000D01*
X118237000Y-92201376D01*
X118491000Y-92201376D01*
X118491000Y-93345000D01*
X119633915Y-93345000D01*
X119755904Y-93122961D01*
X119715246Y-92988913D01*
X119595037Y-92734580D01*
X119427519Y-92508586D01*
X119219131Y-92319615D01*
X118977881Y-92174930D01*
X118713040Y-92080091D01*
X118491000Y-92201376D01*
X118237000Y-92201376D01*
X118014960Y-92080091D01*
X117750119Y-92174930D01*
X117508869Y-92319615D01*
X117300481Y-92508586D01*
X117132963Y-92734580D01*
X117012754Y-92988913D01*
X116972096Y-93122961D01*
X112137685Y-93122961D01*
X112123853Y-93053426D01*
X112015680Y-92792273D01*
X111858637Y-92557241D01*
X111658759Y-92357363D01*
X111423727Y-92200320D01*
X111162574Y-92092147D01*
X110885335Y-92037000D01*
X110602665Y-92037000D01*
X110325426Y-92092147D01*
X110064273Y-92200320D01*
X109829241Y-92357363D01*
X109629363Y-92557241D01*
X109472320Y-92792273D01*
X109364147Y-93053426D01*
X109309000Y-93330665D01*
X108827000Y-93330665D01*
X108827000Y-93275589D01*
X108773775Y-93008011D01*
X108669371Y-92755957D01*
X108517799Y-92529114D01*
X108324886Y-92336201D01*
X108098043Y-92184629D01*
X107921345Y-92111439D01*
X108040832Y-92068277D01*
X108153863Y-92007860D01*
X108219388Y-91768993D01*
X107442000Y-90991605D01*
X106664612Y-91768993D01*
X106730137Y-92007860D01*
X106956390Y-92114034D01*
X106785957Y-92184629D01*
X106559114Y-92336201D01*
X106366201Y-92529114D01*
X106214629Y-92755957D01*
X106110225Y-93008011D01*
X106057000Y-93275589D01*
X106057000Y-93548411D01*
X106110225Y-93815989D01*
X106214629Y-94068043D01*
X106366201Y-94294886D01*
X106559114Y-94487799D01*
X106762845Y-94623928D01*
X106692000Y-94623928D01*
X106567518Y-94636188D01*
X106447820Y-94672498D01*
X106337506Y-94731463D01*
X106240815Y-94810815D01*
X106161463Y-94907506D01*
X106102498Y-95017820D01*
X106066188Y-95137518D01*
X106053928Y-95262000D01*
X103769691Y-95262000D01*
X103925101Y-95178932D01*
X104143608Y-94999608D01*
X104322932Y-94781101D01*
X104456182Y-94531808D01*
X104538236Y-94261309D01*
X104565943Y-93980000D01*
X104538236Y-93698691D01*
X104456182Y-93428192D01*
X104322932Y-93178899D01*
X104143608Y-92960392D01*
X103925101Y-92781068D01*
X103675808Y-92647818D01*
X103405309Y-92565764D01*
X103194492Y-92545000D01*
X103053508Y-92545000D01*
X102842691Y-92565764D01*
X102572192Y-92647818D01*
X102322899Y-92781068D01*
X102104392Y-92960392D01*
X101925068Y-93178899D01*
X101791818Y-93428192D01*
X101709764Y-93698691D01*
X101682057Y-93980000D01*
X96939000Y-93980000D01*
X96939000Y-93838665D01*
X96883853Y-93561426D01*
X96775680Y-93300273D01*
X96618637Y-93065241D01*
X96456500Y-92903104D01*
X96456500Y-91754896D01*
X96618637Y-91592759D01*
X96775680Y-91357727D01*
X96883853Y-91096574D01*
X96939000Y-90819335D01*
X96939000Y-90590038D01*
X101705708Y-85823330D01*
X101744147Y-86016574D01*
X101852320Y-86277727D01*
X102009363Y-86512759D01*
X102209241Y-86712637D01*
X102441759Y-86868000D01*
X102209241Y-87023363D01*
X102009363Y-87223241D01*
X101852320Y-87458273D01*
X101744147Y-87719426D01*
X101689000Y-87996665D01*
X101689000Y-88279335D01*
X101744147Y-88556574D01*
X101852320Y-88817727D01*
X102009363Y-89052759D01*
X102209241Y-89252637D01*
X102441759Y-89408000D01*
X102209241Y-89563363D01*
X102009363Y-89763241D01*
X101852320Y-89998273D01*
X101744147Y-90259426D01*
X101689000Y-90536665D01*
X101689000Y-90819335D01*
X101744147Y-91096574D01*
X101852320Y-91357727D01*
X102009363Y-91592759D01*
X102209241Y-91792637D01*
X102444273Y-91949680D01*
X102705426Y-92057853D01*
X102982665Y-92113000D01*
X103265335Y-92113000D01*
X103542574Y-92057853D01*
X103803727Y-91949680D01*
X104038759Y-91792637D01*
X104238637Y-91592759D01*
X104395680Y-91357727D01*
X104503853Y-91096574D01*
X104546039Y-90884492D01*
X106052188Y-90884492D01*
X106093035Y-91154238D01*
X106185723Y-91410832D01*
X106246140Y-91523863D01*
X106485007Y-91589388D01*
X107262395Y-90812000D01*
X107621605Y-90812000D01*
X108398993Y-91589388D01*
X108637860Y-91523863D01*
X108753760Y-91276884D01*
X108819250Y-91012040D01*
X108831812Y-90739508D01*
X108790965Y-90469762D01*
X108698277Y-90213168D01*
X108637860Y-90100137D01*
X108398993Y-90034612D01*
X107621605Y-90812000D01*
X107262395Y-90812000D01*
X106485007Y-90034612D01*
X106246140Y-90100137D01*
X106130240Y-90347116D01*
X106064750Y-90611960D01*
X106052188Y-90884492D01*
X104546039Y-90884492D01*
X104559000Y-90819335D01*
X104559000Y-90536665D01*
X104503853Y-90259426D01*
X104395680Y-89998273D01*
X104238637Y-89763241D01*
X104038759Y-89563363D01*
X103806241Y-89408000D01*
X104038759Y-89252637D01*
X104238637Y-89052759D01*
X104395680Y-88817727D01*
X104503853Y-88556574D01*
X104559000Y-88279335D01*
X104559000Y-87996665D01*
X104503853Y-87719426D01*
X104395680Y-87458273D01*
X104348726Y-87388000D01*
X106053928Y-87388000D01*
X106053928Y-88888000D01*
X106066188Y-89012482D01*
X106102498Y-89132180D01*
X106161463Y-89242494D01*
X106240815Y-89339185D01*
X106337506Y-89418537D01*
X106447820Y-89477502D01*
X106567518Y-89513812D01*
X106692000Y-89526072D01*
X106925253Y-89526072D01*
X106843168Y-89555723D01*
X106730137Y-89616140D01*
X106664612Y-89855007D01*
X107442000Y-90632395D01*
X108219388Y-89855007D01*
X108153863Y-89616140D01*
X107961931Y-89526072D01*
X108192000Y-89526072D01*
X108316482Y-89513812D01*
X108436180Y-89477502D01*
X108546494Y-89418537D01*
X108643185Y-89339185D01*
X108722537Y-89242494D01*
X108781502Y-89132180D01*
X108815366Y-89020544D01*
X113707000Y-89020544D01*
X113707000Y-89287456D01*
X113759072Y-89549239D01*
X113861215Y-89795833D01*
X114009503Y-90017762D01*
X114198238Y-90206497D01*
X114420167Y-90354785D01*
X114666761Y-90456928D01*
X114928544Y-90509000D01*
X115195456Y-90509000D01*
X115457239Y-90456928D01*
X115703833Y-90354785D01*
X115925762Y-90206497D01*
X116114497Y-90017762D01*
X116262785Y-89795833D01*
X116364928Y-89549239D01*
X116417000Y-89287456D01*
X116417000Y-89020544D01*
X116364928Y-88758761D01*
X116262785Y-88512167D01*
X116114497Y-88290238D01*
X115925762Y-88101503D01*
X115703833Y-87953215D01*
X115457239Y-87851072D01*
X115195456Y-87799000D01*
X114928544Y-87799000D01*
X114666761Y-87851072D01*
X114420167Y-87953215D01*
X114198238Y-88101503D01*
X114009503Y-88290238D01*
X113861215Y-88512167D01*
X113759072Y-88758761D01*
X113707000Y-89020544D01*
X108815366Y-89020544D01*
X108817812Y-89012482D01*
X108830072Y-88888000D01*
X108830072Y-87388000D01*
X108817812Y-87263518D01*
X108781502Y-87143820D01*
X108722537Y-87033506D01*
X108643185Y-86936815D01*
X108546494Y-86857463D01*
X108436180Y-86798498D01*
X108316482Y-86762188D01*
X108208517Y-86751555D01*
X108324886Y-86673799D01*
X108517799Y-86480886D01*
X108518027Y-86480544D01*
X116247000Y-86480544D01*
X116247000Y-86747456D01*
X116299072Y-87009239D01*
X116401215Y-87255833D01*
X116549503Y-87477762D01*
X116738238Y-87666497D01*
X116960167Y-87814785D01*
X117206761Y-87916928D01*
X117468544Y-87969000D01*
X117735456Y-87969000D01*
X117997239Y-87916928D01*
X118243833Y-87814785D01*
X118465762Y-87666497D01*
X118654497Y-87477762D01*
X118802785Y-87255833D01*
X118904928Y-87009239D01*
X118957000Y-86747456D01*
X118957000Y-86480544D01*
X118904928Y-86218761D01*
X118802785Y-85972167D01*
X118654497Y-85750238D01*
X118465762Y-85561503D01*
X118243833Y-85413215D01*
X117997239Y-85311072D01*
X117735456Y-85259000D01*
X117468544Y-85259000D01*
X117206761Y-85311072D01*
X116960167Y-85413215D01*
X116738238Y-85561503D01*
X116549503Y-85750238D01*
X116401215Y-85972167D01*
X116299072Y-86218761D01*
X116247000Y-86480544D01*
X108518027Y-86480544D01*
X108669371Y-86254043D01*
X108773775Y-86001989D01*
X108827000Y-85734411D01*
X108827000Y-85461589D01*
X108773775Y-85194011D01*
X108669371Y-84941957D01*
X108517799Y-84715114D01*
X108324886Y-84522201D01*
X108098043Y-84370629D01*
X107998721Y-84329489D01*
X108040832Y-84314277D01*
X108153863Y-84253860D01*
X108219388Y-84014993D01*
X108144939Y-83940544D01*
X113707000Y-83940544D01*
X113707000Y-84207456D01*
X113759072Y-84469239D01*
X113861215Y-84715833D01*
X114009503Y-84937762D01*
X114198238Y-85126497D01*
X114420167Y-85274785D01*
X114666761Y-85376928D01*
X114928544Y-85429000D01*
X115195456Y-85429000D01*
X115457239Y-85376928D01*
X115703833Y-85274785D01*
X115925762Y-85126497D01*
X116114497Y-84937762D01*
X116262785Y-84715833D01*
X116364928Y-84469239D01*
X116417000Y-84207456D01*
X116417000Y-83940544D01*
X116364928Y-83678761D01*
X116262785Y-83432167D01*
X116114497Y-83210238D01*
X115925762Y-83021503D01*
X115703833Y-82873215D01*
X115457239Y-82771072D01*
X115195456Y-82719000D01*
X114928544Y-82719000D01*
X114666761Y-82771072D01*
X114420167Y-82873215D01*
X114198238Y-83021503D01*
X114009503Y-83210238D01*
X113861215Y-83432167D01*
X113759072Y-83678761D01*
X113707000Y-83940544D01*
X108144939Y-83940544D01*
X107442000Y-83237605D01*
X106664612Y-84014993D01*
X106730137Y-84253860D01*
X106888477Y-84328164D01*
X106785957Y-84370629D01*
X106559114Y-84522201D01*
X106366201Y-84715114D01*
X106214629Y-84941957D01*
X106110225Y-85194011D01*
X106057000Y-85461589D01*
X106057000Y-85734411D01*
X106110225Y-86001989D01*
X106214629Y-86254043D01*
X106366201Y-86480886D01*
X106559114Y-86673799D01*
X106675483Y-86751555D01*
X106567518Y-86762188D01*
X106447820Y-86798498D01*
X106337506Y-86857463D01*
X106240815Y-86936815D01*
X106161463Y-87033506D01*
X106102498Y-87143820D01*
X106066188Y-87263518D01*
X106053928Y-87388000D01*
X104348726Y-87388000D01*
X104238637Y-87223241D01*
X104038759Y-87023363D01*
X103806241Y-86868000D01*
X104038759Y-86712637D01*
X104238637Y-86512759D01*
X104395680Y-86277727D01*
X104503853Y-86016574D01*
X104559000Y-85739335D01*
X104559000Y-85456665D01*
X104503853Y-85179426D01*
X104395680Y-84918273D01*
X104238637Y-84683241D01*
X104038759Y-84483363D01*
X103806241Y-84328000D01*
X104038759Y-84172637D01*
X104238637Y-83972759D01*
X104395680Y-83737727D01*
X104503853Y-83476574D01*
X104559000Y-83199335D01*
X104559000Y-83130492D01*
X106052188Y-83130492D01*
X106093035Y-83400238D01*
X106185723Y-83656832D01*
X106246140Y-83769863D01*
X106485007Y-83835388D01*
X107262395Y-83058000D01*
X107621605Y-83058000D01*
X108398993Y-83835388D01*
X108637860Y-83769863D01*
X108753760Y-83522884D01*
X108819250Y-83258040D01*
X108831812Y-82985508D01*
X108790965Y-82715762D01*
X108698277Y-82459168D01*
X108637860Y-82346137D01*
X108398993Y-82280612D01*
X107621605Y-83058000D01*
X107262395Y-83058000D01*
X106485007Y-82280612D01*
X106246140Y-82346137D01*
X106130240Y-82593116D01*
X106064750Y-82857960D01*
X106052188Y-83130492D01*
X104559000Y-83130492D01*
X104559000Y-82970038D01*
X105428031Y-82101007D01*
X106664612Y-82101007D01*
X107442000Y-82878395D01*
X108219388Y-82101007D01*
X108153863Y-81862140D01*
X107906884Y-81746240D01*
X107642040Y-81680750D01*
X107369508Y-81668188D01*
X107099762Y-81709035D01*
X106843168Y-81801723D01*
X106730137Y-81862140D01*
X106664612Y-82101007D01*
X105428031Y-82101007D01*
X106820539Y-80708500D01*
X106875318Y-80708500D01*
X106930392Y-80775608D01*
X107148899Y-80954932D01*
X107398192Y-81088182D01*
X107668691Y-81170236D01*
X107879508Y-81191000D01*
X108020492Y-81191000D01*
X108231309Y-81170236D01*
X108501808Y-81088182D01*
X108751101Y-80954932D01*
X108969608Y-80775608D01*
X109148932Y-80557101D01*
X109282182Y-80307808D01*
X109364236Y-80037309D01*
X109379434Y-79883002D01*
X109474084Y-79883002D01*
X109352096Y-80105039D01*
X109392754Y-80239087D01*
X109512963Y-80493420D01*
X109680481Y-80719414D01*
X109888869Y-80908385D01*
X110130119Y-81053070D01*
X110394960Y-81147909D01*
X110617000Y-81026624D01*
X110617000Y-79883000D01*
X110871000Y-79883000D01*
X110871000Y-81026624D01*
X111093040Y-81147909D01*
X111357881Y-81053070D01*
X111599131Y-80908385D01*
X111807519Y-80719414D01*
X111975037Y-80493420D01*
X112095246Y-80239087D01*
X112135904Y-80105039D01*
X112013915Y-79883000D01*
X110871000Y-79883000D01*
X110617000Y-79883000D01*
X110597000Y-79883000D01*
X110597000Y-79629000D01*
X110617000Y-79629000D01*
X110617000Y-78485376D01*
X110871000Y-78485376D01*
X110871000Y-79629000D01*
X112013915Y-79629000D01*
X112021790Y-79614665D01*
X116929000Y-79614665D01*
X116929000Y-79897335D01*
X116984147Y-80174574D01*
X117092320Y-80435727D01*
X117249363Y-80670759D01*
X117449241Y-80870637D01*
X117684273Y-81027680D01*
X117945426Y-81135853D01*
X118222665Y-81191000D01*
X118505335Y-81191000D01*
X118782574Y-81135853D01*
X119043727Y-81027680D01*
X119278759Y-80870637D01*
X119478637Y-80670759D01*
X119635680Y-80435727D01*
X119743853Y-80174574D01*
X119799000Y-79897335D01*
X119799000Y-79614665D01*
X119743853Y-79337426D01*
X119635680Y-79076273D01*
X119478637Y-78841241D01*
X119278759Y-78641363D01*
X119043727Y-78484320D01*
X118782574Y-78376147D01*
X118505335Y-78321000D01*
X118222665Y-78321000D01*
X117945426Y-78376147D01*
X117684273Y-78484320D01*
X117449241Y-78641363D01*
X117249363Y-78841241D01*
X117092320Y-79076273D01*
X116984147Y-79337426D01*
X116929000Y-79614665D01*
X112021790Y-79614665D01*
X112135904Y-79406961D01*
X112095246Y-79272913D01*
X111975037Y-79018580D01*
X111807519Y-78792586D01*
X111599131Y-78603615D01*
X111357881Y-78458930D01*
X111093040Y-78364091D01*
X110871000Y-78485376D01*
X110617000Y-78485376D01*
X110394960Y-78364091D01*
X110130119Y-78458930D01*
X109888869Y-78603615D01*
X109680481Y-78792586D01*
X109512963Y-79018580D01*
X109392754Y-79272913D01*
X109352096Y-79406961D01*
X109474084Y-79628998D01*
X109379434Y-79628998D01*
X109364236Y-79474691D01*
X109282182Y-79204192D01*
X109148932Y-78954899D01*
X108969608Y-78736392D01*
X108751101Y-78557068D01*
X108501808Y-78423818D01*
X108231309Y-78341764D01*
X108020492Y-78321000D01*
X107879508Y-78321000D01*
X107668691Y-78341764D01*
X107398192Y-78423818D01*
X107148899Y-78557068D01*
X106930392Y-78736392D01*
X106875318Y-78803500D01*
X106472784Y-78803500D01*
X106425999Y-78798892D01*
X106239277Y-78817283D01*
X106059731Y-78871748D01*
X105894259Y-78960194D01*
X105749222Y-79079222D01*
X105719397Y-79115564D01*
X103211962Y-81623000D01*
X102982665Y-81623000D01*
X102705426Y-81678147D01*
X102444273Y-81786320D01*
X102209241Y-81943363D01*
X102009363Y-82143241D01*
X101852320Y-82378273D01*
X101744147Y-82639426D01*
X101689000Y-82916665D01*
X101689000Y-83145962D01*
X96922292Y-87912670D01*
X96883853Y-87719426D01*
X96775680Y-87458273D01*
X96618637Y-87223241D01*
X96418759Y-87023363D01*
X96186241Y-86868000D01*
X96418759Y-86712637D01*
X96618637Y-86512759D01*
X96775680Y-86277727D01*
X96883853Y-86016574D01*
X96939000Y-85739335D01*
X96939000Y-85456665D01*
X96883853Y-85179426D01*
X96775680Y-84918273D01*
X96618637Y-84683241D01*
X96420039Y-84484643D01*
X96428482Y-84483812D01*
X96548180Y-84447502D01*
X96658494Y-84388537D01*
X96755185Y-84309185D01*
X96834537Y-84212494D01*
X96893502Y-84102180D01*
X96929812Y-83982482D01*
X96942072Y-83858000D01*
X96939000Y-83343750D01*
X96780250Y-83185000D01*
X95631000Y-83185000D01*
X95631000Y-83205000D01*
X95377000Y-83205000D01*
X95377000Y-83185000D01*
X94227750Y-83185000D01*
X94069000Y-83343750D01*
X94065928Y-83858000D01*
X94078188Y-83982482D01*
X94114498Y-84102180D01*
X94173463Y-84212494D01*
X94252815Y-84309185D01*
X94349506Y-84388537D01*
X94459820Y-84447502D01*
X94579518Y-84483812D01*
X94587961Y-84484643D01*
X94389363Y-84683241D01*
X94232320Y-84918273D01*
X94124147Y-85179426D01*
X94069000Y-85456665D01*
X94069000Y-85739335D01*
X94124147Y-86016574D01*
X94232320Y-86277727D01*
X94389363Y-86512759D01*
X94589241Y-86712637D01*
X94821759Y-86868000D01*
X94589241Y-87023363D01*
X94389363Y-87223241D01*
X94232320Y-87458273D01*
X94124147Y-87719426D01*
X94069000Y-87996665D01*
X94069000Y-88279335D01*
X94124147Y-88556574D01*
X94232320Y-88817727D01*
X94389363Y-89052759D01*
X94589241Y-89252637D01*
X94821759Y-89408000D01*
X94589241Y-89563363D01*
X94389363Y-89763241D01*
X94232320Y-89998273D01*
X94124147Y-90259426D01*
X94069000Y-90536665D01*
X94069000Y-90819335D01*
X94124147Y-91096574D01*
X94232320Y-91357727D01*
X94389363Y-91592759D01*
X94551500Y-91754896D01*
X94551501Y-92903103D01*
X94389363Y-93065241D01*
X94232320Y-93300273D01*
X94124147Y-93561426D01*
X94069000Y-93838665D01*
X94069000Y-94121335D01*
X94124147Y-94398574D01*
X94232320Y-94659727D01*
X94389363Y-94894759D01*
X94551501Y-95056897D01*
X94551501Y-95113206D01*
X94546892Y-95160000D01*
X94565283Y-95346722D01*
X94594131Y-95441818D01*
X94619749Y-95526269D01*
X94708195Y-95691741D01*
X94827223Y-95836778D01*
X94863564Y-95866602D01*
X97461807Y-98464845D01*
X97440000Y-98574474D01*
X97440000Y-98897526D01*
X97503025Y-99214370D01*
X97626651Y-99512831D01*
X97806129Y-99781439D01*
X98034561Y-100009871D01*
X98303169Y-100189349D01*
X98601630Y-100312975D01*
X98918474Y-100376000D01*
X99241526Y-100376000D01*
X99554672Y-100313710D01*
X101565928Y-102324966D01*
X101565928Y-103616000D01*
X101578188Y-103740482D01*
X101614498Y-103860180D01*
X101673463Y-103970494D01*
X101752815Y-104067185D01*
X101849506Y-104146537D01*
X101922440Y-104185522D01*
X99872462Y-106235500D01*
X97974425Y-106235500D01*
X98080994Y-106178537D01*
X98177685Y-106099185D01*
X98257037Y-106002494D01*
X98316002Y-105892180D01*
X98352312Y-105772482D01*
X98364572Y-105648000D01*
X98364572Y-103648000D01*
X98352312Y-103523518D01*
X98316002Y-103403820D01*
X98257037Y-103293506D01*
X98177685Y-103196815D01*
X98080994Y-103117463D01*
X97970680Y-103058498D01*
X97850982Y-103022188D01*
X97726500Y-103009928D01*
X95821500Y-103009928D01*
X95697018Y-103022188D01*
X95577320Y-103058498D01*
X95467006Y-103117463D01*
X95370315Y-103196815D01*
X95290963Y-103293506D01*
X95246095Y-103377446D01*
X95120235Y-103274155D01*
X94844449Y-103126745D01*
X94545204Y-103035970D01*
X94234000Y-103005319D01*
X93922797Y-103035970D01*
X93623552Y-103126745D01*
X93347766Y-103274155D01*
X93106037Y-103472537D01*
X92958837Y-103651899D01*
X92803437Y-103466685D01*
X92560923Y-103272031D01*
X92285094Y-103128429D01*
X92066980Y-103057437D01*
X91821000Y-103177406D01*
X91821000Y-104521000D01*
X91841000Y-104521000D01*
X91841000Y-104775000D01*
X91821000Y-104775000D01*
X91821000Y-106118594D01*
X92066980Y-106238563D01*
X92285094Y-106167571D01*
X92560923Y-106023969D01*
X92803437Y-105829315D01*
X92958838Y-105644100D01*
X93106037Y-105823463D01*
X93347765Y-106021845D01*
X93623551Y-106169255D01*
X93922796Y-106260030D01*
X94234000Y-106290681D01*
X94545203Y-106260030D01*
X94844448Y-106169255D01*
X95120234Y-106021845D01*
X95246095Y-105918553D01*
X95290963Y-106002494D01*
X95370315Y-106099185D01*
X95467006Y-106178537D01*
X95577320Y-106237502D01*
X95697018Y-106273812D01*
X95821500Y-106286072D01*
X96212000Y-106286072D01*
X96153730Y-106303748D01*
X96070995Y-106347971D01*
X95988259Y-106392194D01*
X95843222Y-106511222D01*
X95813393Y-106547569D01*
X91200032Y-111160930D01*
X90868581Y-111095000D01*
X90487419Y-111095000D01*
X90113581Y-111169361D01*
X89761434Y-111315225D01*
X89444509Y-111526987D01*
X89174987Y-111796509D01*
X88963225Y-112113434D01*
X88817361Y-112465581D01*
X88743000Y-112839419D01*
X88544000Y-112839419D01*
X88544000Y-105021863D01*
X90141622Y-105021863D01*
X90235121Y-105318446D01*
X90384684Y-105591089D01*
X90584563Y-105829315D01*
X90827077Y-106023969D01*
X91102906Y-106167571D01*
X91321020Y-106238563D01*
X91567000Y-106118594D01*
X91567000Y-104775000D01*
X90268430Y-104775000D01*
X90141622Y-105021863D01*
X88544000Y-105021863D01*
X88544000Y-104274137D01*
X90141622Y-104274137D01*
X90268430Y-104521000D01*
X91567000Y-104521000D01*
X91567000Y-103177406D01*
X91321020Y-103057437D01*
X91102906Y-103128429D01*
X90827077Y-103272031D01*
X90584563Y-103466685D01*
X90384684Y-103704911D01*
X90235121Y-103977554D01*
X90141622Y-104274137D01*
X88544000Y-104274137D01*
X88544000Y-100432890D01*
X89236524Y-100432890D01*
X89281175Y-100580099D01*
X89406359Y-100842920D01*
X89580412Y-101076269D01*
X89796645Y-101271178D01*
X90046748Y-101420157D01*
X90321109Y-101517481D01*
X90551000Y-101396814D01*
X90551000Y-100203000D01*
X90805000Y-100203000D01*
X90805000Y-101396814D01*
X91034891Y-101517481D01*
X91309252Y-101420157D01*
X91559355Y-101271178D01*
X91775588Y-101076269D01*
X91949641Y-100842920D01*
X92074825Y-100580099D01*
X92119476Y-100432890D01*
X91998155Y-100203000D01*
X90805000Y-100203000D01*
X90551000Y-100203000D01*
X89357845Y-100203000D01*
X89236524Y-100432890D01*
X88544000Y-100432890D01*
X88544000Y-96686000D01*
X89189928Y-96686000D01*
X89189928Y-98386000D01*
X89202188Y-98510482D01*
X89238498Y-98630180D01*
X89297463Y-98740494D01*
X89376815Y-98837185D01*
X89473506Y-98916537D01*
X89583820Y-98975502D01*
X89664466Y-98999966D01*
X89580412Y-99075731D01*
X89406359Y-99309080D01*
X89281175Y-99571901D01*
X89236524Y-99719110D01*
X89357845Y-99949000D01*
X90551000Y-99949000D01*
X90551000Y-99929000D01*
X90805000Y-99929000D01*
X90805000Y-99949000D01*
X91998155Y-99949000D01*
X92119476Y-99719110D01*
X92074825Y-99571901D01*
X91949641Y-99309080D01*
X91775588Y-99075731D01*
X91691534Y-98999966D01*
X91772180Y-98975502D01*
X91882494Y-98916537D01*
X91979185Y-98837185D01*
X92058537Y-98740494D01*
X92117502Y-98630180D01*
X92153812Y-98510482D01*
X92166072Y-98386000D01*
X92166072Y-97374474D01*
X92340000Y-97374474D01*
X92340000Y-97697526D01*
X92403025Y-98014370D01*
X92526651Y-98312831D01*
X92706129Y-98581439D01*
X92934561Y-98809871D01*
X93203169Y-98989349D01*
X93501630Y-99112975D01*
X93818474Y-99176000D01*
X94141526Y-99176000D01*
X94458370Y-99112975D01*
X94756831Y-98989349D01*
X95025439Y-98809871D01*
X95253871Y-98581439D01*
X95433349Y-98312831D01*
X95556975Y-98014370D01*
X95620000Y-97697526D01*
X95620000Y-97374474D01*
X95556975Y-97057630D01*
X95433349Y-96759169D01*
X95253871Y-96490561D01*
X95025439Y-96262129D01*
X94756831Y-96082651D01*
X94458370Y-95959025D01*
X94141526Y-95896000D01*
X93818474Y-95896000D01*
X93501630Y-95959025D01*
X93203169Y-96082651D01*
X92934561Y-96262129D01*
X92706129Y-96490561D01*
X92526651Y-96759169D01*
X92403025Y-97057630D01*
X92340000Y-97374474D01*
X92166072Y-97374474D01*
X92166072Y-96686000D01*
X92153812Y-96561518D01*
X92117502Y-96441820D01*
X92058537Y-96331506D01*
X91979185Y-96234815D01*
X91882494Y-96155463D01*
X91772180Y-96096498D01*
X91652482Y-96060188D01*
X91528000Y-96047928D01*
X89828000Y-96047928D01*
X89703518Y-96060188D01*
X89583820Y-96096498D01*
X89473506Y-96155463D01*
X89376815Y-96234815D01*
X89297463Y-96331506D01*
X89238498Y-96441820D01*
X89202188Y-96561518D01*
X89189928Y-96686000D01*
X88544000Y-96686000D01*
X88544000Y-94193413D01*
X90230192Y-94193413D01*
X90325956Y-94457814D01*
X90615571Y-94598704D01*
X90927108Y-94680384D01*
X91248595Y-94699718D01*
X91567675Y-94655961D01*
X91872088Y-94550795D01*
X92046044Y-94457814D01*
X92141808Y-94193413D01*
X91186000Y-93237605D01*
X90230192Y-94193413D01*
X88544000Y-94193413D01*
X88544000Y-93120595D01*
X89544282Y-93120595D01*
X89588039Y-93439675D01*
X89693205Y-93744088D01*
X89786186Y-93918044D01*
X90050587Y-94013808D01*
X91006395Y-93058000D01*
X91365605Y-93058000D01*
X92321413Y-94013808D01*
X92585814Y-93918044D01*
X92726704Y-93628429D01*
X92808384Y-93316892D01*
X92827718Y-92995405D01*
X92783961Y-92676325D01*
X92678795Y-92371912D01*
X92585814Y-92197956D01*
X92321413Y-92102192D01*
X91365605Y-93058000D01*
X91006395Y-93058000D01*
X90050587Y-92102192D01*
X89786186Y-92197956D01*
X89645296Y-92487571D01*
X89563616Y-92799108D01*
X89544282Y-93120595D01*
X88544000Y-93120595D01*
X88544000Y-91922587D01*
X90230192Y-91922587D01*
X91186000Y-92878395D01*
X92141808Y-91922587D01*
X92046044Y-91658186D01*
X91756429Y-91517296D01*
X91444892Y-91435616D01*
X91123405Y-91416282D01*
X90804325Y-91460039D01*
X90499912Y-91565205D01*
X90325956Y-91658186D01*
X90230192Y-91922587D01*
X88544000Y-91922587D01*
X88544000Y-82896967D01*
X89551000Y-82896967D01*
X89551000Y-83219033D01*
X89613832Y-83534912D01*
X89737082Y-83832463D01*
X89916013Y-84100252D01*
X90143748Y-84327987D01*
X90411537Y-84506918D01*
X90709088Y-84630168D01*
X91024967Y-84693000D01*
X91347033Y-84693000D01*
X91662912Y-84630168D01*
X91960463Y-84506918D01*
X92228252Y-84327987D01*
X92455987Y-84100252D01*
X92634918Y-83832463D01*
X92758168Y-83534912D01*
X92821000Y-83219033D01*
X92821000Y-82896967D01*
X92758168Y-82581088D01*
X92634918Y-82283537D01*
X92617855Y-82258000D01*
X94065928Y-82258000D01*
X94069000Y-82772250D01*
X94227750Y-82931000D01*
X95377000Y-82931000D01*
X95377000Y-81781750D01*
X95631000Y-81781750D01*
X95631000Y-82931000D01*
X96780250Y-82931000D01*
X96939000Y-82772250D01*
X96942072Y-82258000D01*
X96929812Y-82133518D01*
X96893502Y-82013820D01*
X96834537Y-81903506D01*
X96755185Y-81806815D01*
X96658494Y-81727463D01*
X96548180Y-81668498D01*
X96428482Y-81632188D01*
X96304000Y-81619928D01*
X95789750Y-81623000D01*
X95631000Y-81781750D01*
X95377000Y-81781750D01*
X95218250Y-81623000D01*
X94704000Y-81619928D01*
X94579518Y-81632188D01*
X94459820Y-81668498D01*
X94349506Y-81727463D01*
X94252815Y-81806815D01*
X94173463Y-81903506D01*
X94114498Y-82013820D01*
X94078188Y-82133518D01*
X94065928Y-82258000D01*
X92617855Y-82258000D01*
X92455987Y-82015748D01*
X92228252Y-81788013D01*
X91960463Y-81609082D01*
X91662912Y-81485832D01*
X91347033Y-81423000D01*
X91024967Y-81423000D01*
X90709088Y-81485832D01*
X90411537Y-81609082D01*
X90143748Y-81788013D01*
X89916013Y-82015748D01*
X89737082Y-82283537D01*
X89613832Y-82581088D01*
X89551000Y-82896967D01*
X88544000Y-82896967D01*
X88544000Y-79614665D01*
X88989000Y-79614665D01*
X88989000Y-79897335D01*
X89044147Y-80174574D01*
X89152320Y-80435727D01*
X89309363Y-80670759D01*
X89509241Y-80870637D01*
X89744273Y-81027680D01*
X90005426Y-81135853D01*
X90282665Y-81191000D01*
X90565335Y-81191000D01*
X90842574Y-81135853D01*
X91103727Y-81027680D01*
X91338759Y-80870637D01*
X91538637Y-80670759D01*
X91695680Y-80435727D01*
X91803853Y-80174574D01*
X91859000Y-79897335D01*
X91859000Y-79756000D01*
X96602057Y-79756000D01*
X96629764Y-80037309D01*
X96711818Y-80307808D01*
X96845068Y-80557101D01*
X97024392Y-80775608D01*
X97242899Y-80954932D01*
X97492192Y-81088182D01*
X97762691Y-81170236D01*
X97973508Y-81191000D01*
X98114492Y-81191000D01*
X98325309Y-81170236D01*
X98595808Y-81088182D01*
X98845101Y-80954932D01*
X99063608Y-80775608D01*
X99185874Y-80626626D01*
X99215363Y-80670759D01*
X99415241Y-80870637D01*
X99650273Y-81027680D01*
X99911426Y-81135853D01*
X100188665Y-81191000D01*
X100471335Y-81191000D01*
X100748574Y-81135853D01*
X101009727Y-81027680D01*
X101244759Y-80870637D01*
X101444637Y-80670759D01*
X101601680Y-80435727D01*
X101709853Y-80174574D01*
X101765000Y-79897335D01*
X101765000Y-79614665D01*
X101709853Y-79337426D01*
X101601680Y-79076273D01*
X101444637Y-78841241D01*
X101244759Y-78641363D01*
X101009727Y-78484320D01*
X100748574Y-78376147D01*
X100471335Y-78321000D01*
X100188665Y-78321000D01*
X99911426Y-78376147D01*
X99650273Y-78484320D01*
X99415241Y-78641363D01*
X99215363Y-78841241D01*
X99185874Y-78885374D01*
X99063608Y-78736392D01*
X98845101Y-78557068D01*
X98595808Y-78423818D01*
X98325309Y-78341764D01*
X98114492Y-78321000D01*
X97973508Y-78321000D01*
X97762691Y-78341764D01*
X97492192Y-78423818D01*
X97242899Y-78557068D01*
X97024392Y-78736392D01*
X96845068Y-78954899D01*
X96711818Y-79204192D01*
X96629764Y-79474691D01*
X96602057Y-79756000D01*
X91859000Y-79756000D01*
X91859000Y-79614665D01*
X91803853Y-79337426D01*
X91695680Y-79076273D01*
X91538637Y-78841241D01*
X91338759Y-78641363D01*
X91103727Y-78484320D01*
X90842574Y-78376147D01*
X90565335Y-78321000D01*
X90282665Y-78321000D01*
X90005426Y-78376147D01*
X89744273Y-78484320D01*
X89509241Y-78641363D01*
X89309363Y-78841241D01*
X89152320Y-79076273D01*
X89044147Y-79337426D01*
X88989000Y-79614665D01*
X88544000Y-79614665D01*
X88544000Y-78130000D01*
X120244000Y-78130000D01*
X120244001Y-117450000D01*
X120244001Y-117450000D01*
G37*
X120244001Y-117450000D02*
X119511312Y-117450000D01*
X119562932Y-117387101D01*
X119696182Y-117137808D01*
X119778236Y-116867309D01*
X119805943Y-116586000D01*
X119778236Y-116304691D01*
X119696182Y-116034192D01*
X119562932Y-115784899D01*
X119383608Y-115566392D01*
X119165101Y-115387068D01*
X118915808Y-115253818D01*
X118645309Y-115171764D01*
X118434492Y-115151000D01*
X118293508Y-115151000D01*
X118082691Y-115171764D01*
X117812192Y-115253818D01*
X117562899Y-115387068D01*
X117344392Y-115566392D01*
X117165068Y-115784899D01*
X117031818Y-116034192D01*
X116949764Y-116304691D01*
X116922057Y-116586000D01*
X116949764Y-116867309D01*
X117031818Y-117137808D01*
X117165068Y-117387101D01*
X117216688Y-117450000D01*
X103660429Y-117450000D01*
X103660429Y-115255000D01*
X100772369Y-115255000D01*
X100769895Y-115229881D01*
X100670686Y-114902832D01*
X100509579Y-114601422D01*
X100401724Y-114470000D01*
X104941928Y-114470000D01*
X104941928Y-116670000D01*
X104954188Y-116794482D01*
X104990498Y-116914180D01*
X105049463Y-117024494D01*
X105128815Y-117121185D01*
X105225506Y-117200537D01*
X105335820Y-117259502D01*
X105455518Y-117295812D01*
X105580000Y-117308072D01*
X107780000Y-117308072D01*
X107904482Y-117295812D01*
X108024180Y-117259502D01*
X108134494Y-117200537D01*
X108231185Y-117121185D01*
X108310537Y-117024494D01*
X108369502Y-116914180D01*
X108405812Y-116794482D01*
X108418072Y-116670000D01*
X108418072Y-114470000D01*
X108405812Y-114345518D01*
X108380478Y-114262000D01*
X111083928Y-114262000D01*
X111083928Y-115862000D01*
X111096188Y-115986482D01*
X111132498Y-116106180D01*
X111191463Y-116216494D01*
X111270815Y-116313185D01*
X111367506Y-116392537D01*
X111477820Y-116451502D01*
X111597518Y-116487812D01*
X111722000Y-116500072D01*
X113322000Y-116500072D01*
X113446482Y-116487812D01*
X113566180Y-116451502D01*
X113676494Y-116392537D01*
X113773185Y-116313185D01*
X113852537Y-116216494D01*
X113911502Y-116106180D01*
X113947812Y-115986482D01*
X113960072Y-115862000D01*
X113960072Y-114262000D01*
X113947812Y-114137518D01*
X113911502Y-114017820D01*
X113852537Y-113907506D01*
X113773185Y-113810815D01*
X113676494Y-113731463D01*
X113566180Y-113672498D01*
X113446482Y-113636188D01*
X113322000Y-113623928D01*
X113314785Y-113623928D01*
X113335097Y-113554702D01*
X112522000Y-112741605D01*
X111708903Y-113554702D01*
X111729215Y-113623928D01*
X111722000Y-113623928D01*
X111597518Y-113636188D01*
X111477820Y-113672498D01*
X111367506Y-113731463D01*
X111270815Y-113810815D01*
X111191463Y-113907506D01*
X111132498Y-114017820D01*
X111096188Y-114137518D01*
X111083928Y-114262000D01*
X108380478Y-114262000D01*
X108369502Y-114225820D01*
X108310537Y-114115506D01*
X108231185Y-114018815D01*
X108134494Y-113939463D01*
X108024180Y-113880498D01*
X107904482Y-113844188D01*
X107780000Y-113831928D01*
X107273442Y-113831928D01*
X107481101Y-113720932D01*
X107699608Y-113541608D01*
X107878932Y-113323101D01*
X108012182Y-113073808D01*
X108094236Y-112803309D01*
X108111058Y-112632512D01*
X111081783Y-112632512D01*
X111123213Y-112912130D01*
X111218397Y-113178292D01*
X111285329Y-113303514D01*
X111529298Y-113375097D01*
X112342395Y-112562000D01*
X112701605Y-112562000D01*
X113514702Y-113375097D01*
X113758671Y-113303514D01*
X113879571Y-113048004D01*
X113948300Y-112773816D01*
X113962217Y-112491488D01*
X113920787Y-112211870D01*
X113825603Y-111945708D01*
X113758671Y-111820486D01*
X113514702Y-111748903D01*
X112701605Y-112562000D01*
X112342395Y-112562000D01*
X111529298Y-111748903D01*
X111285329Y-111820486D01*
X111164429Y-112075996D01*
X111095700Y-112350184D01*
X111081783Y-112632512D01*
X108111058Y-112632512D01*
X108121943Y-112522000D01*
X108094236Y-112240691D01*
X108012182Y-111970192D01*
X107878932Y-111720899D01*
X107754517Y-111569298D01*
X111708903Y-111569298D01*
X112522000Y-112382395D01*
X113335097Y-111569298D01*
X113263514Y-111325329D01*
X113008004Y-111204429D01*
X112733816Y-111135700D01*
X112451488Y-111121783D01*
X112171870Y-111163213D01*
X111905708Y-111258397D01*
X111780486Y-111325329D01*
X111708903Y-111569298D01*
X107754517Y-111569298D01*
X107699608Y-111502392D01*
X107481101Y-111323068D01*
X107231808Y-111189818D01*
X106961309Y-111107764D01*
X106750492Y-111087000D01*
X106609508Y-111087000D01*
X106398691Y-111107764D01*
X106128192Y-111189818D01*
X105878899Y-111323068D01*
X105660392Y-111502392D01*
X105481068Y-111720899D01*
X105347818Y-111970192D01*
X105265764Y-112240691D01*
X105238057Y-112522000D01*
X105265764Y-112803309D01*
X105347818Y-113073808D01*
X105481068Y-113323101D01*
X105660392Y-113541608D01*
X105878899Y-113720932D01*
X106086558Y-113831928D01*
X105580000Y-113831928D01*
X105455518Y-113844188D01*
X105335820Y-113880498D01*
X105225506Y-113939463D01*
X105128815Y-114018815D01*
X105049463Y-114115506D01*
X104990498Y-114225820D01*
X104954188Y-114345518D01*
X104941928Y-114470000D01*
X100401724Y-114470000D01*
X100292766Y-114337234D01*
X100028578Y-114120421D01*
X99727168Y-113959314D01*
X99503588Y-113891492D01*
X99739727Y-113793680D01*
X99974759Y-113636637D01*
X100174637Y-113436759D01*
X100331680Y-113201727D01*
X100439853Y-112940574D01*
X100495000Y-112663335D01*
X100495000Y-112380665D01*
X100439853Y-112103426D01*
X100331680Y-111842273D01*
X100174637Y-111607241D01*
X99974759Y-111407363D01*
X99739727Y-111250320D01*
X99478574Y-111142147D01*
X99201335Y-111087000D01*
X98918665Y-111087000D01*
X98641426Y-111142147D01*
X98380273Y-111250320D01*
X98145241Y-111407363D01*
X97945363Y-111607241D01*
X97788320Y-111842273D01*
X97680147Y-112103426D01*
X97625000Y-112380665D01*
X97625000Y-112663335D01*
X97680147Y-112940574D01*
X97788320Y-113201727D01*
X97945363Y-113436759D01*
X98145241Y-113636637D01*
X98380273Y-113793680D01*
X98616412Y-113891492D01*
X98392832Y-113959314D01*
X98091422Y-114120421D01*
X97827234Y-114337234D01*
X97610421Y-114601422D01*
X97449314Y-114902832D01*
X97350105Y-115229881D01*
X97347631Y-115255000D01*
X88544000Y-115255000D01*
X88544000Y-112839419D01*
X88743000Y-112839419D01*
X88743000Y-113220581D01*
X88817361Y-113594419D01*
X88963225Y-113946566D01*
X89174987Y-114263491D01*
X89444509Y-114533013D01*
X89761434Y-114744775D01*
X90113581Y-114890639D01*
X90487419Y-114965000D01*
X90868581Y-114965000D01*
X91242419Y-114890639D01*
X91594566Y-114744775D01*
X91911491Y-114533013D01*
X92181013Y-114263491D01*
X92392775Y-113946566D01*
X92538639Y-113594419D01*
X92613000Y-113220581D01*
X92613000Y-112839419D01*
X93743000Y-112839419D01*
X93743000Y-113220581D01*
X93817361Y-113594419D01*
X93963225Y-113946566D01*
X94174987Y-114263491D01*
X94444509Y-114533013D01*
X94761434Y-114744775D01*
X95113581Y-114890639D01*
X95487419Y-114965000D01*
X95868581Y-114965000D01*
X96242419Y-114890639D01*
X96594566Y-114744775D01*
X96911491Y-114533013D01*
X97181013Y-114263491D01*
X97392775Y-113946566D01*
X97538639Y-113594419D01*
X97613000Y-113220581D01*
X97613000Y-112839419D01*
X97538639Y-112465581D01*
X97392775Y-112113434D01*
X97181013Y-111796509D01*
X96911491Y-111526987D01*
X96594566Y-111315225D01*
X96242419Y-111169361D01*
X95868581Y-111095000D01*
X95487419Y-111095000D01*
X95113581Y-111169361D01*
X94761434Y-111315225D01*
X94444509Y-111526987D01*
X94174987Y-111796509D01*
X93963225Y-112113434D01*
X93817361Y-112465581D01*
X93743000Y-112839419D01*
X92613000Y-112839419D01*
X92547070Y-112507968D01*
X94588336Y-110466702D01*
X99810903Y-110466702D01*
X99882486Y-110710671D01*
X100137996Y-110831571D01*
X100412184Y-110900300D01*
X100694512Y-110914217D01*
X100974130Y-110872787D01*
X101240292Y-110777603D01*
X101365514Y-110710671D01*
X101437097Y-110466702D01*
X100624000Y-109653605D01*
X99810903Y-110466702D01*
X94588336Y-110466702D01*
X95510526Y-109544512D01*
X99183783Y-109544512D01*
X99225213Y-109824130D01*
X99320397Y-110090292D01*
X99387329Y-110215514D01*
X99631298Y-110287097D01*
X100444395Y-109474000D01*
X100803605Y-109474000D01*
X101616702Y-110287097D01*
X101860671Y-110215514D01*
X101874324Y-110186659D01*
X102009363Y-110388759D01*
X102209241Y-110588637D01*
X102444273Y-110745680D01*
X102705426Y-110853853D01*
X102982665Y-110909000D01*
X103265335Y-110909000D01*
X103542574Y-110853853D01*
X103803727Y-110745680D01*
X104038759Y-110588637D01*
X104238637Y-110388759D01*
X104395680Y-110153727D01*
X104503853Y-109892574D01*
X104559000Y-109615335D01*
X104559000Y-109332665D01*
X104503853Y-109055426D01*
X104395680Y-108794273D01*
X104238637Y-108559241D01*
X104038759Y-108359363D01*
X103803727Y-108202320D01*
X103542574Y-108094147D01*
X103265335Y-108039000D01*
X102982665Y-108039000D01*
X102705426Y-108094147D01*
X102444273Y-108202320D01*
X102209241Y-108359363D01*
X102009363Y-108559241D01*
X101875308Y-108759869D01*
X101860671Y-108732486D01*
X101616702Y-108660903D01*
X100803605Y-109474000D01*
X100444395Y-109474000D01*
X99631298Y-108660903D01*
X99387329Y-108732486D01*
X99266429Y-108987996D01*
X99197700Y-109262184D01*
X99183783Y-109544512D01*
X95510526Y-109544512D01*
X96914538Y-108140500D01*
X100091309Y-108140500D01*
X100007708Y-108170397D01*
X99882486Y-108237329D01*
X99810903Y-108481298D01*
X100624000Y-109294395D01*
X101437097Y-108481298D01*
X101365514Y-108237329D01*
X101110004Y-108116429D01*
X100835816Y-108047700D01*
X100692427Y-108040632D01*
X100798741Y-107983806D01*
X100943778Y-107864778D01*
X100973607Y-107828431D01*
X101106038Y-107696000D01*
X111588057Y-107696000D01*
X111615764Y-107977309D01*
X111697818Y-108247808D01*
X111831068Y-108497101D01*
X112010392Y-108715608D01*
X112228899Y-108894932D01*
X112478192Y-109028182D01*
X112748691Y-109110236D01*
X112959508Y-109131000D01*
X113100492Y-109131000D01*
X113311309Y-109110236D01*
X113581808Y-109028182D01*
X113831101Y-108894932D01*
X113916721Y-108824665D01*
X116929000Y-108824665D01*
X116929000Y-109107335D01*
X116984147Y-109384574D01*
X117092320Y-109645727D01*
X117249363Y-109880759D01*
X117449241Y-110080637D01*
X117684273Y-110237680D01*
X117945426Y-110345853D01*
X118222665Y-110401000D01*
X118505335Y-110401000D01*
X118782574Y-110345853D01*
X119043727Y-110237680D01*
X119278759Y-110080637D01*
X119478637Y-109880759D01*
X119635680Y-109645727D01*
X119743853Y-109384574D01*
X119799000Y-109107335D01*
X119799000Y-108824665D01*
X119743853Y-108547426D01*
X119635680Y-108286273D01*
X119478637Y-108051241D01*
X119278759Y-107851363D01*
X119043727Y-107694320D01*
X118782574Y-107586147D01*
X118505335Y-107531000D01*
X118222665Y-107531000D01*
X117945426Y-107586147D01*
X117684273Y-107694320D01*
X117449241Y-107851363D01*
X117249363Y-108051241D01*
X117092320Y-108286273D01*
X116984147Y-108547426D01*
X116929000Y-108824665D01*
X113916721Y-108824665D01*
X114049608Y-108715608D01*
X114228932Y-108497101D01*
X114362182Y-108247808D01*
X114444236Y-107977309D01*
X114471943Y-107696000D01*
X114444236Y-107414691D01*
X114362182Y-107144192D01*
X114228932Y-106894899D01*
X114049608Y-106676392D01*
X113831101Y-106497068D01*
X113581808Y-106363818D01*
X113311309Y-106281764D01*
X113100492Y-106261000D01*
X112959508Y-106261000D01*
X112748691Y-106281764D01*
X112478192Y-106363818D01*
X112228899Y-106497068D01*
X112010392Y-106676392D01*
X111831068Y-106894899D01*
X111697818Y-107144192D01*
X111615764Y-107414691D01*
X111588057Y-107696000D01*
X101106038Y-107696000D01*
X102884038Y-105918000D01*
X116871815Y-105918000D01*
X116900487Y-106209111D01*
X116985401Y-106489034D01*
X117123294Y-106747014D01*
X117308866Y-106973134D01*
X117534986Y-107158706D01*
X117792966Y-107296599D01*
X118072889Y-107381513D01*
X118291050Y-107403000D01*
X118436950Y-107403000D01*
X118655111Y-107381513D01*
X118935034Y-107296599D01*
X119193014Y-107158706D01*
X119419134Y-106973134D01*
X119604706Y-106747014D01*
X119742599Y-106489034D01*
X119827513Y-106209111D01*
X119856185Y-105918000D01*
X119827513Y-105626889D01*
X119742599Y-105346966D01*
X119604706Y-105088986D01*
X119419134Y-104862866D01*
X119193014Y-104677294D01*
X119128477Y-104642799D01*
X119245355Y-104573178D01*
X119461588Y-104378269D01*
X119635641Y-104144920D01*
X119760825Y-103882099D01*
X119805476Y-103734890D01*
X119684155Y-103505000D01*
X118491000Y-103505000D01*
X118491000Y-103525000D01*
X118237000Y-103525000D01*
X118237000Y-103505000D01*
X117043845Y-103505000D01*
X116922524Y-103734890D01*
X116967175Y-103882099D01*
X117092359Y-104144920D01*
X117266412Y-104378269D01*
X117482645Y-104573178D01*
X117599523Y-104642799D01*
X117534986Y-104677294D01*
X117308866Y-104862866D01*
X117123294Y-105088986D01*
X116985401Y-105346966D01*
X116900487Y-105626889D01*
X116871815Y-105918000D01*
X102884038Y-105918000D01*
X103844436Y-104957603D01*
X103880778Y-104927778D01*
X103999806Y-104782741D01*
X104088252Y-104617269D01*
X104142717Y-104437723D01*
X104156500Y-104297785D01*
X104160806Y-104254072D01*
X104204000Y-104254072D01*
X104328482Y-104241812D01*
X104448180Y-104205502D01*
X104558494Y-104146537D01*
X104655185Y-104067185D01*
X104734537Y-103970494D01*
X104793502Y-103860180D01*
X104829812Y-103740482D01*
X104842072Y-103616000D01*
X104842072Y-103568500D01*
X105015462Y-103568500D01*
X106735397Y-105288436D01*
X106765222Y-105324778D01*
X106910259Y-105443806D01*
X107075731Y-105532252D01*
X107238854Y-105581735D01*
X107255277Y-105586717D01*
X107442000Y-105605108D01*
X107488785Y-105600500D01*
X112226288Y-105600500D01*
X112273073Y-105605108D01*
X112319858Y-105600500D01*
X112459796Y-105586717D01*
X112639342Y-105532252D01*
X112804814Y-105443806D01*
X112949851Y-105324778D01*
X112979680Y-105288431D01*
X116477611Y-101790500D01*
X116886023Y-101790500D01*
X116888188Y-101812482D01*
X116924498Y-101932180D01*
X116983463Y-102042494D01*
X117062815Y-102139185D01*
X117159506Y-102218537D01*
X117269820Y-102277502D01*
X117350466Y-102301966D01*
X117266412Y-102377731D01*
X117092359Y-102611080D01*
X116967175Y-102873901D01*
X116922524Y-103021110D01*
X117043845Y-103251000D01*
X118237000Y-103251000D01*
X118237000Y-103231000D01*
X118491000Y-103231000D01*
X118491000Y-103251000D01*
X119684155Y-103251000D01*
X119805476Y-103021110D01*
X119760825Y-102873901D01*
X119635641Y-102611080D01*
X119461588Y-102377731D01*
X119377534Y-102301966D01*
X119458180Y-102277502D01*
X119568494Y-102218537D01*
X119665185Y-102139185D01*
X119744537Y-102042494D01*
X119803502Y-101932180D01*
X119839812Y-101812482D01*
X119852072Y-101688000D01*
X119852072Y-99988000D01*
X119839812Y-99863518D01*
X119803502Y-99743820D01*
X119744537Y-99633506D01*
X119665185Y-99536815D01*
X119568494Y-99457463D01*
X119458180Y-99398498D01*
X119338482Y-99362188D01*
X119214000Y-99349928D01*
X117514000Y-99349928D01*
X117389518Y-99362188D01*
X117269820Y-99398498D01*
X117159506Y-99457463D01*
X117062815Y-99536815D01*
X116983463Y-99633506D01*
X116924498Y-99743820D01*
X116888188Y-99863518D01*
X116886023Y-99885500D01*
X116129858Y-99885500D01*
X116083073Y-99880892D01*
X116036288Y-99885500D01*
X115896350Y-99899283D01*
X115806577Y-99926515D01*
X115716803Y-99953748D01*
X115634068Y-99997971D01*
X115551332Y-100042194D01*
X115406295Y-100161222D01*
X115376466Y-100197569D01*
X111878535Y-103695500D01*
X109447058Y-103695500D01*
X109455083Y-103687475D01*
X109339415Y-103571807D01*
X109603814Y-103476044D01*
X109744704Y-103186429D01*
X109826384Y-102874892D01*
X109845718Y-102553405D01*
X109801961Y-102234325D01*
X109696795Y-101929912D01*
X109603814Y-101755956D01*
X109339413Y-101660192D01*
X108383605Y-102616000D01*
X108397748Y-102630143D01*
X108218143Y-102809748D01*
X108204000Y-102795605D01*
X108189858Y-102809748D01*
X108010253Y-102630143D01*
X108024395Y-102616000D01*
X107068587Y-101660192D01*
X106804186Y-101755956D01*
X106663296Y-102045571D01*
X106581616Y-102357108D01*
X106576881Y-102435843D01*
X106116607Y-101975569D01*
X106086778Y-101939222D01*
X105941741Y-101820194D01*
X105776269Y-101731748D01*
X105596723Y-101677283D01*
X105456785Y-101663500D01*
X105410000Y-101658892D01*
X105363215Y-101663500D01*
X104842072Y-101663500D01*
X104842072Y-101616000D01*
X104829812Y-101491518D01*
X104826497Y-101480587D01*
X107248192Y-101480587D01*
X108204000Y-102436395D01*
X109159808Y-101480587D01*
X109064044Y-101216186D01*
X108774429Y-101075296D01*
X108462892Y-100993616D01*
X108141405Y-100974282D01*
X107822325Y-101018039D01*
X107517912Y-101123205D01*
X107343956Y-101216186D01*
X107248192Y-101480587D01*
X104826497Y-101480587D01*
X104793502Y-101371820D01*
X104734537Y-101261506D01*
X104655185Y-101164815D01*
X104558494Y-101085463D01*
X104448180Y-101026498D01*
X104328482Y-100990188D01*
X104204000Y-100977928D01*
X102912966Y-100977928D01*
X101869703Y-99934665D01*
X111595000Y-99934665D01*
X111595000Y-100217335D01*
X111650147Y-100494574D01*
X111758320Y-100755727D01*
X111915363Y-100990759D01*
X112115241Y-101190637D01*
X112350273Y-101347680D01*
X112611426Y-101455853D01*
X112888665Y-101511000D01*
X113171335Y-101511000D01*
X113448574Y-101455853D01*
X113709727Y-101347680D01*
X113944759Y-101190637D01*
X114144637Y-100990759D01*
X114301680Y-100755727D01*
X114409853Y-100494574D01*
X114465000Y-100217335D01*
X114465000Y-99934665D01*
X114409853Y-99657426D01*
X114301680Y-99396273D01*
X114144637Y-99161241D01*
X113944759Y-98961363D01*
X113709727Y-98804320D01*
X113448574Y-98696147D01*
X113171335Y-98641000D01*
X112888665Y-98641000D01*
X112611426Y-98696147D01*
X112350273Y-98804320D01*
X112115241Y-98961363D01*
X111915363Y-99161241D01*
X111758320Y-99396273D01*
X111650147Y-99657426D01*
X111595000Y-99934665D01*
X101869703Y-99934665D01*
X100720000Y-98784962D01*
X100720000Y-98574474D01*
X100656975Y-98257630D01*
X100533349Y-97959169D01*
X100353871Y-97690561D01*
X100125439Y-97462129D01*
X99856831Y-97282651D01*
X99558370Y-97159025D01*
X99241526Y-97096000D01*
X98918474Y-97096000D01*
X98808845Y-97117807D01*
X96602217Y-94911179D01*
X96618637Y-94894759D01*
X96775680Y-94659727D01*
X96883853Y-94398574D01*
X96939000Y-94121335D01*
X96939000Y-93980000D01*
X101682057Y-93980000D01*
X101709764Y-94261309D01*
X101791818Y-94531808D01*
X101925068Y-94781101D01*
X102104392Y-94999608D01*
X102322899Y-95178932D01*
X102572192Y-95312182D01*
X102842691Y-95394236D01*
X103053508Y-95415000D01*
X103194492Y-95415000D01*
X103405309Y-95394236D01*
X103675808Y-95312182D01*
X103769691Y-95262000D01*
X106053928Y-95262000D01*
X106053928Y-96762000D01*
X106066188Y-96886482D01*
X106102498Y-97006180D01*
X106161463Y-97116494D01*
X106240815Y-97213185D01*
X106337506Y-97292537D01*
X106447820Y-97351502D01*
X106567518Y-97387812D01*
X106692000Y-97400072D01*
X108192000Y-97400072D01*
X108316482Y-97387812D01*
X108436180Y-97351502D01*
X108546494Y-97292537D01*
X108643185Y-97213185D01*
X108722537Y-97116494D01*
X108781502Y-97006180D01*
X108817812Y-96886482D01*
X108828890Y-96774000D01*
X109302057Y-96774000D01*
X109329764Y-97055309D01*
X109411818Y-97325808D01*
X109545068Y-97575101D01*
X109724392Y-97793608D01*
X109942899Y-97972932D01*
X110192192Y-98106182D01*
X110462691Y-98188236D01*
X110673508Y-98209000D01*
X110814492Y-98209000D01*
X111025309Y-98188236D01*
X111295808Y-98106182D01*
X111545101Y-97972932D01*
X111763608Y-97793608D01*
X111942932Y-97575101D01*
X112076182Y-97325808D01*
X112158236Y-97055309D01*
X112185943Y-96774000D01*
X112158236Y-96492691D01*
X112076182Y-96222192D01*
X111943521Y-95974000D01*
X116925928Y-95974000D01*
X116925928Y-97574000D01*
X116938188Y-97698482D01*
X116974498Y-97818180D01*
X117033463Y-97928494D01*
X117112815Y-98025185D01*
X117209506Y-98104537D01*
X117319820Y-98163502D01*
X117439518Y-98199812D01*
X117564000Y-98212072D01*
X119164000Y-98212072D01*
X119288482Y-98199812D01*
X119408180Y-98163502D01*
X119518494Y-98104537D01*
X119615185Y-98025185D01*
X119694537Y-97928494D01*
X119753502Y-97818180D01*
X119789812Y-97698482D01*
X119802072Y-97574000D01*
X119802072Y-95974000D01*
X119789812Y-95849518D01*
X119753502Y-95729820D01*
X119694537Y-95619506D01*
X119615185Y-95522815D01*
X119518494Y-95443463D01*
X119408180Y-95384498D01*
X119288482Y-95348188D01*
X119164000Y-95335928D01*
X117564000Y-95335928D01*
X117439518Y-95348188D01*
X117319820Y-95384498D01*
X117209506Y-95443463D01*
X117112815Y-95522815D01*
X117033463Y-95619506D01*
X116974498Y-95729820D01*
X116938188Y-95849518D01*
X116925928Y-95974000D01*
X111943521Y-95974000D01*
X111942932Y-95972899D01*
X111763608Y-95754392D01*
X111545101Y-95575068D01*
X111295808Y-95441818D01*
X111025309Y-95359764D01*
X110814492Y-95339000D01*
X110673508Y-95339000D01*
X110462691Y-95359764D01*
X110192192Y-95441818D01*
X109942899Y-95575068D01*
X109724392Y-95754392D01*
X109545068Y-95972899D01*
X109411818Y-96222192D01*
X109329764Y-96492691D01*
X109302057Y-96774000D01*
X108828890Y-96774000D01*
X108830072Y-96762000D01*
X108830072Y-95262000D01*
X108817812Y-95137518D01*
X108781502Y-95017820D01*
X108722537Y-94907506D01*
X108643185Y-94810815D01*
X108546494Y-94731463D01*
X108436180Y-94672498D01*
X108316482Y-94636188D01*
X108192000Y-94623928D01*
X108121155Y-94623928D01*
X108324886Y-94487799D01*
X108517799Y-94294886D01*
X108669371Y-94068043D01*
X108773775Y-93815989D01*
X108827000Y-93548411D01*
X108827000Y-93330665D01*
X109309000Y-93330665D01*
X109309000Y-93613335D01*
X109364147Y-93890574D01*
X109472320Y-94151727D01*
X109629363Y-94386759D01*
X109829241Y-94586637D01*
X110064273Y-94743680D01*
X110325426Y-94851853D01*
X110602665Y-94907000D01*
X110885335Y-94907000D01*
X111162574Y-94851853D01*
X111423727Y-94743680D01*
X111658759Y-94586637D01*
X111858637Y-94386759D01*
X112015680Y-94151727D01*
X112123853Y-93890574D01*
X112137684Y-93821039D01*
X116972096Y-93821039D01*
X117012754Y-93955087D01*
X117132963Y-94209420D01*
X117300481Y-94435414D01*
X117508869Y-94624385D01*
X117750119Y-94769070D01*
X118014960Y-94863909D01*
X118237000Y-94742624D01*
X118237000Y-93599000D01*
X118491000Y-93599000D01*
X118491000Y-94742624D01*
X118713040Y-94863909D01*
X118977881Y-94769070D01*
X119219131Y-94624385D01*
X119427519Y-94435414D01*
X119595037Y-94209420D01*
X119715246Y-93955087D01*
X119755904Y-93821039D01*
X119633915Y-93599000D01*
X118491000Y-93599000D01*
X118237000Y-93599000D01*
X117094085Y-93599000D01*
X116972096Y-93821039D01*
X112137684Y-93821039D01*
X112179000Y-93613335D01*
X112179000Y-93330665D01*
X112137685Y-93122961D01*
X116972096Y-93122961D01*
X117094085Y-93345000D01*
X118237000Y-93345000D01*
X118237000Y-92201376D01*
X118491000Y-92201376D01*
X118491000Y-93345000D01*
X119633915Y-93345000D01*
X119755904Y-93122961D01*
X119715246Y-92988913D01*
X119595037Y-92734580D01*
X119427519Y-92508586D01*
X119219131Y-92319615D01*
X118977881Y-92174930D01*
X118713040Y-92080091D01*
X118491000Y-92201376D01*
X118237000Y-92201376D01*
X118014960Y-92080091D01*
X117750119Y-92174930D01*
X117508869Y-92319615D01*
X117300481Y-92508586D01*
X117132963Y-92734580D01*
X117012754Y-92988913D01*
X116972096Y-93122961D01*
X112137685Y-93122961D01*
X112123853Y-93053426D01*
X112015680Y-92792273D01*
X111858637Y-92557241D01*
X111658759Y-92357363D01*
X111423727Y-92200320D01*
X111162574Y-92092147D01*
X110885335Y-92037000D01*
X110602665Y-92037000D01*
X110325426Y-92092147D01*
X110064273Y-92200320D01*
X109829241Y-92357363D01*
X109629363Y-92557241D01*
X109472320Y-92792273D01*
X109364147Y-93053426D01*
X109309000Y-93330665D01*
X108827000Y-93330665D01*
X108827000Y-93275589D01*
X108773775Y-93008011D01*
X108669371Y-92755957D01*
X108517799Y-92529114D01*
X108324886Y-92336201D01*
X108098043Y-92184629D01*
X107921345Y-92111439D01*
X108040832Y-92068277D01*
X108153863Y-92007860D01*
X108219388Y-91768993D01*
X107442000Y-90991605D01*
X106664612Y-91768993D01*
X106730137Y-92007860D01*
X106956390Y-92114034D01*
X106785957Y-92184629D01*
X106559114Y-92336201D01*
X106366201Y-92529114D01*
X106214629Y-92755957D01*
X106110225Y-93008011D01*
X106057000Y-93275589D01*
X106057000Y-93548411D01*
X106110225Y-93815989D01*
X106214629Y-94068043D01*
X106366201Y-94294886D01*
X106559114Y-94487799D01*
X106762845Y-94623928D01*
X106692000Y-94623928D01*
X106567518Y-94636188D01*
X106447820Y-94672498D01*
X106337506Y-94731463D01*
X106240815Y-94810815D01*
X106161463Y-94907506D01*
X106102498Y-95017820D01*
X106066188Y-95137518D01*
X106053928Y-95262000D01*
X103769691Y-95262000D01*
X103925101Y-95178932D01*
X104143608Y-94999608D01*
X104322932Y-94781101D01*
X104456182Y-94531808D01*
X104538236Y-94261309D01*
X104565943Y-93980000D01*
X104538236Y-93698691D01*
X104456182Y-93428192D01*
X104322932Y-93178899D01*
X104143608Y-92960392D01*
X103925101Y-92781068D01*
X103675808Y-92647818D01*
X103405309Y-92565764D01*
X103194492Y-92545000D01*
X103053508Y-92545000D01*
X102842691Y-92565764D01*
X102572192Y-92647818D01*
X102322899Y-92781068D01*
X102104392Y-92960392D01*
X101925068Y-93178899D01*
X101791818Y-93428192D01*
X101709764Y-93698691D01*
X101682057Y-93980000D01*
X96939000Y-93980000D01*
X96939000Y-93838665D01*
X96883853Y-93561426D01*
X96775680Y-93300273D01*
X96618637Y-93065241D01*
X96456500Y-92903104D01*
X96456500Y-91754896D01*
X96618637Y-91592759D01*
X96775680Y-91357727D01*
X96883853Y-91096574D01*
X96939000Y-90819335D01*
X96939000Y-90590038D01*
X101705708Y-85823330D01*
X101744147Y-86016574D01*
X101852320Y-86277727D01*
X102009363Y-86512759D01*
X102209241Y-86712637D01*
X102441759Y-86868000D01*
X102209241Y-87023363D01*
X102009363Y-87223241D01*
X101852320Y-87458273D01*
X101744147Y-87719426D01*
X101689000Y-87996665D01*
X101689000Y-88279335D01*
X101744147Y-88556574D01*
X101852320Y-88817727D01*
X102009363Y-89052759D01*
X102209241Y-89252637D01*
X102441759Y-89408000D01*
X102209241Y-89563363D01*
X102009363Y-89763241D01*
X101852320Y-89998273D01*
X101744147Y-90259426D01*
X101689000Y-90536665D01*
X101689000Y-90819335D01*
X101744147Y-91096574D01*
X101852320Y-91357727D01*
X102009363Y-91592759D01*
X102209241Y-91792637D01*
X102444273Y-91949680D01*
X102705426Y-92057853D01*
X102982665Y-92113000D01*
X103265335Y-92113000D01*
X103542574Y-92057853D01*
X103803727Y-91949680D01*
X104038759Y-91792637D01*
X104238637Y-91592759D01*
X104395680Y-91357727D01*
X104503853Y-91096574D01*
X104546039Y-90884492D01*
X106052188Y-90884492D01*
X106093035Y-91154238D01*
X106185723Y-91410832D01*
X106246140Y-91523863D01*
X106485007Y-91589388D01*
X107262395Y-90812000D01*
X107621605Y-90812000D01*
X108398993Y-91589388D01*
X108637860Y-91523863D01*
X108753760Y-91276884D01*
X108819250Y-91012040D01*
X108831812Y-90739508D01*
X108790965Y-90469762D01*
X108698277Y-90213168D01*
X108637860Y-90100137D01*
X108398993Y-90034612D01*
X107621605Y-90812000D01*
X107262395Y-90812000D01*
X106485007Y-90034612D01*
X106246140Y-90100137D01*
X106130240Y-90347116D01*
X106064750Y-90611960D01*
X106052188Y-90884492D01*
X104546039Y-90884492D01*
X104559000Y-90819335D01*
X104559000Y-90536665D01*
X104503853Y-90259426D01*
X104395680Y-89998273D01*
X104238637Y-89763241D01*
X104038759Y-89563363D01*
X103806241Y-89408000D01*
X104038759Y-89252637D01*
X104238637Y-89052759D01*
X104395680Y-88817727D01*
X104503853Y-88556574D01*
X104559000Y-88279335D01*
X104559000Y-87996665D01*
X104503853Y-87719426D01*
X104395680Y-87458273D01*
X104348726Y-87388000D01*
X106053928Y-87388000D01*
X106053928Y-88888000D01*
X106066188Y-89012482D01*
X106102498Y-89132180D01*
X106161463Y-89242494D01*
X106240815Y-89339185D01*
X106337506Y-89418537D01*
X106447820Y-89477502D01*
X106567518Y-89513812D01*
X106692000Y-89526072D01*
X106925253Y-89526072D01*
X106843168Y-89555723D01*
X106730137Y-89616140D01*
X106664612Y-89855007D01*
X107442000Y-90632395D01*
X108219388Y-89855007D01*
X108153863Y-89616140D01*
X107961931Y-89526072D01*
X108192000Y-89526072D01*
X108316482Y-89513812D01*
X108436180Y-89477502D01*
X108546494Y-89418537D01*
X108643185Y-89339185D01*
X108722537Y-89242494D01*
X108781502Y-89132180D01*
X108815366Y-89020544D01*
X113707000Y-89020544D01*
X113707000Y-89287456D01*
X113759072Y-89549239D01*
X113861215Y-89795833D01*
X114009503Y-90017762D01*
X114198238Y-90206497D01*
X114420167Y-90354785D01*
X114666761Y-90456928D01*
X114928544Y-90509000D01*
X115195456Y-90509000D01*
X115457239Y-90456928D01*
X115703833Y-90354785D01*
X115925762Y-90206497D01*
X116114497Y-90017762D01*
X116262785Y-89795833D01*
X116364928Y-89549239D01*
X116417000Y-89287456D01*
X116417000Y-89020544D01*
X116364928Y-88758761D01*
X116262785Y-88512167D01*
X116114497Y-88290238D01*
X115925762Y-88101503D01*
X115703833Y-87953215D01*
X115457239Y-87851072D01*
X115195456Y-87799000D01*
X114928544Y-87799000D01*
X114666761Y-87851072D01*
X114420167Y-87953215D01*
X114198238Y-88101503D01*
X114009503Y-88290238D01*
X113861215Y-88512167D01*
X113759072Y-88758761D01*
X113707000Y-89020544D01*
X108815366Y-89020544D01*
X108817812Y-89012482D01*
X108830072Y-88888000D01*
X108830072Y-87388000D01*
X108817812Y-87263518D01*
X108781502Y-87143820D01*
X108722537Y-87033506D01*
X108643185Y-86936815D01*
X108546494Y-86857463D01*
X108436180Y-86798498D01*
X108316482Y-86762188D01*
X108208517Y-86751555D01*
X108324886Y-86673799D01*
X108517799Y-86480886D01*
X108518027Y-86480544D01*
X116247000Y-86480544D01*
X116247000Y-86747456D01*
X116299072Y-87009239D01*
X116401215Y-87255833D01*
X116549503Y-87477762D01*
X116738238Y-87666497D01*
X116960167Y-87814785D01*
X117206761Y-87916928D01*
X117468544Y-87969000D01*
X117735456Y-87969000D01*
X117997239Y-87916928D01*
X118243833Y-87814785D01*
X118465762Y-87666497D01*
X118654497Y-87477762D01*
X118802785Y-87255833D01*
X118904928Y-87009239D01*
X118957000Y-86747456D01*
X118957000Y-86480544D01*
X118904928Y-86218761D01*
X118802785Y-85972167D01*
X118654497Y-85750238D01*
X118465762Y-85561503D01*
X118243833Y-85413215D01*
X117997239Y-85311072D01*
X117735456Y-85259000D01*
X117468544Y-85259000D01*
X117206761Y-85311072D01*
X116960167Y-85413215D01*
X116738238Y-85561503D01*
X116549503Y-85750238D01*
X116401215Y-85972167D01*
X116299072Y-86218761D01*
X116247000Y-86480544D01*
X108518027Y-86480544D01*
X108669371Y-86254043D01*
X108773775Y-86001989D01*
X108827000Y-85734411D01*
X108827000Y-85461589D01*
X108773775Y-85194011D01*
X108669371Y-84941957D01*
X108517799Y-84715114D01*
X108324886Y-84522201D01*
X108098043Y-84370629D01*
X107998721Y-84329489D01*
X108040832Y-84314277D01*
X108153863Y-84253860D01*
X108219388Y-84014993D01*
X108144939Y-83940544D01*
X113707000Y-83940544D01*
X113707000Y-84207456D01*
X113759072Y-84469239D01*
X113861215Y-84715833D01*
X114009503Y-84937762D01*
X114198238Y-85126497D01*
X114420167Y-85274785D01*
X114666761Y-85376928D01*
X114928544Y-85429000D01*
X115195456Y-85429000D01*
X115457239Y-85376928D01*
X115703833Y-85274785D01*
X115925762Y-85126497D01*
X116114497Y-84937762D01*
X116262785Y-84715833D01*
X116364928Y-84469239D01*
X116417000Y-84207456D01*
X116417000Y-83940544D01*
X116364928Y-83678761D01*
X116262785Y-83432167D01*
X116114497Y-83210238D01*
X115925762Y-83021503D01*
X115703833Y-82873215D01*
X115457239Y-82771072D01*
X115195456Y-82719000D01*
X114928544Y-82719000D01*
X114666761Y-82771072D01*
X114420167Y-82873215D01*
X114198238Y-83021503D01*
X114009503Y-83210238D01*
X113861215Y-83432167D01*
X113759072Y-83678761D01*
X113707000Y-83940544D01*
X108144939Y-83940544D01*
X107442000Y-83237605D01*
X106664612Y-84014993D01*
X106730137Y-84253860D01*
X106888477Y-84328164D01*
X106785957Y-84370629D01*
X106559114Y-84522201D01*
X106366201Y-84715114D01*
X106214629Y-84941957D01*
X106110225Y-85194011D01*
X106057000Y-85461589D01*
X106057000Y-85734411D01*
X106110225Y-86001989D01*
X106214629Y-86254043D01*
X106366201Y-86480886D01*
X106559114Y-86673799D01*
X106675483Y-86751555D01*
X106567518Y-86762188D01*
X106447820Y-86798498D01*
X106337506Y-86857463D01*
X106240815Y-86936815D01*
X106161463Y-87033506D01*
X106102498Y-87143820D01*
X106066188Y-87263518D01*
X106053928Y-87388000D01*
X104348726Y-87388000D01*
X104238637Y-87223241D01*
X104038759Y-87023363D01*
X103806241Y-86868000D01*
X104038759Y-86712637D01*
X104238637Y-86512759D01*
X104395680Y-86277727D01*
X104503853Y-86016574D01*
X104559000Y-85739335D01*
X104559000Y-85456665D01*
X104503853Y-85179426D01*
X104395680Y-84918273D01*
X104238637Y-84683241D01*
X104038759Y-84483363D01*
X103806241Y-84328000D01*
X104038759Y-84172637D01*
X104238637Y-83972759D01*
X104395680Y-83737727D01*
X104503853Y-83476574D01*
X104559000Y-83199335D01*
X104559000Y-83130492D01*
X106052188Y-83130492D01*
X106093035Y-83400238D01*
X106185723Y-83656832D01*
X106246140Y-83769863D01*
X106485007Y-83835388D01*
X107262395Y-83058000D01*
X107621605Y-83058000D01*
X108398993Y-83835388D01*
X108637860Y-83769863D01*
X108753760Y-83522884D01*
X108819250Y-83258040D01*
X108831812Y-82985508D01*
X108790965Y-82715762D01*
X108698277Y-82459168D01*
X108637860Y-82346137D01*
X108398993Y-82280612D01*
X107621605Y-83058000D01*
X107262395Y-83058000D01*
X106485007Y-82280612D01*
X106246140Y-82346137D01*
X106130240Y-82593116D01*
X106064750Y-82857960D01*
X106052188Y-83130492D01*
X104559000Y-83130492D01*
X104559000Y-82970038D01*
X105428031Y-82101007D01*
X106664612Y-82101007D01*
X107442000Y-82878395D01*
X108219388Y-82101007D01*
X108153863Y-81862140D01*
X107906884Y-81746240D01*
X107642040Y-81680750D01*
X107369508Y-81668188D01*
X107099762Y-81709035D01*
X106843168Y-81801723D01*
X106730137Y-81862140D01*
X106664612Y-82101007D01*
X105428031Y-82101007D01*
X106820539Y-80708500D01*
X106875318Y-80708500D01*
X106930392Y-80775608D01*
X107148899Y-80954932D01*
X107398192Y-81088182D01*
X107668691Y-81170236D01*
X107879508Y-81191000D01*
X108020492Y-81191000D01*
X108231309Y-81170236D01*
X108501808Y-81088182D01*
X108751101Y-80954932D01*
X108969608Y-80775608D01*
X109148932Y-80557101D01*
X109282182Y-80307808D01*
X109364236Y-80037309D01*
X109379434Y-79883002D01*
X109474084Y-79883002D01*
X109352096Y-80105039D01*
X109392754Y-80239087D01*
X109512963Y-80493420D01*
X109680481Y-80719414D01*
X109888869Y-80908385D01*
X110130119Y-81053070D01*
X110394960Y-81147909D01*
X110617000Y-81026624D01*
X110617000Y-79883000D01*
X110871000Y-79883000D01*
X110871000Y-81026624D01*
X111093040Y-81147909D01*
X111357881Y-81053070D01*
X111599131Y-80908385D01*
X111807519Y-80719414D01*
X111975037Y-80493420D01*
X112095246Y-80239087D01*
X112135904Y-80105039D01*
X112013915Y-79883000D01*
X110871000Y-79883000D01*
X110617000Y-79883000D01*
X110597000Y-79883000D01*
X110597000Y-79629000D01*
X110617000Y-79629000D01*
X110617000Y-78485376D01*
X110871000Y-78485376D01*
X110871000Y-79629000D01*
X112013915Y-79629000D01*
X112021790Y-79614665D01*
X116929000Y-79614665D01*
X116929000Y-79897335D01*
X116984147Y-80174574D01*
X117092320Y-80435727D01*
X117249363Y-80670759D01*
X117449241Y-80870637D01*
X117684273Y-81027680D01*
X117945426Y-81135853D01*
X118222665Y-81191000D01*
X118505335Y-81191000D01*
X118782574Y-81135853D01*
X119043727Y-81027680D01*
X119278759Y-80870637D01*
X119478637Y-80670759D01*
X119635680Y-80435727D01*
X119743853Y-80174574D01*
X119799000Y-79897335D01*
X119799000Y-79614665D01*
X119743853Y-79337426D01*
X119635680Y-79076273D01*
X119478637Y-78841241D01*
X119278759Y-78641363D01*
X119043727Y-78484320D01*
X118782574Y-78376147D01*
X118505335Y-78321000D01*
X118222665Y-78321000D01*
X117945426Y-78376147D01*
X117684273Y-78484320D01*
X117449241Y-78641363D01*
X117249363Y-78841241D01*
X117092320Y-79076273D01*
X116984147Y-79337426D01*
X116929000Y-79614665D01*
X112021790Y-79614665D01*
X112135904Y-79406961D01*
X112095246Y-79272913D01*
X111975037Y-79018580D01*
X111807519Y-78792586D01*
X111599131Y-78603615D01*
X111357881Y-78458930D01*
X111093040Y-78364091D01*
X110871000Y-78485376D01*
X110617000Y-78485376D01*
X110394960Y-78364091D01*
X110130119Y-78458930D01*
X109888869Y-78603615D01*
X109680481Y-78792586D01*
X109512963Y-79018580D01*
X109392754Y-79272913D01*
X109352096Y-79406961D01*
X109474084Y-79628998D01*
X109379434Y-79628998D01*
X109364236Y-79474691D01*
X109282182Y-79204192D01*
X109148932Y-78954899D01*
X108969608Y-78736392D01*
X108751101Y-78557068D01*
X108501808Y-78423818D01*
X108231309Y-78341764D01*
X108020492Y-78321000D01*
X107879508Y-78321000D01*
X107668691Y-78341764D01*
X107398192Y-78423818D01*
X107148899Y-78557068D01*
X106930392Y-78736392D01*
X106875318Y-78803500D01*
X106472784Y-78803500D01*
X106425999Y-78798892D01*
X106239277Y-78817283D01*
X106059731Y-78871748D01*
X105894259Y-78960194D01*
X105749222Y-79079222D01*
X105719397Y-79115564D01*
X103211962Y-81623000D01*
X102982665Y-81623000D01*
X102705426Y-81678147D01*
X102444273Y-81786320D01*
X102209241Y-81943363D01*
X102009363Y-82143241D01*
X101852320Y-82378273D01*
X101744147Y-82639426D01*
X101689000Y-82916665D01*
X101689000Y-83145962D01*
X96922292Y-87912670D01*
X96883853Y-87719426D01*
X96775680Y-87458273D01*
X96618637Y-87223241D01*
X96418759Y-87023363D01*
X96186241Y-86868000D01*
X96418759Y-86712637D01*
X96618637Y-86512759D01*
X96775680Y-86277727D01*
X96883853Y-86016574D01*
X96939000Y-85739335D01*
X96939000Y-85456665D01*
X96883853Y-85179426D01*
X96775680Y-84918273D01*
X96618637Y-84683241D01*
X96420039Y-84484643D01*
X96428482Y-84483812D01*
X96548180Y-84447502D01*
X96658494Y-84388537D01*
X96755185Y-84309185D01*
X96834537Y-84212494D01*
X96893502Y-84102180D01*
X96929812Y-83982482D01*
X96942072Y-83858000D01*
X96939000Y-83343750D01*
X96780250Y-83185000D01*
X95631000Y-83185000D01*
X95631000Y-83205000D01*
X95377000Y-83205000D01*
X95377000Y-83185000D01*
X94227750Y-83185000D01*
X94069000Y-83343750D01*
X94065928Y-83858000D01*
X94078188Y-83982482D01*
X94114498Y-84102180D01*
X94173463Y-84212494D01*
X94252815Y-84309185D01*
X94349506Y-84388537D01*
X94459820Y-84447502D01*
X94579518Y-84483812D01*
X94587961Y-84484643D01*
X94389363Y-84683241D01*
X94232320Y-84918273D01*
X94124147Y-85179426D01*
X94069000Y-85456665D01*
X94069000Y-85739335D01*
X94124147Y-86016574D01*
X94232320Y-86277727D01*
X94389363Y-86512759D01*
X94589241Y-86712637D01*
X94821759Y-86868000D01*
X94589241Y-87023363D01*
X94389363Y-87223241D01*
X94232320Y-87458273D01*
X94124147Y-87719426D01*
X94069000Y-87996665D01*
X94069000Y-88279335D01*
X94124147Y-88556574D01*
X94232320Y-88817727D01*
X94389363Y-89052759D01*
X94589241Y-89252637D01*
X94821759Y-89408000D01*
X94589241Y-89563363D01*
X94389363Y-89763241D01*
X94232320Y-89998273D01*
X94124147Y-90259426D01*
X94069000Y-90536665D01*
X94069000Y-90819335D01*
X94124147Y-91096574D01*
X94232320Y-91357727D01*
X94389363Y-91592759D01*
X94551500Y-91754896D01*
X94551501Y-92903103D01*
X94389363Y-93065241D01*
X94232320Y-93300273D01*
X94124147Y-93561426D01*
X94069000Y-93838665D01*
X94069000Y-94121335D01*
X94124147Y-94398574D01*
X94232320Y-94659727D01*
X94389363Y-94894759D01*
X94551501Y-95056897D01*
X94551501Y-95113206D01*
X94546892Y-95160000D01*
X94565283Y-95346722D01*
X94594131Y-95441818D01*
X94619749Y-95526269D01*
X94708195Y-95691741D01*
X94827223Y-95836778D01*
X94863564Y-95866602D01*
X97461807Y-98464845D01*
X97440000Y-98574474D01*
X97440000Y-98897526D01*
X97503025Y-99214370D01*
X97626651Y-99512831D01*
X97806129Y-99781439D01*
X98034561Y-100009871D01*
X98303169Y-100189349D01*
X98601630Y-100312975D01*
X98918474Y-100376000D01*
X99241526Y-100376000D01*
X99554672Y-100313710D01*
X101565928Y-102324966D01*
X101565928Y-103616000D01*
X101578188Y-103740482D01*
X101614498Y-103860180D01*
X101673463Y-103970494D01*
X101752815Y-104067185D01*
X101849506Y-104146537D01*
X101922440Y-104185522D01*
X99872462Y-106235500D01*
X97974425Y-106235500D01*
X98080994Y-106178537D01*
X98177685Y-106099185D01*
X98257037Y-106002494D01*
X98316002Y-105892180D01*
X98352312Y-105772482D01*
X98364572Y-105648000D01*
X98364572Y-103648000D01*
X98352312Y-103523518D01*
X98316002Y-103403820D01*
X98257037Y-103293506D01*
X98177685Y-103196815D01*
X98080994Y-103117463D01*
X97970680Y-103058498D01*
X97850982Y-103022188D01*
X97726500Y-103009928D01*
X95821500Y-103009928D01*
X95697018Y-103022188D01*
X95577320Y-103058498D01*
X95467006Y-103117463D01*
X95370315Y-103196815D01*
X95290963Y-103293506D01*
X95246095Y-103377446D01*
X95120235Y-103274155D01*
X94844449Y-103126745D01*
X94545204Y-103035970D01*
X94234000Y-103005319D01*
X93922797Y-103035970D01*
X93623552Y-103126745D01*
X93347766Y-103274155D01*
X93106037Y-103472537D01*
X92958837Y-103651899D01*
X92803437Y-103466685D01*
X92560923Y-103272031D01*
X92285094Y-103128429D01*
X92066980Y-103057437D01*
X91821000Y-103177406D01*
X91821000Y-104521000D01*
X91841000Y-104521000D01*
X91841000Y-104775000D01*
X91821000Y-104775000D01*
X91821000Y-106118594D01*
X92066980Y-106238563D01*
X92285094Y-106167571D01*
X92560923Y-106023969D01*
X92803437Y-105829315D01*
X92958838Y-105644100D01*
X93106037Y-105823463D01*
X93347765Y-106021845D01*
X93623551Y-106169255D01*
X93922796Y-106260030D01*
X94234000Y-106290681D01*
X94545203Y-106260030D01*
X94844448Y-106169255D01*
X95120234Y-106021845D01*
X95246095Y-105918553D01*
X95290963Y-106002494D01*
X95370315Y-106099185D01*
X95467006Y-106178537D01*
X95577320Y-106237502D01*
X95697018Y-106273812D01*
X95821500Y-106286072D01*
X96212000Y-106286072D01*
X96153730Y-106303748D01*
X96070995Y-106347971D01*
X95988259Y-106392194D01*
X95843222Y-106511222D01*
X95813393Y-106547569D01*
X91200032Y-111160930D01*
X90868581Y-111095000D01*
X90487419Y-111095000D01*
X90113581Y-111169361D01*
X89761434Y-111315225D01*
X89444509Y-111526987D01*
X89174987Y-111796509D01*
X88963225Y-112113434D01*
X88817361Y-112465581D01*
X88743000Y-112839419D01*
X88544000Y-112839419D01*
X88544000Y-105021863D01*
X90141622Y-105021863D01*
X90235121Y-105318446D01*
X90384684Y-105591089D01*
X90584563Y-105829315D01*
X90827077Y-106023969D01*
X91102906Y-106167571D01*
X91321020Y-106238563D01*
X91567000Y-106118594D01*
X91567000Y-104775000D01*
X90268430Y-104775000D01*
X90141622Y-105021863D01*
X88544000Y-105021863D01*
X88544000Y-104274137D01*
X90141622Y-104274137D01*
X90268430Y-104521000D01*
X91567000Y-104521000D01*
X91567000Y-103177406D01*
X91321020Y-103057437D01*
X91102906Y-103128429D01*
X90827077Y-103272031D01*
X90584563Y-103466685D01*
X90384684Y-103704911D01*
X90235121Y-103977554D01*
X90141622Y-104274137D01*
X88544000Y-104274137D01*
X88544000Y-100432890D01*
X89236524Y-100432890D01*
X89281175Y-100580099D01*
X89406359Y-100842920D01*
X89580412Y-101076269D01*
X89796645Y-101271178D01*
X90046748Y-101420157D01*
X90321109Y-101517481D01*
X90551000Y-101396814D01*
X90551000Y-100203000D01*
X90805000Y-100203000D01*
X90805000Y-101396814D01*
X91034891Y-101517481D01*
X91309252Y-101420157D01*
X91559355Y-101271178D01*
X91775588Y-101076269D01*
X91949641Y-100842920D01*
X92074825Y-100580099D01*
X92119476Y-100432890D01*
X91998155Y-100203000D01*
X90805000Y-100203000D01*
X90551000Y-100203000D01*
X89357845Y-100203000D01*
X89236524Y-100432890D01*
X88544000Y-100432890D01*
X88544000Y-96686000D01*
X89189928Y-96686000D01*
X89189928Y-98386000D01*
X89202188Y-98510482D01*
X89238498Y-98630180D01*
X89297463Y-98740494D01*
X89376815Y-98837185D01*
X89473506Y-98916537D01*
X89583820Y-98975502D01*
X89664466Y-98999966D01*
X89580412Y-99075731D01*
X89406359Y-99309080D01*
X89281175Y-99571901D01*
X89236524Y-99719110D01*
X89357845Y-99949000D01*
X90551000Y-99949000D01*
X90551000Y-99929000D01*
X90805000Y-99929000D01*
X90805000Y-99949000D01*
X91998155Y-99949000D01*
X92119476Y-99719110D01*
X92074825Y-99571901D01*
X91949641Y-99309080D01*
X91775588Y-99075731D01*
X91691534Y-98999966D01*
X91772180Y-98975502D01*
X91882494Y-98916537D01*
X91979185Y-98837185D01*
X92058537Y-98740494D01*
X92117502Y-98630180D01*
X92153812Y-98510482D01*
X92166072Y-98386000D01*
X92166072Y-97374474D01*
X92340000Y-97374474D01*
X92340000Y-97697526D01*
X92403025Y-98014370D01*
X92526651Y-98312831D01*
X92706129Y-98581439D01*
X92934561Y-98809871D01*
X93203169Y-98989349D01*
X93501630Y-99112975D01*
X93818474Y-99176000D01*
X94141526Y-99176000D01*
X94458370Y-99112975D01*
X94756831Y-98989349D01*
X95025439Y-98809871D01*
X95253871Y-98581439D01*
X95433349Y-98312831D01*
X95556975Y-98014370D01*
X95620000Y-97697526D01*
X95620000Y-97374474D01*
X95556975Y-97057630D01*
X95433349Y-96759169D01*
X95253871Y-96490561D01*
X95025439Y-96262129D01*
X94756831Y-96082651D01*
X94458370Y-95959025D01*
X94141526Y-95896000D01*
X93818474Y-95896000D01*
X93501630Y-95959025D01*
X93203169Y-96082651D01*
X92934561Y-96262129D01*
X92706129Y-96490561D01*
X92526651Y-96759169D01*
X92403025Y-97057630D01*
X92340000Y-97374474D01*
X92166072Y-97374474D01*
X92166072Y-96686000D01*
X92153812Y-96561518D01*
X92117502Y-96441820D01*
X92058537Y-96331506D01*
X91979185Y-96234815D01*
X91882494Y-96155463D01*
X91772180Y-96096498D01*
X91652482Y-96060188D01*
X91528000Y-96047928D01*
X89828000Y-96047928D01*
X89703518Y-96060188D01*
X89583820Y-96096498D01*
X89473506Y-96155463D01*
X89376815Y-96234815D01*
X89297463Y-96331506D01*
X89238498Y-96441820D01*
X89202188Y-96561518D01*
X89189928Y-96686000D01*
X88544000Y-96686000D01*
X88544000Y-94193413D01*
X90230192Y-94193413D01*
X90325956Y-94457814D01*
X90615571Y-94598704D01*
X90927108Y-94680384D01*
X91248595Y-94699718D01*
X91567675Y-94655961D01*
X91872088Y-94550795D01*
X92046044Y-94457814D01*
X92141808Y-94193413D01*
X91186000Y-93237605D01*
X90230192Y-94193413D01*
X88544000Y-94193413D01*
X88544000Y-93120595D01*
X89544282Y-93120595D01*
X89588039Y-93439675D01*
X89693205Y-93744088D01*
X89786186Y-93918044D01*
X90050587Y-94013808D01*
X91006395Y-93058000D01*
X91365605Y-93058000D01*
X92321413Y-94013808D01*
X92585814Y-93918044D01*
X92726704Y-93628429D01*
X92808384Y-93316892D01*
X92827718Y-92995405D01*
X92783961Y-92676325D01*
X92678795Y-92371912D01*
X92585814Y-92197956D01*
X92321413Y-92102192D01*
X91365605Y-93058000D01*
X91006395Y-93058000D01*
X90050587Y-92102192D01*
X89786186Y-92197956D01*
X89645296Y-92487571D01*
X89563616Y-92799108D01*
X89544282Y-93120595D01*
X88544000Y-93120595D01*
X88544000Y-91922587D01*
X90230192Y-91922587D01*
X91186000Y-92878395D01*
X92141808Y-91922587D01*
X92046044Y-91658186D01*
X91756429Y-91517296D01*
X91444892Y-91435616D01*
X91123405Y-91416282D01*
X90804325Y-91460039D01*
X90499912Y-91565205D01*
X90325956Y-91658186D01*
X90230192Y-91922587D01*
X88544000Y-91922587D01*
X88544000Y-82896967D01*
X89551000Y-82896967D01*
X89551000Y-83219033D01*
X89613832Y-83534912D01*
X89737082Y-83832463D01*
X89916013Y-84100252D01*
X90143748Y-84327987D01*
X90411537Y-84506918D01*
X90709088Y-84630168D01*
X91024967Y-84693000D01*
X91347033Y-84693000D01*
X91662912Y-84630168D01*
X91960463Y-84506918D01*
X92228252Y-84327987D01*
X92455987Y-84100252D01*
X92634918Y-83832463D01*
X92758168Y-83534912D01*
X92821000Y-83219033D01*
X92821000Y-82896967D01*
X92758168Y-82581088D01*
X92634918Y-82283537D01*
X92617855Y-82258000D01*
X94065928Y-82258000D01*
X94069000Y-82772250D01*
X94227750Y-82931000D01*
X95377000Y-82931000D01*
X95377000Y-81781750D01*
X95631000Y-81781750D01*
X95631000Y-82931000D01*
X96780250Y-82931000D01*
X96939000Y-82772250D01*
X96942072Y-82258000D01*
X96929812Y-82133518D01*
X96893502Y-82013820D01*
X96834537Y-81903506D01*
X96755185Y-81806815D01*
X96658494Y-81727463D01*
X96548180Y-81668498D01*
X96428482Y-81632188D01*
X96304000Y-81619928D01*
X95789750Y-81623000D01*
X95631000Y-81781750D01*
X95377000Y-81781750D01*
X95218250Y-81623000D01*
X94704000Y-81619928D01*
X94579518Y-81632188D01*
X94459820Y-81668498D01*
X94349506Y-81727463D01*
X94252815Y-81806815D01*
X94173463Y-81903506D01*
X94114498Y-82013820D01*
X94078188Y-82133518D01*
X94065928Y-82258000D01*
X92617855Y-82258000D01*
X92455987Y-82015748D01*
X92228252Y-81788013D01*
X91960463Y-81609082D01*
X91662912Y-81485832D01*
X91347033Y-81423000D01*
X91024967Y-81423000D01*
X90709088Y-81485832D01*
X90411537Y-81609082D01*
X90143748Y-81788013D01*
X89916013Y-82015748D01*
X89737082Y-82283537D01*
X89613832Y-82581088D01*
X89551000Y-82896967D01*
X88544000Y-82896967D01*
X88544000Y-79614665D01*
X88989000Y-79614665D01*
X88989000Y-79897335D01*
X89044147Y-80174574D01*
X89152320Y-80435727D01*
X89309363Y-80670759D01*
X89509241Y-80870637D01*
X89744273Y-81027680D01*
X90005426Y-81135853D01*
X90282665Y-81191000D01*
X90565335Y-81191000D01*
X90842574Y-81135853D01*
X91103727Y-81027680D01*
X91338759Y-80870637D01*
X91538637Y-80670759D01*
X91695680Y-80435727D01*
X91803853Y-80174574D01*
X91859000Y-79897335D01*
X91859000Y-79756000D01*
X96602057Y-79756000D01*
X96629764Y-80037309D01*
X96711818Y-80307808D01*
X96845068Y-80557101D01*
X97024392Y-80775608D01*
X97242899Y-80954932D01*
X97492192Y-81088182D01*
X97762691Y-81170236D01*
X97973508Y-81191000D01*
X98114492Y-81191000D01*
X98325309Y-81170236D01*
X98595808Y-81088182D01*
X98845101Y-80954932D01*
X99063608Y-80775608D01*
X99185874Y-80626626D01*
X99215363Y-80670759D01*
X99415241Y-80870637D01*
X99650273Y-81027680D01*
X99911426Y-81135853D01*
X100188665Y-81191000D01*
X100471335Y-81191000D01*
X100748574Y-81135853D01*
X101009727Y-81027680D01*
X101244759Y-80870637D01*
X101444637Y-80670759D01*
X101601680Y-80435727D01*
X101709853Y-80174574D01*
X101765000Y-79897335D01*
X101765000Y-79614665D01*
X101709853Y-79337426D01*
X101601680Y-79076273D01*
X101444637Y-78841241D01*
X101244759Y-78641363D01*
X101009727Y-78484320D01*
X100748574Y-78376147D01*
X100471335Y-78321000D01*
X100188665Y-78321000D01*
X99911426Y-78376147D01*
X99650273Y-78484320D01*
X99415241Y-78641363D01*
X99215363Y-78841241D01*
X99185874Y-78885374D01*
X99063608Y-78736392D01*
X98845101Y-78557068D01*
X98595808Y-78423818D01*
X98325309Y-78341764D01*
X98114492Y-78321000D01*
X97973508Y-78321000D01*
X97762691Y-78341764D01*
X97492192Y-78423818D01*
X97242899Y-78557068D01*
X97024392Y-78736392D01*
X96845068Y-78954899D01*
X96711818Y-79204192D01*
X96629764Y-79474691D01*
X96602057Y-79756000D01*
X91859000Y-79756000D01*
X91859000Y-79614665D01*
X91803853Y-79337426D01*
X91695680Y-79076273D01*
X91538637Y-78841241D01*
X91338759Y-78641363D01*
X91103727Y-78484320D01*
X90842574Y-78376147D01*
X90565335Y-78321000D01*
X90282665Y-78321000D01*
X90005426Y-78376147D01*
X89744273Y-78484320D01*
X89509241Y-78641363D01*
X89309363Y-78841241D01*
X89152320Y-79076273D01*
X89044147Y-79337426D01*
X88989000Y-79614665D01*
X88544000Y-79614665D01*
X88544000Y-78130000D01*
X120244000Y-78130000D01*
X120244001Y-117450000D01*
M02*
