G04 #@! TF.GenerationSoftware,KiCad,Pcbnew,(5.1.0)-1*
G04 #@! TF.CreationDate,2021-08-07T23:55:13-05:00*
G04 #@! TF.ProjectId,nixie_legacy-power,6e697869-655f-46c6-9567-6163792d706f,rev?*
G04 #@! TF.SameCoordinates,Original*
G04 #@! TF.FileFunction,Legend,Bot*
G04 #@! TF.FilePolarity,Positive*
%FSLAX46Y46*%
G04 Gerber Fmt 4.6, Leading zero omitted, Abs format (unit mm)*
G04 Created by KiCad (PCBNEW (5.1.0)-1) date 2021-08-07 23:55:13*
%MOMM*%
%LPD*%
G04 APERTURE LIST*
%ADD10C,0.150000*%
%ADD11C,0.500000*%
G04 APERTURE END LIST*
D10*
X116476261Y-110007380D02*
X116238166Y-111007380D01*
X116047690Y-110293095D01*
X115857214Y-111007380D01*
X115619119Y-110007380D01*
X115285785Y-110721666D02*
X114809595Y-110721666D01*
X115381023Y-111007380D02*
X115047690Y-110007380D01*
X114714357Y-111007380D01*
X113809595Y-111007380D02*
X114142928Y-110531190D01*
X114381023Y-111007380D02*
X114381023Y-110007380D01*
X114000071Y-110007380D01*
X113904833Y-110055000D01*
X113857214Y-110102619D01*
X113809595Y-110197857D01*
X113809595Y-110340714D01*
X113857214Y-110435952D01*
X113904833Y-110483571D01*
X114000071Y-110531190D01*
X114381023Y-110531190D01*
X113381023Y-111007380D02*
X113381023Y-110007380D01*
X112809595Y-111007380D01*
X112809595Y-110007380D01*
X112333404Y-111007380D02*
X112333404Y-110007380D01*
X111857214Y-111007380D02*
X111857214Y-110007380D01*
X111285785Y-111007380D01*
X111285785Y-110007380D01*
X110285785Y-110055000D02*
X110381023Y-110007380D01*
X110523880Y-110007380D01*
X110666738Y-110055000D01*
X110761976Y-110150238D01*
X110809595Y-110245476D01*
X110857214Y-110435952D01*
X110857214Y-110578809D01*
X110809595Y-110769285D01*
X110761976Y-110864523D01*
X110666738Y-110959761D01*
X110523880Y-111007380D01*
X110428642Y-111007380D01*
X110285785Y-110959761D01*
X110238166Y-110912142D01*
X110238166Y-110578809D01*
X110428642Y-110578809D01*
X109809595Y-110912142D02*
X109761976Y-110959761D01*
X109809595Y-111007380D01*
X109857214Y-110959761D01*
X109809595Y-110912142D01*
X109809595Y-111007380D01*
X109809595Y-110388333D02*
X109761976Y-110435952D01*
X109809595Y-110483571D01*
X109857214Y-110435952D01*
X109809595Y-110388333D01*
X109809595Y-110483571D01*
X118952452Y-115957380D02*
X118952452Y-114957380D01*
X118952452Y-115433571D02*
X118381023Y-115433571D01*
X118381023Y-115957380D02*
X118381023Y-114957380D01*
X117904833Y-115957380D02*
X117904833Y-115290714D01*
X117904833Y-114957380D02*
X117952452Y-115005000D01*
X117904833Y-115052619D01*
X117857214Y-115005000D01*
X117904833Y-114957380D01*
X117904833Y-115052619D01*
X117000071Y-115290714D02*
X117000071Y-116100238D01*
X117047690Y-116195476D01*
X117095309Y-116243095D01*
X117190547Y-116290714D01*
X117333404Y-116290714D01*
X117428642Y-116243095D01*
X117000071Y-115909761D02*
X117095309Y-115957380D01*
X117285785Y-115957380D01*
X117381023Y-115909761D01*
X117428642Y-115862142D01*
X117476261Y-115766904D01*
X117476261Y-115481190D01*
X117428642Y-115385952D01*
X117381023Y-115338333D01*
X117285785Y-115290714D01*
X117095309Y-115290714D01*
X117000071Y-115338333D01*
X116523880Y-115957380D02*
X116523880Y-114957380D01*
X116095309Y-115957380D02*
X116095309Y-115433571D01*
X116142928Y-115338333D01*
X116238166Y-115290714D01*
X116381023Y-115290714D01*
X116476261Y-115338333D01*
X116523880Y-115385952D01*
X115000071Y-114957380D02*
X114666738Y-115957380D01*
X114333404Y-114957380D01*
X113857214Y-115957380D02*
X113952452Y-115909761D01*
X114000071Y-115862142D01*
X114047690Y-115766904D01*
X114047690Y-115481190D01*
X114000071Y-115385952D01*
X113952452Y-115338333D01*
X113857214Y-115290714D01*
X113714357Y-115290714D01*
X113619119Y-115338333D01*
X113571500Y-115385952D01*
X113523880Y-115481190D01*
X113523880Y-115766904D01*
X113571500Y-115862142D01*
X113619119Y-115909761D01*
X113714357Y-115957380D01*
X113857214Y-115957380D01*
X112952452Y-115957380D02*
X113047690Y-115909761D01*
X113095309Y-115814523D01*
X113095309Y-114957380D01*
X112714357Y-115290714D02*
X112333404Y-115290714D01*
X112571500Y-114957380D02*
X112571500Y-115814523D01*
X112523880Y-115909761D01*
X112428642Y-115957380D01*
X112333404Y-115957380D01*
X111571500Y-115957380D02*
X111571500Y-115433571D01*
X111619119Y-115338333D01*
X111714357Y-115290714D01*
X111904833Y-115290714D01*
X112000071Y-115338333D01*
X111571500Y-115909761D02*
X111666738Y-115957380D01*
X111904833Y-115957380D01*
X112000071Y-115909761D01*
X112047690Y-115814523D01*
X112047690Y-115719285D01*
X112000071Y-115624047D01*
X111904833Y-115576428D01*
X111666738Y-115576428D01*
X111571500Y-115528809D01*
X110666738Y-115290714D02*
X110666738Y-116100238D01*
X110714357Y-116195476D01*
X110761976Y-116243095D01*
X110857214Y-116290714D01*
X111000071Y-116290714D01*
X111095309Y-116243095D01*
X110666738Y-115909761D02*
X110761976Y-115957380D01*
X110952452Y-115957380D01*
X111047690Y-115909761D01*
X111095309Y-115862142D01*
X111142928Y-115766904D01*
X111142928Y-115481190D01*
X111095309Y-115385952D01*
X111047690Y-115338333D01*
X110952452Y-115290714D01*
X110761976Y-115290714D01*
X110666738Y-115338333D01*
X109809595Y-115909761D02*
X109904833Y-115957380D01*
X110095309Y-115957380D01*
X110190547Y-115909761D01*
X110238166Y-115814523D01*
X110238166Y-115433571D01*
X110190547Y-115338333D01*
X110095309Y-115290714D01*
X109904833Y-115290714D01*
X109809595Y-115338333D01*
X109761976Y-115433571D01*
X109761976Y-115528809D01*
X110238166Y-115624047D01*
D11*
X108966000Y-109220000D02*
X88138000Y-109220000D01*
X112776000Y-105410000D02*
X108966000Y-109220000D01*
X120650000Y-105410000D02*
X112776000Y-105410000D01*
M02*
