G04 #@! TF.GenerationSoftware,KiCad,Pcbnew,(5.1.0)-1*
G04 #@! TF.CreationDate,2021-08-12T02:51:48-05:00*
G04 #@! TF.ProjectId,nixie_legacy-power,6e697869-655f-46c6-9567-6163792d706f,rev?*
G04 #@! TF.SameCoordinates,Original*
G04 #@! TF.FileFunction,Other,Fab,Top*
%FSLAX46Y46*%
G04 Gerber Fmt 4.6, Leading zero omitted, Abs format (unit mm)*
G04 Created by KiCad (PCBNEW (5.1.0)-1) date 2021-08-12 02:51:48*
%MOMM*%
%LPD*%
G04 APERTURE LIST*
%ADD10C,0.025400*%
%ADD11C,0.100000*%
%ADD12C,0.150000*%
%ADD13C,0.120000*%
%ADD14C,0.102000*%
%ADD15C,0.114000*%
G04 APERTURE END LIST*
D10*
X106044000Y-100374000D02*
G75*
G03X106044000Y-100374000I-1650000J0D01*
G01*
D11*
X87884000Y-77470000D02*
X120904000Y-77470000D01*
X87884000Y-118110000D02*
X87884000Y-77470000D01*
X120904000Y-118110000D02*
X87884000Y-118110000D01*
X120904000Y-77470000D02*
X120904000Y-118110000D01*
D12*
X109196000Y-89588000D02*
X109196000Y-94188000D01*
X105696000Y-93088000D02*
G75*
G03X109196000Y-94188000I2300000J1200000D01*
G01*
X109196000Y-89588000D02*
G75*
G03X105696000Y-90688000I-1200000J-2300000D01*
G01*
X105396000Y-91888000D02*
G75*
G03X107996000Y-94488000I2600000J0D01*
G01*
X107996000Y-89288000D02*
G75*
G03X105396000Y-91888000I0J-2600000D01*
G01*
D11*
X97314000Y-115784000D02*
G75*
G03X97314000Y-115784000I-4350000J0D01*
G01*
X98584000Y-92472000D02*
X98584000Y-94472000D01*
X98584000Y-94472000D02*
X102584000Y-94472000D01*
X102584000Y-94472000D02*
X102584000Y-92472000D01*
X102584000Y-92472000D02*
X98584000Y-92472000D01*
X96774000Y-93472000D02*
X98584000Y-93472000D01*
X104394000Y-93472000D02*
X102584000Y-93472000D01*
X99184000Y-92472000D02*
X99184000Y-94472000D01*
X99284000Y-92472000D02*
X99284000Y-94472000D01*
X99084000Y-92472000D02*
X99084000Y-94472000D01*
X94488000Y-96266000D02*
X94488000Y-98806000D01*
X95838000Y-98806000D02*
G75*
G03X95838000Y-98806000I-1350000J0D01*
G01*
X105766000Y-110062000D02*
X101366000Y-110062000D01*
X101366000Y-110062000D02*
X101366000Y-120062000D01*
X101366000Y-120062000D02*
X105766000Y-120062000D01*
X105766000Y-120062000D02*
X105766000Y-110062000D01*
X104496000Y-110062000D02*
X104496000Y-120062000D01*
X105766000Y-113212000D02*
X104496000Y-113212000D01*
X105766000Y-116912000D02*
X104496000Y-116912000D01*
X98432000Y-105918000D02*
G75*
G03X98432000Y-105918000I-5000000J0D01*
G01*
X89143139Y-103730500D02*
X90143139Y-103730500D01*
X89643139Y-103230500D02*
X89643139Y-104230500D01*
X110671028Y-111087500D02*
X110671028Y-111717500D01*
X110356028Y-111402500D02*
X110986028Y-111402500D01*
X116200000Y-112776000D02*
G75*
G03X116200000Y-112776000I-3150000J0D01*
G01*
X99314000Y-110998000D02*
X99314000Y-111658000D01*
X99314000Y-118618000D02*
X99314000Y-117958000D01*
X98064000Y-111658000D02*
X98064000Y-117958000D01*
X100564000Y-111658000D02*
X98064000Y-111658000D01*
X100564000Y-117958000D02*
X100564000Y-111658000D01*
X98064000Y-117958000D02*
X100564000Y-117958000D01*
X113172000Y-119714000D02*
X113172000Y-117014000D01*
X112972000Y-119714000D02*
X112972000Y-117014000D01*
X113072000Y-119714000D02*
X113072000Y-117014000D01*
X107442000Y-118364000D02*
X108652000Y-118364000D01*
X115062000Y-118364000D02*
X113852000Y-118364000D01*
X108652000Y-119714000D02*
X113852000Y-119714000D01*
X108652000Y-117014000D02*
X108652000Y-119714000D01*
X113852000Y-117014000D02*
X108652000Y-117014000D01*
X113852000Y-119714000D02*
X113852000Y-117014000D01*
X118364000Y-118618000D02*
X118364000Y-117958000D01*
X118364000Y-110998000D02*
X118364000Y-111658000D01*
X119614000Y-117958000D02*
X119614000Y-111658000D01*
X117114000Y-117958000D02*
X119614000Y-117958000D01*
X117114000Y-111658000D02*
X117114000Y-117958000D01*
X119614000Y-111658000D02*
X117114000Y-111658000D01*
X113284000Y-107950000D02*
X113284000Y-107290000D01*
X113284000Y-100330000D02*
X113284000Y-100990000D01*
X114534000Y-107290000D02*
X114534000Y-100990000D01*
X112034000Y-107290000D02*
X114534000Y-107290000D01*
X112034000Y-100990000D02*
X112034000Y-107290000D01*
X114534000Y-100990000D02*
X112034000Y-100990000D01*
X117094000Y-102235000D02*
X117729000Y-101600000D01*
X117094000Y-109220000D02*
X117094000Y-102235000D01*
X119634000Y-109220000D02*
X117094000Y-109220000D01*
X119634000Y-101600000D02*
X119634000Y-109220000D01*
X117729000Y-101600000D02*
X119634000Y-101600000D01*
X88900000Y-96139000D02*
X89535000Y-95504000D01*
X88900000Y-100584000D02*
X88900000Y-96139000D01*
X91440000Y-100584000D02*
X88900000Y-100584000D01*
X91440000Y-95504000D02*
X91440000Y-100584000D01*
X89535000Y-95504000D02*
X91440000Y-95504000D01*
X108746000Y-113988000D02*
X108746000Y-110588000D01*
X106646000Y-113988000D02*
X108746000Y-113988000D01*
X106646000Y-110588000D02*
X106646000Y-113988000D01*
X108746000Y-110588000D02*
X106646000Y-110588000D01*
X101426000Y-108930000D02*
X111426000Y-108930000D01*
X101426000Y-104430000D02*
X111426000Y-104430000D01*
X101426000Y-104430000D02*
X101426000Y-108930000D01*
X111426000Y-108930000D02*
X111426000Y-104430000D01*
X101436000Y-105380000D02*
X111426000Y-105380000D01*
X115214000Y-100868000D02*
X119014000Y-100868000D01*
X115214000Y-98268000D02*
X115214000Y-100868000D01*
X119014000Y-98268000D02*
X115214000Y-98268000D01*
X119014000Y-100868000D02*
X119014000Y-98268000D01*
X108682000Y-98918000D02*
X108682000Y-102718000D01*
X111282000Y-98918000D02*
X108682000Y-98918000D01*
X111282000Y-102718000D02*
X111282000Y-98918000D01*
X108682000Y-102718000D02*
X111282000Y-102718000D01*
X104676000Y-83350000D02*
X104676000Y-86850000D01*
X104672375Y-86843625D02*
G75*
G03X108906000Y-85090000I1753625J1753625D01*
G01*
X104672375Y-83336375D02*
G75*
G02X108906000Y-85090000I1753625J-1753625D01*
G01*
X96054000Y-82018000D02*
X96054000Y-91698000D01*
X102554000Y-82018000D02*
X102554000Y-91698000D01*
X96054000Y-82018000D02*
X102554000Y-82018000D01*
X96054000Y-91698000D02*
X102554000Y-91698000D01*
X114171000Y-88174000D02*
X114172000Y-85055000D01*
X114171000Y-88174000D02*
X114172000Y-85055000D01*
X119812000Y-81849000D02*
X110282000Y-81849000D01*
X119812000Y-91379000D02*
X119812000Y-81849000D01*
X110282000Y-91379000D02*
X119812000Y-91379000D01*
X110282000Y-81849000D02*
X110282000Y-91379000D01*
X115746000Y-86614000D02*
G75*
G03X115746000Y-86614000I-1575000J0D01*
G01*
X110744000Y-79756000D02*
X111404000Y-79756000D01*
X118364000Y-79756000D02*
X117704000Y-79756000D01*
X111404000Y-81006000D02*
X117704000Y-81006000D01*
X111404000Y-78506000D02*
X111404000Y-81006000D01*
X117704000Y-78506000D02*
X111404000Y-78506000D01*
X117704000Y-81006000D02*
X117704000Y-78506000D01*
X118364000Y-93472000D02*
X117704000Y-93472000D01*
X110744000Y-93472000D02*
X111404000Y-93472000D01*
X117704000Y-92222000D02*
X111404000Y-92222000D01*
X117704000Y-94722000D02*
X117704000Y-92222000D01*
X111404000Y-94722000D02*
X117704000Y-94722000D01*
X111404000Y-92222000D02*
X111404000Y-94722000D01*
X107950000Y-79756000D02*
X107290000Y-79756000D01*
X100330000Y-79756000D02*
X100990000Y-79756000D01*
X107290000Y-78506000D02*
X100990000Y-78506000D01*
X107290000Y-81006000D02*
X107290000Y-78506000D01*
X100990000Y-81006000D02*
X107290000Y-81006000D01*
X100990000Y-78506000D02*
X100990000Y-81006000D01*
X98044000Y-79756000D02*
X97384000Y-79756000D01*
X90424000Y-79756000D02*
X91084000Y-79756000D01*
X97384000Y-78506000D02*
X91084000Y-78506000D01*
X97384000Y-81006000D02*
X97384000Y-78506000D01*
X91084000Y-81006000D02*
X97384000Y-81006000D01*
X91084000Y-78506000D02*
X91084000Y-81006000D01*
X117704000Y-97770000D02*
X117704000Y-95270000D01*
X117704000Y-95270000D02*
X111404000Y-95270000D01*
X111404000Y-95270000D02*
X111404000Y-97770000D01*
X111404000Y-97770000D02*
X117704000Y-97770000D01*
X118364000Y-96520000D02*
X117704000Y-96520000D01*
X110744000Y-96520000D02*
X111404000Y-96520000D01*
X100214000Y-95012000D02*
X97214000Y-95012000D01*
X97214000Y-95012000D02*
X97214000Y-102112000D01*
X97214000Y-102112000D02*
X100214000Y-102112000D01*
X100214000Y-102112000D02*
X100214000Y-95012000D01*
X93686000Y-94308000D02*
X93686000Y-81808000D01*
X88686000Y-94308000D02*
X93686000Y-94308000D01*
X88686000Y-81808000D02*
X88686000Y-94308000D01*
X93686000Y-81808000D02*
X88686000Y-81808000D01*
D12*
X110648380Y-96126095D02*
X109648380Y-96126095D01*
X110362666Y-95792761D01*
X109648380Y-95459428D01*
X110648380Y-95459428D01*
X110648380Y-94983238D02*
X109648380Y-94983238D01*
X109648380Y-94602285D01*
X109696000Y-94507047D01*
X109743619Y-94459428D01*
X109838857Y-94411809D01*
X109981714Y-94411809D01*
X110076952Y-94459428D01*
X110124571Y-94507047D01*
X110172190Y-94602285D01*
X110172190Y-94983238D01*
X110600761Y-94030857D02*
X110648380Y-93888000D01*
X110648380Y-93649904D01*
X110600761Y-93554666D01*
X110553142Y-93507047D01*
X110457904Y-93459428D01*
X110362666Y-93459428D01*
X110267428Y-93507047D01*
X110219809Y-93554666D01*
X110172190Y-93649904D01*
X110124571Y-93840380D01*
X110076952Y-93935619D01*
X110029333Y-93983238D01*
X109934095Y-94030857D01*
X109838857Y-94030857D01*
X109743619Y-93983238D01*
X109696000Y-93935619D01*
X109648380Y-93840380D01*
X109648380Y-93602285D01*
X109696000Y-93459428D01*
X110362666Y-93078476D02*
X110362666Y-92602285D01*
X110648380Y-93173714D02*
X109648380Y-92840380D01*
X110648380Y-92507047D01*
X109648380Y-91697523D02*
X109648380Y-92173714D01*
X110124571Y-92221333D01*
X110076952Y-92173714D01*
X110029333Y-92078476D01*
X110029333Y-91840380D01*
X110076952Y-91745142D01*
X110124571Y-91697523D01*
X110219809Y-91649904D01*
X110457904Y-91649904D01*
X110553142Y-91697523D01*
X110600761Y-91745142D01*
X110648380Y-91840380D01*
X110648380Y-92078476D01*
X110600761Y-92173714D01*
X110553142Y-92221333D01*
X109648380Y-90792761D02*
X109648380Y-90983238D01*
X109696000Y-91078476D01*
X109743619Y-91126095D01*
X109886476Y-91221333D01*
X110076952Y-91268952D01*
X110457904Y-91268952D01*
X110553142Y-91221333D01*
X110600761Y-91173714D01*
X110648380Y-91078476D01*
X110648380Y-90888000D01*
X110600761Y-90792761D01*
X110553142Y-90745142D01*
X110457904Y-90697523D01*
X110219809Y-90697523D01*
X110124571Y-90745142D01*
X110076952Y-90792761D01*
X110029333Y-90888000D01*
X110029333Y-91078476D01*
X110076952Y-91173714D01*
X110124571Y-91221333D01*
X110219809Y-91268952D01*
X110267428Y-90268952D02*
X110267428Y-89507047D01*
X110362666Y-89078476D02*
X110362666Y-88602285D01*
X110648380Y-89173714D02*
X109648380Y-88840380D01*
X110648380Y-88507047D01*
X110648380Y-88173714D02*
X109648380Y-88173714D01*
X109648380Y-87792761D01*
X109696000Y-87697523D01*
X109743619Y-87649904D01*
X109838857Y-87602285D01*
X109981714Y-87602285D01*
X110076952Y-87649904D01*
X110124571Y-87697523D01*
X110172190Y-87792761D01*
X110172190Y-88173714D01*
X106785285Y-93905857D02*
X106035285Y-93905857D01*
X106571000Y-93655857D01*
X106035285Y-93405857D01*
X106785285Y-93405857D01*
X106785285Y-93048714D02*
X106035285Y-93048714D01*
X106035285Y-92763000D01*
X106071000Y-92691571D01*
X106106714Y-92655857D01*
X106178142Y-92620142D01*
X106285285Y-92620142D01*
X106356714Y-92655857D01*
X106392428Y-92691571D01*
X106428142Y-92763000D01*
X106428142Y-93048714D01*
X106749571Y-92334428D02*
X106785285Y-92227285D01*
X106785285Y-92048714D01*
X106749571Y-91977285D01*
X106713857Y-91941571D01*
X106642428Y-91905857D01*
X106571000Y-91905857D01*
X106499571Y-91941571D01*
X106463857Y-91977285D01*
X106428142Y-92048714D01*
X106392428Y-92191571D01*
X106356714Y-92263000D01*
X106321000Y-92298714D01*
X106249571Y-92334428D01*
X106178142Y-92334428D01*
X106106714Y-92298714D01*
X106071000Y-92263000D01*
X106035285Y-92191571D01*
X106035285Y-92013000D01*
X106071000Y-91905857D01*
X106571000Y-91620142D02*
X106571000Y-91263000D01*
X106785285Y-91691571D02*
X106035285Y-91441571D01*
X106785285Y-91191571D01*
X106035285Y-90584428D02*
X106035285Y-90941571D01*
X106392428Y-90977285D01*
X106356714Y-90941571D01*
X106321000Y-90870142D01*
X106321000Y-90691571D01*
X106356714Y-90620142D01*
X106392428Y-90584428D01*
X106463857Y-90548714D01*
X106642428Y-90548714D01*
X106713857Y-90584428D01*
X106749571Y-90620142D01*
X106785285Y-90691571D01*
X106785285Y-90870142D01*
X106749571Y-90941571D01*
X106713857Y-90977285D01*
X106035285Y-89905857D02*
X106035285Y-90048714D01*
X106071000Y-90120142D01*
X106106714Y-90155857D01*
X106213857Y-90227285D01*
X106356714Y-90263000D01*
X106642428Y-90263000D01*
X106713857Y-90227285D01*
X106749571Y-90191571D01*
X106785285Y-90120142D01*
X106785285Y-89977285D01*
X106749571Y-89905857D01*
X106713857Y-89870142D01*
X106642428Y-89834428D01*
X106463857Y-89834428D01*
X106392428Y-89870142D01*
X106356714Y-89905857D01*
X106321000Y-89977285D01*
X106321000Y-90120142D01*
X106356714Y-90191571D01*
X106392428Y-90227285D01*
X106463857Y-90263000D01*
X87816380Y-116903047D02*
X87816380Y-117474476D01*
X87816380Y-117188761D02*
X86816380Y-117188761D01*
X86959238Y-117284000D01*
X87054476Y-117379238D01*
X87102095Y-117474476D01*
X86816380Y-116284000D02*
X86816380Y-116188761D01*
X86864000Y-116093523D01*
X86911619Y-116045904D01*
X87006857Y-115998285D01*
X87197333Y-115950666D01*
X87435428Y-115950666D01*
X87625904Y-115998285D01*
X87721142Y-116045904D01*
X87768761Y-116093523D01*
X87816380Y-116188761D01*
X87816380Y-116284000D01*
X87768761Y-116379238D01*
X87721142Y-116426857D01*
X87625904Y-116474476D01*
X87435428Y-116522095D01*
X87197333Y-116522095D01*
X87006857Y-116474476D01*
X86911619Y-116426857D01*
X86864000Y-116379238D01*
X86816380Y-116284000D01*
X86816380Y-115331619D02*
X86816380Y-115236380D01*
X86864000Y-115141142D01*
X86911619Y-115093523D01*
X87006857Y-115045904D01*
X87197333Y-114998285D01*
X87435428Y-114998285D01*
X87625904Y-115045904D01*
X87721142Y-115093523D01*
X87768761Y-115141142D01*
X87816380Y-115236380D01*
X87816380Y-115331619D01*
X87768761Y-115426857D01*
X87721142Y-115474476D01*
X87625904Y-115522095D01*
X87435428Y-115569714D01*
X87197333Y-115569714D01*
X87006857Y-115522095D01*
X86911619Y-115474476D01*
X86864000Y-115426857D01*
X86816380Y-115331619D01*
X87149714Y-114141142D02*
X87816380Y-114141142D01*
X87149714Y-114569714D02*
X87673523Y-114569714D01*
X87768761Y-114522095D01*
X87816380Y-114426857D01*
X87816380Y-114284000D01*
X87768761Y-114188761D01*
X87721142Y-114141142D01*
X93416380Y-117426857D02*
X93416380Y-117998285D01*
X93416380Y-117712571D02*
X92416380Y-117712571D01*
X92559238Y-117807809D01*
X92654476Y-117903047D01*
X92702095Y-117998285D01*
X92416380Y-116807809D02*
X92416380Y-116712571D01*
X92464000Y-116617333D01*
X92511619Y-116569714D01*
X92606857Y-116522095D01*
X92797333Y-116474476D01*
X93035428Y-116474476D01*
X93225904Y-116522095D01*
X93321142Y-116569714D01*
X93368761Y-116617333D01*
X93416380Y-116712571D01*
X93416380Y-116807809D01*
X93368761Y-116903047D01*
X93321142Y-116950666D01*
X93225904Y-116998285D01*
X93035428Y-117045904D01*
X92797333Y-117045904D01*
X92606857Y-116998285D01*
X92511619Y-116950666D01*
X92464000Y-116903047D01*
X92416380Y-116807809D01*
X92416380Y-115855428D02*
X92416380Y-115760190D01*
X92464000Y-115664952D01*
X92511619Y-115617333D01*
X92606857Y-115569714D01*
X92797333Y-115522095D01*
X93035428Y-115522095D01*
X93225904Y-115569714D01*
X93321142Y-115617333D01*
X93368761Y-115664952D01*
X93416380Y-115760190D01*
X93416380Y-115855428D01*
X93368761Y-115950666D01*
X93321142Y-115998285D01*
X93225904Y-116045904D01*
X93035428Y-116093523D01*
X92797333Y-116093523D01*
X92606857Y-116045904D01*
X92511619Y-115998285D01*
X92464000Y-115950666D01*
X92416380Y-115855428D01*
X92749714Y-114664952D02*
X93416380Y-114664952D01*
X92749714Y-115093523D02*
X93273523Y-115093523D01*
X93368761Y-115045904D01*
X93416380Y-114950666D01*
X93416380Y-114807809D01*
X93368761Y-114712571D01*
X93321142Y-114664952D01*
X93416380Y-114188761D02*
X92416380Y-114188761D01*
X92892571Y-114188761D02*
X92892571Y-113617333D01*
X93416380Y-113617333D02*
X92416380Y-113617333D01*
X98726857Y-96394380D02*
X98726857Y-95394380D01*
X98964952Y-95394380D01*
X99107809Y-95442000D01*
X99203047Y-95537238D01*
X99250666Y-95632476D01*
X99298285Y-95822952D01*
X99298285Y-95965809D01*
X99250666Y-96156285D01*
X99203047Y-96251523D01*
X99107809Y-96346761D01*
X98964952Y-96394380D01*
X98726857Y-96394380D01*
X99488761Y-96489619D02*
X100250666Y-96489619D01*
X100441142Y-96108666D02*
X100917333Y-96108666D01*
X100345904Y-96394380D02*
X100679238Y-95394380D01*
X101012571Y-96394380D01*
X101822095Y-96394380D02*
X101345904Y-96394380D01*
X101345904Y-95394380D01*
X102012571Y-95394380D02*
X102584000Y-95394380D01*
X102298285Y-96394380D02*
X102298285Y-95394380D01*
X100235904Y-93924380D02*
X100235904Y-92924380D01*
X100474000Y-92924380D01*
X100616857Y-92972000D01*
X100712095Y-93067238D01*
X100759714Y-93162476D01*
X100807333Y-93352952D01*
X100807333Y-93495809D01*
X100759714Y-93686285D01*
X100712095Y-93781523D01*
X100616857Y-93876761D01*
X100474000Y-93924380D01*
X100235904Y-93924380D01*
X101759714Y-93924380D02*
X101188285Y-93924380D01*
X101474000Y-93924380D02*
X101474000Y-92924380D01*
X101378761Y-93067238D01*
X101283523Y-93162476D01*
X101188285Y-93210095D01*
X96512095Y-92124380D02*
X96512095Y-91124380D01*
X97083523Y-92124380D02*
X96654952Y-91552952D01*
X97083523Y-91124380D02*
X96512095Y-91695809D01*
X96512095Y-91824380D02*
X96512095Y-90824380D01*
X97083523Y-91824380D02*
X96654952Y-91252952D01*
X97083523Y-90824380D02*
X96512095Y-91395809D01*
X91300745Y-97797904D02*
X90300745Y-97797904D01*
X90300745Y-97559809D01*
X90348365Y-97416952D01*
X90443603Y-97321714D01*
X90538841Y-97274095D01*
X90729317Y-97226476D01*
X90872174Y-97226476D01*
X91062650Y-97274095D01*
X91157888Y-97321714D01*
X91253126Y-97416952D01*
X91300745Y-97559809D01*
X91300745Y-97797904D01*
X94940380Y-94427904D02*
X93940380Y-94427904D01*
X94940380Y-93856476D02*
X94368952Y-94285047D01*
X93940380Y-93856476D02*
X94511809Y-94427904D01*
X97691015Y-99036000D02*
X96691015Y-99036000D01*
X96691015Y-98797904D01*
X96738635Y-98655047D01*
X96833873Y-98559809D01*
X96929111Y-98512190D01*
X97119587Y-98464571D01*
X97262444Y-98464571D01*
X97452920Y-98512190D01*
X97548158Y-98559809D01*
X97643396Y-98655047D01*
X97691015Y-98797904D01*
X97691015Y-99036000D01*
X97310063Y-98036000D02*
X97310063Y-97274095D01*
X97024349Y-96797904D02*
X97310063Y-96036000D01*
X97595777Y-96797904D01*
X100568380Y-117419142D02*
X99568380Y-117419142D01*
X100568380Y-116371523D02*
X100092190Y-116704857D01*
X100568380Y-116942952D02*
X99568380Y-116942952D01*
X99568380Y-116562000D01*
X99616000Y-116466761D01*
X99663619Y-116419142D01*
X99758857Y-116371523D01*
X99901714Y-116371523D01*
X99996952Y-116419142D01*
X100044571Y-116466761D01*
X100092190Y-116562000D01*
X100092190Y-116942952D01*
X100044571Y-115609619D02*
X100044571Y-115942952D01*
X100568380Y-115942952D02*
X99568380Y-115942952D01*
X99568380Y-115466761D01*
X99568380Y-115181047D02*
X99568380Y-114514380D01*
X100568380Y-114942952D01*
X99901714Y-113704857D02*
X100568380Y-113704857D01*
X99520761Y-113942952D02*
X100235047Y-114181047D01*
X100235047Y-113562000D01*
X99568380Y-112990571D02*
X99568380Y-112895333D01*
X99616000Y-112800095D01*
X99663619Y-112752476D01*
X99758857Y-112704857D01*
X99949333Y-112657238D01*
X100187428Y-112657238D01*
X100377904Y-112704857D01*
X100473142Y-112752476D01*
X100520761Y-112800095D01*
X100568380Y-112895333D01*
X100568380Y-112990571D01*
X100520761Y-113085809D01*
X100473142Y-113133428D01*
X100377904Y-113181047D01*
X100187428Y-113228666D01*
X99949333Y-113228666D01*
X99758857Y-113181047D01*
X99663619Y-113133428D01*
X99616000Y-113085809D01*
X99568380Y-112990571D01*
X107338380Y-117419142D02*
X106338380Y-117419142D01*
X107338380Y-116371523D02*
X106862190Y-116704857D01*
X107338380Y-116942952D02*
X106338380Y-116942952D01*
X106338380Y-116562000D01*
X106386000Y-116466761D01*
X106433619Y-116419142D01*
X106528857Y-116371523D01*
X106671714Y-116371523D01*
X106766952Y-116419142D01*
X106814571Y-116466761D01*
X106862190Y-116562000D01*
X106862190Y-116942952D01*
X106814571Y-115609619D02*
X106814571Y-115942952D01*
X107338380Y-115942952D02*
X106338380Y-115942952D01*
X106338380Y-115466761D01*
X106338380Y-115181047D02*
X106338380Y-114514380D01*
X107338380Y-114942952D01*
X106671714Y-113704857D02*
X107338380Y-113704857D01*
X106290761Y-113942952D02*
X107005047Y-114181047D01*
X107005047Y-113562000D01*
X106338380Y-112990571D02*
X106338380Y-112895333D01*
X106386000Y-112800095D01*
X106433619Y-112752476D01*
X106528857Y-112704857D01*
X106719333Y-112657238D01*
X106957428Y-112657238D01*
X107147904Y-112704857D01*
X107243142Y-112752476D01*
X107290761Y-112800095D01*
X107338380Y-112895333D01*
X107338380Y-112990571D01*
X107290761Y-113085809D01*
X107243142Y-113133428D01*
X107147904Y-113181047D01*
X106957428Y-113228666D01*
X106719333Y-113228666D01*
X106528857Y-113181047D01*
X106433619Y-113133428D01*
X106386000Y-113085809D01*
X106338380Y-112990571D01*
X92217714Y-111953714D02*
X92217714Y-112620380D01*
X91979619Y-111572761D02*
X91741523Y-112287047D01*
X92360571Y-112287047D01*
X92646285Y-111620380D02*
X93312952Y-111620380D01*
X92884380Y-112620380D01*
X93884380Y-111620380D02*
X93979619Y-111620380D01*
X94074857Y-111668000D01*
X94122476Y-111715619D01*
X94170095Y-111810857D01*
X94217714Y-112001333D01*
X94217714Y-112239428D01*
X94170095Y-112429904D01*
X94122476Y-112525142D01*
X94074857Y-112572761D01*
X93979619Y-112620380D01*
X93884380Y-112620380D01*
X93789142Y-112572761D01*
X93741523Y-112525142D01*
X93693904Y-112429904D01*
X93646285Y-112239428D01*
X93646285Y-112001333D01*
X93693904Y-111810857D01*
X93741523Y-111715619D01*
X93789142Y-111668000D01*
X93884380Y-111620380D01*
X95074857Y-111953714D02*
X95074857Y-112620380D01*
X94646285Y-111953714D02*
X94646285Y-112477523D01*
X94693904Y-112572761D01*
X94789142Y-112620380D01*
X94932000Y-112620380D01*
X95027238Y-112572761D01*
X95074857Y-112525142D01*
X91789142Y-105703714D02*
X91789142Y-106370380D01*
X91551047Y-105322761D02*
X91312952Y-106037047D01*
X91932000Y-106037047D01*
X92217714Y-105370380D02*
X92884380Y-105370380D01*
X92455809Y-106370380D01*
X93455809Y-105370380D02*
X93551047Y-105370380D01*
X93646285Y-105418000D01*
X93693904Y-105465619D01*
X93741523Y-105560857D01*
X93789142Y-105751333D01*
X93789142Y-105989428D01*
X93741523Y-106179904D01*
X93693904Y-106275142D01*
X93646285Y-106322761D01*
X93551047Y-106370380D01*
X93455809Y-106370380D01*
X93360571Y-106322761D01*
X93312952Y-106275142D01*
X93265333Y-106179904D01*
X93217714Y-105989428D01*
X93217714Y-105751333D01*
X93265333Y-105560857D01*
X93312952Y-105465619D01*
X93360571Y-105418000D01*
X93455809Y-105370380D01*
X94646285Y-105703714D02*
X94646285Y-106370380D01*
X94217714Y-105703714D02*
X94217714Y-106227523D01*
X94265333Y-106322761D01*
X94360571Y-106370380D01*
X94503428Y-106370380D01*
X94598666Y-106322761D01*
X94646285Y-106275142D01*
X95455809Y-105846571D02*
X95122476Y-105846571D01*
X95122476Y-106370380D02*
X95122476Y-105370380D01*
X95598666Y-105370380D01*
X112883333Y-117628380D02*
X112311904Y-117628380D01*
X112597619Y-117628380D02*
X112597619Y-116628380D01*
X112502380Y-116771238D01*
X112407142Y-116866476D01*
X112311904Y-116914095D01*
X113740476Y-116961714D02*
X113740476Y-117628380D01*
X113311904Y-116961714D02*
X113311904Y-117485523D01*
X113359523Y-117580761D01*
X113454761Y-117628380D01*
X113597619Y-117628380D01*
X113692857Y-117580761D01*
X113740476Y-117533142D01*
X112883333Y-113133142D02*
X112835714Y-113180761D01*
X112692857Y-113228380D01*
X112597619Y-113228380D01*
X112454761Y-113180761D01*
X112359523Y-113085523D01*
X112311904Y-112990285D01*
X112264285Y-112799809D01*
X112264285Y-112656952D01*
X112311904Y-112466476D01*
X112359523Y-112371238D01*
X112454761Y-112276000D01*
X112597619Y-112228380D01*
X112692857Y-112228380D01*
X112835714Y-112276000D01*
X112883333Y-112323619D01*
X113740476Y-112561714D02*
X113740476Y-113228380D01*
X113502380Y-112180761D02*
X113264285Y-112895047D01*
X113883333Y-112895047D01*
X102136380Y-114927047D02*
X102136380Y-115498476D01*
X102136380Y-115212761D02*
X101136380Y-115212761D01*
X101279238Y-115308000D01*
X101374476Y-115403238D01*
X101422095Y-115498476D01*
X102136380Y-114498476D02*
X101136380Y-114498476D01*
X101755428Y-114403238D02*
X102136380Y-114117523D01*
X101469714Y-114117523D02*
X101850666Y-114498476D01*
X99766380Y-115760380D02*
X99290190Y-116093714D01*
X99766380Y-116331809D02*
X98766380Y-116331809D01*
X98766380Y-115950857D01*
X98814000Y-115855619D01*
X98861619Y-115808000D01*
X98956857Y-115760380D01*
X99099714Y-115760380D01*
X99194952Y-115808000D01*
X99242571Y-115855619D01*
X99290190Y-115950857D01*
X99290190Y-116331809D01*
X99766380Y-114046095D02*
X99766380Y-114617523D01*
X99766380Y-114331809D02*
X98766380Y-114331809D01*
X98909238Y-114427047D01*
X99004476Y-114522285D01*
X99052095Y-114617523D01*
X99766380Y-113617523D02*
X98766380Y-113617523D01*
X99385428Y-113522285D02*
X99766380Y-113236571D01*
X99099714Y-113236571D02*
X99480666Y-113617523D01*
X110990095Y-116696380D02*
X110990095Y-115696380D01*
X111228190Y-115696380D01*
X111371047Y-115744000D01*
X111466285Y-115839238D01*
X111513904Y-115934476D01*
X111561523Y-116124952D01*
X111561523Y-116267809D01*
X111513904Y-116458285D01*
X111466285Y-116553523D01*
X111371047Y-116648761D01*
X111228190Y-116696380D01*
X110990095Y-116696380D01*
X114800095Y-120616380D02*
X114800095Y-119616380D01*
X115371523Y-120616380D02*
X114942952Y-120044952D01*
X115371523Y-119616380D02*
X114800095Y-120187809D01*
X114800095Y-120916380D02*
X114800095Y-119916380D01*
X115371523Y-120916380D02*
X114942952Y-120344952D01*
X115371523Y-119916380D02*
X114800095Y-120487809D01*
D13*
X110361523Y-118725904D02*
X110361523Y-117925904D01*
X110552000Y-117925904D01*
X110666285Y-117964000D01*
X110742476Y-118040190D01*
X110780571Y-118116380D01*
X110818666Y-118268761D01*
X110818666Y-118383047D01*
X110780571Y-118535428D01*
X110742476Y-118611619D01*
X110666285Y-118687809D01*
X110552000Y-118725904D01*
X110361523Y-118725904D01*
X111123428Y-118002095D02*
X111161523Y-117964000D01*
X111237714Y-117925904D01*
X111428190Y-117925904D01*
X111504380Y-117964000D01*
X111542476Y-118002095D01*
X111580571Y-118078285D01*
X111580571Y-118154476D01*
X111542476Y-118268761D01*
X111085333Y-118725904D01*
X111580571Y-118725904D01*
D12*
X115779714Y-115736571D02*
X116446380Y-115736571D01*
X115398761Y-115974666D02*
X116113047Y-116212761D01*
X116113047Y-115593714D01*
X116351142Y-115212761D02*
X116398761Y-115165142D01*
X116446380Y-115212761D01*
X116398761Y-115260380D01*
X116351142Y-115212761D01*
X116446380Y-115212761D01*
X115446380Y-114831809D02*
X115446380Y-114165142D01*
X116446380Y-114593714D01*
X116446380Y-113784190D02*
X115446380Y-113784190D01*
X116065428Y-113688952D02*
X116446380Y-113403238D01*
X115779714Y-113403238D02*
X116160666Y-113784190D01*
X118816380Y-116236571D02*
X118340190Y-116569904D01*
X118816380Y-116808000D02*
X117816380Y-116808000D01*
X117816380Y-116427047D01*
X117864000Y-116331809D01*
X117911619Y-116284190D01*
X118006857Y-116236571D01*
X118149714Y-116236571D01*
X118244952Y-116284190D01*
X118292571Y-116331809D01*
X118340190Y-116427047D01*
X118340190Y-116808000D01*
X118149714Y-114617523D02*
X118816380Y-114617523D01*
X117768761Y-114855619D02*
X118483047Y-115093714D01*
X118483047Y-114474666D01*
X118816380Y-114093714D02*
X117816380Y-114093714D01*
X118435428Y-113998476D02*
X118816380Y-113712761D01*
X118149714Y-113712761D02*
X118530666Y-114093714D01*
X117816380Y-113379428D02*
X117816380Y-112712761D01*
X118816380Y-113141333D01*
X110461619Y-105782857D02*
X110414000Y-105735238D01*
X110366380Y-105640000D01*
X110366380Y-105401904D01*
X110414000Y-105306666D01*
X110461619Y-105259047D01*
X110556857Y-105211428D01*
X110652095Y-105211428D01*
X110794952Y-105259047D01*
X111366380Y-105830476D01*
X111366380Y-105211428D01*
X110461619Y-104830476D02*
X110414000Y-104782857D01*
X110366380Y-104687619D01*
X110366380Y-104449523D01*
X110414000Y-104354285D01*
X110461619Y-104306666D01*
X110556857Y-104259047D01*
X110652095Y-104259047D01*
X110794952Y-104306666D01*
X111366380Y-104878095D01*
X111366380Y-104259047D01*
X110366380Y-103640000D02*
X110366380Y-103544761D01*
X110414000Y-103449523D01*
X110461619Y-103401904D01*
X110556857Y-103354285D01*
X110747333Y-103306666D01*
X110985428Y-103306666D01*
X111175904Y-103354285D01*
X111271142Y-103401904D01*
X111318761Y-103449523D01*
X111366380Y-103544761D01*
X111366380Y-103640000D01*
X111318761Y-103735238D01*
X111271142Y-103782857D01*
X111175904Y-103830476D01*
X110985428Y-103878095D01*
X110747333Y-103878095D01*
X110556857Y-103830476D01*
X110461619Y-103782857D01*
X110414000Y-103735238D01*
X110366380Y-103640000D01*
X111366380Y-102878095D02*
X110366380Y-102878095D01*
X110985428Y-102782857D02*
X111366380Y-102497142D01*
X110699714Y-102497142D02*
X111080666Y-102878095D01*
X113736380Y-106044761D02*
X113260190Y-106378095D01*
X113736380Y-106616190D02*
X112736380Y-106616190D01*
X112736380Y-106235238D01*
X112784000Y-106140000D01*
X112831619Y-106092380D01*
X112926857Y-106044761D01*
X113069714Y-106044761D01*
X113164952Y-106092380D01*
X113212571Y-106140000D01*
X113260190Y-106235238D01*
X113260190Y-106616190D01*
X112831619Y-104901904D02*
X112784000Y-104854285D01*
X112736380Y-104759047D01*
X112736380Y-104520952D01*
X112784000Y-104425714D01*
X112831619Y-104378095D01*
X112926857Y-104330476D01*
X113022095Y-104330476D01*
X113164952Y-104378095D01*
X113736380Y-104949523D01*
X113736380Y-104330476D01*
X112831619Y-103949523D02*
X112784000Y-103901904D01*
X112736380Y-103806666D01*
X112736380Y-103568571D01*
X112784000Y-103473333D01*
X112831619Y-103425714D01*
X112926857Y-103378095D01*
X113022095Y-103378095D01*
X113164952Y-103425714D01*
X113736380Y-103997142D01*
X113736380Y-103378095D01*
X112736380Y-102759047D02*
X112736380Y-102663809D01*
X112784000Y-102568571D01*
X112831619Y-102520952D01*
X112926857Y-102473333D01*
X113117333Y-102425714D01*
X113355428Y-102425714D01*
X113545904Y-102473333D01*
X113641142Y-102520952D01*
X113688761Y-102568571D01*
X113736380Y-102663809D01*
X113736380Y-102759047D01*
X113688761Y-102854285D01*
X113641142Y-102901904D01*
X113545904Y-102949523D01*
X113355428Y-102997142D01*
X113117333Y-102997142D01*
X112926857Y-102949523D01*
X112831619Y-102901904D01*
X112784000Y-102854285D01*
X112736380Y-102759047D01*
X113736380Y-101997142D02*
X112736380Y-101997142D01*
X113355428Y-101901904D02*
X113736380Y-101616190D01*
X113069714Y-101616190D02*
X113450666Y-101997142D01*
X114887809Y-110732380D02*
X114887809Y-109732380D01*
X114887809Y-110208571D02*
X115459238Y-110208571D01*
X115459238Y-110732380D02*
X115459238Y-109732380D01*
X115935428Y-110208571D02*
X116268761Y-110208571D01*
X116411619Y-110732380D02*
X115935428Y-110732380D01*
X115935428Y-109732380D01*
X116411619Y-109732380D01*
X116792571Y-110446666D02*
X117268761Y-110446666D01*
X116697333Y-110732380D02*
X117030666Y-109732380D01*
X117364000Y-110732380D01*
X117697333Y-110732380D02*
X117697333Y-109732380D01*
X117935428Y-109732380D01*
X118078285Y-109780000D01*
X118173523Y-109875238D01*
X118221142Y-109970476D01*
X118268761Y-110160952D01*
X118268761Y-110303809D01*
X118221142Y-110494285D01*
X118173523Y-110589523D01*
X118078285Y-110684761D01*
X117935428Y-110732380D01*
X117697333Y-110732380D01*
X118697333Y-110208571D02*
X119030666Y-110208571D01*
X119173523Y-110732380D02*
X118697333Y-110732380D01*
X118697333Y-109732380D01*
X119173523Y-109732380D01*
X120173523Y-110732380D02*
X119840190Y-110256190D01*
X119602095Y-110732380D02*
X119602095Y-109732380D01*
X119983047Y-109732380D01*
X120078285Y-109780000D01*
X120125904Y-109827619D01*
X120173523Y-109922857D01*
X120173523Y-110065714D01*
X120125904Y-110160952D01*
X120078285Y-110208571D01*
X119983047Y-110256190D01*
X119602095Y-110256190D01*
X120364000Y-110827619D02*
X121125904Y-110827619D01*
X121268761Y-109732380D02*
X121887809Y-109732380D01*
X121554476Y-110113333D01*
X121697333Y-110113333D01*
X121792571Y-110160952D01*
X121840190Y-110208571D01*
X121887809Y-110303809D01*
X121887809Y-110541904D01*
X121840190Y-110637142D01*
X121792571Y-110684761D01*
X121697333Y-110732380D01*
X121411619Y-110732380D01*
X121316380Y-110684761D01*
X121268761Y-110637142D01*
X117816380Y-108243333D02*
X117816380Y-108052857D01*
X117864000Y-107957619D01*
X117959238Y-107862380D01*
X118149714Y-107814761D01*
X118483047Y-107814761D01*
X118673523Y-107862380D01*
X118768761Y-107957619D01*
X118816380Y-108052857D01*
X118816380Y-108243333D01*
X118768761Y-108338571D01*
X118673523Y-108433809D01*
X118483047Y-108481428D01*
X118149714Y-108481428D01*
X117959238Y-108433809D01*
X117864000Y-108338571D01*
X117816380Y-108243333D01*
X118149714Y-106957619D02*
X118816380Y-106957619D01*
X118149714Y-107386190D02*
X118673523Y-107386190D01*
X118768761Y-107338571D01*
X118816380Y-107243333D01*
X118816380Y-107100476D01*
X118768761Y-107005238D01*
X118721142Y-106957619D01*
X118149714Y-106624285D02*
X118149714Y-106243333D01*
X117816380Y-106481428D02*
X118673523Y-106481428D01*
X118768761Y-106433809D01*
X118816380Y-106338571D01*
X118816380Y-106243333D01*
X118768761Y-105862380D02*
X118816380Y-105862380D01*
X118911619Y-105910000D01*
X118959238Y-105957619D01*
X117864000Y-104910000D02*
X117816380Y-105005238D01*
X117816380Y-105148095D01*
X117864000Y-105290952D01*
X117959238Y-105386190D01*
X118054476Y-105433809D01*
X118244952Y-105481428D01*
X118387809Y-105481428D01*
X118578285Y-105433809D01*
X118673523Y-105386190D01*
X118768761Y-105290952D01*
X118816380Y-105148095D01*
X118816380Y-105052857D01*
X118768761Y-104910000D01*
X118721142Y-104862380D01*
X118387809Y-104862380D01*
X118387809Y-105052857D01*
X118816380Y-104433809D02*
X117816380Y-104433809D01*
X118816380Y-103862380D01*
X117816380Y-103862380D01*
X118816380Y-103386190D02*
X117816380Y-103386190D01*
X117816380Y-103148095D01*
X117864000Y-103005238D01*
X117959238Y-102910000D01*
X118054476Y-102862380D01*
X118244952Y-102814761D01*
X118387809Y-102814761D01*
X118578285Y-102862380D01*
X118673523Y-102910000D01*
X118768761Y-103005238D01*
X118816380Y-103148095D01*
X118816380Y-103386190D01*
X118768761Y-102338571D02*
X118816380Y-102338571D01*
X118911619Y-102386190D01*
X118959238Y-102433809D01*
X86431904Y-101572571D02*
X86574761Y-101620190D01*
X86622380Y-101667809D01*
X86670000Y-101763047D01*
X86670000Y-101905904D01*
X86622380Y-102001142D01*
X86574761Y-102048761D01*
X86479523Y-102096380D01*
X86098571Y-102096380D01*
X86098571Y-101096380D01*
X86431904Y-101096380D01*
X86527142Y-101144000D01*
X86574761Y-101191619D01*
X86622380Y-101286857D01*
X86622380Y-101382095D01*
X86574761Y-101477333D01*
X86527142Y-101524952D01*
X86431904Y-101572571D01*
X86098571Y-101572571D01*
X87527142Y-102096380D02*
X87527142Y-101572571D01*
X87479523Y-101477333D01*
X87384285Y-101429714D01*
X87193809Y-101429714D01*
X87098571Y-101477333D01*
X87527142Y-102048761D02*
X87431904Y-102096380D01*
X87193809Y-102096380D01*
X87098571Y-102048761D01*
X87050952Y-101953523D01*
X87050952Y-101858285D01*
X87098571Y-101763047D01*
X87193809Y-101715428D01*
X87431904Y-101715428D01*
X87527142Y-101667809D01*
X88003333Y-102096380D02*
X88003333Y-101429714D01*
X88003333Y-101620190D02*
X88050952Y-101524952D01*
X88098571Y-101477333D01*
X88193809Y-101429714D01*
X88289047Y-101429714D01*
X88622380Y-102096380D02*
X88622380Y-101429714D01*
X88622380Y-101620190D02*
X88670000Y-101524952D01*
X88717619Y-101477333D01*
X88812857Y-101429714D01*
X88908095Y-101429714D01*
X89622380Y-102048761D02*
X89527142Y-102096380D01*
X89336666Y-102096380D01*
X89241428Y-102048761D01*
X89193809Y-101953523D01*
X89193809Y-101572571D01*
X89241428Y-101477333D01*
X89336666Y-101429714D01*
X89527142Y-101429714D01*
X89622380Y-101477333D01*
X89670000Y-101572571D01*
X89670000Y-101667809D01*
X89193809Y-101763047D01*
X90241428Y-102096380D02*
X90146190Y-102048761D01*
X90098571Y-101953523D01*
X90098571Y-101096380D01*
X90384285Y-102191619D02*
X91146190Y-102191619D01*
X91670000Y-101096380D02*
X91670000Y-101810666D01*
X91622380Y-101953523D01*
X91527142Y-102048761D01*
X91384285Y-102096380D01*
X91289047Y-102096380D01*
X92574761Y-102096380D02*
X92574761Y-101572571D01*
X92527142Y-101477333D01*
X92431904Y-101429714D01*
X92241428Y-101429714D01*
X92146190Y-101477333D01*
X92574761Y-102048761D02*
X92479523Y-102096380D01*
X92241428Y-102096380D01*
X92146190Y-102048761D01*
X92098571Y-101953523D01*
X92098571Y-101858285D01*
X92146190Y-101763047D01*
X92241428Y-101715428D01*
X92479523Y-101715428D01*
X92574761Y-101667809D01*
X93479523Y-102048761D02*
X93384285Y-102096380D01*
X93193809Y-102096380D01*
X93098571Y-102048761D01*
X93050952Y-102001142D01*
X93003333Y-101905904D01*
X93003333Y-101620190D01*
X93050952Y-101524952D01*
X93098571Y-101477333D01*
X93193809Y-101429714D01*
X93384285Y-101429714D01*
X93479523Y-101477333D01*
X93908095Y-102096380D02*
X93908095Y-101096380D01*
X94003333Y-101715428D02*
X94289047Y-102096380D01*
X94289047Y-101429714D02*
X93908095Y-101810666D01*
X90622380Y-99234476D02*
X90622380Y-99044000D01*
X90574761Y-98948761D01*
X90527142Y-98901142D01*
X90384285Y-98805904D01*
X90193809Y-98758285D01*
X89812857Y-98758285D01*
X89717619Y-98805904D01*
X89670000Y-98853523D01*
X89622380Y-98948761D01*
X89622380Y-99139238D01*
X89670000Y-99234476D01*
X89717619Y-99282095D01*
X89812857Y-99329714D01*
X90050952Y-99329714D01*
X90146190Y-99282095D01*
X90193809Y-99234476D01*
X90241428Y-99139238D01*
X90241428Y-98948761D01*
X90193809Y-98853523D01*
X90146190Y-98805904D01*
X90050952Y-98758285D01*
X89955714Y-98424952D02*
X90622380Y-98186857D01*
X89955714Y-97948761D01*
X90241428Y-97567809D02*
X90241428Y-96805904D01*
X90622380Y-97186857D02*
X89860476Y-97186857D01*
X105181714Y-113026095D02*
X105848380Y-113026095D01*
X104800761Y-113264190D02*
X105515047Y-113502285D01*
X105515047Y-112883238D01*
X104848380Y-112597523D02*
X104848380Y-111930857D01*
X105848380Y-112359428D01*
X105181714Y-111549904D02*
X106181714Y-111549904D01*
X105229333Y-111549904D02*
X105181714Y-111454666D01*
X105181714Y-111264190D01*
X105229333Y-111168952D01*
X105276952Y-111121333D01*
X105372190Y-111073714D01*
X105657904Y-111073714D01*
X105753142Y-111121333D01*
X105800761Y-111168952D01*
X105848380Y-111264190D01*
X105848380Y-111454666D01*
X105800761Y-111549904D01*
D14*
X107550285Y-113081333D02*
X108003619Y-113081333D01*
X107291238Y-113243238D02*
X107776952Y-113405142D01*
X107776952Y-112984190D01*
X107323619Y-112789904D02*
X107323619Y-112336571D01*
X108003619Y-112628000D01*
X107550285Y-112077523D02*
X108230285Y-112077523D01*
X107582666Y-112077523D02*
X107550285Y-112012761D01*
X107550285Y-111883238D01*
X107582666Y-111818476D01*
X107615047Y-111786095D01*
X107679809Y-111753714D01*
X107874095Y-111753714D01*
X107938857Y-111786095D01*
X107971238Y-111818476D01*
X108003619Y-111883238D01*
X108003619Y-112012761D01*
X107971238Y-112077523D01*
X107647428Y-111235619D02*
X107647428Y-111462285D01*
X108003619Y-111462285D02*
X107323619Y-111462285D01*
X107323619Y-111138476D01*
D12*
X100917904Y-110762380D02*
X100917904Y-109762380D01*
X101251238Y-110476666D01*
X101584571Y-109762380D01*
X101584571Y-110762380D01*
X102632190Y-110667142D02*
X102584571Y-110714761D01*
X102441714Y-110762380D01*
X102346476Y-110762380D01*
X102203619Y-110714761D01*
X102108380Y-110619523D01*
X102060761Y-110524285D01*
X102013142Y-110333809D01*
X102013142Y-110190952D01*
X102060761Y-110000476D01*
X102108380Y-109905238D01*
X102203619Y-109810000D01*
X102346476Y-109762380D01*
X102441714Y-109762380D01*
X102584571Y-109810000D01*
X102632190Y-109857619D01*
X102965523Y-109762380D02*
X103632190Y-109762380D01*
X103203619Y-110762380D01*
X104156000Y-110190952D02*
X104060761Y-110143333D01*
X104013142Y-110095714D01*
X103965523Y-110000476D01*
X103965523Y-109952857D01*
X104013142Y-109857619D01*
X104060761Y-109810000D01*
X104156000Y-109762380D01*
X104346476Y-109762380D01*
X104441714Y-109810000D01*
X104489333Y-109857619D01*
X104536952Y-109952857D01*
X104536952Y-110000476D01*
X104489333Y-110095714D01*
X104441714Y-110143333D01*
X104346476Y-110190952D01*
X104156000Y-110190952D01*
X104060761Y-110238571D01*
X104013142Y-110286190D01*
X103965523Y-110381428D01*
X103965523Y-110571904D01*
X104013142Y-110667142D01*
X104060761Y-110714761D01*
X104156000Y-110762380D01*
X104346476Y-110762380D01*
X104441714Y-110714761D01*
X104489333Y-110667142D01*
X104536952Y-110571904D01*
X104536952Y-110381428D01*
X104489333Y-110286190D01*
X104441714Y-110238571D01*
X104346476Y-110190952D01*
X105156000Y-109762380D02*
X105251238Y-109762380D01*
X105346476Y-109810000D01*
X105394095Y-109857619D01*
X105441714Y-109952857D01*
X105489333Y-110143333D01*
X105489333Y-110381428D01*
X105441714Y-110571904D01*
X105394095Y-110667142D01*
X105346476Y-110714761D01*
X105251238Y-110762380D01*
X105156000Y-110762380D01*
X105060761Y-110714761D01*
X105013142Y-110667142D01*
X104965523Y-110571904D01*
X104917904Y-110381428D01*
X104917904Y-110143333D01*
X104965523Y-109952857D01*
X105013142Y-109857619D01*
X105060761Y-109810000D01*
X105156000Y-109762380D01*
X106394095Y-109762380D02*
X105917904Y-109762380D01*
X105870285Y-110238571D01*
X105917904Y-110190952D01*
X106013142Y-110143333D01*
X106251238Y-110143333D01*
X106346476Y-110190952D01*
X106394095Y-110238571D01*
X106441714Y-110333809D01*
X106441714Y-110571904D01*
X106394095Y-110667142D01*
X106346476Y-110714761D01*
X106251238Y-110762380D01*
X106013142Y-110762380D01*
X105917904Y-110714761D01*
X105870285Y-110667142D01*
X107441714Y-110667142D02*
X107394095Y-110714761D01*
X107251238Y-110762380D01*
X107156000Y-110762380D01*
X107013142Y-110714761D01*
X106917904Y-110619523D01*
X106870285Y-110524285D01*
X106822666Y-110333809D01*
X106822666Y-110190952D01*
X106870285Y-110000476D01*
X106917904Y-109905238D01*
X107013142Y-109810000D01*
X107156000Y-109762380D01*
X107251238Y-109762380D01*
X107394095Y-109810000D01*
X107441714Y-109857619D01*
X107727428Y-109762380D02*
X108298857Y-109762380D01*
X108013142Y-110762380D02*
X108013142Y-109762380D01*
X108632190Y-110381428D02*
X109394095Y-110381428D01*
X110203619Y-110238571D02*
X110346476Y-110286190D01*
X110394095Y-110333809D01*
X110441714Y-110429047D01*
X110441714Y-110571904D01*
X110394095Y-110667142D01*
X110346476Y-110714761D01*
X110251238Y-110762380D01*
X109870285Y-110762380D01*
X109870285Y-109762380D01*
X110203619Y-109762380D01*
X110298857Y-109810000D01*
X110346476Y-109857619D01*
X110394095Y-109952857D01*
X110394095Y-110048095D01*
X110346476Y-110143333D01*
X110298857Y-110190952D01*
X110203619Y-110238571D01*
X109870285Y-110238571D01*
X110870285Y-110762380D02*
X110870285Y-109762380D01*
X111251238Y-109762380D01*
X111346476Y-109810000D01*
X111394095Y-109857619D01*
X111441714Y-109952857D01*
X111441714Y-110095714D01*
X111394095Y-110190952D01*
X111346476Y-110238571D01*
X111251238Y-110286190D01*
X110870285Y-110286190D01*
X103667904Y-107122380D02*
X103667904Y-106122380D01*
X104001238Y-106836666D01*
X104334571Y-106122380D01*
X104334571Y-107122380D01*
X105382190Y-107027142D02*
X105334571Y-107074761D01*
X105191714Y-107122380D01*
X105096476Y-107122380D01*
X104953619Y-107074761D01*
X104858380Y-106979523D01*
X104810761Y-106884285D01*
X104763142Y-106693809D01*
X104763142Y-106550952D01*
X104810761Y-106360476D01*
X104858380Y-106265238D01*
X104953619Y-106170000D01*
X105096476Y-106122380D01*
X105191714Y-106122380D01*
X105334571Y-106170000D01*
X105382190Y-106217619D01*
X105715523Y-106122380D02*
X106382190Y-106122380D01*
X105953619Y-107122380D01*
X106906000Y-106550952D02*
X106810761Y-106503333D01*
X106763142Y-106455714D01*
X106715523Y-106360476D01*
X106715523Y-106312857D01*
X106763142Y-106217619D01*
X106810761Y-106170000D01*
X106906000Y-106122380D01*
X107096476Y-106122380D01*
X107191714Y-106170000D01*
X107239333Y-106217619D01*
X107286952Y-106312857D01*
X107286952Y-106360476D01*
X107239333Y-106455714D01*
X107191714Y-106503333D01*
X107096476Y-106550952D01*
X106906000Y-106550952D01*
X106810761Y-106598571D01*
X106763142Y-106646190D01*
X106715523Y-106741428D01*
X106715523Y-106931904D01*
X106763142Y-107027142D01*
X106810761Y-107074761D01*
X106906000Y-107122380D01*
X107096476Y-107122380D01*
X107191714Y-107074761D01*
X107239333Y-107027142D01*
X107286952Y-106931904D01*
X107286952Y-106741428D01*
X107239333Y-106646190D01*
X107191714Y-106598571D01*
X107096476Y-106550952D01*
X107906000Y-106122380D02*
X108001238Y-106122380D01*
X108096476Y-106170000D01*
X108144095Y-106217619D01*
X108191714Y-106312857D01*
X108239333Y-106503333D01*
X108239333Y-106741428D01*
X108191714Y-106931904D01*
X108144095Y-107027142D01*
X108096476Y-107074761D01*
X108001238Y-107122380D01*
X107906000Y-107122380D01*
X107810761Y-107074761D01*
X107763142Y-107027142D01*
X107715523Y-106931904D01*
X107667904Y-106741428D01*
X107667904Y-106503333D01*
X107715523Y-106312857D01*
X107763142Y-106217619D01*
X107810761Y-106170000D01*
X107906000Y-106122380D01*
X109144095Y-106122380D02*
X108667904Y-106122380D01*
X108620285Y-106598571D01*
X108667904Y-106550952D01*
X108763142Y-106503333D01*
X109001238Y-106503333D01*
X109096476Y-106550952D01*
X109144095Y-106598571D01*
X109191714Y-106693809D01*
X109191714Y-106931904D01*
X109144095Y-107027142D01*
X109096476Y-107074761D01*
X109001238Y-107122380D01*
X108763142Y-107122380D01*
X108667904Y-107074761D01*
X108620285Y-107027142D01*
X113709238Y-96565619D02*
X113756857Y-96518000D01*
X113852095Y-96470380D01*
X114090190Y-96470380D01*
X114185428Y-96518000D01*
X114233047Y-96565619D01*
X114280666Y-96660857D01*
X114280666Y-96756095D01*
X114233047Y-96898952D01*
X113661619Y-97470380D01*
X114280666Y-97470380D01*
X114661619Y-96565619D02*
X114709238Y-96518000D01*
X114804476Y-96470380D01*
X115042571Y-96470380D01*
X115137809Y-96518000D01*
X115185428Y-96565619D01*
X115233047Y-96660857D01*
X115233047Y-96756095D01*
X115185428Y-96898952D01*
X114614000Y-97470380D01*
X115233047Y-97470380D01*
X115852095Y-96470380D02*
X115947333Y-96470380D01*
X116042571Y-96518000D01*
X116090190Y-96565619D01*
X116137809Y-96660857D01*
X116185428Y-96851333D01*
X116185428Y-97089428D01*
X116137809Y-97279904D01*
X116090190Y-97375142D01*
X116042571Y-97422761D01*
X115947333Y-97470380D01*
X115852095Y-97470380D01*
X115756857Y-97422761D01*
X115709238Y-97375142D01*
X115661619Y-97279904D01*
X115614000Y-97089428D01*
X115614000Y-96851333D01*
X115661619Y-96660857D01*
X115709238Y-96565619D01*
X115756857Y-96518000D01*
X115852095Y-96470380D01*
X116614000Y-96803714D02*
X116614000Y-97470380D01*
X116614000Y-96898952D02*
X116661619Y-96851333D01*
X116756857Y-96803714D01*
X116899714Y-96803714D01*
X116994952Y-96851333D01*
X117042571Y-96946571D01*
X117042571Y-97470380D01*
X117375904Y-96470380D02*
X117947333Y-96470380D01*
X117661619Y-97470380D02*
X117661619Y-96470380D01*
X118233047Y-97184666D02*
X118709238Y-97184666D01*
X118137809Y-97470380D02*
X118471142Y-96470380D01*
X118804476Y-97470380D01*
X119137809Y-97470380D02*
X119137809Y-96470380D01*
X119709238Y-97470380D01*
X119709238Y-96470380D01*
X120042571Y-96470380D02*
X120614000Y-96470380D01*
X120328285Y-97470380D02*
X120328285Y-96470380D01*
D15*
X117005428Y-99151809D02*
X116643523Y-99151809D01*
X116607333Y-99513714D01*
X116643523Y-99477523D01*
X116715904Y-99441333D01*
X116896857Y-99441333D01*
X116969238Y-99477523D01*
X117005428Y-99513714D01*
X117041619Y-99586095D01*
X117041619Y-99767047D01*
X117005428Y-99839428D01*
X116969238Y-99875619D01*
X116896857Y-99911809D01*
X116715904Y-99911809D01*
X116643523Y-99875619D01*
X116607333Y-99839428D01*
X117294952Y-99405142D02*
X117475904Y-99911809D01*
X117656857Y-99405142D01*
D12*
X112079619Y-104222761D02*
X112032000Y-104175142D01*
X111984380Y-104079904D01*
X111984380Y-103841809D01*
X112032000Y-103746571D01*
X112079619Y-103698952D01*
X112174857Y-103651333D01*
X112270095Y-103651333D01*
X112412952Y-103698952D01*
X112984380Y-104270380D01*
X112984380Y-103651333D01*
X112079619Y-103270380D02*
X112032000Y-103222761D01*
X111984380Y-103127523D01*
X111984380Y-102889428D01*
X112032000Y-102794190D01*
X112079619Y-102746571D01*
X112174857Y-102698952D01*
X112270095Y-102698952D01*
X112412952Y-102746571D01*
X112984380Y-103318000D01*
X112984380Y-102698952D01*
X111984380Y-102079904D02*
X111984380Y-101984666D01*
X112032000Y-101889428D01*
X112079619Y-101841809D01*
X112174857Y-101794190D01*
X112365333Y-101746571D01*
X112603428Y-101746571D01*
X112793904Y-101794190D01*
X112889142Y-101841809D01*
X112936761Y-101889428D01*
X112984380Y-101984666D01*
X112984380Y-102079904D01*
X112936761Y-102175142D01*
X112889142Y-102222761D01*
X112793904Y-102270380D01*
X112603428Y-102318000D01*
X112365333Y-102318000D01*
X112174857Y-102270380D01*
X112079619Y-102222761D01*
X112032000Y-102175142D01*
X111984380Y-102079904D01*
X112317714Y-101318000D02*
X112984380Y-101318000D01*
X112412952Y-101318000D02*
X112365333Y-101270380D01*
X112317714Y-101175142D01*
X112317714Y-101032285D01*
X112365333Y-100937047D01*
X112460571Y-100889428D01*
X112984380Y-100889428D01*
X111984380Y-100556095D02*
X111984380Y-99984666D01*
X112984380Y-100270380D02*
X111984380Y-100270380D01*
X112698666Y-99698952D02*
X112698666Y-99222761D01*
X112984380Y-99794190D02*
X111984380Y-99460857D01*
X112984380Y-99127523D01*
X112984380Y-98794190D02*
X111984380Y-98794190D01*
X112984380Y-98222761D01*
X111984380Y-98222761D01*
X111984380Y-97889428D02*
X111984380Y-97318000D01*
X112984380Y-97603714D02*
X111984380Y-97603714D01*
D15*
X110036285Y-101107523D02*
X110036285Y-100528476D01*
X110325809Y-100818000D02*
X109746761Y-100818000D01*
D12*
X103564571Y-86947142D02*
X103612190Y-86804285D01*
X103659809Y-86756666D01*
X103755047Y-86709047D01*
X103897904Y-86709047D01*
X103993142Y-86756666D01*
X104040761Y-86804285D01*
X104088380Y-86899523D01*
X104088380Y-87280476D01*
X103088380Y-87280476D01*
X103088380Y-86947142D01*
X103136000Y-86851904D01*
X103183619Y-86804285D01*
X103278857Y-86756666D01*
X103374095Y-86756666D01*
X103469333Y-86804285D01*
X103516952Y-86851904D01*
X103564571Y-86947142D01*
X103564571Y-87280476D01*
X103993142Y-85709047D02*
X104040761Y-85756666D01*
X104088380Y-85899523D01*
X104088380Y-85994761D01*
X104040761Y-86137619D01*
X103945523Y-86232857D01*
X103850285Y-86280476D01*
X103659809Y-86328095D01*
X103516952Y-86328095D01*
X103326476Y-86280476D01*
X103231238Y-86232857D01*
X103136000Y-86137619D01*
X103088380Y-85994761D01*
X103088380Y-85899523D01*
X103136000Y-85756666D01*
X103183619Y-85709047D01*
X103088380Y-84804285D02*
X103088380Y-85280476D01*
X103564571Y-85328095D01*
X103516952Y-85280476D01*
X103469333Y-85185238D01*
X103469333Y-84947142D01*
X103516952Y-84851904D01*
X103564571Y-84804285D01*
X103659809Y-84756666D01*
X103897904Y-84756666D01*
X103993142Y-84804285D01*
X104040761Y-84851904D01*
X104088380Y-84947142D01*
X104088380Y-85185238D01*
X104040761Y-85280476D01*
X103993142Y-85328095D01*
X103421714Y-83899523D02*
X104088380Y-83899523D01*
X103040761Y-84137619D02*
X103755047Y-84375714D01*
X103755047Y-83756666D01*
X103088380Y-83470952D02*
X103088380Y-82804285D01*
X104088380Y-83232857D01*
X109914571Y-86947142D02*
X109962190Y-86804285D01*
X110009809Y-86756666D01*
X110105047Y-86709047D01*
X110247904Y-86709047D01*
X110343142Y-86756666D01*
X110390761Y-86804285D01*
X110438380Y-86899523D01*
X110438380Y-87280476D01*
X109438380Y-87280476D01*
X109438380Y-86947142D01*
X109486000Y-86851904D01*
X109533619Y-86804285D01*
X109628857Y-86756666D01*
X109724095Y-86756666D01*
X109819333Y-86804285D01*
X109866952Y-86851904D01*
X109914571Y-86947142D01*
X109914571Y-87280476D01*
X110343142Y-85709047D02*
X110390761Y-85756666D01*
X110438380Y-85899523D01*
X110438380Y-85994761D01*
X110390761Y-86137619D01*
X110295523Y-86232857D01*
X110200285Y-86280476D01*
X110009809Y-86328095D01*
X109866952Y-86328095D01*
X109676476Y-86280476D01*
X109581238Y-86232857D01*
X109486000Y-86137619D01*
X109438380Y-85994761D01*
X109438380Y-85899523D01*
X109486000Y-85756666D01*
X109533619Y-85709047D01*
X109438380Y-84804285D02*
X109438380Y-85280476D01*
X109914571Y-85328095D01*
X109866952Y-85280476D01*
X109819333Y-85185238D01*
X109819333Y-84947142D01*
X109866952Y-84851904D01*
X109914571Y-84804285D01*
X110009809Y-84756666D01*
X110247904Y-84756666D01*
X110343142Y-84804285D01*
X110390761Y-84851904D01*
X110438380Y-84947142D01*
X110438380Y-85185238D01*
X110390761Y-85280476D01*
X110343142Y-85328095D01*
X109771714Y-83899523D02*
X110438380Y-83899523D01*
X109390761Y-84137619D02*
X110105047Y-84375714D01*
X110105047Y-83756666D01*
X109438380Y-83470952D02*
X109438380Y-82804285D01*
X110438380Y-83232857D01*
X96777333Y-93840380D02*
X96777333Y-92840380D01*
X97348761Y-93840380D01*
X97348761Y-92840380D01*
X97824952Y-93316571D02*
X98158285Y-93316571D01*
X98301142Y-93840380D02*
X97824952Y-93840380D01*
X97824952Y-92840380D01*
X98301142Y-92840380D01*
X99205904Y-92840380D02*
X98729714Y-92840380D01*
X98682095Y-93316571D01*
X98729714Y-93268952D01*
X98824952Y-93221333D01*
X99063047Y-93221333D01*
X99158285Y-93268952D01*
X99205904Y-93316571D01*
X99253523Y-93411809D01*
X99253523Y-93649904D01*
X99205904Y-93745142D01*
X99158285Y-93792761D01*
X99063047Y-93840380D01*
X98824952Y-93840380D01*
X98729714Y-93792761D01*
X98682095Y-93745142D01*
X100158285Y-92840380D02*
X99682095Y-92840380D01*
X99634476Y-93316571D01*
X99682095Y-93268952D01*
X99777333Y-93221333D01*
X100015428Y-93221333D01*
X100110666Y-93268952D01*
X100158285Y-93316571D01*
X100205904Y-93411809D01*
X100205904Y-93649904D01*
X100158285Y-93745142D01*
X100110666Y-93792761D01*
X100015428Y-93840380D01*
X99777333Y-93840380D01*
X99682095Y-93792761D01*
X99634476Y-93745142D01*
X101110666Y-92840380D02*
X100634476Y-92840380D01*
X100586857Y-93316571D01*
X100634476Y-93268952D01*
X100729714Y-93221333D01*
X100967809Y-93221333D01*
X101063047Y-93268952D01*
X101110666Y-93316571D01*
X101158285Y-93411809D01*
X101158285Y-93649904D01*
X101110666Y-93745142D01*
X101063047Y-93792761D01*
X100967809Y-93840380D01*
X100729714Y-93840380D01*
X100634476Y-93792761D01*
X100586857Y-93745142D01*
X101586857Y-93840380D02*
X101586857Y-92840380D01*
X101967809Y-92840380D01*
X102063047Y-92888000D01*
X102110666Y-92935619D01*
X102158285Y-93030857D01*
X102158285Y-93173714D01*
X102110666Y-93268952D01*
X102063047Y-93316571D01*
X101967809Y-93364190D01*
X101586857Y-93364190D01*
D11*
X98110666Y-87000380D02*
X97777333Y-86524190D01*
X97539238Y-87000380D02*
X97539238Y-86000380D01*
X97920190Y-86000380D01*
X98015428Y-86048000D01*
X98063047Y-86095619D01*
X98110666Y-86190857D01*
X98110666Y-86333714D01*
X98063047Y-86428952D01*
X98015428Y-86476571D01*
X97920190Y-86524190D01*
X97539238Y-86524190D01*
X98539238Y-86476571D02*
X98872571Y-86476571D01*
X99015428Y-87000380D02*
X98539238Y-87000380D01*
X98539238Y-86000380D01*
X99015428Y-86000380D01*
X99777333Y-86476571D02*
X99444000Y-86476571D01*
X99444000Y-87000380D02*
X99444000Y-86000380D01*
X99920190Y-86000380D01*
X100444000Y-86000380D02*
X100444000Y-86238476D01*
X100205904Y-86143238D02*
X100444000Y-86238476D01*
X100682095Y-86143238D01*
X100301142Y-86428952D02*
X100444000Y-86238476D01*
X100586857Y-86428952D01*
X101205904Y-86000380D02*
X101205904Y-86238476D01*
X100967809Y-86143238D02*
X101205904Y-86238476D01*
X101444000Y-86143238D01*
X101063047Y-86428952D02*
X101205904Y-86238476D01*
X101348761Y-86428952D01*
D12*
X114927952Y-93081380D02*
X114356523Y-93081380D01*
X114642238Y-93081380D02*
X114642238Y-92081380D01*
X114547000Y-92224238D01*
X114451761Y-92319476D01*
X114356523Y-92367095D01*
X115356523Y-93081380D02*
X115356523Y-92081380D01*
X115451761Y-92700428D02*
X115737476Y-93081380D01*
X115737476Y-92414714D02*
X115356523Y-92795666D01*
X111734380Y-88274095D02*
X111734380Y-88845523D01*
X111734380Y-88559809D02*
X110734380Y-88559809D01*
X110877238Y-88655047D01*
X110972476Y-88750285D01*
X111020095Y-88845523D01*
X111734380Y-87845523D02*
X110734380Y-87845523D01*
X111353428Y-87750285D02*
X111734380Y-87464571D01*
X111067714Y-87464571D02*
X111448666Y-87845523D01*
X111734380Y-86274095D02*
X110734380Y-86274095D01*
X110734380Y-85893142D01*
X110782000Y-85797904D01*
X110829619Y-85750285D01*
X110924857Y-85702666D01*
X111067714Y-85702666D01*
X111162952Y-85750285D01*
X111210571Y-85797904D01*
X111258190Y-85893142D01*
X111258190Y-86274095D01*
X111734380Y-85131238D02*
X111686761Y-85226476D01*
X111639142Y-85274095D01*
X111543904Y-85321714D01*
X111258190Y-85321714D01*
X111162952Y-85274095D01*
X111115333Y-85226476D01*
X111067714Y-85131238D01*
X111067714Y-84988380D01*
X111115333Y-84893142D01*
X111162952Y-84845523D01*
X111258190Y-84797904D01*
X111543904Y-84797904D01*
X111639142Y-84845523D01*
X111686761Y-84893142D01*
X111734380Y-84988380D01*
X111734380Y-85131238D01*
X111067714Y-84512190D02*
X111067714Y-84131238D01*
X110734380Y-84369333D02*
X111591523Y-84369333D01*
X111686761Y-84321714D01*
X111734380Y-84226476D01*
X111734380Y-84131238D01*
X113792095Y-77171714D02*
X113792095Y-77838380D01*
X113554000Y-76790761D02*
X113315904Y-77505047D01*
X113934952Y-77505047D01*
X114220666Y-76838380D02*
X114887333Y-76838380D01*
X114458761Y-77838380D01*
X115458761Y-76838380D02*
X115554000Y-76838380D01*
X115649238Y-76886000D01*
X115696857Y-76933619D01*
X115744476Y-77028857D01*
X115792095Y-77219333D01*
X115792095Y-77457428D01*
X115744476Y-77647904D01*
X115696857Y-77743142D01*
X115649238Y-77790761D01*
X115554000Y-77838380D01*
X115458761Y-77838380D01*
X115363523Y-77790761D01*
X115315904Y-77743142D01*
X115268285Y-77647904D01*
X115220666Y-77457428D01*
X115220666Y-77219333D01*
X115268285Y-77028857D01*
X115315904Y-76933619D01*
X115363523Y-76886000D01*
X115458761Y-76838380D01*
X113054000Y-80208380D02*
X112720666Y-79732190D01*
X112482571Y-80208380D02*
X112482571Y-79208380D01*
X112863523Y-79208380D01*
X112958761Y-79256000D01*
X113006380Y-79303619D01*
X113054000Y-79398857D01*
X113054000Y-79541714D01*
X113006380Y-79636952D01*
X112958761Y-79684571D01*
X112863523Y-79732190D01*
X112482571Y-79732190D01*
X114673047Y-79541714D02*
X114673047Y-80208380D01*
X114434952Y-79160761D02*
X114196857Y-79875047D01*
X114815904Y-79875047D01*
X115101619Y-79208380D02*
X115768285Y-79208380D01*
X115339714Y-80208380D01*
X116339714Y-79208380D02*
X116434952Y-79208380D01*
X116530190Y-79256000D01*
X116577809Y-79303619D01*
X116625428Y-79398857D01*
X116673047Y-79589333D01*
X116673047Y-79827428D01*
X116625428Y-80017904D01*
X116577809Y-80113142D01*
X116530190Y-80160761D01*
X116434952Y-80208380D01*
X116339714Y-80208380D01*
X116244476Y-80160761D01*
X116196857Y-80113142D01*
X116149238Y-80017904D01*
X116101619Y-79827428D01*
X116101619Y-79589333D01*
X116149238Y-79398857D01*
X116196857Y-79303619D01*
X116244476Y-79256000D01*
X116339714Y-79208380D01*
X114434952Y-96294380D02*
X113863523Y-96294380D01*
X114149238Y-96294380D02*
X114149238Y-95294380D01*
X114054000Y-95437238D01*
X113958761Y-95532476D01*
X113863523Y-95580095D01*
X114863523Y-96294380D02*
X114863523Y-95294380D01*
X114958761Y-95913428D02*
X115244476Y-96294380D01*
X115244476Y-95627714D02*
X114863523Y-96008666D01*
X113601619Y-93924380D02*
X113268285Y-93448190D01*
X113030190Y-93924380D02*
X113030190Y-92924380D01*
X113411142Y-92924380D01*
X113506380Y-92972000D01*
X113554000Y-93019619D01*
X113601619Y-93114857D01*
X113601619Y-93257714D01*
X113554000Y-93352952D01*
X113506380Y-93400571D01*
X113411142Y-93448190D01*
X113030190Y-93448190D01*
X115315904Y-93924380D02*
X114744476Y-93924380D01*
X115030190Y-93924380D02*
X115030190Y-92924380D01*
X114934952Y-93067238D01*
X114839714Y-93162476D01*
X114744476Y-93210095D01*
X115744476Y-93924380D02*
X115744476Y-92924380D01*
X115839714Y-93543428D02*
X116125428Y-93924380D01*
X116125428Y-93257714D02*
X115744476Y-93638666D01*
X104020952Y-82578380D02*
X103449523Y-82578380D01*
X103735238Y-82578380D02*
X103735238Y-81578380D01*
X103640000Y-81721238D01*
X103544761Y-81816476D01*
X103449523Y-81864095D01*
X104449523Y-82578380D02*
X104449523Y-81578380D01*
X104544761Y-82197428D02*
X104830476Y-82578380D01*
X104830476Y-81911714D02*
X104449523Y-82292666D01*
X103187619Y-80208380D02*
X102854285Y-79732190D01*
X102616190Y-80208380D02*
X102616190Y-79208380D01*
X102997142Y-79208380D01*
X103092380Y-79256000D01*
X103140000Y-79303619D01*
X103187619Y-79398857D01*
X103187619Y-79541714D01*
X103140000Y-79636952D01*
X103092380Y-79684571D01*
X102997142Y-79732190D01*
X102616190Y-79732190D01*
X104901904Y-80208380D02*
X104330476Y-80208380D01*
X104616190Y-80208380D02*
X104616190Y-79208380D01*
X104520952Y-79351238D01*
X104425714Y-79446476D01*
X104330476Y-79494095D01*
X105330476Y-80208380D02*
X105330476Y-79208380D01*
X105425714Y-79827428D02*
X105711428Y-80208380D01*
X105711428Y-79541714D02*
X105330476Y-79922666D01*
X93638761Y-82578380D02*
X93067333Y-82578380D01*
X93353047Y-82578380D02*
X93353047Y-81578380D01*
X93257809Y-81721238D01*
X93162571Y-81816476D01*
X93067333Y-81864095D01*
X94257809Y-81578380D02*
X94353047Y-81578380D01*
X94448285Y-81626000D01*
X94495904Y-81673619D01*
X94543523Y-81768857D01*
X94591142Y-81959333D01*
X94591142Y-82197428D01*
X94543523Y-82387904D01*
X94495904Y-82483142D01*
X94448285Y-82530761D01*
X94353047Y-82578380D01*
X94257809Y-82578380D01*
X94162571Y-82530761D01*
X94114952Y-82483142D01*
X94067333Y-82387904D01*
X94019714Y-82197428D01*
X94019714Y-81959333D01*
X94067333Y-81768857D01*
X94114952Y-81673619D01*
X94162571Y-81626000D01*
X94257809Y-81578380D01*
X95019714Y-82578380D02*
X95019714Y-81578380D01*
X95114952Y-82197428D02*
X95400666Y-82578380D01*
X95400666Y-81911714D02*
X95019714Y-82292666D01*
X92805428Y-80208380D02*
X92472095Y-79732190D01*
X92234000Y-80208380D02*
X92234000Y-79208380D01*
X92614952Y-79208380D01*
X92710190Y-79256000D01*
X92757809Y-79303619D01*
X92805428Y-79398857D01*
X92805428Y-79541714D01*
X92757809Y-79636952D01*
X92710190Y-79684571D01*
X92614952Y-79732190D01*
X92234000Y-79732190D01*
X94519714Y-80208380D02*
X93948285Y-80208380D01*
X94234000Y-80208380D02*
X94234000Y-79208380D01*
X94138761Y-79351238D01*
X94043523Y-79446476D01*
X93948285Y-79494095D01*
X95138761Y-79208380D02*
X95234000Y-79208380D01*
X95329238Y-79256000D01*
X95376857Y-79303619D01*
X95424476Y-79398857D01*
X95472095Y-79589333D01*
X95472095Y-79827428D01*
X95424476Y-80017904D01*
X95376857Y-80113142D01*
X95329238Y-80160761D01*
X95234000Y-80208380D01*
X95138761Y-80208380D01*
X95043523Y-80160761D01*
X94995904Y-80113142D01*
X94948285Y-80017904D01*
X94900666Y-79827428D01*
X94900666Y-79589333D01*
X94948285Y-79398857D01*
X94995904Y-79303619D01*
X95043523Y-79256000D01*
X95138761Y-79208380D01*
X95900666Y-80208380D02*
X95900666Y-79208380D01*
X95995904Y-79827428D02*
X96281619Y-80208380D01*
X96281619Y-79541714D02*
X95900666Y-79922666D01*
X113339714Y-93602380D02*
X113958761Y-93602380D01*
X113625428Y-93983333D01*
X113768285Y-93983333D01*
X113863523Y-94030952D01*
X113911142Y-94078571D01*
X113958761Y-94173809D01*
X113958761Y-94411904D01*
X113911142Y-94507142D01*
X113863523Y-94554761D01*
X113768285Y-94602380D01*
X113482571Y-94602380D01*
X113387333Y-94554761D01*
X113339714Y-94507142D01*
X114292095Y-93602380D02*
X114911142Y-93602380D01*
X114577809Y-93983333D01*
X114720666Y-93983333D01*
X114815904Y-94030952D01*
X114863523Y-94078571D01*
X114911142Y-94173809D01*
X114911142Y-94411904D01*
X114863523Y-94507142D01*
X114815904Y-94554761D01*
X114720666Y-94602380D01*
X114434952Y-94602380D01*
X114339714Y-94554761D01*
X114292095Y-94507142D01*
X115339714Y-94602380D02*
X115339714Y-93602380D01*
X115434952Y-94221428D02*
X115720666Y-94602380D01*
X115720666Y-93935714D02*
X115339714Y-94316666D01*
X113125428Y-96972380D02*
X112792095Y-96496190D01*
X112554000Y-96972380D02*
X112554000Y-95972380D01*
X112934952Y-95972380D01*
X113030190Y-96020000D01*
X113077809Y-96067619D01*
X113125428Y-96162857D01*
X113125428Y-96305714D01*
X113077809Y-96400952D01*
X113030190Y-96448571D01*
X112934952Y-96496190D01*
X112554000Y-96496190D01*
X114220666Y-95972380D02*
X114839714Y-95972380D01*
X114506380Y-96353333D01*
X114649238Y-96353333D01*
X114744476Y-96400952D01*
X114792095Y-96448571D01*
X114839714Y-96543809D01*
X114839714Y-96781904D01*
X114792095Y-96877142D01*
X114744476Y-96924761D01*
X114649238Y-96972380D01*
X114363523Y-96972380D01*
X114268285Y-96924761D01*
X114220666Y-96877142D01*
X115173047Y-95972380D02*
X115792095Y-95972380D01*
X115458761Y-96353333D01*
X115601619Y-96353333D01*
X115696857Y-96400952D01*
X115744476Y-96448571D01*
X115792095Y-96543809D01*
X115792095Y-96781904D01*
X115744476Y-96877142D01*
X115696857Y-96924761D01*
X115601619Y-96972380D01*
X115315904Y-96972380D01*
X115220666Y-96924761D01*
X115173047Y-96877142D01*
X116220666Y-96972380D02*
X116220666Y-95972380D01*
X116315904Y-96591428D02*
X116601619Y-96972380D01*
X116601619Y-96305714D02*
X116220666Y-96686666D01*
X96666380Y-101490571D02*
X95666380Y-101490571D01*
X95666380Y-101109619D01*
X95714000Y-101014380D01*
X95761619Y-100966761D01*
X95856857Y-100919142D01*
X95999714Y-100919142D01*
X96094952Y-100966761D01*
X96142571Y-101014380D01*
X96190190Y-101109619D01*
X96190190Y-101490571D01*
X96666380Y-100347714D02*
X96618761Y-100442952D01*
X96571142Y-100490571D01*
X96475904Y-100538190D01*
X96190190Y-100538190D01*
X96094952Y-100490571D01*
X96047333Y-100442952D01*
X95999714Y-100347714D01*
X95999714Y-100204857D01*
X96047333Y-100109619D01*
X96094952Y-100062000D01*
X96190190Y-100014380D01*
X96475904Y-100014380D01*
X96571142Y-100062000D01*
X96618761Y-100109619D01*
X96666380Y-100204857D01*
X96666380Y-100347714D01*
X96666380Y-99442952D02*
X96618761Y-99538190D01*
X96523523Y-99585809D01*
X95666380Y-99585809D01*
X95999714Y-99157238D02*
X96666380Y-98919142D01*
X95999714Y-98681047D02*
X96666380Y-98919142D01*
X96904476Y-99014380D01*
X96952095Y-99062000D01*
X96999714Y-99157238D01*
X95999714Y-98442952D02*
X95999714Y-98062000D01*
X96666380Y-98300095D02*
X95809238Y-98300095D01*
X95714000Y-98252476D01*
X95666380Y-98157238D01*
X95666380Y-98062000D01*
X95999714Y-97300095D02*
X96666380Y-97300095D01*
X95999714Y-97728666D02*
X96523523Y-97728666D01*
X96618761Y-97681047D01*
X96666380Y-97585809D01*
X96666380Y-97442952D01*
X96618761Y-97347714D01*
X96571142Y-97300095D01*
X96618761Y-96871523D02*
X96666380Y-96776285D01*
X96666380Y-96585809D01*
X96618761Y-96490571D01*
X96523523Y-96442952D01*
X96475904Y-96442952D01*
X96380666Y-96490571D01*
X96333047Y-96585809D01*
X96333047Y-96728666D01*
X96285428Y-96823904D01*
X96190190Y-96871523D01*
X96142571Y-96871523D01*
X96047333Y-96823904D01*
X95999714Y-96728666D01*
X95999714Y-96585809D01*
X96047333Y-96490571D01*
X96618761Y-95633428D02*
X96666380Y-95728666D01*
X96666380Y-95919142D01*
X96618761Y-96014380D01*
X96523523Y-96062000D01*
X96142571Y-96062000D01*
X96047333Y-96014380D01*
X95999714Y-95919142D01*
X95999714Y-95728666D01*
X96047333Y-95633428D01*
X96142571Y-95585809D01*
X96237809Y-95585809D01*
X96333047Y-96062000D01*
X98642571Y-98895333D02*
X98642571Y-99228666D01*
X99166380Y-99228666D02*
X98166380Y-99228666D01*
X98166380Y-98752476D01*
X99166380Y-97847714D02*
X99166380Y-98419142D01*
X99166380Y-98133428D02*
X98166380Y-98133428D01*
X98309238Y-98228666D01*
X98404476Y-98323904D01*
X98452095Y-98419142D01*
X86983619Y-89510380D02*
X86936000Y-89462761D01*
X86888380Y-89367523D01*
X86888380Y-89129428D01*
X86936000Y-89034190D01*
X86983619Y-88986571D01*
X87078857Y-88938952D01*
X87174095Y-88938952D01*
X87316952Y-88986571D01*
X87888380Y-89558000D01*
X87888380Y-88938952D01*
X87793142Y-88510380D02*
X87840761Y-88462761D01*
X87888380Y-88510380D01*
X87840761Y-88558000D01*
X87793142Y-88510380D01*
X87888380Y-88510380D01*
X86983619Y-88081809D02*
X86936000Y-88034190D01*
X86888380Y-87938952D01*
X86888380Y-87700857D01*
X86936000Y-87605619D01*
X86983619Y-87558000D01*
X87078857Y-87510380D01*
X87174095Y-87510380D01*
X87316952Y-87558000D01*
X87888380Y-88129428D01*
X87888380Y-87510380D01*
X87221714Y-87081809D02*
X87888380Y-87081809D01*
X87316952Y-87081809D02*
X87269333Y-87034190D01*
X87221714Y-86938952D01*
X87221714Y-86796095D01*
X87269333Y-86700857D01*
X87364571Y-86653238D01*
X87888380Y-86653238D01*
X91543142Y-89534190D02*
X91590761Y-89581809D01*
X91638380Y-89724666D01*
X91638380Y-89819904D01*
X91590761Y-89962761D01*
X91495523Y-90058000D01*
X91400285Y-90105619D01*
X91209809Y-90153238D01*
X91066952Y-90153238D01*
X90876476Y-90105619D01*
X90781238Y-90058000D01*
X90686000Y-89962761D01*
X90638380Y-89819904D01*
X90638380Y-89724666D01*
X90686000Y-89581809D01*
X90733619Y-89534190D01*
X90733619Y-88391333D02*
X90686000Y-88343714D01*
X90638380Y-88248476D01*
X90638380Y-88010380D01*
X90686000Y-87915142D01*
X90733619Y-87867523D01*
X90828857Y-87819904D01*
X90924095Y-87819904D01*
X91066952Y-87867523D01*
X91638380Y-88438952D01*
X91638380Y-87819904D01*
X90971714Y-87391333D02*
X91638380Y-87391333D01*
X91066952Y-87391333D02*
X91019333Y-87343714D01*
X90971714Y-87248476D01*
X90971714Y-87105619D01*
X91019333Y-87010380D01*
X91114571Y-86962761D01*
X91638380Y-86962761D01*
X90733619Y-86534190D02*
X90686000Y-86486571D01*
X90638380Y-86391333D01*
X90638380Y-86153238D01*
X90686000Y-86058000D01*
X90733619Y-86010380D01*
X90828857Y-85962761D01*
X90924095Y-85962761D01*
X91066952Y-86010380D01*
X91638380Y-86581809D01*
X91638380Y-85962761D01*
M02*
