G04 #@! TF.GenerationSoftware,KiCad,Pcbnew,(5.1.0)-1*
G04 #@! TF.CreationDate,2021-07-24T01:49:12-05:00*
G04 #@! TF.ProjectId,nixie_legacy,6e697869-655f-46c6-9567-6163792e6b69,rev?*
G04 #@! TF.SameCoordinates,Original*
G04 #@! TF.FileFunction,Legend,Top*
G04 #@! TF.FilePolarity,Positive*
%FSLAX46Y46*%
G04 Gerber Fmt 4.6, Leading zero omitted, Abs format (unit mm)*
G04 Created by KiCad (PCBNEW (5.1.0)-1) date 2021-07-24 01:49:12*
%MOMM*%
%LPD*%
G04 APERTURE LIST*
%ADD10C,0.120000*%
%ADD11C,0.100000*%
%ADD12C,0.150000*%
G04 APERTURE END LIST*
D10*
X104810000Y-117040000D02*
X104810000Y-114100000D01*
X104570000Y-117040000D02*
X104570000Y-114100000D01*
X104690000Y-117040000D02*
X104690000Y-114100000D01*
X100150000Y-114100000D02*
X100150000Y-114230000D01*
X105590000Y-114100000D02*
X100150000Y-114100000D01*
X105590000Y-114230000D02*
X105590000Y-114100000D01*
X100150000Y-117040000D02*
X100150000Y-116910000D01*
X105590000Y-117040000D02*
X100150000Y-117040000D01*
X105590000Y-116910000D02*
X105590000Y-117040000D01*
X116074000Y-97894000D02*
X116074000Y-95654000D01*
X115834000Y-97894000D02*
X115834000Y-95654000D01*
X115954000Y-97894000D02*
X115954000Y-95654000D01*
X111784000Y-96774000D02*
X112434000Y-96774000D01*
X117324000Y-96774000D02*
X116674000Y-96774000D01*
X112434000Y-97894000D02*
X116674000Y-97894000D01*
X112434000Y-95654000D02*
X112434000Y-97894000D01*
X116674000Y-95654000D02*
X112434000Y-95654000D01*
X116674000Y-97894000D02*
X116674000Y-95654000D01*
X108564795Y-83273816D02*
G75*
G02X109292000Y-83798000I-1122795J-2324184D01*
G01*
X106343193Y-83241600D02*
G75*
G03X104842000Y-85598000I1098807J-2356400D01*
G01*
X106343193Y-87954400D02*
G75*
G02X104842000Y-85598000I1098807J2356400D01*
G01*
X108564795Y-87922184D02*
G75*
G03X109292000Y-87398000I-1122795J2324184D01*
G01*
X116994000Y-116046000D02*
X117324000Y-116046000D01*
X116994000Y-109506000D02*
X116994000Y-116046000D01*
X117324000Y-109506000D02*
X116994000Y-109506000D01*
X119734000Y-116046000D02*
X119404000Y-116046000D01*
X119734000Y-109506000D02*
X119734000Y-116046000D01*
X119404000Y-109506000D02*
X119734000Y-109506000D01*
D11*
X95904000Y-91858000D02*
X96204000Y-91858000D01*
X95904000Y-91558000D02*
X95904000Y-91858000D01*
X102704000Y-91858000D02*
X102404000Y-91858000D01*
X102704000Y-91558000D02*
X102704000Y-91858000D01*
X102704000Y-81858000D02*
X102404000Y-81858000D01*
X102704000Y-82158000D02*
X102704000Y-81858000D01*
X95904000Y-81858000D02*
X96204000Y-81858000D01*
X95904000Y-82158000D02*
X95904000Y-81858000D01*
D10*
X119932000Y-81729000D02*
X119932000Y-91499000D01*
X110162000Y-81729000D02*
X110162000Y-91499000D01*
X110162000Y-91499000D02*
X119932000Y-91499000D01*
X110162000Y-81729000D02*
X119932000Y-81729000D01*
X111284000Y-78386000D02*
X111284000Y-78716000D01*
X117824000Y-78386000D02*
X111284000Y-78386000D01*
X117824000Y-78716000D02*
X117824000Y-78386000D01*
X111284000Y-81126000D02*
X111284000Y-80796000D01*
X117824000Y-81126000D02*
X111284000Y-81126000D01*
X117824000Y-80796000D02*
X117824000Y-81126000D01*
X111660000Y-107156000D02*
X111990000Y-107156000D01*
X111660000Y-100616000D02*
X111660000Y-107156000D01*
X111990000Y-100616000D02*
X111660000Y-100616000D01*
X114400000Y-107156000D02*
X114070000Y-107156000D01*
X114400000Y-100616000D02*
X114400000Y-107156000D01*
X114070000Y-100616000D02*
X114400000Y-100616000D01*
X106140000Y-113892000D02*
X106140000Y-113562000D01*
X99600000Y-113892000D02*
X106140000Y-113892000D01*
X99600000Y-113562000D02*
X99600000Y-113892000D01*
X106140000Y-111152000D02*
X106140000Y-111482000D01*
X99600000Y-111152000D02*
X106140000Y-111152000D01*
X99600000Y-111482000D02*
X99600000Y-111152000D01*
X117824000Y-94842000D02*
X117824000Y-94512000D01*
X111284000Y-94842000D02*
X117824000Y-94842000D01*
X111284000Y-94512000D02*
X111284000Y-94842000D01*
X117824000Y-92102000D02*
X117824000Y-92432000D01*
X111284000Y-92102000D02*
X117824000Y-92102000D01*
X111284000Y-92432000D02*
X111284000Y-92102000D01*
X107410000Y-81126000D02*
X107410000Y-80796000D01*
X100870000Y-81126000D02*
X107410000Y-81126000D01*
X100870000Y-80796000D02*
X100870000Y-81126000D01*
X107410000Y-78386000D02*
X107410000Y-78716000D01*
X100870000Y-78386000D02*
X107410000Y-78386000D01*
X100870000Y-78716000D02*
X100870000Y-78386000D01*
X97504000Y-81126000D02*
X97504000Y-80796000D01*
X90964000Y-81126000D02*
X97504000Y-81126000D01*
X90964000Y-80796000D02*
X90964000Y-81126000D01*
X97504000Y-78386000D02*
X97504000Y-78716000D01*
X90964000Y-78386000D02*
X97504000Y-78386000D01*
X90964000Y-78716000D02*
X90964000Y-78386000D01*
X102584000Y-95350000D02*
X102584000Y-95020000D01*
X96044000Y-95350000D02*
X102584000Y-95350000D01*
X96044000Y-95020000D02*
X96044000Y-95350000D01*
X102584000Y-92610000D02*
X102584000Y-92940000D01*
X96044000Y-92610000D02*
X102584000Y-92610000D01*
X96044000Y-92940000D02*
X96044000Y-92610000D01*
X99354000Y-107918000D02*
X89114000Y-107918000D01*
X99354000Y-103277000D02*
X89114000Y-103277000D01*
X99354000Y-107918000D02*
X99354000Y-103277000D01*
X89114000Y-107918000D02*
X89114000Y-103277000D01*
X99354000Y-106408000D02*
X89114000Y-106408000D01*
X96084000Y-107918000D02*
X96084000Y-106408000D01*
X92383000Y-107918000D02*
X92383000Y-106408000D01*
D11*
X109042000Y-95762000D02*
X108742000Y-95912000D01*
X109042000Y-95462000D02*
X109042000Y-95762000D01*
X109042000Y-91062000D02*
X109042000Y-91362000D01*
X109042000Y-91062000D02*
X108742000Y-90912000D01*
D12*
X105892000Y-91462000D02*
G75*
G03X105842000Y-95312000I1900000J-1950000D01*
G01*
D10*
X97648000Y-113030000D02*
G75*
G03X97648000Y-113030000I-4470000J0D01*
G01*
X117034000Y-99508000D02*
X118364000Y-99508000D01*
X117034000Y-100838000D02*
X117034000Y-99508000D01*
X117034000Y-102108000D02*
X119694000Y-102108000D01*
X119694000Y-102108000D02*
X119694000Y-107248000D01*
X117034000Y-102108000D02*
X117034000Y-107248000D01*
X117034000Y-107248000D02*
X119694000Y-107248000D01*
X89348000Y-96206000D02*
X90678000Y-96206000D01*
X89348000Y-97536000D02*
X89348000Y-96206000D01*
X89348000Y-98806000D02*
X92008000Y-98806000D01*
X92008000Y-98806000D02*
X92008000Y-101406000D01*
X89348000Y-98806000D02*
X89348000Y-101406000D01*
X89348000Y-101406000D02*
X92008000Y-101406000D01*
X100180000Y-99486000D02*
X100180000Y-99736000D01*
X100180000Y-96536000D02*
X100180000Y-97987000D01*
X92880000Y-98286000D02*
X92880000Y-99736000D01*
X92880000Y-96536000D02*
X92880000Y-96786000D01*
X99959000Y-99736000D02*
X100180000Y-99736000D01*
X92880000Y-99736000D02*
X98202000Y-99736000D01*
X94859000Y-96536000D02*
X100180000Y-96536000D01*
X92880000Y-96536000D02*
X93101000Y-96536000D01*
X110368000Y-116997241D02*
X110998000Y-116997241D01*
X110683000Y-117312241D02*
X110683000Y-116682241D01*
X112120000Y-110571000D02*
X112924000Y-110571000D01*
X111889000Y-110611000D02*
X113155000Y-110611000D01*
X111720000Y-110651000D02*
X113324000Y-110651000D01*
X111582000Y-110691000D02*
X113462000Y-110691000D01*
X111463000Y-110731000D02*
X113581000Y-110731000D01*
X111357000Y-110771000D02*
X113687000Y-110771000D01*
X111260000Y-110811000D02*
X113784000Y-110811000D01*
X111172000Y-110851000D02*
X113872000Y-110851000D01*
X111090000Y-110891000D02*
X113954000Y-110891000D01*
X111013000Y-110931000D02*
X114031000Y-110931000D01*
X110941000Y-110971000D02*
X114103000Y-110971000D01*
X110872000Y-111011000D02*
X114172000Y-111011000D01*
X110808000Y-111051000D02*
X114236000Y-111051000D01*
X110746000Y-111091000D02*
X114298000Y-111091000D01*
X110688000Y-111131000D02*
X114356000Y-111131000D01*
X110632000Y-111171000D02*
X114412000Y-111171000D01*
X110578000Y-111211000D02*
X114466000Y-111211000D01*
X110527000Y-111251000D02*
X114517000Y-111251000D01*
X110478000Y-111291000D02*
X114566000Y-111291000D01*
X110430000Y-111331000D02*
X114614000Y-111331000D01*
X110385000Y-111371000D02*
X114659000Y-111371000D01*
X110340000Y-111411000D02*
X114704000Y-111411000D01*
X110298000Y-111451000D02*
X114746000Y-111451000D01*
X110257000Y-111491000D02*
X114787000Y-111491000D01*
X113562000Y-111531000D02*
X114827000Y-111531000D01*
X110217000Y-111531000D02*
X111482000Y-111531000D01*
X113562000Y-111571000D02*
X114865000Y-111571000D01*
X110179000Y-111571000D02*
X111482000Y-111571000D01*
X113562000Y-111611000D02*
X114902000Y-111611000D01*
X110142000Y-111611000D02*
X111482000Y-111611000D01*
X113562000Y-111651000D02*
X114938000Y-111651000D01*
X110106000Y-111651000D02*
X111482000Y-111651000D01*
X113562000Y-111691000D02*
X114972000Y-111691000D01*
X110072000Y-111691000D02*
X111482000Y-111691000D01*
X113562000Y-111731000D02*
X115006000Y-111731000D01*
X110038000Y-111731000D02*
X111482000Y-111731000D01*
X113562000Y-111771000D02*
X115038000Y-111771000D01*
X110006000Y-111771000D02*
X111482000Y-111771000D01*
X113562000Y-111811000D02*
X115070000Y-111811000D01*
X109974000Y-111811000D02*
X111482000Y-111811000D01*
X113562000Y-111851000D02*
X115100000Y-111851000D01*
X109944000Y-111851000D02*
X111482000Y-111851000D01*
X113562000Y-111891000D02*
X115129000Y-111891000D01*
X109915000Y-111891000D02*
X111482000Y-111891000D01*
X113562000Y-111931000D02*
X115158000Y-111931000D01*
X109886000Y-111931000D02*
X111482000Y-111931000D01*
X113562000Y-111971000D02*
X115186000Y-111971000D01*
X109858000Y-111971000D02*
X111482000Y-111971000D01*
X113562000Y-112011000D02*
X115212000Y-112011000D01*
X109832000Y-112011000D02*
X111482000Y-112011000D01*
X113562000Y-112051000D02*
X115238000Y-112051000D01*
X109806000Y-112051000D02*
X111482000Y-112051000D01*
X113562000Y-112091000D02*
X115264000Y-112091000D01*
X109780000Y-112091000D02*
X111482000Y-112091000D01*
X113562000Y-112131000D02*
X115288000Y-112131000D01*
X109756000Y-112131000D02*
X111482000Y-112131000D01*
X113562000Y-112171000D02*
X115312000Y-112171000D01*
X109732000Y-112171000D02*
X111482000Y-112171000D01*
X113562000Y-112211000D02*
X115334000Y-112211000D01*
X109710000Y-112211000D02*
X111482000Y-112211000D01*
X113562000Y-112251000D02*
X115356000Y-112251000D01*
X109688000Y-112251000D02*
X111482000Y-112251000D01*
X113562000Y-112291000D02*
X115378000Y-112291000D01*
X109666000Y-112291000D02*
X111482000Y-112291000D01*
X113562000Y-112331000D02*
X115398000Y-112331000D01*
X109646000Y-112331000D02*
X111482000Y-112331000D01*
X113562000Y-112371000D02*
X115418000Y-112371000D01*
X109626000Y-112371000D02*
X111482000Y-112371000D01*
X113562000Y-112411000D02*
X115438000Y-112411000D01*
X109606000Y-112411000D02*
X111482000Y-112411000D01*
X113562000Y-112451000D02*
X115456000Y-112451000D01*
X109588000Y-112451000D02*
X111482000Y-112451000D01*
X113562000Y-112491000D02*
X115474000Y-112491000D01*
X109570000Y-112491000D02*
X111482000Y-112491000D01*
X113562000Y-112531000D02*
X115492000Y-112531000D01*
X109552000Y-112531000D02*
X111482000Y-112531000D01*
X113562000Y-112571000D02*
X115508000Y-112571000D01*
X109536000Y-112571000D02*
X111482000Y-112571000D01*
X113562000Y-112611000D02*
X115524000Y-112611000D01*
X109520000Y-112611000D02*
X111482000Y-112611000D01*
X113562000Y-112651000D02*
X115540000Y-112651000D01*
X109504000Y-112651000D02*
X111482000Y-112651000D01*
X113562000Y-112691000D02*
X115555000Y-112691000D01*
X109489000Y-112691000D02*
X111482000Y-112691000D01*
X113562000Y-112731000D02*
X115569000Y-112731000D01*
X109475000Y-112731000D02*
X111482000Y-112731000D01*
X113562000Y-112771000D02*
X115583000Y-112771000D01*
X109461000Y-112771000D02*
X111482000Y-112771000D01*
X113562000Y-112811000D02*
X115596000Y-112811000D01*
X109448000Y-112811000D02*
X111482000Y-112811000D01*
X113562000Y-112851000D02*
X115608000Y-112851000D01*
X109436000Y-112851000D02*
X111482000Y-112851000D01*
X113562000Y-112891000D02*
X115620000Y-112891000D01*
X109424000Y-112891000D02*
X111482000Y-112891000D01*
X113562000Y-112931000D02*
X115632000Y-112931000D01*
X109412000Y-112931000D02*
X111482000Y-112931000D01*
X113562000Y-112971000D02*
X115643000Y-112971000D01*
X109401000Y-112971000D02*
X111482000Y-112971000D01*
X113562000Y-113011000D02*
X115653000Y-113011000D01*
X109391000Y-113011000D02*
X111482000Y-113011000D01*
X113562000Y-113051000D02*
X115663000Y-113051000D01*
X109381000Y-113051000D02*
X111482000Y-113051000D01*
X113562000Y-113091000D02*
X115672000Y-113091000D01*
X109372000Y-113091000D02*
X111482000Y-113091000D01*
X113562000Y-113132000D02*
X115681000Y-113132000D01*
X109363000Y-113132000D02*
X111482000Y-113132000D01*
X113562000Y-113172000D02*
X115689000Y-113172000D01*
X109355000Y-113172000D02*
X111482000Y-113172000D01*
X113562000Y-113212000D02*
X115697000Y-113212000D01*
X109347000Y-113212000D02*
X111482000Y-113212000D01*
X113562000Y-113252000D02*
X115704000Y-113252000D01*
X109340000Y-113252000D02*
X111482000Y-113252000D01*
X113562000Y-113292000D02*
X115711000Y-113292000D01*
X109333000Y-113292000D02*
X111482000Y-113292000D01*
X113562000Y-113332000D02*
X115717000Y-113332000D01*
X109327000Y-113332000D02*
X111482000Y-113332000D01*
X113562000Y-113372000D02*
X115723000Y-113372000D01*
X109321000Y-113372000D02*
X111482000Y-113372000D01*
X113562000Y-113412000D02*
X115728000Y-113412000D01*
X109316000Y-113412000D02*
X111482000Y-113412000D01*
X113562000Y-113452000D02*
X115733000Y-113452000D01*
X109311000Y-113452000D02*
X111482000Y-113452000D01*
X113562000Y-113492000D02*
X115737000Y-113492000D01*
X109307000Y-113492000D02*
X111482000Y-113492000D01*
X113562000Y-113532000D02*
X115740000Y-113532000D01*
X109304000Y-113532000D02*
X111482000Y-113532000D01*
X113562000Y-113572000D02*
X115744000Y-113572000D01*
X109300000Y-113572000D02*
X111482000Y-113572000D01*
X109298000Y-113612000D02*
X115746000Y-113612000D01*
X109295000Y-113652000D02*
X115749000Y-113652000D01*
X109294000Y-113692000D02*
X115750000Y-113692000D01*
X109292000Y-113732000D02*
X115752000Y-113732000D01*
X109292000Y-113772000D02*
X115752000Y-113772000D01*
X109292000Y-113812000D02*
X115752000Y-113812000D01*
X115792000Y-113812000D02*
G75*
G03X115792000Y-113812000I-3270000J0D01*
G01*
X100054000Y-108549000D02*
X100054000Y-108304000D01*
X100054000Y-110644000D02*
X100054000Y-110399000D01*
X103694000Y-108549000D02*
X103694000Y-108304000D01*
X103694000Y-110644000D02*
X103694000Y-110399000D01*
X103694000Y-108304000D02*
X100054000Y-108304000D01*
X103694000Y-110644000D02*
X100054000Y-110644000D01*
X93806000Y-94428000D02*
X88566000Y-94428000D01*
X93806000Y-81688000D02*
X88566000Y-81688000D01*
X88566000Y-81688000D02*
X88566000Y-94428000D01*
X93806000Y-81688000D02*
X93806000Y-94428000D01*
X100724354Y-99241000D02*
X100724354Y-100241000D01*
X100224354Y-99741000D02*
X101224354Y-99741000D01*
X110785000Y-102017000D02*
X110785000Y-103215000D01*
X110745000Y-101754000D02*
X110745000Y-103478000D01*
X110705000Y-101554000D02*
X110705000Y-103678000D01*
X110665000Y-101386000D02*
X110665000Y-103846000D01*
X110625000Y-101238000D02*
X110625000Y-103994000D01*
X110585000Y-101106000D02*
X110585000Y-104126000D01*
X110545000Y-100986000D02*
X110545000Y-104246000D01*
X110505000Y-100874000D02*
X110505000Y-104358000D01*
X110465000Y-100770000D02*
X110465000Y-104462000D01*
X110425000Y-100672000D02*
X110425000Y-104560000D01*
X110385000Y-100579000D02*
X110385000Y-104653000D01*
X110345000Y-100491000D02*
X110345000Y-104741000D01*
X110305000Y-100407000D02*
X110305000Y-104825000D01*
X110265000Y-100327000D02*
X110265000Y-104905000D01*
X110225000Y-100251000D02*
X110225000Y-104981000D01*
X110185000Y-100177000D02*
X110185000Y-105055000D01*
X110145000Y-100106000D02*
X110145000Y-105126000D01*
X110105000Y-100037000D02*
X110105000Y-105195000D01*
X110065000Y-99971000D02*
X110065000Y-105261000D01*
X110025000Y-99907000D02*
X110025000Y-105325000D01*
X109985000Y-99846000D02*
X109985000Y-105386000D01*
X109945000Y-99786000D02*
X109945000Y-105446000D01*
X109905000Y-99727000D02*
X109905000Y-105505000D01*
X109865000Y-99671000D02*
X109865000Y-105561000D01*
X109825000Y-99616000D02*
X109825000Y-105616000D01*
X109785000Y-99562000D02*
X109785000Y-105670000D01*
X109745000Y-99510000D02*
X109745000Y-105722000D01*
X109705000Y-99460000D02*
X109705000Y-105772000D01*
X109665000Y-99410000D02*
X109665000Y-105822000D01*
X109625000Y-99362000D02*
X109625000Y-105870000D01*
X109585000Y-99315000D02*
X109585000Y-105917000D01*
X109545000Y-99269000D02*
X109545000Y-105963000D01*
X109505000Y-99224000D02*
X109505000Y-106008000D01*
X109465000Y-99180000D02*
X109465000Y-106052000D01*
X109425000Y-103857000D02*
X109425000Y-106094000D01*
X109425000Y-99138000D02*
X109425000Y-101375000D01*
X109385000Y-103857000D02*
X109385000Y-106136000D01*
X109385000Y-99096000D02*
X109385000Y-101375000D01*
X109345000Y-103857000D02*
X109345000Y-106177000D01*
X109345000Y-99055000D02*
X109345000Y-101375000D01*
X109305000Y-103857000D02*
X109305000Y-106217000D01*
X109305000Y-99015000D02*
X109305000Y-101375000D01*
X109265000Y-103857000D02*
X109265000Y-106256000D01*
X109265000Y-98976000D02*
X109265000Y-101375000D01*
X109225000Y-103857000D02*
X109225000Y-106295000D01*
X109225000Y-98937000D02*
X109225000Y-101375000D01*
X109185000Y-103857000D02*
X109185000Y-106332000D01*
X109185000Y-98900000D02*
X109185000Y-101375000D01*
X109145000Y-103857000D02*
X109145000Y-106369000D01*
X109145000Y-98863000D02*
X109145000Y-101375000D01*
X109105000Y-103857000D02*
X109105000Y-106405000D01*
X109105000Y-98827000D02*
X109105000Y-101375000D01*
X109065000Y-103857000D02*
X109065000Y-106440000D01*
X109065000Y-98792000D02*
X109065000Y-101375000D01*
X109025000Y-103857000D02*
X109025000Y-106474000D01*
X109025000Y-98758000D02*
X109025000Y-101375000D01*
X108985000Y-103857000D02*
X108985000Y-106508000D01*
X108985000Y-98724000D02*
X108985000Y-101375000D01*
X108945000Y-103857000D02*
X108945000Y-106541000D01*
X108945000Y-98691000D02*
X108945000Y-101375000D01*
X108905000Y-103857000D02*
X108905000Y-106573000D01*
X108905000Y-98659000D02*
X108905000Y-101375000D01*
X108865000Y-103857000D02*
X108865000Y-106605000D01*
X108865000Y-98627000D02*
X108865000Y-101375000D01*
X108825000Y-103857000D02*
X108825000Y-106636000D01*
X108825000Y-98596000D02*
X108825000Y-101375000D01*
X108785000Y-103857000D02*
X108785000Y-106666000D01*
X108785000Y-98566000D02*
X108785000Y-101375000D01*
X108745000Y-103857000D02*
X108745000Y-106696000D01*
X108745000Y-98536000D02*
X108745000Y-101375000D01*
X108705000Y-103857000D02*
X108705000Y-106726000D01*
X108705000Y-98506000D02*
X108705000Y-101375000D01*
X108665000Y-103857000D02*
X108665000Y-106754000D01*
X108665000Y-98478000D02*
X108665000Y-101375000D01*
X108625000Y-103857000D02*
X108625000Y-106782000D01*
X108625000Y-98450000D02*
X108625000Y-101375000D01*
X108585000Y-103857000D02*
X108585000Y-106810000D01*
X108585000Y-98422000D02*
X108585000Y-101375000D01*
X108545000Y-103857000D02*
X108545000Y-106837000D01*
X108545000Y-98395000D02*
X108545000Y-101375000D01*
X108505000Y-103857000D02*
X108505000Y-106863000D01*
X108505000Y-98369000D02*
X108505000Y-101375000D01*
X108465000Y-103857000D02*
X108465000Y-106889000D01*
X108465000Y-98343000D02*
X108465000Y-101375000D01*
X108425000Y-103857000D02*
X108425000Y-106914000D01*
X108425000Y-98318000D02*
X108425000Y-101375000D01*
X108385000Y-103857000D02*
X108385000Y-106939000D01*
X108385000Y-98293000D02*
X108385000Y-101375000D01*
X108345000Y-103857000D02*
X108345000Y-106963000D01*
X108345000Y-98269000D02*
X108345000Y-101375000D01*
X108305000Y-103857000D02*
X108305000Y-106987000D01*
X108305000Y-98245000D02*
X108305000Y-101375000D01*
X108265000Y-103857000D02*
X108265000Y-107011000D01*
X108265000Y-98221000D02*
X108265000Y-101375000D01*
X108225000Y-103857000D02*
X108225000Y-107033000D01*
X108225000Y-98199000D02*
X108225000Y-101375000D01*
X108185000Y-103857000D02*
X108185000Y-107056000D01*
X108185000Y-98176000D02*
X108185000Y-101375000D01*
X108145000Y-103857000D02*
X108145000Y-107078000D01*
X108145000Y-98154000D02*
X108145000Y-101375000D01*
X108105000Y-103857000D02*
X108105000Y-107099000D01*
X108105000Y-98133000D02*
X108105000Y-101375000D01*
X108065000Y-103857000D02*
X108065000Y-107120000D01*
X108065000Y-98112000D02*
X108065000Y-101375000D01*
X108025000Y-103857000D02*
X108025000Y-107141000D01*
X108025000Y-98091000D02*
X108025000Y-101375000D01*
X107985000Y-103857000D02*
X107985000Y-107161000D01*
X107985000Y-98071000D02*
X107985000Y-101375000D01*
X107945000Y-103857000D02*
X107945000Y-107180000D01*
X107945000Y-98052000D02*
X107945000Y-101375000D01*
X107905000Y-103857000D02*
X107905000Y-107200000D01*
X107905000Y-98032000D02*
X107905000Y-101375000D01*
X107865000Y-103857000D02*
X107865000Y-107219000D01*
X107865000Y-98013000D02*
X107865000Y-101375000D01*
X107825000Y-103857000D02*
X107825000Y-107237000D01*
X107825000Y-97995000D02*
X107825000Y-101375000D01*
X107785000Y-103857000D02*
X107785000Y-107255000D01*
X107785000Y-97977000D02*
X107785000Y-101375000D01*
X107745000Y-103857000D02*
X107745000Y-107273000D01*
X107745000Y-97959000D02*
X107745000Y-101375000D01*
X107705000Y-103857000D02*
X107705000Y-107290000D01*
X107705000Y-97942000D02*
X107705000Y-101375000D01*
X107665000Y-103857000D02*
X107665000Y-107306000D01*
X107665000Y-97926000D02*
X107665000Y-101375000D01*
X107625000Y-103857000D02*
X107625000Y-107323000D01*
X107625000Y-97909000D02*
X107625000Y-101375000D01*
X107585000Y-103857000D02*
X107585000Y-107339000D01*
X107585000Y-97893000D02*
X107585000Y-101375000D01*
X107545000Y-103857000D02*
X107545000Y-107354000D01*
X107545000Y-97878000D02*
X107545000Y-101375000D01*
X107505000Y-103857000D02*
X107505000Y-107370000D01*
X107505000Y-97862000D02*
X107505000Y-101375000D01*
X107465000Y-103857000D02*
X107465000Y-107384000D01*
X107465000Y-97848000D02*
X107465000Y-101375000D01*
X107425000Y-103857000D02*
X107425000Y-107399000D01*
X107425000Y-97833000D02*
X107425000Y-101375000D01*
X107385000Y-103857000D02*
X107385000Y-107413000D01*
X107385000Y-97819000D02*
X107385000Y-101375000D01*
X107345000Y-103857000D02*
X107345000Y-107427000D01*
X107345000Y-97805000D02*
X107345000Y-101375000D01*
X107305000Y-103857000D02*
X107305000Y-107440000D01*
X107305000Y-97792000D02*
X107305000Y-101375000D01*
X107265000Y-103857000D02*
X107265000Y-107453000D01*
X107265000Y-97779000D02*
X107265000Y-101375000D01*
X107225000Y-103857000D02*
X107225000Y-107466000D01*
X107225000Y-97766000D02*
X107225000Y-101375000D01*
X107185000Y-103857000D02*
X107185000Y-107478000D01*
X107185000Y-97754000D02*
X107185000Y-101375000D01*
X107145000Y-103857000D02*
X107145000Y-107490000D01*
X107145000Y-97742000D02*
X107145000Y-101375000D01*
X107105000Y-103857000D02*
X107105000Y-107501000D01*
X107105000Y-97731000D02*
X107105000Y-101375000D01*
X107065000Y-103857000D02*
X107065000Y-107513000D01*
X107065000Y-97719000D02*
X107065000Y-101375000D01*
X107025000Y-103857000D02*
X107025000Y-107523000D01*
X107025000Y-97709000D02*
X107025000Y-101375000D01*
X106985000Y-103857000D02*
X106985000Y-107534000D01*
X106985000Y-97698000D02*
X106985000Y-101375000D01*
X106945000Y-97688000D02*
X106945000Y-107544000D01*
X106905000Y-97678000D02*
X106905000Y-107554000D01*
X106865000Y-97669000D02*
X106865000Y-107563000D01*
X106825000Y-97660000D02*
X106825000Y-107572000D01*
X106785000Y-97651000D02*
X106785000Y-107581000D01*
X106745000Y-97642000D02*
X106745000Y-107590000D01*
X106705000Y-97634000D02*
X106705000Y-107598000D01*
X106665000Y-97626000D02*
X106665000Y-107606000D01*
X106625000Y-97619000D02*
X106625000Y-107613000D01*
X106585000Y-97612000D02*
X106585000Y-107620000D01*
X106545000Y-97605000D02*
X106545000Y-107627000D01*
X106505000Y-97598000D02*
X106505000Y-107634000D01*
X106465000Y-97592000D02*
X106465000Y-107640000D01*
X106425000Y-97586000D02*
X106425000Y-107646000D01*
X106384000Y-97581000D02*
X106384000Y-107651000D01*
X106344000Y-97576000D02*
X106344000Y-107656000D01*
X106304000Y-97571000D02*
X106304000Y-107661000D01*
X106264000Y-97566000D02*
X106264000Y-107666000D01*
X106224000Y-97562000D02*
X106224000Y-107670000D01*
X106184000Y-97558000D02*
X106184000Y-107674000D01*
X106144000Y-97554000D02*
X106144000Y-107678000D01*
X106104000Y-97551000D02*
X106104000Y-107681000D01*
X106064000Y-97548000D02*
X106064000Y-107684000D01*
X106024000Y-97546000D02*
X106024000Y-107686000D01*
X105984000Y-97543000D02*
X105984000Y-107689000D01*
X105944000Y-97541000D02*
X105944000Y-107691000D01*
X105904000Y-97539000D02*
X105904000Y-107693000D01*
X105864000Y-97538000D02*
X105864000Y-107694000D01*
X105824000Y-97537000D02*
X105824000Y-107695000D01*
X105784000Y-97536000D02*
X105784000Y-107696000D01*
X105744000Y-97536000D02*
X105744000Y-107696000D01*
X105704000Y-97536000D02*
X105704000Y-107696000D01*
X110824000Y-102616000D02*
G75*
G03X110824000Y-102616000I-5120000J0D01*
G01*
D12*
X101877904Y-116022380D02*
X101877904Y-115022380D01*
X102116000Y-115022380D01*
X102258857Y-115070000D01*
X102354095Y-115165238D01*
X102401714Y-115260476D01*
X102449333Y-115450952D01*
X102449333Y-115593809D01*
X102401714Y-115784285D01*
X102354095Y-115879523D01*
X102258857Y-115974761D01*
X102116000Y-116022380D01*
X101877904Y-116022380D01*
X102830285Y-115117619D02*
X102877904Y-115070000D01*
X102973142Y-115022380D01*
X103211238Y-115022380D01*
X103306476Y-115070000D01*
X103354095Y-115117619D01*
X103401714Y-115212857D01*
X103401714Y-115308095D01*
X103354095Y-115450952D01*
X102782666Y-116022380D01*
X103401714Y-116022380D01*
X113307904Y-97226380D02*
X113307904Y-96226380D01*
X113546000Y-96226380D01*
X113688857Y-96274000D01*
X113784095Y-96369238D01*
X113831714Y-96464476D01*
X113879333Y-96654952D01*
X113879333Y-96797809D01*
X113831714Y-96988285D01*
X113784095Y-97083523D01*
X113688857Y-97178761D01*
X113546000Y-97226380D01*
X113307904Y-97226380D01*
X114831714Y-97226380D02*
X114260285Y-97226380D01*
X114546000Y-97226380D02*
X114546000Y-96226380D01*
X114450761Y-96369238D01*
X114355523Y-96464476D01*
X114260285Y-96512095D01*
X116276380Y-101155428D02*
X116276380Y-100964952D01*
X116228761Y-100869714D01*
X116181142Y-100822095D01*
X116038285Y-100726857D01*
X115847809Y-100679238D01*
X115466857Y-100679238D01*
X115371619Y-100726857D01*
X115324000Y-100774476D01*
X115276380Y-100869714D01*
X115276380Y-101060190D01*
X115324000Y-101155428D01*
X115371619Y-101203047D01*
X115466857Y-101250666D01*
X115704952Y-101250666D01*
X115800190Y-101203047D01*
X115847809Y-101155428D01*
X115895428Y-101060190D01*
X115895428Y-100869714D01*
X115847809Y-100774476D01*
X115800190Y-100726857D01*
X115704952Y-100679238D01*
X115609714Y-100345904D02*
X116276380Y-100107809D01*
X115609714Y-99869714D01*
X109148571Y-87455142D02*
X109196190Y-87312285D01*
X109243809Y-87264666D01*
X109339047Y-87217047D01*
X109481904Y-87217047D01*
X109577142Y-87264666D01*
X109624761Y-87312285D01*
X109672380Y-87407523D01*
X109672380Y-87788476D01*
X108672380Y-87788476D01*
X108672380Y-87455142D01*
X108720000Y-87359904D01*
X108767619Y-87312285D01*
X108862857Y-87264666D01*
X108958095Y-87264666D01*
X109053333Y-87312285D01*
X109100952Y-87359904D01*
X109148571Y-87455142D01*
X109148571Y-87788476D01*
X109577142Y-86217047D02*
X109624761Y-86264666D01*
X109672380Y-86407523D01*
X109672380Y-86502761D01*
X109624761Y-86645619D01*
X109529523Y-86740857D01*
X109434285Y-86788476D01*
X109243809Y-86836095D01*
X109100952Y-86836095D01*
X108910476Y-86788476D01*
X108815238Y-86740857D01*
X108720000Y-86645619D01*
X108672380Y-86502761D01*
X108672380Y-86407523D01*
X108720000Y-86264666D01*
X108767619Y-86217047D01*
X108672380Y-85312285D02*
X108672380Y-85788476D01*
X109148571Y-85836095D01*
X109100952Y-85788476D01*
X109053333Y-85693238D01*
X109053333Y-85455142D01*
X109100952Y-85359904D01*
X109148571Y-85312285D01*
X109243809Y-85264666D01*
X109481904Y-85264666D01*
X109577142Y-85312285D01*
X109624761Y-85359904D01*
X109672380Y-85455142D01*
X109672380Y-85693238D01*
X109624761Y-85788476D01*
X109577142Y-85836095D01*
X109005714Y-84407523D02*
X109672380Y-84407523D01*
X108624761Y-84645619D02*
X109339047Y-84883714D01*
X109339047Y-84264666D01*
X108672380Y-83978952D02*
X108672380Y-83312285D01*
X109672380Y-83740857D01*
X118816380Y-114442666D02*
X118340190Y-114776000D01*
X118816380Y-115014095D02*
X117816380Y-115014095D01*
X117816380Y-114633142D01*
X117864000Y-114537904D01*
X117911619Y-114490285D01*
X118006857Y-114442666D01*
X118149714Y-114442666D01*
X118244952Y-114490285D01*
X118292571Y-114537904D01*
X118340190Y-114633142D01*
X118340190Y-115014095D01*
X118149714Y-112823619D02*
X118816380Y-112823619D01*
X117768761Y-113061714D02*
X118483047Y-113299809D01*
X118483047Y-112680761D01*
X118721142Y-112299809D02*
X118768761Y-112252190D01*
X118816380Y-112299809D01*
X118768761Y-112347428D01*
X118721142Y-112299809D01*
X118816380Y-112299809D01*
X117816380Y-111918857D02*
X117816380Y-111252190D01*
X118816380Y-111680761D01*
X118816380Y-110871238D02*
X117816380Y-110871238D01*
X118435428Y-110776000D02*
X118816380Y-110490285D01*
X118149714Y-110490285D02*
X118530666Y-110871238D01*
X97147333Y-85034380D02*
X97147333Y-84034380D01*
X97718761Y-85034380D01*
X97718761Y-84034380D01*
X98194952Y-84510571D02*
X98528285Y-84510571D01*
X98671142Y-85034380D02*
X98194952Y-85034380D01*
X98194952Y-84034380D01*
X98671142Y-84034380D01*
X99575904Y-84034380D02*
X99099714Y-84034380D01*
X99052095Y-84510571D01*
X99099714Y-84462952D01*
X99194952Y-84415333D01*
X99433047Y-84415333D01*
X99528285Y-84462952D01*
X99575904Y-84510571D01*
X99623523Y-84605809D01*
X99623523Y-84843904D01*
X99575904Y-84939142D01*
X99528285Y-84986761D01*
X99433047Y-85034380D01*
X99194952Y-85034380D01*
X99099714Y-84986761D01*
X99052095Y-84939142D01*
X100528285Y-84034380D02*
X100052095Y-84034380D01*
X100004476Y-84510571D01*
X100052095Y-84462952D01*
X100147333Y-84415333D01*
X100385428Y-84415333D01*
X100480666Y-84462952D01*
X100528285Y-84510571D01*
X100575904Y-84605809D01*
X100575904Y-84843904D01*
X100528285Y-84939142D01*
X100480666Y-84986761D01*
X100385428Y-85034380D01*
X100147333Y-85034380D01*
X100052095Y-84986761D01*
X100004476Y-84939142D01*
X101480666Y-84034380D02*
X101004476Y-84034380D01*
X100956857Y-84510571D01*
X101004476Y-84462952D01*
X101099714Y-84415333D01*
X101337809Y-84415333D01*
X101433047Y-84462952D01*
X101480666Y-84510571D01*
X101528285Y-84605809D01*
X101528285Y-84843904D01*
X101480666Y-84939142D01*
X101433047Y-84986761D01*
X101337809Y-85034380D01*
X101099714Y-85034380D01*
X101004476Y-84986761D01*
X100956857Y-84939142D01*
X111022095Y-87066380D02*
X111022095Y-86066380D01*
X111403047Y-86066380D01*
X111498285Y-86114000D01*
X111545904Y-86161619D01*
X111593523Y-86256857D01*
X111593523Y-86399714D01*
X111545904Y-86494952D01*
X111498285Y-86542571D01*
X111403047Y-86590190D01*
X111022095Y-86590190D01*
X112164952Y-87066380D02*
X112069714Y-87018761D01*
X112022095Y-86971142D01*
X111974476Y-86875904D01*
X111974476Y-86590190D01*
X112022095Y-86494952D01*
X112069714Y-86447333D01*
X112164952Y-86399714D01*
X112307809Y-86399714D01*
X112403047Y-86447333D01*
X112450666Y-86494952D01*
X112498285Y-86590190D01*
X112498285Y-86875904D01*
X112450666Y-86971142D01*
X112403047Y-87018761D01*
X112307809Y-87066380D01*
X112164952Y-87066380D01*
X112784000Y-86399714D02*
X113164952Y-86399714D01*
X112926857Y-86066380D02*
X112926857Y-86923523D01*
X112974476Y-87018761D01*
X113069714Y-87066380D01*
X113164952Y-87066380D01*
X114784000Y-87066380D02*
X114212571Y-87066380D01*
X114498285Y-87066380D02*
X114498285Y-86066380D01*
X114403047Y-86209238D01*
X114307809Y-86304476D01*
X114212571Y-86352095D01*
X115212571Y-87066380D02*
X115212571Y-86066380D01*
X115307809Y-86685428D02*
X115593523Y-87066380D01*
X115593523Y-86399714D02*
X115212571Y-86780666D01*
X113054000Y-80208380D02*
X112720666Y-79732190D01*
X112482571Y-80208380D02*
X112482571Y-79208380D01*
X112863523Y-79208380D01*
X112958761Y-79256000D01*
X113006380Y-79303619D01*
X113054000Y-79398857D01*
X113054000Y-79541714D01*
X113006380Y-79636952D01*
X112958761Y-79684571D01*
X112863523Y-79732190D01*
X112482571Y-79732190D01*
X114673047Y-79541714D02*
X114673047Y-80208380D01*
X114434952Y-79160761D02*
X114196857Y-79875047D01*
X114815904Y-79875047D01*
X115101619Y-79208380D02*
X115768285Y-79208380D01*
X115339714Y-80208380D01*
X116339714Y-79208380D02*
X116434952Y-79208380D01*
X116530190Y-79256000D01*
X116577809Y-79303619D01*
X116625428Y-79398857D01*
X116673047Y-79589333D01*
X116673047Y-79827428D01*
X116625428Y-80017904D01*
X116577809Y-80113142D01*
X116530190Y-80160761D01*
X116434952Y-80208380D01*
X116339714Y-80208380D01*
X116244476Y-80160761D01*
X116196857Y-80113142D01*
X116149238Y-80017904D01*
X116101619Y-79827428D01*
X116101619Y-79589333D01*
X116149238Y-79398857D01*
X116196857Y-79303619D01*
X116244476Y-79256000D01*
X116339714Y-79208380D01*
X113482380Y-105409809D02*
X113006190Y-105743142D01*
X113482380Y-105981238D02*
X112482380Y-105981238D01*
X112482380Y-105600285D01*
X112530000Y-105505047D01*
X112577619Y-105457428D01*
X112672857Y-105409809D01*
X112815714Y-105409809D01*
X112910952Y-105457428D01*
X112958571Y-105505047D01*
X113006190Y-105600285D01*
X113006190Y-105981238D01*
X112577619Y-105028857D02*
X112530000Y-104981238D01*
X112482380Y-104886000D01*
X112482380Y-104647904D01*
X112530000Y-104552666D01*
X112577619Y-104505047D01*
X112672857Y-104457428D01*
X112768095Y-104457428D01*
X112910952Y-104505047D01*
X113482380Y-105076476D01*
X113482380Y-104457428D01*
X112577619Y-104076476D02*
X112530000Y-104028857D01*
X112482380Y-103933619D01*
X112482380Y-103695523D01*
X112530000Y-103600285D01*
X112577619Y-103552666D01*
X112672857Y-103505047D01*
X112768095Y-103505047D01*
X112910952Y-103552666D01*
X113482380Y-104124095D01*
X113482380Y-103505047D01*
X112482380Y-102886000D02*
X112482380Y-102790761D01*
X112530000Y-102695523D01*
X112577619Y-102647904D01*
X112672857Y-102600285D01*
X112863333Y-102552666D01*
X113101428Y-102552666D01*
X113291904Y-102600285D01*
X113387142Y-102647904D01*
X113434761Y-102695523D01*
X113482380Y-102790761D01*
X113482380Y-102886000D01*
X113434761Y-102981238D01*
X113387142Y-103028857D01*
X113291904Y-103076476D01*
X113101428Y-103124095D01*
X112863333Y-103124095D01*
X112672857Y-103076476D01*
X112577619Y-103028857D01*
X112530000Y-102981238D01*
X112482380Y-102886000D01*
X113482380Y-102124095D02*
X112482380Y-102124095D01*
X113101428Y-102028857D02*
X113482380Y-101743142D01*
X112815714Y-101743142D02*
X113196666Y-102124095D01*
X101663619Y-112974380D02*
X101330285Y-112498190D01*
X101092190Y-112974380D02*
X101092190Y-111974380D01*
X101473142Y-111974380D01*
X101568380Y-112022000D01*
X101616000Y-112069619D01*
X101663619Y-112164857D01*
X101663619Y-112307714D01*
X101616000Y-112402952D01*
X101568380Y-112450571D01*
X101473142Y-112498190D01*
X101092190Y-112498190D01*
X103377904Y-112974380D02*
X102806476Y-112974380D01*
X103092190Y-112974380D02*
X103092190Y-111974380D01*
X102996952Y-112117238D01*
X102901714Y-112212476D01*
X102806476Y-112260095D01*
X103806476Y-112974380D02*
X103806476Y-111974380D01*
X103901714Y-112593428D02*
X104187428Y-112974380D01*
X104187428Y-112307714D02*
X103806476Y-112688666D01*
X113601619Y-93924380D02*
X113268285Y-93448190D01*
X113030190Y-93924380D02*
X113030190Y-92924380D01*
X113411142Y-92924380D01*
X113506380Y-92972000D01*
X113554000Y-93019619D01*
X113601619Y-93114857D01*
X113601619Y-93257714D01*
X113554000Y-93352952D01*
X113506380Y-93400571D01*
X113411142Y-93448190D01*
X113030190Y-93448190D01*
X115315904Y-93924380D02*
X114744476Y-93924380D01*
X115030190Y-93924380D02*
X115030190Y-92924380D01*
X114934952Y-93067238D01*
X114839714Y-93162476D01*
X114744476Y-93210095D01*
X115744476Y-93924380D02*
X115744476Y-92924380D01*
X115839714Y-93543428D02*
X116125428Y-93924380D01*
X116125428Y-93257714D02*
X115744476Y-93638666D01*
X103187619Y-80208380D02*
X102854285Y-79732190D01*
X102616190Y-80208380D02*
X102616190Y-79208380D01*
X102997142Y-79208380D01*
X103092380Y-79256000D01*
X103140000Y-79303619D01*
X103187619Y-79398857D01*
X103187619Y-79541714D01*
X103140000Y-79636952D01*
X103092380Y-79684571D01*
X102997142Y-79732190D01*
X102616190Y-79732190D01*
X104901904Y-80208380D02*
X104330476Y-80208380D01*
X104616190Y-80208380D02*
X104616190Y-79208380D01*
X104520952Y-79351238D01*
X104425714Y-79446476D01*
X104330476Y-79494095D01*
X105330476Y-80208380D02*
X105330476Y-79208380D01*
X105425714Y-79827428D02*
X105711428Y-80208380D01*
X105711428Y-79541714D02*
X105330476Y-79922666D01*
X92805428Y-80208380D02*
X92472095Y-79732190D01*
X92234000Y-80208380D02*
X92234000Y-79208380D01*
X92614952Y-79208380D01*
X92710190Y-79256000D01*
X92757809Y-79303619D01*
X92805428Y-79398857D01*
X92805428Y-79541714D01*
X92757809Y-79636952D01*
X92710190Y-79684571D01*
X92614952Y-79732190D01*
X92234000Y-79732190D01*
X94519714Y-80208380D02*
X93948285Y-80208380D01*
X94234000Y-80208380D02*
X94234000Y-79208380D01*
X94138761Y-79351238D01*
X94043523Y-79446476D01*
X93948285Y-79494095D01*
X95138761Y-79208380D02*
X95234000Y-79208380D01*
X95329238Y-79256000D01*
X95376857Y-79303619D01*
X95424476Y-79398857D01*
X95472095Y-79589333D01*
X95472095Y-79827428D01*
X95424476Y-80017904D01*
X95376857Y-80113142D01*
X95329238Y-80160761D01*
X95234000Y-80208380D01*
X95138761Y-80208380D01*
X95043523Y-80160761D01*
X94995904Y-80113142D01*
X94948285Y-80017904D01*
X94900666Y-79827428D01*
X94900666Y-79589333D01*
X94948285Y-79398857D01*
X94995904Y-79303619D01*
X95043523Y-79256000D01*
X95138761Y-79208380D01*
X95900666Y-80208380D02*
X95900666Y-79208380D01*
X95995904Y-79827428D02*
X96281619Y-80208380D01*
X96281619Y-79541714D02*
X95900666Y-79922666D01*
X97885428Y-94432380D02*
X97552095Y-93956190D01*
X97314000Y-94432380D02*
X97314000Y-93432380D01*
X97694952Y-93432380D01*
X97790190Y-93480000D01*
X97837809Y-93527619D01*
X97885428Y-93622857D01*
X97885428Y-93765714D01*
X97837809Y-93860952D01*
X97790190Y-93908571D01*
X97694952Y-93956190D01*
X97314000Y-93956190D01*
X98980666Y-93432380D02*
X99599714Y-93432380D01*
X99266380Y-93813333D01*
X99409238Y-93813333D01*
X99504476Y-93860952D01*
X99552095Y-93908571D01*
X99599714Y-94003809D01*
X99599714Y-94241904D01*
X99552095Y-94337142D01*
X99504476Y-94384761D01*
X99409238Y-94432380D01*
X99123523Y-94432380D01*
X99028285Y-94384761D01*
X98980666Y-94337142D01*
X99933047Y-93432380D02*
X100552095Y-93432380D01*
X100218761Y-93813333D01*
X100361619Y-93813333D01*
X100456857Y-93860952D01*
X100504476Y-93908571D01*
X100552095Y-94003809D01*
X100552095Y-94241904D01*
X100504476Y-94337142D01*
X100456857Y-94384761D01*
X100361619Y-94432380D01*
X100075904Y-94432380D01*
X99980666Y-94384761D01*
X99933047Y-94337142D01*
X100980666Y-94432380D02*
X100980666Y-93432380D01*
X101075904Y-94051428D02*
X101361619Y-94432380D01*
X101361619Y-93765714D02*
X100980666Y-94146666D01*
X93908857Y-102814380D02*
X93908857Y-101814380D01*
X94956476Y-102814380D02*
X94623142Y-102338190D01*
X94385047Y-102814380D02*
X94385047Y-101814380D01*
X94766000Y-101814380D01*
X94861238Y-101862000D01*
X94908857Y-101909619D01*
X94956476Y-102004857D01*
X94956476Y-102147714D01*
X94908857Y-102242952D01*
X94861238Y-102290571D01*
X94766000Y-102338190D01*
X94385047Y-102338190D01*
X95718380Y-102290571D02*
X95385047Y-102290571D01*
X95385047Y-102814380D02*
X95385047Y-101814380D01*
X95861238Y-101814380D01*
X96146952Y-101814380D02*
X96813619Y-101814380D01*
X96385047Y-102814380D01*
X97623142Y-102147714D02*
X97623142Y-102814380D01*
X97385047Y-101766761D02*
X97146952Y-102481047D01*
X97766000Y-102481047D01*
X98337428Y-101814380D02*
X98432666Y-101814380D01*
X98527904Y-101862000D01*
X98575523Y-101909619D01*
X98623142Y-102004857D01*
X98670761Y-102195333D01*
X98670761Y-102433428D01*
X98623142Y-102623904D01*
X98575523Y-102719142D01*
X98527904Y-102766761D01*
X98432666Y-102814380D01*
X98337428Y-102814380D01*
X98242190Y-102766761D01*
X98194571Y-102719142D01*
X98146952Y-102623904D01*
X98099333Y-102433428D01*
X98099333Y-102195333D01*
X98146952Y-102004857D01*
X98194571Y-101909619D01*
X98242190Y-101862000D01*
X98337428Y-101814380D01*
X109418380Y-95654476D02*
X108418380Y-95654476D01*
X109132666Y-95321142D01*
X108418380Y-94987809D01*
X109418380Y-94987809D01*
X109418380Y-94511619D02*
X108418380Y-94511619D01*
X108418380Y-94130666D01*
X108466000Y-94035428D01*
X108513619Y-93987809D01*
X108608857Y-93940190D01*
X108751714Y-93940190D01*
X108846952Y-93987809D01*
X108894571Y-94035428D01*
X108942190Y-94130666D01*
X108942190Y-94511619D01*
X109370761Y-93559238D02*
X109418380Y-93416380D01*
X109418380Y-93178285D01*
X109370761Y-93083047D01*
X109323142Y-93035428D01*
X109227904Y-92987809D01*
X109132666Y-92987809D01*
X109037428Y-93035428D01*
X108989809Y-93083047D01*
X108942190Y-93178285D01*
X108894571Y-93368761D01*
X108846952Y-93464000D01*
X108799333Y-93511619D01*
X108704095Y-93559238D01*
X108608857Y-93559238D01*
X108513619Y-93511619D01*
X108466000Y-93464000D01*
X108418380Y-93368761D01*
X108418380Y-93130666D01*
X108466000Y-92987809D01*
X109132666Y-92606857D02*
X109132666Y-92130666D01*
X109418380Y-92702095D02*
X108418380Y-92368761D01*
X109418380Y-92035428D01*
X108418380Y-91225904D02*
X108418380Y-91702095D01*
X108894571Y-91749714D01*
X108846952Y-91702095D01*
X108799333Y-91606857D01*
X108799333Y-91368761D01*
X108846952Y-91273523D01*
X108894571Y-91225904D01*
X108989809Y-91178285D01*
X109227904Y-91178285D01*
X109323142Y-91225904D01*
X109370761Y-91273523D01*
X109418380Y-91368761D01*
X109418380Y-91606857D01*
X109370761Y-91702095D01*
X109323142Y-91749714D01*
X108418380Y-90273523D02*
X108418380Y-90749714D01*
X108894571Y-90797333D01*
X108846952Y-90749714D01*
X108799333Y-90654476D01*
X108799333Y-90416380D01*
X108846952Y-90321142D01*
X108894571Y-90273523D01*
X108989809Y-90225904D01*
X109227904Y-90225904D01*
X109323142Y-90273523D01*
X109370761Y-90321142D01*
X109418380Y-90416380D01*
X109418380Y-90654476D01*
X109370761Y-90749714D01*
X109323142Y-90797333D01*
X91575142Y-115768380D02*
X91003714Y-115768380D01*
X91289428Y-115768380D02*
X91289428Y-114768380D01*
X91194190Y-114911238D01*
X91098952Y-115006476D01*
X91003714Y-115054095D01*
X92194190Y-114768380D02*
X92289428Y-114768380D01*
X92384666Y-114816000D01*
X92432285Y-114863619D01*
X92479904Y-114958857D01*
X92527523Y-115149333D01*
X92527523Y-115387428D01*
X92479904Y-115577904D01*
X92432285Y-115673142D01*
X92384666Y-115720761D01*
X92289428Y-115768380D01*
X92194190Y-115768380D01*
X92098952Y-115720761D01*
X92051333Y-115673142D01*
X92003714Y-115577904D01*
X91956095Y-115387428D01*
X91956095Y-115149333D01*
X92003714Y-114958857D01*
X92051333Y-114863619D01*
X92098952Y-114816000D01*
X92194190Y-114768380D01*
X93146571Y-114768380D02*
X93241809Y-114768380D01*
X93337047Y-114816000D01*
X93384666Y-114863619D01*
X93432285Y-114958857D01*
X93479904Y-115149333D01*
X93479904Y-115387428D01*
X93432285Y-115577904D01*
X93384666Y-115673142D01*
X93337047Y-115720761D01*
X93241809Y-115768380D01*
X93146571Y-115768380D01*
X93051333Y-115720761D01*
X93003714Y-115673142D01*
X92956095Y-115577904D01*
X92908476Y-115387428D01*
X92908476Y-115149333D01*
X92956095Y-114958857D01*
X93003714Y-114863619D01*
X93051333Y-114816000D01*
X93146571Y-114768380D01*
X94337047Y-115101714D02*
X94337047Y-115768380D01*
X93908476Y-115101714D02*
X93908476Y-115625523D01*
X93956095Y-115720761D01*
X94051333Y-115768380D01*
X94194190Y-115768380D01*
X94289428Y-115720761D01*
X94337047Y-115673142D01*
X94813238Y-115768380D02*
X94813238Y-114768380D01*
X94813238Y-115244571D02*
X95384666Y-115244571D01*
X95384666Y-115768380D02*
X95384666Y-114768380D01*
X115276380Y-108425809D02*
X116276380Y-108092476D01*
X115276380Y-107759142D01*
X116276380Y-107282952D02*
X116228761Y-107378190D01*
X116181142Y-107425809D01*
X116085904Y-107473428D01*
X115800190Y-107473428D01*
X115704952Y-107425809D01*
X115657333Y-107378190D01*
X115609714Y-107282952D01*
X115609714Y-107140095D01*
X115657333Y-107044857D01*
X115704952Y-106997238D01*
X115800190Y-106949619D01*
X116085904Y-106949619D01*
X116181142Y-106997238D01*
X116228761Y-107044857D01*
X116276380Y-107140095D01*
X116276380Y-107282952D01*
X115609714Y-106092476D02*
X116276380Y-106092476D01*
X115609714Y-106521047D02*
X116133523Y-106521047D01*
X116228761Y-106473428D01*
X116276380Y-106378190D01*
X116276380Y-106235333D01*
X116228761Y-106140095D01*
X116181142Y-106092476D01*
X115609714Y-105759142D02*
X115609714Y-105378190D01*
X115276380Y-105616285D02*
X116133523Y-105616285D01*
X116228761Y-105568666D01*
X116276380Y-105473428D01*
X116276380Y-105378190D01*
X116228761Y-104997238D02*
X116276380Y-104997238D01*
X116371619Y-105044857D01*
X116419238Y-105092476D01*
X115324000Y-104044857D02*
X115276380Y-104140095D01*
X115276380Y-104282952D01*
X115324000Y-104425809D01*
X115419238Y-104521047D01*
X115514476Y-104568666D01*
X115704952Y-104616285D01*
X115847809Y-104616285D01*
X116038285Y-104568666D01*
X116133523Y-104521047D01*
X116228761Y-104425809D01*
X116276380Y-104282952D01*
X116276380Y-104187714D01*
X116228761Y-104044857D01*
X116181142Y-103997238D01*
X115847809Y-103997238D01*
X115847809Y-104187714D01*
X116276380Y-103568666D02*
X115276380Y-103568666D01*
X116276380Y-102997238D01*
X115276380Y-102997238D01*
X116276380Y-102521047D02*
X115276380Y-102521047D01*
X115276380Y-102282952D01*
X115324000Y-102140095D01*
X115419238Y-102044857D01*
X115514476Y-101997238D01*
X115704952Y-101949619D01*
X115847809Y-101949619D01*
X116038285Y-101997238D01*
X116133523Y-102044857D01*
X116228761Y-102140095D01*
X116276380Y-102282952D01*
X116276380Y-102521047D01*
X116228761Y-101473428D02*
X116276380Y-101473428D01*
X116371619Y-101521047D01*
X116419238Y-101568666D01*
X89035142Y-95956380D02*
X89225619Y-95956380D01*
X89320857Y-95908761D01*
X89368476Y-95861142D01*
X89463714Y-95718285D01*
X89511333Y-95527809D01*
X89511333Y-95146857D01*
X89463714Y-95051619D01*
X89416095Y-95004000D01*
X89320857Y-94956380D01*
X89130380Y-94956380D01*
X89035142Y-95004000D01*
X88987523Y-95051619D01*
X88939904Y-95146857D01*
X88939904Y-95384952D01*
X88987523Y-95480190D01*
X89035142Y-95527809D01*
X89130380Y-95575428D01*
X89320857Y-95575428D01*
X89416095Y-95527809D01*
X89463714Y-95480190D01*
X89511333Y-95384952D01*
X89844666Y-95289714D02*
X90082761Y-95956380D01*
X90320857Y-95289714D01*
X91463714Y-95956380D02*
X91463714Y-95289714D01*
X91463714Y-94956380D02*
X91416095Y-95004000D01*
X91463714Y-95051619D01*
X91511333Y-95004000D01*
X91463714Y-94956380D01*
X91463714Y-95051619D01*
X91939904Y-95289714D02*
X91939904Y-95956380D01*
X91939904Y-95384952D02*
X91987523Y-95337333D01*
X92082761Y-95289714D01*
X92225619Y-95289714D01*
X92320857Y-95337333D01*
X92368476Y-95432571D01*
X92368476Y-95956380D01*
X96186666Y-97972571D02*
X95853333Y-97972571D01*
X95853333Y-98496380D02*
X95853333Y-97496380D01*
X96329523Y-97496380D01*
X97234285Y-98496380D02*
X96662857Y-98496380D01*
X96948571Y-98496380D02*
X96948571Y-97496380D01*
X96853333Y-97639238D01*
X96758095Y-97734476D01*
X96662857Y-97782095D01*
X110148761Y-110434380D02*
X109577333Y-110434380D01*
X109863047Y-110434380D02*
X109863047Y-109434380D01*
X109767809Y-109577238D01*
X109672571Y-109672476D01*
X109577333Y-109720095D01*
X111005904Y-109767714D02*
X111005904Y-110434380D01*
X110577333Y-109767714D02*
X110577333Y-110291523D01*
X110624952Y-110386761D01*
X110720190Y-110434380D01*
X110863047Y-110434380D01*
X110958285Y-110386761D01*
X111005904Y-110339142D01*
X111815428Y-109910571D02*
X111482095Y-109910571D01*
X111482095Y-110434380D02*
X111482095Y-109434380D01*
X111958285Y-109434380D01*
X104751333Y-109513714D02*
X104751333Y-110180380D01*
X104513238Y-109132761D02*
X104275142Y-109847047D01*
X104894190Y-109847047D01*
X105179904Y-109180380D02*
X105846571Y-109180380D01*
X105418000Y-110180380D01*
X106227523Y-109513714D02*
X106227523Y-110513714D01*
X106227523Y-109561333D02*
X106322761Y-109513714D01*
X106513238Y-109513714D01*
X106608476Y-109561333D01*
X106656095Y-109608952D01*
X106703714Y-109704190D01*
X106703714Y-109989904D01*
X106656095Y-110085142D01*
X106608476Y-110132761D01*
X106513238Y-110180380D01*
X106322761Y-110180380D01*
X106227523Y-110132761D01*
X107465619Y-109656571D02*
X107132285Y-109656571D01*
X107132285Y-110180380D02*
X107132285Y-109180380D01*
X107608476Y-109180380D01*
X91543142Y-89772285D02*
X91590761Y-89819904D01*
X91638380Y-89962761D01*
X91638380Y-90058000D01*
X91590761Y-90200857D01*
X91495523Y-90296095D01*
X91400285Y-90343714D01*
X91209809Y-90391333D01*
X91066952Y-90391333D01*
X90876476Y-90343714D01*
X90781238Y-90296095D01*
X90686000Y-90200857D01*
X90638380Y-90058000D01*
X90638380Y-89962761D01*
X90686000Y-89819904D01*
X90733619Y-89772285D01*
X90733619Y-88629428D02*
X90686000Y-88581809D01*
X90638380Y-88486571D01*
X90638380Y-88248476D01*
X90686000Y-88153238D01*
X90733619Y-88105619D01*
X90828857Y-88058000D01*
X90924095Y-88058000D01*
X91066952Y-88105619D01*
X91638380Y-88677047D01*
X91638380Y-88058000D01*
X91543142Y-87629428D02*
X91590761Y-87581809D01*
X91638380Y-87629428D01*
X91590761Y-87677047D01*
X91543142Y-87629428D01*
X91638380Y-87629428D01*
X90733619Y-87200857D02*
X90686000Y-87153238D01*
X90638380Y-87058000D01*
X90638380Y-86819904D01*
X90686000Y-86724666D01*
X90733619Y-86677047D01*
X90828857Y-86629428D01*
X90924095Y-86629428D01*
X91066952Y-86677047D01*
X91638380Y-87248476D01*
X91638380Y-86629428D01*
X90971714Y-86200857D02*
X91638380Y-86200857D01*
X91066952Y-86200857D02*
X91019333Y-86153238D01*
X90971714Y-86058000D01*
X90971714Y-85915142D01*
X91019333Y-85819904D01*
X91114571Y-85772285D01*
X91638380Y-85772285D01*
X101735142Y-100369714D02*
X101735142Y-101036380D01*
X101497047Y-99988761D02*
X101258952Y-100703047D01*
X101878000Y-100703047D01*
X102163714Y-100036380D02*
X102830380Y-100036380D01*
X102401809Y-101036380D01*
X103401809Y-100036380D02*
X103497047Y-100036380D01*
X103592285Y-100084000D01*
X103639904Y-100131619D01*
X103687523Y-100226857D01*
X103735142Y-100417333D01*
X103735142Y-100655428D01*
X103687523Y-100845904D01*
X103639904Y-100941142D01*
X103592285Y-100988761D01*
X103497047Y-101036380D01*
X103401809Y-101036380D01*
X103306571Y-100988761D01*
X103258952Y-100941142D01*
X103211333Y-100845904D01*
X103163714Y-100655428D01*
X103163714Y-100417333D01*
X103211333Y-100226857D01*
X103258952Y-100131619D01*
X103306571Y-100084000D01*
X103401809Y-100036380D01*
X104592285Y-100369714D02*
X104592285Y-101036380D01*
X104163714Y-100369714D02*
X104163714Y-100893523D01*
X104211333Y-100988761D01*
X104306571Y-101036380D01*
X104449428Y-101036380D01*
X104544666Y-100988761D01*
X104592285Y-100941142D01*
X105401809Y-100512571D02*
X105068476Y-100512571D01*
X105068476Y-101036380D02*
X105068476Y-100036380D01*
X105544666Y-100036380D01*
M02*
