G04 #@! TF.GenerationSoftware,KiCad,Pcbnew,(5.1.0)-1*
G04 #@! TF.CreationDate,2021-08-07T23:55:13-05:00*
G04 #@! TF.ProjectId,nixie_legacy-power,6e697869-655f-46c6-9567-6163792d706f,rev?*
G04 #@! TF.SameCoordinates,Original*
G04 #@! TF.FileFunction,Legend,Top*
G04 #@! TF.FilePolarity,Positive*
%FSLAX46Y46*%
G04 Gerber Fmt 4.6, Leading zero omitted, Abs format (unit mm)*
G04 Created by KiCad (PCBNEW (5.1.0)-1) date 2021-08-07 23:55:13*
%MOMM*%
%LPD*%
G04 APERTURE LIST*
%ADD10C,0.150000*%
%ADD11C,0.127000*%
%ADD12C,0.120000*%
%ADD13C,0.100000*%
G04 APERTURE END LIST*
D10*
X89654000Y-102711714D02*
X89701619Y-102616476D01*
X89701619Y-102473619D01*
X89654000Y-102330761D01*
X89558761Y-102235523D01*
X89463523Y-102187904D01*
X89273047Y-102140285D01*
X89130190Y-102140285D01*
X88939714Y-102187904D01*
X88844476Y-102235523D01*
X88749238Y-102330761D01*
X88701619Y-102473619D01*
X88701619Y-102568857D01*
X88749238Y-102711714D01*
X88796857Y-102759333D01*
X89130190Y-102759333D01*
X89130190Y-102568857D01*
X88701619Y-103187904D02*
X89368285Y-103187904D01*
X89701619Y-103187904D02*
X89654000Y-103140285D01*
X89606380Y-103187904D01*
X89654000Y-103235523D01*
X89701619Y-103187904D01*
X89606380Y-103187904D01*
X88701619Y-103806952D02*
X88749238Y-103711714D01*
X88844476Y-103664095D01*
X89701619Y-103664095D01*
X88701619Y-104616476D02*
X89701619Y-104616476D01*
X88749238Y-104616476D02*
X88701619Y-104521238D01*
X88701619Y-104330761D01*
X88749238Y-104235523D01*
X88796857Y-104187904D01*
X88892095Y-104140285D01*
X89177809Y-104140285D01*
X89273047Y-104187904D01*
X89320666Y-104235523D01*
X89368285Y-104330761D01*
X89368285Y-104521238D01*
X89320666Y-104616476D01*
X88749238Y-105473619D02*
X88701619Y-105378380D01*
X88701619Y-105187904D01*
X88749238Y-105092666D01*
X88844476Y-105045047D01*
X89225428Y-105045047D01*
X89320666Y-105092666D01*
X89368285Y-105187904D01*
X89368285Y-105378380D01*
X89320666Y-105473619D01*
X89225428Y-105521238D01*
X89130190Y-105521238D01*
X89034952Y-105045047D01*
X88701619Y-105949809D02*
X89368285Y-105949809D01*
X89177809Y-105949809D02*
X89273047Y-105997428D01*
X89320666Y-106045047D01*
X89368285Y-106140285D01*
X89368285Y-106235523D01*
X89606380Y-107283142D02*
X89654000Y-107330761D01*
X89701619Y-107426000D01*
X89701619Y-107664095D01*
X89654000Y-107759333D01*
X89606380Y-107806952D01*
X89511142Y-107854571D01*
X89415904Y-107854571D01*
X89273047Y-107806952D01*
X88701619Y-107235523D01*
X88701619Y-107854571D01*
X89701619Y-108473619D02*
X89701619Y-108568857D01*
X89654000Y-108664095D01*
X89606380Y-108711714D01*
X89511142Y-108759333D01*
X89320666Y-108806952D01*
X89082571Y-108806952D01*
X88892095Y-108759333D01*
X88796857Y-108711714D01*
X88749238Y-108664095D01*
X88701619Y-108568857D01*
X88701619Y-108473619D01*
X88749238Y-108378380D01*
X88796857Y-108330761D01*
X88892095Y-108283142D01*
X89082571Y-108235523D01*
X89320666Y-108235523D01*
X89511142Y-108283142D01*
X89606380Y-108330761D01*
X89654000Y-108378380D01*
X89701619Y-108473619D01*
X89606380Y-109187904D02*
X89654000Y-109235523D01*
X89701619Y-109330761D01*
X89701619Y-109568857D01*
X89654000Y-109664095D01*
X89606380Y-109711714D01*
X89511142Y-109759333D01*
X89415904Y-109759333D01*
X89273047Y-109711714D01*
X88701619Y-109140285D01*
X88701619Y-109759333D01*
X88701619Y-110711714D02*
X88701619Y-110140285D01*
X88701619Y-110426000D02*
X89701619Y-110426000D01*
X89558761Y-110330761D01*
X89463523Y-110235523D01*
X89415904Y-110140285D01*
D11*
X119253047Y-98877428D02*
X120014952Y-98877428D01*
X119634000Y-99258380D02*
X119634000Y-98496476D01*
D12*
X107994000Y-100374000D02*
G75*
G03X107994000Y-100374000I-3600000J0D01*
G01*
X105886000Y-109942000D02*
X105886000Y-120182000D01*
X101245000Y-109942000D02*
X101245000Y-120182000D01*
X105886000Y-109942000D02*
X101245000Y-109942000D01*
X105886000Y-120182000D02*
X101245000Y-120182000D01*
X104376000Y-109942000D02*
X104376000Y-120182000D01*
X92472500Y-107442000D02*
X92472500Y-108442000D01*
X91980500Y-107950000D02*
X92980500Y-107950000D01*
X100879000Y-104811000D02*
X100879000Y-106009000D01*
X100839000Y-104548000D02*
X100839000Y-106272000D01*
X100799000Y-104348000D02*
X100799000Y-106472000D01*
X100759000Y-104180000D02*
X100759000Y-106640000D01*
X100719000Y-104032000D02*
X100719000Y-106788000D01*
X100679000Y-103900000D02*
X100679000Y-106920000D01*
X100639000Y-103780000D02*
X100639000Y-107040000D01*
X100599000Y-103668000D02*
X100599000Y-107152000D01*
X100559000Y-103564000D02*
X100559000Y-107256000D01*
X100519000Y-103466000D02*
X100519000Y-107354000D01*
X100479000Y-103373000D02*
X100479000Y-107447000D01*
X100439000Y-103285000D02*
X100439000Y-107535000D01*
X100399000Y-103201000D02*
X100399000Y-107619000D01*
X100359000Y-103121000D02*
X100359000Y-107699000D01*
X100319000Y-103045000D02*
X100319000Y-107775000D01*
X100279000Y-102971000D02*
X100279000Y-107849000D01*
X100239000Y-102900000D02*
X100239000Y-107920000D01*
X100199000Y-102831000D02*
X100199000Y-107989000D01*
X100159000Y-102765000D02*
X100159000Y-108055000D01*
X100119000Y-102701000D02*
X100119000Y-108119000D01*
X100079000Y-102640000D02*
X100079000Y-108180000D01*
X100039000Y-102580000D02*
X100039000Y-108240000D01*
X99999000Y-102521000D02*
X99999000Y-108299000D01*
X99959000Y-102465000D02*
X99959000Y-108355000D01*
X99919000Y-102410000D02*
X99919000Y-108410000D01*
X99879000Y-102356000D02*
X99879000Y-108464000D01*
X99839000Y-102304000D02*
X99839000Y-108516000D01*
X99799000Y-102254000D02*
X99799000Y-108566000D01*
X99759000Y-102204000D02*
X99759000Y-108616000D01*
X99719000Y-102156000D02*
X99719000Y-108664000D01*
X99679000Y-102109000D02*
X99679000Y-108711000D01*
X99639000Y-102063000D02*
X99639000Y-108757000D01*
X99599000Y-102018000D02*
X99599000Y-108802000D01*
X99559000Y-101974000D02*
X99559000Y-108846000D01*
X99519000Y-106651000D02*
X99519000Y-108888000D01*
X99519000Y-101932000D02*
X99519000Y-104169000D01*
X99479000Y-106651000D02*
X99479000Y-108930000D01*
X99479000Y-101890000D02*
X99479000Y-104169000D01*
X99439000Y-106651000D02*
X99439000Y-108971000D01*
X99439000Y-101849000D02*
X99439000Y-104169000D01*
X99399000Y-106651000D02*
X99399000Y-109011000D01*
X99399000Y-101809000D02*
X99399000Y-104169000D01*
X99359000Y-106651000D02*
X99359000Y-109050000D01*
X99359000Y-101770000D02*
X99359000Y-104169000D01*
X99319000Y-106651000D02*
X99319000Y-109089000D01*
X99319000Y-101731000D02*
X99319000Y-104169000D01*
X99279000Y-106651000D02*
X99279000Y-109126000D01*
X99279000Y-101694000D02*
X99279000Y-104169000D01*
X99239000Y-106651000D02*
X99239000Y-109163000D01*
X99239000Y-101657000D02*
X99239000Y-104169000D01*
X99199000Y-106651000D02*
X99199000Y-109199000D01*
X99199000Y-101621000D02*
X99199000Y-104169000D01*
X99159000Y-106651000D02*
X99159000Y-109234000D01*
X99159000Y-101586000D02*
X99159000Y-104169000D01*
X99119000Y-106651000D02*
X99119000Y-109268000D01*
X99119000Y-101552000D02*
X99119000Y-104169000D01*
X99079000Y-106651000D02*
X99079000Y-109302000D01*
X99079000Y-101518000D02*
X99079000Y-104169000D01*
X99039000Y-106651000D02*
X99039000Y-109335000D01*
X99039000Y-101485000D02*
X99039000Y-104169000D01*
X98999000Y-106651000D02*
X98999000Y-109367000D01*
X98999000Y-101453000D02*
X98999000Y-104169000D01*
X98959000Y-106651000D02*
X98959000Y-109399000D01*
X98959000Y-101421000D02*
X98959000Y-104169000D01*
X98919000Y-106651000D02*
X98919000Y-109430000D01*
X98919000Y-101390000D02*
X98919000Y-104169000D01*
X98879000Y-106651000D02*
X98879000Y-109460000D01*
X98879000Y-101360000D02*
X98879000Y-104169000D01*
X98839000Y-106651000D02*
X98839000Y-109490000D01*
X98839000Y-101330000D02*
X98839000Y-104169000D01*
X98799000Y-106651000D02*
X98799000Y-109520000D01*
X98799000Y-101300000D02*
X98799000Y-104169000D01*
X98759000Y-106651000D02*
X98759000Y-109548000D01*
X98759000Y-101272000D02*
X98759000Y-104169000D01*
X98719000Y-106651000D02*
X98719000Y-109576000D01*
X98719000Y-101244000D02*
X98719000Y-104169000D01*
X98679000Y-106651000D02*
X98679000Y-109604000D01*
X98679000Y-101216000D02*
X98679000Y-104169000D01*
X98639000Y-106651000D02*
X98639000Y-109631000D01*
X98639000Y-101189000D02*
X98639000Y-104169000D01*
X98599000Y-106651000D02*
X98599000Y-109657000D01*
X98599000Y-101163000D02*
X98599000Y-104169000D01*
X98559000Y-106651000D02*
X98559000Y-109683000D01*
X98559000Y-101137000D02*
X98559000Y-104169000D01*
X98519000Y-106651000D02*
X98519000Y-109708000D01*
X98519000Y-101112000D02*
X98519000Y-104169000D01*
X98479000Y-106651000D02*
X98479000Y-109733000D01*
X98479000Y-101087000D02*
X98479000Y-104169000D01*
X98439000Y-106651000D02*
X98439000Y-109757000D01*
X98439000Y-101063000D02*
X98439000Y-104169000D01*
X98399000Y-106651000D02*
X98399000Y-109781000D01*
X98399000Y-101039000D02*
X98399000Y-104169000D01*
X98359000Y-106651000D02*
X98359000Y-109805000D01*
X98359000Y-101015000D02*
X98359000Y-104169000D01*
X98319000Y-106651000D02*
X98319000Y-109827000D01*
X98319000Y-100993000D02*
X98319000Y-104169000D01*
X98279000Y-106651000D02*
X98279000Y-109850000D01*
X98279000Y-100970000D02*
X98279000Y-104169000D01*
X98239000Y-106651000D02*
X98239000Y-109872000D01*
X98239000Y-100948000D02*
X98239000Y-104169000D01*
X98199000Y-106651000D02*
X98199000Y-109893000D01*
X98199000Y-100927000D02*
X98199000Y-104169000D01*
X98159000Y-106651000D02*
X98159000Y-109914000D01*
X98159000Y-100906000D02*
X98159000Y-104169000D01*
X98119000Y-106651000D02*
X98119000Y-109935000D01*
X98119000Y-100885000D02*
X98119000Y-104169000D01*
X98079000Y-106651000D02*
X98079000Y-109955000D01*
X98079000Y-100865000D02*
X98079000Y-104169000D01*
X98039000Y-106651000D02*
X98039000Y-109974000D01*
X98039000Y-100846000D02*
X98039000Y-104169000D01*
X97999000Y-106651000D02*
X97999000Y-109994000D01*
X97999000Y-100826000D02*
X97999000Y-104169000D01*
X97959000Y-106651000D02*
X97959000Y-110013000D01*
X97959000Y-100807000D02*
X97959000Y-104169000D01*
X97919000Y-106651000D02*
X97919000Y-110031000D01*
X97919000Y-100789000D02*
X97919000Y-104169000D01*
X97879000Y-106651000D02*
X97879000Y-110049000D01*
X97879000Y-100771000D02*
X97879000Y-104169000D01*
X97839000Y-106651000D02*
X97839000Y-110067000D01*
X97839000Y-100753000D02*
X97839000Y-104169000D01*
X97799000Y-106651000D02*
X97799000Y-110084000D01*
X97799000Y-100736000D02*
X97799000Y-104169000D01*
X97759000Y-106651000D02*
X97759000Y-110100000D01*
X97759000Y-100720000D02*
X97759000Y-104169000D01*
X97719000Y-106651000D02*
X97719000Y-110117000D01*
X97719000Y-100703000D02*
X97719000Y-104169000D01*
X97679000Y-106651000D02*
X97679000Y-110133000D01*
X97679000Y-100687000D02*
X97679000Y-104169000D01*
X97639000Y-106651000D02*
X97639000Y-110148000D01*
X97639000Y-100672000D02*
X97639000Y-104169000D01*
X97599000Y-106651000D02*
X97599000Y-110164000D01*
X97599000Y-100656000D02*
X97599000Y-104169000D01*
X97559000Y-106651000D02*
X97559000Y-110178000D01*
X97559000Y-100642000D02*
X97559000Y-104169000D01*
X97519000Y-106651000D02*
X97519000Y-110193000D01*
X97519000Y-100627000D02*
X97519000Y-104169000D01*
X97479000Y-106651000D02*
X97479000Y-110207000D01*
X97479000Y-100613000D02*
X97479000Y-104169000D01*
X97439000Y-106651000D02*
X97439000Y-110221000D01*
X97439000Y-100599000D02*
X97439000Y-104169000D01*
X97399000Y-106651000D02*
X97399000Y-110234000D01*
X97399000Y-100586000D02*
X97399000Y-104169000D01*
X97359000Y-106651000D02*
X97359000Y-110247000D01*
X97359000Y-100573000D02*
X97359000Y-104169000D01*
X97319000Y-106651000D02*
X97319000Y-110260000D01*
X97319000Y-100560000D02*
X97319000Y-104169000D01*
X97279000Y-106651000D02*
X97279000Y-110272000D01*
X97279000Y-100548000D02*
X97279000Y-104169000D01*
X97239000Y-106651000D02*
X97239000Y-110284000D01*
X97239000Y-100536000D02*
X97239000Y-104169000D01*
X97199000Y-106651000D02*
X97199000Y-110295000D01*
X97199000Y-100525000D02*
X97199000Y-104169000D01*
X97159000Y-106651000D02*
X97159000Y-110307000D01*
X97159000Y-100513000D02*
X97159000Y-104169000D01*
X97119000Y-106651000D02*
X97119000Y-110317000D01*
X97119000Y-100503000D02*
X97119000Y-104169000D01*
X97079000Y-106651000D02*
X97079000Y-110328000D01*
X97079000Y-100492000D02*
X97079000Y-104169000D01*
X97039000Y-100482000D02*
X97039000Y-110338000D01*
X96999000Y-100472000D02*
X96999000Y-110348000D01*
X96959000Y-100463000D02*
X96959000Y-110357000D01*
X96919000Y-100454000D02*
X96919000Y-110366000D01*
X96879000Y-100445000D02*
X96879000Y-110375000D01*
X96839000Y-100436000D02*
X96839000Y-110384000D01*
X96799000Y-100428000D02*
X96799000Y-110392000D01*
X96759000Y-100420000D02*
X96759000Y-110400000D01*
X96719000Y-100413000D02*
X96719000Y-110407000D01*
X96679000Y-100406000D02*
X96679000Y-110414000D01*
X96639000Y-100399000D02*
X96639000Y-110421000D01*
X96599000Y-100392000D02*
X96599000Y-110428000D01*
X96559000Y-100386000D02*
X96559000Y-110434000D01*
X96519000Y-100380000D02*
X96519000Y-110440000D01*
X96478000Y-100375000D02*
X96478000Y-110445000D01*
X96438000Y-100370000D02*
X96438000Y-110450000D01*
X96398000Y-100365000D02*
X96398000Y-110455000D01*
X96358000Y-100360000D02*
X96358000Y-110460000D01*
X96318000Y-100356000D02*
X96318000Y-110464000D01*
X96278000Y-100352000D02*
X96278000Y-110468000D01*
X96238000Y-100348000D02*
X96238000Y-110472000D01*
X96198000Y-100345000D02*
X96198000Y-110475000D01*
X96158000Y-100342000D02*
X96158000Y-110478000D01*
X96118000Y-100340000D02*
X96118000Y-110480000D01*
X96078000Y-100337000D02*
X96078000Y-110483000D01*
X96038000Y-100335000D02*
X96038000Y-110485000D01*
X95998000Y-100333000D02*
X95998000Y-110487000D01*
X95958000Y-100332000D02*
X95958000Y-110488000D01*
X95918000Y-100331000D02*
X95918000Y-110489000D01*
X95878000Y-100330000D02*
X95878000Y-110490000D01*
X95838000Y-100330000D02*
X95838000Y-110490000D01*
X95798000Y-100330000D02*
X95798000Y-110490000D01*
X100918000Y-105410000D02*
G75*
G03X100918000Y-105410000I-5120000J0D01*
G01*
X111292000Y-114241500D02*
X111292000Y-114871500D01*
X110974500Y-114554000D02*
X111604500Y-114554000D01*
X116291000Y-112374000D02*
X116291000Y-113178000D01*
X116251000Y-112143000D02*
X116251000Y-113409000D01*
X116211000Y-111974000D02*
X116211000Y-113578000D01*
X116171000Y-111836000D02*
X116171000Y-113716000D01*
X116131000Y-111717000D02*
X116131000Y-113835000D01*
X116091000Y-111611000D02*
X116091000Y-113941000D01*
X116051000Y-111514000D02*
X116051000Y-114038000D01*
X116011000Y-111426000D02*
X116011000Y-114126000D01*
X115971000Y-111344000D02*
X115971000Y-114208000D01*
X115931000Y-111267000D02*
X115931000Y-114285000D01*
X115891000Y-111195000D02*
X115891000Y-114357000D01*
X115851000Y-111126000D02*
X115851000Y-114426000D01*
X115811000Y-111062000D02*
X115811000Y-114490000D01*
X115771000Y-111000000D02*
X115771000Y-114552000D01*
X115731000Y-110942000D02*
X115731000Y-114610000D01*
X115691000Y-110886000D02*
X115691000Y-114666000D01*
X115651000Y-110832000D02*
X115651000Y-114720000D01*
X115611000Y-110781000D02*
X115611000Y-114771000D01*
X115571000Y-110732000D02*
X115571000Y-114820000D01*
X115531000Y-110684000D02*
X115531000Y-114868000D01*
X115491000Y-110639000D02*
X115491000Y-114913000D01*
X115451000Y-110594000D02*
X115451000Y-114958000D01*
X115411000Y-110552000D02*
X115411000Y-115000000D01*
X115371000Y-110511000D02*
X115371000Y-115041000D01*
X115331000Y-113816000D02*
X115331000Y-115081000D01*
X115331000Y-110471000D02*
X115331000Y-111736000D01*
X115291000Y-113816000D02*
X115291000Y-115119000D01*
X115291000Y-110433000D02*
X115291000Y-111736000D01*
X115251000Y-113816000D02*
X115251000Y-115156000D01*
X115251000Y-110396000D02*
X115251000Y-111736000D01*
X115211000Y-113816000D02*
X115211000Y-115192000D01*
X115211000Y-110360000D02*
X115211000Y-111736000D01*
X115171000Y-113816000D02*
X115171000Y-115226000D01*
X115171000Y-110326000D02*
X115171000Y-111736000D01*
X115131000Y-113816000D02*
X115131000Y-115260000D01*
X115131000Y-110292000D02*
X115131000Y-111736000D01*
X115091000Y-113816000D02*
X115091000Y-115292000D01*
X115091000Y-110260000D02*
X115091000Y-111736000D01*
X115051000Y-113816000D02*
X115051000Y-115324000D01*
X115051000Y-110228000D02*
X115051000Y-111736000D01*
X115011000Y-113816000D02*
X115011000Y-115354000D01*
X115011000Y-110198000D02*
X115011000Y-111736000D01*
X114971000Y-113816000D02*
X114971000Y-115383000D01*
X114971000Y-110169000D02*
X114971000Y-111736000D01*
X114931000Y-113816000D02*
X114931000Y-115412000D01*
X114931000Y-110140000D02*
X114931000Y-111736000D01*
X114891000Y-113816000D02*
X114891000Y-115440000D01*
X114891000Y-110112000D02*
X114891000Y-111736000D01*
X114851000Y-113816000D02*
X114851000Y-115466000D01*
X114851000Y-110086000D02*
X114851000Y-111736000D01*
X114811000Y-113816000D02*
X114811000Y-115492000D01*
X114811000Y-110060000D02*
X114811000Y-111736000D01*
X114771000Y-113816000D02*
X114771000Y-115518000D01*
X114771000Y-110034000D02*
X114771000Y-111736000D01*
X114731000Y-113816000D02*
X114731000Y-115542000D01*
X114731000Y-110010000D02*
X114731000Y-111736000D01*
X114691000Y-113816000D02*
X114691000Y-115566000D01*
X114691000Y-109986000D02*
X114691000Y-111736000D01*
X114651000Y-113816000D02*
X114651000Y-115588000D01*
X114651000Y-109964000D02*
X114651000Y-111736000D01*
X114611000Y-113816000D02*
X114611000Y-115610000D01*
X114611000Y-109942000D02*
X114611000Y-111736000D01*
X114571000Y-113816000D02*
X114571000Y-115632000D01*
X114571000Y-109920000D02*
X114571000Y-111736000D01*
X114531000Y-113816000D02*
X114531000Y-115652000D01*
X114531000Y-109900000D02*
X114531000Y-111736000D01*
X114491000Y-113816000D02*
X114491000Y-115672000D01*
X114491000Y-109880000D02*
X114491000Y-111736000D01*
X114451000Y-113816000D02*
X114451000Y-115692000D01*
X114451000Y-109860000D02*
X114451000Y-111736000D01*
X114411000Y-113816000D02*
X114411000Y-115710000D01*
X114411000Y-109842000D02*
X114411000Y-111736000D01*
X114371000Y-113816000D02*
X114371000Y-115728000D01*
X114371000Y-109824000D02*
X114371000Y-111736000D01*
X114331000Y-113816000D02*
X114331000Y-115746000D01*
X114331000Y-109806000D02*
X114331000Y-111736000D01*
X114291000Y-113816000D02*
X114291000Y-115762000D01*
X114291000Y-109790000D02*
X114291000Y-111736000D01*
X114251000Y-113816000D02*
X114251000Y-115778000D01*
X114251000Y-109774000D02*
X114251000Y-111736000D01*
X114211000Y-113816000D02*
X114211000Y-115794000D01*
X114211000Y-109758000D02*
X114211000Y-111736000D01*
X114171000Y-113816000D02*
X114171000Y-115809000D01*
X114171000Y-109743000D02*
X114171000Y-111736000D01*
X114131000Y-113816000D02*
X114131000Y-115823000D01*
X114131000Y-109729000D02*
X114131000Y-111736000D01*
X114091000Y-113816000D02*
X114091000Y-115837000D01*
X114091000Y-109715000D02*
X114091000Y-111736000D01*
X114051000Y-113816000D02*
X114051000Y-115850000D01*
X114051000Y-109702000D02*
X114051000Y-111736000D01*
X114011000Y-113816000D02*
X114011000Y-115862000D01*
X114011000Y-109690000D02*
X114011000Y-111736000D01*
X113971000Y-113816000D02*
X113971000Y-115874000D01*
X113971000Y-109678000D02*
X113971000Y-111736000D01*
X113931000Y-113816000D02*
X113931000Y-115886000D01*
X113931000Y-109666000D02*
X113931000Y-111736000D01*
X113891000Y-113816000D02*
X113891000Y-115897000D01*
X113891000Y-109655000D02*
X113891000Y-111736000D01*
X113851000Y-113816000D02*
X113851000Y-115907000D01*
X113851000Y-109645000D02*
X113851000Y-111736000D01*
X113811000Y-113816000D02*
X113811000Y-115917000D01*
X113811000Y-109635000D02*
X113811000Y-111736000D01*
X113771000Y-113816000D02*
X113771000Y-115926000D01*
X113771000Y-109626000D02*
X113771000Y-111736000D01*
X113730000Y-113816000D02*
X113730000Y-115935000D01*
X113730000Y-109617000D02*
X113730000Y-111736000D01*
X113690000Y-113816000D02*
X113690000Y-115943000D01*
X113690000Y-109609000D02*
X113690000Y-111736000D01*
X113650000Y-113816000D02*
X113650000Y-115951000D01*
X113650000Y-109601000D02*
X113650000Y-111736000D01*
X113610000Y-113816000D02*
X113610000Y-115958000D01*
X113610000Y-109594000D02*
X113610000Y-111736000D01*
X113570000Y-113816000D02*
X113570000Y-115965000D01*
X113570000Y-109587000D02*
X113570000Y-111736000D01*
X113530000Y-113816000D02*
X113530000Y-115971000D01*
X113530000Y-109581000D02*
X113530000Y-111736000D01*
X113490000Y-113816000D02*
X113490000Y-115977000D01*
X113490000Y-109575000D02*
X113490000Y-111736000D01*
X113450000Y-113816000D02*
X113450000Y-115982000D01*
X113450000Y-109570000D02*
X113450000Y-111736000D01*
X113410000Y-113816000D02*
X113410000Y-115987000D01*
X113410000Y-109565000D02*
X113410000Y-111736000D01*
X113370000Y-113816000D02*
X113370000Y-115991000D01*
X113370000Y-109561000D02*
X113370000Y-111736000D01*
X113330000Y-113816000D02*
X113330000Y-115994000D01*
X113330000Y-109558000D02*
X113330000Y-111736000D01*
X113290000Y-113816000D02*
X113290000Y-115998000D01*
X113290000Y-109554000D02*
X113290000Y-111736000D01*
X113250000Y-109552000D02*
X113250000Y-116000000D01*
X113210000Y-109549000D02*
X113210000Y-116003000D01*
X113170000Y-109548000D02*
X113170000Y-116004000D01*
X113130000Y-109546000D02*
X113130000Y-116006000D01*
X113090000Y-109546000D02*
X113090000Y-116006000D01*
X113050000Y-109546000D02*
X113050000Y-116006000D01*
X116320000Y-112776000D02*
G75*
G03X116320000Y-112776000I-3270000J0D01*
G01*
X97434000Y-115022000D02*
G75*
G03X97434000Y-115022000I-4470000J0D01*
G01*
X100684000Y-111538000D02*
X100354000Y-111538000D01*
X100684000Y-118078000D02*
X100684000Y-111538000D01*
X100354000Y-118078000D02*
X100684000Y-118078000D01*
X97944000Y-111538000D02*
X98274000Y-111538000D01*
X97944000Y-118078000D02*
X97944000Y-111538000D01*
X98274000Y-118078000D02*
X97944000Y-118078000D01*
X113192000Y-119834000D02*
X113192000Y-116894000D01*
X112952000Y-119834000D02*
X112952000Y-116894000D01*
X113072000Y-119834000D02*
X113072000Y-116894000D01*
X108532000Y-116894000D02*
X108532000Y-117024000D01*
X113972000Y-116894000D02*
X108532000Y-116894000D01*
X113972000Y-117024000D02*
X113972000Y-116894000D01*
X108532000Y-119834000D02*
X108532000Y-119704000D01*
X113972000Y-119834000D02*
X108532000Y-119834000D01*
X113972000Y-119704000D02*
X113972000Y-119834000D01*
X116994000Y-118078000D02*
X117324000Y-118078000D01*
X116994000Y-111538000D02*
X116994000Y-118078000D01*
X117324000Y-111538000D02*
X116994000Y-111538000D01*
X119734000Y-118078000D02*
X119404000Y-118078000D01*
X119734000Y-111538000D02*
X119734000Y-118078000D01*
X119404000Y-111538000D02*
X119734000Y-111538000D01*
X111914000Y-106648000D02*
X112244000Y-106648000D01*
X111914000Y-100108000D02*
X111914000Y-106648000D01*
X112244000Y-100108000D02*
X111914000Y-100108000D01*
X114654000Y-106648000D02*
X114324000Y-106648000D01*
X114654000Y-100108000D02*
X114654000Y-106648000D01*
X114324000Y-100108000D02*
X114654000Y-100108000D01*
X117034000Y-101540000D02*
X118364000Y-101540000D01*
X117034000Y-102870000D02*
X117034000Y-101540000D01*
X117034000Y-104140000D02*
X119694000Y-104140000D01*
X119694000Y-104140000D02*
X119694000Y-109280000D01*
X117034000Y-104140000D02*
X117034000Y-109280000D01*
X117034000Y-109280000D02*
X119694000Y-109280000D01*
X89094000Y-95698000D02*
X90424000Y-95698000D01*
X89094000Y-97028000D02*
X89094000Y-95698000D01*
X89094000Y-98298000D02*
X91754000Y-98298000D01*
X91754000Y-98298000D02*
X91754000Y-100898000D01*
X89094000Y-98298000D02*
X89094000Y-100898000D01*
X89094000Y-100898000D02*
X91754000Y-100898000D01*
X106771000Y-114108000D02*
X106526000Y-114108000D01*
X108866000Y-114108000D02*
X108621000Y-114108000D01*
X106771000Y-110468000D02*
X106526000Y-110468000D01*
X108866000Y-110468000D02*
X108621000Y-110468000D01*
X106526000Y-110468000D02*
X106526000Y-114108000D01*
X108866000Y-110468000D02*
X108866000Y-114108000D01*
D13*
X111526000Y-104280000D02*
X111526000Y-104680000D01*
X111126000Y-104280000D02*
X111526000Y-104280000D01*
X101326000Y-104280000D02*
X101726000Y-104280000D01*
X101326000Y-104280000D02*
X101326000Y-104680000D01*
X101326000Y-109080000D02*
X101726000Y-109080000D01*
X101326000Y-109080000D02*
X101326000Y-104680000D01*
X111526000Y-109080000D02*
X111126000Y-109080000D01*
X111526000Y-109080000D02*
X111526000Y-108680000D01*
X101326000Y-105390000D02*
X111426000Y-105390000D01*
D12*
X115094000Y-98773000D02*
X115094000Y-98148000D01*
X115094000Y-100988000D02*
X115094000Y-100363000D01*
X119134000Y-98773000D02*
X119134000Y-98148000D01*
X119134000Y-100988000D02*
X119134000Y-100363000D01*
X119134000Y-98148000D02*
X115094000Y-98148000D01*
X119134000Y-100988000D02*
X115094000Y-100988000D01*
X111031000Y-98838000D02*
X111656000Y-98838000D01*
X108816000Y-98838000D02*
X109441000Y-98838000D01*
X111031000Y-102878000D02*
X111656000Y-102878000D01*
X108816000Y-102878000D02*
X109441000Y-102878000D01*
X111656000Y-102878000D02*
X111656000Y-98838000D01*
X108816000Y-102878000D02*
X108816000Y-98838000D01*
X113034000Y-95400000D02*
X113034000Y-97640000D01*
X113274000Y-95400000D02*
X113274000Y-97640000D01*
X113154000Y-95400000D02*
X113154000Y-97640000D01*
X117324000Y-96520000D02*
X116674000Y-96520000D01*
X111784000Y-96520000D02*
X112434000Y-96520000D01*
X116674000Y-95400000D02*
X112434000Y-95400000D01*
X116674000Y-97640000D02*
X116674000Y-95400000D01*
X112434000Y-97640000D02*
X116674000Y-97640000D01*
X112434000Y-95400000D02*
X112434000Y-97640000D01*
X108564795Y-83273816D02*
G75*
G02X109292000Y-83798000I-1122795J-2324184D01*
G01*
X106343193Y-83241600D02*
G75*
G03X104842000Y-85598000I1098807J-2356400D01*
G01*
X106343193Y-87954400D02*
G75*
G02X104842000Y-85598000I1098807J2356400D01*
G01*
X108564795Y-87922184D02*
G75*
G03X109292000Y-87398000I-1122795J2324184D01*
G01*
D13*
X95904000Y-91858000D02*
X96204000Y-91858000D01*
X95904000Y-91558000D02*
X95904000Y-91858000D01*
X102704000Y-91858000D02*
X102404000Y-91858000D01*
X102704000Y-91558000D02*
X102704000Y-91858000D01*
X102704000Y-81858000D02*
X102404000Y-81858000D01*
X102704000Y-82158000D02*
X102704000Y-81858000D01*
X95904000Y-81858000D02*
X96204000Y-81858000D01*
X95904000Y-82158000D02*
X95904000Y-81858000D01*
D12*
X119932000Y-81729000D02*
X119932000Y-91499000D01*
X110162000Y-81729000D02*
X110162000Y-91499000D01*
X110162000Y-91499000D02*
X119932000Y-91499000D01*
X110162000Y-81729000D02*
X119932000Y-81729000D01*
X111284000Y-78386000D02*
X111284000Y-78716000D01*
X117824000Y-78386000D02*
X111284000Y-78386000D01*
X117824000Y-78716000D02*
X117824000Y-78386000D01*
X111284000Y-81126000D02*
X111284000Y-80796000D01*
X117824000Y-81126000D02*
X111284000Y-81126000D01*
X117824000Y-80796000D02*
X117824000Y-81126000D01*
X117824000Y-94842000D02*
X117824000Y-94512000D01*
X111284000Y-94842000D02*
X117824000Y-94842000D01*
X111284000Y-94512000D02*
X111284000Y-94842000D01*
X117824000Y-92102000D02*
X117824000Y-92432000D01*
X111284000Y-92102000D02*
X117824000Y-92102000D01*
X111284000Y-92432000D02*
X111284000Y-92102000D01*
X107410000Y-81126000D02*
X107410000Y-80796000D01*
X100870000Y-81126000D02*
X107410000Y-81126000D01*
X100870000Y-80796000D02*
X100870000Y-81126000D01*
X107410000Y-78386000D02*
X107410000Y-78716000D01*
X100870000Y-78386000D02*
X107410000Y-78386000D01*
X100870000Y-78716000D02*
X100870000Y-78386000D01*
X97504000Y-81126000D02*
X97504000Y-80796000D01*
X90964000Y-81126000D02*
X97504000Y-81126000D01*
X90964000Y-80796000D02*
X90964000Y-81126000D01*
X97504000Y-78386000D02*
X97504000Y-78716000D01*
X90964000Y-78386000D02*
X97504000Y-78386000D01*
X90964000Y-78716000D02*
X90964000Y-78386000D01*
X102584000Y-95350000D02*
X102584000Y-95020000D01*
X96044000Y-95350000D02*
X102584000Y-95350000D01*
X96044000Y-95020000D02*
X96044000Y-95350000D01*
X102584000Y-92610000D02*
X102584000Y-92940000D01*
X96044000Y-92610000D02*
X102584000Y-92610000D01*
X96044000Y-92940000D02*
X96044000Y-92610000D01*
D13*
X109042000Y-95762000D02*
X108742000Y-95912000D01*
X109042000Y-95462000D02*
X109042000Y-95762000D01*
X109042000Y-91062000D02*
X109042000Y-91362000D01*
X109042000Y-91062000D02*
X108742000Y-90912000D01*
D10*
X105892000Y-91462000D02*
G75*
G03X105842000Y-95312000I1900000J-1950000D01*
G01*
D12*
X99926000Y-98978000D02*
X99926000Y-99228000D01*
X99926000Y-96028000D02*
X99926000Y-97479000D01*
X92626000Y-97778000D02*
X92626000Y-99228000D01*
X92626000Y-96028000D02*
X92626000Y-96278000D01*
X99705000Y-99228000D02*
X99926000Y-99228000D01*
X92626000Y-99228000D02*
X97948000Y-99228000D01*
X94605000Y-96028000D02*
X99926000Y-96028000D01*
X92626000Y-96028000D02*
X92847000Y-96028000D01*
X93806000Y-94428000D02*
X88566000Y-94428000D01*
X93806000Y-81688000D02*
X88566000Y-81688000D01*
X88566000Y-81688000D02*
X88566000Y-94428000D01*
X93806000Y-81688000D02*
X93806000Y-94428000D01*
D10*
X105608380Y-117355642D02*
X104608380Y-117355642D01*
X105608380Y-116308023D02*
X105132190Y-116641357D01*
X105608380Y-116879452D02*
X104608380Y-116879452D01*
X104608380Y-116498500D01*
X104656000Y-116403261D01*
X104703619Y-116355642D01*
X104798857Y-116308023D01*
X104941714Y-116308023D01*
X105036952Y-116355642D01*
X105084571Y-116403261D01*
X105132190Y-116498500D01*
X105132190Y-116879452D01*
X105084571Y-115546119D02*
X105084571Y-115879452D01*
X105608380Y-115879452D02*
X104608380Y-115879452D01*
X104608380Y-115403261D01*
X104608380Y-115117547D02*
X104608380Y-114450880D01*
X105608380Y-114879452D01*
X104941714Y-113641357D02*
X105608380Y-113641357D01*
X104560761Y-113879452D02*
X105275047Y-114117547D01*
X105275047Y-113498500D01*
X104608380Y-112927071D02*
X104608380Y-112831833D01*
X104656000Y-112736595D01*
X104703619Y-112688976D01*
X104798857Y-112641357D01*
X104989333Y-112593738D01*
X105227428Y-112593738D01*
X105417904Y-112641357D01*
X105513142Y-112688976D01*
X105560761Y-112736595D01*
X105608380Y-112831833D01*
X105608380Y-112927071D01*
X105560761Y-113022309D01*
X105513142Y-113069928D01*
X105417904Y-113117547D01*
X105227428Y-113165166D01*
X104989333Y-113165166D01*
X104798857Y-113117547D01*
X104703619Y-113069928D01*
X104656000Y-113022309D01*
X104608380Y-112927071D01*
X91829142Y-103163714D02*
X91829142Y-103830380D01*
X91591047Y-102782761D02*
X91352952Y-103497047D01*
X91972000Y-103497047D01*
X92257714Y-102830380D02*
X92924380Y-102830380D01*
X92495809Y-103830380D01*
X93495809Y-102830380D02*
X93591047Y-102830380D01*
X93686285Y-102878000D01*
X93733904Y-102925619D01*
X93781523Y-103020857D01*
X93829142Y-103211333D01*
X93829142Y-103449428D01*
X93781523Y-103639904D01*
X93733904Y-103735142D01*
X93686285Y-103782761D01*
X93591047Y-103830380D01*
X93495809Y-103830380D01*
X93400571Y-103782761D01*
X93352952Y-103735142D01*
X93305333Y-103639904D01*
X93257714Y-103449428D01*
X93257714Y-103211333D01*
X93305333Y-103020857D01*
X93352952Y-102925619D01*
X93400571Y-102878000D01*
X93495809Y-102830380D01*
X94686285Y-103163714D02*
X94686285Y-103830380D01*
X94257714Y-103163714D02*
X94257714Y-103687523D01*
X94305333Y-103782761D01*
X94400571Y-103830380D01*
X94543428Y-103830380D01*
X94638666Y-103782761D01*
X94686285Y-103735142D01*
X95495809Y-103306571D02*
X95162476Y-103306571D01*
X95162476Y-103830380D02*
X95162476Y-102830380D01*
X95638666Y-102830380D01*
X111164761Y-111450380D02*
X110593333Y-111450380D01*
X110879047Y-111450380D02*
X110879047Y-110450380D01*
X110783809Y-110593238D01*
X110688571Y-110688476D01*
X110593333Y-110736095D01*
X112021904Y-110783714D02*
X112021904Y-111450380D01*
X111593333Y-110783714D02*
X111593333Y-111307523D01*
X111640952Y-111402761D01*
X111736190Y-111450380D01*
X111879047Y-111450380D01*
X111974285Y-111402761D01*
X112021904Y-111355142D01*
X112831428Y-110926571D02*
X112498095Y-110926571D01*
X112498095Y-111450380D02*
X112498095Y-110450380D01*
X112974285Y-110450380D01*
X90876380Y-116704857D02*
X90876380Y-117276285D01*
X90876380Y-116990571D02*
X89876380Y-116990571D01*
X90019238Y-117085809D01*
X90114476Y-117181047D01*
X90162095Y-117276285D01*
X89876380Y-116085809D02*
X89876380Y-115990571D01*
X89924000Y-115895333D01*
X89971619Y-115847714D01*
X90066857Y-115800095D01*
X90257333Y-115752476D01*
X90495428Y-115752476D01*
X90685904Y-115800095D01*
X90781142Y-115847714D01*
X90828761Y-115895333D01*
X90876380Y-115990571D01*
X90876380Y-116085809D01*
X90828761Y-116181047D01*
X90781142Y-116228666D01*
X90685904Y-116276285D01*
X90495428Y-116323904D01*
X90257333Y-116323904D01*
X90066857Y-116276285D01*
X89971619Y-116228666D01*
X89924000Y-116181047D01*
X89876380Y-116085809D01*
X89876380Y-115133428D02*
X89876380Y-115038190D01*
X89924000Y-114942952D01*
X89971619Y-114895333D01*
X90066857Y-114847714D01*
X90257333Y-114800095D01*
X90495428Y-114800095D01*
X90685904Y-114847714D01*
X90781142Y-114895333D01*
X90828761Y-114942952D01*
X90876380Y-115038190D01*
X90876380Y-115133428D01*
X90828761Y-115228666D01*
X90781142Y-115276285D01*
X90685904Y-115323904D01*
X90495428Y-115371523D01*
X90257333Y-115371523D01*
X90066857Y-115323904D01*
X89971619Y-115276285D01*
X89924000Y-115228666D01*
X89876380Y-115133428D01*
X90209714Y-113942952D02*
X90876380Y-113942952D01*
X90209714Y-114371523D02*
X90733523Y-114371523D01*
X90828761Y-114323904D01*
X90876380Y-114228666D01*
X90876380Y-114085809D01*
X90828761Y-113990571D01*
X90781142Y-113942952D01*
X90876380Y-113466761D02*
X89876380Y-113466761D01*
X90352571Y-113466761D02*
X90352571Y-112895333D01*
X90876380Y-112895333D02*
X89876380Y-112895333D01*
X99766380Y-116014380D02*
X99290190Y-116347714D01*
X99766380Y-116585809D02*
X98766380Y-116585809D01*
X98766380Y-116204857D01*
X98814000Y-116109619D01*
X98861619Y-116062000D01*
X98956857Y-116014380D01*
X99099714Y-116014380D01*
X99194952Y-116062000D01*
X99242571Y-116109619D01*
X99290190Y-116204857D01*
X99290190Y-116585809D01*
X99766380Y-114300095D02*
X99766380Y-114871523D01*
X99766380Y-114585809D02*
X98766380Y-114585809D01*
X98909238Y-114681047D01*
X99004476Y-114776285D01*
X99052095Y-114871523D01*
X99766380Y-113871523D02*
X98766380Y-113871523D01*
X99385428Y-113776285D02*
X99766380Y-113490571D01*
X99099714Y-113490571D02*
X99480666Y-113871523D01*
X110259904Y-118816380D02*
X110259904Y-117816380D01*
X110498000Y-117816380D01*
X110640857Y-117864000D01*
X110736095Y-117959238D01*
X110783714Y-118054476D01*
X110831333Y-118244952D01*
X110831333Y-118387809D01*
X110783714Y-118578285D01*
X110736095Y-118673523D01*
X110640857Y-118768761D01*
X110498000Y-118816380D01*
X110259904Y-118816380D01*
X111212285Y-117911619D02*
X111259904Y-117864000D01*
X111355142Y-117816380D01*
X111593238Y-117816380D01*
X111688476Y-117864000D01*
X111736095Y-117911619D01*
X111783714Y-118006857D01*
X111783714Y-118102095D01*
X111736095Y-118244952D01*
X111164666Y-118816380D01*
X111783714Y-118816380D01*
X118816380Y-116474666D02*
X118340190Y-116808000D01*
X118816380Y-117046095D02*
X117816380Y-117046095D01*
X117816380Y-116665142D01*
X117864000Y-116569904D01*
X117911619Y-116522285D01*
X118006857Y-116474666D01*
X118149714Y-116474666D01*
X118244952Y-116522285D01*
X118292571Y-116569904D01*
X118340190Y-116665142D01*
X118340190Y-117046095D01*
X118149714Y-114855619D02*
X118816380Y-114855619D01*
X117768761Y-115093714D02*
X118483047Y-115331809D01*
X118483047Y-114712761D01*
X118721142Y-114331809D02*
X118768761Y-114284190D01*
X118816380Y-114331809D01*
X118768761Y-114379428D01*
X118721142Y-114331809D01*
X118816380Y-114331809D01*
X117816380Y-113950857D02*
X117816380Y-113284190D01*
X118816380Y-113712761D01*
X118816380Y-112903238D02*
X117816380Y-112903238D01*
X118435428Y-112808000D02*
X118816380Y-112522285D01*
X118149714Y-112522285D02*
X118530666Y-112903238D01*
X113736380Y-105282761D02*
X113260190Y-105616095D01*
X113736380Y-105854190D02*
X112736380Y-105854190D01*
X112736380Y-105473238D01*
X112784000Y-105378000D01*
X112831619Y-105330380D01*
X112926857Y-105282761D01*
X113069714Y-105282761D01*
X113164952Y-105330380D01*
X113212571Y-105378000D01*
X113260190Y-105473238D01*
X113260190Y-105854190D01*
X112831619Y-104139904D02*
X112784000Y-104092285D01*
X112736380Y-103997047D01*
X112736380Y-103758952D01*
X112784000Y-103663714D01*
X112831619Y-103616095D01*
X112926857Y-103568476D01*
X113022095Y-103568476D01*
X113164952Y-103616095D01*
X113736380Y-104187523D01*
X113736380Y-103568476D01*
X112831619Y-103187523D02*
X112784000Y-103139904D01*
X112736380Y-103044666D01*
X112736380Y-102806571D01*
X112784000Y-102711333D01*
X112831619Y-102663714D01*
X112926857Y-102616095D01*
X113022095Y-102616095D01*
X113164952Y-102663714D01*
X113736380Y-103235142D01*
X113736380Y-102616095D01*
X112736380Y-101997047D02*
X112736380Y-101901809D01*
X112784000Y-101806571D01*
X112831619Y-101758952D01*
X112926857Y-101711333D01*
X113117333Y-101663714D01*
X113355428Y-101663714D01*
X113545904Y-101711333D01*
X113641142Y-101758952D01*
X113688761Y-101806571D01*
X113736380Y-101901809D01*
X113736380Y-101997047D01*
X113688761Y-102092285D01*
X113641142Y-102139904D01*
X113545904Y-102187523D01*
X113355428Y-102235142D01*
X113117333Y-102235142D01*
X112926857Y-102187523D01*
X112831619Y-102139904D01*
X112784000Y-102092285D01*
X112736380Y-101997047D01*
X113736380Y-101235142D02*
X112736380Y-101235142D01*
X113355428Y-101139904D02*
X113736380Y-100854190D01*
X113069714Y-100854190D02*
X113450666Y-101235142D01*
X116530380Y-109235523D02*
X116482761Y-109330761D01*
X116435142Y-109378380D01*
X116339904Y-109426000D01*
X116054190Y-109426000D01*
X115958952Y-109378380D01*
X115911333Y-109330761D01*
X115863714Y-109235523D01*
X115863714Y-109092666D01*
X115911333Y-108997428D01*
X115958952Y-108949809D01*
X116054190Y-108902190D01*
X116339904Y-108902190D01*
X116435142Y-108949809D01*
X116482761Y-108997428D01*
X116530380Y-109092666D01*
X116530380Y-109235523D01*
X115863714Y-108045047D02*
X116530380Y-108045047D01*
X115863714Y-108473619D02*
X116387523Y-108473619D01*
X116482761Y-108426000D01*
X116530380Y-108330761D01*
X116530380Y-108187904D01*
X116482761Y-108092666D01*
X116435142Y-108045047D01*
X115863714Y-107711714D02*
X115863714Y-107330761D01*
X115530380Y-107568857D02*
X116387523Y-107568857D01*
X116482761Y-107521238D01*
X116530380Y-107426000D01*
X116530380Y-107330761D01*
X116482761Y-106949809D02*
X116530380Y-106949809D01*
X116625619Y-106997428D01*
X116673238Y-107045047D01*
X115578000Y-105997428D02*
X115530380Y-106092666D01*
X115530380Y-106235523D01*
X115578000Y-106378380D01*
X115673238Y-106473619D01*
X115768476Y-106521238D01*
X115958952Y-106568857D01*
X116101809Y-106568857D01*
X116292285Y-106521238D01*
X116387523Y-106473619D01*
X116482761Y-106378380D01*
X116530380Y-106235523D01*
X116530380Y-106140285D01*
X116482761Y-105997428D01*
X116435142Y-105949809D01*
X116101809Y-105949809D01*
X116101809Y-106140285D01*
X116530380Y-105521238D02*
X115530380Y-105521238D01*
X116530380Y-104949809D01*
X115530380Y-104949809D01*
X116530380Y-104473619D02*
X115530380Y-104473619D01*
X115530380Y-104235523D01*
X115578000Y-104092666D01*
X115673238Y-103997428D01*
X115768476Y-103949809D01*
X115958952Y-103902190D01*
X116101809Y-103902190D01*
X116292285Y-103949809D01*
X116387523Y-103997428D01*
X116482761Y-104092666D01*
X116530380Y-104235523D01*
X116530380Y-104473619D01*
X116482761Y-103426000D02*
X116530380Y-103426000D01*
X116625619Y-103473619D01*
X116673238Y-103521238D01*
X88709714Y-95448380D02*
X88900190Y-95448380D01*
X88995428Y-95400761D01*
X89043047Y-95353142D01*
X89138285Y-95210285D01*
X89185904Y-95019809D01*
X89185904Y-94638857D01*
X89138285Y-94543619D01*
X89090666Y-94496000D01*
X88995428Y-94448380D01*
X88804952Y-94448380D01*
X88709714Y-94496000D01*
X88662095Y-94543619D01*
X88614476Y-94638857D01*
X88614476Y-94876952D01*
X88662095Y-94972190D01*
X88709714Y-95019809D01*
X88804952Y-95067428D01*
X88995428Y-95067428D01*
X89090666Y-95019809D01*
X89138285Y-94972190D01*
X89185904Y-94876952D01*
X89519238Y-94781714D02*
X89757333Y-95448380D01*
X89995428Y-94781714D01*
X91138285Y-95448380D02*
X91138285Y-94448380D01*
X91614476Y-95448380D02*
X91614476Y-94448380D01*
X92185904Y-95448380D01*
X92185904Y-94448380D01*
X106529333Y-109259714D02*
X106529333Y-109926380D01*
X106291238Y-108878761D02*
X106053142Y-109593047D01*
X106672190Y-109593047D01*
X106957904Y-108926380D02*
X107624571Y-108926380D01*
X107196000Y-109926380D01*
X108005523Y-109259714D02*
X108005523Y-110259714D01*
X108005523Y-109307333D02*
X108100761Y-109259714D01*
X108291238Y-109259714D01*
X108386476Y-109307333D01*
X108434095Y-109354952D01*
X108481714Y-109450190D01*
X108481714Y-109735904D01*
X108434095Y-109831142D01*
X108386476Y-109878761D01*
X108291238Y-109926380D01*
X108100761Y-109926380D01*
X108005523Y-109878761D01*
X109243619Y-109402571D02*
X108910285Y-109402571D01*
X108910285Y-109926380D02*
X108910285Y-108926380D01*
X109386476Y-108926380D01*
X105465904Y-105354380D02*
X105465904Y-104354380D01*
X105799238Y-105068666D01*
X106132571Y-104354380D01*
X106132571Y-105354380D01*
X107180190Y-105259142D02*
X107132571Y-105306761D01*
X106989714Y-105354380D01*
X106894476Y-105354380D01*
X106751619Y-105306761D01*
X106656380Y-105211523D01*
X106608761Y-105116285D01*
X106561142Y-104925809D01*
X106561142Y-104782952D01*
X106608761Y-104592476D01*
X106656380Y-104497238D01*
X106751619Y-104402000D01*
X106894476Y-104354380D01*
X106989714Y-104354380D01*
X107132571Y-104402000D01*
X107180190Y-104449619D01*
X107513523Y-104354380D02*
X108180190Y-104354380D01*
X107751619Y-105354380D01*
X108704000Y-104782952D02*
X108608761Y-104735333D01*
X108561142Y-104687714D01*
X108513523Y-104592476D01*
X108513523Y-104544857D01*
X108561142Y-104449619D01*
X108608761Y-104402000D01*
X108704000Y-104354380D01*
X108894476Y-104354380D01*
X108989714Y-104402000D01*
X109037333Y-104449619D01*
X109084952Y-104544857D01*
X109084952Y-104592476D01*
X109037333Y-104687714D01*
X108989714Y-104735333D01*
X108894476Y-104782952D01*
X108704000Y-104782952D01*
X108608761Y-104830571D01*
X108561142Y-104878190D01*
X108513523Y-104973428D01*
X108513523Y-105163904D01*
X108561142Y-105259142D01*
X108608761Y-105306761D01*
X108704000Y-105354380D01*
X108894476Y-105354380D01*
X108989714Y-105306761D01*
X109037333Y-105259142D01*
X109084952Y-105163904D01*
X109084952Y-104973428D01*
X109037333Y-104878190D01*
X108989714Y-104830571D01*
X108894476Y-104782952D01*
X109704000Y-104354380D02*
X109799238Y-104354380D01*
X109894476Y-104402000D01*
X109942095Y-104449619D01*
X109989714Y-104544857D01*
X110037333Y-104735333D01*
X110037333Y-104973428D01*
X109989714Y-105163904D01*
X109942095Y-105259142D01*
X109894476Y-105306761D01*
X109799238Y-105354380D01*
X109704000Y-105354380D01*
X109608761Y-105306761D01*
X109561142Y-105259142D01*
X109513523Y-105163904D01*
X109465904Y-104973428D01*
X109465904Y-104735333D01*
X109513523Y-104544857D01*
X109561142Y-104449619D01*
X109608761Y-104402000D01*
X109704000Y-104354380D01*
X110942095Y-104354380D02*
X110465904Y-104354380D01*
X110418285Y-104830571D01*
X110465904Y-104782952D01*
X110561142Y-104735333D01*
X110799238Y-104735333D01*
X110894476Y-104782952D01*
X110942095Y-104830571D01*
X110989714Y-104925809D01*
X110989714Y-105163904D01*
X110942095Y-105259142D01*
X110894476Y-105306761D01*
X110799238Y-105354380D01*
X110561142Y-105354380D01*
X110465904Y-105306761D01*
X110418285Y-105259142D01*
X115530380Y-102504857D02*
X115530380Y-102981047D01*
X116006571Y-103028666D01*
X115958952Y-102981047D01*
X115911333Y-102885809D01*
X115911333Y-102647714D01*
X115958952Y-102552476D01*
X116006571Y-102504857D01*
X116101809Y-102457238D01*
X116339904Y-102457238D01*
X116435142Y-102504857D01*
X116482761Y-102552476D01*
X116530380Y-102647714D01*
X116530380Y-102885809D01*
X116482761Y-102981047D01*
X116435142Y-103028666D01*
X115863714Y-102123904D02*
X116530380Y-101885809D01*
X115863714Y-101647714D01*
X109545428Y-103758952D02*
X109545428Y-102997047D01*
X109926380Y-103378000D02*
X109164476Y-103378000D01*
X114323904Y-96972380D02*
X114323904Y-95972380D01*
X114562000Y-95972380D01*
X114704857Y-96020000D01*
X114800095Y-96115238D01*
X114847714Y-96210476D01*
X114895333Y-96400952D01*
X114895333Y-96543809D01*
X114847714Y-96734285D01*
X114800095Y-96829523D01*
X114704857Y-96924761D01*
X114562000Y-96972380D01*
X114323904Y-96972380D01*
X115847714Y-96972380D02*
X115276285Y-96972380D01*
X115562000Y-96972380D02*
X115562000Y-95972380D01*
X115466761Y-96115238D01*
X115371523Y-96210476D01*
X115276285Y-96258095D01*
X112482380Y-91074857D02*
X112482380Y-91551047D01*
X112958571Y-91598666D01*
X112910952Y-91551047D01*
X112863333Y-91455809D01*
X112863333Y-91217714D01*
X112910952Y-91122476D01*
X112958571Y-91074857D01*
X113053809Y-91027238D01*
X113291904Y-91027238D01*
X113387142Y-91074857D01*
X113434761Y-91122476D01*
X113482380Y-91217714D01*
X113482380Y-91455809D01*
X113434761Y-91551047D01*
X113387142Y-91598666D01*
X112815714Y-90693904D02*
X113482380Y-90455809D01*
X112815714Y-90217714D01*
X109148571Y-87455142D02*
X109196190Y-87312285D01*
X109243809Y-87264666D01*
X109339047Y-87217047D01*
X109481904Y-87217047D01*
X109577142Y-87264666D01*
X109624761Y-87312285D01*
X109672380Y-87407523D01*
X109672380Y-87788476D01*
X108672380Y-87788476D01*
X108672380Y-87455142D01*
X108720000Y-87359904D01*
X108767619Y-87312285D01*
X108862857Y-87264666D01*
X108958095Y-87264666D01*
X109053333Y-87312285D01*
X109100952Y-87359904D01*
X109148571Y-87455142D01*
X109148571Y-87788476D01*
X109577142Y-86217047D02*
X109624761Y-86264666D01*
X109672380Y-86407523D01*
X109672380Y-86502761D01*
X109624761Y-86645619D01*
X109529523Y-86740857D01*
X109434285Y-86788476D01*
X109243809Y-86836095D01*
X109100952Y-86836095D01*
X108910476Y-86788476D01*
X108815238Y-86740857D01*
X108720000Y-86645619D01*
X108672380Y-86502761D01*
X108672380Y-86407523D01*
X108720000Y-86264666D01*
X108767619Y-86217047D01*
X108672380Y-85312285D02*
X108672380Y-85788476D01*
X109148571Y-85836095D01*
X109100952Y-85788476D01*
X109053333Y-85693238D01*
X109053333Y-85455142D01*
X109100952Y-85359904D01*
X109148571Y-85312285D01*
X109243809Y-85264666D01*
X109481904Y-85264666D01*
X109577142Y-85312285D01*
X109624761Y-85359904D01*
X109672380Y-85455142D01*
X109672380Y-85693238D01*
X109624761Y-85788476D01*
X109577142Y-85836095D01*
X109005714Y-84407523D02*
X109672380Y-84407523D01*
X108624761Y-84645619D02*
X109339047Y-84883714D01*
X109339047Y-84264666D01*
X108672380Y-83978952D02*
X108672380Y-83312285D01*
X109672380Y-83740857D01*
X97147333Y-85034380D02*
X97147333Y-84034380D01*
X97718761Y-85034380D01*
X97718761Y-84034380D01*
X98194952Y-84510571D02*
X98528285Y-84510571D01*
X98671142Y-85034380D02*
X98194952Y-85034380D01*
X98194952Y-84034380D01*
X98671142Y-84034380D01*
X99575904Y-84034380D02*
X99099714Y-84034380D01*
X99052095Y-84510571D01*
X99099714Y-84462952D01*
X99194952Y-84415333D01*
X99433047Y-84415333D01*
X99528285Y-84462952D01*
X99575904Y-84510571D01*
X99623523Y-84605809D01*
X99623523Y-84843904D01*
X99575904Y-84939142D01*
X99528285Y-84986761D01*
X99433047Y-85034380D01*
X99194952Y-85034380D01*
X99099714Y-84986761D01*
X99052095Y-84939142D01*
X100528285Y-84034380D02*
X100052095Y-84034380D01*
X100004476Y-84510571D01*
X100052095Y-84462952D01*
X100147333Y-84415333D01*
X100385428Y-84415333D01*
X100480666Y-84462952D01*
X100528285Y-84510571D01*
X100575904Y-84605809D01*
X100575904Y-84843904D01*
X100528285Y-84939142D01*
X100480666Y-84986761D01*
X100385428Y-85034380D01*
X100147333Y-85034380D01*
X100052095Y-84986761D01*
X100004476Y-84939142D01*
X101480666Y-84034380D02*
X101004476Y-84034380D01*
X100956857Y-84510571D01*
X101004476Y-84462952D01*
X101099714Y-84415333D01*
X101337809Y-84415333D01*
X101433047Y-84462952D01*
X101480666Y-84510571D01*
X101528285Y-84605809D01*
X101528285Y-84843904D01*
X101480666Y-84939142D01*
X101433047Y-84986761D01*
X101337809Y-85034380D01*
X101099714Y-85034380D01*
X101004476Y-84986761D01*
X100956857Y-84939142D01*
X111545904Y-87066380D02*
X110974476Y-87066380D01*
X111260190Y-87066380D02*
X111260190Y-86066380D01*
X111164952Y-86209238D01*
X111069714Y-86304476D01*
X110974476Y-86352095D01*
X111974476Y-87066380D02*
X111974476Y-86066380D01*
X112069714Y-86685428D02*
X112355428Y-87066380D01*
X112355428Y-86399714D02*
X111974476Y-86780666D01*
X113545904Y-87066380D02*
X113545904Y-86066380D01*
X113926857Y-86066380D01*
X114022095Y-86114000D01*
X114069714Y-86161619D01*
X114117333Y-86256857D01*
X114117333Y-86399714D01*
X114069714Y-86494952D01*
X114022095Y-86542571D01*
X113926857Y-86590190D01*
X113545904Y-86590190D01*
X114688761Y-87066380D02*
X114593523Y-87018761D01*
X114545904Y-86971142D01*
X114498285Y-86875904D01*
X114498285Y-86590190D01*
X114545904Y-86494952D01*
X114593523Y-86447333D01*
X114688761Y-86399714D01*
X114831619Y-86399714D01*
X114926857Y-86447333D01*
X114974476Y-86494952D01*
X115022095Y-86590190D01*
X115022095Y-86875904D01*
X114974476Y-86971142D01*
X114926857Y-87018761D01*
X114831619Y-87066380D01*
X114688761Y-87066380D01*
X115307809Y-86399714D02*
X115688761Y-86399714D01*
X115450666Y-86066380D02*
X115450666Y-86923523D01*
X115498285Y-87018761D01*
X115593523Y-87066380D01*
X115688761Y-87066380D01*
X113054000Y-80208380D02*
X112720666Y-79732190D01*
X112482571Y-80208380D02*
X112482571Y-79208380D01*
X112863523Y-79208380D01*
X112958761Y-79256000D01*
X113006380Y-79303619D01*
X113054000Y-79398857D01*
X113054000Y-79541714D01*
X113006380Y-79636952D01*
X112958761Y-79684571D01*
X112863523Y-79732190D01*
X112482571Y-79732190D01*
X114673047Y-79541714D02*
X114673047Y-80208380D01*
X114434952Y-79160761D02*
X114196857Y-79875047D01*
X114815904Y-79875047D01*
X115101619Y-79208380D02*
X115768285Y-79208380D01*
X115339714Y-80208380D01*
X116339714Y-79208380D02*
X116434952Y-79208380D01*
X116530190Y-79256000D01*
X116577809Y-79303619D01*
X116625428Y-79398857D01*
X116673047Y-79589333D01*
X116673047Y-79827428D01*
X116625428Y-80017904D01*
X116577809Y-80113142D01*
X116530190Y-80160761D01*
X116434952Y-80208380D01*
X116339714Y-80208380D01*
X116244476Y-80160761D01*
X116196857Y-80113142D01*
X116149238Y-80017904D01*
X116101619Y-79827428D01*
X116101619Y-79589333D01*
X116149238Y-79398857D01*
X116196857Y-79303619D01*
X116244476Y-79256000D01*
X116339714Y-79208380D01*
X113601619Y-93924380D02*
X113268285Y-93448190D01*
X113030190Y-93924380D02*
X113030190Y-92924380D01*
X113411142Y-92924380D01*
X113506380Y-92972000D01*
X113554000Y-93019619D01*
X113601619Y-93114857D01*
X113601619Y-93257714D01*
X113554000Y-93352952D01*
X113506380Y-93400571D01*
X113411142Y-93448190D01*
X113030190Y-93448190D01*
X115315904Y-93924380D02*
X114744476Y-93924380D01*
X115030190Y-93924380D02*
X115030190Y-92924380D01*
X114934952Y-93067238D01*
X114839714Y-93162476D01*
X114744476Y-93210095D01*
X115744476Y-93924380D02*
X115744476Y-92924380D01*
X115839714Y-93543428D02*
X116125428Y-93924380D01*
X116125428Y-93257714D02*
X115744476Y-93638666D01*
X103187619Y-80208380D02*
X102854285Y-79732190D01*
X102616190Y-80208380D02*
X102616190Y-79208380D01*
X102997142Y-79208380D01*
X103092380Y-79256000D01*
X103140000Y-79303619D01*
X103187619Y-79398857D01*
X103187619Y-79541714D01*
X103140000Y-79636952D01*
X103092380Y-79684571D01*
X102997142Y-79732190D01*
X102616190Y-79732190D01*
X104901904Y-80208380D02*
X104330476Y-80208380D01*
X104616190Y-80208380D02*
X104616190Y-79208380D01*
X104520952Y-79351238D01*
X104425714Y-79446476D01*
X104330476Y-79494095D01*
X105330476Y-80208380D02*
X105330476Y-79208380D01*
X105425714Y-79827428D02*
X105711428Y-80208380D01*
X105711428Y-79541714D02*
X105330476Y-79922666D01*
X92805428Y-80208380D02*
X92472095Y-79732190D01*
X92234000Y-80208380D02*
X92234000Y-79208380D01*
X92614952Y-79208380D01*
X92710190Y-79256000D01*
X92757809Y-79303619D01*
X92805428Y-79398857D01*
X92805428Y-79541714D01*
X92757809Y-79636952D01*
X92710190Y-79684571D01*
X92614952Y-79732190D01*
X92234000Y-79732190D01*
X94519714Y-80208380D02*
X93948285Y-80208380D01*
X94234000Y-80208380D02*
X94234000Y-79208380D01*
X94138761Y-79351238D01*
X94043523Y-79446476D01*
X93948285Y-79494095D01*
X95138761Y-79208380D02*
X95234000Y-79208380D01*
X95329238Y-79256000D01*
X95376857Y-79303619D01*
X95424476Y-79398857D01*
X95472095Y-79589333D01*
X95472095Y-79827428D01*
X95424476Y-80017904D01*
X95376857Y-80113142D01*
X95329238Y-80160761D01*
X95234000Y-80208380D01*
X95138761Y-80208380D01*
X95043523Y-80160761D01*
X94995904Y-80113142D01*
X94948285Y-80017904D01*
X94900666Y-79827428D01*
X94900666Y-79589333D01*
X94948285Y-79398857D01*
X94995904Y-79303619D01*
X95043523Y-79256000D01*
X95138761Y-79208380D01*
X95900666Y-80208380D02*
X95900666Y-79208380D01*
X95995904Y-79827428D02*
X96281619Y-80208380D01*
X96281619Y-79541714D02*
X95900666Y-79922666D01*
X97885428Y-94432380D02*
X97552095Y-93956190D01*
X97314000Y-94432380D02*
X97314000Y-93432380D01*
X97694952Y-93432380D01*
X97790190Y-93480000D01*
X97837809Y-93527619D01*
X97885428Y-93622857D01*
X97885428Y-93765714D01*
X97837809Y-93860952D01*
X97790190Y-93908571D01*
X97694952Y-93956190D01*
X97314000Y-93956190D01*
X98980666Y-93432380D02*
X99599714Y-93432380D01*
X99266380Y-93813333D01*
X99409238Y-93813333D01*
X99504476Y-93860952D01*
X99552095Y-93908571D01*
X99599714Y-94003809D01*
X99599714Y-94241904D01*
X99552095Y-94337142D01*
X99504476Y-94384761D01*
X99409238Y-94432380D01*
X99123523Y-94432380D01*
X99028285Y-94384761D01*
X98980666Y-94337142D01*
X99933047Y-93432380D02*
X100552095Y-93432380D01*
X100218761Y-93813333D01*
X100361619Y-93813333D01*
X100456857Y-93860952D01*
X100504476Y-93908571D01*
X100552095Y-94003809D01*
X100552095Y-94241904D01*
X100504476Y-94337142D01*
X100456857Y-94384761D01*
X100361619Y-94432380D01*
X100075904Y-94432380D01*
X99980666Y-94384761D01*
X99933047Y-94337142D01*
X100980666Y-94432380D02*
X100980666Y-93432380D01*
X101075904Y-94051428D02*
X101361619Y-94432380D01*
X101361619Y-93765714D02*
X100980666Y-94146666D01*
X109418380Y-95654476D02*
X108418380Y-95654476D01*
X109132666Y-95321142D01*
X108418380Y-94987809D01*
X109418380Y-94987809D01*
X109418380Y-94511619D02*
X108418380Y-94511619D01*
X108418380Y-94130666D01*
X108466000Y-94035428D01*
X108513619Y-93987809D01*
X108608857Y-93940190D01*
X108751714Y-93940190D01*
X108846952Y-93987809D01*
X108894571Y-94035428D01*
X108942190Y-94130666D01*
X108942190Y-94511619D01*
X109370761Y-93559238D02*
X109418380Y-93416380D01*
X109418380Y-93178285D01*
X109370761Y-93083047D01*
X109323142Y-93035428D01*
X109227904Y-92987809D01*
X109132666Y-92987809D01*
X109037428Y-93035428D01*
X108989809Y-93083047D01*
X108942190Y-93178285D01*
X108894571Y-93368761D01*
X108846952Y-93464000D01*
X108799333Y-93511619D01*
X108704095Y-93559238D01*
X108608857Y-93559238D01*
X108513619Y-93511619D01*
X108466000Y-93464000D01*
X108418380Y-93368761D01*
X108418380Y-93130666D01*
X108466000Y-92987809D01*
X109132666Y-92606857D02*
X109132666Y-92130666D01*
X109418380Y-92702095D02*
X108418380Y-92368761D01*
X109418380Y-92035428D01*
X108418380Y-91225904D02*
X108418380Y-91702095D01*
X108894571Y-91749714D01*
X108846952Y-91702095D01*
X108799333Y-91606857D01*
X108799333Y-91368761D01*
X108846952Y-91273523D01*
X108894571Y-91225904D01*
X108989809Y-91178285D01*
X109227904Y-91178285D01*
X109323142Y-91225904D01*
X109370761Y-91273523D01*
X109418380Y-91368761D01*
X109418380Y-91606857D01*
X109370761Y-91702095D01*
X109323142Y-91749714D01*
X108418380Y-90321142D02*
X108418380Y-90511619D01*
X108466000Y-90606857D01*
X108513619Y-90654476D01*
X108656476Y-90749714D01*
X108846952Y-90797333D01*
X109227904Y-90797333D01*
X109323142Y-90749714D01*
X109370761Y-90702095D01*
X109418380Y-90606857D01*
X109418380Y-90416380D01*
X109370761Y-90321142D01*
X109323142Y-90273523D01*
X109227904Y-90225904D01*
X108989809Y-90225904D01*
X108894571Y-90273523D01*
X108846952Y-90321142D01*
X108799333Y-90416380D01*
X108799333Y-90606857D01*
X108846952Y-90702095D01*
X108894571Y-90749714D01*
X108989809Y-90797333D01*
X95932666Y-97464571D02*
X95599333Y-97464571D01*
X95599333Y-97988380D02*
X95599333Y-96988380D01*
X96075523Y-96988380D01*
X96980285Y-97988380D02*
X96408857Y-97988380D01*
X96694571Y-97988380D02*
X96694571Y-96988380D01*
X96599333Y-97131238D01*
X96504095Y-97226476D01*
X96408857Y-97274095D01*
X90733619Y-89938952D02*
X90686000Y-89891333D01*
X90638380Y-89796095D01*
X90638380Y-89558000D01*
X90686000Y-89462761D01*
X90733619Y-89415142D01*
X90828857Y-89367523D01*
X90924095Y-89367523D01*
X91066952Y-89415142D01*
X91638380Y-89986571D01*
X91638380Y-89367523D01*
X91543142Y-88938952D02*
X91590761Y-88891333D01*
X91638380Y-88938952D01*
X91590761Y-88986571D01*
X91543142Y-88938952D01*
X91638380Y-88938952D01*
X90733619Y-88510380D02*
X90686000Y-88462761D01*
X90638380Y-88367523D01*
X90638380Y-88129428D01*
X90686000Y-88034190D01*
X90733619Y-87986571D01*
X90828857Y-87938952D01*
X90924095Y-87938952D01*
X91066952Y-87986571D01*
X91638380Y-88558000D01*
X91638380Y-87938952D01*
X90971714Y-87510380D02*
X91638380Y-87510380D01*
X91066952Y-87510380D02*
X91019333Y-87462761D01*
X90971714Y-87367523D01*
X90971714Y-87224666D01*
X91019333Y-87129428D01*
X91114571Y-87081809D01*
X91638380Y-87081809D01*
X91114571Y-86272285D02*
X91114571Y-86605619D01*
X91638380Y-86605619D02*
X90638380Y-86605619D01*
X90638380Y-86129428D01*
M02*
