G04 #@! TF.GenerationSoftware,KiCad,Pcbnew,(5.1.0)-1*
G04 #@! TF.CreationDate,2021-08-12T02:51:48-05:00*
G04 #@! TF.ProjectId,nixie_legacy-power,6e697869-655f-46c6-9567-6163792d706f,rev?*
G04 #@! TF.SameCoordinates,Original*
G04 #@! TF.FileFunction,Soldermask,Top*
G04 #@! TF.FilePolarity,Negative*
%FSLAX46Y46*%
G04 Gerber Fmt 4.6, Leading zero omitted, Abs format (unit mm)*
G04 Created by KiCad (PCBNEW (5.1.0)-1) date 2021-08-12 02:51:48*
%MOMM*%
%LPD*%
G04 APERTURE LIST*
%ADD10C,0.100000*%
G04 APERTURE END LIST*
D10*
G36*
X93358072Y-116984918D02*
G01*
X93495372Y-117041789D01*
X93603939Y-117086759D01*
X93715328Y-117161187D01*
X93797539Y-117216119D01*
X93825212Y-117234610D01*
X94013390Y-117422788D01*
X94133137Y-117602000D01*
X94161242Y-117644063D01*
X94263082Y-117889928D01*
X94315000Y-118150937D01*
X94315000Y-118417063D01*
X94263082Y-118678072D01*
X94218865Y-118784823D01*
X94161241Y-118923939D01*
X94106038Y-119006555D01*
X94013391Y-119145211D01*
X93825211Y-119333391D01*
X93767207Y-119372148D01*
X93603939Y-119481241D01*
X93603938Y-119481242D01*
X93603937Y-119481242D01*
X93358072Y-119583082D01*
X93097063Y-119635000D01*
X92830937Y-119635000D01*
X92569928Y-119583082D01*
X92324063Y-119481242D01*
X92324062Y-119481242D01*
X92324061Y-119481241D01*
X92160793Y-119372148D01*
X92102789Y-119333391D01*
X91914609Y-119145211D01*
X91821962Y-119006555D01*
X91766759Y-118923939D01*
X91709136Y-118784823D01*
X91664918Y-118678072D01*
X91613000Y-118417063D01*
X91613000Y-118150937D01*
X91664918Y-117889928D01*
X91766758Y-117644063D01*
X91794864Y-117602000D01*
X91914610Y-117422788D01*
X92102788Y-117234610D01*
X92130462Y-117216119D01*
X92212672Y-117161187D01*
X92324061Y-117086759D01*
X92432629Y-117041789D01*
X92569928Y-116984918D01*
X92830937Y-116933000D01*
X93097063Y-116933000D01*
X93358072Y-116984918D01*
X93358072Y-116984918D01*
G37*
G36*
X116213000Y-119515000D02*
G01*
X113911000Y-119515000D01*
X113911000Y-117213000D01*
X116213000Y-117213000D01*
X116213000Y-119515000D01*
X116213000Y-119515000D01*
G37*
G36*
X107611271Y-117224103D02*
G01*
X107667635Y-117229654D01*
X107884600Y-117295470D01*
X107884602Y-117295471D01*
X108084555Y-117402347D01*
X108259818Y-117546182D01*
X108403653Y-117721445D01*
X108502831Y-117906996D01*
X108510530Y-117921400D01*
X108576346Y-118138365D01*
X108598569Y-118364000D01*
X108576346Y-118589635D01*
X108549519Y-118678072D01*
X108510529Y-118806602D01*
X108403653Y-119006555D01*
X108259818Y-119181818D01*
X108084555Y-119325653D01*
X107930448Y-119408024D01*
X107884600Y-119432530D01*
X107667635Y-119498346D01*
X107611271Y-119503897D01*
X107498545Y-119515000D01*
X107385455Y-119515000D01*
X107272729Y-119503897D01*
X107216365Y-119498346D01*
X106999400Y-119432530D01*
X106953552Y-119408024D01*
X106799445Y-119325653D01*
X106624182Y-119181818D01*
X106480347Y-119006555D01*
X106373471Y-118806602D01*
X106334482Y-118678072D01*
X106307654Y-118589635D01*
X106285431Y-118364000D01*
X106307654Y-118138365D01*
X106373470Y-117921400D01*
X106381169Y-117906996D01*
X106480347Y-117721445D01*
X106624182Y-117546182D01*
X106799445Y-117402347D01*
X106999398Y-117295471D01*
X106999400Y-117295470D01*
X107216365Y-117229654D01*
X107272729Y-117224103D01*
X107385455Y-117213000D01*
X107498545Y-117213000D01*
X107611271Y-117224103D01*
X107611271Y-117224103D01*
G37*
G36*
X118530823Y-117779313D02*
G01*
X118691242Y-117827976D01*
X118758361Y-117863852D01*
X118839078Y-117906996D01*
X118968659Y-118013341D01*
X119075004Y-118142922D01*
X119075005Y-118142924D01*
X119154024Y-118290758D01*
X119202687Y-118451177D01*
X119219117Y-118618000D01*
X119202687Y-118784823D01*
X119154024Y-118945242D01*
X119113477Y-119021100D01*
X119075004Y-119093078D01*
X118968659Y-119222659D01*
X118839078Y-119329004D01*
X118839076Y-119329005D01*
X118691242Y-119408024D01*
X118530823Y-119456687D01*
X118405804Y-119469000D01*
X118322196Y-119469000D01*
X118197177Y-119456687D01*
X118036758Y-119408024D01*
X117888924Y-119329005D01*
X117888922Y-119329004D01*
X117759341Y-119222659D01*
X117652996Y-119093078D01*
X117614523Y-119021100D01*
X117573976Y-118945242D01*
X117525313Y-118784823D01*
X117508883Y-118618000D01*
X117525313Y-118451177D01*
X117573976Y-118290758D01*
X117652995Y-118142924D01*
X117652996Y-118142922D01*
X117759341Y-118013341D01*
X117888922Y-117906996D01*
X117969639Y-117863852D01*
X118036758Y-117827976D01*
X118197177Y-117779313D01*
X118322196Y-117767000D01*
X118405804Y-117767000D01*
X118530823Y-117779313D01*
X118530823Y-117779313D01*
G37*
G36*
X99562228Y-117799703D02*
G01*
X99717100Y-117863853D01*
X99856481Y-117956985D01*
X99975015Y-118075519D01*
X100068147Y-118214900D01*
X100132297Y-118369772D01*
X100165000Y-118534184D01*
X100165000Y-118701816D01*
X100132297Y-118866228D01*
X100068147Y-119021100D01*
X99975015Y-119160481D01*
X99856481Y-119279015D01*
X99717100Y-119372147D01*
X99562228Y-119436297D01*
X99397816Y-119469000D01*
X99230184Y-119469000D01*
X99065772Y-119436297D01*
X98910900Y-119372147D01*
X98771519Y-119279015D01*
X98652985Y-119160481D01*
X98559853Y-119021100D01*
X98495703Y-118866228D01*
X98463000Y-118701816D01*
X98463000Y-118534184D01*
X98495703Y-118369772D01*
X98559853Y-118214900D01*
X98652985Y-118075519D01*
X98771519Y-117956985D01*
X98910900Y-117863853D01*
X99065772Y-117799703D01*
X99230184Y-117767000D01*
X99397816Y-117767000D01*
X99562228Y-117799703D01*
X99562228Y-117799703D01*
G37*
G36*
X102761936Y-116603340D02*
G01*
X102860220Y-116613020D01*
X103049381Y-116670401D01*
X103223712Y-116763583D01*
X103376515Y-116888985D01*
X103501917Y-117041788D01*
X103595099Y-117216119D01*
X103652480Y-117405280D01*
X103671855Y-117602000D01*
X103652480Y-117798720D01*
X103595099Y-117987881D01*
X103501917Y-118162212D01*
X103376515Y-118315015D01*
X103223712Y-118440417D01*
X103049381Y-118533599D01*
X102860220Y-118590980D01*
X102761936Y-118600660D01*
X102712795Y-118605500D01*
X102519205Y-118605500D01*
X102470064Y-118600660D01*
X102371780Y-118590980D01*
X102182619Y-118533599D01*
X102008288Y-118440417D01*
X101855485Y-118315015D01*
X101730083Y-118162212D01*
X101636901Y-117987881D01*
X101579520Y-117798720D01*
X101560145Y-117602000D01*
X101579520Y-117405280D01*
X101636901Y-117216119D01*
X101730083Y-117041788D01*
X101855485Y-116888985D01*
X102008288Y-116763583D01*
X102182619Y-116670401D01*
X102371780Y-116613020D01*
X102470064Y-116603340D01*
X102519205Y-116598500D01*
X102712795Y-116598500D01*
X102761936Y-116603340D01*
X102761936Y-116603340D01*
G37*
G36*
X102761936Y-114063340D02*
G01*
X102860220Y-114073020D01*
X103049381Y-114130401D01*
X103223712Y-114223583D01*
X103376515Y-114348985D01*
X103501917Y-114501788D01*
X103595099Y-114676119D01*
X103652480Y-114865280D01*
X103671855Y-115062000D01*
X103652480Y-115258720D01*
X103595099Y-115447881D01*
X103501917Y-115622212D01*
X103376515Y-115775015D01*
X103223712Y-115900417D01*
X103049381Y-115993599D01*
X102860220Y-116050980D01*
X102761936Y-116060660D01*
X102712795Y-116065500D01*
X102519205Y-116065500D01*
X102470064Y-116060660D01*
X102371780Y-116050980D01*
X102182619Y-115993599D01*
X102008288Y-115900417D01*
X101855485Y-115775015D01*
X101730083Y-115622212D01*
X101636901Y-115447881D01*
X101579520Y-115258720D01*
X101560145Y-115062000D01*
X101579520Y-114865280D01*
X101636901Y-114676119D01*
X101730083Y-114501788D01*
X101855485Y-114348985D01*
X102008288Y-114223583D01*
X102182619Y-114130401D01*
X102371780Y-114073020D01*
X102470064Y-114063340D01*
X102519205Y-114058500D01*
X102712795Y-114058500D01*
X102761936Y-114063340D01*
X102761936Y-114063340D01*
G37*
G36*
X93358072Y-111984918D02*
G01*
X93447242Y-112021853D01*
X93603939Y-112086759D01*
X93646182Y-112114985D01*
X93825211Y-112234609D01*
X94013391Y-112422789D01*
X94161242Y-112644063D01*
X94263082Y-112889928D01*
X94315000Y-113150937D01*
X94315000Y-113417063D01*
X94263082Y-113678072D01*
X94161242Y-113923937D01*
X94023287Y-114130401D01*
X94013390Y-114145212D01*
X93825212Y-114333390D01*
X93603939Y-114481241D01*
X93603938Y-114481242D01*
X93603937Y-114481242D01*
X93358072Y-114583082D01*
X93097063Y-114635000D01*
X92830937Y-114635000D01*
X92569928Y-114583082D01*
X92324063Y-114481242D01*
X92324062Y-114481242D01*
X92324061Y-114481241D01*
X92102788Y-114333390D01*
X91914610Y-114145212D01*
X91904714Y-114130401D01*
X91766758Y-113923937D01*
X91664918Y-113678072D01*
X91613000Y-113417063D01*
X91613000Y-113150937D01*
X91664918Y-112889928D01*
X91766758Y-112644063D01*
X91914609Y-112422789D01*
X92102789Y-112234609D01*
X92281818Y-112114985D01*
X92324061Y-112086759D01*
X92480759Y-112021853D01*
X92569928Y-111984918D01*
X92830937Y-111933000D01*
X93097063Y-111933000D01*
X93358072Y-111984918D01*
X93358072Y-111984918D01*
G37*
G36*
X107944228Y-112719703D02*
G01*
X108099100Y-112783853D01*
X108238481Y-112876985D01*
X108357015Y-112995519D01*
X108450147Y-113134900D01*
X108514297Y-113289772D01*
X108547000Y-113454184D01*
X108547000Y-113621816D01*
X108514297Y-113786228D01*
X108450147Y-113941100D01*
X108357015Y-114080481D01*
X108238481Y-114199015D01*
X108099100Y-114292147D01*
X107944228Y-114356297D01*
X107779816Y-114389000D01*
X107612184Y-114389000D01*
X107447772Y-114356297D01*
X107292900Y-114292147D01*
X107153519Y-114199015D01*
X107034985Y-114080481D01*
X106941853Y-113941100D01*
X106877703Y-113786228D01*
X106845000Y-113621816D01*
X106845000Y-113454184D01*
X106877703Y-113289772D01*
X106941853Y-113134900D01*
X107034985Y-112995519D01*
X107153519Y-112876985D01*
X107292900Y-112783853D01*
X107447772Y-112719703D01*
X107612184Y-112687000D01*
X107779816Y-112687000D01*
X107944228Y-112719703D01*
X107944228Y-112719703D01*
G37*
G36*
X112651000Y-113627000D02*
G01*
X110949000Y-113627000D01*
X110949000Y-111925000D01*
X112651000Y-111925000D01*
X112651000Y-113627000D01*
X112651000Y-113627000D01*
G37*
G36*
X114548228Y-111957703D02*
G01*
X114703100Y-112021853D01*
X114842481Y-112114985D01*
X114961015Y-112233519D01*
X115054147Y-112372900D01*
X115118297Y-112527772D01*
X115151000Y-112692184D01*
X115151000Y-112859816D01*
X115118297Y-113024228D01*
X115054147Y-113179100D01*
X114961015Y-113318481D01*
X114842481Y-113437015D01*
X114703100Y-113530147D01*
X114548228Y-113594297D01*
X114383816Y-113627000D01*
X114216184Y-113627000D01*
X114051772Y-113594297D01*
X113896900Y-113530147D01*
X113757519Y-113437015D01*
X113638985Y-113318481D01*
X113545853Y-113179100D01*
X113481703Y-113024228D01*
X113449000Y-112859816D01*
X113449000Y-112692184D01*
X113481703Y-112527772D01*
X113545853Y-112372900D01*
X113638985Y-112233519D01*
X113757519Y-112114985D01*
X113896900Y-112021853D01*
X114051772Y-111957703D01*
X114216184Y-111925000D01*
X114383816Y-111925000D01*
X114548228Y-111957703D01*
X114548228Y-111957703D01*
G37*
G36*
X103667000Y-113525500D02*
G01*
X101565000Y-113525500D01*
X101565000Y-111518500D01*
X103667000Y-111518500D01*
X103667000Y-113525500D01*
X103667000Y-113525500D01*
G37*
G36*
X107944228Y-110219703D02*
G01*
X108099100Y-110283853D01*
X108238481Y-110376985D01*
X108357015Y-110495519D01*
X108450147Y-110634900D01*
X108514297Y-110789772D01*
X108547000Y-110954184D01*
X108547000Y-111121816D01*
X108514297Y-111286228D01*
X108450147Y-111441100D01*
X108357015Y-111580481D01*
X108238481Y-111699015D01*
X108099100Y-111792147D01*
X107944228Y-111856297D01*
X107779816Y-111889000D01*
X107612184Y-111889000D01*
X107447772Y-111856297D01*
X107292900Y-111792147D01*
X107153519Y-111699015D01*
X107034985Y-111580481D01*
X106941853Y-111441100D01*
X106877703Y-111286228D01*
X106845000Y-111121816D01*
X106845000Y-110954184D01*
X106877703Y-110789772D01*
X106941853Y-110634900D01*
X107034985Y-110495519D01*
X107153519Y-110376985D01*
X107292900Y-110283853D01*
X107447772Y-110219703D01*
X107612184Y-110187000D01*
X107779816Y-110187000D01*
X107944228Y-110219703D01*
X107944228Y-110219703D01*
G37*
G36*
X99480823Y-110159313D02*
G01*
X99641242Y-110207976D01*
X99708361Y-110243852D01*
X99789078Y-110286996D01*
X99918659Y-110393341D01*
X100025004Y-110522922D01*
X100025005Y-110522924D01*
X100104024Y-110670758D01*
X100152687Y-110831177D01*
X100169117Y-110998000D01*
X100152687Y-111164823D01*
X100104024Y-111325242D01*
X100033114Y-111457906D01*
X100025004Y-111473078D01*
X99918659Y-111602659D01*
X99789078Y-111709004D01*
X99789076Y-111709005D01*
X99641242Y-111788024D01*
X99641239Y-111788025D01*
X99627647Y-111792148D01*
X99480823Y-111836687D01*
X99355804Y-111849000D01*
X99272196Y-111849000D01*
X99147177Y-111836687D01*
X99000353Y-111792148D01*
X98986761Y-111788025D01*
X98986758Y-111788024D01*
X98838924Y-111709005D01*
X98838922Y-111709004D01*
X98709341Y-111602659D01*
X98602996Y-111473078D01*
X98594886Y-111457906D01*
X98523976Y-111325242D01*
X98475313Y-111164823D01*
X98458883Y-110998000D01*
X98475313Y-110831177D01*
X98523976Y-110670758D01*
X98602995Y-110522924D01*
X98602996Y-110522922D01*
X98709341Y-110393341D01*
X98838922Y-110286996D01*
X98919639Y-110243852D01*
X98986758Y-110207976D01*
X99147177Y-110159313D01*
X99272196Y-110147000D01*
X99355804Y-110147000D01*
X99480823Y-110159313D01*
X99480823Y-110159313D01*
G37*
G36*
X118612228Y-110179703D02*
G01*
X118767100Y-110243853D01*
X118906481Y-110336985D01*
X119025015Y-110455519D01*
X119118147Y-110594900D01*
X119182297Y-110749772D01*
X119215000Y-110914184D01*
X119215000Y-111081816D01*
X119182297Y-111246228D01*
X119118147Y-111401100D01*
X119025015Y-111540481D01*
X118906481Y-111659015D01*
X118767100Y-111752147D01*
X118612228Y-111816297D01*
X118447816Y-111849000D01*
X118280184Y-111849000D01*
X118115772Y-111816297D01*
X117960900Y-111752147D01*
X117821519Y-111659015D01*
X117702985Y-111540481D01*
X117609853Y-111401100D01*
X117545703Y-111246228D01*
X117513000Y-111081816D01*
X117513000Y-110914184D01*
X117545703Y-110749772D01*
X117609853Y-110594900D01*
X117702985Y-110455519D01*
X117821519Y-110336985D01*
X117960900Y-110243853D01*
X118115772Y-110179703D01*
X118280184Y-110147000D01*
X118447816Y-110147000D01*
X118612228Y-110179703D01*
X118612228Y-110179703D01*
G37*
G36*
X118474442Y-107055518D02*
G01*
X118540627Y-107062037D01*
X118710466Y-107113557D01*
X118866991Y-107197222D01*
X118902729Y-107226552D01*
X119004186Y-107309814D01*
X119087448Y-107411271D01*
X119116778Y-107447009D01*
X119200443Y-107603534D01*
X119251963Y-107773373D01*
X119269359Y-107950000D01*
X119251963Y-108126627D01*
X119200443Y-108296466D01*
X119116778Y-108452991D01*
X119087448Y-108488729D01*
X119004186Y-108590186D01*
X118902729Y-108673448D01*
X118866991Y-108702778D01*
X118710466Y-108786443D01*
X118540627Y-108837963D01*
X118474442Y-108844482D01*
X118408260Y-108851000D01*
X118319740Y-108851000D01*
X118253558Y-108844482D01*
X118187373Y-108837963D01*
X118017534Y-108786443D01*
X117861009Y-108702778D01*
X117825271Y-108673448D01*
X117723814Y-108590186D01*
X117640552Y-108488729D01*
X117611222Y-108452991D01*
X117527557Y-108296466D01*
X117476037Y-108126627D01*
X117458641Y-107950000D01*
X117476037Y-107773373D01*
X117527557Y-107603534D01*
X117611222Y-107447009D01*
X117640552Y-107411271D01*
X117723814Y-107309814D01*
X117825271Y-107226552D01*
X117861009Y-107197222D01*
X118017534Y-107113557D01*
X118187373Y-107062037D01*
X118253558Y-107055518D01*
X118319740Y-107049000D01*
X118408260Y-107049000D01*
X118474442Y-107055518D01*
X118474442Y-107055518D01*
G37*
G36*
X113450823Y-107111313D02*
G01*
X113611242Y-107159976D01*
X113680922Y-107197221D01*
X113759078Y-107238996D01*
X113888659Y-107345341D01*
X113995004Y-107474922D01*
X113995005Y-107474924D01*
X114074024Y-107622758D01*
X114122687Y-107783177D01*
X114139117Y-107950000D01*
X114122687Y-108116823D01*
X114074024Y-108277242D01*
X114063747Y-108296468D01*
X113995004Y-108425078D01*
X113888659Y-108554659D01*
X113759078Y-108661004D01*
X113759076Y-108661005D01*
X113611242Y-108740024D01*
X113450823Y-108788687D01*
X113325804Y-108801000D01*
X113242196Y-108801000D01*
X113117177Y-108788687D01*
X112956758Y-108740024D01*
X112808924Y-108661005D01*
X112808922Y-108661004D01*
X112679341Y-108554659D01*
X112572996Y-108425078D01*
X112504253Y-108296468D01*
X112493976Y-108277242D01*
X112445313Y-108116823D01*
X112428883Y-107950000D01*
X112445313Y-107783177D01*
X112493976Y-107622758D01*
X112572995Y-107474924D01*
X112572996Y-107474922D01*
X112679341Y-107345341D01*
X112808922Y-107238996D01*
X112887078Y-107197221D01*
X112956758Y-107159976D01*
X113117177Y-107111313D01*
X113242196Y-107099000D01*
X113325804Y-107099000D01*
X113450823Y-107111313D01*
X113450823Y-107111313D01*
G37*
G36*
X109272564Y-105669389D02*
G01*
X109463833Y-105748615D01*
X109463835Y-105748616D01*
X109635973Y-105863635D01*
X109782365Y-106010027D01*
X109884431Y-106162779D01*
X109897385Y-106182167D01*
X109976611Y-106373436D01*
X110017000Y-106576484D01*
X110017000Y-106783516D01*
X109976611Y-106986564D01*
X109897385Y-107177833D01*
X109897384Y-107177835D01*
X109782365Y-107349973D01*
X109635973Y-107496365D01*
X109463835Y-107611384D01*
X109463834Y-107611385D01*
X109463833Y-107611385D01*
X109272564Y-107690611D01*
X109069516Y-107731000D01*
X108862484Y-107731000D01*
X108659436Y-107690611D01*
X108468167Y-107611385D01*
X108468166Y-107611385D01*
X108468165Y-107611384D01*
X108296027Y-107496365D01*
X108149635Y-107349973D01*
X108034616Y-107177835D01*
X108034615Y-107177833D01*
X107955389Y-106986564D01*
X107915000Y-106783516D01*
X107915000Y-106576484D01*
X107955389Y-106373436D01*
X108034615Y-106182167D01*
X108047570Y-106162779D01*
X108149635Y-106010027D01*
X108296027Y-105863635D01*
X108468165Y-105748616D01*
X108468167Y-105748615D01*
X108659436Y-105669389D01*
X108862484Y-105629000D01*
X109069516Y-105629000D01*
X109272564Y-105669389D01*
X109272564Y-105669389D01*
G37*
G36*
X104937000Y-107731000D02*
G01*
X102835000Y-107731000D01*
X102835000Y-105629000D01*
X104937000Y-105629000D01*
X104937000Y-107731000D01*
X104937000Y-107731000D01*
G37*
G36*
X106732564Y-105669389D02*
G01*
X106923833Y-105748615D01*
X106923835Y-105748616D01*
X107095973Y-105863635D01*
X107242365Y-106010027D01*
X107344431Y-106162779D01*
X107357385Y-106182167D01*
X107436611Y-106373436D01*
X107477000Y-106576484D01*
X107477000Y-106783516D01*
X107436611Y-106986564D01*
X107357385Y-107177833D01*
X107357384Y-107177835D01*
X107242365Y-107349973D01*
X107095973Y-107496365D01*
X106923835Y-107611384D01*
X106923834Y-107611385D01*
X106923833Y-107611385D01*
X106732564Y-107690611D01*
X106529516Y-107731000D01*
X106322484Y-107731000D01*
X106119436Y-107690611D01*
X105928167Y-107611385D01*
X105928166Y-107611385D01*
X105928165Y-107611384D01*
X105756027Y-107496365D01*
X105609635Y-107349973D01*
X105494616Y-107177835D01*
X105494615Y-107177833D01*
X105415389Y-106986564D01*
X105375000Y-106783516D01*
X105375000Y-106576484D01*
X105415389Y-106373436D01*
X105494615Y-106182167D01*
X105507570Y-106162779D01*
X105609635Y-106010027D01*
X105756027Y-105863635D01*
X105928165Y-105748616D01*
X105928167Y-105748615D01*
X106119436Y-105669389D01*
X106322484Y-105629000D01*
X106529516Y-105629000D01*
X106732564Y-105669389D01*
X106732564Y-105669389D01*
G37*
G36*
X96238564Y-104907389D02*
G01*
X96429833Y-104986615D01*
X96429835Y-104986616D01*
X96544948Y-105063532D01*
X96601973Y-105101635D01*
X96748365Y-105248027D01*
X96863385Y-105420167D01*
X96942611Y-105611436D01*
X96983000Y-105814484D01*
X96983000Y-106021516D01*
X96942611Y-106224564D01*
X96933548Y-106246443D01*
X96863384Y-106415835D01*
X96748365Y-106587973D01*
X96601973Y-106734365D01*
X96429835Y-106849384D01*
X96429834Y-106849385D01*
X96429833Y-106849385D01*
X96238564Y-106928611D01*
X96035516Y-106969000D01*
X95828484Y-106969000D01*
X95625436Y-106928611D01*
X95434167Y-106849385D01*
X95434166Y-106849385D01*
X95434165Y-106849384D01*
X95262027Y-106734365D01*
X95115635Y-106587973D01*
X95000616Y-106415835D01*
X94930452Y-106246443D01*
X94921389Y-106224564D01*
X94881000Y-106021516D01*
X94881000Y-105814484D01*
X94921389Y-105611436D01*
X95000615Y-105420167D01*
X95115635Y-105248027D01*
X95262027Y-105101635D01*
X95319052Y-105063532D01*
X95434165Y-104986616D01*
X95434167Y-104986615D01*
X95625436Y-104907389D01*
X95828484Y-104867000D01*
X96035516Y-104867000D01*
X96238564Y-104907389D01*
X96238564Y-104907389D01*
G37*
G36*
X91983000Y-106969000D02*
G01*
X89881000Y-106969000D01*
X89881000Y-104867000D01*
X91983000Y-104867000D01*
X91983000Y-106969000D01*
X91983000Y-106969000D01*
G37*
G36*
X118474443Y-104515519D02*
G01*
X118540627Y-104522037D01*
X118710466Y-104573557D01*
X118866991Y-104657222D01*
X118902729Y-104686552D01*
X119004186Y-104769814D01*
X119083943Y-104867000D01*
X119116778Y-104907009D01*
X119200443Y-105063534D01*
X119251963Y-105233373D01*
X119269359Y-105410000D01*
X119251963Y-105586627D01*
X119202824Y-105748616D01*
X119200442Y-105756468D01*
X119169430Y-105814486D01*
X119116778Y-105912991D01*
X119087448Y-105948729D01*
X119004186Y-106050186D01*
X118902729Y-106133448D01*
X118866991Y-106162778D01*
X118710466Y-106246443D01*
X118540627Y-106297963D01*
X118474442Y-106304482D01*
X118408260Y-106311000D01*
X118319740Y-106311000D01*
X118253558Y-106304482D01*
X118187373Y-106297963D01*
X118017534Y-106246443D01*
X117861009Y-106162778D01*
X117825271Y-106133448D01*
X117723814Y-106050186D01*
X117640552Y-105948729D01*
X117611222Y-105912991D01*
X117558570Y-105814486D01*
X117527558Y-105756468D01*
X117525176Y-105748616D01*
X117476037Y-105586627D01*
X117458641Y-105410000D01*
X117476037Y-105233373D01*
X117527557Y-105063534D01*
X117611222Y-104907009D01*
X117644057Y-104867000D01*
X117723814Y-104769814D01*
X117825271Y-104686552D01*
X117861009Y-104657222D01*
X118017534Y-104573557D01*
X118187373Y-104522037D01*
X118253557Y-104515519D01*
X118319740Y-104509000D01*
X118408260Y-104509000D01*
X118474443Y-104515519D01*
X118474443Y-104515519D01*
G37*
G36*
X119265000Y-103771000D02*
G01*
X117463000Y-103771000D01*
X117463000Y-101969000D01*
X119265000Y-101969000D01*
X119265000Y-103771000D01*
X119265000Y-103771000D01*
G37*
G36*
X110230228Y-101249703D02*
G01*
X110385100Y-101313853D01*
X110524481Y-101406985D01*
X110643015Y-101525519D01*
X110736147Y-101664900D01*
X110800297Y-101819772D01*
X110833000Y-101984184D01*
X110833000Y-102151816D01*
X110800297Y-102316228D01*
X110736147Y-102471100D01*
X110643015Y-102610481D01*
X110524481Y-102729015D01*
X110385100Y-102822147D01*
X110230228Y-102886297D01*
X110065816Y-102919000D01*
X109898184Y-102919000D01*
X109733772Y-102886297D01*
X109578900Y-102822147D01*
X109439519Y-102729015D01*
X109320985Y-102610481D01*
X109227853Y-102471100D01*
X109163703Y-102316228D01*
X109131000Y-102151816D01*
X109131000Y-101984184D01*
X109163703Y-101819772D01*
X109227853Y-101664900D01*
X109320985Y-101525519D01*
X109439519Y-101406985D01*
X109578900Y-101313853D01*
X109733772Y-101249703D01*
X109898184Y-101217000D01*
X110065816Y-101217000D01*
X110230228Y-101249703D01*
X110230228Y-101249703D01*
G37*
G36*
X98320015Y-100076290D02*
G01*
X98422024Y-100096581D01*
X98614204Y-100176185D01*
X98787161Y-100291751D01*
X98934249Y-100438839D01*
X99049815Y-100611796D01*
X99100061Y-100733100D01*
X99129419Y-100803977D01*
X99170000Y-101007992D01*
X99170000Y-101216008D01*
X99163298Y-101249703D01*
X99129419Y-101420024D01*
X99049815Y-101612204D01*
X98934249Y-101785161D01*
X98787161Y-101932249D01*
X98614204Y-102047815D01*
X98422024Y-102127419D01*
X98320016Y-102147709D01*
X98218008Y-102168000D01*
X98009992Y-102168000D01*
X97907985Y-102147710D01*
X97805976Y-102127419D01*
X97613796Y-102047815D01*
X97440839Y-101932249D01*
X97293751Y-101785161D01*
X97178185Y-101612204D01*
X97098581Y-101420024D01*
X97064702Y-101249703D01*
X97058000Y-101216008D01*
X97058000Y-101007992D01*
X97098581Y-100803977D01*
X97127939Y-100733100D01*
X97178185Y-100611796D01*
X97293751Y-100438839D01*
X97440839Y-100291751D01*
X97613796Y-100176185D01*
X97805976Y-100096581D01*
X97907985Y-100076290D01*
X98009992Y-100056000D01*
X98218008Y-100056000D01*
X98320015Y-100076290D01*
X98320015Y-100076290D01*
G37*
G36*
X113532228Y-99511703D02*
G01*
X113687100Y-99575853D01*
X113826481Y-99668985D01*
X113945015Y-99787519D01*
X114038147Y-99926900D01*
X114102297Y-100081772D01*
X114135000Y-100246184D01*
X114135000Y-100413816D01*
X114102297Y-100578228D01*
X114038147Y-100733100D01*
X113945015Y-100872481D01*
X113826481Y-100991015D01*
X113687100Y-101084147D01*
X113532228Y-101148297D01*
X113367816Y-101181000D01*
X113200184Y-101181000D01*
X113035772Y-101148297D01*
X112880900Y-101084147D01*
X112741519Y-100991015D01*
X112622985Y-100872481D01*
X112529853Y-100733100D01*
X112465703Y-100578228D01*
X112433000Y-100413816D01*
X112433000Y-100246184D01*
X112465703Y-100081772D01*
X112529853Y-99926900D01*
X112622985Y-99787519D01*
X112741519Y-99668985D01*
X112880900Y-99575853D01*
X113035772Y-99511703D01*
X113200184Y-99479000D01*
X113367816Y-99479000D01*
X113532228Y-99511703D01*
X113532228Y-99511703D01*
G37*
G36*
X118612228Y-98749703D02*
G01*
X118767100Y-98813853D01*
X118906481Y-98906985D01*
X119025015Y-99025519D01*
X119118147Y-99164900D01*
X119182297Y-99319772D01*
X119215000Y-99484184D01*
X119215000Y-99651816D01*
X119182297Y-99816228D01*
X119118147Y-99971100D01*
X119025015Y-100110481D01*
X118906481Y-100229015D01*
X118767100Y-100322147D01*
X118612228Y-100386297D01*
X118447816Y-100419000D01*
X118280184Y-100419000D01*
X118115772Y-100386297D01*
X117960900Y-100322147D01*
X117821519Y-100229015D01*
X117702985Y-100110481D01*
X117609853Y-99971100D01*
X117545703Y-99816228D01*
X117513000Y-99651816D01*
X117513000Y-99484184D01*
X117545703Y-99319772D01*
X117609853Y-99164900D01*
X117702985Y-99025519D01*
X117821519Y-98906985D01*
X117960900Y-98813853D01*
X118115772Y-98749703D01*
X118280184Y-98717000D01*
X118447816Y-98717000D01*
X118612228Y-98749703D01*
X118612228Y-98749703D01*
G37*
G36*
X116112228Y-98749703D02*
G01*
X116267100Y-98813853D01*
X116406481Y-98906985D01*
X116525015Y-99025519D01*
X116618147Y-99164900D01*
X116682297Y-99319772D01*
X116715000Y-99484184D01*
X116715000Y-99651816D01*
X116682297Y-99816228D01*
X116618147Y-99971100D01*
X116525015Y-100110481D01*
X116406481Y-100229015D01*
X116267100Y-100322147D01*
X116112228Y-100386297D01*
X115947816Y-100419000D01*
X115780184Y-100419000D01*
X115615772Y-100386297D01*
X115460900Y-100322147D01*
X115321519Y-100229015D01*
X115202985Y-100110481D01*
X115109853Y-99971100D01*
X115045703Y-99816228D01*
X115013000Y-99651816D01*
X115013000Y-99484184D01*
X115045703Y-99319772D01*
X115109853Y-99164900D01*
X115202985Y-99025519D01*
X115321519Y-98906985D01*
X115460900Y-98813853D01*
X115615772Y-98749703D01*
X115780184Y-98717000D01*
X115947816Y-98717000D01*
X116112228Y-98749703D01*
X116112228Y-98749703D01*
G37*
G36*
X110230228Y-98749703D02*
G01*
X110385100Y-98813853D01*
X110524481Y-98906985D01*
X110643015Y-99025519D01*
X110736147Y-99164900D01*
X110800297Y-99319772D01*
X110833000Y-99484184D01*
X110833000Y-99651816D01*
X110800297Y-99816228D01*
X110736147Y-99971100D01*
X110643015Y-100110481D01*
X110524481Y-100229015D01*
X110385100Y-100322147D01*
X110230228Y-100386297D01*
X110065816Y-100419000D01*
X109898184Y-100419000D01*
X109733772Y-100386297D01*
X109578900Y-100322147D01*
X109439519Y-100229015D01*
X109320985Y-100110481D01*
X109227853Y-99971100D01*
X109163703Y-99816228D01*
X109131000Y-99651816D01*
X109131000Y-99484184D01*
X109163703Y-99319772D01*
X109227853Y-99164900D01*
X109320985Y-99025519D01*
X109439519Y-98906985D01*
X109578900Y-98813853D01*
X109733772Y-98749703D01*
X109898184Y-98717000D01*
X110065816Y-98717000D01*
X110230228Y-98749703D01*
X110230228Y-98749703D01*
G37*
G36*
X90280443Y-98419519D02*
G01*
X90346627Y-98426037D01*
X90516466Y-98477557D01*
X90672991Y-98561222D01*
X90696318Y-98580366D01*
X90810186Y-98673814D01*
X90872467Y-98749705D01*
X90922778Y-98811009D01*
X91006443Y-98967534D01*
X91057963Y-99137373D01*
X91075359Y-99314000D01*
X91057963Y-99490627D01*
X91032110Y-99575852D01*
X91006442Y-99660468D01*
X90964611Y-99738728D01*
X90922778Y-99816991D01*
X90893448Y-99852729D01*
X90810186Y-99954186D01*
X90708729Y-100037448D01*
X90672991Y-100066778D01*
X90516466Y-100150443D01*
X90346627Y-100201963D01*
X90280442Y-100208482D01*
X90214260Y-100215000D01*
X90125740Y-100215000D01*
X90059558Y-100208482D01*
X89993373Y-100201963D01*
X89823534Y-100150443D01*
X89667009Y-100066778D01*
X89631271Y-100037448D01*
X89529814Y-99954186D01*
X89446552Y-99852729D01*
X89417222Y-99816991D01*
X89375389Y-99738728D01*
X89333558Y-99660468D01*
X89307890Y-99575852D01*
X89282037Y-99490627D01*
X89264641Y-99314000D01*
X89282037Y-99137373D01*
X89333557Y-98967534D01*
X89417222Y-98811009D01*
X89467533Y-98749705D01*
X89529814Y-98673814D01*
X89643682Y-98580366D01*
X89667009Y-98561222D01*
X89823534Y-98477557D01*
X89993373Y-98426037D01*
X90059557Y-98419519D01*
X90125740Y-98413000D01*
X90214260Y-98413000D01*
X90280443Y-98419519D01*
X90280443Y-98419519D01*
G37*
G36*
X95639000Y-97417000D02*
G01*
X94672501Y-97417000D01*
X94648115Y-97419402D01*
X94624666Y-97426515D01*
X94603055Y-97438066D01*
X94584113Y-97453611D01*
X94568568Y-97472553D01*
X94557017Y-97494164D01*
X94549904Y-97517613D01*
X94547502Y-97541999D01*
X94549904Y-97566385D01*
X94557017Y-97589834D01*
X94568568Y-97611445D01*
X94584113Y-97630387D01*
X94603055Y-97645932D01*
X94624666Y-97657483D01*
X94660249Y-97666396D01*
X94713635Y-97671654D01*
X94930600Y-97737470D01*
X94930602Y-97737471D01*
X95130555Y-97844347D01*
X95305818Y-97988182D01*
X95449653Y-98163445D01*
X95556529Y-98363398D01*
X95556530Y-98363400D01*
X95622346Y-98580365D01*
X95644569Y-98806000D01*
X95622346Y-99031635D01*
X95590271Y-99137373D01*
X95556529Y-99248602D01*
X95449653Y-99448555D01*
X95305818Y-99623818D01*
X95130555Y-99767653D01*
X94930602Y-99874529D01*
X94930600Y-99874530D01*
X94713635Y-99940346D01*
X94657271Y-99945897D01*
X94544545Y-99957000D01*
X94431455Y-99957000D01*
X94318729Y-99945897D01*
X94262365Y-99940346D01*
X94045400Y-99874530D01*
X94045398Y-99874529D01*
X93845445Y-99767653D01*
X93670182Y-99623818D01*
X93526347Y-99448555D01*
X93419471Y-99248602D01*
X93385730Y-99137373D01*
X93353654Y-99031635D01*
X93331431Y-98806000D01*
X93353654Y-98580365D01*
X93419470Y-98363400D01*
X93419471Y-98363398D01*
X93526347Y-98163445D01*
X93670182Y-97988182D01*
X93845445Y-97844347D01*
X94045398Y-97737471D01*
X94045400Y-97737470D01*
X94262365Y-97671654D01*
X94315751Y-97666396D01*
X94339785Y-97661616D01*
X94362423Y-97652238D01*
X94382798Y-97638624D01*
X94400125Y-97621297D01*
X94413738Y-97600923D01*
X94423116Y-97578284D01*
X94427896Y-97554251D01*
X94427896Y-97529747D01*
X94423116Y-97505713D01*
X94413738Y-97483075D01*
X94400124Y-97462700D01*
X94382797Y-97445373D01*
X94362423Y-97431760D01*
X94339784Y-97422382D01*
X94303499Y-97417000D01*
X93337000Y-97417000D01*
X93337000Y-95115000D01*
X95639000Y-95115000D01*
X95639000Y-97417000D01*
X95639000Y-97417000D01*
G37*
G36*
X91071000Y-97675000D02*
G01*
X89269000Y-97675000D01*
X89269000Y-95873000D01*
X91071000Y-95873000D01*
X91071000Y-97675000D01*
X91071000Y-97675000D01*
G37*
G36*
X110910823Y-95681313D02*
G01*
X111071242Y-95729976D01*
X111138361Y-95765852D01*
X111219078Y-95808996D01*
X111348659Y-95915341D01*
X111455004Y-96044922D01*
X111455005Y-96044924D01*
X111534024Y-96192758D01*
X111582687Y-96353177D01*
X111599117Y-96520000D01*
X111582687Y-96686823D01*
X111534024Y-96847242D01*
X111463114Y-96979906D01*
X111455004Y-96995078D01*
X111348659Y-97124659D01*
X111219078Y-97231004D01*
X111219076Y-97231005D01*
X111071242Y-97310024D01*
X110910823Y-97358687D01*
X110785804Y-97371000D01*
X110702196Y-97371000D01*
X110577177Y-97358687D01*
X110416758Y-97310024D01*
X110268924Y-97231005D01*
X110268922Y-97231004D01*
X110139341Y-97124659D01*
X110032996Y-96995078D01*
X110024886Y-96979906D01*
X109953976Y-96847242D01*
X109905313Y-96686823D01*
X109888883Y-96520000D01*
X109905313Y-96353177D01*
X109953976Y-96192758D01*
X110032995Y-96044924D01*
X110032996Y-96044922D01*
X110139341Y-95915341D01*
X110268922Y-95808996D01*
X110349639Y-95765852D01*
X110416758Y-95729976D01*
X110577177Y-95681313D01*
X110702196Y-95669000D01*
X110785804Y-95669000D01*
X110910823Y-95681313D01*
X110910823Y-95681313D01*
G37*
G36*
X118612228Y-95701703D02*
G01*
X118767100Y-95765853D01*
X118906481Y-95858985D01*
X119025015Y-95977519D01*
X119118147Y-96116900D01*
X119182297Y-96271772D01*
X119215000Y-96436184D01*
X119215000Y-96603816D01*
X119182297Y-96768228D01*
X119118147Y-96923100D01*
X119025015Y-97062481D01*
X118906481Y-97181015D01*
X118767100Y-97274147D01*
X118612228Y-97338297D01*
X118447816Y-97371000D01*
X118280184Y-97371000D01*
X118115772Y-97338297D01*
X117960900Y-97274147D01*
X117821519Y-97181015D01*
X117702985Y-97062481D01*
X117609853Y-96923100D01*
X117545703Y-96768228D01*
X117513000Y-96603816D01*
X117513000Y-96436184D01*
X117545703Y-96271772D01*
X117609853Y-96116900D01*
X117702985Y-95977519D01*
X117821519Y-95858985D01*
X117960900Y-95765853D01*
X118115772Y-95701703D01*
X118280184Y-95669000D01*
X118447816Y-95669000D01*
X118612228Y-95701703D01*
X118612228Y-95701703D01*
G37*
G36*
X99520015Y-94976290D02*
G01*
X99622024Y-94996581D01*
X99814204Y-95076185D01*
X99987161Y-95191751D01*
X100134249Y-95338839D01*
X100249815Y-95511796D01*
X100320032Y-95681314D01*
X100329419Y-95703977D01*
X100370000Y-95907992D01*
X100370000Y-96116008D01*
X100354733Y-96192761D01*
X100329419Y-96320024D01*
X100249815Y-96512204D01*
X100134249Y-96685161D01*
X99987161Y-96832249D01*
X99814204Y-96947815D01*
X99622024Y-97027419D01*
X99520016Y-97047709D01*
X99418008Y-97068000D01*
X99209992Y-97068000D01*
X99107984Y-97047709D01*
X99005976Y-97027419D01*
X98813796Y-96947815D01*
X98640839Y-96832249D01*
X98493751Y-96685161D01*
X98378185Y-96512204D01*
X98298581Y-96320024D01*
X98273267Y-96192761D01*
X98258000Y-96116008D01*
X98258000Y-95907992D01*
X98298581Y-95703977D01*
X98307968Y-95681314D01*
X98378185Y-95511796D01*
X98493751Y-95338839D01*
X98640839Y-95191751D01*
X98813796Y-95076185D01*
X99005976Y-94996581D01*
X99107985Y-94976290D01*
X99209992Y-94956000D01*
X99418008Y-94956000D01*
X99520015Y-94976290D01*
X99520015Y-94976290D01*
G37*
G36*
X108497000Y-95289000D02*
G01*
X106895000Y-95289000D01*
X106895000Y-93687000D01*
X108497000Y-93687000D01*
X108497000Y-95289000D01*
X108497000Y-95289000D01*
G37*
G36*
X110992228Y-92653703D02*
G01*
X111147100Y-92717853D01*
X111286481Y-92810985D01*
X111405015Y-92929519D01*
X111498147Y-93068900D01*
X111562297Y-93223772D01*
X111595000Y-93388184D01*
X111595000Y-93555816D01*
X111562297Y-93720228D01*
X111498147Y-93875100D01*
X111405015Y-94014481D01*
X111286481Y-94133015D01*
X111147100Y-94226147D01*
X110992228Y-94290297D01*
X110827816Y-94323000D01*
X110660184Y-94323000D01*
X110495772Y-94290297D01*
X110340900Y-94226147D01*
X110201519Y-94133015D01*
X110082985Y-94014481D01*
X109989853Y-93875100D01*
X109925703Y-93720228D01*
X109893000Y-93555816D01*
X109893000Y-93388184D01*
X109925703Y-93223772D01*
X109989853Y-93068900D01*
X110082985Y-92929519D01*
X110201519Y-92810985D01*
X110340900Y-92717853D01*
X110495772Y-92653703D01*
X110660184Y-92621000D01*
X110827816Y-92621000D01*
X110992228Y-92653703D01*
X110992228Y-92653703D01*
G37*
G36*
X104243323Y-92633313D02*
G01*
X104403742Y-92681976D01*
X104533692Y-92751436D01*
X104551578Y-92760996D01*
X104681159Y-92867341D01*
X104787504Y-92996922D01*
X104787505Y-92996924D01*
X104866524Y-93144758D01*
X104915187Y-93305177D01*
X104931617Y-93472000D01*
X104915187Y-93638823D01*
X104866524Y-93799242D01*
X104825977Y-93875100D01*
X104787504Y-93947078D01*
X104681159Y-94076659D01*
X104551578Y-94183004D01*
X104551576Y-94183005D01*
X104403742Y-94262024D01*
X104243323Y-94310687D01*
X104118304Y-94323000D01*
X104034696Y-94323000D01*
X103909677Y-94310687D01*
X103749258Y-94262024D01*
X103601424Y-94183005D01*
X103601422Y-94183004D01*
X103471841Y-94076659D01*
X103365496Y-93947078D01*
X103327023Y-93875100D01*
X103286476Y-93799242D01*
X103237813Y-93638823D01*
X103221383Y-93472000D01*
X103237813Y-93305177D01*
X103286476Y-93144758D01*
X103365495Y-92996924D01*
X103365496Y-92996922D01*
X103471841Y-92867341D01*
X103601422Y-92760996D01*
X103619308Y-92751436D01*
X103749258Y-92681976D01*
X103909677Y-92633313D01*
X104034696Y-92621000D01*
X104118304Y-92621000D01*
X104243323Y-92633313D01*
X104243323Y-92633313D01*
G37*
G36*
X97942500Y-94323000D02*
G01*
X96240500Y-94323000D01*
X96240500Y-92621000D01*
X97942500Y-92621000D01*
X97942500Y-94323000D01*
X97942500Y-94323000D01*
G37*
G36*
X118530823Y-92633313D02*
G01*
X118691242Y-92681976D01*
X118821192Y-92751436D01*
X118839078Y-92760996D01*
X118968659Y-92867341D01*
X119075004Y-92996922D01*
X119075005Y-92996924D01*
X119154024Y-93144758D01*
X119202687Y-93305177D01*
X119219117Y-93472000D01*
X119202687Y-93638823D01*
X119154024Y-93799242D01*
X119113477Y-93875100D01*
X119075004Y-93947078D01*
X118968659Y-94076659D01*
X118839078Y-94183004D01*
X118839076Y-94183005D01*
X118691242Y-94262024D01*
X118530823Y-94310687D01*
X118405804Y-94323000D01*
X118322196Y-94323000D01*
X118197177Y-94310687D01*
X118036758Y-94262024D01*
X117888924Y-94183005D01*
X117888922Y-94183004D01*
X117759341Y-94076659D01*
X117652996Y-93947078D01*
X117614523Y-93875100D01*
X117573976Y-93799242D01*
X117525313Y-93638823D01*
X117508883Y-93472000D01*
X117525313Y-93305177D01*
X117573976Y-93144758D01*
X117652995Y-92996924D01*
X117652996Y-92996922D01*
X117759341Y-92867341D01*
X117888922Y-92760996D01*
X117906808Y-92751436D01*
X118036758Y-92681976D01*
X118197177Y-92633313D01*
X118322196Y-92621000D01*
X118405804Y-92621000D01*
X118530823Y-92633313D01*
X118530823Y-92633313D01*
G37*
G36*
X91492564Y-92047389D02*
G01*
X91671827Y-92121642D01*
X91683835Y-92126616D01*
X91855973Y-92241635D01*
X92002365Y-92388027D01*
X92083984Y-92510178D01*
X92117385Y-92560167D01*
X92196611Y-92751436D01*
X92237000Y-92954484D01*
X92237000Y-93161516D01*
X92196611Y-93364564D01*
X92117392Y-93555815D01*
X92117384Y-93555835D01*
X92002365Y-93727973D01*
X91855973Y-93874365D01*
X91683835Y-93989384D01*
X91683834Y-93989385D01*
X91683833Y-93989385D01*
X91492564Y-94068611D01*
X91289516Y-94109000D01*
X91082484Y-94109000D01*
X90879436Y-94068611D01*
X90688167Y-93989385D01*
X90688166Y-93989385D01*
X90688165Y-93989384D01*
X90516027Y-93874365D01*
X90369635Y-93727973D01*
X90254616Y-93555835D01*
X90254608Y-93555815D01*
X90175389Y-93364564D01*
X90135000Y-93161516D01*
X90135000Y-92954484D01*
X90175389Y-92751436D01*
X90254615Y-92560167D01*
X90288017Y-92510178D01*
X90369635Y-92388027D01*
X90516027Y-92241635D01*
X90688165Y-92126616D01*
X90700173Y-92121642D01*
X90879436Y-92047389D01*
X91082484Y-92007000D01*
X91289516Y-92007000D01*
X91492564Y-92047389D01*
X91492564Y-92047389D01*
G37*
G36*
X107929642Y-91117781D02*
G01*
X108075414Y-91178162D01*
X108075416Y-91178163D01*
X108206608Y-91265822D01*
X108318178Y-91377392D01*
X108397627Y-91496297D01*
X108405838Y-91508586D01*
X108466219Y-91654358D01*
X108497000Y-91809107D01*
X108497000Y-91966893D01*
X108466219Y-92121642D01*
X108416516Y-92241635D01*
X108405837Y-92267416D01*
X108318178Y-92398608D01*
X108206608Y-92510178D01*
X108075416Y-92597837D01*
X108075415Y-92597838D01*
X108075414Y-92597838D01*
X107929642Y-92658219D01*
X107774893Y-92689000D01*
X107617107Y-92689000D01*
X107462358Y-92658219D01*
X107316586Y-92597838D01*
X107316585Y-92597838D01*
X107316584Y-92597837D01*
X107185392Y-92510178D01*
X107073822Y-92398608D01*
X106986163Y-92267416D01*
X106975484Y-92241635D01*
X106925781Y-92121642D01*
X106895000Y-91966893D01*
X106895000Y-91809107D01*
X106925781Y-91654358D01*
X106986162Y-91508586D01*
X106994373Y-91496297D01*
X107073822Y-91377392D01*
X107185392Y-91265822D01*
X107316584Y-91178163D01*
X107316586Y-91178162D01*
X107462358Y-91117781D01*
X107617107Y-91087000D01*
X107774893Y-91087000D01*
X107929642Y-91117781D01*
X107929642Y-91117781D01*
G37*
G36*
X103372228Y-89859703D02*
G01*
X103527100Y-89923853D01*
X103666481Y-90016985D01*
X103785015Y-90135519D01*
X103878147Y-90274900D01*
X103942297Y-90429772D01*
X103975000Y-90594184D01*
X103975000Y-90761816D01*
X103942297Y-90926228D01*
X103878147Y-91081100D01*
X103785015Y-91220481D01*
X103666481Y-91339015D01*
X103527100Y-91432147D01*
X103372228Y-91496297D01*
X103207816Y-91529000D01*
X103040184Y-91529000D01*
X102875772Y-91496297D01*
X102720900Y-91432147D01*
X102581519Y-91339015D01*
X102462985Y-91220481D01*
X102369853Y-91081100D01*
X102305703Y-90926228D01*
X102273000Y-90761816D01*
X102273000Y-90594184D01*
X102305703Y-90429772D01*
X102369853Y-90274900D01*
X102462985Y-90135519D01*
X102581519Y-90016985D01*
X102720900Y-89923853D01*
X102875772Y-89859703D01*
X103040184Y-89827000D01*
X103207816Y-89827000D01*
X103372228Y-89859703D01*
X103372228Y-89859703D01*
G37*
G36*
X95752228Y-89859703D02*
G01*
X95907100Y-89923853D01*
X96046481Y-90016985D01*
X96165015Y-90135519D01*
X96258147Y-90274900D01*
X96322297Y-90429772D01*
X96355000Y-90594184D01*
X96355000Y-90761816D01*
X96322297Y-90926228D01*
X96258147Y-91081100D01*
X96165015Y-91220481D01*
X96046481Y-91339015D01*
X95907100Y-91432147D01*
X95752228Y-91496297D01*
X95587816Y-91529000D01*
X95420184Y-91529000D01*
X95255772Y-91496297D01*
X95100900Y-91432147D01*
X94961519Y-91339015D01*
X94842985Y-91220481D01*
X94749853Y-91081100D01*
X94685703Y-90926228D01*
X94653000Y-90761816D01*
X94653000Y-90594184D01*
X94685703Y-90429772D01*
X94749853Y-90274900D01*
X94842985Y-90135519D01*
X94961519Y-90016985D01*
X95100900Y-89923853D01*
X95255772Y-89859703D01*
X95420184Y-89827000D01*
X95587816Y-89827000D01*
X95752228Y-89859703D01*
X95752228Y-89859703D01*
G37*
G36*
X107929642Y-88517781D02*
G01*
X108075414Y-88578162D01*
X108075416Y-88578163D01*
X108206608Y-88665822D01*
X108318178Y-88777392D01*
X108394854Y-88892147D01*
X108405838Y-88908586D01*
X108466219Y-89054358D01*
X108497000Y-89209107D01*
X108497000Y-89366893D01*
X108466219Y-89521642D01*
X108414922Y-89645483D01*
X108405837Y-89667416D01*
X108318178Y-89798608D01*
X108206608Y-89910178D01*
X108075416Y-89997837D01*
X108075415Y-89997838D01*
X108075414Y-89997838D01*
X107929642Y-90058219D01*
X107774893Y-90089000D01*
X107617107Y-90089000D01*
X107462358Y-90058219D01*
X107316586Y-89997838D01*
X107316585Y-89997838D01*
X107316584Y-89997837D01*
X107185392Y-89910178D01*
X107073822Y-89798608D01*
X106986163Y-89667416D01*
X106977078Y-89645483D01*
X106925781Y-89521642D01*
X106895000Y-89366893D01*
X106895000Y-89209107D01*
X106925781Y-89054358D01*
X106986162Y-88908586D01*
X106997146Y-88892147D01*
X107073822Y-88777392D01*
X107185392Y-88665822D01*
X107316584Y-88578163D01*
X107316586Y-88578162D01*
X107462358Y-88517781D01*
X107617107Y-88487000D01*
X107774893Y-88487000D01*
X107929642Y-88517781D01*
X107929642Y-88517781D01*
G37*
G36*
X115187589Y-88392876D02*
G01*
X115286893Y-88412629D01*
X115427206Y-88470748D01*
X115553484Y-88555125D01*
X115660875Y-88662516D01*
X115745252Y-88788794D01*
X115803371Y-88929107D01*
X115833000Y-89078063D01*
X115833000Y-89229937D01*
X115803371Y-89378893D01*
X115745252Y-89519206D01*
X115660875Y-89645484D01*
X115553484Y-89752875D01*
X115427206Y-89837252D01*
X115286893Y-89895371D01*
X115187589Y-89915124D01*
X115137938Y-89925000D01*
X114986062Y-89925000D01*
X114936411Y-89915124D01*
X114837107Y-89895371D01*
X114696794Y-89837252D01*
X114570516Y-89752875D01*
X114463125Y-89645484D01*
X114378748Y-89519206D01*
X114320629Y-89378893D01*
X114291000Y-89229937D01*
X114291000Y-89078063D01*
X114320629Y-88929107D01*
X114378748Y-88788794D01*
X114463125Y-88662516D01*
X114570516Y-88555125D01*
X114696794Y-88470748D01*
X114837107Y-88412629D01*
X114936411Y-88392876D01*
X114986062Y-88383000D01*
X115137938Y-88383000D01*
X115187589Y-88392876D01*
X115187589Y-88392876D01*
G37*
G36*
X95752228Y-87319703D02*
G01*
X95907100Y-87383853D01*
X96046481Y-87476985D01*
X96165015Y-87595519D01*
X96258147Y-87734900D01*
X96322297Y-87889772D01*
X96355000Y-88054184D01*
X96355000Y-88221816D01*
X96322297Y-88386228D01*
X96258147Y-88541100D01*
X96165015Y-88680481D01*
X96046481Y-88799015D01*
X95907100Y-88892147D01*
X95752228Y-88956297D01*
X95587816Y-88989000D01*
X95420184Y-88989000D01*
X95255772Y-88956297D01*
X95100900Y-88892147D01*
X94961519Y-88799015D01*
X94842985Y-88680481D01*
X94749853Y-88541100D01*
X94685703Y-88386228D01*
X94653000Y-88221816D01*
X94653000Y-88054184D01*
X94685703Y-87889772D01*
X94749853Y-87734900D01*
X94842985Y-87595519D01*
X94961519Y-87476985D01*
X95100900Y-87383853D01*
X95255772Y-87319703D01*
X95420184Y-87287000D01*
X95587816Y-87287000D01*
X95752228Y-87319703D01*
X95752228Y-87319703D01*
G37*
G36*
X103372228Y-87319703D02*
G01*
X103527100Y-87383853D01*
X103666481Y-87476985D01*
X103785015Y-87595519D01*
X103878147Y-87734900D01*
X103942297Y-87889772D01*
X103975000Y-88054184D01*
X103975000Y-88221816D01*
X103942297Y-88386228D01*
X103878147Y-88541100D01*
X103785015Y-88680481D01*
X103666481Y-88799015D01*
X103527100Y-88892147D01*
X103372228Y-88956297D01*
X103207816Y-88989000D01*
X103040184Y-88989000D01*
X102875772Y-88956297D01*
X102720900Y-88892147D01*
X102581519Y-88799015D01*
X102462985Y-88680481D01*
X102369853Y-88541100D01*
X102305703Y-88386228D01*
X102273000Y-88221816D01*
X102273000Y-88054184D01*
X102305703Y-87889772D01*
X102369853Y-87734900D01*
X102462985Y-87595519D01*
X102581519Y-87476985D01*
X102720900Y-87383853D01*
X102875772Y-87319703D01*
X103040184Y-87287000D01*
X103207816Y-87287000D01*
X103372228Y-87319703D01*
X103372228Y-87319703D01*
G37*
G36*
X106659642Y-86859781D02*
G01*
X106805414Y-86920162D01*
X106805416Y-86920163D01*
X106936608Y-87007822D01*
X107048178Y-87119392D01*
X107135837Y-87250584D01*
X107135838Y-87250586D01*
X107196219Y-87396358D01*
X107227000Y-87551107D01*
X107227000Y-87708893D01*
X107196219Y-87863642D01*
X107135838Y-88009414D01*
X107135837Y-88009416D01*
X107048178Y-88140608D01*
X106936608Y-88252178D01*
X106805416Y-88339837D01*
X106805415Y-88339838D01*
X106805414Y-88339838D01*
X106659642Y-88400219D01*
X106504893Y-88431000D01*
X106347107Y-88431000D01*
X106192358Y-88400219D01*
X106046586Y-88339838D01*
X106046585Y-88339838D01*
X106046584Y-88339837D01*
X105915392Y-88252178D01*
X105803822Y-88140608D01*
X105716163Y-88009416D01*
X105716162Y-88009414D01*
X105655781Y-87863642D01*
X105625000Y-87708893D01*
X105625000Y-87551107D01*
X105655781Y-87396358D01*
X105716162Y-87250586D01*
X105716163Y-87250584D01*
X105803822Y-87119392D01*
X105915392Y-87007822D01*
X106046584Y-86920163D01*
X106046586Y-86920162D01*
X106192358Y-86859781D01*
X106347107Y-86829000D01*
X106504893Y-86829000D01*
X106659642Y-86859781D01*
X106659642Y-86859781D01*
G37*
G36*
X117727589Y-85852876D02*
G01*
X117826893Y-85872629D01*
X117967206Y-85930748D01*
X118093484Y-86015125D01*
X118200875Y-86122516D01*
X118285252Y-86248794D01*
X118343371Y-86389107D01*
X118373000Y-86538063D01*
X118373000Y-86689937D01*
X118343371Y-86838893D01*
X118285252Y-86979206D01*
X118200875Y-87105484D01*
X118093484Y-87212875D01*
X117967206Y-87297252D01*
X117826893Y-87355371D01*
X117727589Y-87375124D01*
X117677938Y-87385000D01*
X117526062Y-87385000D01*
X117476411Y-87375124D01*
X117377107Y-87355371D01*
X117236794Y-87297252D01*
X117110516Y-87212875D01*
X117003125Y-87105484D01*
X116918748Y-86979206D01*
X116860629Y-86838893D01*
X116831000Y-86689937D01*
X116831000Y-86538063D01*
X116860629Y-86389107D01*
X116918748Y-86248794D01*
X117003125Y-86122516D01*
X117110516Y-86015125D01*
X117236794Y-85930748D01*
X117377107Y-85872629D01*
X117476411Y-85852876D01*
X117526062Y-85843000D01*
X117677938Y-85843000D01*
X117727589Y-85852876D01*
X117727589Y-85852876D01*
G37*
G36*
X95752228Y-84779703D02*
G01*
X95907100Y-84843853D01*
X96046481Y-84936985D01*
X96165015Y-85055519D01*
X96258147Y-85194900D01*
X96322297Y-85349772D01*
X96355000Y-85514184D01*
X96355000Y-85681816D01*
X96322297Y-85846228D01*
X96258147Y-86001100D01*
X96165015Y-86140481D01*
X96046481Y-86259015D01*
X95907100Y-86352147D01*
X95752228Y-86416297D01*
X95587816Y-86449000D01*
X95420184Y-86449000D01*
X95255772Y-86416297D01*
X95100900Y-86352147D01*
X94961519Y-86259015D01*
X94842985Y-86140481D01*
X94749853Y-86001100D01*
X94685703Y-85846228D01*
X94653000Y-85681816D01*
X94653000Y-85514184D01*
X94685703Y-85349772D01*
X94749853Y-85194900D01*
X94842985Y-85055519D01*
X94961519Y-84936985D01*
X95100900Y-84843853D01*
X95255772Y-84779703D01*
X95420184Y-84747000D01*
X95587816Y-84747000D01*
X95752228Y-84779703D01*
X95752228Y-84779703D01*
G37*
G36*
X103372228Y-84779703D02*
G01*
X103527100Y-84843853D01*
X103666481Y-84936985D01*
X103785015Y-85055519D01*
X103878147Y-85194900D01*
X103942297Y-85349772D01*
X103975000Y-85514184D01*
X103975000Y-85681816D01*
X103942297Y-85846228D01*
X103878147Y-86001100D01*
X103785015Y-86140481D01*
X103666481Y-86259015D01*
X103527100Y-86352147D01*
X103372228Y-86416297D01*
X103207816Y-86449000D01*
X103040184Y-86449000D01*
X102875772Y-86416297D01*
X102720900Y-86352147D01*
X102581519Y-86259015D01*
X102462985Y-86140481D01*
X102369853Y-86001100D01*
X102305703Y-85846228D01*
X102273000Y-85681816D01*
X102273000Y-85514184D01*
X102305703Y-85349772D01*
X102369853Y-85194900D01*
X102462985Y-85055519D01*
X102581519Y-84936985D01*
X102720900Y-84843853D01*
X102875772Y-84779703D01*
X103040184Y-84747000D01*
X103207816Y-84747000D01*
X103372228Y-84779703D01*
X103372228Y-84779703D01*
G37*
G36*
X106659642Y-84319781D02*
G01*
X106805414Y-84380162D01*
X106805416Y-84380163D01*
X106936608Y-84467822D01*
X107048178Y-84579392D01*
X107135837Y-84710584D01*
X107135838Y-84710586D01*
X107196219Y-84856358D01*
X107227000Y-85011107D01*
X107227000Y-85168893D01*
X107196219Y-85323642D01*
X107135838Y-85469414D01*
X107135837Y-85469416D01*
X107048178Y-85600608D01*
X106936608Y-85712178D01*
X106805416Y-85799837D01*
X106805415Y-85799838D01*
X106805414Y-85799838D01*
X106659642Y-85860219D01*
X106504893Y-85891000D01*
X106347107Y-85891000D01*
X106192358Y-85860219D01*
X106046586Y-85799838D01*
X106046585Y-85799838D01*
X106046584Y-85799837D01*
X105915392Y-85712178D01*
X105803822Y-85600608D01*
X105716163Y-85469416D01*
X105716162Y-85469414D01*
X105655781Y-85323642D01*
X105625000Y-85168893D01*
X105625000Y-85011107D01*
X105655781Y-84856358D01*
X105716162Y-84710586D01*
X105716163Y-84710584D01*
X105803822Y-84579392D01*
X105915392Y-84467822D01*
X106046584Y-84380163D01*
X106046586Y-84380162D01*
X106192358Y-84319781D01*
X106347107Y-84289000D01*
X106504893Y-84289000D01*
X106659642Y-84319781D01*
X106659642Y-84319781D01*
G37*
G36*
X115187589Y-83312876D02*
G01*
X115286893Y-83332629D01*
X115427206Y-83390748D01*
X115553484Y-83475125D01*
X115660875Y-83582516D01*
X115745252Y-83708794D01*
X115803371Y-83849107D01*
X115833000Y-83998063D01*
X115833000Y-84149937D01*
X115803371Y-84298893D01*
X115745252Y-84439206D01*
X115660875Y-84565484D01*
X115553484Y-84672875D01*
X115427206Y-84757252D01*
X115286893Y-84815371D01*
X115187589Y-84835124D01*
X115137938Y-84845000D01*
X114986062Y-84845000D01*
X114936411Y-84835124D01*
X114837107Y-84815371D01*
X114696794Y-84757252D01*
X114570516Y-84672875D01*
X114463125Y-84565484D01*
X114378748Y-84439206D01*
X114320629Y-84298893D01*
X114291000Y-84149937D01*
X114291000Y-83998063D01*
X114320629Y-83849107D01*
X114378748Y-83708794D01*
X114463125Y-83582516D01*
X114570516Y-83475125D01*
X114696794Y-83390748D01*
X114837107Y-83332629D01*
X114936411Y-83312876D01*
X114986062Y-83303000D01*
X115137938Y-83303000D01*
X115187589Y-83312876D01*
X115187589Y-83312876D01*
G37*
G36*
X91492564Y-82047389D02*
G01*
X91683833Y-82126615D01*
X91683835Y-82126616D01*
X91804138Y-82207000D01*
X91855973Y-82241635D01*
X92002365Y-82388027D01*
X92117385Y-82560167D01*
X92196611Y-82751436D01*
X92237000Y-82954484D01*
X92237000Y-83161516D01*
X92196611Y-83364564D01*
X92150815Y-83475125D01*
X92117384Y-83555835D01*
X92002365Y-83727973D01*
X91855973Y-83874365D01*
X91683835Y-83989384D01*
X91683834Y-83989385D01*
X91683833Y-83989385D01*
X91492564Y-84068611D01*
X91289516Y-84109000D01*
X91082484Y-84109000D01*
X90879436Y-84068611D01*
X90688167Y-83989385D01*
X90688166Y-83989385D01*
X90688165Y-83989384D01*
X90516027Y-83874365D01*
X90369635Y-83727973D01*
X90254616Y-83555835D01*
X90221185Y-83475125D01*
X90175389Y-83364564D01*
X90135000Y-83161516D01*
X90135000Y-82954484D01*
X90175389Y-82751436D01*
X90254615Y-82560167D01*
X90369635Y-82388027D01*
X90516027Y-82241635D01*
X90567862Y-82207000D01*
X90688165Y-82126616D01*
X90688167Y-82126615D01*
X90879436Y-82047389D01*
X91082484Y-82007000D01*
X91289516Y-82007000D01*
X91492564Y-82047389D01*
X91492564Y-82047389D01*
G37*
G36*
X96355000Y-83909000D02*
G01*
X94653000Y-83909000D01*
X94653000Y-82207000D01*
X96355000Y-82207000D01*
X96355000Y-83909000D01*
X96355000Y-83909000D01*
G37*
G36*
X103372228Y-82239703D02*
G01*
X103527100Y-82303853D01*
X103666481Y-82396985D01*
X103785015Y-82515519D01*
X103878147Y-82654900D01*
X103942297Y-82809772D01*
X103975000Y-82974184D01*
X103975000Y-83141816D01*
X103942297Y-83306228D01*
X103878147Y-83461100D01*
X103785015Y-83600481D01*
X103666481Y-83719015D01*
X103527100Y-83812147D01*
X103372228Y-83876297D01*
X103207816Y-83909000D01*
X103040184Y-83909000D01*
X102875772Y-83876297D01*
X102720900Y-83812147D01*
X102581519Y-83719015D01*
X102462985Y-83600481D01*
X102369853Y-83461100D01*
X102305703Y-83306228D01*
X102273000Y-83141816D01*
X102273000Y-82974184D01*
X102305703Y-82809772D01*
X102369853Y-82654900D01*
X102462985Y-82515519D01*
X102581519Y-82396985D01*
X102720900Y-82303853D01*
X102875772Y-82239703D01*
X103040184Y-82207000D01*
X103207816Y-82207000D01*
X103372228Y-82239703D01*
X103372228Y-82239703D01*
G37*
G36*
X107227000Y-83351000D02*
G01*
X105625000Y-83351000D01*
X105625000Y-81749000D01*
X107227000Y-81749000D01*
X107227000Y-83351000D01*
X107227000Y-83351000D01*
G37*
G36*
X90672228Y-78937703D02*
G01*
X90827100Y-79001853D01*
X90966481Y-79094985D01*
X91085015Y-79213519D01*
X91178147Y-79352900D01*
X91242297Y-79507772D01*
X91275000Y-79672184D01*
X91275000Y-79839816D01*
X91242297Y-80004228D01*
X91178147Y-80159100D01*
X91085015Y-80298481D01*
X90966481Y-80417015D01*
X90827100Y-80510147D01*
X90672228Y-80574297D01*
X90507816Y-80607000D01*
X90340184Y-80607000D01*
X90175772Y-80574297D01*
X90020900Y-80510147D01*
X89881519Y-80417015D01*
X89762985Y-80298481D01*
X89669853Y-80159100D01*
X89605703Y-80004228D01*
X89573000Y-79839816D01*
X89573000Y-79672184D01*
X89605703Y-79507772D01*
X89669853Y-79352900D01*
X89762985Y-79213519D01*
X89881519Y-79094985D01*
X90020900Y-79001853D01*
X90175772Y-78937703D01*
X90340184Y-78905000D01*
X90507816Y-78905000D01*
X90672228Y-78937703D01*
X90672228Y-78937703D01*
G37*
G36*
X98210823Y-78917313D02*
G01*
X98371242Y-78965976D01*
X98438361Y-79001852D01*
X98519078Y-79044996D01*
X98648659Y-79151341D01*
X98755004Y-79280922D01*
X98755005Y-79280924D01*
X98834024Y-79428758D01*
X98882687Y-79589177D01*
X98899117Y-79756000D01*
X98882687Y-79922823D01*
X98834024Y-80083242D01*
X98793477Y-80159100D01*
X98755004Y-80231078D01*
X98648659Y-80360659D01*
X98519078Y-80467004D01*
X98519076Y-80467005D01*
X98371242Y-80546024D01*
X98210823Y-80594687D01*
X98085804Y-80607000D01*
X98002196Y-80607000D01*
X97877177Y-80594687D01*
X97716758Y-80546024D01*
X97568924Y-80467005D01*
X97568922Y-80467004D01*
X97439341Y-80360659D01*
X97332996Y-80231078D01*
X97294523Y-80159100D01*
X97253976Y-80083242D01*
X97205313Y-79922823D01*
X97188883Y-79756000D01*
X97205313Y-79589177D01*
X97253976Y-79428758D01*
X97332995Y-79280924D01*
X97332996Y-79280922D01*
X97439341Y-79151341D01*
X97568922Y-79044996D01*
X97649639Y-79001852D01*
X97716758Y-78965976D01*
X97877177Y-78917313D01*
X98002196Y-78905000D01*
X98085804Y-78905000D01*
X98210823Y-78917313D01*
X98210823Y-78917313D01*
G37*
G36*
X100578228Y-78937703D02*
G01*
X100733100Y-79001853D01*
X100872481Y-79094985D01*
X100991015Y-79213519D01*
X101084147Y-79352900D01*
X101148297Y-79507772D01*
X101181000Y-79672184D01*
X101181000Y-79839816D01*
X101148297Y-80004228D01*
X101084147Y-80159100D01*
X100991015Y-80298481D01*
X100872481Y-80417015D01*
X100733100Y-80510147D01*
X100578228Y-80574297D01*
X100413816Y-80607000D01*
X100246184Y-80607000D01*
X100081772Y-80574297D01*
X99926900Y-80510147D01*
X99787519Y-80417015D01*
X99668985Y-80298481D01*
X99575853Y-80159100D01*
X99511703Y-80004228D01*
X99479000Y-79839816D01*
X99479000Y-79672184D01*
X99511703Y-79507772D01*
X99575853Y-79352900D01*
X99668985Y-79213519D01*
X99787519Y-79094985D01*
X99926900Y-79001853D01*
X100081772Y-78937703D01*
X100246184Y-78905000D01*
X100413816Y-78905000D01*
X100578228Y-78937703D01*
X100578228Y-78937703D01*
G37*
G36*
X108116823Y-78917313D02*
G01*
X108277242Y-78965976D01*
X108344361Y-79001852D01*
X108425078Y-79044996D01*
X108554659Y-79151341D01*
X108661004Y-79280922D01*
X108661005Y-79280924D01*
X108740024Y-79428758D01*
X108788687Y-79589177D01*
X108805117Y-79756000D01*
X108788687Y-79922823D01*
X108740024Y-80083242D01*
X108699477Y-80159100D01*
X108661004Y-80231078D01*
X108554659Y-80360659D01*
X108425078Y-80467004D01*
X108425076Y-80467005D01*
X108277242Y-80546024D01*
X108116823Y-80594687D01*
X107991804Y-80607000D01*
X107908196Y-80607000D01*
X107783177Y-80594687D01*
X107622758Y-80546024D01*
X107474924Y-80467005D01*
X107474922Y-80467004D01*
X107345341Y-80360659D01*
X107238996Y-80231078D01*
X107200523Y-80159100D01*
X107159976Y-80083242D01*
X107111313Y-79922823D01*
X107094883Y-79756000D01*
X107111313Y-79589177D01*
X107159976Y-79428758D01*
X107238995Y-79280924D01*
X107238996Y-79280922D01*
X107345341Y-79151341D01*
X107474922Y-79044996D01*
X107555639Y-79001852D01*
X107622758Y-78965976D01*
X107783177Y-78917313D01*
X107908196Y-78905000D01*
X107991804Y-78905000D01*
X108116823Y-78917313D01*
X108116823Y-78917313D01*
G37*
G36*
X110910823Y-78917313D02*
G01*
X111071242Y-78965976D01*
X111138361Y-79001852D01*
X111219078Y-79044996D01*
X111348659Y-79151341D01*
X111455004Y-79280922D01*
X111455005Y-79280924D01*
X111534024Y-79428758D01*
X111582687Y-79589177D01*
X111599117Y-79756000D01*
X111582687Y-79922823D01*
X111534024Y-80083242D01*
X111493477Y-80159100D01*
X111455004Y-80231078D01*
X111348659Y-80360659D01*
X111219078Y-80467004D01*
X111219076Y-80467005D01*
X111071242Y-80546024D01*
X110910823Y-80594687D01*
X110785804Y-80607000D01*
X110702196Y-80607000D01*
X110577177Y-80594687D01*
X110416758Y-80546024D01*
X110268924Y-80467005D01*
X110268922Y-80467004D01*
X110139341Y-80360659D01*
X110032996Y-80231078D01*
X109994523Y-80159100D01*
X109953976Y-80083242D01*
X109905313Y-79922823D01*
X109888883Y-79756000D01*
X109905313Y-79589177D01*
X109953976Y-79428758D01*
X110032995Y-79280924D01*
X110032996Y-79280922D01*
X110139341Y-79151341D01*
X110268922Y-79044996D01*
X110349639Y-79001852D01*
X110416758Y-78965976D01*
X110577177Y-78917313D01*
X110702196Y-78905000D01*
X110785804Y-78905000D01*
X110910823Y-78917313D01*
X110910823Y-78917313D01*
G37*
G36*
X118612228Y-78937703D02*
G01*
X118767100Y-79001853D01*
X118906481Y-79094985D01*
X119025015Y-79213519D01*
X119118147Y-79352900D01*
X119182297Y-79507772D01*
X119215000Y-79672184D01*
X119215000Y-79839816D01*
X119182297Y-80004228D01*
X119118147Y-80159100D01*
X119025015Y-80298481D01*
X118906481Y-80417015D01*
X118767100Y-80510147D01*
X118612228Y-80574297D01*
X118447816Y-80607000D01*
X118280184Y-80607000D01*
X118115772Y-80574297D01*
X117960900Y-80510147D01*
X117821519Y-80417015D01*
X117702985Y-80298481D01*
X117609853Y-80159100D01*
X117545703Y-80004228D01*
X117513000Y-79839816D01*
X117513000Y-79672184D01*
X117545703Y-79507772D01*
X117609853Y-79352900D01*
X117702985Y-79213519D01*
X117821519Y-79094985D01*
X117960900Y-79001853D01*
X118115772Y-78937703D01*
X118280184Y-78905000D01*
X118447816Y-78905000D01*
X118612228Y-78937703D01*
X118612228Y-78937703D01*
G37*
M02*
