G04 #@! TF.GenerationSoftware,KiCad,Pcbnew,(5.1.0)-1*
G04 #@! TF.CreationDate,2021-08-12T02:51:48-05:00*
G04 #@! TF.ProjectId,nixie_legacy-power,6e697869-655f-46c6-9567-6163792d706f,rev?*
G04 #@! TF.SameCoordinates,Original*
G04 #@! TF.FileFunction,Copper,L1,Top*
G04 #@! TF.FilePolarity,Positive*
%FSLAX46Y46*%
G04 Gerber Fmt 4.6, Leading zero omitted, Abs format (unit mm)*
G04 Created by KiCad (PCBNEW (5.1.0)-1) date 2021-08-12 02:51:48*
%MOMM*%
%LPD*%
G04 APERTURE LIST*
%ADD10C,0.200000*%
%ADD11C,1.500000*%
%ADD12R,1.500000X1.500000*%
%ADD13C,2.600000*%
%ADD14R,1.600000X1.600000*%
%ADD15O,1.600000X1.600000*%
%ADD16O,2.200000X2.200000*%
%ADD17R,2.200000X2.200000*%
%ADD18R,2.000000X1.905000*%
%ADD19O,2.000000X1.905000*%
%ADD20R,2.000000X2.000000*%
%ADD21C,2.000000*%
%ADD22C,1.600000*%
%ADD23O,1.700000X1.700000*%
%ADD24R,1.700000X1.700000*%
%ADD25C,1.440000*%
%ADD26C,2.010000*%
%ADD27C,0.635000*%
%ADD28C,0.254000*%
G04 APERTURE END LIST*
D10*
X89421857Y-117979142D02*
X88588523Y-118276761D01*
X89421857Y-118574380D01*
X89719476Y-118991047D02*
X89779000Y-119050571D01*
X89838523Y-119169619D01*
X89838523Y-119467238D01*
X89779000Y-119586285D01*
X89719476Y-119645809D01*
X89600428Y-119705333D01*
X89481380Y-119705333D01*
X89302809Y-119645809D01*
X88588523Y-118931523D01*
X88588523Y-119705333D01*
X88588523Y-107877095D02*
X89838523Y-107877095D01*
X88588523Y-108591380D01*
X89838523Y-108591380D01*
X88588523Y-109186619D02*
X89421857Y-109186619D01*
X89838523Y-109186619D02*
X89779000Y-109127095D01*
X89719476Y-109186619D01*
X89779000Y-109246142D01*
X89838523Y-109186619D01*
X89719476Y-109186619D01*
X88588523Y-109662809D02*
X89421857Y-110317571D01*
X89421857Y-109662809D02*
X88588523Y-110317571D01*
X88588523Y-110793761D02*
X89421857Y-110793761D01*
X89838523Y-110793761D02*
X89779000Y-110734238D01*
X89719476Y-110793761D01*
X89779000Y-110853285D01*
X89838523Y-110793761D01*
X89719476Y-110793761D01*
X88648047Y-111865190D02*
X88588523Y-111746142D01*
X88588523Y-111508047D01*
X88648047Y-111389000D01*
X88767095Y-111329476D01*
X89243285Y-111329476D01*
X89362333Y-111389000D01*
X89421857Y-111508047D01*
X89421857Y-111746142D01*
X89362333Y-111865190D01*
X89243285Y-111924714D01*
X89124238Y-111924714D01*
X89005190Y-111329476D01*
X88588523Y-113412809D02*
X89838523Y-113412809D01*
X89838523Y-113889000D01*
X89779000Y-114008047D01*
X89719476Y-114067571D01*
X89600428Y-114127095D01*
X89421857Y-114127095D01*
X89302809Y-114067571D01*
X89243285Y-114008047D01*
X89183761Y-113889000D01*
X89183761Y-113412809D01*
X89421857Y-114543761D02*
X88588523Y-114781857D01*
X89183761Y-115019952D01*
X88588523Y-115258047D01*
X89421857Y-115496142D01*
X88588523Y-115972333D02*
X89421857Y-115972333D01*
X89183761Y-115972333D02*
X89302809Y-116031857D01*
X89362333Y-116091380D01*
X89421857Y-116210428D01*
X89421857Y-116329476D01*
D11*
X107696000Y-91888000D03*
X107696000Y-89288000D03*
D12*
X107696000Y-94488000D03*
D13*
X92964000Y-113284000D03*
X92964000Y-118284000D03*
D14*
X97091500Y-93472000D03*
D15*
X104076500Y-93472000D03*
D16*
X94488000Y-98806000D03*
D17*
X94488000Y-96266000D03*
D18*
X102616000Y-112522000D03*
D19*
X102616000Y-115062000D03*
X102616000Y-117602000D03*
D20*
X90932000Y-105918000D03*
D21*
X95932000Y-105918000D03*
D22*
X114300000Y-112776000D03*
D14*
X111800000Y-112776000D03*
D15*
X99314000Y-110998000D03*
D22*
X99314000Y-118618000D03*
D16*
X107442000Y-118364000D03*
D17*
X115062000Y-118364000D03*
D15*
X118364000Y-118618000D03*
D22*
X118364000Y-110998000D03*
D15*
X113284000Y-107950000D03*
D22*
X113284000Y-100330000D03*
D23*
X118364000Y-107950000D03*
X118364000Y-105410000D03*
D24*
X118364000Y-102870000D03*
D23*
X90170000Y-99314000D03*
D24*
X90170000Y-96774000D03*
D22*
X107696000Y-113538000D03*
X107696000Y-111038000D03*
D21*
X108966000Y-106680000D03*
X106426000Y-106680000D03*
D20*
X103886000Y-106680000D03*
D22*
X115864000Y-99568000D03*
X118364000Y-99568000D03*
X109982000Y-99568000D03*
X109982000Y-102068000D03*
D11*
X106426000Y-85090000D03*
X106426000Y-87630000D03*
D12*
X106426000Y-82550000D03*
D22*
X103124000Y-83058000D03*
X103124000Y-85598000D03*
X103124000Y-88138000D03*
X103124000Y-90678000D03*
X95504000Y-90678000D03*
X95504000Y-88138000D03*
X95504000Y-85598000D03*
D14*
X95504000Y-83058000D03*
D25*
X115062000Y-89154000D03*
X117602000Y-86614000D03*
X115062000Y-84074000D03*
D15*
X110744000Y-79756000D03*
D22*
X118364000Y-79756000D03*
D15*
X118364000Y-93472000D03*
D22*
X110744000Y-93472000D03*
D15*
X107950000Y-79756000D03*
D22*
X100330000Y-79756000D03*
D15*
X98044000Y-79756000D03*
D22*
X90424000Y-79756000D03*
X118364000Y-96520000D03*
D15*
X110744000Y-96520000D03*
D26*
X99314000Y-96012000D03*
X98114000Y-101112000D03*
D21*
X91186000Y-93058000D03*
X91186000Y-83058000D03*
D27*
X114300000Y-112776000D02*
X115824000Y-111252000D01*
X114300000Y-112776000D02*
X114300000Y-114554000D01*
X114300000Y-114554000D02*
X113538000Y-115316000D01*
X109474000Y-115316000D02*
X107696000Y-113538000D01*
X113538000Y-115316000D02*
X109474000Y-115316000D01*
X105410000Y-115824000D02*
X107696000Y-113538000D01*
X102616000Y-117602000D02*
X103632000Y-117602000D01*
X103632000Y-117602000D02*
X105410000Y-115824000D01*
X115062000Y-105918000D02*
X115824000Y-105918000D01*
X115824000Y-106680000D02*
X115062000Y-105918000D01*
X115824000Y-107442000D02*
X115824000Y-106934000D01*
X115824000Y-107442000D02*
X115824000Y-106680000D01*
X115824000Y-111252000D02*
X115824000Y-107442000D01*
X117348000Y-105410000D02*
X118364000Y-105410000D01*
X115824000Y-106680000D02*
X115824000Y-106934000D01*
X115824000Y-106934000D02*
X117348000Y-105410000D01*
X115824000Y-106934000D02*
X115824000Y-106426000D01*
X115824000Y-107442000D02*
X115824000Y-106426000D01*
X115824000Y-106426000D02*
X116332000Y-105918000D01*
X114300000Y-105410000D02*
X115824000Y-106934000D01*
X118364000Y-105410000D02*
X114300000Y-105410000D01*
X118364000Y-105410000D02*
X117856000Y-105410000D01*
X117475000Y-105791000D02*
X116967000Y-105791000D01*
X117856000Y-105410000D02*
X117475000Y-105791000D01*
X106426000Y-79756000D02*
X103124000Y-83058000D01*
X107950000Y-79756000D02*
X106426000Y-79756000D01*
X103124000Y-83058000D02*
X95504000Y-90678000D01*
X100330000Y-103124000D02*
X100330000Y-104505000D01*
X98826000Y-101620000D02*
X100330000Y-103124000D01*
X100330000Y-104505000D02*
X102251000Y-106426000D01*
X102251000Y-106426000D02*
X103886000Y-106426000D01*
X95992000Y-101112000D02*
X90932000Y-106172000D01*
X98114000Y-101112000D02*
X95992000Y-101112000D01*
X90932000Y-111506000D02*
X92964000Y-113538000D01*
X90932000Y-106172000D02*
X90932000Y-111506000D01*
X117232630Y-96520000D02*
X118364000Y-96520000D01*
X113792000Y-96520000D02*
X117232630Y-96520000D01*
X111760000Y-98552000D02*
X113792000Y-96520000D01*
X109982000Y-102068000D02*
X111760000Y-100290000D01*
X111760000Y-100290000D02*
X111760000Y-98552000D01*
X103886000Y-106680000D02*
X103886000Y-106426000D01*
X109982000Y-103378000D02*
X109982000Y-102068000D01*
X108712000Y-104648000D02*
X109982000Y-103378000D01*
X103886000Y-106426000D02*
X105664000Y-104648000D01*
X105664000Y-104648000D02*
X108712000Y-104648000D01*
X96635370Y-90678000D02*
X95504000Y-90678000D01*
X98552000Y-90678000D02*
X96635370Y-90678000D01*
X101346000Y-93472000D02*
X98552000Y-90678000D01*
X101346000Y-96520000D02*
X101346000Y-93472000D01*
X98114000Y-101112000D02*
X98114000Y-99752000D01*
X98114000Y-99752000D02*
X101346000Y-96520000D01*
X92456000Y-98806000D02*
X94488000Y-98806000D01*
X90170000Y-96774000D02*
X90424000Y-96774000D01*
X90424000Y-96774000D02*
X92456000Y-98806000D01*
X99060000Y-96266000D02*
X99314000Y-96012000D01*
X94488000Y-96266000D02*
X99060000Y-96266000D01*
D28*
G36*
X120244001Y-105791000D02*
G01*
X119798163Y-105791000D01*
X119805476Y-105766890D01*
X119684155Y-105537000D01*
X118491000Y-105537000D01*
X118491000Y-105557000D01*
X118237000Y-105557000D01*
X118237000Y-105537000D01*
X117043845Y-105537000D01*
X116922524Y-105766890D01*
X116929837Y-105791000D01*
X112776000Y-105791000D01*
X112751224Y-105793440D01*
X112727399Y-105800667D01*
X112705443Y-105812403D01*
X112686197Y-105828197D01*
X109421394Y-109093000D01*
X91884500Y-109093000D01*
X91884500Y-107556072D01*
X91932000Y-107556072D01*
X92056482Y-107543812D01*
X92176180Y-107507502D01*
X92286494Y-107448537D01*
X92383185Y-107369185D01*
X92462537Y-107272494D01*
X92521502Y-107162180D01*
X92554496Y-107053413D01*
X94976192Y-107053413D01*
X95071956Y-107317814D01*
X95361571Y-107458704D01*
X95673108Y-107540384D01*
X95994595Y-107559718D01*
X96313675Y-107515961D01*
X96618088Y-107410795D01*
X96792044Y-107317814D01*
X96887808Y-107053413D01*
X95932000Y-106097605D01*
X94976192Y-107053413D01*
X92554496Y-107053413D01*
X92557812Y-107042482D01*
X92570072Y-106918000D01*
X92570072Y-105980595D01*
X94290282Y-105980595D01*
X94334039Y-106299675D01*
X94439205Y-106604088D01*
X94532186Y-106778044D01*
X94796587Y-106873808D01*
X95752395Y-105918000D01*
X96111605Y-105918000D01*
X97067413Y-106873808D01*
X97331814Y-106778044D01*
X97472704Y-106488429D01*
X97554384Y-106176892D01*
X97573718Y-105855405D01*
X97529961Y-105536325D01*
X97424795Y-105231912D01*
X97331814Y-105057956D01*
X97067413Y-104962192D01*
X96111605Y-105918000D01*
X95752395Y-105918000D01*
X94796587Y-104962192D01*
X94532186Y-105057956D01*
X94391296Y-105347571D01*
X94309616Y-105659108D01*
X94290282Y-105980595D01*
X92570072Y-105980595D01*
X92570072Y-105880966D01*
X93668451Y-104782587D01*
X94976192Y-104782587D01*
X95932000Y-105738395D01*
X96887808Y-104782587D01*
X96792044Y-104518186D01*
X96502429Y-104377296D01*
X96190892Y-104295616D01*
X95869405Y-104276282D01*
X95550325Y-104320039D01*
X95245912Y-104425205D01*
X95071956Y-104518186D01*
X94976192Y-104782587D01*
X93668451Y-104782587D01*
X96386538Y-102064500D01*
X96778029Y-102064500D01*
X96840129Y-102157439D01*
X97068561Y-102385871D01*
X97337169Y-102565349D01*
X97635630Y-102688975D01*
X97952474Y-102752000D01*
X98275526Y-102752000D01*
X98555309Y-102696347D01*
X99377500Y-103518539D01*
X99377501Y-104458206D01*
X99372892Y-104505000D01*
X99391283Y-104691722D01*
X99445749Y-104871269D01*
X99534194Y-105036740D01*
X99571370Y-105082039D01*
X99653223Y-105181778D01*
X99689564Y-105211602D01*
X101544397Y-107066436D01*
X101574222Y-107102778D01*
X101719259Y-107221806D01*
X101884731Y-107310252D01*
X102038106Y-107356778D01*
X102064277Y-107364717D01*
X102247928Y-107382806D01*
X102247928Y-107680000D01*
X102260188Y-107804482D01*
X102296498Y-107924180D01*
X102355463Y-108034494D01*
X102434815Y-108131185D01*
X102531506Y-108210537D01*
X102641820Y-108269502D01*
X102761518Y-108305812D01*
X102886000Y-108318072D01*
X104886000Y-108318072D01*
X105010482Y-108305812D01*
X105130180Y-108269502D01*
X105240494Y-108210537D01*
X105337185Y-108131185D01*
X105416537Y-108034494D01*
X105475502Y-107924180D01*
X105491037Y-107872967D01*
X105565956Y-108079814D01*
X105855571Y-108220704D01*
X106167108Y-108302384D01*
X106488595Y-108321718D01*
X106807675Y-108277961D01*
X107112088Y-108172795D01*
X107286044Y-108079814D01*
X107381808Y-107815413D01*
X106426000Y-106859605D01*
X106411858Y-106873748D01*
X106232253Y-106694143D01*
X106246395Y-106680000D01*
X106232253Y-106665858D01*
X106411858Y-106486253D01*
X106426000Y-106500395D01*
X106440143Y-106486253D01*
X106619748Y-106665858D01*
X106605605Y-106680000D01*
X107561413Y-107635808D01*
X107623280Y-107613400D01*
X107696013Y-107722252D01*
X107923748Y-107949987D01*
X108191537Y-108128918D01*
X108489088Y-108252168D01*
X108804967Y-108315000D01*
X109127033Y-108315000D01*
X109442912Y-108252168D01*
X109740463Y-108128918D01*
X110008252Y-107949987D01*
X110235987Y-107722252D01*
X110414918Y-107454463D01*
X110538168Y-107156912D01*
X110601000Y-106841033D01*
X110601000Y-106518967D01*
X110538168Y-106203088D01*
X110414918Y-105905537D01*
X110235987Y-105637748D01*
X110008252Y-105410013D01*
X109740463Y-105231082D01*
X109553429Y-105153610D01*
X110622436Y-104084603D01*
X110658778Y-104054778D01*
X110777806Y-103909741D01*
X110866252Y-103744269D01*
X110920717Y-103564723D01*
X110934500Y-103424785D01*
X110934500Y-103424784D01*
X110939108Y-103378001D01*
X110934500Y-103331216D01*
X110934500Y-103144896D01*
X111096637Y-102982759D01*
X111253680Y-102747727D01*
X111361853Y-102486574D01*
X111417000Y-102209335D01*
X111417000Y-102020000D01*
X116875928Y-102020000D01*
X116875928Y-103720000D01*
X116888188Y-103844482D01*
X116924498Y-103964180D01*
X116983463Y-104074494D01*
X117062815Y-104171185D01*
X117159506Y-104250537D01*
X117269820Y-104309502D01*
X117350466Y-104333966D01*
X117266412Y-104409731D01*
X117092359Y-104643080D01*
X116967175Y-104905901D01*
X116922524Y-105053110D01*
X117043845Y-105283000D01*
X118237000Y-105283000D01*
X118237000Y-105263000D01*
X118491000Y-105263000D01*
X118491000Y-105283000D01*
X119684155Y-105283000D01*
X119805476Y-105053110D01*
X119760825Y-104905901D01*
X119635641Y-104643080D01*
X119461588Y-104409731D01*
X119377534Y-104333966D01*
X119458180Y-104309502D01*
X119568494Y-104250537D01*
X119665185Y-104171185D01*
X119744537Y-104074494D01*
X119803502Y-103964180D01*
X119839812Y-103844482D01*
X119852072Y-103720000D01*
X119852072Y-102020000D01*
X119839812Y-101895518D01*
X119803502Y-101775820D01*
X119744537Y-101665506D01*
X119665185Y-101568815D01*
X119568494Y-101489463D01*
X119458180Y-101430498D01*
X119338482Y-101394188D01*
X119214000Y-101381928D01*
X117514000Y-101381928D01*
X117389518Y-101394188D01*
X117269820Y-101430498D01*
X117159506Y-101489463D01*
X117062815Y-101568815D01*
X116983463Y-101665506D01*
X116924498Y-101775820D01*
X116888188Y-101895518D01*
X116875928Y-102020000D01*
X111417000Y-102020000D01*
X111417000Y-101980038D01*
X112162520Y-101234518D01*
X112169363Y-101244759D01*
X112369241Y-101444637D01*
X112604273Y-101601680D01*
X112865426Y-101709853D01*
X113142665Y-101765000D01*
X113425335Y-101765000D01*
X113702574Y-101709853D01*
X113963727Y-101601680D01*
X114198759Y-101444637D01*
X114398637Y-101244759D01*
X114555680Y-101009727D01*
X114663853Y-100748574D01*
X114701223Y-100560702D01*
X115050903Y-100560702D01*
X115122486Y-100804671D01*
X115377996Y-100925571D01*
X115652184Y-100994300D01*
X115934512Y-101008217D01*
X116214130Y-100966787D01*
X116480292Y-100871603D01*
X116605514Y-100804671D01*
X116677097Y-100560702D01*
X115864000Y-99747605D01*
X115050903Y-100560702D01*
X114701223Y-100560702D01*
X114719000Y-100471335D01*
X114719000Y-100336411D01*
X114871298Y-100381097D01*
X115684395Y-99568000D01*
X116043605Y-99568000D01*
X116856702Y-100381097D01*
X117100671Y-100309514D01*
X117114324Y-100280659D01*
X117249363Y-100482759D01*
X117449241Y-100682637D01*
X117684273Y-100839680D01*
X117945426Y-100947853D01*
X118222665Y-101003000D01*
X118505335Y-101003000D01*
X118782574Y-100947853D01*
X119043727Y-100839680D01*
X119278759Y-100682637D01*
X119478637Y-100482759D01*
X119635680Y-100247727D01*
X119743853Y-99986574D01*
X119799000Y-99709335D01*
X119799000Y-99426665D01*
X119743853Y-99149426D01*
X119635680Y-98888273D01*
X119478637Y-98653241D01*
X119278759Y-98453363D01*
X119043727Y-98296320D01*
X118782574Y-98188147D01*
X118505335Y-98133000D01*
X118222665Y-98133000D01*
X117945426Y-98188147D01*
X117684273Y-98296320D01*
X117449241Y-98453363D01*
X117249363Y-98653241D01*
X117115308Y-98853869D01*
X117100671Y-98826486D01*
X116856702Y-98754903D01*
X116043605Y-99568000D01*
X115684395Y-99568000D01*
X114871298Y-98754903D01*
X114627329Y-98826486D01*
X114506429Y-99081996D01*
X114437700Y-99356184D01*
X114432305Y-99465629D01*
X114398637Y-99415241D01*
X114198759Y-99215363D01*
X113963727Y-99058320D01*
X113702574Y-98950147D01*
X113425335Y-98895000D01*
X113142665Y-98895000D01*
X112865426Y-98950147D01*
X112712500Y-99013491D01*
X112712500Y-98946538D01*
X113083740Y-98575298D01*
X115050903Y-98575298D01*
X115864000Y-99388395D01*
X116677097Y-98575298D01*
X116605514Y-98331329D01*
X116350004Y-98210429D01*
X116075816Y-98141700D01*
X115793488Y-98127783D01*
X115513870Y-98169213D01*
X115247708Y-98264397D01*
X115122486Y-98331329D01*
X115050903Y-98575298D01*
X113083740Y-98575298D01*
X114186539Y-97472500D01*
X117287104Y-97472500D01*
X117449241Y-97634637D01*
X117684273Y-97791680D01*
X117945426Y-97899853D01*
X118222665Y-97955000D01*
X118505335Y-97955000D01*
X118782574Y-97899853D01*
X119043727Y-97791680D01*
X119278759Y-97634637D01*
X119478637Y-97434759D01*
X119635680Y-97199727D01*
X119743853Y-96938574D01*
X119799000Y-96661335D01*
X119799000Y-96378665D01*
X119743853Y-96101426D01*
X119635680Y-95840273D01*
X119478637Y-95605241D01*
X119278759Y-95405363D01*
X119043727Y-95248320D01*
X118782574Y-95140147D01*
X118505335Y-95085000D01*
X118222665Y-95085000D01*
X117945426Y-95140147D01*
X117684273Y-95248320D01*
X117449241Y-95405363D01*
X117287104Y-95567500D01*
X113838785Y-95567500D01*
X113792000Y-95562892D01*
X113745215Y-95567500D01*
X113605277Y-95581283D01*
X113425731Y-95635748D01*
X113260259Y-95724194D01*
X113115222Y-95843222D01*
X113085397Y-95879564D01*
X112155878Y-96809084D01*
X112158236Y-96801309D01*
X112185943Y-96520000D01*
X112158236Y-96238691D01*
X112076182Y-95968192D01*
X111942932Y-95718899D01*
X111763608Y-95500392D01*
X111545101Y-95321068D01*
X111295808Y-95187818D01*
X111025309Y-95105764D01*
X110814492Y-95085000D01*
X110673508Y-95085000D01*
X110462691Y-95105764D01*
X110192192Y-95187818D01*
X109942899Y-95321068D01*
X109724392Y-95500392D01*
X109545068Y-95718899D01*
X109411818Y-95968192D01*
X109329764Y-96238691D01*
X109302057Y-96520000D01*
X109329764Y-96801309D01*
X109411818Y-97071808D01*
X109545068Y-97321101D01*
X109724392Y-97539608D01*
X109942899Y-97718932D01*
X110192192Y-97852182D01*
X110462691Y-97934236D01*
X110673508Y-97955000D01*
X110814492Y-97955000D01*
X111025309Y-97934236D01*
X111037935Y-97930406D01*
X110964194Y-98020260D01*
X110875749Y-98185731D01*
X110821283Y-98365278D01*
X110802892Y-98552000D01*
X110804282Y-98566111D01*
X110795097Y-98575296D01*
X110723514Y-98331329D01*
X110468004Y-98210429D01*
X110193816Y-98141700D01*
X109911488Y-98127783D01*
X109631870Y-98169213D01*
X109365708Y-98264397D01*
X109240486Y-98331329D01*
X109168903Y-98575298D01*
X109982000Y-99388395D01*
X109996143Y-99374253D01*
X110175748Y-99553858D01*
X110161605Y-99568000D01*
X110175748Y-99582143D01*
X109996143Y-99761748D01*
X109982000Y-99747605D01*
X109168903Y-100560702D01*
X109240486Y-100804671D01*
X109269341Y-100818324D01*
X109067241Y-100953363D01*
X108867363Y-101153241D01*
X108710320Y-101388273D01*
X108602147Y-101649426D01*
X108547000Y-101926665D01*
X108547000Y-102209335D01*
X108602147Y-102486574D01*
X108710320Y-102747727D01*
X108867363Y-102982759D01*
X108948783Y-103064179D01*
X108317462Y-103695500D01*
X105710785Y-103695500D01*
X105664000Y-103690892D01*
X105617215Y-103695500D01*
X105477277Y-103709283D01*
X105387504Y-103736516D01*
X105297730Y-103763748D01*
X105232903Y-103798399D01*
X105132259Y-103852194D01*
X104987222Y-103971222D01*
X104957398Y-104007563D01*
X103923034Y-105041928D01*
X102886000Y-105041928D01*
X102761518Y-105054188D01*
X102641820Y-105090498D01*
X102531506Y-105149463D01*
X102434815Y-105228815D01*
X102419507Y-105247468D01*
X101282500Y-104110462D01*
X101282500Y-103170784D01*
X101287108Y-103123999D01*
X101268717Y-102937277D01*
X101214252Y-102757731D01*
X101125806Y-102592259D01*
X101006778Y-102447222D01*
X100970436Y-102417397D01*
X99754000Y-101200962D01*
X99754000Y-100950474D01*
X99690975Y-100633630D01*
X99596909Y-100406532D01*
X102064227Y-100406532D01*
X102114916Y-100858434D01*
X102252415Y-101291885D01*
X102471486Y-101690373D01*
X102763784Y-102038721D01*
X103118178Y-102323661D01*
X103521167Y-102534338D01*
X103957402Y-102662729D01*
X104410266Y-102703943D01*
X104862512Y-102656410D01*
X105296911Y-102521941D01*
X105696919Y-102305658D01*
X106047300Y-102015798D01*
X106334706Y-101663402D01*
X106548192Y-101261894D01*
X106679626Y-100826566D01*
X106724000Y-100374000D01*
X106723092Y-100308943D01*
X106666098Y-99857792D01*
X106593154Y-99638512D01*
X108541783Y-99638512D01*
X108583213Y-99918130D01*
X108678397Y-100184292D01*
X108745329Y-100309514D01*
X108989298Y-100381097D01*
X109802395Y-99568000D01*
X108989298Y-98754903D01*
X108745329Y-98826486D01*
X108624429Y-99081996D01*
X108555700Y-99356184D01*
X108541783Y-99638512D01*
X106593154Y-99638512D01*
X106522561Y-99426304D01*
X106297948Y-99030913D01*
X106000814Y-98686680D01*
X105642476Y-98406716D01*
X105236585Y-98201686D01*
X104798600Y-98079398D01*
X104345204Y-98044511D01*
X103893667Y-98098354D01*
X103461187Y-98238875D01*
X103064237Y-98460722D01*
X102717938Y-98755446D01*
X102435480Y-99111820D01*
X102227621Y-99516270D01*
X102102278Y-99953390D01*
X102064227Y-100406532D01*
X99596909Y-100406532D01*
X99567349Y-100335169D01*
X99387871Y-100066561D01*
X99267174Y-99945864D01*
X101986436Y-97226603D01*
X102022778Y-97196778D01*
X102141806Y-97051741D01*
X102230252Y-96886269D01*
X102284717Y-96706723D01*
X102298500Y-96566785D01*
X102298500Y-96566784D01*
X102303108Y-96520001D01*
X102298500Y-96473216D01*
X102298500Y-93518785D01*
X102303108Y-93472000D01*
X102634557Y-93472000D01*
X102662264Y-93753309D01*
X102744318Y-94023808D01*
X102877568Y-94273101D01*
X103056892Y-94491608D01*
X103275399Y-94670932D01*
X103524692Y-94804182D01*
X103795191Y-94886236D01*
X104006008Y-94907000D01*
X104146992Y-94907000D01*
X104357809Y-94886236D01*
X104628308Y-94804182D01*
X104877601Y-94670932D01*
X105096108Y-94491608D01*
X105275432Y-94273101D01*
X105408682Y-94023808D01*
X105490736Y-93753309D01*
X105492243Y-93738000D01*
X106307928Y-93738000D01*
X106307928Y-95238000D01*
X106320188Y-95362482D01*
X106356498Y-95482180D01*
X106415463Y-95592494D01*
X106494815Y-95689185D01*
X106591506Y-95768537D01*
X106701820Y-95827502D01*
X106821518Y-95863812D01*
X106946000Y-95876072D01*
X108446000Y-95876072D01*
X108570482Y-95863812D01*
X108690180Y-95827502D01*
X108800494Y-95768537D01*
X108897185Y-95689185D01*
X108976537Y-95592494D01*
X109035502Y-95482180D01*
X109071812Y-95362482D01*
X109084072Y-95238000D01*
X109084072Y-93738000D01*
X109071812Y-93613518D01*
X109035502Y-93493820D01*
X108976537Y-93383506D01*
X108933172Y-93330665D01*
X109309000Y-93330665D01*
X109309000Y-93613335D01*
X109364147Y-93890574D01*
X109472320Y-94151727D01*
X109629363Y-94386759D01*
X109829241Y-94586637D01*
X110064273Y-94743680D01*
X110325426Y-94851853D01*
X110602665Y-94907000D01*
X110885335Y-94907000D01*
X111162574Y-94851853D01*
X111423727Y-94743680D01*
X111658759Y-94586637D01*
X111858637Y-94386759D01*
X112015680Y-94151727D01*
X112123853Y-93890574D01*
X112137684Y-93821039D01*
X116972096Y-93821039D01*
X117012754Y-93955087D01*
X117132963Y-94209420D01*
X117300481Y-94435414D01*
X117508869Y-94624385D01*
X117750119Y-94769070D01*
X118014960Y-94863909D01*
X118237000Y-94742624D01*
X118237000Y-93599000D01*
X118491000Y-93599000D01*
X118491000Y-94742624D01*
X118713040Y-94863909D01*
X118977881Y-94769070D01*
X119219131Y-94624385D01*
X119427519Y-94435414D01*
X119595037Y-94209420D01*
X119715246Y-93955087D01*
X119755904Y-93821039D01*
X119633915Y-93599000D01*
X118491000Y-93599000D01*
X118237000Y-93599000D01*
X117094085Y-93599000D01*
X116972096Y-93821039D01*
X112137684Y-93821039D01*
X112179000Y-93613335D01*
X112179000Y-93330665D01*
X112137685Y-93122961D01*
X116972096Y-93122961D01*
X117094085Y-93345000D01*
X118237000Y-93345000D01*
X118237000Y-92201376D01*
X118491000Y-92201376D01*
X118491000Y-93345000D01*
X119633915Y-93345000D01*
X119755904Y-93122961D01*
X119715246Y-92988913D01*
X119595037Y-92734580D01*
X119427519Y-92508586D01*
X119219131Y-92319615D01*
X118977881Y-92174930D01*
X118713040Y-92080091D01*
X118491000Y-92201376D01*
X118237000Y-92201376D01*
X118014960Y-92080091D01*
X117750119Y-92174930D01*
X117508869Y-92319615D01*
X117300481Y-92508586D01*
X117132963Y-92734580D01*
X117012754Y-92988913D01*
X116972096Y-93122961D01*
X112137685Y-93122961D01*
X112123853Y-93053426D01*
X112015680Y-92792273D01*
X111858637Y-92557241D01*
X111658759Y-92357363D01*
X111423727Y-92200320D01*
X111162574Y-92092147D01*
X110885335Y-92037000D01*
X110602665Y-92037000D01*
X110325426Y-92092147D01*
X110064273Y-92200320D01*
X109829241Y-92357363D01*
X109629363Y-92557241D01*
X109472320Y-92792273D01*
X109364147Y-93053426D01*
X109309000Y-93330665D01*
X108933172Y-93330665D01*
X108897185Y-93286815D01*
X108800494Y-93207463D01*
X108690180Y-93148498D01*
X108570482Y-93112188D01*
X108446000Y-93099928D01*
X108375155Y-93099928D01*
X108578886Y-92963799D01*
X108771799Y-92770886D01*
X108923371Y-92544043D01*
X109027775Y-92291989D01*
X109081000Y-92024411D01*
X109081000Y-91751589D01*
X109027775Y-91484011D01*
X108923371Y-91231957D01*
X108771799Y-91005114D01*
X108578886Y-90812201D01*
X108352043Y-90660629D01*
X108175345Y-90587439D01*
X108294832Y-90544277D01*
X108407863Y-90483860D01*
X108473388Y-90244993D01*
X107696000Y-89467605D01*
X106918612Y-90244993D01*
X106984137Y-90483860D01*
X107210390Y-90590034D01*
X107039957Y-90660629D01*
X106813114Y-90812201D01*
X106620201Y-91005114D01*
X106468629Y-91231957D01*
X106364225Y-91484011D01*
X106311000Y-91751589D01*
X106311000Y-92024411D01*
X106364225Y-92291989D01*
X106468629Y-92544043D01*
X106620201Y-92770886D01*
X106813114Y-92963799D01*
X107016845Y-93099928D01*
X106946000Y-93099928D01*
X106821518Y-93112188D01*
X106701820Y-93148498D01*
X106591506Y-93207463D01*
X106494815Y-93286815D01*
X106415463Y-93383506D01*
X106356498Y-93493820D01*
X106320188Y-93613518D01*
X106307928Y-93738000D01*
X105492243Y-93738000D01*
X105518443Y-93472000D01*
X105490736Y-93190691D01*
X105408682Y-92920192D01*
X105275432Y-92670899D01*
X105096108Y-92452392D01*
X104877601Y-92273068D01*
X104628308Y-92139818D01*
X104357809Y-92057764D01*
X104146992Y-92037000D01*
X104006008Y-92037000D01*
X103795191Y-92057764D01*
X103524692Y-92139818D01*
X103275399Y-92273068D01*
X103056892Y-92452392D01*
X102877568Y-92670899D01*
X102744318Y-92920192D01*
X102662264Y-93190691D01*
X102634557Y-93472000D01*
X102303108Y-93472000D01*
X102284717Y-93285278D01*
X102230252Y-93105730D01*
X102154388Y-92963799D01*
X102141806Y-92940259D01*
X102022778Y-92795222D01*
X101986436Y-92765397D01*
X99258607Y-90037569D01*
X99228778Y-90001222D01*
X99083741Y-89882194D01*
X98918269Y-89793748D01*
X98738723Y-89739283D01*
X98598785Y-89725500D01*
X98552000Y-89720892D01*
X98505215Y-89725500D01*
X97803538Y-89725500D01*
X101705708Y-85823330D01*
X101744147Y-86016574D01*
X101852320Y-86277727D01*
X102009363Y-86512759D01*
X102209241Y-86712637D01*
X102441759Y-86868000D01*
X102209241Y-87023363D01*
X102009363Y-87223241D01*
X101852320Y-87458273D01*
X101744147Y-87719426D01*
X101689000Y-87996665D01*
X101689000Y-88279335D01*
X101744147Y-88556574D01*
X101852320Y-88817727D01*
X102009363Y-89052759D01*
X102209241Y-89252637D01*
X102441759Y-89408000D01*
X102209241Y-89563363D01*
X102009363Y-89763241D01*
X101852320Y-89998273D01*
X101744147Y-90259426D01*
X101689000Y-90536665D01*
X101689000Y-90819335D01*
X101744147Y-91096574D01*
X101852320Y-91357727D01*
X102009363Y-91592759D01*
X102209241Y-91792637D01*
X102444273Y-91949680D01*
X102705426Y-92057853D01*
X102982665Y-92113000D01*
X103265335Y-92113000D01*
X103542574Y-92057853D01*
X103803727Y-91949680D01*
X104038759Y-91792637D01*
X104238637Y-91592759D01*
X104395680Y-91357727D01*
X104503853Y-91096574D01*
X104559000Y-90819335D01*
X104559000Y-90536665D01*
X104503853Y-90259426D01*
X104395680Y-89998273D01*
X104238637Y-89763241D01*
X104038759Y-89563363D01*
X103806241Y-89408000D01*
X104038759Y-89252637D01*
X104238637Y-89052759D01*
X104395680Y-88817727D01*
X104491253Y-88586993D01*
X105648612Y-88586993D01*
X105714137Y-88825860D01*
X105961116Y-88941760D01*
X106225960Y-89007250D01*
X106337437Y-89012388D01*
X106318750Y-89087960D01*
X106306188Y-89360492D01*
X106347035Y-89630238D01*
X106439723Y-89886832D01*
X106500140Y-89999863D01*
X106739007Y-90065388D01*
X107516395Y-89288000D01*
X107875605Y-89288000D01*
X108652993Y-90065388D01*
X108891860Y-89999863D01*
X109007760Y-89752884D01*
X109073250Y-89488040D01*
X109085812Y-89215508D01*
X109056290Y-89020544D01*
X113707000Y-89020544D01*
X113707000Y-89287456D01*
X113759072Y-89549239D01*
X113861215Y-89795833D01*
X114009503Y-90017762D01*
X114198238Y-90206497D01*
X114420167Y-90354785D01*
X114666761Y-90456928D01*
X114928544Y-90509000D01*
X115195456Y-90509000D01*
X115457239Y-90456928D01*
X115703833Y-90354785D01*
X115925762Y-90206497D01*
X116114497Y-90017762D01*
X116262785Y-89795833D01*
X116364928Y-89549239D01*
X116417000Y-89287456D01*
X116417000Y-89020544D01*
X116364928Y-88758761D01*
X116262785Y-88512167D01*
X116114497Y-88290238D01*
X115925762Y-88101503D01*
X115703833Y-87953215D01*
X115457239Y-87851072D01*
X115195456Y-87799000D01*
X114928544Y-87799000D01*
X114666761Y-87851072D01*
X114420167Y-87953215D01*
X114198238Y-88101503D01*
X114009503Y-88290238D01*
X113861215Y-88512167D01*
X113759072Y-88758761D01*
X113707000Y-89020544D01*
X109056290Y-89020544D01*
X109044965Y-88945762D01*
X108952277Y-88689168D01*
X108891860Y-88576137D01*
X108652993Y-88510612D01*
X107875605Y-89288000D01*
X107516395Y-89288000D01*
X107502253Y-89273858D01*
X107681858Y-89094253D01*
X107696000Y-89108395D01*
X108473388Y-88331007D01*
X108407863Y-88092140D01*
X108160884Y-87976240D01*
X107896040Y-87910750D01*
X107784563Y-87905612D01*
X107803250Y-87830040D01*
X107815812Y-87557508D01*
X107774965Y-87287762D01*
X107682277Y-87031168D01*
X107621860Y-86918137D01*
X107382993Y-86852612D01*
X106605605Y-87630000D01*
X106619748Y-87644143D01*
X106440143Y-87823748D01*
X106426000Y-87809605D01*
X105648612Y-88586993D01*
X104491253Y-88586993D01*
X104503853Y-88556574D01*
X104559000Y-88279335D01*
X104559000Y-87996665D01*
X104503853Y-87719426D01*
X104496839Y-87702492D01*
X105036188Y-87702492D01*
X105077035Y-87972238D01*
X105169723Y-88228832D01*
X105230140Y-88341863D01*
X105469007Y-88407388D01*
X106246395Y-87630000D01*
X105469007Y-86852612D01*
X105230140Y-86918137D01*
X105114240Y-87165116D01*
X105048750Y-87429960D01*
X105036188Y-87702492D01*
X104496839Y-87702492D01*
X104395680Y-87458273D01*
X104238637Y-87223241D01*
X104038759Y-87023363D01*
X103806241Y-86868000D01*
X104038759Y-86712637D01*
X104238637Y-86512759D01*
X104395680Y-86277727D01*
X104503853Y-86016574D01*
X104559000Y-85739335D01*
X104559000Y-85456665D01*
X104503853Y-85179426D01*
X104395680Y-84918273D01*
X104238637Y-84683241D01*
X104038759Y-84483363D01*
X103806241Y-84328000D01*
X104038759Y-84172637D01*
X104238637Y-83972759D01*
X104395680Y-83737727D01*
X104503853Y-83476574D01*
X104559000Y-83199335D01*
X104559000Y-82970038D01*
X105037928Y-82491110D01*
X105037928Y-83300000D01*
X105050188Y-83424482D01*
X105086498Y-83544180D01*
X105145463Y-83654494D01*
X105224815Y-83751185D01*
X105321506Y-83830537D01*
X105431820Y-83889502D01*
X105551518Y-83925812D01*
X105659483Y-83936445D01*
X105543114Y-84014201D01*
X105350201Y-84207114D01*
X105198629Y-84433957D01*
X105094225Y-84686011D01*
X105041000Y-84953589D01*
X105041000Y-85226411D01*
X105094225Y-85493989D01*
X105198629Y-85746043D01*
X105350201Y-85972886D01*
X105543114Y-86165799D01*
X105769957Y-86317371D01*
X105869279Y-86358511D01*
X105827168Y-86373723D01*
X105714137Y-86434140D01*
X105648612Y-86673007D01*
X106426000Y-87450395D01*
X107203388Y-86673007D01*
X107150593Y-86480544D01*
X116247000Y-86480544D01*
X116247000Y-86747456D01*
X116299072Y-87009239D01*
X116401215Y-87255833D01*
X116549503Y-87477762D01*
X116738238Y-87666497D01*
X116960167Y-87814785D01*
X117206761Y-87916928D01*
X117468544Y-87969000D01*
X117735456Y-87969000D01*
X117997239Y-87916928D01*
X118243833Y-87814785D01*
X118465762Y-87666497D01*
X118654497Y-87477762D01*
X118802785Y-87255833D01*
X118904928Y-87009239D01*
X118957000Y-86747456D01*
X118957000Y-86480544D01*
X118904928Y-86218761D01*
X118802785Y-85972167D01*
X118654497Y-85750238D01*
X118465762Y-85561503D01*
X118243833Y-85413215D01*
X117997239Y-85311072D01*
X117735456Y-85259000D01*
X117468544Y-85259000D01*
X117206761Y-85311072D01*
X116960167Y-85413215D01*
X116738238Y-85561503D01*
X116549503Y-85750238D01*
X116401215Y-85972167D01*
X116299072Y-86218761D01*
X116247000Y-86480544D01*
X107150593Y-86480544D01*
X107137863Y-86434140D01*
X106979523Y-86359836D01*
X107082043Y-86317371D01*
X107308886Y-86165799D01*
X107501799Y-85972886D01*
X107653371Y-85746043D01*
X107757775Y-85493989D01*
X107811000Y-85226411D01*
X107811000Y-84953589D01*
X107757775Y-84686011D01*
X107653371Y-84433957D01*
X107501799Y-84207114D01*
X107308886Y-84014201D01*
X107198652Y-83940544D01*
X113707000Y-83940544D01*
X113707000Y-84207456D01*
X113759072Y-84469239D01*
X113861215Y-84715833D01*
X114009503Y-84937762D01*
X114198238Y-85126497D01*
X114420167Y-85274785D01*
X114666761Y-85376928D01*
X114928544Y-85429000D01*
X115195456Y-85429000D01*
X115457239Y-85376928D01*
X115703833Y-85274785D01*
X115925762Y-85126497D01*
X116114497Y-84937762D01*
X116262785Y-84715833D01*
X116364928Y-84469239D01*
X116417000Y-84207456D01*
X116417000Y-83940544D01*
X116364928Y-83678761D01*
X116262785Y-83432167D01*
X116114497Y-83210238D01*
X115925762Y-83021503D01*
X115703833Y-82873215D01*
X115457239Y-82771072D01*
X115195456Y-82719000D01*
X114928544Y-82719000D01*
X114666761Y-82771072D01*
X114420167Y-82873215D01*
X114198238Y-83021503D01*
X114009503Y-83210238D01*
X113861215Y-83432167D01*
X113759072Y-83678761D01*
X113707000Y-83940544D01*
X107198652Y-83940544D01*
X107192517Y-83936445D01*
X107300482Y-83925812D01*
X107420180Y-83889502D01*
X107530494Y-83830537D01*
X107627185Y-83751185D01*
X107706537Y-83654494D01*
X107765502Y-83544180D01*
X107801812Y-83424482D01*
X107814072Y-83300000D01*
X107814072Y-81800000D01*
X107801812Y-81675518D01*
X107765502Y-81555820D01*
X107706537Y-81445506D01*
X107627185Y-81348815D01*
X107530494Y-81269463D01*
X107420180Y-81210498D01*
X107300482Y-81174188D01*
X107176000Y-81161928D01*
X106367111Y-81161928D01*
X106820539Y-80708500D01*
X106875318Y-80708500D01*
X106930392Y-80775608D01*
X107148899Y-80954932D01*
X107398192Y-81088182D01*
X107668691Y-81170236D01*
X107879508Y-81191000D01*
X108020492Y-81191000D01*
X108231309Y-81170236D01*
X108501808Y-81088182D01*
X108751101Y-80954932D01*
X108969608Y-80775608D01*
X109148932Y-80557101D01*
X109282182Y-80307808D01*
X109364236Y-80037309D01*
X109379434Y-79883002D01*
X109474084Y-79883002D01*
X109352096Y-80105039D01*
X109392754Y-80239087D01*
X109512963Y-80493420D01*
X109680481Y-80719414D01*
X109888869Y-80908385D01*
X110130119Y-81053070D01*
X110394960Y-81147909D01*
X110617000Y-81026624D01*
X110617000Y-79883000D01*
X110871000Y-79883000D01*
X110871000Y-81026624D01*
X111093040Y-81147909D01*
X111357881Y-81053070D01*
X111599131Y-80908385D01*
X111807519Y-80719414D01*
X111975037Y-80493420D01*
X112095246Y-80239087D01*
X112135904Y-80105039D01*
X112013915Y-79883000D01*
X110871000Y-79883000D01*
X110617000Y-79883000D01*
X110597000Y-79883000D01*
X110597000Y-79629000D01*
X110617000Y-79629000D01*
X110617000Y-78485376D01*
X110871000Y-78485376D01*
X110871000Y-79629000D01*
X112013915Y-79629000D01*
X112021790Y-79614665D01*
X116929000Y-79614665D01*
X116929000Y-79897335D01*
X116984147Y-80174574D01*
X117092320Y-80435727D01*
X117249363Y-80670759D01*
X117449241Y-80870637D01*
X117684273Y-81027680D01*
X117945426Y-81135853D01*
X118222665Y-81191000D01*
X118505335Y-81191000D01*
X118782574Y-81135853D01*
X119043727Y-81027680D01*
X119278759Y-80870637D01*
X119478637Y-80670759D01*
X119635680Y-80435727D01*
X119743853Y-80174574D01*
X119799000Y-79897335D01*
X119799000Y-79614665D01*
X119743853Y-79337426D01*
X119635680Y-79076273D01*
X119478637Y-78841241D01*
X119278759Y-78641363D01*
X119043727Y-78484320D01*
X118782574Y-78376147D01*
X118505335Y-78321000D01*
X118222665Y-78321000D01*
X117945426Y-78376147D01*
X117684273Y-78484320D01*
X117449241Y-78641363D01*
X117249363Y-78841241D01*
X117092320Y-79076273D01*
X116984147Y-79337426D01*
X116929000Y-79614665D01*
X112021790Y-79614665D01*
X112135904Y-79406961D01*
X112095246Y-79272913D01*
X111975037Y-79018580D01*
X111807519Y-78792586D01*
X111599131Y-78603615D01*
X111357881Y-78458930D01*
X111093040Y-78364091D01*
X110871000Y-78485376D01*
X110617000Y-78485376D01*
X110394960Y-78364091D01*
X110130119Y-78458930D01*
X109888869Y-78603615D01*
X109680481Y-78792586D01*
X109512963Y-79018580D01*
X109392754Y-79272913D01*
X109352096Y-79406961D01*
X109474084Y-79628998D01*
X109379434Y-79628998D01*
X109364236Y-79474691D01*
X109282182Y-79204192D01*
X109148932Y-78954899D01*
X108969608Y-78736392D01*
X108751101Y-78557068D01*
X108501808Y-78423818D01*
X108231309Y-78341764D01*
X108020492Y-78321000D01*
X107879508Y-78321000D01*
X107668691Y-78341764D01*
X107398192Y-78423818D01*
X107148899Y-78557068D01*
X106930392Y-78736392D01*
X106875318Y-78803500D01*
X106472784Y-78803500D01*
X106425999Y-78798892D01*
X106239277Y-78817283D01*
X106059731Y-78871748D01*
X105894259Y-78960194D01*
X105749222Y-79079222D01*
X105719397Y-79115564D01*
X103211962Y-81623000D01*
X102982665Y-81623000D01*
X102705426Y-81678147D01*
X102444273Y-81786320D01*
X102209241Y-81943363D01*
X102009363Y-82143241D01*
X101852320Y-82378273D01*
X101744147Y-82639426D01*
X101689000Y-82916665D01*
X101689000Y-83145962D01*
X96922292Y-87912670D01*
X96883853Y-87719426D01*
X96775680Y-87458273D01*
X96618637Y-87223241D01*
X96418759Y-87023363D01*
X96186241Y-86868000D01*
X96418759Y-86712637D01*
X96618637Y-86512759D01*
X96775680Y-86277727D01*
X96883853Y-86016574D01*
X96939000Y-85739335D01*
X96939000Y-85456665D01*
X96883853Y-85179426D01*
X96775680Y-84918273D01*
X96618637Y-84683241D01*
X96420039Y-84484643D01*
X96428482Y-84483812D01*
X96548180Y-84447502D01*
X96658494Y-84388537D01*
X96755185Y-84309185D01*
X96834537Y-84212494D01*
X96893502Y-84102180D01*
X96929812Y-83982482D01*
X96942072Y-83858000D01*
X96939000Y-83343750D01*
X96780250Y-83185000D01*
X95631000Y-83185000D01*
X95631000Y-83205000D01*
X95377000Y-83205000D01*
X95377000Y-83185000D01*
X94227750Y-83185000D01*
X94069000Y-83343750D01*
X94065928Y-83858000D01*
X94078188Y-83982482D01*
X94114498Y-84102180D01*
X94173463Y-84212494D01*
X94252815Y-84309185D01*
X94349506Y-84388537D01*
X94459820Y-84447502D01*
X94579518Y-84483812D01*
X94587961Y-84484643D01*
X94389363Y-84683241D01*
X94232320Y-84918273D01*
X94124147Y-85179426D01*
X94069000Y-85456665D01*
X94069000Y-85739335D01*
X94124147Y-86016574D01*
X94232320Y-86277727D01*
X94389363Y-86512759D01*
X94589241Y-86712637D01*
X94821759Y-86868000D01*
X94589241Y-87023363D01*
X94389363Y-87223241D01*
X94232320Y-87458273D01*
X94124147Y-87719426D01*
X94069000Y-87996665D01*
X94069000Y-88279335D01*
X94124147Y-88556574D01*
X94232320Y-88817727D01*
X94389363Y-89052759D01*
X94589241Y-89252637D01*
X94821759Y-89408000D01*
X94589241Y-89563363D01*
X94389363Y-89763241D01*
X94232320Y-89998273D01*
X94124147Y-90259426D01*
X94069000Y-90536665D01*
X94069000Y-90819335D01*
X94124147Y-91096574D01*
X94232320Y-91357727D01*
X94389363Y-91592759D01*
X94589241Y-91792637D01*
X94824273Y-91949680D01*
X95085426Y-92057853D01*
X95362665Y-92113000D01*
X95645335Y-92113000D01*
X95922574Y-92057853D01*
X96183727Y-91949680D01*
X96418759Y-91792637D01*
X96580896Y-91630500D01*
X98157462Y-91630500D01*
X100393501Y-93866540D01*
X100393501Y-94772191D01*
X100359439Y-94738129D01*
X100090831Y-94558651D01*
X99792370Y-94435025D01*
X99475526Y-94372000D01*
X99152474Y-94372000D01*
X98835630Y-94435025D01*
X98537169Y-94558651D01*
X98405527Y-94646611D01*
X98422037Y-94626494D01*
X98481002Y-94516180D01*
X98517312Y-94396482D01*
X98529572Y-94272000D01*
X98529572Y-92672000D01*
X98517312Y-92547518D01*
X98481002Y-92427820D01*
X98422037Y-92317506D01*
X98342685Y-92220815D01*
X98245994Y-92141463D01*
X98135680Y-92082498D01*
X98015982Y-92046188D01*
X97891500Y-92033928D01*
X96291500Y-92033928D01*
X96167018Y-92046188D01*
X96047320Y-92082498D01*
X95937006Y-92141463D01*
X95840315Y-92220815D01*
X95760963Y-92317506D01*
X95701998Y-92427820D01*
X95665688Y-92547518D01*
X95653428Y-92672000D01*
X95653428Y-94272000D01*
X95665688Y-94396482D01*
X95701998Y-94516180D01*
X95715285Y-94541038D01*
X95712482Y-94540188D01*
X95588000Y-94527928D01*
X93388000Y-94527928D01*
X93263518Y-94540188D01*
X93143820Y-94576498D01*
X93033506Y-94635463D01*
X92936815Y-94714815D01*
X92857463Y-94811506D01*
X92798498Y-94921820D01*
X92762188Y-95041518D01*
X92749928Y-95166000D01*
X92749928Y-97366000D01*
X92762188Y-97490482D01*
X92798498Y-97610180D01*
X92857463Y-97720494D01*
X92936815Y-97817185D01*
X92981065Y-97853500D01*
X92850539Y-97853500D01*
X91658072Y-96661034D01*
X91658072Y-95924000D01*
X91645812Y-95799518D01*
X91609502Y-95679820D01*
X91550537Y-95569506D01*
X91471185Y-95472815D01*
X91374494Y-95393463D01*
X91264180Y-95334498D01*
X91144482Y-95298188D01*
X91020000Y-95285928D01*
X89320000Y-95285928D01*
X89195518Y-95298188D01*
X89075820Y-95334498D01*
X88965506Y-95393463D01*
X88868815Y-95472815D01*
X88789463Y-95569506D01*
X88730498Y-95679820D01*
X88694188Y-95799518D01*
X88681928Y-95924000D01*
X88681928Y-97624000D01*
X88694188Y-97748482D01*
X88730498Y-97868180D01*
X88789463Y-97978494D01*
X88868815Y-98075185D01*
X88965506Y-98154537D01*
X89075820Y-98213502D01*
X89156466Y-98237966D01*
X89072412Y-98313731D01*
X88898359Y-98547080D01*
X88773175Y-98809901D01*
X88728524Y-98957110D01*
X88849845Y-99187000D01*
X90043000Y-99187000D01*
X90043000Y-99167000D01*
X90297000Y-99167000D01*
X90297000Y-99187000D01*
X90317000Y-99187000D01*
X90317000Y-99441000D01*
X90297000Y-99441000D01*
X90297000Y-100634814D01*
X90526891Y-100755481D01*
X90801252Y-100658157D01*
X91051355Y-100509178D01*
X91267588Y-100314269D01*
X91441641Y-100080920D01*
X91566825Y-99818099D01*
X91611476Y-99670890D01*
X91490156Y-99441002D01*
X91655000Y-99441002D01*
X91655000Y-99352039D01*
X91749397Y-99446436D01*
X91779222Y-99482778D01*
X91924259Y-99601806D01*
X92089731Y-99690252D01*
X92269277Y-99744717D01*
X92456000Y-99763108D01*
X92502785Y-99758500D01*
X93029827Y-99758500D01*
X93038421Y-99774578D01*
X93255234Y-100038766D01*
X93519422Y-100255579D01*
X93820832Y-100416686D01*
X94147881Y-100515895D01*
X94402775Y-100541000D01*
X94573225Y-100541000D01*
X94828119Y-100515895D01*
X95155168Y-100416686D01*
X95456578Y-100255579D01*
X95720766Y-100038766D01*
X95937579Y-99774578D01*
X96098686Y-99473168D01*
X96197895Y-99146119D01*
X96231394Y-98806000D01*
X96197895Y-98465881D01*
X96098686Y-98138832D01*
X95961041Y-97881316D01*
X96039185Y-97817185D01*
X96118537Y-97720494D01*
X96177502Y-97610180D01*
X96213812Y-97490482D01*
X96226072Y-97366000D01*
X96226072Y-97218500D01*
X98201190Y-97218500D01*
X98268561Y-97285871D01*
X98537169Y-97465349D01*
X98835630Y-97588975D01*
X98914332Y-97604630D01*
X97473564Y-99045398D01*
X97437223Y-99075222D01*
X97407399Y-99111563D01*
X97318194Y-99220260D01*
X97229749Y-99385731D01*
X97175283Y-99565278D01*
X97156892Y-99752000D01*
X97159397Y-99777434D01*
X97068561Y-99838129D01*
X96840129Y-100066561D01*
X96778029Y-100159500D01*
X96038785Y-100159500D01*
X95992000Y-100154892D01*
X95945215Y-100159500D01*
X95805277Y-100173283D01*
X95754570Y-100188665D01*
X95625730Y-100227748D01*
X95573662Y-100255579D01*
X95460259Y-100316194D01*
X95315222Y-100435222D01*
X95285393Y-100471569D01*
X91477034Y-104279928D01*
X89932000Y-104279928D01*
X89807518Y-104292188D01*
X89687820Y-104328498D01*
X89577506Y-104387463D01*
X89480815Y-104466815D01*
X89401463Y-104563506D01*
X89342498Y-104673820D01*
X89306188Y-104793518D01*
X89293928Y-104918000D01*
X89293928Y-106844476D01*
X88544000Y-106844476D01*
X88544000Y-99670890D01*
X88728524Y-99670890D01*
X88773175Y-99818099D01*
X88898359Y-100080920D01*
X89072412Y-100314269D01*
X89288645Y-100509178D01*
X89538748Y-100658157D01*
X89813109Y-100755481D01*
X90043000Y-100634814D01*
X90043000Y-99441000D01*
X88849845Y-99441000D01*
X88728524Y-99670890D01*
X88544000Y-99670890D01*
X88544000Y-94193413D01*
X90230192Y-94193413D01*
X90325956Y-94457814D01*
X90615571Y-94598704D01*
X90927108Y-94680384D01*
X91248595Y-94699718D01*
X91567675Y-94655961D01*
X91872088Y-94550795D01*
X92046044Y-94457814D01*
X92141808Y-94193413D01*
X91186000Y-93237605D01*
X90230192Y-94193413D01*
X88544000Y-94193413D01*
X88544000Y-93120595D01*
X89544282Y-93120595D01*
X89588039Y-93439675D01*
X89693205Y-93744088D01*
X89786186Y-93918044D01*
X90050587Y-94013808D01*
X91006395Y-93058000D01*
X91365605Y-93058000D01*
X92321413Y-94013808D01*
X92585814Y-93918044D01*
X92726704Y-93628429D01*
X92808384Y-93316892D01*
X92827718Y-92995405D01*
X92783961Y-92676325D01*
X92678795Y-92371912D01*
X92585814Y-92197956D01*
X92321413Y-92102192D01*
X91365605Y-93058000D01*
X91006395Y-93058000D01*
X90050587Y-92102192D01*
X89786186Y-92197956D01*
X89645296Y-92487571D01*
X89563616Y-92799108D01*
X89544282Y-93120595D01*
X88544000Y-93120595D01*
X88544000Y-91922587D01*
X90230192Y-91922587D01*
X91186000Y-92878395D01*
X92141808Y-91922587D01*
X92046044Y-91658186D01*
X91756429Y-91517296D01*
X91444892Y-91435616D01*
X91123405Y-91416282D01*
X90804325Y-91460039D01*
X90499912Y-91565205D01*
X90325956Y-91658186D01*
X90230192Y-91922587D01*
X88544000Y-91922587D01*
X88544000Y-82896967D01*
X89551000Y-82896967D01*
X89551000Y-83219033D01*
X89613832Y-83534912D01*
X89737082Y-83832463D01*
X89916013Y-84100252D01*
X90143748Y-84327987D01*
X90411537Y-84506918D01*
X90709088Y-84630168D01*
X91024967Y-84693000D01*
X91347033Y-84693000D01*
X91662912Y-84630168D01*
X91960463Y-84506918D01*
X92228252Y-84327987D01*
X92455987Y-84100252D01*
X92634918Y-83832463D01*
X92758168Y-83534912D01*
X92821000Y-83219033D01*
X92821000Y-82896967D01*
X92758168Y-82581088D01*
X92634918Y-82283537D01*
X92617855Y-82258000D01*
X94065928Y-82258000D01*
X94069000Y-82772250D01*
X94227750Y-82931000D01*
X95377000Y-82931000D01*
X95377000Y-81781750D01*
X95631000Y-81781750D01*
X95631000Y-82931000D01*
X96780250Y-82931000D01*
X96939000Y-82772250D01*
X96942072Y-82258000D01*
X96929812Y-82133518D01*
X96893502Y-82013820D01*
X96834537Y-81903506D01*
X96755185Y-81806815D01*
X96658494Y-81727463D01*
X96548180Y-81668498D01*
X96428482Y-81632188D01*
X96304000Y-81619928D01*
X95789750Y-81623000D01*
X95631000Y-81781750D01*
X95377000Y-81781750D01*
X95218250Y-81623000D01*
X94704000Y-81619928D01*
X94579518Y-81632188D01*
X94459820Y-81668498D01*
X94349506Y-81727463D01*
X94252815Y-81806815D01*
X94173463Y-81903506D01*
X94114498Y-82013820D01*
X94078188Y-82133518D01*
X94065928Y-82258000D01*
X92617855Y-82258000D01*
X92455987Y-82015748D01*
X92228252Y-81788013D01*
X91960463Y-81609082D01*
X91662912Y-81485832D01*
X91347033Y-81423000D01*
X91024967Y-81423000D01*
X90709088Y-81485832D01*
X90411537Y-81609082D01*
X90143748Y-81788013D01*
X89916013Y-82015748D01*
X89737082Y-82283537D01*
X89613832Y-82581088D01*
X89551000Y-82896967D01*
X88544000Y-82896967D01*
X88544000Y-79614665D01*
X88989000Y-79614665D01*
X88989000Y-79897335D01*
X89044147Y-80174574D01*
X89152320Y-80435727D01*
X89309363Y-80670759D01*
X89509241Y-80870637D01*
X89744273Y-81027680D01*
X90005426Y-81135853D01*
X90282665Y-81191000D01*
X90565335Y-81191000D01*
X90842574Y-81135853D01*
X91103727Y-81027680D01*
X91338759Y-80870637D01*
X91538637Y-80670759D01*
X91695680Y-80435727D01*
X91803853Y-80174574D01*
X91859000Y-79897335D01*
X91859000Y-79756000D01*
X96602057Y-79756000D01*
X96629764Y-80037309D01*
X96711818Y-80307808D01*
X96845068Y-80557101D01*
X97024392Y-80775608D01*
X97242899Y-80954932D01*
X97492192Y-81088182D01*
X97762691Y-81170236D01*
X97973508Y-81191000D01*
X98114492Y-81191000D01*
X98325309Y-81170236D01*
X98595808Y-81088182D01*
X98845101Y-80954932D01*
X99063608Y-80775608D01*
X99185874Y-80626626D01*
X99215363Y-80670759D01*
X99415241Y-80870637D01*
X99650273Y-81027680D01*
X99911426Y-81135853D01*
X100188665Y-81191000D01*
X100471335Y-81191000D01*
X100748574Y-81135853D01*
X101009727Y-81027680D01*
X101244759Y-80870637D01*
X101444637Y-80670759D01*
X101601680Y-80435727D01*
X101709853Y-80174574D01*
X101765000Y-79897335D01*
X101765000Y-79614665D01*
X101709853Y-79337426D01*
X101601680Y-79076273D01*
X101444637Y-78841241D01*
X101244759Y-78641363D01*
X101009727Y-78484320D01*
X100748574Y-78376147D01*
X100471335Y-78321000D01*
X100188665Y-78321000D01*
X99911426Y-78376147D01*
X99650273Y-78484320D01*
X99415241Y-78641363D01*
X99215363Y-78841241D01*
X99185874Y-78885374D01*
X99063608Y-78736392D01*
X98845101Y-78557068D01*
X98595808Y-78423818D01*
X98325309Y-78341764D01*
X98114492Y-78321000D01*
X97973508Y-78321000D01*
X97762691Y-78341764D01*
X97492192Y-78423818D01*
X97242899Y-78557068D01*
X97024392Y-78736392D01*
X96845068Y-78954899D01*
X96711818Y-79204192D01*
X96629764Y-79474691D01*
X96602057Y-79756000D01*
X91859000Y-79756000D01*
X91859000Y-79614665D01*
X91803853Y-79337426D01*
X91695680Y-79076273D01*
X91538637Y-78841241D01*
X91338759Y-78641363D01*
X91103727Y-78484320D01*
X90842574Y-78376147D01*
X90565335Y-78321000D01*
X90282665Y-78321000D01*
X90005426Y-78376147D01*
X89744273Y-78484320D01*
X89509241Y-78641363D01*
X89309363Y-78841241D01*
X89152320Y-79076273D01*
X89044147Y-79337426D01*
X88989000Y-79614665D01*
X88544000Y-79614665D01*
X88544000Y-78130000D01*
X120244000Y-78130000D01*
X120244001Y-105791000D01*
X120244001Y-105791000D01*
G37*
X120244001Y-105791000D02*
X119798163Y-105791000D01*
X119805476Y-105766890D01*
X119684155Y-105537000D01*
X118491000Y-105537000D01*
X118491000Y-105557000D01*
X118237000Y-105557000D01*
X118237000Y-105537000D01*
X117043845Y-105537000D01*
X116922524Y-105766890D01*
X116929837Y-105791000D01*
X112776000Y-105791000D01*
X112751224Y-105793440D01*
X112727399Y-105800667D01*
X112705443Y-105812403D01*
X112686197Y-105828197D01*
X109421394Y-109093000D01*
X91884500Y-109093000D01*
X91884500Y-107556072D01*
X91932000Y-107556072D01*
X92056482Y-107543812D01*
X92176180Y-107507502D01*
X92286494Y-107448537D01*
X92383185Y-107369185D01*
X92462537Y-107272494D01*
X92521502Y-107162180D01*
X92554496Y-107053413D01*
X94976192Y-107053413D01*
X95071956Y-107317814D01*
X95361571Y-107458704D01*
X95673108Y-107540384D01*
X95994595Y-107559718D01*
X96313675Y-107515961D01*
X96618088Y-107410795D01*
X96792044Y-107317814D01*
X96887808Y-107053413D01*
X95932000Y-106097605D01*
X94976192Y-107053413D01*
X92554496Y-107053413D01*
X92557812Y-107042482D01*
X92570072Y-106918000D01*
X92570072Y-105980595D01*
X94290282Y-105980595D01*
X94334039Y-106299675D01*
X94439205Y-106604088D01*
X94532186Y-106778044D01*
X94796587Y-106873808D01*
X95752395Y-105918000D01*
X96111605Y-105918000D01*
X97067413Y-106873808D01*
X97331814Y-106778044D01*
X97472704Y-106488429D01*
X97554384Y-106176892D01*
X97573718Y-105855405D01*
X97529961Y-105536325D01*
X97424795Y-105231912D01*
X97331814Y-105057956D01*
X97067413Y-104962192D01*
X96111605Y-105918000D01*
X95752395Y-105918000D01*
X94796587Y-104962192D01*
X94532186Y-105057956D01*
X94391296Y-105347571D01*
X94309616Y-105659108D01*
X94290282Y-105980595D01*
X92570072Y-105980595D01*
X92570072Y-105880966D01*
X93668451Y-104782587D01*
X94976192Y-104782587D01*
X95932000Y-105738395D01*
X96887808Y-104782587D01*
X96792044Y-104518186D01*
X96502429Y-104377296D01*
X96190892Y-104295616D01*
X95869405Y-104276282D01*
X95550325Y-104320039D01*
X95245912Y-104425205D01*
X95071956Y-104518186D01*
X94976192Y-104782587D01*
X93668451Y-104782587D01*
X96386538Y-102064500D01*
X96778029Y-102064500D01*
X96840129Y-102157439D01*
X97068561Y-102385871D01*
X97337169Y-102565349D01*
X97635630Y-102688975D01*
X97952474Y-102752000D01*
X98275526Y-102752000D01*
X98555309Y-102696347D01*
X99377500Y-103518539D01*
X99377501Y-104458206D01*
X99372892Y-104505000D01*
X99391283Y-104691722D01*
X99445749Y-104871269D01*
X99534194Y-105036740D01*
X99571370Y-105082039D01*
X99653223Y-105181778D01*
X99689564Y-105211602D01*
X101544397Y-107066436D01*
X101574222Y-107102778D01*
X101719259Y-107221806D01*
X101884731Y-107310252D01*
X102038106Y-107356778D01*
X102064277Y-107364717D01*
X102247928Y-107382806D01*
X102247928Y-107680000D01*
X102260188Y-107804482D01*
X102296498Y-107924180D01*
X102355463Y-108034494D01*
X102434815Y-108131185D01*
X102531506Y-108210537D01*
X102641820Y-108269502D01*
X102761518Y-108305812D01*
X102886000Y-108318072D01*
X104886000Y-108318072D01*
X105010482Y-108305812D01*
X105130180Y-108269502D01*
X105240494Y-108210537D01*
X105337185Y-108131185D01*
X105416537Y-108034494D01*
X105475502Y-107924180D01*
X105491037Y-107872967D01*
X105565956Y-108079814D01*
X105855571Y-108220704D01*
X106167108Y-108302384D01*
X106488595Y-108321718D01*
X106807675Y-108277961D01*
X107112088Y-108172795D01*
X107286044Y-108079814D01*
X107381808Y-107815413D01*
X106426000Y-106859605D01*
X106411858Y-106873748D01*
X106232253Y-106694143D01*
X106246395Y-106680000D01*
X106232253Y-106665858D01*
X106411858Y-106486253D01*
X106426000Y-106500395D01*
X106440143Y-106486253D01*
X106619748Y-106665858D01*
X106605605Y-106680000D01*
X107561413Y-107635808D01*
X107623280Y-107613400D01*
X107696013Y-107722252D01*
X107923748Y-107949987D01*
X108191537Y-108128918D01*
X108489088Y-108252168D01*
X108804967Y-108315000D01*
X109127033Y-108315000D01*
X109442912Y-108252168D01*
X109740463Y-108128918D01*
X110008252Y-107949987D01*
X110235987Y-107722252D01*
X110414918Y-107454463D01*
X110538168Y-107156912D01*
X110601000Y-106841033D01*
X110601000Y-106518967D01*
X110538168Y-106203088D01*
X110414918Y-105905537D01*
X110235987Y-105637748D01*
X110008252Y-105410013D01*
X109740463Y-105231082D01*
X109553429Y-105153610D01*
X110622436Y-104084603D01*
X110658778Y-104054778D01*
X110777806Y-103909741D01*
X110866252Y-103744269D01*
X110920717Y-103564723D01*
X110934500Y-103424785D01*
X110934500Y-103424784D01*
X110939108Y-103378001D01*
X110934500Y-103331216D01*
X110934500Y-103144896D01*
X111096637Y-102982759D01*
X111253680Y-102747727D01*
X111361853Y-102486574D01*
X111417000Y-102209335D01*
X111417000Y-102020000D01*
X116875928Y-102020000D01*
X116875928Y-103720000D01*
X116888188Y-103844482D01*
X116924498Y-103964180D01*
X116983463Y-104074494D01*
X117062815Y-104171185D01*
X117159506Y-104250537D01*
X117269820Y-104309502D01*
X117350466Y-104333966D01*
X117266412Y-104409731D01*
X117092359Y-104643080D01*
X116967175Y-104905901D01*
X116922524Y-105053110D01*
X117043845Y-105283000D01*
X118237000Y-105283000D01*
X118237000Y-105263000D01*
X118491000Y-105263000D01*
X118491000Y-105283000D01*
X119684155Y-105283000D01*
X119805476Y-105053110D01*
X119760825Y-104905901D01*
X119635641Y-104643080D01*
X119461588Y-104409731D01*
X119377534Y-104333966D01*
X119458180Y-104309502D01*
X119568494Y-104250537D01*
X119665185Y-104171185D01*
X119744537Y-104074494D01*
X119803502Y-103964180D01*
X119839812Y-103844482D01*
X119852072Y-103720000D01*
X119852072Y-102020000D01*
X119839812Y-101895518D01*
X119803502Y-101775820D01*
X119744537Y-101665506D01*
X119665185Y-101568815D01*
X119568494Y-101489463D01*
X119458180Y-101430498D01*
X119338482Y-101394188D01*
X119214000Y-101381928D01*
X117514000Y-101381928D01*
X117389518Y-101394188D01*
X117269820Y-101430498D01*
X117159506Y-101489463D01*
X117062815Y-101568815D01*
X116983463Y-101665506D01*
X116924498Y-101775820D01*
X116888188Y-101895518D01*
X116875928Y-102020000D01*
X111417000Y-102020000D01*
X111417000Y-101980038D01*
X112162520Y-101234518D01*
X112169363Y-101244759D01*
X112369241Y-101444637D01*
X112604273Y-101601680D01*
X112865426Y-101709853D01*
X113142665Y-101765000D01*
X113425335Y-101765000D01*
X113702574Y-101709853D01*
X113963727Y-101601680D01*
X114198759Y-101444637D01*
X114398637Y-101244759D01*
X114555680Y-101009727D01*
X114663853Y-100748574D01*
X114701223Y-100560702D01*
X115050903Y-100560702D01*
X115122486Y-100804671D01*
X115377996Y-100925571D01*
X115652184Y-100994300D01*
X115934512Y-101008217D01*
X116214130Y-100966787D01*
X116480292Y-100871603D01*
X116605514Y-100804671D01*
X116677097Y-100560702D01*
X115864000Y-99747605D01*
X115050903Y-100560702D01*
X114701223Y-100560702D01*
X114719000Y-100471335D01*
X114719000Y-100336411D01*
X114871298Y-100381097D01*
X115684395Y-99568000D01*
X116043605Y-99568000D01*
X116856702Y-100381097D01*
X117100671Y-100309514D01*
X117114324Y-100280659D01*
X117249363Y-100482759D01*
X117449241Y-100682637D01*
X117684273Y-100839680D01*
X117945426Y-100947853D01*
X118222665Y-101003000D01*
X118505335Y-101003000D01*
X118782574Y-100947853D01*
X119043727Y-100839680D01*
X119278759Y-100682637D01*
X119478637Y-100482759D01*
X119635680Y-100247727D01*
X119743853Y-99986574D01*
X119799000Y-99709335D01*
X119799000Y-99426665D01*
X119743853Y-99149426D01*
X119635680Y-98888273D01*
X119478637Y-98653241D01*
X119278759Y-98453363D01*
X119043727Y-98296320D01*
X118782574Y-98188147D01*
X118505335Y-98133000D01*
X118222665Y-98133000D01*
X117945426Y-98188147D01*
X117684273Y-98296320D01*
X117449241Y-98453363D01*
X117249363Y-98653241D01*
X117115308Y-98853869D01*
X117100671Y-98826486D01*
X116856702Y-98754903D01*
X116043605Y-99568000D01*
X115684395Y-99568000D01*
X114871298Y-98754903D01*
X114627329Y-98826486D01*
X114506429Y-99081996D01*
X114437700Y-99356184D01*
X114432305Y-99465629D01*
X114398637Y-99415241D01*
X114198759Y-99215363D01*
X113963727Y-99058320D01*
X113702574Y-98950147D01*
X113425335Y-98895000D01*
X113142665Y-98895000D01*
X112865426Y-98950147D01*
X112712500Y-99013491D01*
X112712500Y-98946538D01*
X113083740Y-98575298D01*
X115050903Y-98575298D01*
X115864000Y-99388395D01*
X116677097Y-98575298D01*
X116605514Y-98331329D01*
X116350004Y-98210429D01*
X116075816Y-98141700D01*
X115793488Y-98127783D01*
X115513870Y-98169213D01*
X115247708Y-98264397D01*
X115122486Y-98331329D01*
X115050903Y-98575298D01*
X113083740Y-98575298D01*
X114186539Y-97472500D01*
X117287104Y-97472500D01*
X117449241Y-97634637D01*
X117684273Y-97791680D01*
X117945426Y-97899853D01*
X118222665Y-97955000D01*
X118505335Y-97955000D01*
X118782574Y-97899853D01*
X119043727Y-97791680D01*
X119278759Y-97634637D01*
X119478637Y-97434759D01*
X119635680Y-97199727D01*
X119743853Y-96938574D01*
X119799000Y-96661335D01*
X119799000Y-96378665D01*
X119743853Y-96101426D01*
X119635680Y-95840273D01*
X119478637Y-95605241D01*
X119278759Y-95405363D01*
X119043727Y-95248320D01*
X118782574Y-95140147D01*
X118505335Y-95085000D01*
X118222665Y-95085000D01*
X117945426Y-95140147D01*
X117684273Y-95248320D01*
X117449241Y-95405363D01*
X117287104Y-95567500D01*
X113838785Y-95567500D01*
X113792000Y-95562892D01*
X113745215Y-95567500D01*
X113605277Y-95581283D01*
X113425731Y-95635748D01*
X113260259Y-95724194D01*
X113115222Y-95843222D01*
X113085397Y-95879564D01*
X112155878Y-96809084D01*
X112158236Y-96801309D01*
X112185943Y-96520000D01*
X112158236Y-96238691D01*
X112076182Y-95968192D01*
X111942932Y-95718899D01*
X111763608Y-95500392D01*
X111545101Y-95321068D01*
X111295808Y-95187818D01*
X111025309Y-95105764D01*
X110814492Y-95085000D01*
X110673508Y-95085000D01*
X110462691Y-95105764D01*
X110192192Y-95187818D01*
X109942899Y-95321068D01*
X109724392Y-95500392D01*
X109545068Y-95718899D01*
X109411818Y-95968192D01*
X109329764Y-96238691D01*
X109302057Y-96520000D01*
X109329764Y-96801309D01*
X109411818Y-97071808D01*
X109545068Y-97321101D01*
X109724392Y-97539608D01*
X109942899Y-97718932D01*
X110192192Y-97852182D01*
X110462691Y-97934236D01*
X110673508Y-97955000D01*
X110814492Y-97955000D01*
X111025309Y-97934236D01*
X111037935Y-97930406D01*
X110964194Y-98020260D01*
X110875749Y-98185731D01*
X110821283Y-98365278D01*
X110802892Y-98552000D01*
X110804282Y-98566111D01*
X110795097Y-98575296D01*
X110723514Y-98331329D01*
X110468004Y-98210429D01*
X110193816Y-98141700D01*
X109911488Y-98127783D01*
X109631870Y-98169213D01*
X109365708Y-98264397D01*
X109240486Y-98331329D01*
X109168903Y-98575298D01*
X109982000Y-99388395D01*
X109996143Y-99374253D01*
X110175748Y-99553858D01*
X110161605Y-99568000D01*
X110175748Y-99582143D01*
X109996143Y-99761748D01*
X109982000Y-99747605D01*
X109168903Y-100560702D01*
X109240486Y-100804671D01*
X109269341Y-100818324D01*
X109067241Y-100953363D01*
X108867363Y-101153241D01*
X108710320Y-101388273D01*
X108602147Y-101649426D01*
X108547000Y-101926665D01*
X108547000Y-102209335D01*
X108602147Y-102486574D01*
X108710320Y-102747727D01*
X108867363Y-102982759D01*
X108948783Y-103064179D01*
X108317462Y-103695500D01*
X105710785Y-103695500D01*
X105664000Y-103690892D01*
X105617215Y-103695500D01*
X105477277Y-103709283D01*
X105387504Y-103736516D01*
X105297730Y-103763748D01*
X105232903Y-103798399D01*
X105132259Y-103852194D01*
X104987222Y-103971222D01*
X104957398Y-104007563D01*
X103923034Y-105041928D01*
X102886000Y-105041928D01*
X102761518Y-105054188D01*
X102641820Y-105090498D01*
X102531506Y-105149463D01*
X102434815Y-105228815D01*
X102419507Y-105247468D01*
X101282500Y-104110462D01*
X101282500Y-103170784D01*
X101287108Y-103123999D01*
X101268717Y-102937277D01*
X101214252Y-102757731D01*
X101125806Y-102592259D01*
X101006778Y-102447222D01*
X100970436Y-102417397D01*
X99754000Y-101200962D01*
X99754000Y-100950474D01*
X99690975Y-100633630D01*
X99596909Y-100406532D01*
X102064227Y-100406532D01*
X102114916Y-100858434D01*
X102252415Y-101291885D01*
X102471486Y-101690373D01*
X102763784Y-102038721D01*
X103118178Y-102323661D01*
X103521167Y-102534338D01*
X103957402Y-102662729D01*
X104410266Y-102703943D01*
X104862512Y-102656410D01*
X105296911Y-102521941D01*
X105696919Y-102305658D01*
X106047300Y-102015798D01*
X106334706Y-101663402D01*
X106548192Y-101261894D01*
X106679626Y-100826566D01*
X106724000Y-100374000D01*
X106723092Y-100308943D01*
X106666098Y-99857792D01*
X106593154Y-99638512D01*
X108541783Y-99638512D01*
X108583213Y-99918130D01*
X108678397Y-100184292D01*
X108745329Y-100309514D01*
X108989298Y-100381097D01*
X109802395Y-99568000D01*
X108989298Y-98754903D01*
X108745329Y-98826486D01*
X108624429Y-99081996D01*
X108555700Y-99356184D01*
X108541783Y-99638512D01*
X106593154Y-99638512D01*
X106522561Y-99426304D01*
X106297948Y-99030913D01*
X106000814Y-98686680D01*
X105642476Y-98406716D01*
X105236585Y-98201686D01*
X104798600Y-98079398D01*
X104345204Y-98044511D01*
X103893667Y-98098354D01*
X103461187Y-98238875D01*
X103064237Y-98460722D01*
X102717938Y-98755446D01*
X102435480Y-99111820D01*
X102227621Y-99516270D01*
X102102278Y-99953390D01*
X102064227Y-100406532D01*
X99596909Y-100406532D01*
X99567349Y-100335169D01*
X99387871Y-100066561D01*
X99267174Y-99945864D01*
X101986436Y-97226603D01*
X102022778Y-97196778D01*
X102141806Y-97051741D01*
X102230252Y-96886269D01*
X102284717Y-96706723D01*
X102298500Y-96566785D01*
X102298500Y-96566784D01*
X102303108Y-96520001D01*
X102298500Y-96473216D01*
X102298500Y-93518785D01*
X102303108Y-93472000D01*
X102634557Y-93472000D01*
X102662264Y-93753309D01*
X102744318Y-94023808D01*
X102877568Y-94273101D01*
X103056892Y-94491608D01*
X103275399Y-94670932D01*
X103524692Y-94804182D01*
X103795191Y-94886236D01*
X104006008Y-94907000D01*
X104146992Y-94907000D01*
X104357809Y-94886236D01*
X104628308Y-94804182D01*
X104877601Y-94670932D01*
X105096108Y-94491608D01*
X105275432Y-94273101D01*
X105408682Y-94023808D01*
X105490736Y-93753309D01*
X105492243Y-93738000D01*
X106307928Y-93738000D01*
X106307928Y-95238000D01*
X106320188Y-95362482D01*
X106356498Y-95482180D01*
X106415463Y-95592494D01*
X106494815Y-95689185D01*
X106591506Y-95768537D01*
X106701820Y-95827502D01*
X106821518Y-95863812D01*
X106946000Y-95876072D01*
X108446000Y-95876072D01*
X108570482Y-95863812D01*
X108690180Y-95827502D01*
X108800494Y-95768537D01*
X108897185Y-95689185D01*
X108976537Y-95592494D01*
X109035502Y-95482180D01*
X109071812Y-95362482D01*
X109084072Y-95238000D01*
X109084072Y-93738000D01*
X109071812Y-93613518D01*
X109035502Y-93493820D01*
X108976537Y-93383506D01*
X108933172Y-93330665D01*
X109309000Y-93330665D01*
X109309000Y-93613335D01*
X109364147Y-93890574D01*
X109472320Y-94151727D01*
X109629363Y-94386759D01*
X109829241Y-94586637D01*
X110064273Y-94743680D01*
X110325426Y-94851853D01*
X110602665Y-94907000D01*
X110885335Y-94907000D01*
X111162574Y-94851853D01*
X111423727Y-94743680D01*
X111658759Y-94586637D01*
X111858637Y-94386759D01*
X112015680Y-94151727D01*
X112123853Y-93890574D01*
X112137684Y-93821039D01*
X116972096Y-93821039D01*
X117012754Y-93955087D01*
X117132963Y-94209420D01*
X117300481Y-94435414D01*
X117508869Y-94624385D01*
X117750119Y-94769070D01*
X118014960Y-94863909D01*
X118237000Y-94742624D01*
X118237000Y-93599000D01*
X118491000Y-93599000D01*
X118491000Y-94742624D01*
X118713040Y-94863909D01*
X118977881Y-94769070D01*
X119219131Y-94624385D01*
X119427519Y-94435414D01*
X119595037Y-94209420D01*
X119715246Y-93955087D01*
X119755904Y-93821039D01*
X119633915Y-93599000D01*
X118491000Y-93599000D01*
X118237000Y-93599000D01*
X117094085Y-93599000D01*
X116972096Y-93821039D01*
X112137684Y-93821039D01*
X112179000Y-93613335D01*
X112179000Y-93330665D01*
X112137685Y-93122961D01*
X116972096Y-93122961D01*
X117094085Y-93345000D01*
X118237000Y-93345000D01*
X118237000Y-92201376D01*
X118491000Y-92201376D01*
X118491000Y-93345000D01*
X119633915Y-93345000D01*
X119755904Y-93122961D01*
X119715246Y-92988913D01*
X119595037Y-92734580D01*
X119427519Y-92508586D01*
X119219131Y-92319615D01*
X118977881Y-92174930D01*
X118713040Y-92080091D01*
X118491000Y-92201376D01*
X118237000Y-92201376D01*
X118014960Y-92080091D01*
X117750119Y-92174930D01*
X117508869Y-92319615D01*
X117300481Y-92508586D01*
X117132963Y-92734580D01*
X117012754Y-92988913D01*
X116972096Y-93122961D01*
X112137685Y-93122961D01*
X112123853Y-93053426D01*
X112015680Y-92792273D01*
X111858637Y-92557241D01*
X111658759Y-92357363D01*
X111423727Y-92200320D01*
X111162574Y-92092147D01*
X110885335Y-92037000D01*
X110602665Y-92037000D01*
X110325426Y-92092147D01*
X110064273Y-92200320D01*
X109829241Y-92357363D01*
X109629363Y-92557241D01*
X109472320Y-92792273D01*
X109364147Y-93053426D01*
X109309000Y-93330665D01*
X108933172Y-93330665D01*
X108897185Y-93286815D01*
X108800494Y-93207463D01*
X108690180Y-93148498D01*
X108570482Y-93112188D01*
X108446000Y-93099928D01*
X108375155Y-93099928D01*
X108578886Y-92963799D01*
X108771799Y-92770886D01*
X108923371Y-92544043D01*
X109027775Y-92291989D01*
X109081000Y-92024411D01*
X109081000Y-91751589D01*
X109027775Y-91484011D01*
X108923371Y-91231957D01*
X108771799Y-91005114D01*
X108578886Y-90812201D01*
X108352043Y-90660629D01*
X108175345Y-90587439D01*
X108294832Y-90544277D01*
X108407863Y-90483860D01*
X108473388Y-90244993D01*
X107696000Y-89467605D01*
X106918612Y-90244993D01*
X106984137Y-90483860D01*
X107210390Y-90590034D01*
X107039957Y-90660629D01*
X106813114Y-90812201D01*
X106620201Y-91005114D01*
X106468629Y-91231957D01*
X106364225Y-91484011D01*
X106311000Y-91751589D01*
X106311000Y-92024411D01*
X106364225Y-92291989D01*
X106468629Y-92544043D01*
X106620201Y-92770886D01*
X106813114Y-92963799D01*
X107016845Y-93099928D01*
X106946000Y-93099928D01*
X106821518Y-93112188D01*
X106701820Y-93148498D01*
X106591506Y-93207463D01*
X106494815Y-93286815D01*
X106415463Y-93383506D01*
X106356498Y-93493820D01*
X106320188Y-93613518D01*
X106307928Y-93738000D01*
X105492243Y-93738000D01*
X105518443Y-93472000D01*
X105490736Y-93190691D01*
X105408682Y-92920192D01*
X105275432Y-92670899D01*
X105096108Y-92452392D01*
X104877601Y-92273068D01*
X104628308Y-92139818D01*
X104357809Y-92057764D01*
X104146992Y-92037000D01*
X104006008Y-92037000D01*
X103795191Y-92057764D01*
X103524692Y-92139818D01*
X103275399Y-92273068D01*
X103056892Y-92452392D01*
X102877568Y-92670899D01*
X102744318Y-92920192D01*
X102662264Y-93190691D01*
X102634557Y-93472000D01*
X102303108Y-93472000D01*
X102284717Y-93285278D01*
X102230252Y-93105730D01*
X102154388Y-92963799D01*
X102141806Y-92940259D01*
X102022778Y-92795222D01*
X101986436Y-92765397D01*
X99258607Y-90037569D01*
X99228778Y-90001222D01*
X99083741Y-89882194D01*
X98918269Y-89793748D01*
X98738723Y-89739283D01*
X98598785Y-89725500D01*
X98552000Y-89720892D01*
X98505215Y-89725500D01*
X97803538Y-89725500D01*
X101705708Y-85823330D01*
X101744147Y-86016574D01*
X101852320Y-86277727D01*
X102009363Y-86512759D01*
X102209241Y-86712637D01*
X102441759Y-86868000D01*
X102209241Y-87023363D01*
X102009363Y-87223241D01*
X101852320Y-87458273D01*
X101744147Y-87719426D01*
X101689000Y-87996665D01*
X101689000Y-88279335D01*
X101744147Y-88556574D01*
X101852320Y-88817727D01*
X102009363Y-89052759D01*
X102209241Y-89252637D01*
X102441759Y-89408000D01*
X102209241Y-89563363D01*
X102009363Y-89763241D01*
X101852320Y-89998273D01*
X101744147Y-90259426D01*
X101689000Y-90536665D01*
X101689000Y-90819335D01*
X101744147Y-91096574D01*
X101852320Y-91357727D01*
X102009363Y-91592759D01*
X102209241Y-91792637D01*
X102444273Y-91949680D01*
X102705426Y-92057853D01*
X102982665Y-92113000D01*
X103265335Y-92113000D01*
X103542574Y-92057853D01*
X103803727Y-91949680D01*
X104038759Y-91792637D01*
X104238637Y-91592759D01*
X104395680Y-91357727D01*
X104503853Y-91096574D01*
X104559000Y-90819335D01*
X104559000Y-90536665D01*
X104503853Y-90259426D01*
X104395680Y-89998273D01*
X104238637Y-89763241D01*
X104038759Y-89563363D01*
X103806241Y-89408000D01*
X104038759Y-89252637D01*
X104238637Y-89052759D01*
X104395680Y-88817727D01*
X104491253Y-88586993D01*
X105648612Y-88586993D01*
X105714137Y-88825860D01*
X105961116Y-88941760D01*
X106225960Y-89007250D01*
X106337437Y-89012388D01*
X106318750Y-89087960D01*
X106306188Y-89360492D01*
X106347035Y-89630238D01*
X106439723Y-89886832D01*
X106500140Y-89999863D01*
X106739007Y-90065388D01*
X107516395Y-89288000D01*
X107875605Y-89288000D01*
X108652993Y-90065388D01*
X108891860Y-89999863D01*
X109007760Y-89752884D01*
X109073250Y-89488040D01*
X109085812Y-89215508D01*
X109056290Y-89020544D01*
X113707000Y-89020544D01*
X113707000Y-89287456D01*
X113759072Y-89549239D01*
X113861215Y-89795833D01*
X114009503Y-90017762D01*
X114198238Y-90206497D01*
X114420167Y-90354785D01*
X114666761Y-90456928D01*
X114928544Y-90509000D01*
X115195456Y-90509000D01*
X115457239Y-90456928D01*
X115703833Y-90354785D01*
X115925762Y-90206497D01*
X116114497Y-90017762D01*
X116262785Y-89795833D01*
X116364928Y-89549239D01*
X116417000Y-89287456D01*
X116417000Y-89020544D01*
X116364928Y-88758761D01*
X116262785Y-88512167D01*
X116114497Y-88290238D01*
X115925762Y-88101503D01*
X115703833Y-87953215D01*
X115457239Y-87851072D01*
X115195456Y-87799000D01*
X114928544Y-87799000D01*
X114666761Y-87851072D01*
X114420167Y-87953215D01*
X114198238Y-88101503D01*
X114009503Y-88290238D01*
X113861215Y-88512167D01*
X113759072Y-88758761D01*
X113707000Y-89020544D01*
X109056290Y-89020544D01*
X109044965Y-88945762D01*
X108952277Y-88689168D01*
X108891860Y-88576137D01*
X108652993Y-88510612D01*
X107875605Y-89288000D01*
X107516395Y-89288000D01*
X107502253Y-89273858D01*
X107681858Y-89094253D01*
X107696000Y-89108395D01*
X108473388Y-88331007D01*
X108407863Y-88092140D01*
X108160884Y-87976240D01*
X107896040Y-87910750D01*
X107784563Y-87905612D01*
X107803250Y-87830040D01*
X107815812Y-87557508D01*
X107774965Y-87287762D01*
X107682277Y-87031168D01*
X107621860Y-86918137D01*
X107382993Y-86852612D01*
X106605605Y-87630000D01*
X106619748Y-87644143D01*
X106440143Y-87823748D01*
X106426000Y-87809605D01*
X105648612Y-88586993D01*
X104491253Y-88586993D01*
X104503853Y-88556574D01*
X104559000Y-88279335D01*
X104559000Y-87996665D01*
X104503853Y-87719426D01*
X104496839Y-87702492D01*
X105036188Y-87702492D01*
X105077035Y-87972238D01*
X105169723Y-88228832D01*
X105230140Y-88341863D01*
X105469007Y-88407388D01*
X106246395Y-87630000D01*
X105469007Y-86852612D01*
X105230140Y-86918137D01*
X105114240Y-87165116D01*
X105048750Y-87429960D01*
X105036188Y-87702492D01*
X104496839Y-87702492D01*
X104395680Y-87458273D01*
X104238637Y-87223241D01*
X104038759Y-87023363D01*
X103806241Y-86868000D01*
X104038759Y-86712637D01*
X104238637Y-86512759D01*
X104395680Y-86277727D01*
X104503853Y-86016574D01*
X104559000Y-85739335D01*
X104559000Y-85456665D01*
X104503853Y-85179426D01*
X104395680Y-84918273D01*
X104238637Y-84683241D01*
X104038759Y-84483363D01*
X103806241Y-84328000D01*
X104038759Y-84172637D01*
X104238637Y-83972759D01*
X104395680Y-83737727D01*
X104503853Y-83476574D01*
X104559000Y-83199335D01*
X104559000Y-82970038D01*
X105037928Y-82491110D01*
X105037928Y-83300000D01*
X105050188Y-83424482D01*
X105086498Y-83544180D01*
X105145463Y-83654494D01*
X105224815Y-83751185D01*
X105321506Y-83830537D01*
X105431820Y-83889502D01*
X105551518Y-83925812D01*
X105659483Y-83936445D01*
X105543114Y-84014201D01*
X105350201Y-84207114D01*
X105198629Y-84433957D01*
X105094225Y-84686011D01*
X105041000Y-84953589D01*
X105041000Y-85226411D01*
X105094225Y-85493989D01*
X105198629Y-85746043D01*
X105350201Y-85972886D01*
X105543114Y-86165799D01*
X105769957Y-86317371D01*
X105869279Y-86358511D01*
X105827168Y-86373723D01*
X105714137Y-86434140D01*
X105648612Y-86673007D01*
X106426000Y-87450395D01*
X107203388Y-86673007D01*
X107150593Y-86480544D01*
X116247000Y-86480544D01*
X116247000Y-86747456D01*
X116299072Y-87009239D01*
X116401215Y-87255833D01*
X116549503Y-87477762D01*
X116738238Y-87666497D01*
X116960167Y-87814785D01*
X117206761Y-87916928D01*
X117468544Y-87969000D01*
X117735456Y-87969000D01*
X117997239Y-87916928D01*
X118243833Y-87814785D01*
X118465762Y-87666497D01*
X118654497Y-87477762D01*
X118802785Y-87255833D01*
X118904928Y-87009239D01*
X118957000Y-86747456D01*
X118957000Y-86480544D01*
X118904928Y-86218761D01*
X118802785Y-85972167D01*
X118654497Y-85750238D01*
X118465762Y-85561503D01*
X118243833Y-85413215D01*
X117997239Y-85311072D01*
X117735456Y-85259000D01*
X117468544Y-85259000D01*
X117206761Y-85311072D01*
X116960167Y-85413215D01*
X116738238Y-85561503D01*
X116549503Y-85750238D01*
X116401215Y-85972167D01*
X116299072Y-86218761D01*
X116247000Y-86480544D01*
X107150593Y-86480544D01*
X107137863Y-86434140D01*
X106979523Y-86359836D01*
X107082043Y-86317371D01*
X107308886Y-86165799D01*
X107501799Y-85972886D01*
X107653371Y-85746043D01*
X107757775Y-85493989D01*
X107811000Y-85226411D01*
X107811000Y-84953589D01*
X107757775Y-84686011D01*
X107653371Y-84433957D01*
X107501799Y-84207114D01*
X107308886Y-84014201D01*
X107198652Y-83940544D01*
X113707000Y-83940544D01*
X113707000Y-84207456D01*
X113759072Y-84469239D01*
X113861215Y-84715833D01*
X114009503Y-84937762D01*
X114198238Y-85126497D01*
X114420167Y-85274785D01*
X114666761Y-85376928D01*
X114928544Y-85429000D01*
X115195456Y-85429000D01*
X115457239Y-85376928D01*
X115703833Y-85274785D01*
X115925762Y-85126497D01*
X116114497Y-84937762D01*
X116262785Y-84715833D01*
X116364928Y-84469239D01*
X116417000Y-84207456D01*
X116417000Y-83940544D01*
X116364928Y-83678761D01*
X116262785Y-83432167D01*
X116114497Y-83210238D01*
X115925762Y-83021503D01*
X115703833Y-82873215D01*
X115457239Y-82771072D01*
X115195456Y-82719000D01*
X114928544Y-82719000D01*
X114666761Y-82771072D01*
X114420167Y-82873215D01*
X114198238Y-83021503D01*
X114009503Y-83210238D01*
X113861215Y-83432167D01*
X113759072Y-83678761D01*
X113707000Y-83940544D01*
X107198652Y-83940544D01*
X107192517Y-83936445D01*
X107300482Y-83925812D01*
X107420180Y-83889502D01*
X107530494Y-83830537D01*
X107627185Y-83751185D01*
X107706537Y-83654494D01*
X107765502Y-83544180D01*
X107801812Y-83424482D01*
X107814072Y-83300000D01*
X107814072Y-81800000D01*
X107801812Y-81675518D01*
X107765502Y-81555820D01*
X107706537Y-81445506D01*
X107627185Y-81348815D01*
X107530494Y-81269463D01*
X107420180Y-81210498D01*
X107300482Y-81174188D01*
X107176000Y-81161928D01*
X106367111Y-81161928D01*
X106820539Y-80708500D01*
X106875318Y-80708500D01*
X106930392Y-80775608D01*
X107148899Y-80954932D01*
X107398192Y-81088182D01*
X107668691Y-81170236D01*
X107879508Y-81191000D01*
X108020492Y-81191000D01*
X108231309Y-81170236D01*
X108501808Y-81088182D01*
X108751101Y-80954932D01*
X108969608Y-80775608D01*
X109148932Y-80557101D01*
X109282182Y-80307808D01*
X109364236Y-80037309D01*
X109379434Y-79883002D01*
X109474084Y-79883002D01*
X109352096Y-80105039D01*
X109392754Y-80239087D01*
X109512963Y-80493420D01*
X109680481Y-80719414D01*
X109888869Y-80908385D01*
X110130119Y-81053070D01*
X110394960Y-81147909D01*
X110617000Y-81026624D01*
X110617000Y-79883000D01*
X110871000Y-79883000D01*
X110871000Y-81026624D01*
X111093040Y-81147909D01*
X111357881Y-81053070D01*
X111599131Y-80908385D01*
X111807519Y-80719414D01*
X111975037Y-80493420D01*
X112095246Y-80239087D01*
X112135904Y-80105039D01*
X112013915Y-79883000D01*
X110871000Y-79883000D01*
X110617000Y-79883000D01*
X110597000Y-79883000D01*
X110597000Y-79629000D01*
X110617000Y-79629000D01*
X110617000Y-78485376D01*
X110871000Y-78485376D01*
X110871000Y-79629000D01*
X112013915Y-79629000D01*
X112021790Y-79614665D01*
X116929000Y-79614665D01*
X116929000Y-79897335D01*
X116984147Y-80174574D01*
X117092320Y-80435727D01*
X117249363Y-80670759D01*
X117449241Y-80870637D01*
X117684273Y-81027680D01*
X117945426Y-81135853D01*
X118222665Y-81191000D01*
X118505335Y-81191000D01*
X118782574Y-81135853D01*
X119043727Y-81027680D01*
X119278759Y-80870637D01*
X119478637Y-80670759D01*
X119635680Y-80435727D01*
X119743853Y-80174574D01*
X119799000Y-79897335D01*
X119799000Y-79614665D01*
X119743853Y-79337426D01*
X119635680Y-79076273D01*
X119478637Y-78841241D01*
X119278759Y-78641363D01*
X119043727Y-78484320D01*
X118782574Y-78376147D01*
X118505335Y-78321000D01*
X118222665Y-78321000D01*
X117945426Y-78376147D01*
X117684273Y-78484320D01*
X117449241Y-78641363D01*
X117249363Y-78841241D01*
X117092320Y-79076273D01*
X116984147Y-79337426D01*
X116929000Y-79614665D01*
X112021790Y-79614665D01*
X112135904Y-79406961D01*
X112095246Y-79272913D01*
X111975037Y-79018580D01*
X111807519Y-78792586D01*
X111599131Y-78603615D01*
X111357881Y-78458930D01*
X111093040Y-78364091D01*
X110871000Y-78485376D01*
X110617000Y-78485376D01*
X110394960Y-78364091D01*
X110130119Y-78458930D01*
X109888869Y-78603615D01*
X109680481Y-78792586D01*
X109512963Y-79018580D01*
X109392754Y-79272913D01*
X109352096Y-79406961D01*
X109474084Y-79628998D01*
X109379434Y-79628998D01*
X109364236Y-79474691D01*
X109282182Y-79204192D01*
X109148932Y-78954899D01*
X108969608Y-78736392D01*
X108751101Y-78557068D01*
X108501808Y-78423818D01*
X108231309Y-78341764D01*
X108020492Y-78321000D01*
X107879508Y-78321000D01*
X107668691Y-78341764D01*
X107398192Y-78423818D01*
X107148899Y-78557068D01*
X106930392Y-78736392D01*
X106875318Y-78803500D01*
X106472784Y-78803500D01*
X106425999Y-78798892D01*
X106239277Y-78817283D01*
X106059731Y-78871748D01*
X105894259Y-78960194D01*
X105749222Y-79079222D01*
X105719397Y-79115564D01*
X103211962Y-81623000D01*
X102982665Y-81623000D01*
X102705426Y-81678147D01*
X102444273Y-81786320D01*
X102209241Y-81943363D01*
X102009363Y-82143241D01*
X101852320Y-82378273D01*
X101744147Y-82639426D01*
X101689000Y-82916665D01*
X101689000Y-83145962D01*
X96922292Y-87912670D01*
X96883853Y-87719426D01*
X96775680Y-87458273D01*
X96618637Y-87223241D01*
X96418759Y-87023363D01*
X96186241Y-86868000D01*
X96418759Y-86712637D01*
X96618637Y-86512759D01*
X96775680Y-86277727D01*
X96883853Y-86016574D01*
X96939000Y-85739335D01*
X96939000Y-85456665D01*
X96883853Y-85179426D01*
X96775680Y-84918273D01*
X96618637Y-84683241D01*
X96420039Y-84484643D01*
X96428482Y-84483812D01*
X96548180Y-84447502D01*
X96658494Y-84388537D01*
X96755185Y-84309185D01*
X96834537Y-84212494D01*
X96893502Y-84102180D01*
X96929812Y-83982482D01*
X96942072Y-83858000D01*
X96939000Y-83343750D01*
X96780250Y-83185000D01*
X95631000Y-83185000D01*
X95631000Y-83205000D01*
X95377000Y-83205000D01*
X95377000Y-83185000D01*
X94227750Y-83185000D01*
X94069000Y-83343750D01*
X94065928Y-83858000D01*
X94078188Y-83982482D01*
X94114498Y-84102180D01*
X94173463Y-84212494D01*
X94252815Y-84309185D01*
X94349506Y-84388537D01*
X94459820Y-84447502D01*
X94579518Y-84483812D01*
X94587961Y-84484643D01*
X94389363Y-84683241D01*
X94232320Y-84918273D01*
X94124147Y-85179426D01*
X94069000Y-85456665D01*
X94069000Y-85739335D01*
X94124147Y-86016574D01*
X94232320Y-86277727D01*
X94389363Y-86512759D01*
X94589241Y-86712637D01*
X94821759Y-86868000D01*
X94589241Y-87023363D01*
X94389363Y-87223241D01*
X94232320Y-87458273D01*
X94124147Y-87719426D01*
X94069000Y-87996665D01*
X94069000Y-88279335D01*
X94124147Y-88556574D01*
X94232320Y-88817727D01*
X94389363Y-89052759D01*
X94589241Y-89252637D01*
X94821759Y-89408000D01*
X94589241Y-89563363D01*
X94389363Y-89763241D01*
X94232320Y-89998273D01*
X94124147Y-90259426D01*
X94069000Y-90536665D01*
X94069000Y-90819335D01*
X94124147Y-91096574D01*
X94232320Y-91357727D01*
X94389363Y-91592759D01*
X94589241Y-91792637D01*
X94824273Y-91949680D01*
X95085426Y-92057853D01*
X95362665Y-92113000D01*
X95645335Y-92113000D01*
X95922574Y-92057853D01*
X96183727Y-91949680D01*
X96418759Y-91792637D01*
X96580896Y-91630500D01*
X98157462Y-91630500D01*
X100393501Y-93866540D01*
X100393501Y-94772191D01*
X100359439Y-94738129D01*
X100090831Y-94558651D01*
X99792370Y-94435025D01*
X99475526Y-94372000D01*
X99152474Y-94372000D01*
X98835630Y-94435025D01*
X98537169Y-94558651D01*
X98405527Y-94646611D01*
X98422037Y-94626494D01*
X98481002Y-94516180D01*
X98517312Y-94396482D01*
X98529572Y-94272000D01*
X98529572Y-92672000D01*
X98517312Y-92547518D01*
X98481002Y-92427820D01*
X98422037Y-92317506D01*
X98342685Y-92220815D01*
X98245994Y-92141463D01*
X98135680Y-92082498D01*
X98015982Y-92046188D01*
X97891500Y-92033928D01*
X96291500Y-92033928D01*
X96167018Y-92046188D01*
X96047320Y-92082498D01*
X95937006Y-92141463D01*
X95840315Y-92220815D01*
X95760963Y-92317506D01*
X95701998Y-92427820D01*
X95665688Y-92547518D01*
X95653428Y-92672000D01*
X95653428Y-94272000D01*
X95665688Y-94396482D01*
X95701998Y-94516180D01*
X95715285Y-94541038D01*
X95712482Y-94540188D01*
X95588000Y-94527928D01*
X93388000Y-94527928D01*
X93263518Y-94540188D01*
X93143820Y-94576498D01*
X93033506Y-94635463D01*
X92936815Y-94714815D01*
X92857463Y-94811506D01*
X92798498Y-94921820D01*
X92762188Y-95041518D01*
X92749928Y-95166000D01*
X92749928Y-97366000D01*
X92762188Y-97490482D01*
X92798498Y-97610180D01*
X92857463Y-97720494D01*
X92936815Y-97817185D01*
X92981065Y-97853500D01*
X92850539Y-97853500D01*
X91658072Y-96661034D01*
X91658072Y-95924000D01*
X91645812Y-95799518D01*
X91609502Y-95679820D01*
X91550537Y-95569506D01*
X91471185Y-95472815D01*
X91374494Y-95393463D01*
X91264180Y-95334498D01*
X91144482Y-95298188D01*
X91020000Y-95285928D01*
X89320000Y-95285928D01*
X89195518Y-95298188D01*
X89075820Y-95334498D01*
X88965506Y-95393463D01*
X88868815Y-95472815D01*
X88789463Y-95569506D01*
X88730498Y-95679820D01*
X88694188Y-95799518D01*
X88681928Y-95924000D01*
X88681928Y-97624000D01*
X88694188Y-97748482D01*
X88730498Y-97868180D01*
X88789463Y-97978494D01*
X88868815Y-98075185D01*
X88965506Y-98154537D01*
X89075820Y-98213502D01*
X89156466Y-98237966D01*
X89072412Y-98313731D01*
X88898359Y-98547080D01*
X88773175Y-98809901D01*
X88728524Y-98957110D01*
X88849845Y-99187000D01*
X90043000Y-99187000D01*
X90043000Y-99167000D01*
X90297000Y-99167000D01*
X90297000Y-99187000D01*
X90317000Y-99187000D01*
X90317000Y-99441000D01*
X90297000Y-99441000D01*
X90297000Y-100634814D01*
X90526891Y-100755481D01*
X90801252Y-100658157D01*
X91051355Y-100509178D01*
X91267588Y-100314269D01*
X91441641Y-100080920D01*
X91566825Y-99818099D01*
X91611476Y-99670890D01*
X91490156Y-99441002D01*
X91655000Y-99441002D01*
X91655000Y-99352039D01*
X91749397Y-99446436D01*
X91779222Y-99482778D01*
X91924259Y-99601806D01*
X92089731Y-99690252D01*
X92269277Y-99744717D01*
X92456000Y-99763108D01*
X92502785Y-99758500D01*
X93029827Y-99758500D01*
X93038421Y-99774578D01*
X93255234Y-100038766D01*
X93519422Y-100255579D01*
X93820832Y-100416686D01*
X94147881Y-100515895D01*
X94402775Y-100541000D01*
X94573225Y-100541000D01*
X94828119Y-100515895D01*
X95155168Y-100416686D01*
X95456578Y-100255579D01*
X95720766Y-100038766D01*
X95937579Y-99774578D01*
X96098686Y-99473168D01*
X96197895Y-99146119D01*
X96231394Y-98806000D01*
X96197895Y-98465881D01*
X96098686Y-98138832D01*
X95961041Y-97881316D01*
X96039185Y-97817185D01*
X96118537Y-97720494D01*
X96177502Y-97610180D01*
X96213812Y-97490482D01*
X96226072Y-97366000D01*
X96226072Y-97218500D01*
X98201190Y-97218500D01*
X98268561Y-97285871D01*
X98537169Y-97465349D01*
X98835630Y-97588975D01*
X98914332Y-97604630D01*
X97473564Y-99045398D01*
X97437223Y-99075222D01*
X97407399Y-99111563D01*
X97318194Y-99220260D01*
X97229749Y-99385731D01*
X97175283Y-99565278D01*
X97156892Y-99752000D01*
X97159397Y-99777434D01*
X97068561Y-99838129D01*
X96840129Y-100066561D01*
X96778029Y-100159500D01*
X96038785Y-100159500D01*
X95992000Y-100154892D01*
X95945215Y-100159500D01*
X95805277Y-100173283D01*
X95754570Y-100188665D01*
X95625730Y-100227748D01*
X95573662Y-100255579D01*
X95460259Y-100316194D01*
X95315222Y-100435222D01*
X95285393Y-100471569D01*
X91477034Y-104279928D01*
X89932000Y-104279928D01*
X89807518Y-104292188D01*
X89687820Y-104328498D01*
X89577506Y-104387463D01*
X89480815Y-104466815D01*
X89401463Y-104563506D01*
X89342498Y-104673820D01*
X89306188Y-104793518D01*
X89293928Y-104918000D01*
X89293928Y-106844476D01*
X88544000Y-106844476D01*
X88544000Y-99670890D01*
X88728524Y-99670890D01*
X88773175Y-99818099D01*
X88898359Y-100080920D01*
X89072412Y-100314269D01*
X89288645Y-100509178D01*
X89538748Y-100658157D01*
X89813109Y-100755481D01*
X90043000Y-100634814D01*
X90043000Y-99441000D01*
X88849845Y-99441000D01*
X88728524Y-99670890D01*
X88544000Y-99670890D01*
X88544000Y-94193413D01*
X90230192Y-94193413D01*
X90325956Y-94457814D01*
X90615571Y-94598704D01*
X90927108Y-94680384D01*
X91248595Y-94699718D01*
X91567675Y-94655961D01*
X91872088Y-94550795D01*
X92046044Y-94457814D01*
X92141808Y-94193413D01*
X91186000Y-93237605D01*
X90230192Y-94193413D01*
X88544000Y-94193413D01*
X88544000Y-93120595D01*
X89544282Y-93120595D01*
X89588039Y-93439675D01*
X89693205Y-93744088D01*
X89786186Y-93918044D01*
X90050587Y-94013808D01*
X91006395Y-93058000D01*
X91365605Y-93058000D01*
X92321413Y-94013808D01*
X92585814Y-93918044D01*
X92726704Y-93628429D01*
X92808384Y-93316892D01*
X92827718Y-92995405D01*
X92783961Y-92676325D01*
X92678795Y-92371912D01*
X92585814Y-92197956D01*
X92321413Y-92102192D01*
X91365605Y-93058000D01*
X91006395Y-93058000D01*
X90050587Y-92102192D01*
X89786186Y-92197956D01*
X89645296Y-92487571D01*
X89563616Y-92799108D01*
X89544282Y-93120595D01*
X88544000Y-93120595D01*
X88544000Y-91922587D01*
X90230192Y-91922587D01*
X91186000Y-92878395D01*
X92141808Y-91922587D01*
X92046044Y-91658186D01*
X91756429Y-91517296D01*
X91444892Y-91435616D01*
X91123405Y-91416282D01*
X90804325Y-91460039D01*
X90499912Y-91565205D01*
X90325956Y-91658186D01*
X90230192Y-91922587D01*
X88544000Y-91922587D01*
X88544000Y-82896967D01*
X89551000Y-82896967D01*
X89551000Y-83219033D01*
X89613832Y-83534912D01*
X89737082Y-83832463D01*
X89916013Y-84100252D01*
X90143748Y-84327987D01*
X90411537Y-84506918D01*
X90709088Y-84630168D01*
X91024967Y-84693000D01*
X91347033Y-84693000D01*
X91662912Y-84630168D01*
X91960463Y-84506918D01*
X92228252Y-84327987D01*
X92455987Y-84100252D01*
X92634918Y-83832463D01*
X92758168Y-83534912D01*
X92821000Y-83219033D01*
X92821000Y-82896967D01*
X92758168Y-82581088D01*
X92634918Y-82283537D01*
X92617855Y-82258000D01*
X94065928Y-82258000D01*
X94069000Y-82772250D01*
X94227750Y-82931000D01*
X95377000Y-82931000D01*
X95377000Y-81781750D01*
X95631000Y-81781750D01*
X95631000Y-82931000D01*
X96780250Y-82931000D01*
X96939000Y-82772250D01*
X96942072Y-82258000D01*
X96929812Y-82133518D01*
X96893502Y-82013820D01*
X96834537Y-81903506D01*
X96755185Y-81806815D01*
X96658494Y-81727463D01*
X96548180Y-81668498D01*
X96428482Y-81632188D01*
X96304000Y-81619928D01*
X95789750Y-81623000D01*
X95631000Y-81781750D01*
X95377000Y-81781750D01*
X95218250Y-81623000D01*
X94704000Y-81619928D01*
X94579518Y-81632188D01*
X94459820Y-81668498D01*
X94349506Y-81727463D01*
X94252815Y-81806815D01*
X94173463Y-81903506D01*
X94114498Y-82013820D01*
X94078188Y-82133518D01*
X94065928Y-82258000D01*
X92617855Y-82258000D01*
X92455987Y-82015748D01*
X92228252Y-81788013D01*
X91960463Y-81609082D01*
X91662912Y-81485832D01*
X91347033Y-81423000D01*
X91024967Y-81423000D01*
X90709088Y-81485832D01*
X90411537Y-81609082D01*
X90143748Y-81788013D01*
X89916013Y-82015748D01*
X89737082Y-82283537D01*
X89613832Y-82581088D01*
X89551000Y-82896967D01*
X88544000Y-82896967D01*
X88544000Y-79614665D01*
X88989000Y-79614665D01*
X88989000Y-79897335D01*
X89044147Y-80174574D01*
X89152320Y-80435727D01*
X89309363Y-80670759D01*
X89509241Y-80870637D01*
X89744273Y-81027680D01*
X90005426Y-81135853D01*
X90282665Y-81191000D01*
X90565335Y-81191000D01*
X90842574Y-81135853D01*
X91103727Y-81027680D01*
X91338759Y-80870637D01*
X91538637Y-80670759D01*
X91695680Y-80435727D01*
X91803853Y-80174574D01*
X91859000Y-79897335D01*
X91859000Y-79756000D01*
X96602057Y-79756000D01*
X96629764Y-80037309D01*
X96711818Y-80307808D01*
X96845068Y-80557101D01*
X97024392Y-80775608D01*
X97242899Y-80954932D01*
X97492192Y-81088182D01*
X97762691Y-81170236D01*
X97973508Y-81191000D01*
X98114492Y-81191000D01*
X98325309Y-81170236D01*
X98595808Y-81088182D01*
X98845101Y-80954932D01*
X99063608Y-80775608D01*
X99185874Y-80626626D01*
X99215363Y-80670759D01*
X99415241Y-80870637D01*
X99650273Y-81027680D01*
X99911426Y-81135853D01*
X100188665Y-81191000D01*
X100471335Y-81191000D01*
X100748574Y-81135853D01*
X101009727Y-81027680D01*
X101244759Y-80870637D01*
X101444637Y-80670759D01*
X101601680Y-80435727D01*
X101709853Y-80174574D01*
X101765000Y-79897335D01*
X101765000Y-79614665D01*
X101709853Y-79337426D01*
X101601680Y-79076273D01*
X101444637Y-78841241D01*
X101244759Y-78641363D01*
X101009727Y-78484320D01*
X100748574Y-78376147D01*
X100471335Y-78321000D01*
X100188665Y-78321000D01*
X99911426Y-78376147D01*
X99650273Y-78484320D01*
X99415241Y-78641363D01*
X99215363Y-78841241D01*
X99185874Y-78885374D01*
X99063608Y-78736392D01*
X98845101Y-78557068D01*
X98595808Y-78423818D01*
X98325309Y-78341764D01*
X98114492Y-78321000D01*
X97973508Y-78321000D01*
X97762691Y-78341764D01*
X97492192Y-78423818D01*
X97242899Y-78557068D01*
X97024392Y-78736392D01*
X96845068Y-78954899D01*
X96711818Y-79204192D01*
X96629764Y-79474691D01*
X96602057Y-79756000D01*
X91859000Y-79756000D01*
X91859000Y-79614665D01*
X91803853Y-79337426D01*
X91695680Y-79076273D01*
X91538637Y-78841241D01*
X91338759Y-78641363D01*
X91103727Y-78484320D01*
X90842574Y-78376147D01*
X90565335Y-78321000D01*
X90282665Y-78321000D01*
X90005426Y-78376147D01*
X89744273Y-78484320D01*
X89509241Y-78641363D01*
X89309363Y-78841241D01*
X89152320Y-79076273D01*
X89044147Y-79337426D01*
X88989000Y-79614665D01*
X88544000Y-79614665D01*
X88544000Y-78130000D01*
X120244000Y-78130000D01*
X120244001Y-105791000D01*
M02*
