G04 #@! TF.GenerationSoftware,KiCad,Pcbnew,(5.1.0)-1*
G04 #@! TF.CreationDate,2021-08-10T01:44:35-05:00*
G04 #@! TF.ProjectId,nixie_legacy-demux,6e697869-655f-46c6-9567-6163792d6465,rev?*
G04 #@! TF.SameCoordinates,Original*
G04 #@! TF.FileFunction,Copper,L1,Top*
G04 #@! TF.FilePolarity,Positive*
%FSLAX46Y46*%
G04 Gerber Fmt 4.6, Leading zero omitted, Abs format (unit mm)*
G04 Created by KiCad (PCBNEW (5.1.0)-1) date 2021-08-10 01:44:35*
%MOMM*%
%LPD*%
G04 APERTURE LIST*
%ADD10R,1.300000X0.800000*%
%ADD11C,1.524000*%
%ADD12O,1.524000X2.199640*%
%ADD13R,1.524000X2.199640*%
%ADD14C,1.500000*%
%ADD15R,1.500000X1.500000*%
%ADD16O,2.400000X1.600000*%
%ADD17R,2.400000X1.600000*%
%ADD18R,1.700000X1.700000*%
%ADD19O,1.700000X1.700000*%
%ADD20O,1.600000X1.600000*%
%ADD21R,1.600000X1.600000*%
%ADD22C,1.600000*%
%ADD23C,0.381000*%
%ADD24C,0.254000*%
%ADD25C,0.635000*%
G04 APERTURE END LIST*
D10*
X125476000Y-137160000D03*
X125476000Y-138440000D03*
X125476000Y-139700000D03*
X125476000Y-140970000D03*
X125476000Y-142250000D03*
X125476000Y-143520000D03*
X125476000Y-144780000D03*
X119176000Y-144780000D03*
X119176000Y-143520000D03*
X119176000Y-142250000D03*
X119176000Y-140970000D03*
X119176000Y-139700000D03*
X119176000Y-138440000D03*
X119176000Y-137160000D03*
D11*
X132588000Y-140208000D03*
D12*
X131318000Y-150114000D03*
X133858000Y-150114000D03*
D13*
X136398000Y-150114000D03*
D14*
X131064000Y-60198000D03*
X133604000Y-60198000D03*
D15*
X128524000Y-60198000D03*
D14*
X122936000Y-60198000D03*
X125476000Y-60198000D03*
D15*
X120396000Y-60198000D03*
D14*
X114808000Y-60198000D03*
X117348000Y-60198000D03*
D15*
X112268000Y-60198000D03*
D14*
X133604000Y-64770000D03*
X131064000Y-64770000D03*
D15*
X136144000Y-64770000D03*
X128016000Y-64770000D03*
D14*
X122936000Y-64770000D03*
X125476000Y-64770000D03*
X117348000Y-64770000D03*
X114808000Y-64770000D03*
D15*
X119888000Y-64770000D03*
X114808000Y-82296000D03*
D14*
X109728000Y-82296000D03*
X112268000Y-82296000D03*
D15*
X122174000Y-82296000D03*
D14*
X117094000Y-82296000D03*
X119634000Y-82296000D03*
D15*
X129540000Y-82296000D03*
D14*
X124460000Y-82296000D03*
X127000000Y-82296000D03*
D16*
X128778000Y-118110000D03*
X136398000Y-100330000D03*
X128778000Y-115570000D03*
X136398000Y-102870000D03*
X128778000Y-113030000D03*
X136398000Y-105410000D03*
X128778000Y-110490000D03*
X136398000Y-107950000D03*
X128778000Y-107950000D03*
X136398000Y-110490000D03*
X128778000Y-105410000D03*
X136398000Y-113030000D03*
X128778000Y-102870000D03*
X136398000Y-115570000D03*
X128778000Y-100330000D03*
D17*
X136398000Y-118110000D03*
D18*
X133858000Y-90424000D03*
D19*
X136398000Y-90424000D03*
X133858000Y-87884000D03*
X136398000Y-87884000D03*
X133858000Y-85344000D03*
X136398000Y-85344000D03*
X133858000Y-82804000D03*
X136398000Y-82804000D03*
X133858000Y-80264000D03*
X136398000Y-80264000D03*
X133858000Y-77724000D03*
X136398000Y-77724000D03*
X133858000Y-75184000D03*
X136398000Y-75184000D03*
X133858000Y-72644000D03*
X136398000Y-72644000D03*
D20*
X113284000Y-69342000D03*
X115824000Y-69342000D03*
X118364000Y-69342000D03*
X120904000Y-69342000D03*
X123444000Y-69342000D03*
X125984000Y-69342000D03*
D21*
X128524000Y-69342000D03*
D22*
X116332000Y-72644000D03*
D20*
X108712000Y-72644000D03*
D15*
X120904000Y-86614000D03*
D14*
X125984000Y-86614000D03*
X123444000Y-86614000D03*
D15*
X113538000Y-86614000D03*
D14*
X118618000Y-86614000D03*
X116078000Y-86614000D03*
D15*
X106172000Y-86614000D03*
D14*
X111252000Y-86614000D03*
X108712000Y-86614000D03*
D22*
X120904000Y-72644000D03*
D20*
X128524000Y-72644000D03*
D22*
X120904000Y-75692000D03*
D20*
X128524000Y-75692000D03*
D14*
X123698000Y-111252000D03*
X123698000Y-116152000D03*
D16*
X136398000Y-122428000D03*
X128778000Y-145288000D03*
X136398000Y-124968000D03*
X128778000Y-142748000D03*
X136398000Y-127508000D03*
X128778000Y-140208000D03*
X136398000Y-130048000D03*
X128778000Y-137668000D03*
X136398000Y-132588000D03*
X128778000Y-135128000D03*
X136398000Y-135128000D03*
X128778000Y-132588000D03*
X136398000Y-137668000D03*
X128778000Y-130048000D03*
X136398000Y-140208000D03*
X128778000Y-127508000D03*
X136398000Y-142748000D03*
X128778000Y-124968000D03*
X136398000Y-145288000D03*
D17*
X128778000Y-122428000D03*
D16*
X110998000Y-134112000D03*
X118618000Y-101092000D03*
X110998000Y-131572000D03*
X118618000Y-103632000D03*
X110998000Y-129032000D03*
X118618000Y-106172000D03*
X110998000Y-126492000D03*
X118618000Y-108712000D03*
X110998000Y-123952000D03*
X118618000Y-111252000D03*
X110998000Y-121412000D03*
X118618000Y-113792000D03*
X110998000Y-118872000D03*
X118618000Y-116332000D03*
X110998000Y-116332000D03*
X118618000Y-118872000D03*
X110998000Y-113792000D03*
X118618000Y-121412000D03*
X110998000Y-111252000D03*
X118618000Y-123952000D03*
X110998000Y-108712000D03*
X118618000Y-126492000D03*
X110998000Y-106172000D03*
X118618000Y-129032000D03*
X110998000Y-103632000D03*
X118618000Y-131572000D03*
X110998000Y-101092000D03*
D17*
X118618000Y-134112000D03*
D20*
X109220000Y-140462000D03*
D22*
X116840000Y-140462000D03*
D20*
X109220000Y-137414000D03*
D22*
X116840000Y-137414000D03*
D20*
X107188000Y-96774000D03*
D22*
X114808000Y-96774000D03*
D20*
X118618000Y-90678000D03*
D22*
X126238000Y-90678000D03*
D20*
X107188000Y-93726000D03*
D22*
X114808000Y-93726000D03*
D20*
X118618000Y-93726000D03*
D22*
X126238000Y-93726000D03*
D20*
X107188000Y-90678000D03*
D22*
X114808000Y-90678000D03*
D20*
X118618000Y-96774000D03*
D22*
X126238000Y-96774000D03*
X120904000Y-78740000D03*
D20*
X128524000Y-78740000D03*
D22*
X116332000Y-75692000D03*
D20*
X108712000Y-75692000D03*
D22*
X116332000Y-78740000D03*
D20*
X108712000Y-78740000D03*
X122428000Y-134112000D03*
D22*
X122428000Y-126492000D03*
D19*
X126238000Y-150114000D03*
X123698000Y-150114000D03*
X121158000Y-150114000D03*
D18*
X118618000Y-150114000D03*
D22*
X122468000Y-106172000D03*
X124968000Y-106172000D03*
X122468000Y-121412000D03*
X124968000Y-121412000D03*
D23*
X128524000Y-70523000D02*
X128524000Y-69342000D01*
X130920865Y-72919865D02*
X128524000Y-70523000D01*
X130920865Y-94377135D02*
X130920865Y-72919865D01*
X126238000Y-99060000D02*
X130920865Y-94377135D01*
X109474000Y-99060000D02*
X126238000Y-99060000D01*
X106680000Y-101854000D02*
X109474000Y-99060000D01*
X106680000Y-140462000D02*
X106680000Y-101854000D01*
X131318000Y-150114000D02*
X129032000Y-150114000D01*
X126746000Y-147828000D02*
X116840000Y-147828000D01*
X116840000Y-147828000D02*
X111252000Y-142240000D01*
X129032000Y-150114000D02*
X126746000Y-147828000D01*
X111252000Y-142240000D02*
X108458000Y-142240000D01*
X108458000Y-142240000D02*
X106680000Y-140462000D01*
X118872000Y-58674000D02*
X120396000Y-60198000D01*
X112268000Y-60198000D02*
X113792000Y-58674000D01*
X113792000Y-58674000D02*
X118872000Y-58674000D01*
X127000000Y-58674000D02*
X128524000Y-60198000D01*
X120396000Y-60198000D02*
X121920000Y-58674000D01*
X121920000Y-58674000D02*
X127000000Y-58674000D01*
X129540000Y-63246000D02*
X128016000Y-64770000D01*
X136144000Y-64770000D02*
X134620000Y-63246000D01*
X134620000Y-63246000D02*
X129540000Y-63246000D01*
X112268000Y-61329000D02*
X112268000Y-60198000D01*
X112268000Y-64516000D02*
X112268000Y-61329000D01*
X114046000Y-66294000D02*
X112268000Y-64516000D01*
X118288818Y-66294000D02*
X114046000Y-66294000D01*
X119888000Y-64770000D02*
X119812818Y-64770000D01*
X119812818Y-64770000D02*
X118288818Y-66294000D01*
X122428000Y-67310000D02*
X119888000Y-64770000D01*
X127673000Y-67310000D02*
X122428000Y-67310000D01*
X128524000Y-69342000D02*
X128524000Y-68161000D01*
X128524000Y-68161000D02*
X127673000Y-67310000D01*
X126492000Y-63246000D02*
X128016000Y-64770000D01*
X119888000Y-64770000D02*
X121412000Y-63246000D01*
X121412000Y-63246000D02*
X126492000Y-63246000D01*
D24*
X137247999Y-81113999D02*
X136398000Y-80264000D01*
X130810000Y-113538000D02*
X130810000Y-112040066D01*
X128778000Y-115570000D02*
X130810000Y-113538000D01*
X130810000Y-112040066D02*
X134620000Y-108230066D01*
X134620000Y-108230066D02*
X134620000Y-99314000D01*
X134620000Y-99314000D02*
X138176000Y-95758000D01*
X138176000Y-82042000D02*
X137247999Y-81113999D01*
X138176000Y-95758000D02*
X138176000Y-82042000D01*
X137668000Y-86614000D02*
X136398000Y-85344000D01*
X137668000Y-95487936D02*
X137668000Y-86614000D01*
X134112000Y-99043936D02*
X137668000Y-95487936D01*
X134112000Y-108096000D02*
X134112000Y-99043936D01*
X128778000Y-113030000D02*
X129178000Y-113030000D01*
X129178000Y-113030000D02*
X134112000Y-108096000D01*
D25*
X118218000Y-118872000D02*
X113138000Y-113792000D01*
X118218000Y-118872000D02*
X118618000Y-118872000D01*
X113138000Y-113792000D02*
X110998000Y-113792000D01*
D23*
X111398000Y-116332000D02*
X110998000Y-116332000D01*
D25*
X136398000Y-122428000D02*
X136144000Y-122428000D01*
X136398000Y-122428000D02*
X135998000Y-122428000D01*
X136798000Y-107950000D02*
X136398000Y-107950000D01*
X138430000Y-109582000D02*
X136798000Y-107950000D01*
X136398000Y-122428000D02*
X138430000Y-120396000D01*
X138430000Y-120396000D02*
X138430000Y-109582000D01*
X119018000Y-118872000D02*
X118618000Y-118872000D01*
D24*
X120650000Y-124714000D02*
X122428000Y-126492000D01*
X118618000Y-118872000D02*
X120650000Y-120904000D01*
X120650000Y-120904000D02*
X120650000Y-124714000D01*
D25*
X126238000Y-118872000D02*
X118618000Y-118872000D01*
X135998000Y-107950000D02*
X133096000Y-110852000D01*
X136398000Y-107950000D02*
X135998000Y-107950000D01*
X133096000Y-110852000D02*
X133096000Y-117094000D01*
X133096000Y-117094000D02*
X130095501Y-120094499D01*
X130095501Y-120094499D02*
X127460499Y-120094499D01*
X127460499Y-120094499D02*
X126238000Y-118872000D01*
X136798000Y-122428000D02*
X136398000Y-122428000D01*
X138430000Y-124060000D02*
X136798000Y-122428000D01*
X138430000Y-147828000D02*
X138430000Y-124060000D01*
X136398000Y-150114000D02*
X136398000Y-149860000D01*
X136398000Y-149860000D02*
X138430000Y-147828000D01*
D23*
X118145000Y-143520000D02*
X119176000Y-143520000D01*
X116840000Y-142215000D02*
X118145000Y-143520000D01*
X116840000Y-140462000D02*
X116840000Y-142215000D01*
D24*
X135998000Y-110490000D02*
X136398000Y-110490000D01*
X134112000Y-112376000D02*
X135998000Y-110490000D01*
X134112000Y-135782000D02*
X134112000Y-112376000D01*
X136398000Y-137668000D02*
X135998000Y-137668000D01*
X135998000Y-137668000D02*
X134112000Y-135782000D01*
X135998000Y-130048000D02*
X136398000Y-130048000D01*
X134620000Y-128670000D02*
X135998000Y-130048000D01*
X134620000Y-114408000D02*
X134620000Y-128670000D01*
X136398000Y-113030000D02*
X135998000Y-113030000D01*
X135998000Y-113030000D02*
X134620000Y-114408000D01*
X135128000Y-89154000D02*
X136398000Y-87884000D01*
X135128000Y-96920000D02*
X135128000Y-89154000D01*
X128778000Y-102870000D02*
X129178000Y-102870000D01*
X129178000Y-102870000D02*
X135128000Y-96920000D01*
D23*
X133858000Y-75184000D02*
X132334627Y-73660627D01*
X131813999Y-65519999D02*
X131064000Y-64770000D01*
X132334627Y-66040627D02*
X131813999Y-65519999D01*
X132334627Y-73660627D02*
X132334627Y-66040627D01*
X117602000Y-61976000D02*
X114808000Y-64770000D01*
X136906000Y-61976000D02*
X117602000Y-61976000D01*
X137922000Y-62992000D02*
X136906000Y-61976000D01*
X136398000Y-77724000D02*
X137922000Y-76200000D01*
X137922000Y-76200000D02*
X137922000Y-62992000D01*
X123685999Y-65519999D02*
X122936000Y-64770000D01*
X124460000Y-66294000D02*
X123685999Y-65519999D01*
X128778000Y-66294000D02*
X124460000Y-66294000D01*
X131572000Y-69088000D02*
X128778000Y-66294000D01*
X133858000Y-77724000D02*
X131572000Y-75438000D01*
X131572000Y-75438000D02*
X131572000Y-69088000D01*
D24*
X115316000Y-135890000D02*
X110998000Y-131572000D01*
X121920000Y-135890000D02*
X115316000Y-135890000D01*
X125476000Y-138440000D02*
X124470000Y-138440000D01*
X124470000Y-138440000D02*
X121920000Y-135890000D01*
X119018000Y-126492000D02*
X118618000Y-126492000D01*
X126746000Y-134220000D02*
X119018000Y-126492000D01*
X126746000Y-141986000D02*
X126746000Y-134220000D01*
X125476000Y-142250000D02*
X126482000Y-142250000D01*
X126482000Y-142250000D02*
X126746000Y-141986000D01*
X118272000Y-138440000D02*
X117774000Y-138938000D01*
X119176000Y-138440000D02*
X118272000Y-138440000D01*
X111398000Y-134112000D02*
X110998000Y-134112000D01*
X116224000Y-138938000D02*
X111398000Y-134112000D01*
X117774000Y-138938000D02*
X116224000Y-138938000D01*
G36*
X113205459Y-58087459D02*
G01*
X113179606Y-58118961D01*
X112488639Y-58809928D01*
X111518000Y-58809928D01*
X111393518Y-58822188D01*
X111273820Y-58858498D01*
X111163506Y-58917463D01*
X111066815Y-58996815D01*
X110987463Y-59093506D01*
X110928498Y-59203820D01*
X110892188Y-59323518D01*
X110879928Y-59448000D01*
X110879928Y-60948000D01*
X110892188Y-61072482D01*
X110928498Y-61192180D01*
X110987463Y-61302494D01*
X111066815Y-61399185D01*
X111163506Y-61478537D01*
X111273820Y-61537502D01*
X111393518Y-61573812D01*
X111442501Y-61578636D01*
X111442500Y-64475449D01*
X111438506Y-64516000D01*
X111442500Y-64556550D01*
X111442500Y-64556552D01*
X111454444Y-64677825D01*
X111477444Y-64753646D01*
X111501647Y-64833433D01*
X111578301Y-64976842D01*
X111605659Y-65010177D01*
X111681459Y-65102541D01*
X111712966Y-65128398D01*
X113433611Y-66849045D01*
X113459459Y-66880541D01*
X113490955Y-66906389D01*
X113490958Y-66906392D01*
X113585157Y-66983699D01*
X113728566Y-67060353D01*
X113884174Y-67107556D01*
X114005447Y-67119500D01*
X114005449Y-67119500D01*
X114046000Y-67123494D01*
X114086550Y-67119500D01*
X118248268Y-67119500D01*
X118288818Y-67123494D01*
X118329368Y-67119500D01*
X118329371Y-67119500D01*
X118450644Y-67107556D01*
X118606252Y-67060353D01*
X118749660Y-66983699D01*
X118875359Y-66880541D01*
X118901216Y-66849034D01*
X119592178Y-66158072D01*
X120108640Y-66158072D01*
X121815606Y-67865039D01*
X121841459Y-67896541D01*
X121879505Y-67927764D01*
X121967156Y-67999698D01*
X121967158Y-67999699D01*
X122110566Y-68076353D01*
X122266174Y-68123556D01*
X122387447Y-68135500D01*
X122387456Y-68135500D01*
X122427999Y-68139493D01*
X122468542Y-68135500D01*
X122657058Y-68135500D01*
X122642899Y-68143068D01*
X122424392Y-68322392D01*
X122245068Y-68540899D01*
X122174000Y-68673858D01*
X122102932Y-68540899D01*
X121923608Y-68322392D01*
X121705101Y-68143068D01*
X121455808Y-68009818D01*
X121185309Y-67927764D01*
X120974492Y-67907000D01*
X120833508Y-67907000D01*
X120622691Y-67927764D01*
X120352192Y-68009818D01*
X120102899Y-68143068D01*
X119884392Y-68322392D01*
X119705068Y-68540899D01*
X119634000Y-68673858D01*
X119562932Y-68540899D01*
X119383608Y-68322392D01*
X119165101Y-68143068D01*
X118915808Y-68009818D01*
X118645309Y-67927764D01*
X118434492Y-67907000D01*
X118293508Y-67907000D01*
X118082691Y-67927764D01*
X117812192Y-68009818D01*
X117562899Y-68143068D01*
X117344392Y-68322392D01*
X117165068Y-68540899D01*
X117094000Y-68673858D01*
X117022932Y-68540899D01*
X116843608Y-68322392D01*
X116625101Y-68143068D01*
X116375808Y-68009818D01*
X116105309Y-67927764D01*
X115894492Y-67907000D01*
X115753508Y-67907000D01*
X115542691Y-67927764D01*
X115272192Y-68009818D01*
X115022899Y-68143068D01*
X114804392Y-68322392D01*
X114625068Y-68540899D01*
X114554000Y-68673858D01*
X114482932Y-68540899D01*
X114303608Y-68322392D01*
X114085101Y-68143068D01*
X113835808Y-68009818D01*
X113565309Y-67927764D01*
X113354492Y-67907000D01*
X113213508Y-67907000D01*
X113002691Y-67927764D01*
X112732192Y-68009818D01*
X112482899Y-68143068D01*
X112264392Y-68322392D01*
X112085068Y-68540899D01*
X111951818Y-68790192D01*
X111869764Y-69060691D01*
X111842057Y-69342000D01*
X111869764Y-69623309D01*
X111951818Y-69893808D01*
X112085068Y-70143101D01*
X112264392Y-70361608D01*
X112482899Y-70540932D01*
X112732192Y-70674182D01*
X113002691Y-70756236D01*
X113213508Y-70777000D01*
X113354492Y-70777000D01*
X113565309Y-70756236D01*
X113835808Y-70674182D01*
X114085101Y-70540932D01*
X114303608Y-70361608D01*
X114482932Y-70143101D01*
X114554000Y-70010142D01*
X114625068Y-70143101D01*
X114804392Y-70361608D01*
X115022899Y-70540932D01*
X115272192Y-70674182D01*
X115542691Y-70756236D01*
X115753508Y-70777000D01*
X115894492Y-70777000D01*
X116105309Y-70756236D01*
X116375808Y-70674182D01*
X116625101Y-70540932D01*
X116843608Y-70361608D01*
X117022932Y-70143101D01*
X117094000Y-70010142D01*
X117165068Y-70143101D01*
X117344392Y-70361608D01*
X117562899Y-70540932D01*
X117812192Y-70674182D01*
X118082691Y-70756236D01*
X118293508Y-70777000D01*
X118434492Y-70777000D01*
X118645309Y-70756236D01*
X118915808Y-70674182D01*
X119165101Y-70540932D01*
X119383608Y-70361608D01*
X119562932Y-70143101D01*
X119634000Y-70010142D01*
X119705068Y-70143101D01*
X119884392Y-70361608D01*
X120102899Y-70540932D01*
X120352192Y-70674182D01*
X120622691Y-70756236D01*
X120833508Y-70777000D01*
X120974492Y-70777000D01*
X121185309Y-70756236D01*
X121455808Y-70674182D01*
X121705101Y-70540932D01*
X121923608Y-70361608D01*
X122102932Y-70143101D01*
X122174000Y-70010142D01*
X122245068Y-70143101D01*
X122424392Y-70361608D01*
X122642899Y-70540932D01*
X122892192Y-70674182D01*
X123162691Y-70756236D01*
X123373508Y-70777000D01*
X123514492Y-70777000D01*
X123725309Y-70756236D01*
X123995808Y-70674182D01*
X124245101Y-70540932D01*
X124463608Y-70361608D01*
X124642932Y-70143101D01*
X124714000Y-70010142D01*
X124785068Y-70143101D01*
X124964392Y-70361608D01*
X125182899Y-70540932D01*
X125432192Y-70674182D01*
X125702691Y-70756236D01*
X125913508Y-70777000D01*
X126054492Y-70777000D01*
X126265309Y-70756236D01*
X126535808Y-70674182D01*
X126785101Y-70540932D01*
X127003608Y-70361608D01*
X127096419Y-70248518D01*
X127098188Y-70266482D01*
X127134498Y-70386180D01*
X127193463Y-70496494D01*
X127272815Y-70593185D01*
X127369506Y-70672537D01*
X127479820Y-70731502D01*
X127599518Y-70767812D01*
X127724000Y-70780072D01*
X127739337Y-70780072D01*
X127757647Y-70840433D01*
X127834301Y-70983842D01*
X127868214Y-71025165D01*
X127937459Y-71109541D01*
X127968966Y-71135398D01*
X128105076Y-71271508D01*
X127972192Y-71311818D01*
X127722899Y-71445068D01*
X127504392Y-71624392D01*
X127325068Y-71842899D01*
X127191818Y-72092192D01*
X127109764Y-72362691D01*
X127082057Y-72644000D01*
X127109764Y-72925309D01*
X127191818Y-73195808D01*
X127325068Y-73445101D01*
X127504392Y-73663608D01*
X127722899Y-73842932D01*
X127972192Y-73976182D01*
X128242691Y-74058236D01*
X128453508Y-74079000D01*
X128594492Y-74079000D01*
X128805309Y-74058236D01*
X129075808Y-73976182D01*
X129325101Y-73842932D01*
X129543608Y-73663608D01*
X129722932Y-73445101D01*
X129856182Y-73195808D01*
X129896491Y-73062924D01*
X130095366Y-73261799D01*
X130095366Y-80909216D01*
X129825750Y-80911000D01*
X129667000Y-81069750D01*
X129667000Y-82169000D01*
X129687000Y-82169000D01*
X129687000Y-82423000D01*
X129667000Y-82423000D01*
X129667000Y-83522250D01*
X129825750Y-83681000D01*
X130095365Y-83682784D01*
X130095365Y-94035202D01*
X127643949Y-96486618D01*
X127617853Y-96355426D01*
X127509680Y-96094273D01*
X127352637Y-95859241D01*
X127152759Y-95659363D01*
X126917727Y-95502320D01*
X126656574Y-95394147D01*
X126379335Y-95339000D01*
X126096665Y-95339000D01*
X125819426Y-95394147D01*
X125558273Y-95502320D01*
X125323241Y-95659363D01*
X125123363Y-95859241D01*
X124966320Y-96094273D01*
X124858147Y-96355426D01*
X124803000Y-96632665D01*
X124803000Y-96915335D01*
X124858147Y-97192574D01*
X124966320Y-97453727D01*
X125123363Y-97688759D01*
X125323241Y-97888637D01*
X125558273Y-98045680D01*
X125819426Y-98153853D01*
X125950619Y-98179949D01*
X125896068Y-98234500D01*
X109514550Y-98234500D01*
X109474000Y-98230506D01*
X109433449Y-98234500D01*
X109433447Y-98234500D01*
X109312174Y-98246444D01*
X109158824Y-98292962D01*
X109156566Y-98293647D01*
X109013157Y-98370301D01*
X108918958Y-98447608D01*
X108918955Y-98447611D01*
X108887459Y-98473459D01*
X108861611Y-98504955D01*
X106124961Y-101241607D01*
X106093460Y-101267459D01*
X106067609Y-101298959D01*
X105990301Y-101393158D01*
X105913647Y-101536567D01*
X105866445Y-101692174D01*
X105850506Y-101854000D01*
X105854501Y-101894561D01*
X105854500Y-140421447D01*
X105850506Y-140462000D01*
X105854500Y-140502550D01*
X105854500Y-140502552D01*
X105866444Y-140623825D01*
X105902689Y-140743309D01*
X105913647Y-140779433D01*
X105990301Y-140922842D01*
X106024214Y-140964165D01*
X106093459Y-141048541D01*
X106124966Y-141074398D01*
X107845611Y-142795045D01*
X107871459Y-142826541D01*
X107902955Y-142852389D01*
X107902958Y-142852392D01*
X107997157Y-142929699D01*
X108120295Y-142995518D01*
X108140566Y-143006353D01*
X108296174Y-143053556D01*
X108417447Y-143065500D01*
X108417449Y-143065500D01*
X108458000Y-143069494D01*
X108498550Y-143065500D01*
X110910068Y-143065500D01*
X116227607Y-148383040D01*
X116253459Y-148414541D01*
X116379158Y-148517699D01*
X116522566Y-148594353D01*
X116678174Y-148641556D01*
X116799447Y-148653500D01*
X116799456Y-148653500D01*
X116839999Y-148657493D01*
X116880542Y-148653500D01*
X117593041Y-148653500D01*
X117523820Y-148674498D01*
X117413506Y-148733463D01*
X117316815Y-148812815D01*
X117237463Y-148909506D01*
X117178498Y-149019820D01*
X117142188Y-149139518D01*
X117129928Y-149264000D01*
X117133000Y-149828250D01*
X117291750Y-149987000D01*
X118491000Y-149987000D01*
X118491000Y-149967000D01*
X118745000Y-149967000D01*
X118745000Y-149987000D01*
X118765000Y-149987000D01*
X118765000Y-150241000D01*
X118745000Y-150241000D01*
X118745000Y-151440250D01*
X118903750Y-151599000D01*
X119468000Y-151602072D01*
X119592482Y-151589812D01*
X119712180Y-151553502D01*
X119822494Y-151494537D01*
X119919185Y-151415185D01*
X119998537Y-151318494D01*
X120057502Y-151208180D01*
X120078393Y-151139313D01*
X120102866Y-151169134D01*
X120328986Y-151354706D01*
X120586966Y-151492599D01*
X120866889Y-151577513D01*
X121085050Y-151599000D01*
X121230950Y-151599000D01*
X121449111Y-151577513D01*
X121729034Y-151492599D01*
X121987014Y-151354706D01*
X122213134Y-151169134D01*
X122398706Y-150943014D01*
X122428000Y-150888209D01*
X122457294Y-150943014D01*
X122642866Y-151169134D01*
X122868986Y-151354706D01*
X123126966Y-151492599D01*
X123406889Y-151577513D01*
X123625050Y-151599000D01*
X123770950Y-151599000D01*
X123989111Y-151577513D01*
X124269034Y-151492599D01*
X124527014Y-151354706D01*
X124753134Y-151169134D01*
X124938706Y-150943014D01*
X124968000Y-150888209D01*
X124997294Y-150943014D01*
X125182866Y-151169134D01*
X125408986Y-151354706D01*
X125666966Y-151492599D01*
X125946889Y-151577513D01*
X126165050Y-151599000D01*
X126310950Y-151599000D01*
X126529111Y-151577513D01*
X126809034Y-151492599D01*
X127067014Y-151354706D01*
X127293134Y-151169134D01*
X127478706Y-150943014D01*
X127616599Y-150685034D01*
X127701513Y-150405111D01*
X127730185Y-150114000D01*
X127715503Y-149964936D01*
X128419606Y-150669039D01*
X128445459Y-150700541D01*
X128498720Y-150744251D01*
X128571157Y-150803699D01*
X128596244Y-150817108D01*
X128714566Y-150880353D01*
X128870174Y-150927556D01*
X128991447Y-150939500D01*
X128991449Y-150939500D01*
X129031999Y-150943494D01*
X129072550Y-150939500D01*
X130006076Y-150939500D01*
X130021096Y-150989014D01*
X130150817Y-151231706D01*
X130325392Y-151444427D01*
X130538113Y-151619003D01*
X130780805Y-151748724D01*
X131044140Y-151828606D01*
X131318000Y-151855579D01*
X131591859Y-151828606D01*
X131855194Y-151748724D01*
X132097886Y-151619003D01*
X132310607Y-151444428D01*
X132485183Y-151231707D01*
X132589038Y-151037407D01*
X132615941Y-151103762D01*
X132766994Y-151333549D01*
X132959974Y-151529452D01*
X133187465Y-151683942D01*
X133440724Y-151791082D01*
X133514930Y-151806040D01*
X133731000Y-151683540D01*
X133731000Y-150241000D01*
X133711000Y-150241000D01*
X133711000Y-149987000D01*
X133731000Y-149987000D01*
X133731000Y-148544460D01*
X133514930Y-148421960D01*
X133440724Y-148436918D01*
X133187465Y-148544058D01*
X132959974Y-148698548D01*
X132766994Y-148894451D01*
X132615941Y-149124238D01*
X132589038Y-149190593D01*
X132485183Y-148996293D01*
X132310608Y-148783572D01*
X132097887Y-148608997D01*
X131855195Y-148479276D01*
X131591860Y-148399394D01*
X131318000Y-148372421D01*
X131044141Y-148399394D01*
X130780806Y-148479276D01*
X130538114Y-148608997D01*
X130325393Y-148783572D01*
X130150817Y-148996293D01*
X130021096Y-149238985D01*
X130006076Y-149288500D01*
X129373933Y-149288500D01*
X127358398Y-147272966D01*
X127332541Y-147241459D01*
X127206842Y-147138301D01*
X127063434Y-147061647D01*
X126907826Y-147014444D01*
X126786553Y-147002500D01*
X126786550Y-147002500D01*
X126746000Y-146998506D01*
X126705450Y-147002500D01*
X117181933Y-147002500D01*
X115359433Y-145180000D01*
X117887928Y-145180000D01*
X117900188Y-145304482D01*
X117936498Y-145424180D01*
X117995463Y-145534494D01*
X118074815Y-145631185D01*
X118171506Y-145710537D01*
X118281820Y-145769502D01*
X118401518Y-145805812D01*
X118526000Y-145818072D01*
X118890250Y-145815000D01*
X119049000Y-145656250D01*
X119049000Y-144907000D01*
X119303000Y-144907000D01*
X119303000Y-145656250D01*
X119461750Y-145815000D01*
X119826000Y-145818072D01*
X119950482Y-145805812D01*
X120070180Y-145769502D01*
X120180494Y-145710537D01*
X120277185Y-145631185D01*
X120356537Y-145534494D01*
X120415502Y-145424180D01*
X120451812Y-145304482D01*
X120464072Y-145180000D01*
X120461000Y-145065750D01*
X120302250Y-144907000D01*
X119303000Y-144907000D01*
X119049000Y-144907000D01*
X118049750Y-144907000D01*
X117891000Y-145065750D01*
X117887928Y-145180000D01*
X115359433Y-145180000D01*
X111864398Y-141684966D01*
X111838541Y-141653459D01*
X111712842Y-141550301D01*
X111569434Y-141473647D01*
X111413826Y-141426444D01*
X111292553Y-141414500D01*
X111292550Y-141414500D01*
X111252000Y-141410506D01*
X111211450Y-141414500D01*
X110294682Y-141414500D01*
X110418932Y-141263101D01*
X110552182Y-141013808D01*
X110634236Y-140743309D01*
X110661943Y-140462000D01*
X110634236Y-140180691D01*
X110552182Y-139910192D01*
X110418932Y-139660899D01*
X110239608Y-139442392D01*
X110021101Y-139263068D01*
X109771808Y-139129818D01*
X109501309Y-139047764D01*
X109290492Y-139027000D01*
X109149508Y-139027000D01*
X108938691Y-139047764D01*
X108668192Y-139129818D01*
X108418899Y-139263068D01*
X108200392Y-139442392D01*
X108021068Y-139660899D01*
X107887818Y-139910192D01*
X107805764Y-140180691D01*
X107784277Y-140398845D01*
X107505500Y-140120068D01*
X107505500Y-137414000D01*
X107778057Y-137414000D01*
X107805764Y-137695309D01*
X107887818Y-137965808D01*
X108021068Y-138215101D01*
X108200392Y-138433608D01*
X108418899Y-138612932D01*
X108668192Y-138746182D01*
X108938691Y-138828236D01*
X109149508Y-138849000D01*
X109290492Y-138849000D01*
X109501309Y-138828236D01*
X109771808Y-138746182D01*
X110021101Y-138612932D01*
X110239608Y-138433608D01*
X110418932Y-138215101D01*
X110552182Y-137965808D01*
X110634236Y-137695309D01*
X110661943Y-137414000D01*
X110634236Y-137132691D01*
X110552182Y-136862192D01*
X110418932Y-136612899D01*
X110239608Y-136394392D01*
X110021101Y-136215068D01*
X109771808Y-136081818D01*
X109501309Y-135999764D01*
X109290492Y-135979000D01*
X109149508Y-135979000D01*
X108938691Y-135999764D01*
X108668192Y-136081818D01*
X108418899Y-136215068D01*
X108200392Y-136394392D01*
X108021068Y-136612899D01*
X107887818Y-136862192D01*
X107805764Y-137132691D01*
X107778057Y-137414000D01*
X107505500Y-137414000D01*
X107505500Y-102195932D01*
X109385901Y-100315532D01*
X109265818Y-100540192D01*
X109183764Y-100810691D01*
X109156057Y-101092000D01*
X109183764Y-101373309D01*
X109265818Y-101643808D01*
X109399068Y-101893101D01*
X109578392Y-102111608D01*
X109796899Y-102290932D01*
X109929858Y-102362000D01*
X109796899Y-102433068D01*
X109578392Y-102612392D01*
X109399068Y-102830899D01*
X109265818Y-103080192D01*
X109183764Y-103350691D01*
X109156057Y-103632000D01*
X109183764Y-103913309D01*
X109265818Y-104183808D01*
X109399068Y-104433101D01*
X109578392Y-104651608D01*
X109796899Y-104830932D01*
X109929858Y-104902000D01*
X109796899Y-104973068D01*
X109578392Y-105152392D01*
X109399068Y-105370899D01*
X109265818Y-105620192D01*
X109183764Y-105890691D01*
X109156057Y-106172000D01*
X109183764Y-106453309D01*
X109265818Y-106723808D01*
X109399068Y-106973101D01*
X109578392Y-107191608D01*
X109796899Y-107370932D01*
X109929858Y-107442000D01*
X109796899Y-107513068D01*
X109578392Y-107692392D01*
X109399068Y-107910899D01*
X109265818Y-108160192D01*
X109183764Y-108430691D01*
X109156057Y-108712000D01*
X109183764Y-108993309D01*
X109265818Y-109263808D01*
X109399068Y-109513101D01*
X109578392Y-109731608D01*
X109796899Y-109910932D01*
X109929858Y-109982000D01*
X109796899Y-110053068D01*
X109578392Y-110232392D01*
X109399068Y-110450899D01*
X109265818Y-110700192D01*
X109183764Y-110970691D01*
X109156057Y-111252000D01*
X109183764Y-111533309D01*
X109265818Y-111803808D01*
X109399068Y-112053101D01*
X109578392Y-112271608D01*
X109796899Y-112450932D01*
X109929858Y-112522000D01*
X109796899Y-112593068D01*
X109578392Y-112772392D01*
X109399068Y-112990899D01*
X109265818Y-113240192D01*
X109183764Y-113510691D01*
X109156057Y-113792000D01*
X109183764Y-114073309D01*
X109265818Y-114343808D01*
X109399068Y-114593101D01*
X109578392Y-114811608D01*
X109796899Y-114990932D01*
X109929858Y-115062000D01*
X109796899Y-115133068D01*
X109578392Y-115312392D01*
X109399068Y-115530899D01*
X109265818Y-115780192D01*
X109183764Y-116050691D01*
X109156057Y-116332000D01*
X109183764Y-116613309D01*
X109265818Y-116883808D01*
X109399068Y-117133101D01*
X109578392Y-117351608D01*
X109796899Y-117530932D01*
X109924741Y-117599265D01*
X109695161Y-117749399D01*
X109493500Y-117947105D01*
X109334285Y-118180354D01*
X109223633Y-118440182D01*
X109206096Y-118522961D01*
X109328085Y-118745000D01*
X110871000Y-118745000D01*
X110871000Y-118725000D01*
X111125000Y-118725000D01*
X111125000Y-118745000D01*
X112667915Y-118745000D01*
X112789904Y-118522961D01*
X112772367Y-118440182D01*
X112661715Y-118180354D01*
X112502500Y-117947105D01*
X112300839Y-117749399D01*
X112071259Y-117599265D01*
X112199101Y-117530932D01*
X112417608Y-117351608D01*
X112596932Y-117133101D01*
X112730182Y-116883808D01*
X112812236Y-116613309D01*
X112839943Y-116332000D01*
X112812236Y-116050691D01*
X112730182Y-115780192D01*
X112596932Y-115530899D01*
X112417608Y-115312392D01*
X112199101Y-115133068D01*
X112066142Y-115062000D01*
X112199101Y-114990932D01*
X112417608Y-114811608D01*
X112472682Y-114744500D01*
X112743462Y-114744500D01*
X116784566Y-118785605D01*
X116776057Y-118872000D01*
X116803764Y-119153309D01*
X116885818Y-119423808D01*
X117019068Y-119673101D01*
X117198392Y-119891608D01*
X117416899Y-120070932D01*
X117549858Y-120142000D01*
X117416899Y-120213068D01*
X117198392Y-120392392D01*
X117019068Y-120610899D01*
X116885818Y-120860192D01*
X116803764Y-121130691D01*
X116776057Y-121412000D01*
X116803764Y-121693309D01*
X116885818Y-121963808D01*
X117019068Y-122213101D01*
X117198392Y-122431608D01*
X117416899Y-122610932D01*
X117549858Y-122682000D01*
X117416899Y-122753068D01*
X117198392Y-122932392D01*
X117019068Y-123150899D01*
X116885818Y-123400192D01*
X116803764Y-123670691D01*
X116776057Y-123952000D01*
X116803764Y-124233309D01*
X116885818Y-124503808D01*
X117019068Y-124753101D01*
X117198392Y-124971608D01*
X117416899Y-125150932D01*
X117549858Y-125222000D01*
X117416899Y-125293068D01*
X117198392Y-125472392D01*
X117019068Y-125690899D01*
X116885818Y-125940192D01*
X116803764Y-126210691D01*
X116776057Y-126492000D01*
X116803764Y-126773309D01*
X116885818Y-127043808D01*
X117019068Y-127293101D01*
X117198392Y-127511608D01*
X117416899Y-127690932D01*
X117549858Y-127762000D01*
X117416899Y-127833068D01*
X117198392Y-128012392D01*
X117019068Y-128230899D01*
X116885818Y-128480192D01*
X116803764Y-128750691D01*
X116776057Y-129032000D01*
X116803764Y-129313309D01*
X116885818Y-129583808D01*
X117019068Y-129833101D01*
X117198392Y-130051608D01*
X117416899Y-130230932D01*
X117549858Y-130302000D01*
X117416899Y-130373068D01*
X117198392Y-130552392D01*
X117019068Y-130770899D01*
X116885818Y-131020192D01*
X116803764Y-131290691D01*
X116776057Y-131572000D01*
X116803764Y-131853309D01*
X116885818Y-132123808D01*
X117019068Y-132373101D01*
X117198392Y-132591608D01*
X117311482Y-132684419D01*
X117293518Y-132686188D01*
X117173820Y-132722498D01*
X117063506Y-132781463D01*
X116966815Y-132860815D01*
X116887463Y-132957506D01*
X116828498Y-133067820D01*
X116792188Y-133187518D01*
X116779928Y-133312000D01*
X116779928Y-134912000D01*
X116792188Y-135036482D01*
X116819950Y-135128000D01*
X115631631Y-135128000D01*
X112694394Y-132190763D01*
X112730182Y-132123808D01*
X112812236Y-131853309D01*
X112839943Y-131572000D01*
X112812236Y-131290691D01*
X112730182Y-131020192D01*
X112596932Y-130770899D01*
X112417608Y-130552392D01*
X112199101Y-130373068D01*
X112066142Y-130302000D01*
X112199101Y-130230932D01*
X112417608Y-130051608D01*
X112596932Y-129833101D01*
X112730182Y-129583808D01*
X112812236Y-129313309D01*
X112839943Y-129032000D01*
X112812236Y-128750691D01*
X112730182Y-128480192D01*
X112596932Y-128230899D01*
X112417608Y-128012392D01*
X112199101Y-127833068D01*
X112066142Y-127762000D01*
X112199101Y-127690932D01*
X112417608Y-127511608D01*
X112596932Y-127293101D01*
X112730182Y-127043808D01*
X112812236Y-126773309D01*
X112839943Y-126492000D01*
X112812236Y-126210691D01*
X112730182Y-125940192D01*
X112596932Y-125690899D01*
X112417608Y-125472392D01*
X112199101Y-125293068D01*
X112066142Y-125222000D01*
X112199101Y-125150932D01*
X112417608Y-124971608D01*
X112596932Y-124753101D01*
X112730182Y-124503808D01*
X112812236Y-124233309D01*
X112839943Y-123952000D01*
X112812236Y-123670691D01*
X112730182Y-123400192D01*
X112596932Y-123150899D01*
X112417608Y-122932392D01*
X112199101Y-122753068D01*
X112066142Y-122682000D01*
X112199101Y-122610932D01*
X112417608Y-122431608D01*
X112596932Y-122213101D01*
X112730182Y-121963808D01*
X112812236Y-121693309D01*
X112839943Y-121412000D01*
X112812236Y-121130691D01*
X112730182Y-120860192D01*
X112596932Y-120610899D01*
X112417608Y-120392392D01*
X112199101Y-120213068D01*
X112071259Y-120144735D01*
X112300839Y-119994601D01*
X112502500Y-119796895D01*
X112661715Y-119563646D01*
X112772367Y-119303818D01*
X112789904Y-119221039D01*
X112667915Y-118999000D01*
X111125000Y-118999000D01*
X111125000Y-119019000D01*
X110871000Y-119019000D01*
X110871000Y-118999000D01*
X109328085Y-118999000D01*
X109206096Y-119221039D01*
X109223633Y-119303818D01*
X109334285Y-119563646D01*
X109493500Y-119796895D01*
X109695161Y-119994601D01*
X109924741Y-120144735D01*
X109796899Y-120213068D01*
X109578392Y-120392392D01*
X109399068Y-120610899D01*
X109265818Y-120860192D01*
X109183764Y-121130691D01*
X109156057Y-121412000D01*
X109183764Y-121693309D01*
X109265818Y-121963808D01*
X109399068Y-122213101D01*
X109578392Y-122431608D01*
X109796899Y-122610932D01*
X109929858Y-122682000D01*
X109796899Y-122753068D01*
X109578392Y-122932392D01*
X109399068Y-123150899D01*
X109265818Y-123400192D01*
X109183764Y-123670691D01*
X109156057Y-123952000D01*
X109183764Y-124233309D01*
X109265818Y-124503808D01*
X109399068Y-124753101D01*
X109578392Y-124971608D01*
X109796899Y-125150932D01*
X109929858Y-125222000D01*
X109796899Y-125293068D01*
X109578392Y-125472392D01*
X109399068Y-125690899D01*
X109265818Y-125940192D01*
X109183764Y-126210691D01*
X109156057Y-126492000D01*
X109183764Y-126773309D01*
X109265818Y-127043808D01*
X109399068Y-127293101D01*
X109578392Y-127511608D01*
X109796899Y-127690932D01*
X109929858Y-127762000D01*
X109796899Y-127833068D01*
X109578392Y-128012392D01*
X109399068Y-128230899D01*
X109265818Y-128480192D01*
X109183764Y-128750691D01*
X109156057Y-129032000D01*
X109183764Y-129313309D01*
X109265818Y-129583808D01*
X109399068Y-129833101D01*
X109578392Y-130051608D01*
X109796899Y-130230932D01*
X109929858Y-130302000D01*
X109796899Y-130373068D01*
X109578392Y-130552392D01*
X109399068Y-130770899D01*
X109265818Y-131020192D01*
X109183764Y-131290691D01*
X109156057Y-131572000D01*
X109183764Y-131853309D01*
X109265818Y-132123808D01*
X109399068Y-132373101D01*
X109578392Y-132591608D01*
X109796899Y-132770932D01*
X109929858Y-132842000D01*
X109796899Y-132913068D01*
X109578392Y-133092392D01*
X109399068Y-133310899D01*
X109265818Y-133560192D01*
X109183764Y-133830691D01*
X109156057Y-134112000D01*
X109183764Y-134393309D01*
X109265818Y-134663808D01*
X109399068Y-134913101D01*
X109578392Y-135131608D01*
X109796899Y-135310932D01*
X110046192Y-135444182D01*
X110316691Y-135526236D01*
X110527508Y-135547000D01*
X111468492Y-135547000D01*
X111679309Y-135526236D01*
X111721736Y-135513366D01*
X115658716Y-139450346D01*
X115682578Y-139479422D01*
X115743327Y-139529277D01*
X115725363Y-139547241D01*
X115568320Y-139782273D01*
X115460147Y-140043426D01*
X115405000Y-140320665D01*
X115405000Y-140603335D01*
X115460147Y-140880574D01*
X115568320Y-141141727D01*
X115725363Y-141376759D01*
X115925241Y-141576637D01*
X116014501Y-141636278D01*
X116014501Y-142174440D01*
X116010506Y-142215000D01*
X116026445Y-142376826D01*
X116073647Y-142532433D01*
X116150301Y-142675842D01*
X116175416Y-142706444D01*
X116253460Y-142801541D01*
X116284961Y-142827393D01*
X117532611Y-144075045D01*
X117558459Y-144106541D01*
X117589955Y-144132389D01*
X117589958Y-144132392D01*
X117684157Y-144209699D01*
X117827566Y-144286353D01*
X117895133Y-144306849D01*
X117887928Y-144380000D01*
X117891000Y-144494250D01*
X118049750Y-144653000D01*
X119049000Y-144653000D01*
X119049000Y-144633000D01*
X119303000Y-144633000D01*
X119303000Y-144653000D01*
X120302250Y-144653000D01*
X120461000Y-144494250D01*
X120464072Y-144380000D01*
X120451812Y-144255518D01*
X120419803Y-144150000D01*
X120451812Y-144044482D01*
X120464072Y-143920000D01*
X120464072Y-143120000D01*
X120451812Y-142995518D01*
X120418287Y-142885000D01*
X120451812Y-142774482D01*
X120464072Y-142650000D01*
X120464072Y-141850000D01*
X120451812Y-141725518D01*
X120416770Y-141610000D01*
X120451812Y-141494482D01*
X120464072Y-141370000D01*
X120464072Y-140570000D01*
X120451812Y-140445518D01*
X120418287Y-140335000D01*
X120451812Y-140224482D01*
X120464072Y-140100000D01*
X120464072Y-139300000D01*
X120451812Y-139175518D01*
X120419803Y-139070000D01*
X120451812Y-138964482D01*
X120464072Y-138840000D01*
X120464072Y-138040000D01*
X120451812Y-137915518D01*
X120416770Y-137800000D01*
X120451812Y-137684482D01*
X120464072Y-137560000D01*
X120464072Y-136760000D01*
X120453435Y-136652000D01*
X121604370Y-136652000D01*
X123904716Y-138952346D01*
X123928578Y-138981422D01*
X124002219Y-139041857D01*
X124044607Y-139076645D01*
X124115364Y-139114465D01*
X124176985Y-139147402D01*
X124206043Y-139156217D01*
X124200188Y-139175518D01*
X124187928Y-139300000D01*
X124187928Y-140100000D01*
X124200188Y-140224482D01*
X124233713Y-140335000D01*
X124200188Y-140445518D01*
X124187928Y-140570000D01*
X124191000Y-140684250D01*
X124349750Y-140843000D01*
X125349000Y-140843000D01*
X125349000Y-140823000D01*
X125603000Y-140823000D01*
X125603000Y-140843000D01*
X125623000Y-140843000D01*
X125623000Y-141097000D01*
X125603000Y-141097000D01*
X125603000Y-141117000D01*
X125349000Y-141117000D01*
X125349000Y-141097000D01*
X124349750Y-141097000D01*
X124191000Y-141255750D01*
X124187928Y-141370000D01*
X124200188Y-141494482D01*
X124235230Y-141610000D01*
X124200188Y-141725518D01*
X124187928Y-141850000D01*
X124187928Y-142650000D01*
X124200188Y-142774482D01*
X124233713Y-142885000D01*
X124200188Y-142995518D01*
X124187928Y-143120000D01*
X124187928Y-143920000D01*
X124200188Y-144044482D01*
X124232197Y-144150000D01*
X124200188Y-144255518D01*
X124187928Y-144380000D01*
X124187928Y-145180000D01*
X124200188Y-145304482D01*
X124236498Y-145424180D01*
X124295463Y-145534494D01*
X124374815Y-145631185D01*
X124471506Y-145710537D01*
X124581820Y-145769502D01*
X124701518Y-145805812D01*
X124826000Y-145818072D01*
X126126000Y-145818072D01*
X126250482Y-145805812D01*
X126370180Y-145769502D01*
X126480494Y-145710537D01*
X126570051Y-145637039D01*
X126986096Y-145637039D01*
X127003633Y-145719818D01*
X127114285Y-145979646D01*
X127273500Y-146212895D01*
X127475161Y-146410601D01*
X127711517Y-146565166D01*
X127973486Y-146670650D01*
X128251000Y-146723000D01*
X128651000Y-146723000D01*
X128651000Y-145415000D01*
X128905000Y-145415000D01*
X128905000Y-146723000D01*
X129305000Y-146723000D01*
X129582514Y-146670650D01*
X129844483Y-146565166D01*
X130080839Y-146410601D01*
X130282500Y-146212895D01*
X130441715Y-145979646D01*
X130552367Y-145719818D01*
X130569904Y-145637039D01*
X130447915Y-145415000D01*
X128905000Y-145415000D01*
X128651000Y-145415000D01*
X127108085Y-145415000D01*
X126986096Y-145637039D01*
X126570051Y-145637039D01*
X126577185Y-145631185D01*
X126656537Y-145534494D01*
X126715502Y-145424180D01*
X126751812Y-145304482D01*
X126764072Y-145180000D01*
X126764072Y-144380000D01*
X126751812Y-144255518D01*
X126719803Y-144150000D01*
X126751812Y-144044482D01*
X126764072Y-143920000D01*
X126764072Y-143120000D01*
X126751812Y-142995518D01*
X126743179Y-142967059D01*
X126775015Y-142957402D01*
X126907392Y-142886645D01*
X126946548Y-142854511D01*
X126963764Y-143029309D01*
X127045818Y-143299808D01*
X127179068Y-143549101D01*
X127358392Y-143767608D01*
X127576899Y-143946932D01*
X127704741Y-144015265D01*
X127475161Y-144165399D01*
X127273500Y-144363105D01*
X127114285Y-144596354D01*
X127003633Y-144856182D01*
X126986096Y-144938961D01*
X127108085Y-145161000D01*
X128651000Y-145161000D01*
X128651000Y-145141000D01*
X128905000Y-145141000D01*
X128905000Y-145161000D01*
X130447915Y-145161000D01*
X130569904Y-144938961D01*
X130552367Y-144856182D01*
X130441715Y-144596354D01*
X130282500Y-144363105D01*
X130080839Y-144165399D01*
X129851259Y-144015265D01*
X129979101Y-143946932D01*
X130197608Y-143767608D01*
X130376932Y-143549101D01*
X130510182Y-143299808D01*
X130592236Y-143029309D01*
X130619943Y-142748000D01*
X130592236Y-142466691D01*
X130510182Y-142196192D01*
X130376932Y-141946899D01*
X130197608Y-141728392D01*
X129979101Y-141549068D01*
X129846142Y-141478000D01*
X129979101Y-141406932D01*
X130197608Y-141227608D01*
X130376932Y-141009101D01*
X130510182Y-140759808D01*
X130592236Y-140489309D01*
X130619943Y-140208000D01*
X130606392Y-140070408D01*
X131191000Y-140070408D01*
X131191000Y-140345592D01*
X131244686Y-140615490D01*
X131349995Y-140869727D01*
X131502880Y-141098535D01*
X131697465Y-141293120D01*
X131926273Y-141446005D01*
X132180510Y-141551314D01*
X132450408Y-141605000D01*
X132725592Y-141605000D01*
X132995490Y-141551314D01*
X133249727Y-141446005D01*
X133478535Y-141293120D01*
X133673120Y-141098535D01*
X133826005Y-140869727D01*
X133931314Y-140615490D01*
X133985000Y-140345592D01*
X133985000Y-140070408D01*
X133931314Y-139800510D01*
X133826005Y-139546273D01*
X133673120Y-139317465D01*
X133478535Y-139122880D01*
X133249727Y-138969995D01*
X132995490Y-138864686D01*
X132725592Y-138811000D01*
X132450408Y-138811000D01*
X132180510Y-138864686D01*
X131926273Y-138969995D01*
X131697465Y-139122880D01*
X131502880Y-139317465D01*
X131349995Y-139546273D01*
X131244686Y-139800510D01*
X131191000Y-140070408D01*
X130606392Y-140070408D01*
X130592236Y-139926691D01*
X130510182Y-139656192D01*
X130376932Y-139406899D01*
X130197608Y-139188392D01*
X129979101Y-139009068D01*
X129846142Y-138938000D01*
X129979101Y-138866932D01*
X130197608Y-138687608D01*
X130376932Y-138469101D01*
X130510182Y-138219808D01*
X130592236Y-137949309D01*
X130619943Y-137668000D01*
X130592236Y-137386691D01*
X130510182Y-137116192D01*
X130376932Y-136866899D01*
X130197608Y-136648392D01*
X129979101Y-136469068D01*
X129846142Y-136398000D01*
X129979101Y-136326932D01*
X130197608Y-136147608D01*
X130376932Y-135929101D01*
X130510182Y-135679808D01*
X130592236Y-135409309D01*
X130619943Y-135128000D01*
X130592236Y-134846691D01*
X130510182Y-134576192D01*
X130376932Y-134326899D01*
X130197608Y-134108392D01*
X129979101Y-133929068D01*
X129846142Y-133858000D01*
X129979101Y-133786932D01*
X130197608Y-133607608D01*
X130376932Y-133389101D01*
X130510182Y-133139808D01*
X130592236Y-132869309D01*
X130619943Y-132588000D01*
X130592236Y-132306691D01*
X130510182Y-132036192D01*
X130376932Y-131786899D01*
X130197608Y-131568392D01*
X129979101Y-131389068D01*
X129846142Y-131318000D01*
X129979101Y-131246932D01*
X130197608Y-131067608D01*
X130376932Y-130849101D01*
X130510182Y-130599808D01*
X130592236Y-130329309D01*
X130619943Y-130048000D01*
X130592236Y-129766691D01*
X130510182Y-129496192D01*
X130376932Y-129246899D01*
X130197608Y-129028392D01*
X129979101Y-128849068D01*
X129846142Y-128778000D01*
X129979101Y-128706932D01*
X130197608Y-128527608D01*
X130376932Y-128309101D01*
X130510182Y-128059808D01*
X130592236Y-127789309D01*
X130619943Y-127508000D01*
X130592236Y-127226691D01*
X130510182Y-126956192D01*
X130376932Y-126706899D01*
X130197608Y-126488392D01*
X129979101Y-126309068D01*
X129846142Y-126238000D01*
X129979101Y-126166932D01*
X130197608Y-125987608D01*
X130376932Y-125769101D01*
X130510182Y-125519808D01*
X130592236Y-125249309D01*
X130619943Y-124968000D01*
X130592236Y-124686691D01*
X130510182Y-124416192D01*
X130376932Y-124166899D01*
X130197608Y-123948392D01*
X130084518Y-123855581D01*
X130102482Y-123853812D01*
X130222180Y-123817502D01*
X130332494Y-123758537D01*
X130429185Y-123679185D01*
X130508537Y-123582494D01*
X130567502Y-123472180D01*
X130603812Y-123352482D01*
X130616072Y-123228000D01*
X130613000Y-122713750D01*
X130454250Y-122555000D01*
X128905000Y-122555000D01*
X128905000Y-122575000D01*
X128651000Y-122575000D01*
X128651000Y-122555000D01*
X127101750Y-122555000D01*
X126943000Y-122713750D01*
X126939928Y-123228000D01*
X126952188Y-123352482D01*
X126988498Y-123472180D01*
X127047463Y-123582494D01*
X127126815Y-123679185D01*
X127223506Y-123758537D01*
X127333820Y-123817502D01*
X127453518Y-123853812D01*
X127471482Y-123855581D01*
X127358392Y-123948392D01*
X127179068Y-124166899D01*
X127045818Y-124416192D01*
X126963764Y-124686691D01*
X126936057Y-124968000D01*
X126963764Y-125249309D01*
X127045818Y-125519808D01*
X127179068Y-125769101D01*
X127358392Y-125987608D01*
X127576899Y-126166932D01*
X127709858Y-126238000D01*
X127576899Y-126309068D01*
X127358392Y-126488392D01*
X127179068Y-126706899D01*
X127045818Y-126956192D01*
X126963764Y-127226691D01*
X126936057Y-127508000D01*
X126963764Y-127789309D01*
X127045818Y-128059808D01*
X127179068Y-128309101D01*
X127358392Y-128527608D01*
X127576899Y-128706932D01*
X127709858Y-128778000D01*
X127576899Y-128849068D01*
X127358392Y-129028392D01*
X127179068Y-129246899D01*
X127045818Y-129496192D01*
X126963764Y-129766691D01*
X126936057Y-130048000D01*
X126963764Y-130329309D01*
X127045818Y-130599808D01*
X127179068Y-130849101D01*
X127358392Y-131067608D01*
X127576899Y-131246932D01*
X127709858Y-131318000D01*
X127576899Y-131389068D01*
X127358392Y-131568392D01*
X127179068Y-131786899D01*
X127045818Y-132036192D01*
X126963764Y-132306691D01*
X126936057Y-132588000D01*
X126963764Y-132869309D01*
X127045818Y-133139808D01*
X127179068Y-133389101D01*
X127358392Y-133607608D01*
X127576899Y-133786932D01*
X127709858Y-133858000D01*
X127576899Y-133929068D01*
X127478524Y-134009802D01*
X127453402Y-133926985D01*
X127382645Y-133794608D01*
X127287422Y-133678578D01*
X127258352Y-133654721D01*
X120419366Y-126815736D01*
X120432236Y-126773309D01*
X120459943Y-126492000D01*
X120432236Y-126210691D01*
X120350182Y-125940192D01*
X120216932Y-125690899D01*
X120037608Y-125472392D01*
X119819101Y-125293068D01*
X119686142Y-125222000D01*
X119819101Y-125150932D01*
X119958413Y-125036602D01*
X120013355Y-125139392D01*
X120084721Y-125226351D01*
X120108579Y-125255422D01*
X120137649Y-125279279D01*
X121028843Y-126170473D01*
X120993000Y-126350665D01*
X120993000Y-126633335D01*
X121048147Y-126910574D01*
X121156320Y-127171727D01*
X121313363Y-127406759D01*
X121513241Y-127606637D01*
X121748273Y-127763680D01*
X122009426Y-127871853D01*
X122286665Y-127927000D01*
X122569335Y-127927000D01*
X122846574Y-127871853D01*
X123107727Y-127763680D01*
X123342759Y-127606637D01*
X123542637Y-127406759D01*
X123699680Y-127171727D01*
X123807853Y-126910574D01*
X123863000Y-126633335D01*
X123863000Y-126350665D01*
X123807853Y-126073426D01*
X123699680Y-125812273D01*
X123542637Y-125577241D01*
X123342759Y-125377363D01*
X123107727Y-125220320D01*
X122846574Y-125112147D01*
X122569335Y-125057000D01*
X122286665Y-125057000D01*
X122106473Y-125092843D01*
X121412000Y-124398370D01*
X121412000Y-122404702D01*
X121654903Y-122404702D01*
X121726486Y-122648671D01*
X121981996Y-122769571D01*
X122256184Y-122838300D01*
X122538512Y-122852217D01*
X122818130Y-122810787D01*
X123084292Y-122715603D01*
X123209514Y-122648671D01*
X123281097Y-122404702D01*
X122468000Y-121591605D01*
X121654903Y-122404702D01*
X121412000Y-122404702D01*
X121412000Y-122206525D01*
X121475298Y-122225097D01*
X122288395Y-121412000D01*
X122647605Y-121412000D01*
X123460702Y-122225097D01*
X123704671Y-122153514D01*
X123718324Y-122124659D01*
X123853363Y-122326759D01*
X124053241Y-122526637D01*
X124288273Y-122683680D01*
X124549426Y-122791853D01*
X124826665Y-122847000D01*
X125109335Y-122847000D01*
X125386574Y-122791853D01*
X125647727Y-122683680D01*
X125882759Y-122526637D01*
X126082637Y-122326759D01*
X126239680Y-122091727D01*
X126347853Y-121830574D01*
X126403000Y-121553335D01*
X126403000Y-121270665D01*
X126347853Y-120993426D01*
X126239680Y-120732273D01*
X126082637Y-120497241D01*
X125882759Y-120297363D01*
X125647727Y-120140320D01*
X125386574Y-120032147D01*
X125109335Y-119977000D01*
X124826665Y-119977000D01*
X124549426Y-120032147D01*
X124288273Y-120140320D01*
X124053241Y-120297363D01*
X123853363Y-120497241D01*
X123719308Y-120697869D01*
X123704671Y-120670486D01*
X123460702Y-120598903D01*
X122647605Y-121412000D01*
X122288395Y-121412000D01*
X121475298Y-120598903D01*
X121363672Y-120631655D01*
X121357402Y-120610985D01*
X121286646Y-120478609D01*
X121286645Y-120478607D01*
X121237971Y-120419298D01*
X121654903Y-120419298D01*
X122468000Y-121232395D01*
X123281097Y-120419298D01*
X123209514Y-120175329D01*
X122954004Y-120054429D01*
X122679816Y-119985700D01*
X122397488Y-119971783D01*
X122117870Y-120013213D01*
X121851708Y-120108397D01*
X121726486Y-120175329D01*
X121654903Y-120419298D01*
X121237971Y-120419298D01*
X121215279Y-120391648D01*
X121191422Y-120362578D01*
X121162353Y-120338722D01*
X120648131Y-119824500D01*
X125843462Y-119824500D01*
X126753892Y-120734930D01*
X126783721Y-120771277D01*
X126928758Y-120890305D01*
X126954380Y-120904000D01*
X127094229Y-120978751D01*
X127171491Y-121002188D01*
X127273776Y-121033216D01*
X127332822Y-121039032D01*
X127223506Y-121097463D01*
X127126815Y-121176815D01*
X127047463Y-121273506D01*
X126988498Y-121383820D01*
X126952188Y-121503518D01*
X126939928Y-121628000D01*
X126943000Y-122142250D01*
X127101750Y-122301000D01*
X128651000Y-122301000D01*
X128651000Y-122281000D01*
X128905000Y-122281000D01*
X128905000Y-122301000D01*
X130454250Y-122301000D01*
X130613000Y-122142250D01*
X130616072Y-121628000D01*
X130603812Y-121503518D01*
X130567502Y-121383820D01*
X130508537Y-121273506D01*
X130429185Y-121176815D01*
X130332494Y-121097463D01*
X130223178Y-121039032D01*
X130282224Y-121033216D01*
X130461770Y-120978751D01*
X130627242Y-120890305D01*
X130772279Y-120771277D01*
X130802108Y-120734930D01*
X133350001Y-118187037D01*
X133350000Y-135744577D01*
X133346314Y-135782000D01*
X133350000Y-135819423D01*
X133350000Y-135819425D01*
X133361026Y-135931377D01*
X133404598Y-136075014D01*
X133404599Y-136075015D01*
X133475355Y-136207392D01*
X133513412Y-136253764D01*
X133570578Y-136323422D01*
X133599654Y-136347284D01*
X134596634Y-137344264D01*
X134583764Y-137386691D01*
X134556057Y-137668000D01*
X134583764Y-137949309D01*
X134665818Y-138219808D01*
X134799068Y-138469101D01*
X134978392Y-138687608D01*
X135196899Y-138866932D01*
X135329858Y-138938000D01*
X135196899Y-139009068D01*
X134978392Y-139188392D01*
X134799068Y-139406899D01*
X134665818Y-139656192D01*
X134583764Y-139926691D01*
X134556057Y-140208000D01*
X134583764Y-140489309D01*
X134665818Y-140759808D01*
X134799068Y-141009101D01*
X134978392Y-141227608D01*
X135196899Y-141406932D01*
X135329858Y-141478000D01*
X135196899Y-141549068D01*
X134978392Y-141728392D01*
X134799068Y-141946899D01*
X134665818Y-142196192D01*
X134583764Y-142466691D01*
X134556057Y-142748000D01*
X134583764Y-143029309D01*
X134665818Y-143299808D01*
X134799068Y-143549101D01*
X134978392Y-143767608D01*
X135196899Y-143946932D01*
X135329858Y-144018000D01*
X135196899Y-144089068D01*
X134978392Y-144268392D01*
X134799068Y-144486899D01*
X134665818Y-144736192D01*
X134583764Y-145006691D01*
X134556057Y-145288000D01*
X134583764Y-145569309D01*
X134665818Y-145839808D01*
X134799068Y-146089101D01*
X134978392Y-146307608D01*
X135196899Y-146486932D01*
X135446192Y-146620182D01*
X135716691Y-146702236D01*
X135927508Y-146723000D01*
X136868492Y-146723000D01*
X137079309Y-146702236D01*
X137349808Y-146620182D01*
X137477500Y-146551929D01*
X137477500Y-147433461D01*
X136534854Y-148376108D01*
X135636000Y-148376108D01*
X135511518Y-148388368D01*
X135391820Y-148424678D01*
X135281506Y-148483643D01*
X135184815Y-148562995D01*
X135105463Y-148659686D01*
X135046498Y-148770000D01*
X135010188Y-148889698D01*
X135001809Y-148974776D01*
X134949006Y-148894451D01*
X134756026Y-148698548D01*
X134528535Y-148544058D01*
X134275276Y-148436918D01*
X134201070Y-148421960D01*
X133985000Y-148544460D01*
X133985000Y-149987000D01*
X134005000Y-149987000D01*
X134005000Y-150241000D01*
X133985000Y-150241000D01*
X133985000Y-151683540D01*
X134201070Y-151806040D01*
X134275276Y-151791082D01*
X134528535Y-151683942D01*
X134756026Y-151529452D01*
X134949006Y-151333549D01*
X135001809Y-151253224D01*
X135010188Y-151338302D01*
X135046498Y-151458000D01*
X135105463Y-151568314D01*
X135184815Y-151665005D01*
X135281506Y-151744357D01*
X135391820Y-151803322D01*
X135511518Y-151839632D01*
X135636000Y-151851892D01*
X137160000Y-151851892D01*
X137284482Y-151839632D01*
X137404180Y-151803322D01*
X137514494Y-151744357D01*
X137611185Y-151665005D01*
X137690537Y-151568314D01*
X137749502Y-151458000D01*
X137785812Y-151338302D01*
X137798072Y-151213820D01*
X137798072Y-149806966D01*
X139040001Y-148565038D01*
X139040001Y-151994000D01*
X104800000Y-151994000D01*
X104800000Y-150964000D01*
X117129928Y-150964000D01*
X117142188Y-151088482D01*
X117178498Y-151208180D01*
X117237463Y-151318494D01*
X117316815Y-151415185D01*
X117413506Y-151494537D01*
X117523820Y-151553502D01*
X117643518Y-151589812D01*
X117768000Y-151602072D01*
X118332250Y-151599000D01*
X118491000Y-151440250D01*
X118491000Y-150241000D01*
X117291750Y-150241000D01*
X117133000Y-150399750D01*
X117129928Y-150964000D01*
X104800000Y-150964000D01*
X104800000Y-146336532D01*
X105620227Y-146336532D01*
X105670916Y-146788434D01*
X105808415Y-147221885D01*
X106027486Y-147620373D01*
X106319784Y-147968721D01*
X106674178Y-148253661D01*
X107077167Y-148464338D01*
X107513402Y-148592729D01*
X107966266Y-148633943D01*
X108418512Y-148586410D01*
X108852911Y-148451941D01*
X109252919Y-148235658D01*
X109603300Y-147945798D01*
X109890706Y-147593402D01*
X110104192Y-147191894D01*
X110235626Y-146756566D01*
X110280000Y-146304000D01*
X110279092Y-146238943D01*
X110222098Y-145787792D01*
X110078561Y-145356304D01*
X109853948Y-144960913D01*
X109556814Y-144616680D01*
X109198476Y-144336716D01*
X108792585Y-144131686D01*
X108354600Y-144009398D01*
X107901204Y-143974511D01*
X107449667Y-144028354D01*
X107017187Y-144168875D01*
X106620237Y-144390722D01*
X106273938Y-144685446D01*
X105991480Y-145041820D01*
X105783621Y-145446270D01*
X105658278Y-145883390D01*
X105620227Y-146336532D01*
X104800000Y-146336532D01*
X104800000Y-96774000D01*
X105746057Y-96774000D01*
X105773764Y-97055309D01*
X105855818Y-97325808D01*
X105989068Y-97575101D01*
X106168392Y-97793608D01*
X106386899Y-97972932D01*
X106636192Y-98106182D01*
X106906691Y-98188236D01*
X107117508Y-98209000D01*
X107258492Y-98209000D01*
X107469309Y-98188236D01*
X107739808Y-98106182D01*
X107989101Y-97972932D01*
X108207608Y-97793608D01*
X108386932Y-97575101D01*
X108520182Y-97325808D01*
X108602236Y-97055309D01*
X108629943Y-96774000D01*
X108616023Y-96632665D01*
X113373000Y-96632665D01*
X113373000Y-96915335D01*
X113428147Y-97192574D01*
X113536320Y-97453727D01*
X113693363Y-97688759D01*
X113893241Y-97888637D01*
X114128273Y-98045680D01*
X114389426Y-98153853D01*
X114666665Y-98209000D01*
X114949335Y-98209000D01*
X115226574Y-98153853D01*
X115487727Y-98045680D01*
X115722759Y-97888637D01*
X115922637Y-97688759D01*
X116079680Y-97453727D01*
X116187853Y-97192574D01*
X116243000Y-96915335D01*
X116243000Y-96774000D01*
X117176057Y-96774000D01*
X117203764Y-97055309D01*
X117285818Y-97325808D01*
X117419068Y-97575101D01*
X117598392Y-97793608D01*
X117816899Y-97972932D01*
X118066192Y-98106182D01*
X118336691Y-98188236D01*
X118547508Y-98209000D01*
X118688492Y-98209000D01*
X118899309Y-98188236D01*
X119169808Y-98106182D01*
X119419101Y-97972932D01*
X119637608Y-97793608D01*
X119816932Y-97575101D01*
X119950182Y-97325808D01*
X120032236Y-97055309D01*
X120059943Y-96774000D01*
X120032236Y-96492691D01*
X119950182Y-96222192D01*
X119816932Y-95972899D01*
X119637608Y-95754392D01*
X119419101Y-95575068D01*
X119169808Y-95441818D01*
X118899309Y-95359764D01*
X118688492Y-95339000D01*
X118547508Y-95339000D01*
X118336691Y-95359764D01*
X118066192Y-95441818D01*
X117816899Y-95575068D01*
X117598392Y-95754392D01*
X117419068Y-95972899D01*
X117285818Y-96222192D01*
X117203764Y-96492691D01*
X117176057Y-96774000D01*
X116243000Y-96774000D01*
X116243000Y-96632665D01*
X116187853Y-96355426D01*
X116079680Y-96094273D01*
X115922637Y-95859241D01*
X115722759Y-95659363D01*
X115487727Y-95502320D01*
X115226574Y-95394147D01*
X114949335Y-95339000D01*
X114666665Y-95339000D01*
X114389426Y-95394147D01*
X114128273Y-95502320D01*
X113893241Y-95659363D01*
X113693363Y-95859241D01*
X113536320Y-96094273D01*
X113428147Y-96355426D01*
X113373000Y-96632665D01*
X108616023Y-96632665D01*
X108602236Y-96492691D01*
X108520182Y-96222192D01*
X108386932Y-95972899D01*
X108207608Y-95754392D01*
X107989101Y-95575068D01*
X107739808Y-95441818D01*
X107469309Y-95359764D01*
X107258492Y-95339000D01*
X107117508Y-95339000D01*
X106906691Y-95359764D01*
X106636192Y-95441818D01*
X106386899Y-95575068D01*
X106168392Y-95754392D01*
X105989068Y-95972899D01*
X105855818Y-96222192D01*
X105773764Y-96492691D01*
X105746057Y-96774000D01*
X104800000Y-96774000D01*
X104800000Y-93726000D01*
X105746057Y-93726000D01*
X105773764Y-94007309D01*
X105855818Y-94277808D01*
X105989068Y-94527101D01*
X106168392Y-94745608D01*
X106386899Y-94924932D01*
X106636192Y-95058182D01*
X106906691Y-95140236D01*
X107117508Y-95161000D01*
X107258492Y-95161000D01*
X107469309Y-95140236D01*
X107739808Y-95058182D01*
X107989101Y-94924932D01*
X108207608Y-94745608D01*
X108386932Y-94527101D01*
X108520182Y-94277808D01*
X108602236Y-94007309D01*
X108629943Y-93726000D01*
X108616023Y-93584665D01*
X113373000Y-93584665D01*
X113373000Y-93867335D01*
X113428147Y-94144574D01*
X113536320Y-94405727D01*
X113693363Y-94640759D01*
X113893241Y-94840637D01*
X114128273Y-94997680D01*
X114389426Y-95105853D01*
X114666665Y-95161000D01*
X114949335Y-95161000D01*
X115226574Y-95105853D01*
X115487727Y-94997680D01*
X115722759Y-94840637D01*
X115922637Y-94640759D01*
X116079680Y-94405727D01*
X116187853Y-94144574D01*
X116243000Y-93867335D01*
X116243000Y-93726000D01*
X117176057Y-93726000D01*
X117203764Y-94007309D01*
X117285818Y-94277808D01*
X117419068Y-94527101D01*
X117598392Y-94745608D01*
X117816899Y-94924932D01*
X118066192Y-95058182D01*
X118336691Y-95140236D01*
X118547508Y-95161000D01*
X118688492Y-95161000D01*
X118899309Y-95140236D01*
X119169808Y-95058182D01*
X119419101Y-94924932D01*
X119637608Y-94745608D01*
X119816932Y-94527101D01*
X119950182Y-94277808D01*
X120032236Y-94007309D01*
X120059943Y-93726000D01*
X120046023Y-93584665D01*
X124803000Y-93584665D01*
X124803000Y-93867335D01*
X124858147Y-94144574D01*
X124966320Y-94405727D01*
X125123363Y-94640759D01*
X125323241Y-94840637D01*
X125558273Y-94997680D01*
X125819426Y-95105853D01*
X126096665Y-95161000D01*
X126379335Y-95161000D01*
X126656574Y-95105853D01*
X126917727Y-94997680D01*
X127152759Y-94840637D01*
X127352637Y-94640759D01*
X127509680Y-94405727D01*
X127617853Y-94144574D01*
X127673000Y-93867335D01*
X127673000Y-93584665D01*
X127617853Y-93307426D01*
X127509680Y-93046273D01*
X127352637Y-92811241D01*
X127152759Y-92611363D01*
X126917727Y-92454320D01*
X126656574Y-92346147D01*
X126379335Y-92291000D01*
X126096665Y-92291000D01*
X125819426Y-92346147D01*
X125558273Y-92454320D01*
X125323241Y-92611363D01*
X125123363Y-92811241D01*
X124966320Y-93046273D01*
X124858147Y-93307426D01*
X124803000Y-93584665D01*
X120046023Y-93584665D01*
X120032236Y-93444691D01*
X119950182Y-93174192D01*
X119816932Y-92924899D01*
X119637608Y-92706392D01*
X119419101Y-92527068D01*
X119169808Y-92393818D01*
X118899309Y-92311764D01*
X118688492Y-92291000D01*
X118547508Y-92291000D01*
X118336691Y-92311764D01*
X118066192Y-92393818D01*
X117816899Y-92527068D01*
X117598392Y-92706392D01*
X117419068Y-92924899D01*
X117285818Y-93174192D01*
X117203764Y-93444691D01*
X117176057Y-93726000D01*
X116243000Y-93726000D01*
X116243000Y-93584665D01*
X116187853Y-93307426D01*
X116079680Y-93046273D01*
X115922637Y-92811241D01*
X115722759Y-92611363D01*
X115487727Y-92454320D01*
X115226574Y-92346147D01*
X114949335Y-92291000D01*
X114666665Y-92291000D01*
X114389426Y-92346147D01*
X114128273Y-92454320D01*
X113893241Y-92611363D01*
X113693363Y-92811241D01*
X113536320Y-93046273D01*
X113428147Y-93307426D01*
X113373000Y-93584665D01*
X108616023Y-93584665D01*
X108602236Y-93444691D01*
X108520182Y-93174192D01*
X108386932Y-92924899D01*
X108207608Y-92706392D01*
X107989101Y-92527068D01*
X107739808Y-92393818D01*
X107469309Y-92311764D01*
X107258492Y-92291000D01*
X107117508Y-92291000D01*
X106906691Y-92311764D01*
X106636192Y-92393818D01*
X106386899Y-92527068D01*
X106168392Y-92706392D01*
X105989068Y-92924899D01*
X105855818Y-93174192D01*
X105773764Y-93444691D01*
X105746057Y-93726000D01*
X104800000Y-93726000D01*
X104800000Y-90678000D01*
X105746057Y-90678000D01*
X105773764Y-90959309D01*
X105855818Y-91229808D01*
X105989068Y-91479101D01*
X106168392Y-91697608D01*
X106386899Y-91876932D01*
X106636192Y-92010182D01*
X106906691Y-92092236D01*
X107117508Y-92113000D01*
X107258492Y-92113000D01*
X107469309Y-92092236D01*
X107739808Y-92010182D01*
X107989101Y-91876932D01*
X108207608Y-91697608D01*
X108386932Y-91479101D01*
X108520182Y-91229808D01*
X108602236Y-90959309D01*
X108629943Y-90678000D01*
X108616023Y-90536665D01*
X113373000Y-90536665D01*
X113373000Y-90819335D01*
X113428147Y-91096574D01*
X113536320Y-91357727D01*
X113693363Y-91592759D01*
X113893241Y-91792637D01*
X114128273Y-91949680D01*
X114389426Y-92057853D01*
X114666665Y-92113000D01*
X114949335Y-92113000D01*
X115226574Y-92057853D01*
X115487727Y-91949680D01*
X115722759Y-91792637D01*
X115922637Y-91592759D01*
X116079680Y-91357727D01*
X116187853Y-91096574D01*
X116243000Y-90819335D01*
X116243000Y-90678000D01*
X117176057Y-90678000D01*
X117203764Y-90959309D01*
X117285818Y-91229808D01*
X117419068Y-91479101D01*
X117598392Y-91697608D01*
X117816899Y-91876932D01*
X118066192Y-92010182D01*
X118336691Y-92092236D01*
X118547508Y-92113000D01*
X118688492Y-92113000D01*
X118899309Y-92092236D01*
X119169808Y-92010182D01*
X119419101Y-91876932D01*
X119637608Y-91697608D01*
X119816932Y-91479101D01*
X119950182Y-91229808D01*
X120032236Y-90959309D01*
X120059943Y-90678000D01*
X120046023Y-90536665D01*
X124803000Y-90536665D01*
X124803000Y-90819335D01*
X124858147Y-91096574D01*
X124966320Y-91357727D01*
X125123363Y-91592759D01*
X125323241Y-91792637D01*
X125558273Y-91949680D01*
X125819426Y-92057853D01*
X126096665Y-92113000D01*
X126379335Y-92113000D01*
X126656574Y-92057853D01*
X126917727Y-91949680D01*
X127152759Y-91792637D01*
X127352637Y-91592759D01*
X127509680Y-91357727D01*
X127617853Y-91096574D01*
X127673000Y-90819335D01*
X127673000Y-90536665D01*
X127617853Y-90259426D01*
X127509680Y-89998273D01*
X127352637Y-89763241D01*
X127152759Y-89563363D01*
X126917727Y-89406320D01*
X126656574Y-89298147D01*
X126379335Y-89243000D01*
X126096665Y-89243000D01*
X125819426Y-89298147D01*
X125558273Y-89406320D01*
X125323241Y-89563363D01*
X125123363Y-89763241D01*
X124966320Y-89998273D01*
X124858147Y-90259426D01*
X124803000Y-90536665D01*
X120046023Y-90536665D01*
X120032236Y-90396691D01*
X119950182Y-90126192D01*
X119816932Y-89876899D01*
X119637608Y-89658392D01*
X119419101Y-89479068D01*
X119169808Y-89345818D01*
X118899309Y-89263764D01*
X118688492Y-89243000D01*
X118547508Y-89243000D01*
X118336691Y-89263764D01*
X118066192Y-89345818D01*
X117816899Y-89479068D01*
X117598392Y-89658392D01*
X117419068Y-89876899D01*
X117285818Y-90126192D01*
X117203764Y-90396691D01*
X117176057Y-90678000D01*
X116243000Y-90678000D01*
X116243000Y-90536665D01*
X116187853Y-90259426D01*
X116079680Y-89998273D01*
X115922637Y-89763241D01*
X115722759Y-89563363D01*
X115487727Y-89406320D01*
X115226574Y-89298147D01*
X114949335Y-89243000D01*
X114666665Y-89243000D01*
X114389426Y-89298147D01*
X114128273Y-89406320D01*
X113893241Y-89563363D01*
X113693363Y-89763241D01*
X113536320Y-89998273D01*
X113428147Y-90259426D01*
X113373000Y-90536665D01*
X108616023Y-90536665D01*
X108602236Y-90396691D01*
X108520182Y-90126192D01*
X108386932Y-89876899D01*
X108207608Y-89658392D01*
X107989101Y-89479068D01*
X107739808Y-89345818D01*
X107469309Y-89263764D01*
X107258492Y-89243000D01*
X107117508Y-89243000D01*
X106906691Y-89263764D01*
X106636192Y-89345818D01*
X106386899Y-89479068D01*
X106168392Y-89658392D01*
X105989068Y-89876899D01*
X105855818Y-90126192D01*
X105773764Y-90396691D01*
X105746057Y-90678000D01*
X104800000Y-90678000D01*
X104800000Y-87501048D01*
X104832498Y-87608180D01*
X104891463Y-87718494D01*
X104970815Y-87815185D01*
X105067506Y-87894537D01*
X105177820Y-87953502D01*
X105297518Y-87989812D01*
X105422000Y-88002072D01*
X105886250Y-87999000D01*
X106045000Y-87840250D01*
X106045000Y-86741000D01*
X106025000Y-86741000D01*
X106025000Y-86487000D01*
X106045000Y-86487000D01*
X106045000Y-85387750D01*
X106299000Y-85387750D01*
X106299000Y-86487000D01*
X106319000Y-86487000D01*
X106319000Y-86741000D01*
X106299000Y-86741000D01*
X106299000Y-87840250D01*
X106457750Y-87999000D01*
X106922000Y-88002072D01*
X107046482Y-87989812D01*
X107166180Y-87953502D01*
X107276494Y-87894537D01*
X107373185Y-87815185D01*
X107452537Y-87718494D01*
X107511502Y-87608180D01*
X107547812Y-87488482D01*
X107558445Y-87380517D01*
X107636201Y-87496886D01*
X107829114Y-87689799D01*
X108055957Y-87841371D01*
X108308011Y-87945775D01*
X108575589Y-87999000D01*
X108848411Y-87999000D01*
X109115989Y-87945775D01*
X109368043Y-87841371D01*
X109594886Y-87689799D01*
X109787799Y-87496886D01*
X109939371Y-87270043D01*
X109982000Y-87167127D01*
X110024629Y-87270043D01*
X110176201Y-87496886D01*
X110369114Y-87689799D01*
X110595957Y-87841371D01*
X110848011Y-87945775D01*
X111115589Y-87999000D01*
X111388411Y-87999000D01*
X111655989Y-87945775D01*
X111908043Y-87841371D01*
X112134886Y-87689799D01*
X112204770Y-87619915D01*
X112257463Y-87718494D01*
X112336815Y-87815185D01*
X112433506Y-87894537D01*
X112543820Y-87953502D01*
X112663518Y-87989812D01*
X112788000Y-88002072D01*
X113252250Y-87999000D01*
X113411000Y-87840250D01*
X113411000Y-86741000D01*
X113391000Y-86741000D01*
X113391000Y-86487000D01*
X113411000Y-86487000D01*
X113411000Y-85387750D01*
X113665000Y-85387750D01*
X113665000Y-86487000D01*
X113685000Y-86487000D01*
X113685000Y-86741000D01*
X113665000Y-86741000D01*
X113665000Y-87840250D01*
X113823750Y-87999000D01*
X114288000Y-88002072D01*
X114412482Y-87989812D01*
X114532180Y-87953502D01*
X114642494Y-87894537D01*
X114739185Y-87815185D01*
X114818537Y-87718494D01*
X114877502Y-87608180D01*
X114913812Y-87488482D01*
X114924445Y-87380517D01*
X115002201Y-87496886D01*
X115195114Y-87689799D01*
X115421957Y-87841371D01*
X115674011Y-87945775D01*
X115941589Y-87999000D01*
X116214411Y-87999000D01*
X116481989Y-87945775D01*
X116734043Y-87841371D01*
X116960886Y-87689799D01*
X117153799Y-87496886D01*
X117305371Y-87270043D01*
X117348000Y-87167127D01*
X117390629Y-87270043D01*
X117542201Y-87496886D01*
X117735114Y-87689799D01*
X117961957Y-87841371D01*
X118214011Y-87945775D01*
X118481589Y-87999000D01*
X118754411Y-87999000D01*
X119021989Y-87945775D01*
X119274043Y-87841371D01*
X119500886Y-87689799D01*
X119570770Y-87619915D01*
X119623463Y-87718494D01*
X119702815Y-87815185D01*
X119799506Y-87894537D01*
X119909820Y-87953502D01*
X120029518Y-87989812D01*
X120154000Y-88002072D01*
X120618250Y-87999000D01*
X120777000Y-87840250D01*
X120777000Y-86741000D01*
X120757000Y-86741000D01*
X120757000Y-86487000D01*
X120777000Y-86487000D01*
X120777000Y-85387750D01*
X121031000Y-85387750D01*
X121031000Y-86487000D01*
X121051000Y-86487000D01*
X121051000Y-86741000D01*
X121031000Y-86741000D01*
X121031000Y-87840250D01*
X121189750Y-87999000D01*
X121654000Y-88002072D01*
X121778482Y-87989812D01*
X121898180Y-87953502D01*
X122008494Y-87894537D01*
X122105185Y-87815185D01*
X122184537Y-87718494D01*
X122243502Y-87608180D01*
X122279812Y-87488482D01*
X122290445Y-87380517D01*
X122368201Y-87496886D01*
X122561114Y-87689799D01*
X122787957Y-87841371D01*
X123040011Y-87945775D01*
X123307589Y-87999000D01*
X123580411Y-87999000D01*
X123847989Y-87945775D01*
X124100043Y-87841371D01*
X124326886Y-87689799D01*
X124519799Y-87496886D01*
X124671371Y-87270043D01*
X124714000Y-87167127D01*
X124756629Y-87270043D01*
X124908201Y-87496886D01*
X125101114Y-87689799D01*
X125327957Y-87841371D01*
X125580011Y-87945775D01*
X125847589Y-87999000D01*
X126120411Y-87999000D01*
X126387989Y-87945775D01*
X126640043Y-87841371D01*
X126866886Y-87689799D01*
X127059799Y-87496886D01*
X127211371Y-87270043D01*
X127315775Y-87017989D01*
X127369000Y-86750411D01*
X127369000Y-86477589D01*
X127315775Y-86210011D01*
X127211371Y-85957957D01*
X127059799Y-85731114D01*
X126866886Y-85538201D01*
X126640043Y-85386629D01*
X126387989Y-85282225D01*
X126120411Y-85229000D01*
X125847589Y-85229000D01*
X125580011Y-85282225D01*
X125327957Y-85386629D01*
X125101114Y-85538201D01*
X124908201Y-85731114D01*
X124756629Y-85957957D01*
X124714000Y-86060873D01*
X124671371Y-85957957D01*
X124519799Y-85731114D01*
X124326886Y-85538201D01*
X124100043Y-85386629D01*
X123847989Y-85282225D01*
X123580411Y-85229000D01*
X123307589Y-85229000D01*
X123040011Y-85282225D01*
X122787957Y-85386629D01*
X122561114Y-85538201D01*
X122368201Y-85731114D01*
X122290445Y-85847483D01*
X122279812Y-85739518D01*
X122243502Y-85619820D01*
X122184537Y-85509506D01*
X122105185Y-85412815D01*
X122008494Y-85333463D01*
X121898180Y-85274498D01*
X121778482Y-85238188D01*
X121654000Y-85225928D01*
X121189750Y-85229000D01*
X121031000Y-85387750D01*
X120777000Y-85387750D01*
X120618250Y-85229000D01*
X120154000Y-85225928D01*
X120029518Y-85238188D01*
X119909820Y-85274498D01*
X119799506Y-85333463D01*
X119702815Y-85412815D01*
X119623463Y-85509506D01*
X119570770Y-85608085D01*
X119500886Y-85538201D01*
X119274043Y-85386629D01*
X119021989Y-85282225D01*
X118754411Y-85229000D01*
X118481589Y-85229000D01*
X118214011Y-85282225D01*
X117961957Y-85386629D01*
X117735114Y-85538201D01*
X117542201Y-85731114D01*
X117390629Y-85957957D01*
X117348000Y-86060873D01*
X117305371Y-85957957D01*
X117153799Y-85731114D01*
X116960886Y-85538201D01*
X116734043Y-85386629D01*
X116481989Y-85282225D01*
X116214411Y-85229000D01*
X115941589Y-85229000D01*
X115674011Y-85282225D01*
X115421957Y-85386629D01*
X115195114Y-85538201D01*
X115002201Y-85731114D01*
X114924445Y-85847483D01*
X114913812Y-85739518D01*
X114877502Y-85619820D01*
X114818537Y-85509506D01*
X114739185Y-85412815D01*
X114642494Y-85333463D01*
X114532180Y-85274498D01*
X114412482Y-85238188D01*
X114288000Y-85225928D01*
X113823750Y-85229000D01*
X113665000Y-85387750D01*
X113411000Y-85387750D01*
X113252250Y-85229000D01*
X112788000Y-85225928D01*
X112663518Y-85238188D01*
X112543820Y-85274498D01*
X112433506Y-85333463D01*
X112336815Y-85412815D01*
X112257463Y-85509506D01*
X112204770Y-85608085D01*
X112134886Y-85538201D01*
X111908043Y-85386629D01*
X111655989Y-85282225D01*
X111388411Y-85229000D01*
X111115589Y-85229000D01*
X110848011Y-85282225D01*
X110595957Y-85386629D01*
X110369114Y-85538201D01*
X110176201Y-85731114D01*
X110024629Y-85957957D01*
X109982000Y-86060873D01*
X109939371Y-85957957D01*
X109787799Y-85731114D01*
X109594886Y-85538201D01*
X109368043Y-85386629D01*
X109115989Y-85282225D01*
X108848411Y-85229000D01*
X108575589Y-85229000D01*
X108308011Y-85282225D01*
X108055957Y-85386629D01*
X107829114Y-85538201D01*
X107636201Y-85731114D01*
X107558445Y-85847483D01*
X107547812Y-85739518D01*
X107511502Y-85619820D01*
X107452537Y-85509506D01*
X107373185Y-85412815D01*
X107276494Y-85333463D01*
X107166180Y-85274498D01*
X107046482Y-85238188D01*
X106922000Y-85225928D01*
X106457750Y-85229000D01*
X106299000Y-85387750D01*
X106045000Y-85387750D01*
X105886250Y-85229000D01*
X105422000Y-85225928D01*
X105297518Y-85238188D01*
X105177820Y-85274498D01*
X105067506Y-85333463D01*
X104970815Y-85412815D01*
X104891463Y-85509506D01*
X104832498Y-85619820D01*
X104800000Y-85726952D01*
X104800000Y-82159589D01*
X108343000Y-82159589D01*
X108343000Y-82432411D01*
X108396225Y-82699989D01*
X108500629Y-82952043D01*
X108652201Y-83178886D01*
X108845114Y-83371799D01*
X109071957Y-83523371D01*
X109324011Y-83627775D01*
X109591589Y-83681000D01*
X109864411Y-83681000D01*
X110131989Y-83627775D01*
X110384043Y-83523371D01*
X110610886Y-83371799D01*
X110803799Y-83178886D01*
X110955371Y-82952043D01*
X110998000Y-82849127D01*
X111040629Y-82952043D01*
X111192201Y-83178886D01*
X111385114Y-83371799D01*
X111611957Y-83523371D01*
X111864011Y-83627775D01*
X112131589Y-83681000D01*
X112404411Y-83681000D01*
X112671989Y-83627775D01*
X112924043Y-83523371D01*
X113150886Y-83371799D01*
X113343799Y-83178886D01*
X113421555Y-83062517D01*
X113432188Y-83170482D01*
X113468498Y-83290180D01*
X113527463Y-83400494D01*
X113606815Y-83497185D01*
X113703506Y-83576537D01*
X113813820Y-83635502D01*
X113933518Y-83671812D01*
X114058000Y-83684072D01*
X114522250Y-83681000D01*
X114681000Y-83522250D01*
X114681000Y-82423000D01*
X114661000Y-82423000D01*
X114661000Y-82169000D01*
X114681000Y-82169000D01*
X114681000Y-81069750D01*
X114935000Y-81069750D01*
X114935000Y-82169000D01*
X114955000Y-82169000D01*
X114955000Y-82423000D01*
X114935000Y-82423000D01*
X114935000Y-83522250D01*
X115093750Y-83681000D01*
X115558000Y-83684072D01*
X115682482Y-83671812D01*
X115802180Y-83635502D01*
X115912494Y-83576537D01*
X116009185Y-83497185D01*
X116088537Y-83400494D01*
X116141230Y-83301915D01*
X116211114Y-83371799D01*
X116437957Y-83523371D01*
X116690011Y-83627775D01*
X116957589Y-83681000D01*
X117230411Y-83681000D01*
X117497989Y-83627775D01*
X117750043Y-83523371D01*
X117976886Y-83371799D01*
X118169799Y-83178886D01*
X118321371Y-82952043D01*
X118364000Y-82849127D01*
X118406629Y-82952043D01*
X118558201Y-83178886D01*
X118751114Y-83371799D01*
X118977957Y-83523371D01*
X119230011Y-83627775D01*
X119497589Y-83681000D01*
X119770411Y-83681000D01*
X120037989Y-83627775D01*
X120290043Y-83523371D01*
X120516886Y-83371799D01*
X120709799Y-83178886D01*
X120787555Y-83062517D01*
X120798188Y-83170482D01*
X120834498Y-83290180D01*
X120893463Y-83400494D01*
X120972815Y-83497185D01*
X121069506Y-83576537D01*
X121179820Y-83635502D01*
X121299518Y-83671812D01*
X121424000Y-83684072D01*
X121888250Y-83681000D01*
X122047000Y-83522250D01*
X122047000Y-82423000D01*
X122027000Y-82423000D01*
X122027000Y-82169000D01*
X122047000Y-82169000D01*
X122047000Y-81069750D01*
X122301000Y-81069750D01*
X122301000Y-82169000D01*
X122321000Y-82169000D01*
X122321000Y-82423000D01*
X122301000Y-82423000D01*
X122301000Y-83522250D01*
X122459750Y-83681000D01*
X122924000Y-83684072D01*
X123048482Y-83671812D01*
X123168180Y-83635502D01*
X123278494Y-83576537D01*
X123375185Y-83497185D01*
X123454537Y-83400494D01*
X123507230Y-83301915D01*
X123577114Y-83371799D01*
X123803957Y-83523371D01*
X124056011Y-83627775D01*
X124323589Y-83681000D01*
X124596411Y-83681000D01*
X124863989Y-83627775D01*
X125116043Y-83523371D01*
X125342886Y-83371799D01*
X125535799Y-83178886D01*
X125687371Y-82952043D01*
X125730000Y-82849127D01*
X125772629Y-82952043D01*
X125924201Y-83178886D01*
X126117114Y-83371799D01*
X126343957Y-83523371D01*
X126596011Y-83627775D01*
X126863589Y-83681000D01*
X127136411Y-83681000D01*
X127403989Y-83627775D01*
X127656043Y-83523371D01*
X127882886Y-83371799D01*
X128075799Y-83178886D01*
X128153555Y-83062517D01*
X128164188Y-83170482D01*
X128200498Y-83290180D01*
X128259463Y-83400494D01*
X128338815Y-83497185D01*
X128435506Y-83576537D01*
X128545820Y-83635502D01*
X128665518Y-83671812D01*
X128790000Y-83684072D01*
X129254250Y-83681000D01*
X129413000Y-83522250D01*
X129413000Y-82423000D01*
X129393000Y-82423000D01*
X129393000Y-82169000D01*
X129413000Y-82169000D01*
X129413000Y-81069750D01*
X129254250Y-80911000D01*
X128790000Y-80907928D01*
X128665518Y-80920188D01*
X128545820Y-80956498D01*
X128435506Y-81015463D01*
X128338815Y-81094815D01*
X128259463Y-81191506D01*
X128200498Y-81301820D01*
X128164188Y-81421518D01*
X128153555Y-81529483D01*
X128075799Y-81413114D01*
X127882886Y-81220201D01*
X127656043Y-81068629D01*
X127403989Y-80964225D01*
X127136411Y-80911000D01*
X126863589Y-80911000D01*
X126596011Y-80964225D01*
X126343957Y-81068629D01*
X126117114Y-81220201D01*
X125924201Y-81413114D01*
X125772629Y-81639957D01*
X125730000Y-81742873D01*
X125687371Y-81639957D01*
X125535799Y-81413114D01*
X125342886Y-81220201D01*
X125116043Y-81068629D01*
X124863989Y-80964225D01*
X124596411Y-80911000D01*
X124323589Y-80911000D01*
X124056011Y-80964225D01*
X123803957Y-81068629D01*
X123577114Y-81220201D01*
X123507230Y-81290085D01*
X123454537Y-81191506D01*
X123375185Y-81094815D01*
X123278494Y-81015463D01*
X123168180Y-80956498D01*
X123048482Y-80920188D01*
X122924000Y-80907928D01*
X122459750Y-80911000D01*
X122301000Y-81069750D01*
X122047000Y-81069750D01*
X121888250Y-80911000D01*
X121424000Y-80907928D01*
X121299518Y-80920188D01*
X121179820Y-80956498D01*
X121069506Y-81015463D01*
X120972815Y-81094815D01*
X120893463Y-81191506D01*
X120834498Y-81301820D01*
X120798188Y-81421518D01*
X120787555Y-81529483D01*
X120709799Y-81413114D01*
X120516886Y-81220201D01*
X120290043Y-81068629D01*
X120037989Y-80964225D01*
X119770411Y-80911000D01*
X119497589Y-80911000D01*
X119230011Y-80964225D01*
X118977957Y-81068629D01*
X118751114Y-81220201D01*
X118558201Y-81413114D01*
X118406629Y-81639957D01*
X118364000Y-81742873D01*
X118321371Y-81639957D01*
X118169799Y-81413114D01*
X117976886Y-81220201D01*
X117750043Y-81068629D01*
X117497989Y-80964225D01*
X117230411Y-80911000D01*
X116957589Y-80911000D01*
X116690011Y-80964225D01*
X116437957Y-81068629D01*
X116211114Y-81220201D01*
X116141230Y-81290085D01*
X116088537Y-81191506D01*
X116009185Y-81094815D01*
X115912494Y-81015463D01*
X115802180Y-80956498D01*
X115682482Y-80920188D01*
X115558000Y-80907928D01*
X115093750Y-80911000D01*
X114935000Y-81069750D01*
X114681000Y-81069750D01*
X114522250Y-80911000D01*
X114058000Y-80907928D01*
X113933518Y-80920188D01*
X113813820Y-80956498D01*
X113703506Y-81015463D01*
X113606815Y-81094815D01*
X113527463Y-81191506D01*
X113468498Y-81301820D01*
X113432188Y-81421518D01*
X113421555Y-81529483D01*
X113343799Y-81413114D01*
X113150886Y-81220201D01*
X112924043Y-81068629D01*
X112671989Y-80964225D01*
X112404411Y-80911000D01*
X112131589Y-80911000D01*
X111864011Y-80964225D01*
X111611957Y-81068629D01*
X111385114Y-81220201D01*
X111192201Y-81413114D01*
X111040629Y-81639957D01*
X110998000Y-81742873D01*
X110955371Y-81639957D01*
X110803799Y-81413114D01*
X110610886Y-81220201D01*
X110384043Y-81068629D01*
X110131989Y-80964225D01*
X109864411Y-80911000D01*
X109591589Y-80911000D01*
X109324011Y-80964225D01*
X109071957Y-81068629D01*
X108845114Y-81220201D01*
X108652201Y-81413114D01*
X108500629Y-81639957D01*
X108396225Y-81892011D01*
X108343000Y-82159589D01*
X104800000Y-82159589D01*
X104800000Y-78740000D01*
X107270057Y-78740000D01*
X107297764Y-79021309D01*
X107379818Y-79291808D01*
X107513068Y-79541101D01*
X107692392Y-79759608D01*
X107910899Y-79938932D01*
X108160192Y-80072182D01*
X108430691Y-80154236D01*
X108641508Y-80175000D01*
X108782492Y-80175000D01*
X108993309Y-80154236D01*
X109263808Y-80072182D01*
X109513101Y-79938932D01*
X109731608Y-79759608D01*
X109910932Y-79541101D01*
X110044182Y-79291808D01*
X110126236Y-79021309D01*
X110153943Y-78740000D01*
X110140023Y-78598665D01*
X114897000Y-78598665D01*
X114897000Y-78881335D01*
X114952147Y-79158574D01*
X115060320Y-79419727D01*
X115217363Y-79654759D01*
X115417241Y-79854637D01*
X115652273Y-80011680D01*
X115913426Y-80119853D01*
X116190665Y-80175000D01*
X116473335Y-80175000D01*
X116750574Y-80119853D01*
X117011727Y-80011680D01*
X117246759Y-79854637D01*
X117446637Y-79654759D01*
X117603680Y-79419727D01*
X117711853Y-79158574D01*
X117767000Y-78881335D01*
X117767000Y-78598665D01*
X119469000Y-78598665D01*
X119469000Y-78881335D01*
X119524147Y-79158574D01*
X119632320Y-79419727D01*
X119789363Y-79654759D01*
X119989241Y-79854637D01*
X120224273Y-80011680D01*
X120485426Y-80119853D01*
X120762665Y-80175000D01*
X121045335Y-80175000D01*
X121322574Y-80119853D01*
X121583727Y-80011680D01*
X121818759Y-79854637D01*
X122018637Y-79654759D01*
X122175680Y-79419727D01*
X122283853Y-79158574D01*
X122339000Y-78881335D01*
X122339000Y-78740000D01*
X127082057Y-78740000D01*
X127109764Y-79021309D01*
X127191818Y-79291808D01*
X127325068Y-79541101D01*
X127504392Y-79759608D01*
X127722899Y-79938932D01*
X127972192Y-80072182D01*
X128242691Y-80154236D01*
X128453508Y-80175000D01*
X128594492Y-80175000D01*
X128805309Y-80154236D01*
X129075808Y-80072182D01*
X129325101Y-79938932D01*
X129543608Y-79759608D01*
X129722932Y-79541101D01*
X129856182Y-79291808D01*
X129938236Y-79021309D01*
X129965943Y-78740000D01*
X129938236Y-78458691D01*
X129856182Y-78188192D01*
X129722932Y-77938899D01*
X129543608Y-77720392D01*
X129325101Y-77541068D01*
X129075808Y-77407818D01*
X128805309Y-77325764D01*
X128594492Y-77305000D01*
X128453508Y-77305000D01*
X128242691Y-77325764D01*
X127972192Y-77407818D01*
X127722899Y-77541068D01*
X127504392Y-77720392D01*
X127325068Y-77938899D01*
X127191818Y-78188192D01*
X127109764Y-78458691D01*
X127082057Y-78740000D01*
X122339000Y-78740000D01*
X122339000Y-78598665D01*
X122283853Y-78321426D01*
X122175680Y-78060273D01*
X122018637Y-77825241D01*
X121818759Y-77625363D01*
X121583727Y-77468320D01*
X121322574Y-77360147D01*
X121045335Y-77305000D01*
X120762665Y-77305000D01*
X120485426Y-77360147D01*
X120224273Y-77468320D01*
X119989241Y-77625363D01*
X119789363Y-77825241D01*
X119632320Y-78060273D01*
X119524147Y-78321426D01*
X119469000Y-78598665D01*
X117767000Y-78598665D01*
X117711853Y-78321426D01*
X117603680Y-78060273D01*
X117446637Y-77825241D01*
X117246759Y-77625363D01*
X117011727Y-77468320D01*
X116750574Y-77360147D01*
X116473335Y-77305000D01*
X116190665Y-77305000D01*
X115913426Y-77360147D01*
X115652273Y-77468320D01*
X115417241Y-77625363D01*
X115217363Y-77825241D01*
X115060320Y-78060273D01*
X114952147Y-78321426D01*
X114897000Y-78598665D01*
X110140023Y-78598665D01*
X110126236Y-78458691D01*
X110044182Y-78188192D01*
X109910932Y-77938899D01*
X109731608Y-77720392D01*
X109513101Y-77541068D01*
X109263808Y-77407818D01*
X108993309Y-77325764D01*
X108782492Y-77305000D01*
X108641508Y-77305000D01*
X108430691Y-77325764D01*
X108160192Y-77407818D01*
X107910899Y-77541068D01*
X107692392Y-77720392D01*
X107513068Y-77938899D01*
X107379818Y-78188192D01*
X107297764Y-78458691D01*
X107270057Y-78740000D01*
X104800000Y-78740000D01*
X104800000Y-75692000D01*
X107270057Y-75692000D01*
X107297764Y-75973309D01*
X107379818Y-76243808D01*
X107513068Y-76493101D01*
X107692392Y-76711608D01*
X107910899Y-76890932D01*
X108160192Y-77024182D01*
X108430691Y-77106236D01*
X108641508Y-77127000D01*
X108782492Y-77127000D01*
X108993309Y-77106236D01*
X109263808Y-77024182D01*
X109513101Y-76890932D01*
X109731608Y-76711608D01*
X109910932Y-76493101D01*
X110044182Y-76243808D01*
X110126236Y-75973309D01*
X110153943Y-75692000D01*
X110140023Y-75550665D01*
X114897000Y-75550665D01*
X114897000Y-75833335D01*
X114952147Y-76110574D01*
X115060320Y-76371727D01*
X115217363Y-76606759D01*
X115417241Y-76806637D01*
X115652273Y-76963680D01*
X115913426Y-77071853D01*
X116190665Y-77127000D01*
X116473335Y-77127000D01*
X116750574Y-77071853D01*
X117011727Y-76963680D01*
X117246759Y-76806637D01*
X117446637Y-76606759D01*
X117603680Y-76371727D01*
X117711853Y-76110574D01*
X117767000Y-75833335D01*
X117767000Y-75550665D01*
X119469000Y-75550665D01*
X119469000Y-75833335D01*
X119524147Y-76110574D01*
X119632320Y-76371727D01*
X119789363Y-76606759D01*
X119989241Y-76806637D01*
X120224273Y-76963680D01*
X120485426Y-77071853D01*
X120762665Y-77127000D01*
X121045335Y-77127000D01*
X121322574Y-77071853D01*
X121583727Y-76963680D01*
X121818759Y-76806637D01*
X122018637Y-76606759D01*
X122175680Y-76371727D01*
X122283853Y-76110574D01*
X122339000Y-75833335D01*
X122339000Y-75692000D01*
X127082057Y-75692000D01*
X127109764Y-75973309D01*
X127191818Y-76243808D01*
X127325068Y-76493101D01*
X127504392Y-76711608D01*
X127722899Y-76890932D01*
X127972192Y-77024182D01*
X128242691Y-77106236D01*
X128453508Y-77127000D01*
X128594492Y-77127000D01*
X128805309Y-77106236D01*
X129075808Y-77024182D01*
X129325101Y-76890932D01*
X129543608Y-76711608D01*
X129722932Y-76493101D01*
X129856182Y-76243808D01*
X129938236Y-75973309D01*
X129965943Y-75692000D01*
X129938236Y-75410691D01*
X129856182Y-75140192D01*
X129722932Y-74890899D01*
X129543608Y-74672392D01*
X129325101Y-74493068D01*
X129075808Y-74359818D01*
X128805309Y-74277764D01*
X128594492Y-74257000D01*
X128453508Y-74257000D01*
X128242691Y-74277764D01*
X127972192Y-74359818D01*
X127722899Y-74493068D01*
X127504392Y-74672392D01*
X127325068Y-74890899D01*
X127191818Y-75140192D01*
X127109764Y-75410691D01*
X127082057Y-75692000D01*
X122339000Y-75692000D01*
X122339000Y-75550665D01*
X122283853Y-75273426D01*
X122175680Y-75012273D01*
X122018637Y-74777241D01*
X121818759Y-74577363D01*
X121583727Y-74420320D01*
X121322574Y-74312147D01*
X121045335Y-74257000D01*
X120762665Y-74257000D01*
X120485426Y-74312147D01*
X120224273Y-74420320D01*
X119989241Y-74577363D01*
X119789363Y-74777241D01*
X119632320Y-75012273D01*
X119524147Y-75273426D01*
X119469000Y-75550665D01*
X117767000Y-75550665D01*
X117711853Y-75273426D01*
X117603680Y-75012273D01*
X117446637Y-74777241D01*
X117246759Y-74577363D01*
X117011727Y-74420320D01*
X116750574Y-74312147D01*
X116473335Y-74257000D01*
X116190665Y-74257000D01*
X115913426Y-74312147D01*
X115652273Y-74420320D01*
X115417241Y-74577363D01*
X115217363Y-74777241D01*
X115060320Y-75012273D01*
X114952147Y-75273426D01*
X114897000Y-75550665D01*
X110140023Y-75550665D01*
X110126236Y-75410691D01*
X110044182Y-75140192D01*
X109910932Y-74890899D01*
X109731608Y-74672392D01*
X109513101Y-74493068D01*
X109263808Y-74359818D01*
X108993309Y-74277764D01*
X108782492Y-74257000D01*
X108641508Y-74257000D01*
X108430691Y-74277764D01*
X108160192Y-74359818D01*
X107910899Y-74493068D01*
X107692392Y-74672392D01*
X107513068Y-74890899D01*
X107379818Y-75140192D01*
X107297764Y-75410691D01*
X107270057Y-75692000D01*
X104800000Y-75692000D01*
X104800000Y-72644000D01*
X107270057Y-72644000D01*
X107297764Y-72925309D01*
X107379818Y-73195808D01*
X107513068Y-73445101D01*
X107692392Y-73663608D01*
X107910899Y-73842932D01*
X108160192Y-73976182D01*
X108430691Y-74058236D01*
X108641508Y-74079000D01*
X108782492Y-74079000D01*
X108993309Y-74058236D01*
X109263808Y-73976182D01*
X109513101Y-73842932D01*
X109731608Y-73663608D01*
X109910932Y-73445101D01*
X110044182Y-73195808D01*
X110126236Y-72925309D01*
X110153943Y-72644000D01*
X110140023Y-72502665D01*
X114897000Y-72502665D01*
X114897000Y-72785335D01*
X114952147Y-73062574D01*
X115060320Y-73323727D01*
X115217363Y-73558759D01*
X115417241Y-73758637D01*
X115652273Y-73915680D01*
X115913426Y-74023853D01*
X116190665Y-74079000D01*
X116473335Y-74079000D01*
X116750574Y-74023853D01*
X117011727Y-73915680D01*
X117246759Y-73758637D01*
X117446637Y-73558759D01*
X117603680Y-73323727D01*
X117711853Y-73062574D01*
X117767000Y-72785335D01*
X117767000Y-72502665D01*
X119469000Y-72502665D01*
X119469000Y-72785335D01*
X119524147Y-73062574D01*
X119632320Y-73323727D01*
X119789363Y-73558759D01*
X119989241Y-73758637D01*
X120224273Y-73915680D01*
X120485426Y-74023853D01*
X120762665Y-74079000D01*
X121045335Y-74079000D01*
X121322574Y-74023853D01*
X121583727Y-73915680D01*
X121818759Y-73758637D01*
X122018637Y-73558759D01*
X122175680Y-73323727D01*
X122283853Y-73062574D01*
X122339000Y-72785335D01*
X122339000Y-72502665D01*
X122283853Y-72225426D01*
X122175680Y-71964273D01*
X122018637Y-71729241D01*
X121818759Y-71529363D01*
X121583727Y-71372320D01*
X121322574Y-71264147D01*
X121045335Y-71209000D01*
X120762665Y-71209000D01*
X120485426Y-71264147D01*
X120224273Y-71372320D01*
X119989241Y-71529363D01*
X119789363Y-71729241D01*
X119632320Y-71964273D01*
X119524147Y-72225426D01*
X119469000Y-72502665D01*
X117767000Y-72502665D01*
X117711853Y-72225426D01*
X117603680Y-71964273D01*
X117446637Y-71729241D01*
X117246759Y-71529363D01*
X117011727Y-71372320D01*
X116750574Y-71264147D01*
X116473335Y-71209000D01*
X116190665Y-71209000D01*
X115913426Y-71264147D01*
X115652273Y-71372320D01*
X115417241Y-71529363D01*
X115217363Y-71729241D01*
X115060320Y-71964273D01*
X114952147Y-72225426D01*
X114897000Y-72502665D01*
X110140023Y-72502665D01*
X110126236Y-72362691D01*
X110044182Y-72092192D01*
X109910932Y-71842899D01*
X109731608Y-71624392D01*
X109513101Y-71445068D01*
X109263808Y-71311818D01*
X108993309Y-71229764D01*
X108782492Y-71209000D01*
X108641508Y-71209000D01*
X108430691Y-71229764D01*
X108160192Y-71311818D01*
X107910899Y-71445068D01*
X107692392Y-71624392D01*
X107513068Y-71842899D01*
X107379818Y-72092192D01*
X107297764Y-72362691D01*
X107270057Y-72644000D01*
X104800000Y-72644000D01*
X104800000Y-65056532D01*
X105620227Y-65056532D01*
X105670916Y-65508434D01*
X105808415Y-65941885D01*
X106027486Y-66340373D01*
X106319784Y-66688721D01*
X106674178Y-66973661D01*
X107077167Y-67184338D01*
X107513402Y-67312729D01*
X107966266Y-67353943D01*
X108418512Y-67306410D01*
X108852911Y-67171941D01*
X109252919Y-66955658D01*
X109603300Y-66665798D01*
X109890706Y-66313402D01*
X110104192Y-65911894D01*
X110235626Y-65476566D01*
X110280000Y-65024000D01*
X110279092Y-64958943D01*
X110222098Y-64507792D01*
X110078561Y-64076304D01*
X109853948Y-63680913D01*
X109556814Y-63336680D01*
X109198476Y-63056716D01*
X108792585Y-62851686D01*
X108354600Y-62729398D01*
X107901204Y-62694511D01*
X107449667Y-62748354D01*
X107017187Y-62888875D01*
X106620237Y-63110722D01*
X106273938Y-63405446D01*
X105991480Y-63761820D01*
X105783621Y-64166270D01*
X105658278Y-64603390D01*
X105620227Y-65056532D01*
X104800000Y-65056532D01*
X104800000Y-58064000D01*
X113234044Y-58064000D01*
X113205459Y-58087459D01*
X113205459Y-58087459D01*
G37*
X113205459Y-58087459D02*
X113179606Y-58118961D01*
X112488639Y-58809928D01*
X111518000Y-58809928D01*
X111393518Y-58822188D01*
X111273820Y-58858498D01*
X111163506Y-58917463D01*
X111066815Y-58996815D01*
X110987463Y-59093506D01*
X110928498Y-59203820D01*
X110892188Y-59323518D01*
X110879928Y-59448000D01*
X110879928Y-60948000D01*
X110892188Y-61072482D01*
X110928498Y-61192180D01*
X110987463Y-61302494D01*
X111066815Y-61399185D01*
X111163506Y-61478537D01*
X111273820Y-61537502D01*
X111393518Y-61573812D01*
X111442501Y-61578636D01*
X111442500Y-64475449D01*
X111438506Y-64516000D01*
X111442500Y-64556550D01*
X111442500Y-64556552D01*
X111454444Y-64677825D01*
X111477444Y-64753646D01*
X111501647Y-64833433D01*
X111578301Y-64976842D01*
X111605659Y-65010177D01*
X111681459Y-65102541D01*
X111712966Y-65128398D01*
X113433611Y-66849045D01*
X113459459Y-66880541D01*
X113490955Y-66906389D01*
X113490958Y-66906392D01*
X113585157Y-66983699D01*
X113728566Y-67060353D01*
X113884174Y-67107556D01*
X114005447Y-67119500D01*
X114005449Y-67119500D01*
X114046000Y-67123494D01*
X114086550Y-67119500D01*
X118248268Y-67119500D01*
X118288818Y-67123494D01*
X118329368Y-67119500D01*
X118329371Y-67119500D01*
X118450644Y-67107556D01*
X118606252Y-67060353D01*
X118749660Y-66983699D01*
X118875359Y-66880541D01*
X118901216Y-66849034D01*
X119592178Y-66158072D01*
X120108640Y-66158072D01*
X121815606Y-67865039D01*
X121841459Y-67896541D01*
X121879505Y-67927764D01*
X121967156Y-67999698D01*
X121967158Y-67999699D01*
X122110566Y-68076353D01*
X122266174Y-68123556D01*
X122387447Y-68135500D01*
X122387456Y-68135500D01*
X122427999Y-68139493D01*
X122468542Y-68135500D01*
X122657058Y-68135500D01*
X122642899Y-68143068D01*
X122424392Y-68322392D01*
X122245068Y-68540899D01*
X122174000Y-68673858D01*
X122102932Y-68540899D01*
X121923608Y-68322392D01*
X121705101Y-68143068D01*
X121455808Y-68009818D01*
X121185309Y-67927764D01*
X120974492Y-67907000D01*
X120833508Y-67907000D01*
X120622691Y-67927764D01*
X120352192Y-68009818D01*
X120102899Y-68143068D01*
X119884392Y-68322392D01*
X119705068Y-68540899D01*
X119634000Y-68673858D01*
X119562932Y-68540899D01*
X119383608Y-68322392D01*
X119165101Y-68143068D01*
X118915808Y-68009818D01*
X118645309Y-67927764D01*
X118434492Y-67907000D01*
X118293508Y-67907000D01*
X118082691Y-67927764D01*
X117812192Y-68009818D01*
X117562899Y-68143068D01*
X117344392Y-68322392D01*
X117165068Y-68540899D01*
X117094000Y-68673858D01*
X117022932Y-68540899D01*
X116843608Y-68322392D01*
X116625101Y-68143068D01*
X116375808Y-68009818D01*
X116105309Y-67927764D01*
X115894492Y-67907000D01*
X115753508Y-67907000D01*
X115542691Y-67927764D01*
X115272192Y-68009818D01*
X115022899Y-68143068D01*
X114804392Y-68322392D01*
X114625068Y-68540899D01*
X114554000Y-68673858D01*
X114482932Y-68540899D01*
X114303608Y-68322392D01*
X114085101Y-68143068D01*
X113835808Y-68009818D01*
X113565309Y-67927764D01*
X113354492Y-67907000D01*
X113213508Y-67907000D01*
X113002691Y-67927764D01*
X112732192Y-68009818D01*
X112482899Y-68143068D01*
X112264392Y-68322392D01*
X112085068Y-68540899D01*
X111951818Y-68790192D01*
X111869764Y-69060691D01*
X111842057Y-69342000D01*
X111869764Y-69623309D01*
X111951818Y-69893808D01*
X112085068Y-70143101D01*
X112264392Y-70361608D01*
X112482899Y-70540932D01*
X112732192Y-70674182D01*
X113002691Y-70756236D01*
X113213508Y-70777000D01*
X113354492Y-70777000D01*
X113565309Y-70756236D01*
X113835808Y-70674182D01*
X114085101Y-70540932D01*
X114303608Y-70361608D01*
X114482932Y-70143101D01*
X114554000Y-70010142D01*
X114625068Y-70143101D01*
X114804392Y-70361608D01*
X115022899Y-70540932D01*
X115272192Y-70674182D01*
X115542691Y-70756236D01*
X115753508Y-70777000D01*
X115894492Y-70777000D01*
X116105309Y-70756236D01*
X116375808Y-70674182D01*
X116625101Y-70540932D01*
X116843608Y-70361608D01*
X117022932Y-70143101D01*
X117094000Y-70010142D01*
X117165068Y-70143101D01*
X117344392Y-70361608D01*
X117562899Y-70540932D01*
X117812192Y-70674182D01*
X118082691Y-70756236D01*
X118293508Y-70777000D01*
X118434492Y-70777000D01*
X118645309Y-70756236D01*
X118915808Y-70674182D01*
X119165101Y-70540932D01*
X119383608Y-70361608D01*
X119562932Y-70143101D01*
X119634000Y-70010142D01*
X119705068Y-70143101D01*
X119884392Y-70361608D01*
X120102899Y-70540932D01*
X120352192Y-70674182D01*
X120622691Y-70756236D01*
X120833508Y-70777000D01*
X120974492Y-70777000D01*
X121185309Y-70756236D01*
X121455808Y-70674182D01*
X121705101Y-70540932D01*
X121923608Y-70361608D01*
X122102932Y-70143101D01*
X122174000Y-70010142D01*
X122245068Y-70143101D01*
X122424392Y-70361608D01*
X122642899Y-70540932D01*
X122892192Y-70674182D01*
X123162691Y-70756236D01*
X123373508Y-70777000D01*
X123514492Y-70777000D01*
X123725309Y-70756236D01*
X123995808Y-70674182D01*
X124245101Y-70540932D01*
X124463608Y-70361608D01*
X124642932Y-70143101D01*
X124714000Y-70010142D01*
X124785068Y-70143101D01*
X124964392Y-70361608D01*
X125182899Y-70540932D01*
X125432192Y-70674182D01*
X125702691Y-70756236D01*
X125913508Y-70777000D01*
X126054492Y-70777000D01*
X126265309Y-70756236D01*
X126535808Y-70674182D01*
X126785101Y-70540932D01*
X127003608Y-70361608D01*
X127096419Y-70248518D01*
X127098188Y-70266482D01*
X127134498Y-70386180D01*
X127193463Y-70496494D01*
X127272815Y-70593185D01*
X127369506Y-70672537D01*
X127479820Y-70731502D01*
X127599518Y-70767812D01*
X127724000Y-70780072D01*
X127739337Y-70780072D01*
X127757647Y-70840433D01*
X127834301Y-70983842D01*
X127868214Y-71025165D01*
X127937459Y-71109541D01*
X127968966Y-71135398D01*
X128105076Y-71271508D01*
X127972192Y-71311818D01*
X127722899Y-71445068D01*
X127504392Y-71624392D01*
X127325068Y-71842899D01*
X127191818Y-72092192D01*
X127109764Y-72362691D01*
X127082057Y-72644000D01*
X127109764Y-72925309D01*
X127191818Y-73195808D01*
X127325068Y-73445101D01*
X127504392Y-73663608D01*
X127722899Y-73842932D01*
X127972192Y-73976182D01*
X128242691Y-74058236D01*
X128453508Y-74079000D01*
X128594492Y-74079000D01*
X128805309Y-74058236D01*
X129075808Y-73976182D01*
X129325101Y-73842932D01*
X129543608Y-73663608D01*
X129722932Y-73445101D01*
X129856182Y-73195808D01*
X129896491Y-73062924D01*
X130095366Y-73261799D01*
X130095366Y-80909216D01*
X129825750Y-80911000D01*
X129667000Y-81069750D01*
X129667000Y-82169000D01*
X129687000Y-82169000D01*
X129687000Y-82423000D01*
X129667000Y-82423000D01*
X129667000Y-83522250D01*
X129825750Y-83681000D01*
X130095365Y-83682784D01*
X130095365Y-94035202D01*
X127643949Y-96486618D01*
X127617853Y-96355426D01*
X127509680Y-96094273D01*
X127352637Y-95859241D01*
X127152759Y-95659363D01*
X126917727Y-95502320D01*
X126656574Y-95394147D01*
X126379335Y-95339000D01*
X126096665Y-95339000D01*
X125819426Y-95394147D01*
X125558273Y-95502320D01*
X125323241Y-95659363D01*
X125123363Y-95859241D01*
X124966320Y-96094273D01*
X124858147Y-96355426D01*
X124803000Y-96632665D01*
X124803000Y-96915335D01*
X124858147Y-97192574D01*
X124966320Y-97453727D01*
X125123363Y-97688759D01*
X125323241Y-97888637D01*
X125558273Y-98045680D01*
X125819426Y-98153853D01*
X125950619Y-98179949D01*
X125896068Y-98234500D01*
X109514550Y-98234500D01*
X109474000Y-98230506D01*
X109433449Y-98234500D01*
X109433447Y-98234500D01*
X109312174Y-98246444D01*
X109158824Y-98292962D01*
X109156566Y-98293647D01*
X109013157Y-98370301D01*
X108918958Y-98447608D01*
X108918955Y-98447611D01*
X108887459Y-98473459D01*
X108861611Y-98504955D01*
X106124961Y-101241607D01*
X106093460Y-101267459D01*
X106067609Y-101298959D01*
X105990301Y-101393158D01*
X105913647Y-101536567D01*
X105866445Y-101692174D01*
X105850506Y-101854000D01*
X105854501Y-101894561D01*
X105854500Y-140421447D01*
X105850506Y-140462000D01*
X105854500Y-140502550D01*
X105854500Y-140502552D01*
X105866444Y-140623825D01*
X105902689Y-140743309D01*
X105913647Y-140779433D01*
X105990301Y-140922842D01*
X106024214Y-140964165D01*
X106093459Y-141048541D01*
X106124966Y-141074398D01*
X107845611Y-142795045D01*
X107871459Y-142826541D01*
X107902955Y-142852389D01*
X107902958Y-142852392D01*
X107997157Y-142929699D01*
X108120295Y-142995518D01*
X108140566Y-143006353D01*
X108296174Y-143053556D01*
X108417447Y-143065500D01*
X108417449Y-143065500D01*
X108458000Y-143069494D01*
X108498550Y-143065500D01*
X110910068Y-143065500D01*
X116227607Y-148383040D01*
X116253459Y-148414541D01*
X116379158Y-148517699D01*
X116522566Y-148594353D01*
X116678174Y-148641556D01*
X116799447Y-148653500D01*
X116799456Y-148653500D01*
X116839999Y-148657493D01*
X116880542Y-148653500D01*
X117593041Y-148653500D01*
X117523820Y-148674498D01*
X117413506Y-148733463D01*
X117316815Y-148812815D01*
X117237463Y-148909506D01*
X117178498Y-149019820D01*
X117142188Y-149139518D01*
X117129928Y-149264000D01*
X117133000Y-149828250D01*
X117291750Y-149987000D01*
X118491000Y-149987000D01*
X118491000Y-149967000D01*
X118745000Y-149967000D01*
X118745000Y-149987000D01*
X118765000Y-149987000D01*
X118765000Y-150241000D01*
X118745000Y-150241000D01*
X118745000Y-151440250D01*
X118903750Y-151599000D01*
X119468000Y-151602072D01*
X119592482Y-151589812D01*
X119712180Y-151553502D01*
X119822494Y-151494537D01*
X119919185Y-151415185D01*
X119998537Y-151318494D01*
X120057502Y-151208180D01*
X120078393Y-151139313D01*
X120102866Y-151169134D01*
X120328986Y-151354706D01*
X120586966Y-151492599D01*
X120866889Y-151577513D01*
X121085050Y-151599000D01*
X121230950Y-151599000D01*
X121449111Y-151577513D01*
X121729034Y-151492599D01*
X121987014Y-151354706D01*
X122213134Y-151169134D01*
X122398706Y-150943014D01*
X122428000Y-150888209D01*
X122457294Y-150943014D01*
X122642866Y-151169134D01*
X122868986Y-151354706D01*
X123126966Y-151492599D01*
X123406889Y-151577513D01*
X123625050Y-151599000D01*
X123770950Y-151599000D01*
X123989111Y-151577513D01*
X124269034Y-151492599D01*
X124527014Y-151354706D01*
X124753134Y-151169134D01*
X124938706Y-150943014D01*
X124968000Y-150888209D01*
X124997294Y-150943014D01*
X125182866Y-151169134D01*
X125408986Y-151354706D01*
X125666966Y-151492599D01*
X125946889Y-151577513D01*
X126165050Y-151599000D01*
X126310950Y-151599000D01*
X126529111Y-151577513D01*
X126809034Y-151492599D01*
X127067014Y-151354706D01*
X127293134Y-151169134D01*
X127478706Y-150943014D01*
X127616599Y-150685034D01*
X127701513Y-150405111D01*
X127730185Y-150114000D01*
X127715503Y-149964936D01*
X128419606Y-150669039D01*
X128445459Y-150700541D01*
X128498720Y-150744251D01*
X128571157Y-150803699D01*
X128596244Y-150817108D01*
X128714566Y-150880353D01*
X128870174Y-150927556D01*
X128991447Y-150939500D01*
X128991449Y-150939500D01*
X129031999Y-150943494D01*
X129072550Y-150939500D01*
X130006076Y-150939500D01*
X130021096Y-150989014D01*
X130150817Y-151231706D01*
X130325392Y-151444427D01*
X130538113Y-151619003D01*
X130780805Y-151748724D01*
X131044140Y-151828606D01*
X131318000Y-151855579D01*
X131591859Y-151828606D01*
X131855194Y-151748724D01*
X132097886Y-151619003D01*
X132310607Y-151444428D01*
X132485183Y-151231707D01*
X132589038Y-151037407D01*
X132615941Y-151103762D01*
X132766994Y-151333549D01*
X132959974Y-151529452D01*
X133187465Y-151683942D01*
X133440724Y-151791082D01*
X133514930Y-151806040D01*
X133731000Y-151683540D01*
X133731000Y-150241000D01*
X133711000Y-150241000D01*
X133711000Y-149987000D01*
X133731000Y-149987000D01*
X133731000Y-148544460D01*
X133514930Y-148421960D01*
X133440724Y-148436918D01*
X133187465Y-148544058D01*
X132959974Y-148698548D01*
X132766994Y-148894451D01*
X132615941Y-149124238D01*
X132589038Y-149190593D01*
X132485183Y-148996293D01*
X132310608Y-148783572D01*
X132097887Y-148608997D01*
X131855195Y-148479276D01*
X131591860Y-148399394D01*
X131318000Y-148372421D01*
X131044141Y-148399394D01*
X130780806Y-148479276D01*
X130538114Y-148608997D01*
X130325393Y-148783572D01*
X130150817Y-148996293D01*
X130021096Y-149238985D01*
X130006076Y-149288500D01*
X129373933Y-149288500D01*
X127358398Y-147272966D01*
X127332541Y-147241459D01*
X127206842Y-147138301D01*
X127063434Y-147061647D01*
X126907826Y-147014444D01*
X126786553Y-147002500D01*
X126786550Y-147002500D01*
X126746000Y-146998506D01*
X126705450Y-147002500D01*
X117181933Y-147002500D01*
X115359433Y-145180000D01*
X117887928Y-145180000D01*
X117900188Y-145304482D01*
X117936498Y-145424180D01*
X117995463Y-145534494D01*
X118074815Y-145631185D01*
X118171506Y-145710537D01*
X118281820Y-145769502D01*
X118401518Y-145805812D01*
X118526000Y-145818072D01*
X118890250Y-145815000D01*
X119049000Y-145656250D01*
X119049000Y-144907000D01*
X119303000Y-144907000D01*
X119303000Y-145656250D01*
X119461750Y-145815000D01*
X119826000Y-145818072D01*
X119950482Y-145805812D01*
X120070180Y-145769502D01*
X120180494Y-145710537D01*
X120277185Y-145631185D01*
X120356537Y-145534494D01*
X120415502Y-145424180D01*
X120451812Y-145304482D01*
X120464072Y-145180000D01*
X120461000Y-145065750D01*
X120302250Y-144907000D01*
X119303000Y-144907000D01*
X119049000Y-144907000D01*
X118049750Y-144907000D01*
X117891000Y-145065750D01*
X117887928Y-145180000D01*
X115359433Y-145180000D01*
X111864398Y-141684966D01*
X111838541Y-141653459D01*
X111712842Y-141550301D01*
X111569434Y-141473647D01*
X111413826Y-141426444D01*
X111292553Y-141414500D01*
X111292550Y-141414500D01*
X111252000Y-141410506D01*
X111211450Y-141414500D01*
X110294682Y-141414500D01*
X110418932Y-141263101D01*
X110552182Y-141013808D01*
X110634236Y-140743309D01*
X110661943Y-140462000D01*
X110634236Y-140180691D01*
X110552182Y-139910192D01*
X110418932Y-139660899D01*
X110239608Y-139442392D01*
X110021101Y-139263068D01*
X109771808Y-139129818D01*
X109501309Y-139047764D01*
X109290492Y-139027000D01*
X109149508Y-139027000D01*
X108938691Y-139047764D01*
X108668192Y-139129818D01*
X108418899Y-139263068D01*
X108200392Y-139442392D01*
X108021068Y-139660899D01*
X107887818Y-139910192D01*
X107805764Y-140180691D01*
X107784277Y-140398845D01*
X107505500Y-140120068D01*
X107505500Y-137414000D01*
X107778057Y-137414000D01*
X107805764Y-137695309D01*
X107887818Y-137965808D01*
X108021068Y-138215101D01*
X108200392Y-138433608D01*
X108418899Y-138612932D01*
X108668192Y-138746182D01*
X108938691Y-138828236D01*
X109149508Y-138849000D01*
X109290492Y-138849000D01*
X109501309Y-138828236D01*
X109771808Y-138746182D01*
X110021101Y-138612932D01*
X110239608Y-138433608D01*
X110418932Y-138215101D01*
X110552182Y-137965808D01*
X110634236Y-137695309D01*
X110661943Y-137414000D01*
X110634236Y-137132691D01*
X110552182Y-136862192D01*
X110418932Y-136612899D01*
X110239608Y-136394392D01*
X110021101Y-136215068D01*
X109771808Y-136081818D01*
X109501309Y-135999764D01*
X109290492Y-135979000D01*
X109149508Y-135979000D01*
X108938691Y-135999764D01*
X108668192Y-136081818D01*
X108418899Y-136215068D01*
X108200392Y-136394392D01*
X108021068Y-136612899D01*
X107887818Y-136862192D01*
X107805764Y-137132691D01*
X107778057Y-137414000D01*
X107505500Y-137414000D01*
X107505500Y-102195932D01*
X109385901Y-100315532D01*
X109265818Y-100540192D01*
X109183764Y-100810691D01*
X109156057Y-101092000D01*
X109183764Y-101373309D01*
X109265818Y-101643808D01*
X109399068Y-101893101D01*
X109578392Y-102111608D01*
X109796899Y-102290932D01*
X109929858Y-102362000D01*
X109796899Y-102433068D01*
X109578392Y-102612392D01*
X109399068Y-102830899D01*
X109265818Y-103080192D01*
X109183764Y-103350691D01*
X109156057Y-103632000D01*
X109183764Y-103913309D01*
X109265818Y-104183808D01*
X109399068Y-104433101D01*
X109578392Y-104651608D01*
X109796899Y-104830932D01*
X109929858Y-104902000D01*
X109796899Y-104973068D01*
X109578392Y-105152392D01*
X109399068Y-105370899D01*
X109265818Y-105620192D01*
X109183764Y-105890691D01*
X109156057Y-106172000D01*
X109183764Y-106453309D01*
X109265818Y-106723808D01*
X109399068Y-106973101D01*
X109578392Y-107191608D01*
X109796899Y-107370932D01*
X109929858Y-107442000D01*
X109796899Y-107513068D01*
X109578392Y-107692392D01*
X109399068Y-107910899D01*
X109265818Y-108160192D01*
X109183764Y-108430691D01*
X109156057Y-108712000D01*
X109183764Y-108993309D01*
X109265818Y-109263808D01*
X109399068Y-109513101D01*
X109578392Y-109731608D01*
X109796899Y-109910932D01*
X109929858Y-109982000D01*
X109796899Y-110053068D01*
X109578392Y-110232392D01*
X109399068Y-110450899D01*
X109265818Y-110700192D01*
X109183764Y-110970691D01*
X109156057Y-111252000D01*
X109183764Y-111533309D01*
X109265818Y-111803808D01*
X109399068Y-112053101D01*
X109578392Y-112271608D01*
X109796899Y-112450932D01*
X109929858Y-112522000D01*
X109796899Y-112593068D01*
X109578392Y-112772392D01*
X109399068Y-112990899D01*
X109265818Y-113240192D01*
X109183764Y-113510691D01*
X109156057Y-113792000D01*
X109183764Y-114073309D01*
X109265818Y-114343808D01*
X109399068Y-114593101D01*
X109578392Y-114811608D01*
X109796899Y-114990932D01*
X109929858Y-115062000D01*
X109796899Y-115133068D01*
X109578392Y-115312392D01*
X109399068Y-115530899D01*
X109265818Y-115780192D01*
X109183764Y-116050691D01*
X109156057Y-116332000D01*
X109183764Y-116613309D01*
X109265818Y-116883808D01*
X109399068Y-117133101D01*
X109578392Y-117351608D01*
X109796899Y-117530932D01*
X109924741Y-117599265D01*
X109695161Y-117749399D01*
X109493500Y-117947105D01*
X109334285Y-118180354D01*
X109223633Y-118440182D01*
X109206096Y-118522961D01*
X109328085Y-118745000D01*
X110871000Y-118745000D01*
X110871000Y-118725000D01*
X111125000Y-118725000D01*
X111125000Y-118745000D01*
X112667915Y-118745000D01*
X112789904Y-118522961D01*
X112772367Y-118440182D01*
X112661715Y-118180354D01*
X112502500Y-117947105D01*
X112300839Y-117749399D01*
X112071259Y-117599265D01*
X112199101Y-117530932D01*
X112417608Y-117351608D01*
X112596932Y-117133101D01*
X112730182Y-116883808D01*
X112812236Y-116613309D01*
X112839943Y-116332000D01*
X112812236Y-116050691D01*
X112730182Y-115780192D01*
X112596932Y-115530899D01*
X112417608Y-115312392D01*
X112199101Y-115133068D01*
X112066142Y-115062000D01*
X112199101Y-114990932D01*
X112417608Y-114811608D01*
X112472682Y-114744500D01*
X112743462Y-114744500D01*
X116784566Y-118785605D01*
X116776057Y-118872000D01*
X116803764Y-119153309D01*
X116885818Y-119423808D01*
X117019068Y-119673101D01*
X117198392Y-119891608D01*
X117416899Y-120070932D01*
X117549858Y-120142000D01*
X117416899Y-120213068D01*
X117198392Y-120392392D01*
X117019068Y-120610899D01*
X116885818Y-120860192D01*
X116803764Y-121130691D01*
X116776057Y-121412000D01*
X116803764Y-121693309D01*
X116885818Y-121963808D01*
X117019068Y-122213101D01*
X117198392Y-122431608D01*
X117416899Y-122610932D01*
X117549858Y-122682000D01*
X117416899Y-122753068D01*
X117198392Y-122932392D01*
X117019068Y-123150899D01*
X116885818Y-123400192D01*
X116803764Y-123670691D01*
X116776057Y-123952000D01*
X116803764Y-124233309D01*
X116885818Y-124503808D01*
X117019068Y-124753101D01*
X117198392Y-124971608D01*
X117416899Y-125150932D01*
X117549858Y-125222000D01*
X117416899Y-125293068D01*
X117198392Y-125472392D01*
X117019068Y-125690899D01*
X116885818Y-125940192D01*
X116803764Y-126210691D01*
X116776057Y-126492000D01*
X116803764Y-126773309D01*
X116885818Y-127043808D01*
X117019068Y-127293101D01*
X117198392Y-127511608D01*
X117416899Y-127690932D01*
X117549858Y-127762000D01*
X117416899Y-127833068D01*
X117198392Y-128012392D01*
X117019068Y-128230899D01*
X116885818Y-128480192D01*
X116803764Y-128750691D01*
X116776057Y-129032000D01*
X116803764Y-129313309D01*
X116885818Y-129583808D01*
X117019068Y-129833101D01*
X117198392Y-130051608D01*
X117416899Y-130230932D01*
X117549858Y-130302000D01*
X117416899Y-130373068D01*
X117198392Y-130552392D01*
X117019068Y-130770899D01*
X116885818Y-131020192D01*
X116803764Y-131290691D01*
X116776057Y-131572000D01*
X116803764Y-131853309D01*
X116885818Y-132123808D01*
X117019068Y-132373101D01*
X117198392Y-132591608D01*
X117311482Y-132684419D01*
X117293518Y-132686188D01*
X117173820Y-132722498D01*
X117063506Y-132781463D01*
X116966815Y-132860815D01*
X116887463Y-132957506D01*
X116828498Y-133067820D01*
X116792188Y-133187518D01*
X116779928Y-133312000D01*
X116779928Y-134912000D01*
X116792188Y-135036482D01*
X116819950Y-135128000D01*
X115631631Y-135128000D01*
X112694394Y-132190763D01*
X112730182Y-132123808D01*
X112812236Y-131853309D01*
X112839943Y-131572000D01*
X112812236Y-131290691D01*
X112730182Y-131020192D01*
X112596932Y-130770899D01*
X112417608Y-130552392D01*
X112199101Y-130373068D01*
X112066142Y-130302000D01*
X112199101Y-130230932D01*
X112417608Y-130051608D01*
X112596932Y-129833101D01*
X112730182Y-129583808D01*
X112812236Y-129313309D01*
X112839943Y-129032000D01*
X112812236Y-128750691D01*
X112730182Y-128480192D01*
X112596932Y-128230899D01*
X112417608Y-128012392D01*
X112199101Y-127833068D01*
X112066142Y-127762000D01*
X112199101Y-127690932D01*
X112417608Y-127511608D01*
X112596932Y-127293101D01*
X112730182Y-127043808D01*
X112812236Y-126773309D01*
X112839943Y-126492000D01*
X112812236Y-126210691D01*
X112730182Y-125940192D01*
X112596932Y-125690899D01*
X112417608Y-125472392D01*
X112199101Y-125293068D01*
X112066142Y-125222000D01*
X112199101Y-125150932D01*
X112417608Y-124971608D01*
X112596932Y-124753101D01*
X112730182Y-124503808D01*
X112812236Y-124233309D01*
X112839943Y-123952000D01*
X112812236Y-123670691D01*
X112730182Y-123400192D01*
X112596932Y-123150899D01*
X112417608Y-122932392D01*
X112199101Y-122753068D01*
X112066142Y-122682000D01*
X112199101Y-122610932D01*
X112417608Y-122431608D01*
X112596932Y-122213101D01*
X112730182Y-121963808D01*
X112812236Y-121693309D01*
X112839943Y-121412000D01*
X112812236Y-121130691D01*
X112730182Y-120860192D01*
X112596932Y-120610899D01*
X112417608Y-120392392D01*
X112199101Y-120213068D01*
X112071259Y-120144735D01*
X112300839Y-119994601D01*
X112502500Y-119796895D01*
X112661715Y-119563646D01*
X112772367Y-119303818D01*
X112789904Y-119221039D01*
X112667915Y-118999000D01*
X111125000Y-118999000D01*
X111125000Y-119019000D01*
X110871000Y-119019000D01*
X110871000Y-118999000D01*
X109328085Y-118999000D01*
X109206096Y-119221039D01*
X109223633Y-119303818D01*
X109334285Y-119563646D01*
X109493500Y-119796895D01*
X109695161Y-119994601D01*
X109924741Y-120144735D01*
X109796899Y-120213068D01*
X109578392Y-120392392D01*
X109399068Y-120610899D01*
X109265818Y-120860192D01*
X109183764Y-121130691D01*
X109156057Y-121412000D01*
X109183764Y-121693309D01*
X109265818Y-121963808D01*
X109399068Y-122213101D01*
X109578392Y-122431608D01*
X109796899Y-122610932D01*
X109929858Y-122682000D01*
X109796899Y-122753068D01*
X109578392Y-122932392D01*
X109399068Y-123150899D01*
X109265818Y-123400192D01*
X109183764Y-123670691D01*
X109156057Y-123952000D01*
X109183764Y-124233309D01*
X109265818Y-124503808D01*
X109399068Y-124753101D01*
X109578392Y-124971608D01*
X109796899Y-125150932D01*
X109929858Y-125222000D01*
X109796899Y-125293068D01*
X109578392Y-125472392D01*
X109399068Y-125690899D01*
X109265818Y-125940192D01*
X109183764Y-126210691D01*
X109156057Y-126492000D01*
X109183764Y-126773309D01*
X109265818Y-127043808D01*
X109399068Y-127293101D01*
X109578392Y-127511608D01*
X109796899Y-127690932D01*
X109929858Y-127762000D01*
X109796899Y-127833068D01*
X109578392Y-128012392D01*
X109399068Y-128230899D01*
X109265818Y-128480192D01*
X109183764Y-128750691D01*
X109156057Y-129032000D01*
X109183764Y-129313309D01*
X109265818Y-129583808D01*
X109399068Y-129833101D01*
X109578392Y-130051608D01*
X109796899Y-130230932D01*
X109929858Y-130302000D01*
X109796899Y-130373068D01*
X109578392Y-130552392D01*
X109399068Y-130770899D01*
X109265818Y-131020192D01*
X109183764Y-131290691D01*
X109156057Y-131572000D01*
X109183764Y-131853309D01*
X109265818Y-132123808D01*
X109399068Y-132373101D01*
X109578392Y-132591608D01*
X109796899Y-132770932D01*
X109929858Y-132842000D01*
X109796899Y-132913068D01*
X109578392Y-133092392D01*
X109399068Y-133310899D01*
X109265818Y-133560192D01*
X109183764Y-133830691D01*
X109156057Y-134112000D01*
X109183764Y-134393309D01*
X109265818Y-134663808D01*
X109399068Y-134913101D01*
X109578392Y-135131608D01*
X109796899Y-135310932D01*
X110046192Y-135444182D01*
X110316691Y-135526236D01*
X110527508Y-135547000D01*
X111468492Y-135547000D01*
X111679309Y-135526236D01*
X111721736Y-135513366D01*
X115658716Y-139450346D01*
X115682578Y-139479422D01*
X115743327Y-139529277D01*
X115725363Y-139547241D01*
X115568320Y-139782273D01*
X115460147Y-140043426D01*
X115405000Y-140320665D01*
X115405000Y-140603335D01*
X115460147Y-140880574D01*
X115568320Y-141141727D01*
X115725363Y-141376759D01*
X115925241Y-141576637D01*
X116014501Y-141636278D01*
X116014501Y-142174440D01*
X116010506Y-142215000D01*
X116026445Y-142376826D01*
X116073647Y-142532433D01*
X116150301Y-142675842D01*
X116175416Y-142706444D01*
X116253460Y-142801541D01*
X116284961Y-142827393D01*
X117532611Y-144075045D01*
X117558459Y-144106541D01*
X117589955Y-144132389D01*
X117589958Y-144132392D01*
X117684157Y-144209699D01*
X117827566Y-144286353D01*
X117895133Y-144306849D01*
X117887928Y-144380000D01*
X117891000Y-144494250D01*
X118049750Y-144653000D01*
X119049000Y-144653000D01*
X119049000Y-144633000D01*
X119303000Y-144633000D01*
X119303000Y-144653000D01*
X120302250Y-144653000D01*
X120461000Y-144494250D01*
X120464072Y-144380000D01*
X120451812Y-144255518D01*
X120419803Y-144150000D01*
X120451812Y-144044482D01*
X120464072Y-143920000D01*
X120464072Y-143120000D01*
X120451812Y-142995518D01*
X120418287Y-142885000D01*
X120451812Y-142774482D01*
X120464072Y-142650000D01*
X120464072Y-141850000D01*
X120451812Y-141725518D01*
X120416770Y-141610000D01*
X120451812Y-141494482D01*
X120464072Y-141370000D01*
X120464072Y-140570000D01*
X120451812Y-140445518D01*
X120418287Y-140335000D01*
X120451812Y-140224482D01*
X120464072Y-140100000D01*
X120464072Y-139300000D01*
X120451812Y-139175518D01*
X120419803Y-139070000D01*
X120451812Y-138964482D01*
X120464072Y-138840000D01*
X120464072Y-138040000D01*
X120451812Y-137915518D01*
X120416770Y-137800000D01*
X120451812Y-137684482D01*
X120464072Y-137560000D01*
X120464072Y-136760000D01*
X120453435Y-136652000D01*
X121604370Y-136652000D01*
X123904716Y-138952346D01*
X123928578Y-138981422D01*
X124002219Y-139041857D01*
X124044607Y-139076645D01*
X124115364Y-139114465D01*
X124176985Y-139147402D01*
X124206043Y-139156217D01*
X124200188Y-139175518D01*
X124187928Y-139300000D01*
X124187928Y-140100000D01*
X124200188Y-140224482D01*
X124233713Y-140335000D01*
X124200188Y-140445518D01*
X124187928Y-140570000D01*
X124191000Y-140684250D01*
X124349750Y-140843000D01*
X125349000Y-140843000D01*
X125349000Y-140823000D01*
X125603000Y-140823000D01*
X125603000Y-140843000D01*
X125623000Y-140843000D01*
X125623000Y-141097000D01*
X125603000Y-141097000D01*
X125603000Y-141117000D01*
X125349000Y-141117000D01*
X125349000Y-141097000D01*
X124349750Y-141097000D01*
X124191000Y-141255750D01*
X124187928Y-141370000D01*
X124200188Y-141494482D01*
X124235230Y-141610000D01*
X124200188Y-141725518D01*
X124187928Y-141850000D01*
X124187928Y-142650000D01*
X124200188Y-142774482D01*
X124233713Y-142885000D01*
X124200188Y-142995518D01*
X124187928Y-143120000D01*
X124187928Y-143920000D01*
X124200188Y-144044482D01*
X124232197Y-144150000D01*
X124200188Y-144255518D01*
X124187928Y-144380000D01*
X124187928Y-145180000D01*
X124200188Y-145304482D01*
X124236498Y-145424180D01*
X124295463Y-145534494D01*
X124374815Y-145631185D01*
X124471506Y-145710537D01*
X124581820Y-145769502D01*
X124701518Y-145805812D01*
X124826000Y-145818072D01*
X126126000Y-145818072D01*
X126250482Y-145805812D01*
X126370180Y-145769502D01*
X126480494Y-145710537D01*
X126570051Y-145637039D01*
X126986096Y-145637039D01*
X127003633Y-145719818D01*
X127114285Y-145979646D01*
X127273500Y-146212895D01*
X127475161Y-146410601D01*
X127711517Y-146565166D01*
X127973486Y-146670650D01*
X128251000Y-146723000D01*
X128651000Y-146723000D01*
X128651000Y-145415000D01*
X128905000Y-145415000D01*
X128905000Y-146723000D01*
X129305000Y-146723000D01*
X129582514Y-146670650D01*
X129844483Y-146565166D01*
X130080839Y-146410601D01*
X130282500Y-146212895D01*
X130441715Y-145979646D01*
X130552367Y-145719818D01*
X130569904Y-145637039D01*
X130447915Y-145415000D01*
X128905000Y-145415000D01*
X128651000Y-145415000D01*
X127108085Y-145415000D01*
X126986096Y-145637039D01*
X126570051Y-145637039D01*
X126577185Y-145631185D01*
X126656537Y-145534494D01*
X126715502Y-145424180D01*
X126751812Y-145304482D01*
X126764072Y-145180000D01*
X126764072Y-144380000D01*
X126751812Y-144255518D01*
X126719803Y-144150000D01*
X126751812Y-144044482D01*
X126764072Y-143920000D01*
X126764072Y-143120000D01*
X126751812Y-142995518D01*
X126743179Y-142967059D01*
X126775015Y-142957402D01*
X126907392Y-142886645D01*
X126946548Y-142854511D01*
X126963764Y-143029309D01*
X127045818Y-143299808D01*
X127179068Y-143549101D01*
X127358392Y-143767608D01*
X127576899Y-143946932D01*
X127704741Y-144015265D01*
X127475161Y-144165399D01*
X127273500Y-144363105D01*
X127114285Y-144596354D01*
X127003633Y-144856182D01*
X126986096Y-144938961D01*
X127108085Y-145161000D01*
X128651000Y-145161000D01*
X128651000Y-145141000D01*
X128905000Y-145141000D01*
X128905000Y-145161000D01*
X130447915Y-145161000D01*
X130569904Y-144938961D01*
X130552367Y-144856182D01*
X130441715Y-144596354D01*
X130282500Y-144363105D01*
X130080839Y-144165399D01*
X129851259Y-144015265D01*
X129979101Y-143946932D01*
X130197608Y-143767608D01*
X130376932Y-143549101D01*
X130510182Y-143299808D01*
X130592236Y-143029309D01*
X130619943Y-142748000D01*
X130592236Y-142466691D01*
X130510182Y-142196192D01*
X130376932Y-141946899D01*
X130197608Y-141728392D01*
X129979101Y-141549068D01*
X129846142Y-141478000D01*
X129979101Y-141406932D01*
X130197608Y-141227608D01*
X130376932Y-141009101D01*
X130510182Y-140759808D01*
X130592236Y-140489309D01*
X130619943Y-140208000D01*
X130606392Y-140070408D01*
X131191000Y-140070408D01*
X131191000Y-140345592D01*
X131244686Y-140615490D01*
X131349995Y-140869727D01*
X131502880Y-141098535D01*
X131697465Y-141293120D01*
X131926273Y-141446005D01*
X132180510Y-141551314D01*
X132450408Y-141605000D01*
X132725592Y-141605000D01*
X132995490Y-141551314D01*
X133249727Y-141446005D01*
X133478535Y-141293120D01*
X133673120Y-141098535D01*
X133826005Y-140869727D01*
X133931314Y-140615490D01*
X133985000Y-140345592D01*
X133985000Y-140070408D01*
X133931314Y-139800510D01*
X133826005Y-139546273D01*
X133673120Y-139317465D01*
X133478535Y-139122880D01*
X133249727Y-138969995D01*
X132995490Y-138864686D01*
X132725592Y-138811000D01*
X132450408Y-138811000D01*
X132180510Y-138864686D01*
X131926273Y-138969995D01*
X131697465Y-139122880D01*
X131502880Y-139317465D01*
X131349995Y-139546273D01*
X131244686Y-139800510D01*
X131191000Y-140070408D01*
X130606392Y-140070408D01*
X130592236Y-139926691D01*
X130510182Y-139656192D01*
X130376932Y-139406899D01*
X130197608Y-139188392D01*
X129979101Y-139009068D01*
X129846142Y-138938000D01*
X129979101Y-138866932D01*
X130197608Y-138687608D01*
X130376932Y-138469101D01*
X130510182Y-138219808D01*
X130592236Y-137949309D01*
X130619943Y-137668000D01*
X130592236Y-137386691D01*
X130510182Y-137116192D01*
X130376932Y-136866899D01*
X130197608Y-136648392D01*
X129979101Y-136469068D01*
X129846142Y-136398000D01*
X129979101Y-136326932D01*
X130197608Y-136147608D01*
X130376932Y-135929101D01*
X130510182Y-135679808D01*
X130592236Y-135409309D01*
X130619943Y-135128000D01*
X130592236Y-134846691D01*
X130510182Y-134576192D01*
X130376932Y-134326899D01*
X130197608Y-134108392D01*
X129979101Y-133929068D01*
X129846142Y-133858000D01*
X129979101Y-133786932D01*
X130197608Y-133607608D01*
X130376932Y-133389101D01*
X130510182Y-133139808D01*
X130592236Y-132869309D01*
X130619943Y-132588000D01*
X130592236Y-132306691D01*
X130510182Y-132036192D01*
X130376932Y-131786899D01*
X130197608Y-131568392D01*
X129979101Y-131389068D01*
X129846142Y-131318000D01*
X129979101Y-131246932D01*
X130197608Y-131067608D01*
X130376932Y-130849101D01*
X130510182Y-130599808D01*
X130592236Y-130329309D01*
X130619943Y-130048000D01*
X130592236Y-129766691D01*
X130510182Y-129496192D01*
X130376932Y-129246899D01*
X130197608Y-129028392D01*
X129979101Y-128849068D01*
X129846142Y-128778000D01*
X129979101Y-128706932D01*
X130197608Y-128527608D01*
X130376932Y-128309101D01*
X130510182Y-128059808D01*
X130592236Y-127789309D01*
X130619943Y-127508000D01*
X130592236Y-127226691D01*
X130510182Y-126956192D01*
X130376932Y-126706899D01*
X130197608Y-126488392D01*
X129979101Y-126309068D01*
X129846142Y-126238000D01*
X129979101Y-126166932D01*
X130197608Y-125987608D01*
X130376932Y-125769101D01*
X130510182Y-125519808D01*
X130592236Y-125249309D01*
X130619943Y-124968000D01*
X130592236Y-124686691D01*
X130510182Y-124416192D01*
X130376932Y-124166899D01*
X130197608Y-123948392D01*
X130084518Y-123855581D01*
X130102482Y-123853812D01*
X130222180Y-123817502D01*
X130332494Y-123758537D01*
X130429185Y-123679185D01*
X130508537Y-123582494D01*
X130567502Y-123472180D01*
X130603812Y-123352482D01*
X130616072Y-123228000D01*
X130613000Y-122713750D01*
X130454250Y-122555000D01*
X128905000Y-122555000D01*
X128905000Y-122575000D01*
X128651000Y-122575000D01*
X128651000Y-122555000D01*
X127101750Y-122555000D01*
X126943000Y-122713750D01*
X126939928Y-123228000D01*
X126952188Y-123352482D01*
X126988498Y-123472180D01*
X127047463Y-123582494D01*
X127126815Y-123679185D01*
X127223506Y-123758537D01*
X127333820Y-123817502D01*
X127453518Y-123853812D01*
X127471482Y-123855581D01*
X127358392Y-123948392D01*
X127179068Y-124166899D01*
X127045818Y-124416192D01*
X126963764Y-124686691D01*
X126936057Y-124968000D01*
X126963764Y-125249309D01*
X127045818Y-125519808D01*
X127179068Y-125769101D01*
X127358392Y-125987608D01*
X127576899Y-126166932D01*
X127709858Y-126238000D01*
X127576899Y-126309068D01*
X127358392Y-126488392D01*
X127179068Y-126706899D01*
X127045818Y-126956192D01*
X126963764Y-127226691D01*
X126936057Y-127508000D01*
X126963764Y-127789309D01*
X127045818Y-128059808D01*
X127179068Y-128309101D01*
X127358392Y-128527608D01*
X127576899Y-128706932D01*
X127709858Y-128778000D01*
X127576899Y-128849068D01*
X127358392Y-129028392D01*
X127179068Y-129246899D01*
X127045818Y-129496192D01*
X126963764Y-129766691D01*
X126936057Y-130048000D01*
X126963764Y-130329309D01*
X127045818Y-130599808D01*
X127179068Y-130849101D01*
X127358392Y-131067608D01*
X127576899Y-131246932D01*
X127709858Y-131318000D01*
X127576899Y-131389068D01*
X127358392Y-131568392D01*
X127179068Y-131786899D01*
X127045818Y-132036192D01*
X126963764Y-132306691D01*
X126936057Y-132588000D01*
X126963764Y-132869309D01*
X127045818Y-133139808D01*
X127179068Y-133389101D01*
X127358392Y-133607608D01*
X127576899Y-133786932D01*
X127709858Y-133858000D01*
X127576899Y-133929068D01*
X127478524Y-134009802D01*
X127453402Y-133926985D01*
X127382645Y-133794608D01*
X127287422Y-133678578D01*
X127258352Y-133654721D01*
X120419366Y-126815736D01*
X120432236Y-126773309D01*
X120459943Y-126492000D01*
X120432236Y-126210691D01*
X120350182Y-125940192D01*
X120216932Y-125690899D01*
X120037608Y-125472392D01*
X119819101Y-125293068D01*
X119686142Y-125222000D01*
X119819101Y-125150932D01*
X119958413Y-125036602D01*
X120013355Y-125139392D01*
X120084721Y-125226351D01*
X120108579Y-125255422D01*
X120137649Y-125279279D01*
X121028843Y-126170473D01*
X120993000Y-126350665D01*
X120993000Y-126633335D01*
X121048147Y-126910574D01*
X121156320Y-127171727D01*
X121313363Y-127406759D01*
X121513241Y-127606637D01*
X121748273Y-127763680D01*
X122009426Y-127871853D01*
X122286665Y-127927000D01*
X122569335Y-127927000D01*
X122846574Y-127871853D01*
X123107727Y-127763680D01*
X123342759Y-127606637D01*
X123542637Y-127406759D01*
X123699680Y-127171727D01*
X123807853Y-126910574D01*
X123863000Y-126633335D01*
X123863000Y-126350665D01*
X123807853Y-126073426D01*
X123699680Y-125812273D01*
X123542637Y-125577241D01*
X123342759Y-125377363D01*
X123107727Y-125220320D01*
X122846574Y-125112147D01*
X122569335Y-125057000D01*
X122286665Y-125057000D01*
X122106473Y-125092843D01*
X121412000Y-124398370D01*
X121412000Y-122404702D01*
X121654903Y-122404702D01*
X121726486Y-122648671D01*
X121981996Y-122769571D01*
X122256184Y-122838300D01*
X122538512Y-122852217D01*
X122818130Y-122810787D01*
X123084292Y-122715603D01*
X123209514Y-122648671D01*
X123281097Y-122404702D01*
X122468000Y-121591605D01*
X121654903Y-122404702D01*
X121412000Y-122404702D01*
X121412000Y-122206525D01*
X121475298Y-122225097D01*
X122288395Y-121412000D01*
X122647605Y-121412000D01*
X123460702Y-122225097D01*
X123704671Y-122153514D01*
X123718324Y-122124659D01*
X123853363Y-122326759D01*
X124053241Y-122526637D01*
X124288273Y-122683680D01*
X124549426Y-122791853D01*
X124826665Y-122847000D01*
X125109335Y-122847000D01*
X125386574Y-122791853D01*
X125647727Y-122683680D01*
X125882759Y-122526637D01*
X126082637Y-122326759D01*
X126239680Y-122091727D01*
X126347853Y-121830574D01*
X126403000Y-121553335D01*
X126403000Y-121270665D01*
X126347853Y-120993426D01*
X126239680Y-120732273D01*
X126082637Y-120497241D01*
X125882759Y-120297363D01*
X125647727Y-120140320D01*
X125386574Y-120032147D01*
X125109335Y-119977000D01*
X124826665Y-119977000D01*
X124549426Y-120032147D01*
X124288273Y-120140320D01*
X124053241Y-120297363D01*
X123853363Y-120497241D01*
X123719308Y-120697869D01*
X123704671Y-120670486D01*
X123460702Y-120598903D01*
X122647605Y-121412000D01*
X122288395Y-121412000D01*
X121475298Y-120598903D01*
X121363672Y-120631655D01*
X121357402Y-120610985D01*
X121286646Y-120478609D01*
X121286645Y-120478607D01*
X121237971Y-120419298D01*
X121654903Y-120419298D01*
X122468000Y-121232395D01*
X123281097Y-120419298D01*
X123209514Y-120175329D01*
X122954004Y-120054429D01*
X122679816Y-119985700D01*
X122397488Y-119971783D01*
X122117870Y-120013213D01*
X121851708Y-120108397D01*
X121726486Y-120175329D01*
X121654903Y-120419298D01*
X121237971Y-120419298D01*
X121215279Y-120391648D01*
X121191422Y-120362578D01*
X121162353Y-120338722D01*
X120648131Y-119824500D01*
X125843462Y-119824500D01*
X126753892Y-120734930D01*
X126783721Y-120771277D01*
X126928758Y-120890305D01*
X126954380Y-120904000D01*
X127094229Y-120978751D01*
X127171491Y-121002188D01*
X127273776Y-121033216D01*
X127332822Y-121039032D01*
X127223506Y-121097463D01*
X127126815Y-121176815D01*
X127047463Y-121273506D01*
X126988498Y-121383820D01*
X126952188Y-121503518D01*
X126939928Y-121628000D01*
X126943000Y-122142250D01*
X127101750Y-122301000D01*
X128651000Y-122301000D01*
X128651000Y-122281000D01*
X128905000Y-122281000D01*
X128905000Y-122301000D01*
X130454250Y-122301000D01*
X130613000Y-122142250D01*
X130616072Y-121628000D01*
X130603812Y-121503518D01*
X130567502Y-121383820D01*
X130508537Y-121273506D01*
X130429185Y-121176815D01*
X130332494Y-121097463D01*
X130223178Y-121039032D01*
X130282224Y-121033216D01*
X130461770Y-120978751D01*
X130627242Y-120890305D01*
X130772279Y-120771277D01*
X130802108Y-120734930D01*
X133350001Y-118187037D01*
X133350000Y-135744577D01*
X133346314Y-135782000D01*
X133350000Y-135819423D01*
X133350000Y-135819425D01*
X133361026Y-135931377D01*
X133404598Y-136075014D01*
X133404599Y-136075015D01*
X133475355Y-136207392D01*
X133513412Y-136253764D01*
X133570578Y-136323422D01*
X133599654Y-136347284D01*
X134596634Y-137344264D01*
X134583764Y-137386691D01*
X134556057Y-137668000D01*
X134583764Y-137949309D01*
X134665818Y-138219808D01*
X134799068Y-138469101D01*
X134978392Y-138687608D01*
X135196899Y-138866932D01*
X135329858Y-138938000D01*
X135196899Y-139009068D01*
X134978392Y-139188392D01*
X134799068Y-139406899D01*
X134665818Y-139656192D01*
X134583764Y-139926691D01*
X134556057Y-140208000D01*
X134583764Y-140489309D01*
X134665818Y-140759808D01*
X134799068Y-141009101D01*
X134978392Y-141227608D01*
X135196899Y-141406932D01*
X135329858Y-141478000D01*
X135196899Y-141549068D01*
X134978392Y-141728392D01*
X134799068Y-141946899D01*
X134665818Y-142196192D01*
X134583764Y-142466691D01*
X134556057Y-142748000D01*
X134583764Y-143029309D01*
X134665818Y-143299808D01*
X134799068Y-143549101D01*
X134978392Y-143767608D01*
X135196899Y-143946932D01*
X135329858Y-144018000D01*
X135196899Y-144089068D01*
X134978392Y-144268392D01*
X134799068Y-144486899D01*
X134665818Y-144736192D01*
X134583764Y-145006691D01*
X134556057Y-145288000D01*
X134583764Y-145569309D01*
X134665818Y-145839808D01*
X134799068Y-146089101D01*
X134978392Y-146307608D01*
X135196899Y-146486932D01*
X135446192Y-146620182D01*
X135716691Y-146702236D01*
X135927508Y-146723000D01*
X136868492Y-146723000D01*
X137079309Y-146702236D01*
X137349808Y-146620182D01*
X137477500Y-146551929D01*
X137477500Y-147433461D01*
X136534854Y-148376108D01*
X135636000Y-148376108D01*
X135511518Y-148388368D01*
X135391820Y-148424678D01*
X135281506Y-148483643D01*
X135184815Y-148562995D01*
X135105463Y-148659686D01*
X135046498Y-148770000D01*
X135010188Y-148889698D01*
X135001809Y-148974776D01*
X134949006Y-148894451D01*
X134756026Y-148698548D01*
X134528535Y-148544058D01*
X134275276Y-148436918D01*
X134201070Y-148421960D01*
X133985000Y-148544460D01*
X133985000Y-149987000D01*
X134005000Y-149987000D01*
X134005000Y-150241000D01*
X133985000Y-150241000D01*
X133985000Y-151683540D01*
X134201070Y-151806040D01*
X134275276Y-151791082D01*
X134528535Y-151683942D01*
X134756026Y-151529452D01*
X134949006Y-151333549D01*
X135001809Y-151253224D01*
X135010188Y-151338302D01*
X135046498Y-151458000D01*
X135105463Y-151568314D01*
X135184815Y-151665005D01*
X135281506Y-151744357D01*
X135391820Y-151803322D01*
X135511518Y-151839632D01*
X135636000Y-151851892D01*
X137160000Y-151851892D01*
X137284482Y-151839632D01*
X137404180Y-151803322D01*
X137514494Y-151744357D01*
X137611185Y-151665005D01*
X137690537Y-151568314D01*
X137749502Y-151458000D01*
X137785812Y-151338302D01*
X137798072Y-151213820D01*
X137798072Y-149806966D01*
X139040001Y-148565038D01*
X139040001Y-151994000D01*
X104800000Y-151994000D01*
X104800000Y-150964000D01*
X117129928Y-150964000D01*
X117142188Y-151088482D01*
X117178498Y-151208180D01*
X117237463Y-151318494D01*
X117316815Y-151415185D01*
X117413506Y-151494537D01*
X117523820Y-151553502D01*
X117643518Y-151589812D01*
X117768000Y-151602072D01*
X118332250Y-151599000D01*
X118491000Y-151440250D01*
X118491000Y-150241000D01*
X117291750Y-150241000D01*
X117133000Y-150399750D01*
X117129928Y-150964000D01*
X104800000Y-150964000D01*
X104800000Y-146336532D01*
X105620227Y-146336532D01*
X105670916Y-146788434D01*
X105808415Y-147221885D01*
X106027486Y-147620373D01*
X106319784Y-147968721D01*
X106674178Y-148253661D01*
X107077167Y-148464338D01*
X107513402Y-148592729D01*
X107966266Y-148633943D01*
X108418512Y-148586410D01*
X108852911Y-148451941D01*
X109252919Y-148235658D01*
X109603300Y-147945798D01*
X109890706Y-147593402D01*
X110104192Y-147191894D01*
X110235626Y-146756566D01*
X110280000Y-146304000D01*
X110279092Y-146238943D01*
X110222098Y-145787792D01*
X110078561Y-145356304D01*
X109853948Y-144960913D01*
X109556814Y-144616680D01*
X109198476Y-144336716D01*
X108792585Y-144131686D01*
X108354600Y-144009398D01*
X107901204Y-143974511D01*
X107449667Y-144028354D01*
X107017187Y-144168875D01*
X106620237Y-144390722D01*
X106273938Y-144685446D01*
X105991480Y-145041820D01*
X105783621Y-145446270D01*
X105658278Y-145883390D01*
X105620227Y-146336532D01*
X104800000Y-146336532D01*
X104800000Y-96774000D01*
X105746057Y-96774000D01*
X105773764Y-97055309D01*
X105855818Y-97325808D01*
X105989068Y-97575101D01*
X106168392Y-97793608D01*
X106386899Y-97972932D01*
X106636192Y-98106182D01*
X106906691Y-98188236D01*
X107117508Y-98209000D01*
X107258492Y-98209000D01*
X107469309Y-98188236D01*
X107739808Y-98106182D01*
X107989101Y-97972932D01*
X108207608Y-97793608D01*
X108386932Y-97575101D01*
X108520182Y-97325808D01*
X108602236Y-97055309D01*
X108629943Y-96774000D01*
X108616023Y-96632665D01*
X113373000Y-96632665D01*
X113373000Y-96915335D01*
X113428147Y-97192574D01*
X113536320Y-97453727D01*
X113693363Y-97688759D01*
X113893241Y-97888637D01*
X114128273Y-98045680D01*
X114389426Y-98153853D01*
X114666665Y-98209000D01*
X114949335Y-98209000D01*
X115226574Y-98153853D01*
X115487727Y-98045680D01*
X115722759Y-97888637D01*
X115922637Y-97688759D01*
X116079680Y-97453727D01*
X116187853Y-97192574D01*
X116243000Y-96915335D01*
X116243000Y-96774000D01*
X117176057Y-96774000D01*
X117203764Y-97055309D01*
X117285818Y-97325808D01*
X117419068Y-97575101D01*
X117598392Y-97793608D01*
X117816899Y-97972932D01*
X118066192Y-98106182D01*
X118336691Y-98188236D01*
X118547508Y-98209000D01*
X118688492Y-98209000D01*
X118899309Y-98188236D01*
X119169808Y-98106182D01*
X119419101Y-97972932D01*
X119637608Y-97793608D01*
X119816932Y-97575101D01*
X119950182Y-97325808D01*
X120032236Y-97055309D01*
X120059943Y-96774000D01*
X120032236Y-96492691D01*
X119950182Y-96222192D01*
X119816932Y-95972899D01*
X119637608Y-95754392D01*
X119419101Y-95575068D01*
X119169808Y-95441818D01*
X118899309Y-95359764D01*
X118688492Y-95339000D01*
X118547508Y-95339000D01*
X118336691Y-95359764D01*
X118066192Y-95441818D01*
X117816899Y-95575068D01*
X117598392Y-95754392D01*
X117419068Y-95972899D01*
X117285818Y-96222192D01*
X117203764Y-96492691D01*
X117176057Y-96774000D01*
X116243000Y-96774000D01*
X116243000Y-96632665D01*
X116187853Y-96355426D01*
X116079680Y-96094273D01*
X115922637Y-95859241D01*
X115722759Y-95659363D01*
X115487727Y-95502320D01*
X115226574Y-95394147D01*
X114949335Y-95339000D01*
X114666665Y-95339000D01*
X114389426Y-95394147D01*
X114128273Y-95502320D01*
X113893241Y-95659363D01*
X113693363Y-95859241D01*
X113536320Y-96094273D01*
X113428147Y-96355426D01*
X113373000Y-96632665D01*
X108616023Y-96632665D01*
X108602236Y-96492691D01*
X108520182Y-96222192D01*
X108386932Y-95972899D01*
X108207608Y-95754392D01*
X107989101Y-95575068D01*
X107739808Y-95441818D01*
X107469309Y-95359764D01*
X107258492Y-95339000D01*
X107117508Y-95339000D01*
X106906691Y-95359764D01*
X106636192Y-95441818D01*
X106386899Y-95575068D01*
X106168392Y-95754392D01*
X105989068Y-95972899D01*
X105855818Y-96222192D01*
X105773764Y-96492691D01*
X105746057Y-96774000D01*
X104800000Y-96774000D01*
X104800000Y-93726000D01*
X105746057Y-93726000D01*
X105773764Y-94007309D01*
X105855818Y-94277808D01*
X105989068Y-94527101D01*
X106168392Y-94745608D01*
X106386899Y-94924932D01*
X106636192Y-95058182D01*
X106906691Y-95140236D01*
X107117508Y-95161000D01*
X107258492Y-95161000D01*
X107469309Y-95140236D01*
X107739808Y-95058182D01*
X107989101Y-94924932D01*
X108207608Y-94745608D01*
X108386932Y-94527101D01*
X108520182Y-94277808D01*
X108602236Y-94007309D01*
X108629943Y-93726000D01*
X108616023Y-93584665D01*
X113373000Y-93584665D01*
X113373000Y-93867335D01*
X113428147Y-94144574D01*
X113536320Y-94405727D01*
X113693363Y-94640759D01*
X113893241Y-94840637D01*
X114128273Y-94997680D01*
X114389426Y-95105853D01*
X114666665Y-95161000D01*
X114949335Y-95161000D01*
X115226574Y-95105853D01*
X115487727Y-94997680D01*
X115722759Y-94840637D01*
X115922637Y-94640759D01*
X116079680Y-94405727D01*
X116187853Y-94144574D01*
X116243000Y-93867335D01*
X116243000Y-93726000D01*
X117176057Y-93726000D01*
X117203764Y-94007309D01*
X117285818Y-94277808D01*
X117419068Y-94527101D01*
X117598392Y-94745608D01*
X117816899Y-94924932D01*
X118066192Y-95058182D01*
X118336691Y-95140236D01*
X118547508Y-95161000D01*
X118688492Y-95161000D01*
X118899309Y-95140236D01*
X119169808Y-95058182D01*
X119419101Y-94924932D01*
X119637608Y-94745608D01*
X119816932Y-94527101D01*
X119950182Y-94277808D01*
X120032236Y-94007309D01*
X120059943Y-93726000D01*
X120046023Y-93584665D01*
X124803000Y-93584665D01*
X124803000Y-93867335D01*
X124858147Y-94144574D01*
X124966320Y-94405727D01*
X125123363Y-94640759D01*
X125323241Y-94840637D01*
X125558273Y-94997680D01*
X125819426Y-95105853D01*
X126096665Y-95161000D01*
X126379335Y-95161000D01*
X126656574Y-95105853D01*
X126917727Y-94997680D01*
X127152759Y-94840637D01*
X127352637Y-94640759D01*
X127509680Y-94405727D01*
X127617853Y-94144574D01*
X127673000Y-93867335D01*
X127673000Y-93584665D01*
X127617853Y-93307426D01*
X127509680Y-93046273D01*
X127352637Y-92811241D01*
X127152759Y-92611363D01*
X126917727Y-92454320D01*
X126656574Y-92346147D01*
X126379335Y-92291000D01*
X126096665Y-92291000D01*
X125819426Y-92346147D01*
X125558273Y-92454320D01*
X125323241Y-92611363D01*
X125123363Y-92811241D01*
X124966320Y-93046273D01*
X124858147Y-93307426D01*
X124803000Y-93584665D01*
X120046023Y-93584665D01*
X120032236Y-93444691D01*
X119950182Y-93174192D01*
X119816932Y-92924899D01*
X119637608Y-92706392D01*
X119419101Y-92527068D01*
X119169808Y-92393818D01*
X118899309Y-92311764D01*
X118688492Y-92291000D01*
X118547508Y-92291000D01*
X118336691Y-92311764D01*
X118066192Y-92393818D01*
X117816899Y-92527068D01*
X117598392Y-92706392D01*
X117419068Y-92924899D01*
X117285818Y-93174192D01*
X117203764Y-93444691D01*
X117176057Y-93726000D01*
X116243000Y-93726000D01*
X116243000Y-93584665D01*
X116187853Y-93307426D01*
X116079680Y-93046273D01*
X115922637Y-92811241D01*
X115722759Y-92611363D01*
X115487727Y-92454320D01*
X115226574Y-92346147D01*
X114949335Y-92291000D01*
X114666665Y-92291000D01*
X114389426Y-92346147D01*
X114128273Y-92454320D01*
X113893241Y-92611363D01*
X113693363Y-92811241D01*
X113536320Y-93046273D01*
X113428147Y-93307426D01*
X113373000Y-93584665D01*
X108616023Y-93584665D01*
X108602236Y-93444691D01*
X108520182Y-93174192D01*
X108386932Y-92924899D01*
X108207608Y-92706392D01*
X107989101Y-92527068D01*
X107739808Y-92393818D01*
X107469309Y-92311764D01*
X107258492Y-92291000D01*
X107117508Y-92291000D01*
X106906691Y-92311764D01*
X106636192Y-92393818D01*
X106386899Y-92527068D01*
X106168392Y-92706392D01*
X105989068Y-92924899D01*
X105855818Y-93174192D01*
X105773764Y-93444691D01*
X105746057Y-93726000D01*
X104800000Y-93726000D01*
X104800000Y-90678000D01*
X105746057Y-90678000D01*
X105773764Y-90959309D01*
X105855818Y-91229808D01*
X105989068Y-91479101D01*
X106168392Y-91697608D01*
X106386899Y-91876932D01*
X106636192Y-92010182D01*
X106906691Y-92092236D01*
X107117508Y-92113000D01*
X107258492Y-92113000D01*
X107469309Y-92092236D01*
X107739808Y-92010182D01*
X107989101Y-91876932D01*
X108207608Y-91697608D01*
X108386932Y-91479101D01*
X108520182Y-91229808D01*
X108602236Y-90959309D01*
X108629943Y-90678000D01*
X108616023Y-90536665D01*
X113373000Y-90536665D01*
X113373000Y-90819335D01*
X113428147Y-91096574D01*
X113536320Y-91357727D01*
X113693363Y-91592759D01*
X113893241Y-91792637D01*
X114128273Y-91949680D01*
X114389426Y-92057853D01*
X114666665Y-92113000D01*
X114949335Y-92113000D01*
X115226574Y-92057853D01*
X115487727Y-91949680D01*
X115722759Y-91792637D01*
X115922637Y-91592759D01*
X116079680Y-91357727D01*
X116187853Y-91096574D01*
X116243000Y-90819335D01*
X116243000Y-90678000D01*
X117176057Y-90678000D01*
X117203764Y-90959309D01*
X117285818Y-91229808D01*
X117419068Y-91479101D01*
X117598392Y-91697608D01*
X117816899Y-91876932D01*
X118066192Y-92010182D01*
X118336691Y-92092236D01*
X118547508Y-92113000D01*
X118688492Y-92113000D01*
X118899309Y-92092236D01*
X119169808Y-92010182D01*
X119419101Y-91876932D01*
X119637608Y-91697608D01*
X119816932Y-91479101D01*
X119950182Y-91229808D01*
X120032236Y-90959309D01*
X120059943Y-90678000D01*
X120046023Y-90536665D01*
X124803000Y-90536665D01*
X124803000Y-90819335D01*
X124858147Y-91096574D01*
X124966320Y-91357727D01*
X125123363Y-91592759D01*
X125323241Y-91792637D01*
X125558273Y-91949680D01*
X125819426Y-92057853D01*
X126096665Y-92113000D01*
X126379335Y-92113000D01*
X126656574Y-92057853D01*
X126917727Y-91949680D01*
X127152759Y-91792637D01*
X127352637Y-91592759D01*
X127509680Y-91357727D01*
X127617853Y-91096574D01*
X127673000Y-90819335D01*
X127673000Y-90536665D01*
X127617853Y-90259426D01*
X127509680Y-89998273D01*
X127352637Y-89763241D01*
X127152759Y-89563363D01*
X126917727Y-89406320D01*
X126656574Y-89298147D01*
X126379335Y-89243000D01*
X126096665Y-89243000D01*
X125819426Y-89298147D01*
X125558273Y-89406320D01*
X125323241Y-89563363D01*
X125123363Y-89763241D01*
X124966320Y-89998273D01*
X124858147Y-90259426D01*
X124803000Y-90536665D01*
X120046023Y-90536665D01*
X120032236Y-90396691D01*
X119950182Y-90126192D01*
X119816932Y-89876899D01*
X119637608Y-89658392D01*
X119419101Y-89479068D01*
X119169808Y-89345818D01*
X118899309Y-89263764D01*
X118688492Y-89243000D01*
X118547508Y-89243000D01*
X118336691Y-89263764D01*
X118066192Y-89345818D01*
X117816899Y-89479068D01*
X117598392Y-89658392D01*
X117419068Y-89876899D01*
X117285818Y-90126192D01*
X117203764Y-90396691D01*
X117176057Y-90678000D01*
X116243000Y-90678000D01*
X116243000Y-90536665D01*
X116187853Y-90259426D01*
X116079680Y-89998273D01*
X115922637Y-89763241D01*
X115722759Y-89563363D01*
X115487727Y-89406320D01*
X115226574Y-89298147D01*
X114949335Y-89243000D01*
X114666665Y-89243000D01*
X114389426Y-89298147D01*
X114128273Y-89406320D01*
X113893241Y-89563363D01*
X113693363Y-89763241D01*
X113536320Y-89998273D01*
X113428147Y-90259426D01*
X113373000Y-90536665D01*
X108616023Y-90536665D01*
X108602236Y-90396691D01*
X108520182Y-90126192D01*
X108386932Y-89876899D01*
X108207608Y-89658392D01*
X107989101Y-89479068D01*
X107739808Y-89345818D01*
X107469309Y-89263764D01*
X107258492Y-89243000D01*
X107117508Y-89243000D01*
X106906691Y-89263764D01*
X106636192Y-89345818D01*
X106386899Y-89479068D01*
X106168392Y-89658392D01*
X105989068Y-89876899D01*
X105855818Y-90126192D01*
X105773764Y-90396691D01*
X105746057Y-90678000D01*
X104800000Y-90678000D01*
X104800000Y-87501048D01*
X104832498Y-87608180D01*
X104891463Y-87718494D01*
X104970815Y-87815185D01*
X105067506Y-87894537D01*
X105177820Y-87953502D01*
X105297518Y-87989812D01*
X105422000Y-88002072D01*
X105886250Y-87999000D01*
X106045000Y-87840250D01*
X106045000Y-86741000D01*
X106025000Y-86741000D01*
X106025000Y-86487000D01*
X106045000Y-86487000D01*
X106045000Y-85387750D01*
X106299000Y-85387750D01*
X106299000Y-86487000D01*
X106319000Y-86487000D01*
X106319000Y-86741000D01*
X106299000Y-86741000D01*
X106299000Y-87840250D01*
X106457750Y-87999000D01*
X106922000Y-88002072D01*
X107046482Y-87989812D01*
X107166180Y-87953502D01*
X107276494Y-87894537D01*
X107373185Y-87815185D01*
X107452537Y-87718494D01*
X107511502Y-87608180D01*
X107547812Y-87488482D01*
X107558445Y-87380517D01*
X107636201Y-87496886D01*
X107829114Y-87689799D01*
X108055957Y-87841371D01*
X108308011Y-87945775D01*
X108575589Y-87999000D01*
X108848411Y-87999000D01*
X109115989Y-87945775D01*
X109368043Y-87841371D01*
X109594886Y-87689799D01*
X109787799Y-87496886D01*
X109939371Y-87270043D01*
X109982000Y-87167127D01*
X110024629Y-87270043D01*
X110176201Y-87496886D01*
X110369114Y-87689799D01*
X110595957Y-87841371D01*
X110848011Y-87945775D01*
X111115589Y-87999000D01*
X111388411Y-87999000D01*
X111655989Y-87945775D01*
X111908043Y-87841371D01*
X112134886Y-87689799D01*
X112204770Y-87619915D01*
X112257463Y-87718494D01*
X112336815Y-87815185D01*
X112433506Y-87894537D01*
X112543820Y-87953502D01*
X112663518Y-87989812D01*
X112788000Y-88002072D01*
X113252250Y-87999000D01*
X113411000Y-87840250D01*
X113411000Y-86741000D01*
X113391000Y-86741000D01*
X113391000Y-86487000D01*
X113411000Y-86487000D01*
X113411000Y-85387750D01*
X113665000Y-85387750D01*
X113665000Y-86487000D01*
X113685000Y-86487000D01*
X113685000Y-86741000D01*
X113665000Y-86741000D01*
X113665000Y-87840250D01*
X113823750Y-87999000D01*
X114288000Y-88002072D01*
X114412482Y-87989812D01*
X114532180Y-87953502D01*
X114642494Y-87894537D01*
X114739185Y-87815185D01*
X114818537Y-87718494D01*
X114877502Y-87608180D01*
X114913812Y-87488482D01*
X114924445Y-87380517D01*
X115002201Y-87496886D01*
X115195114Y-87689799D01*
X115421957Y-87841371D01*
X115674011Y-87945775D01*
X115941589Y-87999000D01*
X116214411Y-87999000D01*
X116481989Y-87945775D01*
X116734043Y-87841371D01*
X116960886Y-87689799D01*
X117153799Y-87496886D01*
X117305371Y-87270043D01*
X117348000Y-87167127D01*
X117390629Y-87270043D01*
X117542201Y-87496886D01*
X117735114Y-87689799D01*
X117961957Y-87841371D01*
X118214011Y-87945775D01*
X118481589Y-87999000D01*
X118754411Y-87999000D01*
X119021989Y-87945775D01*
X119274043Y-87841371D01*
X119500886Y-87689799D01*
X119570770Y-87619915D01*
X119623463Y-87718494D01*
X119702815Y-87815185D01*
X119799506Y-87894537D01*
X119909820Y-87953502D01*
X120029518Y-87989812D01*
X120154000Y-88002072D01*
X120618250Y-87999000D01*
X120777000Y-87840250D01*
X120777000Y-86741000D01*
X120757000Y-86741000D01*
X120757000Y-86487000D01*
X120777000Y-86487000D01*
X120777000Y-85387750D01*
X121031000Y-85387750D01*
X121031000Y-86487000D01*
X121051000Y-86487000D01*
X121051000Y-86741000D01*
X121031000Y-86741000D01*
X121031000Y-87840250D01*
X121189750Y-87999000D01*
X121654000Y-88002072D01*
X121778482Y-87989812D01*
X121898180Y-87953502D01*
X122008494Y-87894537D01*
X122105185Y-87815185D01*
X122184537Y-87718494D01*
X122243502Y-87608180D01*
X122279812Y-87488482D01*
X122290445Y-87380517D01*
X122368201Y-87496886D01*
X122561114Y-87689799D01*
X122787957Y-87841371D01*
X123040011Y-87945775D01*
X123307589Y-87999000D01*
X123580411Y-87999000D01*
X123847989Y-87945775D01*
X124100043Y-87841371D01*
X124326886Y-87689799D01*
X124519799Y-87496886D01*
X124671371Y-87270043D01*
X124714000Y-87167127D01*
X124756629Y-87270043D01*
X124908201Y-87496886D01*
X125101114Y-87689799D01*
X125327957Y-87841371D01*
X125580011Y-87945775D01*
X125847589Y-87999000D01*
X126120411Y-87999000D01*
X126387989Y-87945775D01*
X126640043Y-87841371D01*
X126866886Y-87689799D01*
X127059799Y-87496886D01*
X127211371Y-87270043D01*
X127315775Y-87017989D01*
X127369000Y-86750411D01*
X127369000Y-86477589D01*
X127315775Y-86210011D01*
X127211371Y-85957957D01*
X127059799Y-85731114D01*
X126866886Y-85538201D01*
X126640043Y-85386629D01*
X126387989Y-85282225D01*
X126120411Y-85229000D01*
X125847589Y-85229000D01*
X125580011Y-85282225D01*
X125327957Y-85386629D01*
X125101114Y-85538201D01*
X124908201Y-85731114D01*
X124756629Y-85957957D01*
X124714000Y-86060873D01*
X124671371Y-85957957D01*
X124519799Y-85731114D01*
X124326886Y-85538201D01*
X124100043Y-85386629D01*
X123847989Y-85282225D01*
X123580411Y-85229000D01*
X123307589Y-85229000D01*
X123040011Y-85282225D01*
X122787957Y-85386629D01*
X122561114Y-85538201D01*
X122368201Y-85731114D01*
X122290445Y-85847483D01*
X122279812Y-85739518D01*
X122243502Y-85619820D01*
X122184537Y-85509506D01*
X122105185Y-85412815D01*
X122008494Y-85333463D01*
X121898180Y-85274498D01*
X121778482Y-85238188D01*
X121654000Y-85225928D01*
X121189750Y-85229000D01*
X121031000Y-85387750D01*
X120777000Y-85387750D01*
X120618250Y-85229000D01*
X120154000Y-85225928D01*
X120029518Y-85238188D01*
X119909820Y-85274498D01*
X119799506Y-85333463D01*
X119702815Y-85412815D01*
X119623463Y-85509506D01*
X119570770Y-85608085D01*
X119500886Y-85538201D01*
X119274043Y-85386629D01*
X119021989Y-85282225D01*
X118754411Y-85229000D01*
X118481589Y-85229000D01*
X118214011Y-85282225D01*
X117961957Y-85386629D01*
X117735114Y-85538201D01*
X117542201Y-85731114D01*
X117390629Y-85957957D01*
X117348000Y-86060873D01*
X117305371Y-85957957D01*
X117153799Y-85731114D01*
X116960886Y-85538201D01*
X116734043Y-85386629D01*
X116481989Y-85282225D01*
X116214411Y-85229000D01*
X115941589Y-85229000D01*
X115674011Y-85282225D01*
X115421957Y-85386629D01*
X115195114Y-85538201D01*
X115002201Y-85731114D01*
X114924445Y-85847483D01*
X114913812Y-85739518D01*
X114877502Y-85619820D01*
X114818537Y-85509506D01*
X114739185Y-85412815D01*
X114642494Y-85333463D01*
X114532180Y-85274498D01*
X114412482Y-85238188D01*
X114288000Y-85225928D01*
X113823750Y-85229000D01*
X113665000Y-85387750D01*
X113411000Y-85387750D01*
X113252250Y-85229000D01*
X112788000Y-85225928D01*
X112663518Y-85238188D01*
X112543820Y-85274498D01*
X112433506Y-85333463D01*
X112336815Y-85412815D01*
X112257463Y-85509506D01*
X112204770Y-85608085D01*
X112134886Y-85538201D01*
X111908043Y-85386629D01*
X111655989Y-85282225D01*
X111388411Y-85229000D01*
X111115589Y-85229000D01*
X110848011Y-85282225D01*
X110595957Y-85386629D01*
X110369114Y-85538201D01*
X110176201Y-85731114D01*
X110024629Y-85957957D01*
X109982000Y-86060873D01*
X109939371Y-85957957D01*
X109787799Y-85731114D01*
X109594886Y-85538201D01*
X109368043Y-85386629D01*
X109115989Y-85282225D01*
X108848411Y-85229000D01*
X108575589Y-85229000D01*
X108308011Y-85282225D01*
X108055957Y-85386629D01*
X107829114Y-85538201D01*
X107636201Y-85731114D01*
X107558445Y-85847483D01*
X107547812Y-85739518D01*
X107511502Y-85619820D01*
X107452537Y-85509506D01*
X107373185Y-85412815D01*
X107276494Y-85333463D01*
X107166180Y-85274498D01*
X107046482Y-85238188D01*
X106922000Y-85225928D01*
X106457750Y-85229000D01*
X106299000Y-85387750D01*
X106045000Y-85387750D01*
X105886250Y-85229000D01*
X105422000Y-85225928D01*
X105297518Y-85238188D01*
X105177820Y-85274498D01*
X105067506Y-85333463D01*
X104970815Y-85412815D01*
X104891463Y-85509506D01*
X104832498Y-85619820D01*
X104800000Y-85726952D01*
X104800000Y-82159589D01*
X108343000Y-82159589D01*
X108343000Y-82432411D01*
X108396225Y-82699989D01*
X108500629Y-82952043D01*
X108652201Y-83178886D01*
X108845114Y-83371799D01*
X109071957Y-83523371D01*
X109324011Y-83627775D01*
X109591589Y-83681000D01*
X109864411Y-83681000D01*
X110131989Y-83627775D01*
X110384043Y-83523371D01*
X110610886Y-83371799D01*
X110803799Y-83178886D01*
X110955371Y-82952043D01*
X110998000Y-82849127D01*
X111040629Y-82952043D01*
X111192201Y-83178886D01*
X111385114Y-83371799D01*
X111611957Y-83523371D01*
X111864011Y-83627775D01*
X112131589Y-83681000D01*
X112404411Y-83681000D01*
X112671989Y-83627775D01*
X112924043Y-83523371D01*
X113150886Y-83371799D01*
X113343799Y-83178886D01*
X113421555Y-83062517D01*
X113432188Y-83170482D01*
X113468498Y-83290180D01*
X113527463Y-83400494D01*
X113606815Y-83497185D01*
X113703506Y-83576537D01*
X113813820Y-83635502D01*
X113933518Y-83671812D01*
X114058000Y-83684072D01*
X114522250Y-83681000D01*
X114681000Y-83522250D01*
X114681000Y-82423000D01*
X114661000Y-82423000D01*
X114661000Y-82169000D01*
X114681000Y-82169000D01*
X114681000Y-81069750D01*
X114935000Y-81069750D01*
X114935000Y-82169000D01*
X114955000Y-82169000D01*
X114955000Y-82423000D01*
X114935000Y-82423000D01*
X114935000Y-83522250D01*
X115093750Y-83681000D01*
X115558000Y-83684072D01*
X115682482Y-83671812D01*
X115802180Y-83635502D01*
X115912494Y-83576537D01*
X116009185Y-83497185D01*
X116088537Y-83400494D01*
X116141230Y-83301915D01*
X116211114Y-83371799D01*
X116437957Y-83523371D01*
X116690011Y-83627775D01*
X116957589Y-83681000D01*
X117230411Y-83681000D01*
X117497989Y-83627775D01*
X117750043Y-83523371D01*
X117976886Y-83371799D01*
X118169799Y-83178886D01*
X118321371Y-82952043D01*
X118364000Y-82849127D01*
X118406629Y-82952043D01*
X118558201Y-83178886D01*
X118751114Y-83371799D01*
X118977957Y-83523371D01*
X119230011Y-83627775D01*
X119497589Y-83681000D01*
X119770411Y-83681000D01*
X120037989Y-83627775D01*
X120290043Y-83523371D01*
X120516886Y-83371799D01*
X120709799Y-83178886D01*
X120787555Y-83062517D01*
X120798188Y-83170482D01*
X120834498Y-83290180D01*
X120893463Y-83400494D01*
X120972815Y-83497185D01*
X121069506Y-83576537D01*
X121179820Y-83635502D01*
X121299518Y-83671812D01*
X121424000Y-83684072D01*
X121888250Y-83681000D01*
X122047000Y-83522250D01*
X122047000Y-82423000D01*
X122027000Y-82423000D01*
X122027000Y-82169000D01*
X122047000Y-82169000D01*
X122047000Y-81069750D01*
X122301000Y-81069750D01*
X122301000Y-82169000D01*
X122321000Y-82169000D01*
X122321000Y-82423000D01*
X122301000Y-82423000D01*
X122301000Y-83522250D01*
X122459750Y-83681000D01*
X122924000Y-83684072D01*
X123048482Y-83671812D01*
X123168180Y-83635502D01*
X123278494Y-83576537D01*
X123375185Y-83497185D01*
X123454537Y-83400494D01*
X123507230Y-83301915D01*
X123577114Y-83371799D01*
X123803957Y-83523371D01*
X124056011Y-83627775D01*
X124323589Y-83681000D01*
X124596411Y-83681000D01*
X124863989Y-83627775D01*
X125116043Y-83523371D01*
X125342886Y-83371799D01*
X125535799Y-83178886D01*
X125687371Y-82952043D01*
X125730000Y-82849127D01*
X125772629Y-82952043D01*
X125924201Y-83178886D01*
X126117114Y-83371799D01*
X126343957Y-83523371D01*
X126596011Y-83627775D01*
X126863589Y-83681000D01*
X127136411Y-83681000D01*
X127403989Y-83627775D01*
X127656043Y-83523371D01*
X127882886Y-83371799D01*
X128075799Y-83178886D01*
X128153555Y-83062517D01*
X128164188Y-83170482D01*
X128200498Y-83290180D01*
X128259463Y-83400494D01*
X128338815Y-83497185D01*
X128435506Y-83576537D01*
X128545820Y-83635502D01*
X128665518Y-83671812D01*
X128790000Y-83684072D01*
X129254250Y-83681000D01*
X129413000Y-83522250D01*
X129413000Y-82423000D01*
X129393000Y-82423000D01*
X129393000Y-82169000D01*
X129413000Y-82169000D01*
X129413000Y-81069750D01*
X129254250Y-80911000D01*
X128790000Y-80907928D01*
X128665518Y-80920188D01*
X128545820Y-80956498D01*
X128435506Y-81015463D01*
X128338815Y-81094815D01*
X128259463Y-81191506D01*
X128200498Y-81301820D01*
X128164188Y-81421518D01*
X128153555Y-81529483D01*
X128075799Y-81413114D01*
X127882886Y-81220201D01*
X127656043Y-81068629D01*
X127403989Y-80964225D01*
X127136411Y-80911000D01*
X126863589Y-80911000D01*
X126596011Y-80964225D01*
X126343957Y-81068629D01*
X126117114Y-81220201D01*
X125924201Y-81413114D01*
X125772629Y-81639957D01*
X125730000Y-81742873D01*
X125687371Y-81639957D01*
X125535799Y-81413114D01*
X125342886Y-81220201D01*
X125116043Y-81068629D01*
X124863989Y-80964225D01*
X124596411Y-80911000D01*
X124323589Y-80911000D01*
X124056011Y-80964225D01*
X123803957Y-81068629D01*
X123577114Y-81220201D01*
X123507230Y-81290085D01*
X123454537Y-81191506D01*
X123375185Y-81094815D01*
X123278494Y-81015463D01*
X123168180Y-80956498D01*
X123048482Y-80920188D01*
X122924000Y-80907928D01*
X122459750Y-80911000D01*
X122301000Y-81069750D01*
X122047000Y-81069750D01*
X121888250Y-80911000D01*
X121424000Y-80907928D01*
X121299518Y-80920188D01*
X121179820Y-80956498D01*
X121069506Y-81015463D01*
X120972815Y-81094815D01*
X120893463Y-81191506D01*
X120834498Y-81301820D01*
X120798188Y-81421518D01*
X120787555Y-81529483D01*
X120709799Y-81413114D01*
X120516886Y-81220201D01*
X120290043Y-81068629D01*
X120037989Y-80964225D01*
X119770411Y-80911000D01*
X119497589Y-80911000D01*
X119230011Y-80964225D01*
X118977957Y-81068629D01*
X118751114Y-81220201D01*
X118558201Y-81413114D01*
X118406629Y-81639957D01*
X118364000Y-81742873D01*
X118321371Y-81639957D01*
X118169799Y-81413114D01*
X117976886Y-81220201D01*
X117750043Y-81068629D01*
X117497989Y-80964225D01*
X117230411Y-80911000D01*
X116957589Y-80911000D01*
X116690011Y-80964225D01*
X116437957Y-81068629D01*
X116211114Y-81220201D01*
X116141230Y-81290085D01*
X116088537Y-81191506D01*
X116009185Y-81094815D01*
X115912494Y-81015463D01*
X115802180Y-80956498D01*
X115682482Y-80920188D01*
X115558000Y-80907928D01*
X115093750Y-80911000D01*
X114935000Y-81069750D01*
X114681000Y-81069750D01*
X114522250Y-80911000D01*
X114058000Y-80907928D01*
X113933518Y-80920188D01*
X113813820Y-80956498D01*
X113703506Y-81015463D01*
X113606815Y-81094815D01*
X113527463Y-81191506D01*
X113468498Y-81301820D01*
X113432188Y-81421518D01*
X113421555Y-81529483D01*
X113343799Y-81413114D01*
X113150886Y-81220201D01*
X112924043Y-81068629D01*
X112671989Y-80964225D01*
X112404411Y-80911000D01*
X112131589Y-80911000D01*
X111864011Y-80964225D01*
X111611957Y-81068629D01*
X111385114Y-81220201D01*
X111192201Y-81413114D01*
X111040629Y-81639957D01*
X110998000Y-81742873D01*
X110955371Y-81639957D01*
X110803799Y-81413114D01*
X110610886Y-81220201D01*
X110384043Y-81068629D01*
X110131989Y-80964225D01*
X109864411Y-80911000D01*
X109591589Y-80911000D01*
X109324011Y-80964225D01*
X109071957Y-81068629D01*
X108845114Y-81220201D01*
X108652201Y-81413114D01*
X108500629Y-81639957D01*
X108396225Y-81892011D01*
X108343000Y-82159589D01*
X104800000Y-82159589D01*
X104800000Y-78740000D01*
X107270057Y-78740000D01*
X107297764Y-79021309D01*
X107379818Y-79291808D01*
X107513068Y-79541101D01*
X107692392Y-79759608D01*
X107910899Y-79938932D01*
X108160192Y-80072182D01*
X108430691Y-80154236D01*
X108641508Y-80175000D01*
X108782492Y-80175000D01*
X108993309Y-80154236D01*
X109263808Y-80072182D01*
X109513101Y-79938932D01*
X109731608Y-79759608D01*
X109910932Y-79541101D01*
X110044182Y-79291808D01*
X110126236Y-79021309D01*
X110153943Y-78740000D01*
X110140023Y-78598665D01*
X114897000Y-78598665D01*
X114897000Y-78881335D01*
X114952147Y-79158574D01*
X115060320Y-79419727D01*
X115217363Y-79654759D01*
X115417241Y-79854637D01*
X115652273Y-80011680D01*
X115913426Y-80119853D01*
X116190665Y-80175000D01*
X116473335Y-80175000D01*
X116750574Y-80119853D01*
X117011727Y-80011680D01*
X117246759Y-79854637D01*
X117446637Y-79654759D01*
X117603680Y-79419727D01*
X117711853Y-79158574D01*
X117767000Y-78881335D01*
X117767000Y-78598665D01*
X119469000Y-78598665D01*
X119469000Y-78881335D01*
X119524147Y-79158574D01*
X119632320Y-79419727D01*
X119789363Y-79654759D01*
X119989241Y-79854637D01*
X120224273Y-80011680D01*
X120485426Y-80119853D01*
X120762665Y-80175000D01*
X121045335Y-80175000D01*
X121322574Y-80119853D01*
X121583727Y-80011680D01*
X121818759Y-79854637D01*
X122018637Y-79654759D01*
X122175680Y-79419727D01*
X122283853Y-79158574D01*
X122339000Y-78881335D01*
X122339000Y-78740000D01*
X127082057Y-78740000D01*
X127109764Y-79021309D01*
X127191818Y-79291808D01*
X127325068Y-79541101D01*
X127504392Y-79759608D01*
X127722899Y-79938932D01*
X127972192Y-80072182D01*
X128242691Y-80154236D01*
X128453508Y-80175000D01*
X128594492Y-80175000D01*
X128805309Y-80154236D01*
X129075808Y-80072182D01*
X129325101Y-79938932D01*
X129543608Y-79759608D01*
X129722932Y-79541101D01*
X129856182Y-79291808D01*
X129938236Y-79021309D01*
X129965943Y-78740000D01*
X129938236Y-78458691D01*
X129856182Y-78188192D01*
X129722932Y-77938899D01*
X129543608Y-77720392D01*
X129325101Y-77541068D01*
X129075808Y-77407818D01*
X128805309Y-77325764D01*
X128594492Y-77305000D01*
X128453508Y-77305000D01*
X128242691Y-77325764D01*
X127972192Y-77407818D01*
X127722899Y-77541068D01*
X127504392Y-77720392D01*
X127325068Y-77938899D01*
X127191818Y-78188192D01*
X127109764Y-78458691D01*
X127082057Y-78740000D01*
X122339000Y-78740000D01*
X122339000Y-78598665D01*
X122283853Y-78321426D01*
X122175680Y-78060273D01*
X122018637Y-77825241D01*
X121818759Y-77625363D01*
X121583727Y-77468320D01*
X121322574Y-77360147D01*
X121045335Y-77305000D01*
X120762665Y-77305000D01*
X120485426Y-77360147D01*
X120224273Y-77468320D01*
X119989241Y-77625363D01*
X119789363Y-77825241D01*
X119632320Y-78060273D01*
X119524147Y-78321426D01*
X119469000Y-78598665D01*
X117767000Y-78598665D01*
X117711853Y-78321426D01*
X117603680Y-78060273D01*
X117446637Y-77825241D01*
X117246759Y-77625363D01*
X117011727Y-77468320D01*
X116750574Y-77360147D01*
X116473335Y-77305000D01*
X116190665Y-77305000D01*
X115913426Y-77360147D01*
X115652273Y-77468320D01*
X115417241Y-77625363D01*
X115217363Y-77825241D01*
X115060320Y-78060273D01*
X114952147Y-78321426D01*
X114897000Y-78598665D01*
X110140023Y-78598665D01*
X110126236Y-78458691D01*
X110044182Y-78188192D01*
X109910932Y-77938899D01*
X109731608Y-77720392D01*
X109513101Y-77541068D01*
X109263808Y-77407818D01*
X108993309Y-77325764D01*
X108782492Y-77305000D01*
X108641508Y-77305000D01*
X108430691Y-77325764D01*
X108160192Y-77407818D01*
X107910899Y-77541068D01*
X107692392Y-77720392D01*
X107513068Y-77938899D01*
X107379818Y-78188192D01*
X107297764Y-78458691D01*
X107270057Y-78740000D01*
X104800000Y-78740000D01*
X104800000Y-75692000D01*
X107270057Y-75692000D01*
X107297764Y-75973309D01*
X107379818Y-76243808D01*
X107513068Y-76493101D01*
X107692392Y-76711608D01*
X107910899Y-76890932D01*
X108160192Y-77024182D01*
X108430691Y-77106236D01*
X108641508Y-77127000D01*
X108782492Y-77127000D01*
X108993309Y-77106236D01*
X109263808Y-77024182D01*
X109513101Y-76890932D01*
X109731608Y-76711608D01*
X109910932Y-76493101D01*
X110044182Y-76243808D01*
X110126236Y-75973309D01*
X110153943Y-75692000D01*
X110140023Y-75550665D01*
X114897000Y-75550665D01*
X114897000Y-75833335D01*
X114952147Y-76110574D01*
X115060320Y-76371727D01*
X115217363Y-76606759D01*
X115417241Y-76806637D01*
X115652273Y-76963680D01*
X115913426Y-77071853D01*
X116190665Y-77127000D01*
X116473335Y-77127000D01*
X116750574Y-77071853D01*
X117011727Y-76963680D01*
X117246759Y-76806637D01*
X117446637Y-76606759D01*
X117603680Y-76371727D01*
X117711853Y-76110574D01*
X117767000Y-75833335D01*
X117767000Y-75550665D01*
X119469000Y-75550665D01*
X119469000Y-75833335D01*
X119524147Y-76110574D01*
X119632320Y-76371727D01*
X119789363Y-76606759D01*
X119989241Y-76806637D01*
X120224273Y-76963680D01*
X120485426Y-77071853D01*
X120762665Y-77127000D01*
X121045335Y-77127000D01*
X121322574Y-77071853D01*
X121583727Y-76963680D01*
X121818759Y-76806637D01*
X122018637Y-76606759D01*
X122175680Y-76371727D01*
X122283853Y-76110574D01*
X122339000Y-75833335D01*
X122339000Y-75692000D01*
X127082057Y-75692000D01*
X127109764Y-75973309D01*
X127191818Y-76243808D01*
X127325068Y-76493101D01*
X127504392Y-76711608D01*
X127722899Y-76890932D01*
X127972192Y-77024182D01*
X128242691Y-77106236D01*
X128453508Y-77127000D01*
X128594492Y-77127000D01*
X128805309Y-77106236D01*
X129075808Y-77024182D01*
X129325101Y-76890932D01*
X129543608Y-76711608D01*
X129722932Y-76493101D01*
X129856182Y-76243808D01*
X129938236Y-75973309D01*
X129965943Y-75692000D01*
X129938236Y-75410691D01*
X129856182Y-75140192D01*
X129722932Y-74890899D01*
X129543608Y-74672392D01*
X129325101Y-74493068D01*
X129075808Y-74359818D01*
X128805309Y-74277764D01*
X128594492Y-74257000D01*
X128453508Y-74257000D01*
X128242691Y-74277764D01*
X127972192Y-74359818D01*
X127722899Y-74493068D01*
X127504392Y-74672392D01*
X127325068Y-74890899D01*
X127191818Y-75140192D01*
X127109764Y-75410691D01*
X127082057Y-75692000D01*
X122339000Y-75692000D01*
X122339000Y-75550665D01*
X122283853Y-75273426D01*
X122175680Y-75012273D01*
X122018637Y-74777241D01*
X121818759Y-74577363D01*
X121583727Y-74420320D01*
X121322574Y-74312147D01*
X121045335Y-74257000D01*
X120762665Y-74257000D01*
X120485426Y-74312147D01*
X120224273Y-74420320D01*
X119989241Y-74577363D01*
X119789363Y-74777241D01*
X119632320Y-75012273D01*
X119524147Y-75273426D01*
X119469000Y-75550665D01*
X117767000Y-75550665D01*
X117711853Y-75273426D01*
X117603680Y-75012273D01*
X117446637Y-74777241D01*
X117246759Y-74577363D01*
X117011727Y-74420320D01*
X116750574Y-74312147D01*
X116473335Y-74257000D01*
X116190665Y-74257000D01*
X115913426Y-74312147D01*
X115652273Y-74420320D01*
X115417241Y-74577363D01*
X115217363Y-74777241D01*
X115060320Y-75012273D01*
X114952147Y-75273426D01*
X114897000Y-75550665D01*
X110140023Y-75550665D01*
X110126236Y-75410691D01*
X110044182Y-75140192D01*
X109910932Y-74890899D01*
X109731608Y-74672392D01*
X109513101Y-74493068D01*
X109263808Y-74359818D01*
X108993309Y-74277764D01*
X108782492Y-74257000D01*
X108641508Y-74257000D01*
X108430691Y-74277764D01*
X108160192Y-74359818D01*
X107910899Y-74493068D01*
X107692392Y-74672392D01*
X107513068Y-74890899D01*
X107379818Y-75140192D01*
X107297764Y-75410691D01*
X107270057Y-75692000D01*
X104800000Y-75692000D01*
X104800000Y-72644000D01*
X107270057Y-72644000D01*
X107297764Y-72925309D01*
X107379818Y-73195808D01*
X107513068Y-73445101D01*
X107692392Y-73663608D01*
X107910899Y-73842932D01*
X108160192Y-73976182D01*
X108430691Y-74058236D01*
X108641508Y-74079000D01*
X108782492Y-74079000D01*
X108993309Y-74058236D01*
X109263808Y-73976182D01*
X109513101Y-73842932D01*
X109731608Y-73663608D01*
X109910932Y-73445101D01*
X110044182Y-73195808D01*
X110126236Y-72925309D01*
X110153943Y-72644000D01*
X110140023Y-72502665D01*
X114897000Y-72502665D01*
X114897000Y-72785335D01*
X114952147Y-73062574D01*
X115060320Y-73323727D01*
X115217363Y-73558759D01*
X115417241Y-73758637D01*
X115652273Y-73915680D01*
X115913426Y-74023853D01*
X116190665Y-74079000D01*
X116473335Y-74079000D01*
X116750574Y-74023853D01*
X117011727Y-73915680D01*
X117246759Y-73758637D01*
X117446637Y-73558759D01*
X117603680Y-73323727D01*
X117711853Y-73062574D01*
X117767000Y-72785335D01*
X117767000Y-72502665D01*
X119469000Y-72502665D01*
X119469000Y-72785335D01*
X119524147Y-73062574D01*
X119632320Y-73323727D01*
X119789363Y-73558759D01*
X119989241Y-73758637D01*
X120224273Y-73915680D01*
X120485426Y-74023853D01*
X120762665Y-74079000D01*
X121045335Y-74079000D01*
X121322574Y-74023853D01*
X121583727Y-73915680D01*
X121818759Y-73758637D01*
X122018637Y-73558759D01*
X122175680Y-73323727D01*
X122283853Y-73062574D01*
X122339000Y-72785335D01*
X122339000Y-72502665D01*
X122283853Y-72225426D01*
X122175680Y-71964273D01*
X122018637Y-71729241D01*
X121818759Y-71529363D01*
X121583727Y-71372320D01*
X121322574Y-71264147D01*
X121045335Y-71209000D01*
X120762665Y-71209000D01*
X120485426Y-71264147D01*
X120224273Y-71372320D01*
X119989241Y-71529363D01*
X119789363Y-71729241D01*
X119632320Y-71964273D01*
X119524147Y-72225426D01*
X119469000Y-72502665D01*
X117767000Y-72502665D01*
X117711853Y-72225426D01*
X117603680Y-71964273D01*
X117446637Y-71729241D01*
X117246759Y-71529363D01*
X117011727Y-71372320D01*
X116750574Y-71264147D01*
X116473335Y-71209000D01*
X116190665Y-71209000D01*
X115913426Y-71264147D01*
X115652273Y-71372320D01*
X115417241Y-71529363D01*
X115217363Y-71729241D01*
X115060320Y-71964273D01*
X114952147Y-72225426D01*
X114897000Y-72502665D01*
X110140023Y-72502665D01*
X110126236Y-72362691D01*
X110044182Y-72092192D01*
X109910932Y-71842899D01*
X109731608Y-71624392D01*
X109513101Y-71445068D01*
X109263808Y-71311818D01*
X108993309Y-71229764D01*
X108782492Y-71209000D01*
X108641508Y-71209000D01*
X108430691Y-71229764D01*
X108160192Y-71311818D01*
X107910899Y-71445068D01*
X107692392Y-71624392D01*
X107513068Y-71842899D01*
X107379818Y-72092192D01*
X107297764Y-72362691D01*
X107270057Y-72644000D01*
X104800000Y-72644000D01*
X104800000Y-65056532D01*
X105620227Y-65056532D01*
X105670916Y-65508434D01*
X105808415Y-65941885D01*
X106027486Y-66340373D01*
X106319784Y-66688721D01*
X106674178Y-66973661D01*
X107077167Y-67184338D01*
X107513402Y-67312729D01*
X107966266Y-67353943D01*
X108418512Y-67306410D01*
X108852911Y-67171941D01*
X109252919Y-66955658D01*
X109603300Y-66665798D01*
X109890706Y-66313402D01*
X110104192Y-65911894D01*
X110235626Y-65476566D01*
X110280000Y-65024000D01*
X110279092Y-64958943D01*
X110222098Y-64507792D01*
X110078561Y-64076304D01*
X109853948Y-63680913D01*
X109556814Y-63336680D01*
X109198476Y-63056716D01*
X108792585Y-62851686D01*
X108354600Y-62729398D01*
X107901204Y-62694511D01*
X107449667Y-62748354D01*
X107017187Y-62888875D01*
X106620237Y-63110722D01*
X106273938Y-63405446D01*
X105991480Y-63761820D01*
X105783621Y-64166270D01*
X105658278Y-64603390D01*
X105620227Y-65056532D01*
X104800000Y-65056532D01*
X104800000Y-58064000D01*
X113234044Y-58064000D01*
X113205459Y-58087459D01*
G36*
X136525000Y-124841000D02*
G01*
X136545000Y-124841000D01*
X136545000Y-125095000D01*
X136525000Y-125095000D01*
X136525000Y-125115000D01*
X136271000Y-125115000D01*
X136271000Y-125095000D01*
X136251000Y-125095000D01*
X136251000Y-124841000D01*
X136271000Y-124841000D01*
X136271000Y-124821000D01*
X136525000Y-124821000D01*
X136525000Y-124841000D01*
X136525000Y-124841000D01*
G37*
X136525000Y-124841000D02*
X136545000Y-124841000D01*
X136545000Y-125095000D01*
X136525000Y-125095000D01*
X136525000Y-125115000D01*
X136271000Y-125115000D01*
X136271000Y-125095000D01*
X136251000Y-125095000D01*
X136251000Y-124841000D01*
X136271000Y-124841000D01*
X136271000Y-124821000D01*
X136525000Y-124821000D01*
X136525000Y-124841000D01*
G36*
X132395644Y-77429076D02*
G01*
X132394487Y-77432889D01*
X132365815Y-77724000D01*
X132394487Y-78015111D01*
X132479401Y-78295034D01*
X132617294Y-78553014D01*
X132802866Y-78779134D01*
X133028986Y-78964706D01*
X133083791Y-78994000D01*
X133028986Y-79023294D01*
X132802866Y-79208866D01*
X132617294Y-79434986D01*
X132479401Y-79692966D01*
X132394487Y-79972889D01*
X132365815Y-80264000D01*
X132394487Y-80555111D01*
X132479401Y-80835034D01*
X132617294Y-81093014D01*
X132802866Y-81319134D01*
X133028986Y-81504706D01*
X133083791Y-81534000D01*
X133028986Y-81563294D01*
X132802866Y-81748866D01*
X132617294Y-81974986D01*
X132479401Y-82232966D01*
X132394487Y-82512889D01*
X132365815Y-82804000D01*
X132394487Y-83095111D01*
X132479401Y-83375034D01*
X132617294Y-83633014D01*
X132802866Y-83859134D01*
X133028986Y-84044706D01*
X133083791Y-84074000D01*
X133028986Y-84103294D01*
X132802866Y-84288866D01*
X132617294Y-84514986D01*
X132479401Y-84772966D01*
X132394487Y-85052889D01*
X132365815Y-85344000D01*
X132394487Y-85635111D01*
X132479401Y-85915034D01*
X132617294Y-86173014D01*
X132802866Y-86399134D01*
X133028986Y-86584706D01*
X133083791Y-86614000D01*
X133028986Y-86643294D01*
X132802866Y-86828866D01*
X132617294Y-87054986D01*
X132479401Y-87312966D01*
X132394487Y-87592889D01*
X132365815Y-87884000D01*
X132394487Y-88175111D01*
X132479401Y-88455034D01*
X132617294Y-88713014D01*
X132802866Y-88939134D01*
X132832687Y-88963607D01*
X132763820Y-88984498D01*
X132653506Y-89043463D01*
X132556815Y-89122815D01*
X132477463Y-89219506D01*
X132418498Y-89329820D01*
X132382188Y-89449518D01*
X132369928Y-89574000D01*
X132369928Y-91274000D01*
X132382188Y-91398482D01*
X132418498Y-91518180D01*
X132477463Y-91628494D01*
X132556815Y-91725185D01*
X132653506Y-91804537D01*
X132763820Y-91863502D01*
X132883518Y-91899812D01*
X133008000Y-91912072D01*
X134366001Y-91912072D01*
X134366000Y-96604370D01*
X130617711Y-100352659D01*
X130619943Y-100330000D01*
X130592236Y-100048691D01*
X130510182Y-99778192D01*
X130376932Y-99528899D01*
X130197608Y-99310392D01*
X129979101Y-99131068D01*
X129729808Y-98997818D01*
X129459309Y-98915764D01*
X129248492Y-98895000D01*
X128307508Y-98895000D01*
X128096691Y-98915764D01*
X127826192Y-98997818D01*
X127576899Y-99131068D01*
X127358392Y-99310392D01*
X127179068Y-99528899D01*
X127045818Y-99778192D01*
X126963764Y-100048691D01*
X126936057Y-100330000D01*
X126963764Y-100611309D01*
X127045818Y-100881808D01*
X127179068Y-101131101D01*
X127358392Y-101349608D01*
X127576899Y-101528932D01*
X127709858Y-101600000D01*
X127576899Y-101671068D01*
X127358392Y-101850392D01*
X127179068Y-102068899D01*
X127045818Y-102318192D01*
X126963764Y-102588691D01*
X126936057Y-102870000D01*
X126963764Y-103151309D01*
X127045818Y-103421808D01*
X127179068Y-103671101D01*
X127358392Y-103889608D01*
X127576899Y-104068932D01*
X127709858Y-104140000D01*
X127576899Y-104211068D01*
X127358392Y-104390392D01*
X127179068Y-104608899D01*
X127045818Y-104858192D01*
X126963764Y-105128691D01*
X126936057Y-105410000D01*
X126963764Y-105691309D01*
X127045818Y-105961808D01*
X127179068Y-106211101D01*
X127358392Y-106429608D01*
X127576899Y-106608932D01*
X127704741Y-106677265D01*
X127475161Y-106827399D01*
X127273500Y-107025105D01*
X127114285Y-107258354D01*
X127003633Y-107518182D01*
X126986096Y-107600961D01*
X127108085Y-107823000D01*
X128651000Y-107823000D01*
X128651000Y-107803000D01*
X128905000Y-107803000D01*
X128905000Y-107823000D01*
X130447915Y-107823000D01*
X130569904Y-107600961D01*
X130552367Y-107518182D01*
X130441715Y-107258354D01*
X130282500Y-107025105D01*
X130080839Y-106827399D01*
X129851259Y-106677265D01*
X129979101Y-106608932D01*
X130197608Y-106429608D01*
X130376932Y-106211101D01*
X130510182Y-105961808D01*
X130592236Y-105691309D01*
X130619943Y-105410000D01*
X130592236Y-105128691D01*
X130510182Y-104858192D01*
X130376932Y-104608899D01*
X130197608Y-104390392D01*
X129979101Y-104211068D01*
X129846142Y-104140000D01*
X129979101Y-104068932D01*
X130197608Y-103889608D01*
X130376932Y-103671101D01*
X130510182Y-103421808D01*
X130592236Y-103151309D01*
X130619943Y-102870000D01*
X130592236Y-102588691D01*
X130579366Y-102546264D01*
X133350001Y-99775629D01*
X133350000Y-107780370D01*
X130617711Y-110512659D01*
X130619943Y-110490000D01*
X130592236Y-110208691D01*
X130510182Y-109938192D01*
X130376932Y-109688899D01*
X130197608Y-109470392D01*
X129979101Y-109291068D01*
X129851259Y-109222735D01*
X130080839Y-109072601D01*
X130282500Y-108874895D01*
X130441715Y-108641646D01*
X130552367Y-108381818D01*
X130569904Y-108299039D01*
X130447915Y-108077000D01*
X128905000Y-108077000D01*
X128905000Y-108097000D01*
X128651000Y-108097000D01*
X128651000Y-108077000D01*
X127108085Y-108077000D01*
X126986096Y-108299039D01*
X127003633Y-108381818D01*
X127114285Y-108641646D01*
X127273500Y-108874895D01*
X127475161Y-109072601D01*
X127704741Y-109222735D01*
X127576899Y-109291068D01*
X127358392Y-109470392D01*
X127179068Y-109688899D01*
X127045818Y-109938192D01*
X126963764Y-110208691D01*
X126936057Y-110490000D01*
X126963764Y-110771309D01*
X127045818Y-111041808D01*
X127179068Y-111291101D01*
X127358392Y-111509608D01*
X127576899Y-111688932D01*
X127709858Y-111760000D01*
X127576899Y-111831068D01*
X127358392Y-112010392D01*
X127179068Y-112228899D01*
X127045818Y-112478192D01*
X126963764Y-112748691D01*
X126936057Y-113030000D01*
X126963764Y-113311309D01*
X127045818Y-113581808D01*
X127179068Y-113831101D01*
X127358392Y-114049608D01*
X127576899Y-114228932D01*
X127709858Y-114300000D01*
X127576899Y-114371068D01*
X127358392Y-114550392D01*
X127179068Y-114768899D01*
X127045818Y-115018192D01*
X126963764Y-115288691D01*
X126936057Y-115570000D01*
X126963764Y-115851309D01*
X127045818Y-116121808D01*
X127179068Y-116371101D01*
X127358392Y-116589608D01*
X127576899Y-116768932D01*
X127709858Y-116840000D01*
X127576899Y-116911068D01*
X127358392Y-117090392D01*
X127179068Y-117308899D01*
X127045818Y-117558192D01*
X126963764Y-117828691D01*
X126936057Y-118110000D01*
X126948405Y-118235367D01*
X126944607Y-118231569D01*
X126914778Y-118195222D01*
X126769741Y-118076194D01*
X126604269Y-117987748D01*
X126424723Y-117933283D01*
X126284785Y-117919500D01*
X126238000Y-117914892D01*
X126191215Y-117919500D01*
X120092682Y-117919500D01*
X120037608Y-117852392D01*
X119819101Y-117673068D01*
X119691259Y-117604735D01*
X119920839Y-117454601D01*
X120122500Y-117256895D01*
X120281715Y-117023646D01*
X120392367Y-116763818D01*
X120409904Y-116681039D01*
X120287915Y-116459000D01*
X118745000Y-116459000D01*
X118745000Y-116479000D01*
X118491000Y-116479000D01*
X118491000Y-116459000D01*
X118471000Y-116459000D01*
X118471000Y-116205000D01*
X118491000Y-116205000D01*
X118491000Y-116185000D01*
X118745000Y-116185000D01*
X118745000Y-116205000D01*
X120287915Y-116205000D01*
X120391978Y-116015589D01*
X122313000Y-116015589D01*
X122313000Y-116288411D01*
X122366225Y-116555989D01*
X122470629Y-116808043D01*
X122622201Y-117034886D01*
X122815114Y-117227799D01*
X123041957Y-117379371D01*
X123294011Y-117483775D01*
X123561589Y-117537000D01*
X123834411Y-117537000D01*
X124101989Y-117483775D01*
X124354043Y-117379371D01*
X124580886Y-117227799D01*
X124773799Y-117034886D01*
X124925371Y-116808043D01*
X125029775Y-116555989D01*
X125083000Y-116288411D01*
X125083000Y-116015589D01*
X125029775Y-115748011D01*
X124925371Y-115495957D01*
X124773799Y-115269114D01*
X124580886Y-115076201D01*
X124354043Y-114924629D01*
X124101989Y-114820225D01*
X123834411Y-114767000D01*
X123561589Y-114767000D01*
X123294011Y-114820225D01*
X123041957Y-114924629D01*
X122815114Y-115076201D01*
X122622201Y-115269114D01*
X122470629Y-115495957D01*
X122366225Y-115748011D01*
X122313000Y-116015589D01*
X120391978Y-116015589D01*
X120409904Y-115982961D01*
X120392367Y-115900182D01*
X120281715Y-115640354D01*
X120122500Y-115407105D01*
X119920839Y-115209399D01*
X119691259Y-115059265D01*
X119819101Y-114990932D01*
X120037608Y-114811608D01*
X120216932Y-114593101D01*
X120350182Y-114343808D01*
X120432236Y-114073309D01*
X120459943Y-113792000D01*
X120432236Y-113510691D01*
X120350182Y-113240192D01*
X120216932Y-112990899D01*
X120037608Y-112772392D01*
X119819101Y-112593068D01*
X119686142Y-112522000D01*
X119819101Y-112450932D01*
X120037608Y-112271608D01*
X120216932Y-112053101D01*
X120350182Y-111803808D01*
X120432236Y-111533309D01*
X120459943Y-111252000D01*
X120446508Y-111115589D01*
X122313000Y-111115589D01*
X122313000Y-111388411D01*
X122366225Y-111655989D01*
X122470629Y-111908043D01*
X122622201Y-112134886D01*
X122815114Y-112327799D01*
X123041957Y-112479371D01*
X123294011Y-112583775D01*
X123561589Y-112637000D01*
X123834411Y-112637000D01*
X124101989Y-112583775D01*
X124354043Y-112479371D01*
X124580886Y-112327799D01*
X124773799Y-112134886D01*
X124925371Y-111908043D01*
X125029775Y-111655989D01*
X125083000Y-111388411D01*
X125083000Y-111115589D01*
X125029775Y-110848011D01*
X124925371Y-110595957D01*
X124773799Y-110369114D01*
X124580886Y-110176201D01*
X124354043Y-110024629D01*
X124101989Y-109920225D01*
X123834411Y-109867000D01*
X123561589Y-109867000D01*
X123294011Y-109920225D01*
X123041957Y-110024629D01*
X122815114Y-110176201D01*
X122622201Y-110369114D01*
X122470629Y-110595957D01*
X122366225Y-110848011D01*
X122313000Y-111115589D01*
X120446508Y-111115589D01*
X120432236Y-110970691D01*
X120350182Y-110700192D01*
X120216932Y-110450899D01*
X120037608Y-110232392D01*
X119819101Y-110053068D01*
X119686142Y-109982000D01*
X119819101Y-109910932D01*
X120037608Y-109731608D01*
X120216932Y-109513101D01*
X120350182Y-109263808D01*
X120432236Y-108993309D01*
X120459943Y-108712000D01*
X120432236Y-108430691D01*
X120350182Y-108160192D01*
X120216932Y-107910899D01*
X120037608Y-107692392D01*
X119819101Y-107513068D01*
X119686142Y-107442000D01*
X119819101Y-107370932D01*
X120037608Y-107191608D01*
X120059689Y-107164702D01*
X121654903Y-107164702D01*
X121726486Y-107408671D01*
X121981996Y-107529571D01*
X122256184Y-107598300D01*
X122538512Y-107612217D01*
X122818130Y-107570787D01*
X123084292Y-107475603D01*
X123209514Y-107408671D01*
X123281097Y-107164702D01*
X122468000Y-106351605D01*
X121654903Y-107164702D01*
X120059689Y-107164702D01*
X120216932Y-106973101D01*
X120350182Y-106723808D01*
X120432236Y-106453309D01*
X120452998Y-106242512D01*
X121027783Y-106242512D01*
X121069213Y-106522130D01*
X121164397Y-106788292D01*
X121231329Y-106913514D01*
X121475298Y-106985097D01*
X122288395Y-106172000D01*
X122647605Y-106172000D01*
X123460702Y-106985097D01*
X123704671Y-106913514D01*
X123718324Y-106884659D01*
X123853363Y-107086759D01*
X124053241Y-107286637D01*
X124288273Y-107443680D01*
X124549426Y-107551853D01*
X124826665Y-107607000D01*
X125109335Y-107607000D01*
X125386574Y-107551853D01*
X125647727Y-107443680D01*
X125882759Y-107286637D01*
X126082637Y-107086759D01*
X126239680Y-106851727D01*
X126347853Y-106590574D01*
X126403000Y-106313335D01*
X126403000Y-106030665D01*
X126347853Y-105753426D01*
X126239680Y-105492273D01*
X126082637Y-105257241D01*
X125882759Y-105057363D01*
X125647727Y-104900320D01*
X125386574Y-104792147D01*
X125109335Y-104737000D01*
X124826665Y-104737000D01*
X124549426Y-104792147D01*
X124288273Y-104900320D01*
X124053241Y-105057363D01*
X123853363Y-105257241D01*
X123719308Y-105457869D01*
X123704671Y-105430486D01*
X123460702Y-105358903D01*
X122647605Y-106172000D01*
X122288395Y-106172000D01*
X121475298Y-105358903D01*
X121231329Y-105430486D01*
X121110429Y-105685996D01*
X121041700Y-105960184D01*
X121027783Y-106242512D01*
X120452998Y-106242512D01*
X120459943Y-106172000D01*
X120432236Y-105890691D01*
X120350182Y-105620192D01*
X120216932Y-105370899D01*
X120059690Y-105179298D01*
X121654903Y-105179298D01*
X122468000Y-105992395D01*
X123281097Y-105179298D01*
X123209514Y-104935329D01*
X122954004Y-104814429D01*
X122679816Y-104745700D01*
X122397488Y-104731783D01*
X122117870Y-104773213D01*
X121851708Y-104868397D01*
X121726486Y-104935329D01*
X121654903Y-105179298D01*
X120059690Y-105179298D01*
X120037608Y-105152392D01*
X119819101Y-104973068D01*
X119686142Y-104902000D01*
X119819101Y-104830932D01*
X120037608Y-104651608D01*
X120216932Y-104433101D01*
X120350182Y-104183808D01*
X120432236Y-103913309D01*
X120459943Y-103632000D01*
X120432236Y-103350691D01*
X120350182Y-103080192D01*
X120216932Y-102830899D01*
X120037608Y-102612392D01*
X119819101Y-102433068D01*
X119686142Y-102362000D01*
X119819101Y-102290932D01*
X120037608Y-102111608D01*
X120216932Y-101893101D01*
X120350182Y-101643808D01*
X120432236Y-101373309D01*
X120459943Y-101092000D01*
X120432236Y-100810691D01*
X120350182Y-100540192D01*
X120216932Y-100290899D01*
X120037608Y-100072392D01*
X119819101Y-99893068D01*
X119804942Y-99885500D01*
X126197450Y-99885500D01*
X126238000Y-99889494D01*
X126278550Y-99885500D01*
X126278553Y-99885500D01*
X126399826Y-99873556D01*
X126555434Y-99826353D01*
X126698842Y-99749699D01*
X126824541Y-99646541D01*
X126850398Y-99615034D01*
X131475906Y-94989527D01*
X131507406Y-94963676D01*
X131599637Y-94851292D01*
X131610564Y-94837978D01*
X131687218Y-94694569D01*
X131703541Y-94640759D01*
X131734421Y-94538961D01*
X131746365Y-94417688D01*
X131746365Y-94417686D01*
X131750359Y-94377136D01*
X131746365Y-94336585D01*
X131746365Y-76779797D01*
X132395644Y-77429076D01*
X132395644Y-77429076D01*
G37*
X132395644Y-77429076D02*
X132394487Y-77432889D01*
X132365815Y-77724000D01*
X132394487Y-78015111D01*
X132479401Y-78295034D01*
X132617294Y-78553014D01*
X132802866Y-78779134D01*
X133028986Y-78964706D01*
X133083791Y-78994000D01*
X133028986Y-79023294D01*
X132802866Y-79208866D01*
X132617294Y-79434986D01*
X132479401Y-79692966D01*
X132394487Y-79972889D01*
X132365815Y-80264000D01*
X132394487Y-80555111D01*
X132479401Y-80835034D01*
X132617294Y-81093014D01*
X132802866Y-81319134D01*
X133028986Y-81504706D01*
X133083791Y-81534000D01*
X133028986Y-81563294D01*
X132802866Y-81748866D01*
X132617294Y-81974986D01*
X132479401Y-82232966D01*
X132394487Y-82512889D01*
X132365815Y-82804000D01*
X132394487Y-83095111D01*
X132479401Y-83375034D01*
X132617294Y-83633014D01*
X132802866Y-83859134D01*
X133028986Y-84044706D01*
X133083791Y-84074000D01*
X133028986Y-84103294D01*
X132802866Y-84288866D01*
X132617294Y-84514986D01*
X132479401Y-84772966D01*
X132394487Y-85052889D01*
X132365815Y-85344000D01*
X132394487Y-85635111D01*
X132479401Y-85915034D01*
X132617294Y-86173014D01*
X132802866Y-86399134D01*
X133028986Y-86584706D01*
X133083791Y-86614000D01*
X133028986Y-86643294D01*
X132802866Y-86828866D01*
X132617294Y-87054986D01*
X132479401Y-87312966D01*
X132394487Y-87592889D01*
X132365815Y-87884000D01*
X132394487Y-88175111D01*
X132479401Y-88455034D01*
X132617294Y-88713014D01*
X132802866Y-88939134D01*
X132832687Y-88963607D01*
X132763820Y-88984498D01*
X132653506Y-89043463D01*
X132556815Y-89122815D01*
X132477463Y-89219506D01*
X132418498Y-89329820D01*
X132382188Y-89449518D01*
X132369928Y-89574000D01*
X132369928Y-91274000D01*
X132382188Y-91398482D01*
X132418498Y-91518180D01*
X132477463Y-91628494D01*
X132556815Y-91725185D01*
X132653506Y-91804537D01*
X132763820Y-91863502D01*
X132883518Y-91899812D01*
X133008000Y-91912072D01*
X134366001Y-91912072D01*
X134366000Y-96604370D01*
X130617711Y-100352659D01*
X130619943Y-100330000D01*
X130592236Y-100048691D01*
X130510182Y-99778192D01*
X130376932Y-99528899D01*
X130197608Y-99310392D01*
X129979101Y-99131068D01*
X129729808Y-98997818D01*
X129459309Y-98915764D01*
X129248492Y-98895000D01*
X128307508Y-98895000D01*
X128096691Y-98915764D01*
X127826192Y-98997818D01*
X127576899Y-99131068D01*
X127358392Y-99310392D01*
X127179068Y-99528899D01*
X127045818Y-99778192D01*
X126963764Y-100048691D01*
X126936057Y-100330000D01*
X126963764Y-100611309D01*
X127045818Y-100881808D01*
X127179068Y-101131101D01*
X127358392Y-101349608D01*
X127576899Y-101528932D01*
X127709858Y-101600000D01*
X127576899Y-101671068D01*
X127358392Y-101850392D01*
X127179068Y-102068899D01*
X127045818Y-102318192D01*
X126963764Y-102588691D01*
X126936057Y-102870000D01*
X126963764Y-103151309D01*
X127045818Y-103421808D01*
X127179068Y-103671101D01*
X127358392Y-103889608D01*
X127576899Y-104068932D01*
X127709858Y-104140000D01*
X127576899Y-104211068D01*
X127358392Y-104390392D01*
X127179068Y-104608899D01*
X127045818Y-104858192D01*
X126963764Y-105128691D01*
X126936057Y-105410000D01*
X126963764Y-105691309D01*
X127045818Y-105961808D01*
X127179068Y-106211101D01*
X127358392Y-106429608D01*
X127576899Y-106608932D01*
X127704741Y-106677265D01*
X127475161Y-106827399D01*
X127273500Y-107025105D01*
X127114285Y-107258354D01*
X127003633Y-107518182D01*
X126986096Y-107600961D01*
X127108085Y-107823000D01*
X128651000Y-107823000D01*
X128651000Y-107803000D01*
X128905000Y-107803000D01*
X128905000Y-107823000D01*
X130447915Y-107823000D01*
X130569904Y-107600961D01*
X130552367Y-107518182D01*
X130441715Y-107258354D01*
X130282500Y-107025105D01*
X130080839Y-106827399D01*
X129851259Y-106677265D01*
X129979101Y-106608932D01*
X130197608Y-106429608D01*
X130376932Y-106211101D01*
X130510182Y-105961808D01*
X130592236Y-105691309D01*
X130619943Y-105410000D01*
X130592236Y-105128691D01*
X130510182Y-104858192D01*
X130376932Y-104608899D01*
X130197608Y-104390392D01*
X129979101Y-104211068D01*
X129846142Y-104140000D01*
X129979101Y-104068932D01*
X130197608Y-103889608D01*
X130376932Y-103671101D01*
X130510182Y-103421808D01*
X130592236Y-103151309D01*
X130619943Y-102870000D01*
X130592236Y-102588691D01*
X130579366Y-102546264D01*
X133350001Y-99775629D01*
X133350000Y-107780370D01*
X130617711Y-110512659D01*
X130619943Y-110490000D01*
X130592236Y-110208691D01*
X130510182Y-109938192D01*
X130376932Y-109688899D01*
X130197608Y-109470392D01*
X129979101Y-109291068D01*
X129851259Y-109222735D01*
X130080839Y-109072601D01*
X130282500Y-108874895D01*
X130441715Y-108641646D01*
X130552367Y-108381818D01*
X130569904Y-108299039D01*
X130447915Y-108077000D01*
X128905000Y-108077000D01*
X128905000Y-108097000D01*
X128651000Y-108097000D01*
X128651000Y-108077000D01*
X127108085Y-108077000D01*
X126986096Y-108299039D01*
X127003633Y-108381818D01*
X127114285Y-108641646D01*
X127273500Y-108874895D01*
X127475161Y-109072601D01*
X127704741Y-109222735D01*
X127576899Y-109291068D01*
X127358392Y-109470392D01*
X127179068Y-109688899D01*
X127045818Y-109938192D01*
X126963764Y-110208691D01*
X126936057Y-110490000D01*
X126963764Y-110771309D01*
X127045818Y-111041808D01*
X127179068Y-111291101D01*
X127358392Y-111509608D01*
X127576899Y-111688932D01*
X127709858Y-111760000D01*
X127576899Y-111831068D01*
X127358392Y-112010392D01*
X127179068Y-112228899D01*
X127045818Y-112478192D01*
X126963764Y-112748691D01*
X126936057Y-113030000D01*
X126963764Y-113311309D01*
X127045818Y-113581808D01*
X127179068Y-113831101D01*
X127358392Y-114049608D01*
X127576899Y-114228932D01*
X127709858Y-114300000D01*
X127576899Y-114371068D01*
X127358392Y-114550392D01*
X127179068Y-114768899D01*
X127045818Y-115018192D01*
X126963764Y-115288691D01*
X126936057Y-115570000D01*
X126963764Y-115851309D01*
X127045818Y-116121808D01*
X127179068Y-116371101D01*
X127358392Y-116589608D01*
X127576899Y-116768932D01*
X127709858Y-116840000D01*
X127576899Y-116911068D01*
X127358392Y-117090392D01*
X127179068Y-117308899D01*
X127045818Y-117558192D01*
X126963764Y-117828691D01*
X126936057Y-118110000D01*
X126948405Y-118235367D01*
X126944607Y-118231569D01*
X126914778Y-118195222D01*
X126769741Y-118076194D01*
X126604269Y-117987748D01*
X126424723Y-117933283D01*
X126284785Y-117919500D01*
X126238000Y-117914892D01*
X126191215Y-117919500D01*
X120092682Y-117919500D01*
X120037608Y-117852392D01*
X119819101Y-117673068D01*
X119691259Y-117604735D01*
X119920839Y-117454601D01*
X120122500Y-117256895D01*
X120281715Y-117023646D01*
X120392367Y-116763818D01*
X120409904Y-116681039D01*
X120287915Y-116459000D01*
X118745000Y-116459000D01*
X118745000Y-116479000D01*
X118491000Y-116479000D01*
X118491000Y-116459000D01*
X118471000Y-116459000D01*
X118471000Y-116205000D01*
X118491000Y-116205000D01*
X118491000Y-116185000D01*
X118745000Y-116185000D01*
X118745000Y-116205000D01*
X120287915Y-116205000D01*
X120391978Y-116015589D01*
X122313000Y-116015589D01*
X122313000Y-116288411D01*
X122366225Y-116555989D01*
X122470629Y-116808043D01*
X122622201Y-117034886D01*
X122815114Y-117227799D01*
X123041957Y-117379371D01*
X123294011Y-117483775D01*
X123561589Y-117537000D01*
X123834411Y-117537000D01*
X124101989Y-117483775D01*
X124354043Y-117379371D01*
X124580886Y-117227799D01*
X124773799Y-117034886D01*
X124925371Y-116808043D01*
X125029775Y-116555989D01*
X125083000Y-116288411D01*
X125083000Y-116015589D01*
X125029775Y-115748011D01*
X124925371Y-115495957D01*
X124773799Y-115269114D01*
X124580886Y-115076201D01*
X124354043Y-114924629D01*
X124101989Y-114820225D01*
X123834411Y-114767000D01*
X123561589Y-114767000D01*
X123294011Y-114820225D01*
X123041957Y-114924629D01*
X122815114Y-115076201D01*
X122622201Y-115269114D01*
X122470629Y-115495957D01*
X122366225Y-115748011D01*
X122313000Y-116015589D01*
X120391978Y-116015589D01*
X120409904Y-115982961D01*
X120392367Y-115900182D01*
X120281715Y-115640354D01*
X120122500Y-115407105D01*
X119920839Y-115209399D01*
X119691259Y-115059265D01*
X119819101Y-114990932D01*
X120037608Y-114811608D01*
X120216932Y-114593101D01*
X120350182Y-114343808D01*
X120432236Y-114073309D01*
X120459943Y-113792000D01*
X120432236Y-113510691D01*
X120350182Y-113240192D01*
X120216932Y-112990899D01*
X120037608Y-112772392D01*
X119819101Y-112593068D01*
X119686142Y-112522000D01*
X119819101Y-112450932D01*
X120037608Y-112271608D01*
X120216932Y-112053101D01*
X120350182Y-111803808D01*
X120432236Y-111533309D01*
X120459943Y-111252000D01*
X120446508Y-111115589D01*
X122313000Y-111115589D01*
X122313000Y-111388411D01*
X122366225Y-111655989D01*
X122470629Y-111908043D01*
X122622201Y-112134886D01*
X122815114Y-112327799D01*
X123041957Y-112479371D01*
X123294011Y-112583775D01*
X123561589Y-112637000D01*
X123834411Y-112637000D01*
X124101989Y-112583775D01*
X124354043Y-112479371D01*
X124580886Y-112327799D01*
X124773799Y-112134886D01*
X124925371Y-111908043D01*
X125029775Y-111655989D01*
X125083000Y-111388411D01*
X125083000Y-111115589D01*
X125029775Y-110848011D01*
X124925371Y-110595957D01*
X124773799Y-110369114D01*
X124580886Y-110176201D01*
X124354043Y-110024629D01*
X124101989Y-109920225D01*
X123834411Y-109867000D01*
X123561589Y-109867000D01*
X123294011Y-109920225D01*
X123041957Y-110024629D01*
X122815114Y-110176201D01*
X122622201Y-110369114D01*
X122470629Y-110595957D01*
X122366225Y-110848011D01*
X122313000Y-111115589D01*
X120446508Y-111115589D01*
X120432236Y-110970691D01*
X120350182Y-110700192D01*
X120216932Y-110450899D01*
X120037608Y-110232392D01*
X119819101Y-110053068D01*
X119686142Y-109982000D01*
X119819101Y-109910932D01*
X120037608Y-109731608D01*
X120216932Y-109513101D01*
X120350182Y-109263808D01*
X120432236Y-108993309D01*
X120459943Y-108712000D01*
X120432236Y-108430691D01*
X120350182Y-108160192D01*
X120216932Y-107910899D01*
X120037608Y-107692392D01*
X119819101Y-107513068D01*
X119686142Y-107442000D01*
X119819101Y-107370932D01*
X120037608Y-107191608D01*
X120059689Y-107164702D01*
X121654903Y-107164702D01*
X121726486Y-107408671D01*
X121981996Y-107529571D01*
X122256184Y-107598300D01*
X122538512Y-107612217D01*
X122818130Y-107570787D01*
X123084292Y-107475603D01*
X123209514Y-107408671D01*
X123281097Y-107164702D01*
X122468000Y-106351605D01*
X121654903Y-107164702D01*
X120059689Y-107164702D01*
X120216932Y-106973101D01*
X120350182Y-106723808D01*
X120432236Y-106453309D01*
X120452998Y-106242512D01*
X121027783Y-106242512D01*
X121069213Y-106522130D01*
X121164397Y-106788292D01*
X121231329Y-106913514D01*
X121475298Y-106985097D01*
X122288395Y-106172000D01*
X122647605Y-106172000D01*
X123460702Y-106985097D01*
X123704671Y-106913514D01*
X123718324Y-106884659D01*
X123853363Y-107086759D01*
X124053241Y-107286637D01*
X124288273Y-107443680D01*
X124549426Y-107551853D01*
X124826665Y-107607000D01*
X125109335Y-107607000D01*
X125386574Y-107551853D01*
X125647727Y-107443680D01*
X125882759Y-107286637D01*
X126082637Y-107086759D01*
X126239680Y-106851727D01*
X126347853Y-106590574D01*
X126403000Y-106313335D01*
X126403000Y-106030665D01*
X126347853Y-105753426D01*
X126239680Y-105492273D01*
X126082637Y-105257241D01*
X125882759Y-105057363D01*
X125647727Y-104900320D01*
X125386574Y-104792147D01*
X125109335Y-104737000D01*
X124826665Y-104737000D01*
X124549426Y-104792147D01*
X124288273Y-104900320D01*
X124053241Y-105057363D01*
X123853363Y-105257241D01*
X123719308Y-105457869D01*
X123704671Y-105430486D01*
X123460702Y-105358903D01*
X122647605Y-106172000D01*
X122288395Y-106172000D01*
X121475298Y-105358903D01*
X121231329Y-105430486D01*
X121110429Y-105685996D01*
X121041700Y-105960184D01*
X121027783Y-106242512D01*
X120452998Y-106242512D01*
X120459943Y-106172000D01*
X120432236Y-105890691D01*
X120350182Y-105620192D01*
X120216932Y-105370899D01*
X120059690Y-105179298D01*
X121654903Y-105179298D01*
X122468000Y-105992395D01*
X123281097Y-105179298D01*
X123209514Y-104935329D01*
X122954004Y-104814429D01*
X122679816Y-104745700D01*
X122397488Y-104731783D01*
X122117870Y-104773213D01*
X121851708Y-104868397D01*
X121726486Y-104935329D01*
X121654903Y-105179298D01*
X120059690Y-105179298D01*
X120037608Y-105152392D01*
X119819101Y-104973068D01*
X119686142Y-104902000D01*
X119819101Y-104830932D01*
X120037608Y-104651608D01*
X120216932Y-104433101D01*
X120350182Y-104183808D01*
X120432236Y-103913309D01*
X120459943Y-103632000D01*
X120432236Y-103350691D01*
X120350182Y-103080192D01*
X120216932Y-102830899D01*
X120037608Y-102612392D01*
X119819101Y-102433068D01*
X119686142Y-102362000D01*
X119819101Y-102290932D01*
X120037608Y-102111608D01*
X120216932Y-101893101D01*
X120350182Y-101643808D01*
X120432236Y-101373309D01*
X120459943Y-101092000D01*
X120432236Y-100810691D01*
X120350182Y-100540192D01*
X120216932Y-100290899D01*
X120037608Y-100072392D01*
X119819101Y-99893068D01*
X119804942Y-99885500D01*
X126197450Y-99885500D01*
X126238000Y-99889494D01*
X126278550Y-99885500D01*
X126278553Y-99885500D01*
X126399826Y-99873556D01*
X126555434Y-99826353D01*
X126698842Y-99749699D01*
X126824541Y-99646541D01*
X126850398Y-99615034D01*
X131475906Y-94989527D01*
X131507406Y-94963676D01*
X131599637Y-94851292D01*
X131610564Y-94837978D01*
X131687218Y-94694569D01*
X131703541Y-94640759D01*
X131734421Y-94538961D01*
X131746365Y-94417688D01*
X131746365Y-94417686D01*
X131750359Y-94377136D01*
X131746365Y-94336585D01*
X131746365Y-76779797D01*
X132395644Y-77429076D01*
M02*
