G04 #@! TF.GenerationSoftware,KiCad,Pcbnew,(5.1.0)-1*
G04 #@! TF.CreationDate,2021-08-07T01:09:51-05:00*
G04 #@! TF.ProjectId,nixie_legacy-demux,6e697869-655f-46c6-9567-6163792d6465,rev?*
G04 #@! TF.SameCoordinates,Original*
G04 #@! TF.FileFunction,Other,Fab,Top*
%FSLAX46Y46*%
G04 Gerber Fmt 4.6, Leading zero omitted, Abs format (unit mm)*
G04 Created by KiCad (PCBNEW (5.1.0)-1) date 2021-08-07 01:09:51*
%MOMM*%
%LPD*%
G04 APERTURE LIST*
%ADD10C,0.050000*%
%ADD11C,0.100000*%
%ADD12C,0.150000*%
%ADD13C,0.090000*%
G04 APERTURE END LIST*
D10*
X112648000Y-61214000D02*
G75*
G03X112648000Y-61214000I-1650000J0D01*
G01*
X135000000Y-61214000D02*
G75*
G03X135000000Y-61214000I-1650000J0D01*
G01*
X135254000Y-151384000D02*
G75*
G03X135254000Y-151384000I-1650000J0D01*
G01*
D11*
X122567182Y-88216385D02*
G75*
G02X124460000Y-84134000I1892818J1602385D01*
G01*
X126361103Y-88206547D02*
G75*
G03X124460000Y-84134000I-1901103J1592547D01*
G01*
X122570000Y-88214000D02*
X126320000Y-88214000D01*
X115201182Y-88216385D02*
G75*
G02X117094000Y-84134000I1892818J1602385D01*
G01*
X118995103Y-88206547D02*
G75*
G03X117094000Y-84134000I-1901103J1592547D01*
G01*
X115204000Y-88214000D02*
X118954000Y-88214000D01*
X107835182Y-88216385D02*
G75*
G02X109728000Y-84134000I1892818J1602385D01*
G01*
X111629103Y-88206547D02*
G75*
G03X109728000Y-84134000I-1901103J1592547D01*
G01*
X107838000Y-88214000D02*
X111588000Y-88214000D01*
X127000000Y-71374000D02*
X126340000Y-71374000D01*
X119380000Y-71374000D02*
X120040000Y-71374000D01*
X126340000Y-70124000D02*
X120040000Y-70124000D01*
X126340000Y-72624000D02*
X126340000Y-70124000D01*
X120040000Y-72624000D02*
X126340000Y-72624000D01*
X120040000Y-70124000D02*
X120040000Y-72624000D01*
X127000000Y-74422000D02*
X126340000Y-74422000D01*
X119380000Y-74422000D02*
X120040000Y-74422000D01*
X126340000Y-73172000D02*
X120040000Y-73172000D01*
X126340000Y-75672000D02*
X126340000Y-73172000D01*
X120040000Y-75672000D02*
X126340000Y-75672000D01*
X120040000Y-73172000D02*
X120040000Y-75672000D01*
X124714000Y-69322000D02*
X124714000Y-66822000D01*
X109454000Y-69322000D02*
X127274000Y-69322000D01*
X109454000Y-66822000D02*
X109454000Y-69322000D01*
X127274000Y-66822000D02*
X109454000Y-66822000D01*
X127274000Y-69322000D02*
X127274000Y-66822000D01*
X111620818Y-79423615D02*
G75*
G02X109728000Y-83506000I-1892818J-1602385D01*
G01*
X107826897Y-79433453D02*
G75*
G03X109728000Y-83506000I1901103J-1592547D01*
G01*
X111618000Y-79426000D02*
X107868000Y-79426000D01*
X125698000Y-110702000D02*
G75*
G03X121698000Y-110702000I-2000000J0D01*
G01*
X125698000Y-116702000D02*
G75*
G02X121698000Y-116702000I-2000000J0D01*
G01*
X126023000Y-110577000D02*
G75*
G03X121373000Y-110577000I-2325000J0D01*
G01*
X126023000Y-116827000D02*
G75*
G02X121373000Y-116827000I-2325000J0D01*
G01*
X125698000Y-116702000D02*
X125698000Y-110702000D01*
X121698000Y-116702000D02*
X121698000Y-110702000D01*
X126023000Y-116827000D02*
X126023000Y-110577000D01*
X121373000Y-116827000D02*
X121373000Y-110577000D01*
X137668000Y-121098000D02*
X127508000Y-121098000D01*
X137668000Y-146618000D02*
X137668000Y-121098000D01*
X127508000Y-146618000D02*
X137668000Y-146618000D01*
X127508000Y-121098000D02*
X127508000Y-146618000D01*
X129413000Y-122158000D02*
X130413000Y-121158000D01*
X129413000Y-146558000D02*
X129413000Y-122158000D01*
X135763000Y-146558000D02*
X129413000Y-146558000D01*
X135763000Y-121158000D02*
X135763000Y-146558000D01*
X130413000Y-121158000D02*
X135763000Y-121158000D01*
X117983000Y-134382000D02*
X116983000Y-135382000D01*
X117983000Y-99822000D02*
X117983000Y-134382000D01*
X111633000Y-99822000D02*
X117983000Y-99822000D01*
X111633000Y-135382000D02*
X111633000Y-99822000D01*
X116983000Y-135382000D02*
X111633000Y-135382000D01*
X109220000Y-140462000D02*
X109880000Y-140462000D01*
X116840000Y-140462000D02*
X116180000Y-140462000D01*
X109880000Y-141712000D02*
X116180000Y-141712000D01*
X109880000Y-139212000D02*
X109880000Y-141712000D01*
X116180000Y-139212000D02*
X109880000Y-139212000D01*
X116180000Y-141712000D02*
X116180000Y-139212000D01*
X109220000Y-137414000D02*
X109880000Y-137414000D01*
X116840000Y-137414000D02*
X116180000Y-137414000D01*
X109880000Y-138664000D02*
X116180000Y-138664000D01*
X109880000Y-136164000D02*
X109880000Y-138664000D01*
X116180000Y-136164000D02*
X109880000Y-136164000D01*
X116180000Y-138664000D02*
X116180000Y-136164000D01*
X107188000Y-96774000D02*
X107848000Y-96774000D01*
X114808000Y-96774000D02*
X114148000Y-96774000D01*
X107848000Y-98024000D02*
X114148000Y-98024000D01*
X107848000Y-95524000D02*
X107848000Y-98024000D01*
X114148000Y-95524000D02*
X107848000Y-95524000D01*
X114148000Y-98024000D02*
X114148000Y-95524000D01*
X118618000Y-90678000D02*
X119278000Y-90678000D01*
X126238000Y-90678000D02*
X125578000Y-90678000D01*
X119278000Y-91928000D02*
X125578000Y-91928000D01*
X119278000Y-89428000D02*
X119278000Y-91928000D01*
X125578000Y-89428000D02*
X119278000Y-89428000D01*
X125578000Y-91928000D02*
X125578000Y-89428000D01*
X107188000Y-93726000D02*
X107848000Y-93726000D01*
X114808000Y-93726000D02*
X114148000Y-93726000D01*
X107848000Y-94976000D02*
X114148000Y-94976000D01*
X107848000Y-92476000D02*
X107848000Y-94976000D01*
X114148000Y-92476000D02*
X107848000Y-92476000D01*
X114148000Y-94976000D02*
X114148000Y-92476000D01*
X118618000Y-93726000D02*
X119278000Y-93726000D01*
X126238000Y-93726000D02*
X125578000Y-93726000D01*
X119278000Y-94976000D02*
X125578000Y-94976000D01*
X119278000Y-92476000D02*
X119278000Y-94976000D01*
X125578000Y-92476000D02*
X119278000Y-92476000D01*
X125578000Y-94976000D02*
X125578000Y-92476000D01*
X107188000Y-90678000D02*
X107848000Y-90678000D01*
X114808000Y-90678000D02*
X114148000Y-90678000D01*
X107848000Y-91928000D02*
X114148000Y-91928000D01*
X107848000Y-89428000D02*
X107848000Y-91928000D01*
X114148000Y-89428000D02*
X107848000Y-89428000D01*
X114148000Y-91928000D02*
X114148000Y-89428000D01*
X118618000Y-96774000D02*
X119278000Y-96774000D01*
X126238000Y-96774000D02*
X125578000Y-96774000D01*
X119278000Y-98024000D02*
X125578000Y-98024000D01*
X119278000Y-95524000D02*
X119278000Y-98024000D01*
X125578000Y-95524000D02*
X119278000Y-95524000D01*
X125578000Y-98024000D02*
X125578000Y-95524000D01*
X107188000Y-71374000D02*
X107848000Y-71374000D01*
X114808000Y-71374000D02*
X114148000Y-71374000D01*
X107848000Y-72624000D02*
X114148000Y-72624000D01*
X107848000Y-70124000D02*
X107848000Y-72624000D01*
X114148000Y-70124000D02*
X107848000Y-70124000D01*
X114148000Y-72624000D02*
X114148000Y-70124000D01*
X127000000Y-77470000D02*
X126340000Y-77470000D01*
X119380000Y-77470000D02*
X120040000Y-77470000D01*
X126340000Y-76220000D02*
X120040000Y-76220000D01*
X126340000Y-78720000D02*
X126340000Y-76220000D01*
X120040000Y-78720000D02*
X126340000Y-78720000D01*
X120040000Y-76220000D02*
X120040000Y-78720000D01*
X107188000Y-74422000D02*
X107848000Y-74422000D01*
X114808000Y-74422000D02*
X114148000Y-74422000D01*
X107848000Y-75672000D02*
X114148000Y-75672000D01*
X107848000Y-73172000D02*
X107848000Y-75672000D01*
X114148000Y-73172000D02*
X107848000Y-73172000D01*
X114148000Y-75672000D02*
X114148000Y-73172000D01*
X107188000Y-77470000D02*
X107848000Y-77470000D01*
X114808000Y-77470000D02*
X114148000Y-77470000D01*
X107848000Y-78720000D02*
X114148000Y-78720000D01*
X107848000Y-76220000D02*
X107848000Y-78720000D01*
X114148000Y-76220000D02*
X107848000Y-76220000D01*
X114148000Y-78720000D02*
X114148000Y-76220000D01*
X122428000Y-134112000D02*
X122428000Y-133452000D01*
X122428000Y-126492000D02*
X122428000Y-127152000D01*
X123678000Y-133452000D02*
X123678000Y-127152000D01*
X121178000Y-133452000D02*
X123678000Y-133452000D01*
X121178000Y-127152000D02*
X121178000Y-133452000D01*
X123678000Y-127152000D02*
X121178000Y-127152000D01*
X118986818Y-79423615D02*
G75*
G02X117094000Y-83506000I-1892818J-1602385D01*
G01*
X115192897Y-79433453D02*
G75*
G03X117094000Y-83506000I1901103J-1592547D01*
G01*
X118984000Y-79426000D02*
X115234000Y-79426000D01*
X126352818Y-79423615D02*
G75*
G02X124460000Y-83506000I-1892818J-1602385D01*
G01*
X122558897Y-79433453D02*
G75*
G03X124460000Y-83506000I1901103J-1592547D01*
G01*
X126350000Y-79426000D02*
X122600000Y-79426000D01*
X118745000Y-152654000D02*
X118110000Y-152019000D01*
X128270000Y-152654000D02*
X118745000Y-152654000D01*
X128270000Y-150114000D02*
X128270000Y-152654000D01*
X118110000Y-150114000D02*
X128270000Y-150114000D01*
X118110000Y-152019000D02*
X118110000Y-150114000D01*
X120126000Y-146810000D02*
X120126000Y-137010000D01*
X124526000Y-146810000D02*
X120126000Y-146810000D01*
X124526000Y-136410000D02*
X124526000Y-146810000D01*
X120726000Y-136410000D02*
X124526000Y-136410000D01*
X120126000Y-137010000D02*
X120726000Y-136410000D01*
X135890000Y-88138000D02*
X134620000Y-89408000D01*
X135890000Y-66548000D02*
X135890000Y-88138000D01*
X130810000Y-66548000D02*
X135890000Y-66548000D01*
X130810000Y-89408000D02*
X130810000Y-66548000D01*
X134620000Y-89408000D02*
X130810000Y-89408000D01*
X127508000Y-119440000D02*
X137668000Y-119440000D01*
X127508000Y-99000000D02*
X127508000Y-119440000D01*
X137668000Y-99000000D02*
X127508000Y-99000000D01*
X137668000Y-119440000D02*
X137668000Y-99000000D01*
X135763000Y-118380000D02*
X134763000Y-119380000D01*
X135763000Y-99060000D02*
X135763000Y-118380000D01*
X129413000Y-99060000D02*
X135763000Y-99060000D01*
X129413000Y-119380000D02*
X129413000Y-99060000D01*
X134763000Y-119380000D02*
X129413000Y-119380000D01*
X122218000Y-106972000D02*
X125218000Y-106972000D01*
X122218000Y-105372000D02*
X122218000Y-106972000D01*
X125218000Y-105372000D02*
X122218000Y-105372000D01*
X125218000Y-106972000D02*
X125218000Y-105372000D01*
X122218000Y-122212000D02*
X125218000Y-122212000D01*
X122218000Y-120612000D02*
X122218000Y-122212000D01*
X125218000Y-120612000D02*
X122218000Y-120612000D01*
X125218000Y-122212000D02*
X125218000Y-120612000D01*
D12*
X121769523Y-89856380D02*
X121769523Y-88856380D01*
X122102857Y-89570666D01*
X122436190Y-88856380D01*
X122436190Y-89856380D01*
X122912380Y-89856380D02*
X122912380Y-88856380D01*
X123293333Y-88856380D01*
X123388571Y-88904000D01*
X123436190Y-88951619D01*
X123483809Y-89046857D01*
X123483809Y-89189714D01*
X123436190Y-89284952D01*
X123388571Y-89332571D01*
X123293333Y-89380190D01*
X122912380Y-89380190D01*
X123864761Y-89808761D02*
X124007619Y-89856380D01*
X124245714Y-89856380D01*
X124340952Y-89808761D01*
X124388571Y-89761142D01*
X124436190Y-89665904D01*
X124436190Y-89570666D01*
X124388571Y-89475428D01*
X124340952Y-89427809D01*
X124245714Y-89380190D01*
X124055238Y-89332571D01*
X123960000Y-89284952D01*
X123912380Y-89237333D01*
X123864761Y-89142095D01*
X123864761Y-89046857D01*
X123912380Y-88951619D01*
X123960000Y-88904000D01*
X124055238Y-88856380D01*
X124293333Y-88856380D01*
X124436190Y-88904000D01*
X124817142Y-89570666D02*
X125293333Y-89570666D01*
X124721904Y-89856380D02*
X125055238Y-88856380D01*
X125388571Y-89856380D01*
X126150476Y-89189714D02*
X126150476Y-89856380D01*
X125912380Y-88808761D02*
X125674285Y-89523047D01*
X126293333Y-89523047D01*
X126626666Y-88951619D02*
X126674285Y-88904000D01*
X126769523Y-88856380D01*
X127007619Y-88856380D01*
X127102857Y-88904000D01*
X127150476Y-88951619D01*
X127198095Y-89046857D01*
X127198095Y-89142095D01*
X127150476Y-89284952D01*
X126579047Y-89856380D01*
X127198095Y-89856380D01*
X121769523Y-83506380D02*
X121769523Y-82506380D01*
X122102857Y-83220666D01*
X122436190Y-82506380D01*
X122436190Y-83506380D01*
X122912380Y-83506380D02*
X122912380Y-82506380D01*
X123293333Y-82506380D01*
X123388571Y-82554000D01*
X123436190Y-82601619D01*
X123483809Y-82696857D01*
X123483809Y-82839714D01*
X123436190Y-82934952D01*
X123388571Y-82982571D01*
X123293333Y-83030190D01*
X122912380Y-83030190D01*
X123864761Y-83458761D02*
X124007619Y-83506380D01*
X124245714Y-83506380D01*
X124340952Y-83458761D01*
X124388571Y-83411142D01*
X124436190Y-83315904D01*
X124436190Y-83220666D01*
X124388571Y-83125428D01*
X124340952Y-83077809D01*
X124245714Y-83030190D01*
X124055238Y-82982571D01*
X123960000Y-82934952D01*
X123912380Y-82887333D01*
X123864761Y-82792095D01*
X123864761Y-82696857D01*
X123912380Y-82601619D01*
X123960000Y-82554000D01*
X124055238Y-82506380D01*
X124293333Y-82506380D01*
X124436190Y-82554000D01*
X124817142Y-83220666D02*
X125293333Y-83220666D01*
X124721904Y-83506380D02*
X125055238Y-82506380D01*
X125388571Y-83506380D01*
X126150476Y-82839714D02*
X126150476Y-83506380D01*
X125912380Y-82458761D02*
X125674285Y-83173047D01*
X126293333Y-83173047D01*
X126626666Y-82601619D02*
X126674285Y-82554000D01*
X126769523Y-82506380D01*
X127007619Y-82506380D01*
X127102857Y-82554000D01*
X127150476Y-82601619D01*
X127198095Y-82696857D01*
X127198095Y-82792095D01*
X127150476Y-82934952D01*
X126579047Y-83506380D01*
X127198095Y-83506380D01*
X114403523Y-89856380D02*
X114403523Y-88856380D01*
X114736857Y-89570666D01*
X115070190Y-88856380D01*
X115070190Y-89856380D01*
X115546380Y-89856380D02*
X115546380Y-88856380D01*
X115927333Y-88856380D01*
X116022571Y-88904000D01*
X116070190Y-88951619D01*
X116117809Y-89046857D01*
X116117809Y-89189714D01*
X116070190Y-89284952D01*
X116022571Y-89332571D01*
X115927333Y-89380190D01*
X115546380Y-89380190D01*
X116498761Y-89808761D02*
X116641619Y-89856380D01*
X116879714Y-89856380D01*
X116974952Y-89808761D01*
X117022571Y-89761142D01*
X117070190Y-89665904D01*
X117070190Y-89570666D01*
X117022571Y-89475428D01*
X116974952Y-89427809D01*
X116879714Y-89380190D01*
X116689238Y-89332571D01*
X116594000Y-89284952D01*
X116546380Y-89237333D01*
X116498761Y-89142095D01*
X116498761Y-89046857D01*
X116546380Y-88951619D01*
X116594000Y-88904000D01*
X116689238Y-88856380D01*
X116927333Y-88856380D01*
X117070190Y-88904000D01*
X117451142Y-89570666D02*
X117927333Y-89570666D01*
X117355904Y-89856380D02*
X117689238Y-88856380D01*
X118022571Y-89856380D01*
X118784476Y-89189714D02*
X118784476Y-89856380D01*
X118546380Y-88808761D02*
X118308285Y-89523047D01*
X118927333Y-89523047D01*
X119260666Y-88951619D02*
X119308285Y-88904000D01*
X119403523Y-88856380D01*
X119641619Y-88856380D01*
X119736857Y-88904000D01*
X119784476Y-88951619D01*
X119832095Y-89046857D01*
X119832095Y-89142095D01*
X119784476Y-89284952D01*
X119213047Y-89856380D01*
X119832095Y-89856380D01*
X114403523Y-83506380D02*
X114403523Y-82506380D01*
X114736857Y-83220666D01*
X115070190Y-82506380D01*
X115070190Y-83506380D01*
X115546380Y-83506380D02*
X115546380Y-82506380D01*
X115927333Y-82506380D01*
X116022571Y-82554000D01*
X116070190Y-82601619D01*
X116117809Y-82696857D01*
X116117809Y-82839714D01*
X116070190Y-82934952D01*
X116022571Y-82982571D01*
X115927333Y-83030190D01*
X115546380Y-83030190D01*
X116498761Y-83458761D02*
X116641619Y-83506380D01*
X116879714Y-83506380D01*
X116974952Y-83458761D01*
X117022571Y-83411142D01*
X117070190Y-83315904D01*
X117070190Y-83220666D01*
X117022571Y-83125428D01*
X116974952Y-83077809D01*
X116879714Y-83030190D01*
X116689238Y-82982571D01*
X116594000Y-82934952D01*
X116546380Y-82887333D01*
X116498761Y-82792095D01*
X116498761Y-82696857D01*
X116546380Y-82601619D01*
X116594000Y-82554000D01*
X116689238Y-82506380D01*
X116927333Y-82506380D01*
X117070190Y-82554000D01*
X117451142Y-83220666D02*
X117927333Y-83220666D01*
X117355904Y-83506380D02*
X117689238Y-82506380D01*
X118022571Y-83506380D01*
X118784476Y-82839714D02*
X118784476Y-83506380D01*
X118546380Y-82458761D02*
X118308285Y-83173047D01*
X118927333Y-83173047D01*
X119260666Y-82601619D02*
X119308285Y-82554000D01*
X119403523Y-82506380D01*
X119641619Y-82506380D01*
X119736857Y-82554000D01*
X119784476Y-82601619D01*
X119832095Y-82696857D01*
X119832095Y-82792095D01*
X119784476Y-82934952D01*
X119213047Y-83506380D01*
X119832095Y-83506380D01*
X107037523Y-89856380D02*
X107037523Y-88856380D01*
X107370857Y-89570666D01*
X107704190Y-88856380D01*
X107704190Y-89856380D01*
X108180380Y-89856380D02*
X108180380Y-88856380D01*
X108561333Y-88856380D01*
X108656571Y-88904000D01*
X108704190Y-88951619D01*
X108751809Y-89046857D01*
X108751809Y-89189714D01*
X108704190Y-89284952D01*
X108656571Y-89332571D01*
X108561333Y-89380190D01*
X108180380Y-89380190D01*
X109132761Y-89808761D02*
X109275619Y-89856380D01*
X109513714Y-89856380D01*
X109608952Y-89808761D01*
X109656571Y-89761142D01*
X109704190Y-89665904D01*
X109704190Y-89570666D01*
X109656571Y-89475428D01*
X109608952Y-89427809D01*
X109513714Y-89380190D01*
X109323238Y-89332571D01*
X109228000Y-89284952D01*
X109180380Y-89237333D01*
X109132761Y-89142095D01*
X109132761Y-89046857D01*
X109180380Y-88951619D01*
X109228000Y-88904000D01*
X109323238Y-88856380D01*
X109561333Y-88856380D01*
X109704190Y-88904000D01*
X110085142Y-89570666D02*
X110561333Y-89570666D01*
X109989904Y-89856380D02*
X110323238Y-88856380D01*
X110656571Y-89856380D01*
X111418476Y-89189714D02*
X111418476Y-89856380D01*
X111180380Y-88808761D02*
X110942285Y-89523047D01*
X111561333Y-89523047D01*
X111894666Y-88951619D02*
X111942285Y-88904000D01*
X112037523Y-88856380D01*
X112275619Y-88856380D01*
X112370857Y-88904000D01*
X112418476Y-88951619D01*
X112466095Y-89046857D01*
X112466095Y-89142095D01*
X112418476Y-89284952D01*
X111847047Y-89856380D01*
X112466095Y-89856380D01*
X107037523Y-83506380D02*
X107037523Y-82506380D01*
X107370857Y-83220666D01*
X107704190Y-82506380D01*
X107704190Y-83506380D01*
X108180380Y-83506380D02*
X108180380Y-82506380D01*
X108561333Y-82506380D01*
X108656571Y-82554000D01*
X108704190Y-82601619D01*
X108751809Y-82696857D01*
X108751809Y-82839714D01*
X108704190Y-82934952D01*
X108656571Y-82982571D01*
X108561333Y-83030190D01*
X108180380Y-83030190D01*
X109132761Y-83458761D02*
X109275619Y-83506380D01*
X109513714Y-83506380D01*
X109608952Y-83458761D01*
X109656571Y-83411142D01*
X109704190Y-83315904D01*
X109704190Y-83220666D01*
X109656571Y-83125428D01*
X109608952Y-83077809D01*
X109513714Y-83030190D01*
X109323238Y-82982571D01*
X109228000Y-82934952D01*
X109180380Y-82887333D01*
X109132761Y-82792095D01*
X109132761Y-82696857D01*
X109180380Y-82601619D01*
X109228000Y-82554000D01*
X109323238Y-82506380D01*
X109561333Y-82506380D01*
X109704190Y-82554000D01*
X110085142Y-83220666D02*
X110561333Y-83220666D01*
X109989904Y-83506380D02*
X110323238Y-82506380D01*
X110656571Y-83506380D01*
X111418476Y-82839714D02*
X111418476Y-83506380D01*
X111180380Y-82458761D02*
X110942285Y-83173047D01*
X111561333Y-83173047D01*
X111894666Y-82601619D02*
X111942285Y-82554000D01*
X112037523Y-82506380D01*
X112275619Y-82506380D01*
X112370857Y-82554000D01*
X112418476Y-82601619D01*
X112466095Y-82696857D01*
X112466095Y-82792095D01*
X112418476Y-82934952D01*
X111847047Y-83506380D01*
X112466095Y-83506380D01*
X122023333Y-73529714D02*
X122023333Y-74196380D01*
X121785238Y-73148761D02*
X121547142Y-73863047D01*
X122166190Y-73863047D01*
X122451904Y-73196380D02*
X123118571Y-73196380D01*
X122690000Y-74196380D01*
X123690000Y-73196380D02*
X123785238Y-73196380D01*
X123880476Y-73244000D01*
X123928095Y-73291619D01*
X123975714Y-73386857D01*
X124023333Y-73577333D01*
X124023333Y-73815428D01*
X123975714Y-74005904D01*
X123928095Y-74101142D01*
X123880476Y-74148761D01*
X123785238Y-74196380D01*
X123690000Y-74196380D01*
X123594761Y-74148761D01*
X123547142Y-74101142D01*
X123499523Y-74005904D01*
X123451904Y-73815428D01*
X123451904Y-73577333D01*
X123499523Y-73386857D01*
X123547142Y-73291619D01*
X123594761Y-73244000D01*
X123690000Y-73196380D01*
X124451904Y-74196380D02*
X124451904Y-73196380D01*
X124547142Y-73815428D02*
X124832857Y-74196380D01*
X124832857Y-73529714D02*
X124451904Y-73910666D01*
X121285238Y-71826380D02*
X120951904Y-71350190D01*
X120713809Y-71826380D02*
X120713809Y-70826380D01*
X121094761Y-70826380D01*
X121190000Y-70874000D01*
X121237619Y-70921619D01*
X121285238Y-71016857D01*
X121285238Y-71159714D01*
X121237619Y-71254952D01*
X121190000Y-71302571D01*
X121094761Y-71350190D01*
X120713809Y-71350190D01*
X122904285Y-71159714D02*
X122904285Y-71826380D01*
X122666190Y-70778761D02*
X122428095Y-71493047D01*
X123047142Y-71493047D01*
X123332857Y-70826380D02*
X123999523Y-70826380D01*
X123570952Y-71826380D01*
X124570952Y-70826380D02*
X124666190Y-70826380D01*
X124761428Y-70874000D01*
X124809047Y-70921619D01*
X124856666Y-71016857D01*
X124904285Y-71207333D01*
X124904285Y-71445428D01*
X124856666Y-71635904D01*
X124809047Y-71731142D01*
X124761428Y-71778761D01*
X124666190Y-71826380D01*
X124570952Y-71826380D01*
X124475714Y-71778761D01*
X124428095Y-71731142D01*
X124380476Y-71635904D01*
X124332857Y-71445428D01*
X124332857Y-71207333D01*
X124380476Y-71016857D01*
X124428095Y-70921619D01*
X124475714Y-70874000D01*
X124570952Y-70826380D01*
X125332857Y-71826380D02*
X125332857Y-70826380D01*
X125428095Y-71445428D02*
X125713809Y-71826380D01*
X125713809Y-71159714D02*
X125332857Y-71540666D01*
X122023333Y-76577714D02*
X122023333Y-77244380D01*
X121785238Y-76196761D02*
X121547142Y-76911047D01*
X122166190Y-76911047D01*
X122451904Y-76244380D02*
X123118571Y-76244380D01*
X122690000Y-77244380D01*
X123690000Y-76244380D02*
X123785238Y-76244380D01*
X123880476Y-76292000D01*
X123928095Y-76339619D01*
X123975714Y-76434857D01*
X124023333Y-76625333D01*
X124023333Y-76863428D01*
X123975714Y-77053904D01*
X123928095Y-77149142D01*
X123880476Y-77196761D01*
X123785238Y-77244380D01*
X123690000Y-77244380D01*
X123594761Y-77196761D01*
X123547142Y-77149142D01*
X123499523Y-77053904D01*
X123451904Y-76863428D01*
X123451904Y-76625333D01*
X123499523Y-76434857D01*
X123547142Y-76339619D01*
X123594761Y-76292000D01*
X123690000Y-76244380D01*
X124451904Y-77244380D02*
X124451904Y-76244380D01*
X124547142Y-76863428D02*
X124832857Y-77244380D01*
X124832857Y-76577714D02*
X124451904Y-76958666D01*
X121285238Y-74874380D02*
X120951904Y-74398190D01*
X120713809Y-74874380D02*
X120713809Y-73874380D01*
X121094761Y-73874380D01*
X121190000Y-73922000D01*
X121237619Y-73969619D01*
X121285238Y-74064857D01*
X121285238Y-74207714D01*
X121237619Y-74302952D01*
X121190000Y-74350571D01*
X121094761Y-74398190D01*
X120713809Y-74398190D01*
X122904285Y-74207714D02*
X122904285Y-74874380D01*
X122666190Y-73826761D02*
X122428095Y-74541047D01*
X123047142Y-74541047D01*
X123332857Y-73874380D02*
X123999523Y-73874380D01*
X123570952Y-74874380D01*
X124570952Y-73874380D02*
X124666190Y-73874380D01*
X124761428Y-73922000D01*
X124809047Y-73969619D01*
X124856666Y-74064857D01*
X124904285Y-74255333D01*
X124904285Y-74493428D01*
X124856666Y-74683904D01*
X124809047Y-74779142D01*
X124761428Y-74826761D01*
X124666190Y-74874380D01*
X124570952Y-74874380D01*
X124475714Y-74826761D01*
X124428095Y-74779142D01*
X124380476Y-74683904D01*
X124332857Y-74493428D01*
X124332857Y-74255333D01*
X124380476Y-74064857D01*
X124428095Y-73969619D01*
X124475714Y-73922000D01*
X124570952Y-73874380D01*
X125332857Y-74874380D02*
X125332857Y-73874380D01*
X125428095Y-74493428D02*
X125713809Y-74874380D01*
X125713809Y-74207714D02*
X125332857Y-74588666D01*
X116022571Y-66124380D02*
X115451142Y-66124380D01*
X115736857Y-66124380D02*
X115736857Y-65124380D01*
X115641619Y-65267238D01*
X115546380Y-65362476D01*
X115451142Y-65410095D01*
X116641619Y-65124380D02*
X116736857Y-65124380D01*
X116832095Y-65172000D01*
X116879714Y-65219619D01*
X116927333Y-65314857D01*
X116974952Y-65505333D01*
X116974952Y-65743428D01*
X116927333Y-65933904D01*
X116879714Y-66029142D01*
X116832095Y-66076761D01*
X116736857Y-66124380D01*
X116641619Y-66124380D01*
X116546380Y-66076761D01*
X116498761Y-66029142D01*
X116451142Y-65933904D01*
X116403523Y-65743428D01*
X116403523Y-65505333D01*
X116451142Y-65314857D01*
X116498761Y-65219619D01*
X116546380Y-65172000D01*
X116641619Y-65124380D01*
X117594000Y-65124380D02*
X117689238Y-65124380D01*
X117784476Y-65172000D01*
X117832095Y-65219619D01*
X117879714Y-65314857D01*
X117927333Y-65505333D01*
X117927333Y-65743428D01*
X117879714Y-65933904D01*
X117832095Y-66029142D01*
X117784476Y-66076761D01*
X117689238Y-66124380D01*
X117594000Y-66124380D01*
X117498761Y-66076761D01*
X117451142Y-66029142D01*
X117403523Y-65933904D01*
X117355904Y-65743428D01*
X117355904Y-65505333D01*
X117403523Y-65314857D01*
X117451142Y-65219619D01*
X117498761Y-65172000D01*
X117594000Y-65124380D01*
X118355904Y-66124380D02*
X118355904Y-65124380D01*
X118451142Y-65743428D02*
X118736857Y-66124380D01*
X118736857Y-65457714D02*
X118355904Y-65838666D01*
X113983047Y-68524380D02*
X113411619Y-68524380D01*
X113697333Y-68524380D02*
X113697333Y-67524380D01*
X113602095Y-67667238D01*
X113506857Y-67762476D01*
X113411619Y-67810095D01*
X114602095Y-67524380D02*
X114697333Y-67524380D01*
X114792571Y-67572000D01*
X114840190Y-67619619D01*
X114887809Y-67714857D01*
X114935428Y-67905333D01*
X114935428Y-68143428D01*
X114887809Y-68333904D01*
X114840190Y-68429142D01*
X114792571Y-68476761D01*
X114697333Y-68524380D01*
X114602095Y-68524380D01*
X114506857Y-68476761D01*
X114459238Y-68429142D01*
X114411619Y-68333904D01*
X114364000Y-68143428D01*
X114364000Y-67905333D01*
X114411619Y-67714857D01*
X114459238Y-67619619D01*
X114506857Y-67572000D01*
X114602095Y-67524380D01*
X115554476Y-67524380D02*
X115649714Y-67524380D01*
X115744952Y-67572000D01*
X115792571Y-67619619D01*
X115840190Y-67714857D01*
X115887809Y-67905333D01*
X115887809Y-68143428D01*
X115840190Y-68333904D01*
X115792571Y-68429142D01*
X115744952Y-68476761D01*
X115649714Y-68524380D01*
X115554476Y-68524380D01*
X115459238Y-68476761D01*
X115411619Y-68429142D01*
X115364000Y-68333904D01*
X115316380Y-68143428D01*
X115316380Y-67905333D01*
X115364000Y-67714857D01*
X115411619Y-67619619D01*
X115459238Y-67572000D01*
X115554476Y-67524380D01*
X116316380Y-68524380D02*
X116316380Y-67524380D01*
X116411619Y-68143428D02*
X116697333Y-68524380D01*
X116697333Y-67857714D02*
X116316380Y-68238666D01*
X117887809Y-68524380D02*
X117887809Y-67524380D01*
X118459238Y-68524380D01*
X118459238Y-67524380D01*
X119316380Y-68476761D02*
X119221142Y-68524380D01*
X119030666Y-68524380D01*
X118935428Y-68476761D01*
X118887809Y-68381523D01*
X118887809Y-68000571D01*
X118935428Y-67905333D01*
X119030666Y-67857714D01*
X119221142Y-67857714D01*
X119316380Y-67905333D01*
X119364000Y-68000571D01*
X119364000Y-68095809D01*
X118887809Y-68191047D01*
X119649714Y-67857714D02*
X120030666Y-67857714D01*
X119792571Y-67524380D02*
X119792571Y-68381523D01*
X119840190Y-68476761D01*
X119935428Y-68524380D01*
X120030666Y-68524380D01*
X120268761Y-67857714D02*
X120459238Y-68524380D01*
X120649714Y-68048190D01*
X120840190Y-68524380D01*
X121030666Y-67857714D01*
X121554476Y-68524380D02*
X121459238Y-68476761D01*
X121411619Y-68429142D01*
X121364000Y-68333904D01*
X121364000Y-68048190D01*
X121411619Y-67952952D01*
X121459238Y-67905333D01*
X121554476Y-67857714D01*
X121697333Y-67857714D01*
X121792571Y-67905333D01*
X121840190Y-67952952D01*
X121887809Y-68048190D01*
X121887809Y-68333904D01*
X121840190Y-68429142D01*
X121792571Y-68476761D01*
X121697333Y-68524380D01*
X121554476Y-68524380D01*
X122316380Y-68524380D02*
X122316380Y-67857714D01*
X122316380Y-68048190D02*
X122364000Y-67952952D01*
X122411619Y-67905333D01*
X122506857Y-67857714D01*
X122602095Y-67857714D01*
X122935428Y-68524380D02*
X122935428Y-67524380D01*
X123030666Y-68143428D02*
X123316380Y-68524380D01*
X123316380Y-67857714D02*
X122935428Y-68238666D01*
X107037523Y-78688380D02*
X107037523Y-77688380D01*
X107370857Y-78402666D01*
X107704190Y-77688380D01*
X107704190Y-78688380D01*
X108180380Y-78688380D02*
X108180380Y-77688380D01*
X108561333Y-77688380D01*
X108656571Y-77736000D01*
X108704190Y-77783619D01*
X108751809Y-77878857D01*
X108751809Y-78021714D01*
X108704190Y-78116952D01*
X108656571Y-78164571D01*
X108561333Y-78212190D01*
X108180380Y-78212190D01*
X109132761Y-78640761D02*
X109275619Y-78688380D01*
X109513714Y-78688380D01*
X109608952Y-78640761D01*
X109656571Y-78593142D01*
X109704190Y-78497904D01*
X109704190Y-78402666D01*
X109656571Y-78307428D01*
X109608952Y-78259809D01*
X109513714Y-78212190D01*
X109323238Y-78164571D01*
X109228000Y-78116952D01*
X109180380Y-78069333D01*
X109132761Y-77974095D01*
X109132761Y-77878857D01*
X109180380Y-77783619D01*
X109228000Y-77736000D01*
X109323238Y-77688380D01*
X109561333Y-77688380D01*
X109704190Y-77736000D01*
X110085142Y-78402666D02*
X110561333Y-78402666D01*
X109989904Y-78688380D02*
X110323238Y-77688380D01*
X110656571Y-78688380D01*
X111418476Y-78021714D02*
X111418476Y-78688380D01*
X111180380Y-77640761D02*
X110942285Y-78355047D01*
X111561333Y-78355047D01*
X111894666Y-77783619D02*
X111942285Y-77736000D01*
X112037523Y-77688380D01*
X112275619Y-77688380D01*
X112370857Y-77736000D01*
X112418476Y-77783619D01*
X112466095Y-77878857D01*
X112466095Y-77974095D01*
X112418476Y-78116952D01*
X111847047Y-78688380D01*
X112466095Y-78688380D01*
X107037523Y-85038380D02*
X107037523Y-84038380D01*
X107370857Y-84752666D01*
X107704190Y-84038380D01*
X107704190Y-85038380D01*
X108180380Y-85038380D02*
X108180380Y-84038380D01*
X108561333Y-84038380D01*
X108656571Y-84086000D01*
X108704190Y-84133619D01*
X108751809Y-84228857D01*
X108751809Y-84371714D01*
X108704190Y-84466952D01*
X108656571Y-84514571D01*
X108561333Y-84562190D01*
X108180380Y-84562190D01*
X109132761Y-84990761D02*
X109275619Y-85038380D01*
X109513714Y-85038380D01*
X109608952Y-84990761D01*
X109656571Y-84943142D01*
X109704190Y-84847904D01*
X109704190Y-84752666D01*
X109656571Y-84657428D01*
X109608952Y-84609809D01*
X109513714Y-84562190D01*
X109323238Y-84514571D01*
X109228000Y-84466952D01*
X109180380Y-84419333D01*
X109132761Y-84324095D01*
X109132761Y-84228857D01*
X109180380Y-84133619D01*
X109228000Y-84086000D01*
X109323238Y-84038380D01*
X109561333Y-84038380D01*
X109704190Y-84086000D01*
X110085142Y-84752666D02*
X110561333Y-84752666D01*
X109989904Y-85038380D02*
X110323238Y-84038380D01*
X110656571Y-85038380D01*
X111418476Y-84371714D02*
X111418476Y-85038380D01*
X111180380Y-83990761D02*
X110942285Y-84705047D01*
X111561333Y-84705047D01*
X111894666Y-84133619D02*
X111942285Y-84086000D01*
X112037523Y-84038380D01*
X112275619Y-84038380D01*
X112370857Y-84086000D01*
X112418476Y-84133619D01*
X112466095Y-84228857D01*
X112466095Y-84324095D01*
X112418476Y-84466952D01*
X111847047Y-85038380D01*
X112466095Y-85038380D01*
X127580142Y-115487714D02*
X127627761Y-115535333D01*
X127675380Y-115678190D01*
X127675380Y-115773428D01*
X127627761Y-115916285D01*
X127532523Y-116011523D01*
X127437285Y-116059142D01*
X127246809Y-116106761D01*
X127103952Y-116106761D01*
X126913476Y-116059142D01*
X126818238Y-116011523D01*
X126723000Y-115916285D01*
X126675380Y-115773428D01*
X126675380Y-115678190D01*
X126723000Y-115535333D01*
X126770619Y-115487714D01*
X127675380Y-115059142D02*
X127008714Y-115059142D01*
X127199190Y-115059142D02*
X127103952Y-115011523D01*
X127056333Y-114963904D01*
X127008714Y-114868666D01*
X127008714Y-114773428D01*
X127008714Y-114535333D02*
X127675380Y-114297238D01*
X127008714Y-114059142D02*
X127675380Y-114297238D01*
X127913476Y-114392476D01*
X127961095Y-114440095D01*
X128008714Y-114535333D01*
X127627761Y-113725809D02*
X127675380Y-113630571D01*
X127675380Y-113440095D01*
X127627761Y-113344857D01*
X127532523Y-113297238D01*
X127484904Y-113297238D01*
X127389666Y-113344857D01*
X127342047Y-113440095D01*
X127342047Y-113582952D01*
X127294428Y-113678190D01*
X127199190Y-113725809D01*
X127151571Y-113725809D01*
X127056333Y-113678190D01*
X127008714Y-113582952D01*
X127008714Y-113440095D01*
X127056333Y-113344857D01*
X127008714Y-113011523D02*
X127008714Y-112630571D01*
X126675380Y-112868666D02*
X127532523Y-112868666D01*
X127627761Y-112821047D01*
X127675380Y-112725809D01*
X127675380Y-112630571D01*
X127675380Y-111868666D02*
X127151571Y-111868666D01*
X127056333Y-111916285D01*
X127008714Y-112011523D01*
X127008714Y-112202000D01*
X127056333Y-112297238D01*
X127627761Y-111868666D02*
X127675380Y-111963904D01*
X127675380Y-112202000D01*
X127627761Y-112297238D01*
X127532523Y-112344857D01*
X127437285Y-112344857D01*
X127342047Y-112297238D01*
X127294428Y-112202000D01*
X127294428Y-111963904D01*
X127246809Y-111868666D01*
X127675380Y-111249619D02*
X127627761Y-111344857D01*
X127532523Y-111392476D01*
X126675380Y-111392476D01*
X124150380Y-115392476D02*
X124150380Y-115963904D01*
X124150380Y-115678190D02*
X123150380Y-115678190D01*
X123293238Y-115773428D01*
X123388476Y-115868666D01*
X123436095Y-115963904D01*
X123150380Y-114535333D02*
X123150380Y-114725809D01*
X123198000Y-114821047D01*
X123245619Y-114868666D01*
X123388476Y-114963904D01*
X123578952Y-115011523D01*
X123959904Y-115011523D01*
X124055142Y-114963904D01*
X124102761Y-114916285D01*
X124150380Y-114821047D01*
X124150380Y-114630571D01*
X124102761Y-114535333D01*
X124055142Y-114487714D01*
X123959904Y-114440095D01*
X123721809Y-114440095D01*
X123626571Y-114487714D01*
X123578952Y-114535333D01*
X123531333Y-114630571D01*
X123531333Y-114821047D01*
X123578952Y-114916285D01*
X123626571Y-114963904D01*
X123721809Y-115011523D01*
X124150380Y-114011523D02*
X123150380Y-114011523D01*
X123864666Y-113678190D01*
X123150380Y-113344857D01*
X124150380Y-113344857D01*
X124150380Y-112868666D02*
X123150380Y-112868666D01*
X123626571Y-112868666D02*
X123626571Y-112297238D01*
X124150380Y-112297238D02*
X123150380Y-112297238D01*
X123483714Y-111916285D02*
X123483714Y-111392476D01*
X124150380Y-111916285D01*
X124150380Y-111392476D01*
X129468952Y-147070380D02*
X130135619Y-147070380D01*
X129707047Y-148070380D01*
X130945142Y-147403714D02*
X130945142Y-148070380D01*
X130707047Y-147022761D02*
X130468952Y-147737047D01*
X131088000Y-147737047D01*
X131945142Y-148070380D02*
X131468952Y-148070380D01*
X131468952Y-147070380D01*
X132230857Y-148022761D02*
X132373714Y-148070380D01*
X132611809Y-148070380D01*
X132707047Y-148022761D01*
X132754666Y-147975142D01*
X132802285Y-147879904D01*
X132802285Y-147784666D01*
X132754666Y-147689428D01*
X132707047Y-147641809D01*
X132611809Y-147594190D01*
X132421333Y-147546571D01*
X132326095Y-147498952D01*
X132278476Y-147451333D01*
X132230857Y-147356095D01*
X132230857Y-147260857D01*
X132278476Y-147165619D01*
X132326095Y-147118000D01*
X132421333Y-147070380D01*
X132659428Y-147070380D01*
X132802285Y-147118000D01*
X133707047Y-147070380D02*
X133230857Y-147070380D01*
X133183238Y-147546571D01*
X133230857Y-147498952D01*
X133326095Y-147451333D01*
X133564190Y-147451333D01*
X133659428Y-147498952D01*
X133707047Y-147546571D01*
X133754666Y-147641809D01*
X133754666Y-147879904D01*
X133707047Y-147975142D01*
X133659428Y-148022761D01*
X133564190Y-148070380D01*
X133326095Y-148070380D01*
X133230857Y-148022761D01*
X133183238Y-147975142D01*
X134611809Y-147403714D02*
X134611809Y-148070380D01*
X134373714Y-147022761D02*
X134135619Y-147737047D01*
X134754666Y-147737047D01*
X135659428Y-148070380D02*
X135088000Y-148070380D01*
X135373714Y-148070380D02*
X135373714Y-147070380D01*
X135278476Y-147213238D01*
X135183238Y-147308476D01*
X135088000Y-147356095D01*
X132040380Y-136977047D02*
X132040380Y-136310380D01*
X133040380Y-136738952D01*
X132373714Y-135500857D02*
X133040380Y-135500857D01*
X131992761Y-135738952D02*
X132707047Y-135977047D01*
X132707047Y-135358000D01*
X133040380Y-134500857D02*
X133040380Y-134977047D01*
X132040380Y-134977047D01*
X132992761Y-134215142D02*
X133040380Y-134072285D01*
X133040380Y-133834190D01*
X132992761Y-133738952D01*
X132945142Y-133691333D01*
X132849904Y-133643714D01*
X132754666Y-133643714D01*
X132659428Y-133691333D01*
X132611809Y-133738952D01*
X132564190Y-133834190D01*
X132516571Y-134024666D01*
X132468952Y-134119904D01*
X132421333Y-134167523D01*
X132326095Y-134215142D01*
X132230857Y-134215142D01*
X132135619Y-134167523D01*
X132088000Y-134119904D01*
X132040380Y-134024666D01*
X132040380Y-133786571D01*
X132088000Y-133643714D01*
X132040380Y-132738952D02*
X132040380Y-133215142D01*
X132516571Y-133262761D01*
X132468952Y-133215142D01*
X132421333Y-133119904D01*
X132421333Y-132881809D01*
X132468952Y-132786571D01*
X132516571Y-132738952D01*
X132611809Y-132691333D01*
X132849904Y-132691333D01*
X132945142Y-132738952D01*
X132992761Y-132786571D01*
X133040380Y-132881809D01*
X133040380Y-133119904D01*
X132992761Y-133215142D01*
X132945142Y-133262761D01*
X132373714Y-131834190D02*
X133040380Y-131834190D01*
X131992761Y-132072285D02*
X132707047Y-132310380D01*
X132707047Y-131691333D01*
X133040380Y-130786571D02*
X133040380Y-131358000D01*
X133040380Y-131072285D02*
X132040380Y-131072285D01*
X132183238Y-131167523D01*
X132278476Y-131262761D01*
X132326095Y-131358000D01*
X108665142Y-98928666D02*
X109141333Y-98928666D01*
X108569904Y-99214380D02*
X108903238Y-98214380D01*
X109236571Y-99214380D01*
X109427047Y-98214380D02*
X109998476Y-98214380D01*
X109712761Y-99214380D02*
X109712761Y-98214380D01*
X110331809Y-99214380D02*
X110331809Y-98214380D01*
X110665142Y-98928666D01*
X110998476Y-98214380D01*
X110998476Y-99214380D01*
X111474666Y-98690571D02*
X111808000Y-98690571D01*
X111950857Y-99214380D02*
X111474666Y-99214380D01*
X111474666Y-98214380D01*
X111950857Y-98214380D01*
X112903238Y-98262000D02*
X112808000Y-98214380D01*
X112665142Y-98214380D01*
X112522285Y-98262000D01*
X112427047Y-98357238D01*
X112379428Y-98452476D01*
X112331809Y-98642952D01*
X112331809Y-98785809D01*
X112379428Y-98976285D01*
X112427047Y-99071523D01*
X112522285Y-99166761D01*
X112665142Y-99214380D01*
X112760380Y-99214380D01*
X112903238Y-99166761D01*
X112950857Y-99119142D01*
X112950857Y-98785809D01*
X112760380Y-98785809D01*
X113331809Y-98928666D02*
X113808000Y-98928666D01*
X113236571Y-99214380D02*
X113569904Y-98214380D01*
X113903238Y-99214380D01*
X114141333Y-98214380D02*
X114760380Y-98214380D01*
X114427047Y-98595333D01*
X114569904Y-98595333D01*
X114665142Y-98642952D01*
X114712761Y-98690571D01*
X114760380Y-98785809D01*
X114760380Y-99023904D01*
X114712761Y-99119142D01*
X114665142Y-99166761D01*
X114569904Y-99214380D01*
X114284190Y-99214380D01*
X114188952Y-99166761D01*
X114141333Y-99119142D01*
X115141333Y-98309619D02*
X115188952Y-98262000D01*
X115284190Y-98214380D01*
X115522285Y-98214380D01*
X115617523Y-98262000D01*
X115665142Y-98309619D01*
X115712761Y-98404857D01*
X115712761Y-98500095D01*
X115665142Y-98642952D01*
X115093714Y-99214380D01*
X115712761Y-99214380D01*
X116284190Y-98642952D02*
X116188952Y-98595333D01*
X116141333Y-98547714D01*
X116093714Y-98452476D01*
X116093714Y-98404857D01*
X116141333Y-98309619D01*
X116188952Y-98262000D01*
X116284190Y-98214380D01*
X116474666Y-98214380D01*
X116569904Y-98262000D01*
X116617523Y-98309619D01*
X116665142Y-98404857D01*
X116665142Y-98452476D01*
X116617523Y-98547714D01*
X116569904Y-98595333D01*
X116474666Y-98642952D01*
X116284190Y-98642952D01*
X116188952Y-98690571D01*
X116141333Y-98738190D01*
X116093714Y-98833428D01*
X116093714Y-99023904D01*
X116141333Y-99119142D01*
X116188952Y-99166761D01*
X116284190Y-99214380D01*
X116474666Y-99214380D01*
X116569904Y-99166761D01*
X116617523Y-99119142D01*
X116665142Y-99023904D01*
X116665142Y-98833428D01*
X116617523Y-98738190D01*
X116569904Y-98690571D01*
X116474666Y-98642952D01*
X117093714Y-99214380D02*
X117093714Y-98214380D01*
X117474666Y-98214380D01*
X117569904Y-98262000D01*
X117617523Y-98309619D01*
X117665142Y-98404857D01*
X117665142Y-98547714D01*
X117617523Y-98642952D01*
X117569904Y-98690571D01*
X117474666Y-98738190D01*
X117093714Y-98738190D01*
X118093714Y-98833428D02*
X118855619Y-98833428D01*
X119331809Y-99214380D02*
X119331809Y-98214380D01*
X119712761Y-98214380D01*
X119808000Y-98262000D01*
X119855619Y-98309619D01*
X119903238Y-98404857D01*
X119903238Y-98547714D01*
X119855619Y-98642952D01*
X119808000Y-98690571D01*
X119712761Y-98738190D01*
X119331809Y-98738190D01*
X120331809Y-98214380D02*
X120331809Y-99023904D01*
X120379428Y-99119142D01*
X120427047Y-99166761D01*
X120522285Y-99214380D01*
X120712761Y-99214380D01*
X120808000Y-99166761D01*
X120855619Y-99119142D01*
X120903238Y-99023904D01*
X120903238Y-98214380D01*
X114974666Y-122102000D02*
X114974666Y-121625809D01*
X115260380Y-122197238D02*
X114260380Y-121863904D01*
X115260380Y-121530571D01*
X114260380Y-121340095D02*
X114260380Y-120768666D01*
X115260380Y-121054380D02*
X114260380Y-121054380D01*
X115260380Y-120435333D02*
X114593714Y-120435333D01*
X114688952Y-120435333D02*
X114641333Y-120387714D01*
X114593714Y-120292476D01*
X114593714Y-120149619D01*
X114641333Y-120054380D01*
X114736571Y-120006761D01*
X115260380Y-120006761D01*
X114736571Y-120006761D02*
X114641333Y-119959142D01*
X114593714Y-119863904D01*
X114593714Y-119721047D01*
X114641333Y-119625809D01*
X114736571Y-119578190D01*
X115260380Y-119578190D01*
X115212761Y-118721047D02*
X115260380Y-118816285D01*
X115260380Y-119006761D01*
X115212761Y-119102000D01*
X115117523Y-119149619D01*
X114736571Y-119149619D01*
X114641333Y-119102000D01*
X114593714Y-119006761D01*
X114593714Y-118816285D01*
X114641333Y-118721047D01*
X114736571Y-118673428D01*
X114831809Y-118673428D01*
X114927047Y-119149619D01*
X114593714Y-117816285D02*
X115403238Y-117816285D01*
X115498476Y-117863904D01*
X115546095Y-117911523D01*
X115593714Y-118006761D01*
X115593714Y-118149619D01*
X115546095Y-118244857D01*
X115212761Y-117816285D02*
X115260380Y-117911523D01*
X115260380Y-118102000D01*
X115212761Y-118197238D01*
X115165142Y-118244857D01*
X115069904Y-118292476D01*
X114784190Y-118292476D01*
X114688952Y-118244857D01*
X114641333Y-118197238D01*
X114593714Y-118102000D01*
X114593714Y-117911523D01*
X114641333Y-117816285D01*
X115260380Y-116911523D02*
X114736571Y-116911523D01*
X114641333Y-116959142D01*
X114593714Y-117054380D01*
X114593714Y-117244857D01*
X114641333Y-117340095D01*
X115212761Y-116911523D02*
X115260380Y-117006761D01*
X115260380Y-117244857D01*
X115212761Y-117340095D01*
X115117523Y-117387714D01*
X115022285Y-117387714D01*
X114927047Y-117340095D01*
X114879428Y-117244857D01*
X114879428Y-117006761D01*
X114831809Y-116911523D01*
X114260380Y-116530571D02*
X114260380Y-115911523D01*
X114641333Y-116244857D01*
X114641333Y-116102000D01*
X114688952Y-116006761D01*
X114736571Y-115959142D01*
X114831809Y-115911523D01*
X115069904Y-115911523D01*
X115165142Y-115959142D01*
X115212761Y-116006761D01*
X115260380Y-116102000D01*
X115260380Y-116387714D01*
X115212761Y-116482952D01*
X115165142Y-116530571D01*
X114355619Y-115530571D02*
X114308000Y-115482952D01*
X114260380Y-115387714D01*
X114260380Y-115149619D01*
X114308000Y-115054380D01*
X114355619Y-115006761D01*
X114450857Y-114959142D01*
X114546095Y-114959142D01*
X114688952Y-115006761D01*
X115260380Y-115578190D01*
X115260380Y-114959142D01*
X114688952Y-114387714D02*
X114641333Y-114482952D01*
X114593714Y-114530571D01*
X114498476Y-114578190D01*
X114450857Y-114578190D01*
X114355619Y-114530571D01*
X114308000Y-114482952D01*
X114260380Y-114387714D01*
X114260380Y-114197238D01*
X114308000Y-114102000D01*
X114355619Y-114054380D01*
X114450857Y-114006761D01*
X114498476Y-114006761D01*
X114593714Y-114054380D01*
X114641333Y-114102000D01*
X114688952Y-114197238D01*
X114688952Y-114387714D01*
X114736571Y-114482952D01*
X114784190Y-114530571D01*
X114879428Y-114578190D01*
X115069904Y-114578190D01*
X115165142Y-114530571D01*
X115212761Y-114482952D01*
X115260380Y-114387714D01*
X115260380Y-114197238D01*
X115212761Y-114102000D01*
X115165142Y-114054380D01*
X115069904Y-114006761D01*
X114879428Y-114006761D01*
X114784190Y-114054380D01*
X114736571Y-114102000D01*
X114688952Y-114197238D01*
X114593714Y-113578190D02*
X115593714Y-113578190D01*
X114641333Y-113578190D02*
X114593714Y-113482952D01*
X114593714Y-113292476D01*
X114641333Y-113197238D01*
X114688952Y-113149619D01*
X114784190Y-113102000D01*
X115069904Y-113102000D01*
X115165142Y-113149619D01*
X115212761Y-113197238D01*
X115260380Y-113292476D01*
X115260380Y-113482952D01*
X115212761Y-113578190D01*
X111577619Y-137544380D02*
X112196666Y-137544380D01*
X111863333Y-137925333D01*
X112006190Y-137925333D01*
X112101428Y-137972952D01*
X112149047Y-138020571D01*
X112196666Y-138115809D01*
X112196666Y-138353904D01*
X112149047Y-138449142D01*
X112101428Y-138496761D01*
X112006190Y-138544380D01*
X111720476Y-138544380D01*
X111625238Y-138496761D01*
X111577619Y-138449142D01*
X112625238Y-138449142D02*
X112672857Y-138496761D01*
X112625238Y-138544380D01*
X112577619Y-138496761D01*
X112625238Y-138449142D01*
X112625238Y-138544380D01*
X113006190Y-137544380D02*
X113625238Y-137544380D01*
X113291904Y-137925333D01*
X113434761Y-137925333D01*
X113530000Y-137972952D01*
X113577619Y-138020571D01*
X113625238Y-138115809D01*
X113625238Y-138353904D01*
X113577619Y-138449142D01*
X113530000Y-138496761D01*
X113434761Y-138544380D01*
X113149047Y-138544380D01*
X113053809Y-138496761D01*
X113006190Y-138449142D01*
X114053809Y-138544380D02*
X114053809Y-137544380D01*
X114149047Y-138163428D02*
X114434761Y-138544380D01*
X114434761Y-137877714D02*
X114053809Y-138258666D01*
X111601428Y-140914380D02*
X111268095Y-140438190D01*
X111030000Y-140914380D02*
X111030000Y-139914380D01*
X111410952Y-139914380D01*
X111506190Y-139962000D01*
X111553809Y-140009619D01*
X111601428Y-140104857D01*
X111601428Y-140247714D01*
X111553809Y-140342952D01*
X111506190Y-140390571D01*
X111410952Y-140438190D01*
X111030000Y-140438190D01*
X112696666Y-139914380D02*
X113315714Y-139914380D01*
X112982380Y-140295333D01*
X113125238Y-140295333D01*
X113220476Y-140342952D01*
X113268095Y-140390571D01*
X113315714Y-140485809D01*
X113315714Y-140723904D01*
X113268095Y-140819142D01*
X113220476Y-140866761D01*
X113125238Y-140914380D01*
X112839523Y-140914380D01*
X112744285Y-140866761D01*
X112696666Y-140819142D01*
X113744285Y-140914380D02*
X113744285Y-139914380D01*
X113839523Y-140533428D02*
X114125238Y-140914380D01*
X114125238Y-140247714D02*
X113744285Y-140628666D01*
X114458571Y-139914380D02*
X115077619Y-139914380D01*
X114744285Y-140295333D01*
X114887142Y-140295333D01*
X114982380Y-140342952D01*
X115030000Y-140390571D01*
X115077619Y-140485809D01*
X115077619Y-140723904D01*
X115030000Y-140819142D01*
X114982380Y-140866761D01*
X114887142Y-140914380D01*
X114601428Y-140914380D01*
X114506190Y-140866761D01*
X114458571Y-140819142D01*
X111577619Y-134496380D02*
X112196666Y-134496380D01*
X111863333Y-134877333D01*
X112006190Y-134877333D01*
X112101428Y-134924952D01*
X112149047Y-134972571D01*
X112196666Y-135067809D01*
X112196666Y-135305904D01*
X112149047Y-135401142D01*
X112101428Y-135448761D01*
X112006190Y-135496380D01*
X111720476Y-135496380D01*
X111625238Y-135448761D01*
X111577619Y-135401142D01*
X112625238Y-135401142D02*
X112672857Y-135448761D01*
X112625238Y-135496380D01*
X112577619Y-135448761D01*
X112625238Y-135401142D01*
X112625238Y-135496380D01*
X113006190Y-134496380D02*
X113625238Y-134496380D01*
X113291904Y-134877333D01*
X113434761Y-134877333D01*
X113530000Y-134924952D01*
X113577619Y-134972571D01*
X113625238Y-135067809D01*
X113625238Y-135305904D01*
X113577619Y-135401142D01*
X113530000Y-135448761D01*
X113434761Y-135496380D01*
X113149047Y-135496380D01*
X113053809Y-135448761D01*
X113006190Y-135401142D01*
X114053809Y-135496380D02*
X114053809Y-134496380D01*
X114149047Y-135115428D02*
X114434761Y-135496380D01*
X114434761Y-134829714D02*
X114053809Y-135210666D01*
X111601428Y-137866380D02*
X111268095Y-137390190D01*
X111030000Y-137866380D02*
X111030000Y-136866380D01*
X111410952Y-136866380D01*
X111506190Y-136914000D01*
X111553809Y-136961619D01*
X111601428Y-137056857D01*
X111601428Y-137199714D01*
X111553809Y-137294952D01*
X111506190Y-137342571D01*
X111410952Y-137390190D01*
X111030000Y-137390190D01*
X112696666Y-136866380D02*
X113315714Y-136866380D01*
X112982380Y-137247333D01*
X113125238Y-137247333D01*
X113220476Y-137294952D01*
X113268095Y-137342571D01*
X113315714Y-137437809D01*
X113315714Y-137675904D01*
X113268095Y-137771142D01*
X113220476Y-137818761D01*
X113125238Y-137866380D01*
X112839523Y-137866380D01*
X112744285Y-137818761D01*
X112696666Y-137771142D01*
X113744285Y-137866380D02*
X113744285Y-136866380D01*
X113839523Y-137485428D02*
X114125238Y-137866380D01*
X114125238Y-137199714D02*
X113744285Y-137580666D01*
X114458571Y-136866380D02*
X115077619Y-136866380D01*
X114744285Y-137247333D01*
X114887142Y-137247333D01*
X114982380Y-137294952D01*
X115030000Y-137342571D01*
X115077619Y-137437809D01*
X115077619Y-137675904D01*
X115030000Y-137771142D01*
X114982380Y-137818761D01*
X114887142Y-137866380D01*
X114601428Y-137866380D01*
X114506190Y-137818761D01*
X114458571Y-137771142D01*
X109783714Y-93856380D02*
X110402761Y-93856380D01*
X110069428Y-94237333D01*
X110212285Y-94237333D01*
X110307523Y-94284952D01*
X110355142Y-94332571D01*
X110402761Y-94427809D01*
X110402761Y-94665904D01*
X110355142Y-94761142D01*
X110307523Y-94808761D01*
X110212285Y-94856380D01*
X109926571Y-94856380D01*
X109831333Y-94808761D01*
X109783714Y-94761142D01*
X110736095Y-93856380D02*
X111355142Y-93856380D01*
X111021809Y-94237333D01*
X111164666Y-94237333D01*
X111259904Y-94284952D01*
X111307523Y-94332571D01*
X111355142Y-94427809D01*
X111355142Y-94665904D01*
X111307523Y-94761142D01*
X111259904Y-94808761D01*
X111164666Y-94856380D01*
X110878952Y-94856380D01*
X110783714Y-94808761D01*
X110736095Y-94761142D01*
X111783714Y-94856380D02*
X111783714Y-93856380D01*
X111878952Y-94475428D02*
X112164666Y-94856380D01*
X112164666Y-94189714D02*
X111783714Y-94570666D01*
X109569428Y-97226380D02*
X109236095Y-96750190D01*
X108998000Y-97226380D02*
X108998000Y-96226380D01*
X109378952Y-96226380D01*
X109474190Y-96274000D01*
X109521809Y-96321619D01*
X109569428Y-96416857D01*
X109569428Y-96559714D01*
X109521809Y-96654952D01*
X109474190Y-96702571D01*
X109378952Y-96750190D01*
X108998000Y-96750190D01*
X110664666Y-96226380D02*
X111283714Y-96226380D01*
X110950380Y-96607333D01*
X111093238Y-96607333D01*
X111188476Y-96654952D01*
X111236095Y-96702571D01*
X111283714Y-96797809D01*
X111283714Y-97035904D01*
X111236095Y-97131142D01*
X111188476Y-97178761D01*
X111093238Y-97226380D01*
X110807523Y-97226380D01*
X110712285Y-97178761D01*
X110664666Y-97131142D01*
X111617047Y-96226380D02*
X112236095Y-96226380D01*
X111902761Y-96607333D01*
X112045619Y-96607333D01*
X112140857Y-96654952D01*
X112188476Y-96702571D01*
X112236095Y-96797809D01*
X112236095Y-97035904D01*
X112188476Y-97131142D01*
X112140857Y-97178761D01*
X112045619Y-97226380D01*
X111759904Y-97226380D01*
X111664666Y-97178761D01*
X111617047Y-97131142D01*
X112664666Y-97226380D02*
X112664666Y-96226380D01*
X112759904Y-96845428D02*
X113045619Y-97226380D01*
X113045619Y-96559714D02*
X112664666Y-96940666D01*
X121213714Y-87760380D02*
X121832761Y-87760380D01*
X121499428Y-88141333D01*
X121642285Y-88141333D01*
X121737523Y-88188952D01*
X121785142Y-88236571D01*
X121832761Y-88331809D01*
X121832761Y-88569904D01*
X121785142Y-88665142D01*
X121737523Y-88712761D01*
X121642285Y-88760380D01*
X121356571Y-88760380D01*
X121261333Y-88712761D01*
X121213714Y-88665142D01*
X122166095Y-87760380D02*
X122785142Y-87760380D01*
X122451809Y-88141333D01*
X122594666Y-88141333D01*
X122689904Y-88188952D01*
X122737523Y-88236571D01*
X122785142Y-88331809D01*
X122785142Y-88569904D01*
X122737523Y-88665142D01*
X122689904Y-88712761D01*
X122594666Y-88760380D01*
X122308952Y-88760380D01*
X122213714Y-88712761D01*
X122166095Y-88665142D01*
X123213714Y-88760380D02*
X123213714Y-87760380D01*
X123308952Y-88379428D02*
X123594666Y-88760380D01*
X123594666Y-88093714D02*
X123213714Y-88474666D01*
X120999428Y-91130380D02*
X120666095Y-90654190D01*
X120428000Y-91130380D02*
X120428000Y-90130380D01*
X120808952Y-90130380D01*
X120904190Y-90178000D01*
X120951809Y-90225619D01*
X120999428Y-90320857D01*
X120999428Y-90463714D01*
X120951809Y-90558952D01*
X120904190Y-90606571D01*
X120808952Y-90654190D01*
X120428000Y-90654190D01*
X122094666Y-90130380D02*
X122713714Y-90130380D01*
X122380380Y-90511333D01*
X122523238Y-90511333D01*
X122618476Y-90558952D01*
X122666095Y-90606571D01*
X122713714Y-90701809D01*
X122713714Y-90939904D01*
X122666095Y-91035142D01*
X122618476Y-91082761D01*
X122523238Y-91130380D01*
X122237523Y-91130380D01*
X122142285Y-91082761D01*
X122094666Y-91035142D01*
X123047047Y-90130380D02*
X123666095Y-90130380D01*
X123332761Y-90511333D01*
X123475619Y-90511333D01*
X123570857Y-90558952D01*
X123618476Y-90606571D01*
X123666095Y-90701809D01*
X123666095Y-90939904D01*
X123618476Y-91035142D01*
X123570857Y-91082761D01*
X123475619Y-91130380D01*
X123189904Y-91130380D01*
X123094666Y-91082761D01*
X123047047Y-91035142D01*
X124094666Y-91130380D02*
X124094666Y-90130380D01*
X124189904Y-90749428D02*
X124475619Y-91130380D01*
X124475619Y-90463714D02*
X124094666Y-90844666D01*
X109783714Y-90808380D02*
X110402761Y-90808380D01*
X110069428Y-91189333D01*
X110212285Y-91189333D01*
X110307523Y-91236952D01*
X110355142Y-91284571D01*
X110402761Y-91379809D01*
X110402761Y-91617904D01*
X110355142Y-91713142D01*
X110307523Y-91760761D01*
X110212285Y-91808380D01*
X109926571Y-91808380D01*
X109831333Y-91760761D01*
X109783714Y-91713142D01*
X110736095Y-90808380D02*
X111355142Y-90808380D01*
X111021809Y-91189333D01*
X111164666Y-91189333D01*
X111259904Y-91236952D01*
X111307523Y-91284571D01*
X111355142Y-91379809D01*
X111355142Y-91617904D01*
X111307523Y-91713142D01*
X111259904Y-91760761D01*
X111164666Y-91808380D01*
X110878952Y-91808380D01*
X110783714Y-91760761D01*
X110736095Y-91713142D01*
X111783714Y-91808380D02*
X111783714Y-90808380D01*
X111878952Y-91427428D02*
X112164666Y-91808380D01*
X112164666Y-91141714D02*
X111783714Y-91522666D01*
X109569428Y-94178380D02*
X109236095Y-93702190D01*
X108998000Y-94178380D02*
X108998000Y-93178380D01*
X109378952Y-93178380D01*
X109474190Y-93226000D01*
X109521809Y-93273619D01*
X109569428Y-93368857D01*
X109569428Y-93511714D01*
X109521809Y-93606952D01*
X109474190Y-93654571D01*
X109378952Y-93702190D01*
X108998000Y-93702190D01*
X110664666Y-93178380D02*
X111283714Y-93178380D01*
X110950380Y-93559333D01*
X111093238Y-93559333D01*
X111188476Y-93606952D01*
X111236095Y-93654571D01*
X111283714Y-93749809D01*
X111283714Y-93987904D01*
X111236095Y-94083142D01*
X111188476Y-94130761D01*
X111093238Y-94178380D01*
X110807523Y-94178380D01*
X110712285Y-94130761D01*
X110664666Y-94083142D01*
X111617047Y-93178380D02*
X112236095Y-93178380D01*
X111902761Y-93559333D01*
X112045619Y-93559333D01*
X112140857Y-93606952D01*
X112188476Y-93654571D01*
X112236095Y-93749809D01*
X112236095Y-93987904D01*
X112188476Y-94083142D01*
X112140857Y-94130761D01*
X112045619Y-94178380D01*
X111759904Y-94178380D01*
X111664666Y-94130761D01*
X111617047Y-94083142D01*
X112664666Y-94178380D02*
X112664666Y-93178380D01*
X112759904Y-93797428D02*
X113045619Y-94178380D01*
X113045619Y-93511714D02*
X112664666Y-93892666D01*
X121213714Y-90808380D02*
X121832761Y-90808380D01*
X121499428Y-91189333D01*
X121642285Y-91189333D01*
X121737523Y-91236952D01*
X121785142Y-91284571D01*
X121832761Y-91379809D01*
X121832761Y-91617904D01*
X121785142Y-91713142D01*
X121737523Y-91760761D01*
X121642285Y-91808380D01*
X121356571Y-91808380D01*
X121261333Y-91760761D01*
X121213714Y-91713142D01*
X122166095Y-90808380D02*
X122785142Y-90808380D01*
X122451809Y-91189333D01*
X122594666Y-91189333D01*
X122689904Y-91236952D01*
X122737523Y-91284571D01*
X122785142Y-91379809D01*
X122785142Y-91617904D01*
X122737523Y-91713142D01*
X122689904Y-91760761D01*
X122594666Y-91808380D01*
X122308952Y-91808380D01*
X122213714Y-91760761D01*
X122166095Y-91713142D01*
X123213714Y-91808380D02*
X123213714Y-90808380D01*
X123308952Y-91427428D02*
X123594666Y-91808380D01*
X123594666Y-91141714D02*
X123213714Y-91522666D01*
X120999428Y-94178380D02*
X120666095Y-93702190D01*
X120428000Y-94178380D02*
X120428000Y-93178380D01*
X120808952Y-93178380D01*
X120904190Y-93226000D01*
X120951809Y-93273619D01*
X120999428Y-93368857D01*
X120999428Y-93511714D01*
X120951809Y-93606952D01*
X120904190Y-93654571D01*
X120808952Y-93702190D01*
X120428000Y-93702190D01*
X122094666Y-93178380D02*
X122713714Y-93178380D01*
X122380380Y-93559333D01*
X122523238Y-93559333D01*
X122618476Y-93606952D01*
X122666095Y-93654571D01*
X122713714Y-93749809D01*
X122713714Y-93987904D01*
X122666095Y-94083142D01*
X122618476Y-94130761D01*
X122523238Y-94178380D01*
X122237523Y-94178380D01*
X122142285Y-94130761D01*
X122094666Y-94083142D01*
X123047047Y-93178380D02*
X123666095Y-93178380D01*
X123332761Y-93559333D01*
X123475619Y-93559333D01*
X123570857Y-93606952D01*
X123618476Y-93654571D01*
X123666095Y-93749809D01*
X123666095Y-93987904D01*
X123618476Y-94083142D01*
X123570857Y-94130761D01*
X123475619Y-94178380D01*
X123189904Y-94178380D01*
X123094666Y-94130761D01*
X123047047Y-94083142D01*
X124094666Y-94178380D02*
X124094666Y-93178380D01*
X124189904Y-93797428D02*
X124475619Y-94178380D01*
X124475619Y-93511714D02*
X124094666Y-93892666D01*
X109783714Y-87760380D02*
X110402761Y-87760380D01*
X110069428Y-88141333D01*
X110212285Y-88141333D01*
X110307523Y-88188952D01*
X110355142Y-88236571D01*
X110402761Y-88331809D01*
X110402761Y-88569904D01*
X110355142Y-88665142D01*
X110307523Y-88712761D01*
X110212285Y-88760380D01*
X109926571Y-88760380D01*
X109831333Y-88712761D01*
X109783714Y-88665142D01*
X110736095Y-87760380D02*
X111355142Y-87760380D01*
X111021809Y-88141333D01*
X111164666Y-88141333D01*
X111259904Y-88188952D01*
X111307523Y-88236571D01*
X111355142Y-88331809D01*
X111355142Y-88569904D01*
X111307523Y-88665142D01*
X111259904Y-88712761D01*
X111164666Y-88760380D01*
X110878952Y-88760380D01*
X110783714Y-88712761D01*
X110736095Y-88665142D01*
X111783714Y-88760380D02*
X111783714Y-87760380D01*
X111878952Y-88379428D02*
X112164666Y-88760380D01*
X112164666Y-88093714D02*
X111783714Y-88474666D01*
X109569428Y-91130380D02*
X109236095Y-90654190D01*
X108998000Y-91130380D02*
X108998000Y-90130380D01*
X109378952Y-90130380D01*
X109474190Y-90178000D01*
X109521809Y-90225619D01*
X109569428Y-90320857D01*
X109569428Y-90463714D01*
X109521809Y-90558952D01*
X109474190Y-90606571D01*
X109378952Y-90654190D01*
X108998000Y-90654190D01*
X110664666Y-90130380D02*
X111283714Y-90130380D01*
X110950380Y-90511333D01*
X111093238Y-90511333D01*
X111188476Y-90558952D01*
X111236095Y-90606571D01*
X111283714Y-90701809D01*
X111283714Y-90939904D01*
X111236095Y-91035142D01*
X111188476Y-91082761D01*
X111093238Y-91130380D01*
X110807523Y-91130380D01*
X110712285Y-91082761D01*
X110664666Y-91035142D01*
X111617047Y-90130380D02*
X112236095Y-90130380D01*
X111902761Y-90511333D01*
X112045619Y-90511333D01*
X112140857Y-90558952D01*
X112188476Y-90606571D01*
X112236095Y-90701809D01*
X112236095Y-90939904D01*
X112188476Y-91035142D01*
X112140857Y-91082761D01*
X112045619Y-91130380D01*
X111759904Y-91130380D01*
X111664666Y-91082761D01*
X111617047Y-91035142D01*
X112664666Y-91130380D02*
X112664666Y-90130380D01*
X112759904Y-90749428D02*
X113045619Y-91130380D01*
X113045619Y-90463714D02*
X112664666Y-90844666D01*
X121213714Y-93856380D02*
X121832761Y-93856380D01*
X121499428Y-94237333D01*
X121642285Y-94237333D01*
X121737523Y-94284952D01*
X121785142Y-94332571D01*
X121832761Y-94427809D01*
X121832761Y-94665904D01*
X121785142Y-94761142D01*
X121737523Y-94808761D01*
X121642285Y-94856380D01*
X121356571Y-94856380D01*
X121261333Y-94808761D01*
X121213714Y-94761142D01*
X122166095Y-93856380D02*
X122785142Y-93856380D01*
X122451809Y-94237333D01*
X122594666Y-94237333D01*
X122689904Y-94284952D01*
X122737523Y-94332571D01*
X122785142Y-94427809D01*
X122785142Y-94665904D01*
X122737523Y-94761142D01*
X122689904Y-94808761D01*
X122594666Y-94856380D01*
X122308952Y-94856380D01*
X122213714Y-94808761D01*
X122166095Y-94761142D01*
X123213714Y-94856380D02*
X123213714Y-93856380D01*
X123308952Y-94475428D02*
X123594666Y-94856380D01*
X123594666Y-94189714D02*
X123213714Y-94570666D01*
X120999428Y-97226380D02*
X120666095Y-96750190D01*
X120428000Y-97226380D02*
X120428000Y-96226380D01*
X120808952Y-96226380D01*
X120904190Y-96274000D01*
X120951809Y-96321619D01*
X120999428Y-96416857D01*
X120999428Y-96559714D01*
X120951809Y-96654952D01*
X120904190Y-96702571D01*
X120808952Y-96750190D01*
X120428000Y-96750190D01*
X122094666Y-96226380D02*
X122713714Y-96226380D01*
X122380380Y-96607333D01*
X122523238Y-96607333D01*
X122618476Y-96654952D01*
X122666095Y-96702571D01*
X122713714Y-96797809D01*
X122713714Y-97035904D01*
X122666095Y-97131142D01*
X122618476Y-97178761D01*
X122523238Y-97226380D01*
X122237523Y-97226380D01*
X122142285Y-97178761D01*
X122094666Y-97131142D01*
X123047047Y-96226380D02*
X123666095Y-96226380D01*
X123332761Y-96607333D01*
X123475619Y-96607333D01*
X123570857Y-96654952D01*
X123618476Y-96702571D01*
X123666095Y-96797809D01*
X123666095Y-97035904D01*
X123618476Y-97131142D01*
X123570857Y-97178761D01*
X123475619Y-97226380D01*
X123189904Y-97226380D01*
X123094666Y-97178761D01*
X123047047Y-97131142D01*
X124094666Y-97226380D02*
X124094666Y-96226380D01*
X124189904Y-96845428D02*
X124475619Y-97226380D01*
X124475619Y-96559714D02*
X124094666Y-96940666D01*
X109831333Y-68789714D02*
X109831333Y-69456380D01*
X109593238Y-68408761D02*
X109355142Y-69123047D01*
X109974190Y-69123047D01*
X110259904Y-68456380D02*
X110926571Y-68456380D01*
X110498000Y-69456380D01*
X111498000Y-68456380D02*
X111593238Y-68456380D01*
X111688476Y-68504000D01*
X111736095Y-68551619D01*
X111783714Y-68646857D01*
X111831333Y-68837333D01*
X111831333Y-69075428D01*
X111783714Y-69265904D01*
X111736095Y-69361142D01*
X111688476Y-69408761D01*
X111593238Y-69456380D01*
X111498000Y-69456380D01*
X111402761Y-69408761D01*
X111355142Y-69361142D01*
X111307523Y-69265904D01*
X111259904Y-69075428D01*
X111259904Y-68837333D01*
X111307523Y-68646857D01*
X111355142Y-68551619D01*
X111402761Y-68504000D01*
X111498000Y-68456380D01*
X112259904Y-69456380D02*
X112259904Y-68456380D01*
X112355142Y-69075428D02*
X112640857Y-69456380D01*
X112640857Y-68789714D02*
X112259904Y-69170666D01*
X109093238Y-71826380D02*
X108759904Y-71350190D01*
X108521809Y-71826380D02*
X108521809Y-70826380D01*
X108902761Y-70826380D01*
X108998000Y-70874000D01*
X109045619Y-70921619D01*
X109093238Y-71016857D01*
X109093238Y-71159714D01*
X109045619Y-71254952D01*
X108998000Y-71302571D01*
X108902761Y-71350190D01*
X108521809Y-71350190D01*
X110712285Y-71159714D02*
X110712285Y-71826380D01*
X110474190Y-70778761D02*
X110236095Y-71493047D01*
X110855142Y-71493047D01*
X111140857Y-70826380D02*
X111807523Y-70826380D01*
X111378952Y-71826380D01*
X112378952Y-70826380D02*
X112474190Y-70826380D01*
X112569428Y-70874000D01*
X112617047Y-70921619D01*
X112664666Y-71016857D01*
X112712285Y-71207333D01*
X112712285Y-71445428D01*
X112664666Y-71635904D01*
X112617047Y-71731142D01*
X112569428Y-71778761D01*
X112474190Y-71826380D01*
X112378952Y-71826380D01*
X112283714Y-71778761D01*
X112236095Y-71731142D01*
X112188476Y-71635904D01*
X112140857Y-71445428D01*
X112140857Y-71207333D01*
X112188476Y-71016857D01*
X112236095Y-70921619D01*
X112283714Y-70874000D01*
X112378952Y-70826380D01*
X113140857Y-71826380D02*
X113140857Y-70826380D01*
X113236095Y-71445428D02*
X113521809Y-71826380D01*
X113521809Y-71159714D02*
X113140857Y-71540666D01*
X122023333Y-79625714D02*
X122023333Y-80292380D01*
X121785238Y-79244761D02*
X121547142Y-79959047D01*
X122166190Y-79959047D01*
X122451904Y-79292380D02*
X123118571Y-79292380D01*
X122690000Y-80292380D01*
X123690000Y-79292380D02*
X123785238Y-79292380D01*
X123880476Y-79340000D01*
X123928095Y-79387619D01*
X123975714Y-79482857D01*
X124023333Y-79673333D01*
X124023333Y-79911428D01*
X123975714Y-80101904D01*
X123928095Y-80197142D01*
X123880476Y-80244761D01*
X123785238Y-80292380D01*
X123690000Y-80292380D01*
X123594761Y-80244761D01*
X123547142Y-80197142D01*
X123499523Y-80101904D01*
X123451904Y-79911428D01*
X123451904Y-79673333D01*
X123499523Y-79482857D01*
X123547142Y-79387619D01*
X123594761Y-79340000D01*
X123690000Y-79292380D01*
X124451904Y-80292380D02*
X124451904Y-79292380D01*
X124547142Y-79911428D02*
X124832857Y-80292380D01*
X124832857Y-79625714D02*
X124451904Y-80006666D01*
X121285238Y-77922380D02*
X120951904Y-77446190D01*
X120713809Y-77922380D02*
X120713809Y-76922380D01*
X121094761Y-76922380D01*
X121190000Y-76970000D01*
X121237619Y-77017619D01*
X121285238Y-77112857D01*
X121285238Y-77255714D01*
X121237619Y-77350952D01*
X121190000Y-77398571D01*
X121094761Y-77446190D01*
X120713809Y-77446190D01*
X122904285Y-77255714D02*
X122904285Y-77922380D01*
X122666190Y-76874761D02*
X122428095Y-77589047D01*
X123047142Y-77589047D01*
X123332857Y-76922380D02*
X123999523Y-76922380D01*
X123570952Y-77922380D01*
X124570952Y-76922380D02*
X124666190Y-76922380D01*
X124761428Y-76970000D01*
X124809047Y-77017619D01*
X124856666Y-77112857D01*
X124904285Y-77303333D01*
X124904285Y-77541428D01*
X124856666Y-77731904D01*
X124809047Y-77827142D01*
X124761428Y-77874761D01*
X124666190Y-77922380D01*
X124570952Y-77922380D01*
X124475714Y-77874761D01*
X124428095Y-77827142D01*
X124380476Y-77731904D01*
X124332857Y-77541428D01*
X124332857Y-77303333D01*
X124380476Y-77112857D01*
X124428095Y-77017619D01*
X124475714Y-76970000D01*
X124570952Y-76922380D01*
X125332857Y-77922380D02*
X125332857Y-76922380D01*
X125428095Y-77541428D02*
X125713809Y-77922380D01*
X125713809Y-77255714D02*
X125332857Y-77636666D01*
X109831333Y-71837714D02*
X109831333Y-72504380D01*
X109593238Y-71456761D02*
X109355142Y-72171047D01*
X109974190Y-72171047D01*
X110259904Y-71504380D02*
X110926571Y-71504380D01*
X110498000Y-72504380D01*
X111498000Y-71504380D02*
X111593238Y-71504380D01*
X111688476Y-71552000D01*
X111736095Y-71599619D01*
X111783714Y-71694857D01*
X111831333Y-71885333D01*
X111831333Y-72123428D01*
X111783714Y-72313904D01*
X111736095Y-72409142D01*
X111688476Y-72456761D01*
X111593238Y-72504380D01*
X111498000Y-72504380D01*
X111402761Y-72456761D01*
X111355142Y-72409142D01*
X111307523Y-72313904D01*
X111259904Y-72123428D01*
X111259904Y-71885333D01*
X111307523Y-71694857D01*
X111355142Y-71599619D01*
X111402761Y-71552000D01*
X111498000Y-71504380D01*
X112259904Y-72504380D02*
X112259904Y-71504380D01*
X112355142Y-72123428D02*
X112640857Y-72504380D01*
X112640857Y-71837714D02*
X112259904Y-72218666D01*
X109093238Y-74874380D02*
X108759904Y-74398190D01*
X108521809Y-74874380D02*
X108521809Y-73874380D01*
X108902761Y-73874380D01*
X108998000Y-73922000D01*
X109045619Y-73969619D01*
X109093238Y-74064857D01*
X109093238Y-74207714D01*
X109045619Y-74302952D01*
X108998000Y-74350571D01*
X108902761Y-74398190D01*
X108521809Y-74398190D01*
X110712285Y-74207714D02*
X110712285Y-74874380D01*
X110474190Y-73826761D02*
X110236095Y-74541047D01*
X110855142Y-74541047D01*
X111140857Y-73874380D02*
X111807523Y-73874380D01*
X111378952Y-74874380D01*
X112378952Y-73874380D02*
X112474190Y-73874380D01*
X112569428Y-73922000D01*
X112617047Y-73969619D01*
X112664666Y-74064857D01*
X112712285Y-74255333D01*
X112712285Y-74493428D01*
X112664666Y-74683904D01*
X112617047Y-74779142D01*
X112569428Y-74826761D01*
X112474190Y-74874380D01*
X112378952Y-74874380D01*
X112283714Y-74826761D01*
X112236095Y-74779142D01*
X112188476Y-74683904D01*
X112140857Y-74493428D01*
X112140857Y-74255333D01*
X112188476Y-74064857D01*
X112236095Y-73969619D01*
X112283714Y-73922000D01*
X112378952Y-73874380D01*
X113140857Y-74874380D02*
X113140857Y-73874380D01*
X113236095Y-74493428D02*
X113521809Y-74874380D01*
X113521809Y-74207714D02*
X113140857Y-74588666D01*
X109831333Y-74885714D02*
X109831333Y-75552380D01*
X109593238Y-74504761D02*
X109355142Y-75219047D01*
X109974190Y-75219047D01*
X110259904Y-74552380D02*
X110926571Y-74552380D01*
X110498000Y-75552380D01*
X111498000Y-74552380D02*
X111593238Y-74552380D01*
X111688476Y-74600000D01*
X111736095Y-74647619D01*
X111783714Y-74742857D01*
X111831333Y-74933333D01*
X111831333Y-75171428D01*
X111783714Y-75361904D01*
X111736095Y-75457142D01*
X111688476Y-75504761D01*
X111593238Y-75552380D01*
X111498000Y-75552380D01*
X111402761Y-75504761D01*
X111355142Y-75457142D01*
X111307523Y-75361904D01*
X111259904Y-75171428D01*
X111259904Y-74933333D01*
X111307523Y-74742857D01*
X111355142Y-74647619D01*
X111402761Y-74600000D01*
X111498000Y-74552380D01*
X112259904Y-75552380D02*
X112259904Y-74552380D01*
X112355142Y-75171428D02*
X112640857Y-75552380D01*
X112640857Y-74885714D02*
X112259904Y-75266666D01*
X109093238Y-77922380D02*
X108759904Y-77446190D01*
X108521809Y-77922380D02*
X108521809Y-76922380D01*
X108902761Y-76922380D01*
X108998000Y-76970000D01*
X109045619Y-77017619D01*
X109093238Y-77112857D01*
X109093238Y-77255714D01*
X109045619Y-77350952D01*
X108998000Y-77398571D01*
X108902761Y-77446190D01*
X108521809Y-77446190D01*
X110712285Y-77255714D02*
X110712285Y-77922380D01*
X110474190Y-76874761D02*
X110236095Y-77589047D01*
X110855142Y-77589047D01*
X111140857Y-76922380D02*
X111807523Y-76922380D01*
X111378952Y-77922380D01*
X112378952Y-76922380D02*
X112474190Y-76922380D01*
X112569428Y-76970000D01*
X112617047Y-77017619D01*
X112664666Y-77112857D01*
X112712285Y-77303333D01*
X112712285Y-77541428D01*
X112664666Y-77731904D01*
X112617047Y-77827142D01*
X112569428Y-77874761D01*
X112474190Y-77922380D01*
X112378952Y-77922380D01*
X112283714Y-77874761D01*
X112236095Y-77827142D01*
X112188476Y-77731904D01*
X112140857Y-77541428D01*
X112140857Y-77303333D01*
X112188476Y-77112857D01*
X112236095Y-77017619D01*
X112283714Y-76970000D01*
X112378952Y-76922380D01*
X113140857Y-77922380D02*
X113140857Y-76922380D01*
X113236095Y-77541428D02*
X113521809Y-77922380D01*
X113521809Y-77255714D02*
X113140857Y-77636666D01*
X119605619Y-131468666D02*
X119558000Y-131421047D01*
X119510380Y-131325809D01*
X119510380Y-131087714D01*
X119558000Y-130992476D01*
X119605619Y-130944857D01*
X119700857Y-130897238D01*
X119796095Y-130897238D01*
X119938952Y-130944857D01*
X120510380Y-131516285D01*
X120510380Y-130897238D01*
X119510380Y-130278190D02*
X119510380Y-130182952D01*
X119558000Y-130087714D01*
X119605619Y-130040095D01*
X119700857Y-129992476D01*
X119891333Y-129944857D01*
X120129428Y-129944857D01*
X120319904Y-129992476D01*
X120415142Y-130040095D01*
X120462761Y-130087714D01*
X120510380Y-130182952D01*
X120510380Y-130278190D01*
X120462761Y-130373428D01*
X120415142Y-130421047D01*
X120319904Y-130468666D01*
X120129428Y-130516285D01*
X119891333Y-130516285D01*
X119700857Y-130468666D01*
X119605619Y-130421047D01*
X119558000Y-130373428D01*
X119510380Y-130278190D01*
X120510380Y-129516285D02*
X119510380Y-129516285D01*
X120129428Y-129421047D02*
X120510380Y-129135333D01*
X119843714Y-129135333D02*
X120224666Y-129516285D01*
X122880380Y-131730571D02*
X122404190Y-132063904D01*
X122880380Y-132302000D02*
X121880380Y-132302000D01*
X121880380Y-131921047D01*
X121928000Y-131825809D01*
X121975619Y-131778190D01*
X122070857Y-131730571D01*
X122213714Y-131730571D01*
X122308952Y-131778190D01*
X122356571Y-131825809D01*
X122404190Y-131921047D01*
X122404190Y-132302000D01*
X121975619Y-130587714D02*
X121928000Y-130540095D01*
X121880380Y-130444857D01*
X121880380Y-130206761D01*
X121928000Y-130111523D01*
X121975619Y-130063904D01*
X122070857Y-130016285D01*
X122166095Y-130016285D01*
X122308952Y-130063904D01*
X122880380Y-130635333D01*
X122880380Y-130016285D01*
X121880380Y-129397238D02*
X121880380Y-129302000D01*
X121928000Y-129206761D01*
X121975619Y-129159142D01*
X122070857Y-129111523D01*
X122261333Y-129063904D01*
X122499428Y-129063904D01*
X122689904Y-129111523D01*
X122785142Y-129159142D01*
X122832761Y-129206761D01*
X122880380Y-129302000D01*
X122880380Y-129397238D01*
X122832761Y-129492476D01*
X122785142Y-129540095D01*
X122689904Y-129587714D01*
X122499428Y-129635333D01*
X122261333Y-129635333D01*
X122070857Y-129587714D01*
X121975619Y-129540095D01*
X121928000Y-129492476D01*
X121880380Y-129397238D01*
X122880380Y-128635333D02*
X121880380Y-128635333D01*
X122499428Y-128540095D02*
X122880380Y-128254380D01*
X122213714Y-128254380D02*
X122594666Y-128635333D01*
X114403523Y-78688380D02*
X114403523Y-77688380D01*
X114736857Y-78402666D01*
X115070190Y-77688380D01*
X115070190Y-78688380D01*
X115546380Y-78688380D02*
X115546380Y-77688380D01*
X115927333Y-77688380D01*
X116022571Y-77736000D01*
X116070190Y-77783619D01*
X116117809Y-77878857D01*
X116117809Y-78021714D01*
X116070190Y-78116952D01*
X116022571Y-78164571D01*
X115927333Y-78212190D01*
X115546380Y-78212190D01*
X116498761Y-78640761D02*
X116641619Y-78688380D01*
X116879714Y-78688380D01*
X116974952Y-78640761D01*
X117022571Y-78593142D01*
X117070190Y-78497904D01*
X117070190Y-78402666D01*
X117022571Y-78307428D01*
X116974952Y-78259809D01*
X116879714Y-78212190D01*
X116689238Y-78164571D01*
X116594000Y-78116952D01*
X116546380Y-78069333D01*
X116498761Y-77974095D01*
X116498761Y-77878857D01*
X116546380Y-77783619D01*
X116594000Y-77736000D01*
X116689238Y-77688380D01*
X116927333Y-77688380D01*
X117070190Y-77736000D01*
X117451142Y-78402666D02*
X117927333Y-78402666D01*
X117355904Y-78688380D02*
X117689238Y-77688380D01*
X118022571Y-78688380D01*
X118784476Y-78021714D02*
X118784476Y-78688380D01*
X118546380Y-77640761D02*
X118308285Y-78355047D01*
X118927333Y-78355047D01*
X119260666Y-77783619D02*
X119308285Y-77736000D01*
X119403523Y-77688380D01*
X119641619Y-77688380D01*
X119736857Y-77736000D01*
X119784476Y-77783619D01*
X119832095Y-77878857D01*
X119832095Y-77974095D01*
X119784476Y-78116952D01*
X119213047Y-78688380D01*
X119832095Y-78688380D01*
X114403523Y-85038380D02*
X114403523Y-84038380D01*
X114736857Y-84752666D01*
X115070190Y-84038380D01*
X115070190Y-85038380D01*
X115546380Y-85038380D02*
X115546380Y-84038380D01*
X115927333Y-84038380D01*
X116022571Y-84086000D01*
X116070190Y-84133619D01*
X116117809Y-84228857D01*
X116117809Y-84371714D01*
X116070190Y-84466952D01*
X116022571Y-84514571D01*
X115927333Y-84562190D01*
X115546380Y-84562190D01*
X116498761Y-84990761D02*
X116641619Y-85038380D01*
X116879714Y-85038380D01*
X116974952Y-84990761D01*
X117022571Y-84943142D01*
X117070190Y-84847904D01*
X117070190Y-84752666D01*
X117022571Y-84657428D01*
X116974952Y-84609809D01*
X116879714Y-84562190D01*
X116689238Y-84514571D01*
X116594000Y-84466952D01*
X116546380Y-84419333D01*
X116498761Y-84324095D01*
X116498761Y-84228857D01*
X116546380Y-84133619D01*
X116594000Y-84086000D01*
X116689238Y-84038380D01*
X116927333Y-84038380D01*
X117070190Y-84086000D01*
X117451142Y-84752666D02*
X117927333Y-84752666D01*
X117355904Y-85038380D02*
X117689238Y-84038380D01*
X118022571Y-85038380D01*
X118784476Y-84371714D02*
X118784476Y-85038380D01*
X118546380Y-83990761D02*
X118308285Y-84705047D01*
X118927333Y-84705047D01*
X119260666Y-84133619D02*
X119308285Y-84086000D01*
X119403523Y-84038380D01*
X119641619Y-84038380D01*
X119736857Y-84086000D01*
X119784476Y-84133619D01*
X119832095Y-84228857D01*
X119832095Y-84324095D01*
X119784476Y-84466952D01*
X119213047Y-85038380D01*
X119832095Y-85038380D01*
X121769523Y-78688380D02*
X121769523Y-77688380D01*
X122102857Y-78402666D01*
X122436190Y-77688380D01*
X122436190Y-78688380D01*
X122912380Y-78688380D02*
X122912380Y-77688380D01*
X123293333Y-77688380D01*
X123388571Y-77736000D01*
X123436190Y-77783619D01*
X123483809Y-77878857D01*
X123483809Y-78021714D01*
X123436190Y-78116952D01*
X123388571Y-78164571D01*
X123293333Y-78212190D01*
X122912380Y-78212190D01*
X123864761Y-78640761D02*
X124007619Y-78688380D01*
X124245714Y-78688380D01*
X124340952Y-78640761D01*
X124388571Y-78593142D01*
X124436190Y-78497904D01*
X124436190Y-78402666D01*
X124388571Y-78307428D01*
X124340952Y-78259809D01*
X124245714Y-78212190D01*
X124055238Y-78164571D01*
X123960000Y-78116952D01*
X123912380Y-78069333D01*
X123864761Y-77974095D01*
X123864761Y-77878857D01*
X123912380Y-77783619D01*
X123960000Y-77736000D01*
X124055238Y-77688380D01*
X124293333Y-77688380D01*
X124436190Y-77736000D01*
X124817142Y-78402666D02*
X125293333Y-78402666D01*
X124721904Y-78688380D02*
X125055238Y-77688380D01*
X125388571Y-78688380D01*
X126150476Y-78021714D02*
X126150476Y-78688380D01*
X125912380Y-77640761D02*
X125674285Y-78355047D01*
X126293333Y-78355047D01*
X126626666Y-77783619D02*
X126674285Y-77736000D01*
X126769523Y-77688380D01*
X127007619Y-77688380D01*
X127102857Y-77736000D01*
X127150476Y-77783619D01*
X127198095Y-77878857D01*
X127198095Y-77974095D01*
X127150476Y-78116952D01*
X126579047Y-78688380D01*
X127198095Y-78688380D01*
X121769523Y-85038380D02*
X121769523Y-84038380D01*
X122102857Y-84752666D01*
X122436190Y-84038380D01*
X122436190Y-85038380D01*
X122912380Y-85038380D02*
X122912380Y-84038380D01*
X123293333Y-84038380D01*
X123388571Y-84086000D01*
X123436190Y-84133619D01*
X123483809Y-84228857D01*
X123483809Y-84371714D01*
X123436190Y-84466952D01*
X123388571Y-84514571D01*
X123293333Y-84562190D01*
X122912380Y-84562190D01*
X123864761Y-84990761D02*
X124007619Y-85038380D01*
X124245714Y-85038380D01*
X124340952Y-84990761D01*
X124388571Y-84943142D01*
X124436190Y-84847904D01*
X124436190Y-84752666D01*
X124388571Y-84657428D01*
X124340952Y-84609809D01*
X124245714Y-84562190D01*
X124055238Y-84514571D01*
X123960000Y-84466952D01*
X123912380Y-84419333D01*
X123864761Y-84324095D01*
X123864761Y-84228857D01*
X123912380Y-84133619D01*
X123960000Y-84086000D01*
X124055238Y-84038380D01*
X124293333Y-84038380D01*
X124436190Y-84086000D01*
X124817142Y-84752666D02*
X125293333Y-84752666D01*
X124721904Y-85038380D02*
X125055238Y-84038380D01*
X125388571Y-85038380D01*
X126150476Y-84371714D02*
X126150476Y-85038380D01*
X125912380Y-83990761D02*
X125674285Y-84705047D01*
X126293333Y-84705047D01*
X126626666Y-84133619D02*
X126674285Y-84086000D01*
X126769523Y-84038380D01*
X127007619Y-84038380D01*
X127102857Y-84086000D01*
X127150476Y-84133619D01*
X127198095Y-84228857D01*
X127198095Y-84324095D01*
X127150476Y-84466952D01*
X126579047Y-85038380D01*
X127198095Y-85038380D01*
X129782380Y-154860190D02*
X128782380Y-154860190D01*
X129258571Y-154860190D02*
X129258571Y-154288761D01*
X129782380Y-154288761D02*
X128782380Y-154288761D01*
X129258571Y-153812571D02*
X129258571Y-153479238D01*
X129782380Y-153336380D02*
X129782380Y-153812571D01*
X128782380Y-153812571D01*
X128782380Y-153336380D01*
X129496666Y-152955428D02*
X129496666Y-152479238D01*
X129782380Y-153050666D02*
X128782380Y-152717333D01*
X129782380Y-152384000D01*
X129782380Y-152050666D02*
X128782380Y-152050666D01*
X128782380Y-151812571D01*
X128830000Y-151669714D01*
X128925238Y-151574476D01*
X129020476Y-151526857D01*
X129210952Y-151479238D01*
X129353809Y-151479238D01*
X129544285Y-151526857D01*
X129639523Y-151574476D01*
X129734761Y-151669714D01*
X129782380Y-151812571D01*
X129782380Y-152050666D01*
X129258571Y-151050666D02*
X129258571Y-150717333D01*
X129782380Y-150574476D02*
X129782380Y-151050666D01*
X128782380Y-151050666D01*
X128782380Y-150574476D01*
X129782380Y-149574476D02*
X129306190Y-149907809D01*
X129782380Y-150145904D02*
X128782380Y-150145904D01*
X128782380Y-149764952D01*
X128830000Y-149669714D01*
X128877619Y-149622095D01*
X128972857Y-149574476D01*
X129115714Y-149574476D01*
X129210952Y-149622095D01*
X129258571Y-149669714D01*
X129306190Y-149764952D01*
X129306190Y-150145904D01*
X129877619Y-149384000D02*
X129877619Y-148622095D01*
X129115714Y-147955428D02*
X129782380Y-147955428D01*
X128734761Y-148193523D02*
X129449047Y-148431619D01*
X129449047Y-147812571D01*
X118618571Y-150884000D02*
X118523333Y-150836380D01*
X118380476Y-150836380D01*
X118237619Y-150884000D01*
X118142380Y-150979238D01*
X118094761Y-151074476D01*
X118047142Y-151264952D01*
X118047142Y-151407809D01*
X118094761Y-151598285D01*
X118142380Y-151693523D01*
X118237619Y-151788761D01*
X118380476Y-151836380D01*
X118475714Y-151836380D01*
X118618571Y-151788761D01*
X118666190Y-151741142D01*
X118666190Y-151407809D01*
X118475714Y-151407809D01*
X119094761Y-151836380D02*
X119094761Y-150836380D01*
X119666190Y-151836380D01*
X119666190Y-150836380D01*
X120142380Y-151836380D02*
X120142380Y-150836380D01*
X120380476Y-150836380D01*
X120523333Y-150884000D01*
X120618571Y-150979238D01*
X120666190Y-151074476D01*
X120713809Y-151264952D01*
X120713809Y-151407809D01*
X120666190Y-151598285D01*
X120618571Y-151693523D01*
X120523333Y-151788761D01*
X120380476Y-151836380D01*
X120142380Y-151836380D01*
X121190000Y-151788761D02*
X121190000Y-151836380D01*
X121142380Y-151931619D01*
X121094761Y-151979238D01*
X121570952Y-151788761D02*
X121713809Y-151836380D01*
X121951904Y-151836380D01*
X122047142Y-151788761D01*
X122094761Y-151741142D01*
X122142380Y-151645904D01*
X122142380Y-151550666D01*
X122094761Y-151455428D01*
X122047142Y-151407809D01*
X121951904Y-151360190D01*
X121761428Y-151312571D01*
X121666190Y-151264952D01*
X121618571Y-151217333D01*
X121570952Y-151122095D01*
X121570952Y-151026857D01*
X121618571Y-150931619D01*
X121666190Y-150884000D01*
X121761428Y-150836380D01*
X121999523Y-150836380D01*
X122142380Y-150884000D01*
X122951904Y-151788761D02*
X122856666Y-151836380D01*
X122666190Y-151836380D01*
X122570952Y-151788761D01*
X122523333Y-151693523D01*
X122523333Y-151312571D01*
X122570952Y-151217333D01*
X122666190Y-151169714D01*
X122856666Y-151169714D01*
X122951904Y-151217333D01*
X122999523Y-151312571D01*
X122999523Y-151407809D01*
X122523333Y-151503047D01*
X123570952Y-151836380D02*
X123475714Y-151788761D01*
X123428095Y-151693523D01*
X123428095Y-150836380D01*
X123999523Y-151788761D02*
X123999523Y-151836380D01*
X123951904Y-151931619D01*
X123904285Y-151979238D01*
X124428095Y-150836380D02*
X124428095Y-151645904D01*
X124475714Y-151741142D01*
X124523333Y-151788761D01*
X124618571Y-151836380D01*
X124809047Y-151836380D01*
X124904285Y-151788761D01*
X124951904Y-151741142D01*
X124999523Y-151645904D01*
X124999523Y-150836380D01*
X125475714Y-151169714D02*
X125475714Y-152169714D01*
X125475714Y-151217333D02*
X125570952Y-151169714D01*
X125761428Y-151169714D01*
X125856666Y-151217333D01*
X125904285Y-151264952D01*
X125951904Y-151360190D01*
X125951904Y-151645904D01*
X125904285Y-151741142D01*
X125856666Y-151788761D01*
X125761428Y-151836380D01*
X125570952Y-151836380D01*
X125475714Y-151788761D01*
X126428095Y-151788761D02*
X126428095Y-151836380D01*
X126380476Y-151931619D01*
X126332857Y-151979238D01*
X126856666Y-151836380D02*
X126856666Y-150836380D01*
X127094761Y-150836380D01*
X127237619Y-150884000D01*
X127332857Y-150979238D01*
X127380476Y-151074476D01*
X127428095Y-151264952D01*
X127428095Y-151407809D01*
X127380476Y-151598285D01*
X127332857Y-151693523D01*
X127237619Y-151788761D01*
X127094761Y-151836380D01*
X126856666Y-151836380D01*
X127856666Y-151169714D02*
X127856666Y-151836380D01*
X127856666Y-151264952D02*
X127904285Y-151217333D01*
X127999523Y-151169714D01*
X128142380Y-151169714D01*
X128237619Y-151217333D01*
X128285238Y-151312571D01*
X128285238Y-151836380D01*
X118730761Y-148162380D02*
X118397428Y-147686190D01*
X118159333Y-148162380D02*
X118159333Y-147162380D01*
X118540285Y-147162380D01*
X118635523Y-147210000D01*
X118683142Y-147257619D01*
X118730761Y-147352857D01*
X118730761Y-147495714D01*
X118683142Y-147590952D01*
X118635523Y-147638571D01*
X118540285Y-147686190D01*
X118159333Y-147686190D01*
X119064095Y-147162380D02*
X119730761Y-148162380D01*
X119730761Y-147162380D02*
X119064095Y-148162380D01*
X120111714Y-147781428D02*
X120873619Y-147781428D01*
X121492666Y-147590952D02*
X121397428Y-147543333D01*
X121349809Y-147495714D01*
X121302190Y-147400476D01*
X121302190Y-147352857D01*
X121349809Y-147257619D01*
X121397428Y-147210000D01*
X121492666Y-147162380D01*
X121683142Y-147162380D01*
X121778380Y-147210000D01*
X121826000Y-147257619D01*
X121873619Y-147352857D01*
X121873619Y-147400476D01*
X121826000Y-147495714D01*
X121778380Y-147543333D01*
X121683142Y-147590952D01*
X121492666Y-147590952D01*
X121397428Y-147638571D01*
X121349809Y-147686190D01*
X121302190Y-147781428D01*
X121302190Y-147971904D01*
X121349809Y-148067142D01*
X121397428Y-148114761D01*
X121492666Y-148162380D01*
X121683142Y-148162380D01*
X121778380Y-148114761D01*
X121826000Y-148067142D01*
X121873619Y-147971904D01*
X121873619Y-147781428D01*
X121826000Y-147686190D01*
X121778380Y-147638571D01*
X121683142Y-147590952D01*
X122492666Y-147162380D02*
X122587904Y-147162380D01*
X122683142Y-147210000D01*
X122730761Y-147257619D01*
X122778380Y-147352857D01*
X122826000Y-147543333D01*
X122826000Y-147781428D01*
X122778380Y-147971904D01*
X122730761Y-148067142D01*
X122683142Y-148114761D01*
X122587904Y-148162380D01*
X122492666Y-148162380D01*
X122397428Y-148114761D01*
X122349809Y-148067142D01*
X122302190Y-147971904D01*
X122254571Y-147781428D01*
X122254571Y-147543333D01*
X122302190Y-147352857D01*
X122349809Y-147257619D01*
X122397428Y-147210000D01*
X122492666Y-147162380D01*
X123206952Y-147257619D02*
X123254571Y-147210000D01*
X123349809Y-147162380D01*
X123587904Y-147162380D01*
X123683142Y-147210000D01*
X123730761Y-147257619D01*
X123778380Y-147352857D01*
X123778380Y-147448095D01*
X123730761Y-147590952D01*
X123159333Y-148162380D01*
X123778380Y-148162380D01*
X124683142Y-147162380D02*
X124206952Y-147162380D01*
X124159333Y-147638571D01*
X124206952Y-147590952D01*
X124302190Y-147543333D01*
X124540285Y-147543333D01*
X124635523Y-147590952D01*
X124683142Y-147638571D01*
X124730761Y-147733809D01*
X124730761Y-147971904D01*
X124683142Y-148067142D01*
X124635523Y-148114761D01*
X124540285Y-148162380D01*
X124302190Y-148162380D01*
X124206952Y-148114761D01*
X124159333Y-148067142D01*
X125111714Y-148114761D02*
X125254571Y-148162380D01*
X125492666Y-148162380D01*
X125587904Y-148114761D01*
X125635523Y-148067142D01*
X125683142Y-147971904D01*
X125683142Y-147876666D01*
X125635523Y-147781428D01*
X125587904Y-147733809D01*
X125492666Y-147686190D01*
X125302190Y-147638571D01*
X125206952Y-147590952D01*
X125159333Y-147543333D01*
X125111714Y-147448095D01*
X125111714Y-147352857D01*
X125159333Y-147257619D01*
X125206952Y-147210000D01*
X125302190Y-147162380D01*
X125540285Y-147162380D01*
X125683142Y-147210000D01*
X126064095Y-147876666D02*
X126540285Y-147876666D01*
X125968857Y-148162380D02*
X126302190Y-147162380D01*
X126635523Y-148162380D01*
X122687904Y-143762380D02*
X122306952Y-144029047D01*
X122687904Y-144219523D02*
X121887904Y-144219523D01*
X121887904Y-143914761D01*
X121926000Y-143838571D01*
X121964095Y-143800476D01*
X122040285Y-143762380D01*
X122154571Y-143762380D01*
X122230761Y-143800476D01*
X122268857Y-143838571D01*
X122306952Y-143914761D01*
X122306952Y-144219523D01*
X121887904Y-143495714D02*
X122687904Y-142962380D01*
X121887904Y-142962380D02*
X122687904Y-143495714D01*
X122383142Y-142657619D02*
X122383142Y-142048095D01*
X122230761Y-141552857D02*
X122192666Y-141629047D01*
X122154571Y-141667142D01*
X122078380Y-141705238D01*
X122040285Y-141705238D01*
X121964095Y-141667142D01*
X121926000Y-141629047D01*
X121887904Y-141552857D01*
X121887904Y-141400476D01*
X121926000Y-141324285D01*
X121964095Y-141286190D01*
X122040285Y-141248095D01*
X122078380Y-141248095D01*
X122154571Y-141286190D01*
X122192666Y-141324285D01*
X122230761Y-141400476D01*
X122230761Y-141552857D01*
X122268857Y-141629047D01*
X122306952Y-141667142D01*
X122383142Y-141705238D01*
X122535523Y-141705238D01*
X122611714Y-141667142D01*
X122649809Y-141629047D01*
X122687904Y-141552857D01*
X122687904Y-141400476D01*
X122649809Y-141324285D01*
X122611714Y-141286190D01*
X122535523Y-141248095D01*
X122383142Y-141248095D01*
X122306952Y-141286190D01*
X122268857Y-141324285D01*
X122230761Y-141400476D01*
X121887904Y-140752857D02*
X121887904Y-140676666D01*
X121926000Y-140600476D01*
X121964095Y-140562380D01*
X122040285Y-140524285D01*
X122192666Y-140486190D01*
X122383142Y-140486190D01*
X122535523Y-140524285D01*
X122611714Y-140562380D01*
X122649809Y-140600476D01*
X122687904Y-140676666D01*
X122687904Y-140752857D01*
X122649809Y-140829047D01*
X122611714Y-140867142D01*
X122535523Y-140905238D01*
X122383142Y-140943333D01*
X122192666Y-140943333D01*
X122040285Y-140905238D01*
X121964095Y-140867142D01*
X121926000Y-140829047D01*
X121887904Y-140752857D01*
X121964095Y-140181428D02*
X121926000Y-140143333D01*
X121887904Y-140067142D01*
X121887904Y-139876666D01*
X121926000Y-139800476D01*
X121964095Y-139762380D01*
X122040285Y-139724285D01*
X122116476Y-139724285D01*
X122230761Y-139762380D01*
X122687904Y-140219523D01*
X122687904Y-139724285D01*
X121887904Y-139000476D02*
X121887904Y-139381428D01*
X122268857Y-139419523D01*
X122230761Y-139381428D01*
X122192666Y-139305238D01*
X122192666Y-139114761D01*
X122230761Y-139038571D01*
X122268857Y-139000476D01*
X122345047Y-138962380D01*
X122535523Y-138962380D01*
X122611714Y-139000476D01*
X122649809Y-139038571D01*
X122687904Y-139114761D01*
X122687904Y-139305238D01*
X122649809Y-139381428D01*
X122611714Y-139419523D01*
X129397619Y-65940380D02*
X129397619Y-64940380D01*
X129397619Y-65416571D02*
X129969047Y-65416571D01*
X129969047Y-65940380D02*
X129969047Y-64940380D01*
X130445238Y-65416571D02*
X130778571Y-65416571D01*
X130921428Y-65940380D02*
X130445238Y-65940380D01*
X130445238Y-64940380D01*
X130921428Y-64940380D01*
X131302380Y-65654666D02*
X131778571Y-65654666D01*
X131207142Y-65940380D02*
X131540476Y-64940380D01*
X131873809Y-65940380D01*
X132207142Y-65940380D02*
X132207142Y-64940380D01*
X132445238Y-64940380D01*
X132588095Y-64988000D01*
X132683333Y-65083238D01*
X132730952Y-65178476D01*
X132778571Y-65368952D01*
X132778571Y-65511809D01*
X132730952Y-65702285D01*
X132683333Y-65797523D01*
X132588095Y-65892761D01*
X132445238Y-65940380D01*
X132207142Y-65940380D01*
X133207142Y-65416571D02*
X133540476Y-65416571D01*
X133683333Y-65940380D02*
X133207142Y-65940380D01*
X133207142Y-64940380D01*
X133683333Y-64940380D01*
X134683333Y-65940380D02*
X134350000Y-65464190D01*
X134111904Y-65940380D02*
X134111904Y-64940380D01*
X134492857Y-64940380D01*
X134588095Y-64988000D01*
X134635714Y-65035619D01*
X134683333Y-65130857D01*
X134683333Y-65273714D01*
X134635714Y-65368952D01*
X134588095Y-65416571D01*
X134492857Y-65464190D01*
X134111904Y-65464190D01*
X134873809Y-66035619D02*
X135635714Y-66035619D01*
X136397619Y-65940380D02*
X135826190Y-65940380D01*
X136111904Y-65940380D02*
X136111904Y-64940380D01*
X136016666Y-65083238D01*
X135921428Y-65178476D01*
X135826190Y-65226095D01*
X136969047Y-65368952D02*
X136873809Y-65321333D01*
X136826190Y-65273714D01*
X136778571Y-65178476D01*
X136778571Y-65130857D01*
X136826190Y-65035619D01*
X136873809Y-64988000D01*
X136969047Y-64940380D01*
X137159523Y-64940380D01*
X137254761Y-64988000D01*
X137302380Y-65035619D01*
X137350000Y-65130857D01*
X137350000Y-65178476D01*
X137302380Y-65273714D01*
X137254761Y-65321333D01*
X137159523Y-65368952D01*
X136969047Y-65368952D01*
X136873809Y-65416571D01*
X136826190Y-65464190D01*
X136778571Y-65559428D01*
X136778571Y-65749904D01*
X136826190Y-65845142D01*
X136873809Y-65892761D01*
X136969047Y-65940380D01*
X137159523Y-65940380D01*
X137254761Y-65892761D01*
X137302380Y-65845142D01*
X137350000Y-65749904D01*
X137350000Y-65559428D01*
X137302380Y-65464190D01*
X137254761Y-65416571D01*
X137159523Y-65368952D01*
X133897619Y-77644666D02*
X133183333Y-77644666D01*
X133040476Y-77597047D01*
X132945238Y-77501809D01*
X132897619Y-77358952D01*
X132897619Y-77263714D01*
X133897619Y-78025619D02*
X133897619Y-78644666D01*
X133516666Y-78311333D01*
X133516666Y-78454190D01*
X133469047Y-78549428D01*
X133421428Y-78597047D01*
X133326190Y-78644666D01*
X133088095Y-78644666D01*
X132992857Y-78597047D01*
X132945238Y-78549428D01*
X132897619Y-78454190D01*
X132897619Y-78168476D01*
X132945238Y-78073238D01*
X132992857Y-78025619D01*
X129683238Y-98452380D02*
X129683238Y-97452380D01*
X130254666Y-98452380D02*
X129826095Y-97880952D01*
X130254666Y-97452380D02*
X129683238Y-98023809D01*
X131207047Y-98452380D02*
X130635619Y-98452380D01*
X130921333Y-98452380D02*
X130921333Y-97452380D01*
X130826095Y-97595238D01*
X130730857Y-97690476D01*
X130635619Y-97738095D01*
X132111809Y-97452380D02*
X131635619Y-97452380D01*
X131588000Y-97928571D01*
X131635619Y-97880952D01*
X131730857Y-97833333D01*
X131968952Y-97833333D01*
X132064190Y-97880952D01*
X132111809Y-97928571D01*
X132159428Y-98023809D01*
X132159428Y-98261904D01*
X132111809Y-98357142D01*
X132064190Y-98404761D01*
X131968952Y-98452380D01*
X131730857Y-98452380D01*
X131635619Y-98404761D01*
X131588000Y-98357142D01*
X133064190Y-97452380D02*
X132588000Y-97452380D01*
X132540380Y-97928571D01*
X132588000Y-97880952D01*
X132683238Y-97833333D01*
X132921333Y-97833333D01*
X133016571Y-97880952D01*
X133064190Y-97928571D01*
X133111809Y-98023809D01*
X133111809Y-98261904D01*
X133064190Y-98357142D01*
X133016571Y-98404761D01*
X132921333Y-98452380D01*
X132683238Y-98452380D01*
X132588000Y-98404761D01*
X132540380Y-98357142D01*
X133540380Y-98452380D02*
X133540380Y-97452380D01*
X134016571Y-98452380D02*
X134016571Y-97452380D01*
X134254666Y-97452380D01*
X134397523Y-97500000D01*
X134492761Y-97595238D01*
X134540380Y-97690476D01*
X134588000Y-97880952D01*
X134588000Y-98023809D01*
X134540380Y-98214285D01*
X134492761Y-98309523D01*
X134397523Y-98404761D01*
X134254666Y-98452380D01*
X134016571Y-98452380D01*
X135540380Y-98452380D02*
X134968952Y-98452380D01*
X135254666Y-98452380D02*
X135254666Y-97452380D01*
X135159428Y-97595238D01*
X135064190Y-97690476D01*
X134968952Y-97738095D01*
X133040380Y-112124761D02*
X132040380Y-112124761D01*
X133040380Y-111553333D02*
X132468952Y-111981904D01*
X132040380Y-111553333D02*
X132611809Y-112124761D01*
X133040380Y-110600952D02*
X133040380Y-111172380D01*
X133040380Y-110886666D02*
X132040380Y-110886666D01*
X132183238Y-110981904D01*
X132278476Y-111077142D01*
X132326095Y-111172380D01*
X132040380Y-109696190D02*
X132040380Y-110172380D01*
X132516571Y-110220000D01*
X132468952Y-110172380D01*
X132421333Y-110077142D01*
X132421333Y-109839047D01*
X132468952Y-109743809D01*
X132516571Y-109696190D01*
X132611809Y-109648571D01*
X132849904Y-109648571D01*
X132945142Y-109696190D01*
X132992761Y-109743809D01*
X133040380Y-109839047D01*
X133040380Y-110077142D01*
X132992761Y-110172380D01*
X132945142Y-110220000D01*
X132040380Y-108743809D02*
X132040380Y-109220000D01*
X132516571Y-109267619D01*
X132468952Y-109220000D01*
X132421333Y-109124761D01*
X132421333Y-108886666D01*
X132468952Y-108791428D01*
X132516571Y-108743809D01*
X132611809Y-108696190D01*
X132849904Y-108696190D01*
X132945142Y-108743809D01*
X132992761Y-108791428D01*
X133040380Y-108886666D01*
X133040380Y-109124761D01*
X132992761Y-109220000D01*
X132945142Y-109267619D01*
X133040380Y-108267619D02*
X132040380Y-108267619D01*
X133040380Y-107791428D02*
X132040380Y-107791428D01*
X132040380Y-107553333D01*
X132088000Y-107410476D01*
X132183238Y-107315238D01*
X132278476Y-107267619D01*
X132468952Y-107220000D01*
X132611809Y-107220000D01*
X132802285Y-107267619D01*
X132897523Y-107315238D01*
X132992761Y-107410476D01*
X133040380Y-107553333D01*
X133040380Y-107791428D01*
X133040380Y-106267619D02*
X133040380Y-106839047D01*
X133040380Y-106553333D02*
X132040380Y-106553333D01*
X132183238Y-106648571D01*
X132278476Y-106743809D01*
X132326095Y-106839047D01*
X122075142Y-103669619D02*
X122122761Y-103622000D01*
X122218000Y-103574380D01*
X122456095Y-103574380D01*
X122551333Y-103622000D01*
X122598952Y-103669619D01*
X122646571Y-103764857D01*
X122646571Y-103860095D01*
X122598952Y-104002952D01*
X122027523Y-104574380D01*
X122646571Y-104574380D01*
X123027523Y-103669619D02*
X123075142Y-103622000D01*
X123170380Y-103574380D01*
X123408476Y-103574380D01*
X123503714Y-103622000D01*
X123551333Y-103669619D01*
X123598952Y-103764857D01*
X123598952Y-103860095D01*
X123551333Y-104002952D01*
X122979904Y-104574380D01*
X123598952Y-104574380D01*
X124027523Y-103907714D02*
X124027523Y-104907714D01*
X124027523Y-103955333D02*
X124122761Y-103907714D01*
X124313238Y-103907714D01*
X124408476Y-103955333D01*
X124456095Y-104002952D01*
X124503714Y-104098190D01*
X124503714Y-104383904D01*
X124456095Y-104479142D01*
X124408476Y-104526761D01*
X124313238Y-104574380D01*
X124122761Y-104574380D01*
X124027523Y-104526761D01*
X125265619Y-104050571D02*
X124932285Y-104050571D01*
X124932285Y-104574380D02*
X124932285Y-103574380D01*
X125408476Y-103574380D01*
D13*
X122732285Y-105900571D02*
X122760857Y-105872000D01*
X122818000Y-105843428D01*
X122960857Y-105843428D01*
X123018000Y-105872000D01*
X123046571Y-105900571D01*
X123075142Y-105957714D01*
X123075142Y-106014857D01*
X123046571Y-106100571D01*
X122703714Y-106443428D01*
X123075142Y-106443428D01*
X123303714Y-105900571D02*
X123332285Y-105872000D01*
X123389428Y-105843428D01*
X123532285Y-105843428D01*
X123589428Y-105872000D01*
X123618000Y-105900571D01*
X123646571Y-105957714D01*
X123646571Y-106014857D01*
X123618000Y-106100571D01*
X123275142Y-106443428D01*
X123646571Y-106443428D01*
X123903714Y-106043428D02*
X123903714Y-106643428D01*
X123903714Y-106072000D02*
X123960857Y-106043428D01*
X124075142Y-106043428D01*
X124132285Y-106072000D01*
X124160857Y-106100571D01*
X124189428Y-106157714D01*
X124189428Y-106329142D01*
X124160857Y-106386285D01*
X124132285Y-106414857D01*
X124075142Y-106443428D01*
X123960857Y-106443428D01*
X123903714Y-106414857D01*
X124646571Y-106129142D02*
X124446571Y-106129142D01*
X124446571Y-106443428D02*
X124446571Y-105843428D01*
X124732285Y-105843428D01*
D12*
X122075142Y-118909619D02*
X122122761Y-118862000D01*
X122218000Y-118814380D01*
X122456095Y-118814380D01*
X122551333Y-118862000D01*
X122598952Y-118909619D01*
X122646571Y-119004857D01*
X122646571Y-119100095D01*
X122598952Y-119242952D01*
X122027523Y-119814380D01*
X122646571Y-119814380D01*
X123027523Y-118909619D02*
X123075142Y-118862000D01*
X123170380Y-118814380D01*
X123408476Y-118814380D01*
X123503714Y-118862000D01*
X123551333Y-118909619D01*
X123598952Y-119004857D01*
X123598952Y-119100095D01*
X123551333Y-119242952D01*
X122979904Y-119814380D01*
X123598952Y-119814380D01*
X124027523Y-119147714D02*
X124027523Y-120147714D01*
X124027523Y-119195333D02*
X124122761Y-119147714D01*
X124313238Y-119147714D01*
X124408476Y-119195333D01*
X124456095Y-119242952D01*
X124503714Y-119338190D01*
X124503714Y-119623904D01*
X124456095Y-119719142D01*
X124408476Y-119766761D01*
X124313238Y-119814380D01*
X124122761Y-119814380D01*
X124027523Y-119766761D01*
X125265619Y-119290571D02*
X124932285Y-119290571D01*
X124932285Y-119814380D02*
X124932285Y-118814380D01*
X125408476Y-118814380D01*
D13*
X122732285Y-121140571D02*
X122760857Y-121112000D01*
X122818000Y-121083428D01*
X122960857Y-121083428D01*
X123018000Y-121112000D01*
X123046571Y-121140571D01*
X123075142Y-121197714D01*
X123075142Y-121254857D01*
X123046571Y-121340571D01*
X122703714Y-121683428D01*
X123075142Y-121683428D01*
X123303714Y-121140571D02*
X123332285Y-121112000D01*
X123389428Y-121083428D01*
X123532285Y-121083428D01*
X123589428Y-121112000D01*
X123618000Y-121140571D01*
X123646571Y-121197714D01*
X123646571Y-121254857D01*
X123618000Y-121340571D01*
X123275142Y-121683428D01*
X123646571Y-121683428D01*
X123903714Y-121283428D02*
X123903714Y-121883428D01*
X123903714Y-121312000D02*
X123960857Y-121283428D01*
X124075142Y-121283428D01*
X124132285Y-121312000D01*
X124160857Y-121340571D01*
X124189428Y-121397714D01*
X124189428Y-121569142D01*
X124160857Y-121626285D01*
X124132285Y-121654857D01*
X124075142Y-121683428D01*
X123960857Y-121683428D01*
X123903714Y-121654857D01*
X124646571Y-121369142D02*
X124446571Y-121369142D01*
X124446571Y-121683428D02*
X124446571Y-121083428D01*
X124732285Y-121083428D01*
M02*
