G04 #@! TF.GenerationSoftware,KiCad,Pcbnew,(5.1.0)-1*
G04 #@! TF.CreationDate,2021-08-07T01:09:51-05:00*
G04 #@! TF.ProjectId,nixie_legacy-demux,6e697869-655f-46c6-9567-6163792d6465,rev?*
G04 #@! TF.SameCoordinates,Original*
G04 #@! TF.FileFunction,Copper,L2,Bot*
G04 #@! TF.FilePolarity,Positive*
%FSLAX46Y46*%
G04 Gerber Fmt 4.6, Leading zero omitted, Abs format (unit mm)*
G04 Created by KiCad (PCBNEW (5.1.0)-1) date 2021-08-07 01:09:51*
%MOMM*%
%LPD*%
G04 APERTURE LIST*
%ADD10C,0.228600*%
%ADD11R,1.500000X1.500000*%
%ADD12C,1.500000*%
%ADD13O,1.600000X1.600000*%
%ADD14C,1.600000*%
%ADD15R,1.600000X1.600000*%
%ADD16O,2.400000X1.600000*%
%ADD17R,2.400000X1.600000*%
%ADD18O,1.700000X1.700000*%
%ADD19R,1.700000X1.700000*%
%ADD20O,1.524000X2.199640*%
%ADD21R,1.524000X2.199640*%
%ADD22C,0.800000*%
%ADD23C,0.254000*%
%ADD24C,0.635000*%
G04 APERTURE END LIST*
D10*
X128651000Y-61731071D02*
X128651000Y-60588071D01*
X127997857Y-61731071D01*
X127997857Y-60588071D01*
X127453571Y-61731071D02*
X127453571Y-60969071D01*
X127453571Y-60588071D02*
X127508000Y-60642500D01*
X127453571Y-60696928D01*
X127399142Y-60642500D01*
X127453571Y-60588071D01*
X127453571Y-60696928D01*
X127018142Y-61731071D02*
X126419428Y-60969071D01*
X127018142Y-60969071D02*
X126419428Y-61731071D01*
X125984000Y-61731071D02*
X125984000Y-60969071D01*
X125984000Y-60588071D02*
X126038428Y-60642500D01*
X125984000Y-60696928D01*
X125929571Y-60642500D01*
X125984000Y-60588071D01*
X125984000Y-60696928D01*
X125004285Y-61676642D02*
X125113142Y-61731071D01*
X125330857Y-61731071D01*
X125439714Y-61676642D01*
X125494142Y-61567785D01*
X125494142Y-61132357D01*
X125439714Y-61023500D01*
X125330857Y-60969071D01*
X125113142Y-60969071D01*
X125004285Y-61023500D01*
X124949857Y-61132357D01*
X124949857Y-61241214D01*
X125494142Y-61350071D01*
X123589142Y-61731071D02*
X123589142Y-60588071D01*
X123317000Y-60588071D01*
X123153714Y-60642500D01*
X123044857Y-60751357D01*
X122990428Y-60860214D01*
X122936000Y-61077928D01*
X122936000Y-61241214D01*
X122990428Y-61458928D01*
X123044857Y-61567785D01*
X123153714Y-61676642D01*
X123317000Y-61731071D01*
X123589142Y-61731071D01*
X122010714Y-61676642D02*
X122119571Y-61731071D01*
X122337285Y-61731071D01*
X122446142Y-61676642D01*
X122500571Y-61567785D01*
X122500571Y-61132357D01*
X122446142Y-61023500D01*
X122337285Y-60969071D01*
X122119571Y-60969071D01*
X122010714Y-61023500D01*
X121956285Y-61132357D01*
X121956285Y-61241214D01*
X122500571Y-61350071D01*
X121466428Y-61731071D02*
X121466428Y-60969071D01*
X121466428Y-61077928D02*
X121412000Y-61023500D01*
X121303142Y-60969071D01*
X121139857Y-60969071D01*
X121031000Y-61023500D01*
X120976571Y-61132357D01*
X120976571Y-61731071D01*
X120976571Y-61132357D02*
X120922142Y-61023500D01*
X120813285Y-60969071D01*
X120650000Y-60969071D01*
X120541142Y-61023500D01*
X120486714Y-61132357D01*
X120486714Y-61731071D01*
X119452571Y-60969071D02*
X119452571Y-61731071D01*
X119942428Y-60969071D02*
X119942428Y-61567785D01*
X119888000Y-61676642D01*
X119779142Y-61731071D01*
X119615857Y-61731071D01*
X119507000Y-61676642D01*
X119452571Y-61622214D01*
X119017142Y-61731071D02*
X118418428Y-60969071D01*
X119017142Y-60969071D02*
X118418428Y-61731071D01*
X117221000Y-60969071D02*
X116948857Y-61731071D01*
X116676714Y-60969071D01*
X115642571Y-61731071D02*
X116295714Y-61731071D01*
X115969142Y-61731071D02*
X115969142Y-60588071D01*
X116078000Y-60751357D01*
X116186857Y-60860214D01*
X116295714Y-60914642D01*
D11*
X121920000Y-86614000D03*
D12*
X127000000Y-86614000D03*
X124460000Y-86614000D03*
D11*
X114554000Y-86614000D03*
D12*
X119634000Y-86614000D03*
X117094000Y-86614000D03*
D11*
X107188000Y-86614000D03*
D12*
X112268000Y-86614000D03*
X109728000Y-86614000D03*
D13*
X127000000Y-71374000D03*
D14*
X119380000Y-71374000D03*
D13*
X127000000Y-74422000D03*
D14*
X119380000Y-74422000D03*
D13*
X110744000Y-68072000D03*
X113284000Y-68072000D03*
X115824000Y-68072000D03*
X118364000Y-68072000D03*
X120904000Y-68072000D03*
X123444000Y-68072000D03*
D15*
X125984000Y-68072000D03*
D11*
X112268000Y-81026000D03*
D12*
X107188000Y-81026000D03*
X109728000Y-81026000D03*
X123698000Y-111252000D03*
X123698000Y-116152000D03*
D16*
X136398000Y-122428000D03*
X128778000Y-145288000D03*
X136398000Y-124968000D03*
X128778000Y-142748000D03*
X136398000Y-127508000D03*
X128778000Y-140208000D03*
X136398000Y-130048000D03*
X128778000Y-137668000D03*
X136398000Y-132588000D03*
X128778000Y-135128000D03*
X136398000Y-135128000D03*
X128778000Y-132588000D03*
X136398000Y-137668000D03*
X128778000Y-130048000D03*
X136398000Y-140208000D03*
X128778000Y-127508000D03*
X136398000Y-142748000D03*
X128778000Y-124968000D03*
X136398000Y-145288000D03*
D17*
X128778000Y-122428000D03*
D16*
X110998000Y-134112000D03*
X118618000Y-101092000D03*
X110998000Y-131572000D03*
X118618000Y-103632000D03*
X110998000Y-129032000D03*
X118618000Y-106172000D03*
X110998000Y-126492000D03*
X118618000Y-108712000D03*
X110998000Y-123952000D03*
X118618000Y-111252000D03*
X110998000Y-121412000D03*
X118618000Y-113792000D03*
X110998000Y-118872000D03*
X118618000Y-116332000D03*
X110998000Y-116332000D03*
X118618000Y-118872000D03*
X110998000Y-113792000D03*
X118618000Y-121412000D03*
X110998000Y-111252000D03*
X118618000Y-123952000D03*
X110998000Y-108712000D03*
X118618000Y-126492000D03*
X110998000Y-106172000D03*
X118618000Y-129032000D03*
X110998000Y-103632000D03*
X118618000Y-131572000D03*
X110998000Y-101092000D03*
D17*
X118618000Y-134112000D03*
D13*
X109220000Y-140462000D03*
D14*
X116840000Y-140462000D03*
D13*
X109220000Y-137414000D03*
D14*
X116840000Y-137414000D03*
D13*
X107188000Y-96774000D03*
D14*
X114808000Y-96774000D03*
D13*
X118618000Y-90678000D03*
D14*
X126238000Y-90678000D03*
D13*
X107188000Y-93726000D03*
D14*
X114808000Y-93726000D03*
D13*
X118618000Y-93726000D03*
D14*
X126238000Y-93726000D03*
D13*
X107188000Y-90678000D03*
D14*
X114808000Y-90678000D03*
D13*
X118618000Y-96774000D03*
D14*
X126238000Y-96774000D03*
D13*
X107188000Y-71374000D03*
D14*
X114808000Y-71374000D03*
D13*
X127000000Y-77470000D03*
D14*
X119380000Y-77470000D03*
D13*
X107188000Y-74422000D03*
D14*
X114808000Y-74422000D03*
D13*
X107188000Y-77470000D03*
D14*
X114808000Y-77470000D03*
D13*
X122428000Y-134112000D03*
D14*
X122428000Y-126492000D03*
D11*
X119634000Y-81026000D03*
D12*
X114554000Y-81026000D03*
X117094000Y-81026000D03*
D11*
X127000000Y-81026000D03*
D12*
X121920000Y-81026000D03*
X124460000Y-81026000D03*
D18*
X127000000Y-151384000D03*
X124460000Y-151384000D03*
X121920000Y-151384000D03*
D19*
X119380000Y-151384000D03*
D18*
X132080000Y-67818000D03*
X134620000Y-67818000D03*
X132080000Y-70358000D03*
X134620000Y-70358000D03*
X132080000Y-72898000D03*
X134620000Y-72898000D03*
X132080000Y-75438000D03*
X134620000Y-75438000D03*
X132080000Y-77978000D03*
X134620000Y-77978000D03*
X132080000Y-80518000D03*
X134620000Y-80518000D03*
X132080000Y-83058000D03*
X134620000Y-83058000D03*
X132080000Y-85598000D03*
X134620000Y-85598000D03*
X132080000Y-88138000D03*
D19*
X134620000Y-88138000D03*
D16*
X128778000Y-118110000D03*
X136398000Y-100330000D03*
X128778000Y-115570000D03*
X136398000Y-102870000D03*
X128778000Y-113030000D03*
X136398000Y-105410000D03*
X128778000Y-110490000D03*
X136398000Y-107950000D03*
X128778000Y-107950000D03*
X136398000Y-110490000D03*
X128778000Y-105410000D03*
X136398000Y-113030000D03*
X128778000Y-102870000D03*
X136398000Y-115570000D03*
X128778000Y-100330000D03*
D17*
X136398000Y-118110000D03*
D20*
X107950000Y-151384000D03*
X110490000Y-151384000D03*
D21*
X113030000Y-151384000D03*
D14*
X122468000Y-106172000D03*
X124968000Y-106172000D03*
X122468000Y-121412000D03*
X124968000Y-121412000D03*
D22*
X122428000Y-143510000D03*
D23*
X120072000Y-113792000D02*
X118618000Y-113792000D01*
X121338000Y-113792000D02*
X120072000Y-113792000D01*
X123698000Y-116152000D02*
X121338000Y-113792000D01*
X123772000Y-116152000D02*
X123698000Y-116152000D01*
X124968000Y-121412000D02*
X124968000Y-117348000D01*
X124968000Y-117348000D02*
X123772000Y-116152000D01*
X123698000Y-111252000D02*
X118618000Y-111252000D01*
X124968000Y-106172000D02*
X124968000Y-109982000D01*
X124968000Y-109982000D02*
X123698000Y-111252000D01*
X132080000Y-118110000D02*
X128778000Y-118110000D01*
X133858000Y-116332000D02*
X132080000Y-118110000D01*
X133858000Y-97790000D02*
X133858000Y-116332000D01*
X134620000Y-88138000D02*
X134620000Y-97028000D01*
X134620000Y-97028000D02*
X133858000Y-97790000D01*
X136906000Y-80264000D02*
X134620000Y-77978000D01*
X136906000Y-97790000D02*
X136906000Y-80264000D01*
X136398000Y-100330000D02*
X136398000Y-98298000D01*
X136398000Y-98298000D02*
X136906000Y-97790000D01*
X136798000Y-102870000D02*
X136398000Y-102870000D01*
X138684000Y-104756000D02*
X136798000Y-102870000D01*
X138684000Y-132295832D02*
X138684000Y-104756000D01*
X136398000Y-135128000D02*
X136398000Y-134581832D01*
X136398000Y-134581832D02*
X138684000Y-132295832D01*
X136398000Y-132588000D02*
X136798000Y-132588000D01*
X138176000Y-131210000D02*
X138176000Y-106788000D01*
X138176000Y-106788000D02*
X136798000Y-105410000D01*
X136798000Y-132588000D02*
X138176000Y-131210000D01*
X136798000Y-105410000D02*
X136398000Y-105410000D01*
D24*
X110998000Y-116332000D02*
X110998000Y-113792000D01*
X111398000Y-116332000D02*
X110998000Y-116332000D01*
X113538000Y-118472000D02*
X111398000Y-116332000D01*
X113538000Y-120904000D02*
X113538000Y-118472000D01*
X116840000Y-137414000D02*
X116840000Y-124206000D01*
X116840000Y-124206000D02*
X113538000Y-120904000D01*
X116840000Y-137414000D02*
X116840000Y-140462000D01*
D23*
X132929999Y-87288001D02*
X132080000Y-88138000D01*
X133350000Y-86868000D02*
X132929999Y-87288001D01*
X133350000Y-85126038D02*
X133350000Y-86868000D01*
X134148038Y-84328000D02*
X133350000Y-85126038D01*
X135091962Y-84328000D02*
X134148038Y-84328000D01*
X136398000Y-115023832D02*
X134870990Y-113496822D01*
X134870990Y-113496822D02*
X134870990Y-98181076D01*
X136398000Y-115570000D02*
X136398000Y-115023832D01*
X134870990Y-98181076D02*
X136344010Y-96708057D01*
X136344010Y-96708057D02*
X136344010Y-85580048D01*
X136344010Y-85580048D02*
X135091962Y-84328000D01*
X135469999Y-86447999D02*
X134620000Y-85598000D01*
X135998000Y-118110000D02*
X134366000Y-116478000D01*
X136398000Y-118110000D02*
X135998000Y-118110000D01*
X134366000Y-116478000D02*
X134366000Y-98044000D01*
X134366000Y-98044000D02*
X135890000Y-96520000D01*
X135890000Y-96520000D02*
X135890000Y-86868000D01*
X135890000Y-86868000D02*
X135469999Y-86447999D01*
X110744000Y-73406000D02*
X110744000Y-68072000D01*
X114808000Y-77470000D02*
X110744000Y-73406000D01*
X115607999Y-76670001D02*
X114808000Y-77470000D01*
X116951001Y-75326999D02*
X115607999Y-76670001D01*
X116951001Y-67817037D02*
X116951001Y-75326999D01*
X118277049Y-66490989D02*
X116951001Y-67817037D01*
X130752989Y-66490989D02*
X118277049Y-66490989D01*
X132080000Y-67818000D02*
X130752989Y-66490989D01*
X113284000Y-72898000D02*
X114808000Y-74422000D01*
X113284000Y-68072000D02*
X113284000Y-72898000D01*
X114083999Y-67272001D02*
X113284000Y-68072000D01*
X115319021Y-66036979D02*
X114083999Y-67272001D01*
X132838979Y-66036979D02*
X115319021Y-66036979D01*
X134620000Y-67818000D02*
X132838979Y-66036979D01*
X114808000Y-69088000D02*
X115824000Y-68072000D01*
X114808000Y-71374000D02*
X114808000Y-69088000D01*
X117564001Y-68871999D02*
X118364000Y-68072000D01*
X117564001Y-75654001D02*
X117564001Y-68871999D01*
X119380000Y-77470000D02*
X117564001Y-75654001D01*
X133770001Y-69508001D02*
X134620000Y-70358000D01*
X119236038Y-68072000D02*
X120363039Y-66944999D01*
X118364000Y-68072000D02*
X119236038Y-68072000D01*
X120363039Y-66944999D02*
X129465037Y-66944999D01*
X129465037Y-66944999D02*
X131608038Y-69088000D01*
X131608038Y-69088000D02*
X133350000Y-69088000D01*
X133350000Y-69088000D02*
X133770001Y-69508001D01*
X120104001Y-68871999D02*
X120904000Y-68072000D01*
X118252999Y-70723001D02*
X120104001Y-68871999D01*
X118252999Y-73294999D02*
X118252999Y-70723001D01*
X119380000Y-74422000D02*
X118252999Y-73294999D01*
X120179999Y-73622001D02*
X119380000Y-74422000D01*
X123555001Y-70246999D02*
X120179999Y-73622001D01*
X128226918Y-70246999D02*
X123555001Y-70246999D01*
X130877919Y-72898000D02*
X128226918Y-70246999D01*
X132080000Y-72898000D02*
X130877919Y-72898000D01*
X122682000Y-68072000D02*
X123444000Y-68072000D01*
X119380000Y-71374000D02*
X122682000Y-68072000D01*
X133770001Y-72048001D02*
X134620000Y-72898000D01*
X133350000Y-71628000D02*
X133770001Y-72048001D01*
X131422040Y-71628000D02*
X133350000Y-71628000D01*
X129154059Y-69360019D02*
X131422040Y-71628000D01*
X123444000Y-68072000D02*
X124732019Y-69360019D01*
X124732019Y-69360019D02*
X129154059Y-69360019D01*
X111398000Y-131572000D02*
X110998000Y-131572000D01*
X112776000Y-132950000D02*
X111398000Y-131572000D01*
X109220000Y-140462000D02*
X112776000Y-136906000D01*
X112776000Y-136906000D02*
X112776000Y-132950000D01*
X110598000Y-134112000D02*
X110998000Y-134112000D01*
X109220000Y-135490000D02*
X110598000Y-134112000D01*
X109220000Y-137414000D02*
X109220000Y-135490000D01*
X111398000Y-121412000D02*
X110998000Y-121412000D01*
X115262011Y-125276011D02*
X111398000Y-121412000D01*
X115262011Y-140916011D02*
X115262011Y-125276011D01*
X124206000Y-149860000D02*
X115262011Y-140916011D01*
X127000000Y-151384000D02*
X125476000Y-149860000D01*
X125476000Y-149860000D02*
X124206000Y-149860000D01*
X114808000Y-127362000D02*
X111398000Y-123952000D01*
X114808000Y-141732000D02*
X114808000Y-127362000D01*
X111398000Y-123952000D02*
X110998000Y-123952000D01*
X124460000Y-151384000D02*
X114808000Y-141732000D01*
X111398000Y-126492000D02*
X110998000Y-126492000D01*
X114300000Y-129394000D02*
X111398000Y-126492000D01*
X121920000Y-151384000D02*
X114300000Y-143764000D01*
X114300000Y-143764000D02*
X114300000Y-129394000D01*
X119634000Y-86614000D02*
X116732020Y-83712020D01*
X116732020Y-83712020D02*
X107637991Y-83712020D01*
X107637991Y-83712020D02*
X105656989Y-81731018D01*
X105656989Y-81731018D02*
X105656989Y-75953011D01*
X106388001Y-75221999D02*
X107188000Y-74422000D01*
X105656989Y-75953011D02*
X106388001Y-75221999D01*
X116344001Y-87363999D02*
X117094000Y-86614000D01*
X113680999Y-90027001D02*
X116344001Y-87363999D01*
X114808000Y-93726000D02*
X113680999Y-92598999D01*
X113680999Y-92598999D02*
X113680999Y-90027001D01*
X127000000Y-86614000D02*
X123644010Y-83258010D01*
X123644010Y-83258010D02*
X107826048Y-83258010D01*
X107826048Y-83258010D02*
X106110999Y-81542961D01*
X106110999Y-81542961D02*
X106110999Y-78547001D01*
X106388001Y-78269999D02*
X107188000Y-77470000D01*
X106110999Y-78547001D02*
X106388001Y-78269999D01*
X123710001Y-87363999D02*
X124460000Y-86614000D01*
X122174000Y-88900000D02*
X123710001Y-87363999D01*
X114808000Y-90678000D02*
X116586000Y-88900000D01*
X116586000Y-88900000D02*
X122174000Y-88900000D01*
X112268000Y-86614000D02*
X109820030Y-84166030D01*
X109820030Y-84166030D02*
X107449934Y-84166030D01*
X107449934Y-84166030D02*
X105202979Y-81919075D01*
X105202979Y-81919075D02*
X105202979Y-73359021D01*
X106388001Y-72173999D02*
X107188000Y-71374000D01*
X105202979Y-73359021D02*
X106388001Y-72173999D01*
X109728000Y-91694000D02*
X109728000Y-86614000D01*
X114808000Y-96774000D02*
X109728000Y-91694000D01*
X125476000Y-77470000D02*
X121920000Y-81026000D01*
X127000000Y-77470000D02*
X125476000Y-77470000D01*
X128985021Y-94026979D02*
X126238000Y-96774000D01*
X124460000Y-81026000D02*
X128985021Y-85551021D01*
X128985021Y-85551021D02*
X128985021Y-94026979D01*
X109220000Y-78994000D02*
X107188000Y-81026000D01*
X120396000Y-78994000D02*
X109220000Y-78994000D01*
X127000000Y-71374000D02*
X127000000Y-72390000D01*
X127000000Y-72390000D02*
X120396000Y-78994000D01*
X128077001Y-88838999D02*
X126238000Y-90678000D01*
X128077001Y-86097039D02*
X128077001Y-88838999D01*
X124783962Y-82804000D02*
X128077001Y-86097039D01*
X109728000Y-81026000D02*
X111506000Y-82804000D01*
X111506000Y-82804000D02*
X124783962Y-82804000D01*
X121920000Y-79502000D02*
X116078000Y-79502000D01*
X127000000Y-74422000D02*
X121920000Y-79502000D01*
X116078000Y-79502000D02*
X115303999Y-80276001D01*
X115303999Y-80276001D02*
X114554000Y-81026000D01*
X127037999Y-92926001D02*
X126238000Y-93726000D01*
X128531011Y-91432989D02*
X127037999Y-92926001D01*
X128531011Y-85859011D02*
X128531011Y-91432989D01*
X124775001Y-82103001D02*
X128531011Y-85859011D01*
X117094000Y-81026000D02*
X118171001Y-82103001D01*
X118171001Y-82103001D02*
X124775001Y-82103001D01*
X118618000Y-134112000D02*
X122428000Y-134112000D01*
X118218000Y-106172000D02*
X118618000Y-106172000D01*
X117090990Y-105044990D02*
X118218000Y-106172000D01*
X117090990Y-98301010D02*
X117090990Y-105044990D01*
X118618000Y-96774000D02*
X117090990Y-98301010D01*
X108458000Y-91948000D02*
X107188000Y-90678000D01*
X108458000Y-95250000D02*
X108458000Y-91948000D01*
X113284000Y-100076000D02*
X108458000Y-95250000D01*
X113284000Y-104286000D02*
X113284000Y-100076000D01*
X110998000Y-106172000D02*
X111398000Y-106172000D01*
X111398000Y-106172000D02*
X113284000Y-104286000D01*
X118218000Y-108712000D02*
X118618000Y-108712000D01*
X116636980Y-107130980D02*
X118218000Y-108712000D01*
X116636980Y-95707020D02*
X116636980Y-107130980D01*
X118618000Y-93726000D02*
X116636980Y-95707020D01*
X107188000Y-94742000D02*
X107188000Y-93726000D01*
X112776000Y-100330000D02*
X107188000Y-94742000D01*
X112776000Y-102254000D02*
X112776000Y-100330000D01*
X110998000Y-103632000D02*
X111398000Y-103632000D01*
X111398000Y-103632000D02*
X112776000Y-102254000D01*
X118218000Y-123952000D02*
X118618000Y-123952000D01*
X116182970Y-121916970D02*
X118218000Y-123952000D01*
X116182970Y-93113030D02*
X116182970Y-121916970D01*
X118618000Y-90678000D02*
X116182970Y-93113030D01*
X107188000Y-97682000D02*
X107188000Y-96774000D01*
X110598000Y-101092000D02*
X107188000Y-97682000D01*
X110998000Y-101092000D02*
X110598000Y-101092000D01*
X120072000Y-101092000D02*
X118618000Y-101092000D01*
X122428000Y-101092000D02*
X120072000Y-101092000D01*
X126746000Y-105410000D02*
X122428000Y-101092000D01*
X126746000Y-125876000D02*
X126746000Y-105410000D01*
X128778000Y-127508000D02*
X128378000Y-127508000D01*
X128378000Y-127508000D02*
X126746000Y-125876000D01*
X120072000Y-103632000D02*
X118618000Y-103632000D01*
X124206000Y-103632000D02*
X120072000Y-103632000D01*
X126238000Y-105664000D02*
X124206000Y-103632000D01*
X126238000Y-127908000D02*
X126238000Y-105664000D01*
X128778000Y-130048000D02*
X128378000Y-130048000D01*
X128378000Y-130048000D02*
X126238000Y-127908000D01*
X119018000Y-121412000D02*
X118618000Y-121412000D01*
X120145010Y-122539010D02*
X119018000Y-121412000D01*
X120145010Y-126241010D02*
X120145010Y-122539010D01*
X128778000Y-132588000D02*
X126492000Y-132588000D01*
X126492000Y-132588000D02*
X120145010Y-126241010D01*
X127000000Y-135128000D02*
X128778000Y-135128000D01*
X118618000Y-131572000D02*
X123444000Y-131572000D01*
X123444000Y-131572000D02*
X127000000Y-135128000D01*
G36*
X106884654Y-84678381D02*
G01*
X106908512Y-84707452D01*
X107024542Y-84802675D01*
X107156919Y-84873432D01*
X107300556Y-84917004D01*
X107412508Y-84928030D01*
X107412510Y-84928030D01*
X107449933Y-84931716D01*
X107487356Y-84928030D01*
X109504400Y-84928030D01*
X109805370Y-85229000D01*
X109591589Y-85229000D01*
X109324011Y-85282225D01*
X109071957Y-85386629D01*
X108845114Y-85538201D01*
X108652201Y-85731114D01*
X108574445Y-85847483D01*
X108563812Y-85739518D01*
X108527502Y-85619820D01*
X108468537Y-85509506D01*
X108389185Y-85412815D01*
X108292494Y-85333463D01*
X108182180Y-85274498D01*
X108062482Y-85238188D01*
X107938000Y-85225928D01*
X107473750Y-85229000D01*
X107315000Y-85387750D01*
X107315000Y-86487000D01*
X107335000Y-86487000D01*
X107335000Y-86741000D01*
X107315000Y-86741000D01*
X107315000Y-87840250D01*
X107473750Y-87999000D01*
X107938000Y-88002072D01*
X108062482Y-87989812D01*
X108182180Y-87953502D01*
X108292494Y-87894537D01*
X108389185Y-87815185D01*
X108468537Y-87718494D01*
X108527502Y-87608180D01*
X108563812Y-87488482D01*
X108574445Y-87380517D01*
X108652201Y-87496886D01*
X108845114Y-87689799D01*
X108966001Y-87770573D01*
X108966000Y-91378369D01*
X108589366Y-91001736D01*
X108602236Y-90959309D01*
X108629943Y-90678000D01*
X108602236Y-90396691D01*
X108520182Y-90126192D01*
X108386932Y-89876899D01*
X108207608Y-89658392D01*
X107989101Y-89479068D01*
X107739808Y-89345818D01*
X107469309Y-89263764D01*
X107258492Y-89243000D01*
X107117508Y-89243000D01*
X106906691Y-89263764D01*
X106636192Y-89345818D01*
X106386899Y-89479068D01*
X106168392Y-89658392D01*
X105989068Y-89876899D01*
X105855818Y-90126192D01*
X105773764Y-90396691D01*
X105746057Y-90678000D01*
X105773764Y-90959309D01*
X105855818Y-91229808D01*
X105989068Y-91479101D01*
X106168392Y-91697608D01*
X106386899Y-91876932D01*
X106636192Y-92010182D01*
X106906691Y-92092236D01*
X107117508Y-92113000D01*
X107258492Y-92113000D01*
X107469309Y-92092236D01*
X107511736Y-92079366D01*
X107696001Y-92263632D01*
X107696001Y-92380529D01*
X107469309Y-92311764D01*
X107258492Y-92291000D01*
X107117508Y-92291000D01*
X106906691Y-92311764D01*
X106636192Y-92393818D01*
X106386899Y-92527068D01*
X106168392Y-92706392D01*
X105989068Y-92924899D01*
X105855818Y-93174192D01*
X105773764Y-93444691D01*
X105746057Y-93726000D01*
X105773764Y-94007309D01*
X105855818Y-94277808D01*
X105989068Y-94527101D01*
X106168392Y-94745608D01*
X106386899Y-94924932D01*
X106458875Y-94963404D01*
X106480598Y-95035014D01*
X106480599Y-95035015D01*
X106551355Y-95167392D01*
X106573741Y-95194669D01*
X106646578Y-95283422D01*
X106675654Y-95307284D01*
X106769692Y-95401322D01*
X106636192Y-95441818D01*
X106386899Y-95575068D01*
X106168392Y-95754392D01*
X105989068Y-95972899D01*
X105855818Y-96222192D01*
X105773764Y-96492691D01*
X105746057Y-96774000D01*
X105773764Y-97055309D01*
X105855818Y-97325808D01*
X105989068Y-97575101D01*
X106168392Y-97793608D01*
X106386899Y-97972932D01*
X106516517Y-98042215D01*
X106551355Y-98107392D01*
X106585192Y-98148622D01*
X106646578Y-98223422D01*
X106675654Y-98247284D01*
X109196634Y-100768265D01*
X109183764Y-100810691D01*
X109156057Y-101092000D01*
X109183764Y-101373309D01*
X109265818Y-101643808D01*
X109399068Y-101893101D01*
X109578392Y-102111608D01*
X109796899Y-102290932D01*
X109929858Y-102362000D01*
X109796899Y-102433068D01*
X109578392Y-102612392D01*
X109399068Y-102830899D01*
X109265818Y-103080192D01*
X109183764Y-103350691D01*
X109156057Y-103632000D01*
X109183764Y-103913309D01*
X109265818Y-104183808D01*
X109399068Y-104433101D01*
X109578392Y-104651608D01*
X109796899Y-104830932D01*
X109929858Y-104902000D01*
X109796899Y-104973068D01*
X109578392Y-105152392D01*
X109399068Y-105370899D01*
X109265818Y-105620192D01*
X109183764Y-105890691D01*
X109156057Y-106172000D01*
X109183764Y-106453309D01*
X109265818Y-106723808D01*
X109399068Y-106973101D01*
X109578392Y-107191608D01*
X109796899Y-107370932D01*
X109929858Y-107442000D01*
X109796899Y-107513068D01*
X109578392Y-107692392D01*
X109399068Y-107910899D01*
X109265818Y-108160192D01*
X109183764Y-108430691D01*
X109156057Y-108712000D01*
X109183764Y-108993309D01*
X109265818Y-109263808D01*
X109399068Y-109513101D01*
X109578392Y-109731608D01*
X109796899Y-109910932D01*
X109929858Y-109982000D01*
X109796899Y-110053068D01*
X109578392Y-110232392D01*
X109399068Y-110450899D01*
X109265818Y-110700192D01*
X109183764Y-110970691D01*
X109156057Y-111252000D01*
X109183764Y-111533309D01*
X109265818Y-111803808D01*
X109399068Y-112053101D01*
X109578392Y-112271608D01*
X109796899Y-112450932D01*
X109929858Y-112522000D01*
X109796899Y-112593068D01*
X109578392Y-112772392D01*
X109399068Y-112990899D01*
X109265818Y-113240192D01*
X109183764Y-113510691D01*
X109156057Y-113792000D01*
X109183764Y-114073309D01*
X109265818Y-114343808D01*
X109399068Y-114593101D01*
X109578392Y-114811608D01*
X109796899Y-114990932D01*
X109929858Y-115062000D01*
X109796899Y-115133068D01*
X109578392Y-115312392D01*
X109399068Y-115530899D01*
X109265818Y-115780192D01*
X109183764Y-116050691D01*
X109156057Y-116332000D01*
X109183764Y-116613309D01*
X109265818Y-116883808D01*
X109399068Y-117133101D01*
X109578392Y-117351608D01*
X109796899Y-117530932D01*
X109924741Y-117599265D01*
X109695161Y-117749399D01*
X109493500Y-117947105D01*
X109334285Y-118180354D01*
X109223633Y-118440182D01*
X109206096Y-118522961D01*
X109328085Y-118745000D01*
X110871000Y-118745000D01*
X110871000Y-118725000D01*
X111125000Y-118725000D01*
X111125000Y-118745000D01*
X111145000Y-118745000D01*
X111145000Y-118999000D01*
X111125000Y-118999000D01*
X111125000Y-119019000D01*
X110871000Y-119019000D01*
X110871000Y-118999000D01*
X109328085Y-118999000D01*
X109206096Y-119221039D01*
X109223633Y-119303818D01*
X109334285Y-119563646D01*
X109493500Y-119796895D01*
X109695161Y-119994601D01*
X109924741Y-120144735D01*
X109796899Y-120213068D01*
X109578392Y-120392392D01*
X109399068Y-120610899D01*
X109265818Y-120860192D01*
X109183764Y-121130691D01*
X109156057Y-121412000D01*
X109183764Y-121693309D01*
X109265818Y-121963808D01*
X109399068Y-122213101D01*
X109578392Y-122431608D01*
X109796899Y-122610932D01*
X109929858Y-122682000D01*
X109796899Y-122753068D01*
X109578392Y-122932392D01*
X109399068Y-123150899D01*
X109265818Y-123400192D01*
X109183764Y-123670691D01*
X109156057Y-123952000D01*
X109183764Y-124233309D01*
X109265818Y-124503808D01*
X109399068Y-124753101D01*
X109578392Y-124971608D01*
X109796899Y-125150932D01*
X109929858Y-125222000D01*
X109796899Y-125293068D01*
X109578392Y-125472392D01*
X109399068Y-125690899D01*
X109265818Y-125940192D01*
X109183764Y-126210691D01*
X109156057Y-126492000D01*
X109183764Y-126773309D01*
X109265818Y-127043808D01*
X109399068Y-127293101D01*
X109578392Y-127511608D01*
X109796899Y-127690932D01*
X109929858Y-127762000D01*
X109796899Y-127833068D01*
X109578392Y-128012392D01*
X109399068Y-128230899D01*
X109265818Y-128480192D01*
X109183764Y-128750691D01*
X109156057Y-129032000D01*
X109183764Y-129313309D01*
X109265818Y-129583808D01*
X109399068Y-129833101D01*
X109578392Y-130051608D01*
X109796899Y-130230932D01*
X109929858Y-130302000D01*
X109796899Y-130373068D01*
X109578392Y-130552392D01*
X109399068Y-130770899D01*
X109265818Y-131020192D01*
X109183764Y-131290691D01*
X109156057Y-131572000D01*
X109183764Y-131853309D01*
X109265818Y-132123808D01*
X109399068Y-132373101D01*
X109578392Y-132591608D01*
X109796899Y-132770932D01*
X109929858Y-132842000D01*
X109796899Y-132913068D01*
X109578392Y-133092392D01*
X109399068Y-133310899D01*
X109265818Y-133560192D01*
X109183764Y-133830691D01*
X109156057Y-134112000D01*
X109183764Y-134393309D01*
X109196634Y-134435736D01*
X108707649Y-134924721D01*
X108678579Y-134948578D01*
X108654722Y-134977648D01*
X108654721Y-134977649D01*
X108583355Y-135064608D01*
X108512599Y-135196985D01*
X108469027Y-135340622D01*
X108454314Y-135490000D01*
X108458001Y-135527433D01*
X108458001Y-136194168D01*
X108418899Y-136215068D01*
X108200392Y-136394392D01*
X108021068Y-136612899D01*
X107887818Y-136862192D01*
X107805764Y-137132691D01*
X107778057Y-137414000D01*
X107805764Y-137695309D01*
X107887818Y-137965808D01*
X108021068Y-138215101D01*
X108200392Y-138433608D01*
X108418899Y-138612932D01*
X108668192Y-138746182D01*
X108938691Y-138828236D01*
X109149508Y-138849000D01*
X109290492Y-138849000D01*
X109501309Y-138828236D01*
X109771808Y-138746182D01*
X109957376Y-138646994D01*
X109543736Y-139060634D01*
X109501309Y-139047764D01*
X109290492Y-139027000D01*
X109149508Y-139027000D01*
X108938691Y-139047764D01*
X108668192Y-139129818D01*
X108418899Y-139263068D01*
X108200392Y-139442392D01*
X108021068Y-139660899D01*
X107887818Y-139910192D01*
X107805764Y-140180691D01*
X107778057Y-140462000D01*
X107805764Y-140743309D01*
X107887818Y-141013808D01*
X108021068Y-141263101D01*
X108200392Y-141481608D01*
X108418899Y-141660932D01*
X108668192Y-141794182D01*
X108938691Y-141876236D01*
X109149508Y-141897000D01*
X109290492Y-141897000D01*
X109501309Y-141876236D01*
X109771808Y-141794182D01*
X110021101Y-141660932D01*
X110239608Y-141481608D01*
X110418932Y-141263101D01*
X110552182Y-141013808D01*
X110634236Y-140743309D01*
X110661943Y-140462000D01*
X110634236Y-140180691D01*
X110621366Y-140138264D01*
X113288353Y-137471278D01*
X113317422Y-137447422D01*
X113412645Y-137331392D01*
X113483402Y-137199015D01*
X113526974Y-137055378D01*
X113538000Y-136943426D01*
X113538000Y-143726577D01*
X113534314Y-143764000D01*
X113538000Y-143801423D01*
X113538000Y-143801425D01*
X113549026Y-143913377D01*
X113592598Y-144057014D01*
X113592599Y-144057015D01*
X113663355Y-144189392D01*
X113702983Y-144237678D01*
X113758578Y-144305422D01*
X113787654Y-144329284D01*
X119357370Y-149899000D01*
X119252998Y-149899000D01*
X119252998Y-150057748D01*
X119094250Y-149899000D01*
X118530000Y-149895928D01*
X118405518Y-149908188D01*
X118285820Y-149944498D01*
X118175506Y-150003463D01*
X118078815Y-150082815D01*
X117999463Y-150179506D01*
X117940498Y-150289820D01*
X117904188Y-150409518D01*
X117891928Y-150534000D01*
X117895000Y-151098250D01*
X118053750Y-151257000D01*
X119253000Y-151257000D01*
X119253000Y-151237000D01*
X119507000Y-151237000D01*
X119507000Y-151257000D01*
X119527000Y-151257000D01*
X119527000Y-151511000D01*
X119507000Y-151511000D01*
X119507000Y-152710250D01*
X119665750Y-152869000D01*
X120230000Y-152872072D01*
X120354482Y-152859812D01*
X120474180Y-152823502D01*
X120584494Y-152764537D01*
X120681185Y-152685185D01*
X120760537Y-152588494D01*
X120819502Y-152478180D01*
X120840393Y-152409313D01*
X120864866Y-152439134D01*
X121090986Y-152624706D01*
X121348966Y-152762599D01*
X121628889Y-152847513D01*
X121847050Y-152869000D01*
X121992950Y-152869000D01*
X122211111Y-152847513D01*
X122491034Y-152762599D01*
X122749014Y-152624706D01*
X122975134Y-152439134D01*
X123160706Y-152213014D01*
X123190000Y-152158209D01*
X123219294Y-152213014D01*
X123404866Y-152439134D01*
X123630986Y-152624706D01*
X123888966Y-152762599D01*
X124168889Y-152847513D01*
X124387050Y-152869000D01*
X124532950Y-152869000D01*
X124751111Y-152847513D01*
X125031034Y-152762599D01*
X125289014Y-152624706D01*
X125515134Y-152439134D01*
X125700706Y-152213014D01*
X125730000Y-152158209D01*
X125759294Y-152213014D01*
X125944866Y-152439134D01*
X126170986Y-152624706D01*
X126428966Y-152762599D01*
X126708889Y-152847513D01*
X126927050Y-152869000D01*
X127072950Y-152869000D01*
X127291111Y-152847513D01*
X127571034Y-152762599D01*
X127829014Y-152624706D01*
X128055134Y-152439134D01*
X128240706Y-152213014D01*
X128378599Y-151955034D01*
X128463513Y-151675111D01*
X128488980Y-151416532D01*
X131274227Y-151416532D01*
X131324916Y-151868434D01*
X131462415Y-152301885D01*
X131681486Y-152700373D01*
X131973784Y-153048721D01*
X132328178Y-153333661D01*
X132731167Y-153544338D01*
X133167402Y-153672729D01*
X133620266Y-153713943D01*
X134072512Y-153666410D01*
X134506911Y-153531941D01*
X134906919Y-153315658D01*
X135257300Y-153025798D01*
X135544706Y-152673402D01*
X135758192Y-152271894D01*
X135889626Y-151836566D01*
X135934000Y-151384000D01*
X135933092Y-151318943D01*
X135876098Y-150867792D01*
X135732561Y-150436304D01*
X135507948Y-150040913D01*
X135210814Y-149696680D01*
X134852476Y-149416716D01*
X134446585Y-149211686D01*
X134008600Y-149089398D01*
X133555204Y-149054511D01*
X133103667Y-149108354D01*
X132671187Y-149248875D01*
X132274237Y-149470722D01*
X131927938Y-149765446D01*
X131645480Y-150121820D01*
X131437621Y-150526270D01*
X131312278Y-150963390D01*
X131274227Y-151416532D01*
X128488980Y-151416532D01*
X128492185Y-151384000D01*
X128463513Y-151092889D01*
X128378599Y-150812966D01*
X128240706Y-150554986D01*
X128055134Y-150328866D01*
X127829014Y-150143294D01*
X127571034Y-150005401D01*
X127291111Y-149920487D01*
X127072950Y-149899000D01*
X126927050Y-149899000D01*
X126708889Y-149920487D01*
X126636175Y-149942545D01*
X126041284Y-149347654D01*
X126017422Y-149318578D01*
X125901392Y-149223355D01*
X125769015Y-149152598D01*
X125625378Y-149109026D01*
X125513426Y-149098000D01*
X125513423Y-149098000D01*
X125476000Y-149094314D01*
X125438577Y-149098000D01*
X124521630Y-149098000D01*
X121060669Y-145637039D01*
X126986096Y-145637039D01*
X127003633Y-145719818D01*
X127114285Y-145979646D01*
X127273500Y-146212895D01*
X127475161Y-146410601D01*
X127711517Y-146565166D01*
X127973486Y-146670650D01*
X128251000Y-146723000D01*
X128651000Y-146723000D01*
X128651000Y-145415000D01*
X128905000Y-145415000D01*
X128905000Y-146723000D01*
X129305000Y-146723000D01*
X129582514Y-146670650D01*
X129844483Y-146565166D01*
X130080839Y-146410601D01*
X130282500Y-146212895D01*
X130441715Y-145979646D01*
X130552367Y-145719818D01*
X130569904Y-145637039D01*
X130447915Y-145415000D01*
X128905000Y-145415000D01*
X128651000Y-145415000D01*
X127108085Y-145415000D01*
X126986096Y-145637039D01*
X121060669Y-145637039D01*
X117263459Y-141839829D01*
X117519727Y-141733680D01*
X117754759Y-141576637D01*
X117954637Y-141376759D01*
X118111680Y-141141727D01*
X118219853Y-140880574D01*
X118275000Y-140603335D01*
X118275000Y-140320665D01*
X118219853Y-140043426D01*
X118111680Y-139782273D01*
X117954637Y-139547241D01*
X117792500Y-139385104D01*
X117792500Y-138490896D01*
X117954637Y-138328759D01*
X118111680Y-138093727D01*
X118219853Y-137832574D01*
X118275000Y-137555335D01*
X118275000Y-137272665D01*
X118219853Y-136995426D01*
X118111680Y-136734273D01*
X117954637Y-136499241D01*
X117792500Y-136337104D01*
X117792500Y-135550072D01*
X119818000Y-135550072D01*
X119942482Y-135537812D01*
X120062180Y-135501502D01*
X120172494Y-135442537D01*
X120269185Y-135363185D01*
X120348537Y-135266494D01*
X120407502Y-135156180D01*
X120443812Y-135036482D01*
X120456072Y-134912000D01*
X120456072Y-134874000D01*
X121208168Y-134874000D01*
X121229068Y-134913101D01*
X121408392Y-135131608D01*
X121626899Y-135310932D01*
X121876192Y-135444182D01*
X122146691Y-135526236D01*
X122357508Y-135547000D01*
X122498492Y-135547000D01*
X122709309Y-135526236D01*
X122979808Y-135444182D01*
X123229101Y-135310932D01*
X123447608Y-135131608D01*
X123626932Y-134913101D01*
X123760182Y-134663808D01*
X123842236Y-134393309D01*
X123869943Y-134112000D01*
X123842236Y-133830691D01*
X123760182Y-133560192D01*
X123626932Y-133310899D01*
X123447608Y-133092392D01*
X123229101Y-132913068D01*
X122979808Y-132779818D01*
X122709309Y-132697764D01*
X122498492Y-132677000D01*
X122357508Y-132677000D01*
X122146691Y-132697764D01*
X121876192Y-132779818D01*
X121626899Y-132913068D01*
X121408392Y-133092392D01*
X121229068Y-133310899D01*
X121208168Y-133350000D01*
X120456072Y-133350000D01*
X120456072Y-133312000D01*
X120443812Y-133187518D01*
X120407502Y-133067820D01*
X120348537Y-132957506D01*
X120269185Y-132860815D01*
X120172494Y-132781463D01*
X120062180Y-132722498D01*
X119942482Y-132686188D01*
X119924518Y-132684419D01*
X120037608Y-132591608D01*
X120216932Y-132373101D01*
X120237832Y-132334000D01*
X123128370Y-132334000D01*
X126434721Y-135640352D01*
X126458578Y-135669422D01*
X126574608Y-135764645D01*
X126706985Y-135835402D01*
X126850622Y-135878974D01*
X126962574Y-135890000D01*
X126962576Y-135890000D01*
X126999999Y-135893686D01*
X127037422Y-135890000D01*
X127158168Y-135890000D01*
X127179068Y-135929101D01*
X127358392Y-136147608D01*
X127576899Y-136326932D01*
X127709858Y-136398000D01*
X127576899Y-136469068D01*
X127358392Y-136648392D01*
X127179068Y-136866899D01*
X127045818Y-137116192D01*
X126963764Y-137386691D01*
X126936057Y-137668000D01*
X126963764Y-137949309D01*
X127045818Y-138219808D01*
X127179068Y-138469101D01*
X127358392Y-138687608D01*
X127576899Y-138866932D01*
X127709858Y-138938000D01*
X127576899Y-139009068D01*
X127358392Y-139188392D01*
X127179068Y-139406899D01*
X127045818Y-139656192D01*
X126963764Y-139926691D01*
X126936057Y-140208000D01*
X126963764Y-140489309D01*
X127045818Y-140759808D01*
X127179068Y-141009101D01*
X127358392Y-141227608D01*
X127576899Y-141406932D01*
X127709858Y-141478000D01*
X127576899Y-141549068D01*
X127358392Y-141728392D01*
X127179068Y-141946899D01*
X127045818Y-142196192D01*
X126963764Y-142466691D01*
X126936057Y-142748000D01*
X126963764Y-143029309D01*
X127045818Y-143299808D01*
X127179068Y-143549101D01*
X127358392Y-143767608D01*
X127576899Y-143946932D01*
X127704741Y-144015265D01*
X127475161Y-144165399D01*
X127273500Y-144363105D01*
X127114285Y-144596354D01*
X127003633Y-144856182D01*
X126986096Y-144938961D01*
X127108085Y-145161000D01*
X128651000Y-145161000D01*
X128651000Y-145141000D01*
X128905000Y-145141000D01*
X128905000Y-145161000D01*
X130447915Y-145161000D01*
X130569904Y-144938961D01*
X130552367Y-144856182D01*
X130441715Y-144596354D01*
X130282500Y-144363105D01*
X130080839Y-144165399D01*
X129851259Y-144015265D01*
X129979101Y-143946932D01*
X130197608Y-143767608D01*
X130376932Y-143549101D01*
X130510182Y-143299808D01*
X130592236Y-143029309D01*
X130619943Y-142748000D01*
X130592236Y-142466691D01*
X130510182Y-142196192D01*
X130376932Y-141946899D01*
X130197608Y-141728392D01*
X129979101Y-141549068D01*
X129846142Y-141478000D01*
X129979101Y-141406932D01*
X130197608Y-141227608D01*
X130376932Y-141009101D01*
X130510182Y-140759808D01*
X130592236Y-140489309D01*
X130619943Y-140208000D01*
X130592236Y-139926691D01*
X130510182Y-139656192D01*
X130376932Y-139406899D01*
X130197608Y-139188392D01*
X129979101Y-139009068D01*
X129846142Y-138938000D01*
X129979101Y-138866932D01*
X130197608Y-138687608D01*
X130376932Y-138469101D01*
X130510182Y-138219808D01*
X130592236Y-137949309D01*
X130619943Y-137668000D01*
X130592236Y-137386691D01*
X130510182Y-137116192D01*
X130376932Y-136866899D01*
X130197608Y-136648392D01*
X129979101Y-136469068D01*
X129846142Y-136398000D01*
X129979101Y-136326932D01*
X130197608Y-136147608D01*
X130376932Y-135929101D01*
X130510182Y-135679808D01*
X130592236Y-135409309D01*
X130619943Y-135128000D01*
X130592236Y-134846691D01*
X130510182Y-134576192D01*
X130376932Y-134326899D01*
X130197608Y-134108392D01*
X129979101Y-133929068D01*
X129846142Y-133858000D01*
X129979101Y-133786932D01*
X130197608Y-133607608D01*
X130376932Y-133389101D01*
X130510182Y-133139808D01*
X130592236Y-132869309D01*
X130619943Y-132588000D01*
X130592236Y-132306691D01*
X130510182Y-132036192D01*
X130376932Y-131786899D01*
X130197608Y-131568392D01*
X129979101Y-131389068D01*
X129846142Y-131318000D01*
X129979101Y-131246932D01*
X130197608Y-131067608D01*
X130376932Y-130849101D01*
X130510182Y-130599808D01*
X130592236Y-130329309D01*
X130619943Y-130048000D01*
X130592236Y-129766691D01*
X130510182Y-129496192D01*
X130376932Y-129246899D01*
X130197608Y-129028392D01*
X129979101Y-128849068D01*
X129846142Y-128778000D01*
X129979101Y-128706932D01*
X130197608Y-128527608D01*
X130376932Y-128309101D01*
X130510182Y-128059808D01*
X130592236Y-127789309D01*
X130619943Y-127508000D01*
X130592236Y-127226691D01*
X130510182Y-126956192D01*
X130376932Y-126706899D01*
X130197608Y-126488392D01*
X129979101Y-126309068D01*
X129846142Y-126238000D01*
X129979101Y-126166932D01*
X130197608Y-125987608D01*
X130376932Y-125769101D01*
X130510182Y-125519808D01*
X130592236Y-125249309D01*
X130619943Y-124968000D01*
X130592236Y-124686691D01*
X130510182Y-124416192D01*
X130376932Y-124166899D01*
X130197608Y-123948392D01*
X130084518Y-123855581D01*
X130102482Y-123853812D01*
X130222180Y-123817502D01*
X130332494Y-123758537D01*
X130429185Y-123679185D01*
X130508537Y-123582494D01*
X130567502Y-123472180D01*
X130603812Y-123352482D01*
X130616072Y-123228000D01*
X130613000Y-122713750D01*
X130454250Y-122555000D01*
X128905000Y-122555000D01*
X128905000Y-122575000D01*
X128651000Y-122575000D01*
X128651000Y-122555000D01*
X128631000Y-122555000D01*
X128631000Y-122301000D01*
X128651000Y-122301000D01*
X128651000Y-121151750D01*
X128905000Y-121151750D01*
X128905000Y-122301000D01*
X130454250Y-122301000D01*
X130613000Y-122142250D01*
X130616072Y-121628000D01*
X130603812Y-121503518D01*
X130567502Y-121383820D01*
X130508537Y-121273506D01*
X130429185Y-121176815D01*
X130332494Y-121097463D01*
X130222180Y-121038498D01*
X130102482Y-121002188D01*
X129978000Y-120989928D01*
X129063750Y-120993000D01*
X128905000Y-121151750D01*
X128651000Y-121151750D01*
X128492250Y-120993000D01*
X127578000Y-120989928D01*
X127508000Y-120996822D01*
X127508000Y-119252388D01*
X127576899Y-119308932D01*
X127826192Y-119442182D01*
X128096691Y-119524236D01*
X128307508Y-119545000D01*
X129248492Y-119545000D01*
X129459309Y-119524236D01*
X129729808Y-119442182D01*
X129979101Y-119308932D01*
X130197608Y-119129608D01*
X130376932Y-118911101D01*
X130397832Y-118872000D01*
X132042577Y-118872000D01*
X132080000Y-118875686D01*
X132117423Y-118872000D01*
X132117426Y-118872000D01*
X132229378Y-118860974D01*
X132373015Y-118817402D01*
X132505392Y-118746645D01*
X132621422Y-118651422D01*
X132645284Y-118622346D01*
X134039000Y-117228630D01*
X134559928Y-117749558D01*
X134559928Y-118910000D01*
X134572188Y-119034482D01*
X134608498Y-119154180D01*
X134667463Y-119264494D01*
X134746815Y-119361185D01*
X134843506Y-119440537D01*
X134953820Y-119499502D01*
X135073518Y-119535812D01*
X135198000Y-119548072D01*
X137414000Y-119548072D01*
X137414000Y-121130130D01*
X137349808Y-121095818D01*
X137079309Y-121013764D01*
X136868492Y-120993000D01*
X135927508Y-120993000D01*
X135716691Y-121013764D01*
X135446192Y-121095818D01*
X135196899Y-121229068D01*
X134978392Y-121408392D01*
X134799068Y-121626899D01*
X134665818Y-121876192D01*
X134583764Y-122146691D01*
X134556057Y-122428000D01*
X134583764Y-122709309D01*
X134665818Y-122979808D01*
X134799068Y-123229101D01*
X134978392Y-123447608D01*
X135196899Y-123626932D01*
X135324741Y-123695265D01*
X135095161Y-123845399D01*
X134893500Y-124043105D01*
X134734285Y-124276354D01*
X134623633Y-124536182D01*
X134606096Y-124618961D01*
X134728085Y-124841000D01*
X136271000Y-124841000D01*
X136271000Y-124821000D01*
X136525000Y-124821000D01*
X136525000Y-124841000D01*
X136545000Y-124841000D01*
X136545000Y-125095000D01*
X136525000Y-125095000D01*
X136525000Y-125115000D01*
X136271000Y-125115000D01*
X136271000Y-125095000D01*
X134728085Y-125095000D01*
X134606096Y-125317039D01*
X134623633Y-125399818D01*
X134734285Y-125659646D01*
X134893500Y-125892895D01*
X135095161Y-126090601D01*
X135324741Y-126240735D01*
X135196899Y-126309068D01*
X134978392Y-126488392D01*
X134799068Y-126706899D01*
X134665818Y-126956192D01*
X134583764Y-127226691D01*
X134556057Y-127508000D01*
X134583764Y-127789309D01*
X134665818Y-128059808D01*
X134799068Y-128309101D01*
X134978392Y-128527608D01*
X135196899Y-128706932D01*
X135329858Y-128778000D01*
X135196899Y-128849068D01*
X134978392Y-129028392D01*
X134799068Y-129246899D01*
X134665818Y-129496192D01*
X134583764Y-129766691D01*
X134556057Y-130048000D01*
X134583764Y-130329309D01*
X134665818Y-130599808D01*
X134799068Y-130849101D01*
X134978392Y-131067608D01*
X135196899Y-131246932D01*
X135329858Y-131318000D01*
X135196899Y-131389068D01*
X134978392Y-131568392D01*
X134799068Y-131786899D01*
X134665818Y-132036192D01*
X134583764Y-132306691D01*
X134556057Y-132588000D01*
X134583764Y-132869309D01*
X134665818Y-133139808D01*
X134799068Y-133389101D01*
X134978392Y-133607608D01*
X135196899Y-133786932D01*
X135329858Y-133858000D01*
X135196899Y-133929068D01*
X134978392Y-134108392D01*
X134799068Y-134326899D01*
X134665818Y-134576192D01*
X134583764Y-134846691D01*
X134556057Y-135128000D01*
X134583764Y-135409309D01*
X134665818Y-135679808D01*
X134799068Y-135929101D01*
X134978392Y-136147608D01*
X135196899Y-136326932D01*
X135329858Y-136398000D01*
X135196899Y-136469068D01*
X134978392Y-136648392D01*
X134799068Y-136866899D01*
X134665818Y-137116192D01*
X134583764Y-137386691D01*
X134556057Y-137668000D01*
X134583764Y-137949309D01*
X134665818Y-138219808D01*
X134799068Y-138469101D01*
X134978392Y-138687608D01*
X135196899Y-138866932D01*
X135329858Y-138938000D01*
X135196899Y-139009068D01*
X134978392Y-139188392D01*
X134799068Y-139406899D01*
X134665818Y-139656192D01*
X134583764Y-139926691D01*
X134556057Y-140208000D01*
X134583764Y-140489309D01*
X134665818Y-140759808D01*
X134799068Y-141009101D01*
X134978392Y-141227608D01*
X135196899Y-141406932D01*
X135329858Y-141478000D01*
X135196899Y-141549068D01*
X134978392Y-141728392D01*
X134799068Y-141946899D01*
X134665818Y-142196192D01*
X134583764Y-142466691D01*
X134556057Y-142748000D01*
X134583764Y-143029309D01*
X134665818Y-143299808D01*
X134799068Y-143549101D01*
X134978392Y-143767608D01*
X135196899Y-143946932D01*
X135329858Y-144018000D01*
X135196899Y-144089068D01*
X134978392Y-144268392D01*
X134799068Y-144486899D01*
X134665818Y-144736192D01*
X134583764Y-145006691D01*
X134556057Y-145288000D01*
X134583764Y-145569309D01*
X134665818Y-145839808D01*
X134799068Y-146089101D01*
X134978392Y-146307608D01*
X135196899Y-146486932D01*
X135446192Y-146620182D01*
X135716691Y-146702236D01*
X135927508Y-146723000D01*
X136868492Y-146723000D01*
X137079309Y-146702236D01*
X137349808Y-146620182D01*
X137599101Y-146486932D01*
X137817608Y-146307608D01*
X137996932Y-146089101D01*
X138130182Y-145839808D01*
X138212236Y-145569309D01*
X138239943Y-145288000D01*
X138212236Y-145006691D01*
X138130182Y-144736192D01*
X137996932Y-144486899D01*
X137817608Y-144268392D01*
X137599101Y-144089068D01*
X137466142Y-144018000D01*
X137599101Y-143946932D01*
X137817608Y-143767608D01*
X137996932Y-143549101D01*
X138130182Y-143299808D01*
X138212236Y-143029309D01*
X138239943Y-142748000D01*
X138212236Y-142466691D01*
X138130182Y-142196192D01*
X137996932Y-141946899D01*
X137817608Y-141728392D01*
X137599101Y-141549068D01*
X137466142Y-141478000D01*
X137599101Y-141406932D01*
X137817608Y-141227608D01*
X137996932Y-141009101D01*
X138130182Y-140759808D01*
X138212236Y-140489309D01*
X138239943Y-140208000D01*
X138212236Y-139926691D01*
X138130182Y-139656192D01*
X137996932Y-139406899D01*
X137817608Y-139188392D01*
X137599101Y-139009068D01*
X137466142Y-138938000D01*
X137599101Y-138866932D01*
X137817608Y-138687608D01*
X137996932Y-138469101D01*
X138130182Y-138219808D01*
X138212236Y-137949309D01*
X138239943Y-137668000D01*
X138212236Y-137386691D01*
X138130182Y-137116192D01*
X137996932Y-136866899D01*
X137817608Y-136648392D01*
X137599101Y-136469068D01*
X137466142Y-136398000D01*
X137599101Y-136326932D01*
X137817608Y-136147608D01*
X137996932Y-135929101D01*
X138130182Y-135679808D01*
X138212236Y-135409309D01*
X138239943Y-135128000D01*
X138212236Y-134846691D01*
X138130182Y-134576192D01*
X137996932Y-134326899D01*
X137876865Y-134180597D01*
X139040001Y-133017462D01*
X139040001Y-155296000D01*
X104800000Y-155296000D01*
X104800000Y-150977555D01*
X106553000Y-150977555D01*
X106553000Y-151790444D01*
X106573214Y-151995679D01*
X106653096Y-152259014D01*
X106782817Y-152501706D01*
X106957392Y-152714427D01*
X107170113Y-152889003D01*
X107412805Y-153018724D01*
X107676140Y-153098606D01*
X107950000Y-153125579D01*
X108223859Y-153098606D01*
X108487194Y-153018724D01*
X108729886Y-152889003D01*
X108942607Y-152714428D01*
X109117183Y-152501707D01*
X109221038Y-152307407D01*
X109247941Y-152373762D01*
X109398994Y-152603549D01*
X109591974Y-152799452D01*
X109819465Y-152953942D01*
X110072724Y-153061082D01*
X110146930Y-153076040D01*
X110363000Y-152953540D01*
X110363000Y-151511000D01*
X110343000Y-151511000D01*
X110343000Y-151257000D01*
X110363000Y-151257000D01*
X110363000Y-149814460D01*
X110617000Y-149814460D01*
X110617000Y-151257000D01*
X110637000Y-151257000D01*
X110637000Y-151511000D01*
X110617000Y-151511000D01*
X110617000Y-152953540D01*
X110833070Y-153076040D01*
X110907276Y-153061082D01*
X111160535Y-152953942D01*
X111388026Y-152799452D01*
X111581006Y-152603549D01*
X111633809Y-152523224D01*
X111642188Y-152608302D01*
X111678498Y-152728000D01*
X111737463Y-152838314D01*
X111816815Y-152935005D01*
X111913506Y-153014357D01*
X112023820Y-153073322D01*
X112143518Y-153109632D01*
X112268000Y-153121892D01*
X113792000Y-153121892D01*
X113916482Y-153109632D01*
X114036180Y-153073322D01*
X114146494Y-153014357D01*
X114243185Y-152935005D01*
X114322537Y-152838314D01*
X114381502Y-152728000D01*
X114417812Y-152608302D01*
X114430072Y-152483820D01*
X114430072Y-152234000D01*
X117891928Y-152234000D01*
X117904188Y-152358482D01*
X117940498Y-152478180D01*
X117999463Y-152588494D01*
X118078815Y-152685185D01*
X118175506Y-152764537D01*
X118285820Y-152823502D01*
X118405518Y-152859812D01*
X118530000Y-152872072D01*
X119094250Y-152869000D01*
X119253000Y-152710250D01*
X119253000Y-151511000D01*
X118053750Y-151511000D01*
X117895000Y-151669750D01*
X117891928Y-152234000D01*
X114430072Y-152234000D01*
X114430072Y-150284180D01*
X114417812Y-150159698D01*
X114381502Y-150040000D01*
X114322537Y-149929686D01*
X114243185Y-149832995D01*
X114146494Y-149753643D01*
X114036180Y-149694678D01*
X113916482Y-149658368D01*
X113792000Y-149646108D01*
X112268000Y-149646108D01*
X112143518Y-149658368D01*
X112023820Y-149694678D01*
X111913506Y-149753643D01*
X111816815Y-149832995D01*
X111737463Y-149929686D01*
X111678498Y-150040000D01*
X111642188Y-150159698D01*
X111633809Y-150244776D01*
X111581006Y-150164451D01*
X111388026Y-149968548D01*
X111160535Y-149814058D01*
X110907276Y-149706918D01*
X110833070Y-149691960D01*
X110617000Y-149814460D01*
X110363000Y-149814460D01*
X110146930Y-149691960D01*
X110072724Y-149706918D01*
X109819465Y-149814058D01*
X109591974Y-149968548D01*
X109398994Y-150164451D01*
X109247941Y-150394238D01*
X109221038Y-150460593D01*
X109117183Y-150266293D01*
X108942608Y-150053572D01*
X108729887Y-149878997D01*
X108487195Y-149749276D01*
X108223860Y-149669394D01*
X107950000Y-149642421D01*
X107676141Y-149669394D01*
X107412806Y-149749276D01*
X107170114Y-149878997D01*
X106957393Y-150053572D01*
X106782817Y-150266293D01*
X106653096Y-150508985D01*
X106573214Y-150772320D01*
X106553000Y-150977555D01*
X104800000Y-150977555D01*
X104800000Y-87364000D01*
X105799928Y-87364000D01*
X105812188Y-87488482D01*
X105848498Y-87608180D01*
X105907463Y-87718494D01*
X105986815Y-87815185D01*
X106083506Y-87894537D01*
X106193820Y-87953502D01*
X106313518Y-87989812D01*
X106438000Y-88002072D01*
X106902250Y-87999000D01*
X107061000Y-87840250D01*
X107061000Y-86741000D01*
X105961750Y-86741000D01*
X105803000Y-86899750D01*
X105799928Y-87364000D01*
X104800000Y-87364000D01*
X104800000Y-85864000D01*
X105799928Y-85864000D01*
X105803000Y-86328250D01*
X105961750Y-86487000D01*
X107061000Y-86487000D01*
X107061000Y-85387750D01*
X106902250Y-85229000D01*
X106438000Y-85225928D01*
X106313518Y-85238188D01*
X106193820Y-85274498D01*
X106083506Y-85333463D01*
X105986815Y-85412815D01*
X105907463Y-85509506D01*
X105848498Y-85619820D01*
X105812188Y-85739518D01*
X105799928Y-85864000D01*
X104800000Y-85864000D01*
X104800000Y-82593726D01*
X106884654Y-84678381D01*
X106884654Y-84678381D01*
G37*
X106884654Y-84678381D02*
X106908512Y-84707452D01*
X107024542Y-84802675D01*
X107156919Y-84873432D01*
X107300556Y-84917004D01*
X107412508Y-84928030D01*
X107412510Y-84928030D01*
X107449933Y-84931716D01*
X107487356Y-84928030D01*
X109504400Y-84928030D01*
X109805370Y-85229000D01*
X109591589Y-85229000D01*
X109324011Y-85282225D01*
X109071957Y-85386629D01*
X108845114Y-85538201D01*
X108652201Y-85731114D01*
X108574445Y-85847483D01*
X108563812Y-85739518D01*
X108527502Y-85619820D01*
X108468537Y-85509506D01*
X108389185Y-85412815D01*
X108292494Y-85333463D01*
X108182180Y-85274498D01*
X108062482Y-85238188D01*
X107938000Y-85225928D01*
X107473750Y-85229000D01*
X107315000Y-85387750D01*
X107315000Y-86487000D01*
X107335000Y-86487000D01*
X107335000Y-86741000D01*
X107315000Y-86741000D01*
X107315000Y-87840250D01*
X107473750Y-87999000D01*
X107938000Y-88002072D01*
X108062482Y-87989812D01*
X108182180Y-87953502D01*
X108292494Y-87894537D01*
X108389185Y-87815185D01*
X108468537Y-87718494D01*
X108527502Y-87608180D01*
X108563812Y-87488482D01*
X108574445Y-87380517D01*
X108652201Y-87496886D01*
X108845114Y-87689799D01*
X108966001Y-87770573D01*
X108966000Y-91378369D01*
X108589366Y-91001736D01*
X108602236Y-90959309D01*
X108629943Y-90678000D01*
X108602236Y-90396691D01*
X108520182Y-90126192D01*
X108386932Y-89876899D01*
X108207608Y-89658392D01*
X107989101Y-89479068D01*
X107739808Y-89345818D01*
X107469309Y-89263764D01*
X107258492Y-89243000D01*
X107117508Y-89243000D01*
X106906691Y-89263764D01*
X106636192Y-89345818D01*
X106386899Y-89479068D01*
X106168392Y-89658392D01*
X105989068Y-89876899D01*
X105855818Y-90126192D01*
X105773764Y-90396691D01*
X105746057Y-90678000D01*
X105773764Y-90959309D01*
X105855818Y-91229808D01*
X105989068Y-91479101D01*
X106168392Y-91697608D01*
X106386899Y-91876932D01*
X106636192Y-92010182D01*
X106906691Y-92092236D01*
X107117508Y-92113000D01*
X107258492Y-92113000D01*
X107469309Y-92092236D01*
X107511736Y-92079366D01*
X107696001Y-92263632D01*
X107696001Y-92380529D01*
X107469309Y-92311764D01*
X107258492Y-92291000D01*
X107117508Y-92291000D01*
X106906691Y-92311764D01*
X106636192Y-92393818D01*
X106386899Y-92527068D01*
X106168392Y-92706392D01*
X105989068Y-92924899D01*
X105855818Y-93174192D01*
X105773764Y-93444691D01*
X105746057Y-93726000D01*
X105773764Y-94007309D01*
X105855818Y-94277808D01*
X105989068Y-94527101D01*
X106168392Y-94745608D01*
X106386899Y-94924932D01*
X106458875Y-94963404D01*
X106480598Y-95035014D01*
X106480599Y-95035015D01*
X106551355Y-95167392D01*
X106573741Y-95194669D01*
X106646578Y-95283422D01*
X106675654Y-95307284D01*
X106769692Y-95401322D01*
X106636192Y-95441818D01*
X106386899Y-95575068D01*
X106168392Y-95754392D01*
X105989068Y-95972899D01*
X105855818Y-96222192D01*
X105773764Y-96492691D01*
X105746057Y-96774000D01*
X105773764Y-97055309D01*
X105855818Y-97325808D01*
X105989068Y-97575101D01*
X106168392Y-97793608D01*
X106386899Y-97972932D01*
X106516517Y-98042215D01*
X106551355Y-98107392D01*
X106585192Y-98148622D01*
X106646578Y-98223422D01*
X106675654Y-98247284D01*
X109196634Y-100768265D01*
X109183764Y-100810691D01*
X109156057Y-101092000D01*
X109183764Y-101373309D01*
X109265818Y-101643808D01*
X109399068Y-101893101D01*
X109578392Y-102111608D01*
X109796899Y-102290932D01*
X109929858Y-102362000D01*
X109796899Y-102433068D01*
X109578392Y-102612392D01*
X109399068Y-102830899D01*
X109265818Y-103080192D01*
X109183764Y-103350691D01*
X109156057Y-103632000D01*
X109183764Y-103913309D01*
X109265818Y-104183808D01*
X109399068Y-104433101D01*
X109578392Y-104651608D01*
X109796899Y-104830932D01*
X109929858Y-104902000D01*
X109796899Y-104973068D01*
X109578392Y-105152392D01*
X109399068Y-105370899D01*
X109265818Y-105620192D01*
X109183764Y-105890691D01*
X109156057Y-106172000D01*
X109183764Y-106453309D01*
X109265818Y-106723808D01*
X109399068Y-106973101D01*
X109578392Y-107191608D01*
X109796899Y-107370932D01*
X109929858Y-107442000D01*
X109796899Y-107513068D01*
X109578392Y-107692392D01*
X109399068Y-107910899D01*
X109265818Y-108160192D01*
X109183764Y-108430691D01*
X109156057Y-108712000D01*
X109183764Y-108993309D01*
X109265818Y-109263808D01*
X109399068Y-109513101D01*
X109578392Y-109731608D01*
X109796899Y-109910932D01*
X109929858Y-109982000D01*
X109796899Y-110053068D01*
X109578392Y-110232392D01*
X109399068Y-110450899D01*
X109265818Y-110700192D01*
X109183764Y-110970691D01*
X109156057Y-111252000D01*
X109183764Y-111533309D01*
X109265818Y-111803808D01*
X109399068Y-112053101D01*
X109578392Y-112271608D01*
X109796899Y-112450932D01*
X109929858Y-112522000D01*
X109796899Y-112593068D01*
X109578392Y-112772392D01*
X109399068Y-112990899D01*
X109265818Y-113240192D01*
X109183764Y-113510691D01*
X109156057Y-113792000D01*
X109183764Y-114073309D01*
X109265818Y-114343808D01*
X109399068Y-114593101D01*
X109578392Y-114811608D01*
X109796899Y-114990932D01*
X109929858Y-115062000D01*
X109796899Y-115133068D01*
X109578392Y-115312392D01*
X109399068Y-115530899D01*
X109265818Y-115780192D01*
X109183764Y-116050691D01*
X109156057Y-116332000D01*
X109183764Y-116613309D01*
X109265818Y-116883808D01*
X109399068Y-117133101D01*
X109578392Y-117351608D01*
X109796899Y-117530932D01*
X109924741Y-117599265D01*
X109695161Y-117749399D01*
X109493500Y-117947105D01*
X109334285Y-118180354D01*
X109223633Y-118440182D01*
X109206096Y-118522961D01*
X109328085Y-118745000D01*
X110871000Y-118745000D01*
X110871000Y-118725000D01*
X111125000Y-118725000D01*
X111125000Y-118745000D01*
X111145000Y-118745000D01*
X111145000Y-118999000D01*
X111125000Y-118999000D01*
X111125000Y-119019000D01*
X110871000Y-119019000D01*
X110871000Y-118999000D01*
X109328085Y-118999000D01*
X109206096Y-119221039D01*
X109223633Y-119303818D01*
X109334285Y-119563646D01*
X109493500Y-119796895D01*
X109695161Y-119994601D01*
X109924741Y-120144735D01*
X109796899Y-120213068D01*
X109578392Y-120392392D01*
X109399068Y-120610899D01*
X109265818Y-120860192D01*
X109183764Y-121130691D01*
X109156057Y-121412000D01*
X109183764Y-121693309D01*
X109265818Y-121963808D01*
X109399068Y-122213101D01*
X109578392Y-122431608D01*
X109796899Y-122610932D01*
X109929858Y-122682000D01*
X109796899Y-122753068D01*
X109578392Y-122932392D01*
X109399068Y-123150899D01*
X109265818Y-123400192D01*
X109183764Y-123670691D01*
X109156057Y-123952000D01*
X109183764Y-124233309D01*
X109265818Y-124503808D01*
X109399068Y-124753101D01*
X109578392Y-124971608D01*
X109796899Y-125150932D01*
X109929858Y-125222000D01*
X109796899Y-125293068D01*
X109578392Y-125472392D01*
X109399068Y-125690899D01*
X109265818Y-125940192D01*
X109183764Y-126210691D01*
X109156057Y-126492000D01*
X109183764Y-126773309D01*
X109265818Y-127043808D01*
X109399068Y-127293101D01*
X109578392Y-127511608D01*
X109796899Y-127690932D01*
X109929858Y-127762000D01*
X109796899Y-127833068D01*
X109578392Y-128012392D01*
X109399068Y-128230899D01*
X109265818Y-128480192D01*
X109183764Y-128750691D01*
X109156057Y-129032000D01*
X109183764Y-129313309D01*
X109265818Y-129583808D01*
X109399068Y-129833101D01*
X109578392Y-130051608D01*
X109796899Y-130230932D01*
X109929858Y-130302000D01*
X109796899Y-130373068D01*
X109578392Y-130552392D01*
X109399068Y-130770899D01*
X109265818Y-131020192D01*
X109183764Y-131290691D01*
X109156057Y-131572000D01*
X109183764Y-131853309D01*
X109265818Y-132123808D01*
X109399068Y-132373101D01*
X109578392Y-132591608D01*
X109796899Y-132770932D01*
X109929858Y-132842000D01*
X109796899Y-132913068D01*
X109578392Y-133092392D01*
X109399068Y-133310899D01*
X109265818Y-133560192D01*
X109183764Y-133830691D01*
X109156057Y-134112000D01*
X109183764Y-134393309D01*
X109196634Y-134435736D01*
X108707649Y-134924721D01*
X108678579Y-134948578D01*
X108654722Y-134977648D01*
X108654721Y-134977649D01*
X108583355Y-135064608D01*
X108512599Y-135196985D01*
X108469027Y-135340622D01*
X108454314Y-135490000D01*
X108458001Y-135527433D01*
X108458001Y-136194168D01*
X108418899Y-136215068D01*
X108200392Y-136394392D01*
X108021068Y-136612899D01*
X107887818Y-136862192D01*
X107805764Y-137132691D01*
X107778057Y-137414000D01*
X107805764Y-137695309D01*
X107887818Y-137965808D01*
X108021068Y-138215101D01*
X108200392Y-138433608D01*
X108418899Y-138612932D01*
X108668192Y-138746182D01*
X108938691Y-138828236D01*
X109149508Y-138849000D01*
X109290492Y-138849000D01*
X109501309Y-138828236D01*
X109771808Y-138746182D01*
X109957376Y-138646994D01*
X109543736Y-139060634D01*
X109501309Y-139047764D01*
X109290492Y-139027000D01*
X109149508Y-139027000D01*
X108938691Y-139047764D01*
X108668192Y-139129818D01*
X108418899Y-139263068D01*
X108200392Y-139442392D01*
X108021068Y-139660899D01*
X107887818Y-139910192D01*
X107805764Y-140180691D01*
X107778057Y-140462000D01*
X107805764Y-140743309D01*
X107887818Y-141013808D01*
X108021068Y-141263101D01*
X108200392Y-141481608D01*
X108418899Y-141660932D01*
X108668192Y-141794182D01*
X108938691Y-141876236D01*
X109149508Y-141897000D01*
X109290492Y-141897000D01*
X109501309Y-141876236D01*
X109771808Y-141794182D01*
X110021101Y-141660932D01*
X110239608Y-141481608D01*
X110418932Y-141263101D01*
X110552182Y-141013808D01*
X110634236Y-140743309D01*
X110661943Y-140462000D01*
X110634236Y-140180691D01*
X110621366Y-140138264D01*
X113288353Y-137471278D01*
X113317422Y-137447422D01*
X113412645Y-137331392D01*
X113483402Y-137199015D01*
X113526974Y-137055378D01*
X113538000Y-136943426D01*
X113538000Y-143726577D01*
X113534314Y-143764000D01*
X113538000Y-143801423D01*
X113538000Y-143801425D01*
X113549026Y-143913377D01*
X113592598Y-144057014D01*
X113592599Y-144057015D01*
X113663355Y-144189392D01*
X113702983Y-144237678D01*
X113758578Y-144305422D01*
X113787654Y-144329284D01*
X119357370Y-149899000D01*
X119252998Y-149899000D01*
X119252998Y-150057748D01*
X119094250Y-149899000D01*
X118530000Y-149895928D01*
X118405518Y-149908188D01*
X118285820Y-149944498D01*
X118175506Y-150003463D01*
X118078815Y-150082815D01*
X117999463Y-150179506D01*
X117940498Y-150289820D01*
X117904188Y-150409518D01*
X117891928Y-150534000D01*
X117895000Y-151098250D01*
X118053750Y-151257000D01*
X119253000Y-151257000D01*
X119253000Y-151237000D01*
X119507000Y-151237000D01*
X119507000Y-151257000D01*
X119527000Y-151257000D01*
X119527000Y-151511000D01*
X119507000Y-151511000D01*
X119507000Y-152710250D01*
X119665750Y-152869000D01*
X120230000Y-152872072D01*
X120354482Y-152859812D01*
X120474180Y-152823502D01*
X120584494Y-152764537D01*
X120681185Y-152685185D01*
X120760537Y-152588494D01*
X120819502Y-152478180D01*
X120840393Y-152409313D01*
X120864866Y-152439134D01*
X121090986Y-152624706D01*
X121348966Y-152762599D01*
X121628889Y-152847513D01*
X121847050Y-152869000D01*
X121992950Y-152869000D01*
X122211111Y-152847513D01*
X122491034Y-152762599D01*
X122749014Y-152624706D01*
X122975134Y-152439134D01*
X123160706Y-152213014D01*
X123190000Y-152158209D01*
X123219294Y-152213014D01*
X123404866Y-152439134D01*
X123630986Y-152624706D01*
X123888966Y-152762599D01*
X124168889Y-152847513D01*
X124387050Y-152869000D01*
X124532950Y-152869000D01*
X124751111Y-152847513D01*
X125031034Y-152762599D01*
X125289014Y-152624706D01*
X125515134Y-152439134D01*
X125700706Y-152213014D01*
X125730000Y-152158209D01*
X125759294Y-152213014D01*
X125944866Y-152439134D01*
X126170986Y-152624706D01*
X126428966Y-152762599D01*
X126708889Y-152847513D01*
X126927050Y-152869000D01*
X127072950Y-152869000D01*
X127291111Y-152847513D01*
X127571034Y-152762599D01*
X127829014Y-152624706D01*
X128055134Y-152439134D01*
X128240706Y-152213014D01*
X128378599Y-151955034D01*
X128463513Y-151675111D01*
X128488980Y-151416532D01*
X131274227Y-151416532D01*
X131324916Y-151868434D01*
X131462415Y-152301885D01*
X131681486Y-152700373D01*
X131973784Y-153048721D01*
X132328178Y-153333661D01*
X132731167Y-153544338D01*
X133167402Y-153672729D01*
X133620266Y-153713943D01*
X134072512Y-153666410D01*
X134506911Y-153531941D01*
X134906919Y-153315658D01*
X135257300Y-153025798D01*
X135544706Y-152673402D01*
X135758192Y-152271894D01*
X135889626Y-151836566D01*
X135934000Y-151384000D01*
X135933092Y-151318943D01*
X135876098Y-150867792D01*
X135732561Y-150436304D01*
X135507948Y-150040913D01*
X135210814Y-149696680D01*
X134852476Y-149416716D01*
X134446585Y-149211686D01*
X134008600Y-149089398D01*
X133555204Y-149054511D01*
X133103667Y-149108354D01*
X132671187Y-149248875D01*
X132274237Y-149470722D01*
X131927938Y-149765446D01*
X131645480Y-150121820D01*
X131437621Y-150526270D01*
X131312278Y-150963390D01*
X131274227Y-151416532D01*
X128488980Y-151416532D01*
X128492185Y-151384000D01*
X128463513Y-151092889D01*
X128378599Y-150812966D01*
X128240706Y-150554986D01*
X128055134Y-150328866D01*
X127829014Y-150143294D01*
X127571034Y-150005401D01*
X127291111Y-149920487D01*
X127072950Y-149899000D01*
X126927050Y-149899000D01*
X126708889Y-149920487D01*
X126636175Y-149942545D01*
X126041284Y-149347654D01*
X126017422Y-149318578D01*
X125901392Y-149223355D01*
X125769015Y-149152598D01*
X125625378Y-149109026D01*
X125513426Y-149098000D01*
X125513423Y-149098000D01*
X125476000Y-149094314D01*
X125438577Y-149098000D01*
X124521630Y-149098000D01*
X121060669Y-145637039D01*
X126986096Y-145637039D01*
X127003633Y-145719818D01*
X127114285Y-145979646D01*
X127273500Y-146212895D01*
X127475161Y-146410601D01*
X127711517Y-146565166D01*
X127973486Y-146670650D01*
X128251000Y-146723000D01*
X128651000Y-146723000D01*
X128651000Y-145415000D01*
X128905000Y-145415000D01*
X128905000Y-146723000D01*
X129305000Y-146723000D01*
X129582514Y-146670650D01*
X129844483Y-146565166D01*
X130080839Y-146410601D01*
X130282500Y-146212895D01*
X130441715Y-145979646D01*
X130552367Y-145719818D01*
X130569904Y-145637039D01*
X130447915Y-145415000D01*
X128905000Y-145415000D01*
X128651000Y-145415000D01*
X127108085Y-145415000D01*
X126986096Y-145637039D01*
X121060669Y-145637039D01*
X117263459Y-141839829D01*
X117519727Y-141733680D01*
X117754759Y-141576637D01*
X117954637Y-141376759D01*
X118111680Y-141141727D01*
X118219853Y-140880574D01*
X118275000Y-140603335D01*
X118275000Y-140320665D01*
X118219853Y-140043426D01*
X118111680Y-139782273D01*
X117954637Y-139547241D01*
X117792500Y-139385104D01*
X117792500Y-138490896D01*
X117954637Y-138328759D01*
X118111680Y-138093727D01*
X118219853Y-137832574D01*
X118275000Y-137555335D01*
X118275000Y-137272665D01*
X118219853Y-136995426D01*
X118111680Y-136734273D01*
X117954637Y-136499241D01*
X117792500Y-136337104D01*
X117792500Y-135550072D01*
X119818000Y-135550072D01*
X119942482Y-135537812D01*
X120062180Y-135501502D01*
X120172494Y-135442537D01*
X120269185Y-135363185D01*
X120348537Y-135266494D01*
X120407502Y-135156180D01*
X120443812Y-135036482D01*
X120456072Y-134912000D01*
X120456072Y-134874000D01*
X121208168Y-134874000D01*
X121229068Y-134913101D01*
X121408392Y-135131608D01*
X121626899Y-135310932D01*
X121876192Y-135444182D01*
X122146691Y-135526236D01*
X122357508Y-135547000D01*
X122498492Y-135547000D01*
X122709309Y-135526236D01*
X122979808Y-135444182D01*
X123229101Y-135310932D01*
X123447608Y-135131608D01*
X123626932Y-134913101D01*
X123760182Y-134663808D01*
X123842236Y-134393309D01*
X123869943Y-134112000D01*
X123842236Y-133830691D01*
X123760182Y-133560192D01*
X123626932Y-133310899D01*
X123447608Y-133092392D01*
X123229101Y-132913068D01*
X122979808Y-132779818D01*
X122709309Y-132697764D01*
X122498492Y-132677000D01*
X122357508Y-132677000D01*
X122146691Y-132697764D01*
X121876192Y-132779818D01*
X121626899Y-132913068D01*
X121408392Y-133092392D01*
X121229068Y-133310899D01*
X121208168Y-133350000D01*
X120456072Y-133350000D01*
X120456072Y-133312000D01*
X120443812Y-133187518D01*
X120407502Y-133067820D01*
X120348537Y-132957506D01*
X120269185Y-132860815D01*
X120172494Y-132781463D01*
X120062180Y-132722498D01*
X119942482Y-132686188D01*
X119924518Y-132684419D01*
X120037608Y-132591608D01*
X120216932Y-132373101D01*
X120237832Y-132334000D01*
X123128370Y-132334000D01*
X126434721Y-135640352D01*
X126458578Y-135669422D01*
X126574608Y-135764645D01*
X126706985Y-135835402D01*
X126850622Y-135878974D01*
X126962574Y-135890000D01*
X126962576Y-135890000D01*
X126999999Y-135893686D01*
X127037422Y-135890000D01*
X127158168Y-135890000D01*
X127179068Y-135929101D01*
X127358392Y-136147608D01*
X127576899Y-136326932D01*
X127709858Y-136398000D01*
X127576899Y-136469068D01*
X127358392Y-136648392D01*
X127179068Y-136866899D01*
X127045818Y-137116192D01*
X126963764Y-137386691D01*
X126936057Y-137668000D01*
X126963764Y-137949309D01*
X127045818Y-138219808D01*
X127179068Y-138469101D01*
X127358392Y-138687608D01*
X127576899Y-138866932D01*
X127709858Y-138938000D01*
X127576899Y-139009068D01*
X127358392Y-139188392D01*
X127179068Y-139406899D01*
X127045818Y-139656192D01*
X126963764Y-139926691D01*
X126936057Y-140208000D01*
X126963764Y-140489309D01*
X127045818Y-140759808D01*
X127179068Y-141009101D01*
X127358392Y-141227608D01*
X127576899Y-141406932D01*
X127709858Y-141478000D01*
X127576899Y-141549068D01*
X127358392Y-141728392D01*
X127179068Y-141946899D01*
X127045818Y-142196192D01*
X126963764Y-142466691D01*
X126936057Y-142748000D01*
X126963764Y-143029309D01*
X127045818Y-143299808D01*
X127179068Y-143549101D01*
X127358392Y-143767608D01*
X127576899Y-143946932D01*
X127704741Y-144015265D01*
X127475161Y-144165399D01*
X127273500Y-144363105D01*
X127114285Y-144596354D01*
X127003633Y-144856182D01*
X126986096Y-144938961D01*
X127108085Y-145161000D01*
X128651000Y-145161000D01*
X128651000Y-145141000D01*
X128905000Y-145141000D01*
X128905000Y-145161000D01*
X130447915Y-145161000D01*
X130569904Y-144938961D01*
X130552367Y-144856182D01*
X130441715Y-144596354D01*
X130282500Y-144363105D01*
X130080839Y-144165399D01*
X129851259Y-144015265D01*
X129979101Y-143946932D01*
X130197608Y-143767608D01*
X130376932Y-143549101D01*
X130510182Y-143299808D01*
X130592236Y-143029309D01*
X130619943Y-142748000D01*
X130592236Y-142466691D01*
X130510182Y-142196192D01*
X130376932Y-141946899D01*
X130197608Y-141728392D01*
X129979101Y-141549068D01*
X129846142Y-141478000D01*
X129979101Y-141406932D01*
X130197608Y-141227608D01*
X130376932Y-141009101D01*
X130510182Y-140759808D01*
X130592236Y-140489309D01*
X130619943Y-140208000D01*
X130592236Y-139926691D01*
X130510182Y-139656192D01*
X130376932Y-139406899D01*
X130197608Y-139188392D01*
X129979101Y-139009068D01*
X129846142Y-138938000D01*
X129979101Y-138866932D01*
X130197608Y-138687608D01*
X130376932Y-138469101D01*
X130510182Y-138219808D01*
X130592236Y-137949309D01*
X130619943Y-137668000D01*
X130592236Y-137386691D01*
X130510182Y-137116192D01*
X130376932Y-136866899D01*
X130197608Y-136648392D01*
X129979101Y-136469068D01*
X129846142Y-136398000D01*
X129979101Y-136326932D01*
X130197608Y-136147608D01*
X130376932Y-135929101D01*
X130510182Y-135679808D01*
X130592236Y-135409309D01*
X130619943Y-135128000D01*
X130592236Y-134846691D01*
X130510182Y-134576192D01*
X130376932Y-134326899D01*
X130197608Y-134108392D01*
X129979101Y-133929068D01*
X129846142Y-133858000D01*
X129979101Y-133786932D01*
X130197608Y-133607608D01*
X130376932Y-133389101D01*
X130510182Y-133139808D01*
X130592236Y-132869309D01*
X130619943Y-132588000D01*
X130592236Y-132306691D01*
X130510182Y-132036192D01*
X130376932Y-131786899D01*
X130197608Y-131568392D01*
X129979101Y-131389068D01*
X129846142Y-131318000D01*
X129979101Y-131246932D01*
X130197608Y-131067608D01*
X130376932Y-130849101D01*
X130510182Y-130599808D01*
X130592236Y-130329309D01*
X130619943Y-130048000D01*
X130592236Y-129766691D01*
X130510182Y-129496192D01*
X130376932Y-129246899D01*
X130197608Y-129028392D01*
X129979101Y-128849068D01*
X129846142Y-128778000D01*
X129979101Y-128706932D01*
X130197608Y-128527608D01*
X130376932Y-128309101D01*
X130510182Y-128059808D01*
X130592236Y-127789309D01*
X130619943Y-127508000D01*
X130592236Y-127226691D01*
X130510182Y-126956192D01*
X130376932Y-126706899D01*
X130197608Y-126488392D01*
X129979101Y-126309068D01*
X129846142Y-126238000D01*
X129979101Y-126166932D01*
X130197608Y-125987608D01*
X130376932Y-125769101D01*
X130510182Y-125519808D01*
X130592236Y-125249309D01*
X130619943Y-124968000D01*
X130592236Y-124686691D01*
X130510182Y-124416192D01*
X130376932Y-124166899D01*
X130197608Y-123948392D01*
X130084518Y-123855581D01*
X130102482Y-123853812D01*
X130222180Y-123817502D01*
X130332494Y-123758537D01*
X130429185Y-123679185D01*
X130508537Y-123582494D01*
X130567502Y-123472180D01*
X130603812Y-123352482D01*
X130616072Y-123228000D01*
X130613000Y-122713750D01*
X130454250Y-122555000D01*
X128905000Y-122555000D01*
X128905000Y-122575000D01*
X128651000Y-122575000D01*
X128651000Y-122555000D01*
X128631000Y-122555000D01*
X128631000Y-122301000D01*
X128651000Y-122301000D01*
X128651000Y-121151750D01*
X128905000Y-121151750D01*
X128905000Y-122301000D01*
X130454250Y-122301000D01*
X130613000Y-122142250D01*
X130616072Y-121628000D01*
X130603812Y-121503518D01*
X130567502Y-121383820D01*
X130508537Y-121273506D01*
X130429185Y-121176815D01*
X130332494Y-121097463D01*
X130222180Y-121038498D01*
X130102482Y-121002188D01*
X129978000Y-120989928D01*
X129063750Y-120993000D01*
X128905000Y-121151750D01*
X128651000Y-121151750D01*
X128492250Y-120993000D01*
X127578000Y-120989928D01*
X127508000Y-120996822D01*
X127508000Y-119252388D01*
X127576899Y-119308932D01*
X127826192Y-119442182D01*
X128096691Y-119524236D01*
X128307508Y-119545000D01*
X129248492Y-119545000D01*
X129459309Y-119524236D01*
X129729808Y-119442182D01*
X129979101Y-119308932D01*
X130197608Y-119129608D01*
X130376932Y-118911101D01*
X130397832Y-118872000D01*
X132042577Y-118872000D01*
X132080000Y-118875686D01*
X132117423Y-118872000D01*
X132117426Y-118872000D01*
X132229378Y-118860974D01*
X132373015Y-118817402D01*
X132505392Y-118746645D01*
X132621422Y-118651422D01*
X132645284Y-118622346D01*
X134039000Y-117228630D01*
X134559928Y-117749558D01*
X134559928Y-118910000D01*
X134572188Y-119034482D01*
X134608498Y-119154180D01*
X134667463Y-119264494D01*
X134746815Y-119361185D01*
X134843506Y-119440537D01*
X134953820Y-119499502D01*
X135073518Y-119535812D01*
X135198000Y-119548072D01*
X137414000Y-119548072D01*
X137414000Y-121130130D01*
X137349808Y-121095818D01*
X137079309Y-121013764D01*
X136868492Y-120993000D01*
X135927508Y-120993000D01*
X135716691Y-121013764D01*
X135446192Y-121095818D01*
X135196899Y-121229068D01*
X134978392Y-121408392D01*
X134799068Y-121626899D01*
X134665818Y-121876192D01*
X134583764Y-122146691D01*
X134556057Y-122428000D01*
X134583764Y-122709309D01*
X134665818Y-122979808D01*
X134799068Y-123229101D01*
X134978392Y-123447608D01*
X135196899Y-123626932D01*
X135324741Y-123695265D01*
X135095161Y-123845399D01*
X134893500Y-124043105D01*
X134734285Y-124276354D01*
X134623633Y-124536182D01*
X134606096Y-124618961D01*
X134728085Y-124841000D01*
X136271000Y-124841000D01*
X136271000Y-124821000D01*
X136525000Y-124821000D01*
X136525000Y-124841000D01*
X136545000Y-124841000D01*
X136545000Y-125095000D01*
X136525000Y-125095000D01*
X136525000Y-125115000D01*
X136271000Y-125115000D01*
X136271000Y-125095000D01*
X134728085Y-125095000D01*
X134606096Y-125317039D01*
X134623633Y-125399818D01*
X134734285Y-125659646D01*
X134893500Y-125892895D01*
X135095161Y-126090601D01*
X135324741Y-126240735D01*
X135196899Y-126309068D01*
X134978392Y-126488392D01*
X134799068Y-126706899D01*
X134665818Y-126956192D01*
X134583764Y-127226691D01*
X134556057Y-127508000D01*
X134583764Y-127789309D01*
X134665818Y-128059808D01*
X134799068Y-128309101D01*
X134978392Y-128527608D01*
X135196899Y-128706932D01*
X135329858Y-128778000D01*
X135196899Y-128849068D01*
X134978392Y-129028392D01*
X134799068Y-129246899D01*
X134665818Y-129496192D01*
X134583764Y-129766691D01*
X134556057Y-130048000D01*
X134583764Y-130329309D01*
X134665818Y-130599808D01*
X134799068Y-130849101D01*
X134978392Y-131067608D01*
X135196899Y-131246932D01*
X135329858Y-131318000D01*
X135196899Y-131389068D01*
X134978392Y-131568392D01*
X134799068Y-131786899D01*
X134665818Y-132036192D01*
X134583764Y-132306691D01*
X134556057Y-132588000D01*
X134583764Y-132869309D01*
X134665818Y-133139808D01*
X134799068Y-133389101D01*
X134978392Y-133607608D01*
X135196899Y-133786932D01*
X135329858Y-133858000D01*
X135196899Y-133929068D01*
X134978392Y-134108392D01*
X134799068Y-134326899D01*
X134665818Y-134576192D01*
X134583764Y-134846691D01*
X134556057Y-135128000D01*
X134583764Y-135409309D01*
X134665818Y-135679808D01*
X134799068Y-135929101D01*
X134978392Y-136147608D01*
X135196899Y-136326932D01*
X135329858Y-136398000D01*
X135196899Y-136469068D01*
X134978392Y-136648392D01*
X134799068Y-136866899D01*
X134665818Y-137116192D01*
X134583764Y-137386691D01*
X134556057Y-137668000D01*
X134583764Y-137949309D01*
X134665818Y-138219808D01*
X134799068Y-138469101D01*
X134978392Y-138687608D01*
X135196899Y-138866932D01*
X135329858Y-138938000D01*
X135196899Y-139009068D01*
X134978392Y-139188392D01*
X134799068Y-139406899D01*
X134665818Y-139656192D01*
X134583764Y-139926691D01*
X134556057Y-140208000D01*
X134583764Y-140489309D01*
X134665818Y-140759808D01*
X134799068Y-141009101D01*
X134978392Y-141227608D01*
X135196899Y-141406932D01*
X135329858Y-141478000D01*
X135196899Y-141549068D01*
X134978392Y-141728392D01*
X134799068Y-141946899D01*
X134665818Y-142196192D01*
X134583764Y-142466691D01*
X134556057Y-142748000D01*
X134583764Y-143029309D01*
X134665818Y-143299808D01*
X134799068Y-143549101D01*
X134978392Y-143767608D01*
X135196899Y-143946932D01*
X135329858Y-144018000D01*
X135196899Y-144089068D01*
X134978392Y-144268392D01*
X134799068Y-144486899D01*
X134665818Y-144736192D01*
X134583764Y-145006691D01*
X134556057Y-145288000D01*
X134583764Y-145569309D01*
X134665818Y-145839808D01*
X134799068Y-146089101D01*
X134978392Y-146307608D01*
X135196899Y-146486932D01*
X135446192Y-146620182D01*
X135716691Y-146702236D01*
X135927508Y-146723000D01*
X136868492Y-146723000D01*
X137079309Y-146702236D01*
X137349808Y-146620182D01*
X137599101Y-146486932D01*
X137817608Y-146307608D01*
X137996932Y-146089101D01*
X138130182Y-145839808D01*
X138212236Y-145569309D01*
X138239943Y-145288000D01*
X138212236Y-145006691D01*
X138130182Y-144736192D01*
X137996932Y-144486899D01*
X137817608Y-144268392D01*
X137599101Y-144089068D01*
X137466142Y-144018000D01*
X137599101Y-143946932D01*
X137817608Y-143767608D01*
X137996932Y-143549101D01*
X138130182Y-143299808D01*
X138212236Y-143029309D01*
X138239943Y-142748000D01*
X138212236Y-142466691D01*
X138130182Y-142196192D01*
X137996932Y-141946899D01*
X137817608Y-141728392D01*
X137599101Y-141549068D01*
X137466142Y-141478000D01*
X137599101Y-141406932D01*
X137817608Y-141227608D01*
X137996932Y-141009101D01*
X138130182Y-140759808D01*
X138212236Y-140489309D01*
X138239943Y-140208000D01*
X138212236Y-139926691D01*
X138130182Y-139656192D01*
X137996932Y-139406899D01*
X137817608Y-139188392D01*
X137599101Y-139009068D01*
X137466142Y-138938000D01*
X137599101Y-138866932D01*
X137817608Y-138687608D01*
X137996932Y-138469101D01*
X138130182Y-138219808D01*
X138212236Y-137949309D01*
X138239943Y-137668000D01*
X138212236Y-137386691D01*
X138130182Y-137116192D01*
X137996932Y-136866899D01*
X137817608Y-136648392D01*
X137599101Y-136469068D01*
X137466142Y-136398000D01*
X137599101Y-136326932D01*
X137817608Y-136147608D01*
X137996932Y-135929101D01*
X138130182Y-135679808D01*
X138212236Y-135409309D01*
X138239943Y-135128000D01*
X138212236Y-134846691D01*
X138130182Y-134576192D01*
X137996932Y-134326899D01*
X137876865Y-134180597D01*
X139040001Y-133017462D01*
X139040001Y-155296000D01*
X104800000Y-155296000D01*
X104800000Y-150977555D01*
X106553000Y-150977555D01*
X106553000Y-151790444D01*
X106573214Y-151995679D01*
X106653096Y-152259014D01*
X106782817Y-152501706D01*
X106957392Y-152714427D01*
X107170113Y-152889003D01*
X107412805Y-153018724D01*
X107676140Y-153098606D01*
X107950000Y-153125579D01*
X108223859Y-153098606D01*
X108487194Y-153018724D01*
X108729886Y-152889003D01*
X108942607Y-152714428D01*
X109117183Y-152501707D01*
X109221038Y-152307407D01*
X109247941Y-152373762D01*
X109398994Y-152603549D01*
X109591974Y-152799452D01*
X109819465Y-152953942D01*
X110072724Y-153061082D01*
X110146930Y-153076040D01*
X110363000Y-152953540D01*
X110363000Y-151511000D01*
X110343000Y-151511000D01*
X110343000Y-151257000D01*
X110363000Y-151257000D01*
X110363000Y-149814460D01*
X110617000Y-149814460D01*
X110617000Y-151257000D01*
X110637000Y-151257000D01*
X110637000Y-151511000D01*
X110617000Y-151511000D01*
X110617000Y-152953540D01*
X110833070Y-153076040D01*
X110907276Y-153061082D01*
X111160535Y-152953942D01*
X111388026Y-152799452D01*
X111581006Y-152603549D01*
X111633809Y-152523224D01*
X111642188Y-152608302D01*
X111678498Y-152728000D01*
X111737463Y-152838314D01*
X111816815Y-152935005D01*
X111913506Y-153014357D01*
X112023820Y-153073322D01*
X112143518Y-153109632D01*
X112268000Y-153121892D01*
X113792000Y-153121892D01*
X113916482Y-153109632D01*
X114036180Y-153073322D01*
X114146494Y-153014357D01*
X114243185Y-152935005D01*
X114322537Y-152838314D01*
X114381502Y-152728000D01*
X114417812Y-152608302D01*
X114430072Y-152483820D01*
X114430072Y-152234000D01*
X117891928Y-152234000D01*
X117904188Y-152358482D01*
X117940498Y-152478180D01*
X117999463Y-152588494D01*
X118078815Y-152685185D01*
X118175506Y-152764537D01*
X118285820Y-152823502D01*
X118405518Y-152859812D01*
X118530000Y-152872072D01*
X119094250Y-152869000D01*
X119253000Y-152710250D01*
X119253000Y-151511000D01*
X118053750Y-151511000D01*
X117895000Y-151669750D01*
X117891928Y-152234000D01*
X114430072Y-152234000D01*
X114430072Y-150284180D01*
X114417812Y-150159698D01*
X114381502Y-150040000D01*
X114322537Y-149929686D01*
X114243185Y-149832995D01*
X114146494Y-149753643D01*
X114036180Y-149694678D01*
X113916482Y-149658368D01*
X113792000Y-149646108D01*
X112268000Y-149646108D01*
X112143518Y-149658368D01*
X112023820Y-149694678D01*
X111913506Y-149753643D01*
X111816815Y-149832995D01*
X111737463Y-149929686D01*
X111678498Y-150040000D01*
X111642188Y-150159698D01*
X111633809Y-150244776D01*
X111581006Y-150164451D01*
X111388026Y-149968548D01*
X111160535Y-149814058D01*
X110907276Y-149706918D01*
X110833070Y-149691960D01*
X110617000Y-149814460D01*
X110363000Y-149814460D01*
X110146930Y-149691960D01*
X110072724Y-149706918D01*
X109819465Y-149814058D01*
X109591974Y-149968548D01*
X109398994Y-150164451D01*
X109247941Y-150394238D01*
X109221038Y-150460593D01*
X109117183Y-150266293D01*
X108942608Y-150053572D01*
X108729887Y-149878997D01*
X108487195Y-149749276D01*
X108223860Y-149669394D01*
X107950000Y-149642421D01*
X107676141Y-149669394D01*
X107412806Y-149749276D01*
X107170114Y-149878997D01*
X106957393Y-150053572D01*
X106782817Y-150266293D01*
X106653096Y-150508985D01*
X106573214Y-150772320D01*
X106553000Y-150977555D01*
X104800000Y-150977555D01*
X104800000Y-87364000D01*
X105799928Y-87364000D01*
X105812188Y-87488482D01*
X105848498Y-87608180D01*
X105907463Y-87718494D01*
X105986815Y-87815185D01*
X106083506Y-87894537D01*
X106193820Y-87953502D01*
X106313518Y-87989812D01*
X106438000Y-88002072D01*
X106902250Y-87999000D01*
X107061000Y-87840250D01*
X107061000Y-86741000D01*
X105961750Y-86741000D01*
X105803000Y-86899750D01*
X105799928Y-87364000D01*
X104800000Y-87364000D01*
X104800000Y-85864000D01*
X105799928Y-85864000D01*
X105803000Y-86328250D01*
X105961750Y-86487000D01*
X107061000Y-86487000D01*
X107061000Y-85387750D01*
X106902250Y-85229000D01*
X106438000Y-85225928D01*
X106313518Y-85238188D01*
X106193820Y-85274498D01*
X106083506Y-85333463D01*
X105986815Y-85412815D01*
X105907463Y-85509506D01*
X105848498Y-85619820D01*
X105812188Y-85739518D01*
X105799928Y-85864000D01*
X104800000Y-85864000D01*
X104800000Y-82593726D01*
X106884654Y-84678381D01*
G36*
X122341364Y-115872995D02*
G01*
X122313000Y-116015589D01*
X122313000Y-116288411D01*
X122366225Y-116555989D01*
X122470629Y-116808043D01*
X122622201Y-117034886D01*
X122815114Y-117227799D01*
X123041957Y-117379371D01*
X123294011Y-117483775D01*
X123561589Y-117537000D01*
X123834411Y-117537000D01*
X124038728Y-117496359D01*
X124206001Y-117663632D01*
X124206000Y-120195293D01*
X124053241Y-120297363D01*
X123853363Y-120497241D01*
X123719308Y-120697869D01*
X123704671Y-120670486D01*
X123460702Y-120598903D01*
X122647605Y-121412000D01*
X123460702Y-122225097D01*
X123704671Y-122153514D01*
X123718324Y-122124659D01*
X123853363Y-122326759D01*
X124053241Y-122526637D01*
X124288273Y-122683680D01*
X124549426Y-122791853D01*
X124826665Y-122847000D01*
X125109335Y-122847000D01*
X125386574Y-122791853D01*
X125476000Y-122754811D01*
X125476000Y-127870577D01*
X125472314Y-127908000D01*
X125476000Y-127945423D01*
X125476000Y-127945425D01*
X125487026Y-128057377D01*
X125530598Y-128201014D01*
X125530599Y-128201015D01*
X125601355Y-128333392D01*
X125640983Y-128381678D01*
X125696578Y-128449422D01*
X125725654Y-128473284D01*
X126976634Y-129724264D01*
X126963764Y-129766691D01*
X126936057Y-130048000D01*
X126963764Y-130329309D01*
X127045818Y-130599808D01*
X127179068Y-130849101D01*
X127358392Y-131067608D01*
X127576899Y-131246932D01*
X127709858Y-131318000D01*
X127576899Y-131389068D01*
X127358392Y-131568392D01*
X127179068Y-131786899D01*
X127158168Y-131826000D01*
X126807631Y-131826000D01*
X122851460Y-127869829D01*
X123107727Y-127763680D01*
X123342759Y-127606637D01*
X123542637Y-127406759D01*
X123699680Y-127171727D01*
X123807853Y-126910574D01*
X123863000Y-126633335D01*
X123863000Y-126350665D01*
X123807853Y-126073426D01*
X123699680Y-125812273D01*
X123542637Y-125577241D01*
X123342759Y-125377363D01*
X123107727Y-125220320D01*
X122846574Y-125112147D01*
X122569335Y-125057000D01*
X122286665Y-125057000D01*
X122009426Y-125112147D01*
X121748273Y-125220320D01*
X121513241Y-125377363D01*
X121313363Y-125577241D01*
X121156320Y-125812273D01*
X121050171Y-126068541D01*
X120907010Y-125925380D01*
X120907010Y-122576433D01*
X120910696Y-122539010D01*
X120900118Y-122431608D01*
X120897469Y-122404702D01*
X121654903Y-122404702D01*
X121726486Y-122648671D01*
X121981996Y-122769571D01*
X122256184Y-122838300D01*
X122538512Y-122852217D01*
X122818130Y-122810787D01*
X123084292Y-122715603D01*
X123209514Y-122648671D01*
X123281097Y-122404702D01*
X122468000Y-121591605D01*
X121654903Y-122404702D01*
X120897469Y-122404702D01*
X120895984Y-122389632D01*
X120852412Y-122245995D01*
X120813930Y-122174000D01*
X120781655Y-122113617D01*
X120710289Y-122026658D01*
X120686432Y-121997588D01*
X120657362Y-121973731D01*
X120419366Y-121735735D01*
X120432236Y-121693309D01*
X120452998Y-121482512D01*
X121027783Y-121482512D01*
X121069213Y-121762130D01*
X121164397Y-122028292D01*
X121231329Y-122153514D01*
X121475298Y-122225097D01*
X122288395Y-121412000D01*
X121475298Y-120598903D01*
X121231329Y-120670486D01*
X121110429Y-120925996D01*
X121041700Y-121200184D01*
X121027783Y-121482512D01*
X120452998Y-121482512D01*
X120459943Y-121412000D01*
X120432236Y-121130691D01*
X120350182Y-120860192D01*
X120216932Y-120610899D01*
X120059690Y-120419298D01*
X121654903Y-120419298D01*
X122468000Y-121232395D01*
X123281097Y-120419298D01*
X123209514Y-120175329D01*
X122954004Y-120054429D01*
X122679816Y-119985700D01*
X122397488Y-119971783D01*
X122117870Y-120013213D01*
X121851708Y-120108397D01*
X121726486Y-120175329D01*
X121654903Y-120419298D01*
X120059690Y-120419298D01*
X120037608Y-120392392D01*
X119819101Y-120213068D01*
X119686142Y-120142000D01*
X119819101Y-120070932D01*
X120037608Y-119891608D01*
X120216932Y-119673101D01*
X120350182Y-119423808D01*
X120432236Y-119153309D01*
X120459943Y-118872000D01*
X120432236Y-118590691D01*
X120350182Y-118320192D01*
X120216932Y-118070899D01*
X120037608Y-117852392D01*
X119819101Y-117673068D01*
X119691259Y-117604735D01*
X119920839Y-117454601D01*
X120122500Y-117256895D01*
X120281715Y-117023646D01*
X120392367Y-116763818D01*
X120409904Y-116681039D01*
X120287915Y-116459000D01*
X118745000Y-116459000D01*
X118745000Y-116479000D01*
X118491000Y-116479000D01*
X118491000Y-116459000D01*
X118471000Y-116459000D01*
X118471000Y-116205000D01*
X118491000Y-116205000D01*
X118491000Y-116185000D01*
X118745000Y-116185000D01*
X118745000Y-116205000D01*
X120287915Y-116205000D01*
X120409904Y-115982961D01*
X120392367Y-115900182D01*
X120281715Y-115640354D01*
X120122500Y-115407105D01*
X119920839Y-115209399D01*
X119691259Y-115059265D01*
X119819101Y-114990932D01*
X120037608Y-114811608D01*
X120216932Y-114593101D01*
X120237832Y-114554000D01*
X121022370Y-114554000D01*
X122341364Y-115872995D01*
X122341364Y-115872995D01*
G37*
X122341364Y-115872995D02*
X122313000Y-116015589D01*
X122313000Y-116288411D01*
X122366225Y-116555989D01*
X122470629Y-116808043D01*
X122622201Y-117034886D01*
X122815114Y-117227799D01*
X123041957Y-117379371D01*
X123294011Y-117483775D01*
X123561589Y-117537000D01*
X123834411Y-117537000D01*
X124038728Y-117496359D01*
X124206001Y-117663632D01*
X124206000Y-120195293D01*
X124053241Y-120297363D01*
X123853363Y-120497241D01*
X123719308Y-120697869D01*
X123704671Y-120670486D01*
X123460702Y-120598903D01*
X122647605Y-121412000D01*
X123460702Y-122225097D01*
X123704671Y-122153514D01*
X123718324Y-122124659D01*
X123853363Y-122326759D01*
X124053241Y-122526637D01*
X124288273Y-122683680D01*
X124549426Y-122791853D01*
X124826665Y-122847000D01*
X125109335Y-122847000D01*
X125386574Y-122791853D01*
X125476000Y-122754811D01*
X125476000Y-127870577D01*
X125472314Y-127908000D01*
X125476000Y-127945423D01*
X125476000Y-127945425D01*
X125487026Y-128057377D01*
X125530598Y-128201014D01*
X125530599Y-128201015D01*
X125601355Y-128333392D01*
X125640983Y-128381678D01*
X125696578Y-128449422D01*
X125725654Y-128473284D01*
X126976634Y-129724264D01*
X126963764Y-129766691D01*
X126936057Y-130048000D01*
X126963764Y-130329309D01*
X127045818Y-130599808D01*
X127179068Y-130849101D01*
X127358392Y-131067608D01*
X127576899Y-131246932D01*
X127709858Y-131318000D01*
X127576899Y-131389068D01*
X127358392Y-131568392D01*
X127179068Y-131786899D01*
X127158168Y-131826000D01*
X126807631Y-131826000D01*
X122851460Y-127869829D01*
X123107727Y-127763680D01*
X123342759Y-127606637D01*
X123542637Y-127406759D01*
X123699680Y-127171727D01*
X123807853Y-126910574D01*
X123863000Y-126633335D01*
X123863000Y-126350665D01*
X123807853Y-126073426D01*
X123699680Y-125812273D01*
X123542637Y-125577241D01*
X123342759Y-125377363D01*
X123107727Y-125220320D01*
X122846574Y-125112147D01*
X122569335Y-125057000D01*
X122286665Y-125057000D01*
X122009426Y-125112147D01*
X121748273Y-125220320D01*
X121513241Y-125377363D01*
X121313363Y-125577241D01*
X121156320Y-125812273D01*
X121050171Y-126068541D01*
X120907010Y-125925380D01*
X120907010Y-122576433D01*
X120910696Y-122539010D01*
X120900118Y-122431608D01*
X120897469Y-122404702D01*
X121654903Y-122404702D01*
X121726486Y-122648671D01*
X121981996Y-122769571D01*
X122256184Y-122838300D01*
X122538512Y-122852217D01*
X122818130Y-122810787D01*
X123084292Y-122715603D01*
X123209514Y-122648671D01*
X123281097Y-122404702D01*
X122468000Y-121591605D01*
X121654903Y-122404702D01*
X120897469Y-122404702D01*
X120895984Y-122389632D01*
X120852412Y-122245995D01*
X120813930Y-122174000D01*
X120781655Y-122113617D01*
X120710289Y-122026658D01*
X120686432Y-121997588D01*
X120657362Y-121973731D01*
X120419366Y-121735735D01*
X120432236Y-121693309D01*
X120452998Y-121482512D01*
X121027783Y-121482512D01*
X121069213Y-121762130D01*
X121164397Y-122028292D01*
X121231329Y-122153514D01*
X121475298Y-122225097D01*
X122288395Y-121412000D01*
X121475298Y-120598903D01*
X121231329Y-120670486D01*
X121110429Y-120925996D01*
X121041700Y-121200184D01*
X121027783Y-121482512D01*
X120452998Y-121482512D01*
X120459943Y-121412000D01*
X120432236Y-121130691D01*
X120350182Y-120860192D01*
X120216932Y-120610899D01*
X120059690Y-120419298D01*
X121654903Y-120419298D01*
X122468000Y-121232395D01*
X123281097Y-120419298D01*
X123209514Y-120175329D01*
X122954004Y-120054429D01*
X122679816Y-119985700D01*
X122397488Y-119971783D01*
X122117870Y-120013213D01*
X121851708Y-120108397D01*
X121726486Y-120175329D01*
X121654903Y-120419298D01*
X120059690Y-120419298D01*
X120037608Y-120392392D01*
X119819101Y-120213068D01*
X119686142Y-120142000D01*
X119819101Y-120070932D01*
X120037608Y-119891608D01*
X120216932Y-119673101D01*
X120350182Y-119423808D01*
X120432236Y-119153309D01*
X120459943Y-118872000D01*
X120432236Y-118590691D01*
X120350182Y-118320192D01*
X120216932Y-118070899D01*
X120037608Y-117852392D01*
X119819101Y-117673068D01*
X119691259Y-117604735D01*
X119920839Y-117454601D01*
X120122500Y-117256895D01*
X120281715Y-117023646D01*
X120392367Y-116763818D01*
X120409904Y-116681039D01*
X120287915Y-116459000D01*
X118745000Y-116459000D01*
X118745000Y-116479000D01*
X118491000Y-116479000D01*
X118491000Y-116459000D01*
X118471000Y-116459000D01*
X118471000Y-116205000D01*
X118491000Y-116205000D01*
X118491000Y-116185000D01*
X118745000Y-116185000D01*
X118745000Y-116205000D01*
X120287915Y-116205000D01*
X120409904Y-115982961D01*
X120392367Y-115900182D01*
X120281715Y-115640354D01*
X120122500Y-115407105D01*
X119920839Y-115209399D01*
X119691259Y-115059265D01*
X119819101Y-114990932D01*
X120037608Y-114811608D01*
X120216932Y-114593101D01*
X120237832Y-114554000D01*
X121022370Y-114554000D01*
X122341364Y-115872995D01*
G36*
X130312635Y-73410346D02*
G01*
X130336497Y-73439422D01*
X130376953Y-73472623D01*
X130452526Y-73534645D01*
X130523283Y-73572465D01*
X130584904Y-73605402D01*
X130728541Y-73648974D01*
X130801417Y-73656151D01*
X130839294Y-73727014D01*
X131024866Y-73953134D01*
X131250986Y-74138706D01*
X131305791Y-74168000D01*
X131250986Y-74197294D01*
X131024866Y-74382866D01*
X130839294Y-74608986D01*
X130701401Y-74866966D01*
X130616487Y-75146889D01*
X130587815Y-75438000D01*
X130616487Y-75729111D01*
X130701401Y-76009034D01*
X130839294Y-76267014D01*
X131024866Y-76493134D01*
X131250986Y-76678706D01*
X131305791Y-76708000D01*
X131250986Y-76737294D01*
X131024866Y-76922866D01*
X130839294Y-77148986D01*
X130701401Y-77406966D01*
X130616487Y-77686889D01*
X130587815Y-77978000D01*
X130616487Y-78269111D01*
X130701401Y-78549034D01*
X130839294Y-78807014D01*
X131024866Y-79033134D01*
X131250986Y-79218706D01*
X131305791Y-79248000D01*
X131250986Y-79277294D01*
X131024866Y-79462866D01*
X130839294Y-79688986D01*
X130701401Y-79946966D01*
X130616487Y-80226889D01*
X130587815Y-80518000D01*
X130616487Y-80809111D01*
X130701401Y-81089034D01*
X130839294Y-81347014D01*
X131024866Y-81573134D01*
X131250986Y-81758706D01*
X131305791Y-81788000D01*
X131250986Y-81817294D01*
X131024866Y-82002866D01*
X130839294Y-82228986D01*
X130701401Y-82486966D01*
X130616487Y-82766889D01*
X130587815Y-83058000D01*
X130616487Y-83349111D01*
X130701401Y-83629034D01*
X130839294Y-83887014D01*
X131024866Y-84113134D01*
X131250986Y-84298706D01*
X131305791Y-84328000D01*
X131250986Y-84357294D01*
X131024866Y-84542866D01*
X130839294Y-84768986D01*
X130701401Y-85026966D01*
X130616487Y-85306889D01*
X130587815Y-85598000D01*
X130616487Y-85889111D01*
X130701401Y-86169034D01*
X130839294Y-86427014D01*
X131024866Y-86653134D01*
X131250986Y-86838706D01*
X131305791Y-86868000D01*
X131250986Y-86897294D01*
X131024866Y-87082866D01*
X130839294Y-87308986D01*
X130701401Y-87566966D01*
X130616487Y-87846889D01*
X130587815Y-88138000D01*
X130616487Y-88429111D01*
X130701401Y-88709034D01*
X130839294Y-88967014D01*
X131024866Y-89193134D01*
X131250986Y-89378706D01*
X131508966Y-89516599D01*
X131788889Y-89601513D01*
X132007050Y-89623000D01*
X132152950Y-89623000D01*
X132371111Y-89601513D01*
X132651034Y-89516599D01*
X132909014Y-89378706D01*
X133135134Y-89193134D01*
X133159607Y-89163313D01*
X133180498Y-89232180D01*
X133239463Y-89342494D01*
X133318815Y-89439185D01*
X133415506Y-89518537D01*
X133525820Y-89577502D01*
X133645518Y-89613812D01*
X133770000Y-89626072D01*
X133858000Y-89626072D01*
X133858001Y-96712368D01*
X133345653Y-97224716D01*
X133316578Y-97248578D01*
X133280101Y-97293026D01*
X133221355Y-97364608D01*
X133198507Y-97407355D01*
X133150598Y-97496986D01*
X133107026Y-97640623D01*
X133096157Y-97750985D01*
X133092314Y-97790000D01*
X133096000Y-97827423D01*
X133096001Y-116016369D01*
X131764370Y-117348000D01*
X130397832Y-117348000D01*
X130376932Y-117308899D01*
X130197608Y-117090392D01*
X129979101Y-116911068D01*
X129846142Y-116840000D01*
X129979101Y-116768932D01*
X130197608Y-116589608D01*
X130376932Y-116371101D01*
X130510182Y-116121808D01*
X130592236Y-115851309D01*
X130619943Y-115570000D01*
X130592236Y-115288691D01*
X130510182Y-115018192D01*
X130376932Y-114768899D01*
X130197608Y-114550392D01*
X129979101Y-114371068D01*
X129846142Y-114300000D01*
X129979101Y-114228932D01*
X130197608Y-114049608D01*
X130376932Y-113831101D01*
X130510182Y-113581808D01*
X130592236Y-113311309D01*
X130619943Y-113030000D01*
X130592236Y-112748691D01*
X130510182Y-112478192D01*
X130376932Y-112228899D01*
X130197608Y-112010392D01*
X129979101Y-111831068D01*
X129846142Y-111760000D01*
X129979101Y-111688932D01*
X130197608Y-111509608D01*
X130376932Y-111291101D01*
X130510182Y-111041808D01*
X130592236Y-110771309D01*
X130619943Y-110490000D01*
X130592236Y-110208691D01*
X130510182Y-109938192D01*
X130376932Y-109688899D01*
X130197608Y-109470392D01*
X129979101Y-109291068D01*
X129851259Y-109222735D01*
X130080839Y-109072601D01*
X130282500Y-108874895D01*
X130441715Y-108641646D01*
X130552367Y-108381818D01*
X130569904Y-108299039D01*
X130447915Y-108077000D01*
X128905000Y-108077000D01*
X128905000Y-108097000D01*
X128651000Y-108097000D01*
X128651000Y-108077000D01*
X128631000Y-108077000D01*
X128631000Y-107823000D01*
X128651000Y-107823000D01*
X128651000Y-107803000D01*
X128905000Y-107803000D01*
X128905000Y-107823000D01*
X130447915Y-107823000D01*
X130569904Y-107600961D01*
X130552367Y-107518182D01*
X130441715Y-107258354D01*
X130282500Y-107025105D01*
X130080839Y-106827399D01*
X129851259Y-106677265D01*
X129979101Y-106608932D01*
X130197608Y-106429608D01*
X130376932Y-106211101D01*
X130510182Y-105961808D01*
X130592236Y-105691309D01*
X130619943Y-105410000D01*
X130592236Y-105128691D01*
X130510182Y-104858192D01*
X130376932Y-104608899D01*
X130197608Y-104390392D01*
X129979101Y-104211068D01*
X129846142Y-104140000D01*
X129979101Y-104068932D01*
X130197608Y-103889608D01*
X130376932Y-103671101D01*
X130510182Y-103421808D01*
X130592236Y-103151309D01*
X130619943Y-102870000D01*
X130592236Y-102588691D01*
X130510182Y-102318192D01*
X130376932Y-102068899D01*
X130197608Y-101850392D01*
X129979101Y-101671068D01*
X129846142Y-101600000D01*
X129979101Y-101528932D01*
X130197608Y-101349608D01*
X130376932Y-101131101D01*
X130510182Y-100881808D01*
X130592236Y-100611309D01*
X130619943Y-100330000D01*
X130592236Y-100048691D01*
X130510182Y-99778192D01*
X130376932Y-99528899D01*
X130197608Y-99310392D01*
X129979101Y-99131068D01*
X129729808Y-98997818D01*
X129459309Y-98915764D01*
X129248492Y-98895000D01*
X128307508Y-98895000D01*
X128096691Y-98915764D01*
X127826192Y-98997818D01*
X127576899Y-99131068D01*
X127358392Y-99310392D01*
X127179068Y-99528899D01*
X127045818Y-99778192D01*
X126963764Y-100048691D01*
X126936057Y-100330000D01*
X126963764Y-100611309D01*
X127045818Y-100881808D01*
X127179068Y-101131101D01*
X127358392Y-101349608D01*
X127576899Y-101528932D01*
X127709858Y-101600000D01*
X127576899Y-101671068D01*
X127358392Y-101850392D01*
X127179068Y-102068899D01*
X127045818Y-102318192D01*
X126963764Y-102588691D01*
X126936057Y-102870000D01*
X126963764Y-103151309D01*
X127045818Y-103421808D01*
X127179068Y-103671101D01*
X127358392Y-103889608D01*
X127576899Y-104068932D01*
X127709858Y-104140000D01*
X127576899Y-104211068D01*
X127358392Y-104390392D01*
X127179068Y-104608899D01*
X127124542Y-104710911D01*
X122993284Y-100579654D01*
X122969422Y-100550578D01*
X122853392Y-100455355D01*
X122721015Y-100384598D01*
X122577378Y-100341026D01*
X122465426Y-100330000D01*
X122465423Y-100330000D01*
X122428000Y-100326314D01*
X122390577Y-100330000D01*
X120237832Y-100330000D01*
X120216932Y-100290899D01*
X120037608Y-100072392D01*
X119819101Y-99893068D01*
X119569808Y-99759818D01*
X119299309Y-99677764D01*
X119088492Y-99657000D01*
X118147508Y-99657000D01*
X117936691Y-99677764D01*
X117852990Y-99703154D01*
X117852990Y-98616640D01*
X118294264Y-98175366D01*
X118336691Y-98188236D01*
X118547508Y-98209000D01*
X118688492Y-98209000D01*
X118899309Y-98188236D01*
X119169808Y-98106182D01*
X119419101Y-97972932D01*
X119637608Y-97793608D01*
X119816932Y-97575101D01*
X119950182Y-97325808D01*
X120032236Y-97055309D01*
X120059943Y-96774000D01*
X120032236Y-96492691D01*
X119950182Y-96222192D01*
X119816932Y-95972899D01*
X119637608Y-95754392D01*
X119419101Y-95575068D01*
X119169808Y-95441818D01*
X118899309Y-95359764D01*
X118688492Y-95339000D01*
X118547508Y-95339000D01*
X118336691Y-95359764D01*
X118066192Y-95441818D01*
X117880624Y-95541006D01*
X118294264Y-95127366D01*
X118336691Y-95140236D01*
X118547508Y-95161000D01*
X118688492Y-95161000D01*
X118899309Y-95140236D01*
X119169808Y-95058182D01*
X119419101Y-94924932D01*
X119637608Y-94745608D01*
X119816932Y-94527101D01*
X119950182Y-94277808D01*
X120032236Y-94007309D01*
X120059943Y-93726000D01*
X120032236Y-93444691D01*
X119950182Y-93174192D01*
X119816932Y-92924899D01*
X119637608Y-92706392D01*
X119419101Y-92527068D01*
X119169808Y-92393818D01*
X118899309Y-92311764D01*
X118688492Y-92291000D01*
X118547508Y-92291000D01*
X118336691Y-92311764D01*
X118066192Y-92393818D01*
X117880624Y-92493006D01*
X118294264Y-92079366D01*
X118336691Y-92092236D01*
X118547508Y-92113000D01*
X118688492Y-92113000D01*
X118899309Y-92092236D01*
X119169808Y-92010182D01*
X119419101Y-91876932D01*
X119637608Y-91697608D01*
X119816932Y-91479101D01*
X119950182Y-91229808D01*
X120032236Y-90959309D01*
X120059943Y-90678000D01*
X120032236Y-90396691D01*
X119950182Y-90126192D01*
X119816932Y-89876899D01*
X119640569Y-89662000D01*
X122136577Y-89662000D01*
X122174000Y-89665686D01*
X122211423Y-89662000D01*
X122211426Y-89662000D01*
X122323378Y-89650974D01*
X122467015Y-89607402D01*
X122599392Y-89536645D01*
X122715422Y-89441422D01*
X122739284Y-89412346D01*
X124180995Y-87970636D01*
X124323589Y-87999000D01*
X124596411Y-87999000D01*
X124863989Y-87945775D01*
X125116043Y-87841371D01*
X125342886Y-87689799D01*
X125535799Y-87496886D01*
X125687371Y-87270043D01*
X125730000Y-87167127D01*
X125772629Y-87270043D01*
X125924201Y-87496886D01*
X126117114Y-87689799D01*
X126343957Y-87841371D01*
X126596011Y-87945775D01*
X126863589Y-87999000D01*
X127136411Y-87999000D01*
X127315002Y-87963476D01*
X127315002Y-88523367D01*
X126559527Y-89278843D01*
X126379335Y-89243000D01*
X126096665Y-89243000D01*
X125819426Y-89298147D01*
X125558273Y-89406320D01*
X125323241Y-89563363D01*
X125123363Y-89763241D01*
X124966320Y-89998273D01*
X124858147Y-90259426D01*
X124803000Y-90536665D01*
X124803000Y-90819335D01*
X124858147Y-91096574D01*
X124966320Y-91357727D01*
X125123363Y-91592759D01*
X125323241Y-91792637D01*
X125558273Y-91949680D01*
X125819426Y-92057853D01*
X126096665Y-92113000D01*
X126379335Y-92113000D01*
X126656574Y-92057853D01*
X126917727Y-91949680D01*
X126974874Y-91911496D01*
X126559527Y-92326843D01*
X126379335Y-92291000D01*
X126096665Y-92291000D01*
X125819426Y-92346147D01*
X125558273Y-92454320D01*
X125323241Y-92611363D01*
X125123363Y-92811241D01*
X124966320Y-93046273D01*
X124858147Y-93307426D01*
X124803000Y-93584665D01*
X124803000Y-93867335D01*
X124858147Y-94144574D01*
X124966320Y-94405727D01*
X125123363Y-94640759D01*
X125323241Y-94840637D01*
X125558273Y-94997680D01*
X125819426Y-95105853D01*
X126096665Y-95161000D01*
X126379335Y-95161000D01*
X126656574Y-95105853D01*
X126917727Y-94997680D01*
X126974873Y-94959497D01*
X126559527Y-95374843D01*
X126379335Y-95339000D01*
X126096665Y-95339000D01*
X125819426Y-95394147D01*
X125558273Y-95502320D01*
X125323241Y-95659363D01*
X125123363Y-95859241D01*
X124966320Y-96094273D01*
X124858147Y-96355426D01*
X124803000Y-96632665D01*
X124803000Y-96915335D01*
X124858147Y-97192574D01*
X124966320Y-97453727D01*
X125123363Y-97688759D01*
X125323241Y-97888637D01*
X125558273Y-98045680D01*
X125819426Y-98153853D01*
X126096665Y-98209000D01*
X126379335Y-98209000D01*
X126656574Y-98153853D01*
X126917727Y-98045680D01*
X127152759Y-97888637D01*
X127352637Y-97688759D01*
X127509680Y-97453727D01*
X127617853Y-97192574D01*
X127673000Y-96915335D01*
X127673000Y-96632665D01*
X127637157Y-96452473D01*
X129497373Y-94592258D01*
X129526443Y-94568401D01*
X129621666Y-94452371D01*
X129692423Y-94319994D01*
X129735995Y-94176357D01*
X129747021Y-94064405D01*
X129747021Y-94064403D01*
X129750707Y-94026980D01*
X129747021Y-93989557D01*
X129747021Y-85588443D01*
X129750707Y-85551020D01*
X129741781Y-85460394D01*
X129735995Y-85401643D01*
X129692423Y-85258006D01*
X129621666Y-85125629D01*
X129526443Y-85009599D01*
X129497374Y-84985743D01*
X126818440Y-82306810D01*
X126873000Y-82252250D01*
X126873000Y-81153000D01*
X127127000Y-81153000D01*
X127127000Y-82252250D01*
X127285750Y-82411000D01*
X127750000Y-82414072D01*
X127874482Y-82401812D01*
X127994180Y-82365502D01*
X128104494Y-82306537D01*
X128201185Y-82227185D01*
X128280537Y-82130494D01*
X128339502Y-82020180D01*
X128375812Y-81900482D01*
X128388072Y-81776000D01*
X128385000Y-81311750D01*
X128226250Y-81153000D01*
X127127000Y-81153000D01*
X126873000Y-81153000D01*
X126853000Y-81153000D01*
X126853000Y-80899000D01*
X126873000Y-80899000D01*
X126873000Y-79799750D01*
X127127000Y-79799750D01*
X127127000Y-80899000D01*
X128226250Y-80899000D01*
X128385000Y-80740250D01*
X128388072Y-80276000D01*
X128375812Y-80151518D01*
X128339502Y-80031820D01*
X128280537Y-79921506D01*
X128201185Y-79824815D01*
X128104494Y-79745463D01*
X127994180Y-79686498D01*
X127874482Y-79650188D01*
X127750000Y-79637928D01*
X127285750Y-79641000D01*
X127127000Y-79799750D01*
X126873000Y-79799750D01*
X126714250Y-79641000D01*
X126250000Y-79637928D01*
X126125518Y-79650188D01*
X126005820Y-79686498D01*
X125895506Y-79745463D01*
X125798815Y-79824815D01*
X125719463Y-79921506D01*
X125660498Y-80031820D01*
X125624188Y-80151518D01*
X125613555Y-80259483D01*
X125535799Y-80143114D01*
X125342886Y-79950201D01*
X125116043Y-79798629D01*
X124863989Y-79694225D01*
X124596411Y-79641000D01*
X124382631Y-79641000D01*
X125784161Y-78239470D01*
X125801068Y-78271101D01*
X125980392Y-78489608D01*
X126198899Y-78668932D01*
X126448192Y-78802182D01*
X126718691Y-78884236D01*
X126929508Y-78905000D01*
X127070492Y-78905000D01*
X127281309Y-78884236D01*
X127551808Y-78802182D01*
X127801101Y-78668932D01*
X128019608Y-78489608D01*
X128198932Y-78271101D01*
X128332182Y-78021808D01*
X128414236Y-77751309D01*
X128441943Y-77470000D01*
X128414236Y-77188691D01*
X128332182Y-76918192D01*
X128198932Y-76668899D01*
X128019608Y-76450392D01*
X127801101Y-76271068D01*
X127551808Y-76137818D01*
X127281309Y-76055764D01*
X127070492Y-76035000D01*
X126929508Y-76035000D01*
X126718691Y-76055764D01*
X126448192Y-76137818D01*
X126262625Y-76237006D01*
X126676265Y-75823366D01*
X126718691Y-75836236D01*
X126929508Y-75857000D01*
X127070492Y-75857000D01*
X127281309Y-75836236D01*
X127551808Y-75754182D01*
X127801101Y-75620932D01*
X128019608Y-75441608D01*
X128198932Y-75223101D01*
X128332182Y-74973808D01*
X128414236Y-74703309D01*
X128441943Y-74422000D01*
X128414236Y-74140691D01*
X128332182Y-73870192D01*
X128198932Y-73620899D01*
X128019608Y-73402392D01*
X127801101Y-73223068D01*
X127551808Y-73089818D01*
X127418309Y-73049322D01*
X127512352Y-72955279D01*
X127541422Y-72931422D01*
X127636645Y-72815392D01*
X127707402Y-72683015D01*
X127729125Y-72611404D01*
X127801101Y-72572932D01*
X128019608Y-72393608D01*
X128198932Y-72175101D01*
X128332182Y-71925808D01*
X128414236Y-71655309D01*
X128427090Y-71524801D01*
X130312635Y-73410346D01*
X130312635Y-73410346D01*
G37*
X130312635Y-73410346D02*
X130336497Y-73439422D01*
X130376953Y-73472623D01*
X130452526Y-73534645D01*
X130523283Y-73572465D01*
X130584904Y-73605402D01*
X130728541Y-73648974D01*
X130801417Y-73656151D01*
X130839294Y-73727014D01*
X131024866Y-73953134D01*
X131250986Y-74138706D01*
X131305791Y-74168000D01*
X131250986Y-74197294D01*
X131024866Y-74382866D01*
X130839294Y-74608986D01*
X130701401Y-74866966D01*
X130616487Y-75146889D01*
X130587815Y-75438000D01*
X130616487Y-75729111D01*
X130701401Y-76009034D01*
X130839294Y-76267014D01*
X131024866Y-76493134D01*
X131250986Y-76678706D01*
X131305791Y-76708000D01*
X131250986Y-76737294D01*
X131024866Y-76922866D01*
X130839294Y-77148986D01*
X130701401Y-77406966D01*
X130616487Y-77686889D01*
X130587815Y-77978000D01*
X130616487Y-78269111D01*
X130701401Y-78549034D01*
X130839294Y-78807014D01*
X131024866Y-79033134D01*
X131250986Y-79218706D01*
X131305791Y-79248000D01*
X131250986Y-79277294D01*
X131024866Y-79462866D01*
X130839294Y-79688986D01*
X130701401Y-79946966D01*
X130616487Y-80226889D01*
X130587815Y-80518000D01*
X130616487Y-80809111D01*
X130701401Y-81089034D01*
X130839294Y-81347014D01*
X131024866Y-81573134D01*
X131250986Y-81758706D01*
X131305791Y-81788000D01*
X131250986Y-81817294D01*
X131024866Y-82002866D01*
X130839294Y-82228986D01*
X130701401Y-82486966D01*
X130616487Y-82766889D01*
X130587815Y-83058000D01*
X130616487Y-83349111D01*
X130701401Y-83629034D01*
X130839294Y-83887014D01*
X131024866Y-84113134D01*
X131250986Y-84298706D01*
X131305791Y-84328000D01*
X131250986Y-84357294D01*
X131024866Y-84542866D01*
X130839294Y-84768986D01*
X130701401Y-85026966D01*
X130616487Y-85306889D01*
X130587815Y-85598000D01*
X130616487Y-85889111D01*
X130701401Y-86169034D01*
X130839294Y-86427014D01*
X131024866Y-86653134D01*
X131250986Y-86838706D01*
X131305791Y-86868000D01*
X131250986Y-86897294D01*
X131024866Y-87082866D01*
X130839294Y-87308986D01*
X130701401Y-87566966D01*
X130616487Y-87846889D01*
X130587815Y-88138000D01*
X130616487Y-88429111D01*
X130701401Y-88709034D01*
X130839294Y-88967014D01*
X131024866Y-89193134D01*
X131250986Y-89378706D01*
X131508966Y-89516599D01*
X131788889Y-89601513D01*
X132007050Y-89623000D01*
X132152950Y-89623000D01*
X132371111Y-89601513D01*
X132651034Y-89516599D01*
X132909014Y-89378706D01*
X133135134Y-89193134D01*
X133159607Y-89163313D01*
X133180498Y-89232180D01*
X133239463Y-89342494D01*
X133318815Y-89439185D01*
X133415506Y-89518537D01*
X133525820Y-89577502D01*
X133645518Y-89613812D01*
X133770000Y-89626072D01*
X133858000Y-89626072D01*
X133858001Y-96712368D01*
X133345653Y-97224716D01*
X133316578Y-97248578D01*
X133280101Y-97293026D01*
X133221355Y-97364608D01*
X133198507Y-97407355D01*
X133150598Y-97496986D01*
X133107026Y-97640623D01*
X133096157Y-97750985D01*
X133092314Y-97790000D01*
X133096000Y-97827423D01*
X133096001Y-116016369D01*
X131764370Y-117348000D01*
X130397832Y-117348000D01*
X130376932Y-117308899D01*
X130197608Y-117090392D01*
X129979101Y-116911068D01*
X129846142Y-116840000D01*
X129979101Y-116768932D01*
X130197608Y-116589608D01*
X130376932Y-116371101D01*
X130510182Y-116121808D01*
X130592236Y-115851309D01*
X130619943Y-115570000D01*
X130592236Y-115288691D01*
X130510182Y-115018192D01*
X130376932Y-114768899D01*
X130197608Y-114550392D01*
X129979101Y-114371068D01*
X129846142Y-114300000D01*
X129979101Y-114228932D01*
X130197608Y-114049608D01*
X130376932Y-113831101D01*
X130510182Y-113581808D01*
X130592236Y-113311309D01*
X130619943Y-113030000D01*
X130592236Y-112748691D01*
X130510182Y-112478192D01*
X130376932Y-112228899D01*
X130197608Y-112010392D01*
X129979101Y-111831068D01*
X129846142Y-111760000D01*
X129979101Y-111688932D01*
X130197608Y-111509608D01*
X130376932Y-111291101D01*
X130510182Y-111041808D01*
X130592236Y-110771309D01*
X130619943Y-110490000D01*
X130592236Y-110208691D01*
X130510182Y-109938192D01*
X130376932Y-109688899D01*
X130197608Y-109470392D01*
X129979101Y-109291068D01*
X129851259Y-109222735D01*
X130080839Y-109072601D01*
X130282500Y-108874895D01*
X130441715Y-108641646D01*
X130552367Y-108381818D01*
X130569904Y-108299039D01*
X130447915Y-108077000D01*
X128905000Y-108077000D01*
X128905000Y-108097000D01*
X128651000Y-108097000D01*
X128651000Y-108077000D01*
X128631000Y-108077000D01*
X128631000Y-107823000D01*
X128651000Y-107823000D01*
X128651000Y-107803000D01*
X128905000Y-107803000D01*
X128905000Y-107823000D01*
X130447915Y-107823000D01*
X130569904Y-107600961D01*
X130552367Y-107518182D01*
X130441715Y-107258354D01*
X130282500Y-107025105D01*
X130080839Y-106827399D01*
X129851259Y-106677265D01*
X129979101Y-106608932D01*
X130197608Y-106429608D01*
X130376932Y-106211101D01*
X130510182Y-105961808D01*
X130592236Y-105691309D01*
X130619943Y-105410000D01*
X130592236Y-105128691D01*
X130510182Y-104858192D01*
X130376932Y-104608899D01*
X130197608Y-104390392D01*
X129979101Y-104211068D01*
X129846142Y-104140000D01*
X129979101Y-104068932D01*
X130197608Y-103889608D01*
X130376932Y-103671101D01*
X130510182Y-103421808D01*
X130592236Y-103151309D01*
X130619943Y-102870000D01*
X130592236Y-102588691D01*
X130510182Y-102318192D01*
X130376932Y-102068899D01*
X130197608Y-101850392D01*
X129979101Y-101671068D01*
X129846142Y-101600000D01*
X129979101Y-101528932D01*
X130197608Y-101349608D01*
X130376932Y-101131101D01*
X130510182Y-100881808D01*
X130592236Y-100611309D01*
X130619943Y-100330000D01*
X130592236Y-100048691D01*
X130510182Y-99778192D01*
X130376932Y-99528899D01*
X130197608Y-99310392D01*
X129979101Y-99131068D01*
X129729808Y-98997818D01*
X129459309Y-98915764D01*
X129248492Y-98895000D01*
X128307508Y-98895000D01*
X128096691Y-98915764D01*
X127826192Y-98997818D01*
X127576899Y-99131068D01*
X127358392Y-99310392D01*
X127179068Y-99528899D01*
X127045818Y-99778192D01*
X126963764Y-100048691D01*
X126936057Y-100330000D01*
X126963764Y-100611309D01*
X127045818Y-100881808D01*
X127179068Y-101131101D01*
X127358392Y-101349608D01*
X127576899Y-101528932D01*
X127709858Y-101600000D01*
X127576899Y-101671068D01*
X127358392Y-101850392D01*
X127179068Y-102068899D01*
X127045818Y-102318192D01*
X126963764Y-102588691D01*
X126936057Y-102870000D01*
X126963764Y-103151309D01*
X127045818Y-103421808D01*
X127179068Y-103671101D01*
X127358392Y-103889608D01*
X127576899Y-104068932D01*
X127709858Y-104140000D01*
X127576899Y-104211068D01*
X127358392Y-104390392D01*
X127179068Y-104608899D01*
X127124542Y-104710911D01*
X122993284Y-100579654D01*
X122969422Y-100550578D01*
X122853392Y-100455355D01*
X122721015Y-100384598D01*
X122577378Y-100341026D01*
X122465426Y-100330000D01*
X122465423Y-100330000D01*
X122428000Y-100326314D01*
X122390577Y-100330000D01*
X120237832Y-100330000D01*
X120216932Y-100290899D01*
X120037608Y-100072392D01*
X119819101Y-99893068D01*
X119569808Y-99759818D01*
X119299309Y-99677764D01*
X119088492Y-99657000D01*
X118147508Y-99657000D01*
X117936691Y-99677764D01*
X117852990Y-99703154D01*
X117852990Y-98616640D01*
X118294264Y-98175366D01*
X118336691Y-98188236D01*
X118547508Y-98209000D01*
X118688492Y-98209000D01*
X118899309Y-98188236D01*
X119169808Y-98106182D01*
X119419101Y-97972932D01*
X119637608Y-97793608D01*
X119816932Y-97575101D01*
X119950182Y-97325808D01*
X120032236Y-97055309D01*
X120059943Y-96774000D01*
X120032236Y-96492691D01*
X119950182Y-96222192D01*
X119816932Y-95972899D01*
X119637608Y-95754392D01*
X119419101Y-95575068D01*
X119169808Y-95441818D01*
X118899309Y-95359764D01*
X118688492Y-95339000D01*
X118547508Y-95339000D01*
X118336691Y-95359764D01*
X118066192Y-95441818D01*
X117880624Y-95541006D01*
X118294264Y-95127366D01*
X118336691Y-95140236D01*
X118547508Y-95161000D01*
X118688492Y-95161000D01*
X118899309Y-95140236D01*
X119169808Y-95058182D01*
X119419101Y-94924932D01*
X119637608Y-94745608D01*
X119816932Y-94527101D01*
X119950182Y-94277808D01*
X120032236Y-94007309D01*
X120059943Y-93726000D01*
X120032236Y-93444691D01*
X119950182Y-93174192D01*
X119816932Y-92924899D01*
X119637608Y-92706392D01*
X119419101Y-92527068D01*
X119169808Y-92393818D01*
X118899309Y-92311764D01*
X118688492Y-92291000D01*
X118547508Y-92291000D01*
X118336691Y-92311764D01*
X118066192Y-92393818D01*
X117880624Y-92493006D01*
X118294264Y-92079366D01*
X118336691Y-92092236D01*
X118547508Y-92113000D01*
X118688492Y-92113000D01*
X118899309Y-92092236D01*
X119169808Y-92010182D01*
X119419101Y-91876932D01*
X119637608Y-91697608D01*
X119816932Y-91479101D01*
X119950182Y-91229808D01*
X120032236Y-90959309D01*
X120059943Y-90678000D01*
X120032236Y-90396691D01*
X119950182Y-90126192D01*
X119816932Y-89876899D01*
X119640569Y-89662000D01*
X122136577Y-89662000D01*
X122174000Y-89665686D01*
X122211423Y-89662000D01*
X122211426Y-89662000D01*
X122323378Y-89650974D01*
X122467015Y-89607402D01*
X122599392Y-89536645D01*
X122715422Y-89441422D01*
X122739284Y-89412346D01*
X124180995Y-87970636D01*
X124323589Y-87999000D01*
X124596411Y-87999000D01*
X124863989Y-87945775D01*
X125116043Y-87841371D01*
X125342886Y-87689799D01*
X125535799Y-87496886D01*
X125687371Y-87270043D01*
X125730000Y-87167127D01*
X125772629Y-87270043D01*
X125924201Y-87496886D01*
X126117114Y-87689799D01*
X126343957Y-87841371D01*
X126596011Y-87945775D01*
X126863589Y-87999000D01*
X127136411Y-87999000D01*
X127315002Y-87963476D01*
X127315002Y-88523367D01*
X126559527Y-89278843D01*
X126379335Y-89243000D01*
X126096665Y-89243000D01*
X125819426Y-89298147D01*
X125558273Y-89406320D01*
X125323241Y-89563363D01*
X125123363Y-89763241D01*
X124966320Y-89998273D01*
X124858147Y-90259426D01*
X124803000Y-90536665D01*
X124803000Y-90819335D01*
X124858147Y-91096574D01*
X124966320Y-91357727D01*
X125123363Y-91592759D01*
X125323241Y-91792637D01*
X125558273Y-91949680D01*
X125819426Y-92057853D01*
X126096665Y-92113000D01*
X126379335Y-92113000D01*
X126656574Y-92057853D01*
X126917727Y-91949680D01*
X126974874Y-91911496D01*
X126559527Y-92326843D01*
X126379335Y-92291000D01*
X126096665Y-92291000D01*
X125819426Y-92346147D01*
X125558273Y-92454320D01*
X125323241Y-92611363D01*
X125123363Y-92811241D01*
X124966320Y-93046273D01*
X124858147Y-93307426D01*
X124803000Y-93584665D01*
X124803000Y-93867335D01*
X124858147Y-94144574D01*
X124966320Y-94405727D01*
X125123363Y-94640759D01*
X125323241Y-94840637D01*
X125558273Y-94997680D01*
X125819426Y-95105853D01*
X126096665Y-95161000D01*
X126379335Y-95161000D01*
X126656574Y-95105853D01*
X126917727Y-94997680D01*
X126974873Y-94959497D01*
X126559527Y-95374843D01*
X126379335Y-95339000D01*
X126096665Y-95339000D01*
X125819426Y-95394147D01*
X125558273Y-95502320D01*
X125323241Y-95659363D01*
X125123363Y-95859241D01*
X124966320Y-96094273D01*
X124858147Y-96355426D01*
X124803000Y-96632665D01*
X124803000Y-96915335D01*
X124858147Y-97192574D01*
X124966320Y-97453727D01*
X125123363Y-97688759D01*
X125323241Y-97888637D01*
X125558273Y-98045680D01*
X125819426Y-98153853D01*
X126096665Y-98209000D01*
X126379335Y-98209000D01*
X126656574Y-98153853D01*
X126917727Y-98045680D01*
X127152759Y-97888637D01*
X127352637Y-97688759D01*
X127509680Y-97453727D01*
X127617853Y-97192574D01*
X127673000Y-96915335D01*
X127673000Y-96632665D01*
X127637157Y-96452473D01*
X129497373Y-94592258D01*
X129526443Y-94568401D01*
X129621666Y-94452371D01*
X129692423Y-94319994D01*
X129735995Y-94176357D01*
X129747021Y-94064405D01*
X129747021Y-94064403D01*
X129750707Y-94026980D01*
X129747021Y-93989557D01*
X129747021Y-85588443D01*
X129750707Y-85551020D01*
X129741781Y-85460394D01*
X129735995Y-85401643D01*
X129692423Y-85258006D01*
X129621666Y-85125629D01*
X129526443Y-85009599D01*
X129497374Y-84985743D01*
X126818440Y-82306810D01*
X126873000Y-82252250D01*
X126873000Y-81153000D01*
X127127000Y-81153000D01*
X127127000Y-82252250D01*
X127285750Y-82411000D01*
X127750000Y-82414072D01*
X127874482Y-82401812D01*
X127994180Y-82365502D01*
X128104494Y-82306537D01*
X128201185Y-82227185D01*
X128280537Y-82130494D01*
X128339502Y-82020180D01*
X128375812Y-81900482D01*
X128388072Y-81776000D01*
X128385000Y-81311750D01*
X128226250Y-81153000D01*
X127127000Y-81153000D01*
X126873000Y-81153000D01*
X126853000Y-81153000D01*
X126853000Y-80899000D01*
X126873000Y-80899000D01*
X126873000Y-79799750D01*
X127127000Y-79799750D01*
X127127000Y-80899000D01*
X128226250Y-80899000D01*
X128385000Y-80740250D01*
X128388072Y-80276000D01*
X128375812Y-80151518D01*
X128339502Y-80031820D01*
X128280537Y-79921506D01*
X128201185Y-79824815D01*
X128104494Y-79745463D01*
X127994180Y-79686498D01*
X127874482Y-79650188D01*
X127750000Y-79637928D01*
X127285750Y-79641000D01*
X127127000Y-79799750D01*
X126873000Y-79799750D01*
X126714250Y-79641000D01*
X126250000Y-79637928D01*
X126125518Y-79650188D01*
X126005820Y-79686498D01*
X125895506Y-79745463D01*
X125798815Y-79824815D01*
X125719463Y-79921506D01*
X125660498Y-80031820D01*
X125624188Y-80151518D01*
X125613555Y-80259483D01*
X125535799Y-80143114D01*
X125342886Y-79950201D01*
X125116043Y-79798629D01*
X124863989Y-79694225D01*
X124596411Y-79641000D01*
X124382631Y-79641000D01*
X125784161Y-78239470D01*
X125801068Y-78271101D01*
X125980392Y-78489608D01*
X126198899Y-78668932D01*
X126448192Y-78802182D01*
X126718691Y-78884236D01*
X126929508Y-78905000D01*
X127070492Y-78905000D01*
X127281309Y-78884236D01*
X127551808Y-78802182D01*
X127801101Y-78668932D01*
X128019608Y-78489608D01*
X128198932Y-78271101D01*
X128332182Y-78021808D01*
X128414236Y-77751309D01*
X128441943Y-77470000D01*
X128414236Y-77188691D01*
X128332182Y-76918192D01*
X128198932Y-76668899D01*
X128019608Y-76450392D01*
X127801101Y-76271068D01*
X127551808Y-76137818D01*
X127281309Y-76055764D01*
X127070492Y-76035000D01*
X126929508Y-76035000D01*
X126718691Y-76055764D01*
X126448192Y-76137818D01*
X126262625Y-76237006D01*
X126676265Y-75823366D01*
X126718691Y-75836236D01*
X126929508Y-75857000D01*
X127070492Y-75857000D01*
X127281309Y-75836236D01*
X127551808Y-75754182D01*
X127801101Y-75620932D01*
X128019608Y-75441608D01*
X128198932Y-75223101D01*
X128332182Y-74973808D01*
X128414236Y-74703309D01*
X128441943Y-74422000D01*
X128414236Y-74140691D01*
X128332182Y-73870192D01*
X128198932Y-73620899D01*
X128019608Y-73402392D01*
X127801101Y-73223068D01*
X127551808Y-73089818D01*
X127418309Y-73049322D01*
X127512352Y-72955279D01*
X127541422Y-72931422D01*
X127636645Y-72815392D01*
X127707402Y-72683015D01*
X127729125Y-72611404D01*
X127801101Y-72572932D01*
X128019608Y-72393608D01*
X128198932Y-72175101D01*
X128332182Y-71925808D01*
X128414236Y-71655309D01*
X128427090Y-71524801D01*
X130312635Y-73410346D01*
G36*
X124364935Y-104868566D02*
G01*
X124288273Y-104900320D01*
X124053241Y-105057363D01*
X123853363Y-105257241D01*
X123719308Y-105457869D01*
X123704671Y-105430486D01*
X123460702Y-105358903D01*
X122647605Y-106172000D01*
X123460702Y-106985097D01*
X123704671Y-106913514D01*
X123718324Y-106884659D01*
X123853363Y-107086759D01*
X124053241Y-107286637D01*
X124206000Y-107388707D01*
X124206001Y-109666368D01*
X123977005Y-109895364D01*
X123834411Y-109867000D01*
X123561589Y-109867000D01*
X123294011Y-109920225D01*
X123041957Y-110024629D01*
X122815114Y-110176201D01*
X122622201Y-110369114D01*
X122541427Y-110490000D01*
X120237832Y-110490000D01*
X120216932Y-110450899D01*
X120037608Y-110232392D01*
X119819101Y-110053068D01*
X119686142Y-109982000D01*
X119819101Y-109910932D01*
X120037608Y-109731608D01*
X120216932Y-109513101D01*
X120350182Y-109263808D01*
X120432236Y-108993309D01*
X120459943Y-108712000D01*
X120432236Y-108430691D01*
X120350182Y-108160192D01*
X120216932Y-107910899D01*
X120037608Y-107692392D01*
X119819101Y-107513068D01*
X119686142Y-107442000D01*
X119819101Y-107370932D01*
X120037608Y-107191608D01*
X120059689Y-107164702D01*
X121654903Y-107164702D01*
X121726486Y-107408671D01*
X121981996Y-107529571D01*
X122256184Y-107598300D01*
X122538512Y-107612217D01*
X122818130Y-107570787D01*
X123084292Y-107475603D01*
X123209514Y-107408671D01*
X123281097Y-107164702D01*
X122468000Y-106351605D01*
X121654903Y-107164702D01*
X120059689Y-107164702D01*
X120216932Y-106973101D01*
X120350182Y-106723808D01*
X120432236Y-106453309D01*
X120452998Y-106242512D01*
X121027783Y-106242512D01*
X121069213Y-106522130D01*
X121164397Y-106788292D01*
X121231329Y-106913514D01*
X121475298Y-106985097D01*
X122288395Y-106172000D01*
X121475298Y-105358903D01*
X121231329Y-105430486D01*
X121110429Y-105685996D01*
X121041700Y-105960184D01*
X121027783Y-106242512D01*
X120452998Y-106242512D01*
X120459943Y-106172000D01*
X120432236Y-105890691D01*
X120350182Y-105620192D01*
X120216932Y-105370899D01*
X120059690Y-105179298D01*
X121654903Y-105179298D01*
X122468000Y-105992395D01*
X123281097Y-105179298D01*
X123209514Y-104935329D01*
X122954004Y-104814429D01*
X122679816Y-104745700D01*
X122397488Y-104731783D01*
X122117870Y-104773213D01*
X121851708Y-104868397D01*
X121726486Y-104935329D01*
X121654903Y-105179298D01*
X120059690Y-105179298D01*
X120037608Y-105152392D01*
X119819101Y-104973068D01*
X119686142Y-104902000D01*
X119819101Y-104830932D01*
X120037608Y-104651608D01*
X120216932Y-104433101D01*
X120237832Y-104394000D01*
X123890370Y-104394000D01*
X124364935Y-104868566D01*
X124364935Y-104868566D01*
G37*
X124364935Y-104868566D02*
X124288273Y-104900320D01*
X124053241Y-105057363D01*
X123853363Y-105257241D01*
X123719308Y-105457869D01*
X123704671Y-105430486D01*
X123460702Y-105358903D01*
X122647605Y-106172000D01*
X123460702Y-106985097D01*
X123704671Y-106913514D01*
X123718324Y-106884659D01*
X123853363Y-107086759D01*
X124053241Y-107286637D01*
X124206000Y-107388707D01*
X124206001Y-109666368D01*
X123977005Y-109895364D01*
X123834411Y-109867000D01*
X123561589Y-109867000D01*
X123294011Y-109920225D01*
X123041957Y-110024629D01*
X122815114Y-110176201D01*
X122622201Y-110369114D01*
X122541427Y-110490000D01*
X120237832Y-110490000D01*
X120216932Y-110450899D01*
X120037608Y-110232392D01*
X119819101Y-110053068D01*
X119686142Y-109982000D01*
X119819101Y-109910932D01*
X120037608Y-109731608D01*
X120216932Y-109513101D01*
X120350182Y-109263808D01*
X120432236Y-108993309D01*
X120459943Y-108712000D01*
X120432236Y-108430691D01*
X120350182Y-108160192D01*
X120216932Y-107910899D01*
X120037608Y-107692392D01*
X119819101Y-107513068D01*
X119686142Y-107442000D01*
X119819101Y-107370932D01*
X120037608Y-107191608D01*
X120059689Y-107164702D01*
X121654903Y-107164702D01*
X121726486Y-107408671D01*
X121981996Y-107529571D01*
X122256184Y-107598300D01*
X122538512Y-107612217D01*
X122818130Y-107570787D01*
X123084292Y-107475603D01*
X123209514Y-107408671D01*
X123281097Y-107164702D01*
X122468000Y-106351605D01*
X121654903Y-107164702D01*
X120059689Y-107164702D01*
X120216932Y-106973101D01*
X120350182Y-106723808D01*
X120432236Y-106453309D01*
X120452998Y-106242512D01*
X121027783Y-106242512D01*
X121069213Y-106522130D01*
X121164397Y-106788292D01*
X121231329Y-106913514D01*
X121475298Y-106985097D01*
X122288395Y-106172000D01*
X121475298Y-105358903D01*
X121231329Y-105430486D01*
X121110429Y-105685996D01*
X121041700Y-105960184D01*
X121027783Y-106242512D01*
X120452998Y-106242512D01*
X120459943Y-106172000D01*
X120432236Y-105890691D01*
X120350182Y-105620192D01*
X120216932Y-105370899D01*
X120059690Y-105179298D01*
X121654903Y-105179298D01*
X122468000Y-105992395D01*
X123281097Y-105179298D01*
X123209514Y-104935329D01*
X122954004Y-104814429D01*
X122679816Y-104745700D01*
X122397488Y-104731783D01*
X122117870Y-104773213D01*
X121851708Y-104868397D01*
X121726486Y-104935329D01*
X121654903Y-105179298D01*
X120059690Y-105179298D01*
X120037608Y-105152392D01*
X119819101Y-104973068D01*
X119686142Y-104902000D01*
X119819101Y-104830932D01*
X120037608Y-104651608D01*
X120216932Y-104433101D01*
X120237832Y-104394000D01*
X123890370Y-104394000D01*
X124364935Y-104868566D01*
G36*
X139040000Y-104034370D02*
G01*
X138199366Y-103193736D01*
X138212236Y-103151309D01*
X138239943Y-102870000D01*
X138212236Y-102588691D01*
X138130182Y-102318192D01*
X137996932Y-102068899D01*
X137817608Y-101850392D01*
X137599101Y-101671068D01*
X137466142Y-101600000D01*
X137599101Y-101528932D01*
X137817608Y-101349608D01*
X137996932Y-101131101D01*
X138130182Y-100881808D01*
X138212236Y-100611309D01*
X138239943Y-100330000D01*
X138212236Y-100048691D01*
X138130182Y-99778192D01*
X137996932Y-99528899D01*
X137817608Y-99310392D01*
X137599101Y-99131068D01*
X137349808Y-98997818D01*
X137160000Y-98940241D01*
X137160000Y-98613630D01*
X137418347Y-98355283D01*
X137447422Y-98331422D01*
X137542645Y-98215392D01*
X137613402Y-98083015D01*
X137656974Y-97939378D01*
X137668000Y-97827426D01*
X137668000Y-97827417D01*
X137671685Y-97790001D01*
X137668000Y-97752585D01*
X137668000Y-80301422D01*
X137671686Y-80263999D01*
X137668000Y-80226574D01*
X137656974Y-80114622D01*
X137613402Y-79970985D01*
X137542645Y-79838608D01*
X137447422Y-79722578D01*
X137418352Y-79698721D01*
X136061455Y-78341825D01*
X136083513Y-78269111D01*
X136112185Y-77978000D01*
X136083513Y-77686889D01*
X135998599Y-77406966D01*
X135860706Y-77148986D01*
X135675134Y-76922866D01*
X135449014Y-76737294D01*
X135384477Y-76702799D01*
X135501355Y-76633178D01*
X135717588Y-76438269D01*
X135891641Y-76204920D01*
X136016825Y-75942099D01*
X136061476Y-75794890D01*
X135940155Y-75565000D01*
X134747000Y-75565000D01*
X134747000Y-75585000D01*
X134493000Y-75585000D01*
X134493000Y-75565000D01*
X134473000Y-75565000D01*
X134473000Y-75311000D01*
X134493000Y-75311000D01*
X134493000Y-75291000D01*
X134747000Y-75291000D01*
X134747000Y-75311000D01*
X135940155Y-75311000D01*
X136061476Y-75081110D01*
X136016825Y-74933901D01*
X135891641Y-74671080D01*
X135717588Y-74437731D01*
X135501355Y-74242822D01*
X135384477Y-74173201D01*
X135449014Y-74138706D01*
X135675134Y-73953134D01*
X135860706Y-73727014D01*
X135998599Y-73469034D01*
X136083513Y-73189111D01*
X136112185Y-72898000D01*
X136083513Y-72606889D01*
X135998599Y-72326966D01*
X135860706Y-72068986D01*
X135675134Y-71842866D01*
X135449014Y-71657294D01*
X135394209Y-71628000D01*
X135449014Y-71598706D01*
X135675134Y-71413134D01*
X135860706Y-71187014D01*
X135998599Y-70929034D01*
X136083513Y-70649111D01*
X136112185Y-70358000D01*
X136083513Y-70066889D01*
X135998599Y-69786966D01*
X135860706Y-69528986D01*
X135675134Y-69302866D01*
X135449014Y-69117294D01*
X135394209Y-69088000D01*
X135449014Y-69058706D01*
X135675134Y-68873134D01*
X135860706Y-68647014D01*
X135998599Y-68389034D01*
X136083513Y-68109111D01*
X136112185Y-67818000D01*
X136083513Y-67526889D01*
X135998599Y-67246966D01*
X135860706Y-66988986D01*
X135675134Y-66762866D01*
X135449014Y-66577294D01*
X135191034Y-66439401D01*
X134911111Y-66354487D01*
X134692950Y-66333000D01*
X134547050Y-66333000D01*
X134328889Y-66354487D01*
X134256175Y-66376545D01*
X133404263Y-65524633D01*
X133380401Y-65495557D01*
X133264371Y-65400334D01*
X133131994Y-65329577D01*
X132988357Y-65286005D01*
X132876405Y-65274979D01*
X132876402Y-65274979D01*
X132838979Y-65271293D01*
X132801556Y-65274979D01*
X115356444Y-65274979D01*
X115319021Y-65271293D01*
X115281598Y-65274979D01*
X115281595Y-65274979D01*
X115169643Y-65286005D01*
X115026006Y-65329577D01*
X114964385Y-65362514D01*
X114893628Y-65400334D01*
X114810925Y-65468207D01*
X114777599Y-65495557D01*
X114753742Y-65524627D01*
X113607736Y-66670634D01*
X113565309Y-66657764D01*
X113354492Y-66637000D01*
X113213508Y-66637000D01*
X113002691Y-66657764D01*
X112732192Y-66739818D01*
X112482899Y-66873068D01*
X112264392Y-67052392D01*
X112085068Y-67270899D01*
X112014000Y-67403858D01*
X111942932Y-67270899D01*
X111763608Y-67052392D01*
X111545101Y-66873068D01*
X111295808Y-66739818D01*
X111025309Y-66657764D01*
X110814492Y-66637000D01*
X110673508Y-66637000D01*
X110462691Y-66657764D01*
X110192192Y-66739818D01*
X109942899Y-66873068D01*
X109724392Y-67052392D01*
X109545068Y-67270899D01*
X109411818Y-67520192D01*
X109329764Y-67790691D01*
X109302057Y-68072000D01*
X109329764Y-68353309D01*
X109411818Y-68623808D01*
X109545068Y-68873101D01*
X109724392Y-69091608D01*
X109942899Y-69270932D01*
X109982001Y-69291832D01*
X109982000Y-73368577D01*
X109978314Y-73406000D01*
X109982000Y-73443423D01*
X109982000Y-73443425D01*
X109993026Y-73555377D01*
X110036598Y-73699014D01*
X110069535Y-73760635D01*
X110107355Y-73831392D01*
X110139198Y-73870192D01*
X110202578Y-73947422D01*
X110231654Y-73971284D01*
X113408843Y-77148474D01*
X113373000Y-77328665D01*
X113373000Y-77611335D01*
X113428147Y-77888574D01*
X113536320Y-78149727D01*
X113591293Y-78232000D01*
X109257423Y-78232000D01*
X109220000Y-78228314D01*
X109182577Y-78232000D01*
X109182574Y-78232000D01*
X109070622Y-78243026D01*
X108926985Y-78286598D01*
X108865364Y-78319535D01*
X108794607Y-78357355D01*
X108719034Y-78419377D01*
X108678578Y-78452578D01*
X108654721Y-78481648D01*
X107467006Y-79669364D01*
X107324411Y-79641000D01*
X107051589Y-79641000D01*
X106872999Y-79676524D01*
X106872999Y-78874016D01*
X106906691Y-78884236D01*
X107117508Y-78905000D01*
X107258492Y-78905000D01*
X107469309Y-78884236D01*
X107739808Y-78802182D01*
X107989101Y-78668932D01*
X108207608Y-78489608D01*
X108386932Y-78271101D01*
X108520182Y-78021808D01*
X108602236Y-77751309D01*
X108629943Y-77470000D01*
X108602236Y-77188691D01*
X108520182Y-76918192D01*
X108386932Y-76668899D01*
X108207608Y-76450392D01*
X107989101Y-76271068D01*
X107739808Y-76137818D01*
X107469309Y-76055764D01*
X107258492Y-76035000D01*
X107117508Y-76035000D01*
X106906691Y-76055764D01*
X106636192Y-76137818D01*
X106450624Y-76237006D01*
X106864265Y-75823366D01*
X106906691Y-75836236D01*
X107117508Y-75857000D01*
X107258492Y-75857000D01*
X107469309Y-75836236D01*
X107739808Y-75754182D01*
X107989101Y-75620932D01*
X108207608Y-75441608D01*
X108386932Y-75223101D01*
X108520182Y-74973808D01*
X108602236Y-74703309D01*
X108629943Y-74422000D01*
X108602236Y-74140691D01*
X108520182Y-73870192D01*
X108386932Y-73620899D01*
X108207608Y-73402392D01*
X107989101Y-73223068D01*
X107739808Y-73089818D01*
X107469309Y-73007764D01*
X107258492Y-72987000D01*
X107117508Y-72987000D01*
X106906691Y-73007764D01*
X106636192Y-73089818D01*
X106450625Y-73189006D01*
X106864265Y-72775366D01*
X106906691Y-72788236D01*
X107117508Y-72809000D01*
X107258492Y-72809000D01*
X107469309Y-72788236D01*
X107739808Y-72706182D01*
X107989101Y-72572932D01*
X108207608Y-72393608D01*
X108386932Y-72175101D01*
X108520182Y-71925808D01*
X108602236Y-71655309D01*
X108629943Y-71374000D01*
X108602236Y-71092691D01*
X108520182Y-70822192D01*
X108386932Y-70572899D01*
X108207608Y-70354392D01*
X107989101Y-70175068D01*
X107739808Y-70041818D01*
X107469309Y-69959764D01*
X107258492Y-69939000D01*
X107117508Y-69939000D01*
X106906691Y-69959764D01*
X106636192Y-70041818D01*
X106386899Y-70175068D01*
X106168392Y-70354392D01*
X105989068Y-70572899D01*
X105855818Y-70822192D01*
X105773764Y-71092691D01*
X105746057Y-71374000D01*
X105773764Y-71655309D01*
X105786634Y-71697735D01*
X104800000Y-72684370D01*
X104800000Y-61246532D01*
X108668227Y-61246532D01*
X108718916Y-61698434D01*
X108856415Y-62131885D01*
X109075486Y-62530373D01*
X109367784Y-62878721D01*
X109722178Y-63163661D01*
X110125167Y-63374338D01*
X110561402Y-63502729D01*
X111014266Y-63543943D01*
X111466512Y-63496410D01*
X111900911Y-63361941D01*
X112300919Y-63145658D01*
X112651300Y-62855798D01*
X112938706Y-62503402D01*
X113152192Y-62101894D01*
X113283626Y-61666566D01*
X113328000Y-61214000D01*
X113327092Y-61148943D01*
X113270098Y-60697792D01*
X113126561Y-60266304D01*
X112901948Y-59870913D01*
X112753462Y-59698890D01*
X114675557Y-59698890D01*
X114675557Y-62911990D01*
X129672443Y-62911990D01*
X129672443Y-61246532D01*
X131020227Y-61246532D01*
X131070916Y-61698434D01*
X131208415Y-62131885D01*
X131427486Y-62530373D01*
X131719784Y-62878721D01*
X132074178Y-63163661D01*
X132477167Y-63374338D01*
X132913402Y-63502729D01*
X133366266Y-63543943D01*
X133818512Y-63496410D01*
X134252911Y-63361941D01*
X134652919Y-63145658D01*
X135003300Y-62855798D01*
X135290706Y-62503402D01*
X135504192Y-62101894D01*
X135635626Y-61666566D01*
X135680000Y-61214000D01*
X135679092Y-61148943D01*
X135622098Y-60697792D01*
X135478561Y-60266304D01*
X135253948Y-59870913D01*
X134956814Y-59526680D01*
X134598476Y-59246716D01*
X134192585Y-59041686D01*
X133754600Y-58919398D01*
X133301204Y-58884511D01*
X132849667Y-58938354D01*
X132417187Y-59078875D01*
X132020237Y-59300722D01*
X131673938Y-59595446D01*
X131391480Y-59951820D01*
X131183621Y-60356270D01*
X131058278Y-60793390D01*
X131020227Y-61246532D01*
X129672443Y-61246532D01*
X129672443Y-59698890D01*
X114675557Y-59698890D01*
X112753462Y-59698890D01*
X112604814Y-59526680D01*
X112246476Y-59246716D01*
X111840585Y-59041686D01*
X111402600Y-58919398D01*
X110949204Y-58884511D01*
X110497667Y-58938354D01*
X110065187Y-59078875D01*
X109668237Y-59300722D01*
X109321938Y-59595446D01*
X109039480Y-59951820D01*
X108831621Y-60356270D01*
X108706278Y-60793390D01*
X108668227Y-61246532D01*
X104800000Y-61246532D01*
X104800000Y-57556000D01*
X139040000Y-57556000D01*
X139040000Y-104034370D01*
X139040000Y-104034370D01*
G37*
X139040000Y-104034370D02*
X138199366Y-103193736D01*
X138212236Y-103151309D01*
X138239943Y-102870000D01*
X138212236Y-102588691D01*
X138130182Y-102318192D01*
X137996932Y-102068899D01*
X137817608Y-101850392D01*
X137599101Y-101671068D01*
X137466142Y-101600000D01*
X137599101Y-101528932D01*
X137817608Y-101349608D01*
X137996932Y-101131101D01*
X138130182Y-100881808D01*
X138212236Y-100611309D01*
X138239943Y-100330000D01*
X138212236Y-100048691D01*
X138130182Y-99778192D01*
X137996932Y-99528899D01*
X137817608Y-99310392D01*
X137599101Y-99131068D01*
X137349808Y-98997818D01*
X137160000Y-98940241D01*
X137160000Y-98613630D01*
X137418347Y-98355283D01*
X137447422Y-98331422D01*
X137542645Y-98215392D01*
X137613402Y-98083015D01*
X137656974Y-97939378D01*
X137668000Y-97827426D01*
X137668000Y-97827417D01*
X137671685Y-97790001D01*
X137668000Y-97752585D01*
X137668000Y-80301422D01*
X137671686Y-80263999D01*
X137668000Y-80226574D01*
X137656974Y-80114622D01*
X137613402Y-79970985D01*
X137542645Y-79838608D01*
X137447422Y-79722578D01*
X137418352Y-79698721D01*
X136061455Y-78341825D01*
X136083513Y-78269111D01*
X136112185Y-77978000D01*
X136083513Y-77686889D01*
X135998599Y-77406966D01*
X135860706Y-77148986D01*
X135675134Y-76922866D01*
X135449014Y-76737294D01*
X135384477Y-76702799D01*
X135501355Y-76633178D01*
X135717588Y-76438269D01*
X135891641Y-76204920D01*
X136016825Y-75942099D01*
X136061476Y-75794890D01*
X135940155Y-75565000D01*
X134747000Y-75565000D01*
X134747000Y-75585000D01*
X134493000Y-75585000D01*
X134493000Y-75565000D01*
X134473000Y-75565000D01*
X134473000Y-75311000D01*
X134493000Y-75311000D01*
X134493000Y-75291000D01*
X134747000Y-75291000D01*
X134747000Y-75311000D01*
X135940155Y-75311000D01*
X136061476Y-75081110D01*
X136016825Y-74933901D01*
X135891641Y-74671080D01*
X135717588Y-74437731D01*
X135501355Y-74242822D01*
X135384477Y-74173201D01*
X135449014Y-74138706D01*
X135675134Y-73953134D01*
X135860706Y-73727014D01*
X135998599Y-73469034D01*
X136083513Y-73189111D01*
X136112185Y-72898000D01*
X136083513Y-72606889D01*
X135998599Y-72326966D01*
X135860706Y-72068986D01*
X135675134Y-71842866D01*
X135449014Y-71657294D01*
X135394209Y-71628000D01*
X135449014Y-71598706D01*
X135675134Y-71413134D01*
X135860706Y-71187014D01*
X135998599Y-70929034D01*
X136083513Y-70649111D01*
X136112185Y-70358000D01*
X136083513Y-70066889D01*
X135998599Y-69786966D01*
X135860706Y-69528986D01*
X135675134Y-69302866D01*
X135449014Y-69117294D01*
X135394209Y-69088000D01*
X135449014Y-69058706D01*
X135675134Y-68873134D01*
X135860706Y-68647014D01*
X135998599Y-68389034D01*
X136083513Y-68109111D01*
X136112185Y-67818000D01*
X136083513Y-67526889D01*
X135998599Y-67246966D01*
X135860706Y-66988986D01*
X135675134Y-66762866D01*
X135449014Y-66577294D01*
X135191034Y-66439401D01*
X134911111Y-66354487D01*
X134692950Y-66333000D01*
X134547050Y-66333000D01*
X134328889Y-66354487D01*
X134256175Y-66376545D01*
X133404263Y-65524633D01*
X133380401Y-65495557D01*
X133264371Y-65400334D01*
X133131994Y-65329577D01*
X132988357Y-65286005D01*
X132876405Y-65274979D01*
X132876402Y-65274979D01*
X132838979Y-65271293D01*
X132801556Y-65274979D01*
X115356444Y-65274979D01*
X115319021Y-65271293D01*
X115281598Y-65274979D01*
X115281595Y-65274979D01*
X115169643Y-65286005D01*
X115026006Y-65329577D01*
X114964385Y-65362514D01*
X114893628Y-65400334D01*
X114810925Y-65468207D01*
X114777599Y-65495557D01*
X114753742Y-65524627D01*
X113607736Y-66670634D01*
X113565309Y-66657764D01*
X113354492Y-66637000D01*
X113213508Y-66637000D01*
X113002691Y-66657764D01*
X112732192Y-66739818D01*
X112482899Y-66873068D01*
X112264392Y-67052392D01*
X112085068Y-67270899D01*
X112014000Y-67403858D01*
X111942932Y-67270899D01*
X111763608Y-67052392D01*
X111545101Y-66873068D01*
X111295808Y-66739818D01*
X111025309Y-66657764D01*
X110814492Y-66637000D01*
X110673508Y-66637000D01*
X110462691Y-66657764D01*
X110192192Y-66739818D01*
X109942899Y-66873068D01*
X109724392Y-67052392D01*
X109545068Y-67270899D01*
X109411818Y-67520192D01*
X109329764Y-67790691D01*
X109302057Y-68072000D01*
X109329764Y-68353309D01*
X109411818Y-68623808D01*
X109545068Y-68873101D01*
X109724392Y-69091608D01*
X109942899Y-69270932D01*
X109982001Y-69291832D01*
X109982000Y-73368577D01*
X109978314Y-73406000D01*
X109982000Y-73443423D01*
X109982000Y-73443425D01*
X109993026Y-73555377D01*
X110036598Y-73699014D01*
X110069535Y-73760635D01*
X110107355Y-73831392D01*
X110139198Y-73870192D01*
X110202578Y-73947422D01*
X110231654Y-73971284D01*
X113408843Y-77148474D01*
X113373000Y-77328665D01*
X113373000Y-77611335D01*
X113428147Y-77888574D01*
X113536320Y-78149727D01*
X113591293Y-78232000D01*
X109257423Y-78232000D01*
X109220000Y-78228314D01*
X109182577Y-78232000D01*
X109182574Y-78232000D01*
X109070622Y-78243026D01*
X108926985Y-78286598D01*
X108865364Y-78319535D01*
X108794607Y-78357355D01*
X108719034Y-78419377D01*
X108678578Y-78452578D01*
X108654721Y-78481648D01*
X107467006Y-79669364D01*
X107324411Y-79641000D01*
X107051589Y-79641000D01*
X106872999Y-79676524D01*
X106872999Y-78874016D01*
X106906691Y-78884236D01*
X107117508Y-78905000D01*
X107258492Y-78905000D01*
X107469309Y-78884236D01*
X107739808Y-78802182D01*
X107989101Y-78668932D01*
X108207608Y-78489608D01*
X108386932Y-78271101D01*
X108520182Y-78021808D01*
X108602236Y-77751309D01*
X108629943Y-77470000D01*
X108602236Y-77188691D01*
X108520182Y-76918192D01*
X108386932Y-76668899D01*
X108207608Y-76450392D01*
X107989101Y-76271068D01*
X107739808Y-76137818D01*
X107469309Y-76055764D01*
X107258492Y-76035000D01*
X107117508Y-76035000D01*
X106906691Y-76055764D01*
X106636192Y-76137818D01*
X106450624Y-76237006D01*
X106864265Y-75823366D01*
X106906691Y-75836236D01*
X107117508Y-75857000D01*
X107258492Y-75857000D01*
X107469309Y-75836236D01*
X107739808Y-75754182D01*
X107989101Y-75620932D01*
X108207608Y-75441608D01*
X108386932Y-75223101D01*
X108520182Y-74973808D01*
X108602236Y-74703309D01*
X108629943Y-74422000D01*
X108602236Y-74140691D01*
X108520182Y-73870192D01*
X108386932Y-73620899D01*
X108207608Y-73402392D01*
X107989101Y-73223068D01*
X107739808Y-73089818D01*
X107469309Y-73007764D01*
X107258492Y-72987000D01*
X107117508Y-72987000D01*
X106906691Y-73007764D01*
X106636192Y-73089818D01*
X106450625Y-73189006D01*
X106864265Y-72775366D01*
X106906691Y-72788236D01*
X107117508Y-72809000D01*
X107258492Y-72809000D01*
X107469309Y-72788236D01*
X107739808Y-72706182D01*
X107989101Y-72572932D01*
X108207608Y-72393608D01*
X108386932Y-72175101D01*
X108520182Y-71925808D01*
X108602236Y-71655309D01*
X108629943Y-71374000D01*
X108602236Y-71092691D01*
X108520182Y-70822192D01*
X108386932Y-70572899D01*
X108207608Y-70354392D01*
X107989101Y-70175068D01*
X107739808Y-70041818D01*
X107469309Y-69959764D01*
X107258492Y-69939000D01*
X107117508Y-69939000D01*
X106906691Y-69959764D01*
X106636192Y-70041818D01*
X106386899Y-70175068D01*
X106168392Y-70354392D01*
X105989068Y-70572899D01*
X105855818Y-70822192D01*
X105773764Y-71092691D01*
X105746057Y-71374000D01*
X105773764Y-71655309D01*
X105786634Y-71697735D01*
X104800000Y-72684370D01*
X104800000Y-61246532D01*
X108668227Y-61246532D01*
X108718916Y-61698434D01*
X108856415Y-62131885D01*
X109075486Y-62530373D01*
X109367784Y-62878721D01*
X109722178Y-63163661D01*
X110125167Y-63374338D01*
X110561402Y-63502729D01*
X111014266Y-63543943D01*
X111466512Y-63496410D01*
X111900911Y-63361941D01*
X112300919Y-63145658D01*
X112651300Y-62855798D01*
X112938706Y-62503402D01*
X113152192Y-62101894D01*
X113283626Y-61666566D01*
X113328000Y-61214000D01*
X113327092Y-61148943D01*
X113270098Y-60697792D01*
X113126561Y-60266304D01*
X112901948Y-59870913D01*
X112753462Y-59698890D01*
X114675557Y-59698890D01*
X114675557Y-62911990D01*
X129672443Y-62911990D01*
X129672443Y-61246532D01*
X131020227Y-61246532D01*
X131070916Y-61698434D01*
X131208415Y-62131885D01*
X131427486Y-62530373D01*
X131719784Y-62878721D01*
X132074178Y-63163661D01*
X132477167Y-63374338D01*
X132913402Y-63502729D01*
X133366266Y-63543943D01*
X133818512Y-63496410D01*
X134252911Y-63361941D01*
X134652919Y-63145658D01*
X135003300Y-62855798D01*
X135290706Y-62503402D01*
X135504192Y-62101894D01*
X135635626Y-61666566D01*
X135680000Y-61214000D01*
X135679092Y-61148943D01*
X135622098Y-60697792D01*
X135478561Y-60266304D01*
X135253948Y-59870913D01*
X134956814Y-59526680D01*
X134598476Y-59246716D01*
X134192585Y-59041686D01*
X133754600Y-58919398D01*
X133301204Y-58884511D01*
X132849667Y-58938354D01*
X132417187Y-59078875D01*
X132020237Y-59300722D01*
X131673938Y-59595446D01*
X131391480Y-59951820D01*
X131183621Y-60356270D01*
X131058278Y-60793390D01*
X131020227Y-61246532D01*
X129672443Y-61246532D01*
X129672443Y-59698890D01*
X114675557Y-59698890D01*
X112753462Y-59698890D01*
X112604814Y-59526680D01*
X112246476Y-59246716D01*
X111840585Y-59041686D01*
X111402600Y-58919398D01*
X110949204Y-58884511D01*
X110497667Y-58938354D01*
X110065187Y-59078875D01*
X109668237Y-59300722D01*
X109321938Y-59595446D01*
X109039480Y-59951820D01*
X108831621Y-60356270D01*
X108706278Y-60793390D01*
X108668227Y-61246532D01*
X104800000Y-61246532D01*
X104800000Y-57556000D01*
X139040000Y-57556000D01*
X139040000Y-104034370D01*
G36*
X117171370Y-85229000D02*
G01*
X116957589Y-85229000D01*
X116690011Y-85282225D01*
X116437957Y-85386629D01*
X116211114Y-85538201D01*
X116018201Y-85731114D01*
X115940445Y-85847483D01*
X115929812Y-85739518D01*
X115893502Y-85619820D01*
X115834537Y-85509506D01*
X115755185Y-85412815D01*
X115658494Y-85333463D01*
X115548180Y-85274498D01*
X115428482Y-85238188D01*
X115304000Y-85225928D01*
X114839750Y-85229000D01*
X114681000Y-85387750D01*
X114681000Y-86487000D01*
X114701000Y-86487000D01*
X114701000Y-86741000D01*
X114681000Y-86741000D01*
X114681000Y-87840250D01*
X114735560Y-87894810D01*
X113168648Y-89461722D01*
X113139578Y-89485579D01*
X113115721Y-89514649D01*
X113115720Y-89514650D01*
X113044354Y-89601609D01*
X112973598Y-89733986D01*
X112930026Y-89877623D01*
X112915313Y-90027001D01*
X112919000Y-90064434D01*
X112918999Y-92561576D01*
X112915313Y-92598999D01*
X112918999Y-92636422D01*
X112918999Y-92636424D01*
X112930025Y-92748376D01*
X112973597Y-92892013D01*
X112973598Y-92892014D01*
X113044354Y-93024391D01*
X113083982Y-93072677D01*
X113139577Y-93140421D01*
X113168653Y-93164283D01*
X113408843Y-93404473D01*
X113373000Y-93584665D01*
X113373000Y-93867335D01*
X113428147Y-94144574D01*
X113536320Y-94405727D01*
X113574504Y-94462873D01*
X110490000Y-91378370D01*
X110490000Y-87770573D01*
X110610886Y-87689799D01*
X110803799Y-87496886D01*
X110955371Y-87270043D01*
X110998000Y-87167127D01*
X111040629Y-87270043D01*
X111192201Y-87496886D01*
X111385114Y-87689799D01*
X111611957Y-87841371D01*
X111864011Y-87945775D01*
X112131589Y-87999000D01*
X112404411Y-87999000D01*
X112671989Y-87945775D01*
X112924043Y-87841371D01*
X113150886Y-87689799D01*
X113220770Y-87619915D01*
X113273463Y-87718494D01*
X113352815Y-87815185D01*
X113449506Y-87894537D01*
X113559820Y-87953502D01*
X113679518Y-87989812D01*
X113804000Y-88002072D01*
X114268250Y-87999000D01*
X114427000Y-87840250D01*
X114427000Y-86741000D01*
X114407000Y-86741000D01*
X114407000Y-86487000D01*
X114427000Y-86487000D01*
X114427000Y-85387750D01*
X114268250Y-85229000D01*
X113804000Y-85225928D01*
X113679518Y-85238188D01*
X113559820Y-85274498D01*
X113449506Y-85333463D01*
X113352815Y-85412815D01*
X113273463Y-85509506D01*
X113220770Y-85608085D01*
X113150886Y-85538201D01*
X112924043Y-85386629D01*
X112671989Y-85282225D01*
X112404411Y-85229000D01*
X112131589Y-85229000D01*
X111988995Y-85257364D01*
X111205650Y-84474020D01*
X116416390Y-84474020D01*
X117171370Y-85229000D01*
X117171370Y-85229000D01*
G37*
X117171370Y-85229000D02*
X116957589Y-85229000D01*
X116690011Y-85282225D01*
X116437957Y-85386629D01*
X116211114Y-85538201D01*
X116018201Y-85731114D01*
X115940445Y-85847483D01*
X115929812Y-85739518D01*
X115893502Y-85619820D01*
X115834537Y-85509506D01*
X115755185Y-85412815D01*
X115658494Y-85333463D01*
X115548180Y-85274498D01*
X115428482Y-85238188D01*
X115304000Y-85225928D01*
X114839750Y-85229000D01*
X114681000Y-85387750D01*
X114681000Y-86487000D01*
X114701000Y-86487000D01*
X114701000Y-86741000D01*
X114681000Y-86741000D01*
X114681000Y-87840250D01*
X114735560Y-87894810D01*
X113168648Y-89461722D01*
X113139578Y-89485579D01*
X113115721Y-89514649D01*
X113115720Y-89514650D01*
X113044354Y-89601609D01*
X112973598Y-89733986D01*
X112930026Y-89877623D01*
X112915313Y-90027001D01*
X112919000Y-90064434D01*
X112918999Y-92561576D01*
X112915313Y-92598999D01*
X112918999Y-92636422D01*
X112918999Y-92636424D01*
X112930025Y-92748376D01*
X112973597Y-92892013D01*
X112973598Y-92892014D01*
X113044354Y-93024391D01*
X113083982Y-93072677D01*
X113139577Y-93140421D01*
X113168653Y-93164283D01*
X113408843Y-93404473D01*
X113373000Y-93584665D01*
X113373000Y-93867335D01*
X113428147Y-94144574D01*
X113536320Y-94405727D01*
X113574504Y-94462873D01*
X110490000Y-91378370D01*
X110490000Y-87770573D01*
X110610886Y-87689799D01*
X110803799Y-87496886D01*
X110955371Y-87270043D01*
X110998000Y-87167127D01*
X111040629Y-87270043D01*
X111192201Y-87496886D01*
X111385114Y-87689799D01*
X111611957Y-87841371D01*
X111864011Y-87945775D01*
X112131589Y-87999000D01*
X112404411Y-87999000D01*
X112671989Y-87945775D01*
X112924043Y-87841371D01*
X113150886Y-87689799D01*
X113220770Y-87619915D01*
X113273463Y-87718494D01*
X113352815Y-87815185D01*
X113449506Y-87894537D01*
X113559820Y-87953502D01*
X113679518Y-87989812D01*
X113804000Y-88002072D01*
X114268250Y-87999000D01*
X114427000Y-87840250D01*
X114427000Y-86741000D01*
X114407000Y-86741000D01*
X114407000Y-86487000D01*
X114427000Y-86487000D01*
X114427000Y-85387750D01*
X114268250Y-85229000D01*
X113804000Y-85225928D01*
X113679518Y-85238188D01*
X113559820Y-85274498D01*
X113449506Y-85333463D01*
X113352815Y-85412815D01*
X113273463Y-85509506D01*
X113220770Y-85608085D01*
X113150886Y-85538201D01*
X112924043Y-85386629D01*
X112671989Y-85282225D01*
X112404411Y-85229000D01*
X112131589Y-85229000D01*
X111988995Y-85257364D01*
X111205650Y-84474020D01*
X116416390Y-84474020D01*
X117171370Y-85229000D01*
G36*
X124537370Y-85229000D02*
G01*
X124323589Y-85229000D01*
X124056011Y-85282225D01*
X123803957Y-85386629D01*
X123577114Y-85538201D01*
X123384201Y-85731114D01*
X123306445Y-85847483D01*
X123295812Y-85739518D01*
X123259502Y-85619820D01*
X123200537Y-85509506D01*
X123121185Y-85412815D01*
X123024494Y-85333463D01*
X122914180Y-85274498D01*
X122794482Y-85238188D01*
X122670000Y-85225928D01*
X122205750Y-85229000D01*
X122047000Y-85387750D01*
X122047000Y-86487000D01*
X122067000Y-86487000D01*
X122067000Y-86741000D01*
X122047000Y-86741000D01*
X122047000Y-87840250D01*
X122101560Y-87894810D01*
X121858370Y-88138000D01*
X116647630Y-88138000D01*
X116814994Y-87970636D01*
X116957589Y-87999000D01*
X117230411Y-87999000D01*
X117497989Y-87945775D01*
X117750043Y-87841371D01*
X117976886Y-87689799D01*
X118169799Y-87496886D01*
X118321371Y-87270043D01*
X118364000Y-87167127D01*
X118406629Y-87270043D01*
X118558201Y-87496886D01*
X118751114Y-87689799D01*
X118977957Y-87841371D01*
X119230011Y-87945775D01*
X119497589Y-87999000D01*
X119770411Y-87999000D01*
X120037989Y-87945775D01*
X120290043Y-87841371D01*
X120516886Y-87689799D01*
X120586770Y-87619915D01*
X120639463Y-87718494D01*
X120718815Y-87815185D01*
X120815506Y-87894537D01*
X120925820Y-87953502D01*
X121045518Y-87989812D01*
X121170000Y-88002072D01*
X121634250Y-87999000D01*
X121793000Y-87840250D01*
X121793000Y-86741000D01*
X121773000Y-86741000D01*
X121773000Y-86487000D01*
X121793000Y-86487000D01*
X121793000Y-85387750D01*
X121634250Y-85229000D01*
X121170000Y-85225928D01*
X121045518Y-85238188D01*
X120925820Y-85274498D01*
X120815506Y-85333463D01*
X120718815Y-85412815D01*
X120639463Y-85509506D01*
X120586770Y-85608085D01*
X120516886Y-85538201D01*
X120290043Y-85386629D01*
X120037989Y-85282225D01*
X119770411Y-85229000D01*
X119497589Y-85229000D01*
X119354995Y-85257364D01*
X118117640Y-84020010D01*
X123328380Y-84020010D01*
X124537370Y-85229000D01*
X124537370Y-85229000D01*
G37*
X124537370Y-85229000D02*
X124323589Y-85229000D01*
X124056011Y-85282225D01*
X123803957Y-85386629D01*
X123577114Y-85538201D01*
X123384201Y-85731114D01*
X123306445Y-85847483D01*
X123295812Y-85739518D01*
X123259502Y-85619820D01*
X123200537Y-85509506D01*
X123121185Y-85412815D01*
X123024494Y-85333463D01*
X122914180Y-85274498D01*
X122794482Y-85238188D01*
X122670000Y-85225928D01*
X122205750Y-85229000D01*
X122047000Y-85387750D01*
X122047000Y-86487000D01*
X122067000Y-86487000D01*
X122067000Y-86741000D01*
X122047000Y-86741000D01*
X122047000Y-87840250D01*
X122101560Y-87894810D01*
X121858370Y-88138000D01*
X116647630Y-88138000D01*
X116814994Y-87970636D01*
X116957589Y-87999000D01*
X117230411Y-87999000D01*
X117497989Y-87945775D01*
X117750043Y-87841371D01*
X117976886Y-87689799D01*
X118169799Y-87496886D01*
X118321371Y-87270043D01*
X118364000Y-87167127D01*
X118406629Y-87270043D01*
X118558201Y-87496886D01*
X118751114Y-87689799D01*
X118977957Y-87841371D01*
X119230011Y-87945775D01*
X119497589Y-87999000D01*
X119770411Y-87999000D01*
X120037989Y-87945775D01*
X120290043Y-87841371D01*
X120516886Y-87689799D01*
X120586770Y-87619915D01*
X120639463Y-87718494D01*
X120718815Y-87815185D01*
X120815506Y-87894537D01*
X120925820Y-87953502D01*
X121045518Y-87989812D01*
X121170000Y-88002072D01*
X121634250Y-87999000D01*
X121793000Y-87840250D01*
X121793000Y-86741000D01*
X121773000Y-86741000D01*
X121773000Y-86487000D01*
X121793000Y-86487000D01*
X121793000Y-85387750D01*
X121634250Y-85229000D01*
X121170000Y-85225928D01*
X121045518Y-85238188D01*
X120925820Y-85274498D01*
X120815506Y-85333463D01*
X120718815Y-85412815D01*
X120639463Y-85509506D01*
X120586770Y-85608085D01*
X120516886Y-85538201D01*
X120290043Y-85386629D01*
X120037989Y-85282225D01*
X119770411Y-85229000D01*
X119497589Y-85229000D01*
X119354995Y-85257364D01*
X118117640Y-84020010D01*
X123328380Y-84020010D01*
X124537370Y-85229000D01*
G36*
X119761000Y-80899000D02*
G01*
X119781000Y-80899000D01*
X119781000Y-81153000D01*
X119761000Y-81153000D01*
X119761000Y-81173000D01*
X119507000Y-81173000D01*
X119507000Y-81153000D01*
X119487000Y-81153000D01*
X119487000Y-80899000D01*
X119507000Y-80899000D01*
X119507000Y-80879000D01*
X119761000Y-80879000D01*
X119761000Y-80899000D01*
X119761000Y-80899000D01*
G37*
X119761000Y-80899000D02*
X119781000Y-80899000D01*
X119781000Y-81153000D01*
X119761000Y-81153000D01*
X119761000Y-81173000D01*
X119507000Y-81173000D01*
X119507000Y-81153000D01*
X119487000Y-81153000D01*
X119487000Y-80899000D01*
X119507000Y-80899000D01*
X119507000Y-80879000D01*
X119761000Y-80879000D01*
X119761000Y-80899000D01*
G36*
X112395000Y-80899000D02*
G01*
X112415000Y-80899000D01*
X112415000Y-81153000D01*
X112395000Y-81153000D01*
X112395000Y-81173000D01*
X112141000Y-81173000D01*
X112141000Y-81153000D01*
X112121000Y-81153000D01*
X112121000Y-80899000D01*
X112141000Y-80899000D01*
X112141000Y-80879000D01*
X112395000Y-80879000D01*
X112395000Y-80899000D01*
X112395000Y-80899000D01*
G37*
X112395000Y-80899000D02*
X112415000Y-80899000D01*
X112415000Y-81153000D01*
X112395000Y-81153000D01*
X112395000Y-81173000D01*
X112141000Y-81173000D01*
X112141000Y-81153000D01*
X112121000Y-81153000D01*
X112121000Y-80899000D01*
X112141000Y-80899000D01*
X112141000Y-80879000D01*
X112395000Y-80879000D01*
X112395000Y-80899000D01*
M02*
