G04 #@! TF.GenerationSoftware,KiCad,Pcbnew,(5.1.0)-1*
G04 #@! TF.CreationDate,2021-08-07T01:09:51-05:00*
G04 #@! TF.ProjectId,nixie_legacy-demux,6e697869-655f-46c6-9567-6163792d6465,rev?*
G04 #@! TF.SameCoordinates,Original*
G04 #@! TF.FileFunction,Copper,L1,Top*
G04 #@! TF.FilePolarity,Positive*
%FSLAX46Y46*%
G04 Gerber Fmt 4.6, Leading zero omitted, Abs format (unit mm)*
G04 Created by KiCad (PCBNEW (5.1.0)-1) date 2021-08-07 01:09:51*
%MOMM*%
%LPD*%
G04 APERTURE LIST*
%ADD10R,1.500000X1.500000*%
%ADD11C,1.500000*%
%ADD12O,1.600000X1.600000*%
%ADD13C,1.600000*%
%ADD14R,1.600000X1.600000*%
%ADD15O,2.400000X1.600000*%
%ADD16R,2.400000X1.600000*%
%ADD17O,1.700000X1.700000*%
%ADD18R,1.700000X1.700000*%
%ADD19R,1.300000X0.800000*%
%ADD20O,1.524000X2.199640*%
%ADD21R,1.524000X2.199640*%
%ADD22C,0.800000*%
%ADD23C,0.381000*%
%ADD24C,0.635000*%
%ADD25C,0.254000*%
G04 APERTURE END LIST*
D10*
X121920000Y-86614000D03*
D11*
X127000000Y-86614000D03*
X124460000Y-86614000D03*
D10*
X114554000Y-86614000D03*
D11*
X119634000Y-86614000D03*
X117094000Y-86614000D03*
D10*
X107188000Y-86614000D03*
D11*
X112268000Y-86614000D03*
X109728000Y-86614000D03*
D12*
X127000000Y-71374000D03*
D13*
X119380000Y-71374000D03*
D12*
X127000000Y-74422000D03*
D13*
X119380000Y-74422000D03*
D12*
X110744000Y-68072000D03*
X113284000Y-68072000D03*
X115824000Y-68072000D03*
X118364000Y-68072000D03*
X120904000Y-68072000D03*
X123444000Y-68072000D03*
D14*
X125984000Y-68072000D03*
D10*
X112268000Y-81026000D03*
D11*
X107188000Y-81026000D03*
X109728000Y-81026000D03*
X123698000Y-111252000D03*
X123698000Y-116152000D03*
D15*
X136398000Y-122428000D03*
X128778000Y-145288000D03*
X136398000Y-124968000D03*
X128778000Y-142748000D03*
X136398000Y-127508000D03*
X128778000Y-140208000D03*
X136398000Y-130048000D03*
X128778000Y-137668000D03*
X136398000Y-132588000D03*
X128778000Y-135128000D03*
X136398000Y-135128000D03*
X128778000Y-132588000D03*
X136398000Y-137668000D03*
X128778000Y-130048000D03*
X136398000Y-140208000D03*
X128778000Y-127508000D03*
X136398000Y-142748000D03*
X128778000Y-124968000D03*
X136398000Y-145288000D03*
D16*
X128778000Y-122428000D03*
D15*
X110998000Y-134112000D03*
X118618000Y-101092000D03*
X110998000Y-131572000D03*
X118618000Y-103632000D03*
X110998000Y-129032000D03*
X118618000Y-106172000D03*
X110998000Y-126492000D03*
X118618000Y-108712000D03*
X110998000Y-123952000D03*
X118618000Y-111252000D03*
X110998000Y-121412000D03*
X118618000Y-113792000D03*
X110998000Y-118872000D03*
X118618000Y-116332000D03*
X110998000Y-116332000D03*
X118618000Y-118872000D03*
X110998000Y-113792000D03*
X118618000Y-121412000D03*
X110998000Y-111252000D03*
X118618000Y-123952000D03*
X110998000Y-108712000D03*
X118618000Y-126492000D03*
X110998000Y-106172000D03*
X118618000Y-129032000D03*
X110998000Y-103632000D03*
X118618000Y-131572000D03*
X110998000Y-101092000D03*
D16*
X118618000Y-134112000D03*
D12*
X109220000Y-140462000D03*
D13*
X116840000Y-140462000D03*
D12*
X109220000Y-137414000D03*
D13*
X116840000Y-137414000D03*
D12*
X107188000Y-96774000D03*
D13*
X114808000Y-96774000D03*
D12*
X118618000Y-90678000D03*
D13*
X126238000Y-90678000D03*
D12*
X107188000Y-93726000D03*
D13*
X114808000Y-93726000D03*
D12*
X118618000Y-93726000D03*
D13*
X126238000Y-93726000D03*
D12*
X107188000Y-90678000D03*
D13*
X114808000Y-90678000D03*
D12*
X118618000Y-96774000D03*
D13*
X126238000Y-96774000D03*
D12*
X107188000Y-71374000D03*
D13*
X114808000Y-71374000D03*
D12*
X127000000Y-77470000D03*
D13*
X119380000Y-77470000D03*
D12*
X107188000Y-74422000D03*
D13*
X114808000Y-74422000D03*
D12*
X107188000Y-77470000D03*
D13*
X114808000Y-77470000D03*
D12*
X122428000Y-134112000D03*
D13*
X122428000Y-126492000D03*
D10*
X119634000Y-81026000D03*
D11*
X114554000Y-81026000D03*
X117094000Y-81026000D03*
D10*
X127000000Y-81026000D03*
D11*
X121920000Y-81026000D03*
X124460000Y-81026000D03*
D17*
X127000000Y-151384000D03*
X124460000Y-151384000D03*
X121920000Y-151384000D03*
D18*
X119380000Y-151384000D03*
D19*
X125476000Y-137160000D03*
X125476000Y-138440000D03*
X125476000Y-139700000D03*
X125476000Y-140970000D03*
X125476000Y-142250000D03*
X125476000Y-143520000D03*
X125476000Y-144780000D03*
X125476000Y-146060000D03*
X119176000Y-146060000D03*
X119176000Y-144780000D03*
X119176000Y-143520000D03*
X119176000Y-142250000D03*
X119176000Y-140970000D03*
X119176000Y-139700000D03*
X119176000Y-138440000D03*
X119176000Y-137160000D03*
D17*
X132080000Y-67818000D03*
X134620000Y-67818000D03*
X132080000Y-70358000D03*
X134620000Y-70358000D03*
X132080000Y-72898000D03*
X134620000Y-72898000D03*
X132080000Y-75438000D03*
X134620000Y-75438000D03*
X132080000Y-77978000D03*
X134620000Y-77978000D03*
X132080000Y-80518000D03*
X134620000Y-80518000D03*
X132080000Y-83058000D03*
X134620000Y-83058000D03*
X132080000Y-85598000D03*
X134620000Y-85598000D03*
X132080000Y-88138000D03*
D18*
X134620000Y-88138000D03*
D15*
X128778000Y-118110000D03*
X136398000Y-100330000D03*
X128778000Y-115570000D03*
X136398000Y-102870000D03*
X128778000Y-113030000D03*
X136398000Y-105410000D03*
X128778000Y-110490000D03*
X136398000Y-107950000D03*
X128778000Y-107950000D03*
X136398000Y-110490000D03*
X128778000Y-105410000D03*
X136398000Y-113030000D03*
X128778000Y-102870000D03*
X136398000Y-115570000D03*
X128778000Y-100330000D03*
D16*
X136398000Y-118110000D03*
D20*
X107950000Y-151384000D03*
X110490000Y-151384000D03*
D21*
X113030000Y-151384000D03*
D13*
X122468000Y-106172000D03*
X124968000Y-106172000D03*
X122468000Y-121412000D03*
X124968000Y-121412000D03*
D22*
X122428000Y-143510000D03*
D23*
X127165000Y-68072000D02*
X125984000Y-68072000D01*
X129368500Y-70275500D02*
X127165000Y-68072000D01*
X132080000Y-75438000D02*
X129368500Y-72726500D01*
X129368500Y-72726500D02*
X129368500Y-70275500D01*
D24*
X131230001Y-76287999D02*
X132080000Y-75438000D01*
X128778000Y-78740000D02*
X131230001Y-76287999D01*
X128778000Y-87122000D02*
X128778000Y-78740000D01*
X127508000Y-88392000D02*
X128778000Y-87122000D01*
X114554000Y-88392000D02*
X127508000Y-88392000D01*
X107950000Y-151384000D02*
X107188000Y-150622000D01*
X107188000Y-150622000D02*
X107188000Y-100330000D01*
X107188000Y-100330000D02*
X112014000Y-95504000D01*
X112014000Y-95504000D02*
X112014000Y-90932000D01*
X112014000Y-90932000D02*
X114554000Y-88392000D01*
D25*
X130556000Y-79502000D02*
X132080000Y-77978000D01*
X128778000Y-115570000D02*
X128270000Y-115570000D01*
X127000000Y-114300000D02*
X127000000Y-99822000D01*
X127000000Y-99822000D02*
X129794000Y-97028000D01*
X129794000Y-97028000D02*
X129794000Y-80264000D01*
X128270000Y-115570000D02*
X127000000Y-114300000D01*
X129794000Y-80264000D02*
X130556000Y-79502000D01*
X133350000Y-81788000D02*
X132929999Y-82208001D01*
X133350000Y-80046038D02*
X133350000Y-81788000D01*
X134148038Y-79248000D02*
X133350000Y-80046038D01*
X135091962Y-79248000D02*
X134148038Y-79248000D01*
X137160000Y-81316038D02*
X135091962Y-79248000D01*
X132334000Y-101854000D02*
X137160000Y-97028000D01*
X132334000Y-111252000D02*
X132334000Y-101854000D01*
X128778000Y-113030000D02*
X130556000Y-113030000D01*
X132929999Y-82208001D02*
X132080000Y-83058000D01*
X137160000Y-97028000D02*
X137160000Y-81316038D01*
X130556000Y-113030000D02*
X132334000Y-111252000D01*
X136652000Y-82550000D02*
X135469999Y-81367999D01*
X136652000Y-96774000D02*
X136652000Y-82550000D01*
X131879989Y-107788011D02*
X131879989Y-101546011D01*
X131879989Y-101546011D02*
X136652000Y-96774000D01*
X129178000Y-110490000D02*
X131879989Y-107788011D01*
X128778000Y-110490000D02*
X129178000Y-110490000D01*
X135469999Y-81367999D02*
X134620000Y-80518000D01*
D24*
X118218000Y-118872000D02*
X118618000Y-118872000D01*
X113138000Y-113792000D02*
X110998000Y-113792000D01*
X118218000Y-118872000D02*
X113138000Y-113792000D01*
X113030000Y-151384000D02*
X113030000Y-144272000D01*
X113030000Y-144272000D02*
X116840000Y-140462000D01*
D23*
X119018000Y-118872000D02*
X118618000Y-118872000D01*
X120650000Y-120504000D02*
X119018000Y-118872000D01*
X120650000Y-124714000D02*
X120650000Y-120504000D01*
X122428000Y-126492000D02*
X120650000Y-124714000D01*
X118120000Y-143520000D02*
X119176000Y-143520000D01*
X116840000Y-140462000D02*
X116840000Y-142240000D01*
X116840000Y-142240000D02*
X118120000Y-143520000D01*
D24*
X135998000Y-107950000D02*
X136398000Y-107950000D01*
X133350000Y-110598000D02*
X135998000Y-107950000D01*
X133350000Y-119634000D02*
X133350000Y-110598000D01*
X136398000Y-122428000D02*
X136144000Y-122428000D01*
X136144000Y-122428000D02*
X133350000Y-119634000D01*
D23*
X123227999Y-127291999D02*
X122428000Y-126492000D01*
X120406000Y-143520000D02*
X123952000Y-147066000D01*
X119176000Y-143520000D02*
X120406000Y-143520000D01*
X126222902Y-147066000D02*
X126970511Y-146318391D01*
X126970511Y-146318391D02*
X126970511Y-131034511D01*
X123952000Y-147066000D02*
X126222902Y-147066000D01*
X126970511Y-131034511D02*
X123227999Y-127291999D01*
D24*
X115604970Y-151384000D02*
X113030000Y-151384000D01*
X135998000Y-122428000D02*
X132842000Y-125584000D01*
X136398000Y-122428000D02*
X135998000Y-122428000D01*
X132842000Y-125584000D02*
X132842000Y-145796000D01*
X132842000Y-145796000D02*
X129286000Y-149352000D01*
X129286000Y-149352000D02*
X117636970Y-149352000D01*
X117636970Y-149352000D02*
X115604970Y-151384000D01*
D25*
X136798000Y-110490000D02*
X136398000Y-110490000D01*
X138430000Y-112122000D02*
X136798000Y-110490000D01*
X138430000Y-135089832D02*
X138430000Y-112122000D01*
X136398000Y-137668000D02*
X136398000Y-137121832D01*
X136398000Y-137121832D02*
X138430000Y-135089832D01*
X128778000Y-105410000D02*
X129178000Y-105410000D01*
X129178000Y-105410000D02*
X131425979Y-103162021D01*
X136144000Y-84582000D02*
X135469999Y-83907999D01*
X131425979Y-103162021D02*
X131425979Y-101238021D01*
X131425979Y-101238021D02*
X136144000Y-96520000D01*
X136144000Y-96520000D02*
X136144000Y-84582000D01*
X135469999Y-83907999D02*
X134620000Y-83058000D01*
X136798000Y-113030000D02*
X136398000Y-113030000D01*
X137922000Y-114154000D02*
X136798000Y-113030000D01*
X137922000Y-115100168D02*
X137922000Y-114154000D01*
X137925010Y-115103178D02*
X137922000Y-115100168D01*
X137925010Y-116036822D02*
X137925010Y-115103178D01*
X137922000Y-117045398D02*
X137922000Y-116039832D01*
X137925001Y-117048399D02*
X137922000Y-117045398D01*
X137922000Y-116039832D02*
X137925010Y-116036822D01*
X137922000Y-127038168D02*
X137922000Y-125437832D01*
X137922000Y-125437832D02*
X137925010Y-125434822D01*
X137925010Y-125434822D02*
X137925010Y-124501178D01*
X137922000Y-127977832D02*
X137925010Y-127974822D01*
X136398000Y-130048000D02*
X137922000Y-128524000D01*
X137922000Y-128524000D02*
X137922000Y-127977832D01*
X137925010Y-127974822D02*
X137925010Y-127041178D01*
X137925010Y-124501178D02*
X137922000Y-124498168D01*
X137922000Y-121958168D02*
X137922000Y-119174602D01*
X137925001Y-119171601D02*
X137925001Y-117048399D01*
X137922000Y-124498168D02*
X137922000Y-122897832D01*
X137922000Y-122897832D02*
X137925010Y-122894822D01*
X137925010Y-127041178D02*
X137922000Y-127038168D01*
X137925010Y-122894822D02*
X137925010Y-121961178D01*
X137925010Y-121961178D02*
X137922000Y-121958168D01*
X137922000Y-119174602D02*
X137925001Y-119171601D01*
X131230001Y-86447999D02*
X132080000Y-85598000D01*
X130902999Y-86775001D02*
X131230001Y-86447999D01*
X130902999Y-101145001D02*
X130902999Y-86775001D01*
X129178000Y-102870000D02*
X130902999Y-101145001D01*
X128778000Y-102870000D02*
X129178000Y-102870000D01*
X130302000Y-82296000D02*
X132080000Y-80518000D01*
X128778000Y-100330000D02*
X130302000Y-98806000D01*
X130302000Y-98806000D02*
X130302000Y-82296000D01*
X116623999Y-67272001D02*
X115824000Y-68072000D01*
X117133175Y-66762825D02*
X116623999Y-67272001D01*
X132080000Y-70358000D02*
X128484825Y-66762825D01*
X128484825Y-66762825D02*
X117133175Y-66762825D01*
X112452000Y-131572000D02*
X110998000Y-131572000D01*
X113308028Y-131572000D02*
X112452000Y-131572000D01*
X117626028Y-135890000D02*
X113308028Y-131572000D01*
X120146000Y-135890000D02*
X117626028Y-135890000D01*
X125476000Y-140970000D02*
X125226000Y-140970000D01*
X125226000Y-140970000D02*
X120146000Y-135890000D01*
X119018000Y-126492000D02*
X118618000Y-126492000D01*
X126453001Y-133927001D02*
X119018000Y-126492000D01*
X126453001Y-144056999D02*
X126453001Y-133927001D01*
X125476000Y-144780000D02*
X125730000Y-144780000D01*
X125730000Y-144780000D02*
X126453001Y-144056999D01*
X112452000Y-134112000D02*
X110998000Y-134112000D01*
X115205962Y-134112000D02*
X112452000Y-134112000D01*
X118110000Y-137016038D02*
X115205962Y-134112000D01*
X118110000Y-137624000D02*
X118110000Y-137016038D01*
X119176000Y-138440000D02*
X118926000Y-138440000D01*
X118926000Y-138440000D02*
X118110000Y-137624000D01*
G36*
X139040001Y-111664141D02*
G01*
X139000298Y-111615764D01*
X138971422Y-111580578D01*
X138942346Y-111556716D01*
X138199366Y-110813736D01*
X138212236Y-110771309D01*
X138239943Y-110490000D01*
X138212236Y-110208691D01*
X138130182Y-109938192D01*
X137996932Y-109688899D01*
X137817608Y-109470392D01*
X137599101Y-109291068D01*
X137466142Y-109220000D01*
X137599101Y-109148932D01*
X137817608Y-108969608D01*
X137996932Y-108751101D01*
X138130182Y-108501808D01*
X138212236Y-108231309D01*
X138239943Y-107950000D01*
X138212236Y-107668691D01*
X138130182Y-107398192D01*
X137996932Y-107148899D01*
X137817608Y-106930392D01*
X137599101Y-106751068D01*
X137466142Y-106680000D01*
X137599101Y-106608932D01*
X137817608Y-106429608D01*
X137996932Y-106211101D01*
X138130182Y-105961808D01*
X138212236Y-105691309D01*
X138239943Y-105410000D01*
X138212236Y-105128691D01*
X138130182Y-104858192D01*
X137996932Y-104608899D01*
X137817608Y-104390392D01*
X137599101Y-104211068D01*
X137466142Y-104140000D01*
X137599101Y-104068932D01*
X137817608Y-103889608D01*
X137996932Y-103671101D01*
X138130182Y-103421808D01*
X138212236Y-103151309D01*
X138239943Y-102870000D01*
X138212236Y-102588691D01*
X138130182Y-102318192D01*
X137996932Y-102068899D01*
X137817608Y-101850392D01*
X137599101Y-101671068D01*
X137466142Y-101600000D01*
X137599101Y-101528932D01*
X137817608Y-101349608D01*
X137996932Y-101131101D01*
X138130182Y-100881808D01*
X138212236Y-100611309D01*
X138239943Y-100330000D01*
X138212236Y-100048691D01*
X138130182Y-99778192D01*
X137996932Y-99528899D01*
X137817608Y-99310392D01*
X137599101Y-99131068D01*
X137349808Y-98997818D01*
X137079309Y-98915764D01*
X136868492Y-98895000D01*
X136370630Y-98895000D01*
X137672347Y-97593283D01*
X137701422Y-97569422D01*
X137773658Y-97481402D01*
X137796645Y-97453393D01*
X137867401Y-97321016D01*
X137867402Y-97321015D01*
X137910974Y-97177378D01*
X137922000Y-97065426D01*
X137922000Y-97065423D01*
X137925686Y-97028000D01*
X137922000Y-96990577D01*
X137922000Y-81353460D01*
X137925686Y-81316037D01*
X137916495Y-81222721D01*
X137910974Y-81166660D01*
X137867402Y-81023023D01*
X137796645Y-80890646D01*
X137701422Y-80774616D01*
X137672352Y-80750759D01*
X135801161Y-78879569D01*
X135860706Y-78807014D01*
X135998599Y-78549034D01*
X136083513Y-78269111D01*
X136112185Y-77978000D01*
X136083513Y-77686889D01*
X135998599Y-77406966D01*
X135860706Y-77148986D01*
X135675134Y-76922866D01*
X135449014Y-76737294D01*
X135384477Y-76702799D01*
X135501355Y-76633178D01*
X135717588Y-76438269D01*
X135891641Y-76204920D01*
X136016825Y-75942099D01*
X136061476Y-75794890D01*
X135940155Y-75565000D01*
X134747000Y-75565000D01*
X134747000Y-75585000D01*
X134493000Y-75585000D01*
X134493000Y-75565000D01*
X134473000Y-75565000D01*
X134473000Y-75311000D01*
X134493000Y-75311000D01*
X134493000Y-75291000D01*
X134747000Y-75291000D01*
X134747000Y-75311000D01*
X135940155Y-75311000D01*
X136061476Y-75081110D01*
X136016825Y-74933901D01*
X135891641Y-74671080D01*
X135717588Y-74437731D01*
X135501355Y-74242822D01*
X135384477Y-74173201D01*
X135449014Y-74138706D01*
X135675134Y-73953134D01*
X135860706Y-73727014D01*
X135998599Y-73469034D01*
X136083513Y-73189111D01*
X136112185Y-72898000D01*
X136083513Y-72606889D01*
X135998599Y-72326966D01*
X135860706Y-72068986D01*
X135675134Y-71842866D01*
X135449014Y-71657294D01*
X135394209Y-71628000D01*
X135449014Y-71598706D01*
X135675134Y-71413134D01*
X135860706Y-71187014D01*
X135998599Y-70929034D01*
X136083513Y-70649111D01*
X136112185Y-70358000D01*
X136083513Y-70066889D01*
X135998599Y-69786966D01*
X135860706Y-69528986D01*
X135675134Y-69302866D01*
X135449014Y-69117294D01*
X135394209Y-69088000D01*
X135449014Y-69058706D01*
X135675134Y-68873134D01*
X135860706Y-68647014D01*
X135998599Y-68389034D01*
X136083513Y-68109111D01*
X136112185Y-67818000D01*
X136083513Y-67526889D01*
X135998599Y-67246966D01*
X135860706Y-66988986D01*
X135675134Y-66762866D01*
X135449014Y-66577294D01*
X135191034Y-66439401D01*
X134911111Y-66354487D01*
X134692950Y-66333000D01*
X134547050Y-66333000D01*
X134328889Y-66354487D01*
X134048966Y-66439401D01*
X133790986Y-66577294D01*
X133564866Y-66762866D01*
X133379294Y-66988986D01*
X133350000Y-67043791D01*
X133320706Y-66988986D01*
X133135134Y-66762866D01*
X132909014Y-66577294D01*
X132651034Y-66439401D01*
X132371111Y-66354487D01*
X132152950Y-66333000D01*
X132007050Y-66333000D01*
X131788889Y-66354487D01*
X131508966Y-66439401D01*
X131250986Y-66577294D01*
X131024866Y-66762866D01*
X130839294Y-66988986D01*
X130701401Y-67246966D01*
X130616487Y-67526889D01*
X130590488Y-67790858D01*
X129050109Y-66250479D01*
X129026247Y-66221403D01*
X128910217Y-66126180D01*
X128777840Y-66055423D01*
X128634203Y-66011851D01*
X128522251Y-66000825D01*
X128522248Y-66000825D01*
X128484825Y-65997139D01*
X128447402Y-66000825D01*
X117170598Y-66000825D01*
X117133175Y-65997139D01*
X117095752Y-66000825D01*
X117095749Y-66000825D01*
X116983797Y-66011851D01*
X116840160Y-66055423D01*
X116778539Y-66088360D01*
X116707782Y-66126180D01*
X116679285Y-66149568D01*
X116591753Y-66221403D01*
X116567887Y-66250484D01*
X116147736Y-66670634D01*
X116105309Y-66657764D01*
X115894492Y-66637000D01*
X115753508Y-66637000D01*
X115542691Y-66657764D01*
X115272192Y-66739818D01*
X115022899Y-66873068D01*
X114804392Y-67052392D01*
X114625068Y-67270899D01*
X114554000Y-67403858D01*
X114482932Y-67270899D01*
X114303608Y-67052392D01*
X114085101Y-66873068D01*
X113835808Y-66739818D01*
X113565309Y-66657764D01*
X113354492Y-66637000D01*
X113213508Y-66637000D01*
X113002691Y-66657764D01*
X112732192Y-66739818D01*
X112482899Y-66873068D01*
X112264392Y-67052392D01*
X112085068Y-67270899D01*
X112014000Y-67403858D01*
X111942932Y-67270899D01*
X111763608Y-67052392D01*
X111545101Y-66873068D01*
X111295808Y-66739818D01*
X111025309Y-66657764D01*
X110814492Y-66637000D01*
X110673508Y-66637000D01*
X110462691Y-66657764D01*
X110192192Y-66739818D01*
X109942899Y-66873068D01*
X109724392Y-67052392D01*
X109545068Y-67270899D01*
X109411818Y-67520192D01*
X109329764Y-67790691D01*
X109302057Y-68072000D01*
X109329764Y-68353309D01*
X109411818Y-68623808D01*
X109545068Y-68873101D01*
X109724392Y-69091608D01*
X109942899Y-69270932D01*
X110192192Y-69404182D01*
X110462691Y-69486236D01*
X110673508Y-69507000D01*
X110814492Y-69507000D01*
X111025309Y-69486236D01*
X111295808Y-69404182D01*
X111545101Y-69270932D01*
X111763608Y-69091608D01*
X111942932Y-68873101D01*
X112014000Y-68740142D01*
X112085068Y-68873101D01*
X112264392Y-69091608D01*
X112482899Y-69270932D01*
X112732192Y-69404182D01*
X113002691Y-69486236D01*
X113213508Y-69507000D01*
X113354492Y-69507000D01*
X113565309Y-69486236D01*
X113835808Y-69404182D01*
X114085101Y-69270932D01*
X114303608Y-69091608D01*
X114482932Y-68873101D01*
X114554000Y-68740142D01*
X114625068Y-68873101D01*
X114804392Y-69091608D01*
X115022899Y-69270932D01*
X115272192Y-69404182D01*
X115542691Y-69486236D01*
X115753508Y-69507000D01*
X115894492Y-69507000D01*
X116105309Y-69486236D01*
X116375808Y-69404182D01*
X116625101Y-69270932D01*
X116843608Y-69091608D01*
X117022932Y-68873101D01*
X117094000Y-68740142D01*
X117165068Y-68873101D01*
X117344392Y-69091608D01*
X117562899Y-69270932D01*
X117812192Y-69404182D01*
X118082691Y-69486236D01*
X118293508Y-69507000D01*
X118434492Y-69507000D01*
X118645309Y-69486236D01*
X118915808Y-69404182D01*
X119165101Y-69270932D01*
X119383608Y-69091608D01*
X119562932Y-68873101D01*
X119634000Y-68740142D01*
X119705068Y-68873101D01*
X119884392Y-69091608D01*
X120102899Y-69270932D01*
X120352192Y-69404182D01*
X120622691Y-69486236D01*
X120833508Y-69507000D01*
X120974492Y-69507000D01*
X121185309Y-69486236D01*
X121455808Y-69404182D01*
X121705101Y-69270932D01*
X121923608Y-69091608D01*
X122102932Y-68873101D01*
X122174000Y-68740142D01*
X122245068Y-68873101D01*
X122424392Y-69091608D01*
X122642899Y-69270932D01*
X122892192Y-69404182D01*
X123162691Y-69486236D01*
X123373508Y-69507000D01*
X123514492Y-69507000D01*
X123725309Y-69486236D01*
X123995808Y-69404182D01*
X124245101Y-69270932D01*
X124463608Y-69091608D01*
X124556419Y-68978518D01*
X124558188Y-68996482D01*
X124594498Y-69116180D01*
X124653463Y-69226494D01*
X124732815Y-69323185D01*
X124829506Y-69402537D01*
X124939820Y-69461502D01*
X125059518Y-69497812D01*
X125184000Y-69510072D01*
X126784000Y-69510072D01*
X126908482Y-69497812D01*
X127028180Y-69461502D01*
X127138494Y-69402537D01*
X127235185Y-69323185D01*
X127241301Y-69315733D01*
X128543001Y-70617435D01*
X128543000Y-72685949D01*
X128539006Y-72726500D01*
X128543000Y-72767050D01*
X128543000Y-72767052D01*
X128554944Y-72888325D01*
X128584877Y-72987000D01*
X128602147Y-73043933D01*
X128678801Y-73187342D01*
X128708121Y-73223068D01*
X128781959Y-73313041D01*
X128813466Y-73338898D01*
X130617644Y-75143076D01*
X130616487Y-75146889D01*
X130587815Y-75438000D01*
X130600829Y-75570133D01*
X130589568Y-75581394D01*
X130589563Y-75581398D01*
X128411877Y-77759085D01*
X128414236Y-77751309D01*
X128441943Y-77470000D01*
X128414236Y-77188691D01*
X128332182Y-76918192D01*
X128198932Y-76668899D01*
X128019608Y-76450392D01*
X127801101Y-76271068D01*
X127551808Y-76137818D01*
X127281309Y-76055764D01*
X127070492Y-76035000D01*
X126929508Y-76035000D01*
X126718691Y-76055764D01*
X126448192Y-76137818D01*
X126198899Y-76271068D01*
X125980392Y-76450392D01*
X125801068Y-76668899D01*
X125667818Y-76918192D01*
X125585764Y-77188691D01*
X125558057Y-77470000D01*
X125585764Y-77751309D01*
X125667818Y-78021808D01*
X125801068Y-78271101D01*
X125980392Y-78489608D01*
X126198899Y-78668932D01*
X126448192Y-78802182D01*
X126718691Y-78884236D01*
X126929508Y-78905000D01*
X127070492Y-78905000D01*
X127281309Y-78884236D01*
X127551808Y-78802182D01*
X127801101Y-78668932D01*
X127830248Y-78645012D01*
X127820892Y-78740000D01*
X127825501Y-78786795D01*
X127825501Y-79645364D01*
X127750000Y-79637928D01*
X127285750Y-79641000D01*
X127127000Y-79799750D01*
X127127000Y-80899000D01*
X127147000Y-80899000D01*
X127147000Y-81153000D01*
X127127000Y-81153000D01*
X127127000Y-82252250D01*
X127285750Y-82411000D01*
X127750000Y-82414072D01*
X127825501Y-82406636D01*
X127825500Y-85499857D01*
X127656043Y-85386629D01*
X127403989Y-85282225D01*
X127136411Y-85229000D01*
X126863589Y-85229000D01*
X126596011Y-85282225D01*
X126343957Y-85386629D01*
X126117114Y-85538201D01*
X125924201Y-85731114D01*
X125772629Y-85957957D01*
X125730000Y-86060873D01*
X125687371Y-85957957D01*
X125535799Y-85731114D01*
X125342886Y-85538201D01*
X125116043Y-85386629D01*
X124863989Y-85282225D01*
X124596411Y-85229000D01*
X124323589Y-85229000D01*
X124056011Y-85282225D01*
X123803957Y-85386629D01*
X123577114Y-85538201D01*
X123384201Y-85731114D01*
X123306445Y-85847483D01*
X123295812Y-85739518D01*
X123259502Y-85619820D01*
X123200537Y-85509506D01*
X123121185Y-85412815D01*
X123024494Y-85333463D01*
X122914180Y-85274498D01*
X122794482Y-85238188D01*
X122670000Y-85225928D01*
X122205750Y-85229000D01*
X122047000Y-85387750D01*
X122047000Y-86487000D01*
X122067000Y-86487000D01*
X122067000Y-86741000D01*
X122047000Y-86741000D01*
X122047000Y-86761000D01*
X121793000Y-86761000D01*
X121793000Y-86741000D01*
X121773000Y-86741000D01*
X121773000Y-86487000D01*
X121793000Y-86487000D01*
X121793000Y-85387750D01*
X121634250Y-85229000D01*
X121170000Y-85225928D01*
X121045518Y-85238188D01*
X120925820Y-85274498D01*
X120815506Y-85333463D01*
X120718815Y-85412815D01*
X120639463Y-85509506D01*
X120586770Y-85608085D01*
X120516886Y-85538201D01*
X120290043Y-85386629D01*
X120037989Y-85282225D01*
X119770411Y-85229000D01*
X119497589Y-85229000D01*
X119230011Y-85282225D01*
X118977957Y-85386629D01*
X118751114Y-85538201D01*
X118558201Y-85731114D01*
X118406629Y-85957957D01*
X118364000Y-86060873D01*
X118321371Y-85957957D01*
X118169799Y-85731114D01*
X117976886Y-85538201D01*
X117750043Y-85386629D01*
X117497989Y-85282225D01*
X117230411Y-85229000D01*
X116957589Y-85229000D01*
X116690011Y-85282225D01*
X116437957Y-85386629D01*
X116211114Y-85538201D01*
X116018201Y-85731114D01*
X115940445Y-85847483D01*
X115929812Y-85739518D01*
X115893502Y-85619820D01*
X115834537Y-85509506D01*
X115755185Y-85412815D01*
X115658494Y-85333463D01*
X115548180Y-85274498D01*
X115428482Y-85238188D01*
X115304000Y-85225928D01*
X114839750Y-85229000D01*
X114681000Y-85387750D01*
X114681000Y-86487000D01*
X114701000Y-86487000D01*
X114701000Y-86741000D01*
X114681000Y-86741000D01*
X114681000Y-86761000D01*
X114427000Y-86761000D01*
X114427000Y-86741000D01*
X114407000Y-86741000D01*
X114407000Y-86487000D01*
X114427000Y-86487000D01*
X114427000Y-85387750D01*
X114268250Y-85229000D01*
X113804000Y-85225928D01*
X113679518Y-85238188D01*
X113559820Y-85274498D01*
X113449506Y-85333463D01*
X113352815Y-85412815D01*
X113273463Y-85509506D01*
X113220770Y-85608085D01*
X113150886Y-85538201D01*
X112924043Y-85386629D01*
X112671989Y-85282225D01*
X112404411Y-85229000D01*
X112131589Y-85229000D01*
X111864011Y-85282225D01*
X111611957Y-85386629D01*
X111385114Y-85538201D01*
X111192201Y-85731114D01*
X111040629Y-85957957D01*
X110998000Y-86060873D01*
X110955371Y-85957957D01*
X110803799Y-85731114D01*
X110610886Y-85538201D01*
X110384043Y-85386629D01*
X110131989Y-85282225D01*
X109864411Y-85229000D01*
X109591589Y-85229000D01*
X109324011Y-85282225D01*
X109071957Y-85386629D01*
X108845114Y-85538201D01*
X108652201Y-85731114D01*
X108574445Y-85847483D01*
X108563812Y-85739518D01*
X108527502Y-85619820D01*
X108468537Y-85509506D01*
X108389185Y-85412815D01*
X108292494Y-85333463D01*
X108182180Y-85274498D01*
X108062482Y-85238188D01*
X107938000Y-85225928D01*
X107473750Y-85229000D01*
X107315000Y-85387750D01*
X107315000Y-86487000D01*
X107335000Y-86487000D01*
X107335000Y-86741000D01*
X107315000Y-86741000D01*
X107315000Y-87840250D01*
X107473750Y-87999000D01*
X107938000Y-88002072D01*
X108062482Y-87989812D01*
X108182180Y-87953502D01*
X108292494Y-87894537D01*
X108389185Y-87815185D01*
X108468537Y-87718494D01*
X108527502Y-87608180D01*
X108563812Y-87488482D01*
X108574445Y-87380517D01*
X108652201Y-87496886D01*
X108845114Y-87689799D01*
X109071957Y-87841371D01*
X109324011Y-87945775D01*
X109591589Y-87999000D01*
X109864411Y-87999000D01*
X110131989Y-87945775D01*
X110384043Y-87841371D01*
X110610886Y-87689799D01*
X110803799Y-87496886D01*
X110955371Y-87270043D01*
X110998000Y-87167127D01*
X111040629Y-87270043D01*
X111192201Y-87496886D01*
X111385114Y-87689799D01*
X111611957Y-87841371D01*
X111864011Y-87945775D01*
X112131589Y-87999000D01*
X112404411Y-87999000D01*
X112671989Y-87945775D01*
X112924043Y-87841371D01*
X113150886Y-87689799D01*
X113220770Y-87619915D01*
X113273463Y-87718494D01*
X113352815Y-87815185D01*
X113449506Y-87894537D01*
X113559820Y-87953502D01*
X113625528Y-87973434D01*
X111373565Y-90225397D01*
X111337223Y-90255222D01*
X111307399Y-90291563D01*
X111218194Y-90400260D01*
X111129749Y-90565731D01*
X111075283Y-90745278D01*
X111056892Y-90932000D01*
X111061501Y-90978795D01*
X111061500Y-95109462D01*
X106547565Y-99623397D01*
X106511223Y-99653222D01*
X106481399Y-99689563D01*
X106392194Y-99798260D01*
X106303749Y-99963731D01*
X106249283Y-100143278D01*
X106230892Y-100330000D01*
X106235501Y-100376795D01*
X106235500Y-150575215D01*
X106230892Y-150622000D01*
X106235500Y-150668784D01*
X106249283Y-150808722D01*
X106303748Y-150988268D01*
X106392194Y-151153741D01*
X106511222Y-151298778D01*
X106547569Y-151328607D01*
X106553000Y-151334038D01*
X106553000Y-151790444D01*
X106573214Y-151995679D01*
X106653096Y-152259014D01*
X106782817Y-152501706D01*
X106957392Y-152714427D01*
X107170113Y-152889003D01*
X107412805Y-153018724D01*
X107676140Y-153098606D01*
X107950000Y-153125579D01*
X108223859Y-153098606D01*
X108487194Y-153018724D01*
X108729886Y-152889003D01*
X108942607Y-152714428D01*
X109117183Y-152501707D01*
X109221038Y-152307407D01*
X109247941Y-152373762D01*
X109398994Y-152603549D01*
X109591974Y-152799452D01*
X109819465Y-152953942D01*
X110072724Y-153061082D01*
X110146930Y-153076040D01*
X110363000Y-152953540D01*
X110363000Y-151511000D01*
X110343000Y-151511000D01*
X110343000Y-151257000D01*
X110363000Y-151257000D01*
X110363000Y-149814460D01*
X110146930Y-149691960D01*
X110072724Y-149706918D01*
X109819465Y-149814058D01*
X109591974Y-149968548D01*
X109398994Y-150164451D01*
X109247941Y-150394238D01*
X109221038Y-150460593D01*
X109117183Y-150266293D01*
X108942608Y-150053572D01*
X108729887Y-149878997D01*
X108487195Y-149749276D01*
X108223860Y-149669394D01*
X108140500Y-149661184D01*
X108140500Y-141408629D01*
X108200392Y-141481608D01*
X108418899Y-141660932D01*
X108668192Y-141794182D01*
X108938691Y-141876236D01*
X109149508Y-141897000D01*
X109290492Y-141897000D01*
X109501309Y-141876236D01*
X109771808Y-141794182D01*
X110021101Y-141660932D01*
X110239608Y-141481608D01*
X110418932Y-141263101D01*
X110552182Y-141013808D01*
X110634236Y-140743309D01*
X110661943Y-140462000D01*
X110634236Y-140180691D01*
X110552182Y-139910192D01*
X110418932Y-139660899D01*
X110239608Y-139442392D01*
X110021101Y-139263068D01*
X109771808Y-139129818D01*
X109501309Y-139047764D01*
X109290492Y-139027000D01*
X109149508Y-139027000D01*
X108938691Y-139047764D01*
X108668192Y-139129818D01*
X108418899Y-139263068D01*
X108200392Y-139442392D01*
X108140500Y-139515371D01*
X108140500Y-138360629D01*
X108200392Y-138433608D01*
X108418899Y-138612932D01*
X108668192Y-138746182D01*
X108938691Y-138828236D01*
X109149508Y-138849000D01*
X109290492Y-138849000D01*
X109501309Y-138828236D01*
X109771808Y-138746182D01*
X110021101Y-138612932D01*
X110239608Y-138433608D01*
X110418932Y-138215101D01*
X110552182Y-137965808D01*
X110634236Y-137695309D01*
X110661943Y-137414000D01*
X110634236Y-137132691D01*
X110552182Y-136862192D01*
X110418932Y-136612899D01*
X110239608Y-136394392D01*
X110021101Y-136215068D01*
X109771808Y-136081818D01*
X109501309Y-135999764D01*
X109290492Y-135979000D01*
X109149508Y-135979000D01*
X108938691Y-135999764D01*
X108668192Y-136081818D01*
X108418899Y-136215068D01*
X108200392Y-136394392D01*
X108140500Y-136467371D01*
X108140500Y-100724538D01*
X112232373Y-96632665D01*
X113373000Y-96632665D01*
X113373000Y-96915335D01*
X113428147Y-97192574D01*
X113536320Y-97453727D01*
X113693363Y-97688759D01*
X113893241Y-97888637D01*
X114128273Y-98045680D01*
X114389426Y-98153853D01*
X114666665Y-98209000D01*
X114949335Y-98209000D01*
X115226574Y-98153853D01*
X115487727Y-98045680D01*
X115722759Y-97888637D01*
X115922637Y-97688759D01*
X116079680Y-97453727D01*
X116187853Y-97192574D01*
X116243000Y-96915335D01*
X116243000Y-96774000D01*
X117176057Y-96774000D01*
X117203764Y-97055309D01*
X117285818Y-97325808D01*
X117419068Y-97575101D01*
X117598392Y-97793608D01*
X117816899Y-97972932D01*
X118066192Y-98106182D01*
X118336691Y-98188236D01*
X118547508Y-98209000D01*
X118688492Y-98209000D01*
X118899309Y-98188236D01*
X119169808Y-98106182D01*
X119419101Y-97972932D01*
X119637608Y-97793608D01*
X119816932Y-97575101D01*
X119950182Y-97325808D01*
X120032236Y-97055309D01*
X120059943Y-96774000D01*
X120046023Y-96632665D01*
X124803000Y-96632665D01*
X124803000Y-96915335D01*
X124858147Y-97192574D01*
X124966320Y-97453727D01*
X125123363Y-97688759D01*
X125323241Y-97888637D01*
X125558273Y-98045680D01*
X125819426Y-98153853D01*
X126096665Y-98209000D01*
X126379335Y-98209000D01*
X126656574Y-98153853D01*
X126917727Y-98045680D01*
X127152759Y-97888637D01*
X127352637Y-97688759D01*
X127509680Y-97453727D01*
X127617853Y-97192574D01*
X127673000Y-96915335D01*
X127673000Y-96632665D01*
X127617853Y-96355426D01*
X127509680Y-96094273D01*
X127352637Y-95859241D01*
X127152759Y-95659363D01*
X126917727Y-95502320D01*
X126656574Y-95394147D01*
X126379335Y-95339000D01*
X126096665Y-95339000D01*
X125819426Y-95394147D01*
X125558273Y-95502320D01*
X125323241Y-95659363D01*
X125123363Y-95859241D01*
X124966320Y-96094273D01*
X124858147Y-96355426D01*
X124803000Y-96632665D01*
X120046023Y-96632665D01*
X120032236Y-96492691D01*
X119950182Y-96222192D01*
X119816932Y-95972899D01*
X119637608Y-95754392D01*
X119419101Y-95575068D01*
X119169808Y-95441818D01*
X118899309Y-95359764D01*
X118688492Y-95339000D01*
X118547508Y-95339000D01*
X118336691Y-95359764D01*
X118066192Y-95441818D01*
X117816899Y-95575068D01*
X117598392Y-95754392D01*
X117419068Y-95972899D01*
X117285818Y-96222192D01*
X117203764Y-96492691D01*
X117176057Y-96774000D01*
X116243000Y-96774000D01*
X116243000Y-96632665D01*
X116187853Y-96355426D01*
X116079680Y-96094273D01*
X115922637Y-95859241D01*
X115722759Y-95659363D01*
X115487727Y-95502320D01*
X115226574Y-95394147D01*
X114949335Y-95339000D01*
X114666665Y-95339000D01*
X114389426Y-95394147D01*
X114128273Y-95502320D01*
X113893241Y-95659363D01*
X113693363Y-95859241D01*
X113536320Y-96094273D01*
X113428147Y-96355426D01*
X113373000Y-96632665D01*
X112232373Y-96632665D01*
X112654431Y-96210607D01*
X112690778Y-96180778D01*
X112809806Y-96035741D01*
X112891257Y-95883356D01*
X112898252Y-95870270D01*
X112952717Y-95690722D01*
X112971108Y-95504000D01*
X112966500Y-95457215D01*
X112966500Y-93584665D01*
X113373000Y-93584665D01*
X113373000Y-93867335D01*
X113428147Y-94144574D01*
X113536320Y-94405727D01*
X113693363Y-94640759D01*
X113893241Y-94840637D01*
X114128273Y-94997680D01*
X114389426Y-95105853D01*
X114666665Y-95161000D01*
X114949335Y-95161000D01*
X115226574Y-95105853D01*
X115487727Y-94997680D01*
X115722759Y-94840637D01*
X115922637Y-94640759D01*
X116079680Y-94405727D01*
X116187853Y-94144574D01*
X116243000Y-93867335D01*
X116243000Y-93726000D01*
X117176057Y-93726000D01*
X117203764Y-94007309D01*
X117285818Y-94277808D01*
X117419068Y-94527101D01*
X117598392Y-94745608D01*
X117816899Y-94924932D01*
X118066192Y-95058182D01*
X118336691Y-95140236D01*
X118547508Y-95161000D01*
X118688492Y-95161000D01*
X118899309Y-95140236D01*
X119169808Y-95058182D01*
X119419101Y-94924932D01*
X119637608Y-94745608D01*
X119816932Y-94527101D01*
X119950182Y-94277808D01*
X120032236Y-94007309D01*
X120059943Y-93726000D01*
X120046023Y-93584665D01*
X124803000Y-93584665D01*
X124803000Y-93867335D01*
X124858147Y-94144574D01*
X124966320Y-94405727D01*
X125123363Y-94640759D01*
X125323241Y-94840637D01*
X125558273Y-94997680D01*
X125819426Y-95105853D01*
X126096665Y-95161000D01*
X126379335Y-95161000D01*
X126656574Y-95105853D01*
X126917727Y-94997680D01*
X127152759Y-94840637D01*
X127352637Y-94640759D01*
X127509680Y-94405727D01*
X127617853Y-94144574D01*
X127673000Y-93867335D01*
X127673000Y-93584665D01*
X127617853Y-93307426D01*
X127509680Y-93046273D01*
X127352637Y-92811241D01*
X127152759Y-92611363D01*
X126917727Y-92454320D01*
X126656574Y-92346147D01*
X126379335Y-92291000D01*
X126096665Y-92291000D01*
X125819426Y-92346147D01*
X125558273Y-92454320D01*
X125323241Y-92611363D01*
X125123363Y-92811241D01*
X124966320Y-93046273D01*
X124858147Y-93307426D01*
X124803000Y-93584665D01*
X120046023Y-93584665D01*
X120032236Y-93444691D01*
X119950182Y-93174192D01*
X119816932Y-92924899D01*
X119637608Y-92706392D01*
X119419101Y-92527068D01*
X119169808Y-92393818D01*
X118899309Y-92311764D01*
X118688492Y-92291000D01*
X118547508Y-92291000D01*
X118336691Y-92311764D01*
X118066192Y-92393818D01*
X117816899Y-92527068D01*
X117598392Y-92706392D01*
X117419068Y-92924899D01*
X117285818Y-93174192D01*
X117203764Y-93444691D01*
X117176057Y-93726000D01*
X116243000Y-93726000D01*
X116243000Y-93584665D01*
X116187853Y-93307426D01*
X116079680Y-93046273D01*
X115922637Y-92811241D01*
X115722759Y-92611363D01*
X115487727Y-92454320D01*
X115226574Y-92346147D01*
X114949335Y-92291000D01*
X114666665Y-92291000D01*
X114389426Y-92346147D01*
X114128273Y-92454320D01*
X113893241Y-92611363D01*
X113693363Y-92811241D01*
X113536320Y-93046273D01*
X113428147Y-93307426D01*
X113373000Y-93584665D01*
X112966500Y-93584665D01*
X112966500Y-91326538D01*
X113389708Y-90903330D01*
X113428147Y-91096574D01*
X113536320Y-91357727D01*
X113693363Y-91592759D01*
X113893241Y-91792637D01*
X114128273Y-91949680D01*
X114389426Y-92057853D01*
X114666665Y-92113000D01*
X114949335Y-92113000D01*
X115226574Y-92057853D01*
X115487727Y-91949680D01*
X115722759Y-91792637D01*
X115922637Y-91592759D01*
X116079680Y-91357727D01*
X116187853Y-91096574D01*
X116243000Y-90819335D01*
X116243000Y-90536665D01*
X116187853Y-90259426D01*
X116079680Y-89998273D01*
X115922637Y-89763241D01*
X115722759Y-89563363D01*
X115487727Y-89406320D01*
X115338480Y-89344500D01*
X118070537Y-89344500D01*
X118066192Y-89345818D01*
X117816899Y-89479068D01*
X117598392Y-89658392D01*
X117419068Y-89876899D01*
X117285818Y-90126192D01*
X117203764Y-90396691D01*
X117176057Y-90678000D01*
X117203764Y-90959309D01*
X117285818Y-91229808D01*
X117419068Y-91479101D01*
X117598392Y-91697608D01*
X117816899Y-91876932D01*
X118066192Y-92010182D01*
X118336691Y-92092236D01*
X118547508Y-92113000D01*
X118688492Y-92113000D01*
X118899309Y-92092236D01*
X119169808Y-92010182D01*
X119419101Y-91876932D01*
X119637608Y-91697608D01*
X119816932Y-91479101D01*
X119950182Y-91229808D01*
X120032236Y-90959309D01*
X120059943Y-90678000D01*
X120032236Y-90396691D01*
X119950182Y-90126192D01*
X119816932Y-89876899D01*
X119637608Y-89658392D01*
X119419101Y-89479068D01*
X119169808Y-89345818D01*
X119165463Y-89344500D01*
X125707520Y-89344500D01*
X125558273Y-89406320D01*
X125323241Y-89563363D01*
X125123363Y-89763241D01*
X124966320Y-89998273D01*
X124858147Y-90259426D01*
X124803000Y-90536665D01*
X124803000Y-90819335D01*
X124858147Y-91096574D01*
X124966320Y-91357727D01*
X125123363Y-91592759D01*
X125323241Y-91792637D01*
X125558273Y-91949680D01*
X125819426Y-92057853D01*
X126096665Y-92113000D01*
X126379335Y-92113000D01*
X126656574Y-92057853D01*
X126917727Y-91949680D01*
X127152759Y-91792637D01*
X127352637Y-91592759D01*
X127509680Y-91357727D01*
X127617853Y-91096574D01*
X127673000Y-90819335D01*
X127673000Y-90536665D01*
X127617853Y-90259426D01*
X127509680Y-89998273D01*
X127352637Y-89763241D01*
X127152759Y-89563363D01*
X126917727Y-89406320D01*
X126768480Y-89344500D01*
X127461215Y-89344500D01*
X127508000Y-89349108D01*
X127554785Y-89344500D01*
X127694723Y-89330717D01*
X127874269Y-89276252D01*
X128039741Y-89187806D01*
X128184778Y-89068778D01*
X128214607Y-89032431D01*
X129032001Y-88215038D01*
X129032000Y-96712370D01*
X126487649Y-99256721D01*
X126458579Y-99280578D01*
X126434722Y-99309648D01*
X126434721Y-99309649D01*
X126363355Y-99396608D01*
X126292599Y-99528985D01*
X126249027Y-99672622D01*
X126234314Y-99822000D01*
X126238001Y-99859433D01*
X126238001Y-105489760D01*
X126082637Y-105257241D01*
X125882759Y-105057363D01*
X125647727Y-104900320D01*
X125386574Y-104792147D01*
X125109335Y-104737000D01*
X124826665Y-104737000D01*
X124549426Y-104792147D01*
X124288273Y-104900320D01*
X124053241Y-105057363D01*
X123853363Y-105257241D01*
X123719308Y-105457869D01*
X123704671Y-105430486D01*
X123460702Y-105358903D01*
X122647605Y-106172000D01*
X123460702Y-106985097D01*
X123704671Y-106913514D01*
X123718324Y-106884659D01*
X123853363Y-107086759D01*
X124053241Y-107286637D01*
X124288273Y-107443680D01*
X124549426Y-107551853D01*
X124826665Y-107607000D01*
X125109335Y-107607000D01*
X125386574Y-107551853D01*
X125647727Y-107443680D01*
X125882759Y-107286637D01*
X126082637Y-107086759D01*
X126238001Y-106854241D01*
X126238000Y-114262577D01*
X126234314Y-114300000D01*
X126238000Y-114337423D01*
X126238000Y-114337425D01*
X126249026Y-114449377D01*
X126292598Y-114593014D01*
X126292599Y-114593015D01*
X126363355Y-114725392D01*
X126379037Y-114744500D01*
X126458578Y-114841422D01*
X126487654Y-114865284D01*
X126959039Y-115336669D01*
X126936057Y-115570000D01*
X126963764Y-115851309D01*
X127045818Y-116121808D01*
X127179068Y-116371101D01*
X127358392Y-116589608D01*
X127576899Y-116768932D01*
X127709858Y-116840000D01*
X127576899Y-116911068D01*
X127358392Y-117090392D01*
X127179068Y-117308899D01*
X127045818Y-117558192D01*
X126963764Y-117828691D01*
X126936057Y-118110000D01*
X126963764Y-118391309D01*
X127045818Y-118661808D01*
X127179068Y-118911101D01*
X127358392Y-119129608D01*
X127576899Y-119308932D01*
X127826192Y-119442182D01*
X128096691Y-119524236D01*
X128307508Y-119545000D01*
X129248492Y-119545000D01*
X129459309Y-119524236D01*
X129729808Y-119442182D01*
X129979101Y-119308932D01*
X130197608Y-119129608D01*
X130376932Y-118911101D01*
X130510182Y-118661808D01*
X130592236Y-118391309D01*
X130619943Y-118110000D01*
X130592236Y-117828691D01*
X130510182Y-117558192D01*
X130376932Y-117308899D01*
X130197608Y-117090392D01*
X129979101Y-116911068D01*
X129846142Y-116840000D01*
X129979101Y-116768932D01*
X130197608Y-116589608D01*
X130376932Y-116371101D01*
X130510182Y-116121808D01*
X130592236Y-115851309D01*
X130619943Y-115570000D01*
X130592236Y-115288691D01*
X130510182Y-115018192D01*
X130376932Y-114768899D01*
X130197608Y-114550392D01*
X129979101Y-114371068D01*
X129846142Y-114300000D01*
X129979101Y-114228932D01*
X130197608Y-114049608D01*
X130376932Y-113831101D01*
X130397832Y-113792000D01*
X130518577Y-113792000D01*
X130556000Y-113795686D01*
X130593423Y-113792000D01*
X130593426Y-113792000D01*
X130705378Y-113780974D01*
X130849015Y-113737402D01*
X130981392Y-113666645D01*
X131097422Y-113571422D01*
X131121284Y-113542346D01*
X132397501Y-112266129D01*
X132397500Y-119587215D01*
X132392892Y-119634000D01*
X132397500Y-119680784D01*
X132411283Y-119820722D01*
X132465748Y-120000268D01*
X132554194Y-120165741D01*
X132673222Y-120310778D01*
X132709569Y-120340607D01*
X134577657Y-122208696D01*
X134556057Y-122428000D01*
X134564566Y-122514395D01*
X132201569Y-124877393D01*
X132165222Y-124907222D01*
X132046194Y-125052259D01*
X131957748Y-125217732D01*
X131912700Y-125366236D01*
X131903283Y-125397278D01*
X131884892Y-125584000D01*
X131889500Y-125630785D01*
X131889501Y-145401461D01*
X128891462Y-148399500D01*
X117683755Y-148399500D01*
X117636970Y-148394892D01*
X117590185Y-148399500D01*
X117450247Y-148413283D01*
X117270701Y-148467748D01*
X117105229Y-148556194D01*
X116960192Y-148675222D01*
X116930368Y-148711563D01*
X115210432Y-150431500D01*
X114430072Y-150431500D01*
X114430072Y-150284180D01*
X114417812Y-150159698D01*
X114381502Y-150040000D01*
X114322537Y-149929686D01*
X114243185Y-149832995D01*
X114146494Y-149753643D01*
X114036180Y-149694678D01*
X113982500Y-149678394D01*
X113982500Y-145180000D01*
X117887928Y-145180000D01*
X117900188Y-145304482D01*
X117935230Y-145420000D01*
X117900188Y-145535518D01*
X117887928Y-145660000D01*
X117887928Y-146460000D01*
X117900188Y-146584482D01*
X117936498Y-146704180D01*
X117995463Y-146814494D01*
X118074815Y-146911185D01*
X118171506Y-146990537D01*
X118281820Y-147049502D01*
X118401518Y-147085812D01*
X118526000Y-147098072D01*
X119826000Y-147098072D01*
X119950482Y-147085812D01*
X120070180Y-147049502D01*
X120180494Y-146990537D01*
X120277185Y-146911185D01*
X120356537Y-146814494D01*
X120415502Y-146704180D01*
X120451812Y-146584482D01*
X120464072Y-146460000D01*
X120464072Y-145660000D01*
X120451812Y-145535518D01*
X120416770Y-145420000D01*
X120451812Y-145304482D01*
X120464072Y-145180000D01*
X120461000Y-145065750D01*
X120302250Y-144907000D01*
X119303000Y-144907000D01*
X119303000Y-144927000D01*
X119049000Y-144927000D01*
X119049000Y-144907000D01*
X118049750Y-144907000D01*
X117891000Y-145065750D01*
X117887928Y-145180000D01*
X113982500Y-145180000D01*
X113982500Y-144666538D01*
X116079902Y-142569136D01*
X116150301Y-142700842D01*
X116203370Y-142765506D01*
X116253460Y-142826541D01*
X116284961Y-142852393D01*
X117507606Y-144075039D01*
X117533459Y-144106541D01*
X117659158Y-144209699D01*
X117802566Y-144286353D01*
X117894407Y-144314213D01*
X117887928Y-144380000D01*
X117891000Y-144494250D01*
X118049750Y-144653000D01*
X119049000Y-144653000D01*
X119049000Y-144633000D01*
X119303000Y-144633000D01*
X119303000Y-144653000D01*
X120302250Y-144653000D01*
X120336909Y-144618341D01*
X123339607Y-147621039D01*
X123365459Y-147652541D01*
X123429596Y-147705177D01*
X123491157Y-147755699D01*
X123541111Y-147782399D01*
X123634566Y-147832353D01*
X123790174Y-147879556D01*
X123911447Y-147891500D01*
X123911449Y-147891500D01*
X123951999Y-147895494D01*
X123992550Y-147891500D01*
X126182352Y-147891500D01*
X126222902Y-147895494D01*
X126263452Y-147891500D01*
X126263455Y-147891500D01*
X126384728Y-147879556D01*
X126540336Y-147832353D01*
X126683744Y-147755699D01*
X126809443Y-147652541D01*
X126835299Y-147621035D01*
X127525557Y-146930779D01*
X127557052Y-146904932D01*
X127582900Y-146873436D01*
X127582903Y-146873433D01*
X127660210Y-146779234D01*
X127736864Y-146635825D01*
X127750217Y-146591806D01*
X127753206Y-146581952D01*
X127973486Y-146670650D01*
X128251000Y-146723000D01*
X128651000Y-146723000D01*
X128651000Y-145415000D01*
X128905000Y-145415000D01*
X128905000Y-146723000D01*
X129305000Y-146723000D01*
X129582514Y-146670650D01*
X129844483Y-146565166D01*
X130080839Y-146410601D01*
X130282500Y-146212895D01*
X130441715Y-145979646D01*
X130552367Y-145719818D01*
X130569904Y-145637039D01*
X130447915Y-145415000D01*
X128905000Y-145415000D01*
X128651000Y-145415000D01*
X128631000Y-145415000D01*
X128631000Y-145161000D01*
X128651000Y-145161000D01*
X128651000Y-145141000D01*
X128905000Y-145141000D01*
X128905000Y-145161000D01*
X130447915Y-145161000D01*
X130569904Y-144938961D01*
X130552367Y-144856182D01*
X130441715Y-144596354D01*
X130282500Y-144363105D01*
X130080839Y-144165399D01*
X129851259Y-144015265D01*
X129979101Y-143946932D01*
X130197608Y-143767608D01*
X130376932Y-143549101D01*
X130510182Y-143299808D01*
X130592236Y-143029309D01*
X130619943Y-142748000D01*
X130592236Y-142466691D01*
X130510182Y-142196192D01*
X130376932Y-141946899D01*
X130197608Y-141728392D01*
X129979101Y-141549068D01*
X129846142Y-141478000D01*
X129979101Y-141406932D01*
X130197608Y-141227608D01*
X130376932Y-141009101D01*
X130510182Y-140759808D01*
X130592236Y-140489309D01*
X130619943Y-140208000D01*
X130592236Y-139926691D01*
X130510182Y-139656192D01*
X130376932Y-139406899D01*
X130197608Y-139188392D01*
X129979101Y-139009068D01*
X129846142Y-138938000D01*
X129979101Y-138866932D01*
X130197608Y-138687608D01*
X130376932Y-138469101D01*
X130510182Y-138219808D01*
X130592236Y-137949309D01*
X130619943Y-137668000D01*
X130592236Y-137386691D01*
X130510182Y-137116192D01*
X130376932Y-136866899D01*
X130197608Y-136648392D01*
X129979101Y-136469068D01*
X129846142Y-136398000D01*
X129979101Y-136326932D01*
X130197608Y-136147608D01*
X130376932Y-135929101D01*
X130510182Y-135679808D01*
X130592236Y-135409309D01*
X130619943Y-135128000D01*
X130592236Y-134846691D01*
X130510182Y-134576192D01*
X130376932Y-134326899D01*
X130197608Y-134108392D01*
X129979101Y-133929068D01*
X129846142Y-133858000D01*
X129979101Y-133786932D01*
X130197608Y-133607608D01*
X130376932Y-133389101D01*
X130510182Y-133139808D01*
X130592236Y-132869309D01*
X130619943Y-132588000D01*
X130592236Y-132306691D01*
X130510182Y-132036192D01*
X130376932Y-131786899D01*
X130197608Y-131568392D01*
X129979101Y-131389068D01*
X129846142Y-131318000D01*
X129979101Y-131246932D01*
X130197608Y-131067608D01*
X130376932Y-130849101D01*
X130510182Y-130599808D01*
X130592236Y-130329309D01*
X130619943Y-130048000D01*
X130592236Y-129766691D01*
X130510182Y-129496192D01*
X130376932Y-129246899D01*
X130197608Y-129028392D01*
X129979101Y-128849068D01*
X129846142Y-128778000D01*
X129979101Y-128706932D01*
X130197608Y-128527608D01*
X130376932Y-128309101D01*
X130510182Y-128059808D01*
X130592236Y-127789309D01*
X130619943Y-127508000D01*
X130592236Y-127226691D01*
X130510182Y-126956192D01*
X130376932Y-126706899D01*
X130197608Y-126488392D01*
X129979101Y-126309068D01*
X129846142Y-126238000D01*
X129979101Y-126166932D01*
X130197608Y-125987608D01*
X130376932Y-125769101D01*
X130510182Y-125519808D01*
X130592236Y-125249309D01*
X130619943Y-124968000D01*
X130592236Y-124686691D01*
X130510182Y-124416192D01*
X130376932Y-124166899D01*
X130197608Y-123948392D01*
X130084518Y-123855581D01*
X130102482Y-123853812D01*
X130222180Y-123817502D01*
X130332494Y-123758537D01*
X130429185Y-123679185D01*
X130508537Y-123582494D01*
X130567502Y-123472180D01*
X130603812Y-123352482D01*
X130616072Y-123228000D01*
X130613000Y-122713750D01*
X130454250Y-122555000D01*
X128905000Y-122555000D01*
X128905000Y-122575000D01*
X128651000Y-122575000D01*
X128651000Y-122555000D01*
X127101750Y-122555000D01*
X126943000Y-122713750D01*
X126939928Y-123228000D01*
X126952188Y-123352482D01*
X126988498Y-123472180D01*
X127047463Y-123582494D01*
X127126815Y-123679185D01*
X127223506Y-123758537D01*
X127333820Y-123817502D01*
X127453518Y-123853812D01*
X127471482Y-123855581D01*
X127358392Y-123948392D01*
X127179068Y-124166899D01*
X127045818Y-124416192D01*
X126963764Y-124686691D01*
X126936057Y-124968000D01*
X126963764Y-125249309D01*
X127045818Y-125519808D01*
X127179068Y-125769101D01*
X127358392Y-125987608D01*
X127576899Y-126166932D01*
X127709858Y-126238000D01*
X127576899Y-126309068D01*
X127358392Y-126488392D01*
X127179068Y-126706899D01*
X127045818Y-126956192D01*
X126963764Y-127226691D01*
X126936057Y-127508000D01*
X126963764Y-127789309D01*
X127045818Y-128059808D01*
X127179068Y-128309101D01*
X127358392Y-128527608D01*
X127576899Y-128706932D01*
X127709858Y-128778000D01*
X127576899Y-128849068D01*
X127358392Y-129028392D01*
X127179068Y-129246899D01*
X127045818Y-129496192D01*
X126963764Y-129766691D01*
X126955368Y-129851935D01*
X123842056Y-126738624D01*
X123863000Y-126633335D01*
X123863000Y-126350665D01*
X123807853Y-126073426D01*
X123699680Y-125812273D01*
X123542637Y-125577241D01*
X123342759Y-125377363D01*
X123107727Y-125220320D01*
X122846574Y-125112147D01*
X122569335Y-125057000D01*
X122286665Y-125057000D01*
X122181377Y-125077943D01*
X121475500Y-124372068D01*
X121475500Y-122457847D01*
X121538630Y-122520977D01*
X121654903Y-122404704D01*
X121726486Y-122648671D01*
X121981996Y-122769571D01*
X122256184Y-122838300D01*
X122538512Y-122852217D01*
X122818130Y-122810787D01*
X123084292Y-122715603D01*
X123209514Y-122648671D01*
X123281097Y-122404702D01*
X122468000Y-121591605D01*
X122453858Y-121605748D01*
X122274253Y-121426143D01*
X122288395Y-121412000D01*
X122647605Y-121412000D01*
X123460702Y-122225097D01*
X123704671Y-122153514D01*
X123718324Y-122124659D01*
X123853363Y-122326759D01*
X124053241Y-122526637D01*
X124288273Y-122683680D01*
X124549426Y-122791853D01*
X124826665Y-122847000D01*
X125109335Y-122847000D01*
X125386574Y-122791853D01*
X125647727Y-122683680D01*
X125882759Y-122526637D01*
X126082637Y-122326759D01*
X126239680Y-122091727D01*
X126347853Y-121830574D01*
X126388148Y-121628000D01*
X126939928Y-121628000D01*
X126943000Y-122142250D01*
X127101750Y-122301000D01*
X128651000Y-122301000D01*
X128651000Y-121151750D01*
X128905000Y-121151750D01*
X128905000Y-122301000D01*
X130454250Y-122301000D01*
X130613000Y-122142250D01*
X130616072Y-121628000D01*
X130603812Y-121503518D01*
X130567502Y-121383820D01*
X130508537Y-121273506D01*
X130429185Y-121176815D01*
X130332494Y-121097463D01*
X130222180Y-121038498D01*
X130102482Y-121002188D01*
X129978000Y-120989928D01*
X129063750Y-120993000D01*
X128905000Y-121151750D01*
X128651000Y-121151750D01*
X128492250Y-120993000D01*
X127578000Y-120989928D01*
X127453518Y-121002188D01*
X127333820Y-121038498D01*
X127223506Y-121097463D01*
X127126815Y-121176815D01*
X127047463Y-121273506D01*
X126988498Y-121383820D01*
X126952188Y-121503518D01*
X126939928Y-121628000D01*
X126388148Y-121628000D01*
X126403000Y-121553335D01*
X126403000Y-121270665D01*
X126347853Y-120993426D01*
X126239680Y-120732273D01*
X126082637Y-120497241D01*
X125882759Y-120297363D01*
X125647727Y-120140320D01*
X125386574Y-120032147D01*
X125109335Y-119977000D01*
X124826665Y-119977000D01*
X124549426Y-120032147D01*
X124288273Y-120140320D01*
X124053241Y-120297363D01*
X123853363Y-120497241D01*
X123719308Y-120697869D01*
X123704671Y-120670486D01*
X123460702Y-120598903D01*
X122647605Y-121412000D01*
X122288395Y-121412000D01*
X122274253Y-121397858D01*
X122453858Y-121218253D01*
X122468000Y-121232395D01*
X123281097Y-120419298D01*
X123209514Y-120175329D01*
X122954004Y-120054429D01*
X122679816Y-119985700D01*
X122397488Y-119971783D01*
X122117870Y-120013213D01*
X121851708Y-120108397D01*
X121726486Y-120175329D01*
X121654903Y-120419296D01*
X121538630Y-120303023D01*
X121466777Y-120374876D01*
X121463556Y-120342174D01*
X121416353Y-120186566D01*
X121391634Y-120140320D01*
X121339699Y-120043157D01*
X121262392Y-119948958D01*
X121262389Y-119948955D01*
X121236541Y-119917459D01*
X121205045Y-119891611D01*
X120435330Y-119121897D01*
X120459943Y-118872000D01*
X120432236Y-118590691D01*
X120350182Y-118320192D01*
X120216932Y-118070899D01*
X120037608Y-117852392D01*
X119819101Y-117673068D01*
X119691259Y-117604735D01*
X119920839Y-117454601D01*
X120122500Y-117256895D01*
X120281715Y-117023646D01*
X120392367Y-116763818D01*
X120409904Y-116681039D01*
X120287915Y-116459000D01*
X118745000Y-116459000D01*
X118745000Y-116479000D01*
X118491000Y-116479000D01*
X118491000Y-116459000D01*
X118471000Y-116459000D01*
X118471000Y-116205000D01*
X118491000Y-116205000D01*
X118491000Y-116185000D01*
X118745000Y-116185000D01*
X118745000Y-116205000D01*
X120287915Y-116205000D01*
X120391978Y-116015589D01*
X122313000Y-116015589D01*
X122313000Y-116288411D01*
X122366225Y-116555989D01*
X122470629Y-116808043D01*
X122622201Y-117034886D01*
X122815114Y-117227799D01*
X123041957Y-117379371D01*
X123294011Y-117483775D01*
X123561589Y-117537000D01*
X123834411Y-117537000D01*
X124101989Y-117483775D01*
X124354043Y-117379371D01*
X124580886Y-117227799D01*
X124773799Y-117034886D01*
X124925371Y-116808043D01*
X125029775Y-116555989D01*
X125083000Y-116288411D01*
X125083000Y-116015589D01*
X125029775Y-115748011D01*
X124925371Y-115495957D01*
X124773799Y-115269114D01*
X124580886Y-115076201D01*
X124354043Y-114924629D01*
X124101989Y-114820225D01*
X123834411Y-114767000D01*
X123561589Y-114767000D01*
X123294011Y-114820225D01*
X123041957Y-114924629D01*
X122815114Y-115076201D01*
X122622201Y-115269114D01*
X122470629Y-115495957D01*
X122366225Y-115748011D01*
X122313000Y-116015589D01*
X120391978Y-116015589D01*
X120409904Y-115982961D01*
X120392367Y-115900182D01*
X120281715Y-115640354D01*
X120122500Y-115407105D01*
X119920839Y-115209399D01*
X119691259Y-115059265D01*
X119819101Y-114990932D01*
X120037608Y-114811608D01*
X120216932Y-114593101D01*
X120350182Y-114343808D01*
X120432236Y-114073309D01*
X120459943Y-113792000D01*
X120432236Y-113510691D01*
X120350182Y-113240192D01*
X120216932Y-112990899D01*
X120037608Y-112772392D01*
X119819101Y-112593068D01*
X119686142Y-112522000D01*
X119819101Y-112450932D01*
X120037608Y-112271608D01*
X120216932Y-112053101D01*
X120350182Y-111803808D01*
X120432236Y-111533309D01*
X120459943Y-111252000D01*
X120446508Y-111115589D01*
X122313000Y-111115589D01*
X122313000Y-111388411D01*
X122366225Y-111655989D01*
X122470629Y-111908043D01*
X122622201Y-112134886D01*
X122815114Y-112327799D01*
X123041957Y-112479371D01*
X123294011Y-112583775D01*
X123561589Y-112637000D01*
X123834411Y-112637000D01*
X124101989Y-112583775D01*
X124354043Y-112479371D01*
X124580886Y-112327799D01*
X124773799Y-112134886D01*
X124925371Y-111908043D01*
X125029775Y-111655989D01*
X125083000Y-111388411D01*
X125083000Y-111115589D01*
X125029775Y-110848011D01*
X124925371Y-110595957D01*
X124773799Y-110369114D01*
X124580886Y-110176201D01*
X124354043Y-110024629D01*
X124101989Y-109920225D01*
X123834411Y-109867000D01*
X123561589Y-109867000D01*
X123294011Y-109920225D01*
X123041957Y-110024629D01*
X122815114Y-110176201D01*
X122622201Y-110369114D01*
X122470629Y-110595957D01*
X122366225Y-110848011D01*
X122313000Y-111115589D01*
X120446508Y-111115589D01*
X120432236Y-110970691D01*
X120350182Y-110700192D01*
X120216932Y-110450899D01*
X120037608Y-110232392D01*
X119819101Y-110053068D01*
X119686142Y-109982000D01*
X119819101Y-109910932D01*
X120037608Y-109731608D01*
X120216932Y-109513101D01*
X120350182Y-109263808D01*
X120432236Y-108993309D01*
X120459943Y-108712000D01*
X120432236Y-108430691D01*
X120350182Y-108160192D01*
X120216932Y-107910899D01*
X120037608Y-107692392D01*
X119819101Y-107513068D01*
X119686142Y-107442000D01*
X119819101Y-107370932D01*
X120037608Y-107191608D01*
X120059689Y-107164702D01*
X121654903Y-107164702D01*
X121726486Y-107408671D01*
X121981996Y-107529571D01*
X122256184Y-107598300D01*
X122538512Y-107612217D01*
X122818130Y-107570787D01*
X123084292Y-107475603D01*
X123209514Y-107408671D01*
X123281097Y-107164702D01*
X122468000Y-106351605D01*
X121654903Y-107164702D01*
X120059689Y-107164702D01*
X120216932Y-106973101D01*
X120350182Y-106723808D01*
X120432236Y-106453309D01*
X120452998Y-106242512D01*
X121027783Y-106242512D01*
X121069213Y-106522130D01*
X121164397Y-106788292D01*
X121231329Y-106913514D01*
X121475298Y-106985097D01*
X122288395Y-106172000D01*
X121475298Y-105358903D01*
X121231329Y-105430486D01*
X121110429Y-105685996D01*
X121041700Y-105960184D01*
X121027783Y-106242512D01*
X120452998Y-106242512D01*
X120459943Y-106172000D01*
X120432236Y-105890691D01*
X120350182Y-105620192D01*
X120216932Y-105370899D01*
X120059690Y-105179298D01*
X121654903Y-105179298D01*
X122468000Y-105992395D01*
X123281097Y-105179298D01*
X123209514Y-104935329D01*
X122954004Y-104814429D01*
X122679816Y-104745700D01*
X122397488Y-104731783D01*
X122117870Y-104773213D01*
X121851708Y-104868397D01*
X121726486Y-104935329D01*
X121654903Y-105179298D01*
X120059690Y-105179298D01*
X120037608Y-105152392D01*
X119819101Y-104973068D01*
X119686142Y-104902000D01*
X119819101Y-104830932D01*
X120037608Y-104651608D01*
X120216932Y-104433101D01*
X120350182Y-104183808D01*
X120432236Y-103913309D01*
X120459943Y-103632000D01*
X120432236Y-103350691D01*
X120350182Y-103080192D01*
X120216932Y-102830899D01*
X120037608Y-102612392D01*
X119819101Y-102433068D01*
X119686142Y-102362000D01*
X119819101Y-102290932D01*
X120037608Y-102111608D01*
X120216932Y-101893101D01*
X120350182Y-101643808D01*
X120432236Y-101373309D01*
X120459943Y-101092000D01*
X120432236Y-100810691D01*
X120350182Y-100540192D01*
X120216932Y-100290899D01*
X120037608Y-100072392D01*
X119819101Y-99893068D01*
X119569808Y-99759818D01*
X119299309Y-99677764D01*
X119088492Y-99657000D01*
X118147508Y-99657000D01*
X117936691Y-99677764D01*
X117666192Y-99759818D01*
X117416899Y-99893068D01*
X117198392Y-100072392D01*
X117019068Y-100290899D01*
X116885818Y-100540192D01*
X116803764Y-100810691D01*
X116776057Y-101092000D01*
X116803764Y-101373309D01*
X116885818Y-101643808D01*
X117019068Y-101893101D01*
X117198392Y-102111608D01*
X117416899Y-102290932D01*
X117549858Y-102362000D01*
X117416899Y-102433068D01*
X117198392Y-102612392D01*
X117019068Y-102830899D01*
X116885818Y-103080192D01*
X116803764Y-103350691D01*
X116776057Y-103632000D01*
X116803764Y-103913309D01*
X116885818Y-104183808D01*
X117019068Y-104433101D01*
X117198392Y-104651608D01*
X117416899Y-104830932D01*
X117549858Y-104902000D01*
X117416899Y-104973068D01*
X117198392Y-105152392D01*
X117019068Y-105370899D01*
X116885818Y-105620192D01*
X116803764Y-105890691D01*
X116776057Y-106172000D01*
X116803764Y-106453309D01*
X116885818Y-106723808D01*
X117019068Y-106973101D01*
X117198392Y-107191608D01*
X117416899Y-107370932D01*
X117549858Y-107442000D01*
X117416899Y-107513068D01*
X117198392Y-107692392D01*
X117019068Y-107910899D01*
X116885818Y-108160192D01*
X116803764Y-108430691D01*
X116776057Y-108712000D01*
X116803764Y-108993309D01*
X116885818Y-109263808D01*
X117019068Y-109513101D01*
X117198392Y-109731608D01*
X117416899Y-109910932D01*
X117549858Y-109982000D01*
X117416899Y-110053068D01*
X117198392Y-110232392D01*
X117019068Y-110450899D01*
X116885818Y-110700192D01*
X116803764Y-110970691D01*
X116776057Y-111252000D01*
X116803764Y-111533309D01*
X116885818Y-111803808D01*
X117019068Y-112053101D01*
X117198392Y-112271608D01*
X117416899Y-112450932D01*
X117549858Y-112522000D01*
X117416899Y-112593068D01*
X117198392Y-112772392D01*
X117019068Y-112990899D01*
X116885818Y-113240192D01*
X116803764Y-113510691D01*
X116776057Y-113792000D01*
X116803764Y-114073309D01*
X116885818Y-114343808D01*
X117019068Y-114593101D01*
X117198392Y-114811608D01*
X117416899Y-114990932D01*
X117544741Y-115059265D01*
X117315161Y-115209399D01*
X117113500Y-115407105D01*
X116954285Y-115640354D01*
X116843633Y-115900182D01*
X116826096Y-115982961D01*
X116948084Y-116204998D01*
X116898037Y-116204998D01*
X113844607Y-113151569D01*
X113814778Y-113115222D01*
X113669741Y-112996194D01*
X113504269Y-112907748D01*
X113324723Y-112853283D01*
X113184785Y-112839500D01*
X113138000Y-112834892D01*
X113091215Y-112839500D01*
X112472682Y-112839500D01*
X112417608Y-112772392D01*
X112199101Y-112593068D01*
X112066142Y-112522000D01*
X112199101Y-112450932D01*
X112417608Y-112271608D01*
X112596932Y-112053101D01*
X112730182Y-111803808D01*
X112812236Y-111533309D01*
X112839943Y-111252000D01*
X112812236Y-110970691D01*
X112730182Y-110700192D01*
X112596932Y-110450899D01*
X112417608Y-110232392D01*
X112199101Y-110053068D01*
X112066142Y-109982000D01*
X112199101Y-109910932D01*
X112417608Y-109731608D01*
X112596932Y-109513101D01*
X112730182Y-109263808D01*
X112812236Y-108993309D01*
X112839943Y-108712000D01*
X112812236Y-108430691D01*
X112730182Y-108160192D01*
X112596932Y-107910899D01*
X112417608Y-107692392D01*
X112199101Y-107513068D01*
X112066142Y-107442000D01*
X112199101Y-107370932D01*
X112417608Y-107191608D01*
X112596932Y-106973101D01*
X112730182Y-106723808D01*
X112812236Y-106453309D01*
X112839943Y-106172000D01*
X112812236Y-105890691D01*
X112730182Y-105620192D01*
X112596932Y-105370899D01*
X112417608Y-105152392D01*
X112199101Y-104973068D01*
X112066142Y-104902000D01*
X112199101Y-104830932D01*
X112417608Y-104651608D01*
X112596932Y-104433101D01*
X112730182Y-104183808D01*
X112812236Y-103913309D01*
X112839943Y-103632000D01*
X112812236Y-103350691D01*
X112730182Y-103080192D01*
X112596932Y-102830899D01*
X112417608Y-102612392D01*
X112199101Y-102433068D01*
X112066142Y-102362000D01*
X112199101Y-102290932D01*
X112417608Y-102111608D01*
X112596932Y-101893101D01*
X112730182Y-101643808D01*
X112812236Y-101373309D01*
X112839943Y-101092000D01*
X112812236Y-100810691D01*
X112730182Y-100540192D01*
X112596932Y-100290899D01*
X112417608Y-100072392D01*
X112199101Y-99893068D01*
X111949808Y-99759818D01*
X111679309Y-99677764D01*
X111468492Y-99657000D01*
X110527508Y-99657000D01*
X110316691Y-99677764D01*
X110046192Y-99759818D01*
X109796899Y-99893068D01*
X109578392Y-100072392D01*
X109399068Y-100290899D01*
X109265818Y-100540192D01*
X109183764Y-100810691D01*
X109156057Y-101092000D01*
X109183764Y-101373309D01*
X109265818Y-101643808D01*
X109399068Y-101893101D01*
X109578392Y-102111608D01*
X109796899Y-102290932D01*
X109929858Y-102362000D01*
X109796899Y-102433068D01*
X109578392Y-102612392D01*
X109399068Y-102830899D01*
X109265818Y-103080192D01*
X109183764Y-103350691D01*
X109156057Y-103632000D01*
X109183764Y-103913309D01*
X109265818Y-104183808D01*
X109399068Y-104433101D01*
X109578392Y-104651608D01*
X109796899Y-104830932D01*
X109929858Y-104902000D01*
X109796899Y-104973068D01*
X109578392Y-105152392D01*
X109399068Y-105370899D01*
X109265818Y-105620192D01*
X109183764Y-105890691D01*
X109156057Y-106172000D01*
X109183764Y-106453309D01*
X109265818Y-106723808D01*
X109399068Y-106973101D01*
X109578392Y-107191608D01*
X109796899Y-107370932D01*
X109929858Y-107442000D01*
X109796899Y-107513068D01*
X109578392Y-107692392D01*
X109399068Y-107910899D01*
X109265818Y-108160192D01*
X109183764Y-108430691D01*
X109156057Y-108712000D01*
X109183764Y-108993309D01*
X109265818Y-109263808D01*
X109399068Y-109513101D01*
X109578392Y-109731608D01*
X109796899Y-109910932D01*
X109929858Y-109982000D01*
X109796899Y-110053068D01*
X109578392Y-110232392D01*
X109399068Y-110450899D01*
X109265818Y-110700192D01*
X109183764Y-110970691D01*
X109156057Y-111252000D01*
X109183764Y-111533309D01*
X109265818Y-111803808D01*
X109399068Y-112053101D01*
X109578392Y-112271608D01*
X109796899Y-112450932D01*
X109929858Y-112522000D01*
X109796899Y-112593068D01*
X109578392Y-112772392D01*
X109399068Y-112990899D01*
X109265818Y-113240192D01*
X109183764Y-113510691D01*
X109156057Y-113792000D01*
X109183764Y-114073309D01*
X109265818Y-114343808D01*
X109399068Y-114593101D01*
X109578392Y-114811608D01*
X109796899Y-114990932D01*
X109929858Y-115062000D01*
X109796899Y-115133068D01*
X109578392Y-115312392D01*
X109399068Y-115530899D01*
X109265818Y-115780192D01*
X109183764Y-116050691D01*
X109156057Y-116332000D01*
X109183764Y-116613309D01*
X109265818Y-116883808D01*
X109399068Y-117133101D01*
X109578392Y-117351608D01*
X109796899Y-117530932D01*
X109924741Y-117599265D01*
X109695161Y-117749399D01*
X109493500Y-117947105D01*
X109334285Y-118180354D01*
X109223633Y-118440182D01*
X109206096Y-118522961D01*
X109328085Y-118745000D01*
X110871000Y-118745000D01*
X110871000Y-118725000D01*
X111125000Y-118725000D01*
X111125000Y-118745000D01*
X112667915Y-118745000D01*
X112789904Y-118522961D01*
X112772367Y-118440182D01*
X112661715Y-118180354D01*
X112502500Y-117947105D01*
X112300839Y-117749399D01*
X112071259Y-117599265D01*
X112199101Y-117530932D01*
X112417608Y-117351608D01*
X112596932Y-117133101D01*
X112730182Y-116883808D01*
X112812236Y-116613309D01*
X112839943Y-116332000D01*
X112812236Y-116050691D01*
X112730182Y-115780192D01*
X112596932Y-115530899D01*
X112417608Y-115312392D01*
X112199101Y-115133068D01*
X112066142Y-115062000D01*
X112199101Y-114990932D01*
X112417608Y-114811608D01*
X112472682Y-114744500D01*
X112743462Y-114744500D01*
X116784566Y-118785605D01*
X116776057Y-118872000D01*
X116803764Y-119153309D01*
X116885818Y-119423808D01*
X117019068Y-119673101D01*
X117198392Y-119891608D01*
X117416899Y-120070932D01*
X117549858Y-120142000D01*
X117416899Y-120213068D01*
X117198392Y-120392392D01*
X117019068Y-120610899D01*
X116885818Y-120860192D01*
X116803764Y-121130691D01*
X116776057Y-121412000D01*
X116803764Y-121693309D01*
X116885818Y-121963808D01*
X117019068Y-122213101D01*
X117198392Y-122431608D01*
X117416899Y-122610932D01*
X117549858Y-122682000D01*
X117416899Y-122753068D01*
X117198392Y-122932392D01*
X117019068Y-123150899D01*
X116885818Y-123400192D01*
X116803764Y-123670691D01*
X116776057Y-123952000D01*
X116803764Y-124233309D01*
X116885818Y-124503808D01*
X117019068Y-124753101D01*
X117198392Y-124971608D01*
X117416899Y-125150932D01*
X117549858Y-125222000D01*
X117416899Y-125293068D01*
X117198392Y-125472392D01*
X117019068Y-125690899D01*
X116885818Y-125940192D01*
X116803764Y-126210691D01*
X116776057Y-126492000D01*
X116803764Y-126773309D01*
X116885818Y-127043808D01*
X117019068Y-127293101D01*
X117198392Y-127511608D01*
X117416899Y-127690932D01*
X117549858Y-127762000D01*
X117416899Y-127833068D01*
X117198392Y-128012392D01*
X117019068Y-128230899D01*
X116885818Y-128480192D01*
X116803764Y-128750691D01*
X116776057Y-129032000D01*
X116803764Y-129313309D01*
X116885818Y-129583808D01*
X117019068Y-129833101D01*
X117198392Y-130051608D01*
X117416899Y-130230932D01*
X117549858Y-130302000D01*
X117416899Y-130373068D01*
X117198392Y-130552392D01*
X117019068Y-130770899D01*
X116885818Y-131020192D01*
X116803764Y-131290691D01*
X116776057Y-131572000D01*
X116803764Y-131853309D01*
X116885818Y-132123808D01*
X117019068Y-132373101D01*
X117198392Y-132591608D01*
X117311482Y-132684419D01*
X117293518Y-132686188D01*
X117173820Y-132722498D01*
X117063506Y-132781463D01*
X116966815Y-132860815D01*
X116887463Y-132957506D01*
X116828498Y-133067820D01*
X116792188Y-133187518D01*
X116779928Y-133312000D01*
X116779928Y-133966269D01*
X113873312Y-131059654D01*
X113849450Y-131030578D01*
X113733420Y-130935355D01*
X113601043Y-130864598D01*
X113457406Y-130821026D01*
X113345454Y-130810000D01*
X113345451Y-130810000D01*
X113308028Y-130806314D01*
X113270605Y-130810000D01*
X112617832Y-130810000D01*
X112596932Y-130770899D01*
X112417608Y-130552392D01*
X112199101Y-130373068D01*
X112066142Y-130302000D01*
X112199101Y-130230932D01*
X112417608Y-130051608D01*
X112596932Y-129833101D01*
X112730182Y-129583808D01*
X112812236Y-129313309D01*
X112839943Y-129032000D01*
X112812236Y-128750691D01*
X112730182Y-128480192D01*
X112596932Y-128230899D01*
X112417608Y-128012392D01*
X112199101Y-127833068D01*
X112066142Y-127762000D01*
X112199101Y-127690932D01*
X112417608Y-127511608D01*
X112596932Y-127293101D01*
X112730182Y-127043808D01*
X112812236Y-126773309D01*
X112839943Y-126492000D01*
X112812236Y-126210691D01*
X112730182Y-125940192D01*
X112596932Y-125690899D01*
X112417608Y-125472392D01*
X112199101Y-125293068D01*
X112066142Y-125222000D01*
X112199101Y-125150932D01*
X112417608Y-124971608D01*
X112596932Y-124753101D01*
X112730182Y-124503808D01*
X112812236Y-124233309D01*
X112839943Y-123952000D01*
X112812236Y-123670691D01*
X112730182Y-123400192D01*
X112596932Y-123150899D01*
X112417608Y-122932392D01*
X112199101Y-122753068D01*
X112066142Y-122682000D01*
X112199101Y-122610932D01*
X112417608Y-122431608D01*
X112596932Y-122213101D01*
X112730182Y-121963808D01*
X112812236Y-121693309D01*
X112839943Y-121412000D01*
X112812236Y-121130691D01*
X112730182Y-120860192D01*
X112596932Y-120610899D01*
X112417608Y-120392392D01*
X112199101Y-120213068D01*
X112071259Y-120144735D01*
X112300839Y-119994601D01*
X112502500Y-119796895D01*
X112661715Y-119563646D01*
X112772367Y-119303818D01*
X112789904Y-119221039D01*
X112667915Y-118999000D01*
X111125000Y-118999000D01*
X111125000Y-119019000D01*
X110871000Y-119019000D01*
X110871000Y-118999000D01*
X109328085Y-118999000D01*
X109206096Y-119221039D01*
X109223633Y-119303818D01*
X109334285Y-119563646D01*
X109493500Y-119796895D01*
X109695161Y-119994601D01*
X109924741Y-120144735D01*
X109796899Y-120213068D01*
X109578392Y-120392392D01*
X109399068Y-120610899D01*
X109265818Y-120860192D01*
X109183764Y-121130691D01*
X109156057Y-121412000D01*
X109183764Y-121693309D01*
X109265818Y-121963808D01*
X109399068Y-122213101D01*
X109578392Y-122431608D01*
X109796899Y-122610932D01*
X109929858Y-122682000D01*
X109796899Y-122753068D01*
X109578392Y-122932392D01*
X109399068Y-123150899D01*
X109265818Y-123400192D01*
X109183764Y-123670691D01*
X109156057Y-123952000D01*
X109183764Y-124233309D01*
X109265818Y-124503808D01*
X109399068Y-124753101D01*
X109578392Y-124971608D01*
X109796899Y-125150932D01*
X109929858Y-125222000D01*
X109796899Y-125293068D01*
X109578392Y-125472392D01*
X109399068Y-125690899D01*
X109265818Y-125940192D01*
X109183764Y-126210691D01*
X109156057Y-126492000D01*
X109183764Y-126773309D01*
X109265818Y-127043808D01*
X109399068Y-127293101D01*
X109578392Y-127511608D01*
X109796899Y-127690932D01*
X109929858Y-127762000D01*
X109796899Y-127833068D01*
X109578392Y-128012392D01*
X109399068Y-128230899D01*
X109265818Y-128480192D01*
X109183764Y-128750691D01*
X109156057Y-129032000D01*
X109183764Y-129313309D01*
X109265818Y-129583808D01*
X109399068Y-129833101D01*
X109578392Y-130051608D01*
X109796899Y-130230932D01*
X109929858Y-130302000D01*
X109796899Y-130373068D01*
X109578392Y-130552392D01*
X109399068Y-130770899D01*
X109265818Y-131020192D01*
X109183764Y-131290691D01*
X109156057Y-131572000D01*
X109183764Y-131853309D01*
X109265818Y-132123808D01*
X109399068Y-132373101D01*
X109578392Y-132591608D01*
X109796899Y-132770932D01*
X109929858Y-132842000D01*
X109796899Y-132913068D01*
X109578392Y-133092392D01*
X109399068Y-133310899D01*
X109265818Y-133560192D01*
X109183764Y-133830691D01*
X109156057Y-134112000D01*
X109183764Y-134393309D01*
X109265818Y-134663808D01*
X109399068Y-134913101D01*
X109578392Y-135131608D01*
X109796899Y-135310932D01*
X110046192Y-135444182D01*
X110316691Y-135526236D01*
X110527508Y-135547000D01*
X111468492Y-135547000D01*
X111679309Y-135526236D01*
X111949808Y-135444182D01*
X112199101Y-135310932D01*
X112417608Y-135131608D01*
X112596932Y-134913101D01*
X112617832Y-134874000D01*
X114890332Y-134874000D01*
X116159301Y-136142969D01*
X115925241Y-136299363D01*
X115725363Y-136499241D01*
X115568320Y-136734273D01*
X115460147Y-136995426D01*
X115405000Y-137272665D01*
X115405000Y-137555335D01*
X115460147Y-137832574D01*
X115568320Y-138093727D01*
X115725363Y-138328759D01*
X115925241Y-138528637D01*
X116160273Y-138685680D01*
X116421426Y-138793853D01*
X116698665Y-138849000D01*
X116981335Y-138849000D01*
X117258574Y-138793853D01*
X117519727Y-138685680D01*
X117754759Y-138528637D01*
X117845883Y-138437513D01*
X117887928Y-138479558D01*
X117887928Y-138840000D01*
X117900188Y-138964482D01*
X117932197Y-139070000D01*
X117900188Y-139175518D01*
X117887928Y-139300000D01*
X117887928Y-139480532D01*
X117754759Y-139347363D01*
X117519727Y-139190320D01*
X117258574Y-139082147D01*
X116981335Y-139027000D01*
X116698665Y-139027000D01*
X116421426Y-139082147D01*
X116160273Y-139190320D01*
X115925241Y-139347363D01*
X115725363Y-139547241D01*
X115568320Y-139782273D01*
X115460147Y-140043426D01*
X115405000Y-140320665D01*
X115405000Y-140549962D01*
X112389565Y-143565397D01*
X112353223Y-143595222D01*
X112323399Y-143631563D01*
X112234194Y-143740260D01*
X112145749Y-143905731D01*
X112091283Y-144085278D01*
X112072892Y-144272000D01*
X112077501Y-144318795D01*
X112077500Y-149678394D01*
X112023820Y-149694678D01*
X111913506Y-149753643D01*
X111816815Y-149832995D01*
X111737463Y-149929686D01*
X111678498Y-150040000D01*
X111642188Y-150159698D01*
X111633809Y-150244776D01*
X111581006Y-150164451D01*
X111388026Y-149968548D01*
X111160535Y-149814058D01*
X110907276Y-149706918D01*
X110833070Y-149691960D01*
X110617000Y-149814460D01*
X110617000Y-151257000D01*
X110637000Y-151257000D01*
X110637000Y-151511000D01*
X110617000Y-151511000D01*
X110617000Y-152953540D01*
X110833070Y-153076040D01*
X110907276Y-153061082D01*
X111160535Y-152953942D01*
X111388026Y-152799452D01*
X111581006Y-152603549D01*
X111633809Y-152523224D01*
X111642188Y-152608302D01*
X111678498Y-152728000D01*
X111737463Y-152838314D01*
X111816815Y-152935005D01*
X111913506Y-153014357D01*
X112023820Y-153073322D01*
X112143518Y-153109632D01*
X112268000Y-153121892D01*
X113792000Y-153121892D01*
X113916482Y-153109632D01*
X114036180Y-153073322D01*
X114146494Y-153014357D01*
X114243185Y-152935005D01*
X114322537Y-152838314D01*
X114381502Y-152728000D01*
X114417812Y-152608302D01*
X114430072Y-152483820D01*
X114430072Y-152336500D01*
X115558185Y-152336500D01*
X115604970Y-152341108D01*
X115651755Y-152336500D01*
X115791693Y-152322717D01*
X115971239Y-152268252D01*
X116035320Y-152234000D01*
X117891928Y-152234000D01*
X117904188Y-152358482D01*
X117940498Y-152478180D01*
X117999463Y-152588494D01*
X118078815Y-152685185D01*
X118175506Y-152764537D01*
X118285820Y-152823502D01*
X118405518Y-152859812D01*
X118530000Y-152872072D01*
X119094250Y-152869000D01*
X119253000Y-152710250D01*
X119253000Y-151511000D01*
X118053750Y-151511000D01*
X117895000Y-151669750D01*
X117891928Y-152234000D01*
X116035320Y-152234000D01*
X116136711Y-152179806D01*
X116281748Y-152060778D01*
X116311577Y-152024431D01*
X117901751Y-150434257D01*
X117891928Y-150534000D01*
X117895000Y-151098250D01*
X118053750Y-151257000D01*
X119253000Y-151257000D01*
X119253000Y-151237000D01*
X119507000Y-151237000D01*
X119507000Y-151257000D01*
X119527000Y-151257000D01*
X119527000Y-151511000D01*
X119507000Y-151511000D01*
X119507000Y-152710250D01*
X119665750Y-152869000D01*
X120230000Y-152872072D01*
X120354482Y-152859812D01*
X120474180Y-152823502D01*
X120584494Y-152764537D01*
X120681185Y-152685185D01*
X120760537Y-152588494D01*
X120819502Y-152478180D01*
X120840393Y-152409313D01*
X120864866Y-152439134D01*
X121090986Y-152624706D01*
X121348966Y-152762599D01*
X121628889Y-152847513D01*
X121847050Y-152869000D01*
X121992950Y-152869000D01*
X122211111Y-152847513D01*
X122491034Y-152762599D01*
X122749014Y-152624706D01*
X122975134Y-152439134D01*
X123160706Y-152213014D01*
X123190000Y-152158209D01*
X123219294Y-152213014D01*
X123404866Y-152439134D01*
X123630986Y-152624706D01*
X123888966Y-152762599D01*
X124168889Y-152847513D01*
X124387050Y-152869000D01*
X124532950Y-152869000D01*
X124751111Y-152847513D01*
X125031034Y-152762599D01*
X125289014Y-152624706D01*
X125515134Y-152439134D01*
X125700706Y-152213014D01*
X125730000Y-152158209D01*
X125759294Y-152213014D01*
X125944866Y-152439134D01*
X126170986Y-152624706D01*
X126428966Y-152762599D01*
X126708889Y-152847513D01*
X126927050Y-152869000D01*
X127072950Y-152869000D01*
X127291111Y-152847513D01*
X127571034Y-152762599D01*
X127829014Y-152624706D01*
X128055134Y-152439134D01*
X128240706Y-152213014D01*
X128378599Y-151955034D01*
X128463513Y-151675111D01*
X128488980Y-151416532D01*
X131274227Y-151416532D01*
X131324916Y-151868434D01*
X131462415Y-152301885D01*
X131681486Y-152700373D01*
X131973784Y-153048721D01*
X132328178Y-153333661D01*
X132731167Y-153544338D01*
X133167402Y-153672729D01*
X133620266Y-153713943D01*
X134072512Y-153666410D01*
X134506911Y-153531941D01*
X134906919Y-153315658D01*
X135257300Y-153025798D01*
X135544706Y-152673402D01*
X135758192Y-152271894D01*
X135889626Y-151836566D01*
X135934000Y-151384000D01*
X135933092Y-151318943D01*
X135876098Y-150867792D01*
X135732561Y-150436304D01*
X135507948Y-150040913D01*
X135210814Y-149696680D01*
X134852476Y-149416716D01*
X134446585Y-149211686D01*
X134008600Y-149089398D01*
X133555204Y-149054511D01*
X133103667Y-149108354D01*
X132671187Y-149248875D01*
X132274237Y-149470722D01*
X131927938Y-149765446D01*
X131645480Y-150121820D01*
X131437621Y-150526270D01*
X131312278Y-150963390D01*
X131274227Y-151416532D01*
X128488980Y-151416532D01*
X128492185Y-151384000D01*
X128463513Y-151092889D01*
X128378599Y-150812966D01*
X128240706Y-150554986D01*
X128055134Y-150328866D01*
X128025444Y-150304500D01*
X129239215Y-150304500D01*
X129286000Y-150309108D01*
X129332785Y-150304500D01*
X129472723Y-150290717D01*
X129652269Y-150236252D01*
X129817741Y-150147806D01*
X129962778Y-150028778D01*
X129992607Y-149992431D01*
X133482431Y-146502607D01*
X133518778Y-146472778D01*
X133637806Y-146327741D01*
X133726252Y-146162269D01*
X133780717Y-145982723D01*
X133794500Y-145842785D01*
X133799108Y-145796001D01*
X133794500Y-145749216D01*
X133794500Y-125978538D01*
X134678036Y-125095002D01*
X134728084Y-125095002D01*
X134606096Y-125317039D01*
X134623633Y-125399818D01*
X134734285Y-125659646D01*
X134893500Y-125892895D01*
X135095161Y-126090601D01*
X135324741Y-126240735D01*
X135196899Y-126309068D01*
X134978392Y-126488392D01*
X134799068Y-126706899D01*
X134665818Y-126956192D01*
X134583764Y-127226691D01*
X134556057Y-127508000D01*
X134583764Y-127789309D01*
X134665818Y-128059808D01*
X134799068Y-128309101D01*
X134978392Y-128527608D01*
X135196899Y-128706932D01*
X135329858Y-128778000D01*
X135196899Y-128849068D01*
X134978392Y-129028392D01*
X134799068Y-129246899D01*
X134665818Y-129496192D01*
X134583764Y-129766691D01*
X134556057Y-130048000D01*
X134583764Y-130329309D01*
X134665818Y-130599808D01*
X134799068Y-130849101D01*
X134978392Y-131067608D01*
X135196899Y-131246932D01*
X135329858Y-131318000D01*
X135196899Y-131389068D01*
X134978392Y-131568392D01*
X134799068Y-131786899D01*
X134665818Y-132036192D01*
X134583764Y-132306691D01*
X134556057Y-132588000D01*
X134583764Y-132869309D01*
X134665818Y-133139808D01*
X134799068Y-133389101D01*
X134978392Y-133607608D01*
X135196899Y-133786932D01*
X135329858Y-133858000D01*
X135196899Y-133929068D01*
X134978392Y-134108392D01*
X134799068Y-134326899D01*
X134665818Y-134576192D01*
X134583764Y-134846691D01*
X134556057Y-135128000D01*
X134583764Y-135409309D01*
X134665818Y-135679808D01*
X134799068Y-135929101D01*
X134978392Y-136147608D01*
X135196899Y-136326932D01*
X135329858Y-136398000D01*
X135196899Y-136469068D01*
X134978392Y-136648392D01*
X134799068Y-136866899D01*
X134665818Y-137116192D01*
X134583764Y-137386691D01*
X134556057Y-137668000D01*
X134583764Y-137949309D01*
X134665818Y-138219808D01*
X134799068Y-138469101D01*
X134978392Y-138687608D01*
X135196899Y-138866932D01*
X135329858Y-138938000D01*
X135196899Y-139009068D01*
X134978392Y-139188392D01*
X134799068Y-139406899D01*
X134665818Y-139656192D01*
X134583764Y-139926691D01*
X134556057Y-140208000D01*
X134583764Y-140489309D01*
X134665818Y-140759808D01*
X134799068Y-141009101D01*
X134978392Y-141227608D01*
X135196899Y-141406932D01*
X135329858Y-141478000D01*
X135196899Y-141549068D01*
X134978392Y-141728392D01*
X134799068Y-141946899D01*
X134665818Y-142196192D01*
X134583764Y-142466691D01*
X134556057Y-142748000D01*
X134583764Y-143029309D01*
X134665818Y-143299808D01*
X134799068Y-143549101D01*
X134978392Y-143767608D01*
X135196899Y-143946932D01*
X135329858Y-144018000D01*
X135196899Y-144089068D01*
X134978392Y-144268392D01*
X134799068Y-144486899D01*
X134665818Y-144736192D01*
X134583764Y-145006691D01*
X134556057Y-145288000D01*
X134583764Y-145569309D01*
X134665818Y-145839808D01*
X134799068Y-146089101D01*
X134978392Y-146307608D01*
X135196899Y-146486932D01*
X135446192Y-146620182D01*
X135716691Y-146702236D01*
X135927508Y-146723000D01*
X136868492Y-146723000D01*
X137079309Y-146702236D01*
X137349808Y-146620182D01*
X137599101Y-146486932D01*
X137817608Y-146307608D01*
X137996932Y-146089101D01*
X138130182Y-145839808D01*
X138212236Y-145569309D01*
X138239943Y-145288000D01*
X138212236Y-145006691D01*
X138130182Y-144736192D01*
X137996932Y-144486899D01*
X137817608Y-144268392D01*
X137599101Y-144089068D01*
X137466142Y-144018000D01*
X137599101Y-143946932D01*
X137817608Y-143767608D01*
X137996932Y-143549101D01*
X138130182Y-143299808D01*
X138212236Y-143029309D01*
X138239943Y-142748000D01*
X138212236Y-142466691D01*
X138130182Y-142196192D01*
X137996932Y-141946899D01*
X137817608Y-141728392D01*
X137599101Y-141549068D01*
X137466142Y-141478000D01*
X137599101Y-141406932D01*
X137817608Y-141227608D01*
X137996932Y-141009101D01*
X138130182Y-140759808D01*
X138212236Y-140489309D01*
X138239943Y-140208000D01*
X138212236Y-139926691D01*
X138130182Y-139656192D01*
X137996932Y-139406899D01*
X137817608Y-139188392D01*
X137599101Y-139009068D01*
X137466142Y-138938000D01*
X137599101Y-138866932D01*
X137817608Y-138687608D01*
X137996932Y-138469101D01*
X138130182Y-138219808D01*
X138212236Y-137949309D01*
X138239943Y-137668000D01*
X138212236Y-137386691D01*
X138130182Y-137116192D01*
X137996932Y-136866899D01*
X137876865Y-136720597D01*
X138942353Y-135655110D01*
X138971422Y-135631254D01*
X138999547Y-135596984D01*
X139040001Y-135547691D01*
X139040001Y-155296000D01*
X104800000Y-155296000D01*
X104800000Y-96774000D01*
X105746057Y-96774000D01*
X105773764Y-97055309D01*
X105855818Y-97325808D01*
X105989068Y-97575101D01*
X106168392Y-97793608D01*
X106386899Y-97972932D01*
X106636192Y-98106182D01*
X106906691Y-98188236D01*
X107117508Y-98209000D01*
X107258492Y-98209000D01*
X107469309Y-98188236D01*
X107739808Y-98106182D01*
X107989101Y-97972932D01*
X108207608Y-97793608D01*
X108386932Y-97575101D01*
X108520182Y-97325808D01*
X108602236Y-97055309D01*
X108629943Y-96774000D01*
X108602236Y-96492691D01*
X108520182Y-96222192D01*
X108386932Y-95972899D01*
X108207608Y-95754392D01*
X107989101Y-95575068D01*
X107739808Y-95441818D01*
X107469309Y-95359764D01*
X107258492Y-95339000D01*
X107117508Y-95339000D01*
X106906691Y-95359764D01*
X106636192Y-95441818D01*
X106386899Y-95575068D01*
X106168392Y-95754392D01*
X105989068Y-95972899D01*
X105855818Y-96222192D01*
X105773764Y-96492691D01*
X105746057Y-96774000D01*
X104800000Y-96774000D01*
X104800000Y-93726000D01*
X105746057Y-93726000D01*
X105773764Y-94007309D01*
X105855818Y-94277808D01*
X105989068Y-94527101D01*
X106168392Y-94745608D01*
X106386899Y-94924932D01*
X106636192Y-95058182D01*
X106906691Y-95140236D01*
X107117508Y-95161000D01*
X107258492Y-95161000D01*
X107469309Y-95140236D01*
X107739808Y-95058182D01*
X107989101Y-94924932D01*
X108207608Y-94745608D01*
X108386932Y-94527101D01*
X108520182Y-94277808D01*
X108602236Y-94007309D01*
X108629943Y-93726000D01*
X108602236Y-93444691D01*
X108520182Y-93174192D01*
X108386932Y-92924899D01*
X108207608Y-92706392D01*
X107989101Y-92527068D01*
X107739808Y-92393818D01*
X107469309Y-92311764D01*
X107258492Y-92291000D01*
X107117508Y-92291000D01*
X106906691Y-92311764D01*
X106636192Y-92393818D01*
X106386899Y-92527068D01*
X106168392Y-92706392D01*
X105989068Y-92924899D01*
X105855818Y-93174192D01*
X105773764Y-93444691D01*
X105746057Y-93726000D01*
X104800000Y-93726000D01*
X104800000Y-90678000D01*
X105746057Y-90678000D01*
X105773764Y-90959309D01*
X105855818Y-91229808D01*
X105989068Y-91479101D01*
X106168392Y-91697608D01*
X106386899Y-91876932D01*
X106636192Y-92010182D01*
X106906691Y-92092236D01*
X107117508Y-92113000D01*
X107258492Y-92113000D01*
X107469309Y-92092236D01*
X107739808Y-92010182D01*
X107989101Y-91876932D01*
X108207608Y-91697608D01*
X108386932Y-91479101D01*
X108520182Y-91229808D01*
X108602236Y-90959309D01*
X108629943Y-90678000D01*
X108602236Y-90396691D01*
X108520182Y-90126192D01*
X108386932Y-89876899D01*
X108207608Y-89658392D01*
X107989101Y-89479068D01*
X107739808Y-89345818D01*
X107469309Y-89263764D01*
X107258492Y-89243000D01*
X107117508Y-89243000D01*
X106906691Y-89263764D01*
X106636192Y-89345818D01*
X106386899Y-89479068D01*
X106168392Y-89658392D01*
X105989068Y-89876899D01*
X105855818Y-90126192D01*
X105773764Y-90396691D01*
X105746057Y-90678000D01*
X104800000Y-90678000D01*
X104800000Y-87364000D01*
X105799928Y-87364000D01*
X105812188Y-87488482D01*
X105848498Y-87608180D01*
X105907463Y-87718494D01*
X105986815Y-87815185D01*
X106083506Y-87894537D01*
X106193820Y-87953502D01*
X106313518Y-87989812D01*
X106438000Y-88002072D01*
X106902250Y-87999000D01*
X107061000Y-87840250D01*
X107061000Y-86741000D01*
X105961750Y-86741000D01*
X105803000Y-86899750D01*
X105799928Y-87364000D01*
X104800000Y-87364000D01*
X104800000Y-85864000D01*
X105799928Y-85864000D01*
X105803000Y-86328250D01*
X105961750Y-86487000D01*
X107061000Y-86487000D01*
X107061000Y-85387750D01*
X106902250Y-85229000D01*
X106438000Y-85225928D01*
X106313518Y-85238188D01*
X106193820Y-85274498D01*
X106083506Y-85333463D01*
X105986815Y-85412815D01*
X105907463Y-85509506D01*
X105848498Y-85619820D01*
X105812188Y-85739518D01*
X105799928Y-85864000D01*
X104800000Y-85864000D01*
X104800000Y-80889589D01*
X105803000Y-80889589D01*
X105803000Y-81162411D01*
X105856225Y-81429989D01*
X105960629Y-81682043D01*
X106112201Y-81908886D01*
X106305114Y-82101799D01*
X106531957Y-82253371D01*
X106784011Y-82357775D01*
X107051589Y-82411000D01*
X107324411Y-82411000D01*
X107591989Y-82357775D01*
X107844043Y-82253371D01*
X108070886Y-82101799D01*
X108263799Y-81908886D01*
X108415371Y-81682043D01*
X108458000Y-81579127D01*
X108500629Y-81682043D01*
X108652201Y-81908886D01*
X108845114Y-82101799D01*
X109071957Y-82253371D01*
X109324011Y-82357775D01*
X109591589Y-82411000D01*
X109864411Y-82411000D01*
X110131989Y-82357775D01*
X110384043Y-82253371D01*
X110610886Y-82101799D01*
X110803799Y-81908886D01*
X110881555Y-81792517D01*
X110892188Y-81900482D01*
X110928498Y-82020180D01*
X110987463Y-82130494D01*
X111066815Y-82227185D01*
X111163506Y-82306537D01*
X111273820Y-82365502D01*
X111393518Y-82401812D01*
X111518000Y-82414072D01*
X111982250Y-82411000D01*
X112141000Y-82252250D01*
X112141000Y-81153000D01*
X112121000Y-81153000D01*
X112121000Y-80899000D01*
X112141000Y-80899000D01*
X112141000Y-79799750D01*
X112395000Y-79799750D01*
X112395000Y-80899000D01*
X112415000Y-80899000D01*
X112415000Y-81153000D01*
X112395000Y-81153000D01*
X112395000Y-82252250D01*
X112553750Y-82411000D01*
X113018000Y-82414072D01*
X113142482Y-82401812D01*
X113262180Y-82365502D01*
X113372494Y-82306537D01*
X113469185Y-82227185D01*
X113548537Y-82130494D01*
X113601230Y-82031915D01*
X113671114Y-82101799D01*
X113897957Y-82253371D01*
X114150011Y-82357775D01*
X114417589Y-82411000D01*
X114690411Y-82411000D01*
X114957989Y-82357775D01*
X115210043Y-82253371D01*
X115436886Y-82101799D01*
X115629799Y-81908886D01*
X115781371Y-81682043D01*
X115824000Y-81579127D01*
X115866629Y-81682043D01*
X116018201Y-81908886D01*
X116211114Y-82101799D01*
X116437957Y-82253371D01*
X116690011Y-82357775D01*
X116957589Y-82411000D01*
X117230411Y-82411000D01*
X117497989Y-82357775D01*
X117750043Y-82253371D01*
X117976886Y-82101799D01*
X118169799Y-81908886D01*
X118247555Y-81792517D01*
X118258188Y-81900482D01*
X118294498Y-82020180D01*
X118353463Y-82130494D01*
X118432815Y-82227185D01*
X118529506Y-82306537D01*
X118639820Y-82365502D01*
X118759518Y-82401812D01*
X118884000Y-82414072D01*
X119348250Y-82411000D01*
X119507000Y-82252250D01*
X119507000Y-81153000D01*
X119487000Y-81153000D01*
X119487000Y-80899000D01*
X119507000Y-80899000D01*
X119507000Y-79799750D01*
X119761000Y-79799750D01*
X119761000Y-80899000D01*
X119781000Y-80899000D01*
X119781000Y-81153000D01*
X119761000Y-81153000D01*
X119761000Y-82252250D01*
X119919750Y-82411000D01*
X120384000Y-82414072D01*
X120508482Y-82401812D01*
X120628180Y-82365502D01*
X120738494Y-82306537D01*
X120835185Y-82227185D01*
X120914537Y-82130494D01*
X120967230Y-82031915D01*
X121037114Y-82101799D01*
X121263957Y-82253371D01*
X121516011Y-82357775D01*
X121783589Y-82411000D01*
X122056411Y-82411000D01*
X122323989Y-82357775D01*
X122576043Y-82253371D01*
X122802886Y-82101799D01*
X122995799Y-81908886D01*
X123147371Y-81682043D01*
X123190000Y-81579127D01*
X123232629Y-81682043D01*
X123384201Y-81908886D01*
X123577114Y-82101799D01*
X123803957Y-82253371D01*
X124056011Y-82357775D01*
X124323589Y-82411000D01*
X124596411Y-82411000D01*
X124863989Y-82357775D01*
X125116043Y-82253371D01*
X125342886Y-82101799D01*
X125535799Y-81908886D01*
X125613555Y-81792517D01*
X125624188Y-81900482D01*
X125660498Y-82020180D01*
X125719463Y-82130494D01*
X125798815Y-82227185D01*
X125895506Y-82306537D01*
X126005820Y-82365502D01*
X126125518Y-82401812D01*
X126250000Y-82414072D01*
X126714250Y-82411000D01*
X126873000Y-82252250D01*
X126873000Y-81153000D01*
X126853000Y-81153000D01*
X126853000Y-80899000D01*
X126873000Y-80899000D01*
X126873000Y-79799750D01*
X126714250Y-79641000D01*
X126250000Y-79637928D01*
X126125518Y-79650188D01*
X126005820Y-79686498D01*
X125895506Y-79745463D01*
X125798815Y-79824815D01*
X125719463Y-79921506D01*
X125660498Y-80031820D01*
X125624188Y-80151518D01*
X125613555Y-80259483D01*
X125535799Y-80143114D01*
X125342886Y-79950201D01*
X125116043Y-79798629D01*
X124863989Y-79694225D01*
X124596411Y-79641000D01*
X124323589Y-79641000D01*
X124056011Y-79694225D01*
X123803957Y-79798629D01*
X123577114Y-79950201D01*
X123384201Y-80143114D01*
X123232629Y-80369957D01*
X123190000Y-80472873D01*
X123147371Y-80369957D01*
X122995799Y-80143114D01*
X122802886Y-79950201D01*
X122576043Y-79798629D01*
X122323989Y-79694225D01*
X122056411Y-79641000D01*
X121783589Y-79641000D01*
X121516011Y-79694225D01*
X121263957Y-79798629D01*
X121037114Y-79950201D01*
X120967230Y-80020085D01*
X120914537Y-79921506D01*
X120835185Y-79824815D01*
X120738494Y-79745463D01*
X120628180Y-79686498D01*
X120508482Y-79650188D01*
X120384000Y-79637928D01*
X119919750Y-79641000D01*
X119761000Y-79799750D01*
X119507000Y-79799750D01*
X119348250Y-79641000D01*
X118884000Y-79637928D01*
X118759518Y-79650188D01*
X118639820Y-79686498D01*
X118529506Y-79745463D01*
X118432815Y-79824815D01*
X118353463Y-79921506D01*
X118294498Y-80031820D01*
X118258188Y-80151518D01*
X118247555Y-80259483D01*
X118169799Y-80143114D01*
X117976886Y-79950201D01*
X117750043Y-79798629D01*
X117497989Y-79694225D01*
X117230411Y-79641000D01*
X116957589Y-79641000D01*
X116690011Y-79694225D01*
X116437957Y-79798629D01*
X116211114Y-79950201D01*
X116018201Y-80143114D01*
X115866629Y-80369957D01*
X115824000Y-80472873D01*
X115781371Y-80369957D01*
X115629799Y-80143114D01*
X115436886Y-79950201D01*
X115210043Y-79798629D01*
X114957989Y-79694225D01*
X114690411Y-79641000D01*
X114417589Y-79641000D01*
X114150011Y-79694225D01*
X113897957Y-79798629D01*
X113671114Y-79950201D01*
X113601230Y-80020085D01*
X113548537Y-79921506D01*
X113469185Y-79824815D01*
X113372494Y-79745463D01*
X113262180Y-79686498D01*
X113142482Y-79650188D01*
X113018000Y-79637928D01*
X112553750Y-79641000D01*
X112395000Y-79799750D01*
X112141000Y-79799750D01*
X111982250Y-79641000D01*
X111518000Y-79637928D01*
X111393518Y-79650188D01*
X111273820Y-79686498D01*
X111163506Y-79745463D01*
X111066815Y-79824815D01*
X110987463Y-79921506D01*
X110928498Y-80031820D01*
X110892188Y-80151518D01*
X110881555Y-80259483D01*
X110803799Y-80143114D01*
X110610886Y-79950201D01*
X110384043Y-79798629D01*
X110131989Y-79694225D01*
X109864411Y-79641000D01*
X109591589Y-79641000D01*
X109324011Y-79694225D01*
X109071957Y-79798629D01*
X108845114Y-79950201D01*
X108652201Y-80143114D01*
X108500629Y-80369957D01*
X108458000Y-80472873D01*
X108415371Y-80369957D01*
X108263799Y-80143114D01*
X108070886Y-79950201D01*
X107844043Y-79798629D01*
X107591989Y-79694225D01*
X107324411Y-79641000D01*
X107051589Y-79641000D01*
X106784011Y-79694225D01*
X106531957Y-79798629D01*
X106305114Y-79950201D01*
X106112201Y-80143114D01*
X105960629Y-80369957D01*
X105856225Y-80622011D01*
X105803000Y-80889589D01*
X104800000Y-80889589D01*
X104800000Y-77470000D01*
X105746057Y-77470000D01*
X105773764Y-77751309D01*
X105855818Y-78021808D01*
X105989068Y-78271101D01*
X106168392Y-78489608D01*
X106386899Y-78668932D01*
X106636192Y-78802182D01*
X106906691Y-78884236D01*
X107117508Y-78905000D01*
X107258492Y-78905000D01*
X107469309Y-78884236D01*
X107739808Y-78802182D01*
X107989101Y-78668932D01*
X108207608Y-78489608D01*
X108386932Y-78271101D01*
X108520182Y-78021808D01*
X108602236Y-77751309D01*
X108629943Y-77470000D01*
X108616023Y-77328665D01*
X113373000Y-77328665D01*
X113373000Y-77611335D01*
X113428147Y-77888574D01*
X113536320Y-78149727D01*
X113693363Y-78384759D01*
X113893241Y-78584637D01*
X114128273Y-78741680D01*
X114389426Y-78849853D01*
X114666665Y-78905000D01*
X114949335Y-78905000D01*
X115226574Y-78849853D01*
X115487727Y-78741680D01*
X115722759Y-78584637D01*
X115922637Y-78384759D01*
X116079680Y-78149727D01*
X116187853Y-77888574D01*
X116243000Y-77611335D01*
X116243000Y-77328665D01*
X117945000Y-77328665D01*
X117945000Y-77611335D01*
X118000147Y-77888574D01*
X118108320Y-78149727D01*
X118265363Y-78384759D01*
X118465241Y-78584637D01*
X118700273Y-78741680D01*
X118961426Y-78849853D01*
X119238665Y-78905000D01*
X119521335Y-78905000D01*
X119798574Y-78849853D01*
X120059727Y-78741680D01*
X120294759Y-78584637D01*
X120494637Y-78384759D01*
X120651680Y-78149727D01*
X120759853Y-77888574D01*
X120815000Y-77611335D01*
X120815000Y-77328665D01*
X120759853Y-77051426D01*
X120651680Y-76790273D01*
X120494637Y-76555241D01*
X120294759Y-76355363D01*
X120059727Y-76198320D01*
X119798574Y-76090147D01*
X119521335Y-76035000D01*
X119238665Y-76035000D01*
X118961426Y-76090147D01*
X118700273Y-76198320D01*
X118465241Y-76355363D01*
X118265363Y-76555241D01*
X118108320Y-76790273D01*
X118000147Y-77051426D01*
X117945000Y-77328665D01*
X116243000Y-77328665D01*
X116187853Y-77051426D01*
X116079680Y-76790273D01*
X115922637Y-76555241D01*
X115722759Y-76355363D01*
X115487727Y-76198320D01*
X115226574Y-76090147D01*
X114949335Y-76035000D01*
X114666665Y-76035000D01*
X114389426Y-76090147D01*
X114128273Y-76198320D01*
X113893241Y-76355363D01*
X113693363Y-76555241D01*
X113536320Y-76790273D01*
X113428147Y-77051426D01*
X113373000Y-77328665D01*
X108616023Y-77328665D01*
X108602236Y-77188691D01*
X108520182Y-76918192D01*
X108386932Y-76668899D01*
X108207608Y-76450392D01*
X107989101Y-76271068D01*
X107739808Y-76137818D01*
X107469309Y-76055764D01*
X107258492Y-76035000D01*
X107117508Y-76035000D01*
X106906691Y-76055764D01*
X106636192Y-76137818D01*
X106386899Y-76271068D01*
X106168392Y-76450392D01*
X105989068Y-76668899D01*
X105855818Y-76918192D01*
X105773764Y-77188691D01*
X105746057Y-77470000D01*
X104800000Y-77470000D01*
X104800000Y-74422000D01*
X105746057Y-74422000D01*
X105773764Y-74703309D01*
X105855818Y-74973808D01*
X105989068Y-75223101D01*
X106168392Y-75441608D01*
X106386899Y-75620932D01*
X106636192Y-75754182D01*
X106906691Y-75836236D01*
X107117508Y-75857000D01*
X107258492Y-75857000D01*
X107469309Y-75836236D01*
X107739808Y-75754182D01*
X107989101Y-75620932D01*
X108207608Y-75441608D01*
X108386932Y-75223101D01*
X108520182Y-74973808D01*
X108602236Y-74703309D01*
X108629943Y-74422000D01*
X108616023Y-74280665D01*
X113373000Y-74280665D01*
X113373000Y-74563335D01*
X113428147Y-74840574D01*
X113536320Y-75101727D01*
X113693363Y-75336759D01*
X113893241Y-75536637D01*
X114128273Y-75693680D01*
X114389426Y-75801853D01*
X114666665Y-75857000D01*
X114949335Y-75857000D01*
X115226574Y-75801853D01*
X115487727Y-75693680D01*
X115722759Y-75536637D01*
X115922637Y-75336759D01*
X116079680Y-75101727D01*
X116187853Y-74840574D01*
X116243000Y-74563335D01*
X116243000Y-74280665D01*
X117945000Y-74280665D01*
X117945000Y-74563335D01*
X118000147Y-74840574D01*
X118108320Y-75101727D01*
X118265363Y-75336759D01*
X118465241Y-75536637D01*
X118700273Y-75693680D01*
X118961426Y-75801853D01*
X119238665Y-75857000D01*
X119521335Y-75857000D01*
X119798574Y-75801853D01*
X120059727Y-75693680D01*
X120294759Y-75536637D01*
X120494637Y-75336759D01*
X120651680Y-75101727D01*
X120759853Y-74840574D01*
X120815000Y-74563335D01*
X120815000Y-74422000D01*
X125558057Y-74422000D01*
X125585764Y-74703309D01*
X125667818Y-74973808D01*
X125801068Y-75223101D01*
X125980392Y-75441608D01*
X126198899Y-75620932D01*
X126448192Y-75754182D01*
X126718691Y-75836236D01*
X126929508Y-75857000D01*
X127070492Y-75857000D01*
X127281309Y-75836236D01*
X127551808Y-75754182D01*
X127801101Y-75620932D01*
X128019608Y-75441608D01*
X128198932Y-75223101D01*
X128332182Y-74973808D01*
X128414236Y-74703309D01*
X128441943Y-74422000D01*
X128414236Y-74140691D01*
X128332182Y-73870192D01*
X128198932Y-73620899D01*
X128019608Y-73402392D01*
X127801101Y-73223068D01*
X127551808Y-73089818D01*
X127281309Y-73007764D01*
X127070492Y-72987000D01*
X126929508Y-72987000D01*
X126718691Y-73007764D01*
X126448192Y-73089818D01*
X126198899Y-73223068D01*
X125980392Y-73402392D01*
X125801068Y-73620899D01*
X125667818Y-73870192D01*
X125585764Y-74140691D01*
X125558057Y-74422000D01*
X120815000Y-74422000D01*
X120815000Y-74280665D01*
X120759853Y-74003426D01*
X120651680Y-73742273D01*
X120494637Y-73507241D01*
X120294759Y-73307363D01*
X120059727Y-73150320D01*
X119798574Y-73042147D01*
X119521335Y-72987000D01*
X119238665Y-72987000D01*
X118961426Y-73042147D01*
X118700273Y-73150320D01*
X118465241Y-73307363D01*
X118265363Y-73507241D01*
X118108320Y-73742273D01*
X118000147Y-74003426D01*
X117945000Y-74280665D01*
X116243000Y-74280665D01*
X116187853Y-74003426D01*
X116079680Y-73742273D01*
X115922637Y-73507241D01*
X115722759Y-73307363D01*
X115487727Y-73150320D01*
X115226574Y-73042147D01*
X114949335Y-72987000D01*
X114666665Y-72987000D01*
X114389426Y-73042147D01*
X114128273Y-73150320D01*
X113893241Y-73307363D01*
X113693363Y-73507241D01*
X113536320Y-73742273D01*
X113428147Y-74003426D01*
X113373000Y-74280665D01*
X108616023Y-74280665D01*
X108602236Y-74140691D01*
X108520182Y-73870192D01*
X108386932Y-73620899D01*
X108207608Y-73402392D01*
X107989101Y-73223068D01*
X107739808Y-73089818D01*
X107469309Y-73007764D01*
X107258492Y-72987000D01*
X107117508Y-72987000D01*
X106906691Y-73007764D01*
X106636192Y-73089818D01*
X106386899Y-73223068D01*
X106168392Y-73402392D01*
X105989068Y-73620899D01*
X105855818Y-73870192D01*
X105773764Y-74140691D01*
X105746057Y-74422000D01*
X104800000Y-74422000D01*
X104800000Y-71374000D01*
X105746057Y-71374000D01*
X105773764Y-71655309D01*
X105855818Y-71925808D01*
X105989068Y-72175101D01*
X106168392Y-72393608D01*
X106386899Y-72572932D01*
X106636192Y-72706182D01*
X106906691Y-72788236D01*
X107117508Y-72809000D01*
X107258492Y-72809000D01*
X107469309Y-72788236D01*
X107739808Y-72706182D01*
X107989101Y-72572932D01*
X108207608Y-72393608D01*
X108386932Y-72175101D01*
X108520182Y-71925808D01*
X108602236Y-71655309D01*
X108629943Y-71374000D01*
X108616023Y-71232665D01*
X113373000Y-71232665D01*
X113373000Y-71515335D01*
X113428147Y-71792574D01*
X113536320Y-72053727D01*
X113693363Y-72288759D01*
X113893241Y-72488637D01*
X114128273Y-72645680D01*
X114389426Y-72753853D01*
X114666665Y-72809000D01*
X114949335Y-72809000D01*
X115226574Y-72753853D01*
X115487727Y-72645680D01*
X115722759Y-72488637D01*
X115922637Y-72288759D01*
X116079680Y-72053727D01*
X116187853Y-71792574D01*
X116243000Y-71515335D01*
X116243000Y-71232665D01*
X117945000Y-71232665D01*
X117945000Y-71515335D01*
X118000147Y-71792574D01*
X118108320Y-72053727D01*
X118265363Y-72288759D01*
X118465241Y-72488637D01*
X118700273Y-72645680D01*
X118961426Y-72753853D01*
X119238665Y-72809000D01*
X119521335Y-72809000D01*
X119798574Y-72753853D01*
X120059727Y-72645680D01*
X120294759Y-72488637D01*
X120494637Y-72288759D01*
X120651680Y-72053727D01*
X120759853Y-71792574D01*
X120815000Y-71515335D01*
X120815000Y-71374000D01*
X125558057Y-71374000D01*
X125585764Y-71655309D01*
X125667818Y-71925808D01*
X125801068Y-72175101D01*
X125980392Y-72393608D01*
X126198899Y-72572932D01*
X126448192Y-72706182D01*
X126718691Y-72788236D01*
X126929508Y-72809000D01*
X127070492Y-72809000D01*
X127281309Y-72788236D01*
X127551808Y-72706182D01*
X127801101Y-72572932D01*
X128019608Y-72393608D01*
X128198932Y-72175101D01*
X128332182Y-71925808D01*
X128414236Y-71655309D01*
X128441943Y-71374000D01*
X128414236Y-71092691D01*
X128332182Y-70822192D01*
X128198932Y-70572899D01*
X128019608Y-70354392D01*
X127801101Y-70175068D01*
X127551808Y-70041818D01*
X127281309Y-69959764D01*
X127070492Y-69939000D01*
X126929508Y-69939000D01*
X126718691Y-69959764D01*
X126448192Y-70041818D01*
X126198899Y-70175068D01*
X125980392Y-70354392D01*
X125801068Y-70572899D01*
X125667818Y-70822192D01*
X125585764Y-71092691D01*
X125558057Y-71374000D01*
X120815000Y-71374000D01*
X120815000Y-71232665D01*
X120759853Y-70955426D01*
X120651680Y-70694273D01*
X120494637Y-70459241D01*
X120294759Y-70259363D01*
X120059727Y-70102320D01*
X119798574Y-69994147D01*
X119521335Y-69939000D01*
X119238665Y-69939000D01*
X118961426Y-69994147D01*
X118700273Y-70102320D01*
X118465241Y-70259363D01*
X118265363Y-70459241D01*
X118108320Y-70694273D01*
X118000147Y-70955426D01*
X117945000Y-71232665D01*
X116243000Y-71232665D01*
X116187853Y-70955426D01*
X116079680Y-70694273D01*
X115922637Y-70459241D01*
X115722759Y-70259363D01*
X115487727Y-70102320D01*
X115226574Y-69994147D01*
X114949335Y-69939000D01*
X114666665Y-69939000D01*
X114389426Y-69994147D01*
X114128273Y-70102320D01*
X113893241Y-70259363D01*
X113693363Y-70459241D01*
X113536320Y-70694273D01*
X113428147Y-70955426D01*
X113373000Y-71232665D01*
X108616023Y-71232665D01*
X108602236Y-71092691D01*
X108520182Y-70822192D01*
X108386932Y-70572899D01*
X108207608Y-70354392D01*
X107989101Y-70175068D01*
X107739808Y-70041818D01*
X107469309Y-69959764D01*
X107258492Y-69939000D01*
X107117508Y-69939000D01*
X106906691Y-69959764D01*
X106636192Y-70041818D01*
X106386899Y-70175068D01*
X106168392Y-70354392D01*
X105989068Y-70572899D01*
X105855818Y-70822192D01*
X105773764Y-71092691D01*
X105746057Y-71374000D01*
X104800000Y-71374000D01*
X104800000Y-61246532D01*
X108668227Y-61246532D01*
X108718916Y-61698434D01*
X108856415Y-62131885D01*
X109075486Y-62530373D01*
X109367784Y-62878721D01*
X109722178Y-63163661D01*
X110125167Y-63374338D01*
X110561402Y-63502729D01*
X111014266Y-63543943D01*
X111466512Y-63496410D01*
X111900911Y-63361941D01*
X112300919Y-63145658D01*
X112651300Y-62855798D01*
X112938706Y-62503402D01*
X113152192Y-62101894D01*
X113283626Y-61666566D01*
X113324810Y-61246532D01*
X131020227Y-61246532D01*
X131070916Y-61698434D01*
X131208415Y-62131885D01*
X131427486Y-62530373D01*
X131719784Y-62878721D01*
X132074178Y-63163661D01*
X132477167Y-63374338D01*
X132913402Y-63502729D01*
X133366266Y-63543943D01*
X133818512Y-63496410D01*
X134252911Y-63361941D01*
X134652919Y-63145658D01*
X135003300Y-62855798D01*
X135290706Y-62503402D01*
X135504192Y-62101894D01*
X135635626Y-61666566D01*
X135680000Y-61214000D01*
X135679092Y-61148943D01*
X135622098Y-60697792D01*
X135478561Y-60266304D01*
X135253948Y-59870913D01*
X134956814Y-59526680D01*
X134598476Y-59246716D01*
X134192585Y-59041686D01*
X133754600Y-58919398D01*
X133301204Y-58884511D01*
X132849667Y-58938354D01*
X132417187Y-59078875D01*
X132020237Y-59300722D01*
X131673938Y-59595446D01*
X131391480Y-59951820D01*
X131183621Y-60356270D01*
X131058278Y-60793390D01*
X131020227Y-61246532D01*
X113324810Y-61246532D01*
X113328000Y-61214000D01*
X113327092Y-61148943D01*
X113270098Y-60697792D01*
X113126561Y-60266304D01*
X112901948Y-59870913D01*
X112604814Y-59526680D01*
X112246476Y-59246716D01*
X111840585Y-59041686D01*
X111402600Y-58919398D01*
X110949204Y-58884511D01*
X110497667Y-58938354D01*
X110065187Y-59078875D01*
X109668237Y-59300722D01*
X109321938Y-59595446D01*
X109039480Y-59951820D01*
X108831621Y-60356270D01*
X108706278Y-60793390D01*
X108668227Y-61246532D01*
X104800000Y-61246532D01*
X104800000Y-57556000D01*
X139040000Y-57556000D01*
X139040001Y-111664141D01*
X139040001Y-111664141D01*
G37*
X139040001Y-111664141D02*
X139000298Y-111615764D01*
X138971422Y-111580578D01*
X138942346Y-111556716D01*
X138199366Y-110813736D01*
X138212236Y-110771309D01*
X138239943Y-110490000D01*
X138212236Y-110208691D01*
X138130182Y-109938192D01*
X137996932Y-109688899D01*
X137817608Y-109470392D01*
X137599101Y-109291068D01*
X137466142Y-109220000D01*
X137599101Y-109148932D01*
X137817608Y-108969608D01*
X137996932Y-108751101D01*
X138130182Y-108501808D01*
X138212236Y-108231309D01*
X138239943Y-107950000D01*
X138212236Y-107668691D01*
X138130182Y-107398192D01*
X137996932Y-107148899D01*
X137817608Y-106930392D01*
X137599101Y-106751068D01*
X137466142Y-106680000D01*
X137599101Y-106608932D01*
X137817608Y-106429608D01*
X137996932Y-106211101D01*
X138130182Y-105961808D01*
X138212236Y-105691309D01*
X138239943Y-105410000D01*
X138212236Y-105128691D01*
X138130182Y-104858192D01*
X137996932Y-104608899D01*
X137817608Y-104390392D01*
X137599101Y-104211068D01*
X137466142Y-104140000D01*
X137599101Y-104068932D01*
X137817608Y-103889608D01*
X137996932Y-103671101D01*
X138130182Y-103421808D01*
X138212236Y-103151309D01*
X138239943Y-102870000D01*
X138212236Y-102588691D01*
X138130182Y-102318192D01*
X137996932Y-102068899D01*
X137817608Y-101850392D01*
X137599101Y-101671068D01*
X137466142Y-101600000D01*
X137599101Y-101528932D01*
X137817608Y-101349608D01*
X137996932Y-101131101D01*
X138130182Y-100881808D01*
X138212236Y-100611309D01*
X138239943Y-100330000D01*
X138212236Y-100048691D01*
X138130182Y-99778192D01*
X137996932Y-99528899D01*
X137817608Y-99310392D01*
X137599101Y-99131068D01*
X137349808Y-98997818D01*
X137079309Y-98915764D01*
X136868492Y-98895000D01*
X136370630Y-98895000D01*
X137672347Y-97593283D01*
X137701422Y-97569422D01*
X137773658Y-97481402D01*
X137796645Y-97453393D01*
X137867401Y-97321016D01*
X137867402Y-97321015D01*
X137910974Y-97177378D01*
X137922000Y-97065426D01*
X137922000Y-97065423D01*
X137925686Y-97028000D01*
X137922000Y-96990577D01*
X137922000Y-81353460D01*
X137925686Y-81316037D01*
X137916495Y-81222721D01*
X137910974Y-81166660D01*
X137867402Y-81023023D01*
X137796645Y-80890646D01*
X137701422Y-80774616D01*
X137672352Y-80750759D01*
X135801161Y-78879569D01*
X135860706Y-78807014D01*
X135998599Y-78549034D01*
X136083513Y-78269111D01*
X136112185Y-77978000D01*
X136083513Y-77686889D01*
X135998599Y-77406966D01*
X135860706Y-77148986D01*
X135675134Y-76922866D01*
X135449014Y-76737294D01*
X135384477Y-76702799D01*
X135501355Y-76633178D01*
X135717588Y-76438269D01*
X135891641Y-76204920D01*
X136016825Y-75942099D01*
X136061476Y-75794890D01*
X135940155Y-75565000D01*
X134747000Y-75565000D01*
X134747000Y-75585000D01*
X134493000Y-75585000D01*
X134493000Y-75565000D01*
X134473000Y-75565000D01*
X134473000Y-75311000D01*
X134493000Y-75311000D01*
X134493000Y-75291000D01*
X134747000Y-75291000D01*
X134747000Y-75311000D01*
X135940155Y-75311000D01*
X136061476Y-75081110D01*
X136016825Y-74933901D01*
X135891641Y-74671080D01*
X135717588Y-74437731D01*
X135501355Y-74242822D01*
X135384477Y-74173201D01*
X135449014Y-74138706D01*
X135675134Y-73953134D01*
X135860706Y-73727014D01*
X135998599Y-73469034D01*
X136083513Y-73189111D01*
X136112185Y-72898000D01*
X136083513Y-72606889D01*
X135998599Y-72326966D01*
X135860706Y-72068986D01*
X135675134Y-71842866D01*
X135449014Y-71657294D01*
X135394209Y-71628000D01*
X135449014Y-71598706D01*
X135675134Y-71413134D01*
X135860706Y-71187014D01*
X135998599Y-70929034D01*
X136083513Y-70649111D01*
X136112185Y-70358000D01*
X136083513Y-70066889D01*
X135998599Y-69786966D01*
X135860706Y-69528986D01*
X135675134Y-69302866D01*
X135449014Y-69117294D01*
X135394209Y-69088000D01*
X135449014Y-69058706D01*
X135675134Y-68873134D01*
X135860706Y-68647014D01*
X135998599Y-68389034D01*
X136083513Y-68109111D01*
X136112185Y-67818000D01*
X136083513Y-67526889D01*
X135998599Y-67246966D01*
X135860706Y-66988986D01*
X135675134Y-66762866D01*
X135449014Y-66577294D01*
X135191034Y-66439401D01*
X134911111Y-66354487D01*
X134692950Y-66333000D01*
X134547050Y-66333000D01*
X134328889Y-66354487D01*
X134048966Y-66439401D01*
X133790986Y-66577294D01*
X133564866Y-66762866D01*
X133379294Y-66988986D01*
X133350000Y-67043791D01*
X133320706Y-66988986D01*
X133135134Y-66762866D01*
X132909014Y-66577294D01*
X132651034Y-66439401D01*
X132371111Y-66354487D01*
X132152950Y-66333000D01*
X132007050Y-66333000D01*
X131788889Y-66354487D01*
X131508966Y-66439401D01*
X131250986Y-66577294D01*
X131024866Y-66762866D01*
X130839294Y-66988986D01*
X130701401Y-67246966D01*
X130616487Y-67526889D01*
X130590488Y-67790858D01*
X129050109Y-66250479D01*
X129026247Y-66221403D01*
X128910217Y-66126180D01*
X128777840Y-66055423D01*
X128634203Y-66011851D01*
X128522251Y-66000825D01*
X128522248Y-66000825D01*
X128484825Y-65997139D01*
X128447402Y-66000825D01*
X117170598Y-66000825D01*
X117133175Y-65997139D01*
X117095752Y-66000825D01*
X117095749Y-66000825D01*
X116983797Y-66011851D01*
X116840160Y-66055423D01*
X116778539Y-66088360D01*
X116707782Y-66126180D01*
X116679285Y-66149568D01*
X116591753Y-66221403D01*
X116567887Y-66250484D01*
X116147736Y-66670634D01*
X116105309Y-66657764D01*
X115894492Y-66637000D01*
X115753508Y-66637000D01*
X115542691Y-66657764D01*
X115272192Y-66739818D01*
X115022899Y-66873068D01*
X114804392Y-67052392D01*
X114625068Y-67270899D01*
X114554000Y-67403858D01*
X114482932Y-67270899D01*
X114303608Y-67052392D01*
X114085101Y-66873068D01*
X113835808Y-66739818D01*
X113565309Y-66657764D01*
X113354492Y-66637000D01*
X113213508Y-66637000D01*
X113002691Y-66657764D01*
X112732192Y-66739818D01*
X112482899Y-66873068D01*
X112264392Y-67052392D01*
X112085068Y-67270899D01*
X112014000Y-67403858D01*
X111942932Y-67270899D01*
X111763608Y-67052392D01*
X111545101Y-66873068D01*
X111295808Y-66739818D01*
X111025309Y-66657764D01*
X110814492Y-66637000D01*
X110673508Y-66637000D01*
X110462691Y-66657764D01*
X110192192Y-66739818D01*
X109942899Y-66873068D01*
X109724392Y-67052392D01*
X109545068Y-67270899D01*
X109411818Y-67520192D01*
X109329764Y-67790691D01*
X109302057Y-68072000D01*
X109329764Y-68353309D01*
X109411818Y-68623808D01*
X109545068Y-68873101D01*
X109724392Y-69091608D01*
X109942899Y-69270932D01*
X110192192Y-69404182D01*
X110462691Y-69486236D01*
X110673508Y-69507000D01*
X110814492Y-69507000D01*
X111025309Y-69486236D01*
X111295808Y-69404182D01*
X111545101Y-69270932D01*
X111763608Y-69091608D01*
X111942932Y-68873101D01*
X112014000Y-68740142D01*
X112085068Y-68873101D01*
X112264392Y-69091608D01*
X112482899Y-69270932D01*
X112732192Y-69404182D01*
X113002691Y-69486236D01*
X113213508Y-69507000D01*
X113354492Y-69507000D01*
X113565309Y-69486236D01*
X113835808Y-69404182D01*
X114085101Y-69270932D01*
X114303608Y-69091608D01*
X114482932Y-68873101D01*
X114554000Y-68740142D01*
X114625068Y-68873101D01*
X114804392Y-69091608D01*
X115022899Y-69270932D01*
X115272192Y-69404182D01*
X115542691Y-69486236D01*
X115753508Y-69507000D01*
X115894492Y-69507000D01*
X116105309Y-69486236D01*
X116375808Y-69404182D01*
X116625101Y-69270932D01*
X116843608Y-69091608D01*
X117022932Y-68873101D01*
X117094000Y-68740142D01*
X117165068Y-68873101D01*
X117344392Y-69091608D01*
X117562899Y-69270932D01*
X117812192Y-69404182D01*
X118082691Y-69486236D01*
X118293508Y-69507000D01*
X118434492Y-69507000D01*
X118645309Y-69486236D01*
X118915808Y-69404182D01*
X119165101Y-69270932D01*
X119383608Y-69091608D01*
X119562932Y-68873101D01*
X119634000Y-68740142D01*
X119705068Y-68873101D01*
X119884392Y-69091608D01*
X120102899Y-69270932D01*
X120352192Y-69404182D01*
X120622691Y-69486236D01*
X120833508Y-69507000D01*
X120974492Y-69507000D01*
X121185309Y-69486236D01*
X121455808Y-69404182D01*
X121705101Y-69270932D01*
X121923608Y-69091608D01*
X122102932Y-68873101D01*
X122174000Y-68740142D01*
X122245068Y-68873101D01*
X122424392Y-69091608D01*
X122642899Y-69270932D01*
X122892192Y-69404182D01*
X123162691Y-69486236D01*
X123373508Y-69507000D01*
X123514492Y-69507000D01*
X123725309Y-69486236D01*
X123995808Y-69404182D01*
X124245101Y-69270932D01*
X124463608Y-69091608D01*
X124556419Y-68978518D01*
X124558188Y-68996482D01*
X124594498Y-69116180D01*
X124653463Y-69226494D01*
X124732815Y-69323185D01*
X124829506Y-69402537D01*
X124939820Y-69461502D01*
X125059518Y-69497812D01*
X125184000Y-69510072D01*
X126784000Y-69510072D01*
X126908482Y-69497812D01*
X127028180Y-69461502D01*
X127138494Y-69402537D01*
X127235185Y-69323185D01*
X127241301Y-69315733D01*
X128543001Y-70617435D01*
X128543000Y-72685949D01*
X128539006Y-72726500D01*
X128543000Y-72767050D01*
X128543000Y-72767052D01*
X128554944Y-72888325D01*
X128584877Y-72987000D01*
X128602147Y-73043933D01*
X128678801Y-73187342D01*
X128708121Y-73223068D01*
X128781959Y-73313041D01*
X128813466Y-73338898D01*
X130617644Y-75143076D01*
X130616487Y-75146889D01*
X130587815Y-75438000D01*
X130600829Y-75570133D01*
X130589568Y-75581394D01*
X130589563Y-75581398D01*
X128411877Y-77759085D01*
X128414236Y-77751309D01*
X128441943Y-77470000D01*
X128414236Y-77188691D01*
X128332182Y-76918192D01*
X128198932Y-76668899D01*
X128019608Y-76450392D01*
X127801101Y-76271068D01*
X127551808Y-76137818D01*
X127281309Y-76055764D01*
X127070492Y-76035000D01*
X126929508Y-76035000D01*
X126718691Y-76055764D01*
X126448192Y-76137818D01*
X126198899Y-76271068D01*
X125980392Y-76450392D01*
X125801068Y-76668899D01*
X125667818Y-76918192D01*
X125585764Y-77188691D01*
X125558057Y-77470000D01*
X125585764Y-77751309D01*
X125667818Y-78021808D01*
X125801068Y-78271101D01*
X125980392Y-78489608D01*
X126198899Y-78668932D01*
X126448192Y-78802182D01*
X126718691Y-78884236D01*
X126929508Y-78905000D01*
X127070492Y-78905000D01*
X127281309Y-78884236D01*
X127551808Y-78802182D01*
X127801101Y-78668932D01*
X127830248Y-78645012D01*
X127820892Y-78740000D01*
X127825501Y-78786795D01*
X127825501Y-79645364D01*
X127750000Y-79637928D01*
X127285750Y-79641000D01*
X127127000Y-79799750D01*
X127127000Y-80899000D01*
X127147000Y-80899000D01*
X127147000Y-81153000D01*
X127127000Y-81153000D01*
X127127000Y-82252250D01*
X127285750Y-82411000D01*
X127750000Y-82414072D01*
X127825501Y-82406636D01*
X127825500Y-85499857D01*
X127656043Y-85386629D01*
X127403989Y-85282225D01*
X127136411Y-85229000D01*
X126863589Y-85229000D01*
X126596011Y-85282225D01*
X126343957Y-85386629D01*
X126117114Y-85538201D01*
X125924201Y-85731114D01*
X125772629Y-85957957D01*
X125730000Y-86060873D01*
X125687371Y-85957957D01*
X125535799Y-85731114D01*
X125342886Y-85538201D01*
X125116043Y-85386629D01*
X124863989Y-85282225D01*
X124596411Y-85229000D01*
X124323589Y-85229000D01*
X124056011Y-85282225D01*
X123803957Y-85386629D01*
X123577114Y-85538201D01*
X123384201Y-85731114D01*
X123306445Y-85847483D01*
X123295812Y-85739518D01*
X123259502Y-85619820D01*
X123200537Y-85509506D01*
X123121185Y-85412815D01*
X123024494Y-85333463D01*
X122914180Y-85274498D01*
X122794482Y-85238188D01*
X122670000Y-85225928D01*
X122205750Y-85229000D01*
X122047000Y-85387750D01*
X122047000Y-86487000D01*
X122067000Y-86487000D01*
X122067000Y-86741000D01*
X122047000Y-86741000D01*
X122047000Y-86761000D01*
X121793000Y-86761000D01*
X121793000Y-86741000D01*
X121773000Y-86741000D01*
X121773000Y-86487000D01*
X121793000Y-86487000D01*
X121793000Y-85387750D01*
X121634250Y-85229000D01*
X121170000Y-85225928D01*
X121045518Y-85238188D01*
X120925820Y-85274498D01*
X120815506Y-85333463D01*
X120718815Y-85412815D01*
X120639463Y-85509506D01*
X120586770Y-85608085D01*
X120516886Y-85538201D01*
X120290043Y-85386629D01*
X120037989Y-85282225D01*
X119770411Y-85229000D01*
X119497589Y-85229000D01*
X119230011Y-85282225D01*
X118977957Y-85386629D01*
X118751114Y-85538201D01*
X118558201Y-85731114D01*
X118406629Y-85957957D01*
X118364000Y-86060873D01*
X118321371Y-85957957D01*
X118169799Y-85731114D01*
X117976886Y-85538201D01*
X117750043Y-85386629D01*
X117497989Y-85282225D01*
X117230411Y-85229000D01*
X116957589Y-85229000D01*
X116690011Y-85282225D01*
X116437957Y-85386629D01*
X116211114Y-85538201D01*
X116018201Y-85731114D01*
X115940445Y-85847483D01*
X115929812Y-85739518D01*
X115893502Y-85619820D01*
X115834537Y-85509506D01*
X115755185Y-85412815D01*
X115658494Y-85333463D01*
X115548180Y-85274498D01*
X115428482Y-85238188D01*
X115304000Y-85225928D01*
X114839750Y-85229000D01*
X114681000Y-85387750D01*
X114681000Y-86487000D01*
X114701000Y-86487000D01*
X114701000Y-86741000D01*
X114681000Y-86741000D01*
X114681000Y-86761000D01*
X114427000Y-86761000D01*
X114427000Y-86741000D01*
X114407000Y-86741000D01*
X114407000Y-86487000D01*
X114427000Y-86487000D01*
X114427000Y-85387750D01*
X114268250Y-85229000D01*
X113804000Y-85225928D01*
X113679518Y-85238188D01*
X113559820Y-85274498D01*
X113449506Y-85333463D01*
X113352815Y-85412815D01*
X113273463Y-85509506D01*
X113220770Y-85608085D01*
X113150886Y-85538201D01*
X112924043Y-85386629D01*
X112671989Y-85282225D01*
X112404411Y-85229000D01*
X112131589Y-85229000D01*
X111864011Y-85282225D01*
X111611957Y-85386629D01*
X111385114Y-85538201D01*
X111192201Y-85731114D01*
X111040629Y-85957957D01*
X110998000Y-86060873D01*
X110955371Y-85957957D01*
X110803799Y-85731114D01*
X110610886Y-85538201D01*
X110384043Y-85386629D01*
X110131989Y-85282225D01*
X109864411Y-85229000D01*
X109591589Y-85229000D01*
X109324011Y-85282225D01*
X109071957Y-85386629D01*
X108845114Y-85538201D01*
X108652201Y-85731114D01*
X108574445Y-85847483D01*
X108563812Y-85739518D01*
X108527502Y-85619820D01*
X108468537Y-85509506D01*
X108389185Y-85412815D01*
X108292494Y-85333463D01*
X108182180Y-85274498D01*
X108062482Y-85238188D01*
X107938000Y-85225928D01*
X107473750Y-85229000D01*
X107315000Y-85387750D01*
X107315000Y-86487000D01*
X107335000Y-86487000D01*
X107335000Y-86741000D01*
X107315000Y-86741000D01*
X107315000Y-87840250D01*
X107473750Y-87999000D01*
X107938000Y-88002072D01*
X108062482Y-87989812D01*
X108182180Y-87953502D01*
X108292494Y-87894537D01*
X108389185Y-87815185D01*
X108468537Y-87718494D01*
X108527502Y-87608180D01*
X108563812Y-87488482D01*
X108574445Y-87380517D01*
X108652201Y-87496886D01*
X108845114Y-87689799D01*
X109071957Y-87841371D01*
X109324011Y-87945775D01*
X109591589Y-87999000D01*
X109864411Y-87999000D01*
X110131989Y-87945775D01*
X110384043Y-87841371D01*
X110610886Y-87689799D01*
X110803799Y-87496886D01*
X110955371Y-87270043D01*
X110998000Y-87167127D01*
X111040629Y-87270043D01*
X111192201Y-87496886D01*
X111385114Y-87689799D01*
X111611957Y-87841371D01*
X111864011Y-87945775D01*
X112131589Y-87999000D01*
X112404411Y-87999000D01*
X112671989Y-87945775D01*
X112924043Y-87841371D01*
X113150886Y-87689799D01*
X113220770Y-87619915D01*
X113273463Y-87718494D01*
X113352815Y-87815185D01*
X113449506Y-87894537D01*
X113559820Y-87953502D01*
X113625528Y-87973434D01*
X111373565Y-90225397D01*
X111337223Y-90255222D01*
X111307399Y-90291563D01*
X111218194Y-90400260D01*
X111129749Y-90565731D01*
X111075283Y-90745278D01*
X111056892Y-90932000D01*
X111061501Y-90978795D01*
X111061500Y-95109462D01*
X106547565Y-99623397D01*
X106511223Y-99653222D01*
X106481399Y-99689563D01*
X106392194Y-99798260D01*
X106303749Y-99963731D01*
X106249283Y-100143278D01*
X106230892Y-100330000D01*
X106235501Y-100376795D01*
X106235500Y-150575215D01*
X106230892Y-150622000D01*
X106235500Y-150668784D01*
X106249283Y-150808722D01*
X106303748Y-150988268D01*
X106392194Y-151153741D01*
X106511222Y-151298778D01*
X106547569Y-151328607D01*
X106553000Y-151334038D01*
X106553000Y-151790444D01*
X106573214Y-151995679D01*
X106653096Y-152259014D01*
X106782817Y-152501706D01*
X106957392Y-152714427D01*
X107170113Y-152889003D01*
X107412805Y-153018724D01*
X107676140Y-153098606D01*
X107950000Y-153125579D01*
X108223859Y-153098606D01*
X108487194Y-153018724D01*
X108729886Y-152889003D01*
X108942607Y-152714428D01*
X109117183Y-152501707D01*
X109221038Y-152307407D01*
X109247941Y-152373762D01*
X109398994Y-152603549D01*
X109591974Y-152799452D01*
X109819465Y-152953942D01*
X110072724Y-153061082D01*
X110146930Y-153076040D01*
X110363000Y-152953540D01*
X110363000Y-151511000D01*
X110343000Y-151511000D01*
X110343000Y-151257000D01*
X110363000Y-151257000D01*
X110363000Y-149814460D01*
X110146930Y-149691960D01*
X110072724Y-149706918D01*
X109819465Y-149814058D01*
X109591974Y-149968548D01*
X109398994Y-150164451D01*
X109247941Y-150394238D01*
X109221038Y-150460593D01*
X109117183Y-150266293D01*
X108942608Y-150053572D01*
X108729887Y-149878997D01*
X108487195Y-149749276D01*
X108223860Y-149669394D01*
X108140500Y-149661184D01*
X108140500Y-141408629D01*
X108200392Y-141481608D01*
X108418899Y-141660932D01*
X108668192Y-141794182D01*
X108938691Y-141876236D01*
X109149508Y-141897000D01*
X109290492Y-141897000D01*
X109501309Y-141876236D01*
X109771808Y-141794182D01*
X110021101Y-141660932D01*
X110239608Y-141481608D01*
X110418932Y-141263101D01*
X110552182Y-141013808D01*
X110634236Y-140743309D01*
X110661943Y-140462000D01*
X110634236Y-140180691D01*
X110552182Y-139910192D01*
X110418932Y-139660899D01*
X110239608Y-139442392D01*
X110021101Y-139263068D01*
X109771808Y-139129818D01*
X109501309Y-139047764D01*
X109290492Y-139027000D01*
X109149508Y-139027000D01*
X108938691Y-139047764D01*
X108668192Y-139129818D01*
X108418899Y-139263068D01*
X108200392Y-139442392D01*
X108140500Y-139515371D01*
X108140500Y-138360629D01*
X108200392Y-138433608D01*
X108418899Y-138612932D01*
X108668192Y-138746182D01*
X108938691Y-138828236D01*
X109149508Y-138849000D01*
X109290492Y-138849000D01*
X109501309Y-138828236D01*
X109771808Y-138746182D01*
X110021101Y-138612932D01*
X110239608Y-138433608D01*
X110418932Y-138215101D01*
X110552182Y-137965808D01*
X110634236Y-137695309D01*
X110661943Y-137414000D01*
X110634236Y-137132691D01*
X110552182Y-136862192D01*
X110418932Y-136612899D01*
X110239608Y-136394392D01*
X110021101Y-136215068D01*
X109771808Y-136081818D01*
X109501309Y-135999764D01*
X109290492Y-135979000D01*
X109149508Y-135979000D01*
X108938691Y-135999764D01*
X108668192Y-136081818D01*
X108418899Y-136215068D01*
X108200392Y-136394392D01*
X108140500Y-136467371D01*
X108140500Y-100724538D01*
X112232373Y-96632665D01*
X113373000Y-96632665D01*
X113373000Y-96915335D01*
X113428147Y-97192574D01*
X113536320Y-97453727D01*
X113693363Y-97688759D01*
X113893241Y-97888637D01*
X114128273Y-98045680D01*
X114389426Y-98153853D01*
X114666665Y-98209000D01*
X114949335Y-98209000D01*
X115226574Y-98153853D01*
X115487727Y-98045680D01*
X115722759Y-97888637D01*
X115922637Y-97688759D01*
X116079680Y-97453727D01*
X116187853Y-97192574D01*
X116243000Y-96915335D01*
X116243000Y-96774000D01*
X117176057Y-96774000D01*
X117203764Y-97055309D01*
X117285818Y-97325808D01*
X117419068Y-97575101D01*
X117598392Y-97793608D01*
X117816899Y-97972932D01*
X118066192Y-98106182D01*
X118336691Y-98188236D01*
X118547508Y-98209000D01*
X118688492Y-98209000D01*
X118899309Y-98188236D01*
X119169808Y-98106182D01*
X119419101Y-97972932D01*
X119637608Y-97793608D01*
X119816932Y-97575101D01*
X119950182Y-97325808D01*
X120032236Y-97055309D01*
X120059943Y-96774000D01*
X120046023Y-96632665D01*
X124803000Y-96632665D01*
X124803000Y-96915335D01*
X124858147Y-97192574D01*
X124966320Y-97453727D01*
X125123363Y-97688759D01*
X125323241Y-97888637D01*
X125558273Y-98045680D01*
X125819426Y-98153853D01*
X126096665Y-98209000D01*
X126379335Y-98209000D01*
X126656574Y-98153853D01*
X126917727Y-98045680D01*
X127152759Y-97888637D01*
X127352637Y-97688759D01*
X127509680Y-97453727D01*
X127617853Y-97192574D01*
X127673000Y-96915335D01*
X127673000Y-96632665D01*
X127617853Y-96355426D01*
X127509680Y-96094273D01*
X127352637Y-95859241D01*
X127152759Y-95659363D01*
X126917727Y-95502320D01*
X126656574Y-95394147D01*
X126379335Y-95339000D01*
X126096665Y-95339000D01*
X125819426Y-95394147D01*
X125558273Y-95502320D01*
X125323241Y-95659363D01*
X125123363Y-95859241D01*
X124966320Y-96094273D01*
X124858147Y-96355426D01*
X124803000Y-96632665D01*
X120046023Y-96632665D01*
X120032236Y-96492691D01*
X119950182Y-96222192D01*
X119816932Y-95972899D01*
X119637608Y-95754392D01*
X119419101Y-95575068D01*
X119169808Y-95441818D01*
X118899309Y-95359764D01*
X118688492Y-95339000D01*
X118547508Y-95339000D01*
X118336691Y-95359764D01*
X118066192Y-95441818D01*
X117816899Y-95575068D01*
X117598392Y-95754392D01*
X117419068Y-95972899D01*
X117285818Y-96222192D01*
X117203764Y-96492691D01*
X117176057Y-96774000D01*
X116243000Y-96774000D01*
X116243000Y-96632665D01*
X116187853Y-96355426D01*
X116079680Y-96094273D01*
X115922637Y-95859241D01*
X115722759Y-95659363D01*
X115487727Y-95502320D01*
X115226574Y-95394147D01*
X114949335Y-95339000D01*
X114666665Y-95339000D01*
X114389426Y-95394147D01*
X114128273Y-95502320D01*
X113893241Y-95659363D01*
X113693363Y-95859241D01*
X113536320Y-96094273D01*
X113428147Y-96355426D01*
X113373000Y-96632665D01*
X112232373Y-96632665D01*
X112654431Y-96210607D01*
X112690778Y-96180778D01*
X112809806Y-96035741D01*
X112891257Y-95883356D01*
X112898252Y-95870270D01*
X112952717Y-95690722D01*
X112971108Y-95504000D01*
X112966500Y-95457215D01*
X112966500Y-93584665D01*
X113373000Y-93584665D01*
X113373000Y-93867335D01*
X113428147Y-94144574D01*
X113536320Y-94405727D01*
X113693363Y-94640759D01*
X113893241Y-94840637D01*
X114128273Y-94997680D01*
X114389426Y-95105853D01*
X114666665Y-95161000D01*
X114949335Y-95161000D01*
X115226574Y-95105853D01*
X115487727Y-94997680D01*
X115722759Y-94840637D01*
X115922637Y-94640759D01*
X116079680Y-94405727D01*
X116187853Y-94144574D01*
X116243000Y-93867335D01*
X116243000Y-93726000D01*
X117176057Y-93726000D01*
X117203764Y-94007309D01*
X117285818Y-94277808D01*
X117419068Y-94527101D01*
X117598392Y-94745608D01*
X117816899Y-94924932D01*
X118066192Y-95058182D01*
X118336691Y-95140236D01*
X118547508Y-95161000D01*
X118688492Y-95161000D01*
X118899309Y-95140236D01*
X119169808Y-95058182D01*
X119419101Y-94924932D01*
X119637608Y-94745608D01*
X119816932Y-94527101D01*
X119950182Y-94277808D01*
X120032236Y-94007309D01*
X120059943Y-93726000D01*
X120046023Y-93584665D01*
X124803000Y-93584665D01*
X124803000Y-93867335D01*
X124858147Y-94144574D01*
X124966320Y-94405727D01*
X125123363Y-94640759D01*
X125323241Y-94840637D01*
X125558273Y-94997680D01*
X125819426Y-95105853D01*
X126096665Y-95161000D01*
X126379335Y-95161000D01*
X126656574Y-95105853D01*
X126917727Y-94997680D01*
X127152759Y-94840637D01*
X127352637Y-94640759D01*
X127509680Y-94405727D01*
X127617853Y-94144574D01*
X127673000Y-93867335D01*
X127673000Y-93584665D01*
X127617853Y-93307426D01*
X127509680Y-93046273D01*
X127352637Y-92811241D01*
X127152759Y-92611363D01*
X126917727Y-92454320D01*
X126656574Y-92346147D01*
X126379335Y-92291000D01*
X126096665Y-92291000D01*
X125819426Y-92346147D01*
X125558273Y-92454320D01*
X125323241Y-92611363D01*
X125123363Y-92811241D01*
X124966320Y-93046273D01*
X124858147Y-93307426D01*
X124803000Y-93584665D01*
X120046023Y-93584665D01*
X120032236Y-93444691D01*
X119950182Y-93174192D01*
X119816932Y-92924899D01*
X119637608Y-92706392D01*
X119419101Y-92527068D01*
X119169808Y-92393818D01*
X118899309Y-92311764D01*
X118688492Y-92291000D01*
X118547508Y-92291000D01*
X118336691Y-92311764D01*
X118066192Y-92393818D01*
X117816899Y-92527068D01*
X117598392Y-92706392D01*
X117419068Y-92924899D01*
X117285818Y-93174192D01*
X117203764Y-93444691D01*
X117176057Y-93726000D01*
X116243000Y-93726000D01*
X116243000Y-93584665D01*
X116187853Y-93307426D01*
X116079680Y-93046273D01*
X115922637Y-92811241D01*
X115722759Y-92611363D01*
X115487727Y-92454320D01*
X115226574Y-92346147D01*
X114949335Y-92291000D01*
X114666665Y-92291000D01*
X114389426Y-92346147D01*
X114128273Y-92454320D01*
X113893241Y-92611363D01*
X113693363Y-92811241D01*
X113536320Y-93046273D01*
X113428147Y-93307426D01*
X113373000Y-93584665D01*
X112966500Y-93584665D01*
X112966500Y-91326538D01*
X113389708Y-90903330D01*
X113428147Y-91096574D01*
X113536320Y-91357727D01*
X113693363Y-91592759D01*
X113893241Y-91792637D01*
X114128273Y-91949680D01*
X114389426Y-92057853D01*
X114666665Y-92113000D01*
X114949335Y-92113000D01*
X115226574Y-92057853D01*
X115487727Y-91949680D01*
X115722759Y-91792637D01*
X115922637Y-91592759D01*
X116079680Y-91357727D01*
X116187853Y-91096574D01*
X116243000Y-90819335D01*
X116243000Y-90536665D01*
X116187853Y-90259426D01*
X116079680Y-89998273D01*
X115922637Y-89763241D01*
X115722759Y-89563363D01*
X115487727Y-89406320D01*
X115338480Y-89344500D01*
X118070537Y-89344500D01*
X118066192Y-89345818D01*
X117816899Y-89479068D01*
X117598392Y-89658392D01*
X117419068Y-89876899D01*
X117285818Y-90126192D01*
X117203764Y-90396691D01*
X117176057Y-90678000D01*
X117203764Y-90959309D01*
X117285818Y-91229808D01*
X117419068Y-91479101D01*
X117598392Y-91697608D01*
X117816899Y-91876932D01*
X118066192Y-92010182D01*
X118336691Y-92092236D01*
X118547508Y-92113000D01*
X118688492Y-92113000D01*
X118899309Y-92092236D01*
X119169808Y-92010182D01*
X119419101Y-91876932D01*
X119637608Y-91697608D01*
X119816932Y-91479101D01*
X119950182Y-91229808D01*
X120032236Y-90959309D01*
X120059943Y-90678000D01*
X120032236Y-90396691D01*
X119950182Y-90126192D01*
X119816932Y-89876899D01*
X119637608Y-89658392D01*
X119419101Y-89479068D01*
X119169808Y-89345818D01*
X119165463Y-89344500D01*
X125707520Y-89344500D01*
X125558273Y-89406320D01*
X125323241Y-89563363D01*
X125123363Y-89763241D01*
X124966320Y-89998273D01*
X124858147Y-90259426D01*
X124803000Y-90536665D01*
X124803000Y-90819335D01*
X124858147Y-91096574D01*
X124966320Y-91357727D01*
X125123363Y-91592759D01*
X125323241Y-91792637D01*
X125558273Y-91949680D01*
X125819426Y-92057853D01*
X126096665Y-92113000D01*
X126379335Y-92113000D01*
X126656574Y-92057853D01*
X126917727Y-91949680D01*
X127152759Y-91792637D01*
X127352637Y-91592759D01*
X127509680Y-91357727D01*
X127617853Y-91096574D01*
X127673000Y-90819335D01*
X127673000Y-90536665D01*
X127617853Y-90259426D01*
X127509680Y-89998273D01*
X127352637Y-89763241D01*
X127152759Y-89563363D01*
X126917727Y-89406320D01*
X126768480Y-89344500D01*
X127461215Y-89344500D01*
X127508000Y-89349108D01*
X127554785Y-89344500D01*
X127694723Y-89330717D01*
X127874269Y-89276252D01*
X128039741Y-89187806D01*
X128184778Y-89068778D01*
X128214607Y-89032431D01*
X129032001Y-88215038D01*
X129032000Y-96712370D01*
X126487649Y-99256721D01*
X126458579Y-99280578D01*
X126434722Y-99309648D01*
X126434721Y-99309649D01*
X126363355Y-99396608D01*
X126292599Y-99528985D01*
X126249027Y-99672622D01*
X126234314Y-99822000D01*
X126238001Y-99859433D01*
X126238001Y-105489760D01*
X126082637Y-105257241D01*
X125882759Y-105057363D01*
X125647727Y-104900320D01*
X125386574Y-104792147D01*
X125109335Y-104737000D01*
X124826665Y-104737000D01*
X124549426Y-104792147D01*
X124288273Y-104900320D01*
X124053241Y-105057363D01*
X123853363Y-105257241D01*
X123719308Y-105457869D01*
X123704671Y-105430486D01*
X123460702Y-105358903D01*
X122647605Y-106172000D01*
X123460702Y-106985097D01*
X123704671Y-106913514D01*
X123718324Y-106884659D01*
X123853363Y-107086759D01*
X124053241Y-107286637D01*
X124288273Y-107443680D01*
X124549426Y-107551853D01*
X124826665Y-107607000D01*
X125109335Y-107607000D01*
X125386574Y-107551853D01*
X125647727Y-107443680D01*
X125882759Y-107286637D01*
X126082637Y-107086759D01*
X126238001Y-106854241D01*
X126238000Y-114262577D01*
X126234314Y-114300000D01*
X126238000Y-114337423D01*
X126238000Y-114337425D01*
X126249026Y-114449377D01*
X126292598Y-114593014D01*
X126292599Y-114593015D01*
X126363355Y-114725392D01*
X126379037Y-114744500D01*
X126458578Y-114841422D01*
X126487654Y-114865284D01*
X126959039Y-115336669D01*
X126936057Y-115570000D01*
X126963764Y-115851309D01*
X127045818Y-116121808D01*
X127179068Y-116371101D01*
X127358392Y-116589608D01*
X127576899Y-116768932D01*
X127709858Y-116840000D01*
X127576899Y-116911068D01*
X127358392Y-117090392D01*
X127179068Y-117308899D01*
X127045818Y-117558192D01*
X126963764Y-117828691D01*
X126936057Y-118110000D01*
X126963764Y-118391309D01*
X127045818Y-118661808D01*
X127179068Y-118911101D01*
X127358392Y-119129608D01*
X127576899Y-119308932D01*
X127826192Y-119442182D01*
X128096691Y-119524236D01*
X128307508Y-119545000D01*
X129248492Y-119545000D01*
X129459309Y-119524236D01*
X129729808Y-119442182D01*
X129979101Y-119308932D01*
X130197608Y-119129608D01*
X130376932Y-118911101D01*
X130510182Y-118661808D01*
X130592236Y-118391309D01*
X130619943Y-118110000D01*
X130592236Y-117828691D01*
X130510182Y-117558192D01*
X130376932Y-117308899D01*
X130197608Y-117090392D01*
X129979101Y-116911068D01*
X129846142Y-116840000D01*
X129979101Y-116768932D01*
X130197608Y-116589608D01*
X130376932Y-116371101D01*
X130510182Y-116121808D01*
X130592236Y-115851309D01*
X130619943Y-115570000D01*
X130592236Y-115288691D01*
X130510182Y-115018192D01*
X130376932Y-114768899D01*
X130197608Y-114550392D01*
X129979101Y-114371068D01*
X129846142Y-114300000D01*
X129979101Y-114228932D01*
X130197608Y-114049608D01*
X130376932Y-113831101D01*
X130397832Y-113792000D01*
X130518577Y-113792000D01*
X130556000Y-113795686D01*
X130593423Y-113792000D01*
X130593426Y-113792000D01*
X130705378Y-113780974D01*
X130849015Y-113737402D01*
X130981392Y-113666645D01*
X131097422Y-113571422D01*
X131121284Y-113542346D01*
X132397501Y-112266129D01*
X132397500Y-119587215D01*
X132392892Y-119634000D01*
X132397500Y-119680784D01*
X132411283Y-119820722D01*
X132465748Y-120000268D01*
X132554194Y-120165741D01*
X132673222Y-120310778D01*
X132709569Y-120340607D01*
X134577657Y-122208696D01*
X134556057Y-122428000D01*
X134564566Y-122514395D01*
X132201569Y-124877393D01*
X132165222Y-124907222D01*
X132046194Y-125052259D01*
X131957748Y-125217732D01*
X131912700Y-125366236D01*
X131903283Y-125397278D01*
X131884892Y-125584000D01*
X131889500Y-125630785D01*
X131889501Y-145401461D01*
X128891462Y-148399500D01*
X117683755Y-148399500D01*
X117636970Y-148394892D01*
X117590185Y-148399500D01*
X117450247Y-148413283D01*
X117270701Y-148467748D01*
X117105229Y-148556194D01*
X116960192Y-148675222D01*
X116930368Y-148711563D01*
X115210432Y-150431500D01*
X114430072Y-150431500D01*
X114430072Y-150284180D01*
X114417812Y-150159698D01*
X114381502Y-150040000D01*
X114322537Y-149929686D01*
X114243185Y-149832995D01*
X114146494Y-149753643D01*
X114036180Y-149694678D01*
X113982500Y-149678394D01*
X113982500Y-145180000D01*
X117887928Y-145180000D01*
X117900188Y-145304482D01*
X117935230Y-145420000D01*
X117900188Y-145535518D01*
X117887928Y-145660000D01*
X117887928Y-146460000D01*
X117900188Y-146584482D01*
X117936498Y-146704180D01*
X117995463Y-146814494D01*
X118074815Y-146911185D01*
X118171506Y-146990537D01*
X118281820Y-147049502D01*
X118401518Y-147085812D01*
X118526000Y-147098072D01*
X119826000Y-147098072D01*
X119950482Y-147085812D01*
X120070180Y-147049502D01*
X120180494Y-146990537D01*
X120277185Y-146911185D01*
X120356537Y-146814494D01*
X120415502Y-146704180D01*
X120451812Y-146584482D01*
X120464072Y-146460000D01*
X120464072Y-145660000D01*
X120451812Y-145535518D01*
X120416770Y-145420000D01*
X120451812Y-145304482D01*
X120464072Y-145180000D01*
X120461000Y-145065750D01*
X120302250Y-144907000D01*
X119303000Y-144907000D01*
X119303000Y-144927000D01*
X119049000Y-144927000D01*
X119049000Y-144907000D01*
X118049750Y-144907000D01*
X117891000Y-145065750D01*
X117887928Y-145180000D01*
X113982500Y-145180000D01*
X113982500Y-144666538D01*
X116079902Y-142569136D01*
X116150301Y-142700842D01*
X116203370Y-142765506D01*
X116253460Y-142826541D01*
X116284961Y-142852393D01*
X117507606Y-144075039D01*
X117533459Y-144106541D01*
X117659158Y-144209699D01*
X117802566Y-144286353D01*
X117894407Y-144314213D01*
X117887928Y-144380000D01*
X117891000Y-144494250D01*
X118049750Y-144653000D01*
X119049000Y-144653000D01*
X119049000Y-144633000D01*
X119303000Y-144633000D01*
X119303000Y-144653000D01*
X120302250Y-144653000D01*
X120336909Y-144618341D01*
X123339607Y-147621039D01*
X123365459Y-147652541D01*
X123429596Y-147705177D01*
X123491157Y-147755699D01*
X123541111Y-147782399D01*
X123634566Y-147832353D01*
X123790174Y-147879556D01*
X123911447Y-147891500D01*
X123911449Y-147891500D01*
X123951999Y-147895494D01*
X123992550Y-147891500D01*
X126182352Y-147891500D01*
X126222902Y-147895494D01*
X126263452Y-147891500D01*
X126263455Y-147891500D01*
X126384728Y-147879556D01*
X126540336Y-147832353D01*
X126683744Y-147755699D01*
X126809443Y-147652541D01*
X126835299Y-147621035D01*
X127525557Y-146930779D01*
X127557052Y-146904932D01*
X127582900Y-146873436D01*
X127582903Y-146873433D01*
X127660210Y-146779234D01*
X127736864Y-146635825D01*
X127750217Y-146591806D01*
X127753206Y-146581952D01*
X127973486Y-146670650D01*
X128251000Y-146723000D01*
X128651000Y-146723000D01*
X128651000Y-145415000D01*
X128905000Y-145415000D01*
X128905000Y-146723000D01*
X129305000Y-146723000D01*
X129582514Y-146670650D01*
X129844483Y-146565166D01*
X130080839Y-146410601D01*
X130282500Y-146212895D01*
X130441715Y-145979646D01*
X130552367Y-145719818D01*
X130569904Y-145637039D01*
X130447915Y-145415000D01*
X128905000Y-145415000D01*
X128651000Y-145415000D01*
X128631000Y-145415000D01*
X128631000Y-145161000D01*
X128651000Y-145161000D01*
X128651000Y-145141000D01*
X128905000Y-145141000D01*
X128905000Y-145161000D01*
X130447915Y-145161000D01*
X130569904Y-144938961D01*
X130552367Y-144856182D01*
X130441715Y-144596354D01*
X130282500Y-144363105D01*
X130080839Y-144165399D01*
X129851259Y-144015265D01*
X129979101Y-143946932D01*
X130197608Y-143767608D01*
X130376932Y-143549101D01*
X130510182Y-143299808D01*
X130592236Y-143029309D01*
X130619943Y-142748000D01*
X130592236Y-142466691D01*
X130510182Y-142196192D01*
X130376932Y-141946899D01*
X130197608Y-141728392D01*
X129979101Y-141549068D01*
X129846142Y-141478000D01*
X129979101Y-141406932D01*
X130197608Y-141227608D01*
X130376932Y-141009101D01*
X130510182Y-140759808D01*
X130592236Y-140489309D01*
X130619943Y-140208000D01*
X130592236Y-139926691D01*
X130510182Y-139656192D01*
X130376932Y-139406899D01*
X130197608Y-139188392D01*
X129979101Y-139009068D01*
X129846142Y-138938000D01*
X129979101Y-138866932D01*
X130197608Y-138687608D01*
X130376932Y-138469101D01*
X130510182Y-138219808D01*
X130592236Y-137949309D01*
X130619943Y-137668000D01*
X130592236Y-137386691D01*
X130510182Y-137116192D01*
X130376932Y-136866899D01*
X130197608Y-136648392D01*
X129979101Y-136469068D01*
X129846142Y-136398000D01*
X129979101Y-136326932D01*
X130197608Y-136147608D01*
X130376932Y-135929101D01*
X130510182Y-135679808D01*
X130592236Y-135409309D01*
X130619943Y-135128000D01*
X130592236Y-134846691D01*
X130510182Y-134576192D01*
X130376932Y-134326899D01*
X130197608Y-134108392D01*
X129979101Y-133929068D01*
X129846142Y-133858000D01*
X129979101Y-133786932D01*
X130197608Y-133607608D01*
X130376932Y-133389101D01*
X130510182Y-133139808D01*
X130592236Y-132869309D01*
X130619943Y-132588000D01*
X130592236Y-132306691D01*
X130510182Y-132036192D01*
X130376932Y-131786899D01*
X130197608Y-131568392D01*
X129979101Y-131389068D01*
X129846142Y-131318000D01*
X129979101Y-131246932D01*
X130197608Y-131067608D01*
X130376932Y-130849101D01*
X130510182Y-130599808D01*
X130592236Y-130329309D01*
X130619943Y-130048000D01*
X130592236Y-129766691D01*
X130510182Y-129496192D01*
X130376932Y-129246899D01*
X130197608Y-129028392D01*
X129979101Y-128849068D01*
X129846142Y-128778000D01*
X129979101Y-128706932D01*
X130197608Y-128527608D01*
X130376932Y-128309101D01*
X130510182Y-128059808D01*
X130592236Y-127789309D01*
X130619943Y-127508000D01*
X130592236Y-127226691D01*
X130510182Y-126956192D01*
X130376932Y-126706899D01*
X130197608Y-126488392D01*
X129979101Y-126309068D01*
X129846142Y-126238000D01*
X129979101Y-126166932D01*
X130197608Y-125987608D01*
X130376932Y-125769101D01*
X130510182Y-125519808D01*
X130592236Y-125249309D01*
X130619943Y-124968000D01*
X130592236Y-124686691D01*
X130510182Y-124416192D01*
X130376932Y-124166899D01*
X130197608Y-123948392D01*
X130084518Y-123855581D01*
X130102482Y-123853812D01*
X130222180Y-123817502D01*
X130332494Y-123758537D01*
X130429185Y-123679185D01*
X130508537Y-123582494D01*
X130567502Y-123472180D01*
X130603812Y-123352482D01*
X130616072Y-123228000D01*
X130613000Y-122713750D01*
X130454250Y-122555000D01*
X128905000Y-122555000D01*
X128905000Y-122575000D01*
X128651000Y-122575000D01*
X128651000Y-122555000D01*
X127101750Y-122555000D01*
X126943000Y-122713750D01*
X126939928Y-123228000D01*
X126952188Y-123352482D01*
X126988498Y-123472180D01*
X127047463Y-123582494D01*
X127126815Y-123679185D01*
X127223506Y-123758537D01*
X127333820Y-123817502D01*
X127453518Y-123853812D01*
X127471482Y-123855581D01*
X127358392Y-123948392D01*
X127179068Y-124166899D01*
X127045818Y-124416192D01*
X126963764Y-124686691D01*
X126936057Y-124968000D01*
X126963764Y-125249309D01*
X127045818Y-125519808D01*
X127179068Y-125769101D01*
X127358392Y-125987608D01*
X127576899Y-126166932D01*
X127709858Y-126238000D01*
X127576899Y-126309068D01*
X127358392Y-126488392D01*
X127179068Y-126706899D01*
X127045818Y-126956192D01*
X126963764Y-127226691D01*
X126936057Y-127508000D01*
X126963764Y-127789309D01*
X127045818Y-128059808D01*
X127179068Y-128309101D01*
X127358392Y-128527608D01*
X127576899Y-128706932D01*
X127709858Y-128778000D01*
X127576899Y-128849068D01*
X127358392Y-129028392D01*
X127179068Y-129246899D01*
X127045818Y-129496192D01*
X126963764Y-129766691D01*
X126955368Y-129851935D01*
X123842056Y-126738624D01*
X123863000Y-126633335D01*
X123863000Y-126350665D01*
X123807853Y-126073426D01*
X123699680Y-125812273D01*
X123542637Y-125577241D01*
X123342759Y-125377363D01*
X123107727Y-125220320D01*
X122846574Y-125112147D01*
X122569335Y-125057000D01*
X122286665Y-125057000D01*
X122181377Y-125077943D01*
X121475500Y-124372068D01*
X121475500Y-122457847D01*
X121538630Y-122520977D01*
X121654903Y-122404704D01*
X121726486Y-122648671D01*
X121981996Y-122769571D01*
X122256184Y-122838300D01*
X122538512Y-122852217D01*
X122818130Y-122810787D01*
X123084292Y-122715603D01*
X123209514Y-122648671D01*
X123281097Y-122404702D01*
X122468000Y-121591605D01*
X122453858Y-121605748D01*
X122274253Y-121426143D01*
X122288395Y-121412000D01*
X122647605Y-121412000D01*
X123460702Y-122225097D01*
X123704671Y-122153514D01*
X123718324Y-122124659D01*
X123853363Y-122326759D01*
X124053241Y-122526637D01*
X124288273Y-122683680D01*
X124549426Y-122791853D01*
X124826665Y-122847000D01*
X125109335Y-122847000D01*
X125386574Y-122791853D01*
X125647727Y-122683680D01*
X125882759Y-122526637D01*
X126082637Y-122326759D01*
X126239680Y-122091727D01*
X126347853Y-121830574D01*
X126388148Y-121628000D01*
X126939928Y-121628000D01*
X126943000Y-122142250D01*
X127101750Y-122301000D01*
X128651000Y-122301000D01*
X128651000Y-121151750D01*
X128905000Y-121151750D01*
X128905000Y-122301000D01*
X130454250Y-122301000D01*
X130613000Y-122142250D01*
X130616072Y-121628000D01*
X130603812Y-121503518D01*
X130567502Y-121383820D01*
X130508537Y-121273506D01*
X130429185Y-121176815D01*
X130332494Y-121097463D01*
X130222180Y-121038498D01*
X130102482Y-121002188D01*
X129978000Y-120989928D01*
X129063750Y-120993000D01*
X128905000Y-121151750D01*
X128651000Y-121151750D01*
X128492250Y-120993000D01*
X127578000Y-120989928D01*
X127453518Y-121002188D01*
X127333820Y-121038498D01*
X127223506Y-121097463D01*
X127126815Y-121176815D01*
X127047463Y-121273506D01*
X126988498Y-121383820D01*
X126952188Y-121503518D01*
X126939928Y-121628000D01*
X126388148Y-121628000D01*
X126403000Y-121553335D01*
X126403000Y-121270665D01*
X126347853Y-120993426D01*
X126239680Y-120732273D01*
X126082637Y-120497241D01*
X125882759Y-120297363D01*
X125647727Y-120140320D01*
X125386574Y-120032147D01*
X125109335Y-119977000D01*
X124826665Y-119977000D01*
X124549426Y-120032147D01*
X124288273Y-120140320D01*
X124053241Y-120297363D01*
X123853363Y-120497241D01*
X123719308Y-120697869D01*
X123704671Y-120670486D01*
X123460702Y-120598903D01*
X122647605Y-121412000D01*
X122288395Y-121412000D01*
X122274253Y-121397858D01*
X122453858Y-121218253D01*
X122468000Y-121232395D01*
X123281097Y-120419298D01*
X123209514Y-120175329D01*
X122954004Y-120054429D01*
X122679816Y-119985700D01*
X122397488Y-119971783D01*
X122117870Y-120013213D01*
X121851708Y-120108397D01*
X121726486Y-120175329D01*
X121654903Y-120419296D01*
X121538630Y-120303023D01*
X121466777Y-120374876D01*
X121463556Y-120342174D01*
X121416353Y-120186566D01*
X121391634Y-120140320D01*
X121339699Y-120043157D01*
X121262392Y-119948958D01*
X121262389Y-119948955D01*
X121236541Y-119917459D01*
X121205045Y-119891611D01*
X120435330Y-119121897D01*
X120459943Y-118872000D01*
X120432236Y-118590691D01*
X120350182Y-118320192D01*
X120216932Y-118070899D01*
X120037608Y-117852392D01*
X119819101Y-117673068D01*
X119691259Y-117604735D01*
X119920839Y-117454601D01*
X120122500Y-117256895D01*
X120281715Y-117023646D01*
X120392367Y-116763818D01*
X120409904Y-116681039D01*
X120287915Y-116459000D01*
X118745000Y-116459000D01*
X118745000Y-116479000D01*
X118491000Y-116479000D01*
X118491000Y-116459000D01*
X118471000Y-116459000D01*
X118471000Y-116205000D01*
X118491000Y-116205000D01*
X118491000Y-116185000D01*
X118745000Y-116185000D01*
X118745000Y-116205000D01*
X120287915Y-116205000D01*
X120391978Y-116015589D01*
X122313000Y-116015589D01*
X122313000Y-116288411D01*
X122366225Y-116555989D01*
X122470629Y-116808043D01*
X122622201Y-117034886D01*
X122815114Y-117227799D01*
X123041957Y-117379371D01*
X123294011Y-117483775D01*
X123561589Y-117537000D01*
X123834411Y-117537000D01*
X124101989Y-117483775D01*
X124354043Y-117379371D01*
X124580886Y-117227799D01*
X124773799Y-117034886D01*
X124925371Y-116808043D01*
X125029775Y-116555989D01*
X125083000Y-116288411D01*
X125083000Y-116015589D01*
X125029775Y-115748011D01*
X124925371Y-115495957D01*
X124773799Y-115269114D01*
X124580886Y-115076201D01*
X124354043Y-114924629D01*
X124101989Y-114820225D01*
X123834411Y-114767000D01*
X123561589Y-114767000D01*
X123294011Y-114820225D01*
X123041957Y-114924629D01*
X122815114Y-115076201D01*
X122622201Y-115269114D01*
X122470629Y-115495957D01*
X122366225Y-115748011D01*
X122313000Y-116015589D01*
X120391978Y-116015589D01*
X120409904Y-115982961D01*
X120392367Y-115900182D01*
X120281715Y-115640354D01*
X120122500Y-115407105D01*
X119920839Y-115209399D01*
X119691259Y-115059265D01*
X119819101Y-114990932D01*
X120037608Y-114811608D01*
X120216932Y-114593101D01*
X120350182Y-114343808D01*
X120432236Y-114073309D01*
X120459943Y-113792000D01*
X120432236Y-113510691D01*
X120350182Y-113240192D01*
X120216932Y-112990899D01*
X120037608Y-112772392D01*
X119819101Y-112593068D01*
X119686142Y-112522000D01*
X119819101Y-112450932D01*
X120037608Y-112271608D01*
X120216932Y-112053101D01*
X120350182Y-111803808D01*
X120432236Y-111533309D01*
X120459943Y-111252000D01*
X120446508Y-111115589D01*
X122313000Y-111115589D01*
X122313000Y-111388411D01*
X122366225Y-111655989D01*
X122470629Y-111908043D01*
X122622201Y-112134886D01*
X122815114Y-112327799D01*
X123041957Y-112479371D01*
X123294011Y-112583775D01*
X123561589Y-112637000D01*
X123834411Y-112637000D01*
X124101989Y-112583775D01*
X124354043Y-112479371D01*
X124580886Y-112327799D01*
X124773799Y-112134886D01*
X124925371Y-111908043D01*
X125029775Y-111655989D01*
X125083000Y-111388411D01*
X125083000Y-111115589D01*
X125029775Y-110848011D01*
X124925371Y-110595957D01*
X124773799Y-110369114D01*
X124580886Y-110176201D01*
X124354043Y-110024629D01*
X124101989Y-109920225D01*
X123834411Y-109867000D01*
X123561589Y-109867000D01*
X123294011Y-109920225D01*
X123041957Y-110024629D01*
X122815114Y-110176201D01*
X122622201Y-110369114D01*
X122470629Y-110595957D01*
X122366225Y-110848011D01*
X122313000Y-111115589D01*
X120446508Y-111115589D01*
X120432236Y-110970691D01*
X120350182Y-110700192D01*
X120216932Y-110450899D01*
X120037608Y-110232392D01*
X119819101Y-110053068D01*
X119686142Y-109982000D01*
X119819101Y-109910932D01*
X120037608Y-109731608D01*
X120216932Y-109513101D01*
X120350182Y-109263808D01*
X120432236Y-108993309D01*
X120459943Y-108712000D01*
X120432236Y-108430691D01*
X120350182Y-108160192D01*
X120216932Y-107910899D01*
X120037608Y-107692392D01*
X119819101Y-107513068D01*
X119686142Y-107442000D01*
X119819101Y-107370932D01*
X120037608Y-107191608D01*
X120059689Y-107164702D01*
X121654903Y-107164702D01*
X121726486Y-107408671D01*
X121981996Y-107529571D01*
X122256184Y-107598300D01*
X122538512Y-107612217D01*
X122818130Y-107570787D01*
X123084292Y-107475603D01*
X123209514Y-107408671D01*
X123281097Y-107164702D01*
X122468000Y-106351605D01*
X121654903Y-107164702D01*
X120059689Y-107164702D01*
X120216932Y-106973101D01*
X120350182Y-106723808D01*
X120432236Y-106453309D01*
X120452998Y-106242512D01*
X121027783Y-106242512D01*
X121069213Y-106522130D01*
X121164397Y-106788292D01*
X121231329Y-106913514D01*
X121475298Y-106985097D01*
X122288395Y-106172000D01*
X121475298Y-105358903D01*
X121231329Y-105430486D01*
X121110429Y-105685996D01*
X121041700Y-105960184D01*
X121027783Y-106242512D01*
X120452998Y-106242512D01*
X120459943Y-106172000D01*
X120432236Y-105890691D01*
X120350182Y-105620192D01*
X120216932Y-105370899D01*
X120059690Y-105179298D01*
X121654903Y-105179298D01*
X122468000Y-105992395D01*
X123281097Y-105179298D01*
X123209514Y-104935329D01*
X122954004Y-104814429D01*
X122679816Y-104745700D01*
X122397488Y-104731783D01*
X122117870Y-104773213D01*
X121851708Y-104868397D01*
X121726486Y-104935329D01*
X121654903Y-105179298D01*
X120059690Y-105179298D01*
X120037608Y-105152392D01*
X119819101Y-104973068D01*
X119686142Y-104902000D01*
X119819101Y-104830932D01*
X120037608Y-104651608D01*
X120216932Y-104433101D01*
X120350182Y-104183808D01*
X120432236Y-103913309D01*
X120459943Y-103632000D01*
X120432236Y-103350691D01*
X120350182Y-103080192D01*
X120216932Y-102830899D01*
X120037608Y-102612392D01*
X119819101Y-102433068D01*
X119686142Y-102362000D01*
X119819101Y-102290932D01*
X120037608Y-102111608D01*
X120216932Y-101893101D01*
X120350182Y-101643808D01*
X120432236Y-101373309D01*
X120459943Y-101092000D01*
X120432236Y-100810691D01*
X120350182Y-100540192D01*
X120216932Y-100290899D01*
X120037608Y-100072392D01*
X119819101Y-99893068D01*
X119569808Y-99759818D01*
X119299309Y-99677764D01*
X119088492Y-99657000D01*
X118147508Y-99657000D01*
X117936691Y-99677764D01*
X117666192Y-99759818D01*
X117416899Y-99893068D01*
X117198392Y-100072392D01*
X117019068Y-100290899D01*
X116885818Y-100540192D01*
X116803764Y-100810691D01*
X116776057Y-101092000D01*
X116803764Y-101373309D01*
X116885818Y-101643808D01*
X117019068Y-101893101D01*
X117198392Y-102111608D01*
X117416899Y-102290932D01*
X117549858Y-102362000D01*
X117416899Y-102433068D01*
X117198392Y-102612392D01*
X117019068Y-102830899D01*
X116885818Y-103080192D01*
X116803764Y-103350691D01*
X116776057Y-103632000D01*
X116803764Y-103913309D01*
X116885818Y-104183808D01*
X117019068Y-104433101D01*
X117198392Y-104651608D01*
X117416899Y-104830932D01*
X117549858Y-104902000D01*
X117416899Y-104973068D01*
X117198392Y-105152392D01*
X117019068Y-105370899D01*
X116885818Y-105620192D01*
X116803764Y-105890691D01*
X116776057Y-106172000D01*
X116803764Y-106453309D01*
X116885818Y-106723808D01*
X117019068Y-106973101D01*
X117198392Y-107191608D01*
X117416899Y-107370932D01*
X117549858Y-107442000D01*
X117416899Y-107513068D01*
X117198392Y-107692392D01*
X117019068Y-107910899D01*
X116885818Y-108160192D01*
X116803764Y-108430691D01*
X116776057Y-108712000D01*
X116803764Y-108993309D01*
X116885818Y-109263808D01*
X117019068Y-109513101D01*
X117198392Y-109731608D01*
X117416899Y-109910932D01*
X117549858Y-109982000D01*
X117416899Y-110053068D01*
X117198392Y-110232392D01*
X117019068Y-110450899D01*
X116885818Y-110700192D01*
X116803764Y-110970691D01*
X116776057Y-111252000D01*
X116803764Y-111533309D01*
X116885818Y-111803808D01*
X117019068Y-112053101D01*
X117198392Y-112271608D01*
X117416899Y-112450932D01*
X117549858Y-112522000D01*
X117416899Y-112593068D01*
X117198392Y-112772392D01*
X117019068Y-112990899D01*
X116885818Y-113240192D01*
X116803764Y-113510691D01*
X116776057Y-113792000D01*
X116803764Y-114073309D01*
X116885818Y-114343808D01*
X117019068Y-114593101D01*
X117198392Y-114811608D01*
X117416899Y-114990932D01*
X117544741Y-115059265D01*
X117315161Y-115209399D01*
X117113500Y-115407105D01*
X116954285Y-115640354D01*
X116843633Y-115900182D01*
X116826096Y-115982961D01*
X116948084Y-116204998D01*
X116898037Y-116204998D01*
X113844607Y-113151569D01*
X113814778Y-113115222D01*
X113669741Y-112996194D01*
X113504269Y-112907748D01*
X113324723Y-112853283D01*
X113184785Y-112839500D01*
X113138000Y-112834892D01*
X113091215Y-112839500D01*
X112472682Y-112839500D01*
X112417608Y-112772392D01*
X112199101Y-112593068D01*
X112066142Y-112522000D01*
X112199101Y-112450932D01*
X112417608Y-112271608D01*
X112596932Y-112053101D01*
X112730182Y-111803808D01*
X112812236Y-111533309D01*
X112839943Y-111252000D01*
X112812236Y-110970691D01*
X112730182Y-110700192D01*
X112596932Y-110450899D01*
X112417608Y-110232392D01*
X112199101Y-110053068D01*
X112066142Y-109982000D01*
X112199101Y-109910932D01*
X112417608Y-109731608D01*
X112596932Y-109513101D01*
X112730182Y-109263808D01*
X112812236Y-108993309D01*
X112839943Y-108712000D01*
X112812236Y-108430691D01*
X112730182Y-108160192D01*
X112596932Y-107910899D01*
X112417608Y-107692392D01*
X112199101Y-107513068D01*
X112066142Y-107442000D01*
X112199101Y-107370932D01*
X112417608Y-107191608D01*
X112596932Y-106973101D01*
X112730182Y-106723808D01*
X112812236Y-106453309D01*
X112839943Y-106172000D01*
X112812236Y-105890691D01*
X112730182Y-105620192D01*
X112596932Y-105370899D01*
X112417608Y-105152392D01*
X112199101Y-104973068D01*
X112066142Y-104902000D01*
X112199101Y-104830932D01*
X112417608Y-104651608D01*
X112596932Y-104433101D01*
X112730182Y-104183808D01*
X112812236Y-103913309D01*
X112839943Y-103632000D01*
X112812236Y-103350691D01*
X112730182Y-103080192D01*
X112596932Y-102830899D01*
X112417608Y-102612392D01*
X112199101Y-102433068D01*
X112066142Y-102362000D01*
X112199101Y-102290932D01*
X112417608Y-102111608D01*
X112596932Y-101893101D01*
X112730182Y-101643808D01*
X112812236Y-101373309D01*
X112839943Y-101092000D01*
X112812236Y-100810691D01*
X112730182Y-100540192D01*
X112596932Y-100290899D01*
X112417608Y-100072392D01*
X112199101Y-99893068D01*
X111949808Y-99759818D01*
X111679309Y-99677764D01*
X111468492Y-99657000D01*
X110527508Y-99657000D01*
X110316691Y-99677764D01*
X110046192Y-99759818D01*
X109796899Y-99893068D01*
X109578392Y-100072392D01*
X109399068Y-100290899D01*
X109265818Y-100540192D01*
X109183764Y-100810691D01*
X109156057Y-101092000D01*
X109183764Y-101373309D01*
X109265818Y-101643808D01*
X109399068Y-101893101D01*
X109578392Y-102111608D01*
X109796899Y-102290932D01*
X109929858Y-102362000D01*
X109796899Y-102433068D01*
X109578392Y-102612392D01*
X109399068Y-102830899D01*
X109265818Y-103080192D01*
X109183764Y-103350691D01*
X109156057Y-103632000D01*
X109183764Y-103913309D01*
X109265818Y-104183808D01*
X109399068Y-104433101D01*
X109578392Y-104651608D01*
X109796899Y-104830932D01*
X109929858Y-104902000D01*
X109796899Y-104973068D01*
X109578392Y-105152392D01*
X109399068Y-105370899D01*
X109265818Y-105620192D01*
X109183764Y-105890691D01*
X109156057Y-106172000D01*
X109183764Y-106453309D01*
X109265818Y-106723808D01*
X109399068Y-106973101D01*
X109578392Y-107191608D01*
X109796899Y-107370932D01*
X109929858Y-107442000D01*
X109796899Y-107513068D01*
X109578392Y-107692392D01*
X109399068Y-107910899D01*
X109265818Y-108160192D01*
X109183764Y-108430691D01*
X109156057Y-108712000D01*
X109183764Y-108993309D01*
X109265818Y-109263808D01*
X109399068Y-109513101D01*
X109578392Y-109731608D01*
X109796899Y-109910932D01*
X109929858Y-109982000D01*
X109796899Y-110053068D01*
X109578392Y-110232392D01*
X109399068Y-110450899D01*
X109265818Y-110700192D01*
X109183764Y-110970691D01*
X109156057Y-111252000D01*
X109183764Y-111533309D01*
X109265818Y-111803808D01*
X109399068Y-112053101D01*
X109578392Y-112271608D01*
X109796899Y-112450932D01*
X109929858Y-112522000D01*
X109796899Y-112593068D01*
X109578392Y-112772392D01*
X109399068Y-112990899D01*
X109265818Y-113240192D01*
X109183764Y-113510691D01*
X109156057Y-113792000D01*
X109183764Y-114073309D01*
X109265818Y-114343808D01*
X109399068Y-114593101D01*
X109578392Y-114811608D01*
X109796899Y-114990932D01*
X109929858Y-115062000D01*
X109796899Y-115133068D01*
X109578392Y-115312392D01*
X109399068Y-115530899D01*
X109265818Y-115780192D01*
X109183764Y-116050691D01*
X109156057Y-116332000D01*
X109183764Y-116613309D01*
X109265818Y-116883808D01*
X109399068Y-117133101D01*
X109578392Y-117351608D01*
X109796899Y-117530932D01*
X109924741Y-117599265D01*
X109695161Y-117749399D01*
X109493500Y-117947105D01*
X109334285Y-118180354D01*
X109223633Y-118440182D01*
X109206096Y-118522961D01*
X109328085Y-118745000D01*
X110871000Y-118745000D01*
X110871000Y-118725000D01*
X111125000Y-118725000D01*
X111125000Y-118745000D01*
X112667915Y-118745000D01*
X112789904Y-118522961D01*
X112772367Y-118440182D01*
X112661715Y-118180354D01*
X112502500Y-117947105D01*
X112300839Y-117749399D01*
X112071259Y-117599265D01*
X112199101Y-117530932D01*
X112417608Y-117351608D01*
X112596932Y-117133101D01*
X112730182Y-116883808D01*
X112812236Y-116613309D01*
X112839943Y-116332000D01*
X112812236Y-116050691D01*
X112730182Y-115780192D01*
X112596932Y-115530899D01*
X112417608Y-115312392D01*
X112199101Y-115133068D01*
X112066142Y-115062000D01*
X112199101Y-114990932D01*
X112417608Y-114811608D01*
X112472682Y-114744500D01*
X112743462Y-114744500D01*
X116784566Y-118785605D01*
X116776057Y-118872000D01*
X116803764Y-119153309D01*
X116885818Y-119423808D01*
X117019068Y-119673101D01*
X117198392Y-119891608D01*
X117416899Y-120070932D01*
X117549858Y-120142000D01*
X117416899Y-120213068D01*
X117198392Y-120392392D01*
X117019068Y-120610899D01*
X116885818Y-120860192D01*
X116803764Y-121130691D01*
X116776057Y-121412000D01*
X116803764Y-121693309D01*
X116885818Y-121963808D01*
X117019068Y-122213101D01*
X117198392Y-122431608D01*
X117416899Y-122610932D01*
X117549858Y-122682000D01*
X117416899Y-122753068D01*
X117198392Y-122932392D01*
X117019068Y-123150899D01*
X116885818Y-123400192D01*
X116803764Y-123670691D01*
X116776057Y-123952000D01*
X116803764Y-124233309D01*
X116885818Y-124503808D01*
X117019068Y-124753101D01*
X117198392Y-124971608D01*
X117416899Y-125150932D01*
X117549858Y-125222000D01*
X117416899Y-125293068D01*
X117198392Y-125472392D01*
X117019068Y-125690899D01*
X116885818Y-125940192D01*
X116803764Y-126210691D01*
X116776057Y-126492000D01*
X116803764Y-126773309D01*
X116885818Y-127043808D01*
X117019068Y-127293101D01*
X117198392Y-127511608D01*
X117416899Y-127690932D01*
X117549858Y-127762000D01*
X117416899Y-127833068D01*
X117198392Y-128012392D01*
X117019068Y-128230899D01*
X116885818Y-128480192D01*
X116803764Y-128750691D01*
X116776057Y-129032000D01*
X116803764Y-129313309D01*
X116885818Y-129583808D01*
X117019068Y-129833101D01*
X117198392Y-130051608D01*
X117416899Y-130230932D01*
X117549858Y-130302000D01*
X117416899Y-130373068D01*
X117198392Y-130552392D01*
X117019068Y-130770899D01*
X116885818Y-131020192D01*
X116803764Y-131290691D01*
X116776057Y-131572000D01*
X116803764Y-131853309D01*
X116885818Y-132123808D01*
X117019068Y-132373101D01*
X117198392Y-132591608D01*
X117311482Y-132684419D01*
X117293518Y-132686188D01*
X117173820Y-132722498D01*
X117063506Y-132781463D01*
X116966815Y-132860815D01*
X116887463Y-132957506D01*
X116828498Y-133067820D01*
X116792188Y-133187518D01*
X116779928Y-133312000D01*
X116779928Y-133966269D01*
X113873312Y-131059654D01*
X113849450Y-131030578D01*
X113733420Y-130935355D01*
X113601043Y-130864598D01*
X113457406Y-130821026D01*
X113345454Y-130810000D01*
X113345451Y-130810000D01*
X113308028Y-130806314D01*
X113270605Y-130810000D01*
X112617832Y-130810000D01*
X112596932Y-130770899D01*
X112417608Y-130552392D01*
X112199101Y-130373068D01*
X112066142Y-130302000D01*
X112199101Y-130230932D01*
X112417608Y-130051608D01*
X112596932Y-129833101D01*
X112730182Y-129583808D01*
X112812236Y-129313309D01*
X112839943Y-129032000D01*
X112812236Y-128750691D01*
X112730182Y-128480192D01*
X112596932Y-128230899D01*
X112417608Y-128012392D01*
X112199101Y-127833068D01*
X112066142Y-127762000D01*
X112199101Y-127690932D01*
X112417608Y-127511608D01*
X112596932Y-127293101D01*
X112730182Y-127043808D01*
X112812236Y-126773309D01*
X112839943Y-126492000D01*
X112812236Y-126210691D01*
X112730182Y-125940192D01*
X112596932Y-125690899D01*
X112417608Y-125472392D01*
X112199101Y-125293068D01*
X112066142Y-125222000D01*
X112199101Y-125150932D01*
X112417608Y-124971608D01*
X112596932Y-124753101D01*
X112730182Y-124503808D01*
X112812236Y-124233309D01*
X112839943Y-123952000D01*
X112812236Y-123670691D01*
X112730182Y-123400192D01*
X112596932Y-123150899D01*
X112417608Y-122932392D01*
X112199101Y-122753068D01*
X112066142Y-122682000D01*
X112199101Y-122610932D01*
X112417608Y-122431608D01*
X112596932Y-122213101D01*
X112730182Y-121963808D01*
X112812236Y-121693309D01*
X112839943Y-121412000D01*
X112812236Y-121130691D01*
X112730182Y-120860192D01*
X112596932Y-120610899D01*
X112417608Y-120392392D01*
X112199101Y-120213068D01*
X112071259Y-120144735D01*
X112300839Y-119994601D01*
X112502500Y-119796895D01*
X112661715Y-119563646D01*
X112772367Y-119303818D01*
X112789904Y-119221039D01*
X112667915Y-118999000D01*
X111125000Y-118999000D01*
X111125000Y-119019000D01*
X110871000Y-119019000D01*
X110871000Y-118999000D01*
X109328085Y-118999000D01*
X109206096Y-119221039D01*
X109223633Y-119303818D01*
X109334285Y-119563646D01*
X109493500Y-119796895D01*
X109695161Y-119994601D01*
X109924741Y-120144735D01*
X109796899Y-120213068D01*
X109578392Y-120392392D01*
X109399068Y-120610899D01*
X109265818Y-120860192D01*
X109183764Y-121130691D01*
X109156057Y-121412000D01*
X109183764Y-121693309D01*
X109265818Y-121963808D01*
X109399068Y-122213101D01*
X109578392Y-122431608D01*
X109796899Y-122610932D01*
X109929858Y-122682000D01*
X109796899Y-122753068D01*
X109578392Y-122932392D01*
X109399068Y-123150899D01*
X109265818Y-123400192D01*
X109183764Y-123670691D01*
X109156057Y-123952000D01*
X109183764Y-124233309D01*
X109265818Y-124503808D01*
X109399068Y-124753101D01*
X109578392Y-124971608D01*
X109796899Y-125150932D01*
X109929858Y-125222000D01*
X109796899Y-125293068D01*
X109578392Y-125472392D01*
X109399068Y-125690899D01*
X109265818Y-125940192D01*
X109183764Y-126210691D01*
X109156057Y-126492000D01*
X109183764Y-126773309D01*
X109265818Y-127043808D01*
X109399068Y-127293101D01*
X109578392Y-127511608D01*
X109796899Y-127690932D01*
X109929858Y-127762000D01*
X109796899Y-127833068D01*
X109578392Y-128012392D01*
X109399068Y-128230899D01*
X109265818Y-128480192D01*
X109183764Y-128750691D01*
X109156057Y-129032000D01*
X109183764Y-129313309D01*
X109265818Y-129583808D01*
X109399068Y-129833101D01*
X109578392Y-130051608D01*
X109796899Y-130230932D01*
X109929858Y-130302000D01*
X109796899Y-130373068D01*
X109578392Y-130552392D01*
X109399068Y-130770899D01*
X109265818Y-131020192D01*
X109183764Y-131290691D01*
X109156057Y-131572000D01*
X109183764Y-131853309D01*
X109265818Y-132123808D01*
X109399068Y-132373101D01*
X109578392Y-132591608D01*
X109796899Y-132770932D01*
X109929858Y-132842000D01*
X109796899Y-132913068D01*
X109578392Y-133092392D01*
X109399068Y-133310899D01*
X109265818Y-133560192D01*
X109183764Y-133830691D01*
X109156057Y-134112000D01*
X109183764Y-134393309D01*
X109265818Y-134663808D01*
X109399068Y-134913101D01*
X109578392Y-135131608D01*
X109796899Y-135310932D01*
X110046192Y-135444182D01*
X110316691Y-135526236D01*
X110527508Y-135547000D01*
X111468492Y-135547000D01*
X111679309Y-135526236D01*
X111949808Y-135444182D01*
X112199101Y-135310932D01*
X112417608Y-135131608D01*
X112596932Y-134913101D01*
X112617832Y-134874000D01*
X114890332Y-134874000D01*
X116159301Y-136142969D01*
X115925241Y-136299363D01*
X115725363Y-136499241D01*
X115568320Y-136734273D01*
X115460147Y-136995426D01*
X115405000Y-137272665D01*
X115405000Y-137555335D01*
X115460147Y-137832574D01*
X115568320Y-138093727D01*
X115725363Y-138328759D01*
X115925241Y-138528637D01*
X116160273Y-138685680D01*
X116421426Y-138793853D01*
X116698665Y-138849000D01*
X116981335Y-138849000D01*
X117258574Y-138793853D01*
X117519727Y-138685680D01*
X117754759Y-138528637D01*
X117845883Y-138437513D01*
X117887928Y-138479558D01*
X117887928Y-138840000D01*
X117900188Y-138964482D01*
X117932197Y-139070000D01*
X117900188Y-139175518D01*
X117887928Y-139300000D01*
X117887928Y-139480532D01*
X117754759Y-139347363D01*
X117519727Y-139190320D01*
X117258574Y-139082147D01*
X116981335Y-139027000D01*
X116698665Y-139027000D01*
X116421426Y-139082147D01*
X116160273Y-139190320D01*
X115925241Y-139347363D01*
X115725363Y-139547241D01*
X115568320Y-139782273D01*
X115460147Y-140043426D01*
X115405000Y-140320665D01*
X115405000Y-140549962D01*
X112389565Y-143565397D01*
X112353223Y-143595222D01*
X112323399Y-143631563D01*
X112234194Y-143740260D01*
X112145749Y-143905731D01*
X112091283Y-144085278D01*
X112072892Y-144272000D01*
X112077501Y-144318795D01*
X112077500Y-149678394D01*
X112023820Y-149694678D01*
X111913506Y-149753643D01*
X111816815Y-149832995D01*
X111737463Y-149929686D01*
X111678498Y-150040000D01*
X111642188Y-150159698D01*
X111633809Y-150244776D01*
X111581006Y-150164451D01*
X111388026Y-149968548D01*
X111160535Y-149814058D01*
X110907276Y-149706918D01*
X110833070Y-149691960D01*
X110617000Y-149814460D01*
X110617000Y-151257000D01*
X110637000Y-151257000D01*
X110637000Y-151511000D01*
X110617000Y-151511000D01*
X110617000Y-152953540D01*
X110833070Y-153076040D01*
X110907276Y-153061082D01*
X111160535Y-152953942D01*
X111388026Y-152799452D01*
X111581006Y-152603549D01*
X111633809Y-152523224D01*
X111642188Y-152608302D01*
X111678498Y-152728000D01*
X111737463Y-152838314D01*
X111816815Y-152935005D01*
X111913506Y-153014357D01*
X112023820Y-153073322D01*
X112143518Y-153109632D01*
X112268000Y-153121892D01*
X113792000Y-153121892D01*
X113916482Y-153109632D01*
X114036180Y-153073322D01*
X114146494Y-153014357D01*
X114243185Y-152935005D01*
X114322537Y-152838314D01*
X114381502Y-152728000D01*
X114417812Y-152608302D01*
X114430072Y-152483820D01*
X114430072Y-152336500D01*
X115558185Y-152336500D01*
X115604970Y-152341108D01*
X115651755Y-152336500D01*
X115791693Y-152322717D01*
X115971239Y-152268252D01*
X116035320Y-152234000D01*
X117891928Y-152234000D01*
X117904188Y-152358482D01*
X117940498Y-152478180D01*
X117999463Y-152588494D01*
X118078815Y-152685185D01*
X118175506Y-152764537D01*
X118285820Y-152823502D01*
X118405518Y-152859812D01*
X118530000Y-152872072D01*
X119094250Y-152869000D01*
X119253000Y-152710250D01*
X119253000Y-151511000D01*
X118053750Y-151511000D01*
X117895000Y-151669750D01*
X117891928Y-152234000D01*
X116035320Y-152234000D01*
X116136711Y-152179806D01*
X116281748Y-152060778D01*
X116311577Y-152024431D01*
X117901751Y-150434257D01*
X117891928Y-150534000D01*
X117895000Y-151098250D01*
X118053750Y-151257000D01*
X119253000Y-151257000D01*
X119253000Y-151237000D01*
X119507000Y-151237000D01*
X119507000Y-151257000D01*
X119527000Y-151257000D01*
X119527000Y-151511000D01*
X119507000Y-151511000D01*
X119507000Y-152710250D01*
X119665750Y-152869000D01*
X120230000Y-152872072D01*
X120354482Y-152859812D01*
X120474180Y-152823502D01*
X120584494Y-152764537D01*
X120681185Y-152685185D01*
X120760537Y-152588494D01*
X120819502Y-152478180D01*
X120840393Y-152409313D01*
X120864866Y-152439134D01*
X121090986Y-152624706D01*
X121348966Y-152762599D01*
X121628889Y-152847513D01*
X121847050Y-152869000D01*
X121992950Y-152869000D01*
X122211111Y-152847513D01*
X122491034Y-152762599D01*
X122749014Y-152624706D01*
X122975134Y-152439134D01*
X123160706Y-152213014D01*
X123190000Y-152158209D01*
X123219294Y-152213014D01*
X123404866Y-152439134D01*
X123630986Y-152624706D01*
X123888966Y-152762599D01*
X124168889Y-152847513D01*
X124387050Y-152869000D01*
X124532950Y-152869000D01*
X124751111Y-152847513D01*
X125031034Y-152762599D01*
X125289014Y-152624706D01*
X125515134Y-152439134D01*
X125700706Y-152213014D01*
X125730000Y-152158209D01*
X125759294Y-152213014D01*
X125944866Y-152439134D01*
X126170986Y-152624706D01*
X126428966Y-152762599D01*
X126708889Y-152847513D01*
X126927050Y-152869000D01*
X127072950Y-152869000D01*
X127291111Y-152847513D01*
X127571034Y-152762599D01*
X127829014Y-152624706D01*
X128055134Y-152439134D01*
X128240706Y-152213014D01*
X128378599Y-151955034D01*
X128463513Y-151675111D01*
X128488980Y-151416532D01*
X131274227Y-151416532D01*
X131324916Y-151868434D01*
X131462415Y-152301885D01*
X131681486Y-152700373D01*
X131973784Y-153048721D01*
X132328178Y-153333661D01*
X132731167Y-153544338D01*
X133167402Y-153672729D01*
X133620266Y-153713943D01*
X134072512Y-153666410D01*
X134506911Y-153531941D01*
X134906919Y-153315658D01*
X135257300Y-153025798D01*
X135544706Y-152673402D01*
X135758192Y-152271894D01*
X135889626Y-151836566D01*
X135934000Y-151384000D01*
X135933092Y-151318943D01*
X135876098Y-150867792D01*
X135732561Y-150436304D01*
X135507948Y-150040913D01*
X135210814Y-149696680D01*
X134852476Y-149416716D01*
X134446585Y-149211686D01*
X134008600Y-149089398D01*
X133555204Y-149054511D01*
X133103667Y-149108354D01*
X132671187Y-149248875D01*
X132274237Y-149470722D01*
X131927938Y-149765446D01*
X131645480Y-150121820D01*
X131437621Y-150526270D01*
X131312278Y-150963390D01*
X131274227Y-151416532D01*
X128488980Y-151416532D01*
X128492185Y-151384000D01*
X128463513Y-151092889D01*
X128378599Y-150812966D01*
X128240706Y-150554986D01*
X128055134Y-150328866D01*
X128025444Y-150304500D01*
X129239215Y-150304500D01*
X129286000Y-150309108D01*
X129332785Y-150304500D01*
X129472723Y-150290717D01*
X129652269Y-150236252D01*
X129817741Y-150147806D01*
X129962778Y-150028778D01*
X129992607Y-149992431D01*
X133482431Y-146502607D01*
X133518778Y-146472778D01*
X133637806Y-146327741D01*
X133726252Y-146162269D01*
X133780717Y-145982723D01*
X133794500Y-145842785D01*
X133799108Y-145796001D01*
X133794500Y-145749216D01*
X133794500Y-125978538D01*
X134678036Y-125095002D01*
X134728084Y-125095002D01*
X134606096Y-125317039D01*
X134623633Y-125399818D01*
X134734285Y-125659646D01*
X134893500Y-125892895D01*
X135095161Y-126090601D01*
X135324741Y-126240735D01*
X135196899Y-126309068D01*
X134978392Y-126488392D01*
X134799068Y-126706899D01*
X134665818Y-126956192D01*
X134583764Y-127226691D01*
X134556057Y-127508000D01*
X134583764Y-127789309D01*
X134665818Y-128059808D01*
X134799068Y-128309101D01*
X134978392Y-128527608D01*
X135196899Y-128706932D01*
X135329858Y-128778000D01*
X135196899Y-128849068D01*
X134978392Y-129028392D01*
X134799068Y-129246899D01*
X134665818Y-129496192D01*
X134583764Y-129766691D01*
X134556057Y-130048000D01*
X134583764Y-130329309D01*
X134665818Y-130599808D01*
X134799068Y-130849101D01*
X134978392Y-131067608D01*
X135196899Y-131246932D01*
X135329858Y-131318000D01*
X135196899Y-131389068D01*
X134978392Y-131568392D01*
X134799068Y-131786899D01*
X134665818Y-132036192D01*
X134583764Y-132306691D01*
X134556057Y-132588000D01*
X134583764Y-132869309D01*
X134665818Y-133139808D01*
X134799068Y-133389101D01*
X134978392Y-133607608D01*
X135196899Y-133786932D01*
X135329858Y-133858000D01*
X135196899Y-133929068D01*
X134978392Y-134108392D01*
X134799068Y-134326899D01*
X134665818Y-134576192D01*
X134583764Y-134846691D01*
X134556057Y-135128000D01*
X134583764Y-135409309D01*
X134665818Y-135679808D01*
X134799068Y-135929101D01*
X134978392Y-136147608D01*
X135196899Y-136326932D01*
X135329858Y-136398000D01*
X135196899Y-136469068D01*
X134978392Y-136648392D01*
X134799068Y-136866899D01*
X134665818Y-137116192D01*
X134583764Y-137386691D01*
X134556057Y-137668000D01*
X134583764Y-137949309D01*
X134665818Y-138219808D01*
X134799068Y-138469101D01*
X134978392Y-138687608D01*
X135196899Y-138866932D01*
X135329858Y-138938000D01*
X135196899Y-139009068D01*
X134978392Y-139188392D01*
X134799068Y-139406899D01*
X134665818Y-139656192D01*
X134583764Y-139926691D01*
X134556057Y-140208000D01*
X134583764Y-140489309D01*
X134665818Y-140759808D01*
X134799068Y-141009101D01*
X134978392Y-141227608D01*
X135196899Y-141406932D01*
X135329858Y-141478000D01*
X135196899Y-141549068D01*
X134978392Y-141728392D01*
X134799068Y-141946899D01*
X134665818Y-142196192D01*
X134583764Y-142466691D01*
X134556057Y-142748000D01*
X134583764Y-143029309D01*
X134665818Y-143299808D01*
X134799068Y-143549101D01*
X134978392Y-143767608D01*
X135196899Y-143946932D01*
X135329858Y-144018000D01*
X135196899Y-144089068D01*
X134978392Y-144268392D01*
X134799068Y-144486899D01*
X134665818Y-144736192D01*
X134583764Y-145006691D01*
X134556057Y-145288000D01*
X134583764Y-145569309D01*
X134665818Y-145839808D01*
X134799068Y-146089101D01*
X134978392Y-146307608D01*
X135196899Y-146486932D01*
X135446192Y-146620182D01*
X135716691Y-146702236D01*
X135927508Y-146723000D01*
X136868492Y-146723000D01*
X137079309Y-146702236D01*
X137349808Y-146620182D01*
X137599101Y-146486932D01*
X137817608Y-146307608D01*
X137996932Y-146089101D01*
X138130182Y-145839808D01*
X138212236Y-145569309D01*
X138239943Y-145288000D01*
X138212236Y-145006691D01*
X138130182Y-144736192D01*
X137996932Y-144486899D01*
X137817608Y-144268392D01*
X137599101Y-144089068D01*
X137466142Y-144018000D01*
X137599101Y-143946932D01*
X137817608Y-143767608D01*
X137996932Y-143549101D01*
X138130182Y-143299808D01*
X138212236Y-143029309D01*
X138239943Y-142748000D01*
X138212236Y-142466691D01*
X138130182Y-142196192D01*
X137996932Y-141946899D01*
X137817608Y-141728392D01*
X137599101Y-141549068D01*
X137466142Y-141478000D01*
X137599101Y-141406932D01*
X137817608Y-141227608D01*
X137996932Y-141009101D01*
X138130182Y-140759808D01*
X138212236Y-140489309D01*
X138239943Y-140208000D01*
X138212236Y-139926691D01*
X138130182Y-139656192D01*
X137996932Y-139406899D01*
X137817608Y-139188392D01*
X137599101Y-139009068D01*
X137466142Y-138938000D01*
X137599101Y-138866932D01*
X137817608Y-138687608D01*
X137996932Y-138469101D01*
X138130182Y-138219808D01*
X138212236Y-137949309D01*
X138239943Y-137668000D01*
X138212236Y-137386691D01*
X138130182Y-137116192D01*
X137996932Y-136866899D01*
X137876865Y-136720597D01*
X138942353Y-135655110D01*
X138971422Y-135631254D01*
X138999547Y-135596984D01*
X139040001Y-135547691D01*
X139040001Y-155296000D01*
X104800000Y-155296000D01*
X104800000Y-96774000D01*
X105746057Y-96774000D01*
X105773764Y-97055309D01*
X105855818Y-97325808D01*
X105989068Y-97575101D01*
X106168392Y-97793608D01*
X106386899Y-97972932D01*
X106636192Y-98106182D01*
X106906691Y-98188236D01*
X107117508Y-98209000D01*
X107258492Y-98209000D01*
X107469309Y-98188236D01*
X107739808Y-98106182D01*
X107989101Y-97972932D01*
X108207608Y-97793608D01*
X108386932Y-97575101D01*
X108520182Y-97325808D01*
X108602236Y-97055309D01*
X108629943Y-96774000D01*
X108602236Y-96492691D01*
X108520182Y-96222192D01*
X108386932Y-95972899D01*
X108207608Y-95754392D01*
X107989101Y-95575068D01*
X107739808Y-95441818D01*
X107469309Y-95359764D01*
X107258492Y-95339000D01*
X107117508Y-95339000D01*
X106906691Y-95359764D01*
X106636192Y-95441818D01*
X106386899Y-95575068D01*
X106168392Y-95754392D01*
X105989068Y-95972899D01*
X105855818Y-96222192D01*
X105773764Y-96492691D01*
X105746057Y-96774000D01*
X104800000Y-96774000D01*
X104800000Y-93726000D01*
X105746057Y-93726000D01*
X105773764Y-94007309D01*
X105855818Y-94277808D01*
X105989068Y-94527101D01*
X106168392Y-94745608D01*
X106386899Y-94924932D01*
X106636192Y-95058182D01*
X106906691Y-95140236D01*
X107117508Y-95161000D01*
X107258492Y-95161000D01*
X107469309Y-95140236D01*
X107739808Y-95058182D01*
X107989101Y-94924932D01*
X108207608Y-94745608D01*
X108386932Y-94527101D01*
X108520182Y-94277808D01*
X108602236Y-94007309D01*
X108629943Y-93726000D01*
X108602236Y-93444691D01*
X108520182Y-93174192D01*
X108386932Y-92924899D01*
X108207608Y-92706392D01*
X107989101Y-92527068D01*
X107739808Y-92393818D01*
X107469309Y-92311764D01*
X107258492Y-92291000D01*
X107117508Y-92291000D01*
X106906691Y-92311764D01*
X106636192Y-92393818D01*
X106386899Y-92527068D01*
X106168392Y-92706392D01*
X105989068Y-92924899D01*
X105855818Y-93174192D01*
X105773764Y-93444691D01*
X105746057Y-93726000D01*
X104800000Y-93726000D01*
X104800000Y-90678000D01*
X105746057Y-90678000D01*
X105773764Y-90959309D01*
X105855818Y-91229808D01*
X105989068Y-91479101D01*
X106168392Y-91697608D01*
X106386899Y-91876932D01*
X106636192Y-92010182D01*
X106906691Y-92092236D01*
X107117508Y-92113000D01*
X107258492Y-92113000D01*
X107469309Y-92092236D01*
X107739808Y-92010182D01*
X107989101Y-91876932D01*
X108207608Y-91697608D01*
X108386932Y-91479101D01*
X108520182Y-91229808D01*
X108602236Y-90959309D01*
X108629943Y-90678000D01*
X108602236Y-90396691D01*
X108520182Y-90126192D01*
X108386932Y-89876899D01*
X108207608Y-89658392D01*
X107989101Y-89479068D01*
X107739808Y-89345818D01*
X107469309Y-89263764D01*
X107258492Y-89243000D01*
X107117508Y-89243000D01*
X106906691Y-89263764D01*
X106636192Y-89345818D01*
X106386899Y-89479068D01*
X106168392Y-89658392D01*
X105989068Y-89876899D01*
X105855818Y-90126192D01*
X105773764Y-90396691D01*
X105746057Y-90678000D01*
X104800000Y-90678000D01*
X104800000Y-87364000D01*
X105799928Y-87364000D01*
X105812188Y-87488482D01*
X105848498Y-87608180D01*
X105907463Y-87718494D01*
X105986815Y-87815185D01*
X106083506Y-87894537D01*
X106193820Y-87953502D01*
X106313518Y-87989812D01*
X106438000Y-88002072D01*
X106902250Y-87999000D01*
X107061000Y-87840250D01*
X107061000Y-86741000D01*
X105961750Y-86741000D01*
X105803000Y-86899750D01*
X105799928Y-87364000D01*
X104800000Y-87364000D01*
X104800000Y-85864000D01*
X105799928Y-85864000D01*
X105803000Y-86328250D01*
X105961750Y-86487000D01*
X107061000Y-86487000D01*
X107061000Y-85387750D01*
X106902250Y-85229000D01*
X106438000Y-85225928D01*
X106313518Y-85238188D01*
X106193820Y-85274498D01*
X106083506Y-85333463D01*
X105986815Y-85412815D01*
X105907463Y-85509506D01*
X105848498Y-85619820D01*
X105812188Y-85739518D01*
X105799928Y-85864000D01*
X104800000Y-85864000D01*
X104800000Y-80889589D01*
X105803000Y-80889589D01*
X105803000Y-81162411D01*
X105856225Y-81429989D01*
X105960629Y-81682043D01*
X106112201Y-81908886D01*
X106305114Y-82101799D01*
X106531957Y-82253371D01*
X106784011Y-82357775D01*
X107051589Y-82411000D01*
X107324411Y-82411000D01*
X107591989Y-82357775D01*
X107844043Y-82253371D01*
X108070886Y-82101799D01*
X108263799Y-81908886D01*
X108415371Y-81682043D01*
X108458000Y-81579127D01*
X108500629Y-81682043D01*
X108652201Y-81908886D01*
X108845114Y-82101799D01*
X109071957Y-82253371D01*
X109324011Y-82357775D01*
X109591589Y-82411000D01*
X109864411Y-82411000D01*
X110131989Y-82357775D01*
X110384043Y-82253371D01*
X110610886Y-82101799D01*
X110803799Y-81908886D01*
X110881555Y-81792517D01*
X110892188Y-81900482D01*
X110928498Y-82020180D01*
X110987463Y-82130494D01*
X111066815Y-82227185D01*
X111163506Y-82306537D01*
X111273820Y-82365502D01*
X111393518Y-82401812D01*
X111518000Y-82414072D01*
X111982250Y-82411000D01*
X112141000Y-82252250D01*
X112141000Y-81153000D01*
X112121000Y-81153000D01*
X112121000Y-80899000D01*
X112141000Y-80899000D01*
X112141000Y-79799750D01*
X112395000Y-79799750D01*
X112395000Y-80899000D01*
X112415000Y-80899000D01*
X112415000Y-81153000D01*
X112395000Y-81153000D01*
X112395000Y-82252250D01*
X112553750Y-82411000D01*
X113018000Y-82414072D01*
X113142482Y-82401812D01*
X113262180Y-82365502D01*
X113372494Y-82306537D01*
X113469185Y-82227185D01*
X113548537Y-82130494D01*
X113601230Y-82031915D01*
X113671114Y-82101799D01*
X113897957Y-82253371D01*
X114150011Y-82357775D01*
X114417589Y-82411000D01*
X114690411Y-82411000D01*
X114957989Y-82357775D01*
X115210043Y-82253371D01*
X115436886Y-82101799D01*
X115629799Y-81908886D01*
X115781371Y-81682043D01*
X115824000Y-81579127D01*
X115866629Y-81682043D01*
X116018201Y-81908886D01*
X116211114Y-82101799D01*
X116437957Y-82253371D01*
X116690011Y-82357775D01*
X116957589Y-82411000D01*
X117230411Y-82411000D01*
X117497989Y-82357775D01*
X117750043Y-82253371D01*
X117976886Y-82101799D01*
X118169799Y-81908886D01*
X118247555Y-81792517D01*
X118258188Y-81900482D01*
X118294498Y-82020180D01*
X118353463Y-82130494D01*
X118432815Y-82227185D01*
X118529506Y-82306537D01*
X118639820Y-82365502D01*
X118759518Y-82401812D01*
X118884000Y-82414072D01*
X119348250Y-82411000D01*
X119507000Y-82252250D01*
X119507000Y-81153000D01*
X119487000Y-81153000D01*
X119487000Y-80899000D01*
X119507000Y-80899000D01*
X119507000Y-79799750D01*
X119761000Y-79799750D01*
X119761000Y-80899000D01*
X119781000Y-80899000D01*
X119781000Y-81153000D01*
X119761000Y-81153000D01*
X119761000Y-82252250D01*
X119919750Y-82411000D01*
X120384000Y-82414072D01*
X120508482Y-82401812D01*
X120628180Y-82365502D01*
X120738494Y-82306537D01*
X120835185Y-82227185D01*
X120914537Y-82130494D01*
X120967230Y-82031915D01*
X121037114Y-82101799D01*
X121263957Y-82253371D01*
X121516011Y-82357775D01*
X121783589Y-82411000D01*
X122056411Y-82411000D01*
X122323989Y-82357775D01*
X122576043Y-82253371D01*
X122802886Y-82101799D01*
X122995799Y-81908886D01*
X123147371Y-81682043D01*
X123190000Y-81579127D01*
X123232629Y-81682043D01*
X123384201Y-81908886D01*
X123577114Y-82101799D01*
X123803957Y-82253371D01*
X124056011Y-82357775D01*
X124323589Y-82411000D01*
X124596411Y-82411000D01*
X124863989Y-82357775D01*
X125116043Y-82253371D01*
X125342886Y-82101799D01*
X125535799Y-81908886D01*
X125613555Y-81792517D01*
X125624188Y-81900482D01*
X125660498Y-82020180D01*
X125719463Y-82130494D01*
X125798815Y-82227185D01*
X125895506Y-82306537D01*
X126005820Y-82365502D01*
X126125518Y-82401812D01*
X126250000Y-82414072D01*
X126714250Y-82411000D01*
X126873000Y-82252250D01*
X126873000Y-81153000D01*
X126853000Y-81153000D01*
X126853000Y-80899000D01*
X126873000Y-80899000D01*
X126873000Y-79799750D01*
X126714250Y-79641000D01*
X126250000Y-79637928D01*
X126125518Y-79650188D01*
X126005820Y-79686498D01*
X125895506Y-79745463D01*
X125798815Y-79824815D01*
X125719463Y-79921506D01*
X125660498Y-80031820D01*
X125624188Y-80151518D01*
X125613555Y-80259483D01*
X125535799Y-80143114D01*
X125342886Y-79950201D01*
X125116043Y-79798629D01*
X124863989Y-79694225D01*
X124596411Y-79641000D01*
X124323589Y-79641000D01*
X124056011Y-79694225D01*
X123803957Y-79798629D01*
X123577114Y-79950201D01*
X123384201Y-80143114D01*
X123232629Y-80369957D01*
X123190000Y-80472873D01*
X123147371Y-80369957D01*
X122995799Y-80143114D01*
X122802886Y-79950201D01*
X122576043Y-79798629D01*
X122323989Y-79694225D01*
X122056411Y-79641000D01*
X121783589Y-79641000D01*
X121516011Y-79694225D01*
X121263957Y-79798629D01*
X121037114Y-79950201D01*
X120967230Y-80020085D01*
X120914537Y-79921506D01*
X120835185Y-79824815D01*
X120738494Y-79745463D01*
X120628180Y-79686498D01*
X120508482Y-79650188D01*
X120384000Y-79637928D01*
X119919750Y-79641000D01*
X119761000Y-79799750D01*
X119507000Y-79799750D01*
X119348250Y-79641000D01*
X118884000Y-79637928D01*
X118759518Y-79650188D01*
X118639820Y-79686498D01*
X118529506Y-79745463D01*
X118432815Y-79824815D01*
X118353463Y-79921506D01*
X118294498Y-80031820D01*
X118258188Y-80151518D01*
X118247555Y-80259483D01*
X118169799Y-80143114D01*
X117976886Y-79950201D01*
X117750043Y-79798629D01*
X117497989Y-79694225D01*
X117230411Y-79641000D01*
X116957589Y-79641000D01*
X116690011Y-79694225D01*
X116437957Y-79798629D01*
X116211114Y-79950201D01*
X116018201Y-80143114D01*
X115866629Y-80369957D01*
X115824000Y-80472873D01*
X115781371Y-80369957D01*
X115629799Y-80143114D01*
X115436886Y-79950201D01*
X115210043Y-79798629D01*
X114957989Y-79694225D01*
X114690411Y-79641000D01*
X114417589Y-79641000D01*
X114150011Y-79694225D01*
X113897957Y-79798629D01*
X113671114Y-79950201D01*
X113601230Y-80020085D01*
X113548537Y-79921506D01*
X113469185Y-79824815D01*
X113372494Y-79745463D01*
X113262180Y-79686498D01*
X113142482Y-79650188D01*
X113018000Y-79637928D01*
X112553750Y-79641000D01*
X112395000Y-79799750D01*
X112141000Y-79799750D01*
X111982250Y-79641000D01*
X111518000Y-79637928D01*
X111393518Y-79650188D01*
X111273820Y-79686498D01*
X111163506Y-79745463D01*
X111066815Y-79824815D01*
X110987463Y-79921506D01*
X110928498Y-80031820D01*
X110892188Y-80151518D01*
X110881555Y-80259483D01*
X110803799Y-80143114D01*
X110610886Y-79950201D01*
X110384043Y-79798629D01*
X110131989Y-79694225D01*
X109864411Y-79641000D01*
X109591589Y-79641000D01*
X109324011Y-79694225D01*
X109071957Y-79798629D01*
X108845114Y-79950201D01*
X108652201Y-80143114D01*
X108500629Y-80369957D01*
X108458000Y-80472873D01*
X108415371Y-80369957D01*
X108263799Y-80143114D01*
X108070886Y-79950201D01*
X107844043Y-79798629D01*
X107591989Y-79694225D01*
X107324411Y-79641000D01*
X107051589Y-79641000D01*
X106784011Y-79694225D01*
X106531957Y-79798629D01*
X106305114Y-79950201D01*
X106112201Y-80143114D01*
X105960629Y-80369957D01*
X105856225Y-80622011D01*
X105803000Y-80889589D01*
X104800000Y-80889589D01*
X104800000Y-77470000D01*
X105746057Y-77470000D01*
X105773764Y-77751309D01*
X105855818Y-78021808D01*
X105989068Y-78271101D01*
X106168392Y-78489608D01*
X106386899Y-78668932D01*
X106636192Y-78802182D01*
X106906691Y-78884236D01*
X107117508Y-78905000D01*
X107258492Y-78905000D01*
X107469309Y-78884236D01*
X107739808Y-78802182D01*
X107989101Y-78668932D01*
X108207608Y-78489608D01*
X108386932Y-78271101D01*
X108520182Y-78021808D01*
X108602236Y-77751309D01*
X108629943Y-77470000D01*
X108616023Y-77328665D01*
X113373000Y-77328665D01*
X113373000Y-77611335D01*
X113428147Y-77888574D01*
X113536320Y-78149727D01*
X113693363Y-78384759D01*
X113893241Y-78584637D01*
X114128273Y-78741680D01*
X114389426Y-78849853D01*
X114666665Y-78905000D01*
X114949335Y-78905000D01*
X115226574Y-78849853D01*
X115487727Y-78741680D01*
X115722759Y-78584637D01*
X115922637Y-78384759D01*
X116079680Y-78149727D01*
X116187853Y-77888574D01*
X116243000Y-77611335D01*
X116243000Y-77328665D01*
X117945000Y-77328665D01*
X117945000Y-77611335D01*
X118000147Y-77888574D01*
X118108320Y-78149727D01*
X118265363Y-78384759D01*
X118465241Y-78584637D01*
X118700273Y-78741680D01*
X118961426Y-78849853D01*
X119238665Y-78905000D01*
X119521335Y-78905000D01*
X119798574Y-78849853D01*
X120059727Y-78741680D01*
X120294759Y-78584637D01*
X120494637Y-78384759D01*
X120651680Y-78149727D01*
X120759853Y-77888574D01*
X120815000Y-77611335D01*
X120815000Y-77328665D01*
X120759853Y-77051426D01*
X120651680Y-76790273D01*
X120494637Y-76555241D01*
X120294759Y-76355363D01*
X120059727Y-76198320D01*
X119798574Y-76090147D01*
X119521335Y-76035000D01*
X119238665Y-76035000D01*
X118961426Y-76090147D01*
X118700273Y-76198320D01*
X118465241Y-76355363D01*
X118265363Y-76555241D01*
X118108320Y-76790273D01*
X118000147Y-77051426D01*
X117945000Y-77328665D01*
X116243000Y-77328665D01*
X116187853Y-77051426D01*
X116079680Y-76790273D01*
X115922637Y-76555241D01*
X115722759Y-76355363D01*
X115487727Y-76198320D01*
X115226574Y-76090147D01*
X114949335Y-76035000D01*
X114666665Y-76035000D01*
X114389426Y-76090147D01*
X114128273Y-76198320D01*
X113893241Y-76355363D01*
X113693363Y-76555241D01*
X113536320Y-76790273D01*
X113428147Y-77051426D01*
X113373000Y-77328665D01*
X108616023Y-77328665D01*
X108602236Y-77188691D01*
X108520182Y-76918192D01*
X108386932Y-76668899D01*
X108207608Y-76450392D01*
X107989101Y-76271068D01*
X107739808Y-76137818D01*
X107469309Y-76055764D01*
X107258492Y-76035000D01*
X107117508Y-76035000D01*
X106906691Y-76055764D01*
X106636192Y-76137818D01*
X106386899Y-76271068D01*
X106168392Y-76450392D01*
X105989068Y-76668899D01*
X105855818Y-76918192D01*
X105773764Y-77188691D01*
X105746057Y-77470000D01*
X104800000Y-77470000D01*
X104800000Y-74422000D01*
X105746057Y-74422000D01*
X105773764Y-74703309D01*
X105855818Y-74973808D01*
X105989068Y-75223101D01*
X106168392Y-75441608D01*
X106386899Y-75620932D01*
X106636192Y-75754182D01*
X106906691Y-75836236D01*
X107117508Y-75857000D01*
X107258492Y-75857000D01*
X107469309Y-75836236D01*
X107739808Y-75754182D01*
X107989101Y-75620932D01*
X108207608Y-75441608D01*
X108386932Y-75223101D01*
X108520182Y-74973808D01*
X108602236Y-74703309D01*
X108629943Y-74422000D01*
X108616023Y-74280665D01*
X113373000Y-74280665D01*
X113373000Y-74563335D01*
X113428147Y-74840574D01*
X113536320Y-75101727D01*
X113693363Y-75336759D01*
X113893241Y-75536637D01*
X114128273Y-75693680D01*
X114389426Y-75801853D01*
X114666665Y-75857000D01*
X114949335Y-75857000D01*
X115226574Y-75801853D01*
X115487727Y-75693680D01*
X115722759Y-75536637D01*
X115922637Y-75336759D01*
X116079680Y-75101727D01*
X116187853Y-74840574D01*
X116243000Y-74563335D01*
X116243000Y-74280665D01*
X117945000Y-74280665D01*
X117945000Y-74563335D01*
X118000147Y-74840574D01*
X118108320Y-75101727D01*
X118265363Y-75336759D01*
X118465241Y-75536637D01*
X118700273Y-75693680D01*
X118961426Y-75801853D01*
X119238665Y-75857000D01*
X119521335Y-75857000D01*
X119798574Y-75801853D01*
X120059727Y-75693680D01*
X120294759Y-75536637D01*
X120494637Y-75336759D01*
X120651680Y-75101727D01*
X120759853Y-74840574D01*
X120815000Y-74563335D01*
X120815000Y-74422000D01*
X125558057Y-74422000D01*
X125585764Y-74703309D01*
X125667818Y-74973808D01*
X125801068Y-75223101D01*
X125980392Y-75441608D01*
X126198899Y-75620932D01*
X126448192Y-75754182D01*
X126718691Y-75836236D01*
X126929508Y-75857000D01*
X127070492Y-75857000D01*
X127281309Y-75836236D01*
X127551808Y-75754182D01*
X127801101Y-75620932D01*
X128019608Y-75441608D01*
X128198932Y-75223101D01*
X128332182Y-74973808D01*
X128414236Y-74703309D01*
X128441943Y-74422000D01*
X128414236Y-74140691D01*
X128332182Y-73870192D01*
X128198932Y-73620899D01*
X128019608Y-73402392D01*
X127801101Y-73223068D01*
X127551808Y-73089818D01*
X127281309Y-73007764D01*
X127070492Y-72987000D01*
X126929508Y-72987000D01*
X126718691Y-73007764D01*
X126448192Y-73089818D01*
X126198899Y-73223068D01*
X125980392Y-73402392D01*
X125801068Y-73620899D01*
X125667818Y-73870192D01*
X125585764Y-74140691D01*
X125558057Y-74422000D01*
X120815000Y-74422000D01*
X120815000Y-74280665D01*
X120759853Y-74003426D01*
X120651680Y-73742273D01*
X120494637Y-73507241D01*
X120294759Y-73307363D01*
X120059727Y-73150320D01*
X119798574Y-73042147D01*
X119521335Y-72987000D01*
X119238665Y-72987000D01*
X118961426Y-73042147D01*
X118700273Y-73150320D01*
X118465241Y-73307363D01*
X118265363Y-73507241D01*
X118108320Y-73742273D01*
X118000147Y-74003426D01*
X117945000Y-74280665D01*
X116243000Y-74280665D01*
X116187853Y-74003426D01*
X116079680Y-73742273D01*
X115922637Y-73507241D01*
X115722759Y-73307363D01*
X115487727Y-73150320D01*
X115226574Y-73042147D01*
X114949335Y-72987000D01*
X114666665Y-72987000D01*
X114389426Y-73042147D01*
X114128273Y-73150320D01*
X113893241Y-73307363D01*
X113693363Y-73507241D01*
X113536320Y-73742273D01*
X113428147Y-74003426D01*
X113373000Y-74280665D01*
X108616023Y-74280665D01*
X108602236Y-74140691D01*
X108520182Y-73870192D01*
X108386932Y-73620899D01*
X108207608Y-73402392D01*
X107989101Y-73223068D01*
X107739808Y-73089818D01*
X107469309Y-73007764D01*
X107258492Y-72987000D01*
X107117508Y-72987000D01*
X106906691Y-73007764D01*
X106636192Y-73089818D01*
X106386899Y-73223068D01*
X106168392Y-73402392D01*
X105989068Y-73620899D01*
X105855818Y-73870192D01*
X105773764Y-74140691D01*
X105746057Y-74422000D01*
X104800000Y-74422000D01*
X104800000Y-71374000D01*
X105746057Y-71374000D01*
X105773764Y-71655309D01*
X105855818Y-71925808D01*
X105989068Y-72175101D01*
X106168392Y-72393608D01*
X106386899Y-72572932D01*
X106636192Y-72706182D01*
X106906691Y-72788236D01*
X107117508Y-72809000D01*
X107258492Y-72809000D01*
X107469309Y-72788236D01*
X107739808Y-72706182D01*
X107989101Y-72572932D01*
X108207608Y-72393608D01*
X108386932Y-72175101D01*
X108520182Y-71925808D01*
X108602236Y-71655309D01*
X108629943Y-71374000D01*
X108616023Y-71232665D01*
X113373000Y-71232665D01*
X113373000Y-71515335D01*
X113428147Y-71792574D01*
X113536320Y-72053727D01*
X113693363Y-72288759D01*
X113893241Y-72488637D01*
X114128273Y-72645680D01*
X114389426Y-72753853D01*
X114666665Y-72809000D01*
X114949335Y-72809000D01*
X115226574Y-72753853D01*
X115487727Y-72645680D01*
X115722759Y-72488637D01*
X115922637Y-72288759D01*
X116079680Y-72053727D01*
X116187853Y-71792574D01*
X116243000Y-71515335D01*
X116243000Y-71232665D01*
X117945000Y-71232665D01*
X117945000Y-71515335D01*
X118000147Y-71792574D01*
X118108320Y-72053727D01*
X118265363Y-72288759D01*
X118465241Y-72488637D01*
X118700273Y-72645680D01*
X118961426Y-72753853D01*
X119238665Y-72809000D01*
X119521335Y-72809000D01*
X119798574Y-72753853D01*
X120059727Y-72645680D01*
X120294759Y-72488637D01*
X120494637Y-72288759D01*
X120651680Y-72053727D01*
X120759853Y-71792574D01*
X120815000Y-71515335D01*
X120815000Y-71374000D01*
X125558057Y-71374000D01*
X125585764Y-71655309D01*
X125667818Y-71925808D01*
X125801068Y-72175101D01*
X125980392Y-72393608D01*
X126198899Y-72572932D01*
X126448192Y-72706182D01*
X126718691Y-72788236D01*
X126929508Y-72809000D01*
X127070492Y-72809000D01*
X127281309Y-72788236D01*
X127551808Y-72706182D01*
X127801101Y-72572932D01*
X128019608Y-72393608D01*
X128198932Y-72175101D01*
X128332182Y-71925808D01*
X128414236Y-71655309D01*
X128441943Y-71374000D01*
X128414236Y-71092691D01*
X128332182Y-70822192D01*
X128198932Y-70572899D01*
X128019608Y-70354392D01*
X127801101Y-70175068D01*
X127551808Y-70041818D01*
X127281309Y-69959764D01*
X127070492Y-69939000D01*
X126929508Y-69939000D01*
X126718691Y-69959764D01*
X126448192Y-70041818D01*
X126198899Y-70175068D01*
X125980392Y-70354392D01*
X125801068Y-70572899D01*
X125667818Y-70822192D01*
X125585764Y-71092691D01*
X125558057Y-71374000D01*
X120815000Y-71374000D01*
X120815000Y-71232665D01*
X120759853Y-70955426D01*
X120651680Y-70694273D01*
X120494637Y-70459241D01*
X120294759Y-70259363D01*
X120059727Y-70102320D01*
X119798574Y-69994147D01*
X119521335Y-69939000D01*
X119238665Y-69939000D01*
X118961426Y-69994147D01*
X118700273Y-70102320D01*
X118465241Y-70259363D01*
X118265363Y-70459241D01*
X118108320Y-70694273D01*
X118000147Y-70955426D01*
X117945000Y-71232665D01*
X116243000Y-71232665D01*
X116187853Y-70955426D01*
X116079680Y-70694273D01*
X115922637Y-70459241D01*
X115722759Y-70259363D01*
X115487727Y-70102320D01*
X115226574Y-69994147D01*
X114949335Y-69939000D01*
X114666665Y-69939000D01*
X114389426Y-69994147D01*
X114128273Y-70102320D01*
X113893241Y-70259363D01*
X113693363Y-70459241D01*
X113536320Y-70694273D01*
X113428147Y-70955426D01*
X113373000Y-71232665D01*
X108616023Y-71232665D01*
X108602236Y-71092691D01*
X108520182Y-70822192D01*
X108386932Y-70572899D01*
X108207608Y-70354392D01*
X107989101Y-70175068D01*
X107739808Y-70041818D01*
X107469309Y-69959764D01*
X107258492Y-69939000D01*
X107117508Y-69939000D01*
X106906691Y-69959764D01*
X106636192Y-70041818D01*
X106386899Y-70175068D01*
X106168392Y-70354392D01*
X105989068Y-70572899D01*
X105855818Y-70822192D01*
X105773764Y-71092691D01*
X105746057Y-71374000D01*
X104800000Y-71374000D01*
X104800000Y-61246532D01*
X108668227Y-61246532D01*
X108718916Y-61698434D01*
X108856415Y-62131885D01*
X109075486Y-62530373D01*
X109367784Y-62878721D01*
X109722178Y-63163661D01*
X110125167Y-63374338D01*
X110561402Y-63502729D01*
X111014266Y-63543943D01*
X111466512Y-63496410D01*
X111900911Y-63361941D01*
X112300919Y-63145658D01*
X112651300Y-62855798D01*
X112938706Y-62503402D01*
X113152192Y-62101894D01*
X113283626Y-61666566D01*
X113324810Y-61246532D01*
X131020227Y-61246532D01*
X131070916Y-61698434D01*
X131208415Y-62131885D01*
X131427486Y-62530373D01*
X131719784Y-62878721D01*
X132074178Y-63163661D01*
X132477167Y-63374338D01*
X132913402Y-63502729D01*
X133366266Y-63543943D01*
X133818512Y-63496410D01*
X134252911Y-63361941D01*
X134652919Y-63145658D01*
X135003300Y-62855798D01*
X135290706Y-62503402D01*
X135504192Y-62101894D01*
X135635626Y-61666566D01*
X135680000Y-61214000D01*
X135679092Y-61148943D01*
X135622098Y-60697792D01*
X135478561Y-60266304D01*
X135253948Y-59870913D01*
X134956814Y-59526680D01*
X134598476Y-59246716D01*
X134192585Y-59041686D01*
X133754600Y-58919398D01*
X133301204Y-58884511D01*
X132849667Y-58938354D01*
X132417187Y-59078875D01*
X132020237Y-59300722D01*
X131673938Y-59595446D01*
X131391480Y-59951820D01*
X131183621Y-60356270D01*
X131058278Y-60793390D01*
X131020227Y-61246532D01*
X113324810Y-61246532D01*
X113328000Y-61214000D01*
X113327092Y-61148943D01*
X113270098Y-60697792D01*
X113126561Y-60266304D01*
X112901948Y-59870913D01*
X112604814Y-59526680D01*
X112246476Y-59246716D01*
X111840585Y-59041686D01*
X111402600Y-58919398D01*
X110949204Y-58884511D01*
X110497667Y-58938354D01*
X110065187Y-59078875D01*
X109668237Y-59300722D01*
X109321938Y-59595446D01*
X109039480Y-59951820D01*
X108831621Y-60356270D01*
X108706278Y-60793390D01*
X108668227Y-61246532D01*
X104800000Y-61246532D01*
X104800000Y-57556000D01*
X139040000Y-57556000D01*
X139040001Y-111664141D01*
G36*
X124187928Y-141009559D02*
G01*
X124187928Y-141370000D01*
X124200188Y-141494482D01*
X124235230Y-141610000D01*
X124200188Y-141725518D01*
X124187928Y-141850000D01*
X124187928Y-142650000D01*
X124200188Y-142774482D01*
X124233713Y-142885000D01*
X124200188Y-142995518D01*
X124187928Y-143120000D01*
X124191000Y-143234250D01*
X124349750Y-143393000D01*
X125349000Y-143393000D01*
X125349000Y-143373000D01*
X125603000Y-143373000D01*
X125603000Y-143393000D01*
X125623000Y-143393000D01*
X125623000Y-143647000D01*
X125603000Y-143647000D01*
X125603000Y-143667000D01*
X125349000Y-143667000D01*
X125349000Y-143647000D01*
X124349750Y-143647000D01*
X124191000Y-143805750D01*
X124187928Y-143920000D01*
X124200188Y-144044482D01*
X124232197Y-144150000D01*
X124200188Y-144255518D01*
X124187928Y-144380000D01*
X124187928Y-145180000D01*
X124200188Y-145304482D01*
X124235230Y-145420000D01*
X124200188Y-145535518D01*
X124187928Y-145660000D01*
X124187928Y-146134495D01*
X121018398Y-142964966D01*
X120992541Y-142933459D01*
X120866842Y-142830301D01*
X120723434Y-142753647D01*
X120567826Y-142706444D01*
X120459563Y-142695781D01*
X120464072Y-142650000D01*
X120464072Y-141850000D01*
X120451812Y-141725518D01*
X120416770Y-141610000D01*
X120451812Y-141494482D01*
X120464072Y-141370000D01*
X120464072Y-140570000D01*
X120451812Y-140445518D01*
X120418287Y-140335000D01*
X120451812Y-140224482D01*
X120464072Y-140100000D01*
X120464072Y-139300000D01*
X120451812Y-139175518D01*
X120419803Y-139070000D01*
X120451812Y-138964482D01*
X120464072Y-138840000D01*
X120464072Y-138040000D01*
X120451812Y-137915518D01*
X120416770Y-137800000D01*
X120451812Y-137684482D01*
X120464072Y-137560000D01*
X120464072Y-137285702D01*
X124187928Y-141009559D01*
X124187928Y-141009559D01*
G37*
X124187928Y-141009559D02*
X124187928Y-141370000D01*
X124200188Y-141494482D01*
X124235230Y-141610000D01*
X124200188Y-141725518D01*
X124187928Y-141850000D01*
X124187928Y-142650000D01*
X124200188Y-142774482D01*
X124233713Y-142885000D01*
X124200188Y-142995518D01*
X124187928Y-143120000D01*
X124191000Y-143234250D01*
X124349750Y-143393000D01*
X125349000Y-143393000D01*
X125349000Y-143373000D01*
X125603000Y-143373000D01*
X125603000Y-143393000D01*
X125623000Y-143393000D01*
X125623000Y-143647000D01*
X125603000Y-143647000D01*
X125603000Y-143667000D01*
X125349000Y-143667000D01*
X125349000Y-143647000D01*
X124349750Y-143647000D01*
X124191000Y-143805750D01*
X124187928Y-143920000D01*
X124200188Y-144044482D01*
X124232197Y-144150000D01*
X124200188Y-144255518D01*
X124187928Y-144380000D01*
X124187928Y-145180000D01*
X124200188Y-145304482D01*
X124235230Y-145420000D01*
X124200188Y-145535518D01*
X124187928Y-145660000D01*
X124187928Y-146134495D01*
X121018398Y-142964966D01*
X120992541Y-142933459D01*
X120866842Y-142830301D01*
X120723434Y-142753647D01*
X120567826Y-142706444D01*
X120459563Y-142695781D01*
X120464072Y-142650000D01*
X120464072Y-141850000D01*
X120451812Y-141725518D01*
X120416770Y-141610000D01*
X120451812Y-141494482D01*
X120464072Y-141370000D01*
X120464072Y-140570000D01*
X120451812Y-140445518D01*
X120418287Y-140335000D01*
X120451812Y-140224482D01*
X120464072Y-140100000D01*
X120464072Y-139300000D01*
X120451812Y-139175518D01*
X120419803Y-139070000D01*
X120451812Y-138964482D01*
X120464072Y-138840000D01*
X120464072Y-138040000D01*
X120451812Y-137915518D01*
X120416770Y-137800000D01*
X120451812Y-137684482D01*
X120464072Y-137560000D01*
X120464072Y-137285702D01*
X124187928Y-141009559D01*
G36*
X136525000Y-124841000D02*
G01*
X136545000Y-124841000D01*
X136545000Y-125095000D01*
X136525000Y-125095000D01*
X136525000Y-125115000D01*
X136271000Y-125115000D01*
X136271000Y-125095000D01*
X136251000Y-125095000D01*
X136251000Y-124841000D01*
X136271000Y-124841000D01*
X136271000Y-124821000D01*
X136525000Y-124821000D01*
X136525000Y-124841000D01*
X136525000Y-124841000D01*
G37*
X136525000Y-124841000D02*
X136545000Y-124841000D01*
X136545000Y-125095000D01*
X136525000Y-125095000D01*
X136525000Y-125115000D01*
X136271000Y-125115000D01*
X136271000Y-125095000D01*
X136251000Y-125095000D01*
X136251000Y-124841000D01*
X136271000Y-124841000D01*
X136271000Y-124821000D01*
X136525000Y-124821000D01*
X136525000Y-124841000D01*
G36*
X131117989Y-107472380D02*
G01*
X130471124Y-108119245D01*
X130447915Y-108077000D01*
X128905000Y-108077000D01*
X128905000Y-108097000D01*
X128651000Y-108097000D01*
X128651000Y-108077000D01*
X128631000Y-108077000D01*
X128631000Y-107823000D01*
X128651000Y-107823000D01*
X128651000Y-107803000D01*
X128905000Y-107803000D01*
X128905000Y-107823000D01*
X130447915Y-107823000D01*
X130569904Y-107600961D01*
X130552367Y-107518182D01*
X130441715Y-107258354D01*
X130282500Y-107025105D01*
X130080839Y-106827399D01*
X129851259Y-106677265D01*
X129979101Y-106608932D01*
X130197608Y-106429608D01*
X130376932Y-106211101D01*
X130510182Y-105961808D01*
X130592236Y-105691309D01*
X130619943Y-105410000D01*
X130592236Y-105128691D01*
X130579366Y-105086264D01*
X131117990Y-104547641D01*
X131117989Y-107472380D01*
X131117989Y-107472380D01*
G37*
X131117989Y-107472380D02*
X130471124Y-108119245D01*
X130447915Y-108077000D01*
X128905000Y-108077000D01*
X128905000Y-108097000D01*
X128651000Y-108097000D01*
X128651000Y-108077000D01*
X128631000Y-108077000D01*
X128631000Y-107823000D01*
X128651000Y-107823000D01*
X128651000Y-107803000D01*
X128905000Y-107803000D01*
X128905000Y-107823000D01*
X130447915Y-107823000D01*
X130569904Y-107600961D01*
X130552367Y-107518182D01*
X130441715Y-107258354D01*
X130282500Y-107025105D01*
X130080839Y-106827399D01*
X129851259Y-106677265D01*
X129979101Y-106608932D01*
X130197608Y-106429608D01*
X130376932Y-106211101D01*
X130510182Y-105961808D01*
X130592236Y-105691309D01*
X130619943Y-105410000D01*
X130592236Y-105128691D01*
X130579366Y-105086264D01*
X131117990Y-104547641D01*
X131117989Y-107472380D01*
M02*
