G04 #@! TF.GenerationSoftware,KiCad,Pcbnew,(5.1.0)-1*
G04 #@! TF.CreationDate,2021-08-10T01:44:35-05:00*
G04 #@! TF.ProjectId,nixie_legacy-demux,6e697869-655f-46c6-9567-6163792d6465,rev?*
G04 #@! TF.SameCoordinates,Original*
G04 #@! TF.FileFunction,Soldermask,Bot*
G04 #@! TF.FilePolarity,Negative*
%FSLAX46Y46*%
G04 Gerber Fmt 4.6, Leading zero omitted, Abs format (unit mm)*
G04 Created by KiCad (PCBNEW (5.1.0)-1) date 2021-08-10 01:44:35*
%MOMM*%
%LPD*%
G04 APERTURE LIST*
%ADD10C,0.100000*%
G04 APERTURE END LIST*
D10*
G36*
X131477376Y-148974944D02*
G01*
X131630627Y-149021432D01*
X131630630Y-149021433D01*
X131771863Y-149096924D01*
X131895659Y-149198521D01*
X131997256Y-149322317D01*
X132072747Y-149463550D01*
X132072748Y-149463553D01*
X132119236Y-149616804D01*
X132131000Y-149736247D01*
X132131000Y-150491753D01*
X132119236Y-150611196D01*
X132117478Y-150616991D01*
X132072747Y-150764450D01*
X131997256Y-150905683D01*
X131895659Y-151029479D01*
X131771863Y-151131076D01*
X131630629Y-151206567D01*
X131630626Y-151206568D01*
X131477375Y-151253056D01*
X131318000Y-151268753D01*
X131158624Y-151253056D01*
X131005373Y-151206568D01*
X131005370Y-151206567D01*
X130864137Y-151131076D01*
X130740341Y-151029479D01*
X130638744Y-150905683D01*
X130563253Y-150764449D01*
X130560139Y-150754185D01*
X130516764Y-150611195D01*
X130505000Y-150491752D01*
X130505000Y-149736247D01*
X130516764Y-149616804D01*
X130563253Y-149463553D01*
X130617950Y-149361222D01*
X130638745Y-149322317D01*
X130740342Y-149198521D01*
X130864138Y-149096924D01*
X131005371Y-149021433D01*
X131005374Y-149021432D01*
X131158625Y-148974944D01*
X131318000Y-148959247D01*
X131477376Y-148974944D01*
X131477376Y-148974944D01*
G37*
G36*
X134017376Y-148974944D02*
G01*
X134170627Y-149021432D01*
X134170630Y-149021433D01*
X134311863Y-149096924D01*
X134435659Y-149198521D01*
X134537256Y-149322317D01*
X134612747Y-149463550D01*
X134612748Y-149463553D01*
X134659236Y-149616804D01*
X134671000Y-149736247D01*
X134671000Y-150491753D01*
X134659236Y-150611196D01*
X134657478Y-150616991D01*
X134612747Y-150764450D01*
X134537256Y-150905683D01*
X134435659Y-151029479D01*
X134311863Y-151131076D01*
X134170629Y-151206567D01*
X134170626Y-151206568D01*
X134017375Y-151253056D01*
X133858000Y-151268753D01*
X133698624Y-151253056D01*
X133545373Y-151206568D01*
X133545370Y-151206567D01*
X133404137Y-151131076D01*
X133280341Y-151029479D01*
X133178744Y-150905683D01*
X133103253Y-150764449D01*
X133100139Y-150754185D01*
X133056764Y-150611195D01*
X133045000Y-150491752D01*
X133045000Y-149736247D01*
X133056764Y-149616804D01*
X133103253Y-149463553D01*
X133157950Y-149361222D01*
X133178745Y-149322317D01*
X133280342Y-149198521D01*
X133404138Y-149096924D01*
X133545371Y-149021433D01*
X133545374Y-149021432D01*
X133698625Y-148974944D01*
X133858000Y-148959247D01*
X134017376Y-148974944D01*
X134017376Y-148974944D01*
G37*
G36*
X137211000Y-151264820D02*
G01*
X135585000Y-151264820D01*
X135585000Y-148963180D01*
X137211000Y-148963180D01*
X137211000Y-151264820D01*
X137211000Y-151264820D01*
G37*
G36*
X121268443Y-149219519D02*
G01*
X121334627Y-149226037D01*
X121504466Y-149277557D01*
X121660991Y-149361222D01*
X121696729Y-149390552D01*
X121798186Y-149473814D01*
X121881448Y-149575271D01*
X121910778Y-149611009D01*
X121994443Y-149767534D01*
X122045963Y-149937373D01*
X122063359Y-150114000D01*
X122045963Y-150290627D01*
X121994443Y-150460466D01*
X121910778Y-150616991D01*
X121881448Y-150652729D01*
X121798186Y-150754186D01*
X121696729Y-150837448D01*
X121660991Y-150866778D01*
X121504466Y-150950443D01*
X121334627Y-151001963D01*
X121268443Y-151008481D01*
X121202260Y-151015000D01*
X121113740Y-151015000D01*
X121047557Y-151008481D01*
X120981373Y-151001963D01*
X120811534Y-150950443D01*
X120655009Y-150866778D01*
X120619271Y-150837448D01*
X120517814Y-150754186D01*
X120434552Y-150652729D01*
X120405222Y-150616991D01*
X120321557Y-150460466D01*
X120270037Y-150290627D01*
X120252641Y-150114000D01*
X120270037Y-149937373D01*
X120321557Y-149767534D01*
X120405222Y-149611009D01*
X120434552Y-149575271D01*
X120517814Y-149473814D01*
X120619271Y-149390552D01*
X120655009Y-149361222D01*
X120811534Y-149277557D01*
X120981373Y-149226037D01*
X121047557Y-149219519D01*
X121113740Y-149213000D01*
X121202260Y-149213000D01*
X121268443Y-149219519D01*
X121268443Y-149219519D01*
G37*
G36*
X119519000Y-151015000D02*
G01*
X117717000Y-151015000D01*
X117717000Y-149213000D01*
X119519000Y-149213000D01*
X119519000Y-151015000D01*
X119519000Y-151015000D01*
G37*
G36*
X126348443Y-149219519D02*
G01*
X126414627Y-149226037D01*
X126584466Y-149277557D01*
X126740991Y-149361222D01*
X126776729Y-149390552D01*
X126878186Y-149473814D01*
X126961448Y-149575271D01*
X126990778Y-149611009D01*
X127074443Y-149767534D01*
X127125963Y-149937373D01*
X127143359Y-150114000D01*
X127125963Y-150290627D01*
X127074443Y-150460466D01*
X126990778Y-150616991D01*
X126961448Y-150652729D01*
X126878186Y-150754186D01*
X126776729Y-150837448D01*
X126740991Y-150866778D01*
X126584466Y-150950443D01*
X126414627Y-151001963D01*
X126348443Y-151008481D01*
X126282260Y-151015000D01*
X126193740Y-151015000D01*
X126127557Y-151008481D01*
X126061373Y-151001963D01*
X125891534Y-150950443D01*
X125735009Y-150866778D01*
X125699271Y-150837448D01*
X125597814Y-150754186D01*
X125514552Y-150652729D01*
X125485222Y-150616991D01*
X125401557Y-150460466D01*
X125350037Y-150290627D01*
X125332641Y-150114000D01*
X125350037Y-149937373D01*
X125401557Y-149767534D01*
X125485222Y-149611009D01*
X125514552Y-149575271D01*
X125597814Y-149473814D01*
X125699271Y-149390552D01*
X125735009Y-149361222D01*
X125891534Y-149277557D01*
X126061373Y-149226037D01*
X126127557Y-149219519D01*
X126193740Y-149213000D01*
X126282260Y-149213000D01*
X126348443Y-149219519D01*
X126348443Y-149219519D01*
G37*
G36*
X123808443Y-149219519D02*
G01*
X123874627Y-149226037D01*
X124044466Y-149277557D01*
X124200991Y-149361222D01*
X124236729Y-149390552D01*
X124338186Y-149473814D01*
X124421448Y-149575271D01*
X124450778Y-149611009D01*
X124534443Y-149767534D01*
X124585963Y-149937373D01*
X124603359Y-150114000D01*
X124585963Y-150290627D01*
X124534443Y-150460466D01*
X124450778Y-150616991D01*
X124421448Y-150652729D01*
X124338186Y-150754186D01*
X124236729Y-150837448D01*
X124200991Y-150866778D01*
X124044466Y-150950443D01*
X123874627Y-151001963D01*
X123808443Y-151008481D01*
X123742260Y-151015000D01*
X123653740Y-151015000D01*
X123587557Y-151008481D01*
X123521373Y-151001963D01*
X123351534Y-150950443D01*
X123195009Y-150866778D01*
X123159271Y-150837448D01*
X123057814Y-150754186D01*
X122974552Y-150652729D01*
X122945222Y-150616991D01*
X122861557Y-150460466D01*
X122810037Y-150290627D01*
X122792641Y-150114000D01*
X122810037Y-149937373D01*
X122861557Y-149767534D01*
X122945222Y-149611009D01*
X122974552Y-149575271D01*
X123057814Y-149473814D01*
X123159271Y-149390552D01*
X123195009Y-149361222D01*
X123351534Y-149277557D01*
X123521373Y-149226037D01*
X123587557Y-149219519D01*
X123653740Y-149213000D01*
X123742260Y-149213000D01*
X123808443Y-149219519D01*
X123808443Y-149219519D01*
G37*
G36*
X129344823Y-144449313D02*
G01*
X129505242Y-144497976D01*
X129637906Y-144568886D01*
X129653078Y-144576996D01*
X129782659Y-144683341D01*
X129889004Y-144812922D01*
X129889005Y-144812924D01*
X129968024Y-144960758D01*
X130016687Y-145121177D01*
X130033117Y-145288000D01*
X130016687Y-145454823D01*
X129968024Y-145615242D01*
X129897114Y-145747906D01*
X129889004Y-145763078D01*
X129782659Y-145892659D01*
X129653078Y-145999004D01*
X129653076Y-145999005D01*
X129505242Y-146078024D01*
X129344823Y-146126687D01*
X129219804Y-146139000D01*
X128336196Y-146139000D01*
X128211177Y-146126687D01*
X128050758Y-146078024D01*
X127902924Y-145999005D01*
X127902922Y-145999004D01*
X127773341Y-145892659D01*
X127666996Y-145763078D01*
X127658886Y-145747906D01*
X127587976Y-145615242D01*
X127539313Y-145454823D01*
X127522883Y-145288000D01*
X127539313Y-145121177D01*
X127587976Y-144960758D01*
X127666995Y-144812924D01*
X127666996Y-144812922D01*
X127773341Y-144683341D01*
X127902922Y-144576996D01*
X127918094Y-144568886D01*
X128050758Y-144497976D01*
X128211177Y-144449313D01*
X128336196Y-144437000D01*
X129219804Y-144437000D01*
X129344823Y-144449313D01*
X129344823Y-144449313D01*
G37*
G36*
X136964823Y-144449313D02*
G01*
X137125242Y-144497976D01*
X137257906Y-144568886D01*
X137273078Y-144576996D01*
X137402659Y-144683341D01*
X137509004Y-144812922D01*
X137509005Y-144812924D01*
X137588024Y-144960758D01*
X137636687Y-145121177D01*
X137653117Y-145288000D01*
X137636687Y-145454823D01*
X137588024Y-145615242D01*
X137517114Y-145747906D01*
X137509004Y-145763078D01*
X137402659Y-145892659D01*
X137273078Y-145999004D01*
X137273076Y-145999005D01*
X137125242Y-146078024D01*
X136964823Y-146126687D01*
X136839804Y-146139000D01*
X135956196Y-146139000D01*
X135831177Y-146126687D01*
X135670758Y-146078024D01*
X135522924Y-145999005D01*
X135522922Y-145999004D01*
X135393341Y-145892659D01*
X135286996Y-145763078D01*
X135278886Y-145747906D01*
X135207976Y-145615242D01*
X135159313Y-145454823D01*
X135142883Y-145288000D01*
X135159313Y-145121177D01*
X135207976Y-144960758D01*
X135286995Y-144812924D01*
X135286996Y-144812922D01*
X135393341Y-144683341D01*
X135522922Y-144576996D01*
X135538094Y-144568886D01*
X135670758Y-144497976D01*
X135831177Y-144449313D01*
X135956196Y-144437000D01*
X136839804Y-144437000D01*
X136964823Y-144449313D01*
X136964823Y-144449313D01*
G37*
G36*
X129344823Y-141909313D02*
G01*
X129505242Y-141957976D01*
X129637906Y-142028886D01*
X129653078Y-142036996D01*
X129782659Y-142143341D01*
X129889004Y-142272922D01*
X129889005Y-142272924D01*
X129968024Y-142420758D01*
X130016687Y-142581177D01*
X130033117Y-142748000D01*
X130016687Y-142914823D01*
X129968024Y-143075242D01*
X129897114Y-143207906D01*
X129889004Y-143223078D01*
X129782659Y-143352659D01*
X129653078Y-143459004D01*
X129653076Y-143459005D01*
X129505242Y-143538024D01*
X129344823Y-143586687D01*
X129219804Y-143599000D01*
X128336196Y-143599000D01*
X128211177Y-143586687D01*
X128050758Y-143538024D01*
X127902924Y-143459005D01*
X127902922Y-143459004D01*
X127773341Y-143352659D01*
X127666996Y-143223078D01*
X127658886Y-143207906D01*
X127587976Y-143075242D01*
X127539313Y-142914823D01*
X127522883Y-142748000D01*
X127539313Y-142581177D01*
X127587976Y-142420758D01*
X127666995Y-142272924D01*
X127666996Y-142272922D01*
X127773341Y-142143341D01*
X127902922Y-142036996D01*
X127918094Y-142028886D01*
X128050758Y-141957976D01*
X128211177Y-141909313D01*
X128336196Y-141897000D01*
X129219804Y-141897000D01*
X129344823Y-141909313D01*
X129344823Y-141909313D01*
G37*
G36*
X136964823Y-141909313D02*
G01*
X137125242Y-141957976D01*
X137257906Y-142028886D01*
X137273078Y-142036996D01*
X137402659Y-142143341D01*
X137509004Y-142272922D01*
X137509005Y-142272924D01*
X137588024Y-142420758D01*
X137636687Y-142581177D01*
X137653117Y-142748000D01*
X137636687Y-142914823D01*
X137588024Y-143075242D01*
X137517114Y-143207906D01*
X137509004Y-143223078D01*
X137402659Y-143352659D01*
X137273078Y-143459004D01*
X137273076Y-143459005D01*
X137125242Y-143538024D01*
X136964823Y-143586687D01*
X136839804Y-143599000D01*
X135956196Y-143599000D01*
X135831177Y-143586687D01*
X135670758Y-143538024D01*
X135522924Y-143459005D01*
X135522922Y-143459004D01*
X135393341Y-143352659D01*
X135286996Y-143223078D01*
X135278886Y-143207906D01*
X135207976Y-143075242D01*
X135159313Y-142914823D01*
X135142883Y-142748000D01*
X135159313Y-142581177D01*
X135207976Y-142420758D01*
X135286995Y-142272924D01*
X135286996Y-142272922D01*
X135393341Y-142143341D01*
X135522922Y-142036996D01*
X135538094Y-142028886D01*
X135670758Y-141957976D01*
X135831177Y-141909313D01*
X135956196Y-141897000D01*
X136839804Y-141897000D01*
X136964823Y-141909313D01*
X136964823Y-141909313D01*
G37*
G36*
X109386823Y-139623313D02*
G01*
X109547242Y-139671976D01*
X109679906Y-139742886D01*
X109695078Y-139750996D01*
X109824659Y-139857341D01*
X109931004Y-139986922D01*
X109931005Y-139986924D01*
X110010024Y-140134758D01*
X110058687Y-140295177D01*
X110075117Y-140462000D01*
X110058687Y-140628823D01*
X110010024Y-140789242D01*
X109969477Y-140865100D01*
X109931004Y-140937078D01*
X109824659Y-141066659D01*
X109695078Y-141173004D01*
X109695076Y-141173005D01*
X109547242Y-141252024D01*
X109386823Y-141300687D01*
X109261804Y-141313000D01*
X109178196Y-141313000D01*
X109053177Y-141300687D01*
X108892758Y-141252024D01*
X108744924Y-141173005D01*
X108744922Y-141173004D01*
X108615341Y-141066659D01*
X108508996Y-140937078D01*
X108470523Y-140865100D01*
X108429976Y-140789242D01*
X108381313Y-140628823D01*
X108364883Y-140462000D01*
X108381313Y-140295177D01*
X108429976Y-140134758D01*
X108508995Y-139986924D01*
X108508996Y-139986922D01*
X108615341Y-139857341D01*
X108744922Y-139750996D01*
X108760094Y-139742886D01*
X108892758Y-139671976D01*
X109053177Y-139623313D01*
X109178196Y-139611000D01*
X109261804Y-139611000D01*
X109386823Y-139623313D01*
X109386823Y-139623313D01*
G37*
G36*
X117088228Y-139643703D02*
G01*
X117243100Y-139707853D01*
X117382481Y-139800985D01*
X117501015Y-139919519D01*
X117594147Y-140058900D01*
X117658297Y-140213772D01*
X117691000Y-140378184D01*
X117691000Y-140545816D01*
X117658297Y-140710228D01*
X117594147Y-140865100D01*
X117501015Y-141004481D01*
X117382481Y-141123015D01*
X117243100Y-141216147D01*
X117088228Y-141280297D01*
X116923816Y-141313000D01*
X116756184Y-141313000D01*
X116591772Y-141280297D01*
X116436900Y-141216147D01*
X116297519Y-141123015D01*
X116178985Y-141004481D01*
X116085853Y-140865100D01*
X116021703Y-140710228D01*
X115989000Y-140545816D01*
X115989000Y-140378184D01*
X116021703Y-140213772D01*
X116085853Y-140058900D01*
X116178985Y-139919519D01*
X116297519Y-139800985D01*
X116436900Y-139707853D01*
X116591772Y-139643703D01*
X116756184Y-139611000D01*
X116923816Y-139611000D01*
X117088228Y-139643703D01*
X117088228Y-139643703D01*
G37*
G36*
X136964823Y-139369313D02*
G01*
X137125242Y-139417976D01*
X137255366Y-139487529D01*
X137273078Y-139496996D01*
X137402659Y-139603341D01*
X137509004Y-139732922D01*
X137509005Y-139732924D01*
X137588024Y-139880758D01*
X137636687Y-140041177D01*
X137653117Y-140208000D01*
X137636687Y-140374823D01*
X137588024Y-140535242D01*
X137538004Y-140628823D01*
X137509004Y-140683078D01*
X137402659Y-140812659D01*
X137273078Y-140919004D01*
X137273076Y-140919005D01*
X137125242Y-140998024D01*
X136964823Y-141046687D01*
X136839804Y-141059000D01*
X135956196Y-141059000D01*
X135831177Y-141046687D01*
X135670758Y-140998024D01*
X135522924Y-140919005D01*
X135522922Y-140919004D01*
X135393341Y-140812659D01*
X135286996Y-140683078D01*
X135257996Y-140628823D01*
X135207976Y-140535242D01*
X135159313Y-140374823D01*
X135142883Y-140208000D01*
X135159313Y-140041177D01*
X135207976Y-139880758D01*
X135286995Y-139732924D01*
X135286996Y-139732922D01*
X135393341Y-139603341D01*
X135522922Y-139496996D01*
X135540634Y-139487529D01*
X135670758Y-139417976D01*
X135831177Y-139369313D01*
X135956196Y-139357000D01*
X136839804Y-139357000D01*
X136964823Y-139369313D01*
X136964823Y-139369313D01*
G37*
G36*
X129344823Y-139369313D02*
G01*
X129505242Y-139417976D01*
X129635366Y-139487529D01*
X129653078Y-139496996D01*
X129782659Y-139603341D01*
X129889004Y-139732922D01*
X129889005Y-139732924D01*
X129968024Y-139880758D01*
X130016687Y-140041177D01*
X130033117Y-140208000D01*
X130016687Y-140374823D01*
X129968024Y-140535242D01*
X129918004Y-140628823D01*
X129889004Y-140683078D01*
X129782659Y-140812659D01*
X129653078Y-140919004D01*
X129653076Y-140919005D01*
X129505242Y-140998024D01*
X129344823Y-141046687D01*
X129219804Y-141059000D01*
X128336196Y-141059000D01*
X128211177Y-141046687D01*
X128050758Y-140998024D01*
X127902924Y-140919005D01*
X127902922Y-140919004D01*
X127773341Y-140812659D01*
X127666996Y-140683078D01*
X127637996Y-140628823D01*
X127587976Y-140535242D01*
X127539313Y-140374823D01*
X127522883Y-140208000D01*
X127539313Y-140041177D01*
X127587976Y-139880758D01*
X127666995Y-139732924D01*
X127666996Y-139732922D01*
X127773341Y-139603341D01*
X127902922Y-139496996D01*
X127920634Y-139487529D01*
X128050758Y-139417976D01*
X128211177Y-139369313D01*
X128336196Y-139357000D01*
X129219804Y-139357000D01*
X129344823Y-139369313D01*
X129344823Y-139369313D01*
G37*
G36*
X132825142Y-139426242D02*
G01*
X132973101Y-139487529D01*
X133106255Y-139576499D01*
X133219501Y-139689745D01*
X133308471Y-139822899D01*
X133369758Y-139970858D01*
X133401000Y-140127925D01*
X133401000Y-140288075D01*
X133369758Y-140445142D01*
X133308471Y-140593101D01*
X133219501Y-140726255D01*
X133106255Y-140839501D01*
X132973101Y-140928471D01*
X132825142Y-140989758D01*
X132668075Y-141021000D01*
X132507925Y-141021000D01*
X132350858Y-140989758D01*
X132202899Y-140928471D01*
X132069745Y-140839501D01*
X131956499Y-140726255D01*
X131867529Y-140593101D01*
X131806242Y-140445142D01*
X131775000Y-140288075D01*
X131775000Y-140127925D01*
X131806242Y-139970858D01*
X131867529Y-139822899D01*
X131956499Y-139689745D01*
X132069745Y-139576499D01*
X132202899Y-139487529D01*
X132350858Y-139426242D01*
X132507925Y-139395000D01*
X132668075Y-139395000D01*
X132825142Y-139426242D01*
X132825142Y-139426242D01*
G37*
G36*
X136964823Y-136829313D02*
G01*
X137125242Y-136877976D01*
X137257906Y-136948886D01*
X137273078Y-136956996D01*
X137402659Y-137063341D01*
X137509004Y-137192922D01*
X137509005Y-137192924D01*
X137588024Y-137340758D01*
X137636687Y-137501177D01*
X137653117Y-137668000D01*
X137636687Y-137834823D01*
X137588024Y-137995242D01*
X137575507Y-138018659D01*
X137509004Y-138143078D01*
X137402659Y-138272659D01*
X137273078Y-138379004D01*
X137273076Y-138379005D01*
X137125242Y-138458024D01*
X136964823Y-138506687D01*
X136839804Y-138519000D01*
X135956196Y-138519000D01*
X135831177Y-138506687D01*
X135670758Y-138458024D01*
X135522924Y-138379005D01*
X135522922Y-138379004D01*
X135393341Y-138272659D01*
X135286996Y-138143078D01*
X135220493Y-138018659D01*
X135207976Y-137995242D01*
X135159313Y-137834823D01*
X135142883Y-137668000D01*
X135159313Y-137501177D01*
X135207976Y-137340758D01*
X135286995Y-137192924D01*
X135286996Y-137192922D01*
X135393341Y-137063341D01*
X135522922Y-136956996D01*
X135538094Y-136948886D01*
X135670758Y-136877976D01*
X135831177Y-136829313D01*
X135956196Y-136817000D01*
X136839804Y-136817000D01*
X136964823Y-136829313D01*
X136964823Y-136829313D01*
G37*
G36*
X129344823Y-136829313D02*
G01*
X129505242Y-136877976D01*
X129637906Y-136948886D01*
X129653078Y-136956996D01*
X129782659Y-137063341D01*
X129889004Y-137192922D01*
X129889005Y-137192924D01*
X129968024Y-137340758D01*
X130016687Y-137501177D01*
X130033117Y-137668000D01*
X130016687Y-137834823D01*
X129968024Y-137995242D01*
X129955507Y-138018659D01*
X129889004Y-138143078D01*
X129782659Y-138272659D01*
X129653078Y-138379004D01*
X129653076Y-138379005D01*
X129505242Y-138458024D01*
X129344823Y-138506687D01*
X129219804Y-138519000D01*
X128336196Y-138519000D01*
X128211177Y-138506687D01*
X128050758Y-138458024D01*
X127902924Y-138379005D01*
X127902922Y-138379004D01*
X127773341Y-138272659D01*
X127666996Y-138143078D01*
X127600493Y-138018659D01*
X127587976Y-137995242D01*
X127539313Y-137834823D01*
X127522883Y-137668000D01*
X127539313Y-137501177D01*
X127587976Y-137340758D01*
X127666995Y-137192924D01*
X127666996Y-137192922D01*
X127773341Y-137063341D01*
X127902922Y-136956996D01*
X127918094Y-136948886D01*
X128050758Y-136877976D01*
X128211177Y-136829313D01*
X128336196Y-136817000D01*
X129219804Y-136817000D01*
X129344823Y-136829313D01*
X129344823Y-136829313D01*
G37*
G36*
X109386823Y-136575313D02*
G01*
X109547242Y-136623976D01*
X109614361Y-136659852D01*
X109695078Y-136702996D01*
X109824659Y-136809341D01*
X109931004Y-136938922D01*
X109931005Y-136938924D01*
X110010024Y-137086758D01*
X110058687Y-137247177D01*
X110075117Y-137414000D01*
X110058687Y-137580823D01*
X110010024Y-137741242D01*
X109969477Y-137817100D01*
X109931004Y-137889078D01*
X109824659Y-138018659D01*
X109695078Y-138125004D01*
X109695076Y-138125005D01*
X109547242Y-138204024D01*
X109386823Y-138252687D01*
X109261804Y-138265000D01*
X109178196Y-138265000D01*
X109053177Y-138252687D01*
X108892758Y-138204024D01*
X108744924Y-138125005D01*
X108744922Y-138125004D01*
X108615341Y-138018659D01*
X108508996Y-137889078D01*
X108470523Y-137817100D01*
X108429976Y-137741242D01*
X108381313Y-137580823D01*
X108364883Y-137414000D01*
X108381313Y-137247177D01*
X108429976Y-137086758D01*
X108508995Y-136938924D01*
X108508996Y-136938922D01*
X108615341Y-136809341D01*
X108744922Y-136702996D01*
X108825639Y-136659852D01*
X108892758Y-136623976D01*
X109053177Y-136575313D01*
X109178196Y-136563000D01*
X109261804Y-136563000D01*
X109386823Y-136575313D01*
X109386823Y-136575313D01*
G37*
G36*
X117088228Y-136595703D02*
G01*
X117243100Y-136659853D01*
X117382481Y-136752985D01*
X117501015Y-136871519D01*
X117594147Y-137010900D01*
X117658297Y-137165772D01*
X117691000Y-137330184D01*
X117691000Y-137497816D01*
X117658297Y-137662228D01*
X117594147Y-137817100D01*
X117501015Y-137956481D01*
X117382481Y-138075015D01*
X117243100Y-138168147D01*
X117088228Y-138232297D01*
X116923816Y-138265000D01*
X116756184Y-138265000D01*
X116591772Y-138232297D01*
X116436900Y-138168147D01*
X116297519Y-138075015D01*
X116178985Y-137956481D01*
X116085853Y-137817100D01*
X116021703Y-137662228D01*
X115989000Y-137497816D01*
X115989000Y-137330184D01*
X116021703Y-137165772D01*
X116085853Y-137010900D01*
X116178985Y-136871519D01*
X116297519Y-136752985D01*
X116436900Y-136659853D01*
X116591772Y-136595703D01*
X116756184Y-136563000D01*
X116923816Y-136563000D01*
X117088228Y-136595703D01*
X117088228Y-136595703D01*
G37*
G36*
X129344823Y-134289313D02*
G01*
X129505242Y-134337976D01*
X129637906Y-134408886D01*
X129653078Y-134416996D01*
X129782659Y-134523341D01*
X129889004Y-134652922D01*
X129889005Y-134652924D01*
X129968024Y-134800758D01*
X130016687Y-134961177D01*
X130033117Y-135128000D01*
X130016687Y-135294823D01*
X129968024Y-135455242D01*
X129897114Y-135587906D01*
X129889004Y-135603078D01*
X129782659Y-135732659D01*
X129653078Y-135839004D01*
X129653076Y-135839005D01*
X129505242Y-135918024D01*
X129344823Y-135966687D01*
X129219804Y-135979000D01*
X128336196Y-135979000D01*
X128211177Y-135966687D01*
X128050758Y-135918024D01*
X127902924Y-135839005D01*
X127902922Y-135839004D01*
X127773341Y-135732659D01*
X127666996Y-135603078D01*
X127658886Y-135587906D01*
X127587976Y-135455242D01*
X127539313Y-135294823D01*
X127522883Y-135128000D01*
X127539313Y-134961177D01*
X127587976Y-134800758D01*
X127666995Y-134652924D01*
X127666996Y-134652922D01*
X127773341Y-134523341D01*
X127902922Y-134416996D01*
X127918094Y-134408886D01*
X128050758Y-134337976D01*
X128211177Y-134289313D01*
X128336196Y-134277000D01*
X129219804Y-134277000D01*
X129344823Y-134289313D01*
X129344823Y-134289313D01*
G37*
G36*
X136964823Y-134289313D02*
G01*
X137125242Y-134337976D01*
X137257906Y-134408886D01*
X137273078Y-134416996D01*
X137402659Y-134523341D01*
X137509004Y-134652922D01*
X137509005Y-134652924D01*
X137588024Y-134800758D01*
X137636687Y-134961177D01*
X137653117Y-135128000D01*
X137636687Y-135294823D01*
X137588024Y-135455242D01*
X137517114Y-135587906D01*
X137509004Y-135603078D01*
X137402659Y-135732659D01*
X137273078Y-135839004D01*
X137273076Y-135839005D01*
X137125242Y-135918024D01*
X136964823Y-135966687D01*
X136839804Y-135979000D01*
X135956196Y-135979000D01*
X135831177Y-135966687D01*
X135670758Y-135918024D01*
X135522924Y-135839005D01*
X135522922Y-135839004D01*
X135393341Y-135732659D01*
X135286996Y-135603078D01*
X135278886Y-135587906D01*
X135207976Y-135455242D01*
X135159313Y-135294823D01*
X135142883Y-135128000D01*
X135159313Y-134961177D01*
X135207976Y-134800758D01*
X135286995Y-134652924D01*
X135286996Y-134652922D01*
X135393341Y-134523341D01*
X135522922Y-134416996D01*
X135538094Y-134408886D01*
X135670758Y-134337976D01*
X135831177Y-134289313D01*
X135956196Y-134277000D01*
X136839804Y-134277000D01*
X136964823Y-134289313D01*
X136964823Y-134289313D01*
G37*
G36*
X111564823Y-133273313D02*
G01*
X111725242Y-133321976D01*
X111830100Y-133378024D01*
X111873078Y-133400996D01*
X112002659Y-133507341D01*
X112109004Y-133636922D01*
X112109005Y-133636924D01*
X112188024Y-133784758D01*
X112236687Y-133945177D01*
X112253117Y-134112000D01*
X112236687Y-134278823D01*
X112188024Y-134439242D01*
X112143072Y-134523341D01*
X112109004Y-134587078D01*
X112002659Y-134716659D01*
X111873078Y-134823004D01*
X111873076Y-134823005D01*
X111725242Y-134902024D01*
X111564823Y-134950687D01*
X111439804Y-134963000D01*
X110556196Y-134963000D01*
X110431177Y-134950687D01*
X110270758Y-134902024D01*
X110122924Y-134823005D01*
X110122922Y-134823004D01*
X109993341Y-134716659D01*
X109886996Y-134587078D01*
X109852928Y-134523341D01*
X109807976Y-134439242D01*
X109759313Y-134278823D01*
X109742883Y-134112000D01*
X109759313Y-133945177D01*
X109807976Y-133784758D01*
X109886995Y-133636924D01*
X109886996Y-133636922D01*
X109993341Y-133507341D01*
X110122922Y-133400996D01*
X110165900Y-133378024D01*
X110270758Y-133321976D01*
X110431177Y-133273313D01*
X110556196Y-133261000D01*
X111439804Y-133261000D01*
X111564823Y-133273313D01*
X111564823Y-133273313D01*
G37*
G36*
X119869000Y-134963000D02*
G01*
X117367000Y-134963000D01*
X117367000Y-133261000D01*
X119869000Y-133261000D01*
X119869000Y-134963000D01*
X119869000Y-134963000D01*
G37*
G36*
X122594823Y-133273313D02*
G01*
X122755242Y-133321976D01*
X122860100Y-133378024D01*
X122903078Y-133400996D01*
X123032659Y-133507341D01*
X123139004Y-133636922D01*
X123139005Y-133636924D01*
X123218024Y-133784758D01*
X123266687Y-133945177D01*
X123283117Y-134112000D01*
X123266687Y-134278823D01*
X123218024Y-134439242D01*
X123173072Y-134523341D01*
X123139004Y-134587078D01*
X123032659Y-134716659D01*
X122903078Y-134823004D01*
X122903076Y-134823005D01*
X122755242Y-134902024D01*
X122594823Y-134950687D01*
X122469804Y-134963000D01*
X122386196Y-134963000D01*
X122261177Y-134950687D01*
X122100758Y-134902024D01*
X121952924Y-134823005D01*
X121952922Y-134823004D01*
X121823341Y-134716659D01*
X121716996Y-134587078D01*
X121682928Y-134523341D01*
X121637976Y-134439242D01*
X121589313Y-134278823D01*
X121572883Y-134112000D01*
X121589313Y-133945177D01*
X121637976Y-133784758D01*
X121716995Y-133636924D01*
X121716996Y-133636922D01*
X121823341Y-133507341D01*
X121952922Y-133400996D01*
X121995900Y-133378024D01*
X122100758Y-133321976D01*
X122261177Y-133273313D01*
X122386196Y-133261000D01*
X122469804Y-133261000D01*
X122594823Y-133273313D01*
X122594823Y-133273313D01*
G37*
G36*
X129344823Y-131749313D02*
G01*
X129505242Y-131797976D01*
X129637906Y-131868886D01*
X129653078Y-131876996D01*
X129782659Y-131983341D01*
X129889004Y-132112922D01*
X129889005Y-132112924D01*
X129968024Y-132260758D01*
X130016687Y-132421177D01*
X130033117Y-132588000D01*
X130016687Y-132754823D01*
X129968024Y-132915242D01*
X129897114Y-133047906D01*
X129889004Y-133063078D01*
X129782659Y-133192659D01*
X129653078Y-133299004D01*
X129653076Y-133299005D01*
X129505242Y-133378024D01*
X129344823Y-133426687D01*
X129219804Y-133439000D01*
X128336196Y-133439000D01*
X128211177Y-133426687D01*
X128050758Y-133378024D01*
X127902924Y-133299005D01*
X127902922Y-133299004D01*
X127773341Y-133192659D01*
X127666996Y-133063078D01*
X127658886Y-133047906D01*
X127587976Y-132915242D01*
X127539313Y-132754823D01*
X127522883Y-132588000D01*
X127539313Y-132421177D01*
X127587976Y-132260758D01*
X127666995Y-132112924D01*
X127666996Y-132112922D01*
X127773341Y-131983341D01*
X127902922Y-131876996D01*
X127918094Y-131868886D01*
X128050758Y-131797976D01*
X128211177Y-131749313D01*
X128336196Y-131737000D01*
X129219804Y-131737000D01*
X129344823Y-131749313D01*
X129344823Y-131749313D01*
G37*
G36*
X136964823Y-131749313D02*
G01*
X137125242Y-131797976D01*
X137257906Y-131868886D01*
X137273078Y-131876996D01*
X137402659Y-131983341D01*
X137509004Y-132112922D01*
X137509005Y-132112924D01*
X137588024Y-132260758D01*
X137636687Y-132421177D01*
X137653117Y-132588000D01*
X137636687Y-132754823D01*
X137588024Y-132915242D01*
X137517114Y-133047906D01*
X137509004Y-133063078D01*
X137402659Y-133192659D01*
X137273078Y-133299004D01*
X137273076Y-133299005D01*
X137125242Y-133378024D01*
X136964823Y-133426687D01*
X136839804Y-133439000D01*
X135956196Y-133439000D01*
X135831177Y-133426687D01*
X135670758Y-133378024D01*
X135522924Y-133299005D01*
X135522922Y-133299004D01*
X135393341Y-133192659D01*
X135286996Y-133063078D01*
X135278886Y-133047906D01*
X135207976Y-132915242D01*
X135159313Y-132754823D01*
X135142883Y-132588000D01*
X135159313Y-132421177D01*
X135207976Y-132260758D01*
X135286995Y-132112924D01*
X135286996Y-132112922D01*
X135393341Y-131983341D01*
X135522922Y-131876996D01*
X135538094Y-131868886D01*
X135670758Y-131797976D01*
X135831177Y-131749313D01*
X135956196Y-131737000D01*
X136839804Y-131737000D01*
X136964823Y-131749313D01*
X136964823Y-131749313D01*
G37*
G36*
X119184823Y-130733313D02*
G01*
X119345242Y-130781976D01*
X119450100Y-130838024D01*
X119493078Y-130860996D01*
X119622659Y-130967341D01*
X119729004Y-131096922D01*
X119729005Y-131096924D01*
X119808024Y-131244758D01*
X119856687Y-131405177D01*
X119873117Y-131572000D01*
X119856687Y-131738823D01*
X119808024Y-131899242D01*
X119763072Y-131983341D01*
X119729004Y-132047078D01*
X119622659Y-132176659D01*
X119493078Y-132283004D01*
X119493076Y-132283005D01*
X119345242Y-132362024D01*
X119184823Y-132410687D01*
X119059804Y-132423000D01*
X118176196Y-132423000D01*
X118051177Y-132410687D01*
X117890758Y-132362024D01*
X117742924Y-132283005D01*
X117742922Y-132283004D01*
X117613341Y-132176659D01*
X117506996Y-132047078D01*
X117472928Y-131983341D01*
X117427976Y-131899242D01*
X117379313Y-131738823D01*
X117362883Y-131572000D01*
X117379313Y-131405177D01*
X117427976Y-131244758D01*
X117506995Y-131096924D01*
X117506996Y-131096922D01*
X117613341Y-130967341D01*
X117742922Y-130860996D01*
X117785900Y-130838024D01*
X117890758Y-130781976D01*
X118051177Y-130733313D01*
X118176196Y-130721000D01*
X119059804Y-130721000D01*
X119184823Y-130733313D01*
X119184823Y-130733313D01*
G37*
G36*
X111564823Y-130733313D02*
G01*
X111725242Y-130781976D01*
X111830100Y-130838024D01*
X111873078Y-130860996D01*
X112002659Y-130967341D01*
X112109004Y-131096922D01*
X112109005Y-131096924D01*
X112188024Y-131244758D01*
X112236687Y-131405177D01*
X112253117Y-131572000D01*
X112236687Y-131738823D01*
X112188024Y-131899242D01*
X112143072Y-131983341D01*
X112109004Y-132047078D01*
X112002659Y-132176659D01*
X111873078Y-132283004D01*
X111873076Y-132283005D01*
X111725242Y-132362024D01*
X111564823Y-132410687D01*
X111439804Y-132423000D01*
X110556196Y-132423000D01*
X110431177Y-132410687D01*
X110270758Y-132362024D01*
X110122924Y-132283005D01*
X110122922Y-132283004D01*
X109993341Y-132176659D01*
X109886996Y-132047078D01*
X109852928Y-131983341D01*
X109807976Y-131899242D01*
X109759313Y-131738823D01*
X109742883Y-131572000D01*
X109759313Y-131405177D01*
X109807976Y-131244758D01*
X109886995Y-131096924D01*
X109886996Y-131096922D01*
X109993341Y-130967341D01*
X110122922Y-130860996D01*
X110165900Y-130838024D01*
X110270758Y-130781976D01*
X110431177Y-130733313D01*
X110556196Y-130721000D01*
X111439804Y-130721000D01*
X111564823Y-130733313D01*
X111564823Y-130733313D01*
G37*
G36*
X129344823Y-129209313D02*
G01*
X129505242Y-129257976D01*
X129637906Y-129328886D01*
X129653078Y-129336996D01*
X129782659Y-129443341D01*
X129889004Y-129572922D01*
X129889005Y-129572924D01*
X129968024Y-129720758D01*
X130016687Y-129881177D01*
X130033117Y-130048000D01*
X130016687Y-130214823D01*
X129968024Y-130375242D01*
X129897114Y-130507906D01*
X129889004Y-130523078D01*
X129782659Y-130652659D01*
X129653078Y-130759004D01*
X129653076Y-130759005D01*
X129505242Y-130838024D01*
X129344823Y-130886687D01*
X129219804Y-130899000D01*
X128336196Y-130899000D01*
X128211177Y-130886687D01*
X128050758Y-130838024D01*
X127902924Y-130759005D01*
X127902922Y-130759004D01*
X127773341Y-130652659D01*
X127666996Y-130523078D01*
X127658886Y-130507906D01*
X127587976Y-130375242D01*
X127539313Y-130214823D01*
X127522883Y-130048000D01*
X127539313Y-129881177D01*
X127587976Y-129720758D01*
X127666995Y-129572924D01*
X127666996Y-129572922D01*
X127773341Y-129443341D01*
X127902922Y-129336996D01*
X127918094Y-129328886D01*
X128050758Y-129257976D01*
X128211177Y-129209313D01*
X128336196Y-129197000D01*
X129219804Y-129197000D01*
X129344823Y-129209313D01*
X129344823Y-129209313D01*
G37*
G36*
X136964823Y-129209313D02*
G01*
X137125242Y-129257976D01*
X137257906Y-129328886D01*
X137273078Y-129336996D01*
X137402659Y-129443341D01*
X137509004Y-129572922D01*
X137509005Y-129572924D01*
X137588024Y-129720758D01*
X137636687Y-129881177D01*
X137653117Y-130048000D01*
X137636687Y-130214823D01*
X137588024Y-130375242D01*
X137517114Y-130507906D01*
X137509004Y-130523078D01*
X137402659Y-130652659D01*
X137273078Y-130759004D01*
X137273076Y-130759005D01*
X137125242Y-130838024D01*
X136964823Y-130886687D01*
X136839804Y-130899000D01*
X135956196Y-130899000D01*
X135831177Y-130886687D01*
X135670758Y-130838024D01*
X135522924Y-130759005D01*
X135522922Y-130759004D01*
X135393341Y-130652659D01*
X135286996Y-130523078D01*
X135278886Y-130507906D01*
X135207976Y-130375242D01*
X135159313Y-130214823D01*
X135142883Y-130048000D01*
X135159313Y-129881177D01*
X135207976Y-129720758D01*
X135286995Y-129572924D01*
X135286996Y-129572922D01*
X135393341Y-129443341D01*
X135522922Y-129336996D01*
X135538094Y-129328886D01*
X135670758Y-129257976D01*
X135831177Y-129209313D01*
X135956196Y-129197000D01*
X136839804Y-129197000D01*
X136964823Y-129209313D01*
X136964823Y-129209313D01*
G37*
G36*
X111564823Y-128193313D02*
G01*
X111725242Y-128241976D01*
X111830100Y-128298024D01*
X111873078Y-128320996D01*
X112002659Y-128427341D01*
X112109004Y-128556922D01*
X112109005Y-128556924D01*
X112188024Y-128704758D01*
X112236687Y-128865177D01*
X112253117Y-129032000D01*
X112236687Y-129198823D01*
X112188024Y-129359242D01*
X112143072Y-129443341D01*
X112109004Y-129507078D01*
X112002659Y-129636659D01*
X111873078Y-129743004D01*
X111873076Y-129743005D01*
X111725242Y-129822024D01*
X111564823Y-129870687D01*
X111439804Y-129883000D01*
X110556196Y-129883000D01*
X110431177Y-129870687D01*
X110270758Y-129822024D01*
X110122924Y-129743005D01*
X110122922Y-129743004D01*
X109993341Y-129636659D01*
X109886996Y-129507078D01*
X109852928Y-129443341D01*
X109807976Y-129359242D01*
X109759313Y-129198823D01*
X109742883Y-129032000D01*
X109759313Y-128865177D01*
X109807976Y-128704758D01*
X109886995Y-128556924D01*
X109886996Y-128556922D01*
X109993341Y-128427341D01*
X110122922Y-128320996D01*
X110165900Y-128298024D01*
X110270758Y-128241976D01*
X110431177Y-128193313D01*
X110556196Y-128181000D01*
X111439804Y-128181000D01*
X111564823Y-128193313D01*
X111564823Y-128193313D01*
G37*
G36*
X119184823Y-128193313D02*
G01*
X119345242Y-128241976D01*
X119450100Y-128298024D01*
X119493078Y-128320996D01*
X119622659Y-128427341D01*
X119729004Y-128556922D01*
X119729005Y-128556924D01*
X119808024Y-128704758D01*
X119856687Y-128865177D01*
X119873117Y-129032000D01*
X119856687Y-129198823D01*
X119808024Y-129359242D01*
X119763072Y-129443341D01*
X119729004Y-129507078D01*
X119622659Y-129636659D01*
X119493078Y-129743004D01*
X119493076Y-129743005D01*
X119345242Y-129822024D01*
X119184823Y-129870687D01*
X119059804Y-129883000D01*
X118176196Y-129883000D01*
X118051177Y-129870687D01*
X117890758Y-129822024D01*
X117742924Y-129743005D01*
X117742922Y-129743004D01*
X117613341Y-129636659D01*
X117506996Y-129507078D01*
X117472928Y-129443341D01*
X117427976Y-129359242D01*
X117379313Y-129198823D01*
X117362883Y-129032000D01*
X117379313Y-128865177D01*
X117427976Y-128704758D01*
X117506995Y-128556924D01*
X117506996Y-128556922D01*
X117613341Y-128427341D01*
X117742922Y-128320996D01*
X117785900Y-128298024D01*
X117890758Y-128241976D01*
X118051177Y-128193313D01*
X118176196Y-128181000D01*
X119059804Y-128181000D01*
X119184823Y-128193313D01*
X119184823Y-128193313D01*
G37*
G36*
X136964823Y-126669313D02*
G01*
X137125242Y-126717976D01*
X137166874Y-126740229D01*
X137273078Y-126796996D01*
X137402659Y-126903341D01*
X137509004Y-127032922D01*
X137509005Y-127032924D01*
X137588024Y-127180758D01*
X137636687Y-127341177D01*
X137653117Y-127508000D01*
X137636687Y-127674823D01*
X137588024Y-127835242D01*
X137517114Y-127967906D01*
X137509004Y-127983078D01*
X137402659Y-128112659D01*
X137273078Y-128219004D01*
X137273076Y-128219005D01*
X137125242Y-128298024D01*
X136964823Y-128346687D01*
X136839804Y-128359000D01*
X135956196Y-128359000D01*
X135831177Y-128346687D01*
X135670758Y-128298024D01*
X135522924Y-128219005D01*
X135522922Y-128219004D01*
X135393341Y-128112659D01*
X135286996Y-127983078D01*
X135278886Y-127967906D01*
X135207976Y-127835242D01*
X135159313Y-127674823D01*
X135142883Y-127508000D01*
X135159313Y-127341177D01*
X135207976Y-127180758D01*
X135286995Y-127032924D01*
X135286996Y-127032922D01*
X135393341Y-126903341D01*
X135522922Y-126796996D01*
X135629126Y-126740229D01*
X135670758Y-126717976D01*
X135831177Y-126669313D01*
X135956196Y-126657000D01*
X136839804Y-126657000D01*
X136964823Y-126669313D01*
X136964823Y-126669313D01*
G37*
G36*
X129344823Y-126669313D02*
G01*
X129505242Y-126717976D01*
X129546874Y-126740229D01*
X129653078Y-126796996D01*
X129782659Y-126903341D01*
X129889004Y-127032922D01*
X129889005Y-127032924D01*
X129968024Y-127180758D01*
X130016687Y-127341177D01*
X130033117Y-127508000D01*
X130016687Y-127674823D01*
X129968024Y-127835242D01*
X129897114Y-127967906D01*
X129889004Y-127983078D01*
X129782659Y-128112659D01*
X129653078Y-128219004D01*
X129653076Y-128219005D01*
X129505242Y-128298024D01*
X129344823Y-128346687D01*
X129219804Y-128359000D01*
X128336196Y-128359000D01*
X128211177Y-128346687D01*
X128050758Y-128298024D01*
X127902924Y-128219005D01*
X127902922Y-128219004D01*
X127773341Y-128112659D01*
X127666996Y-127983078D01*
X127658886Y-127967906D01*
X127587976Y-127835242D01*
X127539313Y-127674823D01*
X127522883Y-127508000D01*
X127539313Y-127341177D01*
X127587976Y-127180758D01*
X127666995Y-127032924D01*
X127666996Y-127032922D01*
X127773341Y-126903341D01*
X127902922Y-126796996D01*
X128009126Y-126740229D01*
X128050758Y-126717976D01*
X128211177Y-126669313D01*
X128336196Y-126657000D01*
X129219804Y-126657000D01*
X129344823Y-126669313D01*
X129344823Y-126669313D01*
G37*
G36*
X122676228Y-125673703D02*
G01*
X122831100Y-125737853D01*
X122970481Y-125830985D01*
X123089015Y-125949519D01*
X123182147Y-126088900D01*
X123246297Y-126243772D01*
X123279000Y-126408184D01*
X123279000Y-126575816D01*
X123246297Y-126740228D01*
X123182147Y-126895100D01*
X123089015Y-127034481D01*
X122970481Y-127153015D01*
X122831100Y-127246147D01*
X122676228Y-127310297D01*
X122511816Y-127343000D01*
X122344184Y-127343000D01*
X122179772Y-127310297D01*
X122024900Y-127246147D01*
X121885519Y-127153015D01*
X121766985Y-127034481D01*
X121673853Y-126895100D01*
X121609703Y-126740228D01*
X121577000Y-126575816D01*
X121577000Y-126408184D01*
X121609703Y-126243772D01*
X121673853Y-126088900D01*
X121766985Y-125949519D01*
X121885519Y-125830985D01*
X122024900Y-125737853D01*
X122179772Y-125673703D01*
X122344184Y-125641000D01*
X122511816Y-125641000D01*
X122676228Y-125673703D01*
X122676228Y-125673703D01*
G37*
G36*
X111564823Y-125653313D02*
G01*
X111725242Y-125701976D01*
X111792361Y-125737852D01*
X111873078Y-125780996D01*
X112002659Y-125887341D01*
X112109004Y-126016922D01*
X112109005Y-126016924D01*
X112188024Y-126164758D01*
X112236687Y-126325177D01*
X112253117Y-126492000D01*
X112236687Y-126658823D01*
X112188024Y-126819242D01*
X112147477Y-126895100D01*
X112109004Y-126967078D01*
X112002659Y-127096659D01*
X111873078Y-127203004D01*
X111873076Y-127203005D01*
X111725242Y-127282024D01*
X111564823Y-127330687D01*
X111439804Y-127343000D01*
X110556196Y-127343000D01*
X110431177Y-127330687D01*
X110270758Y-127282024D01*
X110122924Y-127203005D01*
X110122922Y-127203004D01*
X109993341Y-127096659D01*
X109886996Y-126967078D01*
X109848523Y-126895100D01*
X109807976Y-126819242D01*
X109759313Y-126658823D01*
X109742883Y-126492000D01*
X109759313Y-126325177D01*
X109807976Y-126164758D01*
X109886995Y-126016924D01*
X109886996Y-126016922D01*
X109993341Y-125887341D01*
X110122922Y-125780996D01*
X110203639Y-125737852D01*
X110270758Y-125701976D01*
X110431177Y-125653313D01*
X110556196Y-125641000D01*
X111439804Y-125641000D01*
X111564823Y-125653313D01*
X111564823Y-125653313D01*
G37*
G36*
X119184823Y-125653313D02*
G01*
X119345242Y-125701976D01*
X119412361Y-125737852D01*
X119493078Y-125780996D01*
X119622659Y-125887341D01*
X119729004Y-126016922D01*
X119729005Y-126016924D01*
X119808024Y-126164758D01*
X119856687Y-126325177D01*
X119873117Y-126492000D01*
X119856687Y-126658823D01*
X119808024Y-126819242D01*
X119767477Y-126895100D01*
X119729004Y-126967078D01*
X119622659Y-127096659D01*
X119493078Y-127203004D01*
X119493076Y-127203005D01*
X119345242Y-127282024D01*
X119184823Y-127330687D01*
X119059804Y-127343000D01*
X118176196Y-127343000D01*
X118051177Y-127330687D01*
X117890758Y-127282024D01*
X117742924Y-127203005D01*
X117742922Y-127203004D01*
X117613341Y-127096659D01*
X117506996Y-126967078D01*
X117468523Y-126895100D01*
X117427976Y-126819242D01*
X117379313Y-126658823D01*
X117362883Y-126492000D01*
X117379313Y-126325177D01*
X117427976Y-126164758D01*
X117506995Y-126016924D01*
X117506996Y-126016922D01*
X117613341Y-125887341D01*
X117742922Y-125780996D01*
X117823639Y-125737852D01*
X117890758Y-125701976D01*
X118051177Y-125653313D01*
X118176196Y-125641000D01*
X119059804Y-125641000D01*
X119184823Y-125653313D01*
X119184823Y-125653313D01*
G37*
G36*
X129344823Y-124129313D02*
G01*
X129505242Y-124177976D01*
X129637906Y-124248886D01*
X129653078Y-124256996D01*
X129782659Y-124363341D01*
X129889004Y-124492922D01*
X129889005Y-124492924D01*
X129968024Y-124640758D01*
X130016687Y-124801177D01*
X130033117Y-124968000D01*
X130016687Y-125134823D01*
X129968024Y-125295242D01*
X129897114Y-125427906D01*
X129889004Y-125443078D01*
X129782659Y-125572659D01*
X129653078Y-125679004D01*
X129653076Y-125679005D01*
X129505242Y-125758024D01*
X129344823Y-125806687D01*
X129219804Y-125819000D01*
X128336196Y-125819000D01*
X128211177Y-125806687D01*
X128050758Y-125758024D01*
X127902924Y-125679005D01*
X127902922Y-125679004D01*
X127773341Y-125572659D01*
X127666996Y-125443078D01*
X127658886Y-125427906D01*
X127587976Y-125295242D01*
X127539313Y-125134823D01*
X127522883Y-124968000D01*
X127539313Y-124801177D01*
X127587976Y-124640758D01*
X127666995Y-124492924D01*
X127666996Y-124492922D01*
X127773341Y-124363341D01*
X127902922Y-124256996D01*
X127918094Y-124248886D01*
X128050758Y-124177976D01*
X128211177Y-124129313D01*
X128336196Y-124117000D01*
X129219804Y-124117000D01*
X129344823Y-124129313D01*
X129344823Y-124129313D01*
G37*
G36*
X136964823Y-124129313D02*
G01*
X137125242Y-124177976D01*
X137257906Y-124248886D01*
X137273078Y-124256996D01*
X137402659Y-124363341D01*
X137509004Y-124492922D01*
X137509005Y-124492924D01*
X137588024Y-124640758D01*
X137636687Y-124801177D01*
X137653117Y-124968000D01*
X137636687Y-125134823D01*
X137588024Y-125295242D01*
X137517114Y-125427906D01*
X137509004Y-125443078D01*
X137402659Y-125572659D01*
X137273078Y-125679004D01*
X137273076Y-125679005D01*
X137125242Y-125758024D01*
X136964823Y-125806687D01*
X136839804Y-125819000D01*
X135956196Y-125819000D01*
X135831177Y-125806687D01*
X135670758Y-125758024D01*
X135522924Y-125679005D01*
X135522922Y-125679004D01*
X135393341Y-125572659D01*
X135286996Y-125443078D01*
X135278886Y-125427906D01*
X135207976Y-125295242D01*
X135159313Y-125134823D01*
X135142883Y-124968000D01*
X135159313Y-124801177D01*
X135207976Y-124640758D01*
X135286995Y-124492924D01*
X135286996Y-124492922D01*
X135393341Y-124363341D01*
X135522922Y-124256996D01*
X135538094Y-124248886D01*
X135670758Y-124177976D01*
X135831177Y-124129313D01*
X135956196Y-124117000D01*
X136839804Y-124117000D01*
X136964823Y-124129313D01*
X136964823Y-124129313D01*
G37*
G36*
X111564823Y-123113313D02*
G01*
X111725242Y-123161976D01*
X111830100Y-123218024D01*
X111873078Y-123240996D01*
X112002659Y-123347341D01*
X112109004Y-123476922D01*
X112109005Y-123476924D01*
X112188024Y-123624758D01*
X112236687Y-123785177D01*
X112253117Y-123952000D01*
X112236687Y-124118823D01*
X112188024Y-124279242D01*
X112143072Y-124363341D01*
X112109004Y-124427078D01*
X112002659Y-124556659D01*
X111873078Y-124663004D01*
X111873076Y-124663005D01*
X111725242Y-124742024D01*
X111564823Y-124790687D01*
X111439804Y-124803000D01*
X110556196Y-124803000D01*
X110431177Y-124790687D01*
X110270758Y-124742024D01*
X110122924Y-124663005D01*
X110122922Y-124663004D01*
X109993341Y-124556659D01*
X109886996Y-124427078D01*
X109852928Y-124363341D01*
X109807976Y-124279242D01*
X109759313Y-124118823D01*
X109742883Y-123952000D01*
X109759313Y-123785177D01*
X109807976Y-123624758D01*
X109886995Y-123476924D01*
X109886996Y-123476922D01*
X109993341Y-123347341D01*
X110122922Y-123240996D01*
X110165900Y-123218024D01*
X110270758Y-123161976D01*
X110431177Y-123113313D01*
X110556196Y-123101000D01*
X111439804Y-123101000D01*
X111564823Y-123113313D01*
X111564823Y-123113313D01*
G37*
G36*
X119184823Y-123113313D02*
G01*
X119345242Y-123161976D01*
X119450100Y-123218024D01*
X119493078Y-123240996D01*
X119622659Y-123347341D01*
X119729004Y-123476922D01*
X119729005Y-123476924D01*
X119808024Y-123624758D01*
X119856687Y-123785177D01*
X119873117Y-123952000D01*
X119856687Y-124118823D01*
X119808024Y-124279242D01*
X119763072Y-124363341D01*
X119729004Y-124427078D01*
X119622659Y-124556659D01*
X119493078Y-124663004D01*
X119493076Y-124663005D01*
X119345242Y-124742024D01*
X119184823Y-124790687D01*
X119059804Y-124803000D01*
X118176196Y-124803000D01*
X118051177Y-124790687D01*
X117890758Y-124742024D01*
X117742924Y-124663005D01*
X117742922Y-124663004D01*
X117613341Y-124556659D01*
X117506996Y-124427078D01*
X117472928Y-124363341D01*
X117427976Y-124279242D01*
X117379313Y-124118823D01*
X117362883Y-123952000D01*
X117379313Y-123785177D01*
X117427976Y-123624758D01*
X117506995Y-123476924D01*
X117506996Y-123476922D01*
X117613341Y-123347341D01*
X117742922Y-123240996D01*
X117785900Y-123218024D01*
X117890758Y-123161976D01*
X118051177Y-123113313D01*
X118176196Y-123101000D01*
X119059804Y-123101000D01*
X119184823Y-123113313D01*
X119184823Y-123113313D01*
G37*
G36*
X136964823Y-121589313D02*
G01*
X137125242Y-121637976D01*
X137166874Y-121660229D01*
X137273078Y-121716996D01*
X137402659Y-121823341D01*
X137509004Y-121952922D01*
X137509005Y-121952924D01*
X137588024Y-122100758D01*
X137636687Y-122261177D01*
X137653117Y-122428000D01*
X137636687Y-122594823D01*
X137588024Y-122755242D01*
X137517114Y-122887906D01*
X137509004Y-122903078D01*
X137402659Y-123032659D01*
X137273078Y-123139004D01*
X137273076Y-123139005D01*
X137125242Y-123218024D01*
X136964823Y-123266687D01*
X136839804Y-123279000D01*
X135956196Y-123279000D01*
X135831177Y-123266687D01*
X135670758Y-123218024D01*
X135522924Y-123139005D01*
X135522922Y-123139004D01*
X135393341Y-123032659D01*
X135286996Y-122903078D01*
X135278886Y-122887906D01*
X135207976Y-122755242D01*
X135159313Y-122594823D01*
X135142883Y-122428000D01*
X135159313Y-122261177D01*
X135207976Y-122100758D01*
X135286995Y-121952924D01*
X135286996Y-121952922D01*
X135393341Y-121823341D01*
X135522922Y-121716996D01*
X135629126Y-121660229D01*
X135670758Y-121637976D01*
X135831177Y-121589313D01*
X135956196Y-121577000D01*
X136839804Y-121577000D01*
X136964823Y-121589313D01*
X136964823Y-121589313D01*
G37*
G36*
X130029000Y-123279000D02*
G01*
X127527000Y-123279000D01*
X127527000Y-121577000D01*
X130029000Y-121577000D01*
X130029000Y-123279000D01*
X130029000Y-123279000D01*
G37*
G36*
X122716228Y-120593703D02*
G01*
X122871100Y-120657853D01*
X123010481Y-120750985D01*
X123129015Y-120869519D01*
X123222147Y-121008900D01*
X123286297Y-121163772D01*
X123319000Y-121328184D01*
X123319000Y-121495816D01*
X123286297Y-121660228D01*
X123222147Y-121815100D01*
X123129015Y-121954481D01*
X123010481Y-122073015D01*
X122871100Y-122166147D01*
X122716228Y-122230297D01*
X122551816Y-122263000D01*
X122384184Y-122263000D01*
X122219772Y-122230297D01*
X122064900Y-122166147D01*
X121925519Y-122073015D01*
X121806985Y-121954481D01*
X121713853Y-121815100D01*
X121649703Y-121660228D01*
X121617000Y-121495816D01*
X121617000Y-121328184D01*
X121649703Y-121163772D01*
X121713853Y-121008900D01*
X121806985Y-120869519D01*
X121925519Y-120750985D01*
X122064900Y-120657853D01*
X122219772Y-120593703D01*
X122384184Y-120561000D01*
X122551816Y-120561000D01*
X122716228Y-120593703D01*
X122716228Y-120593703D01*
G37*
G36*
X125216228Y-120593703D02*
G01*
X125371100Y-120657853D01*
X125510481Y-120750985D01*
X125629015Y-120869519D01*
X125722147Y-121008900D01*
X125786297Y-121163772D01*
X125819000Y-121328184D01*
X125819000Y-121495816D01*
X125786297Y-121660228D01*
X125722147Y-121815100D01*
X125629015Y-121954481D01*
X125510481Y-122073015D01*
X125371100Y-122166147D01*
X125216228Y-122230297D01*
X125051816Y-122263000D01*
X124884184Y-122263000D01*
X124719772Y-122230297D01*
X124564900Y-122166147D01*
X124425519Y-122073015D01*
X124306985Y-121954481D01*
X124213853Y-121815100D01*
X124149703Y-121660228D01*
X124117000Y-121495816D01*
X124117000Y-121328184D01*
X124149703Y-121163772D01*
X124213853Y-121008900D01*
X124306985Y-120869519D01*
X124425519Y-120750985D01*
X124564900Y-120657853D01*
X124719772Y-120593703D01*
X124884184Y-120561000D01*
X125051816Y-120561000D01*
X125216228Y-120593703D01*
X125216228Y-120593703D01*
G37*
G36*
X119184823Y-120573313D02*
G01*
X119345242Y-120621976D01*
X119412361Y-120657852D01*
X119493078Y-120700996D01*
X119622659Y-120807341D01*
X119729004Y-120936922D01*
X119729005Y-120936924D01*
X119808024Y-121084758D01*
X119856687Y-121245177D01*
X119873117Y-121412000D01*
X119856687Y-121578823D01*
X119808024Y-121739242D01*
X119767477Y-121815100D01*
X119729004Y-121887078D01*
X119622659Y-122016659D01*
X119493078Y-122123004D01*
X119493076Y-122123005D01*
X119345242Y-122202024D01*
X119184823Y-122250687D01*
X119059804Y-122263000D01*
X118176196Y-122263000D01*
X118051177Y-122250687D01*
X117890758Y-122202024D01*
X117742924Y-122123005D01*
X117742922Y-122123004D01*
X117613341Y-122016659D01*
X117506996Y-121887078D01*
X117468523Y-121815100D01*
X117427976Y-121739242D01*
X117379313Y-121578823D01*
X117362883Y-121412000D01*
X117379313Y-121245177D01*
X117427976Y-121084758D01*
X117506995Y-120936924D01*
X117506996Y-120936922D01*
X117613341Y-120807341D01*
X117742922Y-120700996D01*
X117823639Y-120657852D01*
X117890758Y-120621976D01*
X118051177Y-120573313D01*
X118176196Y-120561000D01*
X119059804Y-120561000D01*
X119184823Y-120573313D01*
X119184823Y-120573313D01*
G37*
G36*
X111564823Y-120573313D02*
G01*
X111725242Y-120621976D01*
X111792361Y-120657852D01*
X111873078Y-120700996D01*
X112002659Y-120807341D01*
X112109004Y-120936922D01*
X112109005Y-120936924D01*
X112188024Y-121084758D01*
X112236687Y-121245177D01*
X112253117Y-121412000D01*
X112236687Y-121578823D01*
X112188024Y-121739242D01*
X112147477Y-121815100D01*
X112109004Y-121887078D01*
X112002659Y-122016659D01*
X111873078Y-122123004D01*
X111873076Y-122123005D01*
X111725242Y-122202024D01*
X111564823Y-122250687D01*
X111439804Y-122263000D01*
X110556196Y-122263000D01*
X110431177Y-122250687D01*
X110270758Y-122202024D01*
X110122924Y-122123005D01*
X110122922Y-122123004D01*
X109993341Y-122016659D01*
X109886996Y-121887078D01*
X109848523Y-121815100D01*
X109807976Y-121739242D01*
X109759313Y-121578823D01*
X109742883Y-121412000D01*
X109759313Y-121245177D01*
X109807976Y-121084758D01*
X109886995Y-120936924D01*
X109886996Y-120936922D01*
X109993341Y-120807341D01*
X110122922Y-120700996D01*
X110203639Y-120657852D01*
X110270758Y-120621976D01*
X110431177Y-120573313D01*
X110556196Y-120561000D01*
X111439804Y-120561000D01*
X111564823Y-120573313D01*
X111564823Y-120573313D01*
G37*
G36*
X119184823Y-118033313D02*
G01*
X119345242Y-118081976D01*
X119477906Y-118152886D01*
X119493078Y-118160996D01*
X119622659Y-118267341D01*
X119729004Y-118396922D01*
X119729005Y-118396924D01*
X119808024Y-118544758D01*
X119856687Y-118705177D01*
X119873117Y-118872000D01*
X119856687Y-119038823D01*
X119808024Y-119199242D01*
X119737114Y-119331906D01*
X119729004Y-119347078D01*
X119622659Y-119476659D01*
X119493078Y-119583004D01*
X119493076Y-119583005D01*
X119345242Y-119662024D01*
X119184823Y-119710687D01*
X119059804Y-119723000D01*
X118176196Y-119723000D01*
X118051177Y-119710687D01*
X117890758Y-119662024D01*
X117742924Y-119583005D01*
X117742922Y-119583004D01*
X117613341Y-119476659D01*
X117506996Y-119347078D01*
X117498886Y-119331906D01*
X117427976Y-119199242D01*
X117379313Y-119038823D01*
X117362883Y-118872000D01*
X117379313Y-118705177D01*
X117427976Y-118544758D01*
X117506995Y-118396924D01*
X117506996Y-118396922D01*
X117613341Y-118267341D01*
X117742922Y-118160996D01*
X117758094Y-118152886D01*
X117890758Y-118081976D01*
X118051177Y-118033313D01*
X118176196Y-118021000D01*
X119059804Y-118021000D01*
X119184823Y-118033313D01*
X119184823Y-118033313D01*
G37*
G36*
X111564823Y-118033313D02*
G01*
X111725242Y-118081976D01*
X111857906Y-118152886D01*
X111873078Y-118160996D01*
X112002659Y-118267341D01*
X112109004Y-118396922D01*
X112109005Y-118396924D01*
X112188024Y-118544758D01*
X112236687Y-118705177D01*
X112253117Y-118872000D01*
X112236687Y-119038823D01*
X112188024Y-119199242D01*
X112117114Y-119331906D01*
X112109004Y-119347078D01*
X112002659Y-119476659D01*
X111873078Y-119583004D01*
X111873076Y-119583005D01*
X111725242Y-119662024D01*
X111564823Y-119710687D01*
X111439804Y-119723000D01*
X110556196Y-119723000D01*
X110431177Y-119710687D01*
X110270758Y-119662024D01*
X110122924Y-119583005D01*
X110122922Y-119583004D01*
X109993341Y-119476659D01*
X109886996Y-119347078D01*
X109878886Y-119331906D01*
X109807976Y-119199242D01*
X109759313Y-119038823D01*
X109742883Y-118872000D01*
X109759313Y-118705177D01*
X109807976Y-118544758D01*
X109886995Y-118396924D01*
X109886996Y-118396922D01*
X109993341Y-118267341D01*
X110122922Y-118160996D01*
X110138094Y-118152886D01*
X110270758Y-118081976D01*
X110431177Y-118033313D01*
X110556196Y-118021000D01*
X111439804Y-118021000D01*
X111564823Y-118033313D01*
X111564823Y-118033313D01*
G37*
G36*
X137649000Y-118961000D02*
G01*
X135147000Y-118961000D01*
X135147000Y-117259000D01*
X137649000Y-117259000D01*
X137649000Y-118961000D01*
X137649000Y-118961000D01*
G37*
G36*
X129344823Y-117271313D02*
G01*
X129505242Y-117319976D01*
X129637906Y-117390886D01*
X129653078Y-117398996D01*
X129782659Y-117505341D01*
X129889004Y-117634922D01*
X129889005Y-117634924D01*
X129968024Y-117782758D01*
X130016687Y-117943177D01*
X130033117Y-118110000D01*
X130016687Y-118276823D01*
X129968024Y-118437242D01*
X129910555Y-118544758D01*
X129889004Y-118585078D01*
X129782659Y-118714659D01*
X129653078Y-118821004D01*
X129653076Y-118821005D01*
X129505242Y-118900024D01*
X129344823Y-118948687D01*
X129219804Y-118961000D01*
X128336196Y-118961000D01*
X128211177Y-118948687D01*
X128050758Y-118900024D01*
X127902924Y-118821005D01*
X127902922Y-118821004D01*
X127773341Y-118714659D01*
X127666996Y-118585078D01*
X127645445Y-118544758D01*
X127587976Y-118437242D01*
X127539313Y-118276823D01*
X127522883Y-118110000D01*
X127539313Y-117943177D01*
X127587976Y-117782758D01*
X127666995Y-117634924D01*
X127666996Y-117634922D01*
X127773341Y-117505341D01*
X127902922Y-117398996D01*
X127918094Y-117390886D01*
X128050758Y-117319976D01*
X128211177Y-117271313D01*
X128336196Y-117259000D01*
X129219804Y-117259000D01*
X129344823Y-117271313D01*
X129344823Y-117271313D01*
G37*
G36*
X119184823Y-115493313D02*
G01*
X119345242Y-115541976D01*
X119477906Y-115612886D01*
X119493078Y-115620996D01*
X119622659Y-115727341D01*
X119729004Y-115856922D01*
X119729005Y-115856924D01*
X119808024Y-116004758D01*
X119856687Y-116165177D01*
X119873117Y-116332000D01*
X119856687Y-116498823D01*
X119808024Y-116659242D01*
X119746589Y-116774178D01*
X119729004Y-116807078D01*
X119622659Y-116936659D01*
X119493078Y-117043004D01*
X119493076Y-117043005D01*
X119345242Y-117122024D01*
X119184823Y-117170687D01*
X119059804Y-117183000D01*
X118176196Y-117183000D01*
X118051177Y-117170687D01*
X117890758Y-117122024D01*
X117742924Y-117043005D01*
X117742922Y-117043004D01*
X117613341Y-116936659D01*
X117506996Y-116807078D01*
X117489411Y-116774178D01*
X117427976Y-116659242D01*
X117379313Y-116498823D01*
X117362883Y-116332000D01*
X117379313Y-116165177D01*
X117427976Y-116004758D01*
X117506995Y-115856924D01*
X117506996Y-115856922D01*
X117613341Y-115727341D01*
X117742922Y-115620996D01*
X117758094Y-115612886D01*
X117890758Y-115541976D01*
X118051177Y-115493313D01*
X118176196Y-115481000D01*
X119059804Y-115481000D01*
X119184823Y-115493313D01*
X119184823Y-115493313D01*
G37*
G36*
X111564823Y-115493313D02*
G01*
X111725242Y-115541976D01*
X111857906Y-115612886D01*
X111873078Y-115620996D01*
X112002659Y-115727341D01*
X112109004Y-115856922D01*
X112109005Y-115856924D01*
X112188024Y-116004758D01*
X112236687Y-116165177D01*
X112253117Y-116332000D01*
X112236687Y-116498823D01*
X112188024Y-116659242D01*
X112126589Y-116774178D01*
X112109004Y-116807078D01*
X112002659Y-116936659D01*
X111873078Y-117043004D01*
X111873076Y-117043005D01*
X111725242Y-117122024D01*
X111564823Y-117170687D01*
X111439804Y-117183000D01*
X110556196Y-117183000D01*
X110431177Y-117170687D01*
X110270758Y-117122024D01*
X110122924Y-117043005D01*
X110122922Y-117043004D01*
X109993341Y-116936659D01*
X109886996Y-116807078D01*
X109869411Y-116774178D01*
X109807976Y-116659242D01*
X109759313Y-116498823D01*
X109742883Y-116332000D01*
X109759313Y-116165177D01*
X109807976Y-116004758D01*
X109886995Y-115856924D01*
X109886996Y-115856922D01*
X109993341Y-115727341D01*
X110122922Y-115620996D01*
X110138094Y-115612886D01*
X110270758Y-115541976D01*
X110431177Y-115493313D01*
X110556196Y-115481000D01*
X111439804Y-115481000D01*
X111564823Y-115493313D01*
X111564823Y-115493313D01*
G37*
G36*
X123931642Y-115381781D02*
G01*
X124077414Y-115442162D01*
X124077416Y-115442163D01*
X124208608Y-115529822D01*
X124320178Y-115641392D01*
X124407837Y-115772584D01*
X124407838Y-115772586D01*
X124468219Y-115918358D01*
X124499000Y-116073107D01*
X124499000Y-116230893D01*
X124468219Y-116385642D01*
X124421337Y-116498825D01*
X124407837Y-116531416D01*
X124320178Y-116662608D01*
X124208608Y-116774178D01*
X124077416Y-116861837D01*
X124077415Y-116861838D01*
X124077414Y-116861838D01*
X123931642Y-116922219D01*
X123776893Y-116953000D01*
X123619107Y-116953000D01*
X123464358Y-116922219D01*
X123318586Y-116861838D01*
X123318585Y-116861838D01*
X123318584Y-116861837D01*
X123187392Y-116774178D01*
X123075822Y-116662608D01*
X122988163Y-116531416D01*
X122974663Y-116498825D01*
X122927781Y-116385642D01*
X122897000Y-116230893D01*
X122897000Y-116073107D01*
X122927781Y-115918358D01*
X122988162Y-115772586D01*
X122988163Y-115772584D01*
X123075822Y-115641392D01*
X123187392Y-115529822D01*
X123318584Y-115442163D01*
X123318586Y-115442162D01*
X123464358Y-115381781D01*
X123619107Y-115351000D01*
X123776893Y-115351000D01*
X123931642Y-115381781D01*
X123931642Y-115381781D01*
G37*
G36*
X136964823Y-114731313D02*
G01*
X137125242Y-114779976D01*
X137257906Y-114850886D01*
X137273078Y-114858996D01*
X137402659Y-114965341D01*
X137509004Y-115094922D01*
X137509005Y-115094924D01*
X137588024Y-115242758D01*
X137636687Y-115403177D01*
X137653117Y-115570000D01*
X137636687Y-115736823D01*
X137588024Y-115897242D01*
X137576737Y-115918358D01*
X137509004Y-116045078D01*
X137402659Y-116174659D01*
X137273078Y-116281004D01*
X137273076Y-116281005D01*
X137125242Y-116360024D01*
X136964823Y-116408687D01*
X136839804Y-116421000D01*
X135956196Y-116421000D01*
X135831177Y-116408687D01*
X135670758Y-116360024D01*
X135522924Y-116281005D01*
X135522922Y-116281004D01*
X135393341Y-116174659D01*
X135286996Y-116045078D01*
X135219263Y-115918358D01*
X135207976Y-115897242D01*
X135159313Y-115736823D01*
X135142883Y-115570000D01*
X135159313Y-115403177D01*
X135207976Y-115242758D01*
X135286995Y-115094924D01*
X135286996Y-115094922D01*
X135393341Y-114965341D01*
X135522922Y-114858996D01*
X135538094Y-114850886D01*
X135670758Y-114779976D01*
X135831177Y-114731313D01*
X135956196Y-114719000D01*
X136839804Y-114719000D01*
X136964823Y-114731313D01*
X136964823Y-114731313D01*
G37*
G36*
X129344823Y-114731313D02*
G01*
X129505242Y-114779976D01*
X129637906Y-114850886D01*
X129653078Y-114858996D01*
X129782659Y-114965341D01*
X129889004Y-115094922D01*
X129889005Y-115094924D01*
X129968024Y-115242758D01*
X130016687Y-115403177D01*
X130033117Y-115570000D01*
X130016687Y-115736823D01*
X129968024Y-115897242D01*
X129956737Y-115918358D01*
X129889004Y-116045078D01*
X129782659Y-116174659D01*
X129653078Y-116281004D01*
X129653076Y-116281005D01*
X129505242Y-116360024D01*
X129344823Y-116408687D01*
X129219804Y-116421000D01*
X128336196Y-116421000D01*
X128211177Y-116408687D01*
X128050758Y-116360024D01*
X127902924Y-116281005D01*
X127902922Y-116281004D01*
X127773341Y-116174659D01*
X127666996Y-116045078D01*
X127599263Y-115918358D01*
X127587976Y-115897242D01*
X127539313Y-115736823D01*
X127522883Y-115570000D01*
X127539313Y-115403177D01*
X127587976Y-115242758D01*
X127666995Y-115094924D01*
X127666996Y-115094922D01*
X127773341Y-114965341D01*
X127902922Y-114858996D01*
X127918094Y-114850886D01*
X128050758Y-114779976D01*
X128211177Y-114731313D01*
X128336196Y-114719000D01*
X129219804Y-114719000D01*
X129344823Y-114731313D01*
X129344823Y-114731313D01*
G37*
G36*
X111564823Y-112953313D02*
G01*
X111725242Y-113001976D01*
X111857906Y-113072886D01*
X111873078Y-113080996D01*
X112002659Y-113187341D01*
X112109004Y-113316922D01*
X112109005Y-113316924D01*
X112188024Y-113464758D01*
X112236687Y-113625177D01*
X112253117Y-113792000D01*
X112236687Y-113958823D01*
X112188024Y-114119242D01*
X112117114Y-114251906D01*
X112109004Y-114267078D01*
X112002659Y-114396659D01*
X111873078Y-114503004D01*
X111873076Y-114503005D01*
X111725242Y-114582024D01*
X111564823Y-114630687D01*
X111439804Y-114643000D01*
X110556196Y-114643000D01*
X110431177Y-114630687D01*
X110270758Y-114582024D01*
X110122924Y-114503005D01*
X110122922Y-114503004D01*
X109993341Y-114396659D01*
X109886996Y-114267078D01*
X109878886Y-114251906D01*
X109807976Y-114119242D01*
X109759313Y-113958823D01*
X109742883Y-113792000D01*
X109759313Y-113625177D01*
X109807976Y-113464758D01*
X109886995Y-113316924D01*
X109886996Y-113316922D01*
X109993341Y-113187341D01*
X110122922Y-113080996D01*
X110138094Y-113072886D01*
X110270758Y-113001976D01*
X110431177Y-112953313D01*
X110556196Y-112941000D01*
X111439804Y-112941000D01*
X111564823Y-112953313D01*
X111564823Y-112953313D01*
G37*
G36*
X119184823Y-112953313D02*
G01*
X119345242Y-113001976D01*
X119477906Y-113072886D01*
X119493078Y-113080996D01*
X119622659Y-113187341D01*
X119729004Y-113316922D01*
X119729005Y-113316924D01*
X119808024Y-113464758D01*
X119856687Y-113625177D01*
X119873117Y-113792000D01*
X119856687Y-113958823D01*
X119808024Y-114119242D01*
X119737114Y-114251906D01*
X119729004Y-114267078D01*
X119622659Y-114396659D01*
X119493078Y-114503004D01*
X119493076Y-114503005D01*
X119345242Y-114582024D01*
X119184823Y-114630687D01*
X119059804Y-114643000D01*
X118176196Y-114643000D01*
X118051177Y-114630687D01*
X117890758Y-114582024D01*
X117742924Y-114503005D01*
X117742922Y-114503004D01*
X117613341Y-114396659D01*
X117506996Y-114267078D01*
X117498886Y-114251906D01*
X117427976Y-114119242D01*
X117379313Y-113958823D01*
X117362883Y-113792000D01*
X117379313Y-113625177D01*
X117427976Y-113464758D01*
X117506995Y-113316924D01*
X117506996Y-113316922D01*
X117613341Y-113187341D01*
X117742922Y-113080996D01*
X117758094Y-113072886D01*
X117890758Y-113001976D01*
X118051177Y-112953313D01*
X118176196Y-112941000D01*
X119059804Y-112941000D01*
X119184823Y-112953313D01*
X119184823Y-112953313D01*
G37*
G36*
X129344823Y-112191313D02*
G01*
X129505242Y-112239976D01*
X129637906Y-112310886D01*
X129653078Y-112318996D01*
X129782659Y-112425341D01*
X129889004Y-112554922D01*
X129889005Y-112554924D01*
X129968024Y-112702758D01*
X130016687Y-112863177D01*
X130033117Y-113030000D01*
X130016687Y-113196823D01*
X129968024Y-113357242D01*
X129910555Y-113464758D01*
X129889004Y-113505078D01*
X129782659Y-113634659D01*
X129653078Y-113741004D01*
X129653076Y-113741005D01*
X129505242Y-113820024D01*
X129344823Y-113868687D01*
X129219804Y-113881000D01*
X128336196Y-113881000D01*
X128211177Y-113868687D01*
X128050758Y-113820024D01*
X127902924Y-113741005D01*
X127902922Y-113741004D01*
X127773341Y-113634659D01*
X127666996Y-113505078D01*
X127645445Y-113464758D01*
X127587976Y-113357242D01*
X127539313Y-113196823D01*
X127522883Y-113030000D01*
X127539313Y-112863177D01*
X127587976Y-112702758D01*
X127666995Y-112554924D01*
X127666996Y-112554922D01*
X127773341Y-112425341D01*
X127902922Y-112318996D01*
X127918094Y-112310886D01*
X128050758Y-112239976D01*
X128211177Y-112191313D01*
X128336196Y-112179000D01*
X129219804Y-112179000D01*
X129344823Y-112191313D01*
X129344823Y-112191313D01*
G37*
G36*
X136964823Y-112191313D02*
G01*
X137125242Y-112239976D01*
X137257906Y-112310886D01*
X137273078Y-112318996D01*
X137402659Y-112425341D01*
X137509004Y-112554922D01*
X137509005Y-112554924D01*
X137588024Y-112702758D01*
X137636687Y-112863177D01*
X137653117Y-113030000D01*
X137636687Y-113196823D01*
X137588024Y-113357242D01*
X137530555Y-113464758D01*
X137509004Y-113505078D01*
X137402659Y-113634659D01*
X137273078Y-113741004D01*
X137273076Y-113741005D01*
X137125242Y-113820024D01*
X136964823Y-113868687D01*
X136839804Y-113881000D01*
X135956196Y-113881000D01*
X135831177Y-113868687D01*
X135670758Y-113820024D01*
X135522924Y-113741005D01*
X135522922Y-113741004D01*
X135393341Y-113634659D01*
X135286996Y-113505078D01*
X135265445Y-113464758D01*
X135207976Y-113357242D01*
X135159313Y-113196823D01*
X135142883Y-113030000D01*
X135159313Y-112863177D01*
X135207976Y-112702758D01*
X135286995Y-112554924D01*
X135286996Y-112554922D01*
X135393341Y-112425341D01*
X135522922Y-112318996D01*
X135538094Y-112310886D01*
X135670758Y-112239976D01*
X135831177Y-112191313D01*
X135956196Y-112179000D01*
X136839804Y-112179000D01*
X136964823Y-112191313D01*
X136964823Y-112191313D01*
G37*
G36*
X119184823Y-110413313D02*
G01*
X119345242Y-110461976D01*
X119477906Y-110532886D01*
X119493078Y-110540996D01*
X119622659Y-110647341D01*
X119729004Y-110776922D01*
X119729005Y-110776924D01*
X119808024Y-110924758D01*
X119856687Y-111085177D01*
X119873117Y-111252000D01*
X119856687Y-111418823D01*
X119808024Y-111579242D01*
X119780137Y-111631414D01*
X119729004Y-111727078D01*
X119622659Y-111856659D01*
X119493078Y-111963004D01*
X119493076Y-111963005D01*
X119345242Y-112042024D01*
X119184823Y-112090687D01*
X119059804Y-112103000D01*
X118176196Y-112103000D01*
X118051177Y-112090687D01*
X117890758Y-112042024D01*
X117742924Y-111963005D01*
X117742922Y-111963004D01*
X117613341Y-111856659D01*
X117506996Y-111727078D01*
X117455863Y-111631414D01*
X117427976Y-111579242D01*
X117379313Y-111418823D01*
X117362883Y-111252000D01*
X117379313Y-111085177D01*
X117427976Y-110924758D01*
X117506995Y-110776924D01*
X117506996Y-110776922D01*
X117613341Y-110647341D01*
X117742922Y-110540996D01*
X117758094Y-110532886D01*
X117890758Y-110461976D01*
X118051177Y-110413313D01*
X118176196Y-110401000D01*
X119059804Y-110401000D01*
X119184823Y-110413313D01*
X119184823Y-110413313D01*
G37*
G36*
X111564823Y-110413313D02*
G01*
X111725242Y-110461976D01*
X111857906Y-110532886D01*
X111873078Y-110540996D01*
X112002659Y-110647341D01*
X112109004Y-110776922D01*
X112109005Y-110776924D01*
X112188024Y-110924758D01*
X112236687Y-111085177D01*
X112253117Y-111252000D01*
X112236687Y-111418823D01*
X112188024Y-111579242D01*
X112160137Y-111631414D01*
X112109004Y-111727078D01*
X112002659Y-111856659D01*
X111873078Y-111963004D01*
X111873076Y-111963005D01*
X111725242Y-112042024D01*
X111564823Y-112090687D01*
X111439804Y-112103000D01*
X110556196Y-112103000D01*
X110431177Y-112090687D01*
X110270758Y-112042024D01*
X110122924Y-111963005D01*
X110122922Y-111963004D01*
X109993341Y-111856659D01*
X109886996Y-111727078D01*
X109835863Y-111631414D01*
X109807976Y-111579242D01*
X109759313Y-111418823D01*
X109742883Y-111252000D01*
X109759313Y-111085177D01*
X109807976Y-110924758D01*
X109886995Y-110776924D01*
X109886996Y-110776922D01*
X109993341Y-110647341D01*
X110122922Y-110540996D01*
X110138094Y-110532886D01*
X110270758Y-110461976D01*
X110431177Y-110413313D01*
X110556196Y-110401000D01*
X111439804Y-110401000D01*
X111564823Y-110413313D01*
X111564823Y-110413313D01*
G37*
G36*
X123931642Y-110481781D02*
G01*
X124074599Y-110540996D01*
X124077416Y-110542163D01*
X124208608Y-110629822D01*
X124320178Y-110741392D01*
X124407837Y-110872584D01*
X124407838Y-110872586D01*
X124468219Y-111018358D01*
X124499000Y-111173107D01*
X124499000Y-111330893D01*
X124468219Y-111485642D01*
X124429448Y-111579242D01*
X124407837Y-111631416D01*
X124320178Y-111762608D01*
X124208608Y-111874178D01*
X124077416Y-111961837D01*
X124077415Y-111961838D01*
X124077414Y-111961838D01*
X123931642Y-112022219D01*
X123776893Y-112053000D01*
X123619107Y-112053000D01*
X123464358Y-112022219D01*
X123318586Y-111961838D01*
X123318585Y-111961838D01*
X123318584Y-111961837D01*
X123187392Y-111874178D01*
X123075822Y-111762608D01*
X122988163Y-111631416D01*
X122966552Y-111579242D01*
X122927781Y-111485642D01*
X122897000Y-111330893D01*
X122897000Y-111173107D01*
X122927781Y-111018358D01*
X122988162Y-110872586D01*
X122988163Y-110872584D01*
X123075822Y-110741392D01*
X123187392Y-110629822D01*
X123318584Y-110542163D01*
X123321401Y-110540996D01*
X123464358Y-110481781D01*
X123619107Y-110451000D01*
X123776893Y-110451000D01*
X123931642Y-110481781D01*
X123931642Y-110481781D01*
G37*
G36*
X129344823Y-109651313D02*
G01*
X129505242Y-109699976D01*
X129637906Y-109770886D01*
X129653078Y-109778996D01*
X129782659Y-109885341D01*
X129889004Y-110014922D01*
X129889005Y-110014924D01*
X129968024Y-110162758D01*
X130016687Y-110323177D01*
X130033117Y-110490000D01*
X130016687Y-110656823D01*
X129968024Y-110817242D01*
X129938443Y-110872584D01*
X129889004Y-110965078D01*
X129782659Y-111094659D01*
X129653078Y-111201004D01*
X129653076Y-111201005D01*
X129505242Y-111280024D01*
X129344823Y-111328687D01*
X129219804Y-111341000D01*
X128336196Y-111341000D01*
X128211177Y-111328687D01*
X128050758Y-111280024D01*
X127902924Y-111201005D01*
X127902922Y-111201004D01*
X127773341Y-111094659D01*
X127666996Y-110965078D01*
X127617557Y-110872584D01*
X127587976Y-110817242D01*
X127539313Y-110656823D01*
X127522883Y-110490000D01*
X127539313Y-110323177D01*
X127587976Y-110162758D01*
X127666995Y-110014924D01*
X127666996Y-110014922D01*
X127773341Y-109885341D01*
X127902922Y-109778996D01*
X127918094Y-109770886D01*
X128050758Y-109699976D01*
X128211177Y-109651313D01*
X128336196Y-109639000D01*
X129219804Y-109639000D01*
X129344823Y-109651313D01*
X129344823Y-109651313D01*
G37*
G36*
X136964823Y-109651313D02*
G01*
X137125242Y-109699976D01*
X137257906Y-109770886D01*
X137273078Y-109778996D01*
X137402659Y-109885341D01*
X137509004Y-110014922D01*
X137509005Y-110014924D01*
X137588024Y-110162758D01*
X137636687Y-110323177D01*
X137653117Y-110490000D01*
X137636687Y-110656823D01*
X137588024Y-110817242D01*
X137558443Y-110872584D01*
X137509004Y-110965078D01*
X137402659Y-111094659D01*
X137273078Y-111201004D01*
X137273076Y-111201005D01*
X137125242Y-111280024D01*
X136964823Y-111328687D01*
X136839804Y-111341000D01*
X135956196Y-111341000D01*
X135831177Y-111328687D01*
X135670758Y-111280024D01*
X135522924Y-111201005D01*
X135522922Y-111201004D01*
X135393341Y-111094659D01*
X135286996Y-110965078D01*
X135237557Y-110872584D01*
X135207976Y-110817242D01*
X135159313Y-110656823D01*
X135142883Y-110490000D01*
X135159313Y-110323177D01*
X135207976Y-110162758D01*
X135286995Y-110014924D01*
X135286996Y-110014922D01*
X135393341Y-109885341D01*
X135522922Y-109778996D01*
X135538094Y-109770886D01*
X135670758Y-109699976D01*
X135831177Y-109651313D01*
X135956196Y-109639000D01*
X136839804Y-109639000D01*
X136964823Y-109651313D01*
X136964823Y-109651313D01*
G37*
G36*
X119184823Y-107873313D02*
G01*
X119345242Y-107921976D01*
X119477906Y-107992886D01*
X119493078Y-108000996D01*
X119622659Y-108107341D01*
X119729004Y-108236922D01*
X119729005Y-108236924D01*
X119808024Y-108384758D01*
X119856687Y-108545177D01*
X119873117Y-108712000D01*
X119856687Y-108878823D01*
X119808024Y-109039242D01*
X119737114Y-109171906D01*
X119729004Y-109187078D01*
X119622659Y-109316659D01*
X119493078Y-109423004D01*
X119493076Y-109423005D01*
X119345242Y-109502024D01*
X119184823Y-109550687D01*
X119059804Y-109563000D01*
X118176196Y-109563000D01*
X118051177Y-109550687D01*
X117890758Y-109502024D01*
X117742924Y-109423005D01*
X117742922Y-109423004D01*
X117613341Y-109316659D01*
X117506996Y-109187078D01*
X117498886Y-109171906D01*
X117427976Y-109039242D01*
X117379313Y-108878823D01*
X117362883Y-108712000D01*
X117379313Y-108545177D01*
X117427976Y-108384758D01*
X117506995Y-108236924D01*
X117506996Y-108236922D01*
X117613341Y-108107341D01*
X117742922Y-108000996D01*
X117758094Y-107992886D01*
X117890758Y-107921976D01*
X118051177Y-107873313D01*
X118176196Y-107861000D01*
X119059804Y-107861000D01*
X119184823Y-107873313D01*
X119184823Y-107873313D01*
G37*
G36*
X111564823Y-107873313D02*
G01*
X111725242Y-107921976D01*
X111857906Y-107992886D01*
X111873078Y-108000996D01*
X112002659Y-108107341D01*
X112109004Y-108236922D01*
X112109005Y-108236924D01*
X112188024Y-108384758D01*
X112236687Y-108545177D01*
X112253117Y-108712000D01*
X112236687Y-108878823D01*
X112188024Y-109039242D01*
X112117114Y-109171906D01*
X112109004Y-109187078D01*
X112002659Y-109316659D01*
X111873078Y-109423004D01*
X111873076Y-109423005D01*
X111725242Y-109502024D01*
X111564823Y-109550687D01*
X111439804Y-109563000D01*
X110556196Y-109563000D01*
X110431177Y-109550687D01*
X110270758Y-109502024D01*
X110122924Y-109423005D01*
X110122922Y-109423004D01*
X109993341Y-109316659D01*
X109886996Y-109187078D01*
X109878886Y-109171906D01*
X109807976Y-109039242D01*
X109759313Y-108878823D01*
X109742883Y-108712000D01*
X109759313Y-108545177D01*
X109807976Y-108384758D01*
X109886995Y-108236924D01*
X109886996Y-108236922D01*
X109993341Y-108107341D01*
X110122922Y-108000996D01*
X110138094Y-107992886D01*
X110270758Y-107921976D01*
X110431177Y-107873313D01*
X110556196Y-107861000D01*
X111439804Y-107861000D01*
X111564823Y-107873313D01*
X111564823Y-107873313D01*
G37*
G36*
X129344823Y-107111313D02*
G01*
X129505242Y-107159976D01*
X129637906Y-107230886D01*
X129653078Y-107238996D01*
X129782659Y-107345341D01*
X129889004Y-107474922D01*
X129889005Y-107474924D01*
X129968024Y-107622758D01*
X130016687Y-107783177D01*
X130033117Y-107950000D01*
X130016687Y-108116823D01*
X129968024Y-108277242D01*
X129910555Y-108384758D01*
X129889004Y-108425078D01*
X129782659Y-108554659D01*
X129653078Y-108661004D01*
X129653076Y-108661005D01*
X129505242Y-108740024D01*
X129344823Y-108788687D01*
X129219804Y-108801000D01*
X128336196Y-108801000D01*
X128211177Y-108788687D01*
X128050758Y-108740024D01*
X127902924Y-108661005D01*
X127902922Y-108661004D01*
X127773341Y-108554659D01*
X127666996Y-108425078D01*
X127645445Y-108384758D01*
X127587976Y-108277242D01*
X127539313Y-108116823D01*
X127522883Y-107950000D01*
X127539313Y-107783177D01*
X127587976Y-107622758D01*
X127666995Y-107474924D01*
X127666996Y-107474922D01*
X127773341Y-107345341D01*
X127902922Y-107238996D01*
X127918094Y-107230886D01*
X128050758Y-107159976D01*
X128211177Y-107111313D01*
X128336196Y-107099000D01*
X129219804Y-107099000D01*
X129344823Y-107111313D01*
X129344823Y-107111313D01*
G37*
G36*
X136964823Y-107111313D02*
G01*
X137125242Y-107159976D01*
X137257906Y-107230886D01*
X137273078Y-107238996D01*
X137402659Y-107345341D01*
X137509004Y-107474922D01*
X137509005Y-107474924D01*
X137588024Y-107622758D01*
X137636687Y-107783177D01*
X137653117Y-107950000D01*
X137636687Y-108116823D01*
X137588024Y-108277242D01*
X137530555Y-108384758D01*
X137509004Y-108425078D01*
X137402659Y-108554659D01*
X137273078Y-108661004D01*
X137273076Y-108661005D01*
X137125242Y-108740024D01*
X136964823Y-108788687D01*
X136839804Y-108801000D01*
X135956196Y-108801000D01*
X135831177Y-108788687D01*
X135670758Y-108740024D01*
X135522924Y-108661005D01*
X135522922Y-108661004D01*
X135393341Y-108554659D01*
X135286996Y-108425078D01*
X135265445Y-108384758D01*
X135207976Y-108277242D01*
X135159313Y-108116823D01*
X135142883Y-107950000D01*
X135159313Y-107783177D01*
X135207976Y-107622758D01*
X135286995Y-107474924D01*
X135286996Y-107474922D01*
X135393341Y-107345341D01*
X135522922Y-107238996D01*
X135538094Y-107230886D01*
X135670758Y-107159976D01*
X135831177Y-107111313D01*
X135956196Y-107099000D01*
X136839804Y-107099000D01*
X136964823Y-107111313D01*
X136964823Y-107111313D01*
G37*
G36*
X125216228Y-105353703D02*
G01*
X125371100Y-105417853D01*
X125510481Y-105510985D01*
X125629015Y-105629519D01*
X125722147Y-105768900D01*
X125786297Y-105923772D01*
X125819000Y-106088184D01*
X125819000Y-106255816D01*
X125786297Y-106420228D01*
X125722147Y-106575100D01*
X125629015Y-106714481D01*
X125510481Y-106833015D01*
X125371100Y-106926147D01*
X125216228Y-106990297D01*
X125051816Y-107023000D01*
X124884184Y-107023000D01*
X124719772Y-106990297D01*
X124564900Y-106926147D01*
X124425519Y-106833015D01*
X124306985Y-106714481D01*
X124213853Y-106575100D01*
X124149703Y-106420228D01*
X124117000Y-106255816D01*
X124117000Y-106088184D01*
X124149703Y-105923772D01*
X124213853Y-105768900D01*
X124306985Y-105629519D01*
X124425519Y-105510985D01*
X124564900Y-105417853D01*
X124719772Y-105353703D01*
X124884184Y-105321000D01*
X125051816Y-105321000D01*
X125216228Y-105353703D01*
X125216228Y-105353703D01*
G37*
G36*
X122716228Y-105353703D02*
G01*
X122871100Y-105417853D01*
X123010481Y-105510985D01*
X123129015Y-105629519D01*
X123222147Y-105768900D01*
X123286297Y-105923772D01*
X123319000Y-106088184D01*
X123319000Y-106255816D01*
X123286297Y-106420228D01*
X123222147Y-106575100D01*
X123129015Y-106714481D01*
X123010481Y-106833015D01*
X122871100Y-106926147D01*
X122716228Y-106990297D01*
X122551816Y-107023000D01*
X122384184Y-107023000D01*
X122219772Y-106990297D01*
X122064900Y-106926147D01*
X121925519Y-106833015D01*
X121806985Y-106714481D01*
X121713853Y-106575100D01*
X121649703Y-106420228D01*
X121617000Y-106255816D01*
X121617000Y-106088184D01*
X121649703Y-105923772D01*
X121713853Y-105768900D01*
X121806985Y-105629519D01*
X121925519Y-105510985D01*
X122064900Y-105417853D01*
X122219772Y-105353703D01*
X122384184Y-105321000D01*
X122551816Y-105321000D01*
X122716228Y-105353703D01*
X122716228Y-105353703D01*
G37*
G36*
X119184823Y-105333313D02*
G01*
X119345242Y-105381976D01*
X119412361Y-105417852D01*
X119493078Y-105460996D01*
X119622659Y-105567341D01*
X119729004Y-105696922D01*
X119729005Y-105696924D01*
X119808024Y-105844758D01*
X119856687Y-106005177D01*
X119873117Y-106172000D01*
X119856687Y-106338823D01*
X119808024Y-106499242D01*
X119767477Y-106575100D01*
X119729004Y-106647078D01*
X119622659Y-106776659D01*
X119493078Y-106883004D01*
X119493076Y-106883005D01*
X119345242Y-106962024D01*
X119184823Y-107010687D01*
X119059804Y-107023000D01*
X118176196Y-107023000D01*
X118051177Y-107010687D01*
X117890758Y-106962024D01*
X117742924Y-106883005D01*
X117742922Y-106883004D01*
X117613341Y-106776659D01*
X117506996Y-106647078D01*
X117468523Y-106575100D01*
X117427976Y-106499242D01*
X117379313Y-106338823D01*
X117362883Y-106172000D01*
X117379313Y-106005177D01*
X117427976Y-105844758D01*
X117506995Y-105696924D01*
X117506996Y-105696922D01*
X117613341Y-105567341D01*
X117742922Y-105460996D01*
X117823639Y-105417852D01*
X117890758Y-105381976D01*
X118051177Y-105333313D01*
X118176196Y-105321000D01*
X119059804Y-105321000D01*
X119184823Y-105333313D01*
X119184823Y-105333313D01*
G37*
G36*
X111564823Y-105333313D02*
G01*
X111725242Y-105381976D01*
X111792361Y-105417852D01*
X111873078Y-105460996D01*
X112002659Y-105567341D01*
X112109004Y-105696922D01*
X112109005Y-105696924D01*
X112188024Y-105844758D01*
X112236687Y-106005177D01*
X112253117Y-106172000D01*
X112236687Y-106338823D01*
X112188024Y-106499242D01*
X112147477Y-106575100D01*
X112109004Y-106647078D01*
X112002659Y-106776659D01*
X111873078Y-106883004D01*
X111873076Y-106883005D01*
X111725242Y-106962024D01*
X111564823Y-107010687D01*
X111439804Y-107023000D01*
X110556196Y-107023000D01*
X110431177Y-107010687D01*
X110270758Y-106962024D01*
X110122924Y-106883005D01*
X110122922Y-106883004D01*
X109993341Y-106776659D01*
X109886996Y-106647078D01*
X109848523Y-106575100D01*
X109807976Y-106499242D01*
X109759313Y-106338823D01*
X109742883Y-106172000D01*
X109759313Y-106005177D01*
X109807976Y-105844758D01*
X109886995Y-105696924D01*
X109886996Y-105696922D01*
X109993341Y-105567341D01*
X110122922Y-105460996D01*
X110203639Y-105417852D01*
X110270758Y-105381976D01*
X110431177Y-105333313D01*
X110556196Y-105321000D01*
X111439804Y-105321000D01*
X111564823Y-105333313D01*
X111564823Y-105333313D01*
G37*
G36*
X129344823Y-104571313D02*
G01*
X129505242Y-104619976D01*
X129637906Y-104690886D01*
X129653078Y-104698996D01*
X129782659Y-104805341D01*
X129889004Y-104934922D01*
X129889005Y-104934924D01*
X129968024Y-105082758D01*
X130016687Y-105243177D01*
X130033117Y-105410000D01*
X130016687Y-105576823D01*
X129968024Y-105737242D01*
X129910555Y-105844758D01*
X129889004Y-105885078D01*
X129782659Y-106014659D01*
X129653078Y-106121004D01*
X129653076Y-106121005D01*
X129505242Y-106200024D01*
X129344823Y-106248687D01*
X129219804Y-106261000D01*
X128336196Y-106261000D01*
X128211177Y-106248687D01*
X128050758Y-106200024D01*
X127902924Y-106121005D01*
X127902922Y-106121004D01*
X127773341Y-106014659D01*
X127666996Y-105885078D01*
X127645445Y-105844758D01*
X127587976Y-105737242D01*
X127539313Y-105576823D01*
X127522883Y-105410000D01*
X127539313Y-105243177D01*
X127587976Y-105082758D01*
X127666995Y-104934924D01*
X127666996Y-104934922D01*
X127773341Y-104805341D01*
X127902922Y-104698996D01*
X127918094Y-104690886D01*
X128050758Y-104619976D01*
X128211177Y-104571313D01*
X128336196Y-104559000D01*
X129219804Y-104559000D01*
X129344823Y-104571313D01*
X129344823Y-104571313D01*
G37*
G36*
X136964823Y-104571313D02*
G01*
X137125242Y-104619976D01*
X137257906Y-104690886D01*
X137273078Y-104698996D01*
X137402659Y-104805341D01*
X137509004Y-104934922D01*
X137509005Y-104934924D01*
X137588024Y-105082758D01*
X137636687Y-105243177D01*
X137653117Y-105410000D01*
X137636687Y-105576823D01*
X137588024Y-105737242D01*
X137530555Y-105844758D01*
X137509004Y-105885078D01*
X137402659Y-106014659D01*
X137273078Y-106121004D01*
X137273076Y-106121005D01*
X137125242Y-106200024D01*
X136964823Y-106248687D01*
X136839804Y-106261000D01*
X135956196Y-106261000D01*
X135831177Y-106248687D01*
X135670758Y-106200024D01*
X135522924Y-106121005D01*
X135522922Y-106121004D01*
X135393341Y-106014659D01*
X135286996Y-105885078D01*
X135265445Y-105844758D01*
X135207976Y-105737242D01*
X135159313Y-105576823D01*
X135142883Y-105410000D01*
X135159313Y-105243177D01*
X135207976Y-105082758D01*
X135286995Y-104934924D01*
X135286996Y-104934922D01*
X135393341Y-104805341D01*
X135522922Y-104698996D01*
X135538094Y-104690886D01*
X135670758Y-104619976D01*
X135831177Y-104571313D01*
X135956196Y-104559000D01*
X136839804Y-104559000D01*
X136964823Y-104571313D01*
X136964823Y-104571313D01*
G37*
G36*
X111564823Y-102793313D02*
G01*
X111725242Y-102841976D01*
X111857906Y-102912886D01*
X111873078Y-102920996D01*
X112002659Y-103027341D01*
X112109004Y-103156922D01*
X112109005Y-103156924D01*
X112188024Y-103304758D01*
X112236687Y-103465177D01*
X112253117Y-103632000D01*
X112236687Y-103798823D01*
X112188024Y-103959242D01*
X112117114Y-104091906D01*
X112109004Y-104107078D01*
X112002659Y-104236659D01*
X111873078Y-104343004D01*
X111873076Y-104343005D01*
X111725242Y-104422024D01*
X111564823Y-104470687D01*
X111439804Y-104483000D01*
X110556196Y-104483000D01*
X110431177Y-104470687D01*
X110270758Y-104422024D01*
X110122924Y-104343005D01*
X110122922Y-104343004D01*
X109993341Y-104236659D01*
X109886996Y-104107078D01*
X109878886Y-104091906D01*
X109807976Y-103959242D01*
X109759313Y-103798823D01*
X109742883Y-103632000D01*
X109759313Y-103465177D01*
X109807976Y-103304758D01*
X109886995Y-103156924D01*
X109886996Y-103156922D01*
X109993341Y-103027341D01*
X110122922Y-102920996D01*
X110138094Y-102912886D01*
X110270758Y-102841976D01*
X110431177Y-102793313D01*
X110556196Y-102781000D01*
X111439804Y-102781000D01*
X111564823Y-102793313D01*
X111564823Y-102793313D01*
G37*
G36*
X119184823Y-102793313D02*
G01*
X119345242Y-102841976D01*
X119477906Y-102912886D01*
X119493078Y-102920996D01*
X119622659Y-103027341D01*
X119729004Y-103156922D01*
X119729005Y-103156924D01*
X119808024Y-103304758D01*
X119856687Y-103465177D01*
X119873117Y-103632000D01*
X119856687Y-103798823D01*
X119808024Y-103959242D01*
X119737114Y-104091906D01*
X119729004Y-104107078D01*
X119622659Y-104236659D01*
X119493078Y-104343004D01*
X119493076Y-104343005D01*
X119345242Y-104422024D01*
X119184823Y-104470687D01*
X119059804Y-104483000D01*
X118176196Y-104483000D01*
X118051177Y-104470687D01*
X117890758Y-104422024D01*
X117742924Y-104343005D01*
X117742922Y-104343004D01*
X117613341Y-104236659D01*
X117506996Y-104107078D01*
X117498886Y-104091906D01*
X117427976Y-103959242D01*
X117379313Y-103798823D01*
X117362883Y-103632000D01*
X117379313Y-103465177D01*
X117427976Y-103304758D01*
X117506995Y-103156924D01*
X117506996Y-103156922D01*
X117613341Y-103027341D01*
X117742922Y-102920996D01*
X117758094Y-102912886D01*
X117890758Y-102841976D01*
X118051177Y-102793313D01*
X118176196Y-102781000D01*
X119059804Y-102781000D01*
X119184823Y-102793313D01*
X119184823Y-102793313D01*
G37*
G36*
X136964823Y-102031313D02*
G01*
X137125242Y-102079976D01*
X137257906Y-102150886D01*
X137273078Y-102158996D01*
X137402659Y-102265341D01*
X137509004Y-102394922D01*
X137509005Y-102394924D01*
X137588024Y-102542758D01*
X137636687Y-102703177D01*
X137653117Y-102870000D01*
X137636687Y-103036823D01*
X137588024Y-103197242D01*
X137530555Y-103304758D01*
X137509004Y-103345078D01*
X137402659Y-103474659D01*
X137273078Y-103581004D01*
X137273076Y-103581005D01*
X137125242Y-103660024D01*
X136964823Y-103708687D01*
X136839804Y-103721000D01*
X135956196Y-103721000D01*
X135831177Y-103708687D01*
X135670758Y-103660024D01*
X135522924Y-103581005D01*
X135522922Y-103581004D01*
X135393341Y-103474659D01*
X135286996Y-103345078D01*
X135265445Y-103304758D01*
X135207976Y-103197242D01*
X135159313Y-103036823D01*
X135142883Y-102870000D01*
X135159313Y-102703177D01*
X135207976Y-102542758D01*
X135286995Y-102394924D01*
X135286996Y-102394922D01*
X135393341Y-102265341D01*
X135522922Y-102158996D01*
X135538094Y-102150886D01*
X135670758Y-102079976D01*
X135831177Y-102031313D01*
X135956196Y-102019000D01*
X136839804Y-102019000D01*
X136964823Y-102031313D01*
X136964823Y-102031313D01*
G37*
G36*
X129344823Y-102031313D02*
G01*
X129505242Y-102079976D01*
X129637906Y-102150886D01*
X129653078Y-102158996D01*
X129782659Y-102265341D01*
X129889004Y-102394922D01*
X129889005Y-102394924D01*
X129968024Y-102542758D01*
X130016687Y-102703177D01*
X130033117Y-102870000D01*
X130016687Y-103036823D01*
X129968024Y-103197242D01*
X129910555Y-103304758D01*
X129889004Y-103345078D01*
X129782659Y-103474659D01*
X129653078Y-103581004D01*
X129653076Y-103581005D01*
X129505242Y-103660024D01*
X129344823Y-103708687D01*
X129219804Y-103721000D01*
X128336196Y-103721000D01*
X128211177Y-103708687D01*
X128050758Y-103660024D01*
X127902924Y-103581005D01*
X127902922Y-103581004D01*
X127773341Y-103474659D01*
X127666996Y-103345078D01*
X127645445Y-103304758D01*
X127587976Y-103197242D01*
X127539313Y-103036823D01*
X127522883Y-102870000D01*
X127539313Y-102703177D01*
X127587976Y-102542758D01*
X127666995Y-102394924D01*
X127666996Y-102394922D01*
X127773341Y-102265341D01*
X127902922Y-102158996D01*
X127918094Y-102150886D01*
X128050758Y-102079976D01*
X128211177Y-102031313D01*
X128336196Y-102019000D01*
X129219804Y-102019000D01*
X129344823Y-102031313D01*
X129344823Y-102031313D01*
G37*
G36*
X119184823Y-100253313D02*
G01*
X119345242Y-100301976D01*
X119477906Y-100372886D01*
X119493078Y-100380996D01*
X119622659Y-100487341D01*
X119729004Y-100616922D01*
X119729005Y-100616924D01*
X119808024Y-100764758D01*
X119856687Y-100925177D01*
X119873117Y-101092000D01*
X119856687Y-101258823D01*
X119808024Y-101419242D01*
X119737114Y-101551906D01*
X119729004Y-101567078D01*
X119622659Y-101696659D01*
X119493078Y-101803004D01*
X119493076Y-101803005D01*
X119345242Y-101882024D01*
X119184823Y-101930687D01*
X119059804Y-101943000D01*
X118176196Y-101943000D01*
X118051177Y-101930687D01*
X117890758Y-101882024D01*
X117742924Y-101803005D01*
X117742922Y-101803004D01*
X117613341Y-101696659D01*
X117506996Y-101567078D01*
X117498886Y-101551906D01*
X117427976Y-101419242D01*
X117379313Y-101258823D01*
X117362883Y-101092000D01*
X117379313Y-100925177D01*
X117427976Y-100764758D01*
X117506995Y-100616924D01*
X117506996Y-100616922D01*
X117613341Y-100487341D01*
X117742922Y-100380996D01*
X117758094Y-100372886D01*
X117890758Y-100301976D01*
X118051177Y-100253313D01*
X118176196Y-100241000D01*
X119059804Y-100241000D01*
X119184823Y-100253313D01*
X119184823Y-100253313D01*
G37*
G36*
X111564823Y-100253313D02*
G01*
X111725242Y-100301976D01*
X111857906Y-100372886D01*
X111873078Y-100380996D01*
X112002659Y-100487341D01*
X112109004Y-100616922D01*
X112109005Y-100616924D01*
X112188024Y-100764758D01*
X112236687Y-100925177D01*
X112253117Y-101092000D01*
X112236687Y-101258823D01*
X112188024Y-101419242D01*
X112117114Y-101551906D01*
X112109004Y-101567078D01*
X112002659Y-101696659D01*
X111873078Y-101803004D01*
X111873076Y-101803005D01*
X111725242Y-101882024D01*
X111564823Y-101930687D01*
X111439804Y-101943000D01*
X110556196Y-101943000D01*
X110431177Y-101930687D01*
X110270758Y-101882024D01*
X110122924Y-101803005D01*
X110122922Y-101803004D01*
X109993341Y-101696659D01*
X109886996Y-101567078D01*
X109878886Y-101551906D01*
X109807976Y-101419242D01*
X109759313Y-101258823D01*
X109742883Y-101092000D01*
X109759313Y-100925177D01*
X109807976Y-100764758D01*
X109886995Y-100616924D01*
X109886996Y-100616922D01*
X109993341Y-100487341D01*
X110122922Y-100380996D01*
X110138094Y-100372886D01*
X110270758Y-100301976D01*
X110431177Y-100253313D01*
X110556196Y-100241000D01*
X111439804Y-100241000D01*
X111564823Y-100253313D01*
X111564823Y-100253313D01*
G37*
G36*
X129344823Y-99491313D02*
G01*
X129505242Y-99539976D01*
X129637906Y-99610886D01*
X129653078Y-99618996D01*
X129782659Y-99725341D01*
X129889004Y-99854922D01*
X129889005Y-99854924D01*
X129968024Y-100002758D01*
X130016687Y-100163177D01*
X130033117Y-100330000D01*
X130016687Y-100496823D01*
X129968024Y-100657242D01*
X129910555Y-100764758D01*
X129889004Y-100805078D01*
X129782659Y-100934659D01*
X129653078Y-101041004D01*
X129653076Y-101041005D01*
X129505242Y-101120024D01*
X129344823Y-101168687D01*
X129219804Y-101181000D01*
X128336196Y-101181000D01*
X128211177Y-101168687D01*
X128050758Y-101120024D01*
X127902924Y-101041005D01*
X127902922Y-101041004D01*
X127773341Y-100934659D01*
X127666996Y-100805078D01*
X127645445Y-100764758D01*
X127587976Y-100657242D01*
X127539313Y-100496823D01*
X127522883Y-100330000D01*
X127539313Y-100163177D01*
X127587976Y-100002758D01*
X127666995Y-99854924D01*
X127666996Y-99854922D01*
X127773341Y-99725341D01*
X127902922Y-99618996D01*
X127918094Y-99610886D01*
X128050758Y-99539976D01*
X128211177Y-99491313D01*
X128336196Y-99479000D01*
X129219804Y-99479000D01*
X129344823Y-99491313D01*
X129344823Y-99491313D01*
G37*
G36*
X136964823Y-99491313D02*
G01*
X137125242Y-99539976D01*
X137257906Y-99610886D01*
X137273078Y-99618996D01*
X137402659Y-99725341D01*
X137509004Y-99854922D01*
X137509005Y-99854924D01*
X137588024Y-100002758D01*
X137636687Y-100163177D01*
X137653117Y-100330000D01*
X137636687Y-100496823D01*
X137588024Y-100657242D01*
X137530555Y-100764758D01*
X137509004Y-100805078D01*
X137402659Y-100934659D01*
X137273078Y-101041004D01*
X137273076Y-101041005D01*
X137125242Y-101120024D01*
X136964823Y-101168687D01*
X136839804Y-101181000D01*
X135956196Y-101181000D01*
X135831177Y-101168687D01*
X135670758Y-101120024D01*
X135522924Y-101041005D01*
X135522922Y-101041004D01*
X135393341Y-100934659D01*
X135286996Y-100805078D01*
X135265445Y-100764758D01*
X135207976Y-100657242D01*
X135159313Y-100496823D01*
X135142883Y-100330000D01*
X135159313Y-100163177D01*
X135207976Y-100002758D01*
X135286995Y-99854924D01*
X135286996Y-99854922D01*
X135393341Y-99725341D01*
X135522922Y-99618996D01*
X135538094Y-99610886D01*
X135670758Y-99539976D01*
X135831177Y-99491313D01*
X135956196Y-99479000D01*
X136839804Y-99479000D01*
X136964823Y-99491313D01*
X136964823Y-99491313D01*
G37*
G36*
X126486228Y-95955703D02*
G01*
X126641100Y-96019853D01*
X126780481Y-96112985D01*
X126899015Y-96231519D01*
X126992147Y-96370900D01*
X127056297Y-96525772D01*
X127089000Y-96690184D01*
X127089000Y-96857816D01*
X127056297Y-97022228D01*
X126992147Y-97177100D01*
X126899015Y-97316481D01*
X126780481Y-97435015D01*
X126641100Y-97528147D01*
X126486228Y-97592297D01*
X126321816Y-97625000D01*
X126154184Y-97625000D01*
X125989772Y-97592297D01*
X125834900Y-97528147D01*
X125695519Y-97435015D01*
X125576985Y-97316481D01*
X125483853Y-97177100D01*
X125419703Y-97022228D01*
X125387000Y-96857816D01*
X125387000Y-96690184D01*
X125419703Y-96525772D01*
X125483853Y-96370900D01*
X125576985Y-96231519D01*
X125695519Y-96112985D01*
X125834900Y-96019853D01*
X125989772Y-95955703D01*
X126154184Y-95923000D01*
X126321816Y-95923000D01*
X126486228Y-95955703D01*
X126486228Y-95955703D01*
G37*
G36*
X115056228Y-95955703D02*
G01*
X115211100Y-96019853D01*
X115350481Y-96112985D01*
X115469015Y-96231519D01*
X115562147Y-96370900D01*
X115626297Y-96525772D01*
X115659000Y-96690184D01*
X115659000Y-96857816D01*
X115626297Y-97022228D01*
X115562147Y-97177100D01*
X115469015Y-97316481D01*
X115350481Y-97435015D01*
X115211100Y-97528147D01*
X115056228Y-97592297D01*
X114891816Y-97625000D01*
X114724184Y-97625000D01*
X114559772Y-97592297D01*
X114404900Y-97528147D01*
X114265519Y-97435015D01*
X114146985Y-97316481D01*
X114053853Y-97177100D01*
X113989703Y-97022228D01*
X113957000Y-96857816D01*
X113957000Y-96690184D01*
X113989703Y-96525772D01*
X114053853Y-96370900D01*
X114146985Y-96231519D01*
X114265519Y-96112985D01*
X114404900Y-96019853D01*
X114559772Y-95955703D01*
X114724184Y-95923000D01*
X114891816Y-95923000D01*
X115056228Y-95955703D01*
X115056228Y-95955703D01*
G37*
G36*
X118784823Y-95935313D02*
G01*
X118945242Y-95983976D01*
X119012361Y-96019852D01*
X119093078Y-96062996D01*
X119222659Y-96169341D01*
X119329004Y-96298922D01*
X119329005Y-96298924D01*
X119408024Y-96446758D01*
X119456687Y-96607177D01*
X119473117Y-96774000D01*
X119456687Y-96940823D01*
X119408024Y-97101242D01*
X119367477Y-97177100D01*
X119329004Y-97249078D01*
X119222659Y-97378659D01*
X119093078Y-97485004D01*
X119093076Y-97485005D01*
X118945242Y-97564024D01*
X118784823Y-97612687D01*
X118659804Y-97625000D01*
X118576196Y-97625000D01*
X118451177Y-97612687D01*
X118290758Y-97564024D01*
X118142924Y-97485005D01*
X118142922Y-97485004D01*
X118013341Y-97378659D01*
X117906996Y-97249078D01*
X117868523Y-97177100D01*
X117827976Y-97101242D01*
X117779313Y-96940823D01*
X117762883Y-96774000D01*
X117779313Y-96607177D01*
X117827976Y-96446758D01*
X117906995Y-96298924D01*
X117906996Y-96298922D01*
X118013341Y-96169341D01*
X118142922Y-96062996D01*
X118223639Y-96019852D01*
X118290758Y-95983976D01*
X118451177Y-95935313D01*
X118576196Y-95923000D01*
X118659804Y-95923000D01*
X118784823Y-95935313D01*
X118784823Y-95935313D01*
G37*
G36*
X107354823Y-95935313D02*
G01*
X107515242Y-95983976D01*
X107582361Y-96019852D01*
X107663078Y-96062996D01*
X107792659Y-96169341D01*
X107899004Y-96298922D01*
X107899005Y-96298924D01*
X107978024Y-96446758D01*
X108026687Y-96607177D01*
X108043117Y-96774000D01*
X108026687Y-96940823D01*
X107978024Y-97101242D01*
X107937477Y-97177100D01*
X107899004Y-97249078D01*
X107792659Y-97378659D01*
X107663078Y-97485004D01*
X107663076Y-97485005D01*
X107515242Y-97564024D01*
X107354823Y-97612687D01*
X107229804Y-97625000D01*
X107146196Y-97625000D01*
X107021177Y-97612687D01*
X106860758Y-97564024D01*
X106712924Y-97485005D01*
X106712922Y-97485004D01*
X106583341Y-97378659D01*
X106476996Y-97249078D01*
X106438523Y-97177100D01*
X106397976Y-97101242D01*
X106349313Y-96940823D01*
X106332883Y-96774000D01*
X106349313Y-96607177D01*
X106397976Y-96446758D01*
X106476995Y-96298924D01*
X106476996Y-96298922D01*
X106583341Y-96169341D01*
X106712922Y-96062996D01*
X106793639Y-96019852D01*
X106860758Y-95983976D01*
X107021177Y-95935313D01*
X107146196Y-95923000D01*
X107229804Y-95923000D01*
X107354823Y-95935313D01*
X107354823Y-95935313D01*
G37*
G36*
X118784823Y-92887313D02*
G01*
X118945242Y-92935976D01*
X119012361Y-92971852D01*
X119093078Y-93014996D01*
X119222659Y-93121341D01*
X119329004Y-93250922D01*
X119329005Y-93250924D01*
X119408024Y-93398758D01*
X119456687Y-93559177D01*
X119473117Y-93726000D01*
X119456687Y-93892823D01*
X119408024Y-94053242D01*
X119367477Y-94129100D01*
X119329004Y-94201078D01*
X119222659Y-94330659D01*
X119093078Y-94437004D01*
X119093076Y-94437005D01*
X118945242Y-94516024D01*
X118784823Y-94564687D01*
X118659804Y-94577000D01*
X118576196Y-94577000D01*
X118451177Y-94564687D01*
X118290758Y-94516024D01*
X118142924Y-94437005D01*
X118142922Y-94437004D01*
X118013341Y-94330659D01*
X117906996Y-94201078D01*
X117868523Y-94129100D01*
X117827976Y-94053242D01*
X117779313Y-93892823D01*
X117762883Y-93726000D01*
X117779313Y-93559177D01*
X117827976Y-93398758D01*
X117906995Y-93250924D01*
X117906996Y-93250922D01*
X118013341Y-93121341D01*
X118142922Y-93014996D01*
X118223639Y-92971852D01*
X118290758Y-92935976D01*
X118451177Y-92887313D01*
X118576196Y-92875000D01*
X118659804Y-92875000D01*
X118784823Y-92887313D01*
X118784823Y-92887313D01*
G37*
G36*
X115056228Y-92907703D02*
G01*
X115211100Y-92971853D01*
X115350481Y-93064985D01*
X115469015Y-93183519D01*
X115562147Y-93322900D01*
X115626297Y-93477772D01*
X115659000Y-93642184D01*
X115659000Y-93809816D01*
X115626297Y-93974228D01*
X115562147Y-94129100D01*
X115469015Y-94268481D01*
X115350481Y-94387015D01*
X115211100Y-94480147D01*
X115056228Y-94544297D01*
X114891816Y-94577000D01*
X114724184Y-94577000D01*
X114559772Y-94544297D01*
X114404900Y-94480147D01*
X114265519Y-94387015D01*
X114146985Y-94268481D01*
X114053853Y-94129100D01*
X113989703Y-93974228D01*
X113957000Y-93809816D01*
X113957000Y-93642184D01*
X113989703Y-93477772D01*
X114053853Y-93322900D01*
X114146985Y-93183519D01*
X114265519Y-93064985D01*
X114404900Y-92971853D01*
X114559772Y-92907703D01*
X114724184Y-92875000D01*
X114891816Y-92875000D01*
X115056228Y-92907703D01*
X115056228Y-92907703D01*
G37*
G36*
X107354823Y-92887313D02*
G01*
X107515242Y-92935976D01*
X107582361Y-92971852D01*
X107663078Y-93014996D01*
X107792659Y-93121341D01*
X107899004Y-93250922D01*
X107899005Y-93250924D01*
X107978024Y-93398758D01*
X108026687Y-93559177D01*
X108043117Y-93726000D01*
X108026687Y-93892823D01*
X107978024Y-94053242D01*
X107937477Y-94129100D01*
X107899004Y-94201078D01*
X107792659Y-94330659D01*
X107663078Y-94437004D01*
X107663076Y-94437005D01*
X107515242Y-94516024D01*
X107354823Y-94564687D01*
X107229804Y-94577000D01*
X107146196Y-94577000D01*
X107021177Y-94564687D01*
X106860758Y-94516024D01*
X106712924Y-94437005D01*
X106712922Y-94437004D01*
X106583341Y-94330659D01*
X106476996Y-94201078D01*
X106438523Y-94129100D01*
X106397976Y-94053242D01*
X106349313Y-93892823D01*
X106332883Y-93726000D01*
X106349313Y-93559177D01*
X106397976Y-93398758D01*
X106476995Y-93250924D01*
X106476996Y-93250922D01*
X106583341Y-93121341D01*
X106712922Y-93014996D01*
X106793639Y-92971852D01*
X106860758Y-92935976D01*
X107021177Y-92887313D01*
X107146196Y-92875000D01*
X107229804Y-92875000D01*
X107354823Y-92887313D01*
X107354823Y-92887313D01*
G37*
G36*
X126486228Y-92907703D02*
G01*
X126641100Y-92971853D01*
X126780481Y-93064985D01*
X126899015Y-93183519D01*
X126992147Y-93322900D01*
X127056297Y-93477772D01*
X127089000Y-93642184D01*
X127089000Y-93809816D01*
X127056297Y-93974228D01*
X126992147Y-94129100D01*
X126899015Y-94268481D01*
X126780481Y-94387015D01*
X126641100Y-94480147D01*
X126486228Y-94544297D01*
X126321816Y-94577000D01*
X126154184Y-94577000D01*
X125989772Y-94544297D01*
X125834900Y-94480147D01*
X125695519Y-94387015D01*
X125576985Y-94268481D01*
X125483853Y-94129100D01*
X125419703Y-93974228D01*
X125387000Y-93809816D01*
X125387000Y-93642184D01*
X125419703Y-93477772D01*
X125483853Y-93322900D01*
X125576985Y-93183519D01*
X125695519Y-93064985D01*
X125834900Y-92971853D01*
X125989772Y-92907703D01*
X126154184Y-92875000D01*
X126321816Y-92875000D01*
X126486228Y-92907703D01*
X126486228Y-92907703D01*
G37*
G36*
X118784823Y-89839313D02*
G01*
X118945242Y-89887976D01*
X119012361Y-89923852D01*
X119093078Y-89966996D01*
X119222659Y-90073341D01*
X119329004Y-90202922D01*
X119329005Y-90202924D01*
X119408024Y-90350758D01*
X119456687Y-90511177D01*
X119473117Y-90678000D01*
X119456687Y-90844823D01*
X119408024Y-91005242D01*
X119367477Y-91081100D01*
X119329004Y-91153078D01*
X119222659Y-91282659D01*
X119093078Y-91389004D01*
X119093076Y-91389005D01*
X118945242Y-91468024D01*
X118784823Y-91516687D01*
X118659804Y-91529000D01*
X118576196Y-91529000D01*
X118451177Y-91516687D01*
X118290758Y-91468024D01*
X118142924Y-91389005D01*
X118142922Y-91389004D01*
X118013341Y-91282659D01*
X117906996Y-91153078D01*
X117868523Y-91081100D01*
X117827976Y-91005242D01*
X117779313Y-90844823D01*
X117762883Y-90678000D01*
X117779313Y-90511177D01*
X117827976Y-90350758D01*
X117906995Y-90202924D01*
X117906996Y-90202922D01*
X118013341Y-90073341D01*
X118142922Y-89966996D01*
X118223639Y-89923852D01*
X118290758Y-89887976D01*
X118451177Y-89839313D01*
X118576196Y-89827000D01*
X118659804Y-89827000D01*
X118784823Y-89839313D01*
X118784823Y-89839313D01*
G37*
G36*
X115056228Y-89859703D02*
G01*
X115211100Y-89923853D01*
X115350481Y-90016985D01*
X115469015Y-90135519D01*
X115562147Y-90274900D01*
X115626297Y-90429772D01*
X115659000Y-90594184D01*
X115659000Y-90761816D01*
X115626297Y-90926228D01*
X115562147Y-91081100D01*
X115469015Y-91220481D01*
X115350481Y-91339015D01*
X115211100Y-91432147D01*
X115056228Y-91496297D01*
X114891816Y-91529000D01*
X114724184Y-91529000D01*
X114559772Y-91496297D01*
X114404900Y-91432147D01*
X114265519Y-91339015D01*
X114146985Y-91220481D01*
X114053853Y-91081100D01*
X113989703Y-90926228D01*
X113957000Y-90761816D01*
X113957000Y-90594184D01*
X113989703Y-90429772D01*
X114053853Y-90274900D01*
X114146985Y-90135519D01*
X114265519Y-90016985D01*
X114404900Y-89923853D01*
X114559772Y-89859703D01*
X114724184Y-89827000D01*
X114891816Y-89827000D01*
X115056228Y-89859703D01*
X115056228Y-89859703D01*
G37*
G36*
X107354823Y-89839313D02*
G01*
X107515242Y-89887976D01*
X107582361Y-89923852D01*
X107663078Y-89966996D01*
X107792659Y-90073341D01*
X107899004Y-90202922D01*
X107899005Y-90202924D01*
X107978024Y-90350758D01*
X108026687Y-90511177D01*
X108043117Y-90678000D01*
X108026687Y-90844823D01*
X107978024Y-91005242D01*
X107937477Y-91081100D01*
X107899004Y-91153078D01*
X107792659Y-91282659D01*
X107663078Y-91389004D01*
X107663076Y-91389005D01*
X107515242Y-91468024D01*
X107354823Y-91516687D01*
X107229804Y-91529000D01*
X107146196Y-91529000D01*
X107021177Y-91516687D01*
X106860758Y-91468024D01*
X106712924Y-91389005D01*
X106712922Y-91389004D01*
X106583341Y-91282659D01*
X106476996Y-91153078D01*
X106438523Y-91081100D01*
X106397976Y-91005242D01*
X106349313Y-90844823D01*
X106332883Y-90678000D01*
X106349313Y-90511177D01*
X106397976Y-90350758D01*
X106476995Y-90202924D01*
X106476996Y-90202922D01*
X106583341Y-90073341D01*
X106712922Y-89966996D01*
X106793639Y-89923852D01*
X106860758Y-89887976D01*
X107021177Y-89839313D01*
X107146196Y-89827000D01*
X107229804Y-89827000D01*
X107354823Y-89839313D01*
X107354823Y-89839313D01*
G37*
G36*
X126486228Y-89859703D02*
G01*
X126641100Y-89923853D01*
X126780481Y-90016985D01*
X126899015Y-90135519D01*
X126992147Y-90274900D01*
X127056297Y-90429772D01*
X127089000Y-90594184D01*
X127089000Y-90761816D01*
X127056297Y-90926228D01*
X126992147Y-91081100D01*
X126899015Y-91220481D01*
X126780481Y-91339015D01*
X126641100Y-91432147D01*
X126486228Y-91496297D01*
X126321816Y-91529000D01*
X126154184Y-91529000D01*
X125989772Y-91496297D01*
X125834900Y-91432147D01*
X125695519Y-91339015D01*
X125576985Y-91220481D01*
X125483853Y-91081100D01*
X125419703Y-90926228D01*
X125387000Y-90761816D01*
X125387000Y-90594184D01*
X125419703Y-90429772D01*
X125483853Y-90274900D01*
X125576985Y-90135519D01*
X125695519Y-90016985D01*
X125834900Y-89923853D01*
X125989772Y-89859703D01*
X126154184Y-89827000D01*
X126321816Y-89827000D01*
X126486228Y-89859703D01*
X126486228Y-89859703D01*
G37*
G36*
X136508442Y-89529518D02*
G01*
X136574627Y-89536037D01*
X136744466Y-89587557D01*
X136900991Y-89671222D01*
X136936729Y-89700552D01*
X137038186Y-89783814D01*
X137100467Y-89859705D01*
X137150778Y-89921009D01*
X137234443Y-90077534D01*
X137285963Y-90247373D01*
X137303359Y-90424000D01*
X137285963Y-90600627D01*
X137234443Y-90770466D01*
X137150778Y-90926991D01*
X137121448Y-90962729D01*
X137038186Y-91064186D01*
X136936729Y-91147448D01*
X136900991Y-91176778D01*
X136744466Y-91260443D01*
X136574627Y-91311963D01*
X136508443Y-91318481D01*
X136442260Y-91325000D01*
X136353740Y-91325000D01*
X136287557Y-91318481D01*
X136221373Y-91311963D01*
X136051534Y-91260443D01*
X135895009Y-91176778D01*
X135859271Y-91147448D01*
X135757814Y-91064186D01*
X135674552Y-90962729D01*
X135645222Y-90926991D01*
X135561557Y-90770466D01*
X135510037Y-90600627D01*
X135492641Y-90424000D01*
X135510037Y-90247373D01*
X135561557Y-90077534D01*
X135645222Y-89921009D01*
X135695533Y-89859705D01*
X135757814Y-89783814D01*
X135859271Y-89700552D01*
X135895009Y-89671222D01*
X136051534Y-89587557D01*
X136221373Y-89536037D01*
X136287558Y-89529518D01*
X136353740Y-89523000D01*
X136442260Y-89523000D01*
X136508442Y-89529518D01*
X136508442Y-89529518D01*
G37*
G36*
X134759000Y-91325000D02*
G01*
X132957000Y-91325000D01*
X132957000Y-89523000D01*
X134759000Y-89523000D01*
X134759000Y-91325000D01*
X134759000Y-91325000D01*
G37*
G36*
X136508443Y-86989519D02*
G01*
X136574627Y-86996037D01*
X136744466Y-87047557D01*
X136900991Y-87131222D01*
X136936729Y-87160552D01*
X137038186Y-87243814D01*
X137103858Y-87323837D01*
X137150778Y-87381009D01*
X137234443Y-87537534D01*
X137285963Y-87707373D01*
X137303359Y-87884000D01*
X137285963Y-88060627D01*
X137234443Y-88230466D01*
X137150778Y-88386991D01*
X137121448Y-88422729D01*
X137038186Y-88524186D01*
X136936729Y-88607448D01*
X136900991Y-88636778D01*
X136744466Y-88720443D01*
X136574627Y-88771963D01*
X136508442Y-88778482D01*
X136442260Y-88785000D01*
X136353740Y-88785000D01*
X136287558Y-88778482D01*
X136221373Y-88771963D01*
X136051534Y-88720443D01*
X135895009Y-88636778D01*
X135859271Y-88607448D01*
X135757814Y-88524186D01*
X135674552Y-88422729D01*
X135645222Y-88386991D01*
X135561557Y-88230466D01*
X135510037Y-88060627D01*
X135492641Y-87884000D01*
X135510037Y-87707373D01*
X135561557Y-87537534D01*
X135645222Y-87381009D01*
X135692142Y-87323837D01*
X135757814Y-87243814D01*
X135859271Y-87160552D01*
X135895009Y-87131222D01*
X136051534Y-87047557D01*
X136221373Y-86996037D01*
X136287557Y-86989519D01*
X136353740Y-86983000D01*
X136442260Y-86983000D01*
X136508443Y-86989519D01*
X136508443Y-86989519D01*
G37*
G36*
X133968443Y-86989519D02*
G01*
X134034627Y-86996037D01*
X134204466Y-87047557D01*
X134360991Y-87131222D01*
X134396729Y-87160552D01*
X134498186Y-87243814D01*
X134563858Y-87323837D01*
X134610778Y-87381009D01*
X134694443Y-87537534D01*
X134745963Y-87707373D01*
X134763359Y-87884000D01*
X134745963Y-88060627D01*
X134694443Y-88230466D01*
X134610778Y-88386991D01*
X134581448Y-88422729D01*
X134498186Y-88524186D01*
X134396729Y-88607448D01*
X134360991Y-88636778D01*
X134204466Y-88720443D01*
X134034627Y-88771963D01*
X133968442Y-88778482D01*
X133902260Y-88785000D01*
X133813740Y-88785000D01*
X133747558Y-88778482D01*
X133681373Y-88771963D01*
X133511534Y-88720443D01*
X133355009Y-88636778D01*
X133319271Y-88607448D01*
X133217814Y-88524186D01*
X133134552Y-88422729D01*
X133105222Y-88386991D01*
X133021557Y-88230466D01*
X132970037Y-88060627D01*
X132952641Y-87884000D01*
X132970037Y-87707373D01*
X133021557Y-87537534D01*
X133105222Y-87381009D01*
X133152142Y-87323837D01*
X133217814Y-87243814D01*
X133319271Y-87160552D01*
X133355009Y-87131222D01*
X133511534Y-87047557D01*
X133681373Y-86996037D01*
X133747557Y-86989519D01*
X133813740Y-86983000D01*
X133902260Y-86983000D01*
X133968443Y-86989519D01*
X133968443Y-86989519D01*
G37*
G36*
X106973000Y-87415000D02*
G01*
X105371000Y-87415000D01*
X105371000Y-85813000D01*
X106973000Y-85813000D01*
X106973000Y-87415000D01*
X106973000Y-87415000D01*
G37*
G36*
X108945642Y-85843781D02*
G01*
X109091414Y-85904162D01*
X109091416Y-85904163D01*
X109222608Y-85991822D01*
X109334178Y-86103392D01*
X109421837Y-86234584D01*
X109421838Y-86234586D01*
X109482219Y-86380358D01*
X109513000Y-86535107D01*
X109513000Y-86692893D01*
X109482219Y-86847642D01*
X109421838Y-86993414D01*
X109421837Y-86993416D01*
X109334178Y-87124608D01*
X109222608Y-87236178D01*
X109091416Y-87323837D01*
X109091415Y-87323838D01*
X109091414Y-87323838D01*
X108945642Y-87384219D01*
X108790893Y-87415000D01*
X108633107Y-87415000D01*
X108478358Y-87384219D01*
X108332586Y-87323838D01*
X108332585Y-87323838D01*
X108332584Y-87323837D01*
X108201392Y-87236178D01*
X108089822Y-87124608D01*
X108002163Y-86993416D01*
X108002162Y-86993414D01*
X107941781Y-86847642D01*
X107911000Y-86692893D01*
X107911000Y-86535107D01*
X107941781Y-86380358D01*
X108002162Y-86234586D01*
X108002163Y-86234584D01*
X108089822Y-86103392D01*
X108201392Y-85991822D01*
X108332584Y-85904163D01*
X108332586Y-85904162D01*
X108478358Y-85843781D01*
X108633107Y-85813000D01*
X108790893Y-85813000D01*
X108945642Y-85843781D01*
X108945642Y-85843781D01*
G37*
G36*
X111485642Y-85843781D02*
G01*
X111631414Y-85904162D01*
X111631416Y-85904163D01*
X111762608Y-85991822D01*
X111874178Y-86103392D01*
X111961837Y-86234584D01*
X111961838Y-86234586D01*
X112022219Y-86380358D01*
X112053000Y-86535107D01*
X112053000Y-86692893D01*
X112022219Y-86847642D01*
X111961838Y-86993414D01*
X111961837Y-86993416D01*
X111874178Y-87124608D01*
X111762608Y-87236178D01*
X111631416Y-87323837D01*
X111631415Y-87323838D01*
X111631414Y-87323838D01*
X111485642Y-87384219D01*
X111330893Y-87415000D01*
X111173107Y-87415000D01*
X111018358Y-87384219D01*
X110872586Y-87323838D01*
X110872585Y-87323838D01*
X110872584Y-87323837D01*
X110741392Y-87236178D01*
X110629822Y-87124608D01*
X110542163Y-86993416D01*
X110542162Y-86993414D01*
X110481781Y-86847642D01*
X110451000Y-86692893D01*
X110451000Y-86535107D01*
X110481781Y-86380358D01*
X110542162Y-86234586D01*
X110542163Y-86234584D01*
X110629822Y-86103392D01*
X110741392Y-85991822D01*
X110872584Y-85904163D01*
X110872586Y-85904162D01*
X111018358Y-85843781D01*
X111173107Y-85813000D01*
X111330893Y-85813000D01*
X111485642Y-85843781D01*
X111485642Y-85843781D01*
G37*
G36*
X116311642Y-85843781D02*
G01*
X116457414Y-85904162D01*
X116457416Y-85904163D01*
X116588608Y-85991822D01*
X116700178Y-86103392D01*
X116787837Y-86234584D01*
X116787838Y-86234586D01*
X116848219Y-86380358D01*
X116879000Y-86535107D01*
X116879000Y-86692893D01*
X116848219Y-86847642D01*
X116787838Y-86993414D01*
X116787837Y-86993416D01*
X116700178Y-87124608D01*
X116588608Y-87236178D01*
X116457416Y-87323837D01*
X116457415Y-87323838D01*
X116457414Y-87323838D01*
X116311642Y-87384219D01*
X116156893Y-87415000D01*
X115999107Y-87415000D01*
X115844358Y-87384219D01*
X115698586Y-87323838D01*
X115698585Y-87323838D01*
X115698584Y-87323837D01*
X115567392Y-87236178D01*
X115455822Y-87124608D01*
X115368163Y-86993416D01*
X115368162Y-86993414D01*
X115307781Y-86847642D01*
X115277000Y-86692893D01*
X115277000Y-86535107D01*
X115307781Y-86380358D01*
X115368162Y-86234586D01*
X115368163Y-86234584D01*
X115455822Y-86103392D01*
X115567392Y-85991822D01*
X115698584Y-85904163D01*
X115698586Y-85904162D01*
X115844358Y-85843781D01*
X115999107Y-85813000D01*
X116156893Y-85813000D01*
X116311642Y-85843781D01*
X116311642Y-85843781D01*
G37*
G36*
X123677642Y-85843781D02*
G01*
X123823414Y-85904162D01*
X123823416Y-85904163D01*
X123954608Y-85991822D01*
X124066178Y-86103392D01*
X124153837Y-86234584D01*
X124153838Y-86234586D01*
X124214219Y-86380358D01*
X124245000Y-86535107D01*
X124245000Y-86692893D01*
X124214219Y-86847642D01*
X124153838Y-86993414D01*
X124153837Y-86993416D01*
X124066178Y-87124608D01*
X123954608Y-87236178D01*
X123823416Y-87323837D01*
X123823415Y-87323838D01*
X123823414Y-87323838D01*
X123677642Y-87384219D01*
X123522893Y-87415000D01*
X123365107Y-87415000D01*
X123210358Y-87384219D01*
X123064586Y-87323838D01*
X123064585Y-87323838D01*
X123064584Y-87323837D01*
X122933392Y-87236178D01*
X122821822Y-87124608D01*
X122734163Y-86993416D01*
X122734162Y-86993414D01*
X122673781Y-86847642D01*
X122643000Y-86692893D01*
X122643000Y-86535107D01*
X122673781Y-86380358D01*
X122734162Y-86234586D01*
X122734163Y-86234584D01*
X122821822Y-86103392D01*
X122933392Y-85991822D01*
X123064584Y-85904163D01*
X123064586Y-85904162D01*
X123210358Y-85843781D01*
X123365107Y-85813000D01*
X123522893Y-85813000D01*
X123677642Y-85843781D01*
X123677642Y-85843781D01*
G37*
G36*
X121705000Y-87415000D02*
G01*
X120103000Y-87415000D01*
X120103000Y-85813000D01*
X121705000Y-85813000D01*
X121705000Y-87415000D01*
X121705000Y-87415000D01*
G37*
G36*
X114339000Y-87415000D02*
G01*
X112737000Y-87415000D01*
X112737000Y-85813000D01*
X114339000Y-85813000D01*
X114339000Y-87415000D01*
X114339000Y-87415000D01*
G37*
G36*
X126217642Y-85843781D02*
G01*
X126363414Y-85904162D01*
X126363416Y-85904163D01*
X126494608Y-85991822D01*
X126606178Y-86103392D01*
X126693837Y-86234584D01*
X126693838Y-86234586D01*
X126754219Y-86380358D01*
X126785000Y-86535107D01*
X126785000Y-86692893D01*
X126754219Y-86847642D01*
X126693838Y-86993414D01*
X126693837Y-86993416D01*
X126606178Y-87124608D01*
X126494608Y-87236178D01*
X126363416Y-87323837D01*
X126363415Y-87323838D01*
X126363414Y-87323838D01*
X126217642Y-87384219D01*
X126062893Y-87415000D01*
X125905107Y-87415000D01*
X125750358Y-87384219D01*
X125604586Y-87323838D01*
X125604585Y-87323838D01*
X125604584Y-87323837D01*
X125473392Y-87236178D01*
X125361822Y-87124608D01*
X125274163Y-86993416D01*
X125274162Y-86993414D01*
X125213781Y-86847642D01*
X125183000Y-86692893D01*
X125183000Y-86535107D01*
X125213781Y-86380358D01*
X125274162Y-86234586D01*
X125274163Y-86234584D01*
X125361822Y-86103392D01*
X125473392Y-85991822D01*
X125604584Y-85904163D01*
X125604586Y-85904162D01*
X125750358Y-85843781D01*
X125905107Y-85813000D01*
X126062893Y-85813000D01*
X126217642Y-85843781D01*
X126217642Y-85843781D01*
G37*
G36*
X118851642Y-85843781D02*
G01*
X118997414Y-85904162D01*
X118997416Y-85904163D01*
X119128608Y-85991822D01*
X119240178Y-86103392D01*
X119327837Y-86234584D01*
X119327838Y-86234586D01*
X119388219Y-86380358D01*
X119419000Y-86535107D01*
X119419000Y-86692893D01*
X119388219Y-86847642D01*
X119327838Y-86993414D01*
X119327837Y-86993416D01*
X119240178Y-87124608D01*
X119128608Y-87236178D01*
X118997416Y-87323837D01*
X118997415Y-87323838D01*
X118997414Y-87323838D01*
X118851642Y-87384219D01*
X118696893Y-87415000D01*
X118539107Y-87415000D01*
X118384358Y-87384219D01*
X118238586Y-87323838D01*
X118238585Y-87323838D01*
X118238584Y-87323837D01*
X118107392Y-87236178D01*
X117995822Y-87124608D01*
X117908163Y-86993416D01*
X117908162Y-86993414D01*
X117847781Y-86847642D01*
X117817000Y-86692893D01*
X117817000Y-86535107D01*
X117847781Y-86380358D01*
X117908162Y-86234586D01*
X117908163Y-86234584D01*
X117995822Y-86103392D01*
X118107392Y-85991822D01*
X118238584Y-85904163D01*
X118238586Y-85904162D01*
X118384358Y-85843781D01*
X118539107Y-85813000D01*
X118696893Y-85813000D01*
X118851642Y-85843781D01*
X118851642Y-85843781D01*
G37*
G36*
X133968442Y-84449518D02*
G01*
X134034627Y-84456037D01*
X134204466Y-84507557D01*
X134360991Y-84591222D01*
X134396729Y-84620552D01*
X134498186Y-84703814D01*
X134581448Y-84805271D01*
X134610778Y-84841009D01*
X134694443Y-84997534D01*
X134745963Y-85167373D01*
X134763359Y-85344000D01*
X134745963Y-85520627D01*
X134694443Y-85690466D01*
X134610778Y-85846991D01*
X134581448Y-85882729D01*
X134498186Y-85984186D01*
X134396729Y-86067448D01*
X134360991Y-86096778D01*
X134204466Y-86180443D01*
X134034627Y-86231963D01*
X133968442Y-86238482D01*
X133902260Y-86245000D01*
X133813740Y-86245000D01*
X133747558Y-86238482D01*
X133681373Y-86231963D01*
X133511534Y-86180443D01*
X133355009Y-86096778D01*
X133319271Y-86067448D01*
X133217814Y-85984186D01*
X133134552Y-85882729D01*
X133105222Y-85846991D01*
X133021557Y-85690466D01*
X132970037Y-85520627D01*
X132952641Y-85344000D01*
X132970037Y-85167373D01*
X133021557Y-84997534D01*
X133105222Y-84841009D01*
X133134552Y-84805271D01*
X133217814Y-84703814D01*
X133319271Y-84620552D01*
X133355009Y-84591222D01*
X133511534Y-84507557D01*
X133681373Y-84456037D01*
X133747558Y-84449518D01*
X133813740Y-84443000D01*
X133902260Y-84443000D01*
X133968442Y-84449518D01*
X133968442Y-84449518D01*
G37*
G36*
X136508442Y-84449518D02*
G01*
X136574627Y-84456037D01*
X136744466Y-84507557D01*
X136900991Y-84591222D01*
X136936729Y-84620552D01*
X137038186Y-84703814D01*
X137121448Y-84805271D01*
X137150778Y-84841009D01*
X137234443Y-84997534D01*
X137285963Y-85167373D01*
X137303359Y-85344000D01*
X137285963Y-85520627D01*
X137234443Y-85690466D01*
X137150778Y-85846991D01*
X137121448Y-85882729D01*
X137038186Y-85984186D01*
X136936729Y-86067448D01*
X136900991Y-86096778D01*
X136744466Y-86180443D01*
X136574627Y-86231963D01*
X136508442Y-86238482D01*
X136442260Y-86245000D01*
X136353740Y-86245000D01*
X136287558Y-86238482D01*
X136221373Y-86231963D01*
X136051534Y-86180443D01*
X135895009Y-86096778D01*
X135859271Y-86067448D01*
X135757814Y-85984186D01*
X135674552Y-85882729D01*
X135645222Y-85846991D01*
X135561557Y-85690466D01*
X135510037Y-85520627D01*
X135492641Y-85344000D01*
X135510037Y-85167373D01*
X135561557Y-84997534D01*
X135645222Y-84841009D01*
X135674552Y-84805271D01*
X135757814Y-84703814D01*
X135859271Y-84620552D01*
X135895009Y-84591222D01*
X136051534Y-84507557D01*
X136221373Y-84456037D01*
X136287558Y-84449518D01*
X136353740Y-84443000D01*
X136442260Y-84443000D01*
X136508442Y-84449518D01*
X136508442Y-84449518D01*
G37*
G36*
X133968442Y-81909518D02*
G01*
X134034627Y-81916037D01*
X134204466Y-81967557D01*
X134360991Y-82051222D01*
X134374560Y-82062358D01*
X134498186Y-82163814D01*
X134581448Y-82265271D01*
X134610778Y-82301009D01*
X134694443Y-82457534D01*
X134745963Y-82627373D01*
X134763359Y-82804000D01*
X134745963Y-82980627D01*
X134694443Y-83150466D01*
X134610778Y-83306991D01*
X134581448Y-83342729D01*
X134498186Y-83444186D01*
X134396729Y-83527448D01*
X134360991Y-83556778D01*
X134204466Y-83640443D01*
X134034627Y-83691963D01*
X133968442Y-83698482D01*
X133902260Y-83705000D01*
X133813740Y-83705000D01*
X133747558Y-83698482D01*
X133681373Y-83691963D01*
X133511534Y-83640443D01*
X133355009Y-83556778D01*
X133319271Y-83527448D01*
X133217814Y-83444186D01*
X133134552Y-83342729D01*
X133105222Y-83306991D01*
X133021557Y-83150466D01*
X132970037Y-82980627D01*
X132952641Y-82804000D01*
X132970037Y-82627373D01*
X133021557Y-82457534D01*
X133105222Y-82301009D01*
X133134552Y-82265271D01*
X133217814Y-82163814D01*
X133341440Y-82062358D01*
X133355009Y-82051222D01*
X133511534Y-81967557D01*
X133681373Y-81916037D01*
X133747558Y-81909518D01*
X133813740Y-81903000D01*
X133902260Y-81903000D01*
X133968442Y-81909518D01*
X133968442Y-81909518D01*
G37*
G36*
X136508442Y-81909518D02*
G01*
X136574627Y-81916037D01*
X136744466Y-81967557D01*
X136900991Y-82051222D01*
X136914560Y-82062358D01*
X137038186Y-82163814D01*
X137121448Y-82265271D01*
X137150778Y-82301009D01*
X137234443Y-82457534D01*
X137285963Y-82627373D01*
X137303359Y-82804000D01*
X137285963Y-82980627D01*
X137234443Y-83150466D01*
X137150778Y-83306991D01*
X137121448Y-83342729D01*
X137038186Y-83444186D01*
X136936729Y-83527448D01*
X136900991Y-83556778D01*
X136744466Y-83640443D01*
X136574627Y-83691963D01*
X136508442Y-83698482D01*
X136442260Y-83705000D01*
X136353740Y-83705000D01*
X136287558Y-83698482D01*
X136221373Y-83691963D01*
X136051534Y-83640443D01*
X135895009Y-83556778D01*
X135859271Y-83527448D01*
X135757814Y-83444186D01*
X135674552Y-83342729D01*
X135645222Y-83306991D01*
X135561557Y-83150466D01*
X135510037Y-82980627D01*
X135492641Y-82804000D01*
X135510037Y-82627373D01*
X135561557Y-82457534D01*
X135645222Y-82301009D01*
X135674552Y-82265271D01*
X135757814Y-82163814D01*
X135881440Y-82062358D01*
X135895009Y-82051222D01*
X136051534Y-81967557D01*
X136221373Y-81916037D01*
X136287558Y-81909518D01*
X136353740Y-81903000D01*
X136442260Y-81903000D01*
X136508442Y-81909518D01*
X136508442Y-81909518D01*
G37*
G36*
X124693642Y-81525781D02*
G01*
X124839414Y-81586162D01*
X124839416Y-81586163D01*
X124970608Y-81673822D01*
X125082178Y-81785392D01*
X125169837Y-81916584D01*
X125169838Y-81916586D01*
X125230219Y-82062358D01*
X125261000Y-82217107D01*
X125261000Y-82374893D01*
X125230219Y-82529642D01*
X125189737Y-82627373D01*
X125169837Y-82675416D01*
X125082178Y-82806608D01*
X124970608Y-82918178D01*
X124839416Y-83005837D01*
X124839415Y-83005838D01*
X124839414Y-83005838D01*
X124693642Y-83066219D01*
X124538893Y-83097000D01*
X124381107Y-83097000D01*
X124226358Y-83066219D01*
X124080586Y-83005838D01*
X124080585Y-83005838D01*
X124080584Y-83005837D01*
X123949392Y-82918178D01*
X123837822Y-82806608D01*
X123750163Y-82675416D01*
X123730263Y-82627373D01*
X123689781Y-82529642D01*
X123659000Y-82374893D01*
X123659000Y-82217107D01*
X123689781Y-82062358D01*
X123750162Y-81916586D01*
X123750163Y-81916584D01*
X123837822Y-81785392D01*
X123949392Y-81673822D01*
X124080584Y-81586163D01*
X124080586Y-81586162D01*
X124226358Y-81525781D01*
X124381107Y-81495000D01*
X124538893Y-81495000D01*
X124693642Y-81525781D01*
X124693642Y-81525781D01*
G37*
G36*
X109961642Y-81525781D02*
G01*
X110107414Y-81586162D01*
X110107416Y-81586163D01*
X110238608Y-81673822D01*
X110350178Y-81785392D01*
X110437837Y-81916584D01*
X110437838Y-81916586D01*
X110498219Y-82062358D01*
X110529000Y-82217107D01*
X110529000Y-82374893D01*
X110498219Y-82529642D01*
X110457737Y-82627373D01*
X110437837Y-82675416D01*
X110350178Y-82806608D01*
X110238608Y-82918178D01*
X110107416Y-83005837D01*
X110107415Y-83005838D01*
X110107414Y-83005838D01*
X109961642Y-83066219D01*
X109806893Y-83097000D01*
X109649107Y-83097000D01*
X109494358Y-83066219D01*
X109348586Y-83005838D01*
X109348585Y-83005838D01*
X109348584Y-83005837D01*
X109217392Y-82918178D01*
X109105822Y-82806608D01*
X109018163Y-82675416D01*
X108998263Y-82627373D01*
X108957781Y-82529642D01*
X108927000Y-82374893D01*
X108927000Y-82217107D01*
X108957781Y-82062358D01*
X109018162Y-81916586D01*
X109018163Y-81916584D01*
X109105822Y-81785392D01*
X109217392Y-81673822D01*
X109348584Y-81586163D01*
X109348586Y-81586162D01*
X109494358Y-81525781D01*
X109649107Y-81495000D01*
X109806893Y-81495000D01*
X109961642Y-81525781D01*
X109961642Y-81525781D01*
G37*
G36*
X112501642Y-81525781D02*
G01*
X112647414Y-81586162D01*
X112647416Y-81586163D01*
X112778608Y-81673822D01*
X112890178Y-81785392D01*
X112977837Y-81916584D01*
X112977838Y-81916586D01*
X113038219Y-82062358D01*
X113069000Y-82217107D01*
X113069000Y-82374893D01*
X113038219Y-82529642D01*
X112997737Y-82627373D01*
X112977837Y-82675416D01*
X112890178Y-82806608D01*
X112778608Y-82918178D01*
X112647416Y-83005837D01*
X112647415Y-83005838D01*
X112647414Y-83005838D01*
X112501642Y-83066219D01*
X112346893Y-83097000D01*
X112189107Y-83097000D01*
X112034358Y-83066219D01*
X111888586Y-83005838D01*
X111888585Y-83005838D01*
X111888584Y-83005837D01*
X111757392Y-82918178D01*
X111645822Y-82806608D01*
X111558163Y-82675416D01*
X111538263Y-82627373D01*
X111497781Y-82529642D01*
X111467000Y-82374893D01*
X111467000Y-82217107D01*
X111497781Y-82062358D01*
X111558162Y-81916586D01*
X111558163Y-81916584D01*
X111645822Y-81785392D01*
X111757392Y-81673822D01*
X111888584Y-81586163D01*
X111888586Y-81586162D01*
X112034358Y-81525781D01*
X112189107Y-81495000D01*
X112346893Y-81495000D01*
X112501642Y-81525781D01*
X112501642Y-81525781D01*
G37*
G36*
X115609000Y-83097000D02*
G01*
X114007000Y-83097000D01*
X114007000Y-81495000D01*
X115609000Y-81495000D01*
X115609000Y-83097000D01*
X115609000Y-83097000D01*
G37*
G36*
X117327642Y-81525781D02*
G01*
X117473414Y-81586162D01*
X117473416Y-81586163D01*
X117604608Y-81673822D01*
X117716178Y-81785392D01*
X117803837Y-81916584D01*
X117803838Y-81916586D01*
X117864219Y-82062358D01*
X117895000Y-82217107D01*
X117895000Y-82374893D01*
X117864219Y-82529642D01*
X117823737Y-82627373D01*
X117803837Y-82675416D01*
X117716178Y-82806608D01*
X117604608Y-82918178D01*
X117473416Y-83005837D01*
X117473415Y-83005838D01*
X117473414Y-83005838D01*
X117327642Y-83066219D01*
X117172893Y-83097000D01*
X117015107Y-83097000D01*
X116860358Y-83066219D01*
X116714586Y-83005838D01*
X116714585Y-83005838D01*
X116714584Y-83005837D01*
X116583392Y-82918178D01*
X116471822Y-82806608D01*
X116384163Y-82675416D01*
X116364263Y-82627373D01*
X116323781Y-82529642D01*
X116293000Y-82374893D01*
X116293000Y-82217107D01*
X116323781Y-82062358D01*
X116384162Y-81916586D01*
X116384163Y-81916584D01*
X116471822Y-81785392D01*
X116583392Y-81673822D01*
X116714584Y-81586163D01*
X116714586Y-81586162D01*
X116860358Y-81525781D01*
X117015107Y-81495000D01*
X117172893Y-81495000D01*
X117327642Y-81525781D01*
X117327642Y-81525781D01*
G37*
G36*
X119867642Y-81525781D02*
G01*
X120013414Y-81586162D01*
X120013416Y-81586163D01*
X120144608Y-81673822D01*
X120256178Y-81785392D01*
X120343837Y-81916584D01*
X120343838Y-81916586D01*
X120404219Y-82062358D01*
X120435000Y-82217107D01*
X120435000Y-82374893D01*
X120404219Y-82529642D01*
X120363737Y-82627373D01*
X120343837Y-82675416D01*
X120256178Y-82806608D01*
X120144608Y-82918178D01*
X120013416Y-83005837D01*
X120013415Y-83005838D01*
X120013414Y-83005838D01*
X119867642Y-83066219D01*
X119712893Y-83097000D01*
X119555107Y-83097000D01*
X119400358Y-83066219D01*
X119254586Y-83005838D01*
X119254585Y-83005838D01*
X119254584Y-83005837D01*
X119123392Y-82918178D01*
X119011822Y-82806608D01*
X118924163Y-82675416D01*
X118904263Y-82627373D01*
X118863781Y-82529642D01*
X118833000Y-82374893D01*
X118833000Y-82217107D01*
X118863781Y-82062358D01*
X118924162Y-81916586D01*
X118924163Y-81916584D01*
X119011822Y-81785392D01*
X119123392Y-81673822D01*
X119254584Y-81586163D01*
X119254586Y-81586162D01*
X119400358Y-81525781D01*
X119555107Y-81495000D01*
X119712893Y-81495000D01*
X119867642Y-81525781D01*
X119867642Y-81525781D01*
G37*
G36*
X122975000Y-83097000D02*
G01*
X121373000Y-83097000D01*
X121373000Y-81495000D01*
X122975000Y-81495000D01*
X122975000Y-83097000D01*
X122975000Y-83097000D01*
G37*
G36*
X130341000Y-83097000D02*
G01*
X128739000Y-83097000D01*
X128739000Y-81495000D01*
X130341000Y-81495000D01*
X130341000Y-83097000D01*
X130341000Y-83097000D01*
G37*
G36*
X127233642Y-81525781D02*
G01*
X127379414Y-81586162D01*
X127379416Y-81586163D01*
X127510608Y-81673822D01*
X127622178Y-81785392D01*
X127709837Y-81916584D01*
X127709838Y-81916586D01*
X127770219Y-82062358D01*
X127801000Y-82217107D01*
X127801000Y-82374893D01*
X127770219Y-82529642D01*
X127729737Y-82627373D01*
X127709837Y-82675416D01*
X127622178Y-82806608D01*
X127510608Y-82918178D01*
X127379416Y-83005837D01*
X127379415Y-83005838D01*
X127379414Y-83005838D01*
X127233642Y-83066219D01*
X127078893Y-83097000D01*
X126921107Y-83097000D01*
X126766358Y-83066219D01*
X126620586Y-83005838D01*
X126620585Y-83005838D01*
X126620584Y-83005837D01*
X126489392Y-82918178D01*
X126377822Y-82806608D01*
X126290163Y-82675416D01*
X126270263Y-82627373D01*
X126229781Y-82529642D01*
X126199000Y-82374893D01*
X126199000Y-82217107D01*
X126229781Y-82062358D01*
X126290162Y-81916586D01*
X126290163Y-81916584D01*
X126377822Y-81785392D01*
X126489392Y-81673822D01*
X126620584Y-81586163D01*
X126620586Y-81586162D01*
X126766358Y-81525781D01*
X126921107Y-81495000D01*
X127078893Y-81495000D01*
X127233642Y-81525781D01*
X127233642Y-81525781D01*
G37*
G36*
X133968442Y-79369518D02*
G01*
X134034627Y-79376037D01*
X134204466Y-79427557D01*
X134360991Y-79511222D01*
X134383901Y-79530024D01*
X134498186Y-79623814D01*
X134581448Y-79725271D01*
X134610778Y-79761009D01*
X134694443Y-79917534D01*
X134745963Y-80087373D01*
X134763359Y-80264000D01*
X134745963Y-80440627D01*
X134694443Y-80610466D01*
X134610778Y-80766991D01*
X134581448Y-80802729D01*
X134498186Y-80904186D01*
X134396729Y-80987448D01*
X134360991Y-81016778D01*
X134204466Y-81100443D01*
X134034627Y-81151963D01*
X133968443Y-81158481D01*
X133902260Y-81165000D01*
X133813740Y-81165000D01*
X133747557Y-81158481D01*
X133681373Y-81151963D01*
X133511534Y-81100443D01*
X133355009Y-81016778D01*
X133319271Y-80987448D01*
X133217814Y-80904186D01*
X133134552Y-80802729D01*
X133105222Y-80766991D01*
X133021557Y-80610466D01*
X132970037Y-80440627D01*
X132952641Y-80264000D01*
X132970037Y-80087373D01*
X133021557Y-79917534D01*
X133105222Y-79761009D01*
X133134552Y-79725271D01*
X133217814Y-79623814D01*
X133332099Y-79530024D01*
X133355009Y-79511222D01*
X133511534Y-79427557D01*
X133681373Y-79376037D01*
X133747558Y-79369518D01*
X133813740Y-79363000D01*
X133902260Y-79363000D01*
X133968442Y-79369518D01*
X133968442Y-79369518D01*
G37*
G36*
X136508442Y-79369518D02*
G01*
X136574627Y-79376037D01*
X136744466Y-79427557D01*
X136900991Y-79511222D01*
X136923901Y-79530024D01*
X137038186Y-79623814D01*
X137121448Y-79725271D01*
X137150778Y-79761009D01*
X137234443Y-79917534D01*
X137285963Y-80087373D01*
X137303359Y-80264000D01*
X137285963Y-80440627D01*
X137234443Y-80610466D01*
X137150778Y-80766991D01*
X137121448Y-80802729D01*
X137038186Y-80904186D01*
X136936729Y-80987448D01*
X136900991Y-81016778D01*
X136744466Y-81100443D01*
X136574627Y-81151963D01*
X136508443Y-81158481D01*
X136442260Y-81165000D01*
X136353740Y-81165000D01*
X136287557Y-81158481D01*
X136221373Y-81151963D01*
X136051534Y-81100443D01*
X135895009Y-81016778D01*
X135859271Y-80987448D01*
X135757814Y-80904186D01*
X135674552Y-80802729D01*
X135645222Y-80766991D01*
X135561557Y-80610466D01*
X135510037Y-80440627D01*
X135492641Y-80264000D01*
X135510037Y-80087373D01*
X135561557Y-79917534D01*
X135645222Y-79761009D01*
X135674552Y-79725271D01*
X135757814Y-79623814D01*
X135872099Y-79530024D01*
X135895009Y-79511222D01*
X136051534Y-79427557D01*
X136221373Y-79376037D01*
X136287558Y-79369518D01*
X136353740Y-79363000D01*
X136442260Y-79363000D01*
X136508442Y-79369518D01*
X136508442Y-79369518D01*
G37*
G36*
X108878823Y-77901313D02*
G01*
X109039242Y-77949976D01*
X109106361Y-77985852D01*
X109187078Y-78028996D01*
X109316659Y-78135341D01*
X109423004Y-78264922D01*
X109423005Y-78264924D01*
X109502024Y-78412758D01*
X109550687Y-78573177D01*
X109567117Y-78740000D01*
X109550687Y-78906823D01*
X109502024Y-79067242D01*
X109461477Y-79143100D01*
X109423004Y-79215078D01*
X109316659Y-79344659D01*
X109187078Y-79451004D01*
X109187076Y-79451005D01*
X109039242Y-79530024D01*
X108878823Y-79578687D01*
X108753804Y-79591000D01*
X108670196Y-79591000D01*
X108545177Y-79578687D01*
X108384758Y-79530024D01*
X108236924Y-79451005D01*
X108236922Y-79451004D01*
X108107341Y-79344659D01*
X108000996Y-79215078D01*
X107962523Y-79143100D01*
X107921976Y-79067242D01*
X107873313Y-78906823D01*
X107856883Y-78740000D01*
X107873313Y-78573177D01*
X107921976Y-78412758D01*
X108000995Y-78264924D01*
X108000996Y-78264922D01*
X108107341Y-78135341D01*
X108236922Y-78028996D01*
X108317639Y-77985852D01*
X108384758Y-77949976D01*
X108545177Y-77901313D01*
X108670196Y-77889000D01*
X108753804Y-77889000D01*
X108878823Y-77901313D01*
X108878823Y-77901313D01*
G37*
G36*
X128690823Y-77901313D02*
G01*
X128851242Y-77949976D01*
X128918361Y-77985852D01*
X128999078Y-78028996D01*
X129128659Y-78135341D01*
X129235004Y-78264922D01*
X129235005Y-78264924D01*
X129314024Y-78412758D01*
X129362687Y-78573177D01*
X129379117Y-78740000D01*
X129362687Y-78906823D01*
X129314024Y-79067242D01*
X129273477Y-79143100D01*
X129235004Y-79215078D01*
X129128659Y-79344659D01*
X128999078Y-79451004D01*
X128999076Y-79451005D01*
X128851242Y-79530024D01*
X128690823Y-79578687D01*
X128565804Y-79591000D01*
X128482196Y-79591000D01*
X128357177Y-79578687D01*
X128196758Y-79530024D01*
X128048924Y-79451005D01*
X128048922Y-79451004D01*
X127919341Y-79344659D01*
X127812996Y-79215078D01*
X127774523Y-79143100D01*
X127733976Y-79067242D01*
X127685313Y-78906823D01*
X127668883Y-78740000D01*
X127685313Y-78573177D01*
X127733976Y-78412758D01*
X127812995Y-78264924D01*
X127812996Y-78264922D01*
X127919341Y-78135341D01*
X128048922Y-78028996D01*
X128129639Y-77985852D01*
X128196758Y-77949976D01*
X128357177Y-77901313D01*
X128482196Y-77889000D01*
X128565804Y-77889000D01*
X128690823Y-77901313D01*
X128690823Y-77901313D01*
G37*
G36*
X121152228Y-77921703D02*
G01*
X121307100Y-77985853D01*
X121446481Y-78078985D01*
X121565015Y-78197519D01*
X121658147Y-78336900D01*
X121722297Y-78491772D01*
X121755000Y-78656184D01*
X121755000Y-78823816D01*
X121722297Y-78988228D01*
X121658147Y-79143100D01*
X121565015Y-79282481D01*
X121446481Y-79401015D01*
X121307100Y-79494147D01*
X121152228Y-79558297D01*
X120987816Y-79591000D01*
X120820184Y-79591000D01*
X120655772Y-79558297D01*
X120500900Y-79494147D01*
X120361519Y-79401015D01*
X120242985Y-79282481D01*
X120149853Y-79143100D01*
X120085703Y-78988228D01*
X120053000Y-78823816D01*
X120053000Y-78656184D01*
X120085703Y-78491772D01*
X120149853Y-78336900D01*
X120242985Y-78197519D01*
X120361519Y-78078985D01*
X120500900Y-77985853D01*
X120655772Y-77921703D01*
X120820184Y-77889000D01*
X120987816Y-77889000D01*
X121152228Y-77921703D01*
X121152228Y-77921703D01*
G37*
G36*
X116580228Y-77921703D02*
G01*
X116735100Y-77985853D01*
X116874481Y-78078985D01*
X116993015Y-78197519D01*
X117086147Y-78336900D01*
X117150297Y-78491772D01*
X117183000Y-78656184D01*
X117183000Y-78823816D01*
X117150297Y-78988228D01*
X117086147Y-79143100D01*
X116993015Y-79282481D01*
X116874481Y-79401015D01*
X116735100Y-79494147D01*
X116580228Y-79558297D01*
X116415816Y-79591000D01*
X116248184Y-79591000D01*
X116083772Y-79558297D01*
X115928900Y-79494147D01*
X115789519Y-79401015D01*
X115670985Y-79282481D01*
X115577853Y-79143100D01*
X115513703Y-78988228D01*
X115481000Y-78823816D01*
X115481000Y-78656184D01*
X115513703Y-78491772D01*
X115577853Y-78336900D01*
X115670985Y-78197519D01*
X115789519Y-78078985D01*
X115928900Y-77985853D01*
X116083772Y-77921703D01*
X116248184Y-77889000D01*
X116415816Y-77889000D01*
X116580228Y-77921703D01*
X116580228Y-77921703D01*
G37*
G36*
X133968443Y-76829519D02*
G01*
X134034627Y-76836037D01*
X134204466Y-76887557D01*
X134360991Y-76971222D01*
X134396729Y-77000552D01*
X134498186Y-77083814D01*
X134581448Y-77185271D01*
X134610778Y-77221009D01*
X134694443Y-77377534D01*
X134745963Y-77547373D01*
X134763359Y-77724000D01*
X134745963Y-77900627D01*
X134694443Y-78070466D01*
X134694442Y-78070468D01*
X134659766Y-78135341D01*
X134610778Y-78226991D01*
X134581448Y-78262729D01*
X134498186Y-78364186D01*
X134396729Y-78447448D01*
X134360991Y-78476778D01*
X134204466Y-78560443D01*
X134034627Y-78611963D01*
X133968442Y-78618482D01*
X133902260Y-78625000D01*
X133813740Y-78625000D01*
X133747558Y-78618482D01*
X133681373Y-78611963D01*
X133511534Y-78560443D01*
X133355009Y-78476778D01*
X133319271Y-78447448D01*
X133217814Y-78364186D01*
X133134552Y-78262729D01*
X133105222Y-78226991D01*
X133056234Y-78135341D01*
X133021558Y-78070468D01*
X133021557Y-78070466D01*
X132970037Y-77900627D01*
X132952641Y-77724000D01*
X132970037Y-77547373D01*
X133021557Y-77377534D01*
X133105222Y-77221009D01*
X133134552Y-77185271D01*
X133217814Y-77083814D01*
X133319271Y-77000552D01*
X133355009Y-76971222D01*
X133511534Y-76887557D01*
X133681373Y-76836037D01*
X133747557Y-76829519D01*
X133813740Y-76823000D01*
X133902260Y-76823000D01*
X133968443Y-76829519D01*
X133968443Y-76829519D01*
G37*
G36*
X136508443Y-76829519D02*
G01*
X136574627Y-76836037D01*
X136744466Y-76887557D01*
X136900991Y-76971222D01*
X136936729Y-77000552D01*
X137038186Y-77083814D01*
X137121448Y-77185271D01*
X137150778Y-77221009D01*
X137234443Y-77377534D01*
X137285963Y-77547373D01*
X137303359Y-77724000D01*
X137285963Y-77900627D01*
X137234443Y-78070466D01*
X137234442Y-78070468D01*
X137199766Y-78135341D01*
X137150778Y-78226991D01*
X137121448Y-78262729D01*
X137038186Y-78364186D01*
X136936729Y-78447448D01*
X136900991Y-78476778D01*
X136744466Y-78560443D01*
X136574627Y-78611963D01*
X136508442Y-78618482D01*
X136442260Y-78625000D01*
X136353740Y-78625000D01*
X136287558Y-78618482D01*
X136221373Y-78611963D01*
X136051534Y-78560443D01*
X135895009Y-78476778D01*
X135859271Y-78447448D01*
X135757814Y-78364186D01*
X135674552Y-78262729D01*
X135645222Y-78226991D01*
X135596234Y-78135341D01*
X135561558Y-78070468D01*
X135561557Y-78070466D01*
X135510037Y-77900627D01*
X135492641Y-77724000D01*
X135510037Y-77547373D01*
X135561557Y-77377534D01*
X135645222Y-77221009D01*
X135674552Y-77185271D01*
X135757814Y-77083814D01*
X135859271Y-77000552D01*
X135895009Y-76971222D01*
X136051534Y-76887557D01*
X136221373Y-76836037D01*
X136287557Y-76829519D01*
X136353740Y-76823000D01*
X136442260Y-76823000D01*
X136508443Y-76829519D01*
X136508443Y-76829519D01*
G37*
G36*
X128690823Y-74853313D02*
G01*
X128851242Y-74901976D01*
X128918361Y-74937852D01*
X128999078Y-74980996D01*
X129128659Y-75087341D01*
X129235004Y-75216922D01*
X129235005Y-75216924D01*
X129314024Y-75364758D01*
X129362687Y-75525177D01*
X129379117Y-75692000D01*
X129362687Y-75858823D01*
X129314024Y-76019242D01*
X129273477Y-76095100D01*
X129235004Y-76167078D01*
X129128659Y-76296659D01*
X128999078Y-76403004D01*
X128999076Y-76403005D01*
X128851242Y-76482024D01*
X128690823Y-76530687D01*
X128565804Y-76543000D01*
X128482196Y-76543000D01*
X128357177Y-76530687D01*
X128196758Y-76482024D01*
X128048924Y-76403005D01*
X128048922Y-76403004D01*
X127919341Y-76296659D01*
X127812996Y-76167078D01*
X127774523Y-76095100D01*
X127733976Y-76019242D01*
X127685313Y-75858823D01*
X127668883Y-75692000D01*
X127685313Y-75525177D01*
X127733976Y-75364758D01*
X127812995Y-75216924D01*
X127812996Y-75216922D01*
X127919341Y-75087341D01*
X128048922Y-74980996D01*
X128129639Y-74937852D01*
X128196758Y-74901976D01*
X128357177Y-74853313D01*
X128482196Y-74841000D01*
X128565804Y-74841000D01*
X128690823Y-74853313D01*
X128690823Y-74853313D01*
G37*
G36*
X121152228Y-74873703D02*
G01*
X121307100Y-74937853D01*
X121446481Y-75030985D01*
X121565015Y-75149519D01*
X121658147Y-75288900D01*
X121722297Y-75443772D01*
X121755000Y-75608184D01*
X121755000Y-75775816D01*
X121722297Y-75940228D01*
X121658147Y-76095100D01*
X121565015Y-76234481D01*
X121446481Y-76353015D01*
X121307100Y-76446147D01*
X121152228Y-76510297D01*
X120987816Y-76543000D01*
X120820184Y-76543000D01*
X120655772Y-76510297D01*
X120500900Y-76446147D01*
X120361519Y-76353015D01*
X120242985Y-76234481D01*
X120149853Y-76095100D01*
X120085703Y-75940228D01*
X120053000Y-75775816D01*
X120053000Y-75608184D01*
X120085703Y-75443772D01*
X120149853Y-75288900D01*
X120242985Y-75149519D01*
X120361519Y-75030985D01*
X120500900Y-74937853D01*
X120655772Y-74873703D01*
X120820184Y-74841000D01*
X120987816Y-74841000D01*
X121152228Y-74873703D01*
X121152228Y-74873703D01*
G37*
G36*
X116580228Y-74873703D02*
G01*
X116735100Y-74937853D01*
X116874481Y-75030985D01*
X116993015Y-75149519D01*
X117086147Y-75288900D01*
X117150297Y-75443772D01*
X117183000Y-75608184D01*
X117183000Y-75775816D01*
X117150297Y-75940228D01*
X117086147Y-76095100D01*
X116993015Y-76234481D01*
X116874481Y-76353015D01*
X116735100Y-76446147D01*
X116580228Y-76510297D01*
X116415816Y-76543000D01*
X116248184Y-76543000D01*
X116083772Y-76510297D01*
X115928900Y-76446147D01*
X115789519Y-76353015D01*
X115670985Y-76234481D01*
X115577853Y-76095100D01*
X115513703Y-75940228D01*
X115481000Y-75775816D01*
X115481000Y-75608184D01*
X115513703Y-75443772D01*
X115577853Y-75288900D01*
X115670985Y-75149519D01*
X115789519Y-75030985D01*
X115928900Y-74937853D01*
X116083772Y-74873703D01*
X116248184Y-74841000D01*
X116415816Y-74841000D01*
X116580228Y-74873703D01*
X116580228Y-74873703D01*
G37*
G36*
X108878823Y-74853313D02*
G01*
X109039242Y-74901976D01*
X109106361Y-74937852D01*
X109187078Y-74980996D01*
X109316659Y-75087341D01*
X109423004Y-75216922D01*
X109423005Y-75216924D01*
X109502024Y-75364758D01*
X109550687Y-75525177D01*
X109567117Y-75692000D01*
X109550687Y-75858823D01*
X109502024Y-76019242D01*
X109461477Y-76095100D01*
X109423004Y-76167078D01*
X109316659Y-76296659D01*
X109187078Y-76403004D01*
X109187076Y-76403005D01*
X109039242Y-76482024D01*
X108878823Y-76530687D01*
X108753804Y-76543000D01*
X108670196Y-76543000D01*
X108545177Y-76530687D01*
X108384758Y-76482024D01*
X108236924Y-76403005D01*
X108236922Y-76403004D01*
X108107341Y-76296659D01*
X108000996Y-76167078D01*
X107962523Y-76095100D01*
X107921976Y-76019242D01*
X107873313Y-75858823D01*
X107856883Y-75692000D01*
X107873313Y-75525177D01*
X107921976Y-75364758D01*
X108000995Y-75216924D01*
X108000996Y-75216922D01*
X108107341Y-75087341D01*
X108236922Y-74980996D01*
X108317639Y-74937852D01*
X108384758Y-74901976D01*
X108545177Y-74853313D01*
X108670196Y-74841000D01*
X108753804Y-74841000D01*
X108878823Y-74853313D01*
X108878823Y-74853313D01*
G37*
G36*
X136508442Y-74289518D02*
G01*
X136574627Y-74296037D01*
X136744466Y-74347557D01*
X136900991Y-74431222D01*
X136936729Y-74460552D01*
X137038186Y-74543814D01*
X137121448Y-74645271D01*
X137150778Y-74681009D01*
X137234443Y-74837534D01*
X137285963Y-75007373D01*
X137303359Y-75184000D01*
X137285963Y-75360627D01*
X137234443Y-75530466D01*
X137150778Y-75686991D01*
X137146667Y-75692000D01*
X137038186Y-75824186D01*
X136936729Y-75907448D01*
X136900991Y-75936778D01*
X136744466Y-76020443D01*
X136574627Y-76071963D01*
X136508443Y-76078481D01*
X136442260Y-76085000D01*
X136353740Y-76085000D01*
X136287557Y-76078481D01*
X136221373Y-76071963D01*
X136051534Y-76020443D01*
X135895009Y-75936778D01*
X135859271Y-75907448D01*
X135757814Y-75824186D01*
X135649333Y-75692000D01*
X135645222Y-75686991D01*
X135561557Y-75530466D01*
X135510037Y-75360627D01*
X135492641Y-75184000D01*
X135510037Y-75007373D01*
X135561557Y-74837534D01*
X135645222Y-74681009D01*
X135674552Y-74645271D01*
X135757814Y-74543814D01*
X135859271Y-74460552D01*
X135895009Y-74431222D01*
X136051534Y-74347557D01*
X136221373Y-74296037D01*
X136287558Y-74289518D01*
X136353740Y-74283000D01*
X136442260Y-74283000D01*
X136508442Y-74289518D01*
X136508442Y-74289518D01*
G37*
G36*
X133968442Y-74289518D02*
G01*
X134034627Y-74296037D01*
X134204466Y-74347557D01*
X134360991Y-74431222D01*
X134396729Y-74460552D01*
X134498186Y-74543814D01*
X134581448Y-74645271D01*
X134610778Y-74681009D01*
X134694443Y-74837534D01*
X134745963Y-75007373D01*
X134763359Y-75184000D01*
X134745963Y-75360627D01*
X134694443Y-75530466D01*
X134610778Y-75686991D01*
X134606667Y-75692000D01*
X134498186Y-75824186D01*
X134396729Y-75907448D01*
X134360991Y-75936778D01*
X134204466Y-76020443D01*
X134034627Y-76071963D01*
X133968443Y-76078481D01*
X133902260Y-76085000D01*
X133813740Y-76085000D01*
X133747557Y-76078481D01*
X133681373Y-76071963D01*
X133511534Y-76020443D01*
X133355009Y-75936778D01*
X133319271Y-75907448D01*
X133217814Y-75824186D01*
X133109333Y-75692000D01*
X133105222Y-75686991D01*
X133021557Y-75530466D01*
X132970037Y-75360627D01*
X132952641Y-75184000D01*
X132970037Y-75007373D01*
X133021557Y-74837534D01*
X133105222Y-74681009D01*
X133134552Y-74645271D01*
X133217814Y-74543814D01*
X133319271Y-74460552D01*
X133355009Y-74431222D01*
X133511534Y-74347557D01*
X133681373Y-74296037D01*
X133747558Y-74289518D01*
X133813740Y-74283000D01*
X133902260Y-74283000D01*
X133968442Y-74289518D01*
X133968442Y-74289518D01*
G37*
G36*
X136508442Y-71749518D02*
G01*
X136574627Y-71756037D01*
X136744466Y-71807557D01*
X136900991Y-71891222D01*
X136936729Y-71920552D01*
X137038186Y-72003814D01*
X137118369Y-72101519D01*
X137150778Y-72141009D01*
X137234443Y-72297534D01*
X137285963Y-72467373D01*
X137303359Y-72644000D01*
X137285963Y-72820627D01*
X137234443Y-72990466D01*
X137150778Y-73146991D01*
X137121448Y-73182729D01*
X137038186Y-73284186D01*
X136936729Y-73367448D01*
X136900991Y-73396778D01*
X136744466Y-73480443D01*
X136574627Y-73531963D01*
X136508442Y-73538482D01*
X136442260Y-73545000D01*
X136353740Y-73545000D01*
X136287558Y-73538482D01*
X136221373Y-73531963D01*
X136051534Y-73480443D01*
X135895009Y-73396778D01*
X135859271Y-73367448D01*
X135757814Y-73284186D01*
X135674552Y-73182729D01*
X135645222Y-73146991D01*
X135561557Y-72990466D01*
X135510037Y-72820627D01*
X135492641Y-72644000D01*
X135510037Y-72467373D01*
X135561557Y-72297534D01*
X135645222Y-72141009D01*
X135677631Y-72101519D01*
X135757814Y-72003814D01*
X135859271Y-71920552D01*
X135895009Y-71891222D01*
X136051534Y-71807557D01*
X136221373Y-71756037D01*
X136287558Y-71749518D01*
X136353740Y-71743000D01*
X136442260Y-71743000D01*
X136508442Y-71749518D01*
X136508442Y-71749518D01*
G37*
G36*
X133968442Y-71749518D02*
G01*
X134034627Y-71756037D01*
X134204466Y-71807557D01*
X134360991Y-71891222D01*
X134396729Y-71920552D01*
X134498186Y-72003814D01*
X134578369Y-72101519D01*
X134610778Y-72141009D01*
X134694443Y-72297534D01*
X134745963Y-72467373D01*
X134763359Y-72644000D01*
X134745963Y-72820627D01*
X134694443Y-72990466D01*
X134610778Y-73146991D01*
X134581448Y-73182729D01*
X134498186Y-73284186D01*
X134396729Y-73367448D01*
X134360991Y-73396778D01*
X134204466Y-73480443D01*
X134034627Y-73531963D01*
X133968442Y-73538482D01*
X133902260Y-73545000D01*
X133813740Y-73545000D01*
X133747558Y-73538482D01*
X133681373Y-73531963D01*
X133511534Y-73480443D01*
X133355009Y-73396778D01*
X133319271Y-73367448D01*
X133217814Y-73284186D01*
X133134552Y-73182729D01*
X133105222Y-73146991D01*
X133021557Y-72990466D01*
X132970037Y-72820627D01*
X132952641Y-72644000D01*
X132970037Y-72467373D01*
X133021557Y-72297534D01*
X133105222Y-72141009D01*
X133137631Y-72101519D01*
X133217814Y-72003814D01*
X133319271Y-71920552D01*
X133355009Y-71891222D01*
X133511534Y-71807557D01*
X133681373Y-71756037D01*
X133747558Y-71749518D01*
X133813740Y-71743000D01*
X133902260Y-71743000D01*
X133968442Y-71749518D01*
X133968442Y-71749518D01*
G37*
G36*
X108878823Y-71805313D02*
G01*
X109039242Y-71853976D01*
X109106361Y-71889852D01*
X109187078Y-71932996D01*
X109316659Y-72039341D01*
X109423004Y-72168922D01*
X109423005Y-72168924D01*
X109502024Y-72316758D01*
X109550687Y-72477177D01*
X109567117Y-72644000D01*
X109550687Y-72810823D01*
X109502024Y-72971242D01*
X109461477Y-73047100D01*
X109423004Y-73119078D01*
X109316659Y-73248659D01*
X109187078Y-73355004D01*
X109187076Y-73355005D01*
X109039242Y-73434024D01*
X108878823Y-73482687D01*
X108753804Y-73495000D01*
X108670196Y-73495000D01*
X108545177Y-73482687D01*
X108384758Y-73434024D01*
X108236924Y-73355005D01*
X108236922Y-73355004D01*
X108107341Y-73248659D01*
X108000996Y-73119078D01*
X107962523Y-73047100D01*
X107921976Y-72971242D01*
X107873313Y-72810823D01*
X107856883Y-72644000D01*
X107873313Y-72477177D01*
X107921976Y-72316758D01*
X108000995Y-72168924D01*
X108000996Y-72168922D01*
X108107341Y-72039341D01*
X108236922Y-71932996D01*
X108317639Y-71889852D01*
X108384758Y-71853976D01*
X108545177Y-71805313D01*
X108670196Y-71793000D01*
X108753804Y-71793000D01*
X108878823Y-71805313D01*
X108878823Y-71805313D01*
G37*
G36*
X128690823Y-71805313D02*
G01*
X128851242Y-71853976D01*
X128918361Y-71889852D01*
X128999078Y-71932996D01*
X129128659Y-72039341D01*
X129235004Y-72168922D01*
X129235005Y-72168924D01*
X129314024Y-72316758D01*
X129362687Y-72477177D01*
X129379117Y-72644000D01*
X129362687Y-72810823D01*
X129314024Y-72971242D01*
X129273477Y-73047100D01*
X129235004Y-73119078D01*
X129128659Y-73248659D01*
X128999078Y-73355004D01*
X128999076Y-73355005D01*
X128851242Y-73434024D01*
X128690823Y-73482687D01*
X128565804Y-73495000D01*
X128482196Y-73495000D01*
X128357177Y-73482687D01*
X128196758Y-73434024D01*
X128048924Y-73355005D01*
X128048922Y-73355004D01*
X127919341Y-73248659D01*
X127812996Y-73119078D01*
X127774523Y-73047100D01*
X127733976Y-72971242D01*
X127685313Y-72810823D01*
X127668883Y-72644000D01*
X127685313Y-72477177D01*
X127733976Y-72316758D01*
X127812995Y-72168924D01*
X127812996Y-72168922D01*
X127919341Y-72039341D01*
X128048922Y-71932996D01*
X128129639Y-71889852D01*
X128196758Y-71853976D01*
X128357177Y-71805313D01*
X128482196Y-71793000D01*
X128565804Y-71793000D01*
X128690823Y-71805313D01*
X128690823Y-71805313D01*
G37*
G36*
X121152228Y-71825703D02*
G01*
X121307100Y-71889853D01*
X121446481Y-71982985D01*
X121565015Y-72101519D01*
X121658147Y-72240900D01*
X121722297Y-72395772D01*
X121755000Y-72560184D01*
X121755000Y-72727816D01*
X121722297Y-72892228D01*
X121658147Y-73047100D01*
X121565015Y-73186481D01*
X121446481Y-73305015D01*
X121307100Y-73398147D01*
X121152228Y-73462297D01*
X120987816Y-73495000D01*
X120820184Y-73495000D01*
X120655772Y-73462297D01*
X120500900Y-73398147D01*
X120361519Y-73305015D01*
X120242985Y-73186481D01*
X120149853Y-73047100D01*
X120085703Y-72892228D01*
X120053000Y-72727816D01*
X120053000Y-72560184D01*
X120085703Y-72395772D01*
X120149853Y-72240900D01*
X120242985Y-72101519D01*
X120361519Y-71982985D01*
X120500900Y-71889853D01*
X120655772Y-71825703D01*
X120820184Y-71793000D01*
X120987816Y-71793000D01*
X121152228Y-71825703D01*
X121152228Y-71825703D01*
G37*
G36*
X116580228Y-71825703D02*
G01*
X116735100Y-71889853D01*
X116874481Y-71982985D01*
X116993015Y-72101519D01*
X117086147Y-72240900D01*
X117150297Y-72395772D01*
X117183000Y-72560184D01*
X117183000Y-72727816D01*
X117150297Y-72892228D01*
X117086147Y-73047100D01*
X116993015Y-73186481D01*
X116874481Y-73305015D01*
X116735100Y-73398147D01*
X116580228Y-73462297D01*
X116415816Y-73495000D01*
X116248184Y-73495000D01*
X116083772Y-73462297D01*
X115928900Y-73398147D01*
X115789519Y-73305015D01*
X115670985Y-73186481D01*
X115577853Y-73047100D01*
X115513703Y-72892228D01*
X115481000Y-72727816D01*
X115481000Y-72560184D01*
X115513703Y-72395772D01*
X115577853Y-72240900D01*
X115670985Y-72101519D01*
X115789519Y-71982985D01*
X115928900Y-71889853D01*
X116083772Y-71825703D01*
X116248184Y-71793000D01*
X116415816Y-71793000D01*
X116580228Y-71825703D01*
X116580228Y-71825703D01*
G37*
G36*
X129375000Y-70193000D02*
G01*
X127673000Y-70193000D01*
X127673000Y-68491000D01*
X129375000Y-68491000D01*
X129375000Y-70193000D01*
X129375000Y-70193000D01*
G37*
G36*
X113450823Y-68503313D02*
G01*
X113611242Y-68551976D01*
X113743906Y-68622886D01*
X113759078Y-68630996D01*
X113888659Y-68737341D01*
X113995004Y-68866922D01*
X113995005Y-68866924D01*
X114074024Y-69014758D01*
X114122687Y-69175177D01*
X114139117Y-69342000D01*
X114122687Y-69508823D01*
X114074024Y-69669242D01*
X114003114Y-69801906D01*
X113995004Y-69817078D01*
X113888659Y-69946659D01*
X113759078Y-70053004D01*
X113759076Y-70053005D01*
X113611242Y-70132024D01*
X113450823Y-70180687D01*
X113325804Y-70193000D01*
X113242196Y-70193000D01*
X113117177Y-70180687D01*
X112956758Y-70132024D01*
X112808924Y-70053005D01*
X112808922Y-70053004D01*
X112679341Y-69946659D01*
X112572996Y-69817078D01*
X112564886Y-69801906D01*
X112493976Y-69669242D01*
X112445313Y-69508823D01*
X112428883Y-69342000D01*
X112445313Y-69175177D01*
X112493976Y-69014758D01*
X112572995Y-68866924D01*
X112572996Y-68866922D01*
X112679341Y-68737341D01*
X112808922Y-68630996D01*
X112824094Y-68622886D01*
X112956758Y-68551976D01*
X113117177Y-68503313D01*
X113242196Y-68491000D01*
X113325804Y-68491000D01*
X113450823Y-68503313D01*
X113450823Y-68503313D01*
G37*
G36*
X115990823Y-68503313D02*
G01*
X116151242Y-68551976D01*
X116283906Y-68622886D01*
X116299078Y-68630996D01*
X116428659Y-68737341D01*
X116535004Y-68866922D01*
X116535005Y-68866924D01*
X116614024Y-69014758D01*
X116662687Y-69175177D01*
X116679117Y-69342000D01*
X116662687Y-69508823D01*
X116614024Y-69669242D01*
X116543114Y-69801906D01*
X116535004Y-69817078D01*
X116428659Y-69946659D01*
X116299078Y-70053004D01*
X116299076Y-70053005D01*
X116151242Y-70132024D01*
X115990823Y-70180687D01*
X115865804Y-70193000D01*
X115782196Y-70193000D01*
X115657177Y-70180687D01*
X115496758Y-70132024D01*
X115348924Y-70053005D01*
X115348922Y-70053004D01*
X115219341Y-69946659D01*
X115112996Y-69817078D01*
X115104886Y-69801906D01*
X115033976Y-69669242D01*
X114985313Y-69508823D01*
X114968883Y-69342000D01*
X114985313Y-69175177D01*
X115033976Y-69014758D01*
X115112995Y-68866924D01*
X115112996Y-68866922D01*
X115219341Y-68737341D01*
X115348922Y-68630996D01*
X115364094Y-68622886D01*
X115496758Y-68551976D01*
X115657177Y-68503313D01*
X115782196Y-68491000D01*
X115865804Y-68491000D01*
X115990823Y-68503313D01*
X115990823Y-68503313D01*
G37*
G36*
X121070823Y-68503313D02*
G01*
X121231242Y-68551976D01*
X121363906Y-68622886D01*
X121379078Y-68630996D01*
X121508659Y-68737341D01*
X121615004Y-68866922D01*
X121615005Y-68866924D01*
X121694024Y-69014758D01*
X121742687Y-69175177D01*
X121759117Y-69342000D01*
X121742687Y-69508823D01*
X121694024Y-69669242D01*
X121623114Y-69801906D01*
X121615004Y-69817078D01*
X121508659Y-69946659D01*
X121379078Y-70053004D01*
X121379076Y-70053005D01*
X121231242Y-70132024D01*
X121070823Y-70180687D01*
X120945804Y-70193000D01*
X120862196Y-70193000D01*
X120737177Y-70180687D01*
X120576758Y-70132024D01*
X120428924Y-70053005D01*
X120428922Y-70053004D01*
X120299341Y-69946659D01*
X120192996Y-69817078D01*
X120184886Y-69801906D01*
X120113976Y-69669242D01*
X120065313Y-69508823D01*
X120048883Y-69342000D01*
X120065313Y-69175177D01*
X120113976Y-69014758D01*
X120192995Y-68866924D01*
X120192996Y-68866922D01*
X120299341Y-68737341D01*
X120428922Y-68630996D01*
X120444094Y-68622886D01*
X120576758Y-68551976D01*
X120737177Y-68503313D01*
X120862196Y-68491000D01*
X120945804Y-68491000D01*
X121070823Y-68503313D01*
X121070823Y-68503313D01*
G37*
G36*
X123610823Y-68503313D02*
G01*
X123771242Y-68551976D01*
X123903906Y-68622886D01*
X123919078Y-68630996D01*
X124048659Y-68737341D01*
X124155004Y-68866922D01*
X124155005Y-68866924D01*
X124234024Y-69014758D01*
X124282687Y-69175177D01*
X124299117Y-69342000D01*
X124282687Y-69508823D01*
X124234024Y-69669242D01*
X124163114Y-69801906D01*
X124155004Y-69817078D01*
X124048659Y-69946659D01*
X123919078Y-70053004D01*
X123919076Y-70053005D01*
X123771242Y-70132024D01*
X123610823Y-70180687D01*
X123485804Y-70193000D01*
X123402196Y-70193000D01*
X123277177Y-70180687D01*
X123116758Y-70132024D01*
X122968924Y-70053005D01*
X122968922Y-70053004D01*
X122839341Y-69946659D01*
X122732996Y-69817078D01*
X122724886Y-69801906D01*
X122653976Y-69669242D01*
X122605313Y-69508823D01*
X122588883Y-69342000D01*
X122605313Y-69175177D01*
X122653976Y-69014758D01*
X122732995Y-68866924D01*
X122732996Y-68866922D01*
X122839341Y-68737341D01*
X122968922Y-68630996D01*
X122984094Y-68622886D01*
X123116758Y-68551976D01*
X123277177Y-68503313D01*
X123402196Y-68491000D01*
X123485804Y-68491000D01*
X123610823Y-68503313D01*
X123610823Y-68503313D01*
G37*
G36*
X126150823Y-68503313D02*
G01*
X126311242Y-68551976D01*
X126443906Y-68622886D01*
X126459078Y-68630996D01*
X126588659Y-68737341D01*
X126695004Y-68866922D01*
X126695005Y-68866924D01*
X126774024Y-69014758D01*
X126822687Y-69175177D01*
X126839117Y-69342000D01*
X126822687Y-69508823D01*
X126774024Y-69669242D01*
X126703114Y-69801906D01*
X126695004Y-69817078D01*
X126588659Y-69946659D01*
X126459078Y-70053004D01*
X126459076Y-70053005D01*
X126311242Y-70132024D01*
X126150823Y-70180687D01*
X126025804Y-70193000D01*
X125942196Y-70193000D01*
X125817177Y-70180687D01*
X125656758Y-70132024D01*
X125508924Y-70053005D01*
X125508922Y-70053004D01*
X125379341Y-69946659D01*
X125272996Y-69817078D01*
X125264886Y-69801906D01*
X125193976Y-69669242D01*
X125145313Y-69508823D01*
X125128883Y-69342000D01*
X125145313Y-69175177D01*
X125193976Y-69014758D01*
X125272995Y-68866924D01*
X125272996Y-68866922D01*
X125379341Y-68737341D01*
X125508922Y-68630996D01*
X125524094Y-68622886D01*
X125656758Y-68551976D01*
X125817177Y-68503313D01*
X125942196Y-68491000D01*
X126025804Y-68491000D01*
X126150823Y-68503313D01*
X126150823Y-68503313D01*
G37*
G36*
X118530823Y-68503313D02*
G01*
X118691242Y-68551976D01*
X118823906Y-68622886D01*
X118839078Y-68630996D01*
X118968659Y-68737341D01*
X119075004Y-68866922D01*
X119075005Y-68866924D01*
X119154024Y-69014758D01*
X119202687Y-69175177D01*
X119219117Y-69342000D01*
X119202687Y-69508823D01*
X119154024Y-69669242D01*
X119083114Y-69801906D01*
X119075004Y-69817078D01*
X118968659Y-69946659D01*
X118839078Y-70053004D01*
X118839076Y-70053005D01*
X118691242Y-70132024D01*
X118530823Y-70180687D01*
X118405804Y-70193000D01*
X118322196Y-70193000D01*
X118197177Y-70180687D01*
X118036758Y-70132024D01*
X117888924Y-70053005D01*
X117888922Y-70053004D01*
X117759341Y-69946659D01*
X117652996Y-69817078D01*
X117644886Y-69801906D01*
X117573976Y-69669242D01*
X117525313Y-69508823D01*
X117508883Y-69342000D01*
X117525313Y-69175177D01*
X117573976Y-69014758D01*
X117652995Y-68866924D01*
X117652996Y-68866922D01*
X117759341Y-68737341D01*
X117888922Y-68630996D01*
X117904094Y-68622886D01*
X118036758Y-68551976D01*
X118197177Y-68503313D01*
X118322196Y-68491000D01*
X118405804Y-68491000D01*
X118530823Y-68503313D01*
X118530823Y-68503313D01*
G37*
G36*
X115041642Y-63999781D02*
G01*
X115187414Y-64060162D01*
X115187416Y-64060163D01*
X115318608Y-64147822D01*
X115430178Y-64259392D01*
X115517837Y-64390584D01*
X115517838Y-64390586D01*
X115578219Y-64536358D01*
X115609000Y-64691107D01*
X115609000Y-64848893D01*
X115578219Y-65003642D01*
X115517838Y-65149414D01*
X115517837Y-65149416D01*
X115430178Y-65280608D01*
X115318608Y-65392178D01*
X115187416Y-65479837D01*
X115187415Y-65479838D01*
X115187414Y-65479838D01*
X115041642Y-65540219D01*
X114886893Y-65571000D01*
X114729107Y-65571000D01*
X114574358Y-65540219D01*
X114428586Y-65479838D01*
X114428585Y-65479838D01*
X114428584Y-65479837D01*
X114297392Y-65392178D01*
X114185822Y-65280608D01*
X114098163Y-65149416D01*
X114098162Y-65149414D01*
X114037781Y-65003642D01*
X114007000Y-64848893D01*
X114007000Y-64691107D01*
X114037781Y-64536358D01*
X114098162Y-64390586D01*
X114098163Y-64390584D01*
X114185822Y-64259392D01*
X114297392Y-64147822D01*
X114428584Y-64060163D01*
X114428586Y-64060162D01*
X114574358Y-63999781D01*
X114729107Y-63969000D01*
X114886893Y-63969000D01*
X115041642Y-63999781D01*
X115041642Y-63999781D01*
G37*
G36*
X120689000Y-65571000D02*
G01*
X119087000Y-65571000D01*
X119087000Y-63969000D01*
X120689000Y-63969000D01*
X120689000Y-65571000D01*
X120689000Y-65571000D01*
G37*
G36*
X117581642Y-63999781D02*
G01*
X117727414Y-64060162D01*
X117727416Y-64060163D01*
X117858608Y-64147822D01*
X117970178Y-64259392D01*
X118057837Y-64390584D01*
X118057838Y-64390586D01*
X118118219Y-64536358D01*
X118149000Y-64691107D01*
X118149000Y-64848893D01*
X118118219Y-65003642D01*
X118057838Y-65149414D01*
X118057837Y-65149416D01*
X117970178Y-65280608D01*
X117858608Y-65392178D01*
X117727416Y-65479837D01*
X117727415Y-65479838D01*
X117727414Y-65479838D01*
X117581642Y-65540219D01*
X117426893Y-65571000D01*
X117269107Y-65571000D01*
X117114358Y-65540219D01*
X116968586Y-65479838D01*
X116968585Y-65479838D01*
X116968584Y-65479837D01*
X116837392Y-65392178D01*
X116725822Y-65280608D01*
X116638163Y-65149416D01*
X116638162Y-65149414D01*
X116577781Y-65003642D01*
X116547000Y-64848893D01*
X116547000Y-64691107D01*
X116577781Y-64536358D01*
X116638162Y-64390586D01*
X116638163Y-64390584D01*
X116725822Y-64259392D01*
X116837392Y-64147822D01*
X116968584Y-64060163D01*
X116968586Y-64060162D01*
X117114358Y-63999781D01*
X117269107Y-63969000D01*
X117426893Y-63969000D01*
X117581642Y-63999781D01*
X117581642Y-63999781D01*
G37*
G36*
X125709642Y-63999781D02*
G01*
X125855414Y-64060162D01*
X125855416Y-64060163D01*
X125986608Y-64147822D01*
X126098178Y-64259392D01*
X126185837Y-64390584D01*
X126185838Y-64390586D01*
X126246219Y-64536358D01*
X126277000Y-64691107D01*
X126277000Y-64848893D01*
X126246219Y-65003642D01*
X126185838Y-65149414D01*
X126185837Y-65149416D01*
X126098178Y-65280608D01*
X125986608Y-65392178D01*
X125855416Y-65479837D01*
X125855415Y-65479838D01*
X125855414Y-65479838D01*
X125709642Y-65540219D01*
X125554893Y-65571000D01*
X125397107Y-65571000D01*
X125242358Y-65540219D01*
X125096586Y-65479838D01*
X125096585Y-65479838D01*
X125096584Y-65479837D01*
X124965392Y-65392178D01*
X124853822Y-65280608D01*
X124766163Y-65149416D01*
X124766162Y-65149414D01*
X124705781Y-65003642D01*
X124675000Y-64848893D01*
X124675000Y-64691107D01*
X124705781Y-64536358D01*
X124766162Y-64390586D01*
X124766163Y-64390584D01*
X124853822Y-64259392D01*
X124965392Y-64147822D01*
X125096584Y-64060163D01*
X125096586Y-64060162D01*
X125242358Y-63999781D01*
X125397107Y-63969000D01*
X125554893Y-63969000D01*
X125709642Y-63999781D01*
X125709642Y-63999781D01*
G37*
G36*
X123169642Y-63999781D02*
G01*
X123315414Y-64060162D01*
X123315416Y-64060163D01*
X123446608Y-64147822D01*
X123558178Y-64259392D01*
X123645837Y-64390584D01*
X123645838Y-64390586D01*
X123706219Y-64536358D01*
X123737000Y-64691107D01*
X123737000Y-64848893D01*
X123706219Y-65003642D01*
X123645838Y-65149414D01*
X123645837Y-65149416D01*
X123558178Y-65280608D01*
X123446608Y-65392178D01*
X123315416Y-65479837D01*
X123315415Y-65479838D01*
X123315414Y-65479838D01*
X123169642Y-65540219D01*
X123014893Y-65571000D01*
X122857107Y-65571000D01*
X122702358Y-65540219D01*
X122556586Y-65479838D01*
X122556585Y-65479838D01*
X122556584Y-65479837D01*
X122425392Y-65392178D01*
X122313822Y-65280608D01*
X122226163Y-65149416D01*
X122226162Y-65149414D01*
X122165781Y-65003642D01*
X122135000Y-64848893D01*
X122135000Y-64691107D01*
X122165781Y-64536358D01*
X122226162Y-64390586D01*
X122226163Y-64390584D01*
X122313822Y-64259392D01*
X122425392Y-64147822D01*
X122556584Y-64060163D01*
X122556586Y-64060162D01*
X122702358Y-63999781D01*
X122857107Y-63969000D01*
X123014893Y-63969000D01*
X123169642Y-63999781D01*
X123169642Y-63999781D01*
G37*
G36*
X128817000Y-65571000D02*
G01*
X127215000Y-65571000D01*
X127215000Y-63969000D01*
X128817000Y-63969000D01*
X128817000Y-65571000D01*
X128817000Y-65571000D01*
G37*
G36*
X131297642Y-63999781D02*
G01*
X131443414Y-64060162D01*
X131443416Y-64060163D01*
X131574608Y-64147822D01*
X131686178Y-64259392D01*
X131773837Y-64390584D01*
X131773838Y-64390586D01*
X131834219Y-64536358D01*
X131865000Y-64691107D01*
X131865000Y-64848893D01*
X131834219Y-65003642D01*
X131773838Y-65149414D01*
X131773837Y-65149416D01*
X131686178Y-65280608D01*
X131574608Y-65392178D01*
X131443416Y-65479837D01*
X131443415Y-65479838D01*
X131443414Y-65479838D01*
X131297642Y-65540219D01*
X131142893Y-65571000D01*
X130985107Y-65571000D01*
X130830358Y-65540219D01*
X130684586Y-65479838D01*
X130684585Y-65479838D01*
X130684584Y-65479837D01*
X130553392Y-65392178D01*
X130441822Y-65280608D01*
X130354163Y-65149416D01*
X130354162Y-65149414D01*
X130293781Y-65003642D01*
X130263000Y-64848893D01*
X130263000Y-64691107D01*
X130293781Y-64536358D01*
X130354162Y-64390586D01*
X130354163Y-64390584D01*
X130441822Y-64259392D01*
X130553392Y-64147822D01*
X130684584Y-64060163D01*
X130684586Y-64060162D01*
X130830358Y-63999781D01*
X130985107Y-63969000D01*
X131142893Y-63969000D01*
X131297642Y-63999781D01*
X131297642Y-63999781D01*
G37*
G36*
X133837642Y-63999781D02*
G01*
X133983414Y-64060162D01*
X133983416Y-64060163D01*
X134114608Y-64147822D01*
X134226178Y-64259392D01*
X134313837Y-64390584D01*
X134313838Y-64390586D01*
X134374219Y-64536358D01*
X134405000Y-64691107D01*
X134405000Y-64848893D01*
X134374219Y-65003642D01*
X134313838Y-65149414D01*
X134313837Y-65149416D01*
X134226178Y-65280608D01*
X134114608Y-65392178D01*
X133983416Y-65479837D01*
X133983415Y-65479838D01*
X133983414Y-65479838D01*
X133837642Y-65540219D01*
X133682893Y-65571000D01*
X133525107Y-65571000D01*
X133370358Y-65540219D01*
X133224586Y-65479838D01*
X133224585Y-65479838D01*
X133224584Y-65479837D01*
X133093392Y-65392178D01*
X132981822Y-65280608D01*
X132894163Y-65149416D01*
X132894162Y-65149414D01*
X132833781Y-65003642D01*
X132803000Y-64848893D01*
X132803000Y-64691107D01*
X132833781Y-64536358D01*
X132894162Y-64390586D01*
X132894163Y-64390584D01*
X132981822Y-64259392D01*
X133093392Y-64147822D01*
X133224584Y-64060163D01*
X133224586Y-64060162D01*
X133370358Y-63999781D01*
X133525107Y-63969000D01*
X133682893Y-63969000D01*
X133837642Y-63999781D01*
X133837642Y-63999781D01*
G37*
G36*
X136945000Y-65571000D02*
G01*
X135343000Y-65571000D01*
X135343000Y-63969000D01*
X136945000Y-63969000D01*
X136945000Y-65571000D01*
X136945000Y-65571000D01*
G37*
G36*
X123169642Y-59427781D02*
G01*
X123315414Y-59488162D01*
X123315416Y-59488163D01*
X123446608Y-59575822D01*
X123558178Y-59687392D01*
X123645837Y-59818584D01*
X123645838Y-59818586D01*
X123706219Y-59964358D01*
X123737000Y-60119107D01*
X123737000Y-60276893D01*
X123706219Y-60431642D01*
X123645838Y-60577414D01*
X123645837Y-60577416D01*
X123558178Y-60708608D01*
X123446608Y-60820178D01*
X123315416Y-60907837D01*
X123315415Y-60907838D01*
X123315414Y-60907838D01*
X123169642Y-60968219D01*
X123014893Y-60999000D01*
X122857107Y-60999000D01*
X122702358Y-60968219D01*
X122556586Y-60907838D01*
X122556585Y-60907838D01*
X122556584Y-60907837D01*
X122425392Y-60820178D01*
X122313822Y-60708608D01*
X122226163Y-60577416D01*
X122226162Y-60577414D01*
X122165781Y-60431642D01*
X122135000Y-60276893D01*
X122135000Y-60119107D01*
X122165781Y-59964358D01*
X122226162Y-59818586D01*
X122226163Y-59818584D01*
X122313822Y-59687392D01*
X122425392Y-59575822D01*
X122556584Y-59488163D01*
X122556586Y-59488162D01*
X122702358Y-59427781D01*
X122857107Y-59397000D01*
X123014893Y-59397000D01*
X123169642Y-59427781D01*
X123169642Y-59427781D01*
G37*
G36*
X133837642Y-59427781D02*
G01*
X133983414Y-59488162D01*
X133983416Y-59488163D01*
X134114608Y-59575822D01*
X134226178Y-59687392D01*
X134313837Y-59818584D01*
X134313838Y-59818586D01*
X134374219Y-59964358D01*
X134405000Y-60119107D01*
X134405000Y-60276893D01*
X134374219Y-60431642D01*
X134313838Y-60577414D01*
X134313837Y-60577416D01*
X134226178Y-60708608D01*
X134114608Y-60820178D01*
X133983416Y-60907837D01*
X133983415Y-60907838D01*
X133983414Y-60907838D01*
X133837642Y-60968219D01*
X133682893Y-60999000D01*
X133525107Y-60999000D01*
X133370358Y-60968219D01*
X133224586Y-60907838D01*
X133224585Y-60907838D01*
X133224584Y-60907837D01*
X133093392Y-60820178D01*
X132981822Y-60708608D01*
X132894163Y-60577416D01*
X132894162Y-60577414D01*
X132833781Y-60431642D01*
X132803000Y-60276893D01*
X132803000Y-60119107D01*
X132833781Y-59964358D01*
X132894162Y-59818586D01*
X132894163Y-59818584D01*
X132981822Y-59687392D01*
X133093392Y-59575822D01*
X133224584Y-59488163D01*
X133224586Y-59488162D01*
X133370358Y-59427781D01*
X133525107Y-59397000D01*
X133682893Y-59397000D01*
X133837642Y-59427781D01*
X133837642Y-59427781D01*
G37*
G36*
X131297642Y-59427781D02*
G01*
X131443414Y-59488162D01*
X131443416Y-59488163D01*
X131574608Y-59575822D01*
X131686178Y-59687392D01*
X131773837Y-59818584D01*
X131773838Y-59818586D01*
X131834219Y-59964358D01*
X131865000Y-60119107D01*
X131865000Y-60276893D01*
X131834219Y-60431642D01*
X131773838Y-60577414D01*
X131773837Y-60577416D01*
X131686178Y-60708608D01*
X131574608Y-60820178D01*
X131443416Y-60907837D01*
X131443415Y-60907838D01*
X131443414Y-60907838D01*
X131297642Y-60968219D01*
X131142893Y-60999000D01*
X130985107Y-60999000D01*
X130830358Y-60968219D01*
X130684586Y-60907838D01*
X130684585Y-60907838D01*
X130684584Y-60907837D01*
X130553392Y-60820178D01*
X130441822Y-60708608D01*
X130354163Y-60577416D01*
X130354162Y-60577414D01*
X130293781Y-60431642D01*
X130263000Y-60276893D01*
X130263000Y-60119107D01*
X130293781Y-59964358D01*
X130354162Y-59818586D01*
X130354163Y-59818584D01*
X130441822Y-59687392D01*
X130553392Y-59575822D01*
X130684584Y-59488163D01*
X130684586Y-59488162D01*
X130830358Y-59427781D01*
X130985107Y-59397000D01*
X131142893Y-59397000D01*
X131297642Y-59427781D01*
X131297642Y-59427781D01*
G37*
G36*
X129325000Y-60999000D02*
G01*
X127723000Y-60999000D01*
X127723000Y-59397000D01*
X129325000Y-59397000D01*
X129325000Y-60999000D01*
X129325000Y-60999000D01*
G37*
G36*
X125709642Y-59427781D02*
G01*
X125855414Y-59488162D01*
X125855416Y-59488163D01*
X125986608Y-59575822D01*
X126098178Y-59687392D01*
X126185837Y-59818584D01*
X126185838Y-59818586D01*
X126246219Y-59964358D01*
X126277000Y-60119107D01*
X126277000Y-60276893D01*
X126246219Y-60431642D01*
X126185838Y-60577414D01*
X126185837Y-60577416D01*
X126098178Y-60708608D01*
X125986608Y-60820178D01*
X125855416Y-60907837D01*
X125855415Y-60907838D01*
X125855414Y-60907838D01*
X125709642Y-60968219D01*
X125554893Y-60999000D01*
X125397107Y-60999000D01*
X125242358Y-60968219D01*
X125096586Y-60907838D01*
X125096585Y-60907838D01*
X125096584Y-60907837D01*
X124965392Y-60820178D01*
X124853822Y-60708608D01*
X124766163Y-60577416D01*
X124766162Y-60577414D01*
X124705781Y-60431642D01*
X124675000Y-60276893D01*
X124675000Y-60119107D01*
X124705781Y-59964358D01*
X124766162Y-59818586D01*
X124766163Y-59818584D01*
X124853822Y-59687392D01*
X124965392Y-59575822D01*
X125096584Y-59488163D01*
X125096586Y-59488162D01*
X125242358Y-59427781D01*
X125397107Y-59397000D01*
X125554893Y-59397000D01*
X125709642Y-59427781D01*
X125709642Y-59427781D01*
G37*
G36*
X113069000Y-60999000D02*
G01*
X111467000Y-60999000D01*
X111467000Y-59397000D01*
X113069000Y-59397000D01*
X113069000Y-60999000D01*
X113069000Y-60999000D01*
G37*
G36*
X117581642Y-59427781D02*
G01*
X117727414Y-59488162D01*
X117727416Y-59488163D01*
X117858608Y-59575822D01*
X117970178Y-59687392D01*
X118057837Y-59818584D01*
X118057838Y-59818586D01*
X118118219Y-59964358D01*
X118149000Y-60119107D01*
X118149000Y-60276893D01*
X118118219Y-60431642D01*
X118057838Y-60577414D01*
X118057837Y-60577416D01*
X117970178Y-60708608D01*
X117858608Y-60820178D01*
X117727416Y-60907837D01*
X117727415Y-60907838D01*
X117727414Y-60907838D01*
X117581642Y-60968219D01*
X117426893Y-60999000D01*
X117269107Y-60999000D01*
X117114358Y-60968219D01*
X116968586Y-60907838D01*
X116968585Y-60907838D01*
X116968584Y-60907837D01*
X116837392Y-60820178D01*
X116725822Y-60708608D01*
X116638163Y-60577416D01*
X116638162Y-60577414D01*
X116577781Y-60431642D01*
X116547000Y-60276893D01*
X116547000Y-60119107D01*
X116577781Y-59964358D01*
X116638162Y-59818586D01*
X116638163Y-59818584D01*
X116725822Y-59687392D01*
X116837392Y-59575822D01*
X116968584Y-59488163D01*
X116968586Y-59488162D01*
X117114358Y-59427781D01*
X117269107Y-59397000D01*
X117426893Y-59397000D01*
X117581642Y-59427781D01*
X117581642Y-59427781D01*
G37*
G36*
X115041642Y-59427781D02*
G01*
X115187414Y-59488162D01*
X115187416Y-59488163D01*
X115318608Y-59575822D01*
X115430178Y-59687392D01*
X115517837Y-59818584D01*
X115517838Y-59818586D01*
X115578219Y-59964358D01*
X115609000Y-60119107D01*
X115609000Y-60276893D01*
X115578219Y-60431642D01*
X115517838Y-60577414D01*
X115517837Y-60577416D01*
X115430178Y-60708608D01*
X115318608Y-60820178D01*
X115187416Y-60907837D01*
X115187415Y-60907838D01*
X115187414Y-60907838D01*
X115041642Y-60968219D01*
X114886893Y-60999000D01*
X114729107Y-60999000D01*
X114574358Y-60968219D01*
X114428586Y-60907838D01*
X114428585Y-60907838D01*
X114428584Y-60907837D01*
X114297392Y-60820178D01*
X114185822Y-60708608D01*
X114098163Y-60577416D01*
X114098162Y-60577414D01*
X114037781Y-60431642D01*
X114007000Y-60276893D01*
X114007000Y-60119107D01*
X114037781Y-59964358D01*
X114098162Y-59818586D01*
X114098163Y-59818584D01*
X114185822Y-59687392D01*
X114297392Y-59575822D01*
X114428584Y-59488163D01*
X114428586Y-59488162D01*
X114574358Y-59427781D01*
X114729107Y-59397000D01*
X114886893Y-59397000D01*
X115041642Y-59427781D01*
X115041642Y-59427781D01*
G37*
G36*
X121197000Y-60999000D02*
G01*
X119595000Y-60999000D01*
X119595000Y-59397000D01*
X121197000Y-59397000D01*
X121197000Y-60999000D01*
X121197000Y-60999000D01*
G37*
M02*
