M48
; DRILL file {KiCad (5.1.0)-1} date 8/7/2021 1:07:25 AM
; FORMAT={-:-/ absolute / inch / decimal}
; #@! TF.CreationDate,2021-08-07T01:07:25-05:00
; #@! TF.GenerationSoftware,Kicad,Pcbnew,(5.1.0)-1
; #@! TF.FileFunction,Plated,1,2,PTH
FMAT,2
INCH
T1C0.0157
T2C0.0315
T3C0.0394
T4C0.0394
%
G90
G05
T1
X4.82Y-5.65
T2
X4.7Y-2.81
X5.0Y-2.81
X5.07Y-4.82
X5.07Y-4.92
X5.07Y-5.02
X5.07Y-5.12
X5.07Y-5.22
X5.07Y-5.32
X5.07Y-5.42
X5.07Y-5.52
X5.07Y-5.62
X5.07Y-5.72
X5.37Y-4.82
X5.37Y-4.92
X5.37Y-5.02
X5.37Y-5.12
X5.37Y-5.22
X5.37Y-5.32
X5.37Y-5.42
X5.37Y-5.52
X5.37Y-5.62
X5.37Y-5.72
X4.67Y-3.57
X4.97Y-3.57
X4.22Y-2.81
X4.52Y-2.81
X4.22Y-3.41
X4.32Y-3.41
X4.42Y-3.41
X4.8Y-3.19
X4.9Y-3.19
X5.0Y-3.19
X4.3Y-5.53
X4.6Y-5.53
X4.67Y-3.69
X4.97Y-3.69
X4.7Y-2.93
X5.0Y-2.93
X4.3Y-5.41
X4.6Y-5.41
X4.22Y-3.19
X4.32Y-3.19
X4.42Y-3.19
X4.22Y-3.69
X4.52Y-3.69
X5.07Y-3.95
X5.07Y-4.05
X5.07Y-4.15
X5.07Y-4.25
X5.07Y-4.35
X5.07Y-4.45
X5.07Y-4.55
X5.07Y-4.65
X5.37Y-3.95
X5.37Y-4.05
X5.37Y-4.15
X5.37Y-4.25
X5.37Y-4.35
X5.37Y-4.45
X5.37Y-4.55
X5.37Y-4.65
X4.8Y-3.41
X4.9Y-3.41
X5.0Y-3.41
X4.37Y-3.98
X4.37Y-4.08
X4.37Y-4.18
X4.37Y-4.28
X4.37Y-4.38
X4.37Y-4.48
X4.37Y-4.58
X4.37Y-4.68
X4.37Y-4.78
X4.37Y-4.88
X4.37Y-4.98
X4.37Y-5.08
X4.37Y-5.18
X4.37Y-5.28
X4.67Y-3.98
X4.67Y-4.08
X4.67Y-4.18
X4.67Y-4.28
X4.67Y-4.38
X4.67Y-4.48
X4.67Y-4.58
X4.67Y-4.68
X4.67Y-4.78
X4.67Y-4.88
X4.67Y-4.98
X4.67Y-5.08
X4.67Y-5.18
X4.67Y-5.28
X4.51Y-3.41
X4.61Y-3.41
X4.71Y-3.41
X4.22Y-3.57
X4.52Y-3.57
X4.7Y-3.05
X5.0Y-3.05
X4.67Y-3.81
X4.97Y-3.81
X4.22Y-3.05
X4.52Y-3.05
X4.87Y-4.38
X4.87Y-4.5729
X4.51Y-3.19
X4.61Y-3.19
X4.71Y-3.19
X4.22Y-3.81
X4.52Y-3.81
X4.82Y-4.98
X4.82Y-5.28
X4.22Y-2.93
X4.52Y-2.93
X4.8216Y-4.78
X4.92Y-4.78
X4.36Y-2.68
X4.46Y-2.68
X4.56Y-2.68
X4.66Y-2.68
X4.76Y-2.68
X4.86Y-2.68
X4.96Y-2.68
X4.8216Y-4.18
X4.92Y-4.18
T3
X4.7Y-5.96
X4.8Y-5.96
X4.9Y-5.96
X5.0Y-5.96
X5.2Y-2.67
X5.2Y-2.77
X5.2Y-2.87
X5.2Y-2.97
X5.2Y-3.07
X5.2Y-3.17
X5.2Y-3.27
X5.2Y-3.37
X5.2Y-3.47
X5.3Y-2.67
X5.3Y-2.77
X5.3Y-2.87
X5.3Y-2.97
X5.3Y-3.07
X5.3Y-3.17
X5.3Y-3.27
X5.3Y-3.37
X5.3Y-3.47
T4
X4.25Y-5.96
X4.35Y-5.96
X4.45Y-5.96
T0
M30
