G04 #@! TF.GenerationSoftware,KiCad,Pcbnew,(5.1.0)-1*
G04 #@! TF.CreationDate,2021-08-07T01:09:51-05:00*
G04 #@! TF.ProjectId,nixie_legacy-demux,6e697869-655f-46c6-9567-6163792d6465,rev?*
G04 #@! TF.SameCoordinates,Original*
G04 #@! TF.FileFunction,Soldermask,Bot*
G04 #@! TF.FilePolarity,Negative*
%FSLAX46Y46*%
G04 Gerber Fmt 4.6, Leading zero omitted, Abs format (unit mm)*
G04 Created by KiCad (PCBNEW (5.1.0)-1) date 2021-08-07 01:09:51*
%MOMM*%
%LPD*%
G04 APERTURE LIST*
%ADD10C,0.100000*%
G04 APERTURE END LIST*
D10*
G36*
X108109376Y-150244944D02*
G01*
X108262627Y-150291432D01*
X108262630Y-150291433D01*
X108403863Y-150366924D01*
X108527659Y-150468521D01*
X108629256Y-150592317D01*
X108704747Y-150733550D01*
X108704748Y-150733553D01*
X108751236Y-150886804D01*
X108763000Y-151006247D01*
X108763000Y-151761753D01*
X108751236Y-151881196D01*
X108749478Y-151886991D01*
X108704747Y-152034450D01*
X108629256Y-152175683D01*
X108527659Y-152299479D01*
X108403863Y-152401076D01*
X108262629Y-152476567D01*
X108262626Y-152476568D01*
X108109375Y-152523056D01*
X107950000Y-152538753D01*
X107790624Y-152523056D01*
X107637373Y-152476568D01*
X107637370Y-152476567D01*
X107496137Y-152401076D01*
X107372341Y-152299479D01*
X107270744Y-152175683D01*
X107195253Y-152034449D01*
X107192139Y-152024185D01*
X107148764Y-151881195D01*
X107137000Y-151761752D01*
X107137000Y-151006247D01*
X107148764Y-150886804D01*
X107195253Y-150733553D01*
X107249950Y-150631222D01*
X107270745Y-150592317D01*
X107372342Y-150468521D01*
X107496138Y-150366924D01*
X107637371Y-150291433D01*
X107637374Y-150291432D01*
X107790625Y-150244944D01*
X107950000Y-150229247D01*
X108109376Y-150244944D01*
X108109376Y-150244944D01*
G37*
G36*
X110649376Y-150244944D02*
G01*
X110802627Y-150291432D01*
X110802630Y-150291433D01*
X110943863Y-150366924D01*
X111067659Y-150468521D01*
X111169256Y-150592317D01*
X111244747Y-150733550D01*
X111244748Y-150733553D01*
X111291236Y-150886804D01*
X111303000Y-151006247D01*
X111303000Y-151761753D01*
X111291236Y-151881196D01*
X111289478Y-151886991D01*
X111244747Y-152034450D01*
X111169256Y-152175683D01*
X111067659Y-152299479D01*
X110943863Y-152401076D01*
X110802629Y-152476567D01*
X110802626Y-152476568D01*
X110649375Y-152523056D01*
X110490000Y-152538753D01*
X110330624Y-152523056D01*
X110177373Y-152476568D01*
X110177370Y-152476567D01*
X110036137Y-152401076D01*
X109912341Y-152299479D01*
X109810744Y-152175683D01*
X109735253Y-152034449D01*
X109732139Y-152024185D01*
X109688764Y-151881195D01*
X109677000Y-151761752D01*
X109677000Y-151006247D01*
X109688764Y-150886804D01*
X109735253Y-150733553D01*
X109789950Y-150631222D01*
X109810745Y-150592317D01*
X109912342Y-150468521D01*
X110036138Y-150366924D01*
X110177371Y-150291433D01*
X110177374Y-150291432D01*
X110330625Y-150244944D01*
X110490000Y-150229247D01*
X110649376Y-150244944D01*
X110649376Y-150244944D01*
G37*
G36*
X113843000Y-152534820D02*
G01*
X112217000Y-152534820D01*
X112217000Y-150233180D01*
X113843000Y-150233180D01*
X113843000Y-152534820D01*
X113843000Y-152534820D01*
G37*
G36*
X120281000Y-152285000D02*
G01*
X118479000Y-152285000D01*
X118479000Y-150483000D01*
X120281000Y-150483000D01*
X120281000Y-152285000D01*
X120281000Y-152285000D01*
G37*
G36*
X122030442Y-150489518D02*
G01*
X122096627Y-150496037D01*
X122266466Y-150547557D01*
X122422991Y-150631222D01*
X122458729Y-150660552D01*
X122560186Y-150743814D01*
X122643448Y-150845271D01*
X122672778Y-150881009D01*
X122756443Y-151037534D01*
X122807963Y-151207373D01*
X122825359Y-151384000D01*
X122807963Y-151560627D01*
X122756443Y-151730466D01*
X122672778Y-151886991D01*
X122643448Y-151922729D01*
X122560186Y-152024186D01*
X122458729Y-152107448D01*
X122422991Y-152136778D01*
X122266466Y-152220443D01*
X122096627Y-152271963D01*
X122030443Y-152278481D01*
X121964260Y-152285000D01*
X121875740Y-152285000D01*
X121809557Y-152278481D01*
X121743373Y-152271963D01*
X121573534Y-152220443D01*
X121417009Y-152136778D01*
X121381271Y-152107448D01*
X121279814Y-152024186D01*
X121196552Y-151922729D01*
X121167222Y-151886991D01*
X121083557Y-151730466D01*
X121032037Y-151560627D01*
X121014641Y-151384000D01*
X121032037Y-151207373D01*
X121083557Y-151037534D01*
X121167222Y-150881009D01*
X121196552Y-150845271D01*
X121279814Y-150743814D01*
X121381271Y-150660552D01*
X121417009Y-150631222D01*
X121573534Y-150547557D01*
X121743373Y-150496037D01*
X121809558Y-150489518D01*
X121875740Y-150483000D01*
X121964260Y-150483000D01*
X122030442Y-150489518D01*
X122030442Y-150489518D01*
G37*
G36*
X127110442Y-150489518D02*
G01*
X127176627Y-150496037D01*
X127346466Y-150547557D01*
X127502991Y-150631222D01*
X127538729Y-150660552D01*
X127640186Y-150743814D01*
X127723448Y-150845271D01*
X127752778Y-150881009D01*
X127836443Y-151037534D01*
X127887963Y-151207373D01*
X127905359Y-151384000D01*
X127887963Y-151560627D01*
X127836443Y-151730466D01*
X127752778Y-151886991D01*
X127723448Y-151922729D01*
X127640186Y-152024186D01*
X127538729Y-152107448D01*
X127502991Y-152136778D01*
X127346466Y-152220443D01*
X127176627Y-152271963D01*
X127110443Y-152278481D01*
X127044260Y-152285000D01*
X126955740Y-152285000D01*
X126889557Y-152278481D01*
X126823373Y-152271963D01*
X126653534Y-152220443D01*
X126497009Y-152136778D01*
X126461271Y-152107448D01*
X126359814Y-152024186D01*
X126276552Y-151922729D01*
X126247222Y-151886991D01*
X126163557Y-151730466D01*
X126112037Y-151560627D01*
X126094641Y-151384000D01*
X126112037Y-151207373D01*
X126163557Y-151037534D01*
X126247222Y-150881009D01*
X126276552Y-150845271D01*
X126359814Y-150743814D01*
X126461271Y-150660552D01*
X126497009Y-150631222D01*
X126653534Y-150547557D01*
X126823373Y-150496037D01*
X126889558Y-150489518D01*
X126955740Y-150483000D01*
X127044260Y-150483000D01*
X127110442Y-150489518D01*
X127110442Y-150489518D01*
G37*
G36*
X124570442Y-150489518D02*
G01*
X124636627Y-150496037D01*
X124806466Y-150547557D01*
X124962991Y-150631222D01*
X124998729Y-150660552D01*
X125100186Y-150743814D01*
X125183448Y-150845271D01*
X125212778Y-150881009D01*
X125296443Y-151037534D01*
X125347963Y-151207373D01*
X125365359Y-151384000D01*
X125347963Y-151560627D01*
X125296443Y-151730466D01*
X125212778Y-151886991D01*
X125183448Y-151922729D01*
X125100186Y-152024186D01*
X124998729Y-152107448D01*
X124962991Y-152136778D01*
X124806466Y-152220443D01*
X124636627Y-152271963D01*
X124570443Y-152278481D01*
X124504260Y-152285000D01*
X124415740Y-152285000D01*
X124349557Y-152278481D01*
X124283373Y-152271963D01*
X124113534Y-152220443D01*
X123957009Y-152136778D01*
X123921271Y-152107448D01*
X123819814Y-152024186D01*
X123736552Y-151922729D01*
X123707222Y-151886991D01*
X123623557Y-151730466D01*
X123572037Y-151560627D01*
X123554641Y-151384000D01*
X123572037Y-151207373D01*
X123623557Y-151037534D01*
X123707222Y-150881009D01*
X123736552Y-150845271D01*
X123819814Y-150743814D01*
X123921271Y-150660552D01*
X123957009Y-150631222D01*
X124113534Y-150547557D01*
X124283373Y-150496037D01*
X124349558Y-150489518D01*
X124415740Y-150483000D01*
X124504260Y-150483000D01*
X124570442Y-150489518D01*
X124570442Y-150489518D01*
G37*
G36*
X129344823Y-144449313D02*
G01*
X129505242Y-144497976D01*
X129637906Y-144568886D01*
X129653078Y-144576996D01*
X129782659Y-144683341D01*
X129889004Y-144812922D01*
X129889005Y-144812924D01*
X129968024Y-144960758D01*
X130016687Y-145121177D01*
X130033117Y-145288000D01*
X130016687Y-145454823D01*
X129968024Y-145615242D01*
X129897114Y-145747906D01*
X129889004Y-145763078D01*
X129782659Y-145892659D01*
X129653078Y-145999004D01*
X129653076Y-145999005D01*
X129505242Y-146078024D01*
X129344823Y-146126687D01*
X129219804Y-146139000D01*
X128336196Y-146139000D01*
X128211177Y-146126687D01*
X128050758Y-146078024D01*
X127902924Y-145999005D01*
X127902922Y-145999004D01*
X127773341Y-145892659D01*
X127666996Y-145763078D01*
X127658886Y-145747906D01*
X127587976Y-145615242D01*
X127539313Y-145454823D01*
X127522883Y-145288000D01*
X127539313Y-145121177D01*
X127587976Y-144960758D01*
X127666995Y-144812924D01*
X127666996Y-144812922D01*
X127773341Y-144683341D01*
X127902922Y-144576996D01*
X127918094Y-144568886D01*
X128050758Y-144497976D01*
X128211177Y-144449313D01*
X128336196Y-144437000D01*
X129219804Y-144437000D01*
X129344823Y-144449313D01*
X129344823Y-144449313D01*
G37*
G36*
X136964823Y-144449313D02*
G01*
X137125242Y-144497976D01*
X137257906Y-144568886D01*
X137273078Y-144576996D01*
X137402659Y-144683341D01*
X137509004Y-144812922D01*
X137509005Y-144812924D01*
X137588024Y-144960758D01*
X137636687Y-145121177D01*
X137653117Y-145288000D01*
X137636687Y-145454823D01*
X137588024Y-145615242D01*
X137517114Y-145747906D01*
X137509004Y-145763078D01*
X137402659Y-145892659D01*
X137273078Y-145999004D01*
X137273076Y-145999005D01*
X137125242Y-146078024D01*
X136964823Y-146126687D01*
X136839804Y-146139000D01*
X135956196Y-146139000D01*
X135831177Y-146126687D01*
X135670758Y-146078024D01*
X135522924Y-145999005D01*
X135522922Y-145999004D01*
X135393341Y-145892659D01*
X135286996Y-145763078D01*
X135278886Y-145747906D01*
X135207976Y-145615242D01*
X135159313Y-145454823D01*
X135142883Y-145288000D01*
X135159313Y-145121177D01*
X135207976Y-144960758D01*
X135286995Y-144812924D01*
X135286996Y-144812922D01*
X135393341Y-144683341D01*
X135522922Y-144576996D01*
X135538094Y-144568886D01*
X135670758Y-144497976D01*
X135831177Y-144449313D01*
X135956196Y-144437000D01*
X136839804Y-144437000D01*
X136964823Y-144449313D01*
X136964823Y-144449313D01*
G37*
G36*
X129344823Y-141909313D02*
G01*
X129505242Y-141957976D01*
X129637906Y-142028886D01*
X129653078Y-142036996D01*
X129782659Y-142143341D01*
X129889004Y-142272922D01*
X129889005Y-142272924D01*
X129968024Y-142420758D01*
X130016687Y-142581177D01*
X130033117Y-142748000D01*
X130016687Y-142914823D01*
X129968024Y-143075242D01*
X129897114Y-143207906D01*
X129889004Y-143223078D01*
X129782659Y-143352659D01*
X129653078Y-143459004D01*
X129653076Y-143459005D01*
X129505242Y-143538024D01*
X129344823Y-143586687D01*
X129219804Y-143599000D01*
X128336196Y-143599000D01*
X128211177Y-143586687D01*
X128050758Y-143538024D01*
X127902924Y-143459005D01*
X127902922Y-143459004D01*
X127773341Y-143352659D01*
X127666996Y-143223078D01*
X127658886Y-143207906D01*
X127587976Y-143075242D01*
X127539313Y-142914823D01*
X127522883Y-142748000D01*
X127539313Y-142581177D01*
X127587976Y-142420758D01*
X127666995Y-142272924D01*
X127666996Y-142272922D01*
X127773341Y-142143341D01*
X127902922Y-142036996D01*
X127918094Y-142028886D01*
X128050758Y-141957976D01*
X128211177Y-141909313D01*
X128336196Y-141897000D01*
X129219804Y-141897000D01*
X129344823Y-141909313D01*
X129344823Y-141909313D01*
G37*
G36*
X136964823Y-141909313D02*
G01*
X137125242Y-141957976D01*
X137257906Y-142028886D01*
X137273078Y-142036996D01*
X137402659Y-142143341D01*
X137509004Y-142272922D01*
X137509005Y-142272924D01*
X137588024Y-142420758D01*
X137636687Y-142581177D01*
X137653117Y-142748000D01*
X137636687Y-142914823D01*
X137588024Y-143075242D01*
X137517114Y-143207906D01*
X137509004Y-143223078D01*
X137402659Y-143352659D01*
X137273078Y-143459004D01*
X137273076Y-143459005D01*
X137125242Y-143538024D01*
X136964823Y-143586687D01*
X136839804Y-143599000D01*
X135956196Y-143599000D01*
X135831177Y-143586687D01*
X135670758Y-143538024D01*
X135522924Y-143459005D01*
X135522922Y-143459004D01*
X135393341Y-143352659D01*
X135286996Y-143223078D01*
X135278886Y-143207906D01*
X135207976Y-143075242D01*
X135159313Y-142914823D01*
X135142883Y-142748000D01*
X135159313Y-142581177D01*
X135207976Y-142420758D01*
X135286995Y-142272924D01*
X135286996Y-142272922D01*
X135393341Y-142143341D01*
X135522922Y-142036996D01*
X135538094Y-142028886D01*
X135670758Y-141957976D01*
X135831177Y-141909313D01*
X135956196Y-141897000D01*
X136839804Y-141897000D01*
X136964823Y-141909313D01*
X136964823Y-141909313D01*
G37*
G36*
X109386823Y-139623313D02*
G01*
X109547242Y-139671976D01*
X109679906Y-139742886D01*
X109695078Y-139750996D01*
X109824659Y-139857341D01*
X109931004Y-139986922D01*
X109931005Y-139986924D01*
X110010024Y-140134758D01*
X110058687Y-140295177D01*
X110075117Y-140462000D01*
X110058687Y-140628823D01*
X110010024Y-140789242D01*
X109969477Y-140865100D01*
X109931004Y-140937078D01*
X109824659Y-141066659D01*
X109695078Y-141173004D01*
X109695076Y-141173005D01*
X109547242Y-141252024D01*
X109386823Y-141300687D01*
X109261804Y-141313000D01*
X109178196Y-141313000D01*
X109053177Y-141300687D01*
X108892758Y-141252024D01*
X108744924Y-141173005D01*
X108744922Y-141173004D01*
X108615341Y-141066659D01*
X108508996Y-140937078D01*
X108470523Y-140865100D01*
X108429976Y-140789242D01*
X108381313Y-140628823D01*
X108364883Y-140462000D01*
X108381313Y-140295177D01*
X108429976Y-140134758D01*
X108508995Y-139986924D01*
X108508996Y-139986922D01*
X108615341Y-139857341D01*
X108744922Y-139750996D01*
X108760094Y-139742886D01*
X108892758Y-139671976D01*
X109053177Y-139623313D01*
X109178196Y-139611000D01*
X109261804Y-139611000D01*
X109386823Y-139623313D01*
X109386823Y-139623313D01*
G37*
G36*
X117088228Y-139643703D02*
G01*
X117243100Y-139707853D01*
X117382481Y-139800985D01*
X117501015Y-139919519D01*
X117594147Y-140058900D01*
X117658297Y-140213772D01*
X117691000Y-140378184D01*
X117691000Y-140545816D01*
X117658297Y-140710228D01*
X117594147Y-140865100D01*
X117501015Y-141004481D01*
X117382481Y-141123015D01*
X117243100Y-141216147D01*
X117088228Y-141280297D01*
X116923816Y-141313000D01*
X116756184Y-141313000D01*
X116591772Y-141280297D01*
X116436900Y-141216147D01*
X116297519Y-141123015D01*
X116178985Y-141004481D01*
X116085853Y-140865100D01*
X116021703Y-140710228D01*
X115989000Y-140545816D01*
X115989000Y-140378184D01*
X116021703Y-140213772D01*
X116085853Y-140058900D01*
X116178985Y-139919519D01*
X116297519Y-139800985D01*
X116436900Y-139707853D01*
X116591772Y-139643703D01*
X116756184Y-139611000D01*
X116923816Y-139611000D01*
X117088228Y-139643703D01*
X117088228Y-139643703D01*
G37*
G36*
X129344823Y-139369313D02*
G01*
X129505242Y-139417976D01*
X129637906Y-139488886D01*
X129653078Y-139496996D01*
X129782659Y-139603341D01*
X129889004Y-139732922D01*
X129889005Y-139732924D01*
X129968024Y-139880758D01*
X130016687Y-140041177D01*
X130033117Y-140208000D01*
X130016687Y-140374823D01*
X129968024Y-140535242D01*
X129962372Y-140545816D01*
X129889004Y-140683078D01*
X129782659Y-140812659D01*
X129653078Y-140919004D01*
X129653076Y-140919005D01*
X129505242Y-140998024D01*
X129344823Y-141046687D01*
X129219804Y-141059000D01*
X128336196Y-141059000D01*
X128211177Y-141046687D01*
X128050758Y-140998024D01*
X127902924Y-140919005D01*
X127902922Y-140919004D01*
X127773341Y-140812659D01*
X127666996Y-140683078D01*
X127593628Y-140545816D01*
X127587976Y-140535242D01*
X127539313Y-140374823D01*
X127522883Y-140208000D01*
X127539313Y-140041177D01*
X127587976Y-139880758D01*
X127666995Y-139732924D01*
X127666996Y-139732922D01*
X127773341Y-139603341D01*
X127902922Y-139496996D01*
X127918094Y-139488886D01*
X128050758Y-139417976D01*
X128211177Y-139369313D01*
X128336196Y-139357000D01*
X129219804Y-139357000D01*
X129344823Y-139369313D01*
X129344823Y-139369313D01*
G37*
G36*
X136964823Y-139369313D02*
G01*
X137125242Y-139417976D01*
X137257906Y-139488886D01*
X137273078Y-139496996D01*
X137402659Y-139603341D01*
X137509004Y-139732922D01*
X137509005Y-139732924D01*
X137588024Y-139880758D01*
X137636687Y-140041177D01*
X137653117Y-140208000D01*
X137636687Y-140374823D01*
X137588024Y-140535242D01*
X137582372Y-140545816D01*
X137509004Y-140683078D01*
X137402659Y-140812659D01*
X137273078Y-140919004D01*
X137273076Y-140919005D01*
X137125242Y-140998024D01*
X136964823Y-141046687D01*
X136839804Y-141059000D01*
X135956196Y-141059000D01*
X135831177Y-141046687D01*
X135670758Y-140998024D01*
X135522924Y-140919005D01*
X135522922Y-140919004D01*
X135393341Y-140812659D01*
X135286996Y-140683078D01*
X135213628Y-140545816D01*
X135207976Y-140535242D01*
X135159313Y-140374823D01*
X135142883Y-140208000D01*
X135159313Y-140041177D01*
X135207976Y-139880758D01*
X135286995Y-139732924D01*
X135286996Y-139732922D01*
X135393341Y-139603341D01*
X135522922Y-139496996D01*
X135538094Y-139488886D01*
X135670758Y-139417976D01*
X135831177Y-139369313D01*
X135956196Y-139357000D01*
X136839804Y-139357000D01*
X136964823Y-139369313D01*
X136964823Y-139369313D01*
G37*
G36*
X136964823Y-136829313D02*
G01*
X137125242Y-136877976D01*
X137257906Y-136948886D01*
X137273078Y-136956996D01*
X137402659Y-137063341D01*
X137509004Y-137192922D01*
X137509005Y-137192924D01*
X137588024Y-137340758D01*
X137636687Y-137501177D01*
X137653117Y-137668000D01*
X137636687Y-137834823D01*
X137588024Y-137995242D01*
X137575507Y-138018659D01*
X137509004Y-138143078D01*
X137402659Y-138272659D01*
X137273078Y-138379004D01*
X137273076Y-138379005D01*
X137125242Y-138458024D01*
X136964823Y-138506687D01*
X136839804Y-138519000D01*
X135956196Y-138519000D01*
X135831177Y-138506687D01*
X135670758Y-138458024D01*
X135522924Y-138379005D01*
X135522922Y-138379004D01*
X135393341Y-138272659D01*
X135286996Y-138143078D01*
X135220493Y-138018659D01*
X135207976Y-137995242D01*
X135159313Y-137834823D01*
X135142883Y-137668000D01*
X135159313Y-137501177D01*
X135207976Y-137340758D01*
X135286995Y-137192924D01*
X135286996Y-137192922D01*
X135393341Y-137063341D01*
X135522922Y-136956996D01*
X135538094Y-136948886D01*
X135670758Y-136877976D01*
X135831177Y-136829313D01*
X135956196Y-136817000D01*
X136839804Y-136817000D01*
X136964823Y-136829313D01*
X136964823Y-136829313D01*
G37*
G36*
X129344823Y-136829313D02*
G01*
X129505242Y-136877976D01*
X129637906Y-136948886D01*
X129653078Y-136956996D01*
X129782659Y-137063341D01*
X129889004Y-137192922D01*
X129889005Y-137192924D01*
X129968024Y-137340758D01*
X130016687Y-137501177D01*
X130033117Y-137668000D01*
X130016687Y-137834823D01*
X129968024Y-137995242D01*
X129955507Y-138018659D01*
X129889004Y-138143078D01*
X129782659Y-138272659D01*
X129653078Y-138379004D01*
X129653076Y-138379005D01*
X129505242Y-138458024D01*
X129344823Y-138506687D01*
X129219804Y-138519000D01*
X128336196Y-138519000D01*
X128211177Y-138506687D01*
X128050758Y-138458024D01*
X127902924Y-138379005D01*
X127902922Y-138379004D01*
X127773341Y-138272659D01*
X127666996Y-138143078D01*
X127600493Y-138018659D01*
X127587976Y-137995242D01*
X127539313Y-137834823D01*
X127522883Y-137668000D01*
X127539313Y-137501177D01*
X127587976Y-137340758D01*
X127666995Y-137192924D01*
X127666996Y-137192922D01*
X127773341Y-137063341D01*
X127902922Y-136956996D01*
X127918094Y-136948886D01*
X128050758Y-136877976D01*
X128211177Y-136829313D01*
X128336196Y-136817000D01*
X129219804Y-136817000D01*
X129344823Y-136829313D01*
X129344823Y-136829313D01*
G37*
G36*
X109386823Y-136575313D02*
G01*
X109547242Y-136623976D01*
X109614361Y-136659852D01*
X109695078Y-136702996D01*
X109824659Y-136809341D01*
X109931004Y-136938922D01*
X109931005Y-136938924D01*
X110010024Y-137086758D01*
X110058687Y-137247177D01*
X110075117Y-137414000D01*
X110058687Y-137580823D01*
X110010024Y-137741242D01*
X109969477Y-137817100D01*
X109931004Y-137889078D01*
X109824659Y-138018659D01*
X109695078Y-138125004D01*
X109695076Y-138125005D01*
X109547242Y-138204024D01*
X109386823Y-138252687D01*
X109261804Y-138265000D01*
X109178196Y-138265000D01*
X109053177Y-138252687D01*
X108892758Y-138204024D01*
X108744924Y-138125005D01*
X108744922Y-138125004D01*
X108615341Y-138018659D01*
X108508996Y-137889078D01*
X108470523Y-137817100D01*
X108429976Y-137741242D01*
X108381313Y-137580823D01*
X108364883Y-137414000D01*
X108381313Y-137247177D01*
X108429976Y-137086758D01*
X108508995Y-136938924D01*
X108508996Y-136938922D01*
X108615341Y-136809341D01*
X108744922Y-136702996D01*
X108825639Y-136659852D01*
X108892758Y-136623976D01*
X109053177Y-136575313D01*
X109178196Y-136563000D01*
X109261804Y-136563000D01*
X109386823Y-136575313D01*
X109386823Y-136575313D01*
G37*
G36*
X117088228Y-136595703D02*
G01*
X117243100Y-136659853D01*
X117382481Y-136752985D01*
X117501015Y-136871519D01*
X117594147Y-137010900D01*
X117658297Y-137165772D01*
X117691000Y-137330184D01*
X117691000Y-137497816D01*
X117658297Y-137662228D01*
X117594147Y-137817100D01*
X117501015Y-137956481D01*
X117382481Y-138075015D01*
X117243100Y-138168147D01*
X117088228Y-138232297D01*
X116923816Y-138265000D01*
X116756184Y-138265000D01*
X116591772Y-138232297D01*
X116436900Y-138168147D01*
X116297519Y-138075015D01*
X116178985Y-137956481D01*
X116085853Y-137817100D01*
X116021703Y-137662228D01*
X115989000Y-137497816D01*
X115989000Y-137330184D01*
X116021703Y-137165772D01*
X116085853Y-137010900D01*
X116178985Y-136871519D01*
X116297519Y-136752985D01*
X116436900Y-136659853D01*
X116591772Y-136595703D01*
X116756184Y-136563000D01*
X116923816Y-136563000D01*
X117088228Y-136595703D01*
X117088228Y-136595703D01*
G37*
G36*
X136964823Y-134289313D02*
G01*
X137125242Y-134337976D01*
X137257906Y-134408886D01*
X137273078Y-134416996D01*
X137402659Y-134523341D01*
X137509004Y-134652922D01*
X137509005Y-134652924D01*
X137588024Y-134800758D01*
X137636687Y-134961177D01*
X137653117Y-135128000D01*
X137636687Y-135294823D01*
X137588024Y-135455242D01*
X137517114Y-135587906D01*
X137509004Y-135603078D01*
X137402659Y-135732659D01*
X137273078Y-135839004D01*
X137273076Y-135839005D01*
X137125242Y-135918024D01*
X136964823Y-135966687D01*
X136839804Y-135979000D01*
X135956196Y-135979000D01*
X135831177Y-135966687D01*
X135670758Y-135918024D01*
X135522924Y-135839005D01*
X135522922Y-135839004D01*
X135393341Y-135732659D01*
X135286996Y-135603078D01*
X135278886Y-135587906D01*
X135207976Y-135455242D01*
X135159313Y-135294823D01*
X135142883Y-135128000D01*
X135159313Y-134961177D01*
X135207976Y-134800758D01*
X135286995Y-134652924D01*
X135286996Y-134652922D01*
X135393341Y-134523341D01*
X135522922Y-134416996D01*
X135538094Y-134408886D01*
X135670758Y-134337976D01*
X135831177Y-134289313D01*
X135956196Y-134277000D01*
X136839804Y-134277000D01*
X136964823Y-134289313D01*
X136964823Y-134289313D01*
G37*
G36*
X129344823Y-134289313D02*
G01*
X129505242Y-134337976D01*
X129637906Y-134408886D01*
X129653078Y-134416996D01*
X129782659Y-134523341D01*
X129889004Y-134652922D01*
X129889005Y-134652924D01*
X129968024Y-134800758D01*
X130016687Y-134961177D01*
X130033117Y-135128000D01*
X130016687Y-135294823D01*
X129968024Y-135455242D01*
X129897114Y-135587906D01*
X129889004Y-135603078D01*
X129782659Y-135732659D01*
X129653078Y-135839004D01*
X129653076Y-135839005D01*
X129505242Y-135918024D01*
X129344823Y-135966687D01*
X129219804Y-135979000D01*
X128336196Y-135979000D01*
X128211177Y-135966687D01*
X128050758Y-135918024D01*
X127902924Y-135839005D01*
X127902922Y-135839004D01*
X127773341Y-135732659D01*
X127666996Y-135603078D01*
X127658886Y-135587906D01*
X127587976Y-135455242D01*
X127539313Y-135294823D01*
X127522883Y-135128000D01*
X127539313Y-134961177D01*
X127587976Y-134800758D01*
X127666995Y-134652924D01*
X127666996Y-134652922D01*
X127773341Y-134523341D01*
X127902922Y-134416996D01*
X127918094Y-134408886D01*
X128050758Y-134337976D01*
X128211177Y-134289313D01*
X128336196Y-134277000D01*
X129219804Y-134277000D01*
X129344823Y-134289313D01*
X129344823Y-134289313D01*
G37*
G36*
X122594823Y-133273313D02*
G01*
X122755242Y-133321976D01*
X122860100Y-133378024D01*
X122903078Y-133400996D01*
X123032659Y-133507341D01*
X123139004Y-133636922D01*
X123139005Y-133636924D01*
X123218024Y-133784758D01*
X123266687Y-133945177D01*
X123283117Y-134112000D01*
X123266687Y-134278823D01*
X123218024Y-134439242D01*
X123173072Y-134523341D01*
X123139004Y-134587078D01*
X123032659Y-134716659D01*
X122903078Y-134823004D01*
X122903076Y-134823005D01*
X122755242Y-134902024D01*
X122594823Y-134950687D01*
X122469804Y-134963000D01*
X122386196Y-134963000D01*
X122261177Y-134950687D01*
X122100758Y-134902024D01*
X121952924Y-134823005D01*
X121952922Y-134823004D01*
X121823341Y-134716659D01*
X121716996Y-134587078D01*
X121682928Y-134523341D01*
X121637976Y-134439242D01*
X121589313Y-134278823D01*
X121572883Y-134112000D01*
X121589313Y-133945177D01*
X121637976Y-133784758D01*
X121716995Y-133636924D01*
X121716996Y-133636922D01*
X121823341Y-133507341D01*
X121952922Y-133400996D01*
X121995900Y-133378024D01*
X122100758Y-133321976D01*
X122261177Y-133273313D01*
X122386196Y-133261000D01*
X122469804Y-133261000D01*
X122594823Y-133273313D01*
X122594823Y-133273313D01*
G37*
G36*
X111564823Y-133273313D02*
G01*
X111725242Y-133321976D01*
X111830100Y-133378024D01*
X111873078Y-133400996D01*
X112002659Y-133507341D01*
X112109004Y-133636922D01*
X112109005Y-133636924D01*
X112188024Y-133784758D01*
X112236687Y-133945177D01*
X112253117Y-134112000D01*
X112236687Y-134278823D01*
X112188024Y-134439242D01*
X112143072Y-134523341D01*
X112109004Y-134587078D01*
X112002659Y-134716659D01*
X111873078Y-134823004D01*
X111873076Y-134823005D01*
X111725242Y-134902024D01*
X111564823Y-134950687D01*
X111439804Y-134963000D01*
X110556196Y-134963000D01*
X110431177Y-134950687D01*
X110270758Y-134902024D01*
X110122924Y-134823005D01*
X110122922Y-134823004D01*
X109993341Y-134716659D01*
X109886996Y-134587078D01*
X109852928Y-134523341D01*
X109807976Y-134439242D01*
X109759313Y-134278823D01*
X109742883Y-134112000D01*
X109759313Y-133945177D01*
X109807976Y-133784758D01*
X109886995Y-133636924D01*
X109886996Y-133636922D01*
X109993341Y-133507341D01*
X110122922Y-133400996D01*
X110165900Y-133378024D01*
X110270758Y-133321976D01*
X110431177Y-133273313D01*
X110556196Y-133261000D01*
X111439804Y-133261000D01*
X111564823Y-133273313D01*
X111564823Y-133273313D01*
G37*
G36*
X119869000Y-134963000D02*
G01*
X117367000Y-134963000D01*
X117367000Y-133261000D01*
X119869000Y-133261000D01*
X119869000Y-134963000D01*
X119869000Y-134963000D01*
G37*
G36*
X129344823Y-131749313D02*
G01*
X129505242Y-131797976D01*
X129637906Y-131868886D01*
X129653078Y-131876996D01*
X129782659Y-131983341D01*
X129889004Y-132112922D01*
X129889005Y-132112924D01*
X129968024Y-132260758D01*
X130016687Y-132421177D01*
X130033117Y-132588000D01*
X130016687Y-132754823D01*
X129968024Y-132915242D01*
X129897114Y-133047906D01*
X129889004Y-133063078D01*
X129782659Y-133192659D01*
X129653078Y-133299004D01*
X129653076Y-133299005D01*
X129505242Y-133378024D01*
X129344823Y-133426687D01*
X129219804Y-133439000D01*
X128336196Y-133439000D01*
X128211177Y-133426687D01*
X128050758Y-133378024D01*
X127902924Y-133299005D01*
X127902922Y-133299004D01*
X127773341Y-133192659D01*
X127666996Y-133063078D01*
X127658886Y-133047906D01*
X127587976Y-132915242D01*
X127539313Y-132754823D01*
X127522883Y-132588000D01*
X127539313Y-132421177D01*
X127587976Y-132260758D01*
X127666995Y-132112924D01*
X127666996Y-132112922D01*
X127773341Y-131983341D01*
X127902922Y-131876996D01*
X127918094Y-131868886D01*
X128050758Y-131797976D01*
X128211177Y-131749313D01*
X128336196Y-131737000D01*
X129219804Y-131737000D01*
X129344823Y-131749313D01*
X129344823Y-131749313D01*
G37*
G36*
X136964823Y-131749313D02*
G01*
X137125242Y-131797976D01*
X137257906Y-131868886D01*
X137273078Y-131876996D01*
X137402659Y-131983341D01*
X137509004Y-132112922D01*
X137509005Y-132112924D01*
X137588024Y-132260758D01*
X137636687Y-132421177D01*
X137653117Y-132588000D01*
X137636687Y-132754823D01*
X137588024Y-132915242D01*
X137517114Y-133047906D01*
X137509004Y-133063078D01*
X137402659Y-133192659D01*
X137273078Y-133299004D01*
X137273076Y-133299005D01*
X137125242Y-133378024D01*
X136964823Y-133426687D01*
X136839804Y-133439000D01*
X135956196Y-133439000D01*
X135831177Y-133426687D01*
X135670758Y-133378024D01*
X135522924Y-133299005D01*
X135522922Y-133299004D01*
X135393341Y-133192659D01*
X135286996Y-133063078D01*
X135278886Y-133047906D01*
X135207976Y-132915242D01*
X135159313Y-132754823D01*
X135142883Y-132588000D01*
X135159313Y-132421177D01*
X135207976Y-132260758D01*
X135286995Y-132112924D01*
X135286996Y-132112922D01*
X135393341Y-131983341D01*
X135522922Y-131876996D01*
X135538094Y-131868886D01*
X135670758Y-131797976D01*
X135831177Y-131749313D01*
X135956196Y-131737000D01*
X136839804Y-131737000D01*
X136964823Y-131749313D01*
X136964823Y-131749313D01*
G37*
G36*
X119184823Y-130733313D02*
G01*
X119345242Y-130781976D01*
X119450100Y-130838024D01*
X119493078Y-130860996D01*
X119622659Y-130967341D01*
X119729004Y-131096922D01*
X119729005Y-131096924D01*
X119808024Y-131244758D01*
X119856687Y-131405177D01*
X119873117Y-131572000D01*
X119856687Y-131738823D01*
X119808024Y-131899242D01*
X119763072Y-131983341D01*
X119729004Y-132047078D01*
X119622659Y-132176659D01*
X119493078Y-132283004D01*
X119493076Y-132283005D01*
X119345242Y-132362024D01*
X119184823Y-132410687D01*
X119059804Y-132423000D01*
X118176196Y-132423000D01*
X118051177Y-132410687D01*
X117890758Y-132362024D01*
X117742924Y-132283005D01*
X117742922Y-132283004D01*
X117613341Y-132176659D01*
X117506996Y-132047078D01*
X117472928Y-131983341D01*
X117427976Y-131899242D01*
X117379313Y-131738823D01*
X117362883Y-131572000D01*
X117379313Y-131405177D01*
X117427976Y-131244758D01*
X117506995Y-131096924D01*
X117506996Y-131096922D01*
X117613341Y-130967341D01*
X117742922Y-130860996D01*
X117785900Y-130838024D01*
X117890758Y-130781976D01*
X118051177Y-130733313D01*
X118176196Y-130721000D01*
X119059804Y-130721000D01*
X119184823Y-130733313D01*
X119184823Y-130733313D01*
G37*
G36*
X111564823Y-130733313D02*
G01*
X111725242Y-130781976D01*
X111830100Y-130838024D01*
X111873078Y-130860996D01*
X112002659Y-130967341D01*
X112109004Y-131096922D01*
X112109005Y-131096924D01*
X112188024Y-131244758D01*
X112236687Y-131405177D01*
X112253117Y-131572000D01*
X112236687Y-131738823D01*
X112188024Y-131899242D01*
X112143072Y-131983341D01*
X112109004Y-132047078D01*
X112002659Y-132176659D01*
X111873078Y-132283004D01*
X111873076Y-132283005D01*
X111725242Y-132362024D01*
X111564823Y-132410687D01*
X111439804Y-132423000D01*
X110556196Y-132423000D01*
X110431177Y-132410687D01*
X110270758Y-132362024D01*
X110122924Y-132283005D01*
X110122922Y-132283004D01*
X109993341Y-132176659D01*
X109886996Y-132047078D01*
X109852928Y-131983341D01*
X109807976Y-131899242D01*
X109759313Y-131738823D01*
X109742883Y-131572000D01*
X109759313Y-131405177D01*
X109807976Y-131244758D01*
X109886995Y-131096924D01*
X109886996Y-131096922D01*
X109993341Y-130967341D01*
X110122922Y-130860996D01*
X110165900Y-130838024D01*
X110270758Y-130781976D01*
X110431177Y-130733313D01*
X110556196Y-130721000D01*
X111439804Y-130721000D01*
X111564823Y-130733313D01*
X111564823Y-130733313D01*
G37*
G36*
X129344823Y-129209313D02*
G01*
X129505242Y-129257976D01*
X129637906Y-129328886D01*
X129653078Y-129336996D01*
X129782659Y-129443341D01*
X129889004Y-129572922D01*
X129889005Y-129572924D01*
X129968024Y-129720758D01*
X130016687Y-129881177D01*
X130033117Y-130048000D01*
X130016687Y-130214823D01*
X129968024Y-130375242D01*
X129897114Y-130507906D01*
X129889004Y-130523078D01*
X129782659Y-130652659D01*
X129653078Y-130759004D01*
X129653076Y-130759005D01*
X129505242Y-130838024D01*
X129344823Y-130886687D01*
X129219804Y-130899000D01*
X128336196Y-130899000D01*
X128211177Y-130886687D01*
X128050758Y-130838024D01*
X127902924Y-130759005D01*
X127902922Y-130759004D01*
X127773341Y-130652659D01*
X127666996Y-130523078D01*
X127658886Y-130507906D01*
X127587976Y-130375242D01*
X127539313Y-130214823D01*
X127522883Y-130048000D01*
X127539313Y-129881177D01*
X127587976Y-129720758D01*
X127666995Y-129572924D01*
X127666996Y-129572922D01*
X127773341Y-129443341D01*
X127902922Y-129336996D01*
X127918094Y-129328886D01*
X128050758Y-129257976D01*
X128211177Y-129209313D01*
X128336196Y-129197000D01*
X129219804Y-129197000D01*
X129344823Y-129209313D01*
X129344823Y-129209313D01*
G37*
G36*
X136964823Y-129209313D02*
G01*
X137125242Y-129257976D01*
X137257906Y-129328886D01*
X137273078Y-129336996D01*
X137402659Y-129443341D01*
X137509004Y-129572922D01*
X137509005Y-129572924D01*
X137588024Y-129720758D01*
X137636687Y-129881177D01*
X137653117Y-130048000D01*
X137636687Y-130214823D01*
X137588024Y-130375242D01*
X137517114Y-130507906D01*
X137509004Y-130523078D01*
X137402659Y-130652659D01*
X137273078Y-130759004D01*
X137273076Y-130759005D01*
X137125242Y-130838024D01*
X136964823Y-130886687D01*
X136839804Y-130899000D01*
X135956196Y-130899000D01*
X135831177Y-130886687D01*
X135670758Y-130838024D01*
X135522924Y-130759005D01*
X135522922Y-130759004D01*
X135393341Y-130652659D01*
X135286996Y-130523078D01*
X135278886Y-130507906D01*
X135207976Y-130375242D01*
X135159313Y-130214823D01*
X135142883Y-130048000D01*
X135159313Y-129881177D01*
X135207976Y-129720758D01*
X135286995Y-129572924D01*
X135286996Y-129572922D01*
X135393341Y-129443341D01*
X135522922Y-129336996D01*
X135538094Y-129328886D01*
X135670758Y-129257976D01*
X135831177Y-129209313D01*
X135956196Y-129197000D01*
X136839804Y-129197000D01*
X136964823Y-129209313D01*
X136964823Y-129209313D01*
G37*
G36*
X111564823Y-128193313D02*
G01*
X111725242Y-128241976D01*
X111830100Y-128298024D01*
X111873078Y-128320996D01*
X112002659Y-128427341D01*
X112109004Y-128556922D01*
X112109005Y-128556924D01*
X112188024Y-128704758D01*
X112236687Y-128865177D01*
X112253117Y-129032000D01*
X112236687Y-129198823D01*
X112188024Y-129359242D01*
X112143072Y-129443341D01*
X112109004Y-129507078D01*
X112002659Y-129636659D01*
X111873078Y-129743004D01*
X111873076Y-129743005D01*
X111725242Y-129822024D01*
X111564823Y-129870687D01*
X111439804Y-129883000D01*
X110556196Y-129883000D01*
X110431177Y-129870687D01*
X110270758Y-129822024D01*
X110122924Y-129743005D01*
X110122922Y-129743004D01*
X109993341Y-129636659D01*
X109886996Y-129507078D01*
X109852928Y-129443341D01*
X109807976Y-129359242D01*
X109759313Y-129198823D01*
X109742883Y-129032000D01*
X109759313Y-128865177D01*
X109807976Y-128704758D01*
X109886995Y-128556924D01*
X109886996Y-128556922D01*
X109993341Y-128427341D01*
X110122922Y-128320996D01*
X110165900Y-128298024D01*
X110270758Y-128241976D01*
X110431177Y-128193313D01*
X110556196Y-128181000D01*
X111439804Y-128181000D01*
X111564823Y-128193313D01*
X111564823Y-128193313D01*
G37*
G36*
X119184823Y-128193313D02*
G01*
X119345242Y-128241976D01*
X119450100Y-128298024D01*
X119493078Y-128320996D01*
X119622659Y-128427341D01*
X119729004Y-128556922D01*
X119729005Y-128556924D01*
X119808024Y-128704758D01*
X119856687Y-128865177D01*
X119873117Y-129032000D01*
X119856687Y-129198823D01*
X119808024Y-129359242D01*
X119763072Y-129443341D01*
X119729004Y-129507078D01*
X119622659Y-129636659D01*
X119493078Y-129743004D01*
X119493076Y-129743005D01*
X119345242Y-129822024D01*
X119184823Y-129870687D01*
X119059804Y-129883000D01*
X118176196Y-129883000D01*
X118051177Y-129870687D01*
X117890758Y-129822024D01*
X117742924Y-129743005D01*
X117742922Y-129743004D01*
X117613341Y-129636659D01*
X117506996Y-129507078D01*
X117472928Y-129443341D01*
X117427976Y-129359242D01*
X117379313Y-129198823D01*
X117362883Y-129032000D01*
X117379313Y-128865177D01*
X117427976Y-128704758D01*
X117506995Y-128556924D01*
X117506996Y-128556922D01*
X117613341Y-128427341D01*
X117742922Y-128320996D01*
X117785900Y-128298024D01*
X117890758Y-128241976D01*
X118051177Y-128193313D01*
X118176196Y-128181000D01*
X119059804Y-128181000D01*
X119184823Y-128193313D01*
X119184823Y-128193313D01*
G37*
G36*
X129344823Y-126669313D02*
G01*
X129505242Y-126717976D01*
X129546874Y-126740229D01*
X129653078Y-126796996D01*
X129782659Y-126903341D01*
X129889004Y-127032922D01*
X129889005Y-127032924D01*
X129968024Y-127180758D01*
X130016687Y-127341177D01*
X130033117Y-127508000D01*
X130016687Y-127674823D01*
X129968024Y-127835242D01*
X129897114Y-127967906D01*
X129889004Y-127983078D01*
X129782659Y-128112659D01*
X129653078Y-128219004D01*
X129653076Y-128219005D01*
X129505242Y-128298024D01*
X129344823Y-128346687D01*
X129219804Y-128359000D01*
X128336196Y-128359000D01*
X128211177Y-128346687D01*
X128050758Y-128298024D01*
X127902924Y-128219005D01*
X127902922Y-128219004D01*
X127773341Y-128112659D01*
X127666996Y-127983078D01*
X127658886Y-127967906D01*
X127587976Y-127835242D01*
X127539313Y-127674823D01*
X127522883Y-127508000D01*
X127539313Y-127341177D01*
X127587976Y-127180758D01*
X127666995Y-127032924D01*
X127666996Y-127032922D01*
X127773341Y-126903341D01*
X127902922Y-126796996D01*
X128009126Y-126740229D01*
X128050758Y-126717976D01*
X128211177Y-126669313D01*
X128336196Y-126657000D01*
X129219804Y-126657000D01*
X129344823Y-126669313D01*
X129344823Y-126669313D01*
G37*
G36*
X136964823Y-126669313D02*
G01*
X137125242Y-126717976D01*
X137166874Y-126740229D01*
X137273078Y-126796996D01*
X137402659Y-126903341D01*
X137509004Y-127032922D01*
X137509005Y-127032924D01*
X137588024Y-127180758D01*
X137636687Y-127341177D01*
X137653117Y-127508000D01*
X137636687Y-127674823D01*
X137588024Y-127835242D01*
X137517114Y-127967906D01*
X137509004Y-127983078D01*
X137402659Y-128112659D01*
X137273078Y-128219004D01*
X137273076Y-128219005D01*
X137125242Y-128298024D01*
X136964823Y-128346687D01*
X136839804Y-128359000D01*
X135956196Y-128359000D01*
X135831177Y-128346687D01*
X135670758Y-128298024D01*
X135522924Y-128219005D01*
X135522922Y-128219004D01*
X135393341Y-128112659D01*
X135286996Y-127983078D01*
X135278886Y-127967906D01*
X135207976Y-127835242D01*
X135159313Y-127674823D01*
X135142883Y-127508000D01*
X135159313Y-127341177D01*
X135207976Y-127180758D01*
X135286995Y-127032924D01*
X135286996Y-127032922D01*
X135393341Y-126903341D01*
X135522922Y-126796996D01*
X135629126Y-126740229D01*
X135670758Y-126717976D01*
X135831177Y-126669313D01*
X135956196Y-126657000D01*
X136839804Y-126657000D01*
X136964823Y-126669313D01*
X136964823Y-126669313D01*
G37*
G36*
X122676228Y-125673703D02*
G01*
X122831100Y-125737853D01*
X122970481Y-125830985D01*
X123089015Y-125949519D01*
X123182147Y-126088900D01*
X123246297Y-126243772D01*
X123279000Y-126408184D01*
X123279000Y-126575816D01*
X123246297Y-126740228D01*
X123182147Y-126895100D01*
X123089015Y-127034481D01*
X122970481Y-127153015D01*
X122831100Y-127246147D01*
X122676228Y-127310297D01*
X122511816Y-127343000D01*
X122344184Y-127343000D01*
X122179772Y-127310297D01*
X122024900Y-127246147D01*
X121885519Y-127153015D01*
X121766985Y-127034481D01*
X121673853Y-126895100D01*
X121609703Y-126740228D01*
X121577000Y-126575816D01*
X121577000Y-126408184D01*
X121609703Y-126243772D01*
X121673853Y-126088900D01*
X121766985Y-125949519D01*
X121885519Y-125830985D01*
X122024900Y-125737853D01*
X122179772Y-125673703D01*
X122344184Y-125641000D01*
X122511816Y-125641000D01*
X122676228Y-125673703D01*
X122676228Y-125673703D01*
G37*
G36*
X119184823Y-125653313D02*
G01*
X119345242Y-125701976D01*
X119412361Y-125737852D01*
X119493078Y-125780996D01*
X119622659Y-125887341D01*
X119729004Y-126016922D01*
X119729005Y-126016924D01*
X119808024Y-126164758D01*
X119856687Y-126325177D01*
X119873117Y-126492000D01*
X119856687Y-126658823D01*
X119808024Y-126819242D01*
X119767477Y-126895100D01*
X119729004Y-126967078D01*
X119622659Y-127096659D01*
X119493078Y-127203004D01*
X119493076Y-127203005D01*
X119345242Y-127282024D01*
X119184823Y-127330687D01*
X119059804Y-127343000D01*
X118176196Y-127343000D01*
X118051177Y-127330687D01*
X117890758Y-127282024D01*
X117742924Y-127203005D01*
X117742922Y-127203004D01*
X117613341Y-127096659D01*
X117506996Y-126967078D01*
X117468523Y-126895100D01*
X117427976Y-126819242D01*
X117379313Y-126658823D01*
X117362883Y-126492000D01*
X117379313Y-126325177D01*
X117427976Y-126164758D01*
X117506995Y-126016924D01*
X117506996Y-126016922D01*
X117613341Y-125887341D01*
X117742922Y-125780996D01*
X117823639Y-125737852D01*
X117890758Y-125701976D01*
X118051177Y-125653313D01*
X118176196Y-125641000D01*
X119059804Y-125641000D01*
X119184823Y-125653313D01*
X119184823Y-125653313D01*
G37*
G36*
X111564823Y-125653313D02*
G01*
X111725242Y-125701976D01*
X111792361Y-125737852D01*
X111873078Y-125780996D01*
X112002659Y-125887341D01*
X112109004Y-126016922D01*
X112109005Y-126016924D01*
X112188024Y-126164758D01*
X112236687Y-126325177D01*
X112253117Y-126492000D01*
X112236687Y-126658823D01*
X112188024Y-126819242D01*
X112147477Y-126895100D01*
X112109004Y-126967078D01*
X112002659Y-127096659D01*
X111873078Y-127203004D01*
X111873076Y-127203005D01*
X111725242Y-127282024D01*
X111564823Y-127330687D01*
X111439804Y-127343000D01*
X110556196Y-127343000D01*
X110431177Y-127330687D01*
X110270758Y-127282024D01*
X110122924Y-127203005D01*
X110122922Y-127203004D01*
X109993341Y-127096659D01*
X109886996Y-126967078D01*
X109848523Y-126895100D01*
X109807976Y-126819242D01*
X109759313Y-126658823D01*
X109742883Y-126492000D01*
X109759313Y-126325177D01*
X109807976Y-126164758D01*
X109886995Y-126016924D01*
X109886996Y-126016922D01*
X109993341Y-125887341D01*
X110122922Y-125780996D01*
X110203639Y-125737852D01*
X110270758Y-125701976D01*
X110431177Y-125653313D01*
X110556196Y-125641000D01*
X111439804Y-125641000D01*
X111564823Y-125653313D01*
X111564823Y-125653313D01*
G37*
G36*
X136964823Y-124129313D02*
G01*
X137125242Y-124177976D01*
X137257906Y-124248886D01*
X137273078Y-124256996D01*
X137402659Y-124363341D01*
X137509004Y-124492922D01*
X137509005Y-124492924D01*
X137588024Y-124640758D01*
X137636687Y-124801177D01*
X137653117Y-124968000D01*
X137636687Y-125134823D01*
X137588024Y-125295242D01*
X137517114Y-125427906D01*
X137509004Y-125443078D01*
X137402659Y-125572659D01*
X137273078Y-125679004D01*
X137273076Y-125679005D01*
X137125242Y-125758024D01*
X136964823Y-125806687D01*
X136839804Y-125819000D01*
X135956196Y-125819000D01*
X135831177Y-125806687D01*
X135670758Y-125758024D01*
X135522924Y-125679005D01*
X135522922Y-125679004D01*
X135393341Y-125572659D01*
X135286996Y-125443078D01*
X135278886Y-125427906D01*
X135207976Y-125295242D01*
X135159313Y-125134823D01*
X135142883Y-124968000D01*
X135159313Y-124801177D01*
X135207976Y-124640758D01*
X135286995Y-124492924D01*
X135286996Y-124492922D01*
X135393341Y-124363341D01*
X135522922Y-124256996D01*
X135538094Y-124248886D01*
X135670758Y-124177976D01*
X135831177Y-124129313D01*
X135956196Y-124117000D01*
X136839804Y-124117000D01*
X136964823Y-124129313D01*
X136964823Y-124129313D01*
G37*
G36*
X129344823Y-124129313D02*
G01*
X129505242Y-124177976D01*
X129637906Y-124248886D01*
X129653078Y-124256996D01*
X129782659Y-124363341D01*
X129889004Y-124492922D01*
X129889005Y-124492924D01*
X129968024Y-124640758D01*
X130016687Y-124801177D01*
X130033117Y-124968000D01*
X130016687Y-125134823D01*
X129968024Y-125295242D01*
X129897114Y-125427906D01*
X129889004Y-125443078D01*
X129782659Y-125572659D01*
X129653078Y-125679004D01*
X129653076Y-125679005D01*
X129505242Y-125758024D01*
X129344823Y-125806687D01*
X129219804Y-125819000D01*
X128336196Y-125819000D01*
X128211177Y-125806687D01*
X128050758Y-125758024D01*
X127902924Y-125679005D01*
X127902922Y-125679004D01*
X127773341Y-125572659D01*
X127666996Y-125443078D01*
X127658886Y-125427906D01*
X127587976Y-125295242D01*
X127539313Y-125134823D01*
X127522883Y-124968000D01*
X127539313Y-124801177D01*
X127587976Y-124640758D01*
X127666995Y-124492924D01*
X127666996Y-124492922D01*
X127773341Y-124363341D01*
X127902922Y-124256996D01*
X127918094Y-124248886D01*
X128050758Y-124177976D01*
X128211177Y-124129313D01*
X128336196Y-124117000D01*
X129219804Y-124117000D01*
X129344823Y-124129313D01*
X129344823Y-124129313D01*
G37*
G36*
X119184823Y-123113313D02*
G01*
X119345242Y-123161976D01*
X119450100Y-123218024D01*
X119493078Y-123240996D01*
X119622659Y-123347341D01*
X119729004Y-123476922D01*
X119729005Y-123476924D01*
X119808024Y-123624758D01*
X119856687Y-123785177D01*
X119873117Y-123952000D01*
X119856687Y-124118823D01*
X119808024Y-124279242D01*
X119763072Y-124363341D01*
X119729004Y-124427078D01*
X119622659Y-124556659D01*
X119493078Y-124663004D01*
X119493076Y-124663005D01*
X119345242Y-124742024D01*
X119184823Y-124790687D01*
X119059804Y-124803000D01*
X118176196Y-124803000D01*
X118051177Y-124790687D01*
X117890758Y-124742024D01*
X117742924Y-124663005D01*
X117742922Y-124663004D01*
X117613341Y-124556659D01*
X117506996Y-124427078D01*
X117472928Y-124363341D01*
X117427976Y-124279242D01*
X117379313Y-124118823D01*
X117362883Y-123952000D01*
X117379313Y-123785177D01*
X117427976Y-123624758D01*
X117506995Y-123476924D01*
X117506996Y-123476922D01*
X117613341Y-123347341D01*
X117742922Y-123240996D01*
X117785900Y-123218024D01*
X117890758Y-123161976D01*
X118051177Y-123113313D01*
X118176196Y-123101000D01*
X119059804Y-123101000D01*
X119184823Y-123113313D01*
X119184823Y-123113313D01*
G37*
G36*
X111564823Y-123113313D02*
G01*
X111725242Y-123161976D01*
X111830100Y-123218024D01*
X111873078Y-123240996D01*
X112002659Y-123347341D01*
X112109004Y-123476922D01*
X112109005Y-123476924D01*
X112188024Y-123624758D01*
X112236687Y-123785177D01*
X112253117Y-123952000D01*
X112236687Y-124118823D01*
X112188024Y-124279242D01*
X112143072Y-124363341D01*
X112109004Y-124427078D01*
X112002659Y-124556659D01*
X111873078Y-124663004D01*
X111873076Y-124663005D01*
X111725242Y-124742024D01*
X111564823Y-124790687D01*
X111439804Y-124803000D01*
X110556196Y-124803000D01*
X110431177Y-124790687D01*
X110270758Y-124742024D01*
X110122924Y-124663005D01*
X110122922Y-124663004D01*
X109993341Y-124556659D01*
X109886996Y-124427078D01*
X109852928Y-124363341D01*
X109807976Y-124279242D01*
X109759313Y-124118823D01*
X109742883Y-123952000D01*
X109759313Y-123785177D01*
X109807976Y-123624758D01*
X109886995Y-123476924D01*
X109886996Y-123476922D01*
X109993341Y-123347341D01*
X110122922Y-123240996D01*
X110165900Y-123218024D01*
X110270758Y-123161976D01*
X110431177Y-123113313D01*
X110556196Y-123101000D01*
X111439804Y-123101000D01*
X111564823Y-123113313D01*
X111564823Y-123113313D01*
G37*
G36*
X136964823Y-121589313D02*
G01*
X137125242Y-121637976D01*
X137166874Y-121660229D01*
X137273078Y-121716996D01*
X137402659Y-121823341D01*
X137509004Y-121952922D01*
X137509005Y-121952924D01*
X137588024Y-122100758D01*
X137636687Y-122261177D01*
X137653117Y-122428000D01*
X137636687Y-122594823D01*
X137588024Y-122755242D01*
X137517114Y-122887906D01*
X137509004Y-122903078D01*
X137402659Y-123032659D01*
X137273078Y-123139004D01*
X137273076Y-123139005D01*
X137125242Y-123218024D01*
X136964823Y-123266687D01*
X136839804Y-123279000D01*
X135956196Y-123279000D01*
X135831177Y-123266687D01*
X135670758Y-123218024D01*
X135522924Y-123139005D01*
X135522922Y-123139004D01*
X135393341Y-123032659D01*
X135286996Y-122903078D01*
X135278886Y-122887906D01*
X135207976Y-122755242D01*
X135159313Y-122594823D01*
X135142883Y-122428000D01*
X135159313Y-122261177D01*
X135207976Y-122100758D01*
X135286995Y-121952924D01*
X135286996Y-121952922D01*
X135393341Y-121823341D01*
X135522922Y-121716996D01*
X135629126Y-121660229D01*
X135670758Y-121637976D01*
X135831177Y-121589313D01*
X135956196Y-121577000D01*
X136839804Y-121577000D01*
X136964823Y-121589313D01*
X136964823Y-121589313D01*
G37*
G36*
X130029000Y-123279000D02*
G01*
X127527000Y-123279000D01*
X127527000Y-121577000D01*
X130029000Y-121577000D01*
X130029000Y-123279000D01*
X130029000Y-123279000D01*
G37*
G36*
X122716228Y-120593703D02*
G01*
X122871100Y-120657853D01*
X123010481Y-120750985D01*
X123129015Y-120869519D01*
X123222147Y-121008900D01*
X123286297Y-121163772D01*
X123319000Y-121328184D01*
X123319000Y-121495816D01*
X123286297Y-121660228D01*
X123222147Y-121815100D01*
X123129015Y-121954481D01*
X123010481Y-122073015D01*
X122871100Y-122166147D01*
X122716228Y-122230297D01*
X122551816Y-122263000D01*
X122384184Y-122263000D01*
X122219772Y-122230297D01*
X122064900Y-122166147D01*
X121925519Y-122073015D01*
X121806985Y-121954481D01*
X121713853Y-121815100D01*
X121649703Y-121660228D01*
X121617000Y-121495816D01*
X121617000Y-121328184D01*
X121649703Y-121163772D01*
X121713853Y-121008900D01*
X121806985Y-120869519D01*
X121925519Y-120750985D01*
X122064900Y-120657853D01*
X122219772Y-120593703D01*
X122384184Y-120561000D01*
X122551816Y-120561000D01*
X122716228Y-120593703D01*
X122716228Y-120593703D01*
G37*
G36*
X125216228Y-120593703D02*
G01*
X125371100Y-120657853D01*
X125510481Y-120750985D01*
X125629015Y-120869519D01*
X125722147Y-121008900D01*
X125786297Y-121163772D01*
X125819000Y-121328184D01*
X125819000Y-121495816D01*
X125786297Y-121660228D01*
X125722147Y-121815100D01*
X125629015Y-121954481D01*
X125510481Y-122073015D01*
X125371100Y-122166147D01*
X125216228Y-122230297D01*
X125051816Y-122263000D01*
X124884184Y-122263000D01*
X124719772Y-122230297D01*
X124564900Y-122166147D01*
X124425519Y-122073015D01*
X124306985Y-121954481D01*
X124213853Y-121815100D01*
X124149703Y-121660228D01*
X124117000Y-121495816D01*
X124117000Y-121328184D01*
X124149703Y-121163772D01*
X124213853Y-121008900D01*
X124306985Y-120869519D01*
X124425519Y-120750985D01*
X124564900Y-120657853D01*
X124719772Y-120593703D01*
X124884184Y-120561000D01*
X125051816Y-120561000D01*
X125216228Y-120593703D01*
X125216228Y-120593703D01*
G37*
G36*
X111564823Y-120573313D02*
G01*
X111725242Y-120621976D01*
X111792361Y-120657852D01*
X111873078Y-120700996D01*
X112002659Y-120807341D01*
X112109004Y-120936922D01*
X112109005Y-120936924D01*
X112188024Y-121084758D01*
X112236687Y-121245177D01*
X112253117Y-121412000D01*
X112236687Y-121578823D01*
X112188024Y-121739242D01*
X112147477Y-121815100D01*
X112109004Y-121887078D01*
X112002659Y-122016659D01*
X111873078Y-122123004D01*
X111873076Y-122123005D01*
X111725242Y-122202024D01*
X111564823Y-122250687D01*
X111439804Y-122263000D01*
X110556196Y-122263000D01*
X110431177Y-122250687D01*
X110270758Y-122202024D01*
X110122924Y-122123005D01*
X110122922Y-122123004D01*
X109993341Y-122016659D01*
X109886996Y-121887078D01*
X109848523Y-121815100D01*
X109807976Y-121739242D01*
X109759313Y-121578823D01*
X109742883Y-121412000D01*
X109759313Y-121245177D01*
X109807976Y-121084758D01*
X109886995Y-120936924D01*
X109886996Y-120936922D01*
X109993341Y-120807341D01*
X110122922Y-120700996D01*
X110203639Y-120657852D01*
X110270758Y-120621976D01*
X110431177Y-120573313D01*
X110556196Y-120561000D01*
X111439804Y-120561000D01*
X111564823Y-120573313D01*
X111564823Y-120573313D01*
G37*
G36*
X119184823Y-120573313D02*
G01*
X119345242Y-120621976D01*
X119412361Y-120657852D01*
X119493078Y-120700996D01*
X119622659Y-120807341D01*
X119729004Y-120936922D01*
X119729005Y-120936924D01*
X119808024Y-121084758D01*
X119856687Y-121245177D01*
X119873117Y-121412000D01*
X119856687Y-121578823D01*
X119808024Y-121739242D01*
X119767477Y-121815100D01*
X119729004Y-121887078D01*
X119622659Y-122016659D01*
X119493078Y-122123004D01*
X119493076Y-122123005D01*
X119345242Y-122202024D01*
X119184823Y-122250687D01*
X119059804Y-122263000D01*
X118176196Y-122263000D01*
X118051177Y-122250687D01*
X117890758Y-122202024D01*
X117742924Y-122123005D01*
X117742922Y-122123004D01*
X117613341Y-122016659D01*
X117506996Y-121887078D01*
X117468523Y-121815100D01*
X117427976Y-121739242D01*
X117379313Y-121578823D01*
X117362883Y-121412000D01*
X117379313Y-121245177D01*
X117427976Y-121084758D01*
X117506995Y-120936924D01*
X117506996Y-120936922D01*
X117613341Y-120807341D01*
X117742922Y-120700996D01*
X117823639Y-120657852D01*
X117890758Y-120621976D01*
X118051177Y-120573313D01*
X118176196Y-120561000D01*
X119059804Y-120561000D01*
X119184823Y-120573313D01*
X119184823Y-120573313D01*
G37*
G36*
X119184823Y-118033313D02*
G01*
X119345242Y-118081976D01*
X119477906Y-118152886D01*
X119493078Y-118160996D01*
X119622659Y-118267341D01*
X119729004Y-118396922D01*
X119729005Y-118396924D01*
X119808024Y-118544758D01*
X119856687Y-118705177D01*
X119873117Y-118872000D01*
X119856687Y-119038823D01*
X119808024Y-119199242D01*
X119737114Y-119331906D01*
X119729004Y-119347078D01*
X119622659Y-119476659D01*
X119493078Y-119583004D01*
X119493076Y-119583005D01*
X119345242Y-119662024D01*
X119184823Y-119710687D01*
X119059804Y-119723000D01*
X118176196Y-119723000D01*
X118051177Y-119710687D01*
X117890758Y-119662024D01*
X117742924Y-119583005D01*
X117742922Y-119583004D01*
X117613341Y-119476659D01*
X117506996Y-119347078D01*
X117498886Y-119331906D01*
X117427976Y-119199242D01*
X117379313Y-119038823D01*
X117362883Y-118872000D01*
X117379313Y-118705177D01*
X117427976Y-118544758D01*
X117506995Y-118396924D01*
X117506996Y-118396922D01*
X117613341Y-118267341D01*
X117742922Y-118160996D01*
X117758094Y-118152886D01*
X117890758Y-118081976D01*
X118051177Y-118033313D01*
X118176196Y-118021000D01*
X119059804Y-118021000D01*
X119184823Y-118033313D01*
X119184823Y-118033313D01*
G37*
G36*
X111564823Y-118033313D02*
G01*
X111725242Y-118081976D01*
X111857906Y-118152886D01*
X111873078Y-118160996D01*
X112002659Y-118267341D01*
X112109004Y-118396922D01*
X112109005Y-118396924D01*
X112188024Y-118544758D01*
X112236687Y-118705177D01*
X112253117Y-118872000D01*
X112236687Y-119038823D01*
X112188024Y-119199242D01*
X112117114Y-119331906D01*
X112109004Y-119347078D01*
X112002659Y-119476659D01*
X111873078Y-119583004D01*
X111873076Y-119583005D01*
X111725242Y-119662024D01*
X111564823Y-119710687D01*
X111439804Y-119723000D01*
X110556196Y-119723000D01*
X110431177Y-119710687D01*
X110270758Y-119662024D01*
X110122924Y-119583005D01*
X110122922Y-119583004D01*
X109993341Y-119476659D01*
X109886996Y-119347078D01*
X109878886Y-119331906D01*
X109807976Y-119199242D01*
X109759313Y-119038823D01*
X109742883Y-118872000D01*
X109759313Y-118705177D01*
X109807976Y-118544758D01*
X109886995Y-118396924D01*
X109886996Y-118396922D01*
X109993341Y-118267341D01*
X110122922Y-118160996D01*
X110138094Y-118152886D01*
X110270758Y-118081976D01*
X110431177Y-118033313D01*
X110556196Y-118021000D01*
X111439804Y-118021000D01*
X111564823Y-118033313D01*
X111564823Y-118033313D01*
G37*
G36*
X129344823Y-117271313D02*
G01*
X129505242Y-117319976D01*
X129637906Y-117390886D01*
X129653078Y-117398996D01*
X129782659Y-117505341D01*
X129889004Y-117634922D01*
X129889005Y-117634924D01*
X129968024Y-117782758D01*
X130016687Y-117943177D01*
X130033117Y-118110000D01*
X130016687Y-118276823D01*
X129968024Y-118437242D01*
X129910555Y-118544758D01*
X129889004Y-118585078D01*
X129782659Y-118714659D01*
X129653078Y-118821004D01*
X129653076Y-118821005D01*
X129505242Y-118900024D01*
X129344823Y-118948687D01*
X129219804Y-118961000D01*
X128336196Y-118961000D01*
X128211177Y-118948687D01*
X128050758Y-118900024D01*
X127902924Y-118821005D01*
X127902922Y-118821004D01*
X127773341Y-118714659D01*
X127666996Y-118585078D01*
X127645445Y-118544758D01*
X127587976Y-118437242D01*
X127539313Y-118276823D01*
X127522883Y-118110000D01*
X127539313Y-117943177D01*
X127587976Y-117782758D01*
X127666995Y-117634924D01*
X127666996Y-117634922D01*
X127773341Y-117505341D01*
X127902922Y-117398996D01*
X127918094Y-117390886D01*
X128050758Y-117319976D01*
X128211177Y-117271313D01*
X128336196Y-117259000D01*
X129219804Y-117259000D01*
X129344823Y-117271313D01*
X129344823Y-117271313D01*
G37*
G36*
X137649000Y-118961000D02*
G01*
X135147000Y-118961000D01*
X135147000Y-117259000D01*
X137649000Y-117259000D01*
X137649000Y-118961000D01*
X137649000Y-118961000D01*
G37*
G36*
X111564823Y-115493313D02*
G01*
X111725242Y-115541976D01*
X111857906Y-115612886D01*
X111873078Y-115620996D01*
X112002659Y-115727341D01*
X112109004Y-115856922D01*
X112109005Y-115856924D01*
X112188024Y-116004758D01*
X112236687Y-116165177D01*
X112253117Y-116332000D01*
X112236687Y-116498823D01*
X112188024Y-116659242D01*
X112126589Y-116774178D01*
X112109004Y-116807078D01*
X112002659Y-116936659D01*
X111873078Y-117043004D01*
X111873076Y-117043005D01*
X111725242Y-117122024D01*
X111564823Y-117170687D01*
X111439804Y-117183000D01*
X110556196Y-117183000D01*
X110431177Y-117170687D01*
X110270758Y-117122024D01*
X110122924Y-117043005D01*
X110122922Y-117043004D01*
X109993341Y-116936659D01*
X109886996Y-116807078D01*
X109869411Y-116774178D01*
X109807976Y-116659242D01*
X109759313Y-116498823D01*
X109742883Y-116332000D01*
X109759313Y-116165177D01*
X109807976Y-116004758D01*
X109886995Y-115856924D01*
X109886996Y-115856922D01*
X109993341Y-115727341D01*
X110122922Y-115620996D01*
X110138094Y-115612886D01*
X110270758Y-115541976D01*
X110431177Y-115493313D01*
X110556196Y-115481000D01*
X111439804Y-115481000D01*
X111564823Y-115493313D01*
X111564823Y-115493313D01*
G37*
G36*
X119184823Y-115493313D02*
G01*
X119345242Y-115541976D01*
X119477906Y-115612886D01*
X119493078Y-115620996D01*
X119622659Y-115727341D01*
X119729004Y-115856922D01*
X119729005Y-115856924D01*
X119808024Y-116004758D01*
X119856687Y-116165177D01*
X119873117Y-116332000D01*
X119856687Y-116498823D01*
X119808024Y-116659242D01*
X119746589Y-116774178D01*
X119729004Y-116807078D01*
X119622659Y-116936659D01*
X119493078Y-117043004D01*
X119493076Y-117043005D01*
X119345242Y-117122024D01*
X119184823Y-117170687D01*
X119059804Y-117183000D01*
X118176196Y-117183000D01*
X118051177Y-117170687D01*
X117890758Y-117122024D01*
X117742924Y-117043005D01*
X117742922Y-117043004D01*
X117613341Y-116936659D01*
X117506996Y-116807078D01*
X117489411Y-116774178D01*
X117427976Y-116659242D01*
X117379313Y-116498823D01*
X117362883Y-116332000D01*
X117379313Y-116165177D01*
X117427976Y-116004758D01*
X117506995Y-115856924D01*
X117506996Y-115856922D01*
X117613341Y-115727341D01*
X117742922Y-115620996D01*
X117758094Y-115612886D01*
X117890758Y-115541976D01*
X118051177Y-115493313D01*
X118176196Y-115481000D01*
X119059804Y-115481000D01*
X119184823Y-115493313D01*
X119184823Y-115493313D01*
G37*
G36*
X123931642Y-115381781D02*
G01*
X124077414Y-115442162D01*
X124077416Y-115442163D01*
X124208608Y-115529822D01*
X124320178Y-115641392D01*
X124407837Y-115772584D01*
X124407838Y-115772586D01*
X124468219Y-115918358D01*
X124499000Y-116073107D01*
X124499000Y-116230893D01*
X124468219Y-116385642D01*
X124421337Y-116498825D01*
X124407837Y-116531416D01*
X124320178Y-116662608D01*
X124208608Y-116774178D01*
X124077416Y-116861837D01*
X124077415Y-116861838D01*
X124077414Y-116861838D01*
X123931642Y-116922219D01*
X123776893Y-116953000D01*
X123619107Y-116953000D01*
X123464358Y-116922219D01*
X123318586Y-116861838D01*
X123318585Y-116861838D01*
X123318584Y-116861837D01*
X123187392Y-116774178D01*
X123075822Y-116662608D01*
X122988163Y-116531416D01*
X122974663Y-116498825D01*
X122927781Y-116385642D01*
X122897000Y-116230893D01*
X122897000Y-116073107D01*
X122927781Y-115918358D01*
X122988162Y-115772586D01*
X122988163Y-115772584D01*
X123075822Y-115641392D01*
X123187392Y-115529822D01*
X123318584Y-115442163D01*
X123318586Y-115442162D01*
X123464358Y-115381781D01*
X123619107Y-115351000D01*
X123776893Y-115351000D01*
X123931642Y-115381781D01*
X123931642Y-115381781D01*
G37*
G36*
X136964823Y-114731313D02*
G01*
X137125242Y-114779976D01*
X137257906Y-114850886D01*
X137273078Y-114858996D01*
X137402659Y-114965341D01*
X137509004Y-115094922D01*
X137509005Y-115094924D01*
X137588024Y-115242758D01*
X137636687Y-115403177D01*
X137653117Y-115570000D01*
X137636687Y-115736823D01*
X137588024Y-115897242D01*
X137576737Y-115918358D01*
X137509004Y-116045078D01*
X137402659Y-116174659D01*
X137273078Y-116281004D01*
X137273076Y-116281005D01*
X137125242Y-116360024D01*
X136964823Y-116408687D01*
X136839804Y-116421000D01*
X135956196Y-116421000D01*
X135831177Y-116408687D01*
X135670758Y-116360024D01*
X135522924Y-116281005D01*
X135522922Y-116281004D01*
X135393341Y-116174659D01*
X135286996Y-116045078D01*
X135219263Y-115918358D01*
X135207976Y-115897242D01*
X135159313Y-115736823D01*
X135142883Y-115570000D01*
X135159313Y-115403177D01*
X135207976Y-115242758D01*
X135286995Y-115094924D01*
X135286996Y-115094922D01*
X135393341Y-114965341D01*
X135522922Y-114858996D01*
X135538094Y-114850886D01*
X135670758Y-114779976D01*
X135831177Y-114731313D01*
X135956196Y-114719000D01*
X136839804Y-114719000D01*
X136964823Y-114731313D01*
X136964823Y-114731313D01*
G37*
G36*
X129344823Y-114731313D02*
G01*
X129505242Y-114779976D01*
X129637906Y-114850886D01*
X129653078Y-114858996D01*
X129782659Y-114965341D01*
X129889004Y-115094922D01*
X129889005Y-115094924D01*
X129968024Y-115242758D01*
X130016687Y-115403177D01*
X130033117Y-115570000D01*
X130016687Y-115736823D01*
X129968024Y-115897242D01*
X129956737Y-115918358D01*
X129889004Y-116045078D01*
X129782659Y-116174659D01*
X129653078Y-116281004D01*
X129653076Y-116281005D01*
X129505242Y-116360024D01*
X129344823Y-116408687D01*
X129219804Y-116421000D01*
X128336196Y-116421000D01*
X128211177Y-116408687D01*
X128050758Y-116360024D01*
X127902924Y-116281005D01*
X127902922Y-116281004D01*
X127773341Y-116174659D01*
X127666996Y-116045078D01*
X127599263Y-115918358D01*
X127587976Y-115897242D01*
X127539313Y-115736823D01*
X127522883Y-115570000D01*
X127539313Y-115403177D01*
X127587976Y-115242758D01*
X127666995Y-115094924D01*
X127666996Y-115094922D01*
X127773341Y-114965341D01*
X127902922Y-114858996D01*
X127918094Y-114850886D01*
X128050758Y-114779976D01*
X128211177Y-114731313D01*
X128336196Y-114719000D01*
X129219804Y-114719000D01*
X129344823Y-114731313D01*
X129344823Y-114731313D01*
G37*
G36*
X111564823Y-112953313D02*
G01*
X111725242Y-113001976D01*
X111857906Y-113072886D01*
X111873078Y-113080996D01*
X112002659Y-113187341D01*
X112109004Y-113316922D01*
X112109005Y-113316924D01*
X112188024Y-113464758D01*
X112236687Y-113625177D01*
X112253117Y-113792000D01*
X112236687Y-113958823D01*
X112188024Y-114119242D01*
X112117114Y-114251906D01*
X112109004Y-114267078D01*
X112002659Y-114396659D01*
X111873078Y-114503004D01*
X111873076Y-114503005D01*
X111725242Y-114582024D01*
X111564823Y-114630687D01*
X111439804Y-114643000D01*
X110556196Y-114643000D01*
X110431177Y-114630687D01*
X110270758Y-114582024D01*
X110122924Y-114503005D01*
X110122922Y-114503004D01*
X109993341Y-114396659D01*
X109886996Y-114267078D01*
X109878886Y-114251906D01*
X109807976Y-114119242D01*
X109759313Y-113958823D01*
X109742883Y-113792000D01*
X109759313Y-113625177D01*
X109807976Y-113464758D01*
X109886995Y-113316924D01*
X109886996Y-113316922D01*
X109993341Y-113187341D01*
X110122922Y-113080996D01*
X110138094Y-113072886D01*
X110270758Y-113001976D01*
X110431177Y-112953313D01*
X110556196Y-112941000D01*
X111439804Y-112941000D01*
X111564823Y-112953313D01*
X111564823Y-112953313D01*
G37*
G36*
X119184823Y-112953313D02*
G01*
X119345242Y-113001976D01*
X119477906Y-113072886D01*
X119493078Y-113080996D01*
X119622659Y-113187341D01*
X119729004Y-113316922D01*
X119729005Y-113316924D01*
X119808024Y-113464758D01*
X119856687Y-113625177D01*
X119873117Y-113792000D01*
X119856687Y-113958823D01*
X119808024Y-114119242D01*
X119737114Y-114251906D01*
X119729004Y-114267078D01*
X119622659Y-114396659D01*
X119493078Y-114503004D01*
X119493076Y-114503005D01*
X119345242Y-114582024D01*
X119184823Y-114630687D01*
X119059804Y-114643000D01*
X118176196Y-114643000D01*
X118051177Y-114630687D01*
X117890758Y-114582024D01*
X117742924Y-114503005D01*
X117742922Y-114503004D01*
X117613341Y-114396659D01*
X117506996Y-114267078D01*
X117498886Y-114251906D01*
X117427976Y-114119242D01*
X117379313Y-113958823D01*
X117362883Y-113792000D01*
X117379313Y-113625177D01*
X117427976Y-113464758D01*
X117506995Y-113316924D01*
X117506996Y-113316922D01*
X117613341Y-113187341D01*
X117742922Y-113080996D01*
X117758094Y-113072886D01*
X117890758Y-113001976D01*
X118051177Y-112953313D01*
X118176196Y-112941000D01*
X119059804Y-112941000D01*
X119184823Y-112953313D01*
X119184823Y-112953313D01*
G37*
G36*
X129344823Y-112191313D02*
G01*
X129505242Y-112239976D01*
X129637906Y-112310886D01*
X129653078Y-112318996D01*
X129782659Y-112425341D01*
X129889004Y-112554922D01*
X129889005Y-112554924D01*
X129968024Y-112702758D01*
X130016687Y-112863177D01*
X130033117Y-113030000D01*
X130016687Y-113196823D01*
X129968024Y-113357242D01*
X129910555Y-113464758D01*
X129889004Y-113505078D01*
X129782659Y-113634659D01*
X129653078Y-113741004D01*
X129653076Y-113741005D01*
X129505242Y-113820024D01*
X129344823Y-113868687D01*
X129219804Y-113881000D01*
X128336196Y-113881000D01*
X128211177Y-113868687D01*
X128050758Y-113820024D01*
X127902924Y-113741005D01*
X127902922Y-113741004D01*
X127773341Y-113634659D01*
X127666996Y-113505078D01*
X127645445Y-113464758D01*
X127587976Y-113357242D01*
X127539313Y-113196823D01*
X127522883Y-113030000D01*
X127539313Y-112863177D01*
X127587976Y-112702758D01*
X127666995Y-112554924D01*
X127666996Y-112554922D01*
X127773341Y-112425341D01*
X127902922Y-112318996D01*
X127918094Y-112310886D01*
X128050758Y-112239976D01*
X128211177Y-112191313D01*
X128336196Y-112179000D01*
X129219804Y-112179000D01*
X129344823Y-112191313D01*
X129344823Y-112191313D01*
G37*
G36*
X136964823Y-112191313D02*
G01*
X137125242Y-112239976D01*
X137257906Y-112310886D01*
X137273078Y-112318996D01*
X137402659Y-112425341D01*
X137509004Y-112554922D01*
X137509005Y-112554924D01*
X137588024Y-112702758D01*
X137636687Y-112863177D01*
X137653117Y-113030000D01*
X137636687Y-113196823D01*
X137588024Y-113357242D01*
X137530555Y-113464758D01*
X137509004Y-113505078D01*
X137402659Y-113634659D01*
X137273078Y-113741004D01*
X137273076Y-113741005D01*
X137125242Y-113820024D01*
X136964823Y-113868687D01*
X136839804Y-113881000D01*
X135956196Y-113881000D01*
X135831177Y-113868687D01*
X135670758Y-113820024D01*
X135522924Y-113741005D01*
X135522922Y-113741004D01*
X135393341Y-113634659D01*
X135286996Y-113505078D01*
X135265445Y-113464758D01*
X135207976Y-113357242D01*
X135159313Y-113196823D01*
X135142883Y-113030000D01*
X135159313Y-112863177D01*
X135207976Y-112702758D01*
X135286995Y-112554924D01*
X135286996Y-112554922D01*
X135393341Y-112425341D01*
X135522922Y-112318996D01*
X135538094Y-112310886D01*
X135670758Y-112239976D01*
X135831177Y-112191313D01*
X135956196Y-112179000D01*
X136839804Y-112179000D01*
X136964823Y-112191313D01*
X136964823Y-112191313D01*
G37*
G36*
X119184823Y-110413313D02*
G01*
X119345242Y-110461976D01*
X119477906Y-110532886D01*
X119493078Y-110540996D01*
X119622659Y-110647341D01*
X119729004Y-110776922D01*
X119729005Y-110776924D01*
X119808024Y-110924758D01*
X119856687Y-111085177D01*
X119873117Y-111252000D01*
X119856687Y-111418823D01*
X119808024Y-111579242D01*
X119780137Y-111631414D01*
X119729004Y-111727078D01*
X119622659Y-111856659D01*
X119493078Y-111963004D01*
X119493076Y-111963005D01*
X119345242Y-112042024D01*
X119184823Y-112090687D01*
X119059804Y-112103000D01*
X118176196Y-112103000D01*
X118051177Y-112090687D01*
X117890758Y-112042024D01*
X117742924Y-111963005D01*
X117742922Y-111963004D01*
X117613341Y-111856659D01*
X117506996Y-111727078D01*
X117455863Y-111631414D01*
X117427976Y-111579242D01*
X117379313Y-111418823D01*
X117362883Y-111252000D01*
X117379313Y-111085177D01*
X117427976Y-110924758D01*
X117506995Y-110776924D01*
X117506996Y-110776922D01*
X117613341Y-110647341D01*
X117742922Y-110540996D01*
X117758094Y-110532886D01*
X117890758Y-110461976D01*
X118051177Y-110413313D01*
X118176196Y-110401000D01*
X119059804Y-110401000D01*
X119184823Y-110413313D01*
X119184823Y-110413313D01*
G37*
G36*
X111564823Y-110413313D02*
G01*
X111725242Y-110461976D01*
X111857906Y-110532886D01*
X111873078Y-110540996D01*
X112002659Y-110647341D01*
X112109004Y-110776922D01*
X112109005Y-110776924D01*
X112188024Y-110924758D01*
X112236687Y-111085177D01*
X112253117Y-111252000D01*
X112236687Y-111418823D01*
X112188024Y-111579242D01*
X112160137Y-111631414D01*
X112109004Y-111727078D01*
X112002659Y-111856659D01*
X111873078Y-111963004D01*
X111873076Y-111963005D01*
X111725242Y-112042024D01*
X111564823Y-112090687D01*
X111439804Y-112103000D01*
X110556196Y-112103000D01*
X110431177Y-112090687D01*
X110270758Y-112042024D01*
X110122924Y-111963005D01*
X110122922Y-111963004D01*
X109993341Y-111856659D01*
X109886996Y-111727078D01*
X109835863Y-111631414D01*
X109807976Y-111579242D01*
X109759313Y-111418823D01*
X109742883Y-111252000D01*
X109759313Y-111085177D01*
X109807976Y-110924758D01*
X109886995Y-110776924D01*
X109886996Y-110776922D01*
X109993341Y-110647341D01*
X110122922Y-110540996D01*
X110138094Y-110532886D01*
X110270758Y-110461976D01*
X110431177Y-110413313D01*
X110556196Y-110401000D01*
X111439804Y-110401000D01*
X111564823Y-110413313D01*
X111564823Y-110413313D01*
G37*
G36*
X123931642Y-110481781D02*
G01*
X124074599Y-110540996D01*
X124077416Y-110542163D01*
X124208608Y-110629822D01*
X124320178Y-110741392D01*
X124407837Y-110872584D01*
X124407838Y-110872586D01*
X124468219Y-111018358D01*
X124499000Y-111173107D01*
X124499000Y-111330893D01*
X124468219Y-111485642D01*
X124429448Y-111579242D01*
X124407837Y-111631416D01*
X124320178Y-111762608D01*
X124208608Y-111874178D01*
X124077416Y-111961837D01*
X124077415Y-111961838D01*
X124077414Y-111961838D01*
X123931642Y-112022219D01*
X123776893Y-112053000D01*
X123619107Y-112053000D01*
X123464358Y-112022219D01*
X123318586Y-111961838D01*
X123318585Y-111961838D01*
X123318584Y-111961837D01*
X123187392Y-111874178D01*
X123075822Y-111762608D01*
X122988163Y-111631416D01*
X122966552Y-111579242D01*
X122927781Y-111485642D01*
X122897000Y-111330893D01*
X122897000Y-111173107D01*
X122927781Y-111018358D01*
X122988162Y-110872586D01*
X122988163Y-110872584D01*
X123075822Y-110741392D01*
X123187392Y-110629822D01*
X123318584Y-110542163D01*
X123321401Y-110540996D01*
X123464358Y-110481781D01*
X123619107Y-110451000D01*
X123776893Y-110451000D01*
X123931642Y-110481781D01*
X123931642Y-110481781D01*
G37*
G36*
X136964823Y-109651313D02*
G01*
X137125242Y-109699976D01*
X137257906Y-109770886D01*
X137273078Y-109778996D01*
X137402659Y-109885341D01*
X137509004Y-110014922D01*
X137509005Y-110014924D01*
X137588024Y-110162758D01*
X137636687Y-110323177D01*
X137653117Y-110490000D01*
X137636687Y-110656823D01*
X137588024Y-110817242D01*
X137558443Y-110872584D01*
X137509004Y-110965078D01*
X137402659Y-111094659D01*
X137273078Y-111201004D01*
X137273076Y-111201005D01*
X137125242Y-111280024D01*
X136964823Y-111328687D01*
X136839804Y-111341000D01*
X135956196Y-111341000D01*
X135831177Y-111328687D01*
X135670758Y-111280024D01*
X135522924Y-111201005D01*
X135522922Y-111201004D01*
X135393341Y-111094659D01*
X135286996Y-110965078D01*
X135237557Y-110872584D01*
X135207976Y-110817242D01*
X135159313Y-110656823D01*
X135142883Y-110490000D01*
X135159313Y-110323177D01*
X135207976Y-110162758D01*
X135286995Y-110014924D01*
X135286996Y-110014922D01*
X135393341Y-109885341D01*
X135522922Y-109778996D01*
X135538094Y-109770886D01*
X135670758Y-109699976D01*
X135831177Y-109651313D01*
X135956196Y-109639000D01*
X136839804Y-109639000D01*
X136964823Y-109651313D01*
X136964823Y-109651313D01*
G37*
G36*
X129344823Y-109651313D02*
G01*
X129505242Y-109699976D01*
X129637906Y-109770886D01*
X129653078Y-109778996D01*
X129782659Y-109885341D01*
X129889004Y-110014922D01*
X129889005Y-110014924D01*
X129968024Y-110162758D01*
X130016687Y-110323177D01*
X130033117Y-110490000D01*
X130016687Y-110656823D01*
X129968024Y-110817242D01*
X129938443Y-110872584D01*
X129889004Y-110965078D01*
X129782659Y-111094659D01*
X129653078Y-111201004D01*
X129653076Y-111201005D01*
X129505242Y-111280024D01*
X129344823Y-111328687D01*
X129219804Y-111341000D01*
X128336196Y-111341000D01*
X128211177Y-111328687D01*
X128050758Y-111280024D01*
X127902924Y-111201005D01*
X127902922Y-111201004D01*
X127773341Y-111094659D01*
X127666996Y-110965078D01*
X127617557Y-110872584D01*
X127587976Y-110817242D01*
X127539313Y-110656823D01*
X127522883Y-110490000D01*
X127539313Y-110323177D01*
X127587976Y-110162758D01*
X127666995Y-110014924D01*
X127666996Y-110014922D01*
X127773341Y-109885341D01*
X127902922Y-109778996D01*
X127918094Y-109770886D01*
X128050758Y-109699976D01*
X128211177Y-109651313D01*
X128336196Y-109639000D01*
X129219804Y-109639000D01*
X129344823Y-109651313D01*
X129344823Y-109651313D01*
G37*
G36*
X119184823Y-107873313D02*
G01*
X119345242Y-107921976D01*
X119477906Y-107992886D01*
X119493078Y-108000996D01*
X119622659Y-108107341D01*
X119729004Y-108236922D01*
X119729005Y-108236924D01*
X119808024Y-108384758D01*
X119856687Y-108545177D01*
X119873117Y-108712000D01*
X119856687Y-108878823D01*
X119808024Y-109039242D01*
X119737114Y-109171906D01*
X119729004Y-109187078D01*
X119622659Y-109316659D01*
X119493078Y-109423004D01*
X119493076Y-109423005D01*
X119345242Y-109502024D01*
X119184823Y-109550687D01*
X119059804Y-109563000D01*
X118176196Y-109563000D01*
X118051177Y-109550687D01*
X117890758Y-109502024D01*
X117742924Y-109423005D01*
X117742922Y-109423004D01*
X117613341Y-109316659D01*
X117506996Y-109187078D01*
X117498886Y-109171906D01*
X117427976Y-109039242D01*
X117379313Y-108878823D01*
X117362883Y-108712000D01*
X117379313Y-108545177D01*
X117427976Y-108384758D01*
X117506995Y-108236924D01*
X117506996Y-108236922D01*
X117613341Y-108107341D01*
X117742922Y-108000996D01*
X117758094Y-107992886D01*
X117890758Y-107921976D01*
X118051177Y-107873313D01*
X118176196Y-107861000D01*
X119059804Y-107861000D01*
X119184823Y-107873313D01*
X119184823Y-107873313D01*
G37*
G36*
X111564823Y-107873313D02*
G01*
X111725242Y-107921976D01*
X111857906Y-107992886D01*
X111873078Y-108000996D01*
X112002659Y-108107341D01*
X112109004Y-108236922D01*
X112109005Y-108236924D01*
X112188024Y-108384758D01*
X112236687Y-108545177D01*
X112253117Y-108712000D01*
X112236687Y-108878823D01*
X112188024Y-109039242D01*
X112117114Y-109171906D01*
X112109004Y-109187078D01*
X112002659Y-109316659D01*
X111873078Y-109423004D01*
X111873076Y-109423005D01*
X111725242Y-109502024D01*
X111564823Y-109550687D01*
X111439804Y-109563000D01*
X110556196Y-109563000D01*
X110431177Y-109550687D01*
X110270758Y-109502024D01*
X110122924Y-109423005D01*
X110122922Y-109423004D01*
X109993341Y-109316659D01*
X109886996Y-109187078D01*
X109878886Y-109171906D01*
X109807976Y-109039242D01*
X109759313Y-108878823D01*
X109742883Y-108712000D01*
X109759313Y-108545177D01*
X109807976Y-108384758D01*
X109886995Y-108236924D01*
X109886996Y-108236922D01*
X109993341Y-108107341D01*
X110122922Y-108000996D01*
X110138094Y-107992886D01*
X110270758Y-107921976D01*
X110431177Y-107873313D01*
X110556196Y-107861000D01*
X111439804Y-107861000D01*
X111564823Y-107873313D01*
X111564823Y-107873313D01*
G37*
G36*
X129344823Y-107111313D02*
G01*
X129505242Y-107159976D01*
X129637906Y-107230886D01*
X129653078Y-107238996D01*
X129782659Y-107345341D01*
X129889004Y-107474922D01*
X129889005Y-107474924D01*
X129968024Y-107622758D01*
X130016687Y-107783177D01*
X130033117Y-107950000D01*
X130016687Y-108116823D01*
X129968024Y-108277242D01*
X129910555Y-108384758D01*
X129889004Y-108425078D01*
X129782659Y-108554659D01*
X129653078Y-108661004D01*
X129653076Y-108661005D01*
X129505242Y-108740024D01*
X129344823Y-108788687D01*
X129219804Y-108801000D01*
X128336196Y-108801000D01*
X128211177Y-108788687D01*
X128050758Y-108740024D01*
X127902924Y-108661005D01*
X127902922Y-108661004D01*
X127773341Y-108554659D01*
X127666996Y-108425078D01*
X127645445Y-108384758D01*
X127587976Y-108277242D01*
X127539313Y-108116823D01*
X127522883Y-107950000D01*
X127539313Y-107783177D01*
X127587976Y-107622758D01*
X127666995Y-107474924D01*
X127666996Y-107474922D01*
X127773341Y-107345341D01*
X127902922Y-107238996D01*
X127918094Y-107230886D01*
X128050758Y-107159976D01*
X128211177Y-107111313D01*
X128336196Y-107099000D01*
X129219804Y-107099000D01*
X129344823Y-107111313D01*
X129344823Y-107111313D01*
G37*
G36*
X136964823Y-107111313D02*
G01*
X137125242Y-107159976D01*
X137257906Y-107230886D01*
X137273078Y-107238996D01*
X137402659Y-107345341D01*
X137509004Y-107474922D01*
X137509005Y-107474924D01*
X137588024Y-107622758D01*
X137636687Y-107783177D01*
X137653117Y-107950000D01*
X137636687Y-108116823D01*
X137588024Y-108277242D01*
X137530555Y-108384758D01*
X137509004Y-108425078D01*
X137402659Y-108554659D01*
X137273078Y-108661004D01*
X137273076Y-108661005D01*
X137125242Y-108740024D01*
X136964823Y-108788687D01*
X136839804Y-108801000D01*
X135956196Y-108801000D01*
X135831177Y-108788687D01*
X135670758Y-108740024D01*
X135522924Y-108661005D01*
X135522922Y-108661004D01*
X135393341Y-108554659D01*
X135286996Y-108425078D01*
X135265445Y-108384758D01*
X135207976Y-108277242D01*
X135159313Y-108116823D01*
X135142883Y-107950000D01*
X135159313Y-107783177D01*
X135207976Y-107622758D01*
X135286995Y-107474924D01*
X135286996Y-107474922D01*
X135393341Y-107345341D01*
X135522922Y-107238996D01*
X135538094Y-107230886D01*
X135670758Y-107159976D01*
X135831177Y-107111313D01*
X135956196Y-107099000D01*
X136839804Y-107099000D01*
X136964823Y-107111313D01*
X136964823Y-107111313D01*
G37*
G36*
X122716228Y-105353703D02*
G01*
X122871100Y-105417853D01*
X123010481Y-105510985D01*
X123129015Y-105629519D01*
X123222147Y-105768900D01*
X123286297Y-105923772D01*
X123319000Y-106088184D01*
X123319000Y-106255816D01*
X123286297Y-106420228D01*
X123222147Y-106575100D01*
X123129015Y-106714481D01*
X123010481Y-106833015D01*
X122871100Y-106926147D01*
X122716228Y-106990297D01*
X122551816Y-107023000D01*
X122384184Y-107023000D01*
X122219772Y-106990297D01*
X122064900Y-106926147D01*
X121925519Y-106833015D01*
X121806985Y-106714481D01*
X121713853Y-106575100D01*
X121649703Y-106420228D01*
X121617000Y-106255816D01*
X121617000Y-106088184D01*
X121649703Y-105923772D01*
X121713853Y-105768900D01*
X121806985Y-105629519D01*
X121925519Y-105510985D01*
X122064900Y-105417853D01*
X122219772Y-105353703D01*
X122384184Y-105321000D01*
X122551816Y-105321000D01*
X122716228Y-105353703D01*
X122716228Y-105353703D01*
G37*
G36*
X111564823Y-105333313D02*
G01*
X111725242Y-105381976D01*
X111792361Y-105417852D01*
X111873078Y-105460996D01*
X112002659Y-105567341D01*
X112109004Y-105696922D01*
X112109005Y-105696924D01*
X112188024Y-105844758D01*
X112236687Y-106005177D01*
X112253117Y-106172000D01*
X112236687Y-106338823D01*
X112188024Y-106499242D01*
X112147477Y-106575100D01*
X112109004Y-106647078D01*
X112002659Y-106776659D01*
X111873078Y-106883004D01*
X111873076Y-106883005D01*
X111725242Y-106962024D01*
X111564823Y-107010687D01*
X111439804Y-107023000D01*
X110556196Y-107023000D01*
X110431177Y-107010687D01*
X110270758Y-106962024D01*
X110122924Y-106883005D01*
X110122922Y-106883004D01*
X109993341Y-106776659D01*
X109886996Y-106647078D01*
X109848523Y-106575100D01*
X109807976Y-106499242D01*
X109759313Y-106338823D01*
X109742883Y-106172000D01*
X109759313Y-106005177D01*
X109807976Y-105844758D01*
X109886995Y-105696924D01*
X109886996Y-105696922D01*
X109993341Y-105567341D01*
X110122922Y-105460996D01*
X110203639Y-105417852D01*
X110270758Y-105381976D01*
X110431177Y-105333313D01*
X110556196Y-105321000D01*
X111439804Y-105321000D01*
X111564823Y-105333313D01*
X111564823Y-105333313D01*
G37*
G36*
X119184823Y-105333313D02*
G01*
X119345242Y-105381976D01*
X119412361Y-105417852D01*
X119493078Y-105460996D01*
X119622659Y-105567341D01*
X119729004Y-105696922D01*
X119729005Y-105696924D01*
X119808024Y-105844758D01*
X119856687Y-106005177D01*
X119873117Y-106172000D01*
X119856687Y-106338823D01*
X119808024Y-106499242D01*
X119767477Y-106575100D01*
X119729004Y-106647078D01*
X119622659Y-106776659D01*
X119493078Y-106883004D01*
X119493076Y-106883005D01*
X119345242Y-106962024D01*
X119184823Y-107010687D01*
X119059804Y-107023000D01*
X118176196Y-107023000D01*
X118051177Y-107010687D01*
X117890758Y-106962024D01*
X117742924Y-106883005D01*
X117742922Y-106883004D01*
X117613341Y-106776659D01*
X117506996Y-106647078D01*
X117468523Y-106575100D01*
X117427976Y-106499242D01*
X117379313Y-106338823D01*
X117362883Y-106172000D01*
X117379313Y-106005177D01*
X117427976Y-105844758D01*
X117506995Y-105696924D01*
X117506996Y-105696922D01*
X117613341Y-105567341D01*
X117742922Y-105460996D01*
X117823639Y-105417852D01*
X117890758Y-105381976D01*
X118051177Y-105333313D01*
X118176196Y-105321000D01*
X119059804Y-105321000D01*
X119184823Y-105333313D01*
X119184823Y-105333313D01*
G37*
G36*
X125216228Y-105353703D02*
G01*
X125371100Y-105417853D01*
X125510481Y-105510985D01*
X125629015Y-105629519D01*
X125722147Y-105768900D01*
X125786297Y-105923772D01*
X125819000Y-106088184D01*
X125819000Y-106255816D01*
X125786297Y-106420228D01*
X125722147Y-106575100D01*
X125629015Y-106714481D01*
X125510481Y-106833015D01*
X125371100Y-106926147D01*
X125216228Y-106990297D01*
X125051816Y-107023000D01*
X124884184Y-107023000D01*
X124719772Y-106990297D01*
X124564900Y-106926147D01*
X124425519Y-106833015D01*
X124306985Y-106714481D01*
X124213853Y-106575100D01*
X124149703Y-106420228D01*
X124117000Y-106255816D01*
X124117000Y-106088184D01*
X124149703Y-105923772D01*
X124213853Y-105768900D01*
X124306985Y-105629519D01*
X124425519Y-105510985D01*
X124564900Y-105417853D01*
X124719772Y-105353703D01*
X124884184Y-105321000D01*
X125051816Y-105321000D01*
X125216228Y-105353703D01*
X125216228Y-105353703D01*
G37*
G36*
X136964823Y-104571313D02*
G01*
X137125242Y-104619976D01*
X137257906Y-104690886D01*
X137273078Y-104698996D01*
X137402659Y-104805341D01*
X137509004Y-104934922D01*
X137509005Y-104934924D01*
X137588024Y-105082758D01*
X137636687Y-105243177D01*
X137653117Y-105410000D01*
X137636687Y-105576823D01*
X137588024Y-105737242D01*
X137530555Y-105844758D01*
X137509004Y-105885078D01*
X137402659Y-106014659D01*
X137273078Y-106121004D01*
X137273076Y-106121005D01*
X137125242Y-106200024D01*
X136964823Y-106248687D01*
X136839804Y-106261000D01*
X135956196Y-106261000D01*
X135831177Y-106248687D01*
X135670758Y-106200024D01*
X135522924Y-106121005D01*
X135522922Y-106121004D01*
X135393341Y-106014659D01*
X135286996Y-105885078D01*
X135265445Y-105844758D01*
X135207976Y-105737242D01*
X135159313Y-105576823D01*
X135142883Y-105410000D01*
X135159313Y-105243177D01*
X135207976Y-105082758D01*
X135286995Y-104934924D01*
X135286996Y-104934922D01*
X135393341Y-104805341D01*
X135522922Y-104698996D01*
X135538094Y-104690886D01*
X135670758Y-104619976D01*
X135831177Y-104571313D01*
X135956196Y-104559000D01*
X136839804Y-104559000D01*
X136964823Y-104571313D01*
X136964823Y-104571313D01*
G37*
G36*
X129344823Y-104571313D02*
G01*
X129505242Y-104619976D01*
X129637906Y-104690886D01*
X129653078Y-104698996D01*
X129782659Y-104805341D01*
X129889004Y-104934922D01*
X129889005Y-104934924D01*
X129968024Y-105082758D01*
X130016687Y-105243177D01*
X130033117Y-105410000D01*
X130016687Y-105576823D01*
X129968024Y-105737242D01*
X129910555Y-105844758D01*
X129889004Y-105885078D01*
X129782659Y-106014659D01*
X129653078Y-106121004D01*
X129653076Y-106121005D01*
X129505242Y-106200024D01*
X129344823Y-106248687D01*
X129219804Y-106261000D01*
X128336196Y-106261000D01*
X128211177Y-106248687D01*
X128050758Y-106200024D01*
X127902924Y-106121005D01*
X127902922Y-106121004D01*
X127773341Y-106014659D01*
X127666996Y-105885078D01*
X127645445Y-105844758D01*
X127587976Y-105737242D01*
X127539313Y-105576823D01*
X127522883Y-105410000D01*
X127539313Y-105243177D01*
X127587976Y-105082758D01*
X127666995Y-104934924D01*
X127666996Y-104934922D01*
X127773341Y-104805341D01*
X127902922Y-104698996D01*
X127918094Y-104690886D01*
X128050758Y-104619976D01*
X128211177Y-104571313D01*
X128336196Y-104559000D01*
X129219804Y-104559000D01*
X129344823Y-104571313D01*
X129344823Y-104571313D01*
G37*
G36*
X111564823Y-102793313D02*
G01*
X111725242Y-102841976D01*
X111857906Y-102912886D01*
X111873078Y-102920996D01*
X112002659Y-103027341D01*
X112109004Y-103156922D01*
X112109005Y-103156924D01*
X112188024Y-103304758D01*
X112236687Y-103465177D01*
X112253117Y-103632000D01*
X112236687Y-103798823D01*
X112188024Y-103959242D01*
X112117114Y-104091906D01*
X112109004Y-104107078D01*
X112002659Y-104236659D01*
X111873078Y-104343004D01*
X111873076Y-104343005D01*
X111725242Y-104422024D01*
X111564823Y-104470687D01*
X111439804Y-104483000D01*
X110556196Y-104483000D01*
X110431177Y-104470687D01*
X110270758Y-104422024D01*
X110122924Y-104343005D01*
X110122922Y-104343004D01*
X109993341Y-104236659D01*
X109886996Y-104107078D01*
X109878886Y-104091906D01*
X109807976Y-103959242D01*
X109759313Y-103798823D01*
X109742883Y-103632000D01*
X109759313Y-103465177D01*
X109807976Y-103304758D01*
X109886995Y-103156924D01*
X109886996Y-103156922D01*
X109993341Y-103027341D01*
X110122922Y-102920996D01*
X110138094Y-102912886D01*
X110270758Y-102841976D01*
X110431177Y-102793313D01*
X110556196Y-102781000D01*
X111439804Y-102781000D01*
X111564823Y-102793313D01*
X111564823Y-102793313D01*
G37*
G36*
X119184823Y-102793313D02*
G01*
X119345242Y-102841976D01*
X119477906Y-102912886D01*
X119493078Y-102920996D01*
X119622659Y-103027341D01*
X119729004Y-103156922D01*
X119729005Y-103156924D01*
X119808024Y-103304758D01*
X119856687Y-103465177D01*
X119873117Y-103632000D01*
X119856687Y-103798823D01*
X119808024Y-103959242D01*
X119737114Y-104091906D01*
X119729004Y-104107078D01*
X119622659Y-104236659D01*
X119493078Y-104343004D01*
X119493076Y-104343005D01*
X119345242Y-104422024D01*
X119184823Y-104470687D01*
X119059804Y-104483000D01*
X118176196Y-104483000D01*
X118051177Y-104470687D01*
X117890758Y-104422024D01*
X117742924Y-104343005D01*
X117742922Y-104343004D01*
X117613341Y-104236659D01*
X117506996Y-104107078D01*
X117498886Y-104091906D01*
X117427976Y-103959242D01*
X117379313Y-103798823D01*
X117362883Y-103632000D01*
X117379313Y-103465177D01*
X117427976Y-103304758D01*
X117506995Y-103156924D01*
X117506996Y-103156922D01*
X117613341Y-103027341D01*
X117742922Y-102920996D01*
X117758094Y-102912886D01*
X117890758Y-102841976D01*
X118051177Y-102793313D01*
X118176196Y-102781000D01*
X119059804Y-102781000D01*
X119184823Y-102793313D01*
X119184823Y-102793313D01*
G37*
G36*
X129344823Y-102031313D02*
G01*
X129505242Y-102079976D01*
X129637906Y-102150886D01*
X129653078Y-102158996D01*
X129782659Y-102265341D01*
X129889004Y-102394922D01*
X129889005Y-102394924D01*
X129968024Y-102542758D01*
X130016687Y-102703177D01*
X130033117Y-102870000D01*
X130016687Y-103036823D01*
X129968024Y-103197242D01*
X129910555Y-103304758D01*
X129889004Y-103345078D01*
X129782659Y-103474659D01*
X129653078Y-103581004D01*
X129653076Y-103581005D01*
X129505242Y-103660024D01*
X129344823Y-103708687D01*
X129219804Y-103721000D01*
X128336196Y-103721000D01*
X128211177Y-103708687D01*
X128050758Y-103660024D01*
X127902924Y-103581005D01*
X127902922Y-103581004D01*
X127773341Y-103474659D01*
X127666996Y-103345078D01*
X127645445Y-103304758D01*
X127587976Y-103197242D01*
X127539313Y-103036823D01*
X127522883Y-102870000D01*
X127539313Y-102703177D01*
X127587976Y-102542758D01*
X127666995Y-102394924D01*
X127666996Y-102394922D01*
X127773341Y-102265341D01*
X127902922Y-102158996D01*
X127918094Y-102150886D01*
X128050758Y-102079976D01*
X128211177Y-102031313D01*
X128336196Y-102019000D01*
X129219804Y-102019000D01*
X129344823Y-102031313D01*
X129344823Y-102031313D01*
G37*
G36*
X136964823Y-102031313D02*
G01*
X137125242Y-102079976D01*
X137257906Y-102150886D01*
X137273078Y-102158996D01*
X137402659Y-102265341D01*
X137509004Y-102394922D01*
X137509005Y-102394924D01*
X137588024Y-102542758D01*
X137636687Y-102703177D01*
X137653117Y-102870000D01*
X137636687Y-103036823D01*
X137588024Y-103197242D01*
X137530555Y-103304758D01*
X137509004Y-103345078D01*
X137402659Y-103474659D01*
X137273078Y-103581004D01*
X137273076Y-103581005D01*
X137125242Y-103660024D01*
X136964823Y-103708687D01*
X136839804Y-103721000D01*
X135956196Y-103721000D01*
X135831177Y-103708687D01*
X135670758Y-103660024D01*
X135522924Y-103581005D01*
X135522922Y-103581004D01*
X135393341Y-103474659D01*
X135286996Y-103345078D01*
X135265445Y-103304758D01*
X135207976Y-103197242D01*
X135159313Y-103036823D01*
X135142883Y-102870000D01*
X135159313Y-102703177D01*
X135207976Y-102542758D01*
X135286995Y-102394924D01*
X135286996Y-102394922D01*
X135393341Y-102265341D01*
X135522922Y-102158996D01*
X135538094Y-102150886D01*
X135670758Y-102079976D01*
X135831177Y-102031313D01*
X135956196Y-102019000D01*
X136839804Y-102019000D01*
X136964823Y-102031313D01*
X136964823Y-102031313D01*
G37*
G36*
X119184823Y-100253313D02*
G01*
X119345242Y-100301976D01*
X119477906Y-100372886D01*
X119493078Y-100380996D01*
X119622659Y-100487341D01*
X119729004Y-100616922D01*
X119729005Y-100616924D01*
X119808024Y-100764758D01*
X119856687Y-100925177D01*
X119873117Y-101092000D01*
X119856687Y-101258823D01*
X119808024Y-101419242D01*
X119737114Y-101551906D01*
X119729004Y-101567078D01*
X119622659Y-101696659D01*
X119493078Y-101803004D01*
X119493076Y-101803005D01*
X119345242Y-101882024D01*
X119184823Y-101930687D01*
X119059804Y-101943000D01*
X118176196Y-101943000D01*
X118051177Y-101930687D01*
X117890758Y-101882024D01*
X117742924Y-101803005D01*
X117742922Y-101803004D01*
X117613341Y-101696659D01*
X117506996Y-101567078D01*
X117498886Y-101551906D01*
X117427976Y-101419242D01*
X117379313Y-101258823D01*
X117362883Y-101092000D01*
X117379313Y-100925177D01*
X117427976Y-100764758D01*
X117506995Y-100616924D01*
X117506996Y-100616922D01*
X117613341Y-100487341D01*
X117742922Y-100380996D01*
X117758094Y-100372886D01*
X117890758Y-100301976D01*
X118051177Y-100253313D01*
X118176196Y-100241000D01*
X119059804Y-100241000D01*
X119184823Y-100253313D01*
X119184823Y-100253313D01*
G37*
G36*
X111564823Y-100253313D02*
G01*
X111725242Y-100301976D01*
X111857906Y-100372886D01*
X111873078Y-100380996D01*
X112002659Y-100487341D01*
X112109004Y-100616922D01*
X112109005Y-100616924D01*
X112188024Y-100764758D01*
X112236687Y-100925177D01*
X112253117Y-101092000D01*
X112236687Y-101258823D01*
X112188024Y-101419242D01*
X112117114Y-101551906D01*
X112109004Y-101567078D01*
X112002659Y-101696659D01*
X111873078Y-101803004D01*
X111873076Y-101803005D01*
X111725242Y-101882024D01*
X111564823Y-101930687D01*
X111439804Y-101943000D01*
X110556196Y-101943000D01*
X110431177Y-101930687D01*
X110270758Y-101882024D01*
X110122924Y-101803005D01*
X110122922Y-101803004D01*
X109993341Y-101696659D01*
X109886996Y-101567078D01*
X109878886Y-101551906D01*
X109807976Y-101419242D01*
X109759313Y-101258823D01*
X109742883Y-101092000D01*
X109759313Y-100925177D01*
X109807976Y-100764758D01*
X109886995Y-100616924D01*
X109886996Y-100616922D01*
X109993341Y-100487341D01*
X110122922Y-100380996D01*
X110138094Y-100372886D01*
X110270758Y-100301976D01*
X110431177Y-100253313D01*
X110556196Y-100241000D01*
X111439804Y-100241000D01*
X111564823Y-100253313D01*
X111564823Y-100253313D01*
G37*
G36*
X136964823Y-99491313D02*
G01*
X137125242Y-99539976D01*
X137257906Y-99610886D01*
X137273078Y-99618996D01*
X137402659Y-99725341D01*
X137509004Y-99854922D01*
X137509005Y-99854924D01*
X137588024Y-100002758D01*
X137636687Y-100163177D01*
X137653117Y-100330000D01*
X137636687Y-100496823D01*
X137588024Y-100657242D01*
X137530555Y-100764758D01*
X137509004Y-100805078D01*
X137402659Y-100934659D01*
X137273078Y-101041004D01*
X137273076Y-101041005D01*
X137125242Y-101120024D01*
X136964823Y-101168687D01*
X136839804Y-101181000D01*
X135956196Y-101181000D01*
X135831177Y-101168687D01*
X135670758Y-101120024D01*
X135522924Y-101041005D01*
X135522922Y-101041004D01*
X135393341Y-100934659D01*
X135286996Y-100805078D01*
X135265445Y-100764758D01*
X135207976Y-100657242D01*
X135159313Y-100496823D01*
X135142883Y-100330000D01*
X135159313Y-100163177D01*
X135207976Y-100002758D01*
X135286995Y-99854924D01*
X135286996Y-99854922D01*
X135393341Y-99725341D01*
X135522922Y-99618996D01*
X135538094Y-99610886D01*
X135670758Y-99539976D01*
X135831177Y-99491313D01*
X135956196Y-99479000D01*
X136839804Y-99479000D01*
X136964823Y-99491313D01*
X136964823Y-99491313D01*
G37*
G36*
X129344823Y-99491313D02*
G01*
X129505242Y-99539976D01*
X129637906Y-99610886D01*
X129653078Y-99618996D01*
X129782659Y-99725341D01*
X129889004Y-99854922D01*
X129889005Y-99854924D01*
X129968024Y-100002758D01*
X130016687Y-100163177D01*
X130033117Y-100330000D01*
X130016687Y-100496823D01*
X129968024Y-100657242D01*
X129910555Y-100764758D01*
X129889004Y-100805078D01*
X129782659Y-100934659D01*
X129653078Y-101041004D01*
X129653076Y-101041005D01*
X129505242Y-101120024D01*
X129344823Y-101168687D01*
X129219804Y-101181000D01*
X128336196Y-101181000D01*
X128211177Y-101168687D01*
X128050758Y-101120024D01*
X127902924Y-101041005D01*
X127902922Y-101041004D01*
X127773341Y-100934659D01*
X127666996Y-100805078D01*
X127645445Y-100764758D01*
X127587976Y-100657242D01*
X127539313Y-100496823D01*
X127522883Y-100330000D01*
X127539313Y-100163177D01*
X127587976Y-100002758D01*
X127666995Y-99854924D01*
X127666996Y-99854922D01*
X127773341Y-99725341D01*
X127902922Y-99618996D01*
X127918094Y-99610886D01*
X128050758Y-99539976D01*
X128211177Y-99491313D01*
X128336196Y-99479000D01*
X129219804Y-99479000D01*
X129344823Y-99491313D01*
X129344823Y-99491313D01*
G37*
G36*
X126486228Y-95955703D02*
G01*
X126641100Y-96019853D01*
X126780481Y-96112985D01*
X126899015Y-96231519D01*
X126992147Y-96370900D01*
X127056297Y-96525772D01*
X127089000Y-96690184D01*
X127089000Y-96857816D01*
X127056297Y-97022228D01*
X126992147Y-97177100D01*
X126899015Y-97316481D01*
X126780481Y-97435015D01*
X126641100Y-97528147D01*
X126486228Y-97592297D01*
X126321816Y-97625000D01*
X126154184Y-97625000D01*
X125989772Y-97592297D01*
X125834900Y-97528147D01*
X125695519Y-97435015D01*
X125576985Y-97316481D01*
X125483853Y-97177100D01*
X125419703Y-97022228D01*
X125387000Y-96857816D01*
X125387000Y-96690184D01*
X125419703Y-96525772D01*
X125483853Y-96370900D01*
X125576985Y-96231519D01*
X125695519Y-96112985D01*
X125834900Y-96019853D01*
X125989772Y-95955703D01*
X126154184Y-95923000D01*
X126321816Y-95923000D01*
X126486228Y-95955703D01*
X126486228Y-95955703D01*
G37*
G36*
X118784823Y-95935313D02*
G01*
X118945242Y-95983976D01*
X119012361Y-96019852D01*
X119093078Y-96062996D01*
X119222659Y-96169341D01*
X119329004Y-96298922D01*
X119329005Y-96298924D01*
X119408024Y-96446758D01*
X119456687Y-96607177D01*
X119473117Y-96774000D01*
X119456687Y-96940823D01*
X119408024Y-97101242D01*
X119367477Y-97177100D01*
X119329004Y-97249078D01*
X119222659Y-97378659D01*
X119093078Y-97485004D01*
X119093076Y-97485005D01*
X118945242Y-97564024D01*
X118784823Y-97612687D01*
X118659804Y-97625000D01*
X118576196Y-97625000D01*
X118451177Y-97612687D01*
X118290758Y-97564024D01*
X118142924Y-97485005D01*
X118142922Y-97485004D01*
X118013341Y-97378659D01*
X117906996Y-97249078D01*
X117868523Y-97177100D01*
X117827976Y-97101242D01*
X117779313Y-96940823D01*
X117762883Y-96774000D01*
X117779313Y-96607177D01*
X117827976Y-96446758D01*
X117906995Y-96298924D01*
X117906996Y-96298922D01*
X118013341Y-96169341D01*
X118142922Y-96062996D01*
X118223639Y-96019852D01*
X118290758Y-95983976D01*
X118451177Y-95935313D01*
X118576196Y-95923000D01*
X118659804Y-95923000D01*
X118784823Y-95935313D01*
X118784823Y-95935313D01*
G37*
G36*
X115056228Y-95955703D02*
G01*
X115211100Y-96019853D01*
X115350481Y-96112985D01*
X115469015Y-96231519D01*
X115562147Y-96370900D01*
X115626297Y-96525772D01*
X115659000Y-96690184D01*
X115659000Y-96857816D01*
X115626297Y-97022228D01*
X115562147Y-97177100D01*
X115469015Y-97316481D01*
X115350481Y-97435015D01*
X115211100Y-97528147D01*
X115056228Y-97592297D01*
X114891816Y-97625000D01*
X114724184Y-97625000D01*
X114559772Y-97592297D01*
X114404900Y-97528147D01*
X114265519Y-97435015D01*
X114146985Y-97316481D01*
X114053853Y-97177100D01*
X113989703Y-97022228D01*
X113957000Y-96857816D01*
X113957000Y-96690184D01*
X113989703Y-96525772D01*
X114053853Y-96370900D01*
X114146985Y-96231519D01*
X114265519Y-96112985D01*
X114404900Y-96019853D01*
X114559772Y-95955703D01*
X114724184Y-95923000D01*
X114891816Y-95923000D01*
X115056228Y-95955703D01*
X115056228Y-95955703D01*
G37*
G36*
X107354823Y-95935313D02*
G01*
X107515242Y-95983976D01*
X107582361Y-96019852D01*
X107663078Y-96062996D01*
X107792659Y-96169341D01*
X107899004Y-96298922D01*
X107899005Y-96298924D01*
X107978024Y-96446758D01*
X108026687Y-96607177D01*
X108043117Y-96774000D01*
X108026687Y-96940823D01*
X107978024Y-97101242D01*
X107937477Y-97177100D01*
X107899004Y-97249078D01*
X107792659Y-97378659D01*
X107663078Y-97485004D01*
X107663076Y-97485005D01*
X107515242Y-97564024D01*
X107354823Y-97612687D01*
X107229804Y-97625000D01*
X107146196Y-97625000D01*
X107021177Y-97612687D01*
X106860758Y-97564024D01*
X106712924Y-97485005D01*
X106712922Y-97485004D01*
X106583341Y-97378659D01*
X106476996Y-97249078D01*
X106438523Y-97177100D01*
X106397976Y-97101242D01*
X106349313Y-96940823D01*
X106332883Y-96774000D01*
X106349313Y-96607177D01*
X106397976Y-96446758D01*
X106476995Y-96298924D01*
X106476996Y-96298922D01*
X106583341Y-96169341D01*
X106712922Y-96062996D01*
X106793639Y-96019852D01*
X106860758Y-95983976D01*
X107021177Y-95935313D01*
X107146196Y-95923000D01*
X107229804Y-95923000D01*
X107354823Y-95935313D01*
X107354823Y-95935313D01*
G37*
G36*
X107354823Y-92887313D02*
G01*
X107515242Y-92935976D01*
X107582361Y-92971852D01*
X107663078Y-93014996D01*
X107792659Y-93121341D01*
X107899004Y-93250922D01*
X107899005Y-93250924D01*
X107978024Y-93398758D01*
X108026687Y-93559177D01*
X108043117Y-93726000D01*
X108026687Y-93892823D01*
X107978024Y-94053242D01*
X107937477Y-94129100D01*
X107899004Y-94201078D01*
X107792659Y-94330659D01*
X107663078Y-94437004D01*
X107663076Y-94437005D01*
X107515242Y-94516024D01*
X107354823Y-94564687D01*
X107229804Y-94577000D01*
X107146196Y-94577000D01*
X107021177Y-94564687D01*
X106860758Y-94516024D01*
X106712924Y-94437005D01*
X106712922Y-94437004D01*
X106583341Y-94330659D01*
X106476996Y-94201078D01*
X106438523Y-94129100D01*
X106397976Y-94053242D01*
X106349313Y-93892823D01*
X106332883Y-93726000D01*
X106349313Y-93559177D01*
X106397976Y-93398758D01*
X106476995Y-93250924D01*
X106476996Y-93250922D01*
X106583341Y-93121341D01*
X106712922Y-93014996D01*
X106793639Y-92971852D01*
X106860758Y-92935976D01*
X107021177Y-92887313D01*
X107146196Y-92875000D01*
X107229804Y-92875000D01*
X107354823Y-92887313D01*
X107354823Y-92887313D01*
G37*
G36*
X115056228Y-92907703D02*
G01*
X115211100Y-92971853D01*
X115350481Y-93064985D01*
X115469015Y-93183519D01*
X115562147Y-93322900D01*
X115626297Y-93477772D01*
X115659000Y-93642184D01*
X115659000Y-93809816D01*
X115626297Y-93974228D01*
X115562147Y-94129100D01*
X115469015Y-94268481D01*
X115350481Y-94387015D01*
X115211100Y-94480147D01*
X115056228Y-94544297D01*
X114891816Y-94577000D01*
X114724184Y-94577000D01*
X114559772Y-94544297D01*
X114404900Y-94480147D01*
X114265519Y-94387015D01*
X114146985Y-94268481D01*
X114053853Y-94129100D01*
X113989703Y-93974228D01*
X113957000Y-93809816D01*
X113957000Y-93642184D01*
X113989703Y-93477772D01*
X114053853Y-93322900D01*
X114146985Y-93183519D01*
X114265519Y-93064985D01*
X114404900Y-92971853D01*
X114559772Y-92907703D01*
X114724184Y-92875000D01*
X114891816Y-92875000D01*
X115056228Y-92907703D01*
X115056228Y-92907703D01*
G37*
G36*
X118784823Y-92887313D02*
G01*
X118945242Y-92935976D01*
X119012361Y-92971852D01*
X119093078Y-93014996D01*
X119222659Y-93121341D01*
X119329004Y-93250922D01*
X119329005Y-93250924D01*
X119408024Y-93398758D01*
X119456687Y-93559177D01*
X119473117Y-93726000D01*
X119456687Y-93892823D01*
X119408024Y-94053242D01*
X119367477Y-94129100D01*
X119329004Y-94201078D01*
X119222659Y-94330659D01*
X119093078Y-94437004D01*
X119093076Y-94437005D01*
X118945242Y-94516024D01*
X118784823Y-94564687D01*
X118659804Y-94577000D01*
X118576196Y-94577000D01*
X118451177Y-94564687D01*
X118290758Y-94516024D01*
X118142924Y-94437005D01*
X118142922Y-94437004D01*
X118013341Y-94330659D01*
X117906996Y-94201078D01*
X117868523Y-94129100D01*
X117827976Y-94053242D01*
X117779313Y-93892823D01*
X117762883Y-93726000D01*
X117779313Y-93559177D01*
X117827976Y-93398758D01*
X117906995Y-93250924D01*
X117906996Y-93250922D01*
X118013341Y-93121341D01*
X118142922Y-93014996D01*
X118223639Y-92971852D01*
X118290758Y-92935976D01*
X118451177Y-92887313D01*
X118576196Y-92875000D01*
X118659804Y-92875000D01*
X118784823Y-92887313D01*
X118784823Y-92887313D01*
G37*
G36*
X126486228Y-92907703D02*
G01*
X126641100Y-92971853D01*
X126780481Y-93064985D01*
X126899015Y-93183519D01*
X126992147Y-93322900D01*
X127056297Y-93477772D01*
X127089000Y-93642184D01*
X127089000Y-93809816D01*
X127056297Y-93974228D01*
X126992147Y-94129100D01*
X126899015Y-94268481D01*
X126780481Y-94387015D01*
X126641100Y-94480147D01*
X126486228Y-94544297D01*
X126321816Y-94577000D01*
X126154184Y-94577000D01*
X125989772Y-94544297D01*
X125834900Y-94480147D01*
X125695519Y-94387015D01*
X125576985Y-94268481D01*
X125483853Y-94129100D01*
X125419703Y-93974228D01*
X125387000Y-93809816D01*
X125387000Y-93642184D01*
X125419703Y-93477772D01*
X125483853Y-93322900D01*
X125576985Y-93183519D01*
X125695519Y-93064985D01*
X125834900Y-92971853D01*
X125989772Y-92907703D01*
X126154184Y-92875000D01*
X126321816Y-92875000D01*
X126486228Y-92907703D01*
X126486228Y-92907703D01*
G37*
G36*
X107354823Y-89839313D02*
G01*
X107515242Y-89887976D01*
X107582361Y-89923852D01*
X107663078Y-89966996D01*
X107792659Y-90073341D01*
X107899004Y-90202922D01*
X107899005Y-90202924D01*
X107978024Y-90350758D01*
X108026687Y-90511177D01*
X108043117Y-90678000D01*
X108026687Y-90844823D01*
X107978024Y-91005242D01*
X107937477Y-91081100D01*
X107899004Y-91153078D01*
X107792659Y-91282659D01*
X107663078Y-91389004D01*
X107663076Y-91389005D01*
X107515242Y-91468024D01*
X107354823Y-91516687D01*
X107229804Y-91529000D01*
X107146196Y-91529000D01*
X107021177Y-91516687D01*
X106860758Y-91468024D01*
X106712924Y-91389005D01*
X106712922Y-91389004D01*
X106583341Y-91282659D01*
X106476996Y-91153078D01*
X106438523Y-91081100D01*
X106397976Y-91005242D01*
X106349313Y-90844823D01*
X106332883Y-90678000D01*
X106349313Y-90511177D01*
X106397976Y-90350758D01*
X106476995Y-90202924D01*
X106476996Y-90202922D01*
X106583341Y-90073341D01*
X106712922Y-89966996D01*
X106793639Y-89923852D01*
X106860758Y-89887976D01*
X107021177Y-89839313D01*
X107146196Y-89827000D01*
X107229804Y-89827000D01*
X107354823Y-89839313D01*
X107354823Y-89839313D01*
G37*
G36*
X115056228Y-89859703D02*
G01*
X115211100Y-89923853D01*
X115350481Y-90016985D01*
X115469015Y-90135519D01*
X115562147Y-90274900D01*
X115626297Y-90429772D01*
X115659000Y-90594184D01*
X115659000Y-90761816D01*
X115626297Y-90926228D01*
X115562147Y-91081100D01*
X115469015Y-91220481D01*
X115350481Y-91339015D01*
X115211100Y-91432147D01*
X115056228Y-91496297D01*
X114891816Y-91529000D01*
X114724184Y-91529000D01*
X114559772Y-91496297D01*
X114404900Y-91432147D01*
X114265519Y-91339015D01*
X114146985Y-91220481D01*
X114053853Y-91081100D01*
X113989703Y-90926228D01*
X113957000Y-90761816D01*
X113957000Y-90594184D01*
X113989703Y-90429772D01*
X114053853Y-90274900D01*
X114146985Y-90135519D01*
X114265519Y-90016985D01*
X114404900Y-89923853D01*
X114559772Y-89859703D01*
X114724184Y-89827000D01*
X114891816Y-89827000D01*
X115056228Y-89859703D01*
X115056228Y-89859703D01*
G37*
G36*
X118784823Y-89839313D02*
G01*
X118945242Y-89887976D01*
X119012361Y-89923852D01*
X119093078Y-89966996D01*
X119222659Y-90073341D01*
X119329004Y-90202922D01*
X119329005Y-90202924D01*
X119408024Y-90350758D01*
X119456687Y-90511177D01*
X119473117Y-90678000D01*
X119456687Y-90844823D01*
X119408024Y-91005242D01*
X119367477Y-91081100D01*
X119329004Y-91153078D01*
X119222659Y-91282659D01*
X119093078Y-91389004D01*
X119093076Y-91389005D01*
X118945242Y-91468024D01*
X118784823Y-91516687D01*
X118659804Y-91529000D01*
X118576196Y-91529000D01*
X118451177Y-91516687D01*
X118290758Y-91468024D01*
X118142924Y-91389005D01*
X118142922Y-91389004D01*
X118013341Y-91282659D01*
X117906996Y-91153078D01*
X117868523Y-91081100D01*
X117827976Y-91005242D01*
X117779313Y-90844823D01*
X117762883Y-90678000D01*
X117779313Y-90511177D01*
X117827976Y-90350758D01*
X117906995Y-90202924D01*
X117906996Y-90202922D01*
X118013341Y-90073341D01*
X118142922Y-89966996D01*
X118223639Y-89923852D01*
X118290758Y-89887976D01*
X118451177Y-89839313D01*
X118576196Y-89827000D01*
X118659804Y-89827000D01*
X118784823Y-89839313D01*
X118784823Y-89839313D01*
G37*
G36*
X126486228Y-89859703D02*
G01*
X126641100Y-89923853D01*
X126780481Y-90016985D01*
X126899015Y-90135519D01*
X126992147Y-90274900D01*
X127056297Y-90429772D01*
X127089000Y-90594184D01*
X127089000Y-90761816D01*
X127056297Y-90926228D01*
X126992147Y-91081100D01*
X126899015Y-91220481D01*
X126780481Y-91339015D01*
X126641100Y-91432147D01*
X126486228Y-91496297D01*
X126321816Y-91529000D01*
X126154184Y-91529000D01*
X125989772Y-91496297D01*
X125834900Y-91432147D01*
X125695519Y-91339015D01*
X125576985Y-91220481D01*
X125483853Y-91081100D01*
X125419703Y-90926228D01*
X125387000Y-90761816D01*
X125387000Y-90594184D01*
X125419703Y-90429772D01*
X125483853Y-90274900D01*
X125576985Y-90135519D01*
X125695519Y-90016985D01*
X125834900Y-89923853D01*
X125989772Y-89859703D01*
X126154184Y-89827000D01*
X126321816Y-89827000D01*
X126486228Y-89859703D01*
X126486228Y-89859703D01*
G37*
G36*
X132190442Y-87243518D02*
G01*
X132256627Y-87250037D01*
X132426466Y-87301557D01*
X132426468Y-87301558D01*
X132504728Y-87343389D01*
X132582991Y-87385222D01*
X132618729Y-87414552D01*
X132720186Y-87497814D01*
X132803448Y-87599271D01*
X132832778Y-87635009D01*
X132916443Y-87791534D01*
X132967963Y-87961373D01*
X132985359Y-88138000D01*
X132967963Y-88314627D01*
X132916443Y-88484466D01*
X132832778Y-88640991D01*
X132803448Y-88676729D01*
X132720186Y-88778186D01*
X132618729Y-88861448D01*
X132582991Y-88890778D01*
X132426466Y-88974443D01*
X132256627Y-89025963D01*
X132190443Y-89032481D01*
X132124260Y-89039000D01*
X132035740Y-89039000D01*
X131969557Y-89032481D01*
X131903373Y-89025963D01*
X131733534Y-88974443D01*
X131577009Y-88890778D01*
X131541271Y-88861448D01*
X131439814Y-88778186D01*
X131356552Y-88676729D01*
X131327222Y-88640991D01*
X131243557Y-88484466D01*
X131192037Y-88314627D01*
X131174641Y-88138000D01*
X131192037Y-87961373D01*
X131243557Y-87791534D01*
X131327222Y-87635009D01*
X131356552Y-87599271D01*
X131439814Y-87497814D01*
X131541271Y-87414552D01*
X131577009Y-87385222D01*
X131655272Y-87343389D01*
X131733532Y-87301558D01*
X131733534Y-87301557D01*
X131903373Y-87250037D01*
X131969558Y-87243518D01*
X132035740Y-87237000D01*
X132124260Y-87237000D01*
X132190442Y-87243518D01*
X132190442Y-87243518D01*
G37*
G36*
X135521000Y-89039000D02*
G01*
X133719000Y-89039000D01*
X133719000Y-87237000D01*
X135521000Y-87237000D01*
X135521000Y-89039000D01*
X135521000Y-89039000D01*
G37*
G36*
X127233642Y-85843781D02*
G01*
X127379414Y-85904162D01*
X127379416Y-85904163D01*
X127510608Y-85991822D01*
X127622178Y-86103392D01*
X127709837Y-86234584D01*
X127709838Y-86234586D01*
X127770219Y-86380358D01*
X127801000Y-86535107D01*
X127801000Y-86692893D01*
X127770219Y-86847642D01*
X127709838Y-86993414D01*
X127709837Y-86993416D01*
X127622178Y-87124608D01*
X127510608Y-87236178D01*
X127379416Y-87323837D01*
X127379415Y-87323838D01*
X127379414Y-87323838D01*
X127233642Y-87384219D01*
X127078893Y-87415000D01*
X126921107Y-87415000D01*
X126766358Y-87384219D01*
X126620586Y-87323838D01*
X126620585Y-87323838D01*
X126620584Y-87323837D01*
X126489392Y-87236178D01*
X126377822Y-87124608D01*
X126290163Y-86993416D01*
X126290162Y-86993414D01*
X126229781Y-86847642D01*
X126199000Y-86692893D01*
X126199000Y-86535107D01*
X126229781Y-86380358D01*
X126290162Y-86234586D01*
X126290163Y-86234584D01*
X126377822Y-86103392D01*
X126489392Y-85991822D01*
X126620584Y-85904163D01*
X126620586Y-85904162D01*
X126766358Y-85843781D01*
X126921107Y-85813000D01*
X127078893Y-85813000D01*
X127233642Y-85843781D01*
X127233642Y-85843781D01*
G37*
G36*
X112501642Y-85843781D02*
G01*
X112647414Y-85904162D01*
X112647416Y-85904163D01*
X112778608Y-85991822D01*
X112890178Y-86103392D01*
X112977837Y-86234584D01*
X112977838Y-86234586D01*
X113038219Y-86380358D01*
X113069000Y-86535107D01*
X113069000Y-86692893D01*
X113038219Y-86847642D01*
X112977838Y-86993414D01*
X112977837Y-86993416D01*
X112890178Y-87124608D01*
X112778608Y-87236178D01*
X112647416Y-87323837D01*
X112647415Y-87323838D01*
X112647414Y-87323838D01*
X112501642Y-87384219D01*
X112346893Y-87415000D01*
X112189107Y-87415000D01*
X112034358Y-87384219D01*
X111888586Y-87323838D01*
X111888585Y-87323838D01*
X111888584Y-87323837D01*
X111757392Y-87236178D01*
X111645822Y-87124608D01*
X111558163Y-86993416D01*
X111558162Y-86993414D01*
X111497781Y-86847642D01*
X111467000Y-86692893D01*
X111467000Y-86535107D01*
X111497781Y-86380358D01*
X111558162Y-86234586D01*
X111558163Y-86234584D01*
X111645822Y-86103392D01*
X111757392Y-85991822D01*
X111888584Y-85904163D01*
X111888586Y-85904162D01*
X112034358Y-85843781D01*
X112189107Y-85813000D01*
X112346893Y-85813000D01*
X112501642Y-85843781D01*
X112501642Y-85843781D01*
G37*
G36*
X117327642Y-85843781D02*
G01*
X117473414Y-85904162D01*
X117473416Y-85904163D01*
X117604608Y-85991822D01*
X117716178Y-86103392D01*
X117803837Y-86234584D01*
X117803838Y-86234586D01*
X117864219Y-86380358D01*
X117895000Y-86535107D01*
X117895000Y-86692893D01*
X117864219Y-86847642D01*
X117803838Y-86993414D01*
X117803837Y-86993416D01*
X117716178Y-87124608D01*
X117604608Y-87236178D01*
X117473416Y-87323837D01*
X117473415Y-87323838D01*
X117473414Y-87323838D01*
X117327642Y-87384219D01*
X117172893Y-87415000D01*
X117015107Y-87415000D01*
X116860358Y-87384219D01*
X116714586Y-87323838D01*
X116714585Y-87323838D01*
X116714584Y-87323837D01*
X116583392Y-87236178D01*
X116471822Y-87124608D01*
X116384163Y-86993416D01*
X116384162Y-86993414D01*
X116323781Y-86847642D01*
X116293000Y-86692893D01*
X116293000Y-86535107D01*
X116323781Y-86380358D01*
X116384162Y-86234586D01*
X116384163Y-86234584D01*
X116471822Y-86103392D01*
X116583392Y-85991822D01*
X116714584Y-85904163D01*
X116714586Y-85904162D01*
X116860358Y-85843781D01*
X117015107Y-85813000D01*
X117172893Y-85813000D01*
X117327642Y-85843781D01*
X117327642Y-85843781D01*
G37*
G36*
X119867642Y-85843781D02*
G01*
X120013414Y-85904162D01*
X120013416Y-85904163D01*
X120144608Y-85991822D01*
X120256178Y-86103392D01*
X120343837Y-86234584D01*
X120343838Y-86234586D01*
X120404219Y-86380358D01*
X120435000Y-86535107D01*
X120435000Y-86692893D01*
X120404219Y-86847642D01*
X120343838Y-86993414D01*
X120343837Y-86993416D01*
X120256178Y-87124608D01*
X120144608Y-87236178D01*
X120013416Y-87323837D01*
X120013415Y-87323838D01*
X120013414Y-87323838D01*
X119867642Y-87384219D01*
X119712893Y-87415000D01*
X119555107Y-87415000D01*
X119400358Y-87384219D01*
X119254586Y-87323838D01*
X119254585Y-87323838D01*
X119254584Y-87323837D01*
X119123392Y-87236178D01*
X119011822Y-87124608D01*
X118924163Y-86993416D01*
X118924162Y-86993414D01*
X118863781Y-86847642D01*
X118833000Y-86692893D01*
X118833000Y-86535107D01*
X118863781Y-86380358D01*
X118924162Y-86234586D01*
X118924163Y-86234584D01*
X119011822Y-86103392D01*
X119123392Y-85991822D01*
X119254584Y-85904163D01*
X119254586Y-85904162D01*
X119400358Y-85843781D01*
X119555107Y-85813000D01*
X119712893Y-85813000D01*
X119867642Y-85843781D01*
X119867642Y-85843781D01*
G37*
G36*
X115355000Y-87415000D02*
G01*
X113753000Y-87415000D01*
X113753000Y-85813000D01*
X115355000Y-85813000D01*
X115355000Y-87415000D01*
X115355000Y-87415000D01*
G37*
G36*
X124693642Y-85843781D02*
G01*
X124839414Y-85904162D01*
X124839416Y-85904163D01*
X124970608Y-85991822D01*
X125082178Y-86103392D01*
X125169837Y-86234584D01*
X125169838Y-86234586D01*
X125230219Y-86380358D01*
X125261000Y-86535107D01*
X125261000Y-86692893D01*
X125230219Y-86847642D01*
X125169838Y-86993414D01*
X125169837Y-86993416D01*
X125082178Y-87124608D01*
X124970608Y-87236178D01*
X124839416Y-87323837D01*
X124839415Y-87323838D01*
X124839414Y-87323838D01*
X124693642Y-87384219D01*
X124538893Y-87415000D01*
X124381107Y-87415000D01*
X124226358Y-87384219D01*
X124080586Y-87323838D01*
X124080585Y-87323838D01*
X124080584Y-87323837D01*
X123949392Y-87236178D01*
X123837822Y-87124608D01*
X123750163Y-86993416D01*
X123750162Y-86993414D01*
X123689781Y-86847642D01*
X123659000Y-86692893D01*
X123659000Y-86535107D01*
X123689781Y-86380358D01*
X123750162Y-86234586D01*
X123750163Y-86234584D01*
X123837822Y-86103392D01*
X123949392Y-85991822D01*
X124080584Y-85904163D01*
X124080586Y-85904162D01*
X124226358Y-85843781D01*
X124381107Y-85813000D01*
X124538893Y-85813000D01*
X124693642Y-85843781D01*
X124693642Y-85843781D01*
G37*
G36*
X109961642Y-85843781D02*
G01*
X110107414Y-85904162D01*
X110107416Y-85904163D01*
X110238608Y-85991822D01*
X110350178Y-86103392D01*
X110437837Y-86234584D01*
X110437838Y-86234586D01*
X110498219Y-86380358D01*
X110529000Y-86535107D01*
X110529000Y-86692893D01*
X110498219Y-86847642D01*
X110437838Y-86993414D01*
X110437837Y-86993416D01*
X110350178Y-87124608D01*
X110238608Y-87236178D01*
X110107416Y-87323837D01*
X110107415Y-87323838D01*
X110107414Y-87323838D01*
X109961642Y-87384219D01*
X109806893Y-87415000D01*
X109649107Y-87415000D01*
X109494358Y-87384219D01*
X109348586Y-87323838D01*
X109348585Y-87323838D01*
X109348584Y-87323837D01*
X109217392Y-87236178D01*
X109105822Y-87124608D01*
X109018163Y-86993416D01*
X109018162Y-86993414D01*
X108957781Y-86847642D01*
X108927000Y-86692893D01*
X108927000Y-86535107D01*
X108957781Y-86380358D01*
X109018162Y-86234586D01*
X109018163Y-86234584D01*
X109105822Y-86103392D01*
X109217392Y-85991822D01*
X109348584Y-85904163D01*
X109348586Y-85904162D01*
X109494358Y-85843781D01*
X109649107Y-85813000D01*
X109806893Y-85813000D01*
X109961642Y-85843781D01*
X109961642Y-85843781D01*
G37*
G36*
X122721000Y-87415000D02*
G01*
X121119000Y-87415000D01*
X121119000Y-85813000D01*
X122721000Y-85813000D01*
X122721000Y-87415000D01*
X122721000Y-87415000D01*
G37*
G36*
X107989000Y-87415000D02*
G01*
X106387000Y-87415000D01*
X106387000Y-85813000D01*
X107989000Y-85813000D01*
X107989000Y-87415000D01*
X107989000Y-87415000D01*
G37*
G36*
X132190443Y-84703519D02*
G01*
X132256627Y-84710037D01*
X132426466Y-84761557D01*
X132582991Y-84845222D01*
X132618729Y-84874552D01*
X132720186Y-84957814D01*
X132803448Y-85059271D01*
X132832778Y-85095009D01*
X132916443Y-85251534D01*
X132967963Y-85421373D01*
X132985359Y-85598000D01*
X132967963Y-85774627D01*
X132916443Y-85944466D01*
X132916442Y-85944468D01*
X132874610Y-86022729D01*
X132832778Y-86100991D01*
X132803448Y-86136729D01*
X132720186Y-86238186D01*
X132618729Y-86321448D01*
X132582991Y-86350778D01*
X132426466Y-86434443D01*
X132256627Y-86485963D01*
X132190442Y-86492482D01*
X132124260Y-86499000D01*
X132035740Y-86499000D01*
X131969558Y-86492482D01*
X131903373Y-86485963D01*
X131733534Y-86434443D01*
X131577009Y-86350778D01*
X131541271Y-86321448D01*
X131439814Y-86238186D01*
X131356552Y-86136729D01*
X131327222Y-86100991D01*
X131285390Y-86022729D01*
X131243558Y-85944468D01*
X131243557Y-85944466D01*
X131192037Y-85774627D01*
X131174641Y-85598000D01*
X131192037Y-85421373D01*
X131243557Y-85251534D01*
X131327222Y-85095009D01*
X131356552Y-85059271D01*
X131439814Y-84957814D01*
X131541271Y-84874552D01*
X131577009Y-84845222D01*
X131733534Y-84761557D01*
X131903373Y-84710037D01*
X131969557Y-84703519D01*
X132035740Y-84697000D01*
X132124260Y-84697000D01*
X132190443Y-84703519D01*
X132190443Y-84703519D01*
G37*
G36*
X134730443Y-84703519D02*
G01*
X134796627Y-84710037D01*
X134966466Y-84761557D01*
X135122991Y-84845222D01*
X135158729Y-84874552D01*
X135260186Y-84957814D01*
X135343448Y-85059271D01*
X135372778Y-85095009D01*
X135456443Y-85251534D01*
X135507963Y-85421373D01*
X135525359Y-85598000D01*
X135507963Y-85774627D01*
X135456443Y-85944466D01*
X135456442Y-85944468D01*
X135414610Y-86022729D01*
X135372778Y-86100991D01*
X135343448Y-86136729D01*
X135260186Y-86238186D01*
X135158729Y-86321448D01*
X135122991Y-86350778D01*
X134966466Y-86434443D01*
X134796627Y-86485963D01*
X134730442Y-86492482D01*
X134664260Y-86499000D01*
X134575740Y-86499000D01*
X134509558Y-86492482D01*
X134443373Y-86485963D01*
X134273534Y-86434443D01*
X134117009Y-86350778D01*
X134081271Y-86321448D01*
X133979814Y-86238186D01*
X133896552Y-86136729D01*
X133867222Y-86100991D01*
X133825390Y-86022729D01*
X133783558Y-85944468D01*
X133783557Y-85944466D01*
X133732037Y-85774627D01*
X133714641Y-85598000D01*
X133732037Y-85421373D01*
X133783557Y-85251534D01*
X133867222Y-85095009D01*
X133896552Y-85059271D01*
X133979814Y-84957814D01*
X134081271Y-84874552D01*
X134117009Y-84845222D01*
X134273534Y-84761557D01*
X134443373Y-84710037D01*
X134509557Y-84703519D01*
X134575740Y-84697000D01*
X134664260Y-84697000D01*
X134730443Y-84703519D01*
X134730443Y-84703519D01*
G37*
G36*
X134730442Y-82163518D02*
G01*
X134796627Y-82170037D01*
X134966466Y-82221557D01*
X135122991Y-82305222D01*
X135158729Y-82334552D01*
X135260186Y-82417814D01*
X135343448Y-82519271D01*
X135372778Y-82555009D01*
X135456443Y-82711534D01*
X135507963Y-82881373D01*
X135525359Y-83058000D01*
X135507963Y-83234627D01*
X135456443Y-83404466D01*
X135372778Y-83560991D01*
X135343448Y-83596729D01*
X135260186Y-83698186D01*
X135158729Y-83781448D01*
X135122991Y-83810778D01*
X134966466Y-83894443D01*
X134796627Y-83945963D01*
X134730442Y-83952482D01*
X134664260Y-83959000D01*
X134575740Y-83959000D01*
X134509558Y-83952482D01*
X134443373Y-83945963D01*
X134273534Y-83894443D01*
X134117009Y-83810778D01*
X134081271Y-83781448D01*
X133979814Y-83698186D01*
X133896552Y-83596729D01*
X133867222Y-83560991D01*
X133783557Y-83404466D01*
X133732037Y-83234627D01*
X133714641Y-83058000D01*
X133732037Y-82881373D01*
X133783557Y-82711534D01*
X133867222Y-82555009D01*
X133896552Y-82519271D01*
X133979814Y-82417814D01*
X134081271Y-82334552D01*
X134117009Y-82305222D01*
X134273534Y-82221557D01*
X134443373Y-82170037D01*
X134509558Y-82163518D01*
X134575740Y-82157000D01*
X134664260Y-82157000D01*
X134730442Y-82163518D01*
X134730442Y-82163518D01*
G37*
G36*
X132190442Y-82163518D02*
G01*
X132256627Y-82170037D01*
X132426466Y-82221557D01*
X132582991Y-82305222D01*
X132618729Y-82334552D01*
X132720186Y-82417814D01*
X132803448Y-82519271D01*
X132832778Y-82555009D01*
X132916443Y-82711534D01*
X132967963Y-82881373D01*
X132985359Y-83058000D01*
X132967963Y-83234627D01*
X132916443Y-83404466D01*
X132832778Y-83560991D01*
X132803448Y-83596729D01*
X132720186Y-83698186D01*
X132618729Y-83781448D01*
X132582991Y-83810778D01*
X132426466Y-83894443D01*
X132256627Y-83945963D01*
X132190442Y-83952482D01*
X132124260Y-83959000D01*
X132035740Y-83959000D01*
X131969558Y-83952482D01*
X131903373Y-83945963D01*
X131733534Y-83894443D01*
X131577009Y-83810778D01*
X131541271Y-83781448D01*
X131439814Y-83698186D01*
X131356552Y-83596729D01*
X131327222Y-83560991D01*
X131243557Y-83404466D01*
X131192037Y-83234627D01*
X131174641Y-83058000D01*
X131192037Y-82881373D01*
X131243557Y-82711534D01*
X131327222Y-82555009D01*
X131356552Y-82519271D01*
X131439814Y-82417814D01*
X131541271Y-82334552D01*
X131577009Y-82305222D01*
X131733534Y-82221557D01*
X131903373Y-82170037D01*
X131969558Y-82163518D01*
X132035740Y-82157000D01*
X132124260Y-82157000D01*
X132190442Y-82163518D01*
X132190442Y-82163518D01*
G37*
G36*
X113069000Y-81827000D02*
G01*
X111467000Y-81827000D01*
X111467000Y-80225000D01*
X113069000Y-80225000D01*
X113069000Y-81827000D01*
X113069000Y-81827000D01*
G37*
G36*
X107421642Y-80255781D02*
G01*
X107567414Y-80316162D01*
X107567416Y-80316163D01*
X107698608Y-80403822D01*
X107810178Y-80515392D01*
X107897837Y-80646584D01*
X107897838Y-80646586D01*
X107958219Y-80792358D01*
X107989000Y-80947107D01*
X107989000Y-81104893D01*
X107958219Y-81259642D01*
X107918951Y-81354442D01*
X107897837Y-81405416D01*
X107810178Y-81536608D01*
X107698608Y-81648178D01*
X107567416Y-81735837D01*
X107567415Y-81735838D01*
X107567414Y-81735838D01*
X107421642Y-81796219D01*
X107266893Y-81827000D01*
X107109107Y-81827000D01*
X106954358Y-81796219D01*
X106808586Y-81735838D01*
X106808585Y-81735838D01*
X106808584Y-81735837D01*
X106677392Y-81648178D01*
X106565822Y-81536608D01*
X106478163Y-81405416D01*
X106457049Y-81354442D01*
X106417781Y-81259642D01*
X106387000Y-81104893D01*
X106387000Y-80947107D01*
X106417781Y-80792358D01*
X106478162Y-80646586D01*
X106478163Y-80646584D01*
X106565822Y-80515392D01*
X106677392Y-80403822D01*
X106808584Y-80316163D01*
X106808586Y-80316162D01*
X106954358Y-80255781D01*
X107109107Y-80225000D01*
X107266893Y-80225000D01*
X107421642Y-80255781D01*
X107421642Y-80255781D01*
G37*
G36*
X124693642Y-80255781D02*
G01*
X124839414Y-80316162D01*
X124839416Y-80316163D01*
X124970608Y-80403822D01*
X125082178Y-80515392D01*
X125169837Y-80646584D01*
X125169838Y-80646586D01*
X125230219Y-80792358D01*
X125261000Y-80947107D01*
X125261000Y-81104893D01*
X125230219Y-81259642D01*
X125190951Y-81354442D01*
X125169837Y-81405416D01*
X125082178Y-81536608D01*
X124970608Y-81648178D01*
X124839416Y-81735837D01*
X124839415Y-81735838D01*
X124839414Y-81735838D01*
X124693642Y-81796219D01*
X124538893Y-81827000D01*
X124381107Y-81827000D01*
X124226358Y-81796219D01*
X124080586Y-81735838D01*
X124080585Y-81735838D01*
X124080584Y-81735837D01*
X123949392Y-81648178D01*
X123837822Y-81536608D01*
X123750163Y-81405416D01*
X123729049Y-81354442D01*
X123689781Y-81259642D01*
X123659000Y-81104893D01*
X123659000Y-80947107D01*
X123689781Y-80792358D01*
X123750162Y-80646586D01*
X123750163Y-80646584D01*
X123837822Y-80515392D01*
X123949392Y-80403822D01*
X124080584Y-80316163D01*
X124080586Y-80316162D01*
X124226358Y-80255781D01*
X124381107Y-80225000D01*
X124538893Y-80225000D01*
X124693642Y-80255781D01*
X124693642Y-80255781D01*
G37*
G36*
X114787642Y-80255781D02*
G01*
X114933414Y-80316162D01*
X114933416Y-80316163D01*
X115064608Y-80403822D01*
X115176178Y-80515392D01*
X115263837Y-80646584D01*
X115263838Y-80646586D01*
X115324219Y-80792358D01*
X115355000Y-80947107D01*
X115355000Y-81104893D01*
X115324219Y-81259642D01*
X115284951Y-81354442D01*
X115263837Y-81405416D01*
X115176178Y-81536608D01*
X115064608Y-81648178D01*
X114933416Y-81735837D01*
X114933415Y-81735838D01*
X114933414Y-81735838D01*
X114787642Y-81796219D01*
X114632893Y-81827000D01*
X114475107Y-81827000D01*
X114320358Y-81796219D01*
X114174586Y-81735838D01*
X114174585Y-81735838D01*
X114174584Y-81735837D01*
X114043392Y-81648178D01*
X113931822Y-81536608D01*
X113844163Y-81405416D01*
X113823049Y-81354442D01*
X113783781Y-81259642D01*
X113753000Y-81104893D01*
X113753000Y-80947107D01*
X113783781Y-80792358D01*
X113844162Y-80646586D01*
X113844163Y-80646584D01*
X113931822Y-80515392D01*
X114043392Y-80403822D01*
X114174584Y-80316163D01*
X114174586Y-80316162D01*
X114320358Y-80255781D01*
X114475107Y-80225000D01*
X114632893Y-80225000D01*
X114787642Y-80255781D01*
X114787642Y-80255781D01*
G37*
G36*
X127801000Y-81827000D02*
G01*
X126199000Y-81827000D01*
X126199000Y-80225000D01*
X127801000Y-80225000D01*
X127801000Y-81827000D01*
X127801000Y-81827000D01*
G37*
G36*
X122153642Y-80255781D02*
G01*
X122299414Y-80316162D01*
X122299416Y-80316163D01*
X122430608Y-80403822D01*
X122542178Y-80515392D01*
X122629837Y-80646584D01*
X122629838Y-80646586D01*
X122690219Y-80792358D01*
X122721000Y-80947107D01*
X122721000Y-81104893D01*
X122690219Y-81259642D01*
X122650951Y-81354442D01*
X122629837Y-81405416D01*
X122542178Y-81536608D01*
X122430608Y-81648178D01*
X122299416Y-81735837D01*
X122299415Y-81735838D01*
X122299414Y-81735838D01*
X122153642Y-81796219D01*
X121998893Y-81827000D01*
X121841107Y-81827000D01*
X121686358Y-81796219D01*
X121540586Y-81735838D01*
X121540585Y-81735838D01*
X121540584Y-81735837D01*
X121409392Y-81648178D01*
X121297822Y-81536608D01*
X121210163Y-81405416D01*
X121189049Y-81354442D01*
X121149781Y-81259642D01*
X121119000Y-81104893D01*
X121119000Y-80947107D01*
X121149781Y-80792358D01*
X121210162Y-80646586D01*
X121210163Y-80646584D01*
X121297822Y-80515392D01*
X121409392Y-80403822D01*
X121540584Y-80316163D01*
X121540586Y-80316162D01*
X121686358Y-80255781D01*
X121841107Y-80225000D01*
X121998893Y-80225000D01*
X122153642Y-80255781D01*
X122153642Y-80255781D01*
G37*
G36*
X120435000Y-81827000D02*
G01*
X118833000Y-81827000D01*
X118833000Y-80225000D01*
X120435000Y-80225000D01*
X120435000Y-81827000D01*
X120435000Y-81827000D01*
G37*
G36*
X109961642Y-80255781D02*
G01*
X110107414Y-80316162D01*
X110107416Y-80316163D01*
X110238608Y-80403822D01*
X110350178Y-80515392D01*
X110437837Y-80646584D01*
X110437838Y-80646586D01*
X110498219Y-80792358D01*
X110529000Y-80947107D01*
X110529000Y-81104893D01*
X110498219Y-81259642D01*
X110458951Y-81354442D01*
X110437837Y-81405416D01*
X110350178Y-81536608D01*
X110238608Y-81648178D01*
X110107416Y-81735837D01*
X110107415Y-81735838D01*
X110107414Y-81735838D01*
X109961642Y-81796219D01*
X109806893Y-81827000D01*
X109649107Y-81827000D01*
X109494358Y-81796219D01*
X109348586Y-81735838D01*
X109348585Y-81735838D01*
X109348584Y-81735837D01*
X109217392Y-81648178D01*
X109105822Y-81536608D01*
X109018163Y-81405416D01*
X108997049Y-81354442D01*
X108957781Y-81259642D01*
X108927000Y-81104893D01*
X108927000Y-80947107D01*
X108957781Y-80792358D01*
X109018162Y-80646586D01*
X109018163Y-80646584D01*
X109105822Y-80515392D01*
X109217392Y-80403822D01*
X109348584Y-80316163D01*
X109348586Y-80316162D01*
X109494358Y-80255781D01*
X109649107Y-80225000D01*
X109806893Y-80225000D01*
X109961642Y-80255781D01*
X109961642Y-80255781D01*
G37*
G36*
X117327642Y-80255781D02*
G01*
X117473414Y-80316162D01*
X117473416Y-80316163D01*
X117604608Y-80403822D01*
X117716178Y-80515392D01*
X117803837Y-80646584D01*
X117803838Y-80646586D01*
X117864219Y-80792358D01*
X117895000Y-80947107D01*
X117895000Y-81104893D01*
X117864219Y-81259642D01*
X117824951Y-81354442D01*
X117803837Y-81405416D01*
X117716178Y-81536608D01*
X117604608Y-81648178D01*
X117473416Y-81735837D01*
X117473415Y-81735838D01*
X117473414Y-81735838D01*
X117327642Y-81796219D01*
X117172893Y-81827000D01*
X117015107Y-81827000D01*
X116860358Y-81796219D01*
X116714586Y-81735838D01*
X116714585Y-81735838D01*
X116714584Y-81735837D01*
X116583392Y-81648178D01*
X116471822Y-81536608D01*
X116384163Y-81405416D01*
X116363049Y-81354442D01*
X116323781Y-81259642D01*
X116293000Y-81104893D01*
X116293000Y-80947107D01*
X116323781Y-80792358D01*
X116384162Y-80646586D01*
X116384163Y-80646584D01*
X116471822Y-80515392D01*
X116583392Y-80403822D01*
X116714584Y-80316163D01*
X116714586Y-80316162D01*
X116860358Y-80255781D01*
X117015107Y-80225000D01*
X117172893Y-80225000D01*
X117327642Y-80255781D01*
X117327642Y-80255781D01*
G37*
G36*
X134730442Y-79623518D02*
G01*
X134796627Y-79630037D01*
X134966466Y-79681557D01*
X135122991Y-79765222D01*
X135158729Y-79794552D01*
X135260186Y-79877814D01*
X135343448Y-79979271D01*
X135372778Y-80015009D01*
X135456443Y-80171534D01*
X135507963Y-80341373D01*
X135525359Y-80518000D01*
X135507963Y-80694627D01*
X135456443Y-80864466D01*
X135372778Y-81020991D01*
X135343448Y-81056729D01*
X135260186Y-81158186D01*
X135158729Y-81241448D01*
X135122991Y-81270778D01*
X134966466Y-81354443D01*
X134796627Y-81405963D01*
X134730442Y-81412482D01*
X134664260Y-81419000D01*
X134575740Y-81419000D01*
X134509558Y-81412482D01*
X134443373Y-81405963D01*
X134273534Y-81354443D01*
X134117009Y-81270778D01*
X134081271Y-81241448D01*
X133979814Y-81158186D01*
X133896552Y-81056729D01*
X133867222Y-81020991D01*
X133783557Y-80864466D01*
X133732037Y-80694627D01*
X133714641Y-80518000D01*
X133732037Y-80341373D01*
X133783557Y-80171534D01*
X133867222Y-80015009D01*
X133896552Y-79979271D01*
X133979814Y-79877814D01*
X134081271Y-79794552D01*
X134117009Y-79765222D01*
X134273534Y-79681557D01*
X134443373Y-79630037D01*
X134509558Y-79623518D01*
X134575740Y-79617000D01*
X134664260Y-79617000D01*
X134730442Y-79623518D01*
X134730442Y-79623518D01*
G37*
G36*
X132190442Y-79623518D02*
G01*
X132256627Y-79630037D01*
X132426466Y-79681557D01*
X132582991Y-79765222D01*
X132618729Y-79794552D01*
X132720186Y-79877814D01*
X132803448Y-79979271D01*
X132832778Y-80015009D01*
X132916443Y-80171534D01*
X132967963Y-80341373D01*
X132985359Y-80518000D01*
X132967963Y-80694627D01*
X132916443Y-80864466D01*
X132832778Y-81020991D01*
X132803448Y-81056729D01*
X132720186Y-81158186D01*
X132618729Y-81241448D01*
X132582991Y-81270778D01*
X132426466Y-81354443D01*
X132256627Y-81405963D01*
X132190442Y-81412482D01*
X132124260Y-81419000D01*
X132035740Y-81419000D01*
X131969558Y-81412482D01*
X131903373Y-81405963D01*
X131733534Y-81354443D01*
X131577009Y-81270778D01*
X131541271Y-81241448D01*
X131439814Y-81158186D01*
X131356552Y-81056729D01*
X131327222Y-81020991D01*
X131243557Y-80864466D01*
X131192037Y-80694627D01*
X131174641Y-80518000D01*
X131192037Y-80341373D01*
X131243557Y-80171534D01*
X131327222Y-80015009D01*
X131356552Y-79979271D01*
X131439814Y-79877814D01*
X131541271Y-79794552D01*
X131577009Y-79765222D01*
X131733534Y-79681557D01*
X131903373Y-79630037D01*
X131969558Y-79623518D01*
X132035740Y-79617000D01*
X132124260Y-79617000D01*
X132190442Y-79623518D01*
X132190442Y-79623518D01*
G37*
G36*
X134730442Y-77083518D02*
G01*
X134796627Y-77090037D01*
X134966466Y-77141557D01*
X135122991Y-77225222D01*
X135158729Y-77254552D01*
X135260186Y-77337814D01*
X135299882Y-77386185D01*
X135372778Y-77475009D01*
X135456443Y-77631534D01*
X135507963Y-77801373D01*
X135525359Y-77978000D01*
X135507963Y-78154627D01*
X135456443Y-78324466D01*
X135372778Y-78480991D01*
X135343448Y-78516729D01*
X135260186Y-78618186D01*
X135158729Y-78701448D01*
X135122991Y-78730778D01*
X134966466Y-78814443D01*
X134796627Y-78865963D01*
X134730443Y-78872481D01*
X134664260Y-78879000D01*
X134575740Y-78879000D01*
X134509557Y-78872481D01*
X134443373Y-78865963D01*
X134273534Y-78814443D01*
X134117009Y-78730778D01*
X134081271Y-78701448D01*
X133979814Y-78618186D01*
X133896552Y-78516729D01*
X133867222Y-78480991D01*
X133783557Y-78324466D01*
X133732037Y-78154627D01*
X133714641Y-77978000D01*
X133732037Y-77801373D01*
X133783557Y-77631534D01*
X133867222Y-77475009D01*
X133940118Y-77386185D01*
X133979814Y-77337814D01*
X134081271Y-77254552D01*
X134117009Y-77225222D01*
X134273534Y-77141557D01*
X134443373Y-77090037D01*
X134509558Y-77083518D01*
X134575740Y-77077000D01*
X134664260Y-77077000D01*
X134730442Y-77083518D01*
X134730442Y-77083518D01*
G37*
G36*
X132190442Y-77083518D02*
G01*
X132256627Y-77090037D01*
X132426466Y-77141557D01*
X132582991Y-77225222D01*
X132618729Y-77254552D01*
X132720186Y-77337814D01*
X132759882Y-77386185D01*
X132832778Y-77475009D01*
X132916443Y-77631534D01*
X132967963Y-77801373D01*
X132985359Y-77978000D01*
X132967963Y-78154627D01*
X132916443Y-78324466D01*
X132832778Y-78480991D01*
X132803448Y-78516729D01*
X132720186Y-78618186D01*
X132618729Y-78701448D01*
X132582991Y-78730778D01*
X132426466Y-78814443D01*
X132256627Y-78865963D01*
X132190443Y-78872481D01*
X132124260Y-78879000D01*
X132035740Y-78879000D01*
X131969557Y-78872481D01*
X131903373Y-78865963D01*
X131733534Y-78814443D01*
X131577009Y-78730778D01*
X131541271Y-78701448D01*
X131439814Y-78618186D01*
X131356552Y-78516729D01*
X131327222Y-78480991D01*
X131243557Y-78324466D01*
X131192037Y-78154627D01*
X131174641Y-77978000D01*
X131192037Y-77801373D01*
X131243557Y-77631534D01*
X131327222Y-77475009D01*
X131400118Y-77386185D01*
X131439814Y-77337814D01*
X131541271Y-77254552D01*
X131577009Y-77225222D01*
X131733534Y-77141557D01*
X131903373Y-77090037D01*
X131969558Y-77083518D01*
X132035740Y-77077000D01*
X132124260Y-77077000D01*
X132190442Y-77083518D01*
X132190442Y-77083518D01*
G37*
G36*
X107354823Y-76631313D02*
G01*
X107515242Y-76679976D01*
X107582361Y-76715852D01*
X107663078Y-76758996D01*
X107792659Y-76865341D01*
X107899004Y-76994922D01*
X107899005Y-76994924D01*
X107978024Y-77142758D01*
X108026687Y-77303177D01*
X108043117Y-77470000D01*
X108026687Y-77636823D01*
X107978024Y-77797242D01*
X107937477Y-77873100D01*
X107899004Y-77945078D01*
X107792659Y-78074659D01*
X107663078Y-78181004D01*
X107663076Y-78181005D01*
X107515242Y-78260024D01*
X107354823Y-78308687D01*
X107229804Y-78321000D01*
X107146196Y-78321000D01*
X107021177Y-78308687D01*
X106860758Y-78260024D01*
X106712924Y-78181005D01*
X106712922Y-78181004D01*
X106583341Y-78074659D01*
X106476996Y-77945078D01*
X106438523Y-77873100D01*
X106397976Y-77797242D01*
X106349313Y-77636823D01*
X106332883Y-77470000D01*
X106349313Y-77303177D01*
X106397976Y-77142758D01*
X106476995Y-76994924D01*
X106476996Y-76994922D01*
X106583341Y-76865341D01*
X106712922Y-76758996D01*
X106793639Y-76715852D01*
X106860758Y-76679976D01*
X107021177Y-76631313D01*
X107146196Y-76619000D01*
X107229804Y-76619000D01*
X107354823Y-76631313D01*
X107354823Y-76631313D01*
G37*
G36*
X115056228Y-76651703D02*
G01*
X115211100Y-76715853D01*
X115350481Y-76808985D01*
X115469015Y-76927519D01*
X115562147Y-77066900D01*
X115626297Y-77221772D01*
X115659000Y-77386184D01*
X115659000Y-77553816D01*
X115626297Y-77718228D01*
X115562147Y-77873100D01*
X115469015Y-78012481D01*
X115350481Y-78131015D01*
X115211100Y-78224147D01*
X115056228Y-78288297D01*
X114891816Y-78321000D01*
X114724184Y-78321000D01*
X114559772Y-78288297D01*
X114404900Y-78224147D01*
X114265519Y-78131015D01*
X114146985Y-78012481D01*
X114053853Y-77873100D01*
X113989703Y-77718228D01*
X113957000Y-77553816D01*
X113957000Y-77386184D01*
X113989703Y-77221772D01*
X114053853Y-77066900D01*
X114146985Y-76927519D01*
X114265519Y-76808985D01*
X114404900Y-76715853D01*
X114559772Y-76651703D01*
X114724184Y-76619000D01*
X114891816Y-76619000D01*
X115056228Y-76651703D01*
X115056228Y-76651703D01*
G37*
G36*
X119628228Y-76651703D02*
G01*
X119783100Y-76715853D01*
X119922481Y-76808985D01*
X120041015Y-76927519D01*
X120134147Y-77066900D01*
X120198297Y-77221772D01*
X120231000Y-77386184D01*
X120231000Y-77553816D01*
X120198297Y-77718228D01*
X120134147Y-77873100D01*
X120041015Y-78012481D01*
X119922481Y-78131015D01*
X119783100Y-78224147D01*
X119628228Y-78288297D01*
X119463816Y-78321000D01*
X119296184Y-78321000D01*
X119131772Y-78288297D01*
X118976900Y-78224147D01*
X118837519Y-78131015D01*
X118718985Y-78012481D01*
X118625853Y-77873100D01*
X118561703Y-77718228D01*
X118529000Y-77553816D01*
X118529000Y-77386184D01*
X118561703Y-77221772D01*
X118625853Y-77066900D01*
X118718985Y-76927519D01*
X118837519Y-76808985D01*
X118976900Y-76715853D01*
X119131772Y-76651703D01*
X119296184Y-76619000D01*
X119463816Y-76619000D01*
X119628228Y-76651703D01*
X119628228Y-76651703D01*
G37*
G36*
X127166823Y-76631313D02*
G01*
X127327242Y-76679976D01*
X127394361Y-76715852D01*
X127475078Y-76758996D01*
X127604659Y-76865341D01*
X127711004Y-76994922D01*
X127711005Y-76994924D01*
X127790024Y-77142758D01*
X127838687Y-77303177D01*
X127855117Y-77470000D01*
X127838687Y-77636823D01*
X127790024Y-77797242D01*
X127749477Y-77873100D01*
X127711004Y-77945078D01*
X127604659Y-78074659D01*
X127475078Y-78181004D01*
X127475076Y-78181005D01*
X127327242Y-78260024D01*
X127166823Y-78308687D01*
X127041804Y-78321000D01*
X126958196Y-78321000D01*
X126833177Y-78308687D01*
X126672758Y-78260024D01*
X126524924Y-78181005D01*
X126524922Y-78181004D01*
X126395341Y-78074659D01*
X126288996Y-77945078D01*
X126250523Y-77873100D01*
X126209976Y-77797242D01*
X126161313Y-77636823D01*
X126144883Y-77470000D01*
X126161313Y-77303177D01*
X126209976Y-77142758D01*
X126288995Y-76994924D01*
X126288996Y-76994922D01*
X126395341Y-76865341D01*
X126524922Y-76758996D01*
X126605639Y-76715852D01*
X126672758Y-76679976D01*
X126833177Y-76631313D01*
X126958196Y-76619000D01*
X127041804Y-76619000D01*
X127166823Y-76631313D01*
X127166823Y-76631313D01*
G37*
G36*
X134730443Y-74543519D02*
G01*
X134796627Y-74550037D01*
X134966466Y-74601557D01*
X135122991Y-74685222D01*
X135158729Y-74714552D01*
X135260186Y-74797814D01*
X135341647Y-74897076D01*
X135372778Y-74935009D01*
X135372779Y-74935011D01*
X135451890Y-75083015D01*
X135456443Y-75091534D01*
X135507963Y-75261373D01*
X135525359Y-75438000D01*
X135507963Y-75614627D01*
X135456443Y-75784466D01*
X135372778Y-75940991D01*
X135343448Y-75976729D01*
X135260186Y-76078186D01*
X135158729Y-76161448D01*
X135122991Y-76190778D01*
X134966466Y-76274443D01*
X134796627Y-76325963D01*
X134730442Y-76332482D01*
X134664260Y-76339000D01*
X134575740Y-76339000D01*
X134509558Y-76332482D01*
X134443373Y-76325963D01*
X134273534Y-76274443D01*
X134117009Y-76190778D01*
X134081271Y-76161448D01*
X133979814Y-76078186D01*
X133896552Y-75976729D01*
X133867222Y-75940991D01*
X133783557Y-75784466D01*
X133732037Y-75614627D01*
X133714641Y-75438000D01*
X133732037Y-75261373D01*
X133783557Y-75091534D01*
X133788111Y-75083015D01*
X133867221Y-74935011D01*
X133867222Y-74935009D01*
X133898353Y-74897076D01*
X133979814Y-74797814D01*
X134081271Y-74714552D01*
X134117009Y-74685222D01*
X134273534Y-74601557D01*
X134443373Y-74550037D01*
X134509557Y-74543519D01*
X134575740Y-74537000D01*
X134664260Y-74537000D01*
X134730443Y-74543519D01*
X134730443Y-74543519D01*
G37*
G36*
X132190443Y-74543519D02*
G01*
X132256627Y-74550037D01*
X132426466Y-74601557D01*
X132582991Y-74685222D01*
X132618729Y-74714552D01*
X132720186Y-74797814D01*
X132801647Y-74897076D01*
X132832778Y-74935009D01*
X132832779Y-74935011D01*
X132911890Y-75083015D01*
X132916443Y-75091534D01*
X132967963Y-75261373D01*
X132985359Y-75438000D01*
X132967963Y-75614627D01*
X132916443Y-75784466D01*
X132832778Y-75940991D01*
X132803448Y-75976729D01*
X132720186Y-76078186D01*
X132618729Y-76161448D01*
X132582991Y-76190778D01*
X132426466Y-76274443D01*
X132256627Y-76325963D01*
X132190442Y-76332482D01*
X132124260Y-76339000D01*
X132035740Y-76339000D01*
X131969558Y-76332482D01*
X131903373Y-76325963D01*
X131733534Y-76274443D01*
X131577009Y-76190778D01*
X131541271Y-76161448D01*
X131439814Y-76078186D01*
X131356552Y-75976729D01*
X131327222Y-75940991D01*
X131243557Y-75784466D01*
X131192037Y-75614627D01*
X131174641Y-75438000D01*
X131192037Y-75261373D01*
X131243557Y-75091534D01*
X131248111Y-75083015D01*
X131327221Y-74935011D01*
X131327222Y-74935009D01*
X131358353Y-74897076D01*
X131439814Y-74797814D01*
X131541271Y-74714552D01*
X131577009Y-74685222D01*
X131733534Y-74601557D01*
X131903373Y-74550037D01*
X131969557Y-74543519D01*
X132035740Y-74537000D01*
X132124260Y-74537000D01*
X132190443Y-74543519D01*
X132190443Y-74543519D01*
G37*
G36*
X119628228Y-73603703D02*
G01*
X119783100Y-73667853D01*
X119922481Y-73760985D01*
X120041015Y-73879519D01*
X120134147Y-74018900D01*
X120198297Y-74173772D01*
X120231000Y-74338184D01*
X120231000Y-74505816D01*
X120198297Y-74670228D01*
X120134147Y-74825100D01*
X120041015Y-74964481D01*
X119922481Y-75083015D01*
X119783100Y-75176147D01*
X119628228Y-75240297D01*
X119463816Y-75273000D01*
X119296184Y-75273000D01*
X119131772Y-75240297D01*
X118976900Y-75176147D01*
X118837519Y-75083015D01*
X118718985Y-74964481D01*
X118625853Y-74825100D01*
X118561703Y-74670228D01*
X118529000Y-74505816D01*
X118529000Y-74338184D01*
X118561703Y-74173772D01*
X118625853Y-74018900D01*
X118718985Y-73879519D01*
X118837519Y-73760985D01*
X118976900Y-73667853D01*
X119131772Y-73603703D01*
X119296184Y-73571000D01*
X119463816Y-73571000D01*
X119628228Y-73603703D01*
X119628228Y-73603703D01*
G37*
G36*
X115056228Y-73603703D02*
G01*
X115211100Y-73667853D01*
X115350481Y-73760985D01*
X115469015Y-73879519D01*
X115562147Y-74018900D01*
X115626297Y-74173772D01*
X115659000Y-74338184D01*
X115659000Y-74505816D01*
X115626297Y-74670228D01*
X115562147Y-74825100D01*
X115469015Y-74964481D01*
X115350481Y-75083015D01*
X115211100Y-75176147D01*
X115056228Y-75240297D01*
X114891816Y-75273000D01*
X114724184Y-75273000D01*
X114559772Y-75240297D01*
X114404900Y-75176147D01*
X114265519Y-75083015D01*
X114146985Y-74964481D01*
X114053853Y-74825100D01*
X113989703Y-74670228D01*
X113957000Y-74505816D01*
X113957000Y-74338184D01*
X113989703Y-74173772D01*
X114053853Y-74018900D01*
X114146985Y-73879519D01*
X114265519Y-73760985D01*
X114404900Y-73667853D01*
X114559772Y-73603703D01*
X114724184Y-73571000D01*
X114891816Y-73571000D01*
X115056228Y-73603703D01*
X115056228Y-73603703D01*
G37*
G36*
X107354823Y-73583313D02*
G01*
X107515242Y-73631976D01*
X107582361Y-73667852D01*
X107663078Y-73710996D01*
X107792659Y-73817341D01*
X107899004Y-73946922D01*
X107899005Y-73946924D01*
X107978024Y-74094758D01*
X108026687Y-74255177D01*
X108043117Y-74422000D01*
X108026687Y-74588823D01*
X107978024Y-74749242D01*
X107937477Y-74825100D01*
X107899004Y-74897078D01*
X107792659Y-75026659D01*
X107663078Y-75133004D01*
X107663076Y-75133005D01*
X107515242Y-75212024D01*
X107354823Y-75260687D01*
X107229804Y-75273000D01*
X107146196Y-75273000D01*
X107021177Y-75260687D01*
X106860758Y-75212024D01*
X106712924Y-75133005D01*
X106712922Y-75133004D01*
X106583341Y-75026659D01*
X106476996Y-74897078D01*
X106438523Y-74825100D01*
X106397976Y-74749242D01*
X106349313Y-74588823D01*
X106332883Y-74422000D01*
X106349313Y-74255177D01*
X106397976Y-74094758D01*
X106476995Y-73946924D01*
X106476996Y-73946922D01*
X106583341Y-73817341D01*
X106712922Y-73710996D01*
X106793639Y-73667852D01*
X106860758Y-73631976D01*
X107021177Y-73583313D01*
X107146196Y-73571000D01*
X107229804Y-73571000D01*
X107354823Y-73583313D01*
X107354823Y-73583313D01*
G37*
G36*
X127166823Y-73583313D02*
G01*
X127327242Y-73631976D01*
X127394361Y-73667852D01*
X127475078Y-73710996D01*
X127604659Y-73817341D01*
X127711004Y-73946922D01*
X127711005Y-73946924D01*
X127790024Y-74094758D01*
X127838687Y-74255177D01*
X127855117Y-74422000D01*
X127838687Y-74588823D01*
X127790024Y-74749242D01*
X127749477Y-74825100D01*
X127711004Y-74897078D01*
X127604659Y-75026659D01*
X127475078Y-75133004D01*
X127475076Y-75133005D01*
X127327242Y-75212024D01*
X127166823Y-75260687D01*
X127041804Y-75273000D01*
X126958196Y-75273000D01*
X126833177Y-75260687D01*
X126672758Y-75212024D01*
X126524924Y-75133005D01*
X126524922Y-75133004D01*
X126395341Y-75026659D01*
X126288996Y-74897078D01*
X126250523Y-74825100D01*
X126209976Y-74749242D01*
X126161313Y-74588823D01*
X126144883Y-74422000D01*
X126161313Y-74255177D01*
X126209976Y-74094758D01*
X126288995Y-73946924D01*
X126288996Y-73946922D01*
X126395341Y-73817341D01*
X126524922Y-73710996D01*
X126605639Y-73667852D01*
X126672758Y-73631976D01*
X126833177Y-73583313D01*
X126958196Y-73571000D01*
X127041804Y-73571000D01*
X127166823Y-73583313D01*
X127166823Y-73583313D01*
G37*
G36*
X134730443Y-72003519D02*
G01*
X134796627Y-72010037D01*
X134966466Y-72061557D01*
X135122991Y-72145222D01*
X135145901Y-72164024D01*
X135260186Y-72257814D01*
X135343448Y-72359271D01*
X135372778Y-72395009D01*
X135456443Y-72551534D01*
X135507963Y-72721373D01*
X135525359Y-72898000D01*
X135507963Y-73074627D01*
X135456443Y-73244466D01*
X135372778Y-73400991D01*
X135343448Y-73436729D01*
X135260186Y-73538186D01*
X135158729Y-73621448D01*
X135122991Y-73650778D01*
X134966466Y-73734443D01*
X134796627Y-73785963D01*
X134730443Y-73792481D01*
X134664260Y-73799000D01*
X134575740Y-73799000D01*
X134509557Y-73792481D01*
X134443373Y-73785963D01*
X134273534Y-73734443D01*
X134117009Y-73650778D01*
X134081271Y-73621448D01*
X133979814Y-73538186D01*
X133896552Y-73436729D01*
X133867222Y-73400991D01*
X133783557Y-73244466D01*
X133732037Y-73074627D01*
X133714641Y-72898000D01*
X133732037Y-72721373D01*
X133783557Y-72551534D01*
X133867222Y-72395009D01*
X133896552Y-72359271D01*
X133979814Y-72257814D01*
X134094099Y-72164024D01*
X134117009Y-72145222D01*
X134273534Y-72061557D01*
X134443373Y-72010037D01*
X134509557Y-72003519D01*
X134575740Y-71997000D01*
X134664260Y-71997000D01*
X134730443Y-72003519D01*
X134730443Y-72003519D01*
G37*
G36*
X132190443Y-72003519D02*
G01*
X132256627Y-72010037D01*
X132426466Y-72061557D01*
X132582991Y-72145222D01*
X132605901Y-72164024D01*
X132720186Y-72257814D01*
X132803448Y-72359271D01*
X132832778Y-72395009D01*
X132916443Y-72551534D01*
X132967963Y-72721373D01*
X132985359Y-72898000D01*
X132967963Y-73074627D01*
X132916443Y-73244466D01*
X132832778Y-73400991D01*
X132803448Y-73436729D01*
X132720186Y-73538186D01*
X132618729Y-73621448D01*
X132582991Y-73650778D01*
X132426466Y-73734443D01*
X132256627Y-73785963D01*
X132190443Y-73792481D01*
X132124260Y-73799000D01*
X132035740Y-73799000D01*
X131969557Y-73792481D01*
X131903373Y-73785963D01*
X131733534Y-73734443D01*
X131577009Y-73650778D01*
X131541271Y-73621448D01*
X131439814Y-73538186D01*
X131356552Y-73436729D01*
X131327222Y-73400991D01*
X131243557Y-73244466D01*
X131192037Y-73074627D01*
X131174641Y-72898000D01*
X131192037Y-72721373D01*
X131243557Y-72551534D01*
X131327222Y-72395009D01*
X131356552Y-72359271D01*
X131439814Y-72257814D01*
X131554099Y-72164024D01*
X131577009Y-72145222D01*
X131733534Y-72061557D01*
X131903373Y-72010037D01*
X131969557Y-72003519D01*
X132035740Y-71997000D01*
X132124260Y-71997000D01*
X132190443Y-72003519D01*
X132190443Y-72003519D01*
G37*
G36*
X115056228Y-70555703D02*
G01*
X115211100Y-70619853D01*
X115350481Y-70712985D01*
X115469015Y-70831519D01*
X115562147Y-70970900D01*
X115626297Y-71125772D01*
X115659000Y-71290184D01*
X115659000Y-71457816D01*
X115626297Y-71622228D01*
X115562147Y-71777100D01*
X115469015Y-71916481D01*
X115350481Y-72035015D01*
X115211100Y-72128147D01*
X115056228Y-72192297D01*
X114891816Y-72225000D01*
X114724184Y-72225000D01*
X114559772Y-72192297D01*
X114404900Y-72128147D01*
X114265519Y-72035015D01*
X114146985Y-71916481D01*
X114053853Y-71777100D01*
X113989703Y-71622228D01*
X113957000Y-71457816D01*
X113957000Y-71290184D01*
X113989703Y-71125772D01*
X114053853Y-70970900D01*
X114146985Y-70831519D01*
X114265519Y-70712985D01*
X114404900Y-70619853D01*
X114559772Y-70555703D01*
X114724184Y-70523000D01*
X114891816Y-70523000D01*
X115056228Y-70555703D01*
X115056228Y-70555703D01*
G37*
G36*
X107354823Y-70535313D02*
G01*
X107515242Y-70583976D01*
X107582361Y-70619852D01*
X107663078Y-70662996D01*
X107792659Y-70769341D01*
X107899004Y-70898922D01*
X107899005Y-70898924D01*
X107978024Y-71046758D01*
X108026687Y-71207177D01*
X108043117Y-71374000D01*
X108026687Y-71540823D01*
X107978024Y-71701242D01*
X107937477Y-71777100D01*
X107899004Y-71849078D01*
X107792659Y-71978659D01*
X107663078Y-72085004D01*
X107663076Y-72085005D01*
X107515242Y-72164024D01*
X107354823Y-72212687D01*
X107229804Y-72225000D01*
X107146196Y-72225000D01*
X107021177Y-72212687D01*
X106860758Y-72164024D01*
X106712924Y-72085005D01*
X106712922Y-72085004D01*
X106583341Y-71978659D01*
X106476996Y-71849078D01*
X106438523Y-71777100D01*
X106397976Y-71701242D01*
X106349313Y-71540823D01*
X106332883Y-71374000D01*
X106349313Y-71207177D01*
X106397976Y-71046758D01*
X106476995Y-70898924D01*
X106476996Y-70898922D01*
X106583341Y-70769341D01*
X106712922Y-70662996D01*
X106793639Y-70619852D01*
X106860758Y-70583976D01*
X107021177Y-70535313D01*
X107146196Y-70523000D01*
X107229804Y-70523000D01*
X107354823Y-70535313D01*
X107354823Y-70535313D01*
G37*
G36*
X127166823Y-70535313D02*
G01*
X127327242Y-70583976D01*
X127394361Y-70619852D01*
X127475078Y-70662996D01*
X127604659Y-70769341D01*
X127711004Y-70898922D01*
X127711005Y-70898924D01*
X127790024Y-71046758D01*
X127838687Y-71207177D01*
X127855117Y-71374000D01*
X127838687Y-71540823D01*
X127790024Y-71701242D01*
X127749477Y-71777100D01*
X127711004Y-71849078D01*
X127604659Y-71978659D01*
X127475078Y-72085004D01*
X127475076Y-72085005D01*
X127327242Y-72164024D01*
X127166823Y-72212687D01*
X127041804Y-72225000D01*
X126958196Y-72225000D01*
X126833177Y-72212687D01*
X126672758Y-72164024D01*
X126524924Y-72085005D01*
X126524922Y-72085004D01*
X126395341Y-71978659D01*
X126288996Y-71849078D01*
X126250523Y-71777100D01*
X126209976Y-71701242D01*
X126161313Y-71540823D01*
X126144883Y-71374000D01*
X126161313Y-71207177D01*
X126209976Y-71046758D01*
X126288995Y-70898924D01*
X126288996Y-70898922D01*
X126395341Y-70769341D01*
X126524922Y-70662996D01*
X126605639Y-70619852D01*
X126672758Y-70583976D01*
X126833177Y-70535313D01*
X126958196Y-70523000D01*
X127041804Y-70523000D01*
X127166823Y-70535313D01*
X127166823Y-70535313D01*
G37*
G36*
X119628228Y-70555703D02*
G01*
X119783100Y-70619853D01*
X119922481Y-70712985D01*
X120041015Y-70831519D01*
X120134147Y-70970900D01*
X120198297Y-71125772D01*
X120231000Y-71290184D01*
X120231000Y-71457816D01*
X120198297Y-71622228D01*
X120134147Y-71777100D01*
X120041015Y-71916481D01*
X119922481Y-72035015D01*
X119783100Y-72128147D01*
X119628228Y-72192297D01*
X119463816Y-72225000D01*
X119296184Y-72225000D01*
X119131772Y-72192297D01*
X118976900Y-72128147D01*
X118837519Y-72035015D01*
X118718985Y-71916481D01*
X118625853Y-71777100D01*
X118561703Y-71622228D01*
X118529000Y-71457816D01*
X118529000Y-71290184D01*
X118561703Y-71125772D01*
X118625853Y-70970900D01*
X118718985Y-70831519D01*
X118837519Y-70712985D01*
X118976900Y-70619853D01*
X119131772Y-70555703D01*
X119296184Y-70523000D01*
X119463816Y-70523000D01*
X119628228Y-70555703D01*
X119628228Y-70555703D01*
G37*
G36*
X132190442Y-69463518D02*
G01*
X132256627Y-69470037D01*
X132426466Y-69521557D01*
X132582991Y-69605222D01*
X132618729Y-69634552D01*
X132720186Y-69717814D01*
X132803448Y-69819271D01*
X132832778Y-69855009D01*
X132916443Y-70011534D01*
X132967963Y-70181373D01*
X132985359Y-70358000D01*
X132967963Y-70534627D01*
X132916443Y-70704466D01*
X132916442Y-70704468D01*
X132881766Y-70769341D01*
X132832778Y-70860991D01*
X132803448Y-70896729D01*
X132720186Y-70998186D01*
X132618729Y-71081448D01*
X132582991Y-71110778D01*
X132426466Y-71194443D01*
X132256627Y-71245963D01*
X132190442Y-71252482D01*
X132124260Y-71259000D01*
X132035740Y-71259000D01*
X131969558Y-71252482D01*
X131903373Y-71245963D01*
X131733534Y-71194443D01*
X131577009Y-71110778D01*
X131541271Y-71081448D01*
X131439814Y-70998186D01*
X131356552Y-70896729D01*
X131327222Y-70860991D01*
X131278234Y-70769341D01*
X131243558Y-70704468D01*
X131243557Y-70704466D01*
X131192037Y-70534627D01*
X131174641Y-70358000D01*
X131192037Y-70181373D01*
X131243557Y-70011534D01*
X131327222Y-69855009D01*
X131356552Y-69819271D01*
X131439814Y-69717814D01*
X131541271Y-69634552D01*
X131577009Y-69605222D01*
X131733534Y-69521557D01*
X131903373Y-69470037D01*
X131969558Y-69463518D01*
X132035740Y-69457000D01*
X132124260Y-69457000D01*
X132190442Y-69463518D01*
X132190442Y-69463518D01*
G37*
G36*
X134730442Y-69463518D02*
G01*
X134796627Y-69470037D01*
X134966466Y-69521557D01*
X135122991Y-69605222D01*
X135158729Y-69634552D01*
X135260186Y-69717814D01*
X135343448Y-69819271D01*
X135372778Y-69855009D01*
X135456443Y-70011534D01*
X135507963Y-70181373D01*
X135525359Y-70358000D01*
X135507963Y-70534627D01*
X135456443Y-70704466D01*
X135456442Y-70704468D01*
X135421766Y-70769341D01*
X135372778Y-70860991D01*
X135343448Y-70896729D01*
X135260186Y-70998186D01*
X135158729Y-71081448D01*
X135122991Y-71110778D01*
X134966466Y-71194443D01*
X134796627Y-71245963D01*
X134730442Y-71252482D01*
X134664260Y-71259000D01*
X134575740Y-71259000D01*
X134509558Y-71252482D01*
X134443373Y-71245963D01*
X134273534Y-71194443D01*
X134117009Y-71110778D01*
X134081271Y-71081448D01*
X133979814Y-70998186D01*
X133896552Y-70896729D01*
X133867222Y-70860991D01*
X133818234Y-70769341D01*
X133783558Y-70704468D01*
X133783557Y-70704466D01*
X133732037Y-70534627D01*
X133714641Y-70358000D01*
X133732037Y-70181373D01*
X133783557Y-70011534D01*
X133867222Y-69855009D01*
X133896552Y-69819271D01*
X133979814Y-69717814D01*
X134081271Y-69634552D01*
X134117009Y-69605222D01*
X134273534Y-69521557D01*
X134443373Y-69470037D01*
X134509558Y-69463518D01*
X134575740Y-69457000D01*
X134664260Y-69457000D01*
X134730442Y-69463518D01*
X134730442Y-69463518D01*
G37*
G36*
X110910823Y-67233313D02*
G01*
X111071242Y-67281976D01*
X111203906Y-67352886D01*
X111219078Y-67360996D01*
X111348659Y-67467341D01*
X111455004Y-67596922D01*
X111455005Y-67596924D01*
X111534024Y-67744758D01*
X111582687Y-67905177D01*
X111599117Y-68072000D01*
X111582687Y-68238823D01*
X111534024Y-68399242D01*
X111463114Y-68531906D01*
X111455004Y-68547078D01*
X111348659Y-68676659D01*
X111219078Y-68783004D01*
X111219076Y-68783005D01*
X111071242Y-68862024D01*
X110910823Y-68910687D01*
X110785804Y-68923000D01*
X110702196Y-68923000D01*
X110577177Y-68910687D01*
X110416758Y-68862024D01*
X110268924Y-68783005D01*
X110268922Y-68783004D01*
X110139341Y-68676659D01*
X110032996Y-68547078D01*
X110024886Y-68531906D01*
X109953976Y-68399242D01*
X109905313Y-68238823D01*
X109888883Y-68072000D01*
X109905313Y-67905177D01*
X109953976Y-67744758D01*
X110032995Y-67596924D01*
X110032996Y-67596922D01*
X110139341Y-67467341D01*
X110268922Y-67360996D01*
X110284094Y-67352886D01*
X110416758Y-67281976D01*
X110577177Y-67233313D01*
X110702196Y-67221000D01*
X110785804Y-67221000D01*
X110910823Y-67233313D01*
X110910823Y-67233313D01*
G37*
G36*
X113450823Y-67233313D02*
G01*
X113611242Y-67281976D01*
X113743906Y-67352886D01*
X113759078Y-67360996D01*
X113888659Y-67467341D01*
X113995004Y-67596922D01*
X113995005Y-67596924D01*
X114074024Y-67744758D01*
X114122687Y-67905177D01*
X114139117Y-68072000D01*
X114122687Y-68238823D01*
X114074024Y-68399242D01*
X114003114Y-68531906D01*
X113995004Y-68547078D01*
X113888659Y-68676659D01*
X113759078Y-68783004D01*
X113759076Y-68783005D01*
X113611242Y-68862024D01*
X113450823Y-68910687D01*
X113325804Y-68923000D01*
X113242196Y-68923000D01*
X113117177Y-68910687D01*
X112956758Y-68862024D01*
X112808924Y-68783005D01*
X112808922Y-68783004D01*
X112679341Y-68676659D01*
X112572996Y-68547078D01*
X112564886Y-68531906D01*
X112493976Y-68399242D01*
X112445313Y-68238823D01*
X112428883Y-68072000D01*
X112445313Y-67905177D01*
X112493976Y-67744758D01*
X112572995Y-67596924D01*
X112572996Y-67596922D01*
X112679341Y-67467341D01*
X112808922Y-67360996D01*
X112824094Y-67352886D01*
X112956758Y-67281976D01*
X113117177Y-67233313D01*
X113242196Y-67221000D01*
X113325804Y-67221000D01*
X113450823Y-67233313D01*
X113450823Y-67233313D01*
G37*
G36*
X115990823Y-67233313D02*
G01*
X116151242Y-67281976D01*
X116283906Y-67352886D01*
X116299078Y-67360996D01*
X116428659Y-67467341D01*
X116535004Y-67596922D01*
X116535005Y-67596924D01*
X116614024Y-67744758D01*
X116662687Y-67905177D01*
X116679117Y-68072000D01*
X116662687Y-68238823D01*
X116614024Y-68399242D01*
X116543114Y-68531906D01*
X116535004Y-68547078D01*
X116428659Y-68676659D01*
X116299078Y-68783004D01*
X116299076Y-68783005D01*
X116151242Y-68862024D01*
X115990823Y-68910687D01*
X115865804Y-68923000D01*
X115782196Y-68923000D01*
X115657177Y-68910687D01*
X115496758Y-68862024D01*
X115348924Y-68783005D01*
X115348922Y-68783004D01*
X115219341Y-68676659D01*
X115112996Y-68547078D01*
X115104886Y-68531906D01*
X115033976Y-68399242D01*
X114985313Y-68238823D01*
X114968883Y-68072000D01*
X114985313Y-67905177D01*
X115033976Y-67744758D01*
X115112995Y-67596924D01*
X115112996Y-67596922D01*
X115219341Y-67467341D01*
X115348922Y-67360996D01*
X115364094Y-67352886D01*
X115496758Y-67281976D01*
X115657177Y-67233313D01*
X115782196Y-67221000D01*
X115865804Y-67221000D01*
X115990823Y-67233313D01*
X115990823Y-67233313D01*
G37*
G36*
X118530823Y-67233313D02*
G01*
X118691242Y-67281976D01*
X118823906Y-67352886D01*
X118839078Y-67360996D01*
X118968659Y-67467341D01*
X119075004Y-67596922D01*
X119075005Y-67596924D01*
X119154024Y-67744758D01*
X119202687Y-67905177D01*
X119219117Y-68072000D01*
X119202687Y-68238823D01*
X119154024Y-68399242D01*
X119083114Y-68531906D01*
X119075004Y-68547078D01*
X118968659Y-68676659D01*
X118839078Y-68783004D01*
X118839076Y-68783005D01*
X118691242Y-68862024D01*
X118530823Y-68910687D01*
X118405804Y-68923000D01*
X118322196Y-68923000D01*
X118197177Y-68910687D01*
X118036758Y-68862024D01*
X117888924Y-68783005D01*
X117888922Y-68783004D01*
X117759341Y-68676659D01*
X117652996Y-68547078D01*
X117644886Y-68531906D01*
X117573976Y-68399242D01*
X117525313Y-68238823D01*
X117508883Y-68072000D01*
X117525313Y-67905177D01*
X117573976Y-67744758D01*
X117652995Y-67596924D01*
X117652996Y-67596922D01*
X117759341Y-67467341D01*
X117888922Y-67360996D01*
X117904094Y-67352886D01*
X118036758Y-67281976D01*
X118197177Y-67233313D01*
X118322196Y-67221000D01*
X118405804Y-67221000D01*
X118530823Y-67233313D01*
X118530823Y-67233313D01*
G37*
G36*
X121070823Y-67233313D02*
G01*
X121231242Y-67281976D01*
X121363906Y-67352886D01*
X121379078Y-67360996D01*
X121508659Y-67467341D01*
X121615004Y-67596922D01*
X121615005Y-67596924D01*
X121694024Y-67744758D01*
X121742687Y-67905177D01*
X121759117Y-68072000D01*
X121742687Y-68238823D01*
X121694024Y-68399242D01*
X121623114Y-68531906D01*
X121615004Y-68547078D01*
X121508659Y-68676659D01*
X121379078Y-68783004D01*
X121379076Y-68783005D01*
X121231242Y-68862024D01*
X121070823Y-68910687D01*
X120945804Y-68923000D01*
X120862196Y-68923000D01*
X120737177Y-68910687D01*
X120576758Y-68862024D01*
X120428924Y-68783005D01*
X120428922Y-68783004D01*
X120299341Y-68676659D01*
X120192996Y-68547078D01*
X120184886Y-68531906D01*
X120113976Y-68399242D01*
X120065313Y-68238823D01*
X120048883Y-68072000D01*
X120065313Y-67905177D01*
X120113976Y-67744758D01*
X120192995Y-67596924D01*
X120192996Y-67596922D01*
X120299341Y-67467341D01*
X120428922Y-67360996D01*
X120444094Y-67352886D01*
X120576758Y-67281976D01*
X120737177Y-67233313D01*
X120862196Y-67221000D01*
X120945804Y-67221000D01*
X121070823Y-67233313D01*
X121070823Y-67233313D01*
G37*
G36*
X123610823Y-67233313D02*
G01*
X123771242Y-67281976D01*
X123903906Y-67352886D01*
X123919078Y-67360996D01*
X124048659Y-67467341D01*
X124155004Y-67596922D01*
X124155005Y-67596924D01*
X124234024Y-67744758D01*
X124282687Y-67905177D01*
X124299117Y-68072000D01*
X124282687Y-68238823D01*
X124234024Y-68399242D01*
X124163114Y-68531906D01*
X124155004Y-68547078D01*
X124048659Y-68676659D01*
X123919078Y-68783004D01*
X123919076Y-68783005D01*
X123771242Y-68862024D01*
X123610823Y-68910687D01*
X123485804Y-68923000D01*
X123402196Y-68923000D01*
X123277177Y-68910687D01*
X123116758Y-68862024D01*
X122968924Y-68783005D01*
X122968922Y-68783004D01*
X122839341Y-68676659D01*
X122732996Y-68547078D01*
X122724886Y-68531906D01*
X122653976Y-68399242D01*
X122605313Y-68238823D01*
X122588883Y-68072000D01*
X122605313Y-67905177D01*
X122653976Y-67744758D01*
X122732995Y-67596924D01*
X122732996Y-67596922D01*
X122839341Y-67467341D01*
X122968922Y-67360996D01*
X122984094Y-67352886D01*
X123116758Y-67281976D01*
X123277177Y-67233313D01*
X123402196Y-67221000D01*
X123485804Y-67221000D01*
X123610823Y-67233313D01*
X123610823Y-67233313D01*
G37*
G36*
X126835000Y-68923000D02*
G01*
X125133000Y-68923000D01*
X125133000Y-67221000D01*
X126835000Y-67221000D01*
X126835000Y-68923000D01*
X126835000Y-68923000D01*
G37*
G36*
X134730443Y-66923519D02*
G01*
X134796627Y-66930037D01*
X134966466Y-66981557D01*
X135122991Y-67065222D01*
X135158729Y-67094552D01*
X135260186Y-67177814D01*
X135343448Y-67279271D01*
X135372778Y-67315009D01*
X135456443Y-67471534D01*
X135507963Y-67641373D01*
X135525359Y-67818000D01*
X135507963Y-67994627D01*
X135456443Y-68164466D01*
X135372778Y-68320991D01*
X135343448Y-68356729D01*
X135260186Y-68458186D01*
X135158729Y-68541448D01*
X135122991Y-68570778D01*
X134966466Y-68654443D01*
X134796627Y-68705963D01*
X134730443Y-68712481D01*
X134664260Y-68719000D01*
X134575740Y-68719000D01*
X134509557Y-68712481D01*
X134443373Y-68705963D01*
X134273534Y-68654443D01*
X134117009Y-68570778D01*
X134081271Y-68541448D01*
X133979814Y-68458186D01*
X133896552Y-68356729D01*
X133867222Y-68320991D01*
X133783557Y-68164466D01*
X133732037Y-67994627D01*
X133714641Y-67818000D01*
X133732037Y-67641373D01*
X133783557Y-67471534D01*
X133867222Y-67315009D01*
X133896552Y-67279271D01*
X133979814Y-67177814D01*
X134081271Y-67094552D01*
X134117009Y-67065222D01*
X134273534Y-66981557D01*
X134443373Y-66930037D01*
X134509557Y-66923519D01*
X134575740Y-66917000D01*
X134664260Y-66917000D01*
X134730443Y-66923519D01*
X134730443Y-66923519D01*
G37*
G36*
X132190443Y-66923519D02*
G01*
X132256627Y-66930037D01*
X132426466Y-66981557D01*
X132582991Y-67065222D01*
X132618729Y-67094552D01*
X132720186Y-67177814D01*
X132803448Y-67279271D01*
X132832778Y-67315009D01*
X132916443Y-67471534D01*
X132967963Y-67641373D01*
X132985359Y-67818000D01*
X132967963Y-67994627D01*
X132916443Y-68164466D01*
X132832778Y-68320991D01*
X132803448Y-68356729D01*
X132720186Y-68458186D01*
X132618729Y-68541448D01*
X132582991Y-68570778D01*
X132426466Y-68654443D01*
X132256627Y-68705963D01*
X132190443Y-68712481D01*
X132124260Y-68719000D01*
X132035740Y-68719000D01*
X131969557Y-68712481D01*
X131903373Y-68705963D01*
X131733534Y-68654443D01*
X131577009Y-68570778D01*
X131541271Y-68541448D01*
X131439814Y-68458186D01*
X131356552Y-68356729D01*
X131327222Y-68320991D01*
X131243557Y-68164466D01*
X131192037Y-67994627D01*
X131174641Y-67818000D01*
X131192037Y-67641373D01*
X131243557Y-67471534D01*
X131327222Y-67315009D01*
X131356552Y-67279271D01*
X131439814Y-67177814D01*
X131541271Y-67094552D01*
X131577009Y-67065222D01*
X131733534Y-66981557D01*
X131903373Y-66930037D01*
X131969557Y-66923519D01*
X132035740Y-66917000D01*
X132124260Y-66917000D01*
X132190443Y-66923519D01*
X132190443Y-66923519D01*
G37*
M02*
