G04 #@! TF.GenerationSoftware,KiCad,Pcbnew,(5.1.0)-1*
G04 #@! TF.CreationDate,2021-08-07T23:52:25-05:00*
G04 #@! TF.ProjectId,nixie_legacy-demux,6e697869-655f-46c6-9567-6163792d6465,rev?*
G04 #@! TF.SameCoordinates,Original*
G04 #@! TF.FileFunction,Other,Fab,Top*
%FSLAX46Y46*%
G04 Gerber Fmt 4.6, Leading zero omitted, Abs format (unit mm)*
G04 Created by KiCad (PCBNEW (5.1.0)-1) date 2021-08-07 23:52:25*
%MOMM*%
%LPD*%
G04 APERTURE LIST*
%ADD10C,0.050000*%
%ADD11C,0.100000*%
%ADD12C,0.150000*%
%ADD13C,0.090000*%
G04 APERTURE END LIST*
D10*
X112648000Y-61214000D02*
G75*
G03X112648000Y-61214000I-1650000J0D01*
G01*
X135000000Y-61214000D02*
G75*
G03X135000000Y-61214000I-1650000J0D01*
G01*
X135254000Y-151384000D02*
G75*
G03X135254000Y-151384000I-1650000J0D01*
G01*
D11*
X129174000Y-61798000D02*
X132924000Y-61798000D01*
X132965103Y-61790547D02*
G75*
G03X131064000Y-57718000I-1901103J1592547D01*
G01*
X129171182Y-61800385D02*
G75*
G02X131064000Y-57718000I1892818J1602385D01*
G01*
X121046000Y-61798000D02*
X124796000Y-61798000D01*
X124837103Y-61790547D02*
G75*
G03X122936000Y-57718000I-1901103J1592547D01*
G01*
X121043182Y-61800385D02*
G75*
G02X122936000Y-57718000I1892818J1602385D01*
G01*
X112918000Y-61798000D02*
X116668000Y-61798000D01*
X116709103Y-61790547D02*
G75*
G03X114808000Y-57718000I-1901103J1592547D01*
G01*
X112915182Y-61800385D02*
G75*
G02X114808000Y-57718000I1892818J1602385D01*
G01*
X135494000Y-63170000D02*
X131744000Y-63170000D01*
X131702897Y-63177453D02*
G75*
G03X133604000Y-67250000I1901103J-1592547D01*
G01*
X135496818Y-63167615D02*
G75*
G02X133604000Y-67250000I-1892818J-1602385D01*
G01*
X127368818Y-63167615D02*
G75*
G02X125476000Y-67250000I-1892818J-1602385D01*
G01*
X123574897Y-63177453D02*
G75*
G03X125476000Y-67250000I1901103J-1592547D01*
G01*
X127366000Y-63170000D02*
X123616000Y-63170000D01*
X119238000Y-63170000D02*
X115488000Y-63170000D01*
X115446897Y-63177453D02*
G75*
G03X117348000Y-67250000I1901103J-1592547D01*
G01*
X119240818Y-63167615D02*
G75*
G02X117348000Y-67250000I-1892818J-1602385D01*
G01*
X114160818Y-80693615D02*
G75*
G02X112268000Y-84776000I-1892818J-1602385D01*
G01*
X110366897Y-80703453D02*
G75*
G03X112268000Y-84776000I1901103J-1592547D01*
G01*
X114158000Y-80696000D02*
X110408000Y-80696000D01*
X121526818Y-80693615D02*
G75*
G02X119634000Y-84776000I-1892818J-1602385D01*
G01*
X117732897Y-80703453D02*
G75*
G03X119634000Y-84776000I1901103J-1592547D01*
G01*
X121524000Y-80696000D02*
X117774000Y-80696000D01*
X128892818Y-80693615D02*
G75*
G02X127000000Y-84776000I-1892818J-1602385D01*
G01*
X125098897Y-80703453D02*
G75*
G03X127000000Y-84776000I1901103J-1592547D01*
G01*
X128890000Y-80696000D02*
X125140000Y-80696000D01*
X120126000Y-146810000D02*
X120126000Y-137010000D01*
X124526000Y-146810000D02*
X120126000Y-146810000D01*
X124526000Y-136410000D02*
X124526000Y-146810000D01*
X120726000Y-136410000D02*
X124526000Y-136410000D01*
X120126000Y-137010000D02*
X120726000Y-136410000D01*
X127508000Y-119440000D02*
X137668000Y-119440000D01*
X127508000Y-99000000D02*
X127508000Y-119440000D01*
X137668000Y-99000000D02*
X127508000Y-99000000D01*
X137668000Y-119440000D02*
X137668000Y-99000000D01*
X135763000Y-118380000D02*
X134763000Y-119380000D01*
X135763000Y-99060000D02*
X135763000Y-118380000D01*
X129413000Y-99060000D02*
X135763000Y-99060000D01*
X129413000Y-119380000D02*
X129413000Y-99060000D01*
X134763000Y-119380000D02*
X129413000Y-119380000D01*
X137668000Y-91694000D02*
X133588000Y-91694000D01*
X133588000Y-91694000D02*
X132588000Y-90694000D01*
X132588000Y-90694000D02*
X132588000Y-71374000D01*
X132588000Y-71374000D02*
X137668000Y-71374000D01*
X137668000Y-71374000D02*
X137668000Y-91694000D01*
X127254000Y-70592000D02*
X127254000Y-68092000D01*
X111994000Y-70592000D02*
X129814000Y-70592000D01*
X111994000Y-68092000D02*
X111994000Y-70592000D01*
X129814000Y-68092000D02*
X111994000Y-68092000D01*
X129814000Y-70592000D02*
X129814000Y-68092000D01*
X115672000Y-73894000D02*
X115672000Y-71394000D01*
X115672000Y-71394000D02*
X109372000Y-71394000D01*
X109372000Y-71394000D02*
X109372000Y-73894000D01*
X109372000Y-73894000D02*
X115672000Y-73894000D01*
X116332000Y-72644000D02*
X115672000Y-72644000D01*
X108712000Y-72644000D02*
X109372000Y-72644000D01*
X121551182Y-88216385D02*
G75*
G02X123444000Y-84134000I1892818J1602385D01*
G01*
X125345103Y-88206547D02*
G75*
G03X123444000Y-84134000I-1901103J1592547D01*
G01*
X121554000Y-88214000D02*
X125304000Y-88214000D01*
X114185182Y-88216385D02*
G75*
G02X116078000Y-84134000I1892818J1602385D01*
G01*
X117979103Y-88206547D02*
G75*
G03X116078000Y-84134000I-1901103J1592547D01*
G01*
X114188000Y-88214000D02*
X117938000Y-88214000D01*
X106819182Y-88216385D02*
G75*
G02X108712000Y-84134000I1892818J1602385D01*
G01*
X110613103Y-88206547D02*
G75*
G03X108712000Y-84134000I-1901103J1592547D01*
G01*
X106822000Y-88214000D02*
X110572000Y-88214000D01*
X121564000Y-71394000D02*
X121564000Y-73894000D01*
X121564000Y-73894000D02*
X127864000Y-73894000D01*
X127864000Y-73894000D02*
X127864000Y-71394000D01*
X127864000Y-71394000D02*
X121564000Y-71394000D01*
X120904000Y-72644000D02*
X121564000Y-72644000D01*
X128524000Y-72644000D02*
X127864000Y-72644000D01*
X121564000Y-74442000D02*
X121564000Y-76942000D01*
X121564000Y-76942000D02*
X127864000Y-76942000D01*
X127864000Y-76942000D02*
X127864000Y-74442000D01*
X127864000Y-74442000D02*
X121564000Y-74442000D01*
X120904000Y-75692000D02*
X121564000Y-75692000D01*
X128524000Y-75692000D02*
X127864000Y-75692000D01*
X125698000Y-110702000D02*
G75*
G03X121698000Y-110702000I-2000000J0D01*
G01*
X125698000Y-116702000D02*
G75*
G02X121698000Y-116702000I-2000000J0D01*
G01*
X126023000Y-110577000D02*
G75*
G03X121373000Y-110577000I-2325000J0D01*
G01*
X126023000Y-116827000D02*
G75*
G02X121373000Y-116827000I-2325000J0D01*
G01*
X125698000Y-116702000D02*
X125698000Y-110702000D01*
X121698000Y-116702000D02*
X121698000Y-110702000D01*
X126023000Y-116827000D02*
X126023000Y-110577000D01*
X121373000Y-116827000D02*
X121373000Y-110577000D01*
X137668000Y-121098000D02*
X127508000Y-121098000D01*
X137668000Y-146618000D02*
X137668000Y-121098000D01*
X127508000Y-146618000D02*
X137668000Y-146618000D01*
X127508000Y-121098000D02*
X127508000Y-146618000D01*
X129413000Y-122158000D02*
X130413000Y-121158000D01*
X129413000Y-146558000D02*
X129413000Y-122158000D01*
X135763000Y-146558000D02*
X129413000Y-146558000D01*
X135763000Y-121158000D02*
X135763000Y-146558000D01*
X130413000Y-121158000D02*
X135763000Y-121158000D01*
X117983000Y-134382000D02*
X116983000Y-135382000D01*
X117983000Y-99822000D02*
X117983000Y-134382000D01*
X111633000Y-99822000D02*
X117983000Y-99822000D01*
X111633000Y-135382000D02*
X111633000Y-99822000D01*
X116983000Y-135382000D02*
X111633000Y-135382000D01*
X109220000Y-140462000D02*
X109880000Y-140462000D01*
X116840000Y-140462000D02*
X116180000Y-140462000D01*
X109880000Y-141712000D02*
X116180000Y-141712000D01*
X109880000Y-139212000D02*
X109880000Y-141712000D01*
X116180000Y-139212000D02*
X109880000Y-139212000D01*
X116180000Y-141712000D02*
X116180000Y-139212000D01*
X109220000Y-137414000D02*
X109880000Y-137414000D01*
X116840000Y-137414000D02*
X116180000Y-137414000D01*
X109880000Y-138664000D02*
X116180000Y-138664000D01*
X109880000Y-136164000D02*
X109880000Y-138664000D01*
X116180000Y-136164000D02*
X109880000Y-136164000D01*
X116180000Y-138664000D02*
X116180000Y-136164000D01*
X107188000Y-96774000D02*
X107848000Y-96774000D01*
X114808000Y-96774000D02*
X114148000Y-96774000D01*
X107848000Y-98024000D02*
X114148000Y-98024000D01*
X107848000Y-95524000D02*
X107848000Y-98024000D01*
X114148000Y-95524000D02*
X107848000Y-95524000D01*
X114148000Y-98024000D02*
X114148000Y-95524000D01*
X118618000Y-90678000D02*
X119278000Y-90678000D01*
X126238000Y-90678000D02*
X125578000Y-90678000D01*
X119278000Y-91928000D02*
X125578000Y-91928000D01*
X119278000Y-89428000D02*
X119278000Y-91928000D01*
X125578000Y-89428000D02*
X119278000Y-89428000D01*
X125578000Y-91928000D02*
X125578000Y-89428000D01*
X107188000Y-93726000D02*
X107848000Y-93726000D01*
X114808000Y-93726000D02*
X114148000Y-93726000D01*
X107848000Y-94976000D02*
X114148000Y-94976000D01*
X107848000Y-92476000D02*
X107848000Y-94976000D01*
X114148000Y-92476000D02*
X107848000Y-92476000D01*
X114148000Y-94976000D02*
X114148000Y-92476000D01*
X118618000Y-93726000D02*
X119278000Y-93726000D01*
X126238000Y-93726000D02*
X125578000Y-93726000D01*
X119278000Y-94976000D02*
X125578000Y-94976000D01*
X119278000Y-92476000D02*
X119278000Y-94976000D01*
X125578000Y-92476000D02*
X119278000Y-92476000D01*
X125578000Y-94976000D02*
X125578000Y-92476000D01*
X107188000Y-90678000D02*
X107848000Y-90678000D01*
X114808000Y-90678000D02*
X114148000Y-90678000D01*
X107848000Y-91928000D02*
X114148000Y-91928000D01*
X107848000Y-89428000D02*
X107848000Y-91928000D01*
X114148000Y-89428000D02*
X107848000Y-89428000D01*
X114148000Y-91928000D02*
X114148000Y-89428000D01*
X118618000Y-96774000D02*
X119278000Y-96774000D01*
X126238000Y-96774000D02*
X125578000Y-96774000D01*
X119278000Y-98024000D02*
X125578000Y-98024000D01*
X119278000Y-95524000D02*
X119278000Y-98024000D01*
X125578000Y-95524000D02*
X119278000Y-95524000D01*
X125578000Y-98024000D02*
X125578000Y-95524000D01*
X121564000Y-77490000D02*
X121564000Y-79990000D01*
X121564000Y-79990000D02*
X127864000Y-79990000D01*
X127864000Y-79990000D02*
X127864000Y-77490000D01*
X127864000Y-77490000D02*
X121564000Y-77490000D01*
X120904000Y-78740000D02*
X121564000Y-78740000D01*
X128524000Y-78740000D02*
X127864000Y-78740000D01*
X115672000Y-76942000D02*
X115672000Y-74442000D01*
X115672000Y-74442000D02*
X109372000Y-74442000D01*
X109372000Y-74442000D02*
X109372000Y-76942000D01*
X109372000Y-76942000D02*
X115672000Y-76942000D01*
X116332000Y-75692000D02*
X115672000Y-75692000D01*
X108712000Y-75692000D02*
X109372000Y-75692000D01*
X115672000Y-79990000D02*
X115672000Y-77490000D01*
X115672000Y-77490000D02*
X109372000Y-77490000D01*
X109372000Y-77490000D02*
X109372000Y-79990000D01*
X109372000Y-79990000D02*
X115672000Y-79990000D01*
X116332000Y-78740000D02*
X115672000Y-78740000D01*
X108712000Y-78740000D02*
X109372000Y-78740000D01*
X122428000Y-134112000D02*
X122428000Y-133452000D01*
X122428000Y-126492000D02*
X122428000Y-127152000D01*
X123678000Y-133452000D02*
X123678000Y-127152000D01*
X121178000Y-133452000D02*
X123678000Y-133452000D01*
X121178000Y-127152000D02*
X121178000Y-133452000D01*
X123678000Y-127152000D02*
X121178000Y-127152000D01*
X118745000Y-152654000D02*
X118110000Y-152019000D01*
X128270000Y-152654000D02*
X118745000Y-152654000D01*
X128270000Y-150114000D02*
X128270000Y-152654000D01*
X118110000Y-150114000D02*
X128270000Y-150114000D01*
X118110000Y-152019000D02*
X118110000Y-150114000D01*
X122218000Y-106972000D02*
X125218000Y-106972000D01*
X122218000Y-105372000D02*
X122218000Y-106972000D01*
X125218000Y-105372000D02*
X122218000Y-105372000D01*
X125218000Y-106972000D02*
X125218000Y-105372000D01*
X122218000Y-122212000D02*
X125218000Y-122212000D01*
X122218000Y-120612000D02*
X122218000Y-122212000D01*
X125218000Y-120612000D02*
X122218000Y-120612000D01*
X125218000Y-122212000D02*
X125218000Y-120612000D01*
D12*
X128373523Y-63440380D02*
X128373523Y-62440380D01*
X128706857Y-63154666D01*
X129040190Y-62440380D01*
X129040190Y-63440380D01*
X129516380Y-63440380D02*
X129516380Y-62440380D01*
X129897333Y-62440380D01*
X129992571Y-62488000D01*
X130040190Y-62535619D01*
X130087809Y-62630857D01*
X130087809Y-62773714D01*
X130040190Y-62868952D01*
X129992571Y-62916571D01*
X129897333Y-62964190D01*
X129516380Y-62964190D01*
X130468761Y-63392761D02*
X130611619Y-63440380D01*
X130849714Y-63440380D01*
X130944952Y-63392761D01*
X130992571Y-63345142D01*
X131040190Y-63249904D01*
X131040190Y-63154666D01*
X130992571Y-63059428D01*
X130944952Y-63011809D01*
X130849714Y-62964190D01*
X130659238Y-62916571D01*
X130564000Y-62868952D01*
X130516380Y-62821333D01*
X130468761Y-62726095D01*
X130468761Y-62630857D01*
X130516380Y-62535619D01*
X130564000Y-62488000D01*
X130659238Y-62440380D01*
X130897333Y-62440380D01*
X131040190Y-62488000D01*
X131421142Y-63154666D02*
X131897333Y-63154666D01*
X131325904Y-63440380D02*
X131659238Y-62440380D01*
X131992571Y-63440380D01*
X132373523Y-63440380D02*
X132564000Y-63440380D01*
X132659238Y-63392761D01*
X132706857Y-63345142D01*
X132802095Y-63202285D01*
X132849714Y-63011809D01*
X132849714Y-62630857D01*
X132802095Y-62535619D01*
X132754476Y-62488000D01*
X132659238Y-62440380D01*
X132468761Y-62440380D01*
X132373523Y-62488000D01*
X132325904Y-62535619D01*
X132278285Y-62630857D01*
X132278285Y-62868952D01*
X132325904Y-62964190D01*
X132373523Y-63011809D01*
X132468761Y-63059428D01*
X132659238Y-63059428D01*
X132754476Y-63011809D01*
X132802095Y-62964190D01*
X132849714Y-62868952D01*
X133230666Y-62535619D02*
X133278285Y-62488000D01*
X133373523Y-62440380D01*
X133611619Y-62440380D01*
X133706857Y-62488000D01*
X133754476Y-62535619D01*
X133802095Y-62630857D01*
X133802095Y-62726095D01*
X133754476Y-62868952D01*
X133183047Y-63440380D01*
X133802095Y-63440380D01*
X128373523Y-57090380D02*
X128373523Y-56090380D01*
X128706857Y-56804666D01*
X129040190Y-56090380D01*
X129040190Y-57090380D01*
X129516380Y-57090380D02*
X129516380Y-56090380D01*
X129897333Y-56090380D01*
X129992571Y-56138000D01*
X130040190Y-56185619D01*
X130087809Y-56280857D01*
X130087809Y-56423714D01*
X130040190Y-56518952D01*
X129992571Y-56566571D01*
X129897333Y-56614190D01*
X129516380Y-56614190D01*
X130468761Y-57042761D02*
X130611619Y-57090380D01*
X130849714Y-57090380D01*
X130944952Y-57042761D01*
X130992571Y-56995142D01*
X131040190Y-56899904D01*
X131040190Y-56804666D01*
X130992571Y-56709428D01*
X130944952Y-56661809D01*
X130849714Y-56614190D01*
X130659238Y-56566571D01*
X130564000Y-56518952D01*
X130516380Y-56471333D01*
X130468761Y-56376095D01*
X130468761Y-56280857D01*
X130516380Y-56185619D01*
X130564000Y-56138000D01*
X130659238Y-56090380D01*
X130897333Y-56090380D01*
X131040190Y-56138000D01*
X131421142Y-56804666D02*
X131897333Y-56804666D01*
X131325904Y-57090380D02*
X131659238Y-56090380D01*
X131992571Y-57090380D01*
X132373523Y-57090380D02*
X132564000Y-57090380D01*
X132659238Y-57042761D01*
X132706857Y-56995142D01*
X132802095Y-56852285D01*
X132849714Y-56661809D01*
X132849714Y-56280857D01*
X132802095Y-56185619D01*
X132754476Y-56138000D01*
X132659238Y-56090380D01*
X132468761Y-56090380D01*
X132373523Y-56138000D01*
X132325904Y-56185619D01*
X132278285Y-56280857D01*
X132278285Y-56518952D01*
X132325904Y-56614190D01*
X132373523Y-56661809D01*
X132468761Y-56709428D01*
X132659238Y-56709428D01*
X132754476Y-56661809D01*
X132802095Y-56614190D01*
X132849714Y-56518952D01*
X133230666Y-56185619D02*
X133278285Y-56138000D01*
X133373523Y-56090380D01*
X133611619Y-56090380D01*
X133706857Y-56138000D01*
X133754476Y-56185619D01*
X133802095Y-56280857D01*
X133802095Y-56376095D01*
X133754476Y-56518952D01*
X133183047Y-57090380D01*
X133802095Y-57090380D01*
X120245523Y-63440380D02*
X120245523Y-62440380D01*
X120578857Y-63154666D01*
X120912190Y-62440380D01*
X120912190Y-63440380D01*
X121388380Y-63440380D02*
X121388380Y-62440380D01*
X121769333Y-62440380D01*
X121864571Y-62488000D01*
X121912190Y-62535619D01*
X121959809Y-62630857D01*
X121959809Y-62773714D01*
X121912190Y-62868952D01*
X121864571Y-62916571D01*
X121769333Y-62964190D01*
X121388380Y-62964190D01*
X122340761Y-63392761D02*
X122483619Y-63440380D01*
X122721714Y-63440380D01*
X122816952Y-63392761D01*
X122864571Y-63345142D01*
X122912190Y-63249904D01*
X122912190Y-63154666D01*
X122864571Y-63059428D01*
X122816952Y-63011809D01*
X122721714Y-62964190D01*
X122531238Y-62916571D01*
X122436000Y-62868952D01*
X122388380Y-62821333D01*
X122340761Y-62726095D01*
X122340761Y-62630857D01*
X122388380Y-62535619D01*
X122436000Y-62488000D01*
X122531238Y-62440380D01*
X122769333Y-62440380D01*
X122912190Y-62488000D01*
X123293142Y-63154666D02*
X123769333Y-63154666D01*
X123197904Y-63440380D02*
X123531238Y-62440380D01*
X123864571Y-63440380D01*
X124245523Y-63440380D02*
X124436000Y-63440380D01*
X124531238Y-63392761D01*
X124578857Y-63345142D01*
X124674095Y-63202285D01*
X124721714Y-63011809D01*
X124721714Y-62630857D01*
X124674095Y-62535619D01*
X124626476Y-62488000D01*
X124531238Y-62440380D01*
X124340761Y-62440380D01*
X124245523Y-62488000D01*
X124197904Y-62535619D01*
X124150285Y-62630857D01*
X124150285Y-62868952D01*
X124197904Y-62964190D01*
X124245523Y-63011809D01*
X124340761Y-63059428D01*
X124531238Y-63059428D01*
X124626476Y-63011809D01*
X124674095Y-62964190D01*
X124721714Y-62868952D01*
X125102666Y-62535619D02*
X125150285Y-62488000D01*
X125245523Y-62440380D01*
X125483619Y-62440380D01*
X125578857Y-62488000D01*
X125626476Y-62535619D01*
X125674095Y-62630857D01*
X125674095Y-62726095D01*
X125626476Y-62868952D01*
X125055047Y-63440380D01*
X125674095Y-63440380D01*
X120245523Y-57090380D02*
X120245523Y-56090380D01*
X120578857Y-56804666D01*
X120912190Y-56090380D01*
X120912190Y-57090380D01*
X121388380Y-57090380D02*
X121388380Y-56090380D01*
X121769333Y-56090380D01*
X121864571Y-56138000D01*
X121912190Y-56185619D01*
X121959809Y-56280857D01*
X121959809Y-56423714D01*
X121912190Y-56518952D01*
X121864571Y-56566571D01*
X121769333Y-56614190D01*
X121388380Y-56614190D01*
X122340761Y-57042761D02*
X122483619Y-57090380D01*
X122721714Y-57090380D01*
X122816952Y-57042761D01*
X122864571Y-56995142D01*
X122912190Y-56899904D01*
X122912190Y-56804666D01*
X122864571Y-56709428D01*
X122816952Y-56661809D01*
X122721714Y-56614190D01*
X122531238Y-56566571D01*
X122436000Y-56518952D01*
X122388380Y-56471333D01*
X122340761Y-56376095D01*
X122340761Y-56280857D01*
X122388380Y-56185619D01*
X122436000Y-56138000D01*
X122531238Y-56090380D01*
X122769333Y-56090380D01*
X122912190Y-56138000D01*
X123293142Y-56804666D02*
X123769333Y-56804666D01*
X123197904Y-57090380D02*
X123531238Y-56090380D01*
X123864571Y-57090380D01*
X124245523Y-57090380D02*
X124436000Y-57090380D01*
X124531238Y-57042761D01*
X124578857Y-56995142D01*
X124674095Y-56852285D01*
X124721714Y-56661809D01*
X124721714Y-56280857D01*
X124674095Y-56185619D01*
X124626476Y-56138000D01*
X124531238Y-56090380D01*
X124340761Y-56090380D01*
X124245523Y-56138000D01*
X124197904Y-56185619D01*
X124150285Y-56280857D01*
X124150285Y-56518952D01*
X124197904Y-56614190D01*
X124245523Y-56661809D01*
X124340761Y-56709428D01*
X124531238Y-56709428D01*
X124626476Y-56661809D01*
X124674095Y-56614190D01*
X124721714Y-56518952D01*
X125102666Y-56185619D02*
X125150285Y-56138000D01*
X125245523Y-56090380D01*
X125483619Y-56090380D01*
X125578857Y-56138000D01*
X125626476Y-56185619D01*
X125674095Y-56280857D01*
X125674095Y-56376095D01*
X125626476Y-56518952D01*
X125055047Y-57090380D01*
X125674095Y-57090380D01*
X112117523Y-63440380D02*
X112117523Y-62440380D01*
X112450857Y-63154666D01*
X112784190Y-62440380D01*
X112784190Y-63440380D01*
X113260380Y-63440380D02*
X113260380Y-62440380D01*
X113641333Y-62440380D01*
X113736571Y-62488000D01*
X113784190Y-62535619D01*
X113831809Y-62630857D01*
X113831809Y-62773714D01*
X113784190Y-62868952D01*
X113736571Y-62916571D01*
X113641333Y-62964190D01*
X113260380Y-62964190D01*
X114212761Y-63392761D02*
X114355619Y-63440380D01*
X114593714Y-63440380D01*
X114688952Y-63392761D01*
X114736571Y-63345142D01*
X114784190Y-63249904D01*
X114784190Y-63154666D01*
X114736571Y-63059428D01*
X114688952Y-63011809D01*
X114593714Y-62964190D01*
X114403238Y-62916571D01*
X114308000Y-62868952D01*
X114260380Y-62821333D01*
X114212761Y-62726095D01*
X114212761Y-62630857D01*
X114260380Y-62535619D01*
X114308000Y-62488000D01*
X114403238Y-62440380D01*
X114641333Y-62440380D01*
X114784190Y-62488000D01*
X115165142Y-63154666D02*
X115641333Y-63154666D01*
X115069904Y-63440380D02*
X115403238Y-62440380D01*
X115736571Y-63440380D01*
X116117523Y-63440380D02*
X116308000Y-63440380D01*
X116403238Y-63392761D01*
X116450857Y-63345142D01*
X116546095Y-63202285D01*
X116593714Y-63011809D01*
X116593714Y-62630857D01*
X116546095Y-62535619D01*
X116498476Y-62488000D01*
X116403238Y-62440380D01*
X116212761Y-62440380D01*
X116117523Y-62488000D01*
X116069904Y-62535619D01*
X116022285Y-62630857D01*
X116022285Y-62868952D01*
X116069904Y-62964190D01*
X116117523Y-63011809D01*
X116212761Y-63059428D01*
X116403238Y-63059428D01*
X116498476Y-63011809D01*
X116546095Y-62964190D01*
X116593714Y-62868952D01*
X116974666Y-62535619D02*
X117022285Y-62488000D01*
X117117523Y-62440380D01*
X117355619Y-62440380D01*
X117450857Y-62488000D01*
X117498476Y-62535619D01*
X117546095Y-62630857D01*
X117546095Y-62726095D01*
X117498476Y-62868952D01*
X116927047Y-63440380D01*
X117546095Y-63440380D01*
X112117523Y-57090380D02*
X112117523Y-56090380D01*
X112450857Y-56804666D01*
X112784190Y-56090380D01*
X112784190Y-57090380D01*
X113260380Y-57090380D02*
X113260380Y-56090380D01*
X113641333Y-56090380D01*
X113736571Y-56138000D01*
X113784190Y-56185619D01*
X113831809Y-56280857D01*
X113831809Y-56423714D01*
X113784190Y-56518952D01*
X113736571Y-56566571D01*
X113641333Y-56614190D01*
X113260380Y-56614190D01*
X114212761Y-57042761D02*
X114355619Y-57090380D01*
X114593714Y-57090380D01*
X114688952Y-57042761D01*
X114736571Y-56995142D01*
X114784190Y-56899904D01*
X114784190Y-56804666D01*
X114736571Y-56709428D01*
X114688952Y-56661809D01*
X114593714Y-56614190D01*
X114403238Y-56566571D01*
X114308000Y-56518952D01*
X114260380Y-56471333D01*
X114212761Y-56376095D01*
X114212761Y-56280857D01*
X114260380Y-56185619D01*
X114308000Y-56138000D01*
X114403238Y-56090380D01*
X114641333Y-56090380D01*
X114784190Y-56138000D01*
X115165142Y-56804666D02*
X115641333Y-56804666D01*
X115069904Y-57090380D02*
X115403238Y-56090380D01*
X115736571Y-57090380D01*
X116117523Y-57090380D02*
X116308000Y-57090380D01*
X116403238Y-57042761D01*
X116450857Y-56995142D01*
X116546095Y-56852285D01*
X116593714Y-56661809D01*
X116593714Y-56280857D01*
X116546095Y-56185619D01*
X116498476Y-56138000D01*
X116403238Y-56090380D01*
X116212761Y-56090380D01*
X116117523Y-56138000D01*
X116069904Y-56185619D01*
X116022285Y-56280857D01*
X116022285Y-56518952D01*
X116069904Y-56614190D01*
X116117523Y-56661809D01*
X116212761Y-56709428D01*
X116403238Y-56709428D01*
X116498476Y-56661809D01*
X116546095Y-56614190D01*
X116593714Y-56518952D01*
X116974666Y-56185619D02*
X117022285Y-56138000D01*
X117117523Y-56090380D01*
X117355619Y-56090380D01*
X117450857Y-56138000D01*
X117498476Y-56185619D01*
X117546095Y-56280857D01*
X117546095Y-56376095D01*
X117498476Y-56518952D01*
X116927047Y-57090380D01*
X117546095Y-57090380D01*
X130913523Y-62432380D02*
X130913523Y-61432380D01*
X131246857Y-62146666D01*
X131580190Y-61432380D01*
X131580190Y-62432380D01*
X132056380Y-62432380D02*
X132056380Y-61432380D01*
X132437333Y-61432380D01*
X132532571Y-61480000D01*
X132580190Y-61527619D01*
X132627809Y-61622857D01*
X132627809Y-61765714D01*
X132580190Y-61860952D01*
X132532571Y-61908571D01*
X132437333Y-61956190D01*
X132056380Y-61956190D01*
X133008761Y-62384761D02*
X133151619Y-62432380D01*
X133389714Y-62432380D01*
X133484952Y-62384761D01*
X133532571Y-62337142D01*
X133580190Y-62241904D01*
X133580190Y-62146666D01*
X133532571Y-62051428D01*
X133484952Y-62003809D01*
X133389714Y-61956190D01*
X133199238Y-61908571D01*
X133104000Y-61860952D01*
X133056380Y-61813333D01*
X133008761Y-61718095D01*
X133008761Y-61622857D01*
X133056380Y-61527619D01*
X133104000Y-61480000D01*
X133199238Y-61432380D01*
X133437333Y-61432380D01*
X133580190Y-61480000D01*
X133961142Y-62146666D02*
X134437333Y-62146666D01*
X133865904Y-62432380D02*
X134199238Y-61432380D01*
X134532571Y-62432380D01*
X134913523Y-62432380D02*
X135104000Y-62432380D01*
X135199238Y-62384761D01*
X135246857Y-62337142D01*
X135342095Y-62194285D01*
X135389714Y-62003809D01*
X135389714Y-61622857D01*
X135342095Y-61527619D01*
X135294476Y-61480000D01*
X135199238Y-61432380D01*
X135008761Y-61432380D01*
X134913523Y-61480000D01*
X134865904Y-61527619D01*
X134818285Y-61622857D01*
X134818285Y-61860952D01*
X134865904Y-61956190D01*
X134913523Y-62003809D01*
X135008761Y-62051428D01*
X135199238Y-62051428D01*
X135294476Y-62003809D01*
X135342095Y-61956190D01*
X135389714Y-61860952D01*
X135770666Y-61527619D02*
X135818285Y-61480000D01*
X135913523Y-61432380D01*
X136151619Y-61432380D01*
X136246857Y-61480000D01*
X136294476Y-61527619D01*
X136342095Y-61622857D01*
X136342095Y-61718095D01*
X136294476Y-61860952D01*
X135723047Y-62432380D01*
X136342095Y-62432380D01*
X130913523Y-68782380D02*
X130913523Y-67782380D01*
X131246857Y-68496666D01*
X131580190Y-67782380D01*
X131580190Y-68782380D01*
X132056380Y-68782380D02*
X132056380Y-67782380D01*
X132437333Y-67782380D01*
X132532571Y-67830000D01*
X132580190Y-67877619D01*
X132627809Y-67972857D01*
X132627809Y-68115714D01*
X132580190Y-68210952D01*
X132532571Y-68258571D01*
X132437333Y-68306190D01*
X132056380Y-68306190D01*
X133008761Y-68734761D02*
X133151619Y-68782380D01*
X133389714Y-68782380D01*
X133484952Y-68734761D01*
X133532571Y-68687142D01*
X133580190Y-68591904D01*
X133580190Y-68496666D01*
X133532571Y-68401428D01*
X133484952Y-68353809D01*
X133389714Y-68306190D01*
X133199238Y-68258571D01*
X133104000Y-68210952D01*
X133056380Y-68163333D01*
X133008761Y-68068095D01*
X133008761Y-67972857D01*
X133056380Y-67877619D01*
X133104000Y-67830000D01*
X133199238Y-67782380D01*
X133437333Y-67782380D01*
X133580190Y-67830000D01*
X133961142Y-68496666D02*
X134437333Y-68496666D01*
X133865904Y-68782380D02*
X134199238Y-67782380D01*
X134532571Y-68782380D01*
X134913523Y-68782380D02*
X135104000Y-68782380D01*
X135199238Y-68734761D01*
X135246857Y-68687142D01*
X135342095Y-68544285D01*
X135389714Y-68353809D01*
X135389714Y-67972857D01*
X135342095Y-67877619D01*
X135294476Y-67830000D01*
X135199238Y-67782380D01*
X135008761Y-67782380D01*
X134913523Y-67830000D01*
X134865904Y-67877619D01*
X134818285Y-67972857D01*
X134818285Y-68210952D01*
X134865904Y-68306190D01*
X134913523Y-68353809D01*
X135008761Y-68401428D01*
X135199238Y-68401428D01*
X135294476Y-68353809D01*
X135342095Y-68306190D01*
X135389714Y-68210952D01*
X135770666Y-67877619D02*
X135818285Y-67830000D01*
X135913523Y-67782380D01*
X136151619Y-67782380D01*
X136246857Y-67830000D01*
X136294476Y-67877619D01*
X136342095Y-67972857D01*
X136342095Y-68068095D01*
X136294476Y-68210952D01*
X135723047Y-68782380D01*
X136342095Y-68782380D01*
X122785523Y-62432380D02*
X122785523Y-61432380D01*
X123118857Y-62146666D01*
X123452190Y-61432380D01*
X123452190Y-62432380D01*
X123928380Y-62432380D02*
X123928380Y-61432380D01*
X124309333Y-61432380D01*
X124404571Y-61480000D01*
X124452190Y-61527619D01*
X124499809Y-61622857D01*
X124499809Y-61765714D01*
X124452190Y-61860952D01*
X124404571Y-61908571D01*
X124309333Y-61956190D01*
X123928380Y-61956190D01*
X124880761Y-62384761D02*
X125023619Y-62432380D01*
X125261714Y-62432380D01*
X125356952Y-62384761D01*
X125404571Y-62337142D01*
X125452190Y-62241904D01*
X125452190Y-62146666D01*
X125404571Y-62051428D01*
X125356952Y-62003809D01*
X125261714Y-61956190D01*
X125071238Y-61908571D01*
X124976000Y-61860952D01*
X124928380Y-61813333D01*
X124880761Y-61718095D01*
X124880761Y-61622857D01*
X124928380Y-61527619D01*
X124976000Y-61480000D01*
X125071238Y-61432380D01*
X125309333Y-61432380D01*
X125452190Y-61480000D01*
X125833142Y-62146666D02*
X126309333Y-62146666D01*
X125737904Y-62432380D02*
X126071238Y-61432380D01*
X126404571Y-62432380D01*
X126785523Y-62432380D02*
X126976000Y-62432380D01*
X127071238Y-62384761D01*
X127118857Y-62337142D01*
X127214095Y-62194285D01*
X127261714Y-62003809D01*
X127261714Y-61622857D01*
X127214095Y-61527619D01*
X127166476Y-61480000D01*
X127071238Y-61432380D01*
X126880761Y-61432380D01*
X126785523Y-61480000D01*
X126737904Y-61527619D01*
X126690285Y-61622857D01*
X126690285Y-61860952D01*
X126737904Y-61956190D01*
X126785523Y-62003809D01*
X126880761Y-62051428D01*
X127071238Y-62051428D01*
X127166476Y-62003809D01*
X127214095Y-61956190D01*
X127261714Y-61860952D01*
X127642666Y-61527619D02*
X127690285Y-61480000D01*
X127785523Y-61432380D01*
X128023619Y-61432380D01*
X128118857Y-61480000D01*
X128166476Y-61527619D01*
X128214095Y-61622857D01*
X128214095Y-61718095D01*
X128166476Y-61860952D01*
X127595047Y-62432380D01*
X128214095Y-62432380D01*
X122785523Y-68782380D02*
X122785523Y-67782380D01*
X123118857Y-68496666D01*
X123452190Y-67782380D01*
X123452190Y-68782380D01*
X123928380Y-68782380D02*
X123928380Y-67782380D01*
X124309333Y-67782380D01*
X124404571Y-67830000D01*
X124452190Y-67877619D01*
X124499809Y-67972857D01*
X124499809Y-68115714D01*
X124452190Y-68210952D01*
X124404571Y-68258571D01*
X124309333Y-68306190D01*
X123928380Y-68306190D01*
X124880761Y-68734761D02*
X125023619Y-68782380D01*
X125261714Y-68782380D01*
X125356952Y-68734761D01*
X125404571Y-68687142D01*
X125452190Y-68591904D01*
X125452190Y-68496666D01*
X125404571Y-68401428D01*
X125356952Y-68353809D01*
X125261714Y-68306190D01*
X125071238Y-68258571D01*
X124976000Y-68210952D01*
X124928380Y-68163333D01*
X124880761Y-68068095D01*
X124880761Y-67972857D01*
X124928380Y-67877619D01*
X124976000Y-67830000D01*
X125071238Y-67782380D01*
X125309333Y-67782380D01*
X125452190Y-67830000D01*
X125833142Y-68496666D02*
X126309333Y-68496666D01*
X125737904Y-68782380D02*
X126071238Y-67782380D01*
X126404571Y-68782380D01*
X126785523Y-68782380D02*
X126976000Y-68782380D01*
X127071238Y-68734761D01*
X127118857Y-68687142D01*
X127214095Y-68544285D01*
X127261714Y-68353809D01*
X127261714Y-67972857D01*
X127214095Y-67877619D01*
X127166476Y-67830000D01*
X127071238Y-67782380D01*
X126880761Y-67782380D01*
X126785523Y-67830000D01*
X126737904Y-67877619D01*
X126690285Y-67972857D01*
X126690285Y-68210952D01*
X126737904Y-68306190D01*
X126785523Y-68353809D01*
X126880761Y-68401428D01*
X127071238Y-68401428D01*
X127166476Y-68353809D01*
X127214095Y-68306190D01*
X127261714Y-68210952D01*
X127642666Y-67877619D02*
X127690285Y-67830000D01*
X127785523Y-67782380D01*
X128023619Y-67782380D01*
X128118857Y-67830000D01*
X128166476Y-67877619D01*
X128214095Y-67972857D01*
X128214095Y-68068095D01*
X128166476Y-68210952D01*
X127595047Y-68782380D01*
X128214095Y-68782380D01*
X114657523Y-62432380D02*
X114657523Y-61432380D01*
X114990857Y-62146666D01*
X115324190Y-61432380D01*
X115324190Y-62432380D01*
X115800380Y-62432380D02*
X115800380Y-61432380D01*
X116181333Y-61432380D01*
X116276571Y-61480000D01*
X116324190Y-61527619D01*
X116371809Y-61622857D01*
X116371809Y-61765714D01*
X116324190Y-61860952D01*
X116276571Y-61908571D01*
X116181333Y-61956190D01*
X115800380Y-61956190D01*
X116752761Y-62384761D02*
X116895619Y-62432380D01*
X117133714Y-62432380D01*
X117228952Y-62384761D01*
X117276571Y-62337142D01*
X117324190Y-62241904D01*
X117324190Y-62146666D01*
X117276571Y-62051428D01*
X117228952Y-62003809D01*
X117133714Y-61956190D01*
X116943238Y-61908571D01*
X116848000Y-61860952D01*
X116800380Y-61813333D01*
X116752761Y-61718095D01*
X116752761Y-61622857D01*
X116800380Y-61527619D01*
X116848000Y-61480000D01*
X116943238Y-61432380D01*
X117181333Y-61432380D01*
X117324190Y-61480000D01*
X117705142Y-62146666D02*
X118181333Y-62146666D01*
X117609904Y-62432380D02*
X117943238Y-61432380D01*
X118276571Y-62432380D01*
X118657523Y-62432380D02*
X118848000Y-62432380D01*
X118943238Y-62384761D01*
X118990857Y-62337142D01*
X119086095Y-62194285D01*
X119133714Y-62003809D01*
X119133714Y-61622857D01*
X119086095Y-61527619D01*
X119038476Y-61480000D01*
X118943238Y-61432380D01*
X118752761Y-61432380D01*
X118657523Y-61480000D01*
X118609904Y-61527619D01*
X118562285Y-61622857D01*
X118562285Y-61860952D01*
X118609904Y-61956190D01*
X118657523Y-62003809D01*
X118752761Y-62051428D01*
X118943238Y-62051428D01*
X119038476Y-62003809D01*
X119086095Y-61956190D01*
X119133714Y-61860952D01*
X119514666Y-61527619D02*
X119562285Y-61480000D01*
X119657523Y-61432380D01*
X119895619Y-61432380D01*
X119990857Y-61480000D01*
X120038476Y-61527619D01*
X120086095Y-61622857D01*
X120086095Y-61718095D01*
X120038476Y-61860952D01*
X119467047Y-62432380D01*
X120086095Y-62432380D01*
X114657523Y-68782380D02*
X114657523Y-67782380D01*
X114990857Y-68496666D01*
X115324190Y-67782380D01*
X115324190Y-68782380D01*
X115800380Y-68782380D02*
X115800380Y-67782380D01*
X116181333Y-67782380D01*
X116276571Y-67830000D01*
X116324190Y-67877619D01*
X116371809Y-67972857D01*
X116371809Y-68115714D01*
X116324190Y-68210952D01*
X116276571Y-68258571D01*
X116181333Y-68306190D01*
X115800380Y-68306190D01*
X116752761Y-68734761D02*
X116895619Y-68782380D01*
X117133714Y-68782380D01*
X117228952Y-68734761D01*
X117276571Y-68687142D01*
X117324190Y-68591904D01*
X117324190Y-68496666D01*
X117276571Y-68401428D01*
X117228952Y-68353809D01*
X117133714Y-68306190D01*
X116943238Y-68258571D01*
X116848000Y-68210952D01*
X116800380Y-68163333D01*
X116752761Y-68068095D01*
X116752761Y-67972857D01*
X116800380Y-67877619D01*
X116848000Y-67830000D01*
X116943238Y-67782380D01*
X117181333Y-67782380D01*
X117324190Y-67830000D01*
X117705142Y-68496666D02*
X118181333Y-68496666D01*
X117609904Y-68782380D02*
X117943238Y-67782380D01*
X118276571Y-68782380D01*
X118657523Y-68782380D02*
X118848000Y-68782380D01*
X118943238Y-68734761D01*
X118990857Y-68687142D01*
X119086095Y-68544285D01*
X119133714Y-68353809D01*
X119133714Y-67972857D01*
X119086095Y-67877619D01*
X119038476Y-67830000D01*
X118943238Y-67782380D01*
X118752761Y-67782380D01*
X118657523Y-67830000D01*
X118609904Y-67877619D01*
X118562285Y-67972857D01*
X118562285Y-68210952D01*
X118609904Y-68306190D01*
X118657523Y-68353809D01*
X118752761Y-68401428D01*
X118943238Y-68401428D01*
X119038476Y-68353809D01*
X119086095Y-68306190D01*
X119133714Y-68210952D01*
X119514666Y-67877619D02*
X119562285Y-67830000D01*
X119657523Y-67782380D01*
X119895619Y-67782380D01*
X119990857Y-67830000D01*
X120038476Y-67877619D01*
X120086095Y-67972857D01*
X120086095Y-68068095D01*
X120038476Y-68210952D01*
X119467047Y-68782380D01*
X120086095Y-68782380D01*
X109577523Y-79958380D02*
X109577523Y-78958380D01*
X109910857Y-79672666D01*
X110244190Y-78958380D01*
X110244190Y-79958380D01*
X110720380Y-79958380D02*
X110720380Y-78958380D01*
X111101333Y-78958380D01*
X111196571Y-79006000D01*
X111244190Y-79053619D01*
X111291809Y-79148857D01*
X111291809Y-79291714D01*
X111244190Y-79386952D01*
X111196571Y-79434571D01*
X111101333Y-79482190D01*
X110720380Y-79482190D01*
X111672761Y-79910761D02*
X111815619Y-79958380D01*
X112053714Y-79958380D01*
X112148952Y-79910761D01*
X112196571Y-79863142D01*
X112244190Y-79767904D01*
X112244190Y-79672666D01*
X112196571Y-79577428D01*
X112148952Y-79529809D01*
X112053714Y-79482190D01*
X111863238Y-79434571D01*
X111768000Y-79386952D01*
X111720380Y-79339333D01*
X111672761Y-79244095D01*
X111672761Y-79148857D01*
X111720380Y-79053619D01*
X111768000Y-79006000D01*
X111863238Y-78958380D01*
X112101333Y-78958380D01*
X112244190Y-79006000D01*
X112625142Y-79672666D02*
X113101333Y-79672666D01*
X112529904Y-79958380D02*
X112863238Y-78958380D01*
X113196571Y-79958380D01*
X113958476Y-79291714D02*
X113958476Y-79958380D01*
X113720380Y-78910761D02*
X113482285Y-79625047D01*
X114101333Y-79625047D01*
X114434666Y-79053619D02*
X114482285Y-79006000D01*
X114577523Y-78958380D01*
X114815619Y-78958380D01*
X114910857Y-79006000D01*
X114958476Y-79053619D01*
X115006095Y-79148857D01*
X115006095Y-79244095D01*
X114958476Y-79386952D01*
X114387047Y-79958380D01*
X115006095Y-79958380D01*
X109577523Y-86308380D02*
X109577523Y-85308380D01*
X109910857Y-86022666D01*
X110244190Y-85308380D01*
X110244190Y-86308380D01*
X110720380Y-86308380D02*
X110720380Y-85308380D01*
X111101333Y-85308380D01*
X111196571Y-85356000D01*
X111244190Y-85403619D01*
X111291809Y-85498857D01*
X111291809Y-85641714D01*
X111244190Y-85736952D01*
X111196571Y-85784571D01*
X111101333Y-85832190D01*
X110720380Y-85832190D01*
X111672761Y-86260761D02*
X111815619Y-86308380D01*
X112053714Y-86308380D01*
X112148952Y-86260761D01*
X112196571Y-86213142D01*
X112244190Y-86117904D01*
X112244190Y-86022666D01*
X112196571Y-85927428D01*
X112148952Y-85879809D01*
X112053714Y-85832190D01*
X111863238Y-85784571D01*
X111768000Y-85736952D01*
X111720380Y-85689333D01*
X111672761Y-85594095D01*
X111672761Y-85498857D01*
X111720380Y-85403619D01*
X111768000Y-85356000D01*
X111863238Y-85308380D01*
X112101333Y-85308380D01*
X112244190Y-85356000D01*
X112625142Y-86022666D02*
X113101333Y-86022666D01*
X112529904Y-86308380D02*
X112863238Y-85308380D01*
X113196571Y-86308380D01*
X113958476Y-85641714D02*
X113958476Y-86308380D01*
X113720380Y-85260761D02*
X113482285Y-85975047D01*
X114101333Y-85975047D01*
X114434666Y-85403619D02*
X114482285Y-85356000D01*
X114577523Y-85308380D01*
X114815619Y-85308380D01*
X114910857Y-85356000D01*
X114958476Y-85403619D01*
X115006095Y-85498857D01*
X115006095Y-85594095D01*
X114958476Y-85736952D01*
X114387047Y-86308380D01*
X115006095Y-86308380D01*
X116943523Y-79958380D02*
X116943523Y-78958380D01*
X117276857Y-79672666D01*
X117610190Y-78958380D01*
X117610190Y-79958380D01*
X118086380Y-79958380D02*
X118086380Y-78958380D01*
X118467333Y-78958380D01*
X118562571Y-79006000D01*
X118610190Y-79053619D01*
X118657809Y-79148857D01*
X118657809Y-79291714D01*
X118610190Y-79386952D01*
X118562571Y-79434571D01*
X118467333Y-79482190D01*
X118086380Y-79482190D01*
X119038761Y-79910761D02*
X119181619Y-79958380D01*
X119419714Y-79958380D01*
X119514952Y-79910761D01*
X119562571Y-79863142D01*
X119610190Y-79767904D01*
X119610190Y-79672666D01*
X119562571Y-79577428D01*
X119514952Y-79529809D01*
X119419714Y-79482190D01*
X119229238Y-79434571D01*
X119134000Y-79386952D01*
X119086380Y-79339333D01*
X119038761Y-79244095D01*
X119038761Y-79148857D01*
X119086380Y-79053619D01*
X119134000Y-79006000D01*
X119229238Y-78958380D01*
X119467333Y-78958380D01*
X119610190Y-79006000D01*
X119991142Y-79672666D02*
X120467333Y-79672666D01*
X119895904Y-79958380D02*
X120229238Y-78958380D01*
X120562571Y-79958380D01*
X121324476Y-79291714D02*
X121324476Y-79958380D01*
X121086380Y-78910761D02*
X120848285Y-79625047D01*
X121467333Y-79625047D01*
X121800666Y-79053619D02*
X121848285Y-79006000D01*
X121943523Y-78958380D01*
X122181619Y-78958380D01*
X122276857Y-79006000D01*
X122324476Y-79053619D01*
X122372095Y-79148857D01*
X122372095Y-79244095D01*
X122324476Y-79386952D01*
X121753047Y-79958380D01*
X122372095Y-79958380D01*
X116943523Y-86308380D02*
X116943523Y-85308380D01*
X117276857Y-86022666D01*
X117610190Y-85308380D01*
X117610190Y-86308380D01*
X118086380Y-86308380D02*
X118086380Y-85308380D01*
X118467333Y-85308380D01*
X118562571Y-85356000D01*
X118610190Y-85403619D01*
X118657809Y-85498857D01*
X118657809Y-85641714D01*
X118610190Y-85736952D01*
X118562571Y-85784571D01*
X118467333Y-85832190D01*
X118086380Y-85832190D01*
X119038761Y-86260761D02*
X119181619Y-86308380D01*
X119419714Y-86308380D01*
X119514952Y-86260761D01*
X119562571Y-86213142D01*
X119610190Y-86117904D01*
X119610190Y-86022666D01*
X119562571Y-85927428D01*
X119514952Y-85879809D01*
X119419714Y-85832190D01*
X119229238Y-85784571D01*
X119134000Y-85736952D01*
X119086380Y-85689333D01*
X119038761Y-85594095D01*
X119038761Y-85498857D01*
X119086380Y-85403619D01*
X119134000Y-85356000D01*
X119229238Y-85308380D01*
X119467333Y-85308380D01*
X119610190Y-85356000D01*
X119991142Y-86022666D02*
X120467333Y-86022666D01*
X119895904Y-86308380D02*
X120229238Y-85308380D01*
X120562571Y-86308380D01*
X121324476Y-85641714D02*
X121324476Y-86308380D01*
X121086380Y-85260761D02*
X120848285Y-85975047D01*
X121467333Y-85975047D01*
X121800666Y-85403619D02*
X121848285Y-85356000D01*
X121943523Y-85308380D01*
X122181619Y-85308380D01*
X122276857Y-85356000D01*
X122324476Y-85403619D01*
X122372095Y-85498857D01*
X122372095Y-85594095D01*
X122324476Y-85736952D01*
X121753047Y-86308380D01*
X122372095Y-86308380D01*
X124309523Y-81224380D02*
X124309523Y-80224380D01*
X124642857Y-80938666D01*
X124976190Y-80224380D01*
X124976190Y-81224380D01*
X125452380Y-81224380D02*
X125452380Y-80224380D01*
X125833333Y-80224380D01*
X125928571Y-80272000D01*
X125976190Y-80319619D01*
X126023809Y-80414857D01*
X126023809Y-80557714D01*
X125976190Y-80652952D01*
X125928571Y-80700571D01*
X125833333Y-80748190D01*
X125452380Y-80748190D01*
X126404761Y-81176761D02*
X126547619Y-81224380D01*
X126785714Y-81224380D01*
X126880952Y-81176761D01*
X126928571Y-81129142D01*
X126976190Y-81033904D01*
X126976190Y-80938666D01*
X126928571Y-80843428D01*
X126880952Y-80795809D01*
X126785714Y-80748190D01*
X126595238Y-80700571D01*
X126500000Y-80652952D01*
X126452380Y-80605333D01*
X126404761Y-80510095D01*
X126404761Y-80414857D01*
X126452380Y-80319619D01*
X126500000Y-80272000D01*
X126595238Y-80224380D01*
X126833333Y-80224380D01*
X126976190Y-80272000D01*
X127357142Y-80938666D02*
X127833333Y-80938666D01*
X127261904Y-81224380D02*
X127595238Y-80224380D01*
X127928571Y-81224380D01*
X128690476Y-80557714D02*
X128690476Y-81224380D01*
X128452380Y-80176761D02*
X128214285Y-80891047D01*
X128833333Y-80891047D01*
X129166666Y-80319619D02*
X129214285Y-80272000D01*
X129309523Y-80224380D01*
X129547619Y-80224380D01*
X129642857Y-80272000D01*
X129690476Y-80319619D01*
X129738095Y-80414857D01*
X129738095Y-80510095D01*
X129690476Y-80652952D01*
X129119047Y-81224380D01*
X129738095Y-81224380D01*
X124309523Y-86308380D02*
X124309523Y-85308380D01*
X124642857Y-86022666D01*
X124976190Y-85308380D01*
X124976190Y-86308380D01*
X125452380Y-86308380D02*
X125452380Y-85308380D01*
X125833333Y-85308380D01*
X125928571Y-85356000D01*
X125976190Y-85403619D01*
X126023809Y-85498857D01*
X126023809Y-85641714D01*
X125976190Y-85736952D01*
X125928571Y-85784571D01*
X125833333Y-85832190D01*
X125452380Y-85832190D01*
X126404761Y-86260761D02*
X126547619Y-86308380D01*
X126785714Y-86308380D01*
X126880952Y-86260761D01*
X126928571Y-86213142D01*
X126976190Y-86117904D01*
X126976190Y-86022666D01*
X126928571Y-85927428D01*
X126880952Y-85879809D01*
X126785714Y-85832190D01*
X126595238Y-85784571D01*
X126500000Y-85736952D01*
X126452380Y-85689333D01*
X126404761Y-85594095D01*
X126404761Y-85498857D01*
X126452380Y-85403619D01*
X126500000Y-85356000D01*
X126595238Y-85308380D01*
X126833333Y-85308380D01*
X126976190Y-85356000D01*
X127357142Y-86022666D02*
X127833333Y-86022666D01*
X127261904Y-86308380D02*
X127595238Y-85308380D01*
X127928571Y-86308380D01*
X128690476Y-85641714D02*
X128690476Y-86308380D01*
X128452380Y-85260761D02*
X128214285Y-85975047D01*
X128833333Y-85975047D01*
X129166666Y-85403619D02*
X129214285Y-85356000D01*
X129309523Y-85308380D01*
X129547619Y-85308380D01*
X129642857Y-85356000D01*
X129690476Y-85403619D01*
X129738095Y-85498857D01*
X129738095Y-85594095D01*
X129690476Y-85736952D01*
X129119047Y-86308380D01*
X129738095Y-86308380D01*
X118730761Y-148162380D02*
X118397428Y-147686190D01*
X118159333Y-148162380D02*
X118159333Y-147162380D01*
X118540285Y-147162380D01*
X118635523Y-147210000D01*
X118683142Y-147257619D01*
X118730761Y-147352857D01*
X118730761Y-147495714D01*
X118683142Y-147590952D01*
X118635523Y-147638571D01*
X118540285Y-147686190D01*
X118159333Y-147686190D01*
X119064095Y-147162380D02*
X119730761Y-148162380D01*
X119730761Y-147162380D02*
X119064095Y-148162380D01*
X120111714Y-147781428D02*
X120873619Y-147781428D01*
X121492666Y-147590952D02*
X121397428Y-147543333D01*
X121349809Y-147495714D01*
X121302190Y-147400476D01*
X121302190Y-147352857D01*
X121349809Y-147257619D01*
X121397428Y-147210000D01*
X121492666Y-147162380D01*
X121683142Y-147162380D01*
X121778380Y-147210000D01*
X121826000Y-147257619D01*
X121873619Y-147352857D01*
X121873619Y-147400476D01*
X121826000Y-147495714D01*
X121778380Y-147543333D01*
X121683142Y-147590952D01*
X121492666Y-147590952D01*
X121397428Y-147638571D01*
X121349809Y-147686190D01*
X121302190Y-147781428D01*
X121302190Y-147971904D01*
X121349809Y-148067142D01*
X121397428Y-148114761D01*
X121492666Y-148162380D01*
X121683142Y-148162380D01*
X121778380Y-148114761D01*
X121826000Y-148067142D01*
X121873619Y-147971904D01*
X121873619Y-147781428D01*
X121826000Y-147686190D01*
X121778380Y-147638571D01*
X121683142Y-147590952D01*
X122492666Y-147162380D02*
X122587904Y-147162380D01*
X122683142Y-147210000D01*
X122730761Y-147257619D01*
X122778380Y-147352857D01*
X122826000Y-147543333D01*
X122826000Y-147781428D01*
X122778380Y-147971904D01*
X122730761Y-148067142D01*
X122683142Y-148114761D01*
X122587904Y-148162380D01*
X122492666Y-148162380D01*
X122397428Y-148114761D01*
X122349809Y-148067142D01*
X122302190Y-147971904D01*
X122254571Y-147781428D01*
X122254571Y-147543333D01*
X122302190Y-147352857D01*
X122349809Y-147257619D01*
X122397428Y-147210000D01*
X122492666Y-147162380D01*
X123206952Y-147257619D02*
X123254571Y-147210000D01*
X123349809Y-147162380D01*
X123587904Y-147162380D01*
X123683142Y-147210000D01*
X123730761Y-147257619D01*
X123778380Y-147352857D01*
X123778380Y-147448095D01*
X123730761Y-147590952D01*
X123159333Y-148162380D01*
X123778380Y-148162380D01*
X124683142Y-147162380D02*
X124206952Y-147162380D01*
X124159333Y-147638571D01*
X124206952Y-147590952D01*
X124302190Y-147543333D01*
X124540285Y-147543333D01*
X124635523Y-147590952D01*
X124683142Y-147638571D01*
X124730761Y-147733809D01*
X124730761Y-147971904D01*
X124683142Y-148067142D01*
X124635523Y-148114761D01*
X124540285Y-148162380D01*
X124302190Y-148162380D01*
X124206952Y-148114761D01*
X124159333Y-148067142D01*
X125111714Y-148114761D02*
X125254571Y-148162380D01*
X125492666Y-148162380D01*
X125587904Y-148114761D01*
X125635523Y-148067142D01*
X125683142Y-147971904D01*
X125683142Y-147876666D01*
X125635523Y-147781428D01*
X125587904Y-147733809D01*
X125492666Y-147686190D01*
X125302190Y-147638571D01*
X125206952Y-147590952D01*
X125159333Y-147543333D01*
X125111714Y-147448095D01*
X125111714Y-147352857D01*
X125159333Y-147257619D01*
X125206952Y-147210000D01*
X125302190Y-147162380D01*
X125540285Y-147162380D01*
X125683142Y-147210000D01*
X126064095Y-147876666D02*
X126540285Y-147876666D01*
X125968857Y-148162380D02*
X126302190Y-147162380D01*
X126635523Y-148162380D01*
X122687904Y-143762380D02*
X122306952Y-144029047D01*
X122687904Y-144219523D02*
X121887904Y-144219523D01*
X121887904Y-143914761D01*
X121926000Y-143838571D01*
X121964095Y-143800476D01*
X122040285Y-143762380D01*
X122154571Y-143762380D01*
X122230761Y-143800476D01*
X122268857Y-143838571D01*
X122306952Y-143914761D01*
X122306952Y-144219523D01*
X121887904Y-143495714D02*
X122687904Y-142962380D01*
X121887904Y-142962380D02*
X122687904Y-143495714D01*
X122383142Y-142657619D02*
X122383142Y-142048095D01*
X122230761Y-141552857D02*
X122192666Y-141629047D01*
X122154571Y-141667142D01*
X122078380Y-141705238D01*
X122040285Y-141705238D01*
X121964095Y-141667142D01*
X121926000Y-141629047D01*
X121887904Y-141552857D01*
X121887904Y-141400476D01*
X121926000Y-141324285D01*
X121964095Y-141286190D01*
X122040285Y-141248095D01*
X122078380Y-141248095D01*
X122154571Y-141286190D01*
X122192666Y-141324285D01*
X122230761Y-141400476D01*
X122230761Y-141552857D01*
X122268857Y-141629047D01*
X122306952Y-141667142D01*
X122383142Y-141705238D01*
X122535523Y-141705238D01*
X122611714Y-141667142D01*
X122649809Y-141629047D01*
X122687904Y-141552857D01*
X122687904Y-141400476D01*
X122649809Y-141324285D01*
X122611714Y-141286190D01*
X122535523Y-141248095D01*
X122383142Y-141248095D01*
X122306952Y-141286190D01*
X122268857Y-141324285D01*
X122230761Y-141400476D01*
X121887904Y-140752857D02*
X121887904Y-140676666D01*
X121926000Y-140600476D01*
X121964095Y-140562380D01*
X122040285Y-140524285D01*
X122192666Y-140486190D01*
X122383142Y-140486190D01*
X122535523Y-140524285D01*
X122611714Y-140562380D01*
X122649809Y-140600476D01*
X122687904Y-140676666D01*
X122687904Y-140752857D01*
X122649809Y-140829047D01*
X122611714Y-140867142D01*
X122535523Y-140905238D01*
X122383142Y-140943333D01*
X122192666Y-140943333D01*
X122040285Y-140905238D01*
X121964095Y-140867142D01*
X121926000Y-140829047D01*
X121887904Y-140752857D01*
X121964095Y-140181428D02*
X121926000Y-140143333D01*
X121887904Y-140067142D01*
X121887904Y-139876666D01*
X121926000Y-139800476D01*
X121964095Y-139762380D01*
X122040285Y-139724285D01*
X122116476Y-139724285D01*
X122230761Y-139762380D01*
X122687904Y-140219523D01*
X122687904Y-139724285D01*
X121887904Y-139000476D02*
X121887904Y-139381428D01*
X122268857Y-139419523D01*
X122230761Y-139381428D01*
X122192666Y-139305238D01*
X122192666Y-139114761D01*
X122230761Y-139038571D01*
X122268857Y-139000476D01*
X122345047Y-138962380D01*
X122535523Y-138962380D01*
X122611714Y-139000476D01*
X122649809Y-139038571D01*
X122687904Y-139114761D01*
X122687904Y-139305238D01*
X122649809Y-139381428D01*
X122611714Y-139419523D01*
X129683238Y-98452380D02*
X129683238Y-97452380D01*
X130254666Y-98452380D02*
X129826095Y-97880952D01*
X130254666Y-97452380D02*
X129683238Y-98023809D01*
X131207047Y-98452380D02*
X130635619Y-98452380D01*
X130921333Y-98452380D02*
X130921333Y-97452380D01*
X130826095Y-97595238D01*
X130730857Y-97690476D01*
X130635619Y-97738095D01*
X132111809Y-97452380D02*
X131635619Y-97452380D01*
X131588000Y-97928571D01*
X131635619Y-97880952D01*
X131730857Y-97833333D01*
X131968952Y-97833333D01*
X132064190Y-97880952D01*
X132111809Y-97928571D01*
X132159428Y-98023809D01*
X132159428Y-98261904D01*
X132111809Y-98357142D01*
X132064190Y-98404761D01*
X131968952Y-98452380D01*
X131730857Y-98452380D01*
X131635619Y-98404761D01*
X131588000Y-98357142D01*
X133064190Y-97452380D02*
X132588000Y-97452380D01*
X132540380Y-97928571D01*
X132588000Y-97880952D01*
X132683238Y-97833333D01*
X132921333Y-97833333D01*
X133016571Y-97880952D01*
X133064190Y-97928571D01*
X133111809Y-98023809D01*
X133111809Y-98261904D01*
X133064190Y-98357142D01*
X133016571Y-98404761D01*
X132921333Y-98452380D01*
X132683238Y-98452380D01*
X132588000Y-98404761D01*
X132540380Y-98357142D01*
X133540380Y-98452380D02*
X133540380Y-97452380D01*
X134016571Y-98452380D02*
X134016571Y-97452380D01*
X134254666Y-97452380D01*
X134397523Y-97500000D01*
X134492761Y-97595238D01*
X134540380Y-97690476D01*
X134588000Y-97880952D01*
X134588000Y-98023809D01*
X134540380Y-98214285D01*
X134492761Y-98309523D01*
X134397523Y-98404761D01*
X134254666Y-98452380D01*
X134016571Y-98452380D01*
X135540380Y-98452380D02*
X134968952Y-98452380D01*
X135254666Y-98452380D02*
X135254666Y-97452380D01*
X135159428Y-97595238D01*
X135064190Y-97690476D01*
X134968952Y-97738095D01*
X133040380Y-112124761D02*
X132040380Y-112124761D01*
X133040380Y-111553333D02*
X132468952Y-111981904D01*
X132040380Y-111553333D02*
X132611809Y-112124761D01*
X133040380Y-110600952D02*
X133040380Y-111172380D01*
X133040380Y-110886666D02*
X132040380Y-110886666D01*
X132183238Y-110981904D01*
X132278476Y-111077142D01*
X132326095Y-111172380D01*
X132040380Y-109696190D02*
X132040380Y-110172380D01*
X132516571Y-110220000D01*
X132468952Y-110172380D01*
X132421333Y-110077142D01*
X132421333Y-109839047D01*
X132468952Y-109743809D01*
X132516571Y-109696190D01*
X132611809Y-109648571D01*
X132849904Y-109648571D01*
X132945142Y-109696190D01*
X132992761Y-109743809D01*
X133040380Y-109839047D01*
X133040380Y-110077142D01*
X132992761Y-110172380D01*
X132945142Y-110220000D01*
X132040380Y-108743809D02*
X132040380Y-109220000D01*
X132516571Y-109267619D01*
X132468952Y-109220000D01*
X132421333Y-109124761D01*
X132421333Y-108886666D01*
X132468952Y-108791428D01*
X132516571Y-108743809D01*
X132611809Y-108696190D01*
X132849904Y-108696190D01*
X132945142Y-108743809D01*
X132992761Y-108791428D01*
X133040380Y-108886666D01*
X133040380Y-109124761D01*
X132992761Y-109220000D01*
X132945142Y-109267619D01*
X133040380Y-108267619D02*
X132040380Y-108267619D01*
X133040380Y-107791428D02*
X132040380Y-107791428D01*
X132040380Y-107553333D01*
X132088000Y-107410476D01*
X132183238Y-107315238D01*
X132278476Y-107267619D01*
X132468952Y-107220000D01*
X132611809Y-107220000D01*
X132802285Y-107267619D01*
X132897523Y-107315238D01*
X132992761Y-107410476D01*
X133040380Y-107553333D01*
X133040380Y-107791428D01*
X133040380Y-106267619D02*
X133040380Y-106839047D01*
X133040380Y-106553333D02*
X132040380Y-106553333D01*
X132183238Y-106648571D01*
X132278476Y-106743809D01*
X132326095Y-106839047D01*
X131175619Y-70326380D02*
X131175619Y-69326380D01*
X131175619Y-69802571D02*
X131747047Y-69802571D01*
X131747047Y-70326380D02*
X131747047Y-69326380D01*
X132223238Y-69802571D02*
X132556571Y-69802571D01*
X132699428Y-70326380D02*
X132223238Y-70326380D01*
X132223238Y-69326380D01*
X132699428Y-69326380D01*
X133080380Y-70040666D02*
X133556571Y-70040666D01*
X132985142Y-70326380D02*
X133318476Y-69326380D01*
X133651809Y-70326380D01*
X133985142Y-70326380D02*
X133985142Y-69326380D01*
X134223238Y-69326380D01*
X134366095Y-69374000D01*
X134461333Y-69469238D01*
X134508952Y-69564476D01*
X134556571Y-69754952D01*
X134556571Y-69897809D01*
X134508952Y-70088285D01*
X134461333Y-70183523D01*
X134366095Y-70278761D01*
X134223238Y-70326380D01*
X133985142Y-70326380D01*
X134985142Y-69802571D02*
X135318476Y-69802571D01*
X135461333Y-70326380D02*
X134985142Y-70326380D01*
X134985142Y-69326380D01*
X135461333Y-69326380D01*
X136461333Y-70326380D02*
X136128000Y-69850190D01*
X135889904Y-70326380D02*
X135889904Y-69326380D01*
X136270857Y-69326380D01*
X136366095Y-69374000D01*
X136413714Y-69421619D01*
X136461333Y-69516857D01*
X136461333Y-69659714D01*
X136413714Y-69754952D01*
X136366095Y-69802571D01*
X136270857Y-69850190D01*
X135889904Y-69850190D01*
X136651809Y-70421619D02*
X137413714Y-70421619D01*
X138175619Y-70326380D02*
X137604190Y-70326380D01*
X137889904Y-70326380D02*
X137889904Y-69326380D01*
X137794666Y-69469238D01*
X137699428Y-69564476D01*
X137604190Y-69612095D01*
X139032761Y-69326380D02*
X138842285Y-69326380D01*
X138747047Y-69374000D01*
X138699428Y-69421619D01*
X138604190Y-69564476D01*
X138556571Y-69754952D01*
X138556571Y-70135904D01*
X138604190Y-70231142D01*
X138651809Y-70278761D01*
X138747047Y-70326380D01*
X138937523Y-70326380D01*
X139032761Y-70278761D01*
X139080380Y-70231142D01*
X139128000Y-70135904D01*
X139128000Y-69897809D01*
X139080380Y-69802571D01*
X139032761Y-69754952D01*
X138937523Y-69707333D01*
X138747047Y-69707333D01*
X138651809Y-69754952D01*
X138604190Y-69802571D01*
X138556571Y-69897809D01*
X118562571Y-67394380D02*
X117991142Y-67394380D01*
X118276857Y-67394380D02*
X118276857Y-66394380D01*
X118181619Y-66537238D01*
X118086380Y-66632476D01*
X117991142Y-66680095D01*
X119181619Y-66394380D02*
X119276857Y-66394380D01*
X119372095Y-66442000D01*
X119419714Y-66489619D01*
X119467333Y-66584857D01*
X119514952Y-66775333D01*
X119514952Y-67013428D01*
X119467333Y-67203904D01*
X119419714Y-67299142D01*
X119372095Y-67346761D01*
X119276857Y-67394380D01*
X119181619Y-67394380D01*
X119086380Y-67346761D01*
X119038761Y-67299142D01*
X118991142Y-67203904D01*
X118943523Y-67013428D01*
X118943523Y-66775333D01*
X118991142Y-66584857D01*
X119038761Y-66489619D01*
X119086380Y-66442000D01*
X119181619Y-66394380D01*
X120134000Y-66394380D02*
X120229238Y-66394380D01*
X120324476Y-66442000D01*
X120372095Y-66489619D01*
X120419714Y-66584857D01*
X120467333Y-66775333D01*
X120467333Y-67013428D01*
X120419714Y-67203904D01*
X120372095Y-67299142D01*
X120324476Y-67346761D01*
X120229238Y-67394380D01*
X120134000Y-67394380D01*
X120038761Y-67346761D01*
X119991142Y-67299142D01*
X119943523Y-67203904D01*
X119895904Y-67013428D01*
X119895904Y-66775333D01*
X119943523Y-66584857D01*
X119991142Y-66489619D01*
X120038761Y-66442000D01*
X120134000Y-66394380D01*
X120895904Y-67394380D02*
X120895904Y-66394380D01*
X120991142Y-67013428D02*
X121276857Y-67394380D01*
X121276857Y-66727714D02*
X120895904Y-67108666D01*
X116523047Y-69794380D02*
X115951619Y-69794380D01*
X116237333Y-69794380D02*
X116237333Y-68794380D01*
X116142095Y-68937238D01*
X116046857Y-69032476D01*
X115951619Y-69080095D01*
X117142095Y-68794380D02*
X117237333Y-68794380D01*
X117332571Y-68842000D01*
X117380190Y-68889619D01*
X117427809Y-68984857D01*
X117475428Y-69175333D01*
X117475428Y-69413428D01*
X117427809Y-69603904D01*
X117380190Y-69699142D01*
X117332571Y-69746761D01*
X117237333Y-69794380D01*
X117142095Y-69794380D01*
X117046857Y-69746761D01*
X116999238Y-69699142D01*
X116951619Y-69603904D01*
X116904000Y-69413428D01*
X116904000Y-69175333D01*
X116951619Y-68984857D01*
X116999238Y-68889619D01*
X117046857Y-68842000D01*
X117142095Y-68794380D01*
X118094476Y-68794380D02*
X118189714Y-68794380D01*
X118284952Y-68842000D01*
X118332571Y-68889619D01*
X118380190Y-68984857D01*
X118427809Y-69175333D01*
X118427809Y-69413428D01*
X118380190Y-69603904D01*
X118332571Y-69699142D01*
X118284952Y-69746761D01*
X118189714Y-69794380D01*
X118094476Y-69794380D01*
X117999238Y-69746761D01*
X117951619Y-69699142D01*
X117904000Y-69603904D01*
X117856380Y-69413428D01*
X117856380Y-69175333D01*
X117904000Y-68984857D01*
X117951619Y-68889619D01*
X117999238Y-68842000D01*
X118094476Y-68794380D01*
X118856380Y-69794380D02*
X118856380Y-68794380D01*
X118951619Y-69413428D02*
X119237333Y-69794380D01*
X119237333Y-69127714D02*
X118856380Y-69508666D01*
X120427809Y-69794380D02*
X120427809Y-68794380D01*
X120999238Y-69794380D01*
X120999238Y-68794380D01*
X121856380Y-69746761D02*
X121761142Y-69794380D01*
X121570666Y-69794380D01*
X121475428Y-69746761D01*
X121427809Y-69651523D01*
X121427809Y-69270571D01*
X121475428Y-69175333D01*
X121570666Y-69127714D01*
X121761142Y-69127714D01*
X121856380Y-69175333D01*
X121904000Y-69270571D01*
X121904000Y-69365809D01*
X121427809Y-69461047D01*
X122189714Y-69127714D02*
X122570666Y-69127714D01*
X122332571Y-68794380D02*
X122332571Y-69651523D01*
X122380190Y-69746761D01*
X122475428Y-69794380D01*
X122570666Y-69794380D01*
X122808761Y-69127714D02*
X122999238Y-69794380D01*
X123189714Y-69318190D01*
X123380190Y-69794380D01*
X123570666Y-69127714D01*
X124094476Y-69794380D02*
X123999238Y-69746761D01*
X123951619Y-69699142D01*
X123904000Y-69603904D01*
X123904000Y-69318190D01*
X123951619Y-69222952D01*
X123999238Y-69175333D01*
X124094476Y-69127714D01*
X124237333Y-69127714D01*
X124332571Y-69175333D01*
X124380190Y-69222952D01*
X124427809Y-69318190D01*
X124427809Y-69603904D01*
X124380190Y-69699142D01*
X124332571Y-69746761D01*
X124237333Y-69794380D01*
X124094476Y-69794380D01*
X124856380Y-69794380D02*
X124856380Y-69127714D01*
X124856380Y-69318190D02*
X124904000Y-69222952D01*
X124951619Y-69175333D01*
X125046857Y-69127714D01*
X125142095Y-69127714D01*
X125475428Y-69794380D02*
X125475428Y-68794380D01*
X125570666Y-69413428D02*
X125856380Y-69794380D01*
X125856380Y-69127714D02*
X125475428Y-69508666D01*
X111355333Y-70059714D02*
X111355333Y-70726380D01*
X111117238Y-69678761D02*
X110879142Y-70393047D01*
X111498190Y-70393047D01*
X111783904Y-69726380D02*
X112450571Y-69726380D01*
X112022000Y-70726380D01*
X113022000Y-69726380D02*
X113117238Y-69726380D01*
X113212476Y-69774000D01*
X113260095Y-69821619D01*
X113307714Y-69916857D01*
X113355333Y-70107333D01*
X113355333Y-70345428D01*
X113307714Y-70535904D01*
X113260095Y-70631142D01*
X113212476Y-70678761D01*
X113117238Y-70726380D01*
X113022000Y-70726380D01*
X112926761Y-70678761D01*
X112879142Y-70631142D01*
X112831523Y-70535904D01*
X112783904Y-70345428D01*
X112783904Y-70107333D01*
X112831523Y-69916857D01*
X112879142Y-69821619D01*
X112926761Y-69774000D01*
X113022000Y-69726380D01*
X113783904Y-70726380D02*
X113783904Y-69726380D01*
X113879142Y-70345428D02*
X114164857Y-70726380D01*
X114164857Y-70059714D02*
X113783904Y-70440666D01*
X110617238Y-73096380D02*
X110283904Y-72620190D01*
X110045809Y-73096380D02*
X110045809Y-72096380D01*
X110426761Y-72096380D01*
X110522000Y-72144000D01*
X110569619Y-72191619D01*
X110617238Y-72286857D01*
X110617238Y-72429714D01*
X110569619Y-72524952D01*
X110522000Y-72572571D01*
X110426761Y-72620190D01*
X110045809Y-72620190D01*
X112236285Y-72429714D02*
X112236285Y-73096380D01*
X111998190Y-72048761D02*
X111760095Y-72763047D01*
X112379142Y-72763047D01*
X112664857Y-72096380D02*
X113331523Y-72096380D01*
X112902952Y-73096380D01*
X113902952Y-72096380D02*
X113998190Y-72096380D01*
X114093428Y-72144000D01*
X114141047Y-72191619D01*
X114188666Y-72286857D01*
X114236285Y-72477333D01*
X114236285Y-72715428D01*
X114188666Y-72905904D01*
X114141047Y-73001142D01*
X114093428Y-73048761D01*
X113998190Y-73096380D01*
X113902952Y-73096380D01*
X113807714Y-73048761D01*
X113760095Y-73001142D01*
X113712476Y-72905904D01*
X113664857Y-72715428D01*
X113664857Y-72477333D01*
X113712476Y-72286857D01*
X113760095Y-72191619D01*
X113807714Y-72144000D01*
X113902952Y-72096380D01*
X114664857Y-73096380D02*
X114664857Y-72096380D01*
X114760095Y-72715428D02*
X115045809Y-73096380D01*
X115045809Y-72429714D02*
X114664857Y-72810666D01*
X120753523Y-89856380D02*
X120753523Y-88856380D01*
X121086857Y-89570666D01*
X121420190Y-88856380D01*
X121420190Y-89856380D01*
X121896380Y-89856380D02*
X121896380Y-88856380D01*
X122277333Y-88856380D01*
X122372571Y-88904000D01*
X122420190Y-88951619D01*
X122467809Y-89046857D01*
X122467809Y-89189714D01*
X122420190Y-89284952D01*
X122372571Y-89332571D01*
X122277333Y-89380190D01*
X121896380Y-89380190D01*
X122848761Y-89808761D02*
X122991619Y-89856380D01*
X123229714Y-89856380D01*
X123324952Y-89808761D01*
X123372571Y-89761142D01*
X123420190Y-89665904D01*
X123420190Y-89570666D01*
X123372571Y-89475428D01*
X123324952Y-89427809D01*
X123229714Y-89380190D01*
X123039238Y-89332571D01*
X122944000Y-89284952D01*
X122896380Y-89237333D01*
X122848761Y-89142095D01*
X122848761Y-89046857D01*
X122896380Y-88951619D01*
X122944000Y-88904000D01*
X123039238Y-88856380D01*
X123277333Y-88856380D01*
X123420190Y-88904000D01*
X123801142Y-89570666D02*
X124277333Y-89570666D01*
X123705904Y-89856380D02*
X124039238Y-88856380D01*
X124372571Y-89856380D01*
X125134476Y-89189714D02*
X125134476Y-89856380D01*
X124896380Y-88808761D02*
X124658285Y-89523047D01*
X125277333Y-89523047D01*
X125610666Y-88951619D02*
X125658285Y-88904000D01*
X125753523Y-88856380D01*
X125991619Y-88856380D01*
X126086857Y-88904000D01*
X126134476Y-88951619D01*
X126182095Y-89046857D01*
X126182095Y-89142095D01*
X126134476Y-89284952D01*
X125563047Y-89856380D01*
X126182095Y-89856380D01*
X120753523Y-83506380D02*
X120753523Y-82506380D01*
X121086857Y-83220666D01*
X121420190Y-82506380D01*
X121420190Y-83506380D01*
X121896380Y-83506380D02*
X121896380Y-82506380D01*
X122277333Y-82506380D01*
X122372571Y-82554000D01*
X122420190Y-82601619D01*
X122467809Y-82696857D01*
X122467809Y-82839714D01*
X122420190Y-82934952D01*
X122372571Y-82982571D01*
X122277333Y-83030190D01*
X121896380Y-83030190D01*
X122848761Y-83458761D02*
X122991619Y-83506380D01*
X123229714Y-83506380D01*
X123324952Y-83458761D01*
X123372571Y-83411142D01*
X123420190Y-83315904D01*
X123420190Y-83220666D01*
X123372571Y-83125428D01*
X123324952Y-83077809D01*
X123229714Y-83030190D01*
X123039238Y-82982571D01*
X122944000Y-82934952D01*
X122896380Y-82887333D01*
X122848761Y-82792095D01*
X122848761Y-82696857D01*
X122896380Y-82601619D01*
X122944000Y-82554000D01*
X123039238Y-82506380D01*
X123277333Y-82506380D01*
X123420190Y-82554000D01*
X123801142Y-83220666D02*
X124277333Y-83220666D01*
X123705904Y-83506380D02*
X124039238Y-82506380D01*
X124372571Y-83506380D01*
X125134476Y-82839714D02*
X125134476Y-83506380D01*
X124896380Y-82458761D02*
X124658285Y-83173047D01*
X125277333Y-83173047D01*
X125610666Y-82601619D02*
X125658285Y-82554000D01*
X125753523Y-82506380D01*
X125991619Y-82506380D01*
X126086857Y-82554000D01*
X126134476Y-82601619D01*
X126182095Y-82696857D01*
X126182095Y-82792095D01*
X126134476Y-82934952D01*
X125563047Y-83506380D01*
X126182095Y-83506380D01*
X113387523Y-89856380D02*
X113387523Y-88856380D01*
X113720857Y-89570666D01*
X114054190Y-88856380D01*
X114054190Y-89856380D01*
X114530380Y-89856380D02*
X114530380Y-88856380D01*
X114911333Y-88856380D01*
X115006571Y-88904000D01*
X115054190Y-88951619D01*
X115101809Y-89046857D01*
X115101809Y-89189714D01*
X115054190Y-89284952D01*
X115006571Y-89332571D01*
X114911333Y-89380190D01*
X114530380Y-89380190D01*
X115482761Y-89808761D02*
X115625619Y-89856380D01*
X115863714Y-89856380D01*
X115958952Y-89808761D01*
X116006571Y-89761142D01*
X116054190Y-89665904D01*
X116054190Y-89570666D01*
X116006571Y-89475428D01*
X115958952Y-89427809D01*
X115863714Y-89380190D01*
X115673238Y-89332571D01*
X115578000Y-89284952D01*
X115530380Y-89237333D01*
X115482761Y-89142095D01*
X115482761Y-89046857D01*
X115530380Y-88951619D01*
X115578000Y-88904000D01*
X115673238Y-88856380D01*
X115911333Y-88856380D01*
X116054190Y-88904000D01*
X116435142Y-89570666D02*
X116911333Y-89570666D01*
X116339904Y-89856380D02*
X116673238Y-88856380D01*
X117006571Y-89856380D01*
X117768476Y-89189714D02*
X117768476Y-89856380D01*
X117530380Y-88808761D02*
X117292285Y-89523047D01*
X117911333Y-89523047D01*
X118244666Y-88951619D02*
X118292285Y-88904000D01*
X118387523Y-88856380D01*
X118625619Y-88856380D01*
X118720857Y-88904000D01*
X118768476Y-88951619D01*
X118816095Y-89046857D01*
X118816095Y-89142095D01*
X118768476Y-89284952D01*
X118197047Y-89856380D01*
X118816095Y-89856380D01*
X113387523Y-83506380D02*
X113387523Y-82506380D01*
X113720857Y-83220666D01*
X114054190Y-82506380D01*
X114054190Y-83506380D01*
X114530380Y-83506380D02*
X114530380Y-82506380D01*
X114911333Y-82506380D01*
X115006571Y-82554000D01*
X115054190Y-82601619D01*
X115101809Y-82696857D01*
X115101809Y-82839714D01*
X115054190Y-82934952D01*
X115006571Y-82982571D01*
X114911333Y-83030190D01*
X114530380Y-83030190D01*
X115482761Y-83458761D02*
X115625619Y-83506380D01*
X115863714Y-83506380D01*
X115958952Y-83458761D01*
X116006571Y-83411142D01*
X116054190Y-83315904D01*
X116054190Y-83220666D01*
X116006571Y-83125428D01*
X115958952Y-83077809D01*
X115863714Y-83030190D01*
X115673238Y-82982571D01*
X115578000Y-82934952D01*
X115530380Y-82887333D01*
X115482761Y-82792095D01*
X115482761Y-82696857D01*
X115530380Y-82601619D01*
X115578000Y-82554000D01*
X115673238Y-82506380D01*
X115911333Y-82506380D01*
X116054190Y-82554000D01*
X116435142Y-83220666D02*
X116911333Y-83220666D01*
X116339904Y-83506380D02*
X116673238Y-82506380D01*
X117006571Y-83506380D01*
X117768476Y-82839714D02*
X117768476Y-83506380D01*
X117530380Y-82458761D02*
X117292285Y-83173047D01*
X117911333Y-83173047D01*
X118244666Y-82601619D02*
X118292285Y-82554000D01*
X118387523Y-82506380D01*
X118625619Y-82506380D01*
X118720857Y-82554000D01*
X118768476Y-82601619D01*
X118816095Y-82696857D01*
X118816095Y-82792095D01*
X118768476Y-82934952D01*
X118197047Y-83506380D01*
X118816095Y-83506380D01*
X106021523Y-89856380D02*
X106021523Y-88856380D01*
X106354857Y-89570666D01*
X106688190Y-88856380D01*
X106688190Y-89856380D01*
X107164380Y-89856380D02*
X107164380Y-88856380D01*
X107545333Y-88856380D01*
X107640571Y-88904000D01*
X107688190Y-88951619D01*
X107735809Y-89046857D01*
X107735809Y-89189714D01*
X107688190Y-89284952D01*
X107640571Y-89332571D01*
X107545333Y-89380190D01*
X107164380Y-89380190D01*
X108116761Y-89808761D02*
X108259619Y-89856380D01*
X108497714Y-89856380D01*
X108592952Y-89808761D01*
X108640571Y-89761142D01*
X108688190Y-89665904D01*
X108688190Y-89570666D01*
X108640571Y-89475428D01*
X108592952Y-89427809D01*
X108497714Y-89380190D01*
X108307238Y-89332571D01*
X108212000Y-89284952D01*
X108164380Y-89237333D01*
X108116761Y-89142095D01*
X108116761Y-89046857D01*
X108164380Y-88951619D01*
X108212000Y-88904000D01*
X108307238Y-88856380D01*
X108545333Y-88856380D01*
X108688190Y-88904000D01*
X109069142Y-89570666D02*
X109545333Y-89570666D01*
X108973904Y-89856380D02*
X109307238Y-88856380D01*
X109640571Y-89856380D01*
X110402476Y-89189714D02*
X110402476Y-89856380D01*
X110164380Y-88808761D02*
X109926285Y-89523047D01*
X110545333Y-89523047D01*
X110878666Y-88951619D02*
X110926285Y-88904000D01*
X111021523Y-88856380D01*
X111259619Y-88856380D01*
X111354857Y-88904000D01*
X111402476Y-88951619D01*
X111450095Y-89046857D01*
X111450095Y-89142095D01*
X111402476Y-89284952D01*
X110831047Y-89856380D01*
X111450095Y-89856380D01*
X106021523Y-83506380D02*
X106021523Y-82506380D01*
X106354857Y-83220666D01*
X106688190Y-82506380D01*
X106688190Y-83506380D01*
X107164380Y-83506380D02*
X107164380Y-82506380D01*
X107545333Y-82506380D01*
X107640571Y-82554000D01*
X107688190Y-82601619D01*
X107735809Y-82696857D01*
X107735809Y-82839714D01*
X107688190Y-82934952D01*
X107640571Y-82982571D01*
X107545333Y-83030190D01*
X107164380Y-83030190D01*
X108116761Y-83458761D02*
X108259619Y-83506380D01*
X108497714Y-83506380D01*
X108592952Y-83458761D01*
X108640571Y-83411142D01*
X108688190Y-83315904D01*
X108688190Y-83220666D01*
X108640571Y-83125428D01*
X108592952Y-83077809D01*
X108497714Y-83030190D01*
X108307238Y-82982571D01*
X108212000Y-82934952D01*
X108164380Y-82887333D01*
X108116761Y-82792095D01*
X108116761Y-82696857D01*
X108164380Y-82601619D01*
X108212000Y-82554000D01*
X108307238Y-82506380D01*
X108545333Y-82506380D01*
X108688190Y-82554000D01*
X109069142Y-83220666D02*
X109545333Y-83220666D01*
X108973904Y-83506380D02*
X109307238Y-82506380D01*
X109640571Y-83506380D01*
X110402476Y-82839714D02*
X110402476Y-83506380D01*
X110164380Y-82458761D02*
X109926285Y-83173047D01*
X110545333Y-83173047D01*
X110878666Y-82601619D02*
X110926285Y-82554000D01*
X111021523Y-82506380D01*
X111259619Y-82506380D01*
X111354857Y-82554000D01*
X111402476Y-82601619D01*
X111450095Y-82696857D01*
X111450095Y-82792095D01*
X111402476Y-82934952D01*
X110831047Y-83506380D01*
X111450095Y-83506380D01*
X123547333Y-74799714D02*
X123547333Y-75466380D01*
X123309238Y-74418761D02*
X123071142Y-75133047D01*
X123690190Y-75133047D01*
X123975904Y-74466380D02*
X124642571Y-74466380D01*
X124214000Y-75466380D01*
X125214000Y-74466380D02*
X125309238Y-74466380D01*
X125404476Y-74514000D01*
X125452095Y-74561619D01*
X125499714Y-74656857D01*
X125547333Y-74847333D01*
X125547333Y-75085428D01*
X125499714Y-75275904D01*
X125452095Y-75371142D01*
X125404476Y-75418761D01*
X125309238Y-75466380D01*
X125214000Y-75466380D01*
X125118761Y-75418761D01*
X125071142Y-75371142D01*
X125023523Y-75275904D01*
X124975904Y-75085428D01*
X124975904Y-74847333D01*
X125023523Y-74656857D01*
X125071142Y-74561619D01*
X125118761Y-74514000D01*
X125214000Y-74466380D01*
X125975904Y-75466380D02*
X125975904Y-74466380D01*
X126071142Y-75085428D02*
X126356857Y-75466380D01*
X126356857Y-74799714D02*
X125975904Y-75180666D01*
X122809238Y-73096380D02*
X122475904Y-72620190D01*
X122237809Y-73096380D02*
X122237809Y-72096380D01*
X122618761Y-72096380D01*
X122714000Y-72144000D01*
X122761619Y-72191619D01*
X122809238Y-72286857D01*
X122809238Y-72429714D01*
X122761619Y-72524952D01*
X122714000Y-72572571D01*
X122618761Y-72620190D01*
X122237809Y-72620190D01*
X124428285Y-72429714D02*
X124428285Y-73096380D01*
X124190190Y-72048761D02*
X123952095Y-72763047D01*
X124571142Y-72763047D01*
X124856857Y-72096380D02*
X125523523Y-72096380D01*
X125094952Y-73096380D01*
X126094952Y-72096380D02*
X126190190Y-72096380D01*
X126285428Y-72144000D01*
X126333047Y-72191619D01*
X126380666Y-72286857D01*
X126428285Y-72477333D01*
X126428285Y-72715428D01*
X126380666Y-72905904D01*
X126333047Y-73001142D01*
X126285428Y-73048761D01*
X126190190Y-73096380D01*
X126094952Y-73096380D01*
X125999714Y-73048761D01*
X125952095Y-73001142D01*
X125904476Y-72905904D01*
X125856857Y-72715428D01*
X125856857Y-72477333D01*
X125904476Y-72286857D01*
X125952095Y-72191619D01*
X125999714Y-72144000D01*
X126094952Y-72096380D01*
X126856857Y-73096380D02*
X126856857Y-72096380D01*
X126952095Y-72715428D02*
X127237809Y-73096380D01*
X127237809Y-72429714D02*
X126856857Y-72810666D01*
X123547333Y-77847714D02*
X123547333Y-78514380D01*
X123309238Y-77466761D02*
X123071142Y-78181047D01*
X123690190Y-78181047D01*
X123975904Y-77514380D02*
X124642571Y-77514380D01*
X124214000Y-78514380D01*
X125214000Y-77514380D02*
X125309238Y-77514380D01*
X125404476Y-77562000D01*
X125452095Y-77609619D01*
X125499714Y-77704857D01*
X125547333Y-77895333D01*
X125547333Y-78133428D01*
X125499714Y-78323904D01*
X125452095Y-78419142D01*
X125404476Y-78466761D01*
X125309238Y-78514380D01*
X125214000Y-78514380D01*
X125118761Y-78466761D01*
X125071142Y-78419142D01*
X125023523Y-78323904D01*
X124975904Y-78133428D01*
X124975904Y-77895333D01*
X125023523Y-77704857D01*
X125071142Y-77609619D01*
X125118761Y-77562000D01*
X125214000Y-77514380D01*
X125975904Y-78514380D02*
X125975904Y-77514380D01*
X126071142Y-78133428D02*
X126356857Y-78514380D01*
X126356857Y-77847714D02*
X125975904Y-78228666D01*
X122809238Y-76144380D02*
X122475904Y-75668190D01*
X122237809Y-76144380D02*
X122237809Y-75144380D01*
X122618761Y-75144380D01*
X122714000Y-75192000D01*
X122761619Y-75239619D01*
X122809238Y-75334857D01*
X122809238Y-75477714D01*
X122761619Y-75572952D01*
X122714000Y-75620571D01*
X122618761Y-75668190D01*
X122237809Y-75668190D01*
X124428285Y-75477714D02*
X124428285Y-76144380D01*
X124190190Y-75096761D02*
X123952095Y-75811047D01*
X124571142Y-75811047D01*
X124856857Y-75144380D02*
X125523523Y-75144380D01*
X125094952Y-76144380D01*
X126094952Y-75144380D02*
X126190190Y-75144380D01*
X126285428Y-75192000D01*
X126333047Y-75239619D01*
X126380666Y-75334857D01*
X126428285Y-75525333D01*
X126428285Y-75763428D01*
X126380666Y-75953904D01*
X126333047Y-76049142D01*
X126285428Y-76096761D01*
X126190190Y-76144380D01*
X126094952Y-76144380D01*
X125999714Y-76096761D01*
X125952095Y-76049142D01*
X125904476Y-75953904D01*
X125856857Y-75763428D01*
X125856857Y-75525333D01*
X125904476Y-75334857D01*
X125952095Y-75239619D01*
X125999714Y-75192000D01*
X126094952Y-75144380D01*
X126856857Y-76144380D02*
X126856857Y-75144380D01*
X126952095Y-75763428D02*
X127237809Y-76144380D01*
X127237809Y-75477714D02*
X126856857Y-75858666D01*
X127580142Y-115487714D02*
X127627761Y-115535333D01*
X127675380Y-115678190D01*
X127675380Y-115773428D01*
X127627761Y-115916285D01*
X127532523Y-116011523D01*
X127437285Y-116059142D01*
X127246809Y-116106761D01*
X127103952Y-116106761D01*
X126913476Y-116059142D01*
X126818238Y-116011523D01*
X126723000Y-115916285D01*
X126675380Y-115773428D01*
X126675380Y-115678190D01*
X126723000Y-115535333D01*
X126770619Y-115487714D01*
X127675380Y-115059142D02*
X127008714Y-115059142D01*
X127199190Y-115059142D02*
X127103952Y-115011523D01*
X127056333Y-114963904D01*
X127008714Y-114868666D01*
X127008714Y-114773428D01*
X127008714Y-114535333D02*
X127675380Y-114297238D01*
X127008714Y-114059142D02*
X127675380Y-114297238D01*
X127913476Y-114392476D01*
X127961095Y-114440095D01*
X128008714Y-114535333D01*
X127627761Y-113725809D02*
X127675380Y-113630571D01*
X127675380Y-113440095D01*
X127627761Y-113344857D01*
X127532523Y-113297238D01*
X127484904Y-113297238D01*
X127389666Y-113344857D01*
X127342047Y-113440095D01*
X127342047Y-113582952D01*
X127294428Y-113678190D01*
X127199190Y-113725809D01*
X127151571Y-113725809D01*
X127056333Y-113678190D01*
X127008714Y-113582952D01*
X127008714Y-113440095D01*
X127056333Y-113344857D01*
X127008714Y-113011523D02*
X127008714Y-112630571D01*
X126675380Y-112868666D02*
X127532523Y-112868666D01*
X127627761Y-112821047D01*
X127675380Y-112725809D01*
X127675380Y-112630571D01*
X127675380Y-111868666D02*
X127151571Y-111868666D01*
X127056333Y-111916285D01*
X127008714Y-112011523D01*
X127008714Y-112202000D01*
X127056333Y-112297238D01*
X127627761Y-111868666D02*
X127675380Y-111963904D01*
X127675380Y-112202000D01*
X127627761Y-112297238D01*
X127532523Y-112344857D01*
X127437285Y-112344857D01*
X127342047Y-112297238D01*
X127294428Y-112202000D01*
X127294428Y-111963904D01*
X127246809Y-111868666D01*
X127675380Y-111249619D02*
X127627761Y-111344857D01*
X127532523Y-111392476D01*
X126675380Y-111392476D01*
X124150380Y-115392476D02*
X124150380Y-115963904D01*
X124150380Y-115678190D02*
X123150380Y-115678190D01*
X123293238Y-115773428D01*
X123388476Y-115868666D01*
X123436095Y-115963904D01*
X123150380Y-114535333D02*
X123150380Y-114725809D01*
X123198000Y-114821047D01*
X123245619Y-114868666D01*
X123388476Y-114963904D01*
X123578952Y-115011523D01*
X123959904Y-115011523D01*
X124055142Y-114963904D01*
X124102761Y-114916285D01*
X124150380Y-114821047D01*
X124150380Y-114630571D01*
X124102761Y-114535333D01*
X124055142Y-114487714D01*
X123959904Y-114440095D01*
X123721809Y-114440095D01*
X123626571Y-114487714D01*
X123578952Y-114535333D01*
X123531333Y-114630571D01*
X123531333Y-114821047D01*
X123578952Y-114916285D01*
X123626571Y-114963904D01*
X123721809Y-115011523D01*
X124150380Y-114011523D02*
X123150380Y-114011523D01*
X123864666Y-113678190D01*
X123150380Y-113344857D01*
X124150380Y-113344857D01*
X124150380Y-112868666D02*
X123150380Y-112868666D01*
X123626571Y-112868666D02*
X123626571Y-112297238D01*
X124150380Y-112297238D02*
X123150380Y-112297238D01*
X123483714Y-111916285D02*
X123483714Y-111392476D01*
X124150380Y-111916285D01*
X124150380Y-111392476D01*
X129468952Y-147070380D02*
X130135619Y-147070380D01*
X129707047Y-148070380D01*
X130945142Y-147403714D02*
X130945142Y-148070380D01*
X130707047Y-147022761D02*
X130468952Y-147737047D01*
X131088000Y-147737047D01*
X131945142Y-148070380D02*
X131468952Y-148070380D01*
X131468952Y-147070380D01*
X132230857Y-148022761D02*
X132373714Y-148070380D01*
X132611809Y-148070380D01*
X132707047Y-148022761D01*
X132754666Y-147975142D01*
X132802285Y-147879904D01*
X132802285Y-147784666D01*
X132754666Y-147689428D01*
X132707047Y-147641809D01*
X132611809Y-147594190D01*
X132421333Y-147546571D01*
X132326095Y-147498952D01*
X132278476Y-147451333D01*
X132230857Y-147356095D01*
X132230857Y-147260857D01*
X132278476Y-147165619D01*
X132326095Y-147118000D01*
X132421333Y-147070380D01*
X132659428Y-147070380D01*
X132802285Y-147118000D01*
X133707047Y-147070380D02*
X133230857Y-147070380D01*
X133183238Y-147546571D01*
X133230857Y-147498952D01*
X133326095Y-147451333D01*
X133564190Y-147451333D01*
X133659428Y-147498952D01*
X133707047Y-147546571D01*
X133754666Y-147641809D01*
X133754666Y-147879904D01*
X133707047Y-147975142D01*
X133659428Y-148022761D01*
X133564190Y-148070380D01*
X133326095Y-148070380D01*
X133230857Y-148022761D01*
X133183238Y-147975142D01*
X134611809Y-147403714D02*
X134611809Y-148070380D01*
X134373714Y-147022761D02*
X134135619Y-147737047D01*
X134754666Y-147737047D01*
X135659428Y-148070380D02*
X135088000Y-148070380D01*
X135373714Y-148070380D02*
X135373714Y-147070380D01*
X135278476Y-147213238D01*
X135183238Y-147308476D01*
X135088000Y-147356095D01*
X132040380Y-136977047D02*
X132040380Y-136310380D01*
X133040380Y-136738952D01*
X132373714Y-135500857D02*
X133040380Y-135500857D01*
X131992761Y-135738952D02*
X132707047Y-135977047D01*
X132707047Y-135358000D01*
X133040380Y-134500857D02*
X133040380Y-134977047D01*
X132040380Y-134977047D01*
X132992761Y-134215142D02*
X133040380Y-134072285D01*
X133040380Y-133834190D01*
X132992761Y-133738952D01*
X132945142Y-133691333D01*
X132849904Y-133643714D01*
X132754666Y-133643714D01*
X132659428Y-133691333D01*
X132611809Y-133738952D01*
X132564190Y-133834190D01*
X132516571Y-134024666D01*
X132468952Y-134119904D01*
X132421333Y-134167523D01*
X132326095Y-134215142D01*
X132230857Y-134215142D01*
X132135619Y-134167523D01*
X132088000Y-134119904D01*
X132040380Y-134024666D01*
X132040380Y-133786571D01*
X132088000Y-133643714D01*
X132040380Y-132738952D02*
X132040380Y-133215142D01*
X132516571Y-133262761D01*
X132468952Y-133215142D01*
X132421333Y-133119904D01*
X132421333Y-132881809D01*
X132468952Y-132786571D01*
X132516571Y-132738952D01*
X132611809Y-132691333D01*
X132849904Y-132691333D01*
X132945142Y-132738952D01*
X132992761Y-132786571D01*
X133040380Y-132881809D01*
X133040380Y-133119904D01*
X132992761Y-133215142D01*
X132945142Y-133262761D01*
X132373714Y-131834190D02*
X133040380Y-131834190D01*
X131992761Y-132072285D02*
X132707047Y-132310380D01*
X132707047Y-131691333D01*
X133040380Y-130786571D02*
X133040380Y-131358000D01*
X133040380Y-131072285D02*
X132040380Y-131072285D01*
X132183238Y-131167523D01*
X132278476Y-131262761D01*
X132326095Y-131358000D01*
X108665142Y-98928666D02*
X109141333Y-98928666D01*
X108569904Y-99214380D02*
X108903238Y-98214380D01*
X109236571Y-99214380D01*
X109427047Y-98214380D02*
X109998476Y-98214380D01*
X109712761Y-99214380D02*
X109712761Y-98214380D01*
X110331809Y-99214380D02*
X110331809Y-98214380D01*
X110665142Y-98928666D01*
X110998476Y-98214380D01*
X110998476Y-99214380D01*
X111474666Y-98690571D02*
X111808000Y-98690571D01*
X111950857Y-99214380D02*
X111474666Y-99214380D01*
X111474666Y-98214380D01*
X111950857Y-98214380D01*
X112903238Y-98262000D02*
X112808000Y-98214380D01*
X112665142Y-98214380D01*
X112522285Y-98262000D01*
X112427047Y-98357238D01*
X112379428Y-98452476D01*
X112331809Y-98642952D01*
X112331809Y-98785809D01*
X112379428Y-98976285D01*
X112427047Y-99071523D01*
X112522285Y-99166761D01*
X112665142Y-99214380D01*
X112760380Y-99214380D01*
X112903238Y-99166761D01*
X112950857Y-99119142D01*
X112950857Y-98785809D01*
X112760380Y-98785809D01*
X113331809Y-98928666D02*
X113808000Y-98928666D01*
X113236571Y-99214380D02*
X113569904Y-98214380D01*
X113903238Y-99214380D01*
X114141333Y-98214380D02*
X114760380Y-98214380D01*
X114427047Y-98595333D01*
X114569904Y-98595333D01*
X114665142Y-98642952D01*
X114712761Y-98690571D01*
X114760380Y-98785809D01*
X114760380Y-99023904D01*
X114712761Y-99119142D01*
X114665142Y-99166761D01*
X114569904Y-99214380D01*
X114284190Y-99214380D01*
X114188952Y-99166761D01*
X114141333Y-99119142D01*
X115141333Y-98309619D02*
X115188952Y-98262000D01*
X115284190Y-98214380D01*
X115522285Y-98214380D01*
X115617523Y-98262000D01*
X115665142Y-98309619D01*
X115712761Y-98404857D01*
X115712761Y-98500095D01*
X115665142Y-98642952D01*
X115093714Y-99214380D01*
X115712761Y-99214380D01*
X116284190Y-98642952D02*
X116188952Y-98595333D01*
X116141333Y-98547714D01*
X116093714Y-98452476D01*
X116093714Y-98404857D01*
X116141333Y-98309619D01*
X116188952Y-98262000D01*
X116284190Y-98214380D01*
X116474666Y-98214380D01*
X116569904Y-98262000D01*
X116617523Y-98309619D01*
X116665142Y-98404857D01*
X116665142Y-98452476D01*
X116617523Y-98547714D01*
X116569904Y-98595333D01*
X116474666Y-98642952D01*
X116284190Y-98642952D01*
X116188952Y-98690571D01*
X116141333Y-98738190D01*
X116093714Y-98833428D01*
X116093714Y-99023904D01*
X116141333Y-99119142D01*
X116188952Y-99166761D01*
X116284190Y-99214380D01*
X116474666Y-99214380D01*
X116569904Y-99166761D01*
X116617523Y-99119142D01*
X116665142Y-99023904D01*
X116665142Y-98833428D01*
X116617523Y-98738190D01*
X116569904Y-98690571D01*
X116474666Y-98642952D01*
X117093714Y-99214380D02*
X117093714Y-98214380D01*
X117474666Y-98214380D01*
X117569904Y-98262000D01*
X117617523Y-98309619D01*
X117665142Y-98404857D01*
X117665142Y-98547714D01*
X117617523Y-98642952D01*
X117569904Y-98690571D01*
X117474666Y-98738190D01*
X117093714Y-98738190D01*
X118093714Y-98833428D02*
X118855619Y-98833428D01*
X119331809Y-99214380D02*
X119331809Y-98214380D01*
X119712761Y-98214380D01*
X119808000Y-98262000D01*
X119855619Y-98309619D01*
X119903238Y-98404857D01*
X119903238Y-98547714D01*
X119855619Y-98642952D01*
X119808000Y-98690571D01*
X119712761Y-98738190D01*
X119331809Y-98738190D01*
X120331809Y-98214380D02*
X120331809Y-99023904D01*
X120379428Y-99119142D01*
X120427047Y-99166761D01*
X120522285Y-99214380D01*
X120712761Y-99214380D01*
X120808000Y-99166761D01*
X120855619Y-99119142D01*
X120903238Y-99023904D01*
X120903238Y-98214380D01*
X114974666Y-122102000D02*
X114974666Y-121625809D01*
X115260380Y-122197238D02*
X114260380Y-121863904D01*
X115260380Y-121530571D01*
X114260380Y-121340095D02*
X114260380Y-120768666D01*
X115260380Y-121054380D02*
X114260380Y-121054380D01*
X115260380Y-120435333D02*
X114593714Y-120435333D01*
X114688952Y-120435333D02*
X114641333Y-120387714D01*
X114593714Y-120292476D01*
X114593714Y-120149619D01*
X114641333Y-120054380D01*
X114736571Y-120006761D01*
X115260380Y-120006761D01*
X114736571Y-120006761D02*
X114641333Y-119959142D01*
X114593714Y-119863904D01*
X114593714Y-119721047D01*
X114641333Y-119625809D01*
X114736571Y-119578190D01*
X115260380Y-119578190D01*
X115212761Y-118721047D02*
X115260380Y-118816285D01*
X115260380Y-119006761D01*
X115212761Y-119102000D01*
X115117523Y-119149619D01*
X114736571Y-119149619D01*
X114641333Y-119102000D01*
X114593714Y-119006761D01*
X114593714Y-118816285D01*
X114641333Y-118721047D01*
X114736571Y-118673428D01*
X114831809Y-118673428D01*
X114927047Y-119149619D01*
X114593714Y-117816285D02*
X115403238Y-117816285D01*
X115498476Y-117863904D01*
X115546095Y-117911523D01*
X115593714Y-118006761D01*
X115593714Y-118149619D01*
X115546095Y-118244857D01*
X115212761Y-117816285D02*
X115260380Y-117911523D01*
X115260380Y-118102000D01*
X115212761Y-118197238D01*
X115165142Y-118244857D01*
X115069904Y-118292476D01*
X114784190Y-118292476D01*
X114688952Y-118244857D01*
X114641333Y-118197238D01*
X114593714Y-118102000D01*
X114593714Y-117911523D01*
X114641333Y-117816285D01*
X115260380Y-116911523D02*
X114736571Y-116911523D01*
X114641333Y-116959142D01*
X114593714Y-117054380D01*
X114593714Y-117244857D01*
X114641333Y-117340095D01*
X115212761Y-116911523D02*
X115260380Y-117006761D01*
X115260380Y-117244857D01*
X115212761Y-117340095D01*
X115117523Y-117387714D01*
X115022285Y-117387714D01*
X114927047Y-117340095D01*
X114879428Y-117244857D01*
X114879428Y-117006761D01*
X114831809Y-116911523D01*
X114260380Y-116530571D02*
X114260380Y-115911523D01*
X114641333Y-116244857D01*
X114641333Y-116102000D01*
X114688952Y-116006761D01*
X114736571Y-115959142D01*
X114831809Y-115911523D01*
X115069904Y-115911523D01*
X115165142Y-115959142D01*
X115212761Y-116006761D01*
X115260380Y-116102000D01*
X115260380Y-116387714D01*
X115212761Y-116482952D01*
X115165142Y-116530571D01*
X114355619Y-115530571D02*
X114308000Y-115482952D01*
X114260380Y-115387714D01*
X114260380Y-115149619D01*
X114308000Y-115054380D01*
X114355619Y-115006761D01*
X114450857Y-114959142D01*
X114546095Y-114959142D01*
X114688952Y-115006761D01*
X115260380Y-115578190D01*
X115260380Y-114959142D01*
X114688952Y-114387714D02*
X114641333Y-114482952D01*
X114593714Y-114530571D01*
X114498476Y-114578190D01*
X114450857Y-114578190D01*
X114355619Y-114530571D01*
X114308000Y-114482952D01*
X114260380Y-114387714D01*
X114260380Y-114197238D01*
X114308000Y-114102000D01*
X114355619Y-114054380D01*
X114450857Y-114006761D01*
X114498476Y-114006761D01*
X114593714Y-114054380D01*
X114641333Y-114102000D01*
X114688952Y-114197238D01*
X114688952Y-114387714D01*
X114736571Y-114482952D01*
X114784190Y-114530571D01*
X114879428Y-114578190D01*
X115069904Y-114578190D01*
X115165142Y-114530571D01*
X115212761Y-114482952D01*
X115260380Y-114387714D01*
X115260380Y-114197238D01*
X115212761Y-114102000D01*
X115165142Y-114054380D01*
X115069904Y-114006761D01*
X114879428Y-114006761D01*
X114784190Y-114054380D01*
X114736571Y-114102000D01*
X114688952Y-114197238D01*
X114593714Y-113578190D02*
X115593714Y-113578190D01*
X114641333Y-113578190D02*
X114593714Y-113482952D01*
X114593714Y-113292476D01*
X114641333Y-113197238D01*
X114688952Y-113149619D01*
X114784190Y-113102000D01*
X115069904Y-113102000D01*
X115165142Y-113149619D01*
X115212761Y-113197238D01*
X115260380Y-113292476D01*
X115260380Y-113482952D01*
X115212761Y-113578190D01*
X111577619Y-137544380D02*
X112196666Y-137544380D01*
X111863333Y-137925333D01*
X112006190Y-137925333D01*
X112101428Y-137972952D01*
X112149047Y-138020571D01*
X112196666Y-138115809D01*
X112196666Y-138353904D01*
X112149047Y-138449142D01*
X112101428Y-138496761D01*
X112006190Y-138544380D01*
X111720476Y-138544380D01*
X111625238Y-138496761D01*
X111577619Y-138449142D01*
X112625238Y-138449142D02*
X112672857Y-138496761D01*
X112625238Y-138544380D01*
X112577619Y-138496761D01*
X112625238Y-138449142D01*
X112625238Y-138544380D01*
X113006190Y-137544380D02*
X113625238Y-137544380D01*
X113291904Y-137925333D01*
X113434761Y-137925333D01*
X113530000Y-137972952D01*
X113577619Y-138020571D01*
X113625238Y-138115809D01*
X113625238Y-138353904D01*
X113577619Y-138449142D01*
X113530000Y-138496761D01*
X113434761Y-138544380D01*
X113149047Y-138544380D01*
X113053809Y-138496761D01*
X113006190Y-138449142D01*
X114053809Y-138544380D02*
X114053809Y-137544380D01*
X114149047Y-138163428D02*
X114434761Y-138544380D01*
X114434761Y-137877714D02*
X114053809Y-138258666D01*
X111601428Y-140914380D02*
X111268095Y-140438190D01*
X111030000Y-140914380D02*
X111030000Y-139914380D01*
X111410952Y-139914380D01*
X111506190Y-139962000D01*
X111553809Y-140009619D01*
X111601428Y-140104857D01*
X111601428Y-140247714D01*
X111553809Y-140342952D01*
X111506190Y-140390571D01*
X111410952Y-140438190D01*
X111030000Y-140438190D01*
X112696666Y-139914380D02*
X113315714Y-139914380D01*
X112982380Y-140295333D01*
X113125238Y-140295333D01*
X113220476Y-140342952D01*
X113268095Y-140390571D01*
X113315714Y-140485809D01*
X113315714Y-140723904D01*
X113268095Y-140819142D01*
X113220476Y-140866761D01*
X113125238Y-140914380D01*
X112839523Y-140914380D01*
X112744285Y-140866761D01*
X112696666Y-140819142D01*
X113744285Y-140914380D02*
X113744285Y-139914380D01*
X113839523Y-140533428D02*
X114125238Y-140914380D01*
X114125238Y-140247714D02*
X113744285Y-140628666D01*
X114458571Y-139914380D02*
X115077619Y-139914380D01*
X114744285Y-140295333D01*
X114887142Y-140295333D01*
X114982380Y-140342952D01*
X115030000Y-140390571D01*
X115077619Y-140485809D01*
X115077619Y-140723904D01*
X115030000Y-140819142D01*
X114982380Y-140866761D01*
X114887142Y-140914380D01*
X114601428Y-140914380D01*
X114506190Y-140866761D01*
X114458571Y-140819142D01*
X111577619Y-134496380D02*
X112196666Y-134496380D01*
X111863333Y-134877333D01*
X112006190Y-134877333D01*
X112101428Y-134924952D01*
X112149047Y-134972571D01*
X112196666Y-135067809D01*
X112196666Y-135305904D01*
X112149047Y-135401142D01*
X112101428Y-135448761D01*
X112006190Y-135496380D01*
X111720476Y-135496380D01*
X111625238Y-135448761D01*
X111577619Y-135401142D01*
X112625238Y-135401142D02*
X112672857Y-135448761D01*
X112625238Y-135496380D01*
X112577619Y-135448761D01*
X112625238Y-135401142D01*
X112625238Y-135496380D01*
X113006190Y-134496380D02*
X113625238Y-134496380D01*
X113291904Y-134877333D01*
X113434761Y-134877333D01*
X113530000Y-134924952D01*
X113577619Y-134972571D01*
X113625238Y-135067809D01*
X113625238Y-135305904D01*
X113577619Y-135401142D01*
X113530000Y-135448761D01*
X113434761Y-135496380D01*
X113149047Y-135496380D01*
X113053809Y-135448761D01*
X113006190Y-135401142D01*
X114053809Y-135496380D02*
X114053809Y-134496380D01*
X114149047Y-135115428D02*
X114434761Y-135496380D01*
X114434761Y-134829714D02*
X114053809Y-135210666D01*
X111601428Y-137866380D02*
X111268095Y-137390190D01*
X111030000Y-137866380D02*
X111030000Y-136866380D01*
X111410952Y-136866380D01*
X111506190Y-136914000D01*
X111553809Y-136961619D01*
X111601428Y-137056857D01*
X111601428Y-137199714D01*
X111553809Y-137294952D01*
X111506190Y-137342571D01*
X111410952Y-137390190D01*
X111030000Y-137390190D01*
X112696666Y-136866380D02*
X113315714Y-136866380D01*
X112982380Y-137247333D01*
X113125238Y-137247333D01*
X113220476Y-137294952D01*
X113268095Y-137342571D01*
X113315714Y-137437809D01*
X113315714Y-137675904D01*
X113268095Y-137771142D01*
X113220476Y-137818761D01*
X113125238Y-137866380D01*
X112839523Y-137866380D01*
X112744285Y-137818761D01*
X112696666Y-137771142D01*
X113744285Y-137866380D02*
X113744285Y-136866380D01*
X113839523Y-137485428D02*
X114125238Y-137866380D01*
X114125238Y-137199714D02*
X113744285Y-137580666D01*
X114458571Y-136866380D02*
X115077619Y-136866380D01*
X114744285Y-137247333D01*
X114887142Y-137247333D01*
X114982380Y-137294952D01*
X115030000Y-137342571D01*
X115077619Y-137437809D01*
X115077619Y-137675904D01*
X115030000Y-137771142D01*
X114982380Y-137818761D01*
X114887142Y-137866380D01*
X114601428Y-137866380D01*
X114506190Y-137818761D01*
X114458571Y-137771142D01*
X109783714Y-93856380D02*
X110402761Y-93856380D01*
X110069428Y-94237333D01*
X110212285Y-94237333D01*
X110307523Y-94284952D01*
X110355142Y-94332571D01*
X110402761Y-94427809D01*
X110402761Y-94665904D01*
X110355142Y-94761142D01*
X110307523Y-94808761D01*
X110212285Y-94856380D01*
X109926571Y-94856380D01*
X109831333Y-94808761D01*
X109783714Y-94761142D01*
X110736095Y-93856380D02*
X111355142Y-93856380D01*
X111021809Y-94237333D01*
X111164666Y-94237333D01*
X111259904Y-94284952D01*
X111307523Y-94332571D01*
X111355142Y-94427809D01*
X111355142Y-94665904D01*
X111307523Y-94761142D01*
X111259904Y-94808761D01*
X111164666Y-94856380D01*
X110878952Y-94856380D01*
X110783714Y-94808761D01*
X110736095Y-94761142D01*
X111783714Y-94856380D02*
X111783714Y-93856380D01*
X111878952Y-94475428D02*
X112164666Y-94856380D01*
X112164666Y-94189714D02*
X111783714Y-94570666D01*
X109569428Y-97226380D02*
X109236095Y-96750190D01*
X108998000Y-97226380D02*
X108998000Y-96226380D01*
X109378952Y-96226380D01*
X109474190Y-96274000D01*
X109521809Y-96321619D01*
X109569428Y-96416857D01*
X109569428Y-96559714D01*
X109521809Y-96654952D01*
X109474190Y-96702571D01*
X109378952Y-96750190D01*
X108998000Y-96750190D01*
X110664666Y-96226380D02*
X111283714Y-96226380D01*
X110950380Y-96607333D01*
X111093238Y-96607333D01*
X111188476Y-96654952D01*
X111236095Y-96702571D01*
X111283714Y-96797809D01*
X111283714Y-97035904D01*
X111236095Y-97131142D01*
X111188476Y-97178761D01*
X111093238Y-97226380D01*
X110807523Y-97226380D01*
X110712285Y-97178761D01*
X110664666Y-97131142D01*
X111617047Y-96226380D02*
X112236095Y-96226380D01*
X111902761Y-96607333D01*
X112045619Y-96607333D01*
X112140857Y-96654952D01*
X112188476Y-96702571D01*
X112236095Y-96797809D01*
X112236095Y-97035904D01*
X112188476Y-97131142D01*
X112140857Y-97178761D01*
X112045619Y-97226380D01*
X111759904Y-97226380D01*
X111664666Y-97178761D01*
X111617047Y-97131142D01*
X112664666Y-97226380D02*
X112664666Y-96226380D01*
X112759904Y-96845428D02*
X113045619Y-97226380D01*
X113045619Y-96559714D02*
X112664666Y-96940666D01*
X121213714Y-87760380D02*
X121832761Y-87760380D01*
X121499428Y-88141333D01*
X121642285Y-88141333D01*
X121737523Y-88188952D01*
X121785142Y-88236571D01*
X121832761Y-88331809D01*
X121832761Y-88569904D01*
X121785142Y-88665142D01*
X121737523Y-88712761D01*
X121642285Y-88760380D01*
X121356571Y-88760380D01*
X121261333Y-88712761D01*
X121213714Y-88665142D01*
X122166095Y-87760380D02*
X122785142Y-87760380D01*
X122451809Y-88141333D01*
X122594666Y-88141333D01*
X122689904Y-88188952D01*
X122737523Y-88236571D01*
X122785142Y-88331809D01*
X122785142Y-88569904D01*
X122737523Y-88665142D01*
X122689904Y-88712761D01*
X122594666Y-88760380D01*
X122308952Y-88760380D01*
X122213714Y-88712761D01*
X122166095Y-88665142D01*
X123213714Y-88760380D02*
X123213714Y-87760380D01*
X123308952Y-88379428D02*
X123594666Y-88760380D01*
X123594666Y-88093714D02*
X123213714Y-88474666D01*
X120999428Y-91130380D02*
X120666095Y-90654190D01*
X120428000Y-91130380D02*
X120428000Y-90130380D01*
X120808952Y-90130380D01*
X120904190Y-90178000D01*
X120951809Y-90225619D01*
X120999428Y-90320857D01*
X120999428Y-90463714D01*
X120951809Y-90558952D01*
X120904190Y-90606571D01*
X120808952Y-90654190D01*
X120428000Y-90654190D01*
X122094666Y-90130380D02*
X122713714Y-90130380D01*
X122380380Y-90511333D01*
X122523238Y-90511333D01*
X122618476Y-90558952D01*
X122666095Y-90606571D01*
X122713714Y-90701809D01*
X122713714Y-90939904D01*
X122666095Y-91035142D01*
X122618476Y-91082761D01*
X122523238Y-91130380D01*
X122237523Y-91130380D01*
X122142285Y-91082761D01*
X122094666Y-91035142D01*
X123047047Y-90130380D02*
X123666095Y-90130380D01*
X123332761Y-90511333D01*
X123475619Y-90511333D01*
X123570857Y-90558952D01*
X123618476Y-90606571D01*
X123666095Y-90701809D01*
X123666095Y-90939904D01*
X123618476Y-91035142D01*
X123570857Y-91082761D01*
X123475619Y-91130380D01*
X123189904Y-91130380D01*
X123094666Y-91082761D01*
X123047047Y-91035142D01*
X124094666Y-91130380D02*
X124094666Y-90130380D01*
X124189904Y-90749428D02*
X124475619Y-91130380D01*
X124475619Y-90463714D02*
X124094666Y-90844666D01*
X109783714Y-90808380D02*
X110402761Y-90808380D01*
X110069428Y-91189333D01*
X110212285Y-91189333D01*
X110307523Y-91236952D01*
X110355142Y-91284571D01*
X110402761Y-91379809D01*
X110402761Y-91617904D01*
X110355142Y-91713142D01*
X110307523Y-91760761D01*
X110212285Y-91808380D01*
X109926571Y-91808380D01*
X109831333Y-91760761D01*
X109783714Y-91713142D01*
X110736095Y-90808380D02*
X111355142Y-90808380D01*
X111021809Y-91189333D01*
X111164666Y-91189333D01*
X111259904Y-91236952D01*
X111307523Y-91284571D01*
X111355142Y-91379809D01*
X111355142Y-91617904D01*
X111307523Y-91713142D01*
X111259904Y-91760761D01*
X111164666Y-91808380D01*
X110878952Y-91808380D01*
X110783714Y-91760761D01*
X110736095Y-91713142D01*
X111783714Y-91808380D02*
X111783714Y-90808380D01*
X111878952Y-91427428D02*
X112164666Y-91808380D01*
X112164666Y-91141714D02*
X111783714Y-91522666D01*
X109569428Y-94178380D02*
X109236095Y-93702190D01*
X108998000Y-94178380D02*
X108998000Y-93178380D01*
X109378952Y-93178380D01*
X109474190Y-93226000D01*
X109521809Y-93273619D01*
X109569428Y-93368857D01*
X109569428Y-93511714D01*
X109521809Y-93606952D01*
X109474190Y-93654571D01*
X109378952Y-93702190D01*
X108998000Y-93702190D01*
X110664666Y-93178380D02*
X111283714Y-93178380D01*
X110950380Y-93559333D01*
X111093238Y-93559333D01*
X111188476Y-93606952D01*
X111236095Y-93654571D01*
X111283714Y-93749809D01*
X111283714Y-93987904D01*
X111236095Y-94083142D01*
X111188476Y-94130761D01*
X111093238Y-94178380D01*
X110807523Y-94178380D01*
X110712285Y-94130761D01*
X110664666Y-94083142D01*
X111617047Y-93178380D02*
X112236095Y-93178380D01*
X111902761Y-93559333D01*
X112045619Y-93559333D01*
X112140857Y-93606952D01*
X112188476Y-93654571D01*
X112236095Y-93749809D01*
X112236095Y-93987904D01*
X112188476Y-94083142D01*
X112140857Y-94130761D01*
X112045619Y-94178380D01*
X111759904Y-94178380D01*
X111664666Y-94130761D01*
X111617047Y-94083142D01*
X112664666Y-94178380D02*
X112664666Y-93178380D01*
X112759904Y-93797428D02*
X113045619Y-94178380D01*
X113045619Y-93511714D02*
X112664666Y-93892666D01*
X121213714Y-90808380D02*
X121832761Y-90808380D01*
X121499428Y-91189333D01*
X121642285Y-91189333D01*
X121737523Y-91236952D01*
X121785142Y-91284571D01*
X121832761Y-91379809D01*
X121832761Y-91617904D01*
X121785142Y-91713142D01*
X121737523Y-91760761D01*
X121642285Y-91808380D01*
X121356571Y-91808380D01*
X121261333Y-91760761D01*
X121213714Y-91713142D01*
X122166095Y-90808380D02*
X122785142Y-90808380D01*
X122451809Y-91189333D01*
X122594666Y-91189333D01*
X122689904Y-91236952D01*
X122737523Y-91284571D01*
X122785142Y-91379809D01*
X122785142Y-91617904D01*
X122737523Y-91713142D01*
X122689904Y-91760761D01*
X122594666Y-91808380D01*
X122308952Y-91808380D01*
X122213714Y-91760761D01*
X122166095Y-91713142D01*
X123213714Y-91808380D02*
X123213714Y-90808380D01*
X123308952Y-91427428D02*
X123594666Y-91808380D01*
X123594666Y-91141714D02*
X123213714Y-91522666D01*
X120999428Y-94178380D02*
X120666095Y-93702190D01*
X120428000Y-94178380D02*
X120428000Y-93178380D01*
X120808952Y-93178380D01*
X120904190Y-93226000D01*
X120951809Y-93273619D01*
X120999428Y-93368857D01*
X120999428Y-93511714D01*
X120951809Y-93606952D01*
X120904190Y-93654571D01*
X120808952Y-93702190D01*
X120428000Y-93702190D01*
X122094666Y-93178380D02*
X122713714Y-93178380D01*
X122380380Y-93559333D01*
X122523238Y-93559333D01*
X122618476Y-93606952D01*
X122666095Y-93654571D01*
X122713714Y-93749809D01*
X122713714Y-93987904D01*
X122666095Y-94083142D01*
X122618476Y-94130761D01*
X122523238Y-94178380D01*
X122237523Y-94178380D01*
X122142285Y-94130761D01*
X122094666Y-94083142D01*
X123047047Y-93178380D02*
X123666095Y-93178380D01*
X123332761Y-93559333D01*
X123475619Y-93559333D01*
X123570857Y-93606952D01*
X123618476Y-93654571D01*
X123666095Y-93749809D01*
X123666095Y-93987904D01*
X123618476Y-94083142D01*
X123570857Y-94130761D01*
X123475619Y-94178380D01*
X123189904Y-94178380D01*
X123094666Y-94130761D01*
X123047047Y-94083142D01*
X124094666Y-94178380D02*
X124094666Y-93178380D01*
X124189904Y-93797428D02*
X124475619Y-94178380D01*
X124475619Y-93511714D02*
X124094666Y-93892666D01*
X109783714Y-87760380D02*
X110402761Y-87760380D01*
X110069428Y-88141333D01*
X110212285Y-88141333D01*
X110307523Y-88188952D01*
X110355142Y-88236571D01*
X110402761Y-88331809D01*
X110402761Y-88569904D01*
X110355142Y-88665142D01*
X110307523Y-88712761D01*
X110212285Y-88760380D01*
X109926571Y-88760380D01*
X109831333Y-88712761D01*
X109783714Y-88665142D01*
X110736095Y-87760380D02*
X111355142Y-87760380D01*
X111021809Y-88141333D01*
X111164666Y-88141333D01*
X111259904Y-88188952D01*
X111307523Y-88236571D01*
X111355142Y-88331809D01*
X111355142Y-88569904D01*
X111307523Y-88665142D01*
X111259904Y-88712761D01*
X111164666Y-88760380D01*
X110878952Y-88760380D01*
X110783714Y-88712761D01*
X110736095Y-88665142D01*
X111783714Y-88760380D02*
X111783714Y-87760380D01*
X111878952Y-88379428D02*
X112164666Y-88760380D01*
X112164666Y-88093714D02*
X111783714Y-88474666D01*
X109569428Y-91130380D02*
X109236095Y-90654190D01*
X108998000Y-91130380D02*
X108998000Y-90130380D01*
X109378952Y-90130380D01*
X109474190Y-90178000D01*
X109521809Y-90225619D01*
X109569428Y-90320857D01*
X109569428Y-90463714D01*
X109521809Y-90558952D01*
X109474190Y-90606571D01*
X109378952Y-90654190D01*
X108998000Y-90654190D01*
X110664666Y-90130380D02*
X111283714Y-90130380D01*
X110950380Y-90511333D01*
X111093238Y-90511333D01*
X111188476Y-90558952D01*
X111236095Y-90606571D01*
X111283714Y-90701809D01*
X111283714Y-90939904D01*
X111236095Y-91035142D01*
X111188476Y-91082761D01*
X111093238Y-91130380D01*
X110807523Y-91130380D01*
X110712285Y-91082761D01*
X110664666Y-91035142D01*
X111617047Y-90130380D02*
X112236095Y-90130380D01*
X111902761Y-90511333D01*
X112045619Y-90511333D01*
X112140857Y-90558952D01*
X112188476Y-90606571D01*
X112236095Y-90701809D01*
X112236095Y-90939904D01*
X112188476Y-91035142D01*
X112140857Y-91082761D01*
X112045619Y-91130380D01*
X111759904Y-91130380D01*
X111664666Y-91082761D01*
X111617047Y-91035142D01*
X112664666Y-91130380D02*
X112664666Y-90130380D01*
X112759904Y-90749428D02*
X113045619Y-91130380D01*
X113045619Y-90463714D02*
X112664666Y-90844666D01*
X121213714Y-93856380D02*
X121832761Y-93856380D01*
X121499428Y-94237333D01*
X121642285Y-94237333D01*
X121737523Y-94284952D01*
X121785142Y-94332571D01*
X121832761Y-94427809D01*
X121832761Y-94665904D01*
X121785142Y-94761142D01*
X121737523Y-94808761D01*
X121642285Y-94856380D01*
X121356571Y-94856380D01*
X121261333Y-94808761D01*
X121213714Y-94761142D01*
X122166095Y-93856380D02*
X122785142Y-93856380D01*
X122451809Y-94237333D01*
X122594666Y-94237333D01*
X122689904Y-94284952D01*
X122737523Y-94332571D01*
X122785142Y-94427809D01*
X122785142Y-94665904D01*
X122737523Y-94761142D01*
X122689904Y-94808761D01*
X122594666Y-94856380D01*
X122308952Y-94856380D01*
X122213714Y-94808761D01*
X122166095Y-94761142D01*
X123213714Y-94856380D02*
X123213714Y-93856380D01*
X123308952Y-94475428D02*
X123594666Y-94856380D01*
X123594666Y-94189714D02*
X123213714Y-94570666D01*
X120999428Y-97226380D02*
X120666095Y-96750190D01*
X120428000Y-97226380D02*
X120428000Y-96226380D01*
X120808952Y-96226380D01*
X120904190Y-96274000D01*
X120951809Y-96321619D01*
X120999428Y-96416857D01*
X120999428Y-96559714D01*
X120951809Y-96654952D01*
X120904190Y-96702571D01*
X120808952Y-96750190D01*
X120428000Y-96750190D01*
X122094666Y-96226380D02*
X122713714Y-96226380D01*
X122380380Y-96607333D01*
X122523238Y-96607333D01*
X122618476Y-96654952D01*
X122666095Y-96702571D01*
X122713714Y-96797809D01*
X122713714Y-97035904D01*
X122666095Y-97131142D01*
X122618476Y-97178761D01*
X122523238Y-97226380D01*
X122237523Y-97226380D01*
X122142285Y-97178761D01*
X122094666Y-97131142D01*
X123047047Y-96226380D02*
X123666095Y-96226380D01*
X123332761Y-96607333D01*
X123475619Y-96607333D01*
X123570857Y-96654952D01*
X123618476Y-96702571D01*
X123666095Y-96797809D01*
X123666095Y-97035904D01*
X123618476Y-97131142D01*
X123570857Y-97178761D01*
X123475619Y-97226380D01*
X123189904Y-97226380D01*
X123094666Y-97178761D01*
X123047047Y-97131142D01*
X124094666Y-97226380D02*
X124094666Y-96226380D01*
X124189904Y-96845428D02*
X124475619Y-97226380D01*
X124475619Y-96559714D02*
X124094666Y-96940666D01*
X123547333Y-80895714D02*
X123547333Y-81562380D01*
X123309238Y-80514761D02*
X123071142Y-81229047D01*
X123690190Y-81229047D01*
X123975904Y-80562380D02*
X124642571Y-80562380D01*
X124214000Y-81562380D01*
X125214000Y-80562380D02*
X125309238Y-80562380D01*
X125404476Y-80610000D01*
X125452095Y-80657619D01*
X125499714Y-80752857D01*
X125547333Y-80943333D01*
X125547333Y-81181428D01*
X125499714Y-81371904D01*
X125452095Y-81467142D01*
X125404476Y-81514761D01*
X125309238Y-81562380D01*
X125214000Y-81562380D01*
X125118761Y-81514761D01*
X125071142Y-81467142D01*
X125023523Y-81371904D01*
X124975904Y-81181428D01*
X124975904Y-80943333D01*
X125023523Y-80752857D01*
X125071142Y-80657619D01*
X125118761Y-80610000D01*
X125214000Y-80562380D01*
X125975904Y-81562380D02*
X125975904Y-80562380D01*
X126071142Y-81181428D02*
X126356857Y-81562380D01*
X126356857Y-80895714D02*
X125975904Y-81276666D01*
X122809238Y-79192380D02*
X122475904Y-78716190D01*
X122237809Y-79192380D02*
X122237809Y-78192380D01*
X122618761Y-78192380D01*
X122714000Y-78240000D01*
X122761619Y-78287619D01*
X122809238Y-78382857D01*
X122809238Y-78525714D01*
X122761619Y-78620952D01*
X122714000Y-78668571D01*
X122618761Y-78716190D01*
X122237809Y-78716190D01*
X124428285Y-78525714D02*
X124428285Y-79192380D01*
X124190190Y-78144761D02*
X123952095Y-78859047D01*
X124571142Y-78859047D01*
X124856857Y-78192380D02*
X125523523Y-78192380D01*
X125094952Y-79192380D01*
X126094952Y-78192380D02*
X126190190Y-78192380D01*
X126285428Y-78240000D01*
X126333047Y-78287619D01*
X126380666Y-78382857D01*
X126428285Y-78573333D01*
X126428285Y-78811428D01*
X126380666Y-79001904D01*
X126333047Y-79097142D01*
X126285428Y-79144761D01*
X126190190Y-79192380D01*
X126094952Y-79192380D01*
X125999714Y-79144761D01*
X125952095Y-79097142D01*
X125904476Y-79001904D01*
X125856857Y-78811428D01*
X125856857Y-78573333D01*
X125904476Y-78382857D01*
X125952095Y-78287619D01*
X125999714Y-78240000D01*
X126094952Y-78192380D01*
X126856857Y-79192380D02*
X126856857Y-78192380D01*
X126952095Y-78811428D02*
X127237809Y-79192380D01*
X127237809Y-78525714D02*
X126856857Y-78906666D01*
X111355333Y-73107714D02*
X111355333Y-73774380D01*
X111117238Y-72726761D02*
X110879142Y-73441047D01*
X111498190Y-73441047D01*
X111783904Y-72774380D02*
X112450571Y-72774380D01*
X112022000Y-73774380D01*
X113022000Y-72774380D02*
X113117238Y-72774380D01*
X113212476Y-72822000D01*
X113260095Y-72869619D01*
X113307714Y-72964857D01*
X113355333Y-73155333D01*
X113355333Y-73393428D01*
X113307714Y-73583904D01*
X113260095Y-73679142D01*
X113212476Y-73726761D01*
X113117238Y-73774380D01*
X113022000Y-73774380D01*
X112926761Y-73726761D01*
X112879142Y-73679142D01*
X112831523Y-73583904D01*
X112783904Y-73393428D01*
X112783904Y-73155333D01*
X112831523Y-72964857D01*
X112879142Y-72869619D01*
X112926761Y-72822000D01*
X113022000Y-72774380D01*
X113783904Y-73774380D02*
X113783904Y-72774380D01*
X113879142Y-73393428D02*
X114164857Y-73774380D01*
X114164857Y-73107714D02*
X113783904Y-73488666D01*
X110617238Y-76144380D02*
X110283904Y-75668190D01*
X110045809Y-76144380D02*
X110045809Y-75144380D01*
X110426761Y-75144380D01*
X110522000Y-75192000D01*
X110569619Y-75239619D01*
X110617238Y-75334857D01*
X110617238Y-75477714D01*
X110569619Y-75572952D01*
X110522000Y-75620571D01*
X110426761Y-75668190D01*
X110045809Y-75668190D01*
X112236285Y-75477714D02*
X112236285Y-76144380D01*
X111998190Y-75096761D02*
X111760095Y-75811047D01*
X112379142Y-75811047D01*
X112664857Y-75144380D02*
X113331523Y-75144380D01*
X112902952Y-76144380D01*
X113902952Y-75144380D02*
X113998190Y-75144380D01*
X114093428Y-75192000D01*
X114141047Y-75239619D01*
X114188666Y-75334857D01*
X114236285Y-75525333D01*
X114236285Y-75763428D01*
X114188666Y-75953904D01*
X114141047Y-76049142D01*
X114093428Y-76096761D01*
X113998190Y-76144380D01*
X113902952Y-76144380D01*
X113807714Y-76096761D01*
X113760095Y-76049142D01*
X113712476Y-75953904D01*
X113664857Y-75763428D01*
X113664857Y-75525333D01*
X113712476Y-75334857D01*
X113760095Y-75239619D01*
X113807714Y-75192000D01*
X113902952Y-75144380D01*
X114664857Y-76144380D02*
X114664857Y-75144380D01*
X114760095Y-75763428D02*
X115045809Y-76144380D01*
X115045809Y-75477714D02*
X114664857Y-75858666D01*
X111355333Y-76155714D02*
X111355333Y-76822380D01*
X111117238Y-75774761D02*
X110879142Y-76489047D01*
X111498190Y-76489047D01*
X111783904Y-75822380D02*
X112450571Y-75822380D01*
X112022000Y-76822380D01*
X113022000Y-75822380D02*
X113117238Y-75822380D01*
X113212476Y-75870000D01*
X113260095Y-75917619D01*
X113307714Y-76012857D01*
X113355333Y-76203333D01*
X113355333Y-76441428D01*
X113307714Y-76631904D01*
X113260095Y-76727142D01*
X113212476Y-76774761D01*
X113117238Y-76822380D01*
X113022000Y-76822380D01*
X112926761Y-76774761D01*
X112879142Y-76727142D01*
X112831523Y-76631904D01*
X112783904Y-76441428D01*
X112783904Y-76203333D01*
X112831523Y-76012857D01*
X112879142Y-75917619D01*
X112926761Y-75870000D01*
X113022000Y-75822380D01*
X113783904Y-76822380D02*
X113783904Y-75822380D01*
X113879142Y-76441428D02*
X114164857Y-76822380D01*
X114164857Y-76155714D02*
X113783904Y-76536666D01*
X110617238Y-79192380D02*
X110283904Y-78716190D01*
X110045809Y-79192380D02*
X110045809Y-78192380D01*
X110426761Y-78192380D01*
X110522000Y-78240000D01*
X110569619Y-78287619D01*
X110617238Y-78382857D01*
X110617238Y-78525714D01*
X110569619Y-78620952D01*
X110522000Y-78668571D01*
X110426761Y-78716190D01*
X110045809Y-78716190D01*
X112236285Y-78525714D02*
X112236285Y-79192380D01*
X111998190Y-78144761D02*
X111760095Y-78859047D01*
X112379142Y-78859047D01*
X112664857Y-78192380D02*
X113331523Y-78192380D01*
X112902952Y-79192380D01*
X113902952Y-78192380D02*
X113998190Y-78192380D01*
X114093428Y-78240000D01*
X114141047Y-78287619D01*
X114188666Y-78382857D01*
X114236285Y-78573333D01*
X114236285Y-78811428D01*
X114188666Y-79001904D01*
X114141047Y-79097142D01*
X114093428Y-79144761D01*
X113998190Y-79192380D01*
X113902952Y-79192380D01*
X113807714Y-79144761D01*
X113760095Y-79097142D01*
X113712476Y-79001904D01*
X113664857Y-78811428D01*
X113664857Y-78573333D01*
X113712476Y-78382857D01*
X113760095Y-78287619D01*
X113807714Y-78240000D01*
X113902952Y-78192380D01*
X114664857Y-79192380D02*
X114664857Y-78192380D01*
X114760095Y-78811428D02*
X115045809Y-79192380D01*
X115045809Y-78525714D02*
X114664857Y-78906666D01*
X119605619Y-131468666D02*
X119558000Y-131421047D01*
X119510380Y-131325809D01*
X119510380Y-131087714D01*
X119558000Y-130992476D01*
X119605619Y-130944857D01*
X119700857Y-130897238D01*
X119796095Y-130897238D01*
X119938952Y-130944857D01*
X120510380Y-131516285D01*
X120510380Y-130897238D01*
X119510380Y-130278190D02*
X119510380Y-130182952D01*
X119558000Y-130087714D01*
X119605619Y-130040095D01*
X119700857Y-129992476D01*
X119891333Y-129944857D01*
X120129428Y-129944857D01*
X120319904Y-129992476D01*
X120415142Y-130040095D01*
X120462761Y-130087714D01*
X120510380Y-130182952D01*
X120510380Y-130278190D01*
X120462761Y-130373428D01*
X120415142Y-130421047D01*
X120319904Y-130468666D01*
X120129428Y-130516285D01*
X119891333Y-130516285D01*
X119700857Y-130468666D01*
X119605619Y-130421047D01*
X119558000Y-130373428D01*
X119510380Y-130278190D01*
X120510380Y-129516285D02*
X119510380Y-129516285D01*
X120129428Y-129421047D02*
X120510380Y-129135333D01*
X119843714Y-129135333D02*
X120224666Y-129516285D01*
X122880380Y-131730571D02*
X122404190Y-132063904D01*
X122880380Y-132302000D02*
X121880380Y-132302000D01*
X121880380Y-131921047D01*
X121928000Y-131825809D01*
X121975619Y-131778190D01*
X122070857Y-131730571D01*
X122213714Y-131730571D01*
X122308952Y-131778190D01*
X122356571Y-131825809D01*
X122404190Y-131921047D01*
X122404190Y-132302000D01*
X121975619Y-130587714D02*
X121928000Y-130540095D01*
X121880380Y-130444857D01*
X121880380Y-130206761D01*
X121928000Y-130111523D01*
X121975619Y-130063904D01*
X122070857Y-130016285D01*
X122166095Y-130016285D01*
X122308952Y-130063904D01*
X122880380Y-130635333D01*
X122880380Y-130016285D01*
X121880380Y-129397238D02*
X121880380Y-129302000D01*
X121928000Y-129206761D01*
X121975619Y-129159142D01*
X122070857Y-129111523D01*
X122261333Y-129063904D01*
X122499428Y-129063904D01*
X122689904Y-129111523D01*
X122785142Y-129159142D01*
X122832761Y-129206761D01*
X122880380Y-129302000D01*
X122880380Y-129397238D01*
X122832761Y-129492476D01*
X122785142Y-129540095D01*
X122689904Y-129587714D01*
X122499428Y-129635333D01*
X122261333Y-129635333D01*
X122070857Y-129587714D01*
X121975619Y-129540095D01*
X121928000Y-129492476D01*
X121880380Y-129397238D01*
X122880380Y-128635333D02*
X121880380Y-128635333D01*
X122499428Y-128540095D02*
X122880380Y-128254380D01*
X122213714Y-128254380D02*
X122594666Y-128635333D01*
X129782380Y-154860190D02*
X128782380Y-154860190D01*
X129258571Y-154860190D02*
X129258571Y-154288761D01*
X129782380Y-154288761D02*
X128782380Y-154288761D01*
X129258571Y-153812571D02*
X129258571Y-153479238D01*
X129782380Y-153336380D02*
X129782380Y-153812571D01*
X128782380Y-153812571D01*
X128782380Y-153336380D01*
X129496666Y-152955428D02*
X129496666Y-152479238D01*
X129782380Y-153050666D02*
X128782380Y-152717333D01*
X129782380Y-152384000D01*
X129782380Y-152050666D02*
X128782380Y-152050666D01*
X128782380Y-151812571D01*
X128830000Y-151669714D01*
X128925238Y-151574476D01*
X129020476Y-151526857D01*
X129210952Y-151479238D01*
X129353809Y-151479238D01*
X129544285Y-151526857D01*
X129639523Y-151574476D01*
X129734761Y-151669714D01*
X129782380Y-151812571D01*
X129782380Y-152050666D01*
X129258571Y-151050666D02*
X129258571Y-150717333D01*
X129782380Y-150574476D02*
X129782380Y-151050666D01*
X128782380Y-151050666D01*
X128782380Y-150574476D01*
X129782380Y-149574476D02*
X129306190Y-149907809D01*
X129782380Y-150145904D02*
X128782380Y-150145904D01*
X128782380Y-149764952D01*
X128830000Y-149669714D01*
X128877619Y-149622095D01*
X128972857Y-149574476D01*
X129115714Y-149574476D01*
X129210952Y-149622095D01*
X129258571Y-149669714D01*
X129306190Y-149764952D01*
X129306190Y-150145904D01*
X129877619Y-149384000D02*
X129877619Y-148622095D01*
X129115714Y-147955428D02*
X129782380Y-147955428D01*
X128734761Y-148193523D02*
X129449047Y-148431619D01*
X129449047Y-147812571D01*
X118618571Y-150884000D02*
X118523333Y-150836380D01*
X118380476Y-150836380D01*
X118237619Y-150884000D01*
X118142380Y-150979238D01*
X118094761Y-151074476D01*
X118047142Y-151264952D01*
X118047142Y-151407809D01*
X118094761Y-151598285D01*
X118142380Y-151693523D01*
X118237619Y-151788761D01*
X118380476Y-151836380D01*
X118475714Y-151836380D01*
X118618571Y-151788761D01*
X118666190Y-151741142D01*
X118666190Y-151407809D01*
X118475714Y-151407809D01*
X119094761Y-151836380D02*
X119094761Y-150836380D01*
X119666190Y-151836380D01*
X119666190Y-150836380D01*
X120142380Y-151836380D02*
X120142380Y-150836380D01*
X120380476Y-150836380D01*
X120523333Y-150884000D01*
X120618571Y-150979238D01*
X120666190Y-151074476D01*
X120713809Y-151264952D01*
X120713809Y-151407809D01*
X120666190Y-151598285D01*
X120618571Y-151693523D01*
X120523333Y-151788761D01*
X120380476Y-151836380D01*
X120142380Y-151836380D01*
X121190000Y-151788761D02*
X121190000Y-151836380D01*
X121142380Y-151931619D01*
X121094761Y-151979238D01*
X121570952Y-151788761D02*
X121713809Y-151836380D01*
X121951904Y-151836380D01*
X122047142Y-151788761D01*
X122094761Y-151741142D01*
X122142380Y-151645904D01*
X122142380Y-151550666D01*
X122094761Y-151455428D01*
X122047142Y-151407809D01*
X121951904Y-151360190D01*
X121761428Y-151312571D01*
X121666190Y-151264952D01*
X121618571Y-151217333D01*
X121570952Y-151122095D01*
X121570952Y-151026857D01*
X121618571Y-150931619D01*
X121666190Y-150884000D01*
X121761428Y-150836380D01*
X121999523Y-150836380D01*
X122142380Y-150884000D01*
X122951904Y-151788761D02*
X122856666Y-151836380D01*
X122666190Y-151836380D01*
X122570952Y-151788761D01*
X122523333Y-151693523D01*
X122523333Y-151312571D01*
X122570952Y-151217333D01*
X122666190Y-151169714D01*
X122856666Y-151169714D01*
X122951904Y-151217333D01*
X122999523Y-151312571D01*
X122999523Y-151407809D01*
X122523333Y-151503047D01*
X123570952Y-151836380D02*
X123475714Y-151788761D01*
X123428095Y-151693523D01*
X123428095Y-150836380D01*
X123999523Y-151788761D02*
X123999523Y-151836380D01*
X123951904Y-151931619D01*
X123904285Y-151979238D01*
X124428095Y-150836380D02*
X124428095Y-151645904D01*
X124475714Y-151741142D01*
X124523333Y-151788761D01*
X124618571Y-151836380D01*
X124809047Y-151836380D01*
X124904285Y-151788761D01*
X124951904Y-151741142D01*
X124999523Y-151645904D01*
X124999523Y-150836380D01*
X125475714Y-151169714D02*
X125475714Y-152169714D01*
X125475714Y-151217333D02*
X125570952Y-151169714D01*
X125761428Y-151169714D01*
X125856666Y-151217333D01*
X125904285Y-151264952D01*
X125951904Y-151360190D01*
X125951904Y-151645904D01*
X125904285Y-151741142D01*
X125856666Y-151788761D01*
X125761428Y-151836380D01*
X125570952Y-151836380D01*
X125475714Y-151788761D01*
X126428095Y-151788761D02*
X126428095Y-151836380D01*
X126380476Y-151931619D01*
X126332857Y-151979238D01*
X126856666Y-151836380D02*
X126856666Y-150836380D01*
X127094761Y-150836380D01*
X127237619Y-150884000D01*
X127332857Y-150979238D01*
X127380476Y-151074476D01*
X127428095Y-151264952D01*
X127428095Y-151407809D01*
X127380476Y-151598285D01*
X127332857Y-151693523D01*
X127237619Y-151788761D01*
X127094761Y-151836380D01*
X126856666Y-151836380D01*
X127856666Y-151169714D02*
X127856666Y-151836380D01*
X127856666Y-151264952D02*
X127904285Y-151217333D01*
X127999523Y-151169714D01*
X128142380Y-151169714D01*
X128237619Y-151217333D01*
X128285238Y-151312571D01*
X128285238Y-151836380D01*
X122075142Y-103669619D02*
X122122761Y-103622000D01*
X122218000Y-103574380D01*
X122456095Y-103574380D01*
X122551333Y-103622000D01*
X122598952Y-103669619D01*
X122646571Y-103764857D01*
X122646571Y-103860095D01*
X122598952Y-104002952D01*
X122027523Y-104574380D01*
X122646571Y-104574380D01*
X123027523Y-103669619D02*
X123075142Y-103622000D01*
X123170380Y-103574380D01*
X123408476Y-103574380D01*
X123503714Y-103622000D01*
X123551333Y-103669619D01*
X123598952Y-103764857D01*
X123598952Y-103860095D01*
X123551333Y-104002952D01*
X122979904Y-104574380D01*
X123598952Y-104574380D01*
X124027523Y-103907714D02*
X124027523Y-104907714D01*
X124027523Y-103955333D02*
X124122761Y-103907714D01*
X124313238Y-103907714D01*
X124408476Y-103955333D01*
X124456095Y-104002952D01*
X124503714Y-104098190D01*
X124503714Y-104383904D01*
X124456095Y-104479142D01*
X124408476Y-104526761D01*
X124313238Y-104574380D01*
X124122761Y-104574380D01*
X124027523Y-104526761D01*
X125265619Y-104050571D02*
X124932285Y-104050571D01*
X124932285Y-104574380D02*
X124932285Y-103574380D01*
X125408476Y-103574380D01*
D13*
X122732285Y-105900571D02*
X122760857Y-105872000D01*
X122818000Y-105843428D01*
X122960857Y-105843428D01*
X123018000Y-105872000D01*
X123046571Y-105900571D01*
X123075142Y-105957714D01*
X123075142Y-106014857D01*
X123046571Y-106100571D01*
X122703714Y-106443428D01*
X123075142Y-106443428D01*
X123303714Y-105900571D02*
X123332285Y-105872000D01*
X123389428Y-105843428D01*
X123532285Y-105843428D01*
X123589428Y-105872000D01*
X123618000Y-105900571D01*
X123646571Y-105957714D01*
X123646571Y-106014857D01*
X123618000Y-106100571D01*
X123275142Y-106443428D01*
X123646571Y-106443428D01*
X123903714Y-106043428D02*
X123903714Y-106643428D01*
X123903714Y-106072000D02*
X123960857Y-106043428D01*
X124075142Y-106043428D01*
X124132285Y-106072000D01*
X124160857Y-106100571D01*
X124189428Y-106157714D01*
X124189428Y-106329142D01*
X124160857Y-106386285D01*
X124132285Y-106414857D01*
X124075142Y-106443428D01*
X123960857Y-106443428D01*
X123903714Y-106414857D01*
X124646571Y-106129142D02*
X124446571Y-106129142D01*
X124446571Y-106443428D02*
X124446571Y-105843428D01*
X124732285Y-105843428D01*
D12*
X122075142Y-118909619D02*
X122122761Y-118862000D01*
X122218000Y-118814380D01*
X122456095Y-118814380D01*
X122551333Y-118862000D01*
X122598952Y-118909619D01*
X122646571Y-119004857D01*
X122646571Y-119100095D01*
X122598952Y-119242952D01*
X122027523Y-119814380D01*
X122646571Y-119814380D01*
X123027523Y-118909619D02*
X123075142Y-118862000D01*
X123170380Y-118814380D01*
X123408476Y-118814380D01*
X123503714Y-118862000D01*
X123551333Y-118909619D01*
X123598952Y-119004857D01*
X123598952Y-119100095D01*
X123551333Y-119242952D01*
X122979904Y-119814380D01*
X123598952Y-119814380D01*
X124027523Y-119147714D02*
X124027523Y-120147714D01*
X124027523Y-119195333D02*
X124122761Y-119147714D01*
X124313238Y-119147714D01*
X124408476Y-119195333D01*
X124456095Y-119242952D01*
X124503714Y-119338190D01*
X124503714Y-119623904D01*
X124456095Y-119719142D01*
X124408476Y-119766761D01*
X124313238Y-119814380D01*
X124122761Y-119814380D01*
X124027523Y-119766761D01*
X125265619Y-119290571D02*
X124932285Y-119290571D01*
X124932285Y-119814380D02*
X124932285Y-118814380D01*
X125408476Y-118814380D01*
D13*
X122732285Y-121140571D02*
X122760857Y-121112000D01*
X122818000Y-121083428D01*
X122960857Y-121083428D01*
X123018000Y-121112000D01*
X123046571Y-121140571D01*
X123075142Y-121197714D01*
X123075142Y-121254857D01*
X123046571Y-121340571D01*
X122703714Y-121683428D01*
X123075142Y-121683428D01*
X123303714Y-121140571D02*
X123332285Y-121112000D01*
X123389428Y-121083428D01*
X123532285Y-121083428D01*
X123589428Y-121112000D01*
X123618000Y-121140571D01*
X123646571Y-121197714D01*
X123646571Y-121254857D01*
X123618000Y-121340571D01*
X123275142Y-121683428D01*
X123646571Y-121683428D01*
X123903714Y-121283428D02*
X123903714Y-121883428D01*
X123903714Y-121312000D02*
X123960857Y-121283428D01*
X124075142Y-121283428D01*
X124132285Y-121312000D01*
X124160857Y-121340571D01*
X124189428Y-121397714D01*
X124189428Y-121569142D01*
X124160857Y-121626285D01*
X124132285Y-121654857D01*
X124075142Y-121683428D01*
X123960857Y-121683428D01*
X123903714Y-121654857D01*
X124646571Y-121369142D02*
X124446571Y-121369142D01*
X124446571Y-121683428D02*
X124446571Y-121083428D01*
X124732285Y-121083428D01*
M02*
