M48
; DRILL file {KiCad (5.1.0)-1} date 8/7/2021 11:50:37 PM
; FORMAT={-:-/ absolute / inch / decimal}
; #@! TF.CreationDate,2021-08-07T23:50:37-05:00
; #@! TF.GenerationSoftware,Kicad,Pcbnew,(5.1.0)-1
; #@! TF.FileFunction,Plated,1,2,PTH
FMAT,2
INCH
T1C0.0157
T2C0.0315
T3C0.0394
T4C0.0394
%
G90
G05
T1
X4.82Y-5.65
T2
X4.9Y-3.24
X5.0Y-3.24
X5.1Y-3.24
X4.67Y-3.81
X4.97Y-3.81
X4.52Y-2.55
X4.62Y-2.55
X4.72Y-2.55
X4.22Y-3.57
X4.52Y-3.57
X4.84Y-2.55
X4.94Y-2.55
X5.04Y-2.55
X4.28Y-3.1
X4.58Y-3.1
X4.18Y-3.41
X4.28Y-3.41
X4.38Y-3.41
X4.74Y-2.37
X4.84Y-2.37
X4.94Y-2.37
X4.76Y-3.1
X5.06Y-3.1
X4.82Y-4.98
X4.82Y-5.28
X4.76Y-2.98
X5.06Y-2.98
X4.8216Y-4.18
X4.92Y-4.18
X4.47Y-3.41
X4.57Y-3.41
X4.67Y-3.41
X4.22Y-3.81
X4.52Y-3.81
X4.87Y-4.38
X4.87Y-4.5729
X4.28Y-2.86
X4.58Y-2.86
X4.61Y-3.24
X4.71Y-3.24
X4.81Y-3.24
X5.07Y-4.82
X5.07Y-4.92
X5.07Y-5.02
X5.07Y-5.12
X5.07Y-5.22
X5.07Y-5.32
X5.07Y-5.42
X5.07Y-5.52
X5.07Y-5.62
X5.07Y-5.72
X5.37Y-4.82
X5.37Y-4.92
X5.37Y-5.02
X5.37Y-5.12
X5.37Y-5.22
X5.37Y-5.32
X5.37Y-5.42
X5.37Y-5.52
X5.37Y-5.62
X5.37Y-5.72
X4.22Y-3.69
X4.52Y-3.69
X4.3Y-5.53
X4.6Y-5.53
X4.8216Y-4.78
X4.92Y-4.78
X5.06Y-2.37
X5.16Y-2.37
X5.26Y-2.37
X4.42Y-2.37
X4.52Y-2.37
X4.62Y-2.37
X4.46Y-2.73
X4.56Y-2.73
X4.66Y-2.73
X4.76Y-2.73
X4.86Y-2.73
X4.96Y-2.73
X5.06Y-2.73
X4.76Y-2.86
X5.06Y-2.86
X4.67Y-3.69
X4.97Y-3.69
X4.3Y-5.41
X4.6Y-5.41
X5.07Y-3.95
X5.07Y-4.05
X5.07Y-4.15
X5.07Y-4.25
X5.07Y-4.35
X5.07Y-4.45
X5.07Y-4.55
X5.07Y-4.65
X5.37Y-3.95
X5.37Y-4.05
X5.37Y-4.15
X5.37Y-4.25
X5.37Y-4.35
X5.37Y-4.45
X5.37Y-4.55
X5.37Y-4.65
X4.67Y-3.57
X4.97Y-3.57
X4.28Y-2.98
X4.58Y-2.98
X4.76Y-3.41
X4.86Y-3.41
X4.96Y-3.41
X4.37Y-3.98
X4.37Y-4.08
X4.37Y-4.18
X4.37Y-4.28
X4.37Y-4.38
X4.37Y-4.48
X4.37Y-4.58
X4.37Y-4.68
X4.37Y-4.78
X4.37Y-4.88
X4.37Y-4.98
X4.37Y-5.08
X4.37Y-5.18
X4.37Y-5.28
X4.67Y-3.98
X4.67Y-4.08
X4.67Y-4.18
X4.67Y-4.28
X4.67Y-4.38
X4.67Y-4.48
X4.67Y-4.58
X4.67Y-4.68
X4.67Y-4.78
X4.67Y-4.88
X4.67Y-4.98
X4.67Y-5.08
X4.67Y-5.18
X4.67Y-5.28
X5.16Y-2.55
X5.26Y-2.55
X5.36Y-2.55
X4.32Y-3.24
X4.42Y-3.24
X4.52Y-3.24
T3
X4.7Y-5.96
X4.8Y-5.96
X4.9Y-5.96
X5.0Y-5.96
X5.27Y-2.86
X5.27Y-2.96
X5.27Y-3.06
X5.27Y-3.16
X5.27Y-3.26
X5.27Y-3.36
X5.27Y-3.46
X5.27Y-3.56
X5.37Y-2.86
X5.37Y-2.96
X5.37Y-3.06
X5.37Y-3.16
X5.37Y-3.26
X5.37Y-3.36
X5.37Y-3.46
X5.37Y-3.56
T4
X4.25Y-5.96
X4.35Y-5.96
X4.45Y-5.96
T0
M30
