G04 #@! TF.GenerationSoftware,KiCad,Pcbnew,(5.1.0)-1*
G04 #@! TF.CreationDate,2021-08-08T02:28:51-05:00*
G04 #@! TF.ProjectId,nixie_legacy-digit,6e697869-655f-46c6-9567-6163792d6469,rev?*
G04 #@! TF.SameCoordinates,Original*
G04 #@! TF.FileFunction,Copper,L2,Bot*
G04 #@! TF.FilePolarity,Positive*
%FSLAX46Y46*%
G04 Gerber Fmt 4.6, Leading zero omitted, Abs format (unit mm)*
G04 Created by KiCad (PCBNEW (5.1.0)-1) date 2021-08-08 02:28:51*
%MOMM*%
%LPD*%
G04 APERTURE LIST*
%ADD10C,0.300000*%
%ADD11C,1.524000*%
%ADD12O,1.600000X1.600000*%
%ADD13C,2.397760*%
%ADD14R,1.700000X1.700000*%
%ADD15O,1.700000X1.700000*%
%ADD16C,0.381000*%
%ADD17C,0.254000*%
G04 APERTURE END LIST*
D10*
X125431428Y-124630571D02*
X125431428Y-123130571D01*
X124574285Y-124630571D01*
X124574285Y-123130571D01*
X123860000Y-124630571D02*
X123860000Y-123630571D01*
X123860000Y-123130571D02*
X123931428Y-123202000D01*
X123860000Y-123273428D01*
X123788571Y-123202000D01*
X123860000Y-123130571D01*
X123860000Y-123273428D01*
X123288571Y-124630571D02*
X122502857Y-123630571D01*
X123288571Y-123630571D02*
X122502857Y-124630571D01*
X121931428Y-124630571D02*
X121931428Y-123630571D01*
X121931428Y-123130571D02*
X122002857Y-123202000D01*
X121931428Y-123273428D01*
X121860000Y-123202000D01*
X121931428Y-123130571D01*
X121931428Y-123273428D01*
X120645714Y-124559142D02*
X120788571Y-124630571D01*
X121074285Y-124630571D01*
X121217142Y-124559142D01*
X121288571Y-124416285D01*
X121288571Y-123844857D01*
X121217142Y-123702000D01*
X121074285Y-123630571D01*
X120788571Y-123630571D01*
X120645714Y-123702000D01*
X120574285Y-123844857D01*
X120574285Y-123987714D01*
X121288571Y-124130571D01*
X118145714Y-124630571D02*
X118145714Y-123130571D01*
X118145714Y-124559142D02*
X118288571Y-124630571D01*
X118574285Y-124630571D01*
X118717142Y-124559142D01*
X118788571Y-124487714D01*
X118860000Y-124344857D01*
X118860000Y-123916285D01*
X118788571Y-123773428D01*
X118717142Y-123702000D01*
X118574285Y-123630571D01*
X118288571Y-123630571D01*
X118145714Y-123702000D01*
X117431428Y-124630571D02*
X117431428Y-123630571D01*
X117431428Y-123130571D02*
X117502857Y-123202000D01*
X117431428Y-123273428D01*
X117360000Y-123202000D01*
X117431428Y-123130571D01*
X117431428Y-123273428D01*
X116074285Y-123630571D02*
X116074285Y-124844857D01*
X116145714Y-124987714D01*
X116217142Y-125059142D01*
X116360000Y-125130571D01*
X116574285Y-125130571D01*
X116717142Y-125059142D01*
X116074285Y-124559142D02*
X116217142Y-124630571D01*
X116502857Y-124630571D01*
X116645714Y-124559142D01*
X116717142Y-124487714D01*
X116788571Y-124344857D01*
X116788571Y-123916285D01*
X116717142Y-123773428D01*
X116645714Y-123702000D01*
X116502857Y-123630571D01*
X116217142Y-123630571D01*
X116074285Y-123702000D01*
X115360000Y-124630571D02*
X115360000Y-123630571D01*
X115360000Y-123130571D02*
X115431428Y-123202000D01*
X115360000Y-123273428D01*
X115288571Y-123202000D01*
X115360000Y-123130571D01*
X115360000Y-123273428D01*
X114860000Y-123630571D02*
X114288571Y-123630571D01*
X114645714Y-123130571D02*
X114645714Y-124416285D01*
X114574285Y-124559142D01*
X114431428Y-124630571D01*
X114288571Y-124630571D01*
X112788571Y-123630571D02*
X112431428Y-124630571D01*
X112074285Y-123630571D01*
X110717142Y-124630571D02*
X111574285Y-124630571D01*
X111145714Y-124630571D02*
X111145714Y-123130571D01*
X111288571Y-123344857D01*
X111431428Y-123487714D01*
X111574285Y-123559142D01*
D11*
X81534000Y-118618000D03*
D12*
X124714000Y-96520000D03*
X103886000Y-96520000D03*
D13*
X120048020Y-113718340D03*
X110302040Y-117218460D03*
X108551980Y-113718340D03*
X108551980Y-109220000D03*
X108551980Y-104721660D03*
X110302040Y-101221540D03*
X114300000Y-100220780D03*
X118297960Y-101221540D03*
X120048020Y-104721660D03*
X120048020Y-109220000D03*
X118297960Y-117218460D03*
X114300000Y-118219220D03*
X94648020Y-113718340D03*
X84902040Y-117218460D03*
X83151980Y-113718340D03*
X83151980Y-109220000D03*
X83151980Y-104721660D03*
X84902040Y-101221540D03*
X88900000Y-100220780D03*
X92897960Y-101221540D03*
X94648020Y-104721660D03*
X94648020Y-109220000D03*
X92897960Y-117218460D03*
X88900000Y-118219220D03*
D11*
X121920000Y-88900000D03*
X111760000Y-88900000D03*
X119380000Y-88900000D03*
X109220000Y-88900000D03*
X116840000Y-88900000D03*
X106680000Y-88900000D03*
D14*
X82804000Y-88900000D03*
D15*
X82804000Y-91440000D03*
X85344000Y-88900000D03*
X85344000Y-91440000D03*
X87884000Y-88900000D03*
X87884000Y-91440000D03*
X90424000Y-88900000D03*
X90424000Y-91440000D03*
X92964000Y-88900000D03*
X92964000Y-91440000D03*
X95504000Y-88900000D03*
X95504000Y-91440000D03*
X98044000Y-88900000D03*
X98044000Y-91440000D03*
X100584000Y-88900000D03*
X100584000Y-91440000D03*
D16*
X86100919Y-116019581D02*
X84902040Y-117218460D01*
X86804500Y-115316000D02*
X86100919Y-116019581D01*
X93726000Y-115316000D02*
X86804500Y-115316000D01*
X110302040Y-117218460D02*
X95628460Y-117218460D01*
X95628460Y-117218460D02*
X93726000Y-115316000D01*
X117602000Y-97790000D02*
X99314000Y-97790000D01*
X111997512Y-117218460D02*
X113645972Y-115570000D01*
X99314000Y-97790000D02*
X92964000Y-91440000D01*
X113645972Y-115570000D02*
X120904000Y-115570000D01*
X120904000Y-115570000D02*
X121920000Y-114554000D01*
X110302040Y-117218460D02*
X111997512Y-117218460D01*
X121920000Y-114554000D02*
X121920000Y-102108000D01*
X121920000Y-102108000D02*
X117602000Y-97790000D01*
X80518000Y-111084360D02*
X81953101Y-112519461D01*
X81953101Y-112519461D02*
X83151980Y-113718340D01*
X81607011Y-86794989D02*
X80518000Y-87884000D01*
X80518000Y-87884000D02*
X80518000Y-111084360D01*
X90858989Y-86794989D02*
X81607011Y-86794989D01*
X92964000Y-88900000D02*
X90858989Y-86794989D01*
X90424000Y-92642081D02*
X91186000Y-93404081D01*
X90424000Y-91440000D02*
X90424000Y-92642081D01*
X91186000Y-93404081D02*
X91186000Y-101185980D01*
X91186000Y-101185980D02*
X84350859Y-108021121D01*
X84350859Y-108021121D02*
X83151980Y-109220000D01*
X89574001Y-88050001D02*
X90424000Y-88900000D01*
X88900000Y-87376000D02*
X89574001Y-88050001D01*
X83151980Y-104721660D02*
X81244489Y-102814169D01*
X81244489Y-88056609D02*
X81925098Y-87376000D01*
X81925098Y-87376000D02*
X88900000Y-87376000D01*
X81244489Y-102814169D02*
X81244489Y-88056609D01*
X88733999Y-92289999D02*
X87884000Y-91440000D01*
X90489381Y-94045381D02*
X88733999Y-92289999D01*
X90489381Y-101026619D02*
X90489381Y-94045381D01*
X89154000Y-102362000D02*
X90489381Y-101026619D01*
X84902040Y-101221540D02*
X86042500Y-102362000D01*
X86042500Y-102362000D02*
X89154000Y-102362000D01*
X87034001Y-89749999D02*
X87884000Y-88900000D01*
X86584501Y-90199499D02*
X87034001Y-89749999D01*
X86584501Y-97905281D02*
X86584501Y-90199499D01*
X88900000Y-100220780D02*
X86584501Y-97905281D01*
X94096839Y-100022661D02*
X92897960Y-101221540D01*
X118297960Y-101221540D02*
X115447431Y-98371011D01*
X115447431Y-98371011D02*
X95748489Y-98371011D01*
X95748489Y-98371011D02*
X94096839Y-100022661D01*
X118849141Y-103522781D02*
X120048020Y-104721660D01*
X118458639Y-103132279D02*
X118849141Y-103522781D01*
X96237401Y-103132279D02*
X118458639Y-103132279D01*
X94648020Y-104721660D02*
X96237401Y-103132279D01*
X95846899Y-108021121D02*
X94648020Y-109220000D01*
X97537881Y-106330139D02*
X95846899Y-108021121D01*
X117158159Y-106330139D02*
X97537881Y-106330139D01*
X120048020Y-109220000D02*
X117158159Y-106330139D01*
X96343492Y-113718340D02*
X94648020Y-113718340D01*
X105229660Y-113718340D02*
X96343492Y-113718340D01*
X107188000Y-111760000D02*
X105229660Y-113718340D01*
X109982000Y-111760000D02*
X107188000Y-111760000D01*
X120048020Y-113718340D02*
X111940340Y-113718340D01*
X111940340Y-113718340D02*
X109982000Y-111760000D01*
X105017370Y-96520000D02*
X103886000Y-96520000D01*
X95821500Y-120142000D02*
X118364000Y-120142000D01*
X92897960Y-117218460D02*
X95821500Y-120142000D01*
X118364000Y-120142000D02*
X122936000Y-115570000D01*
X122936000Y-115570000D02*
X122936000Y-101600000D01*
X122936000Y-101600000D02*
X117856000Y-96520000D01*
X117856000Y-96520000D02*
X105017370Y-96520000D01*
D17*
G36*
X156777932Y-125603000D02*
G01*
X127647700Y-125603000D01*
X127647700Y-85121809D01*
X127650833Y-85090000D01*
X127638327Y-84963029D01*
X127601291Y-84840937D01*
X127541148Y-84728417D01*
X127460208Y-84629792D01*
X127361583Y-84548852D01*
X127249063Y-84488709D01*
X127126971Y-84451673D01*
X127031809Y-84442300D01*
X127031808Y-84442300D01*
X127000000Y-84439167D01*
X126968191Y-84442300D01*
X76231809Y-84442300D01*
X76200000Y-84439167D01*
X76168192Y-84442300D01*
X76168191Y-84442300D01*
X76073029Y-84451673D01*
X75950937Y-84488709D01*
X75838417Y-84548852D01*
X75739792Y-84629792D01*
X75658852Y-84728417D01*
X75598709Y-84840937D01*
X75561673Y-84963029D01*
X75549167Y-85090000D01*
X75552301Y-85121819D01*
X75552300Y-125603000D01*
X59601017Y-125603000D01*
X71980251Y-78865076D01*
X135807615Y-77598660D01*
X156777932Y-125603000D01*
X156777932Y-125603000D01*
G37*
X156777932Y-125603000D02*
X127647700Y-125603000D01*
X127647700Y-85121809D01*
X127650833Y-85090000D01*
X127638327Y-84963029D01*
X127601291Y-84840937D01*
X127541148Y-84728417D01*
X127460208Y-84629792D01*
X127361583Y-84548852D01*
X127249063Y-84488709D01*
X127126971Y-84451673D01*
X127031809Y-84442300D01*
X127031808Y-84442300D01*
X127000000Y-84439167D01*
X126968191Y-84442300D01*
X76231809Y-84442300D01*
X76200000Y-84439167D01*
X76168192Y-84442300D01*
X76168191Y-84442300D01*
X76073029Y-84451673D01*
X75950937Y-84488709D01*
X75838417Y-84548852D01*
X75739792Y-84629792D01*
X75658852Y-84728417D01*
X75598709Y-84840937D01*
X75561673Y-84963029D01*
X75549167Y-85090000D01*
X75552301Y-85121819D01*
X75552300Y-125603000D01*
X59601017Y-125603000D01*
X71980251Y-78865076D01*
X135807615Y-77598660D01*
X156777932Y-125603000D01*
G36*
X126352300Y-122162000D02*
G01*
X109646429Y-122162000D01*
X109646429Y-125603000D01*
X76847700Y-125603000D01*
X76847700Y-118480408D01*
X80137000Y-118480408D01*
X80137000Y-118755592D01*
X80190686Y-119025490D01*
X80295995Y-119279727D01*
X80448880Y-119508535D01*
X80643465Y-119703120D01*
X80872273Y-119856005D01*
X81126510Y-119961314D01*
X81396408Y-120015000D01*
X81671592Y-120015000D01*
X81941490Y-119961314D01*
X82195727Y-119856005D01*
X82424535Y-119703120D01*
X82619120Y-119508535D01*
X82772005Y-119279727D01*
X82877314Y-119025490D01*
X82931000Y-118755592D01*
X82931000Y-118480408D01*
X82877314Y-118210510D01*
X82772005Y-117956273D01*
X82619120Y-117727465D01*
X82424535Y-117532880D01*
X82195727Y-117379995D01*
X81941490Y-117274686D01*
X81671592Y-117221000D01*
X81396408Y-117221000D01*
X81126510Y-117274686D01*
X80872273Y-117379995D01*
X80643465Y-117532880D01*
X80448880Y-117727465D01*
X80295995Y-117956273D01*
X80190686Y-118210510D01*
X80137000Y-118480408D01*
X76847700Y-118480408D01*
X76847700Y-87884000D01*
X79688506Y-87884000D01*
X79692500Y-87924550D01*
X79692501Y-111043799D01*
X79688506Y-111084360D01*
X79704445Y-111246186D01*
X79751647Y-111401793D01*
X79828301Y-111545202D01*
X79889863Y-111620214D01*
X79931460Y-111670901D01*
X79962961Y-111696753D01*
X81398059Y-113131852D01*
X81398064Y-113131856D01*
X81406456Y-113140248D01*
X81388575Y-113183417D01*
X81318100Y-113537719D01*
X81318100Y-113898961D01*
X81388575Y-114253263D01*
X81526817Y-114587008D01*
X81727513Y-114887370D01*
X81982950Y-115142807D01*
X82283312Y-115343503D01*
X82617057Y-115481745D01*
X82971359Y-115552220D01*
X83332601Y-115552220D01*
X83686903Y-115481745D01*
X84020648Y-115343503D01*
X84321010Y-115142807D01*
X84576447Y-114887370D01*
X84777143Y-114587008D01*
X84915385Y-114253263D01*
X84985860Y-113898961D01*
X84985860Y-113537719D01*
X84915385Y-113183417D01*
X84777143Y-112849672D01*
X84576447Y-112549310D01*
X84321010Y-112293873D01*
X84020648Y-112093177D01*
X83686903Y-111954935D01*
X83332601Y-111884460D01*
X82971359Y-111884460D01*
X82617057Y-111954935D01*
X82573888Y-111972816D01*
X82565496Y-111964424D01*
X82565492Y-111964419D01*
X81343500Y-110742428D01*
X81343500Y-109528316D01*
X81388575Y-109754923D01*
X81526817Y-110088668D01*
X81727513Y-110389030D01*
X81982950Y-110644467D01*
X82283312Y-110845163D01*
X82617057Y-110983405D01*
X82971359Y-111053880D01*
X83332601Y-111053880D01*
X83686903Y-110983405D01*
X84020648Y-110845163D01*
X84321010Y-110644467D01*
X84576447Y-110389030D01*
X84777143Y-110088668D01*
X84915385Y-109754923D01*
X84985860Y-109400621D01*
X84985860Y-109039379D01*
X84960382Y-108911292D01*
X85765640Y-108911292D01*
X85765640Y-109528708D01*
X85886092Y-110134259D01*
X86122366Y-110704676D01*
X86465383Y-111218038D01*
X86901962Y-111654617D01*
X87415324Y-111997634D01*
X87985741Y-112233908D01*
X88591292Y-112354360D01*
X89208708Y-112354360D01*
X89814259Y-112233908D01*
X90384676Y-111997634D01*
X90898038Y-111654617D01*
X91334617Y-111218038D01*
X91677634Y-110704676D01*
X91913908Y-110134259D01*
X92034360Y-109528708D01*
X92034360Y-108911292D01*
X91913908Y-108305741D01*
X91677634Y-107735324D01*
X91334617Y-107221962D01*
X90898038Y-106785383D01*
X90384676Y-106442366D01*
X89814259Y-106206092D01*
X89208708Y-106085640D01*
X88591292Y-106085640D01*
X87985741Y-106206092D01*
X87415324Y-106442366D01*
X86901962Y-106785383D01*
X86465383Y-107221962D01*
X86122366Y-107735324D01*
X85886092Y-108305741D01*
X85765640Y-108911292D01*
X84960382Y-108911292D01*
X84915385Y-108685077D01*
X84897504Y-108641909D01*
X84963250Y-108576163D01*
X84963255Y-108576157D01*
X91343456Y-102195957D01*
X91473493Y-102390570D01*
X91728930Y-102646007D01*
X92029292Y-102846703D01*
X92363037Y-102984945D01*
X92717339Y-103055420D01*
X93078581Y-103055420D01*
X93432883Y-102984945D01*
X93766628Y-102846703D01*
X94066990Y-102646007D01*
X94322427Y-102390570D01*
X94523123Y-102090208D01*
X94661365Y-101756463D01*
X94731840Y-101402161D01*
X94731840Y-101040919D01*
X94661365Y-100686617D01*
X94643484Y-100643449D01*
X94709230Y-100577703D01*
X94709234Y-100577698D01*
X96090423Y-99196511D01*
X112778807Y-99196511D01*
X112674837Y-99352112D01*
X112536595Y-99685857D01*
X112466120Y-100040159D01*
X112466120Y-100401401D01*
X112536595Y-100755703D01*
X112674837Y-101089448D01*
X112875533Y-101389810D01*
X113130970Y-101645247D01*
X113431332Y-101845943D01*
X113765077Y-101984185D01*
X114119379Y-102054660D01*
X114480621Y-102054660D01*
X114834923Y-101984185D01*
X115168668Y-101845943D01*
X115469030Y-101645247D01*
X115724467Y-101389810D01*
X115925163Y-101089448D01*
X116063405Y-100755703D01*
X116133880Y-100401401D01*
X116133880Y-100224893D01*
X116552436Y-100643449D01*
X116534555Y-100686617D01*
X116464080Y-101040919D01*
X116464080Y-101402161D01*
X116534555Y-101756463D01*
X116672797Y-102090208D01*
X116817505Y-102306779D01*
X111782495Y-102306779D01*
X111927203Y-102090208D01*
X112065445Y-101756463D01*
X112135920Y-101402161D01*
X112135920Y-101040919D01*
X112065445Y-100686617D01*
X111927203Y-100352872D01*
X111726507Y-100052510D01*
X111471070Y-99797073D01*
X111170708Y-99596377D01*
X110836963Y-99458135D01*
X110482661Y-99387660D01*
X110121419Y-99387660D01*
X109767117Y-99458135D01*
X109433372Y-99596377D01*
X109133010Y-99797073D01*
X108877573Y-100052510D01*
X108676877Y-100352872D01*
X108538635Y-100686617D01*
X108468160Y-101040919D01*
X108468160Y-101402161D01*
X108538635Y-101756463D01*
X108676877Y-102090208D01*
X108821585Y-102306779D01*
X96277951Y-102306779D01*
X96237400Y-102302785D01*
X96196850Y-102306779D01*
X96196848Y-102306779D01*
X96075575Y-102318723D01*
X95919967Y-102365926D01*
X95776558Y-102442580D01*
X95714997Y-102493102D01*
X95650860Y-102545738D01*
X95625007Y-102577240D01*
X95226111Y-102976136D01*
X95182943Y-102958255D01*
X94828641Y-102887780D01*
X94467399Y-102887780D01*
X94113097Y-102958255D01*
X93779352Y-103096497D01*
X93478990Y-103297193D01*
X93223553Y-103552630D01*
X93022857Y-103852992D01*
X92884615Y-104186737D01*
X92814140Y-104541039D01*
X92814140Y-104902281D01*
X92884615Y-105256583D01*
X93022857Y-105590328D01*
X93223553Y-105890690D01*
X93478990Y-106146127D01*
X93779352Y-106346823D01*
X94113097Y-106485065D01*
X94467399Y-106555540D01*
X94828641Y-106555540D01*
X95182943Y-106485065D01*
X95516688Y-106346823D01*
X95817050Y-106146127D01*
X96072487Y-105890690D01*
X96273183Y-105590328D01*
X96411425Y-105256583D01*
X96481900Y-104902281D01*
X96481900Y-104541039D01*
X96411425Y-104186737D01*
X96393544Y-104143569D01*
X96579334Y-103957779D01*
X106883413Y-103957779D01*
X106788575Y-104186737D01*
X106718100Y-104541039D01*
X106718100Y-104902281D01*
X106788575Y-105256583D01*
X106891323Y-105504639D01*
X97578431Y-105504639D01*
X97537881Y-105500645D01*
X97497330Y-105504639D01*
X97497328Y-105504639D01*
X97376055Y-105516583D01*
X97220447Y-105563786D01*
X97077038Y-105640440D01*
X96982839Y-105717747D01*
X96982838Y-105717748D01*
X96951340Y-105743598D01*
X96925492Y-105775094D01*
X95291862Y-107408726D01*
X95291857Y-107408730D01*
X95226111Y-107474476D01*
X95182943Y-107456595D01*
X94828641Y-107386120D01*
X94467399Y-107386120D01*
X94113097Y-107456595D01*
X93779352Y-107594837D01*
X93478990Y-107795533D01*
X93223553Y-108050970D01*
X93022857Y-108351332D01*
X92884615Y-108685077D01*
X92814140Y-109039379D01*
X92814140Y-109400621D01*
X92884615Y-109754923D01*
X93022857Y-110088668D01*
X93223553Y-110389030D01*
X93478990Y-110644467D01*
X93779352Y-110845163D01*
X94113097Y-110983405D01*
X94467399Y-111053880D01*
X94828641Y-111053880D01*
X95182943Y-110983405D01*
X95516688Y-110845163D01*
X95817050Y-110644467D01*
X96072487Y-110389030D01*
X96273183Y-110088668D01*
X96411425Y-109754923D01*
X96481900Y-109400621D01*
X96481900Y-109039379D01*
X96411425Y-108685077D01*
X96393544Y-108641909D01*
X96459290Y-108576163D01*
X96459294Y-108576158D01*
X97879815Y-107155639D01*
X111931706Y-107155639D01*
X111865383Y-107221962D01*
X111522366Y-107735324D01*
X111286092Y-108305741D01*
X111165640Y-108911292D01*
X111165640Y-109528708D01*
X111286092Y-110134259D01*
X111522366Y-110704676D01*
X111865383Y-111218038D01*
X112301962Y-111654617D01*
X112815324Y-111997634D01*
X113385741Y-112233908D01*
X113991292Y-112354360D01*
X114608708Y-112354360D01*
X115214259Y-112233908D01*
X115784676Y-111997634D01*
X116298038Y-111654617D01*
X116734617Y-111218038D01*
X117077634Y-110704676D01*
X117313908Y-110134259D01*
X117434360Y-109528708D01*
X117434360Y-108911292D01*
X117313908Y-108305741D01*
X117077634Y-107735324D01*
X116734617Y-107221962D01*
X116668294Y-107155639D01*
X116816227Y-107155639D01*
X118302496Y-108641909D01*
X118284615Y-108685077D01*
X118214140Y-109039379D01*
X118214140Y-109400621D01*
X118284615Y-109754923D01*
X118422857Y-110088668D01*
X118623553Y-110389030D01*
X118878990Y-110644467D01*
X119179352Y-110845163D01*
X119513097Y-110983405D01*
X119867399Y-111053880D01*
X120228641Y-111053880D01*
X120582943Y-110983405D01*
X120916688Y-110845163D01*
X121094500Y-110726352D01*
X121094500Y-112211988D01*
X120916688Y-112093177D01*
X120582943Y-111954935D01*
X120228641Y-111884460D01*
X119867399Y-111884460D01*
X119513097Y-111954935D01*
X119179352Y-112093177D01*
X118878990Y-112293873D01*
X118623553Y-112549310D01*
X118422857Y-112849672D01*
X118404976Y-112892840D01*
X112282273Y-112892840D01*
X110594398Y-111204966D01*
X110568541Y-111173459D01*
X110442842Y-111070301D01*
X110299434Y-110993647D01*
X110143826Y-110946444D01*
X110022553Y-110934500D01*
X110022550Y-110934500D01*
X109982000Y-110930506D01*
X109941450Y-110934500D01*
X109204970Y-110934500D01*
X109420648Y-110845163D01*
X109721010Y-110644467D01*
X109976447Y-110389030D01*
X110177143Y-110088668D01*
X110315385Y-109754923D01*
X110385860Y-109400621D01*
X110385860Y-109039379D01*
X110315385Y-108685077D01*
X110177143Y-108351332D01*
X109976447Y-108050970D01*
X109721010Y-107795533D01*
X109420648Y-107594837D01*
X109086903Y-107456595D01*
X108732601Y-107386120D01*
X108371359Y-107386120D01*
X108017057Y-107456595D01*
X107683312Y-107594837D01*
X107382950Y-107795533D01*
X107127513Y-108050970D01*
X106926817Y-108351332D01*
X106788575Y-108685077D01*
X106718100Y-109039379D01*
X106718100Y-109400621D01*
X106788575Y-109754923D01*
X106926817Y-110088668D01*
X107127513Y-110389030D01*
X107382950Y-110644467D01*
X107683312Y-110845163D01*
X107898990Y-110934500D01*
X107228550Y-110934500D01*
X107188000Y-110930506D01*
X107147449Y-110934500D01*
X107147447Y-110934500D01*
X107026174Y-110946444D01*
X106870566Y-110993647D01*
X106727157Y-111070301D01*
X106665596Y-111120823D01*
X106601459Y-111173459D01*
X106575606Y-111204961D01*
X104887728Y-112892840D01*
X96291064Y-112892840D01*
X96273183Y-112849672D01*
X96072487Y-112549310D01*
X95817050Y-112293873D01*
X95516688Y-112093177D01*
X95182943Y-111954935D01*
X94828641Y-111884460D01*
X94467399Y-111884460D01*
X94113097Y-111954935D01*
X93779352Y-112093177D01*
X93478990Y-112293873D01*
X93223553Y-112549310D01*
X93022857Y-112849672D01*
X92884615Y-113183417D01*
X92814140Y-113537719D01*
X92814140Y-113898961D01*
X92884615Y-114253263D01*
X92982882Y-114490500D01*
X86845050Y-114490500D01*
X86804500Y-114486506D01*
X86763949Y-114490500D01*
X86763947Y-114490500D01*
X86642674Y-114502444D01*
X86506209Y-114543840D01*
X86487066Y-114549647D01*
X86343657Y-114626301D01*
X86249458Y-114703608D01*
X86249457Y-114703609D01*
X86217959Y-114729459D01*
X86192110Y-114760956D01*
X85545882Y-115407186D01*
X85545877Y-115407190D01*
X85480131Y-115472936D01*
X85436963Y-115455055D01*
X85082661Y-115384580D01*
X84721419Y-115384580D01*
X84367117Y-115455055D01*
X84033372Y-115593297D01*
X83733010Y-115793993D01*
X83477573Y-116049430D01*
X83276877Y-116349792D01*
X83138635Y-116683537D01*
X83068160Y-117037839D01*
X83068160Y-117399081D01*
X83138635Y-117753383D01*
X83276877Y-118087128D01*
X83477573Y-118387490D01*
X83733010Y-118642927D01*
X84033372Y-118843623D01*
X84367117Y-118981865D01*
X84721419Y-119052340D01*
X85082661Y-119052340D01*
X85436963Y-118981865D01*
X85770708Y-118843623D01*
X86071070Y-118642927D01*
X86326507Y-118387490D01*
X86527203Y-118087128D01*
X86547304Y-118038599D01*
X87066120Y-118038599D01*
X87066120Y-118399841D01*
X87136595Y-118754143D01*
X87274837Y-119087888D01*
X87475533Y-119388250D01*
X87730970Y-119643687D01*
X88031332Y-119844383D01*
X88365077Y-119982625D01*
X88719379Y-120053100D01*
X89080621Y-120053100D01*
X89434923Y-119982625D01*
X89768668Y-119844383D01*
X90069030Y-119643687D01*
X90324467Y-119388250D01*
X90525163Y-119087888D01*
X90663405Y-118754143D01*
X90733880Y-118399841D01*
X90733880Y-118038599D01*
X90663405Y-117684297D01*
X90525163Y-117350552D01*
X90324467Y-117050190D01*
X90069030Y-116794753D01*
X89768668Y-116594057D01*
X89434923Y-116455815D01*
X89080621Y-116385340D01*
X88719379Y-116385340D01*
X88365077Y-116455815D01*
X88031332Y-116594057D01*
X87730970Y-116794753D01*
X87475533Y-117050190D01*
X87274837Y-117350552D01*
X87136595Y-117684297D01*
X87066120Y-118038599D01*
X86547304Y-118038599D01*
X86665445Y-117753383D01*
X86735920Y-117399081D01*
X86735920Y-117037839D01*
X86665445Y-116683537D01*
X86647564Y-116640369D01*
X86713310Y-116574623D01*
X86713314Y-116574618D01*
X87146433Y-116141500D01*
X91411974Y-116141500D01*
X91272797Y-116349792D01*
X91134555Y-116683537D01*
X91064080Y-117037839D01*
X91064080Y-117399081D01*
X91134555Y-117753383D01*
X91272797Y-118087128D01*
X91473493Y-118387490D01*
X91728930Y-118642927D01*
X92029292Y-118843623D01*
X92363037Y-118981865D01*
X92717339Y-119052340D01*
X93078581Y-119052340D01*
X93432883Y-118981865D01*
X93476051Y-118963984D01*
X95209111Y-120697045D01*
X95234959Y-120728541D01*
X95266455Y-120754389D01*
X95266458Y-120754392D01*
X95360657Y-120831699D01*
X95504066Y-120908353D01*
X95659674Y-120955556D01*
X95780947Y-120967500D01*
X95780949Y-120967500D01*
X95821500Y-120971494D01*
X95862050Y-120967500D01*
X118323450Y-120967500D01*
X118364000Y-120971494D01*
X118404550Y-120967500D01*
X118404553Y-120967500D01*
X118525826Y-120955556D01*
X118681434Y-120908353D01*
X118824842Y-120831699D01*
X118950541Y-120728541D01*
X118976398Y-120697034D01*
X123491042Y-116182391D01*
X123522541Y-116156541D01*
X123625699Y-116030842D01*
X123702353Y-115887434D01*
X123749556Y-115731826D01*
X123761500Y-115610553D01*
X123761500Y-115610544D01*
X123765493Y-115570001D01*
X123761500Y-115529458D01*
X123761500Y-101640550D01*
X123765494Y-101600000D01*
X123760416Y-101548444D01*
X123749556Y-101438174D01*
X123702353Y-101282566D01*
X123700183Y-101278506D01*
X123625699Y-101139157D01*
X123548392Y-101044958D01*
X123548389Y-101044955D01*
X123522541Y-101013459D01*
X123491045Y-100987611D01*
X119023433Y-96520000D01*
X123272057Y-96520000D01*
X123299764Y-96801309D01*
X123381818Y-97071808D01*
X123515068Y-97321101D01*
X123694392Y-97539608D01*
X123912899Y-97718932D01*
X124162192Y-97852182D01*
X124432691Y-97934236D01*
X124643508Y-97955000D01*
X124784492Y-97955000D01*
X124995309Y-97934236D01*
X125265808Y-97852182D01*
X125515101Y-97718932D01*
X125733608Y-97539608D01*
X125912932Y-97321101D01*
X126046182Y-97071808D01*
X126128236Y-96801309D01*
X126155943Y-96520000D01*
X126128236Y-96238691D01*
X126046182Y-95968192D01*
X125912932Y-95718899D01*
X125733608Y-95500392D01*
X125515101Y-95321068D01*
X125265808Y-95187818D01*
X124995309Y-95105764D01*
X124784492Y-95085000D01*
X124643508Y-95085000D01*
X124432691Y-95105764D01*
X124162192Y-95187818D01*
X123912899Y-95321068D01*
X123694392Y-95500392D01*
X123515068Y-95718899D01*
X123381818Y-95968192D01*
X123299764Y-96238691D01*
X123272057Y-96520000D01*
X119023433Y-96520000D01*
X118468398Y-95964966D01*
X118442541Y-95933459D01*
X118316842Y-95830301D01*
X118173434Y-95753647D01*
X118017826Y-95706444D01*
X117896553Y-95694500D01*
X117896550Y-95694500D01*
X117856000Y-95690506D01*
X117815450Y-95694500D01*
X105064908Y-95694500D01*
X104905608Y-95500392D01*
X104687101Y-95321068D01*
X104437808Y-95187818D01*
X104167309Y-95105764D01*
X103956492Y-95085000D01*
X103815508Y-95085000D01*
X103604691Y-95105764D01*
X103334192Y-95187818D01*
X103084899Y-95321068D01*
X102866392Y-95500392D01*
X102687068Y-95718899D01*
X102553818Y-95968192D01*
X102471764Y-96238691D01*
X102444057Y-96520000D01*
X102471764Y-96801309D01*
X102521267Y-96964500D01*
X99655933Y-96964500D01*
X95612892Y-92921460D01*
X95795111Y-92903513D01*
X96075034Y-92818599D01*
X96333014Y-92680706D01*
X96559134Y-92495134D01*
X96744706Y-92269014D01*
X96774000Y-92214209D01*
X96803294Y-92269014D01*
X96988866Y-92495134D01*
X97214986Y-92680706D01*
X97472966Y-92818599D01*
X97752889Y-92903513D01*
X97971050Y-92925000D01*
X98116950Y-92925000D01*
X98335111Y-92903513D01*
X98615034Y-92818599D01*
X98873014Y-92680706D01*
X99099134Y-92495134D01*
X99284706Y-92269014D01*
X99314000Y-92214209D01*
X99343294Y-92269014D01*
X99528866Y-92495134D01*
X99754986Y-92680706D01*
X100012966Y-92818599D01*
X100292889Y-92903513D01*
X100511050Y-92925000D01*
X100656950Y-92925000D01*
X100875111Y-92903513D01*
X101155034Y-92818599D01*
X101413014Y-92680706D01*
X101639134Y-92495134D01*
X101824706Y-92269014D01*
X101962599Y-92011034D01*
X102047513Y-91731111D01*
X102076185Y-91440000D01*
X102047513Y-91148889D01*
X101962599Y-90868966D01*
X101824706Y-90610986D01*
X101639134Y-90384866D01*
X101413014Y-90199294D01*
X101358209Y-90170000D01*
X101413014Y-90140706D01*
X101639134Y-89955134D01*
X101824706Y-89729014D01*
X101962599Y-89471034D01*
X102047513Y-89191111D01*
X102076185Y-88900000D01*
X102062634Y-88762408D01*
X105283000Y-88762408D01*
X105283000Y-89037592D01*
X105336686Y-89307490D01*
X105441995Y-89561727D01*
X105594880Y-89790535D01*
X105789465Y-89985120D01*
X106018273Y-90138005D01*
X106272510Y-90243314D01*
X106542408Y-90297000D01*
X106817592Y-90297000D01*
X107087490Y-90243314D01*
X107341727Y-90138005D01*
X107570535Y-89985120D01*
X107765120Y-89790535D01*
X107918005Y-89561727D01*
X107950000Y-89484485D01*
X107981995Y-89561727D01*
X108134880Y-89790535D01*
X108329465Y-89985120D01*
X108558273Y-90138005D01*
X108812510Y-90243314D01*
X109082408Y-90297000D01*
X109357592Y-90297000D01*
X109627490Y-90243314D01*
X109881727Y-90138005D01*
X110110535Y-89985120D01*
X110305120Y-89790535D01*
X110458005Y-89561727D01*
X110490000Y-89484485D01*
X110521995Y-89561727D01*
X110674880Y-89790535D01*
X110869465Y-89985120D01*
X111098273Y-90138005D01*
X111352510Y-90243314D01*
X111622408Y-90297000D01*
X111897592Y-90297000D01*
X112167490Y-90243314D01*
X112421727Y-90138005D01*
X112650535Y-89985120D01*
X112845120Y-89790535D01*
X112998005Y-89561727D01*
X113103314Y-89307490D01*
X113157000Y-89037592D01*
X113157000Y-88762408D01*
X115443000Y-88762408D01*
X115443000Y-89037592D01*
X115496686Y-89307490D01*
X115601995Y-89561727D01*
X115754880Y-89790535D01*
X115949465Y-89985120D01*
X116178273Y-90138005D01*
X116432510Y-90243314D01*
X116702408Y-90297000D01*
X116977592Y-90297000D01*
X117247490Y-90243314D01*
X117501727Y-90138005D01*
X117730535Y-89985120D01*
X117925120Y-89790535D01*
X118078005Y-89561727D01*
X118110000Y-89484485D01*
X118141995Y-89561727D01*
X118294880Y-89790535D01*
X118489465Y-89985120D01*
X118718273Y-90138005D01*
X118972510Y-90243314D01*
X119242408Y-90297000D01*
X119517592Y-90297000D01*
X119787490Y-90243314D01*
X120041727Y-90138005D01*
X120270535Y-89985120D01*
X120465120Y-89790535D01*
X120618005Y-89561727D01*
X120650000Y-89484485D01*
X120681995Y-89561727D01*
X120834880Y-89790535D01*
X121029465Y-89985120D01*
X121258273Y-90138005D01*
X121512510Y-90243314D01*
X121782408Y-90297000D01*
X122057592Y-90297000D01*
X122327490Y-90243314D01*
X122581727Y-90138005D01*
X122810535Y-89985120D01*
X123005120Y-89790535D01*
X123158005Y-89561727D01*
X123263314Y-89307490D01*
X123317000Y-89037592D01*
X123317000Y-88762408D01*
X123263314Y-88492510D01*
X123158005Y-88238273D01*
X123005120Y-88009465D01*
X122810535Y-87814880D01*
X122581727Y-87661995D01*
X122327490Y-87556686D01*
X122057592Y-87503000D01*
X121782408Y-87503000D01*
X121512510Y-87556686D01*
X121258273Y-87661995D01*
X121029465Y-87814880D01*
X120834880Y-88009465D01*
X120681995Y-88238273D01*
X120650000Y-88315515D01*
X120618005Y-88238273D01*
X120465120Y-88009465D01*
X120270535Y-87814880D01*
X120041727Y-87661995D01*
X119787490Y-87556686D01*
X119517592Y-87503000D01*
X119242408Y-87503000D01*
X118972510Y-87556686D01*
X118718273Y-87661995D01*
X118489465Y-87814880D01*
X118294880Y-88009465D01*
X118141995Y-88238273D01*
X118110000Y-88315515D01*
X118078005Y-88238273D01*
X117925120Y-88009465D01*
X117730535Y-87814880D01*
X117501727Y-87661995D01*
X117247490Y-87556686D01*
X116977592Y-87503000D01*
X116702408Y-87503000D01*
X116432510Y-87556686D01*
X116178273Y-87661995D01*
X115949465Y-87814880D01*
X115754880Y-88009465D01*
X115601995Y-88238273D01*
X115496686Y-88492510D01*
X115443000Y-88762408D01*
X113157000Y-88762408D01*
X113103314Y-88492510D01*
X112998005Y-88238273D01*
X112845120Y-88009465D01*
X112650535Y-87814880D01*
X112421727Y-87661995D01*
X112167490Y-87556686D01*
X111897592Y-87503000D01*
X111622408Y-87503000D01*
X111352510Y-87556686D01*
X111098273Y-87661995D01*
X110869465Y-87814880D01*
X110674880Y-88009465D01*
X110521995Y-88238273D01*
X110490000Y-88315515D01*
X110458005Y-88238273D01*
X110305120Y-88009465D01*
X110110535Y-87814880D01*
X109881727Y-87661995D01*
X109627490Y-87556686D01*
X109357592Y-87503000D01*
X109082408Y-87503000D01*
X108812510Y-87556686D01*
X108558273Y-87661995D01*
X108329465Y-87814880D01*
X108134880Y-88009465D01*
X107981995Y-88238273D01*
X107950000Y-88315515D01*
X107918005Y-88238273D01*
X107765120Y-88009465D01*
X107570535Y-87814880D01*
X107341727Y-87661995D01*
X107087490Y-87556686D01*
X106817592Y-87503000D01*
X106542408Y-87503000D01*
X106272510Y-87556686D01*
X106018273Y-87661995D01*
X105789465Y-87814880D01*
X105594880Y-88009465D01*
X105441995Y-88238273D01*
X105336686Y-88492510D01*
X105283000Y-88762408D01*
X102062634Y-88762408D01*
X102047513Y-88608889D01*
X101962599Y-88328966D01*
X101824706Y-88070986D01*
X101639134Y-87844866D01*
X101413014Y-87659294D01*
X101155034Y-87521401D01*
X100875111Y-87436487D01*
X100656950Y-87415000D01*
X100511050Y-87415000D01*
X100292889Y-87436487D01*
X100012966Y-87521401D01*
X99754986Y-87659294D01*
X99528866Y-87844866D01*
X99343294Y-88070986D01*
X99314000Y-88125791D01*
X99284706Y-88070986D01*
X99099134Y-87844866D01*
X98873014Y-87659294D01*
X98615034Y-87521401D01*
X98335111Y-87436487D01*
X98116950Y-87415000D01*
X97971050Y-87415000D01*
X97752889Y-87436487D01*
X97472966Y-87521401D01*
X97214986Y-87659294D01*
X96988866Y-87844866D01*
X96803294Y-88070986D01*
X96774000Y-88125791D01*
X96744706Y-88070986D01*
X96559134Y-87844866D01*
X96333014Y-87659294D01*
X96075034Y-87521401D01*
X95795111Y-87436487D01*
X95576950Y-87415000D01*
X95431050Y-87415000D01*
X95212889Y-87436487D01*
X94932966Y-87521401D01*
X94674986Y-87659294D01*
X94448866Y-87844866D01*
X94263294Y-88070986D01*
X94234000Y-88125791D01*
X94204706Y-88070986D01*
X94019134Y-87844866D01*
X93793014Y-87659294D01*
X93535034Y-87521401D01*
X93255111Y-87436487D01*
X93036950Y-87415000D01*
X92891050Y-87415000D01*
X92672889Y-87436487D01*
X92669076Y-87437644D01*
X91471387Y-86239955D01*
X91445530Y-86208448D01*
X91319831Y-86105290D01*
X91176423Y-86028636D01*
X91020815Y-85981433D01*
X90899542Y-85969489D01*
X90899539Y-85969489D01*
X90858989Y-85965495D01*
X90818439Y-85969489D01*
X81647561Y-85969489D01*
X81607010Y-85965495D01*
X81566460Y-85969489D01*
X81566458Y-85969489D01*
X81445185Y-85981433D01*
X81289577Y-86028636D01*
X81146168Y-86105290D01*
X81084607Y-86155812D01*
X81020470Y-86208448D01*
X80994617Y-86239950D01*
X79962966Y-87271602D01*
X79931459Y-87297459D01*
X79888316Y-87350030D01*
X79828301Y-87423158D01*
X79767009Y-87537827D01*
X79751647Y-87566567D01*
X79704444Y-87722175D01*
X79692500Y-87843447D01*
X79688506Y-87884000D01*
X76847700Y-87884000D01*
X76847700Y-85737700D01*
X126352300Y-85737700D01*
X126352300Y-122162000D01*
X126352300Y-122162000D01*
G37*
X126352300Y-122162000D02*
X109646429Y-122162000D01*
X109646429Y-125603000D01*
X76847700Y-125603000D01*
X76847700Y-118480408D01*
X80137000Y-118480408D01*
X80137000Y-118755592D01*
X80190686Y-119025490D01*
X80295995Y-119279727D01*
X80448880Y-119508535D01*
X80643465Y-119703120D01*
X80872273Y-119856005D01*
X81126510Y-119961314D01*
X81396408Y-120015000D01*
X81671592Y-120015000D01*
X81941490Y-119961314D01*
X82195727Y-119856005D01*
X82424535Y-119703120D01*
X82619120Y-119508535D01*
X82772005Y-119279727D01*
X82877314Y-119025490D01*
X82931000Y-118755592D01*
X82931000Y-118480408D01*
X82877314Y-118210510D01*
X82772005Y-117956273D01*
X82619120Y-117727465D01*
X82424535Y-117532880D01*
X82195727Y-117379995D01*
X81941490Y-117274686D01*
X81671592Y-117221000D01*
X81396408Y-117221000D01*
X81126510Y-117274686D01*
X80872273Y-117379995D01*
X80643465Y-117532880D01*
X80448880Y-117727465D01*
X80295995Y-117956273D01*
X80190686Y-118210510D01*
X80137000Y-118480408D01*
X76847700Y-118480408D01*
X76847700Y-87884000D01*
X79688506Y-87884000D01*
X79692500Y-87924550D01*
X79692501Y-111043799D01*
X79688506Y-111084360D01*
X79704445Y-111246186D01*
X79751647Y-111401793D01*
X79828301Y-111545202D01*
X79889863Y-111620214D01*
X79931460Y-111670901D01*
X79962961Y-111696753D01*
X81398059Y-113131852D01*
X81398064Y-113131856D01*
X81406456Y-113140248D01*
X81388575Y-113183417D01*
X81318100Y-113537719D01*
X81318100Y-113898961D01*
X81388575Y-114253263D01*
X81526817Y-114587008D01*
X81727513Y-114887370D01*
X81982950Y-115142807D01*
X82283312Y-115343503D01*
X82617057Y-115481745D01*
X82971359Y-115552220D01*
X83332601Y-115552220D01*
X83686903Y-115481745D01*
X84020648Y-115343503D01*
X84321010Y-115142807D01*
X84576447Y-114887370D01*
X84777143Y-114587008D01*
X84915385Y-114253263D01*
X84985860Y-113898961D01*
X84985860Y-113537719D01*
X84915385Y-113183417D01*
X84777143Y-112849672D01*
X84576447Y-112549310D01*
X84321010Y-112293873D01*
X84020648Y-112093177D01*
X83686903Y-111954935D01*
X83332601Y-111884460D01*
X82971359Y-111884460D01*
X82617057Y-111954935D01*
X82573888Y-111972816D01*
X82565496Y-111964424D01*
X82565492Y-111964419D01*
X81343500Y-110742428D01*
X81343500Y-109528316D01*
X81388575Y-109754923D01*
X81526817Y-110088668D01*
X81727513Y-110389030D01*
X81982950Y-110644467D01*
X82283312Y-110845163D01*
X82617057Y-110983405D01*
X82971359Y-111053880D01*
X83332601Y-111053880D01*
X83686903Y-110983405D01*
X84020648Y-110845163D01*
X84321010Y-110644467D01*
X84576447Y-110389030D01*
X84777143Y-110088668D01*
X84915385Y-109754923D01*
X84985860Y-109400621D01*
X84985860Y-109039379D01*
X84960382Y-108911292D01*
X85765640Y-108911292D01*
X85765640Y-109528708D01*
X85886092Y-110134259D01*
X86122366Y-110704676D01*
X86465383Y-111218038D01*
X86901962Y-111654617D01*
X87415324Y-111997634D01*
X87985741Y-112233908D01*
X88591292Y-112354360D01*
X89208708Y-112354360D01*
X89814259Y-112233908D01*
X90384676Y-111997634D01*
X90898038Y-111654617D01*
X91334617Y-111218038D01*
X91677634Y-110704676D01*
X91913908Y-110134259D01*
X92034360Y-109528708D01*
X92034360Y-108911292D01*
X91913908Y-108305741D01*
X91677634Y-107735324D01*
X91334617Y-107221962D01*
X90898038Y-106785383D01*
X90384676Y-106442366D01*
X89814259Y-106206092D01*
X89208708Y-106085640D01*
X88591292Y-106085640D01*
X87985741Y-106206092D01*
X87415324Y-106442366D01*
X86901962Y-106785383D01*
X86465383Y-107221962D01*
X86122366Y-107735324D01*
X85886092Y-108305741D01*
X85765640Y-108911292D01*
X84960382Y-108911292D01*
X84915385Y-108685077D01*
X84897504Y-108641909D01*
X84963250Y-108576163D01*
X84963255Y-108576157D01*
X91343456Y-102195957D01*
X91473493Y-102390570D01*
X91728930Y-102646007D01*
X92029292Y-102846703D01*
X92363037Y-102984945D01*
X92717339Y-103055420D01*
X93078581Y-103055420D01*
X93432883Y-102984945D01*
X93766628Y-102846703D01*
X94066990Y-102646007D01*
X94322427Y-102390570D01*
X94523123Y-102090208D01*
X94661365Y-101756463D01*
X94731840Y-101402161D01*
X94731840Y-101040919D01*
X94661365Y-100686617D01*
X94643484Y-100643449D01*
X94709230Y-100577703D01*
X94709234Y-100577698D01*
X96090423Y-99196511D01*
X112778807Y-99196511D01*
X112674837Y-99352112D01*
X112536595Y-99685857D01*
X112466120Y-100040159D01*
X112466120Y-100401401D01*
X112536595Y-100755703D01*
X112674837Y-101089448D01*
X112875533Y-101389810D01*
X113130970Y-101645247D01*
X113431332Y-101845943D01*
X113765077Y-101984185D01*
X114119379Y-102054660D01*
X114480621Y-102054660D01*
X114834923Y-101984185D01*
X115168668Y-101845943D01*
X115469030Y-101645247D01*
X115724467Y-101389810D01*
X115925163Y-101089448D01*
X116063405Y-100755703D01*
X116133880Y-100401401D01*
X116133880Y-100224893D01*
X116552436Y-100643449D01*
X116534555Y-100686617D01*
X116464080Y-101040919D01*
X116464080Y-101402161D01*
X116534555Y-101756463D01*
X116672797Y-102090208D01*
X116817505Y-102306779D01*
X111782495Y-102306779D01*
X111927203Y-102090208D01*
X112065445Y-101756463D01*
X112135920Y-101402161D01*
X112135920Y-101040919D01*
X112065445Y-100686617D01*
X111927203Y-100352872D01*
X111726507Y-100052510D01*
X111471070Y-99797073D01*
X111170708Y-99596377D01*
X110836963Y-99458135D01*
X110482661Y-99387660D01*
X110121419Y-99387660D01*
X109767117Y-99458135D01*
X109433372Y-99596377D01*
X109133010Y-99797073D01*
X108877573Y-100052510D01*
X108676877Y-100352872D01*
X108538635Y-100686617D01*
X108468160Y-101040919D01*
X108468160Y-101402161D01*
X108538635Y-101756463D01*
X108676877Y-102090208D01*
X108821585Y-102306779D01*
X96277951Y-102306779D01*
X96237400Y-102302785D01*
X96196850Y-102306779D01*
X96196848Y-102306779D01*
X96075575Y-102318723D01*
X95919967Y-102365926D01*
X95776558Y-102442580D01*
X95714997Y-102493102D01*
X95650860Y-102545738D01*
X95625007Y-102577240D01*
X95226111Y-102976136D01*
X95182943Y-102958255D01*
X94828641Y-102887780D01*
X94467399Y-102887780D01*
X94113097Y-102958255D01*
X93779352Y-103096497D01*
X93478990Y-103297193D01*
X93223553Y-103552630D01*
X93022857Y-103852992D01*
X92884615Y-104186737D01*
X92814140Y-104541039D01*
X92814140Y-104902281D01*
X92884615Y-105256583D01*
X93022857Y-105590328D01*
X93223553Y-105890690D01*
X93478990Y-106146127D01*
X93779352Y-106346823D01*
X94113097Y-106485065D01*
X94467399Y-106555540D01*
X94828641Y-106555540D01*
X95182943Y-106485065D01*
X95516688Y-106346823D01*
X95817050Y-106146127D01*
X96072487Y-105890690D01*
X96273183Y-105590328D01*
X96411425Y-105256583D01*
X96481900Y-104902281D01*
X96481900Y-104541039D01*
X96411425Y-104186737D01*
X96393544Y-104143569D01*
X96579334Y-103957779D01*
X106883413Y-103957779D01*
X106788575Y-104186737D01*
X106718100Y-104541039D01*
X106718100Y-104902281D01*
X106788575Y-105256583D01*
X106891323Y-105504639D01*
X97578431Y-105504639D01*
X97537881Y-105500645D01*
X97497330Y-105504639D01*
X97497328Y-105504639D01*
X97376055Y-105516583D01*
X97220447Y-105563786D01*
X97077038Y-105640440D01*
X96982839Y-105717747D01*
X96982838Y-105717748D01*
X96951340Y-105743598D01*
X96925492Y-105775094D01*
X95291862Y-107408726D01*
X95291857Y-107408730D01*
X95226111Y-107474476D01*
X95182943Y-107456595D01*
X94828641Y-107386120D01*
X94467399Y-107386120D01*
X94113097Y-107456595D01*
X93779352Y-107594837D01*
X93478990Y-107795533D01*
X93223553Y-108050970D01*
X93022857Y-108351332D01*
X92884615Y-108685077D01*
X92814140Y-109039379D01*
X92814140Y-109400621D01*
X92884615Y-109754923D01*
X93022857Y-110088668D01*
X93223553Y-110389030D01*
X93478990Y-110644467D01*
X93779352Y-110845163D01*
X94113097Y-110983405D01*
X94467399Y-111053880D01*
X94828641Y-111053880D01*
X95182943Y-110983405D01*
X95516688Y-110845163D01*
X95817050Y-110644467D01*
X96072487Y-110389030D01*
X96273183Y-110088668D01*
X96411425Y-109754923D01*
X96481900Y-109400621D01*
X96481900Y-109039379D01*
X96411425Y-108685077D01*
X96393544Y-108641909D01*
X96459290Y-108576163D01*
X96459294Y-108576158D01*
X97879815Y-107155639D01*
X111931706Y-107155639D01*
X111865383Y-107221962D01*
X111522366Y-107735324D01*
X111286092Y-108305741D01*
X111165640Y-108911292D01*
X111165640Y-109528708D01*
X111286092Y-110134259D01*
X111522366Y-110704676D01*
X111865383Y-111218038D01*
X112301962Y-111654617D01*
X112815324Y-111997634D01*
X113385741Y-112233908D01*
X113991292Y-112354360D01*
X114608708Y-112354360D01*
X115214259Y-112233908D01*
X115784676Y-111997634D01*
X116298038Y-111654617D01*
X116734617Y-111218038D01*
X117077634Y-110704676D01*
X117313908Y-110134259D01*
X117434360Y-109528708D01*
X117434360Y-108911292D01*
X117313908Y-108305741D01*
X117077634Y-107735324D01*
X116734617Y-107221962D01*
X116668294Y-107155639D01*
X116816227Y-107155639D01*
X118302496Y-108641909D01*
X118284615Y-108685077D01*
X118214140Y-109039379D01*
X118214140Y-109400621D01*
X118284615Y-109754923D01*
X118422857Y-110088668D01*
X118623553Y-110389030D01*
X118878990Y-110644467D01*
X119179352Y-110845163D01*
X119513097Y-110983405D01*
X119867399Y-111053880D01*
X120228641Y-111053880D01*
X120582943Y-110983405D01*
X120916688Y-110845163D01*
X121094500Y-110726352D01*
X121094500Y-112211988D01*
X120916688Y-112093177D01*
X120582943Y-111954935D01*
X120228641Y-111884460D01*
X119867399Y-111884460D01*
X119513097Y-111954935D01*
X119179352Y-112093177D01*
X118878990Y-112293873D01*
X118623553Y-112549310D01*
X118422857Y-112849672D01*
X118404976Y-112892840D01*
X112282273Y-112892840D01*
X110594398Y-111204966D01*
X110568541Y-111173459D01*
X110442842Y-111070301D01*
X110299434Y-110993647D01*
X110143826Y-110946444D01*
X110022553Y-110934500D01*
X110022550Y-110934500D01*
X109982000Y-110930506D01*
X109941450Y-110934500D01*
X109204970Y-110934500D01*
X109420648Y-110845163D01*
X109721010Y-110644467D01*
X109976447Y-110389030D01*
X110177143Y-110088668D01*
X110315385Y-109754923D01*
X110385860Y-109400621D01*
X110385860Y-109039379D01*
X110315385Y-108685077D01*
X110177143Y-108351332D01*
X109976447Y-108050970D01*
X109721010Y-107795533D01*
X109420648Y-107594837D01*
X109086903Y-107456595D01*
X108732601Y-107386120D01*
X108371359Y-107386120D01*
X108017057Y-107456595D01*
X107683312Y-107594837D01*
X107382950Y-107795533D01*
X107127513Y-108050970D01*
X106926817Y-108351332D01*
X106788575Y-108685077D01*
X106718100Y-109039379D01*
X106718100Y-109400621D01*
X106788575Y-109754923D01*
X106926817Y-110088668D01*
X107127513Y-110389030D01*
X107382950Y-110644467D01*
X107683312Y-110845163D01*
X107898990Y-110934500D01*
X107228550Y-110934500D01*
X107188000Y-110930506D01*
X107147449Y-110934500D01*
X107147447Y-110934500D01*
X107026174Y-110946444D01*
X106870566Y-110993647D01*
X106727157Y-111070301D01*
X106665596Y-111120823D01*
X106601459Y-111173459D01*
X106575606Y-111204961D01*
X104887728Y-112892840D01*
X96291064Y-112892840D01*
X96273183Y-112849672D01*
X96072487Y-112549310D01*
X95817050Y-112293873D01*
X95516688Y-112093177D01*
X95182943Y-111954935D01*
X94828641Y-111884460D01*
X94467399Y-111884460D01*
X94113097Y-111954935D01*
X93779352Y-112093177D01*
X93478990Y-112293873D01*
X93223553Y-112549310D01*
X93022857Y-112849672D01*
X92884615Y-113183417D01*
X92814140Y-113537719D01*
X92814140Y-113898961D01*
X92884615Y-114253263D01*
X92982882Y-114490500D01*
X86845050Y-114490500D01*
X86804500Y-114486506D01*
X86763949Y-114490500D01*
X86763947Y-114490500D01*
X86642674Y-114502444D01*
X86506209Y-114543840D01*
X86487066Y-114549647D01*
X86343657Y-114626301D01*
X86249458Y-114703608D01*
X86249457Y-114703609D01*
X86217959Y-114729459D01*
X86192110Y-114760956D01*
X85545882Y-115407186D01*
X85545877Y-115407190D01*
X85480131Y-115472936D01*
X85436963Y-115455055D01*
X85082661Y-115384580D01*
X84721419Y-115384580D01*
X84367117Y-115455055D01*
X84033372Y-115593297D01*
X83733010Y-115793993D01*
X83477573Y-116049430D01*
X83276877Y-116349792D01*
X83138635Y-116683537D01*
X83068160Y-117037839D01*
X83068160Y-117399081D01*
X83138635Y-117753383D01*
X83276877Y-118087128D01*
X83477573Y-118387490D01*
X83733010Y-118642927D01*
X84033372Y-118843623D01*
X84367117Y-118981865D01*
X84721419Y-119052340D01*
X85082661Y-119052340D01*
X85436963Y-118981865D01*
X85770708Y-118843623D01*
X86071070Y-118642927D01*
X86326507Y-118387490D01*
X86527203Y-118087128D01*
X86547304Y-118038599D01*
X87066120Y-118038599D01*
X87066120Y-118399841D01*
X87136595Y-118754143D01*
X87274837Y-119087888D01*
X87475533Y-119388250D01*
X87730970Y-119643687D01*
X88031332Y-119844383D01*
X88365077Y-119982625D01*
X88719379Y-120053100D01*
X89080621Y-120053100D01*
X89434923Y-119982625D01*
X89768668Y-119844383D01*
X90069030Y-119643687D01*
X90324467Y-119388250D01*
X90525163Y-119087888D01*
X90663405Y-118754143D01*
X90733880Y-118399841D01*
X90733880Y-118038599D01*
X90663405Y-117684297D01*
X90525163Y-117350552D01*
X90324467Y-117050190D01*
X90069030Y-116794753D01*
X89768668Y-116594057D01*
X89434923Y-116455815D01*
X89080621Y-116385340D01*
X88719379Y-116385340D01*
X88365077Y-116455815D01*
X88031332Y-116594057D01*
X87730970Y-116794753D01*
X87475533Y-117050190D01*
X87274837Y-117350552D01*
X87136595Y-117684297D01*
X87066120Y-118038599D01*
X86547304Y-118038599D01*
X86665445Y-117753383D01*
X86735920Y-117399081D01*
X86735920Y-117037839D01*
X86665445Y-116683537D01*
X86647564Y-116640369D01*
X86713310Y-116574623D01*
X86713314Y-116574618D01*
X87146433Y-116141500D01*
X91411974Y-116141500D01*
X91272797Y-116349792D01*
X91134555Y-116683537D01*
X91064080Y-117037839D01*
X91064080Y-117399081D01*
X91134555Y-117753383D01*
X91272797Y-118087128D01*
X91473493Y-118387490D01*
X91728930Y-118642927D01*
X92029292Y-118843623D01*
X92363037Y-118981865D01*
X92717339Y-119052340D01*
X93078581Y-119052340D01*
X93432883Y-118981865D01*
X93476051Y-118963984D01*
X95209111Y-120697045D01*
X95234959Y-120728541D01*
X95266455Y-120754389D01*
X95266458Y-120754392D01*
X95360657Y-120831699D01*
X95504066Y-120908353D01*
X95659674Y-120955556D01*
X95780947Y-120967500D01*
X95780949Y-120967500D01*
X95821500Y-120971494D01*
X95862050Y-120967500D01*
X118323450Y-120967500D01*
X118364000Y-120971494D01*
X118404550Y-120967500D01*
X118404553Y-120967500D01*
X118525826Y-120955556D01*
X118681434Y-120908353D01*
X118824842Y-120831699D01*
X118950541Y-120728541D01*
X118976398Y-120697034D01*
X123491042Y-116182391D01*
X123522541Y-116156541D01*
X123625699Y-116030842D01*
X123702353Y-115887434D01*
X123749556Y-115731826D01*
X123761500Y-115610553D01*
X123761500Y-115610544D01*
X123765493Y-115570001D01*
X123761500Y-115529458D01*
X123761500Y-101640550D01*
X123765494Y-101600000D01*
X123760416Y-101548444D01*
X123749556Y-101438174D01*
X123702353Y-101282566D01*
X123700183Y-101278506D01*
X123625699Y-101139157D01*
X123548392Y-101044958D01*
X123548389Y-101044955D01*
X123522541Y-101013459D01*
X123491045Y-100987611D01*
X119023433Y-96520000D01*
X123272057Y-96520000D01*
X123299764Y-96801309D01*
X123381818Y-97071808D01*
X123515068Y-97321101D01*
X123694392Y-97539608D01*
X123912899Y-97718932D01*
X124162192Y-97852182D01*
X124432691Y-97934236D01*
X124643508Y-97955000D01*
X124784492Y-97955000D01*
X124995309Y-97934236D01*
X125265808Y-97852182D01*
X125515101Y-97718932D01*
X125733608Y-97539608D01*
X125912932Y-97321101D01*
X126046182Y-97071808D01*
X126128236Y-96801309D01*
X126155943Y-96520000D01*
X126128236Y-96238691D01*
X126046182Y-95968192D01*
X125912932Y-95718899D01*
X125733608Y-95500392D01*
X125515101Y-95321068D01*
X125265808Y-95187818D01*
X124995309Y-95105764D01*
X124784492Y-95085000D01*
X124643508Y-95085000D01*
X124432691Y-95105764D01*
X124162192Y-95187818D01*
X123912899Y-95321068D01*
X123694392Y-95500392D01*
X123515068Y-95718899D01*
X123381818Y-95968192D01*
X123299764Y-96238691D01*
X123272057Y-96520000D01*
X119023433Y-96520000D01*
X118468398Y-95964966D01*
X118442541Y-95933459D01*
X118316842Y-95830301D01*
X118173434Y-95753647D01*
X118017826Y-95706444D01*
X117896553Y-95694500D01*
X117896550Y-95694500D01*
X117856000Y-95690506D01*
X117815450Y-95694500D01*
X105064908Y-95694500D01*
X104905608Y-95500392D01*
X104687101Y-95321068D01*
X104437808Y-95187818D01*
X104167309Y-95105764D01*
X103956492Y-95085000D01*
X103815508Y-95085000D01*
X103604691Y-95105764D01*
X103334192Y-95187818D01*
X103084899Y-95321068D01*
X102866392Y-95500392D01*
X102687068Y-95718899D01*
X102553818Y-95968192D01*
X102471764Y-96238691D01*
X102444057Y-96520000D01*
X102471764Y-96801309D01*
X102521267Y-96964500D01*
X99655933Y-96964500D01*
X95612892Y-92921460D01*
X95795111Y-92903513D01*
X96075034Y-92818599D01*
X96333014Y-92680706D01*
X96559134Y-92495134D01*
X96744706Y-92269014D01*
X96774000Y-92214209D01*
X96803294Y-92269014D01*
X96988866Y-92495134D01*
X97214986Y-92680706D01*
X97472966Y-92818599D01*
X97752889Y-92903513D01*
X97971050Y-92925000D01*
X98116950Y-92925000D01*
X98335111Y-92903513D01*
X98615034Y-92818599D01*
X98873014Y-92680706D01*
X99099134Y-92495134D01*
X99284706Y-92269014D01*
X99314000Y-92214209D01*
X99343294Y-92269014D01*
X99528866Y-92495134D01*
X99754986Y-92680706D01*
X100012966Y-92818599D01*
X100292889Y-92903513D01*
X100511050Y-92925000D01*
X100656950Y-92925000D01*
X100875111Y-92903513D01*
X101155034Y-92818599D01*
X101413014Y-92680706D01*
X101639134Y-92495134D01*
X101824706Y-92269014D01*
X101962599Y-92011034D01*
X102047513Y-91731111D01*
X102076185Y-91440000D01*
X102047513Y-91148889D01*
X101962599Y-90868966D01*
X101824706Y-90610986D01*
X101639134Y-90384866D01*
X101413014Y-90199294D01*
X101358209Y-90170000D01*
X101413014Y-90140706D01*
X101639134Y-89955134D01*
X101824706Y-89729014D01*
X101962599Y-89471034D01*
X102047513Y-89191111D01*
X102076185Y-88900000D01*
X102062634Y-88762408D01*
X105283000Y-88762408D01*
X105283000Y-89037592D01*
X105336686Y-89307490D01*
X105441995Y-89561727D01*
X105594880Y-89790535D01*
X105789465Y-89985120D01*
X106018273Y-90138005D01*
X106272510Y-90243314D01*
X106542408Y-90297000D01*
X106817592Y-90297000D01*
X107087490Y-90243314D01*
X107341727Y-90138005D01*
X107570535Y-89985120D01*
X107765120Y-89790535D01*
X107918005Y-89561727D01*
X107950000Y-89484485D01*
X107981995Y-89561727D01*
X108134880Y-89790535D01*
X108329465Y-89985120D01*
X108558273Y-90138005D01*
X108812510Y-90243314D01*
X109082408Y-90297000D01*
X109357592Y-90297000D01*
X109627490Y-90243314D01*
X109881727Y-90138005D01*
X110110535Y-89985120D01*
X110305120Y-89790535D01*
X110458005Y-89561727D01*
X110490000Y-89484485D01*
X110521995Y-89561727D01*
X110674880Y-89790535D01*
X110869465Y-89985120D01*
X111098273Y-90138005D01*
X111352510Y-90243314D01*
X111622408Y-90297000D01*
X111897592Y-90297000D01*
X112167490Y-90243314D01*
X112421727Y-90138005D01*
X112650535Y-89985120D01*
X112845120Y-89790535D01*
X112998005Y-89561727D01*
X113103314Y-89307490D01*
X113157000Y-89037592D01*
X113157000Y-88762408D01*
X115443000Y-88762408D01*
X115443000Y-89037592D01*
X115496686Y-89307490D01*
X115601995Y-89561727D01*
X115754880Y-89790535D01*
X115949465Y-89985120D01*
X116178273Y-90138005D01*
X116432510Y-90243314D01*
X116702408Y-90297000D01*
X116977592Y-90297000D01*
X117247490Y-90243314D01*
X117501727Y-90138005D01*
X117730535Y-89985120D01*
X117925120Y-89790535D01*
X118078005Y-89561727D01*
X118110000Y-89484485D01*
X118141995Y-89561727D01*
X118294880Y-89790535D01*
X118489465Y-89985120D01*
X118718273Y-90138005D01*
X118972510Y-90243314D01*
X119242408Y-90297000D01*
X119517592Y-90297000D01*
X119787490Y-90243314D01*
X120041727Y-90138005D01*
X120270535Y-89985120D01*
X120465120Y-89790535D01*
X120618005Y-89561727D01*
X120650000Y-89484485D01*
X120681995Y-89561727D01*
X120834880Y-89790535D01*
X121029465Y-89985120D01*
X121258273Y-90138005D01*
X121512510Y-90243314D01*
X121782408Y-90297000D01*
X122057592Y-90297000D01*
X122327490Y-90243314D01*
X122581727Y-90138005D01*
X122810535Y-89985120D01*
X123005120Y-89790535D01*
X123158005Y-89561727D01*
X123263314Y-89307490D01*
X123317000Y-89037592D01*
X123317000Y-88762408D01*
X123263314Y-88492510D01*
X123158005Y-88238273D01*
X123005120Y-88009465D01*
X122810535Y-87814880D01*
X122581727Y-87661995D01*
X122327490Y-87556686D01*
X122057592Y-87503000D01*
X121782408Y-87503000D01*
X121512510Y-87556686D01*
X121258273Y-87661995D01*
X121029465Y-87814880D01*
X120834880Y-88009465D01*
X120681995Y-88238273D01*
X120650000Y-88315515D01*
X120618005Y-88238273D01*
X120465120Y-88009465D01*
X120270535Y-87814880D01*
X120041727Y-87661995D01*
X119787490Y-87556686D01*
X119517592Y-87503000D01*
X119242408Y-87503000D01*
X118972510Y-87556686D01*
X118718273Y-87661995D01*
X118489465Y-87814880D01*
X118294880Y-88009465D01*
X118141995Y-88238273D01*
X118110000Y-88315515D01*
X118078005Y-88238273D01*
X117925120Y-88009465D01*
X117730535Y-87814880D01*
X117501727Y-87661995D01*
X117247490Y-87556686D01*
X116977592Y-87503000D01*
X116702408Y-87503000D01*
X116432510Y-87556686D01*
X116178273Y-87661995D01*
X115949465Y-87814880D01*
X115754880Y-88009465D01*
X115601995Y-88238273D01*
X115496686Y-88492510D01*
X115443000Y-88762408D01*
X113157000Y-88762408D01*
X113103314Y-88492510D01*
X112998005Y-88238273D01*
X112845120Y-88009465D01*
X112650535Y-87814880D01*
X112421727Y-87661995D01*
X112167490Y-87556686D01*
X111897592Y-87503000D01*
X111622408Y-87503000D01*
X111352510Y-87556686D01*
X111098273Y-87661995D01*
X110869465Y-87814880D01*
X110674880Y-88009465D01*
X110521995Y-88238273D01*
X110490000Y-88315515D01*
X110458005Y-88238273D01*
X110305120Y-88009465D01*
X110110535Y-87814880D01*
X109881727Y-87661995D01*
X109627490Y-87556686D01*
X109357592Y-87503000D01*
X109082408Y-87503000D01*
X108812510Y-87556686D01*
X108558273Y-87661995D01*
X108329465Y-87814880D01*
X108134880Y-88009465D01*
X107981995Y-88238273D01*
X107950000Y-88315515D01*
X107918005Y-88238273D01*
X107765120Y-88009465D01*
X107570535Y-87814880D01*
X107341727Y-87661995D01*
X107087490Y-87556686D01*
X106817592Y-87503000D01*
X106542408Y-87503000D01*
X106272510Y-87556686D01*
X106018273Y-87661995D01*
X105789465Y-87814880D01*
X105594880Y-88009465D01*
X105441995Y-88238273D01*
X105336686Y-88492510D01*
X105283000Y-88762408D01*
X102062634Y-88762408D01*
X102047513Y-88608889D01*
X101962599Y-88328966D01*
X101824706Y-88070986D01*
X101639134Y-87844866D01*
X101413014Y-87659294D01*
X101155034Y-87521401D01*
X100875111Y-87436487D01*
X100656950Y-87415000D01*
X100511050Y-87415000D01*
X100292889Y-87436487D01*
X100012966Y-87521401D01*
X99754986Y-87659294D01*
X99528866Y-87844866D01*
X99343294Y-88070986D01*
X99314000Y-88125791D01*
X99284706Y-88070986D01*
X99099134Y-87844866D01*
X98873014Y-87659294D01*
X98615034Y-87521401D01*
X98335111Y-87436487D01*
X98116950Y-87415000D01*
X97971050Y-87415000D01*
X97752889Y-87436487D01*
X97472966Y-87521401D01*
X97214986Y-87659294D01*
X96988866Y-87844866D01*
X96803294Y-88070986D01*
X96774000Y-88125791D01*
X96744706Y-88070986D01*
X96559134Y-87844866D01*
X96333014Y-87659294D01*
X96075034Y-87521401D01*
X95795111Y-87436487D01*
X95576950Y-87415000D01*
X95431050Y-87415000D01*
X95212889Y-87436487D01*
X94932966Y-87521401D01*
X94674986Y-87659294D01*
X94448866Y-87844866D01*
X94263294Y-88070986D01*
X94234000Y-88125791D01*
X94204706Y-88070986D01*
X94019134Y-87844866D01*
X93793014Y-87659294D01*
X93535034Y-87521401D01*
X93255111Y-87436487D01*
X93036950Y-87415000D01*
X92891050Y-87415000D01*
X92672889Y-87436487D01*
X92669076Y-87437644D01*
X91471387Y-86239955D01*
X91445530Y-86208448D01*
X91319831Y-86105290D01*
X91176423Y-86028636D01*
X91020815Y-85981433D01*
X90899542Y-85969489D01*
X90899539Y-85969489D01*
X90858989Y-85965495D01*
X90818439Y-85969489D01*
X81647561Y-85969489D01*
X81607010Y-85965495D01*
X81566460Y-85969489D01*
X81566458Y-85969489D01*
X81445185Y-85981433D01*
X81289577Y-86028636D01*
X81146168Y-86105290D01*
X81084607Y-86155812D01*
X81020470Y-86208448D01*
X80994617Y-86239950D01*
X79962966Y-87271602D01*
X79931459Y-87297459D01*
X79888316Y-87350030D01*
X79828301Y-87423158D01*
X79767009Y-87537827D01*
X79751647Y-87566567D01*
X79704444Y-87722175D01*
X79692500Y-87843447D01*
X79688506Y-87884000D01*
X76847700Y-87884000D01*
X76847700Y-85737700D01*
X126352300Y-85737700D01*
X126352300Y-122162000D01*
G36*
X95016071Y-117773505D02*
G01*
X95041919Y-117805001D01*
X95073415Y-117830849D01*
X95073418Y-117830852D01*
X95167617Y-117908159D01*
X95257632Y-117956273D01*
X95311026Y-117984813D01*
X95466634Y-118032016D01*
X95587907Y-118043960D01*
X95587909Y-118043960D01*
X95628460Y-118047954D01*
X95669010Y-118043960D01*
X108658996Y-118043960D01*
X108676877Y-118087128D01*
X108877573Y-118387490D01*
X109133010Y-118642927D01*
X109433372Y-118843623D01*
X109767117Y-118981865D01*
X110121419Y-119052340D01*
X110482661Y-119052340D01*
X110836963Y-118981865D01*
X111170708Y-118843623D01*
X111471070Y-118642927D01*
X111726507Y-118387490D01*
X111927203Y-118087128D01*
X111945084Y-118043960D01*
X111956962Y-118043960D01*
X111997512Y-118047954D01*
X112038062Y-118043960D01*
X112038065Y-118043960D01*
X112159338Y-118032016D01*
X112314946Y-117984813D01*
X112458354Y-117908159D01*
X112498643Y-117875095D01*
X112466120Y-118038599D01*
X112466120Y-118399841D01*
X112536595Y-118754143D01*
X112674837Y-119087888D01*
X112827591Y-119316500D01*
X96163434Y-119316500D01*
X94643484Y-117796551D01*
X94661365Y-117753383D01*
X94716876Y-117474310D01*
X95016071Y-117773505D01*
X95016071Y-117773505D01*
G37*
X95016071Y-117773505D02*
X95041919Y-117805001D01*
X95073415Y-117830849D01*
X95073418Y-117830852D01*
X95167617Y-117908159D01*
X95257632Y-117956273D01*
X95311026Y-117984813D01*
X95466634Y-118032016D01*
X95587907Y-118043960D01*
X95587909Y-118043960D01*
X95628460Y-118047954D01*
X95669010Y-118043960D01*
X108658996Y-118043960D01*
X108676877Y-118087128D01*
X108877573Y-118387490D01*
X109133010Y-118642927D01*
X109433372Y-118843623D01*
X109767117Y-118981865D01*
X110121419Y-119052340D01*
X110482661Y-119052340D01*
X110836963Y-118981865D01*
X111170708Y-118843623D01*
X111471070Y-118642927D01*
X111726507Y-118387490D01*
X111927203Y-118087128D01*
X111945084Y-118043960D01*
X111956962Y-118043960D01*
X111997512Y-118047954D01*
X112038062Y-118043960D01*
X112038065Y-118043960D01*
X112159338Y-118032016D01*
X112314946Y-117984813D01*
X112458354Y-117908159D01*
X112498643Y-117875095D01*
X112466120Y-118038599D01*
X112466120Y-118399841D01*
X112536595Y-118754143D01*
X112674837Y-119087888D01*
X112827591Y-119316500D01*
X96163434Y-119316500D01*
X94643484Y-117796551D01*
X94661365Y-117753383D01*
X94716876Y-117474310D01*
X95016071Y-117773505D01*
G36*
X116534555Y-116683537D02*
G01*
X116464080Y-117037839D01*
X116464080Y-117399081D01*
X116534555Y-117753383D01*
X116672797Y-118087128D01*
X116873493Y-118387490D01*
X117128930Y-118642927D01*
X117429292Y-118843623D01*
X117763037Y-118981865D01*
X118117339Y-119052340D01*
X118286228Y-119052340D01*
X118022068Y-119316500D01*
X115772409Y-119316500D01*
X115925163Y-119087888D01*
X116063405Y-118754143D01*
X116133880Y-118399841D01*
X116133880Y-118038599D01*
X116063405Y-117684297D01*
X115925163Y-117350552D01*
X115724467Y-117050190D01*
X115469030Y-116794753D01*
X115168668Y-116594057D01*
X114834923Y-116455815D01*
X114531699Y-116395500D01*
X116653864Y-116395500D01*
X116534555Y-116683537D01*
X116534555Y-116683537D01*
G37*
X116534555Y-116683537D02*
X116464080Y-117037839D01*
X116464080Y-117399081D01*
X116534555Y-117753383D01*
X116672797Y-118087128D01*
X116873493Y-118387490D01*
X117128930Y-118642927D01*
X117429292Y-118843623D01*
X117763037Y-118981865D01*
X118117339Y-119052340D01*
X118286228Y-119052340D01*
X118022068Y-119316500D01*
X115772409Y-119316500D01*
X115925163Y-119087888D01*
X116063405Y-118754143D01*
X116133880Y-118399841D01*
X116133880Y-118038599D01*
X116063405Y-117684297D01*
X115925163Y-117350552D01*
X115724467Y-117050190D01*
X115469030Y-116794753D01*
X115168668Y-116594057D01*
X114834923Y-116455815D01*
X114531699Y-116395500D01*
X116653864Y-116395500D01*
X116534555Y-116683537D01*
G36*
X120904000Y-116399494D02*
G01*
X120942905Y-116395662D01*
X120131840Y-117206727D01*
X120131840Y-117037839D01*
X120061365Y-116683537D01*
X119942056Y-116395500D01*
X120863450Y-116395500D01*
X120904000Y-116399494D01*
X120904000Y-116399494D01*
G37*
X120904000Y-116399494D02*
X120942905Y-116395662D01*
X120131840Y-117206727D01*
X120131840Y-117037839D01*
X120061365Y-116683537D01*
X119942056Y-116395500D01*
X120863450Y-116395500D01*
X120904000Y-116399494D01*
G36*
X113967942Y-116415463D02*
G01*
X113987905Y-116395500D01*
X114068301Y-116395500D01*
X113967942Y-116415463D01*
X113967942Y-116415463D01*
G37*
X113967942Y-116415463D02*
X113987905Y-116395500D01*
X114068301Y-116395500D01*
X113967942Y-116415463D01*
G36*
X111327946Y-114273379D02*
G01*
X111353799Y-114304881D01*
X111417936Y-114357517D01*
X111479497Y-114408039D01*
X111622906Y-114484693D01*
X111778514Y-114531896D01*
X111899787Y-114543840D01*
X111899789Y-114543840D01*
X111940340Y-114547834D01*
X111980890Y-114543840D01*
X118404976Y-114543840D01*
X118422857Y-114587008D01*
X118528090Y-114744500D01*
X113686511Y-114744500D01*
X113645971Y-114740507D01*
X113605431Y-114744500D01*
X113605419Y-114744500D01*
X113484146Y-114756444D01*
X113328538Y-114803647D01*
X113232169Y-114855158D01*
X113185128Y-114880302D01*
X113176516Y-114887370D01*
X113059431Y-114983459D01*
X113033580Y-115014959D01*
X111835697Y-116212843D01*
X111726507Y-116049430D01*
X111471070Y-115793993D01*
X111170708Y-115593297D01*
X110836963Y-115455055D01*
X110482661Y-115384580D01*
X110121419Y-115384580D01*
X109767117Y-115455055D01*
X109433372Y-115593297D01*
X109133010Y-115793993D01*
X108877573Y-116049430D01*
X108676877Y-116349792D01*
X108658996Y-116392960D01*
X95970394Y-116392960D01*
X95079712Y-115502279D01*
X95182943Y-115481745D01*
X95516688Y-115343503D01*
X95817050Y-115142807D01*
X96072487Y-114887370D01*
X96273183Y-114587008D01*
X96291064Y-114543840D01*
X105189110Y-114543840D01*
X105229660Y-114547834D01*
X105270210Y-114543840D01*
X105270213Y-114543840D01*
X105391486Y-114531896D01*
X105547094Y-114484693D01*
X105690502Y-114408039D01*
X105816201Y-114304881D01*
X105842058Y-114273374D01*
X106752958Y-113362474D01*
X106718100Y-113537719D01*
X106718100Y-113898961D01*
X106788575Y-114253263D01*
X106926817Y-114587008D01*
X107127513Y-114887370D01*
X107382950Y-115142807D01*
X107683312Y-115343503D01*
X108017057Y-115481745D01*
X108371359Y-115552220D01*
X108732601Y-115552220D01*
X109086903Y-115481745D01*
X109420648Y-115343503D01*
X109721010Y-115142807D01*
X109976447Y-114887370D01*
X110177143Y-114587008D01*
X110315385Y-114253263D01*
X110385860Y-113898961D01*
X110385860Y-113537719D01*
X110334604Y-113280036D01*
X111327946Y-114273379D01*
X111327946Y-114273379D01*
G37*
X111327946Y-114273379D02*
X111353799Y-114304881D01*
X111417936Y-114357517D01*
X111479497Y-114408039D01*
X111622906Y-114484693D01*
X111778514Y-114531896D01*
X111899787Y-114543840D01*
X111899789Y-114543840D01*
X111940340Y-114547834D01*
X111980890Y-114543840D01*
X118404976Y-114543840D01*
X118422857Y-114587008D01*
X118528090Y-114744500D01*
X113686511Y-114744500D01*
X113645971Y-114740507D01*
X113605431Y-114744500D01*
X113605419Y-114744500D01*
X113484146Y-114756444D01*
X113328538Y-114803647D01*
X113232169Y-114855158D01*
X113185128Y-114880302D01*
X113176516Y-114887370D01*
X113059431Y-114983459D01*
X113033580Y-115014959D01*
X111835697Y-116212843D01*
X111726507Y-116049430D01*
X111471070Y-115793993D01*
X111170708Y-115593297D01*
X110836963Y-115455055D01*
X110482661Y-115384580D01*
X110121419Y-115384580D01*
X109767117Y-115455055D01*
X109433372Y-115593297D01*
X109133010Y-115793993D01*
X108877573Y-116049430D01*
X108676877Y-116349792D01*
X108658996Y-116392960D01*
X95970394Y-116392960D01*
X95079712Y-115502279D01*
X95182943Y-115481745D01*
X95516688Y-115343503D01*
X95817050Y-115142807D01*
X96072487Y-114887370D01*
X96273183Y-114587008D01*
X96291064Y-114543840D01*
X105189110Y-114543840D01*
X105229660Y-114547834D01*
X105270210Y-114543840D01*
X105270213Y-114543840D01*
X105391486Y-114531896D01*
X105547094Y-114484693D01*
X105690502Y-114408039D01*
X105816201Y-114304881D01*
X105842058Y-114273374D01*
X106752958Y-113362474D01*
X106718100Y-113537719D01*
X106718100Y-113898961D01*
X106788575Y-114253263D01*
X106926817Y-114587008D01*
X107127513Y-114887370D01*
X107382950Y-115142807D01*
X107683312Y-115343503D01*
X108017057Y-115481745D01*
X108371359Y-115552220D01*
X108732601Y-115552220D01*
X109086903Y-115481745D01*
X109420648Y-115343503D01*
X109721010Y-115142807D01*
X109976447Y-114887370D01*
X110177143Y-114587008D01*
X110315385Y-114253263D01*
X110385860Y-113898961D01*
X110385860Y-113537719D01*
X110334604Y-113280036D01*
X111327946Y-114273379D01*
G36*
X84103294Y-92269014D02*
G01*
X84288866Y-92495134D01*
X84514986Y-92680706D01*
X84772966Y-92818599D01*
X85052889Y-92903513D01*
X85271050Y-92925000D01*
X85416950Y-92925000D01*
X85635111Y-92903513D01*
X85759002Y-92865931D01*
X85759001Y-97864730D01*
X85755007Y-97905281D01*
X85759001Y-97945831D01*
X85759001Y-97945833D01*
X85770945Y-98067106D01*
X85814044Y-98209185D01*
X85818148Y-98222714D01*
X85894802Y-98366123D01*
X85924567Y-98402391D01*
X85997960Y-98491822D01*
X86029467Y-98517679D01*
X87154476Y-99642689D01*
X87136595Y-99685857D01*
X87066120Y-100040159D01*
X87066120Y-100401401D01*
X87136595Y-100755703D01*
X87274837Y-101089448D01*
X87475533Y-101389810D01*
X87622223Y-101536500D01*
X86709198Y-101536500D01*
X86735920Y-101402161D01*
X86735920Y-101040919D01*
X86665445Y-100686617D01*
X86527203Y-100352872D01*
X86326507Y-100052510D01*
X86071070Y-99797073D01*
X85770708Y-99596377D01*
X85436963Y-99458135D01*
X85082661Y-99387660D01*
X84721419Y-99387660D01*
X84367117Y-99458135D01*
X84033372Y-99596377D01*
X83733010Y-99797073D01*
X83477573Y-100052510D01*
X83276877Y-100352872D01*
X83138635Y-100686617D01*
X83068160Y-101040919D01*
X83068160Y-101402161D01*
X83138635Y-101756463D01*
X83276877Y-102090208D01*
X83477573Y-102390570D01*
X83733010Y-102646007D01*
X84033372Y-102846703D01*
X84367117Y-102984945D01*
X84721419Y-103055420D01*
X85082661Y-103055420D01*
X85436963Y-102984945D01*
X85479067Y-102967505D01*
X85489411Y-102975994D01*
X85581657Y-103051699D01*
X85600815Y-103061939D01*
X85725066Y-103128353D01*
X85880674Y-103175556D01*
X86001947Y-103187500D01*
X86001949Y-103187500D01*
X86042500Y-103191494D01*
X86083050Y-103187500D01*
X88017047Y-103187500D01*
X83795823Y-107408725D01*
X83795817Y-107408730D01*
X83730071Y-107474476D01*
X83686903Y-107456595D01*
X83332601Y-107386120D01*
X82971359Y-107386120D01*
X82617057Y-107456595D01*
X82283312Y-107594837D01*
X81982950Y-107795533D01*
X81727513Y-108050970D01*
X81526817Y-108351332D01*
X81388575Y-108685077D01*
X81343500Y-108911684D01*
X81343500Y-105029976D01*
X81388575Y-105256583D01*
X81526817Y-105590328D01*
X81727513Y-105890690D01*
X81982950Y-106146127D01*
X82283312Y-106346823D01*
X82617057Y-106485065D01*
X82971359Y-106555540D01*
X83332601Y-106555540D01*
X83686903Y-106485065D01*
X84020648Y-106346823D01*
X84321010Y-106146127D01*
X84576447Y-105890690D01*
X84777143Y-105590328D01*
X84915385Y-105256583D01*
X84985860Y-104902281D01*
X84985860Y-104541039D01*
X84915385Y-104186737D01*
X84777143Y-103852992D01*
X84576447Y-103552630D01*
X84321010Y-103297193D01*
X84020648Y-103096497D01*
X83686903Y-102958255D01*
X83332601Y-102887780D01*
X82971359Y-102887780D01*
X82617057Y-102958255D01*
X82573889Y-102976136D01*
X82069989Y-102472237D01*
X82069989Y-92731486D01*
X82232966Y-92818599D01*
X82512889Y-92903513D01*
X82731050Y-92925000D01*
X82876950Y-92925000D01*
X83095111Y-92903513D01*
X83375034Y-92818599D01*
X83633014Y-92680706D01*
X83859134Y-92495134D01*
X84044706Y-92269014D01*
X84074000Y-92214209D01*
X84103294Y-92269014D01*
X84103294Y-92269014D01*
G37*
X84103294Y-92269014D02*
X84288866Y-92495134D01*
X84514986Y-92680706D01*
X84772966Y-92818599D01*
X85052889Y-92903513D01*
X85271050Y-92925000D01*
X85416950Y-92925000D01*
X85635111Y-92903513D01*
X85759002Y-92865931D01*
X85759001Y-97864730D01*
X85755007Y-97905281D01*
X85759001Y-97945831D01*
X85759001Y-97945833D01*
X85770945Y-98067106D01*
X85814044Y-98209185D01*
X85818148Y-98222714D01*
X85894802Y-98366123D01*
X85924567Y-98402391D01*
X85997960Y-98491822D01*
X86029467Y-98517679D01*
X87154476Y-99642689D01*
X87136595Y-99685857D01*
X87066120Y-100040159D01*
X87066120Y-100401401D01*
X87136595Y-100755703D01*
X87274837Y-101089448D01*
X87475533Y-101389810D01*
X87622223Y-101536500D01*
X86709198Y-101536500D01*
X86735920Y-101402161D01*
X86735920Y-101040919D01*
X86665445Y-100686617D01*
X86527203Y-100352872D01*
X86326507Y-100052510D01*
X86071070Y-99797073D01*
X85770708Y-99596377D01*
X85436963Y-99458135D01*
X85082661Y-99387660D01*
X84721419Y-99387660D01*
X84367117Y-99458135D01*
X84033372Y-99596377D01*
X83733010Y-99797073D01*
X83477573Y-100052510D01*
X83276877Y-100352872D01*
X83138635Y-100686617D01*
X83068160Y-101040919D01*
X83068160Y-101402161D01*
X83138635Y-101756463D01*
X83276877Y-102090208D01*
X83477573Y-102390570D01*
X83733010Y-102646007D01*
X84033372Y-102846703D01*
X84367117Y-102984945D01*
X84721419Y-103055420D01*
X85082661Y-103055420D01*
X85436963Y-102984945D01*
X85479067Y-102967505D01*
X85489411Y-102975994D01*
X85581657Y-103051699D01*
X85600815Y-103061939D01*
X85725066Y-103128353D01*
X85880674Y-103175556D01*
X86001947Y-103187500D01*
X86001949Y-103187500D01*
X86042500Y-103191494D01*
X86083050Y-103187500D01*
X88017047Y-103187500D01*
X83795823Y-107408725D01*
X83795817Y-107408730D01*
X83730071Y-107474476D01*
X83686903Y-107456595D01*
X83332601Y-107386120D01*
X82971359Y-107386120D01*
X82617057Y-107456595D01*
X82283312Y-107594837D01*
X81982950Y-107795533D01*
X81727513Y-108050970D01*
X81526817Y-108351332D01*
X81388575Y-108685077D01*
X81343500Y-108911684D01*
X81343500Y-105029976D01*
X81388575Y-105256583D01*
X81526817Y-105590328D01*
X81727513Y-105890690D01*
X81982950Y-106146127D01*
X82283312Y-106346823D01*
X82617057Y-106485065D01*
X82971359Y-106555540D01*
X83332601Y-106555540D01*
X83686903Y-106485065D01*
X84020648Y-106346823D01*
X84321010Y-106146127D01*
X84576447Y-105890690D01*
X84777143Y-105590328D01*
X84915385Y-105256583D01*
X84985860Y-104902281D01*
X84985860Y-104541039D01*
X84915385Y-104186737D01*
X84777143Y-103852992D01*
X84576447Y-103552630D01*
X84321010Y-103297193D01*
X84020648Y-103096497D01*
X83686903Y-102958255D01*
X83332601Y-102887780D01*
X82971359Y-102887780D01*
X82617057Y-102958255D01*
X82573889Y-102976136D01*
X82069989Y-102472237D01*
X82069989Y-92731486D01*
X82232966Y-92818599D01*
X82512889Y-92903513D01*
X82731050Y-92925000D01*
X82876950Y-92925000D01*
X83095111Y-92903513D01*
X83375034Y-92818599D01*
X83633014Y-92680706D01*
X83859134Y-92495134D01*
X84044706Y-92269014D01*
X84074000Y-92214209D01*
X84103294Y-92269014D01*
G36*
X118302496Y-104143568D02*
G01*
X118284615Y-104186737D01*
X118214140Y-104541039D01*
X118214140Y-104902281D01*
X118284615Y-105256583D01*
X118422857Y-105590328D01*
X118623553Y-105890690D01*
X118878990Y-106146127D01*
X119179352Y-106346823D01*
X119513097Y-106485065D01*
X119867399Y-106555540D01*
X120228641Y-106555540D01*
X120582943Y-106485065D01*
X120916688Y-106346823D01*
X121094501Y-106228012D01*
X121094501Y-107713648D01*
X120916688Y-107594837D01*
X120582943Y-107456595D01*
X120228641Y-107386120D01*
X119867399Y-107386120D01*
X119513097Y-107456595D01*
X119469929Y-107474476D01*
X117770557Y-105775105D01*
X117744700Y-105743598D01*
X117619001Y-105640440D01*
X117475593Y-105563786D01*
X117319985Y-105516583D01*
X117198712Y-105504639D01*
X117198709Y-105504639D01*
X117158159Y-105500645D01*
X117117609Y-105504639D01*
X110212637Y-105504639D01*
X110315385Y-105256583D01*
X110385860Y-104902281D01*
X110385860Y-104541039D01*
X110315385Y-104186737D01*
X110220547Y-103957779D01*
X118116707Y-103957779D01*
X118302496Y-104143568D01*
X118302496Y-104143568D01*
G37*
X118302496Y-104143568D02*
X118284615Y-104186737D01*
X118214140Y-104541039D01*
X118214140Y-104902281D01*
X118284615Y-105256583D01*
X118422857Y-105590328D01*
X118623553Y-105890690D01*
X118878990Y-106146127D01*
X119179352Y-106346823D01*
X119513097Y-106485065D01*
X119867399Y-106555540D01*
X120228641Y-106555540D01*
X120582943Y-106485065D01*
X120916688Y-106346823D01*
X121094501Y-106228012D01*
X121094501Y-107713648D01*
X120916688Y-107594837D01*
X120582943Y-107456595D01*
X120228641Y-107386120D01*
X119867399Y-107386120D01*
X119513097Y-107456595D01*
X119469929Y-107474476D01*
X117770557Y-105775105D01*
X117744700Y-105743598D01*
X117619001Y-105640440D01*
X117475593Y-105563786D01*
X117319985Y-105516583D01*
X117198712Y-105504639D01*
X117198709Y-105504639D01*
X117158159Y-105500645D01*
X117117609Y-105504639D01*
X110212637Y-105504639D01*
X110315385Y-105256583D01*
X110385860Y-104902281D01*
X110385860Y-104541039D01*
X110315385Y-104186737D01*
X110220547Y-103957779D01*
X118116707Y-103957779D01*
X118302496Y-104143568D01*
G36*
X81406456Y-104143569D02*
G01*
X81388575Y-104186737D01*
X81343500Y-104413344D01*
X81343500Y-104080613D01*
X81406456Y-104143569D01*
X81406456Y-104143569D01*
G37*
X81406456Y-104143569D02*
X81388575Y-104186737D01*
X81343500Y-104413344D01*
X81343500Y-104080613D01*
X81406456Y-104143569D01*
G36*
X121094501Y-102449934D02*
G01*
X121094501Y-103215308D01*
X120916688Y-103096497D01*
X120582943Y-102958255D01*
X120228641Y-102887780D01*
X119867399Y-102887780D01*
X119513097Y-102958255D01*
X119469928Y-102976136D01*
X119270854Y-102777062D01*
X119466990Y-102646007D01*
X119722427Y-102390570D01*
X119923123Y-102090208D01*
X120061365Y-101756463D01*
X120117719Y-101473152D01*
X121094501Y-102449934D01*
X121094501Y-102449934D01*
G37*
X121094501Y-102449934D02*
X121094501Y-103215308D01*
X120916688Y-103096497D01*
X120582943Y-102958255D01*
X120228641Y-102887780D01*
X119867399Y-102887780D01*
X119513097Y-102958255D01*
X119469928Y-102976136D01*
X119270854Y-102777062D01*
X119466990Y-102646007D01*
X119722427Y-102390570D01*
X119923123Y-102090208D01*
X120061365Y-101756463D01*
X120117719Y-101473152D01*
X121094501Y-102449934D01*
G36*
X91723294Y-92269014D02*
G01*
X91908866Y-92495134D01*
X92134986Y-92680706D01*
X92392966Y-92818599D01*
X92672889Y-92903513D01*
X92891050Y-92925000D01*
X93036950Y-92925000D01*
X93255111Y-92903513D01*
X93258924Y-92902356D01*
X97902078Y-97545511D01*
X95789039Y-97545511D01*
X95748489Y-97541517D01*
X95707938Y-97545511D01*
X95707936Y-97545511D01*
X95586663Y-97557455D01*
X95431055Y-97604658D01*
X95287646Y-97681312D01*
X95193447Y-97758619D01*
X95193446Y-97758620D01*
X95161948Y-97784470D01*
X95136100Y-97815966D01*
X93541802Y-99410266D01*
X93541797Y-99410270D01*
X93476051Y-99476016D01*
X93432883Y-99458135D01*
X93078581Y-99387660D01*
X92717339Y-99387660D01*
X92363037Y-99458135D01*
X92029292Y-99596377D01*
X92011500Y-99608265D01*
X92011500Y-93444631D01*
X92015494Y-93404081D01*
X92008373Y-93331780D01*
X91999556Y-93242255D01*
X91952353Y-93086647D01*
X91884399Y-92959515D01*
X91875699Y-92943238D01*
X91798392Y-92849039D01*
X91798389Y-92849036D01*
X91772541Y-92817540D01*
X91741046Y-92791693D01*
X91460104Y-92510752D01*
X91479134Y-92495134D01*
X91664706Y-92269014D01*
X91694000Y-92214209D01*
X91723294Y-92269014D01*
X91723294Y-92269014D01*
G37*
X91723294Y-92269014D02*
X91908866Y-92495134D01*
X92134986Y-92680706D01*
X92392966Y-92818599D01*
X92672889Y-92903513D01*
X92891050Y-92925000D01*
X93036950Y-92925000D01*
X93255111Y-92903513D01*
X93258924Y-92902356D01*
X97902078Y-97545511D01*
X95789039Y-97545511D01*
X95748489Y-97541517D01*
X95707938Y-97545511D01*
X95707936Y-97545511D01*
X95586663Y-97557455D01*
X95431055Y-97604658D01*
X95287646Y-97681312D01*
X95193447Y-97758619D01*
X95193446Y-97758620D01*
X95161948Y-97784470D01*
X95136100Y-97815966D01*
X93541802Y-99410266D01*
X93541797Y-99410270D01*
X93476051Y-99476016D01*
X93432883Y-99458135D01*
X93078581Y-99387660D01*
X92717339Y-99387660D01*
X92363037Y-99458135D01*
X92029292Y-99596377D01*
X92011500Y-99608265D01*
X92011500Y-93444631D01*
X92015494Y-93404081D01*
X92008373Y-93331780D01*
X91999556Y-93242255D01*
X91952353Y-93086647D01*
X91884399Y-92959515D01*
X91875699Y-92943238D01*
X91798392Y-92849039D01*
X91798389Y-92849036D01*
X91772541Y-92817540D01*
X91741046Y-92791693D01*
X91460104Y-92510752D01*
X91479134Y-92495134D01*
X91664706Y-92269014D01*
X91694000Y-92214209D01*
X91723294Y-92269014D01*
G36*
X118046349Y-99401781D02*
G01*
X117763037Y-99458135D01*
X117719869Y-99476016D01*
X116859353Y-98615500D01*
X117260068Y-98615500D01*
X118046349Y-99401781D01*
X118046349Y-99401781D01*
G37*
X118046349Y-99401781D02*
X117763037Y-99458135D01*
X117719869Y-99476016D01*
X116859353Y-98615500D01*
X117260068Y-98615500D01*
X118046349Y-99401781D01*
G36*
X87592889Y-92903513D02*
G01*
X87811050Y-92925000D01*
X87956950Y-92925000D01*
X88175111Y-92903513D01*
X88178923Y-92902356D01*
X88178957Y-92902390D01*
X88178962Y-92902394D01*
X89663882Y-94387315D01*
X89663881Y-98552213D01*
X89434923Y-98457375D01*
X89080621Y-98386900D01*
X88719379Y-98386900D01*
X88365077Y-98457375D01*
X88321909Y-98475256D01*
X87410001Y-97563349D01*
X87410001Y-92848034D01*
X87592889Y-92903513D01*
X87592889Y-92903513D01*
G37*
X87592889Y-92903513D02*
X87811050Y-92925000D01*
X87956950Y-92925000D01*
X88175111Y-92903513D01*
X88178923Y-92902356D01*
X88178957Y-92902390D01*
X88178962Y-92902394D01*
X89663882Y-94387315D01*
X89663881Y-98552213D01*
X89434923Y-98457375D01*
X89080621Y-98386900D01*
X88719379Y-98386900D01*
X88365077Y-98457375D01*
X88321909Y-98475256D01*
X87410001Y-97563349D01*
X87410001Y-92848034D01*
X87592889Y-92903513D01*
G36*
X94263294Y-89729014D02*
G01*
X94448866Y-89955134D01*
X94674986Y-90140706D01*
X94729791Y-90170000D01*
X94674986Y-90199294D01*
X94448866Y-90384866D01*
X94263294Y-90610986D01*
X94234000Y-90665791D01*
X94204706Y-90610986D01*
X94019134Y-90384866D01*
X93793014Y-90199294D01*
X93738209Y-90170000D01*
X93793014Y-90140706D01*
X94019134Y-89955134D01*
X94204706Y-89729014D01*
X94234000Y-89674209D01*
X94263294Y-89729014D01*
X94263294Y-89729014D01*
G37*
X94263294Y-89729014D02*
X94448866Y-89955134D01*
X94674986Y-90140706D01*
X94729791Y-90170000D01*
X94674986Y-90199294D01*
X94448866Y-90384866D01*
X94263294Y-90610986D01*
X94234000Y-90665791D01*
X94204706Y-90610986D01*
X94019134Y-90384866D01*
X93793014Y-90199294D01*
X93738209Y-90170000D01*
X93793014Y-90140706D01*
X94019134Y-89955134D01*
X94204706Y-89729014D01*
X94234000Y-89674209D01*
X94263294Y-89729014D01*
G36*
X91723294Y-89729014D02*
G01*
X91908866Y-89955134D01*
X92134986Y-90140706D01*
X92189791Y-90170000D01*
X92134986Y-90199294D01*
X91908866Y-90384866D01*
X91723294Y-90610986D01*
X91694000Y-90665791D01*
X91664706Y-90610986D01*
X91479134Y-90384866D01*
X91253014Y-90199294D01*
X91198209Y-90170000D01*
X91253014Y-90140706D01*
X91479134Y-89955134D01*
X91664706Y-89729014D01*
X91694000Y-89674209D01*
X91723294Y-89729014D01*
X91723294Y-89729014D01*
G37*
X91723294Y-89729014D02*
X91908866Y-89955134D01*
X92134986Y-90140706D01*
X92189791Y-90170000D01*
X92134986Y-90199294D01*
X91908866Y-90384866D01*
X91723294Y-90610986D01*
X91694000Y-90665791D01*
X91664706Y-90610986D01*
X91479134Y-90384866D01*
X91253014Y-90199294D01*
X91198209Y-90170000D01*
X91253014Y-90140706D01*
X91479134Y-89955134D01*
X91664706Y-89729014D01*
X91694000Y-89674209D01*
X91723294Y-89729014D01*
G36*
X89183294Y-89729014D02*
G01*
X89368866Y-89955134D01*
X89594986Y-90140706D01*
X89649791Y-90170000D01*
X89594986Y-90199294D01*
X89368866Y-90384866D01*
X89183294Y-90610986D01*
X89154000Y-90665791D01*
X89124706Y-90610986D01*
X88939134Y-90384866D01*
X88713014Y-90199294D01*
X88658209Y-90170000D01*
X88713014Y-90140706D01*
X88939134Y-89955134D01*
X89124706Y-89729014D01*
X89154000Y-89674209D01*
X89183294Y-89729014D01*
X89183294Y-89729014D01*
G37*
X89183294Y-89729014D02*
X89368866Y-89955134D01*
X89594986Y-90140706D01*
X89649791Y-90170000D01*
X89594986Y-90199294D01*
X89368866Y-90384866D01*
X89183294Y-90610986D01*
X89154000Y-90665791D01*
X89124706Y-90610986D01*
X88939134Y-90384866D01*
X88713014Y-90199294D01*
X88658209Y-90170000D01*
X88713014Y-90140706D01*
X88939134Y-89955134D01*
X89124706Y-89729014D01*
X89154000Y-89674209D01*
X89183294Y-89729014D01*
G36*
X84288866Y-89955134D02*
G01*
X84514986Y-90140706D01*
X84569791Y-90170000D01*
X84514986Y-90199294D01*
X84288866Y-90384866D01*
X84103294Y-90610986D01*
X84074000Y-90665791D01*
X84044706Y-90610986D01*
X83859134Y-90384866D01*
X83829313Y-90360393D01*
X83898180Y-90339502D01*
X84008494Y-90280537D01*
X84105185Y-90201185D01*
X84184537Y-90104494D01*
X84243502Y-89994180D01*
X84264393Y-89925313D01*
X84288866Y-89955134D01*
X84288866Y-89955134D01*
G37*
X84288866Y-89955134D02*
X84514986Y-90140706D01*
X84569791Y-90170000D01*
X84514986Y-90199294D01*
X84288866Y-90384866D01*
X84103294Y-90610986D01*
X84074000Y-90665791D01*
X84044706Y-90610986D01*
X83859134Y-90384866D01*
X83829313Y-90360393D01*
X83898180Y-90339502D01*
X84008494Y-90280537D01*
X84105185Y-90201185D01*
X84184537Y-90104494D01*
X84243502Y-89994180D01*
X84264393Y-89925313D01*
X84288866Y-89955134D01*
G36*
X96803294Y-89729014D02*
G01*
X96988866Y-89955134D01*
X97214986Y-90140706D01*
X97269791Y-90170000D01*
X97214986Y-90199294D01*
X96988866Y-90384866D01*
X96803294Y-90610986D01*
X96774000Y-90665791D01*
X96744706Y-90610986D01*
X96559134Y-90384866D01*
X96333014Y-90199294D01*
X96278209Y-90170000D01*
X96333014Y-90140706D01*
X96559134Y-89955134D01*
X96744706Y-89729014D01*
X96774000Y-89674209D01*
X96803294Y-89729014D01*
X96803294Y-89729014D01*
G37*
X96803294Y-89729014D02*
X96988866Y-89955134D01*
X97214986Y-90140706D01*
X97269791Y-90170000D01*
X97214986Y-90199294D01*
X96988866Y-90384866D01*
X96803294Y-90610986D01*
X96774000Y-90665791D01*
X96744706Y-90610986D01*
X96559134Y-90384866D01*
X96333014Y-90199294D01*
X96278209Y-90170000D01*
X96333014Y-90140706D01*
X96559134Y-89955134D01*
X96744706Y-89729014D01*
X96774000Y-89674209D01*
X96803294Y-89729014D01*
G36*
X99343294Y-89729014D02*
G01*
X99528866Y-89955134D01*
X99754986Y-90140706D01*
X99809791Y-90170000D01*
X99754986Y-90199294D01*
X99528866Y-90384866D01*
X99343294Y-90610986D01*
X99314000Y-90665791D01*
X99284706Y-90610986D01*
X99099134Y-90384866D01*
X98873014Y-90199294D01*
X98818209Y-90170000D01*
X98873014Y-90140706D01*
X99099134Y-89955134D01*
X99284706Y-89729014D01*
X99314000Y-89674209D01*
X99343294Y-89729014D01*
X99343294Y-89729014D01*
G37*
X99343294Y-89729014D02*
X99528866Y-89955134D01*
X99754986Y-90140706D01*
X99809791Y-90170000D01*
X99754986Y-90199294D01*
X99528866Y-90384866D01*
X99343294Y-90610986D01*
X99314000Y-90665791D01*
X99284706Y-90610986D01*
X99099134Y-90384866D01*
X98873014Y-90199294D01*
X98818209Y-90170000D01*
X98873014Y-90140706D01*
X99099134Y-89955134D01*
X99284706Y-89729014D01*
X99314000Y-89674209D01*
X99343294Y-89729014D01*
M02*
