G04 #@! TF.GenerationSoftware,KiCad,Pcbnew,(5.1.0)-1*
G04 #@! TF.CreationDate,2021-08-18T22:37:31-05:00*
G04 #@! TF.ProjectId,nixie_legacy-digit,6e697869-655f-46c6-9567-6163792d6469,rev?*
G04 #@! TF.SameCoordinates,Original*
G04 #@! TF.FileFunction,Copper,L1,Top*
G04 #@! TF.FilePolarity,Positive*
%FSLAX46Y46*%
G04 Gerber Fmt 4.6, Leading zero omitted, Abs format (unit mm)*
G04 Created by KiCad (PCBNEW (5.1.0)-1) date 2021-08-18 22:37:31*
%MOMM*%
%LPD*%
G04 APERTURE LIST*
%ADD10C,1.524000*%
%ADD11O,1.600000X1.600000*%
%ADD12C,2.397760*%
%ADD13R,1.700000X1.700000*%
%ADD14O,1.700000X1.700000*%
%ADD15C,0.381000*%
G04 APERTURE END LIST*
D10*
X81534000Y-118618000D03*
D11*
X124714000Y-96520000D03*
X103886000Y-96520000D03*
D12*
X120048020Y-113718340D03*
X110302040Y-117218460D03*
X108551980Y-113718340D03*
X108551980Y-109220000D03*
X108551980Y-104721660D03*
X110302040Y-101221540D03*
X114300000Y-100220780D03*
X118297960Y-101221540D03*
X120048020Y-104721660D03*
X120048020Y-109220000D03*
X118297960Y-117218460D03*
X114300000Y-118219220D03*
X94648020Y-113718340D03*
X84902040Y-117218460D03*
X83151980Y-113718340D03*
X83151980Y-109220000D03*
X83151980Y-104721660D03*
X84902040Y-101221540D03*
X88900000Y-100220780D03*
X92897960Y-101221540D03*
X94648020Y-104721660D03*
X94648020Y-109220000D03*
X92897960Y-117218460D03*
X88900000Y-118219220D03*
D10*
X121920000Y-88900000D03*
X111760000Y-88900000D03*
X119380000Y-88900000D03*
X109220000Y-88900000D03*
X116840000Y-88900000D03*
X106680000Y-88900000D03*
D13*
X82804000Y-88900000D03*
D14*
X82804000Y-91440000D03*
X85344000Y-88900000D03*
X85344000Y-91440000D03*
X87884000Y-88900000D03*
X87884000Y-91440000D03*
X90424000Y-88900000D03*
X90424000Y-91440000D03*
X92964000Y-88900000D03*
X92964000Y-91440000D03*
X95504000Y-88900000D03*
X95504000Y-91440000D03*
X98044000Y-88900000D03*
X98044000Y-91440000D03*
X100584000Y-88900000D03*
X100584000Y-91440000D03*
D15*
X121158001Y-88138001D02*
X121920000Y-88900000D01*
X119634000Y-86614000D02*
X121158001Y-88138001D01*
X116078000Y-86614000D02*
X119634000Y-86614000D01*
X100584000Y-91440000D02*
X111252000Y-91440000D01*
X111252000Y-91440000D02*
X116078000Y-86614000D01*
X110998001Y-89661999D02*
X111760000Y-88900000D01*
X110490000Y-90170000D02*
X110998001Y-89661999D01*
X101854000Y-87630000D02*
X107382328Y-87630000D01*
X100584000Y-88900000D02*
X101854000Y-87630000D01*
X107950000Y-88197672D02*
X107950000Y-89662000D01*
X107382328Y-87630000D02*
X107950000Y-88197672D01*
X107950000Y-89662000D02*
X108458000Y-90170000D01*
X108458000Y-90170000D02*
X110490000Y-90170000D01*
X118618001Y-88138001D02*
X119380000Y-88900000D01*
X117856000Y-87376000D02*
X118618001Y-88138001D01*
X116391672Y-87376000D02*
X117856000Y-87376000D01*
X110803672Y-92964000D02*
X116391672Y-87376000D01*
X98044000Y-91440000D02*
X99568000Y-92964000D01*
X99568000Y-92964000D02*
X110803672Y-92964000D01*
X98893999Y-88050001D02*
X98044000Y-88900000D01*
X100076000Y-86868000D02*
X98893999Y-88050001D01*
X107696000Y-86868000D02*
X100076000Y-86868000D01*
X109220000Y-88900000D02*
X109220000Y-88392000D01*
X109220000Y-88392000D02*
X107696000Y-86868000D01*
X116078001Y-89661999D02*
X116840000Y-88900000D01*
X112014000Y-93726000D02*
X116078001Y-89661999D01*
X95504000Y-91440000D02*
X97790000Y-93726000D01*
X97790000Y-93726000D02*
X112014000Y-93726000D01*
X105918001Y-89661999D02*
X106680000Y-88900000D01*
X105380501Y-90199499D02*
X105918001Y-89661999D01*
X96803499Y-90199499D02*
X105380501Y-90199499D01*
X95504000Y-88900000D02*
X96803499Y-90199499D01*
X86794340Y-113718340D02*
X83151980Y-113718340D01*
X92456000Y-119380000D02*
X86794340Y-113718340D01*
X102870000Y-119380000D02*
X92456000Y-119380000D01*
X108551980Y-113718340D02*
X108531660Y-113718340D01*
X108531660Y-113718340D02*
X102870000Y-119380000D01*
X91273999Y-92289999D02*
X90424000Y-91440000D01*
X97790000Y-98806000D02*
X91273999Y-92289999D01*
X111252000Y-98806000D02*
X97790000Y-98806000D01*
X112268000Y-99822000D02*
X111252000Y-98806000D01*
X108551980Y-109220000D02*
X112268000Y-105503980D01*
X112268000Y-105503980D02*
X112268000Y-99822000D01*
X84350859Y-105920539D02*
X83151980Y-104721660D01*
X85090000Y-106659680D02*
X84350859Y-105920539D01*
X85090000Y-110998000D02*
X85090000Y-106659680D01*
X89408000Y-115316000D02*
X85090000Y-110998000D01*
X108551980Y-104721660D02*
X97957640Y-115316000D01*
X97957640Y-115316000D02*
X89408000Y-115316000D01*
X97665540Y-101221540D02*
X87884000Y-91440000D01*
X110302040Y-101221540D02*
X97665540Y-101221540D01*
X89124501Y-90140501D02*
X93500443Y-90140501D01*
X87884000Y-88900000D02*
X89124501Y-90140501D01*
X93500443Y-90140501D02*
X94263499Y-90903557D01*
X112123220Y-98044000D02*
X114300000Y-100220780D01*
X94263499Y-90903557D02*
X94263499Y-92035441D01*
X94263499Y-92035441D02*
X100272058Y-98044000D01*
X100272058Y-98044000D02*
X112123220Y-98044000D01*
X85344000Y-91948000D02*
X85344000Y-91440000D01*
X91699081Y-98303081D02*
X85344000Y-91948000D01*
X92897960Y-101221540D02*
X91699081Y-100022661D01*
X91699081Y-100022661D02*
X91699081Y-98303081D01*
X86193999Y-89749999D02*
X85344000Y-88900000D01*
X86584501Y-90140501D02*
X86193999Y-89749999D01*
X86584501Y-91951460D02*
X86584501Y-90140501D01*
X94648020Y-100014979D02*
X86584501Y-91951460D01*
X94648020Y-104721660D02*
X94648020Y-100014979D01*
X83653999Y-92289999D02*
X82804000Y-91440000D01*
X91118071Y-99754071D02*
X83653999Y-92289999D01*
X91118071Y-103901947D02*
X91118071Y-99754071D01*
X94648020Y-107431896D02*
X91118071Y-103901947D01*
X94648020Y-109220000D02*
X94648020Y-107431896D01*
X88826340Y-113718340D02*
X85671011Y-110563011D01*
X94648020Y-113718340D02*
X88826340Y-113718340D01*
X85671011Y-110563011D02*
X85671011Y-104721011D01*
X81573000Y-88900000D02*
X82804000Y-88900000D01*
X85671011Y-104721011D02*
X81026000Y-100076000D01*
X81026000Y-100076000D02*
X81026000Y-89447000D01*
X81026000Y-89447000D02*
X81573000Y-88900000D01*
X82295999Y-119379999D02*
X81534000Y-118618000D01*
X88900000Y-118219220D02*
X87739221Y-119379999D01*
X87739221Y-119379999D02*
X82295999Y-119379999D01*
X124714000Y-97651370D02*
X124714000Y-96520000D01*
X124714000Y-112776000D02*
X124714000Y-97651370D01*
X118297960Y-117218460D02*
X120271540Y-117218460D01*
X120271540Y-117218460D02*
X124714000Y-112776000D01*
M02*
