G04 #@! TF.GenerationSoftware,KiCad,Pcbnew,(5.1.0)-1*
G04 #@! TF.CreationDate,2021-08-08T02:28:51-05:00*
G04 #@! TF.ProjectId,nixie_legacy-digit,6e697869-655f-46c6-9567-6163792d6469,rev?*
G04 #@! TF.SameCoordinates,Original*
G04 #@! TF.FileFunction,Copper,L1,Top*
G04 #@! TF.FilePolarity,Positive*
%FSLAX46Y46*%
G04 Gerber Fmt 4.6, Leading zero omitted, Abs format (unit mm)*
G04 Created by KiCad (PCBNEW (5.1.0)-1) date 2021-08-08 02:28:51*
%MOMM*%
%LPD*%
G04 APERTURE LIST*
%ADD10C,1.524000*%
%ADD11O,1.600000X1.600000*%
%ADD12C,2.397760*%
%ADD13R,1.700000X1.700000*%
%ADD14O,1.700000X1.700000*%
%ADD15C,0.381000*%
%ADD16C,0.254000*%
G04 APERTURE END LIST*
D10*
X81534000Y-118618000D03*
D11*
X124714000Y-96520000D03*
X103886000Y-96520000D03*
D12*
X120048020Y-113718340D03*
X110302040Y-117218460D03*
X108551980Y-113718340D03*
X108551980Y-109220000D03*
X108551980Y-104721660D03*
X110302040Y-101221540D03*
X114300000Y-100220780D03*
X118297960Y-101221540D03*
X120048020Y-104721660D03*
X120048020Y-109220000D03*
X118297960Y-117218460D03*
X114300000Y-118219220D03*
X94648020Y-113718340D03*
X84902040Y-117218460D03*
X83151980Y-113718340D03*
X83151980Y-109220000D03*
X83151980Y-104721660D03*
X84902040Y-101221540D03*
X88900000Y-100220780D03*
X92897960Y-101221540D03*
X94648020Y-104721660D03*
X94648020Y-109220000D03*
X92897960Y-117218460D03*
X88900000Y-118219220D03*
D10*
X121920000Y-88900000D03*
X111760000Y-88900000D03*
X119380000Y-88900000D03*
X109220000Y-88900000D03*
X116840000Y-88900000D03*
X106680000Y-88900000D03*
D13*
X82804000Y-88900000D03*
D14*
X82804000Y-91440000D03*
X85344000Y-88900000D03*
X85344000Y-91440000D03*
X87884000Y-88900000D03*
X87884000Y-91440000D03*
X90424000Y-88900000D03*
X90424000Y-91440000D03*
X92964000Y-88900000D03*
X92964000Y-91440000D03*
X95504000Y-88900000D03*
X95504000Y-91440000D03*
X98044000Y-88900000D03*
X98044000Y-91440000D03*
X100584000Y-88900000D03*
X100584000Y-91440000D03*
D15*
X121158001Y-88138001D02*
X121920000Y-88900000D01*
X119634000Y-86614000D02*
X121158001Y-88138001D01*
X116078000Y-86614000D02*
X119634000Y-86614000D01*
X100584000Y-91440000D02*
X111252000Y-91440000D01*
X111252000Y-91440000D02*
X116078000Y-86614000D01*
X110998001Y-89661999D02*
X111760000Y-88900000D01*
X110490000Y-90170000D02*
X110998001Y-89661999D01*
X101854000Y-87630000D02*
X107382328Y-87630000D01*
X100584000Y-88900000D02*
X101854000Y-87630000D01*
X107950000Y-88197672D02*
X107950000Y-89662000D01*
X107382328Y-87630000D02*
X107950000Y-88197672D01*
X107950000Y-89662000D02*
X108458000Y-90170000D01*
X108458000Y-90170000D02*
X110490000Y-90170000D01*
X118618001Y-88138001D02*
X119380000Y-88900000D01*
X117856000Y-87376000D02*
X118618001Y-88138001D01*
X116391672Y-87376000D02*
X117856000Y-87376000D01*
X110803672Y-92964000D02*
X116391672Y-87376000D01*
X98044000Y-91440000D02*
X99568000Y-92964000D01*
X99568000Y-92964000D02*
X110803672Y-92964000D01*
X98893999Y-88050001D02*
X98044000Y-88900000D01*
X100076000Y-86868000D02*
X98893999Y-88050001D01*
X107696000Y-86868000D02*
X100076000Y-86868000D01*
X109220000Y-88900000D02*
X109220000Y-88392000D01*
X109220000Y-88392000D02*
X107696000Y-86868000D01*
X116078001Y-89661999D02*
X116840000Y-88900000D01*
X112014000Y-93726000D02*
X116078001Y-89661999D01*
X95504000Y-91440000D02*
X97790000Y-93726000D01*
X97790000Y-93726000D02*
X112014000Y-93726000D01*
X105918001Y-89661999D02*
X106680000Y-88900000D01*
X105380501Y-90199499D02*
X105918001Y-89661999D01*
X96803499Y-90199499D02*
X105380501Y-90199499D01*
X95504000Y-88900000D02*
X96803499Y-90199499D01*
X86794340Y-113718340D02*
X83151980Y-113718340D01*
X93472000Y-120396000D02*
X86794340Y-113718340D01*
X101854000Y-120396000D02*
X93472000Y-120396000D01*
X108551980Y-113718340D02*
X108531660Y-113718340D01*
X108531660Y-113718340D02*
X101854000Y-120396000D01*
X91273999Y-92289999D02*
X90424000Y-91440000D01*
X97790000Y-98806000D02*
X91273999Y-92289999D01*
X111252000Y-98806000D02*
X97790000Y-98806000D01*
X112268000Y-99822000D02*
X111252000Y-98806000D01*
X108551980Y-109220000D02*
X112268000Y-105503980D01*
X112268000Y-105503980D02*
X112268000Y-99822000D01*
X84350859Y-105920539D02*
X83151980Y-104721660D01*
X85090000Y-106659680D02*
X84350859Y-105920539D01*
X85090000Y-110998000D02*
X85090000Y-106659680D01*
X89408000Y-115316000D02*
X85090000Y-110998000D01*
X108551980Y-104721660D02*
X97957640Y-115316000D01*
X97957640Y-115316000D02*
X89408000Y-115316000D01*
X97665540Y-101221540D02*
X87884000Y-91440000D01*
X110302040Y-101221540D02*
X97665540Y-101221540D01*
X89124501Y-90140501D02*
X93500443Y-90140501D01*
X87884000Y-88900000D02*
X89124501Y-90140501D01*
X93500443Y-90140501D02*
X94263499Y-90903557D01*
X112123220Y-98044000D02*
X114300000Y-100220780D01*
X94263499Y-90903557D02*
X94263499Y-92035441D01*
X94263499Y-92035441D02*
X100272058Y-98044000D01*
X100272058Y-98044000D02*
X112123220Y-98044000D01*
X85344000Y-91948000D02*
X85344000Y-91440000D01*
X91699081Y-98303081D02*
X85344000Y-91948000D01*
X92897960Y-101221540D02*
X91699081Y-100022661D01*
X91699081Y-100022661D02*
X91699081Y-98303081D01*
X86193999Y-89749999D02*
X85344000Y-88900000D01*
X86584501Y-90140501D02*
X86193999Y-89749999D01*
X86584501Y-91951460D02*
X86584501Y-90140501D01*
X94648020Y-100014979D02*
X86584501Y-91951460D01*
X94648020Y-104721660D02*
X94648020Y-100014979D01*
X83653999Y-92289999D02*
X82804000Y-91440000D01*
X91118071Y-99754071D02*
X83653999Y-92289999D01*
X91118071Y-103901947D02*
X91118071Y-99754071D01*
X94648020Y-107431896D02*
X91118071Y-103901947D01*
X94648020Y-109220000D02*
X94648020Y-107431896D01*
X88826340Y-113718340D02*
X85671011Y-110563011D01*
X94648020Y-113718340D02*
X88826340Y-113718340D01*
X85671011Y-110563011D02*
X85671011Y-104721011D01*
X81573000Y-88900000D02*
X82804000Y-88900000D01*
X85671011Y-104721011D02*
X81026000Y-100076000D01*
X81026000Y-100076000D02*
X81026000Y-89447000D01*
X81026000Y-89447000D02*
X81573000Y-88900000D01*
X82295999Y-119379999D02*
X81534000Y-118618000D01*
X88900000Y-118219220D02*
X87739221Y-119379999D01*
X87739221Y-119379999D02*
X82295999Y-119379999D01*
X124714000Y-97651370D02*
X124714000Y-96520000D01*
X124714000Y-112776000D02*
X124714000Y-97651370D01*
X118297960Y-117218460D02*
X120271540Y-117218460D01*
X120271540Y-117218460D02*
X124714000Y-112776000D01*
D16*
G36*
X130463016Y-125603000D02*
G01*
X127647700Y-125603000D01*
X127647700Y-85121809D01*
X127650833Y-85090000D01*
X127638327Y-84963029D01*
X127601291Y-84840937D01*
X127541148Y-84728417D01*
X127460208Y-84629792D01*
X127361583Y-84548852D01*
X127249063Y-84488709D01*
X127126971Y-84451673D01*
X127031809Y-84442300D01*
X127031808Y-84442300D01*
X127000000Y-84439167D01*
X126968191Y-84442300D01*
X76231809Y-84442300D01*
X76200000Y-84439167D01*
X76168192Y-84442300D01*
X76168191Y-84442300D01*
X76073029Y-84451673D01*
X75950937Y-84488709D01*
X75838417Y-84548852D01*
X75739792Y-84629792D01*
X75658852Y-84728417D01*
X75598709Y-84840937D01*
X75561673Y-84963029D01*
X75549167Y-85090000D01*
X75552301Y-85121819D01*
X75552300Y-125603000D01*
X73499593Y-125603000D01*
X57830029Y-75056022D01*
X146638226Y-74549992D01*
X130463016Y-125603000D01*
X130463016Y-125603000D01*
G37*
X130463016Y-125603000D02*
X127647700Y-125603000D01*
X127647700Y-85121809D01*
X127650833Y-85090000D01*
X127638327Y-84963029D01*
X127601291Y-84840937D01*
X127541148Y-84728417D01*
X127460208Y-84629792D01*
X127361583Y-84548852D01*
X127249063Y-84488709D01*
X127126971Y-84451673D01*
X127031809Y-84442300D01*
X127031808Y-84442300D01*
X127000000Y-84439167D01*
X126968191Y-84442300D01*
X76231809Y-84442300D01*
X76200000Y-84439167D01*
X76168192Y-84442300D01*
X76168191Y-84442300D01*
X76073029Y-84451673D01*
X75950937Y-84488709D01*
X75838417Y-84548852D01*
X75739792Y-84629792D01*
X75658852Y-84728417D01*
X75598709Y-84840937D01*
X75561673Y-84963029D01*
X75549167Y-85090000D01*
X75552301Y-85121819D01*
X75552300Y-125603000D01*
X73499593Y-125603000D01*
X57830029Y-75056022D01*
X146638226Y-74549992D01*
X130463016Y-125603000D01*
G36*
X126352301Y-125603000D02*
G01*
X76847700Y-125603000D01*
X76847700Y-118480408D01*
X80137000Y-118480408D01*
X80137000Y-118755592D01*
X80190686Y-119025490D01*
X80295995Y-119279727D01*
X80448880Y-119508535D01*
X80643465Y-119703120D01*
X80872273Y-119856005D01*
X81126510Y-119961314D01*
X81396408Y-120015000D01*
X81671592Y-120015000D01*
X81749600Y-119999483D01*
X81835157Y-120069698D01*
X81978565Y-120146352D01*
X82134173Y-120193555D01*
X82255446Y-120205499D01*
X82255448Y-120205499D01*
X82295998Y-120209493D01*
X82336549Y-120205499D01*
X87698671Y-120205499D01*
X87739221Y-120209493D01*
X87779771Y-120205499D01*
X87779774Y-120205499D01*
X87901047Y-120193555D01*
X88056655Y-120146352D01*
X88200063Y-120069698D01*
X88325762Y-119966540D01*
X88325884Y-119966391D01*
X88365077Y-119982625D01*
X88719379Y-120053100D01*
X89080621Y-120053100D01*
X89434923Y-119982625D01*
X89768668Y-119844383D01*
X90069030Y-119643687D01*
X90324467Y-119388250D01*
X90525163Y-119087888D01*
X90663202Y-118754634D01*
X92859607Y-120951040D01*
X92885459Y-120982541D01*
X93011158Y-121085699D01*
X93154566Y-121162353D01*
X93310174Y-121209556D01*
X93431447Y-121221500D01*
X93431456Y-121221500D01*
X93471999Y-121225493D01*
X93512542Y-121221500D01*
X101813450Y-121221500D01*
X101854000Y-121225494D01*
X101894550Y-121221500D01*
X101894553Y-121221500D01*
X102015826Y-121209556D01*
X102171434Y-121162353D01*
X102314842Y-121085699D01*
X102440541Y-120982541D01*
X102466398Y-120951034D01*
X106379593Y-117037839D01*
X108468160Y-117037839D01*
X108468160Y-117399081D01*
X108538635Y-117753383D01*
X108676877Y-118087128D01*
X108877573Y-118387490D01*
X109133010Y-118642927D01*
X109433372Y-118843623D01*
X109767117Y-118981865D01*
X110121419Y-119052340D01*
X110482661Y-119052340D01*
X110836963Y-118981865D01*
X111170708Y-118843623D01*
X111471070Y-118642927D01*
X111726507Y-118387490D01*
X111927203Y-118087128D01*
X111947304Y-118038599D01*
X112466120Y-118038599D01*
X112466120Y-118399841D01*
X112536595Y-118754143D01*
X112674837Y-119087888D01*
X112875533Y-119388250D01*
X113130970Y-119643687D01*
X113431332Y-119844383D01*
X113765077Y-119982625D01*
X114119379Y-120053100D01*
X114480621Y-120053100D01*
X114834923Y-119982625D01*
X115168668Y-119844383D01*
X115469030Y-119643687D01*
X115724467Y-119388250D01*
X115925163Y-119087888D01*
X116063405Y-118754143D01*
X116133880Y-118399841D01*
X116133880Y-118038599D01*
X116063405Y-117684297D01*
X115925163Y-117350552D01*
X115724467Y-117050190D01*
X115712116Y-117037839D01*
X116464080Y-117037839D01*
X116464080Y-117399081D01*
X116534555Y-117753383D01*
X116672797Y-118087128D01*
X116873493Y-118387490D01*
X117128930Y-118642927D01*
X117429292Y-118843623D01*
X117763037Y-118981865D01*
X118117339Y-119052340D01*
X118478581Y-119052340D01*
X118832883Y-118981865D01*
X119166628Y-118843623D01*
X119466990Y-118642927D01*
X119722427Y-118387490D01*
X119923123Y-118087128D01*
X119941004Y-118043960D01*
X120230990Y-118043960D01*
X120271540Y-118047954D01*
X120312090Y-118043960D01*
X120312093Y-118043960D01*
X120433366Y-118032016D01*
X120588974Y-117984813D01*
X120732382Y-117908159D01*
X120858081Y-117805001D01*
X120883938Y-117773494D01*
X125269041Y-113388392D01*
X125300541Y-113362541D01*
X125353177Y-113298404D01*
X125403699Y-113236843D01*
X125480353Y-113093434D01*
X125500007Y-113028642D01*
X125527556Y-112937826D01*
X125539500Y-112816553D01*
X125539500Y-112816551D01*
X125543494Y-112776001D01*
X125539500Y-112735450D01*
X125539500Y-97698908D01*
X125733608Y-97539608D01*
X125912932Y-97321101D01*
X126046182Y-97071808D01*
X126128236Y-96801309D01*
X126155943Y-96520000D01*
X126128236Y-96238691D01*
X126046182Y-95968192D01*
X125912932Y-95718899D01*
X125733608Y-95500392D01*
X125515101Y-95321068D01*
X125265808Y-95187818D01*
X124995309Y-95105764D01*
X124784492Y-95085000D01*
X124643508Y-95085000D01*
X124432691Y-95105764D01*
X124162192Y-95187818D01*
X123912899Y-95321068D01*
X123694392Y-95500392D01*
X123515068Y-95718899D01*
X123381818Y-95968192D01*
X123299764Y-96238691D01*
X123272057Y-96520000D01*
X123299764Y-96801309D01*
X123381818Y-97071808D01*
X123515068Y-97321101D01*
X123694392Y-97539608D01*
X123888501Y-97698909D01*
X123888500Y-112434067D01*
X121547576Y-114774991D01*
X121673183Y-114587008D01*
X121811425Y-114253263D01*
X121881900Y-113898961D01*
X121881900Y-113537719D01*
X121811425Y-113183417D01*
X121673183Y-112849672D01*
X121472487Y-112549310D01*
X121217050Y-112293873D01*
X120916688Y-112093177D01*
X120582943Y-111954935D01*
X120228641Y-111884460D01*
X119867399Y-111884460D01*
X119513097Y-111954935D01*
X119179352Y-112093177D01*
X118878990Y-112293873D01*
X118623553Y-112549310D01*
X118422857Y-112849672D01*
X118284615Y-113183417D01*
X118214140Y-113537719D01*
X118214140Y-113898961D01*
X118284615Y-114253263D01*
X118422857Y-114587008D01*
X118623553Y-114887370D01*
X118878990Y-115142807D01*
X119179352Y-115343503D01*
X119513097Y-115481745D01*
X119867399Y-115552220D01*
X120228641Y-115552220D01*
X120582943Y-115481745D01*
X120916688Y-115343503D01*
X121104672Y-115217896D01*
X119937666Y-116384902D01*
X119923123Y-116349792D01*
X119722427Y-116049430D01*
X119466990Y-115793993D01*
X119166628Y-115593297D01*
X118832883Y-115455055D01*
X118478581Y-115384580D01*
X118117339Y-115384580D01*
X117763037Y-115455055D01*
X117429292Y-115593297D01*
X117128930Y-115793993D01*
X116873493Y-116049430D01*
X116672797Y-116349792D01*
X116534555Y-116683537D01*
X116464080Y-117037839D01*
X115712116Y-117037839D01*
X115469030Y-116794753D01*
X115168668Y-116594057D01*
X114834923Y-116455815D01*
X114480621Y-116385340D01*
X114119379Y-116385340D01*
X113765077Y-116455815D01*
X113431332Y-116594057D01*
X113130970Y-116794753D01*
X112875533Y-117050190D01*
X112674837Y-117350552D01*
X112536595Y-117684297D01*
X112466120Y-118038599D01*
X111947304Y-118038599D01*
X112065445Y-117753383D01*
X112135920Y-117399081D01*
X112135920Y-117037839D01*
X112065445Y-116683537D01*
X111927203Y-116349792D01*
X111726507Y-116049430D01*
X111471070Y-115793993D01*
X111170708Y-115593297D01*
X110836963Y-115455055D01*
X110482661Y-115384580D01*
X110121419Y-115384580D01*
X109767117Y-115455055D01*
X109433372Y-115593297D01*
X109133010Y-115793993D01*
X108877573Y-116049430D01*
X108676877Y-116349792D01*
X108538635Y-116683537D01*
X108468160Y-117037839D01*
X106379593Y-117037839D01*
X107959520Y-115457912D01*
X108017057Y-115481745D01*
X108371359Y-115552220D01*
X108732601Y-115552220D01*
X109086903Y-115481745D01*
X109420648Y-115343503D01*
X109721010Y-115142807D01*
X109976447Y-114887370D01*
X110177143Y-114587008D01*
X110315385Y-114253263D01*
X110385860Y-113898961D01*
X110385860Y-113537719D01*
X110315385Y-113183417D01*
X110177143Y-112849672D01*
X109976447Y-112549310D01*
X109721010Y-112293873D01*
X109420648Y-112093177D01*
X109086903Y-111954935D01*
X108732601Y-111884460D01*
X108371359Y-111884460D01*
X108017057Y-111954935D01*
X107683312Y-112093177D01*
X107382950Y-112293873D01*
X107127513Y-112549310D01*
X106926817Y-112849672D01*
X106788575Y-113183417D01*
X106718100Y-113537719D01*
X106718100Y-113898961D01*
X106788575Y-114253263D01*
X106800504Y-114282063D01*
X101512068Y-119570500D01*
X93813933Y-119570500D01*
X93259738Y-119016306D01*
X93432883Y-118981865D01*
X93766628Y-118843623D01*
X94066990Y-118642927D01*
X94322427Y-118387490D01*
X94523123Y-118087128D01*
X94661365Y-117753383D01*
X94731840Y-117399081D01*
X94731840Y-117037839D01*
X94661365Y-116683537D01*
X94523123Y-116349792D01*
X94383946Y-116141500D01*
X97917090Y-116141500D01*
X97957640Y-116145494D01*
X97998190Y-116141500D01*
X97998193Y-116141500D01*
X98119466Y-116129556D01*
X98275074Y-116082353D01*
X98418482Y-116005699D01*
X98544181Y-115902541D01*
X98570038Y-115871034D01*
X107973889Y-106467184D01*
X108017057Y-106485065D01*
X108371359Y-106555540D01*
X108732601Y-106555540D01*
X109086903Y-106485065D01*
X109420648Y-106346823D01*
X109721010Y-106146127D01*
X109976447Y-105890690D01*
X110177143Y-105590328D01*
X110315385Y-105256583D01*
X110385860Y-104902281D01*
X110385860Y-104541039D01*
X110315385Y-104186737D01*
X110177143Y-103852992D01*
X109976447Y-103552630D01*
X109721010Y-103297193D01*
X109420648Y-103096497D01*
X109086903Y-102958255D01*
X108732601Y-102887780D01*
X108371359Y-102887780D01*
X108017057Y-102958255D01*
X107683312Y-103096497D01*
X107382950Y-103297193D01*
X107127513Y-103552630D01*
X106926817Y-103852992D01*
X106788575Y-104186737D01*
X106718100Y-104541039D01*
X106718100Y-104902281D01*
X106788575Y-105256583D01*
X106806456Y-105299751D01*
X97615708Y-114490500D01*
X96313158Y-114490500D01*
X96411425Y-114253263D01*
X96481900Y-113898961D01*
X96481900Y-113537719D01*
X96411425Y-113183417D01*
X96273183Y-112849672D01*
X96072487Y-112549310D01*
X95817050Y-112293873D01*
X95516688Y-112093177D01*
X95182943Y-111954935D01*
X94828641Y-111884460D01*
X94467399Y-111884460D01*
X94113097Y-111954935D01*
X93779352Y-112093177D01*
X93478990Y-112293873D01*
X93223553Y-112549310D01*
X93022857Y-112849672D01*
X93004976Y-112892840D01*
X89168273Y-112892840D01*
X88629793Y-112354360D01*
X89208708Y-112354360D01*
X89814259Y-112233908D01*
X90384676Y-111997634D01*
X90898038Y-111654617D01*
X91334617Y-111218038D01*
X91677634Y-110704676D01*
X91913908Y-110134259D01*
X92034360Y-109528708D01*
X92034360Y-108911292D01*
X91913908Y-108305741D01*
X91677634Y-107735324D01*
X91334617Y-107221962D01*
X90898038Y-106785383D01*
X90384676Y-106442366D01*
X89814259Y-106206092D01*
X89208708Y-106085640D01*
X88591292Y-106085640D01*
X87985741Y-106206092D01*
X87415324Y-106442366D01*
X86901962Y-106785383D01*
X86496511Y-107190834D01*
X86496511Y-104761561D01*
X86500505Y-104721011D01*
X86495923Y-104674486D01*
X86484567Y-104559185D01*
X86437364Y-104403577D01*
X86361057Y-104260818D01*
X86360710Y-104260168D01*
X86283403Y-104165969D01*
X86283400Y-104165966D01*
X86257552Y-104134470D01*
X86226056Y-104108622D01*
X85157890Y-103040456D01*
X85436963Y-102984945D01*
X85770708Y-102846703D01*
X86071070Y-102646007D01*
X86326507Y-102390570D01*
X86527203Y-102090208D01*
X86665445Y-101756463D01*
X86735920Y-101402161D01*
X86735920Y-101040919D01*
X86665445Y-100686617D01*
X86527203Y-100352872D01*
X86326507Y-100052510D01*
X86071070Y-99797073D01*
X85770708Y-99596377D01*
X85436963Y-99458135D01*
X85082661Y-99387660D01*
X84721419Y-99387660D01*
X84367117Y-99458135D01*
X84033372Y-99596377D01*
X83733010Y-99797073D01*
X83477573Y-100052510D01*
X83276877Y-100352872D01*
X83138635Y-100686617D01*
X83083124Y-100965691D01*
X81851500Y-99734068D01*
X81851500Y-92579364D01*
X81974986Y-92680706D01*
X82232966Y-92818599D01*
X82512889Y-92903513D01*
X82731050Y-92925000D01*
X82876950Y-92925000D01*
X83095111Y-92903513D01*
X83098923Y-92902356D01*
X88606016Y-98409449D01*
X88365077Y-98457375D01*
X88031332Y-98595617D01*
X87730970Y-98796313D01*
X87475533Y-99051750D01*
X87274837Y-99352112D01*
X87136595Y-99685857D01*
X87066120Y-100040159D01*
X87066120Y-100401401D01*
X87136595Y-100755703D01*
X87274837Y-101089448D01*
X87475533Y-101389810D01*
X87730970Y-101645247D01*
X88031332Y-101845943D01*
X88365077Y-101984185D01*
X88719379Y-102054660D01*
X89080621Y-102054660D01*
X89434923Y-101984185D01*
X89768668Y-101845943D01*
X90069030Y-101645247D01*
X90292572Y-101421705D01*
X90292571Y-103861396D01*
X90288577Y-103901947D01*
X90292571Y-103942497D01*
X90292571Y-103942499D01*
X90304515Y-104063772D01*
X90325961Y-104134470D01*
X90351718Y-104219380D01*
X90428372Y-104362789D01*
X90461846Y-104403577D01*
X90531530Y-104488488D01*
X90563037Y-104514345D01*
X93697931Y-107649241D01*
X93478990Y-107795533D01*
X93223553Y-108050970D01*
X93022857Y-108351332D01*
X92884615Y-108685077D01*
X92814140Y-109039379D01*
X92814140Y-109400621D01*
X92884615Y-109754923D01*
X93022857Y-110088668D01*
X93223553Y-110389030D01*
X93478990Y-110644467D01*
X93779352Y-110845163D01*
X94113097Y-110983405D01*
X94467399Y-111053880D01*
X94828641Y-111053880D01*
X95182943Y-110983405D01*
X95516688Y-110845163D01*
X95817050Y-110644467D01*
X96072487Y-110389030D01*
X96273183Y-110088668D01*
X96411425Y-109754923D01*
X96481900Y-109400621D01*
X96481900Y-109039379D01*
X96411425Y-108685077D01*
X96273183Y-108351332D01*
X96072487Y-108050970D01*
X95817050Y-107795533D01*
X95516688Y-107594837D01*
X95473520Y-107576956D01*
X95473520Y-107472446D01*
X95477514Y-107431896D01*
X95473520Y-107391343D01*
X95461576Y-107270070D01*
X95414373Y-107114462D01*
X95340958Y-106977113D01*
X95337719Y-106971053D01*
X95260412Y-106876854D01*
X95260409Y-106876851D01*
X95234561Y-106845355D01*
X95203065Y-106819507D01*
X94920772Y-106537214D01*
X95182943Y-106485065D01*
X95516688Y-106346823D01*
X95817050Y-106146127D01*
X96072487Y-105890690D01*
X96273183Y-105590328D01*
X96411425Y-105256583D01*
X96481900Y-104902281D01*
X96481900Y-104541039D01*
X96411425Y-104186737D01*
X96273183Y-103852992D01*
X96072487Y-103552630D01*
X95817050Y-103297193D01*
X95516688Y-103096497D01*
X95473520Y-103078616D01*
X95473520Y-100196954D01*
X97053151Y-101776585D01*
X97078999Y-101808081D01*
X97110495Y-101833929D01*
X97110498Y-101833932D01*
X97204697Y-101911239D01*
X97341169Y-101984185D01*
X97348106Y-101987893D01*
X97503714Y-102035096D01*
X97624987Y-102047040D01*
X97624989Y-102047040D01*
X97665540Y-102051034D01*
X97706090Y-102047040D01*
X108658996Y-102047040D01*
X108676877Y-102090208D01*
X108877573Y-102390570D01*
X109133010Y-102646007D01*
X109433372Y-102846703D01*
X109767117Y-102984945D01*
X110121419Y-103055420D01*
X110482661Y-103055420D01*
X110836963Y-102984945D01*
X111170708Y-102846703D01*
X111442500Y-102665097D01*
X111442500Y-105162046D01*
X109130071Y-107474476D01*
X109086903Y-107456595D01*
X108732601Y-107386120D01*
X108371359Y-107386120D01*
X108017057Y-107456595D01*
X107683312Y-107594837D01*
X107382950Y-107795533D01*
X107127513Y-108050970D01*
X106926817Y-108351332D01*
X106788575Y-108685077D01*
X106718100Y-109039379D01*
X106718100Y-109400621D01*
X106788575Y-109754923D01*
X106926817Y-110088668D01*
X107127513Y-110389030D01*
X107382950Y-110644467D01*
X107683312Y-110845163D01*
X108017057Y-110983405D01*
X108371359Y-111053880D01*
X108732601Y-111053880D01*
X109086903Y-110983405D01*
X109420648Y-110845163D01*
X109721010Y-110644467D01*
X109976447Y-110389030D01*
X110177143Y-110088668D01*
X110315385Y-109754923D01*
X110385860Y-109400621D01*
X110385860Y-109039379D01*
X110360382Y-108911292D01*
X111165640Y-108911292D01*
X111165640Y-109528708D01*
X111286092Y-110134259D01*
X111522366Y-110704676D01*
X111865383Y-111218038D01*
X112301962Y-111654617D01*
X112815324Y-111997634D01*
X113385741Y-112233908D01*
X113991292Y-112354360D01*
X114608708Y-112354360D01*
X115214259Y-112233908D01*
X115784676Y-111997634D01*
X116298038Y-111654617D01*
X116734617Y-111218038D01*
X117077634Y-110704676D01*
X117313908Y-110134259D01*
X117434360Y-109528708D01*
X117434360Y-109039379D01*
X118214140Y-109039379D01*
X118214140Y-109400621D01*
X118284615Y-109754923D01*
X118422857Y-110088668D01*
X118623553Y-110389030D01*
X118878990Y-110644467D01*
X119179352Y-110845163D01*
X119513097Y-110983405D01*
X119867399Y-111053880D01*
X120228641Y-111053880D01*
X120582943Y-110983405D01*
X120916688Y-110845163D01*
X121217050Y-110644467D01*
X121472487Y-110389030D01*
X121673183Y-110088668D01*
X121811425Y-109754923D01*
X121881900Y-109400621D01*
X121881900Y-109039379D01*
X121811425Y-108685077D01*
X121673183Y-108351332D01*
X121472487Y-108050970D01*
X121217050Y-107795533D01*
X120916688Y-107594837D01*
X120582943Y-107456595D01*
X120228641Y-107386120D01*
X119867399Y-107386120D01*
X119513097Y-107456595D01*
X119179352Y-107594837D01*
X118878990Y-107795533D01*
X118623553Y-108050970D01*
X118422857Y-108351332D01*
X118284615Y-108685077D01*
X118214140Y-109039379D01*
X117434360Y-109039379D01*
X117434360Y-108911292D01*
X117313908Y-108305741D01*
X117077634Y-107735324D01*
X116734617Y-107221962D01*
X116298038Y-106785383D01*
X115784676Y-106442366D01*
X115214259Y-106206092D01*
X114608708Y-106085640D01*
X113991292Y-106085640D01*
X113385741Y-106206092D01*
X112815324Y-106442366D01*
X112301962Y-106785383D01*
X111865383Y-107221962D01*
X111522366Y-107735324D01*
X111286092Y-108305741D01*
X111165640Y-108911292D01*
X110360382Y-108911292D01*
X110315385Y-108685077D01*
X110297504Y-108641909D01*
X112823046Y-106116368D01*
X112854541Y-106090521D01*
X112880389Y-106059025D01*
X112880392Y-106059022D01*
X112957699Y-105964823D01*
X113034353Y-105821414D01*
X113053373Y-105758712D01*
X113081556Y-105665806D01*
X113093500Y-105544533D01*
X113093500Y-105544531D01*
X113097494Y-105503980D01*
X113093500Y-105463430D01*
X113093500Y-104541039D01*
X118214140Y-104541039D01*
X118214140Y-104902281D01*
X118284615Y-105256583D01*
X118422857Y-105590328D01*
X118623553Y-105890690D01*
X118878990Y-106146127D01*
X119179352Y-106346823D01*
X119513097Y-106485065D01*
X119867399Y-106555540D01*
X120228641Y-106555540D01*
X120582943Y-106485065D01*
X120916688Y-106346823D01*
X121217050Y-106146127D01*
X121472487Y-105890690D01*
X121673183Y-105590328D01*
X121811425Y-105256583D01*
X121881900Y-104902281D01*
X121881900Y-104541039D01*
X121811425Y-104186737D01*
X121673183Y-103852992D01*
X121472487Y-103552630D01*
X121217050Y-103297193D01*
X120916688Y-103096497D01*
X120582943Y-102958255D01*
X120228641Y-102887780D01*
X119867399Y-102887780D01*
X119513097Y-102958255D01*
X119179352Y-103096497D01*
X118878990Y-103297193D01*
X118623553Y-103552630D01*
X118422857Y-103852992D01*
X118284615Y-104186737D01*
X118214140Y-104541039D01*
X113093500Y-104541039D01*
X113093500Y-101607777D01*
X113130970Y-101645247D01*
X113431332Y-101845943D01*
X113765077Y-101984185D01*
X114119379Y-102054660D01*
X114480621Y-102054660D01*
X114834923Y-101984185D01*
X115168668Y-101845943D01*
X115469030Y-101645247D01*
X115724467Y-101389810D01*
X115925163Y-101089448D01*
X115945264Y-101040919D01*
X116464080Y-101040919D01*
X116464080Y-101402161D01*
X116534555Y-101756463D01*
X116672797Y-102090208D01*
X116873493Y-102390570D01*
X117128930Y-102646007D01*
X117429292Y-102846703D01*
X117763037Y-102984945D01*
X118117339Y-103055420D01*
X118478581Y-103055420D01*
X118832883Y-102984945D01*
X119166628Y-102846703D01*
X119466990Y-102646007D01*
X119722427Y-102390570D01*
X119923123Y-102090208D01*
X120061365Y-101756463D01*
X120131840Y-101402161D01*
X120131840Y-101040919D01*
X120061365Y-100686617D01*
X119923123Y-100352872D01*
X119722427Y-100052510D01*
X119466990Y-99797073D01*
X119166628Y-99596377D01*
X118832883Y-99458135D01*
X118478581Y-99387660D01*
X118117339Y-99387660D01*
X117763037Y-99458135D01*
X117429292Y-99596377D01*
X117128930Y-99797073D01*
X116873493Y-100052510D01*
X116672797Y-100352872D01*
X116534555Y-100686617D01*
X116464080Y-101040919D01*
X115945264Y-101040919D01*
X116063405Y-100755703D01*
X116133880Y-100401401D01*
X116133880Y-100040159D01*
X116063405Y-99685857D01*
X115925163Y-99352112D01*
X115724467Y-99051750D01*
X115469030Y-98796313D01*
X115168668Y-98595617D01*
X114834923Y-98457375D01*
X114480621Y-98386900D01*
X114119379Y-98386900D01*
X113765077Y-98457375D01*
X113721909Y-98475256D01*
X112735618Y-97488966D01*
X112709761Y-97457459D01*
X112584062Y-97354301D01*
X112440654Y-97277647D01*
X112285046Y-97230444D01*
X112163773Y-97218500D01*
X112163770Y-97218500D01*
X112123220Y-97214506D01*
X112082670Y-97218500D01*
X105139773Y-97218500D01*
X105218182Y-97071808D01*
X105300236Y-96801309D01*
X105327943Y-96520000D01*
X105300236Y-96238691D01*
X105218182Y-95968192D01*
X105084932Y-95718899D01*
X104905608Y-95500392D01*
X104687101Y-95321068D01*
X104437808Y-95187818D01*
X104167309Y-95105764D01*
X103956492Y-95085000D01*
X103815508Y-95085000D01*
X103604691Y-95105764D01*
X103334192Y-95187818D01*
X103084899Y-95321068D01*
X102866392Y-95500392D01*
X102687068Y-95718899D01*
X102553818Y-95968192D01*
X102471764Y-96238691D01*
X102444057Y-96520000D01*
X102471764Y-96801309D01*
X102553818Y-97071808D01*
X102632227Y-97218500D01*
X100613992Y-97218500D01*
X97946991Y-94551500D01*
X111973450Y-94551500D01*
X112014000Y-94555494D01*
X112054550Y-94551500D01*
X112054553Y-94551500D01*
X112175826Y-94539556D01*
X112331434Y-94492353D01*
X112474842Y-94415699D01*
X112600541Y-94312541D01*
X112626398Y-94281034D01*
X116625693Y-90281740D01*
X116702408Y-90297000D01*
X116977592Y-90297000D01*
X117247490Y-90243314D01*
X117501727Y-90138005D01*
X117730535Y-89985120D01*
X117925120Y-89790535D01*
X118078005Y-89561727D01*
X118110000Y-89484485D01*
X118141995Y-89561727D01*
X118294880Y-89790535D01*
X118489465Y-89985120D01*
X118718273Y-90138005D01*
X118972510Y-90243314D01*
X119242408Y-90297000D01*
X119517592Y-90297000D01*
X119787490Y-90243314D01*
X120041727Y-90138005D01*
X120270535Y-89985120D01*
X120465120Y-89790535D01*
X120618005Y-89561727D01*
X120650000Y-89484485D01*
X120681995Y-89561727D01*
X120834880Y-89790535D01*
X121029465Y-89985120D01*
X121258273Y-90138005D01*
X121512510Y-90243314D01*
X121782408Y-90297000D01*
X122057592Y-90297000D01*
X122327490Y-90243314D01*
X122581727Y-90138005D01*
X122810535Y-89985120D01*
X123005120Y-89790535D01*
X123158005Y-89561727D01*
X123263314Y-89307490D01*
X123317000Y-89037592D01*
X123317000Y-88762408D01*
X123263314Y-88492510D01*
X123158005Y-88238273D01*
X123005120Y-88009465D01*
X122810535Y-87814880D01*
X122581727Y-87661995D01*
X122327490Y-87556686D01*
X122057592Y-87503000D01*
X121782408Y-87503000D01*
X121705693Y-87518259D01*
X120246398Y-86058966D01*
X120220541Y-86027459D01*
X120094842Y-85924301D01*
X119951434Y-85847647D01*
X119795826Y-85800444D01*
X119674553Y-85788500D01*
X119674550Y-85788500D01*
X119634000Y-85784506D01*
X119593450Y-85788500D01*
X116118550Y-85788500D01*
X116078000Y-85784506D01*
X116037449Y-85788500D01*
X116037447Y-85788500D01*
X115916174Y-85800444D01*
X115760566Y-85847647D01*
X115617157Y-85924301D01*
X115522958Y-86001608D01*
X115522957Y-86001609D01*
X115491459Y-86027459D01*
X115465611Y-86058955D01*
X113082443Y-88442124D01*
X112998005Y-88238273D01*
X112845120Y-88009465D01*
X112650535Y-87814880D01*
X112421727Y-87661995D01*
X112167490Y-87556686D01*
X111897592Y-87503000D01*
X111622408Y-87503000D01*
X111352510Y-87556686D01*
X111098273Y-87661995D01*
X110869465Y-87814880D01*
X110674880Y-88009465D01*
X110521995Y-88238273D01*
X110490000Y-88315515D01*
X110458005Y-88238273D01*
X110305120Y-88009465D01*
X110110535Y-87814880D01*
X109881727Y-87661995D01*
X109627490Y-87556686D01*
X109533404Y-87537971D01*
X108308398Y-86312966D01*
X108282541Y-86281459D01*
X108156842Y-86178301D01*
X108013434Y-86101647D01*
X107857826Y-86054444D01*
X107736553Y-86042500D01*
X107736550Y-86042500D01*
X107696000Y-86038506D01*
X107655450Y-86042500D01*
X100116550Y-86042500D01*
X100076000Y-86038506D01*
X100035449Y-86042500D01*
X100035447Y-86042500D01*
X99914174Y-86054444D01*
X99758566Y-86101647D01*
X99615157Y-86178301D01*
X99520958Y-86255608D01*
X99520957Y-86255609D01*
X99489459Y-86281459D01*
X99463611Y-86312955D01*
X98338962Y-87437606D01*
X98338957Y-87437610D01*
X98338923Y-87437644D01*
X98335111Y-87436487D01*
X98116950Y-87415000D01*
X97971050Y-87415000D01*
X97752889Y-87436487D01*
X97472966Y-87521401D01*
X97214986Y-87659294D01*
X96988866Y-87844866D01*
X96803294Y-88070986D01*
X96774000Y-88125791D01*
X96744706Y-88070986D01*
X96559134Y-87844866D01*
X96333014Y-87659294D01*
X96075034Y-87521401D01*
X95795111Y-87436487D01*
X95576950Y-87415000D01*
X95431050Y-87415000D01*
X95212889Y-87436487D01*
X94932966Y-87521401D01*
X94674986Y-87659294D01*
X94448866Y-87844866D01*
X94263294Y-88070986D01*
X94234000Y-88125791D01*
X94204706Y-88070986D01*
X94019134Y-87844866D01*
X93793014Y-87659294D01*
X93535034Y-87521401D01*
X93255111Y-87436487D01*
X93036950Y-87415000D01*
X92891050Y-87415000D01*
X92672889Y-87436487D01*
X92392966Y-87521401D01*
X92134986Y-87659294D01*
X91908866Y-87844866D01*
X91723294Y-88070986D01*
X91694000Y-88125791D01*
X91664706Y-88070986D01*
X91479134Y-87844866D01*
X91253014Y-87659294D01*
X90995034Y-87521401D01*
X90715111Y-87436487D01*
X90496950Y-87415000D01*
X90351050Y-87415000D01*
X90132889Y-87436487D01*
X89852966Y-87521401D01*
X89594986Y-87659294D01*
X89368866Y-87844866D01*
X89183294Y-88070986D01*
X89154000Y-88125791D01*
X89124706Y-88070986D01*
X88939134Y-87844866D01*
X88713014Y-87659294D01*
X88455034Y-87521401D01*
X88175111Y-87436487D01*
X87956950Y-87415000D01*
X87811050Y-87415000D01*
X87592889Y-87436487D01*
X87312966Y-87521401D01*
X87054986Y-87659294D01*
X86828866Y-87844866D01*
X86643294Y-88070986D01*
X86614000Y-88125791D01*
X86584706Y-88070986D01*
X86399134Y-87844866D01*
X86173014Y-87659294D01*
X85915034Y-87521401D01*
X85635111Y-87436487D01*
X85416950Y-87415000D01*
X85271050Y-87415000D01*
X85052889Y-87436487D01*
X84772966Y-87521401D01*
X84514986Y-87659294D01*
X84288866Y-87844866D01*
X84264393Y-87874687D01*
X84243502Y-87805820D01*
X84184537Y-87695506D01*
X84105185Y-87598815D01*
X84008494Y-87519463D01*
X83898180Y-87460498D01*
X83778482Y-87424188D01*
X83654000Y-87411928D01*
X81954000Y-87411928D01*
X81829518Y-87424188D01*
X81709820Y-87460498D01*
X81599506Y-87519463D01*
X81502815Y-87598815D01*
X81423463Y-87695506D01*
X81364498Y-87805820D01*
X81328188Y-87925518D01*
X81315928Y-88050000D01*
X81315928Y-88115336D01*
X81255566Y-88133647D01*
X81112157Y-88210301D01*
X81040342Y-88269239D01*
X80986459Y-88313459D01*
X80960609Y-88344958D01*
X80470961Y-88834607D01*
X80439460Y-88860459D01*
X80397863Y-88911146D01*
X80336301Y-88986158D01*
X80259647Y-89129567D01*
X80212445Y-89285174D01*
X80196506Y-89447000D01*
X80200501Y-89487560D01*
X80200500Y-100035450D01*
X80196506Y-100076000D01*
X80200500Y-100116550D01*
X80200500Y-100116552D01*
X80212444Y-100237825D01*
X80226100Y-100282842D01*
X80259647Y-100393433D01*
X80336301Y-100536842D01*
X80361565Y-100567626D01*
X80439459Y-100662541D01*
X80470966Y-100688398D01*
X82720288Y-102937721D01*
X82617057Y-102958255D01*
X82283312Y-103096497D01*
X81982950Y-103297193D01*
X81727513Y-103552630D01*
X81526817Y-103852992D01*
X81388575Y-104186737D01*
X81318100Y-104541039D01*
X81318100Y-104902281D01*
X81388575Y-105256583D01*
X81526817Y-105590328D01*
X81727513Y-105890690D01*
X81982950Y-106146127D01*
X82283312Y-106346823D01*
X82617057Y-106485065D01*
X82971359Y-106555540D01*
X83332601Y-106555540D01*
X83686903Y-106485065D01*
X83730071Y-106467184D01*
X83795817Y-106532930D01*
X83795822Y-106532934D01*
X84264501Y-107001614D01*
X84264501Y-107757775D01*
X84020648Y-107594837D01*
X83686903Y-107456595D01*
X83332601Y-107386120D01*
X82971359Y-107386120D01*
X82617057Y-107456595D01*
X82283312Y-107594837D01*
X81982950Y-107795533D01*
X81727513Y-108050970D01*
X81526817Y-108351332D01*
X81388575Y-108685077D01*
X81318100Y-109039379D01*
X81318100Y-109400621D01*
X81388575Y-109754923D01*
X81526817Y-110088668D01*
X81727513Y-110389030D01*
X81982950Y-110644467D01*
X82283312Y-110845163D01*
X82617057Y-110983405D01*
X82971359Y-111053880D01*
X83332601Y-111053880D01*
X83686903Y-110983405D01*
X84020648Y-110845163D01*
X84264500Y-110682226D01*
X84264500Y-110957449D01*
X84260506Y-110998000D01*
X84264500Y-111038550D01*
X84264500Y-111038552D01*
X84276444Y-111159825D01*
X84323647Y-111315433D01*
X84400301Y-111458842D01*
X84434214Y-111500165D01*
X84503459Y-111584541D01*
X84534966Y-111610398D01*
X85817408Y-112892840D01*
X84795024Y-112892840D01*
X84777143Y-112849672D01*
X84576447Y-112549310D01*
X84321010Y-112293873D01*
X84020648Y-112093177D01*
X83686903Y-111954935D01*
X83332601Y-111884460D01*
X82971359Y-111884460D01*
X82617057Y-111954935D01*
X82283312Y-112093177D01*
X81982950Y-112293873D01*
X81727513Y-112549310D01*
X81526817Y-112849672D01*
X81388575Y-113183417D01*
X81318100Y-113537719D01*
X81318100Y-113898961D01*
X81388575Y-114253263D01*
X81526817Y-114587008D01*
X81727513Y-114887370D01*
X81982950Y-115142807D01*
X82283312Y-115343503D01*
X82617057Y-115481745D01*
X82971359Y-115552220D01*
X83332601Y-115552220D01*
X83686903Y-115481745D01*
X84020648Y-115343503D01*
X84321010Y-115142807D01*
X84576447Y-114887370D01*
X84777143Y-114587008D01*
X84795024Y-114543840D01*
X86452408Y-114543840D01*
X88364586Y-116456018D01*
X88031332Y-116594057D01*
X87730970Y-116794753D01*
X87475533Y-117050190D01*
X87274837Y-117350552D01*
X87136595Y-117684297D01*
X87066120Y-118038599D01*
X87066120Y-118399841D01*
X87096883Y-118554499D01*
X86159498Y-118554499D01*
X86326507Y-118387490D01*
X86527203Y-118087128D01*
X86665445Y-117753383D01*
X86735920Y-117399081D01*
X86735920Y-117037839D01*
X86665445Y-116683537D01*
X86527203Y-116349792D01*
X86326507Y-116049430D01*
X86071070Y-115793993D01*
X85770708Y-115593297D01*
X85436963Y-115455055D01*
X85082661Y-115384580D01*
X84721419Y-115384580D01*
X84367117Y-115455055D01*
X84033372Y-115593297D01*
X83733010Y-115793993D01*
X83477573Y-116049430D01*
X83276877Y-116349792D01*
X83138635Y-116683537D01*
X83068160Y-117037839D01*
X83068160Y-117399081D01*
X83138635Y-117753383D01*
X83276877Y-118087128D01*
X83477573Y-118387490D01*
X83644582Y-118554499D01*
X82931000Y-118554499D01*
X82931000Y-118480408D01*
X82877314Y-118210510D01*
X82772005Y-117956273D01*
X82619120Y-117727465D01*
X82424535Y-117532880D01*
X82195727Y-117379995D01*
X81941490Y-117274686D01*
X81671592Y-117221000D01*
X81396408Y-117221000D01*
X81126510Y-117274686D01*
X80872273Y-117379995D01*
X80643465Y-117532880D01*
X80448880Y-117727465D01*
X80295995Y-117956273D01*
X80190686Y-118210510D01*
X80137000Y-118480408D01*
X76847700Y-118480408D01*
X76847700Y-85737700D01*
X126352300Y-85737700D01*
X126352301Y-125603000D01*
X126352301Y-125603000D01*
G37*
X126352301Y-125603000D02*
X76847700Y-125603000D01*
X76847700Y-118480408D01*
X80137000Y-118480408D01*
X80137000Y-118755592D01*
X80190686Y-119025490D01*
X80295995Y-119279727D01*
X80448880Y-119508535D01*
X80643465Y-119703120D01*
X80872273Y-119856005D01*
X81126510Y-119961314D01*
X81396408Y-120015000D01*
X81671592Y-120015000D01*
X81749600Y-119999483D01*
X81835157Y-120069698D01*
X81978565Y-120146352D01*
X82134173Y-120193555D01*
X82255446Y-120205499D01*
X82255448Y-120205499D01*
X82295998Y-120209493D01*
X82336549Y-120205499D01*
X87698671Y-120205499D01*
X87739221Y-120209493D01*
X87779771Y-120205499D01*
X87779774Y-120205499D01*
X87901047Y-120193555D01*
X88056655Y-120146352D01*
X88200063Y-120069698D01*
X88325762Y-119966540D01*
X88325884Y-119966391D01*
X88365077Y-119982625D01*
X88719379Y-120053100D01*
X89080621Y-120053100D01*
X89434923Y-119982625D01*
X89768668Y-119844383D01*
X90069030Y-119643687D01*
X90324467Y-119388250D01*
X90525163Y-119087888D01*
X90663202Y-118754634D01*
X92859607Y-120951040D01*
X92885459Y-120982541D01*
X93011158Y-121085699D01*
X93154566Y-121162353D01*
X93310174Y-121209556D01*
X93431447Y-121221500D01*
X93431456Y-121221500D01*
X93471999Y-121225493D01*
X93512542Y-121221500D01*
X101813450Y-121221500D01*
X101854000Y-121225494D01*
X101894550Y-121221500D01*
X101894553Y-121221500D01*
X102015826Y-121209556D01*
X102171434Y-121162353D01*
X102314842Y-121085699D01*
X102440541Y-120982541D01*
X102466398Y-120951034D01*
X106379593Y-117037839D01*
X108468160Y-117037839D01*
X108468160Y-117399081D01*
X108538635Y-117753383D01*
X108676877Y-118087128D01*
X108877573Y-118387490D01*
X109133010Y-118642927D01*
X109433372Y-118843623D01*
X109767117Y-118981865D01*
X110121419Y-119052340D01*
X110482661Y-119052340D01*
X110836963Y-118981865D01*
X111170708Y-118843623D01*
X111471070Y-118642927D01*
X111726507Y-118387490D01*
X111927203Y-118087128D01*
X111947304Y-118038599D01*
X112466120Y-118038599D01*
X112466120Y-118399841D01*
X112536595Y-118754143D01*
X112674837Y-119087888D01*
X112875533Y-119388250D01*
X113130970Y-119643687D01*
X113431332Y-119844383D01*
X113765077Y-119982625D01*
X114119379Y-120053100D01*
X114480621Y-120053100D01*
X114834923Y-119982625D01*
X115168668Y-119844383D01*
X115469030Y-119643687D01*
X115724467Y-119388250D01*
X115925163Y-119087888D01*
X116063405Y-118754143D01*
X116133880Y-118399841D01*
X116133880Y-118038599D01*
X116063405Y-117684297D01*
X115925163Y-117350552D01*
X115724467Y-117050190D01*
X115712116Y-117037839D01*
X116464080Y-117037839D01*
X116464080Y-117399081D01*
X116534555Y-117753383D01*
X116672797Y-118087128D01*
X116873493Y-118387490D01*
X117128930Y-118642927D01*
X117429292Y-118843623D01*
X117763037Y-118981865D01*
X118117339Y-119052340D01*
X118478581Y-119052340D01*
X118832883Y-118981865D01*
X119166628Y-118843623D01*
X119466990Y-118642927D01*
X119722427Y-118387490D01*
X119923123Y-118087128D01*
X119941004Y-118043960D01*
X120230990Y-118043960D01*
X120271540Y-118047954D01*
X120312090Y-118043960D01*
X120312093Y-118043960D01*
X120433366Y-118032016D01*
X120588974Y-117984813D01*
X120732382Y-117908159D01*
X120858081Y-117805001D01*
X120883938Y-117773494D01*
X125269041Y-113388392D01*
X125300541Y-113362541D01*
X125353177Y-113298404D01*
X125403699Y-113236843D01*
X125480353Y-113093434D01*
X125500007Y-113028642D01*
X125527556Y-112937826D01*
X125539500Y-112816553D01*
X125539500Y-112816551D01*
X125543494Y-112776001D01*
X125539500Y-112735450D01*
X125539500Y-97698908D01*
X125733608Y-97539608D01*
X125912932Y-97321101D01*
X126046182Y-97071808D01*
X126128236Y-96801309D01*
X126155943Y-96520000D01*
X126128236Y-96238691D01*
X126046182Y-95968192D01*
X125912932Y-95718899D01*
X125733608Y-95500392D01*
X125515101Y-95321068D01*
X125265808Y-95187818D01*
X124995309Y-95105764D01*
X124784492Y-95085000D01*
X124643508Y-95085000D01*
X124432691Y-95105764D01*
X124162192Y-95187818D01*
X123912899Y-95321068D01*
X123694392Y-95500392D01*
X123515068Y-95718899D01*
X123381818Y-95968192D01*
X123299764Y-96238691D01*
X123272057Y-96520000D01*
X123299764Y-96801309D01*
X123381818Y-97071808D01*
X123515068Y-97321101D01*
X123694392Y-97539608D01*
X123888501Y-97698909D01*
X123888500Y-112434067D01*
X121547576Y-114774991D01*
X121673183Y-114587008D01*
X121811425Y-114253263D01*
X121881900Y-113898961D01*
X121881900Y-113537719D01*
X121811425Y-113183417D01*
X121673183Y-112849672D01*
X121472487Y-112549310D01*
X121217050Y-112293873D01*
X120916688Y-112093177D01*
X120582943Y-111954935D01*
X120228641Y-111884460D01*
X119867399Y-111884460D01*
X119513097Y-111954935D01*
X119179352Y-112093177D01*
X118878990Y-112293873D01*
X118623553Y-112549310D01*
X118422857Y-112849672D01*
X118284615Y-113183417D01*
X118214140Y-113537719D01*
X118214140Y-113898961D01*
X118284615Y-114253263D01*
X118422857Y-114587008D01*
X118623553Y-114887370D01*
X118878990Y-115142807D01*
X119179352Y-115343503D01*
X119513097Y-115481745D01*
X119867399Y-115552220D01*
X120228641Y-115552220D01*
X120582943Y-115481745D01*
X120916688Y-115343503D01*
X121104672Y-115217896D01*
X119937666Y-116384902D01*
X119923123Y-116349792D01*
X119722427Y-116049430D01*
X119466990Y-115793993D01*
X119166628Y-115593297D01*
X118832883Y-115455055D01*
X118478581Y-115384580D01*
X118117339Y-115384580D01*
X117763037Y-115455055D01*
X117429292Y-115593297D01*
X117128930Y-115793993D01*
X116873493Y-116049430D01*
X116672797Y-116349792D01*
X116534555Y-116683537D01*
X116464080Y-117037839D01*
X115712116Y-117037839D01*
X115469030Y-116794753D01*
X115168668Y-116594057D01*
X114834923Y-116455815D01*
X114480621Y-116385340D01*
X114119379Y-116385340D01*
X113765077Y-116455815D01*
X113431332Y-116594057D01*
X113130970Y-116794753D01*
X112875533Y-117050190D01*
X112674837Y-117350552D01*
X112536595Y-117684297D01*
X112466120Y-118038599D01*
X111947304Y-118038599D01*
X112065445Y-117753383D01*
X112135920Y-117399081D01*
X112135920Y-117037839D01*
X112065445Y-116683537D01*
X111927203Y-116349792D01*
X111726507Y-116049430D01*
X111471070Y-115793993D01*
X111170708Y-115593297D01*
X110836963Y-115455055D01*
X110482661Y-115384580D01*
X110121419Y-115384580D01*
X109767117Y-115455055D01*
X109433372Y-115593297D01*
X109133010Y-115793993D01*
X108877573Y-116049430D01*
X108676877Y-116349792D01*
X108538635Y-116683537D01*
X108468160Y-117037839D01*
X106379593Y-117037839D01*
X107959520Y-115457912D01*
X108017057Y-115481745D01*
X108371359Y-115552220D01*
X108732601Y-115552220D01*
X109086903Y-115481745D01*
X109420648Y-115343503D01*
X109721010Y-115142807D01*
X109976447Y-114887370D01*
X110177143Y-114587008D01*
X110315385Y-114253263D01*
X110385860Y-113898961D01*
X110385860Y-113537719D01*
X110315385Y-113183417D01*
X110177143Y-112849672D01*
X109976447Y-112549310D01*
X109721010Y-112293873D01*
X109420648Y-112093177D01*
X109086903Y-111954935D01*
X108732601Y-111884460D01*
X108371359Y-111884460D01*
X108017057Y-111954935D01*
X107683312Y-112093177D01*
X107382950Y-112293873D01*
X107127513Y-112549310D01*
X106926817Y-112849672D01*
X106788575Y-113183417D01*
X106718100Y-113537719D01*
X106718100Y-113898961D01*
X106788575Y-114253263D01*
X106800504Y-114282063D01*
X101512068Y-119570500D01*
X93813933Y-119570500D01*
X93259738Y-119016306D01*
X93432883Y-118981865D01*
X93766628Y-118843623D01*
X94066990Y-118642927D01*
X94322427Y-118387490D01*
X94523123Y-118087128D01*
X94661365Y-117753383D01*
X94731840Y-117399081D01*
X94731840Y-117037839D01*
X94661365Y-116683537D01*
X94523123Y-116349792D01*
X94383946Y-116141500D01*
X97917090Y-116141500D01*
X97957640Y-116145494D01*
X97998190Y-116141500D01*
X97998193Y-116141500D01*
X98119466Y-116129556D01*
X98275074Y-116082353D01*
X98418482Y-116005699D01*
X98544181Y-115902541D01*
X98570038Y-115871034D01*
X107973889Y-106467184D01*
X108017057Y-106485065D01*
X108371359Y-106555540D01*
X108732601Y-106555540D01*
X109086903Y-106485065D01*
X109420648Y-106346823D01*
X109721010Y-106146127D01*
X109976447Y-105890690D01*
X110177143Y-105590328D01*
X110315385Y-105256583D01*
X110385860Y-104902281D01*
X110385860Y-104541039D01*
X110315385Y-104186737D01*
X110177143Y-103852992D01*
X109976447Y-103552630D01*
X109721010Y-103297193D01*
X109420648Y-103096497D01*
X109086903Y-102958255D01*
X108732601Y-102887780D01*
X108371359Y-102887780D01*
X108017057Y-102958255D01*
X107683312Y-103096497D01*
X107382950Y-103297193D01*
X107127513Y-103552630D01*
X106926817Y-103852992D01*
X106788575Y-104186737D01*
X106718100Y-104541039D01*
X106718100Y-104902281D01*
X106788575Y-105256583D01*
X106806456Y-105299751D01*
X97615708Y-114490500D01*
X96313158Y-114490500D01*
X96411425Y-114253263D01*
X96481900Y-113898961D01*
X96481900Y-113537719D01*
X96411425Y-113183417D01*
X96273183Y-112849672D01*
X96072487Y-112549310D01*
X95817050Y-112293873D01*
X95516688Y-112093177D01*
X95182943Y-111954935D01*
X94828641Y-111884460D01*
X94467399Y-111884460D01*
X94113097Y-111954935D01*
X93779352Y-112093177D01*
X93478990Y-112293873D01*
X93223553Y-112549310D01*
X93022857Y-112849672D01*
X93004976Y-112892840D01*
X89168273Y-112892840D01*
X88629793Y-112354360D01*
X89208708Y-112354360D01*
X89814259Y-112233908D01*
X90384676Y-111997634D01*
X90898038Y-111654617D01*
X91334617Y-111218038D01*
X91677634Y-110704676D01*
X91913908Y-110134259D01*
X92034360Y-109528708D01*
X92034360Y-108911292D01*
X91913908Y-108305741D01*
X91677634Y-107735324D01*
X91334617Y-107221962D01*
X90898038Y-106785383D01*
X90384676Y-106442366D01*
X89814259Y-106206092D01*
X89208708Y-106085640D01*
X88591292Y-106085640D01*
X87985741Y-106206092D01*
X87415324Y-106442366D01*
X86901962Y-106785383D01*
X86496511Y-107190834D01*
X86496511Y-104761561D01*
X86500505Y-104721011D01*
X86495923Y-104674486D01*
X86484567Y-104559185D01*
X86437364Y-104403577D01*
X86361057Y-104260818D01*
X86360710Y-104260168D01*
X86283403Y-104165969D01*
X86283400Y-104165966D01*
X86257552Y-104134470D01*
X86226056Y-104108622D01*
X85157890Y-103040456D01*
X85436963Y-102984945D01*
X85770708Y-102846703D01*
X86071070Y-102646007D01*
X86326507Y-102390570D01*
X86527203Y-102090208D01*
X86665445Y-101756463D01*
X86735920Y-101402161D01*
X86735920Y-101040919D01*
X86665445Y-100686617D01*
X86527203Y-100352872D01*
X86326507Y-100052510D01*
X86071070Y-99797073D01*
X85770708Y-99596377D01*
X85436963Y-99458135D01*
X85082661Y-99387660D01*
X84721419Y-99387660D01*
X84367117Y-99458135D01*
X84033372Y-99596377D01*
X83733010Y-99797073D01*
X83477573Y-100052510D01*
X83276877Y-100352872D01*
X83138635Y-100686617D01*
X83083124Y-100965691D01*
X81851500Y-99734068D01*
X81851500Y-92579364D01*
X81974986Y-92680706D01*
X82232966Y-92818599D01*
X82512889Y-92903513D01*
X82731050Y-92925000D01*
X82876950Y-92925000D01*
X83095111Y-92903513D01*
X83098923Y-92902356D01*
X88606016Y-98409449D01*
X88365077Y-98457375D01*
X88031332Y-98595617D01*
X87730970Y-98796313D01*
X87475533Y-99051750D01*
X87274837Y-99352112D01*
X87136595Y-99685857D01*
X87066120Y-100040159D01*
X87066120Y-100401401D01*
X87136595Y-100755703D01*
X87274837Y-101089448D01*
X87475533Y-101389810D01*
X87730970Y-101645247D01*
X88031332Y-101845943D01*
X88365077Y-101984185D01*
X88719379Y-102054660D01*
X89080621Y-102054660D01*
X89434923Y-101984185D01*
X89768668Y-101845943D01*
X90069030Y-101645247D01*
X90292572Y-101421705D01*
X90292571Y-103861396D01*
X90288577Y-103901947D01*
X90292571Y-103942497D01*
X90292571Y-103942499D01*
X90304515Y-104063772D01*
X90325961Y-104134470D01*
X90351718Y-104219380D01*
X90428372Y-104362789D01*
X90461846Y-104403577D01*
X90531530Y-104488488D01*
X90563037Y-104514345D01*
X93697931Y-107649241D01*
X93478990Y-107795533D01*
X93223553Y-108050970D01*
X93022857Y-108351332D01*
X92884615Y-108685077D01*
X92814140Y-109039379D01*
X92814140Y-109400621D01*
X92884615Y-109754923D01*
X93022857Y-110088668D01*
X93223553Y-110389030D01*
X93478990Y-110644467D01*
X93779352Y-110845163D01*
X94113097Y-110983405D01*
X94467399Y-111053880D01*
X94828641Y-111053880D01*
X95182943Y-110983405D01*
X95516688Y-110845163D01*
X95817050Y-110644467D01*
X96072487Y-110389030D01*
X96273183Y-110088668D01*
X96411425Y-109754923D01*
X96481900Y-109400621D01*
X96481900Y-109039379D01*
X96411425Y-108685077D01*
X96273183Y-108351332D01*
X96072487Y-108050970D01*
X95817050Y-107795533D01*
X95516688Y-107594837D01*
X95473520Y-107576956D01*
X95473520Y-107472446D01*
X95477514Y-107431896D01*
X95473520Y-107391343D01*
X95461576Y-107270070D01*
X95414373Y-107114462D01*
X95340958Y-106977113D01*
X95337719Y-106971053D01*
X95260412Y-106876854D01*
X95260409Y-106876851D01*
X95234561Y-106845355D01*
X95203065Y-106819507D01*
X94920772Y-106537214D01*
X95182943Y-106485065D01*
X95516688Y-106346823D01*
X95817050Y-106146127D01*
X96072487Y-105890690D01*
X96273183Y-105590328D01*
X96411425Y-105256583D01*
X96481900Y-104902281D01*
X96481900Y-104541039D01*
X96411425Y-104186737D01*
X96273183Y-103852992D01*
X96072487Y-103552630D01*
X95817050Y-103297193D01*
X95516688Y-103096497D01*
X95473520Y-103078616D01*
X95473520Y-100196954D01*
X97053151Y-101776585D01*
X97078999Y-101808081D01*
X97110495Y-101833929D01*
X97110498Y-101833932D01*
X97204697Y-101911239D01*
X97341169Y-101984185D01*
X97348106Y-101987893D01*
X97503714Y-102035096D01*
X97624987Y-102047040D01*
X97624989Y-102047040D01*
X97665540Y-102051034D01*
X97706090Y-102047040D01*
X108658996Y-102047040D01*
X108676877Y-102090208D01*
X108877573Y-102390570D01*
X109133010Y-102646007D01*
X109433372Y-102846703D01*
X109767117Y-102984945D01*
X110121419Y-103055420D01*
X110482661Y-103055420D01*
X110836963Y-102984945D01*
X111170708Y-102846703D01*
X111442500Y-102665097D01*
X111442500Y-105162046D01*
X109130071Y-107474476D01*
X109086903Y-107456595D01*
X108732601Y-107386120D01*
X108371359Y-107386120D01*
X108017057Y-107456595D01*
X107683312Y-107594837D01*
X107382950Y-107795533D01*
X107127513Y-108050970D01*
X106926817Y-108351332D01*
X106788575Y-108685077D01*
X106718100Y-109039379D01*
X106718100Y-109400621D01*
X106788575Y-109754923D01*
X106926817Y-110088668D01*
X107127513Y-110389030D01*
X107382950Y-110644467D01*
X107683312Y-110845163D01*
X108017057Y-110983405D01*
X108371359Y-111053880D01*
X108732601Y-111053880D01*
X109086903Y-110983405D01*
X109420648Y-110845163D01*
X109721010Y-110644467D01*
X109976447Y-110389030D01*
X110177143Y-110088668D01*
X110315385Y-109754923D01*
X110385860Y-109400621D01*
X110385860Y-109039379D01*
X110360382Y-108911292D01*
X111165640Y-108911292D01*
X111165640Y-109528708D01*
X111286092Y-110134259D01*
X111522366Y-110704676D01*
X111865383Y-111218038D01*
X112301962Y-111654617D01*
X112815324Y-111997634D01*
X113385741Y-112233908D01*
X113991292Y-112354360D01*
X114608708Y-112354360D01*
X115214259Y-112233908D01*
X115784676Y-111997634D01*
X116298038Y-111654617D01*
X116734617Y-111218038D01*
X117077634Y-110704676D01*
X117313908Y-110134259D01*
X117434360Y-109528708D01*
X117434360Y-109039379D01*
X118214140Y-109039379D01*
X118214140Y-109400621D01*
X118284615Y-109754923D01*
X118422857Y-110088668D01*
X118623553Y-110389030D01*
X118878990Y-110644467D01*
X119179352Y-110845163D01*
X119513097Y-110983405D01*
X119867399Y-111053880D01*
X120228641Y-111053880D01*
X120582943Y-110983405D01*
X120916688Y-110845163D01*
X121217050Y-110644467D01*
X121472487Y-110389030D01*
X121673183Y-110088668D01*
X121811425Y-109754923D01*
X121881900Y-109400621D01*
X121881900Y-109039379D01*
X121811425Y-108685077D01*
X121673183Y-108351332D01*
X121472487Y-108050970D01*
X121217050Y-107795533D01*
X120916688Y-107594837D01*
X120582943Y-107456595D01*
X120228641Y-107386120D01*
X119867399Y-107386120D01*
X119513097Y-107456595D01*
X119179352Y-107594837D01*
X118878990Y-107795533D01*
X118623553Y-108050970D01*
X118422857Y-108351332D01*
X118284615Y-108685077D01*
X118214140Y-109039379D01*
X117434360Y-109039379D01*
X117434360Y-108911292D01*
X117313908Y-108305741D01*
X117077634Y-107735324D01*
X116734617Y-107221962D01*
X116298038Y-106785383D01*
X115784676Y-106442366D01*
X115214259Y-106206092D01*
X114608708Y-106085640D01*
X113991292Y-106085640D01*
X113385741Y-106206092D01*
X112815324Y-106442366D01*
X112301962Y-106785383D01*
X111865383Y-107221962D01*
X111522366Y-107735324D01*
X111286092Y-108305741D01*
X111165640Y-108911292D01*
X110360382Y-108911292D01*
X110315385Y-108685077D01*
X110297504Y-108641909D01*
X112823046Y-106116368D01*
X112854541Y-106090521D01*
X112880389Y-106059025D01*
X112880392Y-106059022D01*
X112957699Y-105964823D01*
X113034353Y-105821414D01*
X113053373Y-105758712D01*
X113081556Y-105665806D01*
X113093500Y-105544533D01*
X113093500Y-105544531D01*
X113097494Y-105503980D01*
X113093500Y-105463430D01*
X113093500Y-104541039D01*
X118214140Y-104541039D01*
X118214140Y-104902281D01*
X118284615Y-105256583D01*
X118422857Y-105590328D01*
X118623553Y-105890690D01*
X118878990Y-106146127D01*
X119179352Y-106346823D01*
X119513097Y-106485065D01*
X119867399Y-106555540D01*
X120228641Y-106555540D01*
X120582943Y-106485065D01*
X120916688Y-106346823D01*
X121217050Y-106146127D01*
X121472487Y-105890690D01*
X121673183Y-105590328D01*
X121811425Y-105256583D01*
X121881900Y-104902281D01*
X121881900Y-104541039D01*
X121811425Y-104186737D01*
X121673183Y-103852992D01*
X121472487Y-103552630D01*
X121217050Y-103297193D01*
X120916688Y-103096497D01*
X120582943Y-102958255D01*
X120228641Y-102887780D01*
X119867399Y-102887780D01*
X119513097Y-102958255D01*
X119179352Y-103096497D01*
X118878990Y-103297193D01*
X118623553Y-103552630D01*
X118422857Y-103852992D01*
X118284615Y-104186737D01*
X118214140Y-104541039D01*
X113093500Y-104541039D01*
X113093500Y-101607777D01*
X113130970Y-101645247D01*
X113431332Y-101845943D01*
X113765077Y-101984185D01*
X114119379Y-102054660D01*
X114480621Y-102054660D01*
X114834923Y-101984185D01*
X115168668Y-101845943D01*
X115469030Y-101645247D01*
X115724467Y-101389810D01*
X115925163Y-101089448D01*
X115945264Y-101040919D01*
X116464080Y-101040919D01*
X116464080Y-101402161D01*
X116534555Y-101756463D01*
X116672797Y-102090208D01*
X116873493Y-102390570D01*
X117128930Y-102646007D01*
X117429292Y-102846703D01*
X117763037Y-102984945D01*
X118117339Y-103055420D01*
X118478581Y-103055420D01*
X118832883Y-102984945D01*
X119166628Y-102846703D01*
X119466990Y-102646007D01*
X119722427Y-102390570D01*
X119923123Y-102090208D01*
X120061365Y-101756463D01*
X120131840Y-101402161D01*
X120131840Y-101040919D01*
X120061365Y-100686617D01*
X119923123Y-100352872D01*
X119722427Y-100052510D01*
X119466990Y-99797073D01*
X119166628Y-99596377D01*
X118832883Y-99458135D01*
X118478581Y-99387660D01*
X118117339Y-99387660D01*
X117763037Y-99458135D01*
X117429292Y-99596377D01*
X117128930Y-99797073D01*
X116873493Y-100052510D01*
X116672797Y-100352872D01*
X116534555Y-100686617D01*
X116464080Y-101040919D01*
X115945264Y-101040919D01*
X116063405Y-100755703D01*
X116133880Y-100401401D01*
X116133880Y-100040159D01*
X116063405Y-99685857D01*
X115925163Y-99352112D01*
X115724467Y-99051750D01*
X115469030Y-98796313D01*
X115168668Y-98595617D01*
X114834923Y-98457375D01*
X114480621Y-98386900D01*
X114119379Y-98386900D01*
X113765077Y-98457375D01*
X113721909Y-98475256D01*
X112735618Y-97488966D01*
X112709761Y-97457459D01*
X112584062Y-97354301D01*
X112440654Y-97277647D01*
X112285046Y-97230444D01*
X112163773Y-97218500D01*
X112163770Y-97218500D01*
X112123220Y-97214506D01*
X112082670Y-97218500D01*
X105139773Y-97218500D01*
X105218182Y-97071808D01*
X105300236Y-96801309D01*
X105327943Y-96520000D01*
X105300236Y-96238691D01*
X105218182Y-95968192D01*
X105084932Y-95718899D01*
X104905608Y-95500392D01*
X104687101Y-95321068D01*
X104437808Y-95187818D01*
X104167309Y-95105764D01*
X103956492Y-95085000D01*
X103815508Y-95085000D01*
X103604691Y-95105764D01*
X103334192Y-95187818D01*
X103084899Y-95321068D01*
X102866392Y-95500392D01*
X102687068Y-95718899D01*
X102553818Y-95968192D01*
X102471764Y-96238691D01*
X102444057Y-96520000D01*
X102471764Y-96801309D01*
X102553818Y-97071808D01*
X102632227Y-97218500D01*
X100613992Y-97218500D01*
X97946991Y-94551500D01*
X111973450Y-94551500D01*
X112014000Y-94555494D01*
X112054550Y-94551500D01*
X112054553Y-94551500D01*
X112175826Y-94539556D01*
X112331434Y-94492353D01*
X112474842Y-94415699D01*
X112600541Y-94312541D01*
X112626398Y-94281034D01*
X116625693Y-90281740D01*
X116702408Y-90297000D01*
X116977592Y-90297000D01*
X117247490Y-90243314D01*
X117501727Y-90138005D01*
X117730535Y-89985120D01*
X117925120Y-89790535D01*
X118078005Y-89561727D01*
X118110000Y-89484485D01*
X118141995Y-89561727D01*
X118294880Y-89790535D01*
X118489465Y-89985120D01*
X118718273Y-90138005D01*
X118972510Y-90243314D01*
X119242408Y-90297000D01*
X119517592Y-90297000D01*
X119787490Y-90243314D01*
X120041727Y-90138005D01*
X120270535Y-89985120D01*
X120465120Y-89790535D01*
X120618005Y-89561727D01*
X120650000Y-89484485D01*
X120681995Y-89561727D01*
X120834880Y-89790535D01*
X121029465Y-89985120D01*
X121258273Y-90138005D01*
X121512510Y-90243314D01*
X121782408Y-90297000D01*
X122057592Y-90297000D01*
X122327490Y-90243314D01*
X122581727Y-90138005D01*
X122810535Y-89985120D01*
X123005120Y-89790535D01*
X123158005Y-89561727D01*
X123263314Y-89307490D01*
X123317000Y-89037592D01*
X123317000Y-88762408D01*
X123263314Y-88492510D01*
X123158005Y-88238273D01*
X123005120Y-88009465D01*
X122810535Y-87814880D01*
X122581727Y-87661995D01*
X122327490Y-87556686D01*
X122057592Y-87503000D01*
X121782408Y-87503000D01*
X121705693Y-87518259D01*
X120246398Y-86058966D01*
X120220541Y-86027459D01*
X120094842Y-85924301D01*
X119951434Y-85847647D01*
X119795826Y-85800444D01*
X119674553Y-85788500D01*
X119674550Y-85788500D01*
X119634000Y-85784506D01*
X119593450Y-85788500D01*
X116118550Y-85788500D01*
X116078000Y-85784506D01*
X116037449Y-85788500D01*
X116037447Y-85788500D01*
X115916174Y-85800444D01*
X115760566Y-85847647D01*
X115617157Y-85924301D01*
X115522958Y-86001608D01*
X115522957Y-86001609D01*
X115491459Y-86027459D01*
X115465611Y-86058955D01*
X113082443Y-88442124D01*
X112998005Y-88238273D01*
X112845120Y-88009465D01*
X112650535Y-87814880D01*
X112421727Y-87661995D01*
X112167490Y-87556686D01*
X111897592Y-87503000D01*
X111622408Y-87503000D01*
X111352510Y-87556686D01*
X111098273Y-87661995D01*
X110869465Y-87814880D01*
X110674880Y-88009465D01*
X110521995Y-88238273D01*
X110490000Y-88315515D01*
X110458005Y-88238273D01*
X110305120Y-88009465D01*
X110110535Y-87814880D01*
X109881727Y-87661995D01*
X109627490Y-87556686D01*
X109533404Y-87537971D01*
X108308398Y-86312966D01*
X108282541Y-86281459D01*
X108156842Y-86178301D01*
X108013434Y-86101647D01*
X107857826Y-86054444D01*
X107736553Y-86042500D01*
X107736550Y-86042500D01*
X107696000Y-86038506D01*
X107655450Y-86042500D01*
X100116550Y-86042500D01*
X100076000Y-86038506D01*
X100035449Y-86042500D01*
X100035447Y-86042500D01*
X99914174Y-86054444D01*
X99758566Y-86101647D01*
X99615157Y-86178301D01*
X99520958Y-86255608D01*
X99520957Y-86255609D01*
X99489459Y-86281459D01*
X99463611Y-86312955D01*
X98338962Y-87437606D01*
X98338957Y-87437610D01*
X98338923Y-87437644D01*
X98335111Y-87436487D01*
X98116950Y-87415000D01*
X97971050Y-87415000D01*
X97752889Y-87436487D01*
X97472966Y-87521401D01*
X97214986Y-87659294D01*
X96988866Y-87844866D01*
X96803294Y-88070986D01*
X96774000Y-88125791D01*
X96744706Y-88070986D01*
X96559134Y-87844866D01*
X96333014Y-87659294D01*
X96075034Y-87521401D01*
X95795111Y-87436487D01*
X95576950Y-87415000D01*
X95431050Y-87415000D01*
X95212889Y-87436487D01*
X94932966Y-87521401D01*
X94674986Y-87659294D01*
X94448866Y-87844866D01*
X94263294Y-88070986D01*
X94234000Y-88125791D01*
X94204706Y-88070986D01*
X94019134Y-87844866D01*
X93793014Y-87659294D01*
X93535034Y-87521401D01*
X93255111Y-87436487D01*
X93036950Y-87415000D01*
X92891050Y-87415000D01*
X92672889Y-87436487D01*
X92392966Y-87521401D01*
X92134986Y-87659294D01*
X91908866Y-87844866D01*
X91723294Y-88070986D01*
X91694000Y-88125791D01*
X91664706Y-88070986D01*
X91479134Y-87844866D01*
X91253014Y-87659294D01*
X90995034Y-87521401D01*
X90715111Y-87436487D01*
X90496950Y-87415000D01*
X90351050Y-87415000D01*
X90132889Y-87436487D01*
X89852966Y-87521401D01*
X89594986Y-87659294D01*
X89368866Y-87844866D01*
X89183294Y-88070986D01*
X89154000Y-88125791D01*
X89124706Y-88070986D01*
X88939134Y-87844866D01*
X88713014Y-87659294D01*
X88455034Y-87521401D01*
X88175111Y-87436487D01*
X87956950Y-87415000D01*
X87811050Y-87415000D01*
X87592889Y-87436487D01*
X87312966Y-87521401D01*
X87054986Y-87659294D01*
X86828866Y-87844866D01*
X86643294Y-88070986D01*
X86614000Y-88125791D01*
X86584706Y-88070986D01*
X86399134Y-87844866D01*
X86173014Y-87659294D01*
X85915034Y-87521401D01*
X85635111Y-87436487D01*
X85416950Y-87415000D01*
X85271050Y-87415000D01*
X85052889Y-87436487D01*
X84772966Y-87521401D01*
X84514986Y-87659294D01*
X84288866Y-87844866D01*
X84264393Y-87874687D01*
X84243502Y-87805820D01*
X84184537Y-87695506D01*
X84105185Y-87598815D01*
X84008494Y-87519463D01*
X83898180Y-87460498D01*
X83778482Y-87424188D01*
X83654000Y-87411928D01*
X81954000Y-87411928D01*
X81829518Y-87424188D01*
X81709820Y-87460498D01*
X81599506Y-87519463D01*
X81502815Y-87598815D01*
X81423463Y-87695506D01*
X81364498Y-87805820D01*
X81328188Y-87925518D01*
X81315928Y-88050000D01*
X81315928Y-88115336D01*
X81255566Y-88133647D01*
X81112157Y-88210301D01*
X81040342Y-88269239D01*
X80986459Y-88313459D01*
X80960609Y-88344958D01*
X80470961Y-88834607D01*
X80439460Y-88860459D01*
X80397863Y-88911146D01*
X80336301Y-88986158D01*
X80259647Y-89129567D01*
X80212445Y-89285174D01*
X80196506Y-89447000D01*
X80200501Y-89487560D01*
X80200500Y-100035450D01*
X80196506Y-100076000D01*
X80200500Y-100116550D01*
X80200500Y-100116552D01*
X80212444Y-100237825D01*
X80226100Y-100282842D01*
X80259647Y-100393433D01*
X80336301Y-100536842D01*
X80361565Y-100567626D01*
X80439459Y-100662541D01*
X80470966Y-100688398D01*
X82720288Y-102937721D01*
X82617057Y-102958255D01*
X82283312Y-103096497D01*
X81982950Y-103297193D01*
X81727513Y-103552630D01*
X81526817Y-103852992D01*
X81388575Y-104186737D01*
X81318100Y-104541039D01*
X81318100Y-104902281D01*
X81388575Y-105256583D01*
X81526817Y-105590328D01*
X81727513Y-105890690D01*
X81982950Y-106146127D01*
X82283312Y-106346823D01*
X82617057Y-106485065D01*
X82971359Y-106555540D01*
X83332601Y-106555540D01*
X83686903Y-106485065D01*
X83730071Y-106467184D01*
X83795817Y-106532930D01*
X83795822Y-106532934D01*
X84264501Y-107001614D01*
X84264501Y-107757775D01*
X84020648Y-107594837D01*
X83686903Y-107456595D01*
X83332601Y-107386120D01*
X82971359Y-107386120D01*
X82617057Y-107456595D01*
X82283312Y-107594837D01*
X81982950Y-107795533D01*
X81727513Y-108050970D01*
X81526817Y-108351332D01*
X81388575Y-108685077D01*
X81318100Y-109039379D01*
X81318100Y-109400621D01*
X81388575Y-109754923D01*
X81526817Y-110088668D01*
X81727513Y-110389030D01*
X81982950Y-110644467D01*
X82283312Y-110845163D01*
X82617057Y-110983405D01*
X82971359Y-111053880D01*
X83332601Y-111053880D01*
X83686903Y-110983405D01*
X84020648Y-110845163D01*
X84264500Y-110682226D01*
X84264500Y-110957449D01*
X84260506Y-110998000D01*
X84264500Y-111038550D01*
X84264500Y-111038552D01*
X84276444Y-111159825D01*
X84323647Y-111315433D01*
X84400301Y-111458842D01*
X84434214Y-111500165D01*
X84503459Y-111584541D01*
X84534966Y-111610398D01*
X85817408Y-112892840D01*
X84795024Y-112892840D01*
X84777143Y-112849672D01*
X84576447Y-112549310D01*
X84321010Y-112293873D01*
X84020648Y-112093177D01*
X83686903Y-111954935D01*
X83332601Y-111884460D01*
X82971359Y-111884460D01*
X82617057Y-111954935D01*
X82283312Y-112093177D01*
X81982950Y-112293873D01*
X81727513Y-112549310D01*
X81526817Y-112849672D01*
X81388575Y-113183417D01*
X81318100Y-113537719D01*
X81318100Y-113898961D01*
X81388575Y-114253263D01*
X81526817Y-114587008D01*
X81727513Y-114887370D01*
X81982950Y-115142807D01*
X82283312Y-115343503D01*
X82617057Y-115481745D01*
X82971359Y-115552220D01*
X83332601Y-115552220D01*
X83686903Y-115481745D01*
X84020648Y-115343503D01*
X84321010Y-115142807D01*
X84576447Y-114887370D01*
X84777143Y-114587008D01*
X84795024Y-114543840D01*
X86452408Y-114543840D01*
X88364586Y-116456018D01*
X88031332Y-116594057D01*
X87730970Y-116794753D01*
X87475533Y-117050190D01*
X87274837Y-117350552D01*
X87136595Y-117684297D01*
X87066120Y-118038599D01*
X87066120Y-118399841D01*
X87096883Y-118554499D01*
X86159498Y-118554499D01*
X86326507Y-118387490D01*
X86527203Y-118087128D01*
X86665445Y-117753383D01*
X86735920Y-117399081D01*
X86735920Y-117037839D01*
X86665445Y-116683537D01*
X86527203Y-116349792D01*
X86326507Y-116049430D01*
X86071070Y-115793993D01*
X85770708Y-115593297D01*
X85436963Y-115455055D01*
X85082661Y-115384580D01*
X84721419Y-115384580D01*
X84367117Y-115455055D01*
X84033372Y-115593297D01*
X83733010Y-115793993D01*
X83477573Y-116049430D01*
X83276877Y-116349792D01*
X83138635Y-116683537D01*
X83068160Y-117037839D01*
X83068160Y-117399081D01*
X83138635Y-117753383D01*
X83276877Y-118087128D01*
X83477573Y-118387490D01*
X83644582Y-118554499D01*
X82931000Y-118554499D01*
X82931000Y-118480408D01*
X82877314Y-118210510D01*
X82772005Y-117956273D01*
X82619120Y-117727465D01*
X82424535Y-117532880D01*
X82195727Y-117379995D01*
X81941490Y-117274686D01*
X81671592Y-117221000D01*
X81396408Y-117221000D01*
X81126510Y-117274686D01*
X80872273Y-117379995D01*
X80643465Y-117532880D01*
X80448880Y-117727465D01*
X80295995Y-117956273D01*
X80190686Y-118210510D01*
X80137000Y-118480408D01*
X76847700Y-118480408D01*
X76847700Y-85737700D01*
X126352300Y-85737700D01*
X126352301Y-125603000D01*
G36*
X91272797Y-116349792D02*
G01*
X91134555Y-116683537D01*
X91100114Y-116856682D01*
X90384932Y-116141500D01*
X91411974Y-116141500D01*
X91272797Y-116349792D01*
X91272797Y-116349792D01*
G37*
X91272797Y-116349792D02*
X91134555Y-116683537D01*
X91100114Y-116856682D01*
X90384932Y-116141500D01*
X91411974Y-116141500D01*
X91272797Y-116349792D01*
G36*
X92029292Y-102846703D02*
G01*
X92363037Y-102984945D01*
X92717339Y-103055420D01*
X93078581Y-103055420D01*
X93432883Y-102984945D01*
X93766628Y-102846703D01*
X93822520Y-102809357D01*
X93822520Y-103078616D01*
X93779352Y-103096497D01*
X93478990Y-103297193D01*
X93223553Y-103552630D01*
X93022857Y-103852992D01*
X92884615Y-104186737D01*
X92832466Y-104448909D01*
X91943571Y-103560015D01*
X91943571Y-102789426D01*
X92029292Y-102846703D01*
X92029292Y-102846703D01*
G37*
X92029292Y-102846703D02*
X92363037Y-102984945D01*
X92717339Y-103055420D01*
X93078581Y-103055420D01*
X93432883Y-102984945D01*
X93766628Y-102846703D01*
X93822520Y-102809357D01*
X93822520Y-103078616D01*
X93779352Y-103096497D01*
X93478990Y-103297193D01*
X93223553Y-103552630D01*
X93022857Y-103852992D01*
X92884615Y-104186737D01*
X92832466Y-104448909D01*
X91943571Y-103560015D01*
X91943571Y-102789426D01*
X92029292Y-102846703D01*
G36*
X90718957Y-92902390D02*
G01*
X90718963Y-92902395D01*
X97177607Y-99361040D01*
X97203459Y-99392541D01*
X97267596Y-99445177D01*
X97329157Y-99495699D01*
X97452858Y-99561819D01*
X97472566Y-99572353D01*
X97628174Y-99619556D01*
X97749447Y-99631500D01*
X97749449Y-99631500D01*
X97790000Y-99635494D01*
X97830550Y-99631500D01*
X109380807Y-99631500D01*
X109133010Y-99797073D01*
X108877573Y-100052510D01*
X108676877Y-100352872D01*
X108658996Y-100396040D01*
X98007474Y-100396040D01*
X90532892Y-92921460D01*
X90715111Y-92903513D01*
X90718923Y-92902356D01*
X90718957Y-92902390D01*
X90718957Y-92902390D01*
G37*
X90718957Y-92902390D02*
X90718963Y-92902395D01*
X97177607Y-99361040D01*
X97203459Y-99392541D01*
X97267596Y-99445177D01*
X97329157Y-99495699D01*
X97452858Y-99561819D01*
X97472566Y-99572353D01*
X97628174Y-99619556D01*
X97749447Y-99631500D01*
X97749449Y-99631500D01*
X97790000Y-99635494D01*
X97830550Y-99631500D01*
X109380807Y-99631500D01*
X109133010Y-99797073D01*
X108877573Y-100052510D01*
X108676877Y-100352872D01*
X108658996Y-100396040D01*
X98007474Y-100396040D01*
X90532892Y-92921460D01*
X90715111Y-92903513D01*
X90718923Y-92902356D01*
X90718957Y-92902390D01*
G36*
X92853268Y-99387660D02*
G01*
X92717339Y-99387660D01*
X92524581Y-99426002D01*
X92524581Y-99058973D01*
X92853268Y-99387660D01*
X92853268Y-99387660D01*
G37*
X92853268Y-99387660D02*
X92717339Y-99387660D01*
X92524581Y-99426002D01*
X92524581Y-99058973D01*
X92853268Y-99387660D01*
G36*
X99041124Y-97980500D02*
G01*
X98131933Y-97980500D01*
X93072892Y-92921460D01*
X93255111Y-92903513D01*
X93535034Y-92818599D01*
X93759334Y-92698708D01*
X99041124Y-97980500D01*
X99041124Y-97980500D01*
G37*
X99041124Y-97980500D02*
X98131933Y-97980500D01*
X93072892Y-92921460D01*
X93255111Y-92903513D01*
X93535034Y-92818599D01*
X93759334Y-92698708D01*
X99041124Y-97980500D01*
G36*
X84288866Y-89955134D02*
G01*
X84514986Y-90140706D01*
X84569791Y-90170000D01*
X84514986Y-90199294D01*
X84288866Y-90384866D01*
X84103294Y-90610986D01*
X84074000Y-90665791D01*
X84044706Y-90610986D01*
X83859134Y-90384866D01*
X83829313Y-90360393D01*
X83898180Y-90339502D01*
X84008494Y-90280537D01*
X84105185Y-90201185D01*
X84184537Y-90104494D01*
X84243502Y-89994180D01*
X84264393Y-89925313D01*
X84288866Y-89955134D01*
X84288866Y-89955134D01*
G37*
X84288866Y-89955134D02*
X84514986Y-90140706D01*
X84569791Y-90170000D01*
X84514986Y-90199294D01*
X84288866Y-90384866D01*
X84103294Y-90610986D01*
X84074000Y-90665791D01*
X84044706Y-90610986D01*
X83859134Y-90384866D01*
X83829313Y-90360393D01*
X83898180Y-90339502D01*
X84008494Y-90280537D01*
X84105185Y-90201185D01*
X84184537Y-90104494D01*
X84243502Y-89994180D01*
X84264393Y-89925313D01*
X84288866Y-89955134D01*
G36*
X107299003Y-90170000D02*
G01*
X107363460Y-90248541D01*
X107394961Y-90274393D01*
X107735068Y-90614500D01*
X106132932Y-90614500D01*
X106465693Y-90281740D01*
X106542408Y-90297000D01*
X106817592Y-90297000D01*
X107087490Y-90243314D01*
X107290246Y-90159329D01*
X107299003Y-90170000D01*
X107299003Y-90170000D01*
G37*
X107299003Y-90170000D02*
X107363460Y-90248541D01*
X107394961Y-90274393D01*
X107735068Y-90614500D01*
X106132932Y-90614500D01*
X106465693Y-90281740D01*
X106542408Y-90297000D01*
X106817592Y-90297000D01*
X107087490Y-90243314D01*
X107290246Y-90159329D01*
X107299003Y-90170000D01*
G36*
X94674986Y-90140706D02*
G01*
X94729791Y-90170000D01*
X94708666Y-90181292D01*
X94636478Y-90109103D01*
X94674986Y-90140706D01*
X94674986Y-90140706D01*
G37*
X94674986Y-90140706D02*
X94729791Y-90170000D01*
X94708666Y-90181292D01*
X94636478Y-90109103D01*
X94674986Y-90140706D01*
G36*
X94263294Y-89729014D02*
G01*
X94294899Y-89767524D01*
X94222708Y-89695334D01*
X94234000Y-89674209D01*
X94263294Y-89729014D01*
X94263294Y-89729014D01*
G37*
X94263294Y-89729014D02*
X94294899Y-89767524D01*
X94222708Y-89695334D01*
X94234000Y-89674209D01*
X94263294Y-89729014D01*
G36*
X105336686Y-88492510D02*
G01*
X105283000Y-88762408D01*
X105283000Y-89037592D01*
X105298260Y-89114307D01*
X105038569Y-89373999D01*
X101992034Y-89373999D01*
X102047513Y-89191111D01*
X102076185Y-88900000D01*
X102047513Y-88608889D01*
X102046356Y-88605076D01*
X102195933Y-88455500D01*
X105352016Y-88455500D01*
X105336686Y-88492510D01*
X105336686Y-88492510D01*
G37*
X105336686Y-88492510D02*
X105283000Y-88762408D01*
X105283000Y-89037592D01*
X105298260Y-89114307D01*
X105038569Y-89373999D01*
X101992034Y-89373999D01*
X102047513Y-89191111D01*
X102076185Y-88900000D01*
X102047513Y-88608889D01*
X102046356Y-88605076D01*
X102195933Y-88455500D01*
X105352016Y-88455500D01*
X105336686Y-88492510D01*
G36*
X119355568Y-87503000D02*
G01*
X119242408Y-87503000D01*
X119165693Y-87518260D01*
X119086933Y-87439500D01*
X119292068Y-87439500D01*
X119355568Y-87503000D01*
X119355568Y-87503000D01*
G37*
X119355568Y-87503000D02*
X119242408Y-87503000D01*
X119165693Y-87518260D01*
X119086933Y-87439500D01*
X119292068Y-87439500D01*
X119355568Y-87503000D01*
M02*
