G04 #@! TF.GenerationSoftware,KiCad,Pcbnew,(5.1.0)-1*
G04 #@! TF.CreationDate,2021-10-08T02:53:16-05:00*
G04 #@! TF.ProjectId,nixie_legacy-digit,6e697869-655f-46c6-9567-6163792d6469,rev?*
G04 #@! TF.SameCoordinates,Original*
G04 #@! TF.FileFunction,Other,Fab,Bot*
%FSLAX46Y46*%
G04 Gerber Fmt 4.6, Leading zero omitted, Abs format (unit mm)*
G04 Created by KiCad (PCBNEW (5.1.0)-1) date 2021-10-08 02:53:16*
%MOMM*%
%LPD*%
G04 APERTURE LIST*
%ADD10C,0.100000*%
%ADD11C,0.150000*%
G04 APERTURE END LIST*
D10*
X100330000Y-119380000D02*
X104140000Y-119380000D01*
X104140000Y-119380000D02*
X104140000Y-99060000D01*
X104140000Y-99060000D02*
X99060000Y-99060000D01*
X99060000Y-99060000D02*
X99060000Y-118110000D01*
X99060000Y-118110000D02*
X100330000Y-119380000D01*
X110764000Y-89560000D02*
X113264000Y-89560000D01*
X113264000Y-89560000D02*
X113264000Y-95860000D01*
X113264000Y-95860000D02*
X110764000Y-95860000D01*
X110764000Y-95860000D02*
X110764000Y-89560000D01*
X112014000Y-96520000D02*
X112014000Y-95860000D01*
X89936000Y-89560000D02*
X92436000Y-89560000D01*
X92436000Y-89560000D02*
X92436000Y-95860000D01*
X92436000Y-95860000D02*
X89936000Y-95860000D01*
X89936000Y-95860000D02*
X89936000Y-89560000D01*
X91186000Y-96520000D02*
X91186000Y-95860000D01*
D11*
X105552380Y-98452380D02*
X105552380Y-97452380D01*
X105552380Y-97928571D02*
X104980952Y-97928571D01*
X104980952Y-98452380D02*
X104980952Y-97452380D01*
X104504761Y-97928571D02*
X104171428Y-97928571D01*
X104028571Y-98452380D02*
X104504761Y-98452380D01*
X104504761Y-97452380D01*
X104028571Y-97452380D01*
X103647619Y-98166666D02*
X103171428Y-98166666D01*
X103742857Y-98452380D02*
X103409523Y-97452380D01*
X103076190Y-98452380D01*
X102742857Y-98452380D02*
X102742857Y-97452380D01*
X102504761Y-97452380D01*
X102361904Y-97500000D01*
X102266666Y-97595238D01*
X102219047Y-97690476D01*
X102171428Y-97880952D01*
X102171428Y-98023809D01*
X102219047Y-98214285D01*
X102266666Y-98309523D01*
X102361904Y-98404761D01*
X102504761Y-98452380D01*
X102742857Y-98452380D01*
X101742857Y-97928571D02*
X101409523Y-97928571D01*
X101266666Y-98452380D02*
X101742857Y-98452380D01*
X101742857Y-97452380D01*
X101266666Y-97452380D01*
X100266666Y-98452380D02*
X100600000Y-97976190D01*
X100838095Y-98452380D02*
X100838095Y-97452380D01*
X100457142Y-97452380D01*
X100361904Y-97500000D01*
X100314285Y-97547619D01*
X100266666Y-97642857D01*
X100266666Y-97785714D01*
X100314285Y-97880952D01*
X100361904Y-97928571D01*
X100457142Y-97976190D01*
X100838095Y-97976190D01*
X100076190Y-98547619D02*
X99314285Y-98547619D01*
X98552380Y-98452380D02*
X99123809Y-98452380D01*
X98838095Y-98452380D02*
X98838095Y-97452380D01*
X98933333Y-97595238D01*
X99028571Y-97690476D01*
X99123809Y-97738095D01*
X97695238Y-97452380D02*
X97885714Y-97452380D01*
X97980952Y-97500000D01*
X98028571Y-97547619D01*
X98123809Y-97690476D01*
X98171428Y-97880952D01*
X98171428Y-98261904D01*
X98123809Y-98357142D01*
X98076190Y-98404761D01*
X97980952Y-98452380D01*
X97790476Y-98452380D01*
X97695238Y-98404761D01*
X97647619Y-98357142D01*
X97600000Y-98261904D01*
X97600000Y-98023809D01*
X97647619Y-97928571D01*
X97695238Y-97880952D01*
X97790476Y-97833333D01*
X97980952Y-97833333D01*
X98076190Y-97880952D01*
X98123809Y-97928571D01*
X98171428Y-98023809D01*
X102147619Y-110267619D02*
X101957142Y-110267619D01*
X102147619Y-109886666D02*
X101957142Y-109886666D01*
X102147619Y-109267619D02*
X102147619Y-109172380D01*
X102100000Y-109077142D01*
X102052380Y-109029523D01*
X101957142Y-108981904D01*
X101766666Y-108934285D01*
X101528571Y-108934285D01*
X101338095Y-108981904D01*
X101242857Y-109029523D01*
X101195238Y-109077142D01*
X101147619Y-109172380D01*
X101147619Y-109267619D01*
X101195238Y-109362857D01*
X101242857Y-109410476D01*
X101338095Y-109458095D01*
X101528571Y-109505714D01*
X101766666Y-109505714D01*
X101957142Y-109458095D01*
X102052380Y-109410476D01*
X102100000Y-109362857D01*
X102147619Y-109267619D01*
X102147619Y-108553333D02*
X101957142Y-108553333D01*
X102147619Y-108172380D02*
X101957142Y-108172380D01*
X113931619Y-91543333D02*
X113884000Y-91590952D01*
X113836380Y-91686190D01*
X113836380Y-91924285D01*
X113884000Y-92019523D01*
X113931619Y-92067142D01*
X114026857Y-92114761D01*
X114122095Y-92114761D01*
X114264952Y-92067142D01*
X114836380Y-91495714D01*
X114836380Y-92114761D01*
X113836380Y-92733809D02*
X113836380Y-92829047D01*
X113884000Y-92924285D01*
X113931619Y-92971904D01*
X114026857Y-93019523D01*
X114217333Y-93067142D01*
X114455428Y-93067142D01*
X114645904Y-93019523D01*
X114741142Y-92971904D01*
X114788761Y-92924285D01*
X114836380Y-92829047D01*
X114836380Y-92733809D01*
X114788761Y-92638571D01*
X114741142Y-92590952D01*
X114645904Y-92543333D01*
X114455428Y-92495714D01*
X114217333Y-92495714D01*
X114026857Y-92543333D01*
X113931619Y-92590952D01*
X113884000Y-92638571D01*
X113836380Y-92733809D01*
X114836380Y-93495714D02*
X113836380Y-93495714D01*
X114455428Y-93590952D02*
X114836380Y-93876666D01*
X114169714Y-93876666D02*
X114550666Y-93495714D01*
X112466380Y-91281428D02*
X111990190Y-90948095D01*
X112466380Y-90710000D02*
X111466380Y-90710000D01*
X111466380Y-91090952D01*
X111514000Y-91186190D01*
X111561619Y-91233809D01*
X111656857Y-91281428D01*
X111799714Y-91281428D01*
X111894952Y-91233809D01*
X111942571Y-91186190D01*
X111990190Y-91090952D01*
X111990190Y-90710000D01*
X111561619Y-92424285D02*
X111514000Y-92471904D01*
X111466380Y-92567142D01*
X111466380Y-92805238D01*
X111514000Y-92900476D01*
X111561619Y-92948095D01*
X111656857Y-92995714D01*
X111752095Y-92995714D01*
X111894952Y-92948095D01*
X112466380Y-92376666D01*
X112466380Y-92995714D01*
X111466380Y-93614761D02*
X111466380Y-93710000D01*
X111514000Y-93805238D01*
X111561619Y-93852857D01*
X111656857Y-93900476D01*
X111847333Y-93948095D01*
X112085428Y-93948095D01*
X112275904Y-93900476D01*
X112371142Y-93852857D01*
X112418761Y-93805238D01*
X112466380Y-93710000D01*
X112466380Y-93614761D01*
X112418761Y-93519523D01*
X112371142Y-93471904D01*
X112275904Y-93424285D01*
X112085428Y-93376666D01*
X111847333Y-93376666D01*
X111656857Y-93424285D01*
X111561619Y-93471904D01*
X111514000Y-93519523D01*
X111466380Y-93614761D01*
X112466380Y-94376666D02*
X111466380Y-94376666D01*
X112085428Y-94471904D02*
X112466380Y-94757619D01*
X111799714Y-94757619D02*
X112180666Y-94376666D01*
X93103619Y-91543333D02*
X93056000Y-91590952D01*
X93008380Y-91686190D01*
X93008380Y-91924285D01*
X93056000Y-92019523D01*
X93103619Y-92067142D01*
X93198857Y-92114761D01*
X93294095Y-92114761D01*
X93436952Y-92067142D01*
X94008380Y-91495714D01*
X94008380Y-92114761D01*
X93008380Y-92733809D02*
X93008380Y-92829047D01*
X93056000Y-92924285D01*
X93103619Y-92971904D01*
X93198857Y-93019523D01*
X93389333Y-93067142D01*
X93627428Y-93067142D01*
X93817904Y-93019523D01*
X93913142Y-92971904D01*
X93960761Y-92924285D01*
X94008380Y-92829047D01*
X94008380Y-92733809D01*
X93960761Y-92638571D01*
X93913142Y-92590952D01*
X93817904Y-92543333D01*
X93627428Y-92495714D01*
X93389333Y-92495714D01*
X93198857Y-92543333D01*
X93103619Y-92590952D01*
X93056000Y-92638571D01*
X93008380Y-92733809D01*
X94008380Y-93495714D02*
X93008380Y-93495714D01*
X93627428Y-93590952D02*
X94008380Y-93876666D01*
X93341714Y-93876666D02*
X93722666Y-93495714D01*
X91638380Y-91281428D02*
X91162190Y-90948095D01*
X91638380Y-90710000D02*
X90638380Y-90710000D01*
X90638380Y-91090952D01*
X90686000Y-91186190D01*
X90733619Y-91233809D01*
X90828857Y-91281428D01*
X90971714Y-91281428D01*
X91066952Y-91233809D01*
X91114571Y-91186190D01*
X91162190Y-91090952D01*
X91162190Y-90710000D01*
X90733619Y-92424285D02*
X90686000Y-92471904D01*
X90638380Y-92567142D01*
X90638380Y-92805238D01*
X90686000Y-92900476D01*
X90733619Y-92948095D01*
X90828857Y-92995714D01*
X90924095Y-92995714D01*
X91066952Y-92948095D01*
X91638380Y-92376666D01*
X91638380Y-92995714D01*
X90638380Y-93614761D02*
X90638380Y-93710000D01*
X90686000Y-93805238D01*
X90733619Y-93852857D01*
X90828857Y-93900476D01*
X91019333Y-93948095D01*
X91257428Y-93948095D01*
X91447904Y-93900476D01*
X91543142Y-93852857D01*
X91590761Y-93805238D01*
X91638380Y-93710000D01*
X91638380Y-93614761D01*
X91590761Y-93519523D01*
X91543142Y-93471904D01*
X91447904Y-93424285D01*
X91257428Y-93376666D01*
X91019333Y-93376666D01*
X90828857Y-93424285D01*
X90733619Y-93471904D01*
X90686000Y-93519523D01*
X90638380Y-93614761D01*
X91638380Y-94376666D02*
X90638380Y-94376666D01*
X91257428Y-94471904D02*
X91638380Y-94757619D01*
X90971714Y-94757619D02*
X91352666Y-94376666D01*
X112696190Y-87066380D02*
X112696190Y-86066380D01*
X112696190Y-86542571D02*
X112124761Y-86542571D01*
X112124761Y-87066380D02*
X112124761Y-86066380D01*
X111648571Y-86542571D02*
X111315238Y-86542571D01*
X111172380Y-87066380D02*
X111648571Y-87066380D01*
X111648571Y-86066380D01*
X111172380Y-86066380D01*
X110791428Y-86780666D02*
X110315238Y-86780666D01*
X110886666Y-87066380D02*
X110553333Y-86066380D01*
X110220000Y-87066380D01*
X109886666Y-87066380D02*
X109886666Y-86066380D01*
X109648571Y-86066380D01*
X109505714Y-86114000D01*
X109410476Y-86209238D01*
X109362857Y-86304476D01*
X109315238Y-86494952D01*
X109315238Y-86637809D01*
X109362857Y-86828285D01*
X109410476Y-86923523D01*
X109505714Y-87018761D01*
X109648571Y-87066380D01*
X109886666Y-87066380D01*
X108886666Y-86542571D02*
X108553333Y-86542571D01*
X108410476Y-87066380D02*
X108886666Y-87066380D01*
X108886666Y-86066380D01*
X108410476Y-86066380D01*
X107410476Y-87066380D02*
X107743809Y-86590190D01*
X107981904Y-87066380D02*
X107981904Y-86066380D01*
X107600952Y-86066380D01*
X107505714Y-86114000D01*
X107458095Y-86161619D01*
X107410476Y-86256857D01*
X107410476Y-86399714D01*
X107458095Y-86494952D01*
X107505714Y-86542571D01*
X107600952Y-86590190D01*
X107981904Y-86590190D01*
X107220000Y-87161619D02*
X106458095Y-87161619D01*
X105696190Y-87066380D02*
X106267619Y-87066380D01*
X105981904Y-87066380D02*
X105981904Y-86066380D01*
X106077142Y-86209238D01*
X106172380Y-86304476D01*
X106267619Y-86352095D01*
X102536190Y-87066380D02*
X102536190Y-86066380D01*
X102536190Y-86542571D02*
X101964761Y-86542571D01*
X101964761Y-87066380D02*
X101964761Y-86066380D01*
X101488571Y-86542571D02*
X101155238Y-86542571D01*
X101012380Y-87066380D02*
X101488571Y-87066380D01*
X101488571Y-86066380D01*
X101012380Y-86066380D01*
X100631428Y-86780666D02*
X100155238Y-86780666D01*
X100726666Y-87066380D02*
X100393333Y-86066380D01*
X100060000Y-87066380D01*
X99726666Y-87066380D02*
X99726666Y-86066380D01*
X99488571Y-86066380D01*
X99345714Y-86114000D01*
X99250476Y-86209238D01*
X99202857Y-86304476D01*
X99155238Y-86494952D01*
X99155238Y-86637809D01*
X99202857Y-86828285D01*
X99250476Y-86923523D01*
X99345714Y-87018761D01*
X99488571Y-87066380D01*
X99726666Y-87066380D01*
X98726666Y-86542571D02*
X98393333Y-86542571D01*
X98250476Y-87066380D02*
X98726666Y-87066380D01*
X98726666Y-86066380D01*
X98250476Y-86066380D01*
X97250476Y-87066380D02*
X97583809Y-86590190D01*
X97821904Y-87066380D02*
X97821904Y-86066380D01*
X97440952Y-86066380D01*
X97345714Y-86114000D01*
X97298095Y-86161619D01*
X97250476Y-86256857D01*
X97250476Y-86399714D01*
X97298095Y-86494952D01*
X97345714Y-86542571D01*
X97440952Y-86590190D01*
X97821904Y-86590190D01*
X97060000Y-87161619D02*
X96298095Y-87161619D01*
X95536190Y-87066380D02*
X96107619Y-87066380D01*
X95821904Y-87066380D02*
X95821904Y-86066380D01*
X95917142Y-86209238D01*
X96012380Y-86304476D01*
X96107619Y-86352095D01*
X110156190Y-87066380D02*
X110156190Y-86066380D01*
X110156190Y-86542571D02*
X109584761Y-86542571D01*
X109584761Y-87066380D02*
X109584761Y-86066380D01*
X109108571Y-86542571D02*
X108775238Y-86542571D01*
X108632380Y-87066380D02*
X109108571Y-87066380D01*
X109108571Y-86066380D01*
X108632380Y-86066380D01*
X108251428Y-86780666D02*
X107775238Y-86780666D01*
X108346666Y-87066380D02*
X108013333Y-86066380D01*
X107680000Y-87066380D01*
X107346666Y-87066380D02*
X107346666Y-86066380D01*
X107108571Y-86066380D01*
X106965714Y-86114000D01*
X106870476Y-86209238D01*
X106822857Y-86304476D01*
X106775238Y-86494952D01*
X106775238Y-86637809D01*
X106822857Y-86828285D01*
X106870476Y-86923523D01*
X106965714Y-87018761D01*
X107108571Y-87066380D01*
X107346666Y-87066380D01*
X106346666Y-86542571D02*
X106013333Y-86542571D01*
X105870476Y-87066380D02*
X106346666Y-87066380D01*
X106346666Y-86066380D01*
X105870476Y-86066380D01*
X104870476Y-87066380D02*
X105203809Y-86590190D01*
X105441904Y-87066380D02*
X105441904Y-86066380D01*
X105060952Y-86066380D01*
X104965714Y-86114000D01*
X104918095Y-86161619D01*
X104870476Y-86256857D01*
X104870476Y-86399714D01*
X104918095Y-86494952D01*
X104965714Y-86542571D01*
X105060952Y-86590190D01*
X105441904Y-86590190D01*
X104680000Y-87161619D02*
X103918095Y-87161619D01*
X103156190Y-87066380D02*
X103727619Y-87066380D01*
X103441904Y-87066380D02*
X103441904Y-86066380D01*
X103537142Y-86209238D01*
X103632380Y-86304476D01*
X103727619Y-86352095D01*
X99996190Y-87066380D02*
X99996190Y-86066380D01*
X99996190Y-86542571D02*
X99424761Y-86542571D01*
X99424761Y-87066380D02*
X99424761Y-86066380D01*
X98948571Y-86542571D02*
X98615238Y-86542571D01*
X98472380Y-87066380D02*
X98948571Y-87066380D01*
X98948571Y-86066380D01*
X98472380Y-86066380D01*
X98091428Y-86780666D02*
X97615238Y-86780666D01*
X98186666Y-87066380D02*
X97853333Y-86066380D01*
X97520000Y-87066380D01*
X97186666Y-87066380D02*
X97186666Y-86066380D01*
X96948571Y-86066380D01*
X96805714Y-86114000D01*
X96710476Y-86209238D01*
X96662857Y-86304476D01*
X96615238Y-86494952D01*
X96615238Y-86637809D01*
X96662857Y-86828285D01*
X96710476Y-86923523D01*
X96805714Y-87018761D01*
X96948571Y-87066380D01*
X97186666Y-87066380D01*
X96186666Y-86542571D02*
X95853333Y-86542571D01*
X95710476Y-87066380D02*
X96186666Y-87066380D01*
X96186666Y-86066380D01*
X95710476Y-86066380D01*
X94710476Y-87066380D02*
X95043809Y-86590190D01*
X95281904Y-87066380D02*
X95281904Y-86066380D01*
X94900952Y-86066380D01*
X94805714Y-86114000D01*
X94758095Y-86161619D01*
X94710476Y-86256857D01*
X94710476Y-86399714D01*
X94758095Y-86494952D01*
X94805714Y-86542571D01*
X94900952Y-86590190D01*
X95281904Y-86590190D01*
X94520000Y-87161619D02*
X93758095Y-87161619D01*
X92996190Y-87066380D02*
X93567619Y-87066380D01*
X93281904Y-87066380D02*
X93281904Y-86066380D01*
X93377142Y-86209238D01*
X93472380Y-86304476D01*
X93567619Y-86352095D01*
X107616190Y-87066380D02*
X107616190Y-86066380D01*
X107616190Y-86542571D02*
X107044761Y-86542571D01*
X107044761Y-87066380D02*
X107044761Y-86066380D01*
X106568571Y-86542571D02*
X106235238Y-86542571D01*
X106092380Y-87066380D02*
X106568571Y-87066380D01*
X106568571Y-86066380D01*
X106092380Y-86066380D01*
X105711428Y-86780666D02*
X105235238Y-86780666D01*
X105806666Y-87066380D02*
X105473333Y-86066380D01*
X105140000Y-87066380D01*
X104806666Y-87066380D02*
X104806666Y-86066380D01*
X104568571Y-86066380D01*
X104425714Y-86114000D01*
X104330476Y-86209238D01*
X104282857Y-86304476D01*
X104235238Y-86494952D01*
X104235238Y-86637809D01*
X104282857Y-86828285D01*
X104330476Y-86923523D01*
X104425714Y-87018761D01*
X104568571Y-87066380D01*
X104806666Y-87066380D01*
X103806666Y-86542571D02*
X103473333Y-86542571D01*
X103330476Y-87066380D02*
X103806666Y-87066380D01*
X103806666Y-86066380D01*
X103330476Y-86066380D01*
X102330476Y-87066380D02*
X102663809Y-86590190D01*
X102901904Y-87066380D02*
X102901904Y-86066380D01*
X102520952Y-86066380D01*
X102425714Y-86114000D01*
X102378095Y-86161619D01*
X102330476Y-86256857D01*
X102330476Y-86399714D01*
X102378095Y-86494952D01*
X102425714Y-86542571D01*
X102520952Y-86590190D01*
X102901904Y-86590190D01*
X102140000Y-87161619D02*
X101378095Y-87161619D01*
X100616190Y-87066380D02*
X101187619Y-87066380D01*
X100901904Y-87066380D02*
X100901904Y-86066380D01*
X100997142Y-86209238D01*
X101092380Y-86304476D01*
X101187619Y-86352095D01*
M02*
