G04 #@! TF.GenerationSoftware,KiCad,Pcbnew,(5.1.0)-1*
G04 #@! TF.CreationDate,2021-10-08T02:53:16-05:00*
G04 #@! TF.ProjectId,nixie_legacy-digit,6e697869-655f-46c6-9567-6163792d6469,rev?*
G04 #@! TF.SameCoordinates,Original*
G04 #@! TF.FileFunction,Copper,L2,Bot*
G04 #@! TF.FilePolarity,Positive*
%FSLAX46Y46*%
G04 Gerber Fmt 4.6, Leading zero omitted, Abs format (unit mm)*
G04 Created by KiCad (PCBNEW (5.1.0)-1) date 2021-10-08 02:53:16*
%MOMM*%
%LPD*%
G04 APERTURE LIST*
%ADD10C,0.300000*%
%ADD11O,1.700000X1.700000*%
%ADD12R,1.700000X1.700000*%
%ADD13C,2.397760*%
%ADD14C,1.524000*%
%ADD15O,1.600000X1.600000*%
%ADD16C,0.381000*%
G04 APERTURE END LIST*
D10*
X109175428Y-95166571D02*
X109175428Y-93666571D01*
X108318285Y-95166571D01*
X108318285Y-93666571D01*
X107604000Y-95166571D02*
X107604000Y-94166571D01*
X107604000Y-93666571D02*
X107675428Y-93738000D01*
X107604000Y-93809428D01*
X107532571Y-93738000D01*
X107604000Y-93666571D01*
X107604000Y-93809428D01*
X107032571Y-95166571D02*
X106246857Y-94166571D01*
X107032571Y-94166571D02*
X106246857Y-95166571D01*
X105675428Y-95166571D02*
X105675428Y-94166571D01*
X105675428Y-93666571D02*
X105746857Y-93738000D01*
X105675428Y-93809428D01*
X105604000Y-93738000D01*
X105675428Y-93666571D01*
X105675428Y-93809428D01*
X104389714Y-95095142D02*
X104532571Y-95166571D01*
X104818285Y-95166571D01*
X104961142Y-95095142D01*
X105032571Y-94952285D01*
X105032571Y-94380857D01*
X104961142Y-94238000D01*
X104818285Y-94166571D01*
X104532571Y-94166571D01*
X104389714Y-94238000D01*
X104318285Y-94380857D01*
X104318285Y-94523714D01*
X105032571Y-94666571D01*
X101889714Y-95166571D02*
X101889714Y-93666571D01*
X101889714Y-95095142D02*
X102032571Y-95166571D01*
X102318285Y-95166571D01*
X102461142Y-95095142D01*
X102532571Y-95023714D01*
X102604000Y-94880857D01*
X102604000Y-94452285D01*
X102532571Y-94309428D01*
X102461142Y-94238000D01*
X102318285Y-94166571D01*
X102032571Y-94166571D01*
X101889714Y-94238000D01*
X101175428Y-95166571D02*
X101175428Y-94166571D01*
X101175428Y-93666571D02*
X101246857Y-93738000D01*
X101175428Y-93809428D01*
X101104000Y-93738000D01*
X101175428Y-93666571D01*
X101175428Y-93809428D01*
X99818285Y-94166571D02*
X99818285Y-95380857D01*
X99889714Y-95523714D01*
X99961142Y-95595142D01*
X100104000Y-95666571D01*
X100318285Y-95666571D01*
X100461142Y-95595142D01*
X99818285Y-95095142D02*
X99961142Y-95166571D01*
X100246857Y-95166571D01*
X100389714Y-95095142D01*
X100461142Y-95023714D01*
X100532571Y-94880857D01*
X100532571Y-94452285D01*
X100461142Y-94309428D01*
X100389714Y-94238000D01*
X100246857Y-94166571D01*
X99961142Y-94166571D01*
X99818285Y-94238000D01*
X99104000Y-95166571D02*
X99104000Y-94166571D01*
X99104000Y-93666571D02*
X99175428Y-93738000D01*
X99104000Y-93809428D01*
X99032571Y-93738000D01*
X99104000Y-93666571D01*
X99104000Y-93809428D01*
X98604000Y-94166571D02*
X98032571Y-94166571D01*
X98389714Y-93666571D02*
X98389714Y-94952285D01*
X98318285Y-95095142D01*
X98175428Y-95166571D01*
X98032571Y-95166571D01*
X96532571Y-94166571D02*
X96175428Y-95166571D01*
X95818285Y-94166571D01*
X95318285Y-93809428D02*
X95246857Y-93738000D01*
X95104000Y-93666571D01*
X94746857Y-93666571D01*
X94604000Y-93738000D01*
X94532571Y-93809428D01*
X94461142Y-93952285D01*
X94461142Y-94095142D01*
X94532571Y-94309428D01*
X95389714Y-95166571D01*
X94461142Y-95166571D01*
D11*
X100330000Y-115570000D03*
X102870000Y-115570000D03*
X100330000Y-113030000D03*
X102870000Y-113030000D03*
X100330000Y-110490000D03*
X102870000Y-110490000D03*
X100330000Y-107950000D03*
X102870000Y-107950000D03*
X100330000Y-105410000D03*
X102870000Y-105410000D03*
X100330000Y-102870000D03*
X102870000Y-102870000D03*
X100330000Y-100330000D03*
X102870000Y-100330000D03*
D12*
X102870000Y-118110000D03*
D11*
X100330000Y-118110000D03*
D13*
X120048020Y-113718340D03*
X110302040Y-117218460D03*
X108551980Y-113718340D03*
X108551980Y-109220000D03*
X108551980Y-104721660D03*
X110302040Y-101221540D03*
X114300000Y-100220780D03*
X118297960Y-101221540D03*
X120048020Y-104721660D03*
X120048020Y-109220000D03*
X118297960Y-117218460D03*
X114300000Y-118219220D03*
X94648020Y-113718340D03*
X84902040Y-117218460D03*
X83151980Y-113718340D03*
X83151980Y-109220000D03*
X83151980Y-104721660D03*
X84902040Y-101221540D03*
X88900000Y-100220780D03*
X92897960Y-101221540D03*
X94648020Y-104721660D03*
X94648020Y-109220000D03*
X92897960Y-117218460D03*
X88900000Y-118219220D03*
D14*
X81534000Y-118618000D03*
D15*
X112014000Y-96520000D03*
X91186000Y-96520000D03*
D14*
X109220000Y-88900000D03*
X99060000Y-88900000D03*
X106680000Y-88900000D03*
X96520000Y-88900000D03*
X104140000Y-88900000D03*
X93980000Y-88900000D03*
D16*
X110302040Y-108016040D02*
X110302040Y-115522988D01*
X101629499Y-106650501D02*
X108936501Y-106650501D01*
X100330000Y-107950000D02*
X101629499Y-106650501D01*
X108936501Y-106650501D02*
X110302040Y-108016040D01*
X110302040Y-115522988D02*
X110302040Y-117218460D01*
X110302040Y-117218460D02*
X110365540Y-117218460D01*
X100330000Y-107950000D02*
X100584000Y-107950000D01*
X100330000Y-110490000D02*
X101600000Y-109220000D01*
X101600000Y-109220000D02*
X108551980Y-109220000D01*
X86106000Y-99314000D02*
X84074000Y-99314000D01*
X81953101Y-108021121D02*
X83151980Y-109220000D01*
X86868000Y-100838000D02*
X86868000Y-100076000D01*
X84074000Y-99314000D02*
X81280000Y-102108000D01*
X100330000Y-110490000D02*
X99822000Y-110490000D01*
X81280000Y-107348020D02*
X81953101Y-108021121D01*
X92710000Y-106680000D02*
X86868000Y-100838000D01*
X81280000Y-102108000D02*
X81280000Y-107348020D01*
X86868000Y-100076000D02*
X86106000Y-99314000D01*
X99822000Y-110490000D02*
X96012000Y-106680000D01*
X96012000Y-106680000D02*
X92710000Y-106680000D01*
X108458000Y-119126000D02*
X111506000Y-119126000D01*
X112268000Y-115062000D02*
X110998000Y-113792000D01*
X103661499Y-114329499D02*
X108458000Y-119126000D01*
X101629499Y-114329499D02*
X103661499Y-114329499D01*
X100330000Y-113030000D02*
X101629499Y-114329499D01*
X111506000Y-119126000D02*
X112268000Y-118364000D01*
X110302040Y-102936040D02*
X110302040Y-101221540D01*
X110998000Y-113792000D02*
X110998000Y-103632000D01*
X110998000Y-103632000D02*
X110302040Y-102936040D01*
X112268000Y-118364000D02*
X112268000Y-115062000D01*
X87180419Y-102420419D02*
X86100919Y-102420419D01*
X86100919Y-102420419D02*
X84902040Y-101221540D01*
X92202000Y-107442000D02*
X87180419Y-102420419D01*
X95758000Y-107442000D02*
X92202000Y-107442000D01*
X100330000Y-113030000D02*
X97028000Y-109728000D01*
X97028000Y-108712000D02*
X95758000Y-107442000D01*
X97028000Y-109728000D02*
X97028000Y-108712000D01*
X115628420Y-98552000D02*
X95567500Y-98552000D01*
X95567500Y-98552000D02*
X94096839Y-100022661D01*
X94096839Y-100022661D02*
X92897960Y-101221540D01*
X118297960Y-101221540D02*
X115628420Y-98552000D01*
X118297960Y-102917012D02*
X118297960Y-101221540D01*
X117856000Y-103358972D02*
X118297960Y-102917012D01*
X117856000Y-113538000D02*
X117856000Y-103358972D01*
X116332000Y-115062000D02*
X117856000Y-113538000D01*
X101570501Y-116810501D02*
X104618501Y-116810501D01*
X100330000Y-115570000D02*
X101570501Y-116810501D01*
X104618501Y-116810501D02*
X108204000Y-120396000D01*
X108204000Y-120396000D02*
X115570000Y-120396000D01*
X115570000Y-120396000D02*
X116332000Y-119634000D01*
X116332000Y-119634000D02*
X116332000Y-115062000D01*
X120048020Y-104721660D02*
X120142000Y-104627680D01*
X120142000Y-100330000D02*
X117602001Y-97790001D01*
X93471999Y-97790001D02*
X90932000Y-100330000D01*
X90932000Y-100330000D02*
X90932000Y-102616000D01*
X90932000Y-102616000D02*
X92964000Y-104648000D01*
X94574360Y-104648000D02*
X94648020Y-104721660D01*
X120142000Y-104627680D02*
X120142000Y-100330000D01*
X92964000Y-104648000D02*
X94574360Y-104648000D01*
X117602001Y-97790001D02*
X93471999Y-97790001D01*
X97536000Y-112107980D02*
X94648020Y-109220000D01*
X100330000Y-118110000D02*
X97536000Y-115316000D01*
X97536000Y-115316000D02*
X97536000Y-112107980D01*
X121246899Y-110418879D02*
X120048020Y-109220000D01*
X117856000Y-121158000D02*
X121920000Y-117094000D01*
X121920000Y-111091980D02*
X121246899Y-110418879D01*
X103378000Y-121158000D02*
X117856000Y-121158000D01*
X121920000Y-117094000D02*
X121920000Y-111091980D01*
X100330000Y-118110000D02*
X103378000Y-121158000D01*
X92897960Y-117218460D02*
X90802460Y-117218460D01*
X80518000Y-109474000D02*
X80518000Y-100838000D01*
X90054630Y-96520000D02*
X91186000Y-96520000D01*
X90802460Y-117218460D02*
X85090000Y-111506000D01*
X84836000Y-96520000D02*
X90054630Y-96520000D01*
X85090000Y-111506000D02*
X82550000Y-111506000D01*
X80518000Y-100838000D02*
X84836000Y-96520000D01*
X82550000Y-111506000D02*
X80518000Y-109474000D01*
M02*
