G04 #@! TF.GenerationSoftware,KiCad,Pcbnew,(5.1.0)-1*
G04 #@! TF.CreationDate,2021-08-08T02:08:22-05:00*
G04 #@! TF.ProjectId,nixie_legacy-digit,6e697869-655f-46c6-9567-6163792d6469,rev?*
G04 #@! TF.SameCoordinates,Original*
G04 #@! TF.FileFunction,Legend,Top*
G04 #@! TF.FilePolarity,Positive*
%FSLAX46Y46*%
G04 Gerber Fmt 4.6, Leading zero omitted, Abs format (unit mm)*
G04 Created by KiCad (PCBNEW (5.1.0)-1) date 2021-08-08 02:08:22*
%MOMM*%
%LPD*%
G04 APERTURE LIST*
%ADD10C,0.150000*%
%ADD11C,0.120000*%
%ADD12C,0.254000*%
%ADD13C,0.127000*%
%ADD14C,0.101600*%
G04 APERTURE END LIST*
D10*
X96528000Y-112934285D02*
X96480380Y-113029523D01*
X96480380Y-113172380D01*
X96528000Y-113315238D01*
X96623238Y-113410476D01*
X96718476Y-113458095D01*
X96908952Y-113505714D01*
X97051809Y-113505714D01*
X97242285Y-113458095D01*
X97337523Y-113410476D01*
X97432761Y-113315238D01*
X97480380Y-113172380D01*
X97480380Y-113077142D01*
X97432761Y-112934285D01*
X97385142Y-112886666D01*
X97051809Y-112886666D01*
X97051809Y-113077142D01*
X97480380Y-112458095D02*
X96813714Y-112458095D01*
X96480380Y-112458095D02*
X96528000Y-112505714D01*
X96575619Y-112458095D01*
X96528000Y-112410476D01*
X96480380Y-112458095D01*
X96575619Y-112458095D01*
X97480380Y-111839047D02*
X97432761Y-111934285D01*
X97337523Y-111981904D01*
X96480380Y-111981904D01*
X97480380Y-111029523D02*
X96480380Y-111029523D01*
X97432761Y-111029523D02*
X97480380Y-111124761D01*
X97480380Y-111315238D01*
X97432761Y-111410476D01*
X97385142Y-111458095D01*
X97289904Y-111505714D01*
X97004190Y-111505714D01*
X96908952Y-111458095D01*
X96861333Y-111410476D01*
X96813714Y-111315238D01*
X96813714Y-111124761D01*
X96861333Y-111029523D01*
X97432761Y-110172380D02*
X97480380Y-110267619D01*
X97480380Y-110458095D01*
X97432761Y-110553333D01*
X97337523Y-110600952D01*
X96956571Y-110600952D01*
X96861333Y-110553333D01*
X96813714Y-110458095D01*
X96813714Y-110267619D01*
X96861333Y-110172380D01*
X96956571Y-110124761D01*
X97051809Y-110124761D01*
X97147047Y-110600952D01*
X97480380Y-109696190D02*
X96813714Y-109696190D01*
X97004190Y-109696190D02*
X96908952Y-109648571D01*
X96861333Y-109600952D01*
X96813714Y-109505714D01*
X96813714Y-109410476D01*
X96575619Y-108362857D02*
X96528000Y-108315238D01*
X96480380Y-108220000D01*
X96480380Y-107981904D01*
X96528000Y-107886666D01*
X96575619Y-107839047D01*
X96670857Y-107791428D01*
X96766095Y-107791428D01*
X96908952Y-107839047D01*
X97480380Y-108410476D01*
X97480380Y-107791428D01*
X96480380Y-107172380D02*
X96480380Y-107077142D01*
X96528000Y-106981904D01*
X96575619Y-106934285D01*
X96670857Y-106886666D01*
X96861333Y-106839047D01*
X97099428Y-106839047D01*
X97289904Y-106886666D01*
X97385142Y-106934285D01*
X97432761Y-106981904D01*
X97480380Y-107077142D01*
X97480380Y-107172380D01*
X97432761Y-107267619D01*
X97385142Y-107315238D01*
X97289904Y-107362857D01*
X97099428Y-107410476D01*
X96861333Y-107410476D01*
X96670857Y-107362857D01*
X96575619Y-107315238D01*
X96528000Y-107267619D01*
X96480380Y-107172380D01*
X96575619Y-106458095D02*
X96528000Y-106410476D01*
X96480380Y-106315238D01*
X96480380Y-106077142D01*
X96528000Y-105981904D01*
X96575619Y-105934285D01*
X96670857Y-105886666D01*
X96766095Y-105886666D01*
X96908952Y-105934285D01*
X97480380Y-106505714D01*
X97480380Y-105886666D01*
X97480380Y-104934285D02*
X97480380Y-105505714D01*
X97480380Y-105220000D02*
X96480380Y-105220000D01*
X96623238Y-105315238D01*
X96718476Y-105410476D01*
X96766095Y-105505714D01*
D11*
X94795620Y-117348000D02*
G75*
G03X94795620Y-117348000I-1831620J0D01*
G01*
X120195620Y-117348000D02*
G75*
G03X120195620Y-117348000I-1831620J0D01*
G01*
D12*
X124221240Y-99298760D02*
X124221240Y-119141240D01*
X104378760Y-119141240D02*
X104378760Y-99298760D01*
D13*
X116840000Y-109220000D02*
G75*
G03X116840000Y-109220000I-2540000J0D01*
G01*
D12*
X104377567Y-119139819D02*
G75*
G03X124221240Y-119141240I9922433J8324699D01*
G01*
X124222433Y-99300181D02*
G75*
G03X104378760Y-99298760I-9922433J-8324699D01*
G01*
X98821240Y-99298760D02*
X98821240Y-119141240D01*
X78978760Y-119141240D02*
X78978760Y-99298760D01*
D13*
X91440000Y-109220000D02*
G75*
G03X91440000Y-109220000I-2540000J0D01*
G01*
D12*
X78977567Y-119139819D02*
G75*
G03X98821240Y-119141240I9922433J8324699D01*
G01*
X98822433Y-99300181D02*
G75*
G03X78978760Y-99298760I-9922433J-8324699D01*
G01*
D14*
X112727619Y-121478523D02*
X112727619Y-120208523D01*
X113453333Y-121478523D01*
X113453333Y-120208523D01*
X113937142Y-120208523D02*
X114783809Y-121478523D01*
X114783809Y-120208523D02*
X113937142Y-121478523D01*
X115207142Y-120329476D02*
X115267619Y-120269000D01*
X115388571Y-120208523D01*
X115690952Y-120208523D01*
X115811904Y-120269000D01*
X115872380Y-120329476D01*
X115932857Y-120450428D01*
X115932857Y-120571380D01*
X115872380Y-120752809D01*
X115146666Y-121478523D01*
X115932857Y-121478523D01*
D10*
D14*
X113423095Y-102809523D02*
X114148809Y-102809523D01*
X113785952Y-104079523D02*
X113785952Y-102809523D01*
X114753571Y-104079523D02*
X114632619Y-104019047D01*
X114572142Y-103958571D01*
X114511666Y-103837619D01*
X114511666Y-103474761D01*
X114572142Y-103353809D01*
X114632619Y-103293333D01*
X114753571Y-103232857D01*
X114935000Y-103232857D01*
X115055952Y-103293333D01*
X115116428Y-103353809D01*
X115176904Y-103474761D01*
X115176904Y-103837619D01*
X115116428Y-103958571D01*
X115055952Y-104019047D01*
X114935000Y-104079523D01*
X114753571Y-104079523D01*
X115721190Y-103232857D02*
X115721190Y-104502857D01*
X115721190Y-103293333D02*
X115842142Y-103232857D01*
X116084047Y-103232857D01*
X116205000Y-103293333D01*
X116265476Y-103353809D01*
X116325952Y-103474761D01*
X116325952Y-103837619D01*
X116265476Y-103958571D01*
X116205000Y-104019047D01*
X116084047Y-104079523D01*
X115842142Y-104079523D01*
X115721190Y-104019047D01*
X87327619Y-121732523D02*
X87327619Y-120462523D01*
X88053333Y-121732523D01*
X88053333Y-120462523D01*
X88537142Y-120462523D02*
X89383809Y-121732523D01*
X89383809Y-120462523D02*
X88537142Y-121732523D01*
X90532857Y-121732523D02*
X89807142Y-121732523D01*
X90170000Y-121732523D02*
X90170000Y-120462523D01*
X90049047Y-120643952D01*
X89928095Y-120764904D01*
X89807142Y-120825380D01*
D10*
D14*
X88023095Y-102809523D02*
X88748809Y-102809523D01*
X88385952Y-104079523D02*
X88385952Y-102809523D01*
X89353571Y-104079523D02*
X89232619Y-104019047D01*
X89172142Y-103958571D01*
X89111666Y-103837619D01*
X89111666Y-103474761D01*
X89172142Y-103353809D01*
X89232619Y-103293333D01*
X89353571Y-103232857D01*
X89535000Y-103232857D01*
X89655952Y-103293333D01*
X89716428Y-103353809D01*
X89776904Y-103474761D01*
X89776904Y-103837619D01*
X89716428Y-103958571D01*
X89655952Y-104019047D01*
X89535000Y-104079523D01*
X89353571Y-104079523D01*
X90321190Y-103232857D02*
X90321190Y-104502857D01*
X90321190Y-103293333D02*
X90442142Y-103232857D01*
X90684047Y-103232857D01*
X90805000Y-103293333D01*
X90865476Y-103353809D01*
X90925952Y-103474761D01*
X90925952Y-103837619D01*
X90865476Y-103958571D01*
X90805000Y-104019047D01*
X90684047Y-104079523D01*
X90442142Y-104079523D01*
X90321190Y-104019047D01*
M02*
