G04 #@! TF.GenerationSoftware,KiCad,Pcbnew,(5.1.0)-1*
G04 #@! TF.CreationDate,2021-10-08T02:53:16-05:00*
G04 #@! TF.ProjectId,nixie_legacy-digit,6e697869-655f-46c6-9567-6163792d6469,rev?*
G04 #@! TF.SameCoordinates,Original*
G04 #@! TF.FileFunction,Other,Fab,Top*
%FSLAX46Y46*%
G04 Gerber Fmt 4.6, Leading zero omitted, Abs format (unit mm)*
G04 Created by KiCad (PCBNEW (5.1.0)-1) date 2021-10-08 02:53:16*
%MOMM*%
%LPD*%
G04 APERTURE LIST*
%ADD10C,0.150000*%
G04 APERTURE END LIST*
D10*
X78057809Y-121356380D02*
X78057809Y-120356380D01*
X78057809Y-120832571D02*
X78629238Y-120832571D01*
X78629238Y-121356380D02*
X78629238Y-120356380D01*
X79105428Y-120832571D02*
X79438761Y-120832571D01*
X79581619Y-121356380D02*
X79105428Y-121356380D01*
X79105428Y-120356380D01*
X79581619Y-120356380D01*
X79962571Y-121070666D02*
X80438761Y-121070666D01*
X79867333Y-121356380D02*
X80200666Y-120356380D01*
X80534000Y-121356380D01*
X80867333Y-121356380D02*
X80867333Y-120356380D01*
X81105428Y-120356380D01*
X81248285Y-120404000D01*
X81343523Y-120499238D01*
X81391142Y-120594476D01*
X81438761Y-120784952D01*
X81438761Y-120927809D01*
X81391142Y-121118285D01*
X81343523Y-121213523D01*
X81248285Y-121308761D01*
X81105428Y-121356380D01*
X80867333Y-121356380D01*
X81867333Y-120832571D02*
X82200666Y-120832571D01*
X82343523Y-121356380D02*
X81867333Y-121356380D01*
X81867333Y-120356380D01*
X82343523Y-120356380D01*
X83343523Y-121356380D02*
X83010190Y-120880190D01*
X82772095Y-121356380D02*
X82772095Y-120356380D01*
X83153047Y-120356380D01*
X83248285Y-120404000D01*
X83295904Y-120451619D01*
X83343523Y-120546857D01*
X83343523Y-120689714D01*
X83295904Y-120784952D01*
X83248285Y-120832571D01*
X83153047Y-120880190D01*
X82772095Y-120880190D01*
X83534000Y-121451619D02*
X84295904Y-121451619D01*
X85057809Y-121356380D02*
X84486380Y-121356380D01*
X84772095Y-121356380D02*
X84772095Y-120356380D01*
X84676857Y-120499238D01*
X84581619Y-120594476D01*
X84486380Y-120642095D01*
X90503809Y-91638380D02*
X90503809Y-90638380D01*
X90503809Y-91114571D02*
X91075238Y-91114571D01*
X91075238Y-91638380D02*
X91075238Y-90638380D01*
X91551428Y-91114571D02*
X91884761Y-91114571D01*
X92027619Y-91638380D02*
X91551428Y-91638380D01*
X91551428Y-90638380D01*
X92027619Y-90638380D01*
X92408571Y-91352666D02*
X92884761Y-91352666D01*
X92313333Y-91638380D02*
X92646666Y-90638380D01*
X92980000Y-91638380D01*
X93313333Y-91638380D02*
X93313333Y-90638380D01*
X93551428Y-90638380D01*
X93694285Y-90686000D01*
X93789523Y-90781238D01*
X93837142Y-90876476D01*
X93884761Y-91066952D01*
X93884761Y-91209809D01*
X93837142Y-91400285D01*
X93789523Y-91495523D01*
X93694285Y-91590761D01*
X93551428Y-91638380D01*
X93313333Y-91638380D01*
X94313333Y-91114571D02*
X94646666Y-91114571D01*
X94789523Y-91638380D02*
X94313333Y-91638380D01*
X94313333Y-90638380D01*
X94789523Y-90638380D01*
X95789523Y-91638380D02*
X95456190Y-91162190D01*
X95218095Y-91638380D02*
X95218095Y-90638380D01*
X95599047Y-90638380D01*
X95694285Y-90686000D01*
X95741904Y-90733619D01*
X95789523Y-90828857D01*
X95789523Y-90971714D01*
X95741904Y-91066952D01*
X95694285Y-91114571D01*
X95599047Y-91162190D01*
X95218095Y-91162190D01*
X95980000Y-91733619D02*
X96741904Y-91733619D01*
X97503809Y-91638380D02*
X96932380Y-91638380D01*
X97218095Y-91638380D02*
X97218095Y-90638380D01*
X97122857Y-90781238D01*
X97027619Y-90876476D01*
X96932380Y-90924095D01*
M02*
