M48
; DRILL file {KiCad (5.1.0)-1} date 8/18/2021 10:37:29 PM
; FORMAT={-:-/ absolute / inch / decimal}
; #@! TF.CreationDate,2021-08-18T22:37:29-05:00
; #@! TF.GenerationSoftware,Kicad,Pcbnew,(5.1.0)-1
; #@! TF.FileFunction,Plated,1,2,PTH
FMAT,2
INCH
T1C0.0300
T2C0.0315
T3C0.0394
T4C0.0629
%
G90
G05
T1
X4.3Y-3.5
X4.6Y-3.5
X4.7Y-3.5
X3.21Y-4.67
X4.4Y-3.5
X4.8Y-3.5
X4.2Y-3.5
T2
X4.91Y-3.8
X4.09Y-3.8
T3
X3.26Y-3.5
X3.26Y-3.6
X3.36Y-3.5
X3.36Y-3.6
X3.46Y-3.5
X3.46Y-3.6
X3.56Y-3.5
X3.56Y-3.6
X3.66Y-3.5
X3.66Y-3.6
X3.76Y-3.5
X3.76Y-3.6
X3.86Y-3.5
X3.86Y-3.6
X3.96Y-3.5
X3.96Y-3.6
T4
X4.2737Y-4.1229
X4.2737Y-4.3
X4.2737Y-4.4771
X4.3426Y-3.9851
X4.3426Y-4.6149
X4.5Y-3.9457
X4.5Y-4.6543
X4.6574Y-3.9851
X4.6574Y-4.6149
X4.7263Y-4.1229
X4.7263Y-4.3
X4.7263Y-4.4771
X3.2737Y-4.1229
X3.2737Y-4.3
X3.2737Y-4.4771
X3.3426Y-3.9851
X3.3426Y-4.6149
X3.5Y-3.9457
X3.5Y-4.6543
X3.6574Y-3.9851
X3.6574Y-4.6149
X3.7263Y-4.1229
X3.7263Y-4.3
X3.7263Y-4.4771
T0
M30
