G04 #@! TF.GenerationSoftware,KiCad,Pcbnew,(5.1.0)-1*
G04 #@! TF.CreationDate,2021-10-08T02:53:16-05:00*
G04 #@! TF.ProjectId,nixie_legacy-digit,6e697869-655f-46c6-9567-6163792d6469,rev?*
G04 #@! TF.SameCoordinates,Original*
G04 #@! TF.FileFunction,Soldermask,Bot*
G04 #@! TF.FilePolarity,Negative*
%FSLAX46Y46*%
G04 Gerber Fmt 4.6, Leading zero omitted, Abs format (unit mm)*
G04 Created by KiCad (PCBNEW (5.1.0)-1) date 2021-10-08 02:53:16*
%MOMM*%
%LPD*%
G04 APERTURE LIST*
%ADD10C,0.100000*%
G04 APERTURE END LIST*
D10*
G36*
X114543839Y-116993356D02*
G01*
X114664577Y-117017372D01*
X114892040Y-117111590D01*
X115096752Y-117248375D01*
X115270845Y-117422468D01*
X115407630Y-117627180D01*
X115501848Y-117854643D01*
X115549880Y-118096118D01*
X115549880Y-118342322D01*
X115501848Y-118583797D01*
X115407630Y-118811260D01*
X115270845Y-119015972D01*
X115096752Y-119190065D01*
X114892040Y-119326850D01*
X114664577Y-119421068D01*
X114543840Y-119445084D01*
X114423104Y-119469100D01*
X114176896Y-119469100D01*
X114056160Y-119445084D01*
X113935423Y-119421068D01*
X113707960Y-119326850D01*
X113503248Y-119190065D01*
X113329155Y-119015972D01*
X113192370Y-118811260D01*
X113098152Y-118583797D01*
X113050120Y-118342322D01*
X113050120Y-118096118D01*
X113098152Y-117854643D01*
X113192370Y-117627180D01*
X113329155Y-117422468D01*
X113503248Y-117248375D01*
X113707960Y-117111590D01*
X113935423Y-117017372D01*
X114056161Y-116993356D01*
X114176896Y-116969340D01*
X114423104Y-116969340D01*
X114543839Y-116993356D01*
X114543839Y-116993356D01*
G37*
G36*
X89143839Y-116993356D02*
G01*
X89264577Y-117017372D01*
X89492040Y-117111590D01*
X89696752Y-117248375D01*
X89870845Y-117422468D01*
X90007630Y-117627180D01*
X90101848Y-117854643D01*
X90149880Y-118096118D01*
X90149880Y-118342322D01*
X90101848Y-118583797D01*
X90007630Y-118811260D01*
X89870845Y-119015972D01*
X89696752Y-119190065D01*
X89492040Y-119326850D01*
X89264577Y-119421068D01*
X89143840Y-119445084D01*
X89023104Y-119469100D01*
X88776896Y-119469100D01*
X88656160Y-119445084D01*
X88535423Y-119421068D01*
X88307960Y-119326850D01*
X88103248Y-119190065D01*
X87929155Y-119015972D01*
X87792370Y-118811260D01*
X87698152Y-118583797D01*
X87650120Y-118342322D01*
X87650120Y-118096118D01*
X87698152Y-117854643D01*
X87792370Y-117627180D01*
X87929155Y-117422468D01*
X88103248Y-117248375D01*
X88307960Y-117111590D01*
X88535423Y-117017372D01*
X88656161Y-116993356D01*
X88776896Y-116969340D01*
X89023104Y-116969340D01*
X89143839Y-116993356D01*
X89143839Y-116993356D01*
G37*
G36*
X81771142Y-117836242D02*
G01*
X81919101Y-117897529D01*
X82052255Y-117986499D01*
X82165501Y-118099745D01*
X82254471Y-118232899D01*
X82315758Y-118380858D01*
X82347000Y-118537925D01*
X82347000Y-118698075D01*
X82315758Y-118855142D01*
X82254471Y-119003101D01*
X82165501Y-119136255D01*
X82052255Y-119249501D01*
X81919101Y-119338471D01*
X81771142Y-119399758D01*
X81614075Y-119431000D01*
X81453925Y-119431000D01*
X81296858Y-119399758D01*
X81148899Y-119338471D01*
X81015745Y-119249501D01*
X80902499Y-119136255D01*
X80813529Y-119003101D01*
X80752242Y-118855142D01*
X80721000Y-118698075D01*
X80721000Y-118537925D01*
X80752242Y-118380858D01*
X80813529Y-118232899D01*
X80902499Y-118099745D01*
X81015745Y-117986499D01*
X81148899Y-117897529D01*
X81296858Y-117836242D01*
X81453925Y-117805000D01*
X81614075Y-117805000D01*
X81771142Y-117836242D01*
X81771142Y-117836242D01*
G37*
G36*
X100440443Y-117215519D02*
G01*
X100506627Y-117222037D01*
X100676466Y-117273557D01*
X100832991Y-117357222D01*
X100868729Y-117386552D01*
X100970186Y-117469814D01*
X101053448Y-117571271D01*
X101082778Y-117607009D01*
X101166443Y-117763534D01*
X101217963Y-117933373D01*
X101235359Y-118110000D01*
X101217963Y-118286627D01*
X101166443Y-118456466D01*
X101082778Y-118612991D01*
X101053448Y-118648729D01*
X100970186Y-118750186D01*
X100868729Y-118833448D01*
X100832991Y-118862778D01*
X100676466Y-118946443D01*
X100506627Y-118997963D01*
X100454469Y-119003100D01*
X100374260Y-119011000D01*
X100285740Y-119011000D01*
X100205531Y-119003100D01*
X100153373Y-118997963D01*
X99983534Y-118946443D01*
X99827009Y-118862778D01*
X99791271Y-118833448D01*
X99689814Y-118750186D01*
X99606552Y-118648729D01*
X99577222Y-118612991D01*
X99493557Y-118456466D01*
X99442037Y-118286627D01*
X99424641Y-118110000D01*
X99442037Y-117933373D01*
X99493557Y-117763534D01*
X99577222Y-117607009D01*
X99606552Y-117571271D01*
X99689814Y-117469814D01*
X99791271Y-117386552D01*
X99827009Y-117357222D01*
X99983534Y-117273557D01*
X100153373Y-117222037D01*
X100219557Y-117215519D01*
X100285740Y-117209000D01*
X100374260Y-117209000D01*
X100440443Y-117215519D01*
X100440443Y-117215519D01*
G37*
G36*
X103771000Y-119011000D02*
G01*
X101969000Y-119011000D01*
X101969000Y-117209000D01*
X103771000Y-117209000D01*
X103771000Y-119011000D01*
X103771000Y-119011000D01*
G37*
G36*
X85145880Y-115992596D02*
G01*
X85266617Y-116016612D01*
X85494080Y-116110830D01*
X85698792Y-116247615D01*
X85872885Y-116421708D01*
X86009670Y-116626420D01*
X86103888Y-116853883D01*
X86103888Y-116853885D01*
X86151920Y-117095356D01*
X86151920Y-117341564D01*
X86148805Y-117357222D01*
X86103888Y-117583037D01*
X86009670Y-117810500D01*
X85872885Y-118015212D01*
X85698792Y-118189305D01*
X85494080Y-118326090D01*
X85266617Y-118420308D01*
X85145879Y-118444324D01*
X85025144Y-118468340D01*
X84778936Y-118468340D01*
X84658201Y-118444324D01*
X84537463Y-118420308D01*
X84310000Y-118326090D01*
X84105288Y-118189305D01*
X83931195Y-118015212D01*
X83794410Y-117810500D01*
X83700192Y-117583037D01*
X83655275Y-117357222D01*
X83652160Y-117341564D01*
X83652160Y-117095356D01*
X83700192Y-116853885D01*
X83700192Y-116853883D01*
X83794410Y-116626420D01*
X83931195Y-116421708D01*
X84105288Y-116247615D01*
X84310000Y-116110830D01*
X84537463Y-116016612D01*
X84658200Y-115992596D01*
X84778936Y-115968580D01*
X85025144Y-115968580D01*
X85145880Y-115992596D01*
X85145880Y-115992596D01*
G37*
G36*
X93141800Y-115992596D02*
G01*
X93262537Y-116016612D01*
X93490000Y-116110830D01*
X93694712Y-116247615D01*
X93868805Y-116421708D01*
X94005590Y-116626420D01*
X94099808Y-116853883D01*
X94099808Y-116853885D01*
X94147840Y-117095356D01*
X94147840Y-117341564D01*
X94144725Y-117357222D01*
X94099808Y-117583037D01*
X94005590Y-117810500D01*
X93868805Y-118015212D01*
X93694712Y-118189305D01*
X93490000Y-118326090D01*
X93262537Y-118420308D01*
X93141799Y-118444324D01*
X93021064Y-118468340D01*
X92774856Y-118468340D01*
X92654121Y-118444324D01*
X92533383Y-118420308D01*
X92305920Y-118326090D01*
X92101208Y-118189305D01*
X91927115Y-118015212D01*
X91790330Y-117810500D01*
X91696112Y-117583037D01*
X91651195Y-117357222D01*
X91648080Y-117341564D01*
X91648080Y-117095356D01*
X91696112Y-116853885D01*
X91696112Y-116853883D01*
X91790330Y-116626420D01*
X91927115Y-116421708D01*
X92101208Y-116247615D01*
X92305920Y-116110830D01*
X92533383Y-116016612D01*
X92654120Y-115992596D01*
X92774856Y-115968580D01*
X93021064Y-115968580D01*
X93141800Y-115992596D01*
X93141800Y-115992596D01*
G37*
G36*
X118541800Y-115992596D02*
G01*
X118662537Y-116016612D01*
X118890000Y-116110830D01*
X119094712Y-116247615D01*
X119268805Y-116421708D01*
X119405590Y-116626420D01*
X119499808Y-116853883D01*
X119499808Y-116853885D01*
X119547840Y-117095356D01*
X119547840Y-117341564D01*
X119544725Y-117357222D01*
X119499808Y-117583037D01*
X119405590Y-117810500D01*
X119268805Y-118015212D01*
X119094712Y-118189305D01*
X118890000Y-118326090D01*
X118662537Y-118420308D01*
X118541799Y-118444324D01*
X118421064Y-118468340D01*
X118174856Y-118468340D01*
X118054121Y-118444324D01*
X117933383Y-118420308D01*
X117705920Y-118326090D01*
X117501208Y-118189305D01*
X117327115Y-118015212D01*
X117190330Y-117810500D01*
X117096112Y-117583037D01*
X117051195Y-117357222D01*
X117048080Y-117341564D01*
X117048080Y-117095356D01*
X117096112Y-116853885D01*
X117096112Y-116853883D01*
X117190330Y-116626420D01*
X117327115Y-116421708D01*
X117501208Y-116247615D01*
X117705920Y-116110830D01*
X117933383Y-116016612D01*
X118054120Y-115992596D01*
X118174856Y-115968580D01*
X118421064Y-115968580D01*
X118541800Y-115992596D01*
X118541800Y-115992596D01*
G37*
G36*
X110545880Y-115992596D02*
G01*
X110666617Y-116016612D01*
X110894080Y-116110830D01*
X111098792Y-116247615D01*
X111272885Y-116421708D01*
X111409670Y-116626420D01*
X111503888Y-116853883D01*
X111503888Y-116853885D01*
X111551920Y-117095356D01*
X111551920Y-117341564D01*
X111548805Y-117357222D01*
X111503888Y-117583037D01*
X111409670Y-117810500D01*
X111272885Y-118015212D01*
X111098792Y-118189305D01*
X110894080Y-118326090D01*
X110666617Y-118420308D01*
X110545879Y-118444324D01*
X110425144Y-118468340D01*
X110178936Y-118468340D01*
X110058201Y-118444324D01*
X109937463Y-118420308D01*
X109710000Y-118326090D01*
X109505288Y-118189305D01*
X109331195Y-118015212D01*
X109194410Y-117810500D01*
X109100192Y-117583037D01*
X109055275Y-117357222D01*
X109052160Y-117341564D01*
X109052160Y-117095356D01*
X109100192Y-116853885D01*
X109100192Y-116853883D01*
X109194410Y-116626420D01*
X109331195Y-116421708D01*
X109505288Y-116247615D01*
X109710000Y-116110830D01*
X109937463Y-116016612D01*
X110058200Y-115992596D01*
X110178936Y-115968580D01*
X110425144Y-115968580D01*
X110545880Y-115992596D01*
X110545880Y-115992596D01*
G37*
G36*
X100440443Y-114675519D02*
G01*
X100506627Y-114682037D01*
X100676466Y-114733557D01*
X100832991Y-114817222D01*
X100843650Y-114825970D01*
X100970186Y-114929814D01*
X101053448Y-115031271D01*
X101082778Y-115067009D01*
X101166443Y-115223534D01*
X101217963Y-115393373D01*
X101235359Y-115570000D01*
X101217963Y-115746627D01*
X101166443Y-115916466D01*
X101082778Y-116072991D01*
X101053448Y-116108729D01*
X100970186Y-116210186D01*
X100868729Y-116293448D01*
X100832991Y-116322778D01*
X100676466Y-116406443D01*
X100506627Y-116457963D01*
X100440442Y-116464482D01*
X100374260Y-116471000D01*
X100285740Y-116471000D01*
X100219558Y-116464482D01*
X100153373Y-116457963D01*
X99983534Y-116406443D01*
X99827009Y-116322778D01*
X99791271Y-116293448D01*
X99689814Y-116210186D01*
X99606552Y-116108729D01*
X99577222Y-116072991D01*
X99493557Y-115916466D01*
X99442037Y-115746627D01*
X99424641Y-115570000D01*
X99442037Y-115393373D01*
X99493557Y-115223534D01*
X99577222Y-115067009D01*
X99606552Y-115031271D01*
X99689814Y-114929814D01*
X99816350Y-114825970D01*
X99827009Y-114817222D01*
X99983534Y-114733557D01*
X100153373Y-114682037D01*
X100219557Y-114675519D01*
X100285740Y-114669000D01*
X100374260Y-114669000D01*
X100440443Y-114675519D01*
X100440443Y-114675519D01*
G37*
G36*
X102980443Y-114675519D02*
G01*
X103046627Y-114682037D01*
X103216466Y-114733557D01*
X103372991Y-114817222D01*
X103383650Y-114825970D01*
X103510186Y-114929814D01*
X103593448Y-115031271D01*
X103622778Y-115067009D01*
X103706443Y-115223534D01*
X103757963Y-115393373D01*
X103775359Y-115570000D01*
X103757963Y-115746627D01*
X103706443Y-115916466D01*
X103622778Y-116072991D01*
X103593448Y-116108729D01*
X103510186Y-116210186D01*
X103408729Y-116293448D01*
X103372991Y-116322778D01*
X103216466Y-116406443D01*
X103046627Y-116457963D01*
X102980442Y-116464482D01*
X102914260Y-116471000D01*
X102825740Y-116471000D01*
X102759558Y-116464482D01*
X102693373Y-116457963D01*
X102523534Y-116406443D01*
X102367009Y-116322778D01*
X102331271Y-116293448D01*
X102229814Y-116210186D01*
X102146552Y-116108729D01*
X102117222Y-116072991D01*
X102033557Y-115916466D01*
X101982037Y-115746627D01*
X101964641Y-115570000D01*
X101982037Y-115393373D01*
X102033557Y-115223534D01*
X102117222Y-115067009D01*
X102146552Y-115031271D01*
X102229814Y-114929814D01*
X102356350Y-114825970D01*
X102367009Y-114817222D01*
X102523534Y-114733557D01*
X102693373Y-114682037D01*
X102759557Y-114675519D01*
X102825740Y-114669000D01*
X102914260Y-114669000D01*
X102980443Y-114675519D01*
X102980443Y-114675519D01*
G37*
G36*
X94891860Y-112492476D02*
G01*
X95012597Y-112516492D01*
X95240060Y-112610710D01*
X95444772Y-112747495D01*
X95618865Y-112921588D01*
X95755650Y-113126300D01*
X95849868Y-113353763D01*
X95849868Y-113353765D01*
X95897900Y-113595236D01*
X95897900Y-113841444D01*
X95892927Y-113866443D01*
X95849868Y-114082917D01*
X95755650Y-114310380D01*
X95618865Y-114515092D01*
X95444772Y-114689185D01*
X95240060Y-114825970D01*
X95012597Y-114920188D01*
X94891859Y-114944204D01*
X94771124Y-114968220D01*
X94524916Y-114968220D01*
X94404181Y-114944204D01*
X94283443Y-114920188D01*
X94055980Y-114825970D01*
X93851268Y-114689185D01*
X93677175Y-114515092D01*
X93540390Y-114310380D01*
X93446172Y-114082917D01*
X93403113Y-113866443D01*
X93398140Y-113841444D01*
X93398140Y-113595236D01*
X93446172Y-113353765D01*
X93446172Y-113353763D01*
X93540390Y-113126300D01*
X93677175Y-112921588D01*
X93851268Y-112747495D01*
X94055980Y-112610710D01*
X94283443Y-112516492D01*
X94404180Y-112492476D01*
X94524916Y-112468460D01*
X94771124Y-112468460D01*
X94891860Y-112492476D01*
X94891860Y-112492476D01*
G37*
G36*
X83395820Y-112492476D02*
G01*
X83516557Y-112516492D01*
X83744020Y-112610710D01*
X83948732Y-112747495D01*
X84122825Y-112921588D01*
X84259610Y-113126300D01*
X84353828Y-113353763D01*
X84353828Y-113353765D01*
X84401860Y-113595236D01*
X84401860Y-113841444D01*
X84396887Y-113866443D01*
X84353828Y-114082917D01*
X84259610Y-114310380D01*
X84122825Y-114515092D01*
X83948732Y-114689185D01*
X83744020Y-114825970D01*
X83516557Y-114920188D01*
X83395819Y-114944204D01*
X83275084Y-114968220D01*
X83028876Y-114968220D01*
X82908141Y-114944204D01*
X82787403Y-114920188D01*
X82559940Y-114825970D01*
X82355228Y-114689185D01*
X82181135Y-114515092D01*
X82044350Y-114310380D01*
X81950132Y-114082917D01*
X81907073Y-113866443D01*
X81902100Y-113841444D01*
X81902100Y-113595236D01*
X81950132Y-113353765D01*
X81950132Y-113353763D01*
X82044350Y-113126300D01*
X82181135Y-112921588D01*
X82355228Y-112747495D01*
X82559940Y-112610710D01*
X82787403Y-112516492D01*
X82908140Y-112492476D01*
X83028876Y-112468460D01*
X83275084Y-112468460D01*
X83395820Y-112492476D01*
X83395820Y-112492476D01*
G37*
G36*
X108795820Y-112492476D02*
G01*
X108916557Y-112516492D01*
X109144020Y-112610710D01*
X109348732Y-112747495D01*
X109522825Y-112921588D01*
X109659610Y-113126300D01*
X109753828Y-113353763D01*
X109753828Y-113353765D01*
X109801860Y-113595236D01*
X109801860Y-113841444D01*
X109796887Y-113866443D01*
X109753828Y-114082917D01*
X109659610Y-114310380D01*
X109522825Y-114515092D01*
X109348732Y-114689185D01*
X109144020Y-114825970D01*
X108916557Y-114920188D01*
X108795819Y-114944204D01*
X108675084Y-114968220D01*
X108428876Y-114968220D01*
X108308141Y-114944204D01*
X108187403Y-114920188D01*
X107959940Y-114825970D01*
X107755228Y-114689185D01*
X107581135Y-114515092D01*
X107444350Y-114310380D01*
X107350132Y-114082917D01*
X107307073Y-113866443D01*
X107302100Y-113841444D01*
X107302100Y-113595236D01*
X107350132Y-113353765D01*
X107350132Y-113353763D01*
X107444350Y-113126300D01*
X107581135Y-112921588D01*
X107755228Y-112747495D01*
X107959940Y-112610710D01*
X108187403Y-112516492D01*
X108308140Y-112492476D01*
X108428876Y-112468460D01*
X108675084Y-112468460D01*
X108795820Y-112492476D01*
X108795820Y-112492476D01*
G37*
G36*
X120291860Y-112492476D02*
G01*
X120412597Y-112516492D01*
X120640060Y-112610710D01*
X120844772Y-112747495D01*
X121018865Y-112921588D01*
X121155650Y-113126300D01*
X121249868Y-113353763D01*
X121249868Y-113353765D01*
X121297900Y-113595236D01*
X121297900Y-113841444D01*
X121292927Y-113866443D01*
X121249868Y-114082917D01*
X121155650Y-114310380D01*
X121018865Y-114515092D01*
X120844772Y-114689185D01*
X120640060Y-114825970D01*
X120412597Y-114920188D01*
X120291859Y-114944204D01*
X120171124Y-114968220D01*
X119924916Y-114968220D01*
X119804181Y-114944204D01*
X119683443Y-114920188D01*
X119455980Y-114825970D01*
X119251268Y-114689185D01*
X119077175Y-114515092D01*
X118940390Y-114310380D01*
X118846172Y-114082917D01*
X118803113Y-113866443D01*
X118798140Y-113841444D01*
X118798140Y-113595236D01*
X118846172Y-113353765D01*
X118846172Y-113353763D01*
X118940390Y-113126300D01*
X119077175Y-112921588D01*
X119251268Y-112747495D01*
X119455980Y-112610710D01*
X119683443Y-112516492D01*
X119804180Y-112492476D01*
X119924916Y-112468460D01*
X120171124Y-112468460D01*
X120291860Y-112492476D01*
X120291860Y-112492476D01*
G37*
G36*
X100440443Y-112135519D02*
G01*
X100506627Y-112142037D01*
X100676466Y-112193557D01*
X100832991Y-112277222D01*
X100868729Y-112306552D01*
X100970186Y-112389814D01*
X101034728Y-112468460D01*
X101082778Y-112527009D01*
X101166443Y-112683534D01*
X101217963Y-112853373D01*
X101235359Y-113030000D01*
X101217963Y-113206627D01*
X101166443Y-113376466D01*
X101082778Y-113532991D01*
X101053448Y-113568729D01*
X100970186Y-113670186D01*
X100868729Y-113753448D01*
X100832991Y-113782778D01*
X100832989Y-113782779D01*
X100723236Y-113841444D01*
X100676466Y-113866443D01*
X100506627Y-113917963D01*
X100440443Y-113924481D01*
X100374260Y-113931000D01*
X100285740Y-113931000D01*
X100219557Y-113924481D01*
X100153373Y-113917963D01*
X99983534Y-113866443D01*
X99936765Y-113841444D01*
X99827011Y-113782779D01*
X99827009Y-113782778D01*
X99791271Y-113753448D01*
X99689814Y-113670186D01*
X99606552Y-113568729D01*
X99577222Y-113532991D01*
X99493557Y-113376466D01*
X99442037Y-113206627D01*
X99424641Y-113030000D01*
X99442037Y-112853373D01*
X99493557Y-112683534D01*
X99577222Y-112527009D01*
X99625272Y-112468460D01*
X99689814Y-112389814D01*
X99791271Y-112306552D01*
X99827009Y-112277222D01*
X99983534Y-112193557D01*
X100153373Y-112142037D01*
X100219557Y-112135519D01*
X100285740Y-112129000D01*
X100374260Y-112129000D01*
X100440443Y-112135519D01*
X100440443Y-112135519D01*
G37*
G36*
X102980443Y-112135519D02*
G01*
X103046627Y-112142037D01*
X103216466Y-112193557D01*
X103372991Y-112277222D01*
X103408729Y-112306552D01*
X103510186Y-112389814D01*
X103574728Y-112468460D01*
X103622778Y-112527009D01*
X103706443Y-112683534D01*
X103757963Y-112853373D01*
X103775359Y-113030000D01*
X103757963Y-113206627D01*
X103706443Y-113376466D01*
X103622778Y-113532991D01*
X103593448Y-113568729D01*
X103510186Y-113670186D01*
X103408729Y-113753448D01*
X103372991Y-113782778D01*
X103372989Y-113782779D01*
X103263236Y-113841444D01*
X103216466Y-113866443D01*
X103046627Y-113917963D01*
X102980443Y-113924481D01*
X102914260Y-113931000D01*
X102825740Y-113931000D01*
X102759557Y-113924481D01*
X102693373Y-113917963D01*
X102523534Y-113866443D01*
X102476765Y-113841444D01*
X102367011Y-113782779D01*
X102367009Y-113782778D01*
X102331271Y-113753448D01*
X102229814Y-113670186D01*
X102146552Y-113568729D01*
X102117222Y-113532991D01*
X102033557Y-113376466D01*
X101982037Y-113206627D01*
X101964641Y-113030000D01*
X101982037Y-112853373D01*
X102033557Y-112683534D01*
X102117222Y-112527009D01*
X102165272Y-112468460D01*
X102229814Y-112389814D01*
X102331271Y-112306552D01*
X102367009Y-112277222D01*
X102523534Y-112193557D01*
X102693373Y-112142037D01*
X102759557Y-112135519D01*
X102825740Y-112129000D01*
X102914260Y-112129000D01*
X102980443Y-112135519D01*
X102980443Y-112135519D01*
G37*
G36*
X89643911Y-106767648D02*
G01*
X89643914Y-106767649D01*
X89643913Y-106767649D01*
X90108048Y-106959900D01*
X90525760Y-107239006D01*
X90880994Y-107594240D01*
X91160100Y-108011952D01*
X91277950Y-108296468D01*
X91352352Y-108476089D01*
X91450360Y-108968810D01*
X91450360Y-109471190D01*
X91352352Y-109963911D01*
X91330465Y-110016751D01*
X91160100Y-110428048D01*
X90880994Y-110845760D01*
X90525760Y-111200994D01*
X90108048Y-111480100D01*
X89779853Y-111616043D01*
X89643911Y-111672352D01*
X89151190Y-111770360D01*
X88648810Y-111770360D01*
X88156089Y-111672352D01*
X88020147Y-111616043D01*
X87691952Y-111480100D01*
X87274240Y-111200994D01*
X86919006Y-110845760D01*
X86639900Y-110428048D01*
X86469535Y-110016751D01*
X86447648Y-109963911D01*
X86349640Y-109471190D01*
X86349640Y-108968810D01*
X86447648Y-108476089D01*
X86522050Y-108296468D01*
X86639900Y-108011952D01*
X86919006Y-107594240D01*
X87274240Y-107239006D01*
X87691952Y-106959900D01*
X88156087Y-106767649D01*
X88156086Y-106767649D01*
X88156089Y-106767648D01*
X88648810Y-106669640D01*
X89151190Y-106669640D01*
X89643911Y-106767648D01*
X89643911Y-106767648D01*
G37*
G36*
X115043911Y-106767648D02*
G01*
X115043914Y-106767649D01*
X115043913Y-106767649D01*
X115508048Y-106959900D01*
X115925760Y-107239006D01*
X116280994Y-107594240D01*
X116560100Y-108011952D01*
X116677950Y-108296468D01*
X116752352Y-108476089D01*
X116850360Y-108968810D01*
X116850360Y-109471190D01*
X116752352Y-109963911D01*
X116730465Y-110016751D01*
X116560100Y-110428048D01*
X116280994Y-110845760D01*
X115925760Y-111200994D01*
X115508048Y-111480100D01*
X115179853Y-111616043D01*
X115043911Y-111672352D01*
X114551190Y-111770360D01*
X114048810Y-111770360D01*
X113556089Y-111672352D01*
X113420147Y-111616043D01*
X113091952Y-111480100D01*
X112674240Y-111200994D01*
X112319006Y-110845760D01*
X112039900Y-110428048D01*
X111869535Y-110016751D01*
X111847648Y-109963911D01*
X111749640Y-109471190D01*
X111749640Y-108968810D01*
X111847648Y-108476089D01*
X111922050Y-108296468D01*
X112039900Y-108011952D01*
X112319006Y-107594240D01*
X112674240Y-107239006D01*
X113091952Y-106959900D01*
X113556087Y-106767649D01*
X113556086Y-106767649D01*
X113556089Y-106767648D01*
X114048810Y-106669640D01*
X114551190Y-106669640D01*
X115043911Y-106767648D01*
X115043911Y-106767648D01*
G37*
G36*
X100440442Y-109595518D02*
G01*
X100506627Y-109602037D01*
X100676466Y-109653557D01*
X100832991Y-109737222D01*
X100868729Y-109766552D01*
X100970186Y-109849814D01*
X101053448Y-109951271D01*
X101082778Y-109987009D01*
X101166443Y-110143534D01*
X101217963Y-110313373D01*
X101235359Y-110490000D01*
X101217963Y-110666627D01*
X101166443Y-110836466D01*
X101082778Y-110992991D01*
X101053448Y-111028729D01*
X100970186Y-111130186D01*
X100883905Y-111200994D01*
X100832991Y-111242778D01*
X100676466Y-111326443D01*
X100506627Y-111377963D01*
X100440443Y-111384481D01*
X100374260Y-111391000D01*
X100285740Y-111391000D01*
X100219557Y-111384481D01*
X100153373Y-111377963D01*
X99983534Y-111326443D01*
X99827009Y-111242778D01*
X99776095Y-111200994D01*
X99689814Y-111130186D01*
X99606552Y-111028729D01*
X99577222Y-110992991D01*
X99493557Y-110836466D01*
X99442037Y-110666627D01*
X99424641Y-110490000D01*
X99442037Y-110313373D01*
X99493557Y-110143534D01*
X99577222Y-109987009D01*
X99606552Y-109951271D01*
X99689814Y-109849814D01*
X99791271Y-109766552D01*
X99827009Y-109737222D01*
X99983534Y-109653557D01*
X100153373Y-109602037D01*
X100219558Y-109595518D01*
X100285740Y-109589000D01*
X100374260Y-109589000D01*
X100440442Y-109595518D01*
X100440442Y-109595518D01*
G37*
G36*
X102980442Y-109595518D02*
G01*
X103046627Y-109602037D01*
X103216466Y-109653557D01*
X103372991Y-109737222D01*
X103408729Y-109766552D01*
X103510186Y-109849814D01*
X103593448Y-109951271D01*
X103622778Y-109987009D01*
X103706443Y-110143534D01*
X103757963Y-110313373D01*
X103775359Y-110490000D01*
X103757963Y-110666627D01*
X103706443Y-110836466D01*
X103622778Y-110992991D01*
X103593448Y-111028729D01*
X103510186Y-111130186D01*
X103423905Y-111200994D01*
X103372991Y-111242778D01*
X103216466Y-111326443D01*
X103046627Y-111377963D01*
X102980443Y-111384481D01*
X102914260Y-111391000D01*
X102825740Y-111391000D01*
X102759557Y-111384481D01*
X102693373Y-111377963D01*
X102523534Y-111326443D01*
X102367009Y-111242778D01*
X102316095Y-111200994D01*
X102229814Y-111130186D01*
X102146552Y-111028729D01*
X102117222Y-110992991D01*
X102033557Y-110836466D01*
X101982037Y-110666627D01*
X101964641Y-110490000D01*
X101982037Y-110313373D01*
X102033557Y-110143534D01*
X102117222Y-109987009D01*
X102146552Y-109951271D01*
X102229814Y-109849814D01*
X102331271Y-109766552D01*
X102367009Y-109737222D01*
X102523534Y-109653557D01*
X102693373Y-109602037D01*
X102759558Y-109595518D01*
X102825740Y-109589000D01*
X102914260Y-109589000D01*
X102980442Y-109595518D01*
X102980442Y-109595518D01*
G37*
G36*
X94891859Y-107994136D02*
G01*
X95012597Y-108018152D01*
X95240060Y-108112370D01*
X95444772Y-108249155D01*
X95618865Y-108423248D01*
X95755650Y-108627960D01*
X95849868Y-108855423D01*
X95897900Y-109096898D01*
X95897900Y-109343102D01*
X95849868Y-109584577D01*
X95755650Y-109812040D01*
X95618865Y-110016752D01*
X95444772Y-110190845D01*
X95240060Y-110327630D01*
X95012597Y-110421848D01*
X94891860Y-110445864D01*
X94771124Y-110469880D01*
X94524916Y-110469880D01*
X94404180Y-110445864D01*
X94283443Y-110421848D01*
X94055980Y-110327630D01*
X93851268Y-110190845D01*
X93677175Y-110016752D01*
X93540390Y-109812040D01*
X93446172Y-109584577D01*
X93398140Y-109343102D01*
X93398140Y-109096898D01*
X93446172Y-108855423D01*
X93540390Y-108627960D01*
X93677175Y-108423248D01*
X93851268Y-108249155D01*
X94055980Y-108112370D01*
X94283443Y-108018152D01*
X94404181Y-107994136D01*
X94524916Y-107970120D01*
X94771124Y-107970120D01*
X94891859Y-107994136D01*
X94891859Y-107994136D01*
G37*
G36*
X120291859Y-107994136D02*
G01*
X120412597Y-108018152D01*
X120640060Y-108112370D01*
X120844772Y-108249155D01*
X121018865Y-108423248D01*
X121155650Y-108627960D01*
X121249868Y-108855423D01*
X121297900Y-109096898D01*
X121297900Y-109343102D01*
X121249868Y-109584577D01*
X121155650Y-109812040D01*
X121018865Y-110016752D01*
X120844772Y-110190845D01*
X120640060Y-110327630D01*
X120412597Y-110421848D01*
X120291860Y-110445864D01*
X120171124Y-110469880D01*
X119924916Y-110469880D01*
X119804180Y-110445864D01*
X119683443Y-110421848D01*
X119455980Y-110327630D01*
X119251268Y-110190845D01*
X119077175Y-110016752D01*
X118940390Y-109812040D01*
X118846172Y-109584577D01*
X118798140Y-109343102D01*
X118798140Y-109096898D01*
X118846172Y-108855423D01*
X118940390Y-108627960D01*
X119077175Y-108423248D01*
X119251268Y-108249155D01*
X119455980Y-108112370D01*
X119683443Y-108018152D01*
X119804181Y-107994136D01*
X119924916Y-107970120D01*
X120171124Y-107970120D01*
X120291859Y-107994136D01*
X120291859Y-107994136D01*
G37*
G36*
X108795819Y-107994136D02*
G01*
X108916557Y-108018152D01*
X109144020Y-108112370D01*
X109348732Y-108249155D01*
X109522825Y-108423248D01*
X109659610Y-108627960D01*
X109753828Y-108855423D01*
X109801860Y-109096898D01*
X109801860Y-109343102D01*
X109753828Y-109584577D01*
X109659610Y-109812040D01*
X109522825Y-110016752D01*
X109348732Y-110190845D01*
X109144020Y-110327630D01*
X108916557Y-110421848D01*
X108795820Y-110445864D01*
X108675084Y-110469880D01*
X108428876Y-110469880D01*
X108308140Y-110445864D01*
X108187403Y-110421848D01*
X107959940Y-110327630D01*
X107755228Y-110190845D01*
X107581135Y-110016752D01*
X107444350Y-109812040D01*
X107350132Y-109584577D01*
X107302100Y-109343102D01*
X107302100Y-109096898D01*
X107350132Y-108855423D01*
X107444350Y-108627960D01*
X107581135Y-108423248D01*
X107755228Y-108249155D01*
X107959940Y-108112370D01*
X108187403Y-108018152D01*
X108308141Y-107994136D01*
X108428876Y-107970120D01*
X108675084Y-107970120D01*
X108795819Y-107994136D01*
X108795819Y-107994136D01*
G37*
G36*
X83395819Y-107994136D02*
G01*
X83516557Y-108018152D01*
X83744020Y-108112370D01*
X83948732Y-108249155D01*
X84122825Y-108423248D01*
X84259610Y-108627960D01*
X84353828Y-108855423D01*
X84401860Y-109096898D01*
X84401860Y-109343102D01*
X84353828Y-109584577D01*
X84259610Y-109812040D01*
X84122825Y-110016752D01*
X83948732Y-110190845D01*
X83744020Y-110327630D01*
X83516557Y-110421848D01*
X83395820Y-110445864D01*
X83275084Y-110469880D01*
X83028876Y-110469880D01*
X82908140Y-110445864D01*
X82787403Y-110421848D01*
X82559940Y-110327630D01*
X82355228Y-110190845D01*
X82181135Y-110016752D01*
X82044350Y-109812040D01*
X81950132Y-109584577D01*
X81902100Y-109343102D01*
X81902100Y-109096898D01*
X81950132Y-108855423D01*
X82044350Y-108627960D01*
X82181135Y-108423248D01*
X82355228Y-108249155D01*
X82559940Y-108112370D01*
X82787403Y-108018152D01*
X82908141Y-107994136D01*
X83028876Y-107970120D01*
X83275084Y-107970120D01*
X83395819Y-107994136D01*
X83395819Y-107994136D01*
G37*
G36*
X100440442Y-107055518D02*
G01*
X100506627Y-107062037D01*
X100676466Y-107113557D01*
X100832991Y-107197222D01*
X100868729Y-107226552D01*
X100970186Y-107309814D01*
X101053448Y-107411271D01*
X101082778Y-107447009D01*
X101166443Y-107603534D01*
X101217963Y-107773373D01*
X101235359Y-107950000D01*
X101217963Y-108126627D01*
X101166443Y-108296466D01*
X101082778Y-108452991D01*
X101063823Y-108476087D01*
X100970186Y-108590186D01*
X100868729Y-108673448D01*
X100832991Y-108702778D01*
X100676466Y-108786443D01*
X100506627Y-108837963D01*
X100440442Y-108844482D01*
X100374260Y-108851000D01*
X100285740Y-108851000D01*
X100219558Y-108844482D01*
X100153373Y-108837963D01*
X99983534Y-108786443D01*
X99827009Y-108702778D01*
X99791271Y-108673448D01*
X99689814Y-108590186D01*
X99596177Y-108476087D01*
X99577222Y-108452991D01*
X99493557Y-108296466D01*
X99442037Y-108126627D01*
X99424641Y-107950000D01*
X99442037Y-107773373D01*
X99493557Y-107603534D01*
X99577222Y-107447009D01*
X99606552Y-107411271D01*
X99689814Y-107309814D01*
X99791271Y-107226552D01*
X99827009Y-107197222D01*
X99983534Y-107113557D01*
X100153373Y-107062037D01*
X100219558Y-107055518D01*
X100285740Y-107049000D01*
X100374260Y-107049000D01*
X100440442Y-107055518D01*
X100440442Y-107055518D01*
G37*
G36*
X102980442Y-107055518D02*
G01*
X103046627Y-107062037D01*
X103216466Y-107113557D01*
X103372991Y-107197222D01*
X103408729Y-107226552D01*
X103510186Y-107309814D01*
X103593448Y-107411271D01*
X103622778Y-107447009D01*
X103706443Y-107603534D01*
X103757963Y-107773373D01*
X103775359Y-107950000D01*
X103757963Y-108126627D01*
X103706443Y-108296466D01*
X103622778Y-108452991D01*
X103603823Y-108476087D01*
X103510186Y-108590186D01*
X103408729Y-108673448D01*
X103372991Y-108702778D01*
X103216466Y-108786443D01*
X103046627Y-108837963D01*
X102980442Y-108844482D01*
X102914260Y-108851000D01*
X102825740Y-108851000D01*
X102759558Y-108844482D01*
X102693373Y-108837963D01*
X102523534Y-108786443D01*
X102367009Y-108702778D01*
X102331271Y-108673448D01*
X102229814Y-108590186D01*
X102136177Y-108476087D01*
X102117222Y-108452991D01*
X102033557Y-108296466D01*
X101982037Y-108126627D01*
X101964641Y-107950000D01*
X101982037Y-107773373D01*
X102033557Y-107603534D01*
X102117222Y-107447009D01*
X102146552Y-107411271D01*
X102229814Y-107309814D01*
X102331271Y-107226552D01*
X102367009Y-107197222D01*
X102523534Y-107113557D01*
X102693373Y-107062037D01*
X102759558Y-107055518D01*
X102825740Y-107049000D01*
X102914260Y-107049000D01*
X102980442Y-107055518D01*
X102980442Y-107055518D01*
G37*
G36*
X100440443Y-104515519D02*
G01*
X100506627Y-104522037D01*
X100676466Y-104573557D01*
X100676468Y-104573558D01*
X100723239Y-104598558D01*
X100832991Y-104657222D01*
X100868729Y-104686552D01*
X100970186Y-104769814D01*
X101053448Y-104871271D01*
X101082778Y-104907009D01*
X101166443Y-105063534D01*
X101217963Y-105233373D01*
X101235359Y-105410000D01*
X101217963Y-105586627D01*
X101166443Y-105756466D01*
X101082778Y-105912991D01*
X101053448Y-105948729D01*
X100970186Y-106050186D01*
X100868729Y-106133448D01*
X100832991Y-106162778D01*
X100676466Y-106246443D01*
X100506627Y-106297963D01*
X100440442Y-106304482D01*
X100374260Y-106311000D01*
X100285740Y-106311000D01*
X100219558Y-106304482D01*
X100153373Y-106297963D01*
X99983534Y-106246443D01*
X99827009Y-106162778D01*
X99791271Y-106133448D01*
X99689814Y-106050186D01*
X99606552Y-105948729D01*
X99577222Y-105912991D01*
X99493557Y-105756466D01*
X99442037Y-105586627D01*
X99424641Y-105410000D01*
X99442037Y-105233373D01*
X99493557Y-105063534D01*
X99577222Y-104907009D01*
X99606552Y-104871271D01*
X99689814Y-104769814D01*
X99791271Y-104686552D01*
X99827009Y-104657222D01*
X99936761Y-104598558D01*
X99983532Y-104573558D01*
X99983534Y-104573557D01*
X100153373Y-104522037D01*
X100219557Y-104515519D01*
X100285740Y-104509000D01*
X100374260Y-104509000D01*
X100440443Y-104515519D01*
X100440443Y-104515519D01*
G37*
G36*
X102980443Y-104515519D02*
G01*
X103046627Y-104522037D01*
X103216466Y-104573557D01*
X103216468Y-104573558D01*
X103263239Y-104598558D01*
X103372991Y-104657222D01*
X103408729Y-104686552D01*
X103510186Y-104769814D01*
X103593448Y-104871271D01*
X103622778Y-104907009D01*
X103706443Y-105063534D01*
X103757963Y-105233373D01*
X103775359Y-105410000D01*
X103757963Y-105586627D01*
X103706443Y-105756466D01*
X103622778Y-105912991D01*
X103593448Y-105948729D01*
X103510186Y-106050186D01*
X103408729Y-106133448D01*
X103372991Y-106162778D01*
X103216466Y-106246443D01*
X103046627Y-106297963D01*
X102980442Y-106304482D01*
X102914260Y-106311000D01*
X102825740Y-106311000D01*
X102759558Y-106304482D01*
X102693373Y-106297963D01*
X102523534Y-106246443D01*
X102367009Y-106162778D01*
X102331271Y-106133448D01*
X102229814Y-106050186D01*
X102146552Y-105948729D01*
X102117222Y-105912991D01*
X102033557Y-105756466D01*
X101982037Y-105586627D01*
X101964641Y-105410000D01*
X101982037Y-105233373D01*
X102033557Y-105063534D01*
X102117222Y-104907009D01*
X102146552Y-104871271D01*
X102229814Y-104769814D01*
X102331271Y-104686552D01*
X102367009Y-104657222D01*
X102476761Y-104598558D01*
X102523532Y-104573558D01*
X102523534Y-104573557D01*
X102693373Y-104522037D01*
X102759557Y-104515519D01*
X102825740Y-104509000D01*
X102914260Y-104509000D01*
X102980443Y-104515519D01*
X102980443Y-104515519D01*
G37*
G36*
X83395819Y-103495796D02*
G01*
X83516557Y-103519812D01*
X83744020Y-103614030D01*
X83948732Y-103750815D01*
X84122825Y-103924908D01*
X84259610Y-104129620D01*
X84353828Y-104357083D01*
X84353828Y-104357085D01*
X84401860Y-104598556D01*
X84401860Y-104844764D01*
X84389478Y-104907011D01*
X84353828Y-105086237D01*
X84259610Y-105313700D01*
X84122825Y-105518412D01*
X83948732Y-105692505D01*
X83744020Y-105829290D01*
X83516557Y-105923508D01*
X83395819Y-105947524D01*
X83275084Y-105971540D01*
X83028876Y-105971540D01*
X82908140Y-105947524D01*
X82787403Y-105923508D01*
X82559940Y-105829290D01*
X82355228Y-105692505D01*
X82181135Y-105518412D01*
X82044350Y-105313700D01*
X81950132Y-105086237D01*
X81914482Y-104907011D01*
X81902100Y-104844764D01*
X81902100Y-104598556D01*
X81950132Y-104357085D01*
X81950132Y-104357083D01*
X82044350Y-104129620D01*
X82181135Y-103924908D01*
X82355228Y-103750815D01*
X82559940Y-103614030D01*
X82787403Y-103519812D01*
X82908141Y-103495796D01*
X83028876Y-103471780D01*
X83275084Y-103471780D01*
X83395819Y-103495796D01*
X83395819Y-103495796D01*
G37*
G36*
X108795819Y-103495796D02*
G01*
X108916557Y-103519812D01*
X109144020Y-103614030D01*
X109348732Y-103750815D01*
X109522825Y-103924908D01*
X109659610Y-104129620D01*
X109753828Y-104357083D01*
X109753828Y-104357085D01*
X109801860Y-104598556D01*
X109801860Y-104844764D01*
X109789478Y-104907011D01*
X109753828Y-105086237D01*
X109659610Y-105313700D01*
X109522825Y-105518412D01*
X109348732Y-105692505D01*
X109144020Y-105829290D01*
X108916557Y-105923508D01*
X108795819Y-105947524D01*
X108675084Y-105971540D01*
X108428876Y-105971540D01*
X108308140Y-105947524D01*
X108187403Y-105923508D01*
X107959940Y-105829290D01*
X107755228Y-105692505D01*
X107581135Y-105518412D01*
X107444350Y-105313700D01*
X107350132Y-105086237D01*
X107314482Y-104907011D01*
X107302100Y-104844764D01*
X107302100Y-104598556D01*
X107350132Y-104357085D01*
X107350132Y-104357083D01*
X107444350Y-104129620D01*
X107581135Y-103924908D01*
X107755228Y-103750815D01*
X107959940Y-103614030D01*
X108187403Y-103519812D01*
X108308141Y-103495796D01*
X108428876Y-103471780D01*
X108675084Y-103471780D01*
X108795819Y-103495796D01*
X108795819Y-103495796D01*
G37*
G36*
X120291859Y-103495796D02*
G01*
X120412597Y-103519812D01*
X120640060Y-103614030D01*
X120844772Y-103750815D01*
X121018865Y-103924908D01*
X121155650Y-104129620D01*
X121249868Y-104357083D01*
X121249868Y-104357085D01*
X121297900Y-104598556D01*
X121297900Y-104844764D01*
X121285518Y-104907011D01*
X121249868Y-105086237D01*
X121155650Y-105313700D01*
X121018865Y-105518412D01*
X120844772Y-105692505D01*
X120640060Y-105829290D01*
X120412597Y-105923508D01*
X120291859Y-105947524D01*
X120171124Y-105971540D01*
X119924916Y-105971540D01*
X119804180Y-105947524D01*
X119683443Y-105923508D01*
X119455980Y-105829290D01*
X119251268Y-105692505D01*
X119077175Y-105518412D01*
X118940390Y-105313700D01*
X118846172Y-105086237D01*
X118810522Y-104907011D01*
X118798140Y-104844764D01*
X118798140Y-104598556D01*
X118846172Y-104357085D01*
X118846172Y-104357083D01*
X118940390Y-104129620D01*
X119077175Y-103924908D01*
X119251268Y-103750815D01*
X119455980Y-103614030D01*
X119683443Y-103519812D01*
X119804181Y-103495796D01*
X119924916Y-103471780D01*
X120171124Y-103471780D01*
X120291859Y-103495796D01*
X120291859Y-103495796D01*
G37*
G36*
X94891859Y-103495796D02*
G01*
X95012597Y-103519812D01*
X95240060Y-103614030D01*
X95444772Y-103750815D01*
X95618865Y-103924908D01*
X95755650Y-104129620D01*
X95849868Y-104357083D01*
X95849868Y-104357085D01*
X95897900Y-104598556D01*
X95897900Y-104844764D01*
X95885518Y-104907011D01*
X95849868Y-105086237D01*
X95755650Y-105313700D01*
X95618865Y-105518412D01*
X95444772Y-105692505D01*
X95240060Y-105829290D01*
X95012597Y-105923508D01*
X94891859Y-105947524D01*
X94771124Y-105971540D01*
X94524916Y-105971540D01*
X94404180Y-105947524D01*
X94283443Y-105923508D01*
X94055980Y-105829290D01*
X93851268Y-105692505D01*
X93677175Y-105518412D01*
X93540390Y-105313700D01*
X93446172Y-105086237D01*
X93410522Y-104907011D01*
X93398140Y-104844764D01*
X93398140Y-104598556D01*
X93446172Y-104357085D01*
X93446172Y-104357083D01*
X93540390Y-104129620D01*
X93677175Y-103924908D01*
X93851268Y-103750815D01*
X94055980Y-103614030D01*
X94283443Y-103519812D01*
X94404181Y-103495796D01*
X94524916Y-103471780D01*
X94771124Y-103471780D01*
X94891859Y-103495796D01*
X94891859Y-103495796D01*
G37*
G36*
X100440442Y-101975518D02*
G01*
X100506627Y-101982037D01*
X100676466Y-102033557D01*
X100832991Y-102117222D01*
X100868729Y-102146552D01*
X100970186Y-102229814D01*
X101051724Y-102329170D01*
X101082778Y-102367009D01*
X101166443Y-102523534D01*
X101217963Y-102693373D01*
X101235359Y-102870000D01*
X101217963Y-103046627D01*
X101166443Y-103216466D01*
X101082778Y-103372991D01*
X101053448Y-103408729D01*
X100970186Y-103510186D01*
X100868729Y-103593448D01*
X100832991Y-103622778D01*
X100676466Y-103706443D01*
X100506627Y-103757963D01*
X100440443Y-103764481D01*
X100374260Y-103771000D01*
X100285740Y-103771000D01*
X100219557Y-103764481D01*
X100153373Y-103757963D01*
X99983534Y-103706443D01*
X99827009Y-103622778D01*
X99791271Y-103593448D01*
X99689814Y-103510186D01*
X99606552Y-103408729D01*
X99577222Y-103372991D01*
X99493557Y-103216466D01*
X99442037Y-103046627D01*
X99424641Y-102870000D01*
X99442037Y-102693373D01*
X99493557Y-102523534D01*
X99577222Y-102367009D01*
X99608276Y-102329170D01*
X99689814Y-102229814D01*
X99791271Y-102146552D01*
X99827009Y-102117222D01*
X99983534Y-102033557D01*
X100153373Y-101982037D01*
X100219558Y-101975518D01*
X100285740Y-101969000D01*
X100374260Y-101969000D01*
X100440442Y-101975518D01*
X100440442Y-101975518D01*
G37*
G36*
X102980442Y-101975518D02*
G01*
X103046627Y-101982037D01*
X103216466Y-102033557D01*
X103372991Y-102117222D01*
X103408729Y-102146552D01*
X103510186Y-102229814D01*
X103591724Y-102329170D01*
X103622778Y-102367009D01*
X103706443Y-102523534D01*
X103757963Y-102693373D01*
X103775359Y-102870000D01*
X103757963Y-103046627D01*
X103706443Y-103216466D01*
X103622778Y-103372991D01*
X103593448Y-103408729D01*
X103510186Y-103510186D01*
X103408729Y-103593448D01*
X103372991Y-103622778D01*
X103216466Y-103706443D01*
X103046627Y-103757963D01*
X102980443Y-103764481D01*
X102914260Y-103771000D01*
X102825740Y-103771000D01*
X102759557Y-103764481D01*
X102693373Y-103757963D01*
X102523534Y-103706443D01*
X102367009Y-103622778D01*
X102331271Y-103593448D01*
X102229814Y-103510186D01*
X102146552Y-103408729D01*
X102117222Y-103372991D01*
X102033557Y-103216466D01*
X101982037Y-103046627D01*
X101964641Y-102870000D01*
X101982037Y-102693373D01*
X102033557Y-102523534D01*
X102117222Y-102367009D01*
X102148276Y-102329170D01*
X102229814Y-102229814D01*
X102331271Y-102146552D01*
X102367009Y-102117222D01*
X102523534Y-102033557D01*
X102693373Y-101982037D01*
X102759558Y-101975518D01*
X102825740Y-101969000D01*
X102914260Y-101969000D01*
X102980442Y-101975518D01*
X102980442Y-101975518D01*
G37*
G36*
X85145879Y-99995676D02*
G01*
X85266617Y-100019692D01*
X85494080Y-100113910D01*
X85698792Y-100250695D01*
X85872885Y-100424788D01*
X86009670Y-100629500D01*
X86103888Y-100856963D01*
X86103888Y-100856965D01*
X86148806Y-101082779D01*
X86151920Y-101098438D01*
X86151920Y-101344642D01*
X86103888Y-101586117D01*
X86009670Y-101813580D01*
X85872885Y-102018292D01*
X85698792Y-102192385D01*
X85494080Y-102329170D01*
X85266617Y-102423388D01*
X85145879Y-102447404D01*
X85025144Y-102471420D01*
X84778936Y-102471420D01*
X84658200Y-102447404D01*
X84537463Y-102423388D01*
X84310000Y-102329170D01*
X84105288Y-102192385D01*
X83931195Y-102018292D01*
X83794410Y-101813580D01*
X83700192Y-101586117D01*
X83652160Y-101344642D01*
X83652160Y-101098438D01*
X83655275Y-101082779D01*
X83700192Y-100856965D01*
X83700192Y-100856963D01*
X83794410Y-100629500D01*
X83931195Y-100424788D01*
X84105288Y-100250695D01*
X84310000Y-100113910D01*
X84537463Y-100019692D01*
X84658201Y-99995676D01*
X84778936Y-99971660D01*
X85025144Y-99971660D01*
X85145879Y-99995676D01*
X85145879Y-99995676D01*
G37*
G36*
X93141799Y-99995676D02*
G01*
X93262537Y-100019692D01*
X93490000Y-100113910D01*
X93694712Y-100250695D01*
X93868805Y-100424788D01*
X94005590Y-100629500D01*
X94099808Y-100856963D01*
X94099808Y-100856965D01*
X94144726Y-101082779D01*
X94147840Y-101098438D01*
X94147840Y-101344642D01*
X94099808Y-101586117D01*
X94005590Y-101813580D01*
X93868805Y-102018292D01*
X93694712Y-102192385D01*
X93490000Y-102329170D01*
X93262537Y-102423388D01*
X93141799Y-102447404D01*
X93021064Y-102471420D01*
X92774856Y-102471420D01*
X92654120Y-102447404D01*
X92533383Y-102423388D01*
X92305920Y-102329170D01*
X92101208Y-102192385D01*
X91927115Y-102018292D01*
X91790330Y-101813580D01*
X91696112Y-101586117D01*
X91648080Y-101344642D01*
X91648080Y-101098438D01*
X91651195Y-101082779D01*
X91696112Y-100856965D01*
X91696112Y-100856963D01*
X91790330Y-100629500D01*
X91927115Y-100424788D01*
X92101208Y-100250695D01*
X92305920Y-100113910D01*
X92533383Y-100019692D01*
X92654121Y-99995676D01*
X92774856Y-99971660D01*
X93021064Y-99971660D01*
X93141799Y-99995676D01*
X93141799Y-99995676D01*
G37*
G36*
X110545879Y-99995676D02*
G01*
X110666617Y-100019692D01*
X110894080Y-100113910D01*
X111098792Y-100250695D01*
X111272885Y-100424788D01*
X111409670Y-100629500D01*
X111503888Y-100856963D01*
X111503888Y-100856965D01*
X111548806Y-101082779D01*
X111551920Y-101098438D01*
X111551920Y-101344642D01*
X111503888Y-101586117D01*
X111409670Y-101813580D01*
X111272885Y-102018292D01*
X111098792Y-102192385D01*
X110894080Y-102329170D01*
X110666617Y-102423388D01*
X110545879Y-102447404D01*
X110425144Y-102471420D01*
X110178936Y-102471420D01*
X110058200Y-102447404D01*
X109937463Y-102423388D01*
X109710000Y-102329170D01*
X109505288Y-102192385D01*
X109331195Y-102018292D01*
X109194410Y-101813580D01*
X109100192Y-101586117D01*
X109052160Y-101344642D01*
X109052160Y-101098438D01*
X109055275Y-101082779D01*
X109100192Y-100856965D01*
X109100192Y-100856963D01*
X109194410Y-100629500D01*
X109331195Y-100424788D01*
X109505288Y-100250695D01*
X109710000Y-100113910D01*
X109937463Y-100019692D01*
X110058201Y-99995676D01*
X110178936Y-99971660D01*
X110425144Y-99971660D01*
X110545879Y-99995676D01*
X110545879Y-99995676D01*
G37*
G36*
X118541799Y-99995676D02*
G01*
X118662537Y-100019692D01*
X118890000Y-100113910D01*
X119094712Y-100250695D01*
X119268805Y-100424788D01*
X119405590Y-100629500D01*
X119499808Y-100856963D01*
X119499808Y-100856965D01*
X119544726Y-101082779D01*
X119547840Y-101098438D01*
X119547840Y-101344642D01*
X119499808Y-101586117D01*
X119405590Y-101813580D01*
X119268805Y-102018292D01*
X119094712Y-102192385D01*
X118890000Y-102329170D01*
X118662537Y-102423388D01*
X118541799Y-102447404D01*
X118421064Y-102471420D01*
X118174856Y-102471420D01*
X118054120Y-102447404D01*
X117933383Y-102423388D01*
X117705920Y-102329170D01*
X117501208Y-102192385D01*
X117327115Y-102018292D01*
X117190330Y-101813580D01*
X117096112Y-101586117D01*
X117048080Y-101344642D01*
X117048080Y-101098438D01*
X117051195Y-101082779D01*
X117096112Y-100856965D01*
X117096112Y-100856963D01*
X117190330Y-100629500D01*
X117327115Y-100424788D01*
X117501208Y-100250695D01*
X117705920Y-100113910D01*
X117933383Y-100019692D01*
X118054121Y-99995676D01*
X118174856Y-99971660D01*
X118421064Y-99971660D01*
X118541799Y-99995676D01*
X118541799Y-99995676D01*
G37*
G36*
X114543839Y-98994916D02*
G01*
X114664577Y-99018932D01*
X114892040Y-99113150D01*
X115096752Y-99249935D01*
X115270845Y-99424028D01*
X115407630Y-99628740D01*
X115501848Y-99856203D01*
X115549880Y-100097678D01*
X115549880Y-100343882D01*
X115501848Y-100585357D01*
X115407630Y-100812820D01*
X115270845Y-101017532D01*
X115096752Y-101191625D01*
X114892040Y-101328410D01*
X114664577Y-101422628D01*
X114543839Y-101446644D01*
X114423104Y-101470660D01*
X114176896Y-101470660D01*
X114056161Y-101446644D01*
X113935423Y-101422628D01*
X113707960Y-101328410D01*
X113503248Y-101191625D01*
X113329155Y-101017532D01*
X113192370Y-100812820D01*
X113098152Y-100585357D01*
X113050120Y-100343882D01*
X113050120Y-100097678D01*
X113098152Y-99856203D01*
X113192370Y-99628740D01*
X113329155Y-99424028D01*
X113503248Y-99249935D01*
X113707960Y-99113150D01*
X113935423Y-99018932D01*
X114056161Y-98994916D01*
X114176896Y-98970900D01*
X114423104Y-98970900D01*
X114543839Y-98994916D01*
X114543839Y-98994916D01*
G37*
G36*
X89143839Y-98994916D02*
G01*
X89264577Y-99018932D01*
X89492040Y-99113150D01*
X89696752Y-99249935D01*
X89870845Y-99424028D01*
X90007630Y-99628740D01*
X90101848Y-99856203D01*
X90149880Y-100097678D01*
X90149880Y-100343882D01*
X90101848Y-100585357D01*
X90007630Y-100812820D01*
X89870845Y-101017532D01*
X89696752Y-101191625D01*
X89492040Y-101328410D01*
X89264577Y-101422628D01*
X89143839Y-101446644D01*
X89023104Y-101470660D01*
X88776896Y-101470660D01*
X88656161Y-101446644D01*
X88535423Y-101422628D01*
X88307960Y-101328410D01*
X88103248Y-101191625D01*
X87929155Y-101017532D01*
X87792370Y-100812820D01*
X87698152Y-100585357D01*
X87650120Y-100343882D01*
X87650120Y-100097678D01*
X87698152Y-99856203D01*
X87792370Y-99628740D01*
X87929155Y-99424028D01*
X88103248Y-99249935D01*
X88307960Y-99113150D01*
X88535423Y-99018932D01*
X88656161Y-98994916D01*
X88776896Y-98970900D01*
X89023104Y-98970900D01*
X89143839Y-98994916D01*
X89143839Y-98994916D01*
G37*
G36*
X100440443Y-99435519D02*
G01*
X100506627Y-99442037D01*
X100676466Y-99493557D01*
X100832991Y-99577222D01*
X100868729Y-99606552D01*
X100970186Y-99689814D01*
X101053448Y-99791271D01*
X101082778Y-99827009D01*
X101166443Y-99983534D01*
X101217963Y-100153373D01*
X101235359Y-100330000D01*
X101217963Y-100506627D01*
X101166443Y-100676466D01*
X101082778Y-100832991D01*
X101063103Y-100856965D01*
X100970186Y-100970186D01*
X100868729Y-101053448D01*
X100832991Y-101082778D01*
X100676466Y-101166443D01*
X100506627Y-101217963D01*
X100440443Y-101224481D01*
X100374260Y-101231000D01*
X100285740Y-101231000D01*
X100219558Y-101224482D01*
X100153373Y-101217963D01*
X99983534Y-101166443D01*
X99827009Y-101082778D01*
X99791271Y-101053448D01*
X99689814Y-100970186D01*
X99596897Y-100856965D01*
X99577222Y-100832991D01*
X99493557Y-100676466D01*
X99442037Y-100506627D01*
X99424641Y-100330000D01*
X99442037Y-100153373D01*
X99493557Y-99983534D01*
X99577222Y-99827009D01*
X99606552Y-99791271D01*
X99689814Y-99689814D01*
X99791271Y-99606552D01*
X99827009Y-99577222D01*
X99983534Y-99493557D01*
X100153373Y-99442037D01*
X100219558Y-99435518D01*
X100285740Y-99429000D01*
X100374260Y-99429000D01*
X100440443Y-99435519D01*
X100440443Y-99435519D01*
G37*
G36*
X102980443Y-99435519D02*
G01*
X103046627Y-99442037D01*
X103216466Y-99493557D01*
X103372991Y-99577222D01*
X103408729Y-99606552D01*
X103510186Y-99689814D01*
X103593448Y-99791271D01*
X103622778Y-99827009D01*
X103706443Y-99983534D01*
X103757963Y-100153373D01*
X103775359Y-100330000D01*
X103757963Y-100506627D01*
X103706443Y-100676466D01*
X103622778Y-100832991D01*
X103603103Y-100856965D01*
X103510186Y-100970186D01*
X103408729Y-101053448D01*
X103372991Y-101082778D01*
X103216466Y-101166443D01*
X103046627Y-101217963D01*
X102980443Y-101224481D01*
X102914260Y-101231000D01*
X102825740Y-101231000D01*
X102759558Y-101224482D01*
X102693373Y-101217963D01*
X102523534Y-101166443D01*
X102367009Y-101082778D01*
X102331271Y-101053448D01*
X102229814Y-100970186D01*
X102136897Y-100856965D01*
X102117222Y-100832991D01*
X102033557Y-100676466D01*
X101982037Y-100506627D01*
X101964641Y-100330000D01*
X101982037Y-100153373D01*
X102033557Y-99983534D01*
X102117222Y-99827009D01*
X102146552Y-99791271D01*
X102229814Y-99689814D01*
X102331271Y-99606552D01*
X102367009Y-99577222D01*
X102523534Y-99493557D01*
X102693373Y-99442037D01*
X102759558Y-99435518D01*
X102825740Y-99429000D01*
X102914260Y-99429000D01*
X102980443Y-99435519D01*
X102980443Y-99435519D01*
G37*
G36*
X112180823Y-95681313D02*
G01*
X112341242Y-95729976D01*
X112473906Y-95800886D01*
X112489078Y-95808996D01*
X112618659Y-95915341D01*
X112725004Y-96044922D01*
X112725005Y-96044924D01*
X112804024Y-96192758D01*
X112852687Y-96353177D01*
X112869117Y-96520000D01*
X112852687Y-96686823D01*
X112804024Y-96847242D01*
X112733114Y-96979906D01*
X112725004Y-96995078D01*
X112618659Y-97124659D01*
X112489078Y-97231004D01*
X112489076Y-97231005D01*
X112341242Y-97310024D01*
X112180823Y-97358687D01*
X112055804Y-97371000D01*
X111972196Y-97371000D01*
X111847177Y-97358687D01*
X111686758Y-97310024D01*
X111538924Y-97231005D01*
X111538922Y-97231004D01*
X111409341Y-97124659D01*
X111302996Y-96995078D01*
X111294886Y-96979906D01*
X111223976Y-96847242D01*
X111175313Y-96686823D01*
X111158883Y-96520000D01*
X111175313Y-96353177D01*
X111223976Y-96192758D01*
X111302995Y-96044924D01*
X111302996Y-96044922D01*
X111409341Y-95915341D01*
X111538922Y-95808996D01*
X111554094Y-95800886D01*
X111686758Y-95729976D01*
X111847177Y-95681313D01*
X111972196Y-95669000D01*
X112055804Y-95669000D01*
X112180823Y-95681313D01*
X112180823Y-95681313D01*
G37*
G36*
X91352823Y-95681313D02*
G01*
X91513242Y-95729976D01*
X91645906Y-95800886D01*
X91661078Y-95808996D01*
X91790659Y-95915341D01*
X91897004Y-96044922D01*
X91897005Y-96044924D01*
X91976024Y-96192758D01*
X92024687Y-96353177D01*
X92041117Y-96520000D01*
X92024687Y-96686823D01*
X91976024Y-96847242D01*
X91905114Y-96979906D01*
X91897004Y-96995078D01*
X91790659Y-97124659D01*
X91661078Y-97231004D01*
X91661076Y-97231005D01*
X91513242Y-97310024D01*
X91352823Y-97358687D01*
X91227804Y-97371000D01*
X91144196Y-97371000D01*
X91019177Y-97358687D01*
X90858758Y-97310024D01*
X90710924Y-97231005D01*
X90710922Y-97231004D01*
X90581341Y-97124659D01*
X90474996Y-96995078D01*
X90466886Y-96979906D01*
X90395976Y-96847242D01*
X90347313Y-96686823D01*
X90330883Y-96520000D01*
X90347313Y-96353177D01*
X90395976Y-96192758D01*
X90474995Y-96044924D01*
X90474996Y-96044922D01*
X90581341Y-95915341D01*
X90710922Y-95808996D01*
X90726094Y-95800886D01*
X90858758Y-95729976D01*
X91019177Y-95681313D01*
X91144196Y-95669000D01*
X91227804Y-95669000D01*
X91352823Y-95681313D01*
X91352823Y-95681313D01*
G37*
G36*
X94217142Y-88118242D02*
G01*
X94365101Y-88179529D01*
X94498255Y-88268499D01*
X94611501Y-88381745D01*
X94700471Y-88514899D01*
X94761758Y-88662858D01*
X94793000Y-88819925D01*
X94793000Y-88980075D01*
X94761758Y-89137142D01*
X94700471Y-89285101D01*
X94611501Y-89418255D01*
X94498255Y-89531501D01*
X94365101Y-89620471D01*
X94217142Y-89681758D01*
X94060075Y-89713000D01*
X93899925Y-89713000D01*
X93742858Y-89681758D01*
X93594899Y-89620471D01*
X93461745Y-89531501D01*
X93348499Y-89418255D01*
X93259529Y-89285101D01*
X93198242Y-89137142D01*
X93167000Y-88980075D01*
X93167000Y-88819925D01*
X93198242Y-88662858D01*
X93259529Y-88514899D01*
X93348499Y-88381745D01*
X93461745Y-88268499D01*
X93594899Y-88179529D01*
X93742858Y-88118242D01*
X93899925Y-88087000D01*
X94060075Y-88087000D01*
X94217142Y-88118242D01*
X94217142Y-88118242D01*
G37*
G36*
X104377142Y-88118242D02*
G01*
X104525101Y-88179529D01*
X104658255Y-88268499D01*
X104771501Y-88381745D01*
X104860471Y-88514899D01*
X104921758Y-88662858D01*
X104953000Y-88819925D01*
X104953000Y-88980075D01*
X104921758Y-89137142D01*
X104860471Y-89285101D01*
X104771501Y-89418255D01*
X104658255Y-89531501D01*
X104525101Y-89620471D01*
X104377142Y-89681758D01*
X104220075Y-89713000D01*
X104059925Y-89713000D01*
X103902858Y-89681758D01*
X103754899Y-89620471D01*
X103621745Y-89531501D01*
X103508499Y-89418255D01*
X103419529Y-89285101D01*
X103358242Y-89137142D01*
X103327000Y-88980075D01*
X103327000Y-88819925D01*
X103358242Y-88662858D01*
X103419529Y-88514899D01*
X103508499Y-88381745D01*
X103621745Y-88268499D01*
X103754899Y-88179529D01*
X103902858Y-88118242D01*
X104059925Y-88087000D01*
X104220075Y-88087000D01*
X104377142Y-88118242D01*
X104377142Y-88118242D01*
G37*
G36*
X96757142Y-88118242D02*
G01*
X96905101Y-88179529D01*
X97038255Y-88268499D01*
X97151501Y-88381745D01*
X97240471Y-88514899D01*
X97301758Y-88662858D01*
X97333000Y-88819925D01*
X97333000Y-88980075D01*
X97301758Y-89137142D01*
X97240471Y-89285101D01*
X97151501Y-89418255D01*
X97038255Y-89531501D01*
X96905101Y-89620471D01*
X96757142Y-89681758D01*
X96600075Y-89713000D01*
X96439925Y-89713000D01*
X96282858Y-89681758D01*
X96134899Y-89620471D01*
X96001745Y-89531501D01*
X95888499Y-89418255D01*
X95799529Y-89285101D01*
X95738242Y-89137142D01*
X95707000Y-88980075D01*
X95707000Y-88819925D01*
X95738242Y-88662858D01*
X95799529Y-88514899D01*
X95888499Y-88381745D01*
X96001745Y-88268499D01*
X96134899Y-88179529D01*
X96282858Y-88118242D01*
X96439925Y-88087000D01*
X96600075Y-88087000D01*
X96757142Y-88118242D01*
X96757142Y-88118242D01*
G37*
G36*
X106917142Y-88118242D02*
G01*
X107065101Y-88179529D01*
X107198255Y-88268499D01*
X107311501Y-88381745D01*
X107400471Y-88514899D01*
X107461758Y-88662858D01*
X107493000Y-88819925D01*
X107493000Y-88980075D01*
X107461758Y-89137142D01*
X107400471Y-89285101D01*
X107311501Y-89418255D01*
X107198255Y-89531501D01*
X107065101Y-89620471D01*
X106917142Y-89681758D01*
X106760075Y-89713000D01*
X106599925Y-89713000D01*
X106442858Y-89681758D01*
X106294899Y-89620471D01*
X106161745Y-89531501D01*
X106048499Y-89418255D01*
X105959529Y-89285101D01*
X105898242Y-89137142D01*
X105867000Y-88980075D01*
X105867000Y-88819925D01*
X105898242Y-88662858D01*
X105959529Y-88514899D01*
X106048499Y-88381745D01*
X106161745Y-88268499D01*
X106294899Y-88179529D01*
X106442858Y-88118242D01*
X106599925Y-88087000D01*
X106760075Y-88087000D01*
X106917142Y-88118242D01*
X106917142Y-88118242D01*
G37*
G36*
X99297142Y-88118242D02*
G01*
X99445101Y-88179529D01*
X99578255Y-88268499D01*
X99691501Y-88381745D01*
X99780471Y-88514899D01*
X99841758Y-88662858D01*
X99873000Y-88819925D01*
X99873000Y-88980075D01*
X99841758Y-89137142D01*
X99780471Y-89285101D01*
X99691501Y-89418255D01*
X99578255Y-89531501D01*
X99445101Y-89620471D01*
X99297142Y-89681758D01*
X99140075Y-89713000D01*
X98979925Y-89713000D01*
X98822858Y-89681758D01*
X98674899Y-89620471D01*
X98541745Y-89531501D01*
X98428499Y-89418255D01*
X98339529Y-89285101D01*
X98278242Y-89137142D01*
X98247000Y-88980075D01*
X98247000Y-88819925D01*
X98278242Y-88662858D01*
X98339529Y-88514899D01*
X98428499Y-88381745D01*
X98541745Y-88268499D01*
X98674899Y-88179529D01*
X98822858Y-88118242D01*
X98979925Y-88087000D01*
X99140075Y-88087000D01*
X99297142Y-88118242D01*
X99297142Y-88118242D01*
G37*
G36*
X109457142Y-88118242D02*
G01*
X109605101Y-88179529D01*
X109738255Y-88268499D01*
X109851501Y-88381745D01*
X109940471Y-88514899D01*
X110001758Y-88662858D01*
X110033000Y-88819925D01*
X110033000Y-88980075D01*
X110001758Y-89137142D01*
X109940471Y-89285101D01*
X109851501Y-89418255D01*
X109738255Y-89531501D01*
X109605101Y-89620471D01*
X109457142Y-89681758D01*
X109300075Y-89713000D01*
X109139925Y-89713000D01*
X108982858Y-89681758D01*
X108834899Y-89620471D01*
X108701745Y-89531501D01*
X108588499Y-89418255D01*
X108499529Y-89285101D01*
X108438242Y-89137142D01*
X108407000Y-88980075D01*
X108407000Y-88819925D01*
X108438242Y-88662858D01*
X108499529Y-88514899D01*
X108588499Y-88381745D01*
X108701745Y-88268499D01*
X108834899Y-88179529D01*
X108982858Y-88118242D01*
X109139925Y-88087000D01*
X109300075Y-88087000D01*
X109457142Y-88118242D01*
X109457142Y-88118242D01*
G37*
M02*
