M48
; DRILL file {KiCad (5.1.0)-1} date 10/8/2021 2:53:12 AM
; FORMAT={-:-/ absolute / inch / decimal}
; #@! TF.CreationDate,2021-10-08T02:53:12-05:00
; #@! TF.GenerationSoftware,Kicad,Pcbnew,(5.1.0)-1
; #@! TF.FileFunction,Plated,1,2,PTH
FMAT,2
INCH
T1C0.0300
T2C0.0315
T3C0.0394
T4C0.0629
%
G90
G05
T1
X3.7Y-3.5
X4.1Y-3.5
X4.2Y-3.5
X3.9Y-3.5
X3.21Y-4.67
X3.8Y-3.5
X4.3Y-3.5
T2
X4.41Y-3.8
X3.59Y-3.8
T3
X3.95Y-3.95
X3.95Y-4.05
X3.95Y-4.15
X3.95Y-4.25
X3.95Y-4.35
X3.95Y-4.45
X3.95Y-4.55
X3.95Y-4.65
X4.05Y-3.95
X4.05Y-4.05
X4.05Y-4.15
X4.05Y-4.25
X4.05Y-4.35
X4.05Y-4.45
X4.05Y-4.55
X4.05Y-4.65
T4
X3.2737Y-4.1229
X3.2737Y-4.3
X3.2737Y-4.4771
X3.3426Y-3.9851
X3.3426Y-4.6149
X3.5Y-3.9457
X3.5Y-4.6543
X3.6574Y-3.9851
X3.6574Y-4.6149
X3.7263Y-4.1229
X3.7263Y-4.3
X3.7263Y-4.4771
X4.2737Y-4.1229
X4.2737Y-4.3
X4.2737Y-4.4771
X4.3426Y-3.9851
X4.3426Y-4.6149
X4.5Y-3.9457
X4.5Y-4.6543
X4.6574Y-3.9851
X4.6574Y-4.6149
X4.7263Y-4.1229
X4.7263Y-4.3
X4.7263Y-4.4771
T0
M30
