G04 #@! TF.GenerationSoftware,KiCad,Pcbnew,(5.1.0)-1*
G04 #@! TF.CreationDate,2021-08-08T02:28:51-05:00*
G04 #@! TF.ProjectId,nixie_legacy-digit,6e697869-655f-46c6-9567-6163792d6469,rev?*
G04 #@! TF.SameCoordinates,Original*
G04 #@! TF.FileFunction,Soldermask,Bot*
G04 #@! TF.FilePolarity,Negative*
%FSLAX46Y46*%
G04 Gerber Fmt 4.6, Leading zero omitted, Abs format (unit mm)*
G04 Created by KiCad (PCBNEW (5.1.0)-1) date 2021-08-08 02:28:51*
%MOMM*%
%LPD*%
G04 APERTURE LIST*
%ADD10C,0.100000*%
G04 APERTURE END LIST*
D10*
G36*
X114543839Y-116993356D02*
G01*
X114664577Y-117017372D01*
X114892040Y-117111590D01*
X115096752Y-117248375D01*
X115270845Y-117422468D01*
X115407630Y-117627180D01*
X115501848Y-117854643D01*
X115549880Y-118096118D01*
X115549880Y-118342322D01*
X115501848Y-118583797D01*
X115407630Y-118811260D01*
X115270845Y-119015972D01*
X115096752Y-119190065D01*
X114892040Y-119326850D01*
X114664577Y-119421068D01*
X114543840Y-119445084D01*
X114423104Y-119469100D01*
X114176896Y-119469100D01*
X114056160Y-119445084D01*
X113935423Y-119421068D01*
X113707960Y-119326850D01*
X113503248Y-119190065D01*
X113329155Y-119015972D01*
X113192370Y-118811260D01*
X113098152Y-118583797D01*
X113050120Y-118342322D01*
X113050120Y-118096118D01*
X113098152Y-117854643D01*
X113192370Y-117627180D01*
X113329155Y-117422468D01*
X113503248Y-117248375D01*
X113707960Y-117111590D01*
X113935423Y-117017372D01*
X114056161Y-116993356D01*
X114176896Y-116969340D01*
X114423104Y-116969340D01*
X114543839Y-116993356D01*
X114543839Y-116993356D01*
G37*
G36*
X89143839Y-116993356D02*
G01*
X89264577Y-117017372D01*
X89492040Y-117111590D01*
X89696752Y-117248375D01*
X89870845Y-117422468D01*
X90007630Y-117627180D01*
X90101848Y-117854643D01*
X90149880Y-118096118D01*
X90149880Y-118342322D01*
X90101848Y-118583797D01*
X90007630Y-118811260D01*
X89870845Y-119015972D01*
X89696752Y-119190065D01*
X89492040Y-119326850D01*
X89264577Y-119421068D01*
X89143840Y-119445084D01*
X89023104Y-119469100D01*
X88776896Y-119469100D01*
X88656160Y-119445084D01*
X88535423Y-119421068D01*
X88307960Y-119326850D01*
X88103248Y-119190065D01*
X87929155Y-119015972D01*
X87792370Y-118811260D01*
X87698152Y-118583797D01*
X87650120Y-118342322D01*
X87650120Y-118096118D01*
X87698152Y-117854643D01*
X87792370Y-117627180D01*
X87929155Y-117422468D01*
X88103248Y-117248375D01*
X88307960Y-117111590D01*
X88535423Y-117017372D01*
X88656161Y-116993356D01*
X88776896Y-116969340D01*
X89023104Y-116969340D01*
X89143839Y-116993356D01*
X89143839Y-116993356D01*
G37*
G36*
X81771142Y-117836242D02*
G01*
X81919101Y-117897529D01*
X82052255Y-117986499D01*
X82165501Y-118099745D01*
X82254471Y-118232899D01*
X82315758Y-118380858D01*
X82347000Y-118537925D01*
X82347000Y-118698075D01*
X82315758Y-118855142D01*
X82254471Y-119003101D01*
X82165501Y-119136255D01*
X82052255Y-119249501D01*
X81919101Y-119338471D01*
X81771142Y-119399758D01*
X81614075Y-119431000D01*
X81453925Y-119431000D01*
X81296858Y-119399758D01*
X81148899Y-119338471D01*
X81015745Y-119249501D01*
X80902499Y-119136255D01*
X80813529Y-119003101D01*
X80752242Y-118855142D01*
X80721000Y-118698075D01*
X80721000Y-118537925D01*
X80752242Y-118380858D01*
X80813529Y-118232899D01*
X80902499Y-118099745D01*
X81015745Y-117986499D01*
X81148899Y-117897529D01*
X81296858Y-117836242D01*
X81453925Y-117805000D01*
X81614075Y-117805000D01*
X81771142Y-117836242D01*
X81771142Y-117836242D01*
G37*
G36*
X85145880Y-115992596D02*
G01*
X85266617Y-116016612D01*
X85494080Y-116110830D01*
X85698792Y-116247615D01*
X85872885Y-116421708D01*
X86009670Y-116626420D01*
X86103888Y-116853883D01*
X86151920Y-117095358D01*
X86151920Y-117341562D01*
X86103888Y-117583037D01*
X86009670Y-117810500D01*
X85872885Y-118015212D01*
X85698792Y-118189305D01*
X85494080Y-118326090D01*
X85266617Y-118420308D01*
X85145879Y-118444324D01*
X85025144Y-118468340D01*
X84778936Y-118468340D01*
X84658201Y-118444324D01*
X84537463Y-118420308D01*
X84310000Y-118326090D01*
X84105288Y-118189305D01*
X83931195Y-118015212D01*
X83794410Y-117810500D01*
X83700192Y-117583037D01*
X83652160Y-117341562D01*
X83652160Y-117095358D01*
X83700192Y-116853883D01*
X83794410Y-116626420D01*
X83931195Y-116421708D01*
X84105288Y-116247615D01*
X84310000Y-116110830D01*
X84537463Y-116016612D01*
X84658200Y-115992596D01*
X84778936Y-115968580D01*
X85025144Y-115968580D01*
X85145880Y-115992596D01*
X85145880Y-115992596D01*
G37*
G36*
X93141800Y-115992596D02*
G01*
X93262537Y-116016612D01*
X93490000Y-116110830D01*
X93694712Y-116247615D01*
X93868805Y-116421708D01*
X94005590Y-116626420D01*
X94099808Y-116853883D01*
X94147840Y-117095358D01*
X94147840Y-117341562D01*
X94099808Y-117583037D01*
X94005590Y-117810500D01*
X93868805Y-118015212D01*
X93694712Y-118189305D01*
X93490000Y-118326090D01*
X93262537Y-118420308D01*
X93141799Y-118444324D01*
X93021064Y-118468340D01*
X92774856Y-118468340D01*
X92654121Y-118444324D01*
X92533383Y-118420308D01*
X92305920Y-118326090D01*
X92101208Y-118189305D01*
X91927115Y-118015212D01*
X91790330Y-117810500D01*
X91696112Y-117583037D01*
X91648080Y-117341562D01*
X91648080Y-117095358D01*
X91696112Y-116853883D01*
X91790330Y-116626420D01*
X91927115Y-116421708D01*
X92101208Y-116247615D01*
X92305920Y-116110830D01*
X92533383Y-116016612D01*
X92654120Y-115992596D01*
X92774856Y-115968580D01*
X93021064Y-115968580D01*
X93141800Y-115992596D01*
X93141800Y-115992596D01*
G37*
G36*
X110545880Y-115992596D02*
G01*
X110666617Y-116016612D01*
X110894080Y-116110830D01*
X111098792Y-116247615D01*
X111272885Y-116421708D01*
X111409670Y-116626420D01*
X111503888Y-116853883D01*
X111551920Y-117095358D01*
X111551920Y-117341562D01*
X111503888Y-117583037D01*
X111409670Y-117810500D01*
X111272885Y-118015212D01*
X111098792Y-118189305D01*
X110894080Y-118326090D01*
X110666617Y-118420308D01*
X110545879Y-118444324D01*
X110425144Y-118468340D01*
X110178936Y-118468340D01*
X110058201Y-118444324D01*
X109937463Y-118420308D01*
X109710000Y-118326090D01*
X109505288Y-118189305D01*
X109331195Y-118015212D01*
X109194410Y-117810500D01*
X109100192Y-117583037D01*
X109052160Y-117341562D01*
X109052160Y-117095358D01*
X109100192Y-116853883D01*
X109194410Y-116626420D01*
X109331195Y-116421708D01*
X109505288Y-116247615D01*
X109710000Y-116110830D01*
X109937463Y-116016612D01*
X110058200Y-115992596D01*
X110178936Y-115968580D01*
X110425144Y-115968580D01*
X110545880Y-115992596D01*
X110545880Y-115992596D01*
G37*
G36*
X118541800Y-115992596D02*
G01*
X118662537Y-116016612D01*
X118890000Y-116110830D01*
X119094712Y-116247615D01*
X119268805Y-116421708D01*
X119405590Y-116626420D01*
X119499808Y-116853883D01*
X119547840Y-117095358D01*
X119547840Y-117341562D01*
X119499808Y-117583037D01*
X119405590Y-117810500D01*
X119268805Y-118015212D01*
X119094712Y-118189305D01*
X118890000Y-118326090D01*
X118662537Y-118420308D01*
X118541799Y-118444324D01*
X118421064Y-118468340D01*
X118174856Y-118468340D01*
X118054121Y-118444324D01*
X117933383Y-118420308D01*
X117705920Y-118326090D01*
X117501208Y-118189305D01*
X117327115Y-118015212D01*
X117190330Y-117810500D01*
X117096112Y-117583037D01*
X117048080Y-117341562D01*
X117048080Y-117095358D01*
X117096112Y-116853883D01*
X117190330Y-116626420D01*
X117327115Y-116421708D01*
X117501208Y-116247615D01*
X117705920Y-116110830D01*
X117933383Y-116016612D01*
X118054120Y-115992596D01*
X118174856Y-115968580D01*
X118421064Y-115968580D01*
X118541800Y-115992596D01*
X118541800Y-115992596D01*
G37*
G36*
X120291860Y-112492476D02*
G01*
X120412597Y-112516492D01*
X120640060Y-112610710D01*
X120844772Y-112747495D01*
X121018865Y-112921588D01*
X121155650Y-113126300D01*
X121249868Y-113353763D01*
X121297900Y-113595238D01*
X121297900Y-113841442D01*
X121249868Y-114082917D01*
X121155650Y-114310380D01*
X121018865Y-114515092D01*
X120844772Y-114689185D01*
X120640060Y-114825970D01*
X120412597Y-114920188D01*
X120291859Y-114944204D01*
X120171124Y-114968220D01*
X119924916Y-114968220D01*
X119804181Y-114944204D01*
X119683443Y-114920188D01*
X119455980Y-114825970D01*
X119251268Y-114689185D01*
X119077175Y-114515092D01*
X118940390Y-114310380D01*
X118846172Y-114082917D01*
X118798140Y-113841442D01*
X118798140Y-113595238D01*
X118846172Y-113353763D01*
X118940390Y-113126300D01*
X119077175Y-112921588D01*
X119251268Y-112747495D01*
X119455980Y-112610710D01*
X119683443Y-112516492D01*
X119804180Y-112492476D01*
X119924916Y-112468460D01*
X120171124Y-112468460D01*
X120291860Y-112492476D01*
X120291860Y-112492476D01*
G37*
G36*
X108795820Y-112492476D02*
G01*
X108916557Y-112516492D01*
X109144020Y-112610710D01*
X109348732Y-112747495D01*
X109522825Y-112921588D01*
X109659610Y-113126300D01*
X109753828Y-113353763D01*
X109801860Y-113595238D01*
X109801860Y-113841442D01*
X109753828Y-114082917D01*
X109659610Y-114310380D01*
X109522825Y-114515092D01*
X109348732Y-114689185D01*
X109144020Y-114825970D01*
X108916557Y-114920188D01*
X108795819Y-114944204D01*
X108675084Y-114968220D01*
X108428876Y-114968220D01*
X108308141Y-114944204D01*
X108187403Y-114920188D01*
X107959940Y-114825970D01*
X107755228Y-114689185D01*
X107581135Y-114515092D01*
X107444350Y-114310380D01*
X107350132Y-114082917D01*
X107302100Y-113841442D01*
X107302100Y-113595238D01*
X107350132Y-113353763D01*
X107444350Y-113126300D01*
X107581135Y-112921588D01*
X107755228Y-112747495D01*
X107959940Y-112610710D01*
X108187403Y-112516492D01*
X108308140Y-112492476D01*
X108428876Y-112468460D01*
X108675084Y-112468460D01*
X108795820Y-112492476D01*
X108795820Y-112492476D01*
G37*
G36*
X94891860Y-112492476D02*
G01*
X95012597Y-112516492D01*
X95240060Y-112610710D01*
X95444772Y-112747495D01*
X95618865Y-112921588D01*
X95755650Y-113126300D01*
X95849868Y-113353763D01*
X95897900Y-113595238D01*
X95897900Y-113841442D01*
X95849868Y-114082917D01*
X95755650Y-114310380D01*
X95618865Y-114515092D01*
X95444772Y-114689185D01*
X95240060Y-114825970D01*
X95012597Y-114920188D01*
X94891859Y-114944204D01*
X94771124Y-114968220D01*
X94524916Y-114968220D01*
X94404181Y-114944204D01*
X94283443Y-114920188D01*
X94055980Y-114825970D01*
X93851268Y-114689185D01*
X93677175Y-114515092D01*
X93540390Y-114310380D01*
X93446172Y-114082917D01*
X93398140Y-113841442D01*
X93398140Y-113595238D01*
X93446172Y-113353763D01*
X93540390Y-113126300D01*
X93677175Y-112921588D01*
X93851268Y-112747495D01*
X94055980Y-112610710D01*
X94283443Y-112516492D01*
X94404180Y-112492476D01*
X94524916Y-112468460D01*
X94771124Y-112468460D01*
X94891860Y-112492476D01*
X94891860Y-112492476D01*
G37*
G36*
X83395820Y-112492476D02*
G01*
X83516557Y-112516492D01*
X83744020Y-112610710D01*
X83948732Y-112747495D01*
X84122825Y-112921588D01*
X84259610Y-113126300D01*
X84353828Y-113353763D01*
X84401860Y-113595238D01*
X84401860Y-113841442D01*
X84353828Y-114082917D01*
X84259610Y-114310380D01*
X84122825Y-114515092D01*
X83948732Y-114689185D01*
X83744020Y-114825970D01*
X83516557Y-114920188D01*
X83395819Y-114944204D01*
X83275084Y-114968220D01*
X83028876Y-114968220D01*
X82908141Y-114944204D01*
X82787403Y-114920188D01*
X82559940Y-114825970D01*
X82355228Y-114689185D01*
X82181135Y-114515092D01*
X82044350Y-114310380D01*
X81950132Y-114082917D01*
X81902100Y-113841442D01*
X81902100Y-113595238D01*
X81950132Y-113353763D01*
X82044350Y-113126300D01*
X82181135Y-112921588D01*
X82355228Y-112747495D01*
X82559940Y-112610710D01*
X82787403Y-112516492D01*
X82908140Y-112492476D01*
X83028876Y-112468460D01*
X83275084Y-112468460D01*
X83395820Y-112492476D01*
X83395820Y-112492476D01*
G37*
G36*
X89643911Y-106767648D02*
G01*
X89643914Y-106767649D01*
X89643913Y-106767649D01*
X90108048Y-106959900D01*
X90525760Y-107239006D01*
X90880994Y-107594240D01*
X91160100Y-108011952D01*
X91160100Y-108011953D01*
X91352352Y-108476089D01*
X91450360Y-108968810D01*
X91450360Y-109471190D01*
X91352352Y-109963911D01*
X91352351Y-109963913D01*
X91160100Y-110428048D01*
X90880994Y-110845760D01*
X90525760Y-111200994D01*
X90108048Y-111480100D01*
X89779853Y-111616043D01*
X89643911Y-111672352D01*
X89151190Y-111770360D01*
X88648810Y-111770360D01*
X88156089Y-111672352D01*
X88020147Y-111616043D01*
X87691952Y-111480100D01*
X87274240Y-111200994D01*
X86919006Y-110845760D01*
X86639900Y-110428048D01*
X86447649Y-109963913D01*
X86447648Y-109963911D01*
X86349640Y-109471190D01*
X86349640Y-108968810D01*
X86447648Y-108476089D01*
X86639900Y-108011953D01*
X86639900Y-108011952D01*
X86919006Y-107594240D01*
X87274240Y-107239006D01*
X87691952Y-106959900D01*
X88156087Y-106767649D01*
X88156086Y-106767649D01*
X88156089Y-106767648D01*
X88648810Y-106669640D01*
X89151190Y-106669640D01*
X89643911Y-106767648D01*
X89643911Y-106767648D01*
G37*
G36*
X115043911Y-106767648D02*
G01*
X115043914Y-106767649D01*
X115043913Y-106767649D01*
X115508048Y-106959900D01*
X115925760Y-107239006D01*
X116280994Y-107594240D01*
X116560100Y-108011952D01*
X116560100Y-108011953D01*
X116752352Y-108476089D01*
X116850360Y-108968810D01*
X116850360Y-109471190D01*
X116752352Y-109963911D01*
X116752351Y-109963913D01*
X116560100Y-110428048D01*
X116280994Y-110845760D01*
X115925760Y-111200994D01*
X115508048Y-111480100D01*
X115179853Y-111616043D01*
X115043911Y-111672352D01*
X114551190Y-111770360D01*
X114048810Y-111770360D01*
X113556089Y-111672352D01*
X113420147Y-111616043D01*
X113091952Y-111480100D01*
X112674240Y-111200994D01*
X112319006Y-110845760D01*
X112039900Y-110428048D01*
X111847649Y-109963913D01*
X111847648Y-109963911D01*
X111749640Y-109471190D01*
X111749640Y-108968810D01*
X111847648Y-108476089D01*
X112039900Y-108011953D01*
X112039900Y-108011952D01*
X112319006Y-107594240D01*
X112674240Y-107239006D01*
X113091952Y-106959900D01*
X113556087Y-106767649D01*
X113556086Y-106767649D01*
X113556089Y-106767648D01*
X114048810Y-106669640D01*
X114551190Y-106669640D01*
X115043911Y-106767648D01*
X115043911Y-106767648D01*
G37*
G36*
X83395819Y-107994136D02*
G01*
X83516557Y-108018152D01*
X83744020Y-108112370D01*
X83948732Y-108249155D01*
X84122825Y-108423248D01*
X84259610Y-108627960D01*
X84353828Y-108855423D01*
X84401860Y-109096898D01*
X84401860Y-109343102D01*
X84353828Y-109584577D01*
X84259610Y-109812040D01*
X84122825Y-110016752D01*
X83948732Y-110190845D01*
X83744020Y-110327630D01*
X83516557Y-110421848D01*
X83395820Y-110445864D01*
X83275084Y-110469880D01*
X83028876Y-110469880D01*
X82908140Y-110445864D01*
X82787403Y-110421848D01*
X82559940Y-110327630D01*
X82355228Y-110190845D01*
X82181135Y-110016752D01*
X82044350Y-109812040D01*
X81950132Y-109584577D01*
X81902100Y-109343102D01*
X81902100Y-109096898D01*
X81950132Y-108855423D01*
X82044350Y-108627960D01*
X82181135Y-108423248D01*
X82355228Y-108249155D01*
X82559940Y-108112370D01*
X82787403Y-108018152D01*
X82908141Y-107994136D01*
X83028876Y-107970120D01*
X83275084Y-107970120D01*
X83395819Y-107994136D01*
X83395819Y-107994136D01*
G37*
G36*
X108795819Y-107994136D02*
G01*
X108916557Y-108018152D01*
X109144020Y-108112370D01*
X109348732Y-108249155D01*
X109522825Y-108423248D01*
X109659610Y-108627960D01*
X109753828Y-108855423D01*
X109801860Y-109096898D01*
X109801860Y-109343102D01*
X109753828Y-109584577D01*
X109659610Y-109812040D01*
X109522825Y-110016752D01*
X109348732Y-110190845D01*
X109144020Y-110327630D01*
X108916557Y-110421848D01*
X108795820Y-110445864D01*
X108675084Y-110469880D01*
X108428876Y-110469880D01*
X108308140Y-110445864D01*
X108187403Y-110421848D01*
X107959940Y-110327630D01*
X107755228Y-110190845D01*
X107581135Y-110016752D01*
X107444350Y-109812040D01*
X107350132Y-109584577D01*
X107302100Y-109343102D01*
X107302100Y-109096898D01*
X107350132Y-108855423D01*
X107444350Y-108627960D01*
X107581135Y-108423248D01*
X107755228Y-108249155D01*
X107959940Y-108112370D01*
X108187403Y-108018152D01*
X108308141Y-107994136D01*
X108428876Y-107970120D01*
X108675084Y-107970120D01*
X108795819Y-107994136D01*
X108795819Y-107994136D01*
G37*
G36*
X94891859Y-107994136D02*
G01*
X95012597Y-108018152D01*
X95240060Y-108112370D01*
X95444772Y-108249155D01*
X95618865Y-108423248D01*
X95755650Y-108627960D01*
X95849868Y-108855423D01*
X95897900Y-109096898D01*
X95897900Y-109343102D01*
X95849868Y-109584577D01*
X95755650Y-109812040D01*
X95618865Y-110016752D01*
X95444772Y-110190845D01*
X95240060Y-110327630D01*
X95012597Y-110421848D01*
X94891860Y-110445864D01*
X94771124Y-110469880D01*
X94524916Y-110469880D01*
X94404180Y-110445864D01*
X94283443Y-110421848D01*
X94055980Y-110327630D01*
X93851268Y-110190845D01*
X93677175Y-110016752D01*
X93540390Y-109812040D01*
X93446172Y-109584577D01*
X93398140Y-109343102D01*
X93398140Y-109096898D01*
X93446172Y-108855423D01*
X93540390Y-108627960D01*
X93677175Y-108423248D01*
X93851268Y-108249155D01*
X94055980Y-108112370D01*
X94283443Y-108018152D01*
X94404181Y-107994136D01*
X94524916Y-107970120D01*
X94771124Y-107970120D01*
X94891859Y-107994136D01*
X94891859Y-107994136D01*
G37*
G36*
X120291859Y-107994136D02*
G01*
X120412597Y-108018152D01*
X120640060Y-108112370D01*
X120844772Y-108249155D01*
X121018865Y-108423248D01*
X121155650Y-108627960D01*
X121249868Y-108855423D01*
X121297900Y-109096898D01*
X121297900Y-109343102D01*
X121249868Y-109584577D01*
X121155650Y-109812040D01*
X121018865Y-110016752D01*
X120844772Y-110190845D01*
X120640060Y-110327630D01*
X120412597Y-110421848D01*
X120291860Y-110445864D01*
X120171124Y-110469880D01*
X119924916Y-110469880D01*
X119804180Y-110445864D01*
X119683443Y-110421848D01*
X119455980Y-110327630D01*
X119251268Y-110190845D01*
X119077175Y-110016752D01*
X118940390Y-109812040D01*
X118846172Y-109584577D01*
X118798140Y-109343102D01*
X118798140Y-109096898D01*
X118846172Y-108855423D01*
X118940390Y-108627960D01*
X119077175Y-108423248D01*
X119251268Y-108249155D01*
X119455980Y-108112370D01*
X119683443Y-108018152D01*
X119804181Y-107994136D01*
X119924916Y-107970120D01*
X120171124Y-107970120D01*
X120291859Y-107994136D01*
X120291859Y-107994136D01*
G37*
G36*
X94891859Y-103495796D02*
G01*
X95012597Y-103519812D01*
X95240060Y-103614030D01*
X95444772Y-103750815D01*
X95618865Y-103924908D01*
X95755650Y-104129620D01*
X95849868Y-104357083D01*
X95897900Y-104598558D01*
X95897900Y-104844762D01*
X95849868Y-105086237D01*
X95755650Y-105313700D01*
X95618865Y-105518412D01*
X95444772Y-105692505D01*
X95240060Y-105829290D01*
X95012597Y-105923508D01*
X94891859Y-105947524D01*
X94771124Y-105971540D01*
X94524916Y-105971540D01*
X94404180Y-105947524D01*
X94283443Y-105923508D01*
X94055980Y-105829290D01*
X93851268Y-105692505D01*
X93677175Y-105518412D01*
X93540390Y-105313700D01*
X93446172Y-105086237D01*
X93398140Y-104844762D01*
X93398140Y-104598558D01*
X93446172Y-104357083D01*
X93540390Y-104129620D01*
X93677175Y-103924908D01*
X93851268Y-103750815D01*
X94055980Y-103614030D01*
X94283443Y-103519812D01*
X94404181Y-103495796D01*
X94524916Y-103471780D01*
X94771124Y-103471780D01*
X94891859Y-103495796D01*
X94891859Y-103495796D01*
G37*
G36*
X120291859Y-103495796D02*
G01*
X120412597Y-103519812D01*
X120640060Y-103614030D01*
X120844772Y-103750815D01*
X121018865Y-103924908D01*
X121155650Y-104129620D01*
X121249868Y-104357083D01*
X121297900Y-104598558D01*
X121297900Y-104844762D01*
X121249868Y-105086237D01*
X121155650Y-105313700D01*
X121018865Y-105518412D01*
X120844772Y-105692505D01*
X120640060Y-105829290D01*
X120412597Y-105923508D01*
X120291859Y-105947524D01*
X120171124Y-105971540D01*
X119924916Y-105971540D01*
X119804180Y-105947524D01*
X119683443Y-105923508D01*
X119455980Y-105829290D01*
X119251268Y-105692505D01*
X119077175Y-105518412D01*
X118940390Y-105313700D01*
X118846172Y-105086237D01*
X118798140Y-104844762D01*
X118798140Y-104598558D01*
X118846172Y-104357083D01*
X118940390Y-104129620D01*
X119077175Y-103924908D01*
X119251268Y-103750815D01*
X119455980Y-103614030D01*
X119683443Y-103519812D01*
X119804181Y-103495796D01*
X119924916Y-103471780D01*
X120171124Y-103471780D01*
X120291859Y-103495796D01*
X120291859Y-103495796D01*
G37*
G36*
X108795819Y-103495796D02*
G01*
X108916557Y-103519812D01*
X109144020Y-103614030D01*
X109348732Y-103750815D01*
X109522825Y-103924908D01*
X109659610Y-104129620D01*
X109753828Y-104357083D01*
X109801860Y-104598558D01*
X109801860Y-104844762D01*
X109753828Y-105086237D01*
X109659610Y-105313700D01*
X109522825Y-105518412D01*
X109348732Y-105692505D01*
X109144020Y-105829290D01*
X108916557Y-105923508D01*
X108795819Y-105947524D01*
X108675084Y-105971540D01*
X108428876Y-105971540D01*
X108308140Y-105947524D01*
X108187403Y-105923508D01*
X107959940Y-105829290D01*
X107755228Y-105692505D01*
X107581135Y-105518412D01*
X107444350Y-105313700D01*
X107350132Y-105086237D01*
X107302100Y-104844762D01*
X107302100Y-104598558D01*
X107350132Y-104357083D01*
X107444350Y-104129620D01*
X107581135Y-103924908D01*
X107755228Y-103750815D01*
X107959940Y-103614030D01*
X108187403Y-103519812D01*
X108308141Y-103495796D01*
X108428876Y-103471780D01*
X108675084Y-103471780D01*
X108795819Y-103495796D01*
X108795819Y-103495796D01*
G37*
G36*
X83395819Y-103495796D02*
G01*
X83516557Y-103519812D01*
X83744020Y-103614030D01*
X83948732Y-103750815D01*
X84122825Y-103924908D01*
X84259610Y-104129620D01*
X84353828Y-104357083D01*
X84401860Y-104598558D01*
X84401860Y-104844762D01*
X84353828Y-105086237D01*
X84259610Y-105313700D01*
X84122825Y-105518412D01*
X83948732Y-105692505D01*
X83744020Y-105829290D01*
X83516557Y-105923508D01*
X83395819Y-105947524D01*
X83275084Y-105971540D01*
X83028876Y-105971540D01*
X82908140Y-105947524D01*
X82787403Y-105923508D01*
X82559940Y-105829290D01*
X82355228Y-105692505D01*
X82181135Y-105518412D01*
X82044350Y-105313700D01*
X81950132Y-105086237D01*
X81902100Y-104844762D01*
X81902100Y-104598558D01*
X81950132Y-104357083D01*
X82044350Y-104129620D01*
X82181135Y-103924908D01*
X82355228Y-103750815D01*
X82559940Y-103614030D01*
X82787403Y-103519812D01*
X82908141Y-103495796D01*
X83028876Y-103471780D01*
X83275084Y-103471780D01*
X83395819Y-103495796D01*
X83395819Y-103495796D01*
G37*
G36*
X85145879Y-99995676D02*
G01*
X85266617Y-100019692D01*
X85494080Y-100113910D01*
X85698792Y-100250695D01*
X85872885Y-100424788D01*
X86009670Y-100629500D01*
X86103888Y-100856963D01*
X86151920Y-101098438D01*
X86151920Y-101344642D01*
X86103888Y-101586117D01*
X86009670Y-101813580D01*
X85872885Y-102018292D01*
X85698792Y-102192385D01*
X85494080Y-102329170D01*
X85266617Y-102423388D01*
X85145879Y-102447404D01*
X85025144Y-102471420D01*
X84778936Y-102471420D01*
X84658200Y-102447404D01*
X84537463Y-102423388D01*
X84310000Y-102329170D01*
X84105288Y-102192385D01*
X83931195Y-102018292D01*
X83794410Y-101813580D01*
X83700192Y-101586117D01*
X83652160Y-101344642D01*
X83652160Y-101098438D01*
X83700192Y-100856963D01*
X83794410Y-100629500D01*
X83931195Y-100424788D01*
X84105288Y-100250695D01*
X84310000Y-100113910D01*
X84537463Y-100019692D01*
X84658201Y-99995676D01*
X84778936Y-99971660D01*
X85025144Y-99971660D01*
X85145879Y-99995676D01*
X85145879Y-99995676D01*
G37*
G36*
X93141799Y-99995676D02*
G01*
X93262537Y-100019692D01*
X93490000Y-100113910D01*
X93694712Y-100250695D01*
X93868805Y-100424788D01*
X94005590Y-100629500D01*
X94099808Y-100856963D01*
X94147840Y-101098438D01*
X94147840Y-101344642D01*
X94099808Y-101586117D01*
X94005590Y-101813580D01*
X93868805Y-102018292D01*
X93694712Y-102192385D01*
X93490000Y-102329170D01*
X93262537Y-102423388D01*
X93141799Y-102447404D01*
X93021064Y-102471420D01*
X92774856Y-102471420D01*
X92654120Y-102447404D01*
X92533383Y-102423388D01*
X92305920Y-102329170D01*
X92101208Y-102192385D01*
X91927115Y-102018292D01*
X91790330Y-101813580D01*
X91696112Y-101586117D01*
X91648080Y-101344642D01*
X91648080Y-101098438D01*
X91696112Y-100856963D01*
X91790330Y-100629500D01*
X91927115Y-100424788D01*
X92101208Y-100250695D01*
X92305920Y-100113910D01*
X92533383Y-100019692D01*
X92654121Y-99995676D01*
X92774856Y-99971660D01*
X93021064Y-99971660D01*
X93141799Y-99995676D01*
X93141799Y-99995676D01*
G37*
G36*
X118541799Y-99995676D02*
G01*
X118662537Y-100019692D01*
X118890000Y-100113910D01*
X119094712Y-100250695D01*
X119268805Y-100424788D01*
X119405590Y-100629500D01*
X119499808Y-100856963D01*
X119547840Y-101098438D01*
X119547840Y-101344642D01*
X119499808Y-101586117D01*
X119405590Y-101813580D01*
X119268805Y-102018292D01*
X119094712Y-102192385D01*
X118890000Y-102329170D01*
X118662537Y-102423388D01*
X118541799Y-102447404D01*
X118421064Y-102471420D01*
X118174856Y-102471420D01*
X118054120Y-102447404D01*
X117933383Y-102423388D01*
X117705920Y-102329170D01*
X117501208Y-102192385D01*
X117327115Y-102018292D01*
X117190330Y-101813580D01*
X117096112Y-101586117D01*
X117048080Y-101344642D01*
X117048080Y-101098438D01*
X117096112Y-100856963D01*
X117190330Y-100629500D01*
X117327115Y-100424788D01*
X117501208Y-100250695D01*
X117705920Y-100113910D01*
X117933383Y-100019692D01*
X118054121Y-99995676D01*
X118174856Y-99971660D01*
X118421064Y-99971660D01*
X118541799Y-99995676D01*
X118541799Y-99995676D01*
G37*
G36*
X110545879Y-99995676D02*
G01*
X110666617Y-100019692D01*
X110894080Y-100113910D01*
X111098792Y-100250695D01*
X111272885Y-100424788D01*
X111409670Y-100629500D01*
X111503888Y-100856963D01*
X111551920Y-101098438D01*
X111551920Y-101344642D01*
X111503888Y-101586117D01*
X111409670Y-101813580D01*
X111272885Y-102018292D01*
X111098792Y-102192385D01*
X110894080Y-102329170D01*
X110666617Y-102423388D01*
X110545879Y-102447404D01*
X110425144Y-102471420D01*
X110178936Y-102471420D01*
X110058200Y-102447404D01*
X109937463Y-102423388D01*
X109710000Y-102329170D01*
X109505288Y-102192385D01*
X109331195Y-102018292D01*
X109194410Y-101813580D01*
X109100192Y-101586117D01*
X109052160Y-101344642D01*
X109052160Y-101098438D01*
X109100192Y-100856963D01*
X109194410Y-100629500D01*
X109331195Y-100424788D01*
X109505288Y-100250695D01*
X109710000Y-100113910D01*
X109937463Y-100019692D01*
X110058201Y-99995676D01*
X110178936Y-99971660D01*
X110425144Y-99971660D01*
X110545879Y-99995676D01*
X110545879Y-99995676D01*
G37*
G36*
X114543839Y-98994916D02*
G01*
X114664577Y-99018932D01*
X114892040Y-99113150D01*
X115096752Y-99249935D01*
X115270845Y-99424028D01*
X115407630Y-99628740D01*
X115501848Y-99856203D01*
X115549880Y-100097678D01*
X115549880Y-100343882D01*
X115501848Y-100585357D01*
X115407630Y-100812820D01*
X115270845Y-101017532D01*
X115096752Y-101191625D01*
X114892040Y-101328410D01*
X114664577Y-101422628D01*
X114543839Y-101446644D01*
X114423104Y-101470660D01*
X114176896Y-101470660D01*
X114056161Y-101446644D01*
X113935423Y-101422628D01*
X113707960Y-101328410D01*
X113503248Y-101191625D01*
X113329155Y-101017532D01*
X113192370Y-100812820D01*
X113098152Y-100585357D01*
X113050120Y-100343882D01*
X113050120Y-100097678D01*
X113098152Y-99856203D01*
X113192370Y-99628740D01*
X113329155Y-99424028D01*
X113503248Y-99249935D01*
X113707960Y-99113150D01*
X113935423Y-99018932D01*
X114056161Y-98994916D01*
X114176896Y-98970900D01*
X114423104Y-98970900D01*
X114543839Y-98994916D01*
X114543839Y-98994916D01*
G37*
G36*
X89143839Y-98994916D02*
G01*
X89264577Y-99018932D01*
X89492040Y-99113150D01*
X89696752Y-99249935D01*
X89870845Y-99424028D01*
X90007630Y-99628740D01*
X90101848Y-99856203D01*
X90149880Y-100097678D01*
X90149880Y-100343882D01*
X90101848Y-100585357D01*
X90007630Y-100812820D01*
X89870845Y-101017532D01*
X89696752Y-101191625D01*
X89492040Y-101328410D01*
X89264577Y-101422628D01*
X89143839Y-101446644D01*
X89023104Y-101470660D01*
X88776896Y-101470660D01*
X88656161Y-101446644D01*
X88535423Y-101422628D01*
X88307960Y-101328410D01*
X88103248Y-101191625D01*
X87929155Y-101017532D01*
X87792370Y-100812820D01*
X87698152Y-100585357D01*
X87650120Y-100343882D01*
X87650120Y-100097678D01*
X87698152Y-99856203D01*
X87792370Y-99628740D01*
X87929155Y-99424028D01*
X88103248Y-99249935D01*
X88307960Y-99113150D01*
X88535423Y-99018932D01*
X88656161Y-98994916D01*
X88776896Y-98970900D01*
X89023104Y-98970900D01*
X89143839Y-98994916D01*
X89143839Y-98994916D01*
G37*
G36*
X104052823Y-95681313D02*
G01*
X104213242Y-95729976D01*
X104345906Y-95800886D01*
X104361078Y-95808996D01*
X104490659Y-95915341D01*
X104597004Y-96044922D01*
X104597005Y-96044924D01*
X104676024Y-96192758D01*
X104724687Y-96353177D01*
X104741117Y-96520000D01*
X104724687Y-96686823D01*
X104676024Y-96847242D01*
X104605114Y-96979906D01*
X104597004Y-96995078D01*
X104490659Y-97124659D01*
X104361078Y-97231004D01*
X104361076Y-97231005D01*
X104213242Y-97310024D01*
X104052823Y-97358687D01*
X103927804Y-97371000D01*
X103844196Y-97371000D01*
X103719177Y-97358687D01*
X103558758Y-97310024D01*
X103410924Y-97231005D01*
X103410922Y-97231004D01*
X103281341Y-97124659D01*
X103174996Y-96995078D01*
X103166886Y-96979906D01*
X103095976Y-96847242D01*
X103047313Y-96686823D01*
X103030883Y-96520000D01*
X103047313Y-96353177D01*
X103095976Y-96192758D01*
X103174995Y-96044924D01*
X103174996Y-96044922D01*
X103281341Y-95915341D01*
X103410922Y-95808996D01*
X103426094Y-95800886D01*
X103558758Y-95729976D01*
X103719177Y-95681313D01*
X103844196Y-95669000D01*
X103927804Y-95669000D01*
X104052823Y-95681313D01*
X104052823Y-95681313D01*
G37*
G36*
X124880823Y-95681313D02*
G01*
X125041242Y-95729976D01*
X125173906Y-95800886D01*
X125189078Y-95808996D01*
X125318659Y-95915341D01*
X125425004Y-96044922D01*
X125425005Y-96044924D01*
X125504024Y-96192758D01*
X125552687Y-96353177D01*
X125569117Y-96520000D01*
X125552687Y-96686823D01*
X125504024Y-96847242D01*
X125433114Y-96979906D01*
X125425004Y-96995078D01*
X125318659Y-97124659D01*
X125189078Y-97231004D01*
X125189076Y-97231005D01*
X125041242Y-97310024D01*
X124880823Y-97358687D01*
X124755804Y-97371000D01*
X124672196Y-97371000D01*
X124547177Y-97358687D01*
X124386758Y-97310024D01*
X124238924Y-97231005D01*
X124238922Y-97231004D01*
X124109341Y-97124659D01*
X124002996Y-96995078D01*
X123994886Y-96979906D01*
X123923976Y-96847242D01*
X123875313Y-96686823D01*
X123858883Y-96520000D01*
X123875313Y-96353177D01*
X123923976Y-96192758D01*
X124002995Y-96044924D01*
X124002996Y-96044922D01*
X124109341Y-95915341D01*
X124238922Y-95808996D01*
X124254094Y-95800886D01*
X124386758Y-95729976D01*
X124547177Y-95681313D01*
X124672196Y-95669000D01*
X124755804Y-95669000D01*
X124880823Y-95681313D01*
X124880823Y-95681313D01*
G37*
G36*
X87994443Y-90545519D02*
G01*
X88060627Y-90552037D01*
X88230466Y-90603557D01*
X88386991Y-90687222D01*
X88422729Y-90716552D01*
X88524186Y-90799814D01*
X88607448Y-90901271D01*
X88636778Y-90937009D01*
X88720443Y-91093534D01*
X88771963Y-91263373D01*
X88789359Y-91440000D01*
X88771963Y-91616627D01*
X88720443Y-91786466D01*
X88636778Y-91942991D01*
X88607448Y-91978729D01*
X88524186Y-92080186D01*
X88422729Y-92163448D01*
X88386991Y-92192778D01*
X88230466Y-92276443D01*
X88060627Y-92327963D01*
X87994443Y-92334481D01*
X87928260Y-92341000D01*
X87839740Y-92341000D01*
X87773557Y-92334481D01*
X87707373Y-92327963D01*
X87537534Y-92276443D01*
X87381009Y-92192778D01*
X87345271Y-92163448D01*
X87243814Y-92080186D01*
X87160552Y-91978729D01*
X87131222Y-91942991D01*
X87047557Y-91786466D01*
X86996037Y-91616627D01*
X86978641Y-91440000D01*
X86996037Y-91263373D01*
X87047557Y-91093534D01*
X87131222Y-90937009D01*
X87160552Y-90901271D01*
X87243814Y-90799814D01*
X87345271Y-90716552D01*
X87381009Y-90687222D01*
X87537534Y-90603557D01*
X87707373Y-90552037D01*
X87773557Y-90545519D01*
X87839740Y-90539000D01*
X87928260Y-90539000D01*
X87994443Y-90545519D01*
X87994443Y-90545519D01*
G37*
G36*
X100694443Y-90545519D02*
G01*
X100760627Y-90552037D01*
X100930466Y-90603557D01*
X101086991Y-90687222D01*
X101122729Y-90716552D01*
X101224186Y-90799814D01*
X101307448Y-90901271D01*
X101336778Y-90937009D01*
X101420443Y-91093534D01*
X101471963Y-91263373D01*
X101489359Y-91440000D01*
X101471963Y-91616627D01*
X101420443Y-91786466D01*
X101336778Y-91942991D01*
X101307448Y-91978729D01*
X101224186Y-92080186D01*
X101122729Y-92163448D01*
X101086991Y-92192778D01*
X100930466Y-92276443D01*
X100760627Y-92327963D01*
X100694443Y-92334481D01*
X100628260Y-92341000D01*
X100539740Y-92341000D01*
X100473557Y-92334481D01*
X100407373Y-92327963D01*
X100237534Y-92276443D01*
X100081009Y-92192778D01*
X100045271Y-92163448D01*
X99943814Y-92080186D01*
X99860552Y-91978729D01*
X99831222Y-91942991D01*
X99747557Y-91786466D01*
X99696037Y-91616627D01*
X99678641Y-91440000D01*
X99696037Y-91263373D01*
X99747557Y-91093534D01*
X99831222Y-90937009D01*
X99860552Y-90901271D01*
X99943814Y-90799814D01*
X100045271Y-90716552D01*
X100081009Y-90687222D01*
X100237534Y-90603557D01*
X100407373Y-90552037D01*
X100473557Y-90545519D01*
X100539740Y-90539000D01*
X100628260Y-90539000D01*
X100694443Y-90545519D01*
X100694443Y-90545519D01*
G37*
G36*
X90534443Y-90545519D02*
G01*
X90600627Y-90552037D01*
X90770466Y-90603557D01*
X90926991Y-90687222D01*
X90962729Y-90716552D01*
X91064186Y-90799814D01*
X91147448Y-90901271D01*
X91176778Y-90937009D01*
X91260443Y-91093534D01*
X91311963Y-91263373D01*
X91329359Y-91440000D01*
X91311963Y-91616627D01*
X91260443Y-91786466D01*
X91176778Y-91942991D01*
X91147448Y-91978729D01*
X91064186Y-92080186D01*
X90962729Y-92163448D01*
X90926991Y-92192778D01*
X90770466Y-92276443D01*
X90600627Y-92327963D01*
X90534443Y-92334481D01*
X90468260Y-92341000D01*
X90379740Y-92341000D01*
X90313557Y-92334481D01*
X90247373Y-92327963D01*
X90077534Y-92276443D01*
X89921009Y-92192778D01*
X89885271Y-92163448D01*
X89783814Y-92080186D01*
X89700552Y-91978729D01*
X89671222Y-91942991D01*
X89587557Y-91786466D01*
X89536037Y-91616627D01*
X89518641Y-91440000D01*
X89536037Y-91263373D01*
X89587557Y-91093534D01*
X89671222Y-90937009D01*
X89700552Y-90901271D01*
X89783814Y-90799814D01*
X89885271Y-90716552D01*
X89921009Y-90687222D01*
X90077534Y-90603557D01*
X90247373Y-90552037D01*
X90313557Y-90545519D01*
X90379740Y-90539000D01*
X90468260Y-90539000D01*
X90534443Y-90545519D01*
X90534443Y-90545519D01*
G37*
G36*
X93074443Y-90545519D02*
G01*
X93140627Y-90552037D01*
X93310466Y-90603557D01*
X93466991Y-90687222D01*
X93502729Y-90716552D01*
X93604186Y-90799814D01*
X93687448Y-90901271D01*
X93716778Y-90937009D01*
X93800443Y-91093534D01*
X93851963Y-91263373D01*
X93869359Y-91440000D01*
X93851963Y-91616627D01*
X93800443Y-91786466D01*
X93716778Y-91942991D01*
X93687448Y-91978729D01*
X93604186Y-92080186D01*
X93502729Y-92163448D01*
X93466991Y-92192778D01*
X93310466Y-92276443D01*
X93140627Y-92327963D01*
X93074443Y-92334481D01*
X93008260Y-92341000D01*
X92919740Y-92341000D01*
X92853557Y-92334481D01*
X92787373Y-92327963D01*
X92617534Y-92276443D01*
X92461009Y-92192778D01*
X92425271Y-92163448D01*
X92323814Y-92080186D01*
X92240552Y-91978729D01*
X92211222Y-91942991D01*
X92127557Y-91786466D01*
X92076037Y-91616627D01*
X92058641Y-91440000D01*
X92076037Y-91263373D01*
X92127557Y-91093534D01*
X92211222Y-90937009D01*
X92240552Y-90901271D01*
X92323814Y-90799814D01*
X92425271Y-90716552D01*
X92461009Y-90687222D01*
X92617534Y-90603557D01*
X92787373Y-90552037D01*
X92853557Y-90545519D01*
X92919740Y-90539000D01*
X93008260Y-90539000D01*
X93074443Y-90545519D01*
X93074443Y-90545519D01*
G37*
G36*
X95614443Y-90545519D02*
G01*
X95680627Y-90552037D01*
X95850466Y-90603557D01*
X96006991Y-90687222D01*
X96042729Y-90716552D01*
X96144186Y-90799814D01*
X96227448Y-90901271D01*
X96256778Y-90937009D01*
X96340443Y-91093534D01*
X96391963Y-91263373D01*
X96409359Y-91440000D01*
X96391963Y-91616627D01*
X96340443Y-91786466D01*
X96256778Y-91942991D01*
X96227448Y-91978729D01*
X96144186Y-92080186D01*
X96042729Y-92163448D01*
X96006991Y-92192778D01*
X95850466Y-92276443D01*
X95680627Y-92327963D01*
X95614443Y-92334481D01*
X95548260Y-92341000D01*
X95459740Y-92341000D01*
X95393557Y-92334481D01*
X95327373Y-92327963D01*
X95157534Y-92276443D01*
X95001009Y-92192778D01*
X94965271Y-92163448D01*
X94863814Y-92080186D01*
X94780552Y-91978729D01*
X94751222Y-91942991D01*
X94667557Y-91786466D01*
X94616037Y-91616627D01*
X94598641Y-91440000D01*
X94616037Y-91263373D01*
X94667557Y-91093534D01*
X94751222Y-90937009D01*
X94780552Y-90901271D01*
X94863814Y-90799814D01*
X94965271Y-90716552D01*
X95001009Y-90687222D01*
X95157534Y-90603557D01*
X95327373Y-90552037D01*
X95393557Y-90545519D01*
X95459740Y-90539000D01*
X95548260Y-90539000D01*
X95614443Y-90545519D01*
X95614443Y-90545519D01*
G37*
G36*
X98154443Y-90545519D02*
G01*
X98220627Y-90552037D01*
X98390466Y-90603557D01*
X98546991Y-90687222D01*
X98582729Y-90716552D01*
X98684186Y-90799814D01*
X98767448Y-90901271D01*
X98796778Y-90937009D01*
X98880443Y-91093534D01*
X98931963Y-91263373D01*
X98949359Y-91440000D01*
X98931963Y-91616627D01*
X98880443Y-91786466D01*
X98796778Y-91942991D01*
X98767448Y-91978729D01*
X98684186Y-92080186D01*
X98582729Y-92163448D01*
X98546991Y-92192778D01*
X98390466Y-92276443D01*
X98220627Y-92327963D01*
X98154443Y-92334481D01*
X98088260Y-92341000D01*
X97999740Y-92341000D01*
X97933557Y-92334481D01*
X97867373Y-92327963D01*
X97697534Y-92276443D01*
X97541009Y-92192778D01*
X97505271Y-92163448D01*
X97403814Y-92080186D01*
X97320552Y-91978729D01*
X97291222Y-91942991D01*
X97207557Y-91786466D01*
X97156037Y-91616627D01*
X97138641Y-91440000D01*
X97156037Y-91263373D01*
X97207557Y-91093534D01*
X97291222Y-90937009D01*
X97320552Y-90901271D01*
X97403814Y-90799814D01*
X97505271Y-90716552D01*
X97541009Y-90687222D01*
X97697534Y-90603557D01*
X97867373Y-90552037D01*
X97933557Y-90545519D01*
X97999740Y-90539000D01*
X98088260Y-90539000D01*
X98154443Y-90545519D01*
X98154443Y-90545519D01*
G37*
G36*
X82914443Y-90545519D02*
G01*
X82980627Y-90552037D01*
X83150466Y-90603557D01*
X83306991Y-90687222D01*
X83342729Y-90716552D01*
X83444186Y-90799814D01*
X83527448Y-90901271D01*
X83556778Y-90937009D01*
X83640443Y-91093534D01*
X83691963Y-91263373D01*
X83709359Y-91440000D01*
X83691963Y-91616627D01*
X83640443Y-91786466D01*
X83556778Y-91942991D01*
X83527448Y-91978729D01*
X83444186Y-92080186D01*
X83342729Y-92163448D01*
X83306991Y-92192778D01*
X83150466Y-92276443D01*
X82980627Y-92327963D01*
X82914443Y-92334481D01*
X82848260Y-92341000D01*
X82759740Y-92341000D01*
X82693557Y-92334481D01*
X82627373Y-92327963D01*
X82457534Y-92276443D01*
X82301009Y-92192778D01*
X82265271Y-92163448D01*
X82163814Y-92080186D01*
X82080552Y-91978729D01*
X82051222Y-91942991D01*
X81967557Y-91786466D01*
X81916037Y-91616627D01*
X81898641Y-91440000D01*
X81916037Y-91263373D01*
X81967557Y-91093534D01*
X82051222Y-90937009D01*
X82080552Y-90901271D01*
X82163814Y-90799814D01*
X82265271Y-90716552D01*
X82301009Y-90687222D01*
X82457534Y-90603557D01*
X82627373Y-90552037D01*
X82693557Y-90545519D01*
X82759740Y-90539000D01*
X82848260Y-90539000D01*
X82914443Y-90545519D01*
X82914443Y-90545519D01*
G37*
G36*
X85454443Y-90545519D02*
G01*
X85520627Y-90552037D01*
X85690466Y-90603557D01*
X85846991Y-90687222D01*
X85882729Y-90716552D01*
X85984186Y-90799814D01*
X86067448Y-90901271D01*
X86096778Y-90937009D01*
X86180443Y-91093534D01*
X86231963Y-91263373D01*
X86249359Y-91440000D01*
X86231963Y-91616627D01*
X86180443Y-91786466D01*
X86096778Y-91942991D01*
X86067448Y-91978729D01*
X85984186Y-92080186D01*
X85882729Y-92163448D01*
X85846991Y-92192778D01*
X85690466Y-92276443D01*
X85520627Y-92327963D01*
X85454443Y-92334481D01*
X85388260Y-92341000D01*
X85299740Y-92341000D01*
X85233557Y-92334481D01*
X85167373Y-92327963D01*
X84997534Y-92276443D01*
X84841009Y-92192778D01*
X84805271Y-92163448D01*
X84703814Y-92080186D01*
X84620552Y-91978729D01*
X84591222Y-91942991D01*
X84507557Y-91786466D01*
X84456037Y-91616627D01*
X84438641Y-91440000D01*
X84456037Y-91263373D01*
X84507557Y-91093534D01*
X84591222Y-90937009D01*
X84620552Y-90901271D01*
X84703814Y-90799814D01*
X84805271Y-90716552D01*
X84841009Y-90687222D01*
X84997534Y-90603557D01*
X85167373Y-90552037D01*
X85233557Y-90545519D01*
X85299740Y-90539000D01*
X85388260Y-90539000D01*
X85454443Y-90545519D01*
X85454443Y-90545519D01*
G37*
G36*
X100694443Y-88005519D02*
G01*
X100760627Y-88012037D01*
X100930466Y-88063557D01*
X101086991Y-88147222D01*
X101122729Y-88176552D01*
X101224186Y-88259814D01*
X101307448Y-88361271D01*
X101336778Y-88397009D01*
X101420443Y-88553534D01*
X101471963Y-88723373D01*
X101489359Y-88900000D01*
X101471963Y-89076627D01*
X101420443Y-89246466D01*
X101336778Y-89402991D01*
X101324251Y-89418255D01*
X101224186Y-89540186D01*
X101126357Y-89620471D01*
X101086991Y-89652778D01*
X100930466Y-89736443D01*
X100760627Y-89787963D01*
X100694443Y-89794481D01*
X100628260Y-89801000D01*
X100539740Y-89801000D01*
X100473557Y-89794481D01*
X100407373Y-89787963D01*
X100237534Y-89736443D01*
X100081009Y-89652778D01*
X100041643Y-89620471D01*
X99943814Y-89540186D01*
X99843749Y-89418255D01*
X99831222Y-89402991D01*
X99747557Y-89246466D01*
X99696037Y-89076627D01*
X99678641Y-88900000D01*
X99696037Y-88723373D01*
X99747557Y-88553534D01*
X99831222Y-88397009D01*
X99860552Y-88361271D01*
X99943814Y-88259814D01*
X100045271Y-88176552D01*
X100081009Y-88147222D01*
X100237534Y-88063557D01*
X100407373Y-88012037D01*
X100473557Y-88005519D01*
X100539740Y-87999000D01*
X100628260Y-87999000D01*
X100694443Y-88005519D01*
X100694443Y-88005519D01*
G37*
G36*
X83705000Y-89801000D02*
G01*
X81903000Y-89801000D01*
X81903000Y-87999000D01*
X83705000Y-87999000D01*
X83705000Y-89801000D01*
X83705000Y-89801000D01*
G37*
G36*
X87994443Y-88005519D02*
G01*
X88060627Y-88012037D01*
X88230466Y-88063557D01*
X88386991Y-88147222D01*
X88422729Y-88176552D01*
X88524186Y-88259814D01*
X88607448Y-88361271D01*
X88636778Y-88397009D01*
X88720443Y-88553534D01*
X88771963Y-88723373D01*
X88789359Y-88900000D01*
X88771963Y-89076627D01*
X88720443Y-89246466D01*
X88636778Y-89402991D01*
X88624251Y-89418255D01*
X88524186Y-89540186D01*
X88426357Y-89620471D01*
X88386991Y-89652778D01*
X88230466Y-89736443D01*
X88060627Y-89787963D01*
X87994443Y-89794481D01*
X87928260Y-89801000D01*
X87839740Y-89801000D01*
X87773557Y-89794481D01*
X87707373Y-89787963D01*
X87537534Y-89736443D01*
X87381009Y-89652778D01*
X87341643Y-89620471D01*
X87243814Y-89540186D01*
X87143749Y-89418255D01*
X87131222Y-89402991D01*
X87047557Y-89246466D01*
X86996037Y-89076627D01*
X86978641Y-88900000D01*
X86996037Y-88723373D01*
X87047557Y-88553534D01*
X87131222Y-88397009D01*
X87160552Y-88361271D01*
X87243814Y-88259814D01*
X87345271Y-88176552D01*
X87381009Y-88147222D01*
X87537534Y-88063557D01*
X87707373Y-88012037D01*
X87773557Y-88005519D01*
X87839740Y-87999000D01*
X87928260Y-87999000D01*
X87994443Y-88005519D01*
X87994443Y-88005519D01*
G37*
G36*
X90534443Y-88005519D02*
G01*
X90600627Y-88012037D01*
X90770466Y-88063557D01*
X90926991Y-88147222D01*
X90962729Y-88176552D01*
X91064186Y-88259814D01*
X91147448Y-88361271D01*
X91176778Y-88397009D01*
X91260443Y-88553534D01*
X91311963Y-88723373D01*
X91329359Y-88900000D01*
X91311963Y-89076627D01*
X91260443Y-89246466D01*
X91176778Y-89402991D01*
X91164251Y-89418255D01*
X91064186Y-89540186D01*
X90966357Y-89620471D01*
X90926991Y-89652778D01*
X90770466Y-89736443D01*
X90600627Y-89787963D01*
X90534443Y-89794481D01*
X90468260Y-89801000D01*
X90379740Y-89801000D01*
X90313557Y-89794481D01*
X90247373Y-89787963D01*
X90077534Y-89736443D01*
X89921009Y-89652778D01*
X89881643Y-89620471D01*
X89783814Y-89540186D01*
X89683749Y-89418255D01*
X89671222Y-89402991D01*
X89587557Y-89246466D01*
X89536037Y-89076627D01*
X89518641Y-88900000D01*
X89536037Y-88723373D01*
X89587557Y-88553534D01*
X89671222Y-88397009D01*
X89700552Y-88361271D01*
X89783814Y-88259814D01*
X89885271Y-88176552D01*
X89921009Y-88147222D01*
X90077534Y-88063557D01*
X90247373Y-88012037D01*
X90313557Y-88005519D01*
X90379740Y-87999000D01*
X90468260Y-87999000D01*
X90534443Y-88005519D01*
X90534443Y-88005519D01*
G37*
G36*
X93074443Y-88005519D02*
G01*
X93140627Y-88012037D01*
X93310466Y-88063557D01*
X93466991Y-88147222D01*
X93502729Y-88176552D01*
X93604186Y-88259814D01*
X93687448Y-88361271D01*
X93716778Y-88397009D01*
X93800443Y-88553534D01*
X93851963Y-88723373D01*
X93869359Y-88900000D01*
X93851963Y-89076627D01*
X93800443Y-89246466D01*
X93716778Y-89402991D01*
X93704251Y-89418255D01*
X93604186Y-89540186D01*
X93506357Y-89620471D01*
X93466991Y-89652778D01*
X93310466Y-89736443D01*
X93140627Y-89787963D01*
X93074443Y-89794481D01*
X93008260Y-89801000D01*
X92919740Y-89801000D01*
X92853557Y-89794481D01*
X92787373Y-89787963D01*
X92617534Y-89736443D01*
X92461009Y-89652778D01*
X92421643Y-89620471D01*
X92323814Y-89540186D01*
X92223749Y-89418255D01*
X92211222Y-89402991D01*
X92127557Y-89246466D01*
X92076037Y-89076627D01*
X92058641Y-88900000D01*
X92076037Y-88723373D01*
X92127557Y-88553534D01*
X92211222Y-88397009D01*
X92240552Y-88361271D01*
X92323814Y-88259814D01*
X92425271Y-88176552D01*
X92461009Y-88147222D01*
X92617534Y-88063557D01*
X92787373Y-88012037D01*
X92853557Y-88005519D01*
X92919740Y-87999000D01*
X93008260Y-87999000D01*
X93074443Y-88005519D01*
X93074443Y-88005519D01*
G37*
G36*
X95614443Y-88005519D02*
G01*
X95680627Y-88012037D01*
X95850466Y-88063557D01*
X96006991Y-88147222D01*
X96042729Y-88176552D01*
X96144186Y-88259814D01*
X96227448Y-88361271D01*
X96256778Y-88397009D01*
X96340443Y-88553534D01*
X96391963Y-88723373D01*
X96409359Y-88900000D01*
X96391963Y-89076627D01*
X96340443Y-89246466D01*
X96256778Y-89402991D01*
X96244251Y-89418255D01*
X96144186Y-89540186D01*
X96046357Y-89620471D01*
X96006991Y-89652778D01*
X95850466Y-89736443D01*
X95680627Y-89787963D01*
X95614443Y-89794481D01*
X95548260Y-89801000D01*
X95459740Y-89801000D01*
X95393557Y-89794481D01*
X95327373Y-89787963D01*
X95157534Y-89736443D01*
X95001009Y-89652778D01*
X94961643Y-89620471D01*
X94863814Y-89540186D01*
X94763749Y-89418255D01*
X94751222Y-89402991D01*
X94667557Y-89246466D01*
X94616037Y-89076627D01*
X94598641Y-88900000D01*
X94616037Y-88723373D01*
X94667557Y-88553534D01*
X94751222Y-88397009D01*
X94780552Y-88361271D01*
X94863814Y-88259814D01*
X94965271Y-88176552D01*
X95001009Y-88147222D01*
X95157534Y-88063557D01*
X95327373Y-88012037D01*
X95393557Y-88005519D01*
X95459740Y-87999000D01*
X95548260Y-87999000D01*
X95614443Y-88005519D01*
X95614443Y-88005519D01*
G37*
G36*
X98154443Y-88005519D02*
G01*
X98220627Y-88012037D01*
X98390466Y-88063557D01*
X98546991Y-88147222D01*
X98582729Y-88176552D01*
X98684186Y-88259814D01*
X98767448Y-88361271D01*
X98796778Y-88397009D01*
X98880443Y-88553534D01*
X98931963Y-88723373D01*
X98949359Y-88900000D01*
X98931963Y-89076627D01*
X98880443Y-89246466D01*
X98796778Y-89402991D01*
X98784251Y-89418255D01*
X98684186Y-89540186D01*
X98586357Y-89620471D01*
X98546991Y-89652778D01*
X98390466Y-89736443D01*
X98220627Y-89787963D01*
X98154443Y-89794481D01*
X98088260Y-89801000D01*
X97999740Y-89801000D01*
X97933557Y-89794481D01*
X97867373Y-89787963D01*
X97697534Y-89736443D01*
X97541009Y-89652778D01*
X97501643Y-89620471D01*
X97403814Y-89540186D01*
X97303749Y-89418255D01*
X97291222Y-89402991D01*
X97207557Y-89246466D01*
X97156037Y-89076627D01*
X97138641Y-88900000D01*
X97156037Y-88723373D01*
X97207557Y-88553534D01*
X97291222Y-88397009D01*
X97320552Y-88361271D01*
X97403814Y-88259814D01*
X97505271Y-88176552D01*
X97541009Y-88147222D01*
X97697534Y-88063557D01*
X97867373Y-88012037D01*
X97933557Y-88005519D01*
X97999740Y-87999000D01*
X98088260Y-87999000D01*
X98154443Y-88005519D01*
X98154443Y-88005519D01*
G37*
G36*
X85454443Y-88005519D02*
G01*
X85520627Y-88012037D01*
X85690466Y-88063557D01*
X85846991Y-88147222D01*
X85882729Y-88176552D01*
X85984186Y-88259814D01*
X86067448Y-88361271D01*
X86096778Y-88397009D01*
X86180443Y-88553534D01*
X86231963Y-88723373D01*
X86249359Y-88900000D01*
X86231963Y-89076627D01*
X86180443Y-89246466D01*
X86096778Y-89402991D01*
X86084251Y-89418255D01*
X85984186Y-89540186D01*
X85886357Y-89620471D01*
X85846991Y-89652778D01*
X85690466Y-89736443D01*
X85520627Y-89787963D01*
X85454443Y-89794481D01*
X85388260Y-89801000D01*
X85299740Y-89801000D01*
X85233557Y-89794481D01*
X85167373Y-89787963D01*
X84997534Y-89736443D01*
X84841009Y-89652778D01*
X84801643Y-89620471D01*
X84703814Y-89540186D01*
X84603749Y-89418255D01*
X84591222Y-89402991D01*
X84507557Y-89246466D01*
X84456037Y-89076627D01*
X84438641Y-88900000D01*
X84456037Y-88723373D01*
X84507557Y-88553534D01*
X84591222Y-88397009D01*
X84620552Y-88361271D01*
X84703814Y-88259814D01*
X84805271Y-88176552D01*
X84841009Y-88147222D01*
X84997534Y-88063557D01*
X85167373Y-88012037D01*
X85233557Y-88005519D01*
X85299740Y-87999000D01*
X85388260Y-87999000D01*
X85454443Y-88005519D01*
X85454443Y-88005519D01*
G37*
G36*
X119617142Y-88118242D02*
G01*
X119765101Y-88179529D01*
X119898255Y-88268499D01*
X120011501Y-88381745D01*
X120100471Y-88514899D01*
X120161758Y-88662858D01*
X120193000Y-88819925D01*
X120193000Y-88980075D01*
X120161758Y-89137142D01*
X120100471Y-89285101D01*
X120011501Y-89418255D01*
X119898255Y-89531501D01*
X119765101Y-89620471D01*
X119617142Y-89681758D01*
X119460075Y-89713000D01*
X119299925Y-89713000D01*
X119142858Y-89681758D01*
X118994899Y-89620471D01*
X118861745Y-89531501D01*
X118748499Y-89418255D01*
X118659529Y-89285101D01*
X118598242Y-89137142D01*
X118567000Y-88980075D01*
X118567000Y-88819925D01*
X118598242Y-88662858D01*
X118659529Y-88514899D01*
X118748499Y-88381745D01*
X118861745Y-88268499D01*
X118994899Y-88179529D01*
X119142858Y-88118242D01*
X119299925Y-88087000D01*
X119460075Y-88087000D01*
X119617142Y-88118242D01*
X119617142Y-88118242D01*
G37*
G36*
X106917142Y-88118242D02*
G01*
X107065101Y-88179529D01*
X107198255Y-88268499D01*
X107311501Y-88381745D01*
X107400471Y-88514899D01*
X107461758Y-88662858D01*
X107493000Y-88819925D01*
X107493000Y-88980075D01*
X107461758Y-89137142D01*
X107400471Y-89285101D01*
X107311501Y-89418255D01*
X107198255Y-89531501D01*
X107065101Y-89620471D01*
X106917142Y-89681758D01*
X106760075Y-89713000D01*
X106599925Y-89713000D01*
X106442858Y-89681758D01*
X106294899Y-89620471D01*
X106161745Y-89531501D01*
X106048499Y-89418255D01*
X105959529Y-89285101D01*
X105898242Y-89137142D01*
X105867000Y-88980075D01*
X105867000Y-88819925D01*
X105898242Y-88662858D01*
X105959529Y-88514899D01*
X106048499Y-88381745D01*
X106161745Y-88268499D01*
X106294899Y-88179529D01*
X106442858Y-88118242D01*
X106599925Y-88087000D01*
X106760075Y-88087000D01*
X106917142Y-88118242D01*
X106917142Y-88118242D01*
G37*
G36*
X109457142Y-88118242D02*
G01*
X109605101Y-88179529D01*
X109738255Y-88268499D01*
X109851501Y-88381745D01*
X109940471Y-88514899D01*
X110001758Y-88662858D01*
X110033000Y-88819925D01*
X110033000Y-88980075D01*
X110001758Y-89137142D01*
X109940471Y-89285101D01*
X109851501Y-89418255D01*
X109738255Y-89531501D01*
X109605101Y-89620471D01*
X109457142Y-89681758D01*
X109300075Y-89713000D01*
X109139925Y-89713000D01*
X108982858Y-89681758D01*
X108834899Y-89620471D01*
X108701745Y-89531501D01*
X108588499Y-89418255D01*
X108499529Y-89285101D01*
X108438242Y-89137142D01*
X108407000Y-88980075D01*
X108407000Y-88819925D01*
X108438242Y-88662858D01*
X108499529Y-88514899D01*
X108588499Y-88381745D01*
X108701745Y-88268499D01*
X108834899Y-88179529D01*
X108982858Y-88118242D01*
X109139925Y-88087000D01*
X109300075Y-88087000D01*
X109457142Y-88118242D01*
X109457142Y-88118242D01*
G37*
G36*
X111997142Y-88118242D02*
G01*
X112145101Y-88179529D01*
X112278255Y-88268499D01*
X112391501Y-88381745D01*
X112480471Y-88514899D01*
X112541758Y-88662858D01*
X112573000Y-88819925D01*
X112573000Y-88980075D01*
X112541758Y-89137142D01*
X112480471Y-89285101D01*
X112391501Y-89418255D01*
X112278255Y-89531501D01*
X112145101Y-89620471D01*
X111997142Y-89681758D01*
X111840075Y-89713000D01*
X111679925Y-89713000D01*
X111522858Y-89681758D01*
X111374899Y-89620471D01*
X111241745Y-89531501D01*
X111128499Y-89418255D01*
X111039529Y-89285101D01*
X110978242Y-89137142D01*
X110947000Y-88980075D01*
X110947000Y-88819925D01*
X110978242Y-88662858D01*
X111039529Y-88514899D01*
X111128499Y-88381745D01*
X111241745Y-88268499D01*
X111374899Y-88179529D01*
X111522858Y-88118242D01*
X111679925Y-88087000D01*
X111840075Y-88087000D01*
X111997142Y-88118242D01*
X111997142Y-88118242D01*
G37*
G36*
X117077142Y-88118242D02*
G01*
X117225101Y-88179529D01*
X117358255Y-88268499D01*
X117471501Y-88381745D01*
X117560471Y-88514899D01*
X117621758Y-88662858D01*
X117653000Y-88819925D01*
X117653000Y-88980075D01*
X117621758Y-89137142D01*
X117560471Y-89285101D01*
X117471501Y-89418255D01*
X117358255Y-89531501D01*
X117225101Y-89620471D01*
X117077142Y-89681758D01*
X116920075Y-89713000D01*
X116759925Y-89713000D01*
X116602858Y-89681758D01*
X116454899Y-89620471D01*
X116321745Y-89531501D01*
X116208499Y-89418255D01*
X116119529Y-89285101D01*
X116058242Y-89137142D01*
X116027000Y-88980075D01*
X116027000Y-88819925D01*
X116058242Y-88662858D01*
X116119529Y-88514899D01*
X116208499Y-88381745D01*
X116321745Y-88268499D01*
X116454899Y-88179529D01*
X116602858Y-88118242D01*
X116759925Y-88087000D01*
X116920075Y-88087000D01*
X117077142Y-88118242D01*
X117077142Y-88118242D01*
G37*
G36*
X122157142Y-88118242D02*
G01*
X122305101Y-88179529D01*
X122438255Y-88268499D01*
X122551501Y-88381745D01*
X122640471Y-88514899D01*
X122701758Y-88662858D01*
X122733000Y-88819925D01*
X122733000Y-88980075D01*
X122701758Y-89137142D01*
X122640471Y-89285101D01*
X122551501Y-89418255D01*
X122438255Y-89531501D01*
X122305101Y-89620471D01*
X122157142Y-89681758D01*
X122000075Y-89713000D01*
X121839925Y-89713000D01*
X121682858Y-89681758D01*
X121534899Y-89620471D01*
X121401745Y-89531501D01*
X121288499Y-89418255D01*
X121199529Y-89285101D01*
X121138242Y-89137142D01*
X121107000Y-88980075D01*
X121107000Y-88819925D01*
X121138242Y-88662858D01*
X121199529Y-88514899D01*
X121288499Y-88381745D01*
X121401745Y-88268499D01*
X121534899Y-88179529D01*
X121682858Y-88118242D01*
X121839925Y-88087000D01*
X122000075Y-88087000D01*
X122157142Y-88118242D01*
X122157142Y-88118242D01*
G37*
M02*
