G04 #@! TF.GenerationSoftware,KiCad,Pcbnew,(5.1.0)-1*
G04 #@! TF.CreationDate,2021-08-08T02:08:22-05:00*
G04 #@! TF.ProjectId,nixie_legacy-digit,6e697869-655f-46c6-9567-6163792d6469,rev?*
G04 #@! TF.SameCoordinates,Original*
G04 #@! TF.FileFunction,Legend,Bot*
G04 #@! TF.FilePolarity,Positive*
%FSLAX46Y46*%
G04 Gerber Fmt 4.6, Leading zero omitted, Abs format (unit mm)*
G04 Created by KiCad (PCBNEW (5.1.0)-1) date 2021-08-08 02:08:22*
%MOMM*%
%LPD*%
G04 APERTURE LIST*
%ADD10C,0.120000*%
%ADD11C,0.150000*%
G04 APERTURE END LIST*
D10*
X105200000Y-147320000D02*
G75*
G03X105200000Y-147320000I-3600000J0D01*
G01*
X87420000Y-157480000D02*
G75*
G03X87420000Y-157480000I-3600000J0D01*
G01*
X122980000Y-157480000D02*
G75*
G03X122980000Y-157480000I-3600000J0D01*
G01*
X86360000Y-130302000D02*
X85090000Y-129032000D01*
X87630000Y-129032000D02*
X86360000Y-130302000D01*
X86360000Y-127000000D02*
X86360000Y-130302000D01*
X116840000Y-130302000D02*
X115570000Y-129032000D01*
X118110000Y-129032000D02*
X116840000Y-130302000D01*
X116840000Y-127000000D02*
X116840000Y-130302000D01*
D11*
X108623809Y-130706761D02*
X108480952Y-130754380D01*
X108242857Y-130754380D01*
X108147619Y-130706761D01*
X108100000Y-130659142D01*
X108052380Y-130563904D01*
X108052380Y-130468666D01*
X108100000Y-130373428D01*
X108147619Y-130325809D01*
X108242857Y-130278190D01*
X108433333Y-130230571D01*
X108528571Y-130182952D01*
X108576190Y-130135333D01*
X108623809Y-130040095D01*
X108623809Y-129944857D01*
X108576190Y-129849619D01*
X108528571Y-129802000D01*
X108433333Y-129754380D01*
X108195238Y-129754380D01*
X108052380Y-129802000D01*
X107195238Y-130754380D02*
X107195238Y-130230571D01*
X107242857Y-130135333D01*
X107338095Y-130087714D01*
X107528571Y-130087714D01*
X107623809Y-130135333D01*
X107195238Y-130706761D02*
X107290476Y-130754380D01*
X107528571Y-130754380D01*
X107623809Y-130706761D01*
X107671428Y-130611523D01*
X107671428Y-130516285D01*
X107623809Y-130421047D01*
X107528571Y-130373428D01*
X107290476Y-130373428D01*
X107195238Y-130325809D01*
X106861904Y-130087714D02*
X106480952Y-130087714D01*
X106719047Y-130754380D02*
X106719047Y-129897238D01*
X106671428Y-129802000D01*
X106576190Y-129754380D01*
X106480952Y-129754380D01*
X105766666Y-130706761D02*
X105861904Y-130754380D01*
X106052380Y-130754380D01*
X106147619Y-130706761D01*
X106195238Y-130611523D01*
X106195238Y-130230571D01*
X106147619Y-130135333D01*
X106052380Y-130087714D01*
X105861904Y-130087714D01*
X105766666Y-130135333D01*
X105719047Y-130230571D01*
X105719047Y-130325809D01*
X106195238Y-130421047D01*
X104671428Y-130087714D02*
X104290476Y-130087714D01*
X104528571Y-129754380D02*
X104528571Y-130611523D01*
X104480952Y-130706761D01*
X104385714Y-130754380D01*
X104290476Y-130754380D01*
X103814285Y-130754380D02*
X103909523Y-130706761D01*
X103957142Y-130659142D01*
X104004761Y-130563904D01*
X104004761Y-130278190D01*
X103957142Y-130182952D01*
X103909523Y-130135333D01*
X103814285Y-130087714D01*
X103671428Y-130087714D01*
X103576190Y-130135333D01*
X103528571Y-130182952D01*
X103480952Y-130278190D01*
X103480952Y-130563904D01*
X103528571Y-130659142D01*
X103576190Y-130706761D01*
X103671428Y-130754380D01*
X103814285Y-130754380D01*
X101861904Y-130706761D02*
X101957142Y-130754380D01*
X102147619Y-130754380D01*
X102242857Y-130706761D01*
X102290476Y-130659142D01*
X102338095Y-130563904D01*
X102338095Y-130278190D01*
X102290476Y-130182952D01*
X102242857Y-130135333D01*
X102147619Y-130087714D01*
X101957142Y-130087714D01*
X101861904Y-130135333D01*
X101004761Y-130087714D02*
X101004761Y-130754380D01*
X101433333Y-130087714D02*
X101433333Y-130611523D01*
X101385714Y-130706761D01*
X101290476Y-130754380D01*
X101147619Y-130754380D01*
X101052380Y-130706761D01*
X101004761Y-130659142D01*
X100671428Y-130087714D02*
X100290476Y-130087714D01*
X100528571Y-129754380D02*
X100528571Y-130611523D01*
X100480952Y-130706761D01*
X100385714Y-130754380D01*
X100290476Y-130754380D01*
X98385714Y-130754380D02*
X98433333Y-130754380D01*
X98528571Y-130706761D01*
X98671428Y-130563904D01*
X98909523Y-130278190D01*
X99004761Y-130135333D01*
X99052380Y-129992476D01*
X99052380Y-129897238D01*
X99004761Y-129802000D01*
X98909523Y-129754380D01*
X98861904Y-129754380D01*
X98766666Y-129802000D01*
X98719047Y-129897238D01*
X98719047Y-129944857D01*
X98766666Y-130040095D01*
X98814285Y-130087714D01*
X99100000Y-130278190D01*
X99147619Y-130325809D01*
X99195238Y-130421047D01*
X99195238Y-130563904D01*
X99147619Y-130659142D01*
X99100000Y-130706761D01*
X99004761Y-130754380D01*
X98861904Y-130754380D01*
X98766666Y-130706761D01*
X98719047Y-130659142D01*
X98576190Y-130468666D01*
X98528571Y-130325809D01*
X98528571Y-130230571D01*
X96766666Y-130754380D02*
X96766666Y-129754380D01*
X96766666Y-130706761D02*
X96861904Y-130754380D01*
X97052380Y-130754380D01*
X97147619Y-130706761D01*
X97195238Y-130659142D01*
X97242857Y-130563904D01*
X97242857Y-130278190D01*
X97195238Y-130182952D01*
X97147619Y-130135333D01*
X97052380Y-130087714D01*
X96861904Y-130087714D01*
X96766666Y-130135333D01*
X96290476Y-130754380D02*
X96290476Y-130087714D01*
X96290476Y-130278190D02*
X96242857Y-130182952D01*
X96195238Y-130135333D01*
X96100000Y-130087714D01*
X96004761Y-130087714D01*
X95671428Y-130754380D02*
X95671428Y-130087714D01*
X95671428Y-129754380D02*
X95719047Y-129802000D01*
X95671428Y-129849619D01*
X95623809Y-129802000D01*
X95671428Y-129754380D01*
X95671428Y-129849619D01*
X95052380Y-130754380D02*
X95147619Y-130706761D01*
X95195238Y-130611523D01*
X95195238Y-129754380D01*
X94528571Y-130754380D02*
X94623809Y-130706761D01*
X94671428Y-130611523D01*
X94671428Y-129754380D01*
D10*
X127000000Y-125730000D02*
X76200000Y-125730000D01*
D11*
X100265428Y-93940380D02*
X100027333Y-94940380D01*
X99836857Y-94226095D01*
X99646380Y-94940380D01*
X99408285Y-93940380D01*
X99074952Y-94654666D02*
X98598761Y-94654666D01*
X99170190Y-94940380D02*
X98836857Y-93940380D01*
X98503523Y-94940380D01*
X97598761Y-94940380D02*
X97932095Y-94464190D01*
X98170190Y-94940380D02*
X98170190Y-93940380D01*
X97789238Y-93940380D01*
X97694000Y-93988000D01*
X97646380Y-94035619D01*
X97598761Y-94130857D01*
X97598761Y-94273714D01*
X97646380Y-94368952D01*
X97694000Y-94416571D01*
X97789238Y-94464190D01*
X98170190Y-94464190D01*
X97170190Y-94940380D02*
X97170190Y-93940380D01*
X96598761Y-94940380D01*
X96598761Y-93940380D01*
X96122571Y-94940380D02*
X96122571Y-93940380D01*
X95646380Y-94940380D02*
X95646380Y-93940380D01*
X95074952Y-94940380D01*
X95074952Y-93940380D01*
X94074952Y-93988000D02*
X94170190Y-93940380D01*
X94313047Y-93940380D01*
X94455904Y-93988000D01*
X94551142Y-94083238D01*
X94598761Y-94178476D01*
X94646380Y-94368952D01*
X94646380Y-94511809D01*
X94598761Y-94702285D01*
X94551142Y-94797523D01*
X94455904Y-94892761D01*
X94313047Y-94940380D01*
X94217809Y-94940380D01*
X94074952Y-94892761D01*
X94027333Y-94845142D01*
X94027333Y-94511809D01*
X94217809Y-94511809D01*
X93598761Y-94845142D02*
X93551142Y-94892761D01*
X93598761Y-94940380D01*
X93646380Y-94892761D01*
X93598761Y-94845142D01*
X93598761Y-94940380D01*
X93598761Y-94321333D02*
X93551142Y-94368952D01*
X93598761Y-94416571D01*
X93646380Y-94368952D01*
X93598761Y-94321333D01*
X93598761Y-94416571D01*
X92360666Y-94940380D02*
X92360666Y-93940380D01*
X92360666Y-94416571D02*
X91789238Y-94416571D01*
X91789238Y-94940380D02*
X91789238Y-93940380D01*
X91313047Y-94940380D02*
X91313047Y-94273714D01*
X91313047Y-93940380D02*
X91360666Y-93988000D01*
X91313047Y-94035619D01*
X91265428Y-93988000D01*
X91313047Y-93940380D01*
X91313047Y-94035619D01*
X90408285Y-94273714D02*
X90408285Y-95083238D01*
X90455904Y-95178476D01*
X90503523Y-95226095D01*
X90598761Y-95273714D01*
X90741619Y-95273714D01*
X90836857Y-95226095D01*
X90408285Y-94892761D02*
X90503523Y-94940380D01*
X90694000Y-94940380D01*
X90789238Y-94892761D01*
X90836857Y-94845142D01*
X90884476Y-94749904D01*
X90884476Y-94464190D01*
X90836857Y-94368952D01*
X90789238Y-94321333D01*
X90694000Y-94273714D01*
X90503523Y-94273714D01*
X90408285Y-94321333D01*
X89932095Y-94940380D02*
X89932095Y-93940380D01*
X89503523Y-94940380D02*
X89503523Y-94416571D01*
X89551142Y-94321333D01*
X89646380Y-94273714D01*
X89789238Y-94273714D01*
X89884476Y-94321333D01*
X89932095Y-94368952D01*
X88408285Y-93940380D02*
X88074952Y-94940380D01*
X87741619Y-93940380D01*
X87265428Y-94940380D02*
X87360666Y-94892761D01*
X87408285Y-94845142D01*
X87455904Y-94749904D01*
X87455904Y-94464190D01*
X87408285Y-94368952D01*
X87360666Y-94321333D01*
X87265428Y-94273714D01*
X87122571Y-94273714D01*
X87027333Y-94321333D01*
X86979714Y-94368952D01*
X86932095Y-94464190D01*
X86932095Y-94749904D01*
X86979714Y-94845142D01*
X87027333Y-94892761D01*
X87122571Y-94940380D01*
X87265428Y-94940380D01*
X86360666Y-94940380D02*
X86455904Y-94892761D01*
X86503523Y-94797523D01*
X86503523Y-93940380D01*
X86122571Y-94273714D02*
X85741619Y-94273714D01*
X85979714Y-93940380D02*
X85979714Y-94797523D01*
X85932095Y-94892761D01*
X85836857Y-94940380D01*
X85741619Y-94940380D01*
X84979714Y-94940380D02*
X84979714Y-94416571D01*
X85027333Y-94321333D01*
X85122571Y-94273714D01*
X85313047Y-94273714D01*
X85408285Y-94321333D01*
X84979714Y-94892761D02*
X85074952Y-94940380D01*
X85313047Y-94940380D01*
X85408285Y-94892761D01*
X85455904Y-94797523D01*
X85455904Y-94702285D01*
X85408285Y-94607047D01*
X85313047Y-94559428D01*
X85074952Y-94559428D01*
X84979714Y-94511809D01*
X84074952Y-94273714D02*
X84074952Y-95083238D01*
X84122571Y-95178476D01*
X84170190Y-95226095D01*
X84265428Y-95273714D01*
X84408285Y-95273714D01*
X84503523Y-95226095D01*
X84074952Y-94892761D02*
X84170190Y-94940380D01*
X84360666Y-94940380D01*
X84455904Y-94892761D01*
X84503523Y-94845142D01*
X84551142Y-94749904D01*
X84551142Y-94464190D01*
X84503523Y-94368952D01*
X84455904Y-94321333D01*
X84360666Y-94273714D01*
X84170190Y-94273714D01*
X84074952Y-94321333D01*
X83217809Y-94892761D02*
X83313047Y-94940380D01*
X83503523Y-94940380D01*
X83598761Y-94892761D01*
X83646380Y-94797523D01*
X83646380Y-94416571D01*
X83598761Y-94321333D01*
X83503523Y-94273714D01*
X83313047Y-94273714D01*
X83217809Y-94321333D01*
X83170190Y-94416571D01*
X83170190Y-94511809D01*
X83646380Y-94607047D01*
D10*
X123344000Y-89440000D02*
X123344000Y-95980000D01*
X123344000Y-95980000D02*
X123674000Y-95980000D01*
X126084000Y-89440000D02*
X126084000Y-95980000D01*
X126084000Y-95980000D02*
X125754000Y-95980000D01*
X102516000Y-89440000D02*
X102516000Y-95980000D01*
X102516000Y-95980000D02*
X102846000Y-95980000D01*
X105256000Y-89440000D02*
X105256000Y-95980000D01*
X105256000Y-95980000D02*
X104926000Y-95980000D01*
X101914000Y-87570000D02*
X101914000Y-92770000D01*
X84074000Y-87570000D02*
X101914000Y-87570000D01*
X81474000Y-92770000D02*
X101914000Y-92770000D01*
X84074000Y-87570000D02*
X84074000Y-90170000D01*
X84074000Y-90170000D02*
X81474000Y-90170000D01*
X81474000Y-90170000D02*
X81474000Y-92770000D01*
X82804000Y-87570000D02*
X81474000Y-87570000D01*
X81474000Y-87570000D02*
X81474000Y-88900000D01*
D11*
X125166380Y-88598761D02*
X124690190Y-88265428D01*
X125166380Y-88027333D02*
X124166380Y-88027333D01*
X124166380Y-88408285D01*
X124214000Y-88503523D01*
X124261619Y-88551142D01*
X124356857Y-88598761D01*
X124499714Y-88598761D01*
X124594952Y-88551142D01*
X124642571Y-88503523D01*
X124690190Y-88408285D01*
X124690190Y-88027333D01*
X125166380Y-89027333D02*
X124499714Y-89027333D01*
X124166380Y-89027333D02*
X124214000Y-88979714D01*
X124261619Y-89027333D01*
X124214000Y-89074952D01*
X124166380Y-89027333D01*
X124261619Y-89027333D01*
X124499714Y-89932095D02*
X125309238Y-89932095D01*
X125404476Y-89884476D01*
X125452095Y-89836857D01*
X125499714Y-89741619D01*
X125499714Y-89598761D01*
X125452095Y-89503523D01*
X125118761Y-89932095D02*
X125166380Y-89836857D01*
X125166380Y-89646380D01*
X125118761Y-89551142D01*
X125071142Y-89503523D01*
X124975904Y-89455904D01*
X124690190Y-89455904D01*
X124594952Y-89503523D01*
X124547333Y-89551142D01*
X124499714Y-89646380D01*
X124499714Y-89836857D01*
X124547333Y-89932095D01*
X125166380Y-90408285D02*
X124166380Y-90408285D01*
X125166380Y-90836857D02*
X124642571Y-90836857D01*
X124547333Y-90789238D01*
X124499714Y-90694000D01*
X124499714Y-90551142D01*
X124547333Y-90455904D01*
X124594952Y-90408285D01*
X124499714Y-91170190D02*
X124499714Y-91551142D01*
X124166380Y-91313047D02*
X125023523Y-91313047D01*
X125118761Y-91360666D01*
X125166380Y-91455904D01*
X125166380Y-91551142D01*
X124785428Y-91884476D02*
X124785428Y-92646380D01*
X124261619Y-93074952D02*
X124214000Y-93122571D01*
X124166380Y-93217809D01*
X124166380Y-93455904D01*
X124214000Y-93551142D01*
X124261619Y-93598761D01*
X124356857Y-93646380D01*
X124452095Y-93646380D01*
X124594952Y-93598761D01*
X125166380Y-93027333D01*
X125166380Y-93646380D01*
X124166380Y-94265428D02*
X124166380Y-94360666D01*
X124214000Y-94455904D01*
X124261619Y-94503523D01*
X124356857Y-94551142D01*
X124547333Y-94598761D01*
X124785428Y-94598761D01*
X124975904Y-94551142D01*
X125071142Y-94503523D01*
X125118761Y-94455904D01*
X125166380Y-94360666D01*
X125166380Y-94265428D01*
X125118761Y-94170190D01*
X125071142Y-94122571D01*
X124975904Y-94074952D01*
X124785428Y-94027333D01*
X124547333Y-94027333D01*
X124356857Y-94074952D01*
X124261619Y-94122571D01*
X124214000Y-94170190D01*
X124166380Y-94265428D01*
X125166380Y-95027333D02*
X124166380Y-95027333D01*
X124785428Y-95122571D02*
X125166380Y-95408285D01*
X124499714Y-95408285D02*
X124880666Y-95027333D01*
X104338380Y-89535333D02*
X104338380Y-89059142D01*
X103338380Y-89059142D01*
X104290761Y-90249619D02*
X104338380Y-90154380D01*
X104338380Y-89963904D01*
X104290761Y-89868666D01*
X104195523Y-89821047D01*
X103814571Y-89821047D01*
X103719333Y-89868666D01*
X103671714Y-89963904D01*
X103671714Y-90154380D01*
X103719333Y-90249619D01*
X103814571Y-90297238D01*
X103909809Y-90297238D01*
X104005047Y-89821047D01*
X103671714Y-90582952D02*
X103671714Y-90963904D01*
X104338380Y-90725809D02*
X103481238Y-90725809D01*
X103386000Y-90773428D01*
X103338380Y-90868666D01*
X103338380Y-90963904D01*
X103671714Y-91154380D02*
X103671714Y-91535333D01*
X103338380Y-91297238D02*
X104195523Y-91297238D01*
X104290761Y-91344857D01*
X104338380Y-91440095D01*
X104338380Y-91535333D01*
X103957428Y-91868666D02*
X103957428Y-92630571D01*
X103433619Y-93059142D02*
X103386000Y-93106761D01*
X103338380Y-93202000D01*
X103338380Y-93440095D01*
X103386000Y-93535333D01*
X103433619Y-93582952D01*
X103528857Y-93630571D01*
X103624095Y-93630571D01*
X103766952Y-93582952D01*
X104338380Y-93011523D01*
X104338380Y-93630571D01*
X103338380Y-94249619D02*
X103338380Y-94344857D01*
X103386000Y-94440095D01*
X103433619Y-94487714D01*
X103528857Y-94535333D01*
X103719333Y-94582952D01*
X103957428Y-94582952D01*
X104147904Y-94535333D01*
X104243142Y-94487714D01*
X104290761Y-94440095D01*
X104338380Y-94344857D01*
X104338380Y-94249619D01*
X104290761Y-94154380D01*
X104243142Y-94106761D01*
X104147904Y-94059142D01*
X103957428Y-94011523D01*
X103719333Y-94011523D01*
X103528857Y-94059142D01*
X103433619Y-94106761D01*
X103386000Y-94154380D01*
X103338380Y-94249619D01*
X104338380Y-95011523D02*
X103338380Y-95011523D01*
X103957428Y-95106761D02*
X104338380Y-95392476D01*
X103671714Y-95392476D02*
X104052666Y-95011523D01*
X122324761Y-90203976D02*
X122372380Y-90299214D01*
X122372380Y-90489690D01*
X122324761Y-90584928D01*
X122229523Y-90632547D01*
X122181904Y-90632547D01*
X122086666Y-90584928D01*
X122039047Y-90489690D01*
X122039047Y-90346833D01*
X121991428Y-90251595D01*
X121896190Y-90203976D01*
X121848571Y-90203976D01*
X121753333Y-90251595D01*
X121705714Y-90346833D01*
X121705714Y-90489690D01*
X121753333Y-90584928D01*
X122324761Y-91442071D02*
X122372380Y-91346833D01*
X122372380Y-91156357D01*
X122324761Y-91061119D01*
X122229523Y-91013500D01*
X121848571Y-91013500D01*
X121753333Y-91061119D01*
X121705714Y-91156357D01*
X121705714Y-91346833D01*
X121753333Y-91442071D01*
X121848571Y-91489690D01*
X121943809Y-91489690D01*
X122039047Y-91013500D01*
X122324761Y-92346833D02*
X122372380Y-92251595D01*
X122372380Y-92061119D01*
X122324761Y-91965880D01*
X122277142Y-91918261D01*
X122181904Y-91870642D01*
X121896190Y-91870642D01*
X121800952Y-91918261D01*
X121753333Y-91965880D01*
X121705714Y-92061119D01*
X121705714Y-92251595D01*
X121753333Y-92346833D01*
X121372380Y-92965880D02*
X121372380Y-93061119D01*
X121420000Y-93156357D01*
X121467619Y-93203976D01*
X121562857Y-93251595D01*
X121753333Y-93299214D01*
X121991428Y-93299214D01*
X122181904Y-93251595D01*
X122277142Y-93203976D01*
X122324761Y-93156357D01*
X122372380Y-93061119D01*
X122372380Y-92965880D01*
X122324761Y-92870642D01*
X122277142Y-92823023D01*
X122181904Y-92775404D01*
X121991428Y-92727785D01*
X121753333Y-92727785D01*
X121562857Y-92775404D01*
X121467619Y-92823023D01*
X121420000Y-92870642D01*
X121372380Y-92965880D01*
X112164761Y-90203976D02*
X112212380Y-90299214D01*
X112212380Y-90489690D01*
X112164761Y-90584928D01*
X112069523Y-90632547D01*
X112021904Y-90632547D01*
X111926666Y-90584928D01*
X111879047Y-90489690D01*
X111879047Y-90346833D01*
X111831428Y-90251595D01*
X111736190Y-90203976D01*
X111688571Y-90203976D01*
X111593333Y-90251595D01*
X111545714Y-90346833D01*
X111545714Y-90489690D01*
X111593333Y-90584928D01*
X112164761Y-91442071D02*
X112212380Y-91346833D01*
X112212380Y-91156357D01*
X112164761Y-91061119D01*
X112069523Y-91013500D01*
X111688571Y-91013500D01*
X111593333Y-91061119D01*
X111545714Y-91156357D01*
X111545714Y-91346833D01*
X111593333Y-91442071D01*
X111688571Y-91489690D01*
X111783809Y-91489690D01*
X111879047Y-91013500D01*
X112164761Y-92346833D02*
X112212380Y-92251595D01*
X112212380Y-92061119D01*
X112164761Y-91965880D01*
X112117142Y-91918261D01*
X112021904Y-91870642D01*
X111736190Y-91870642D01*
X111640952Y-91918261D01*
X111593333Y-91965880D01*
X111545714Y-92061119D01*
X111545714Y-92251595D01*
X111593333Y-92346833D01*
X112212380Y-93299214D02*
X112212380Y-92727785D01*
X112212380Y-93013500D02*
X111212380Y-93013500D01*
X111355238Y-92918261D01*
X111450476Y-92823023D01*
X111498095Y-92727785D01*
X111212380Y-93918261D02*
X111212380Y-94013500D01*
X111260000Y-94108738D01*
X111307619Y-94156357D01*
X111402857Y-94203976D01*
X111593333Y-94251595D01*
X111831428Y-94251595D01*
X112021904Y-94203976D01*
X112117142Y-94156357D01*
X112164761Y-94108738D01*
X112212380Y-94013500D01*
X112212380Y-93918261D01*
X112164761Y-93823023D01*
X112117142Y-93775404D01*
X112021904Y-93727785D01*
X111831428Y-93680166D01*
X111593333Y-93680166D01*
X111402857Y-93727785D01*
X111307619Y-93775404D01*
X111260000Y-93823023D01*
X111212380Y-93918261D01*
X119832380Y-90251595D02*
X119165714Y-90251595D01*
X119260952Y-90251595D02*
X119213333Y-90299214D01*
X119165714Y-90394452D01*
X119165714Y-90537309D01*
X119213333Y-90632547D01*
X119308571Y-90680166D01*
X119832380Y-90680166D01*
X119308571Y-90680166D02*
X119213333Y-90727785D01*
X119165714Y-90823023D01*
X119165714Y-90965880D01*
X119213333Y-91061119D01*
X119308571Y-91108738D01*
X119832380Y-91108738D01*
X119832380Y-91584928D02*
X119165714Y-91584928D01*
X118832380Y-91584928D02*
X118880000Y-91537309D01*
X118927619Y-91584928D01*
X118880000Y-91632547D01*
X118832380Y-91584928D01*
X118927619Y-91584928D01*
X119165714Y-92061119D02*
X119832380Y-92061119D01*
X119260952Y-92061119D02*
X119213333Y-92108738D01*
X119165714Y-92203976D01*
X119165714Y-92346833D01*
X119213333Y-92442071D01*
X119308571Y-92489690D01*
X119832380Y-92489690D01*
X118832380Y-93156357D02*
X118832380Y-93251595D01*
X118880000Y-93346833D01*
X118927619Y-93394452D01*
X119022857Y-93442071D01*
X119213333Y-93489690D01*
X119451428Y-93489690D01*
X119641904Y-93442071D01*
X119737142Y-93394452D01*
X119784761Y-93346833D01*
X119832380Y-93251595D01*
X119832380Y-93156357D01*
X119784761Y-93061119D01*
X119737142Y-93013500D01*
X119641904Y-92965880D01*
X119451428Y-92918261D01*
X119213333Y-92918261D01*
X119022857Y-92965880D01*
X118927619Y-93013500D01*
X118880000Y-93061119D01*
X118832380Y-93156357D01*
X109672380Y-90251595D02*
X109005714Y-90251595D01*
X109100952Y-90251595D02*
X109053333Y-90299214D01*
X109005714Y-90394452D01*
X109005714Y-90537309D01*
X109053333Y-90632547D01*
X109148571Y-90680166D01*
X109672380Y-90680166D01*
X109148571Y-90680166D02*
X109053333Y-90727785D01*
X109005714Y-90823023D01*
X109005714Y-90965880D01*
X109053333Y-91061119D01*
X109148571Y-91108738D01*
X109672380Y-91108738D01*
X109672380Y-91584928D02*
X109005714Y-91584928D01*
X108672380Y-91584928D02*
X108720000Y-91537309D01*
X108767619Y-91584928D01*
X108720000Y-91632547D01*
X108672380Y-91584928D01*
X108767619Y-91584928D01*
X109005714Y-92061119D02*
X109672380Y-92061119D01*
X109100952Y-92061119D02*
X109053333Y-92108738D01*
X109005714Y-92203976D01*
X109005714Y-92346833D01*
X109053333Y-92442071D01*
X109148571Y-92489690D01*
X109672380Y-92489690D01*
X109672380Y-93489690D02*
X109672380Y-92918261D01*
X109672380Y-93203976D02*
X108672380Y-93203976D01*
X108815238Y-93108738D01*
X108910476Y-93013500D01*
X108958095Y-92918261D01*
X108672380Y-94108738D02*
X108672380Y-94203976D01*
X108720000Y-94299214D01*
X108767619Y-94346833D01*
X108862857Y-94394452D01*
X109053333Y-94442071D01*
X109291428Y-94442071D01*
X109481904Y-94394452D01*
X109577142Y-94346833D01*
X109624761Y-94299214D01*
X109672380Y-94203976D01*
X109672380Y-94108738D01*
X109624761Y-94013500D01*
X109577142Y-93965880D01*
X109481904Y-93918261D01*
X109291428Y-93870642D01*
X109053333Y-93870642D01*
X108862857Y-93918261D01*
X108767619Y-93965880D01*
X108720000Y-94013500D01*
X108672380Y-94108738D01*
X117292380Y-90251595D02*
X116292380Y-90251595D01*
X117292380Y-90680166D02*
X116768571Y-90680166D01*
X116673333Y-90632547D01*
X116625714Y-90537309D01*
X116625714Y-90394452D01*
X116673333Y-90299214D01*
X116720952Y-90251595D01*
X117292380Y-91156357D02*
X116625714Y-91156357D01*
X116816190Y-91156357D02*
X116720952Y-91203976D01*
X116673333Y-91251595D01*
X116625714Y-91346833D01*
X116625714Y-91442071D01*
X116292380Y-91965880D02*
X116292380Y-92061119D01*
X116340000Y-92156357D01*
X116387619Y-92203976D01*
X116482857Y-92251595D01*
X116673333Y-92299214D01*
X116911428Y-92299214D01*
X117101904Y-92251595D01*
X117197142Y-92203976D01*
X117244761Y-92156357D01*
X117292380Y-92061119D01*
X117292380Y-91965880D01*
X117244761Y-91870642D01*
X117197142Y-91823023D01*
X117101904Y-91775404D01*
X116911428Y-91727785D01*
X116673333Y-91727785D01*
X116482857Y-91775404D01*
X116387619Y-91823023D01*
X116340000Y-91870642D01*
X116292380Y-91965880D01*
X107132380Y-90251595D02*
X106132380Y-90251595D01*
X107132380Y-90680166D02*
X106608571Y-90680166D01*
X106513333Y-90632547D01*
X106465714Y-90537309D01*
X106465714Y-90394452D01*
X106513333Y-90299214D01*
X106560952Y-90251595D01*
X107132380Y-91156357D02*
X106465714Y-91156357D01*
X106656190Y-91156357D02*
X106560952Y-91203976D01*
X106513333Y-91251595D01*
X106465714Y-91346833D01*
X106465714Y-91442071D01*
X107132380Y-92299214D02*
X107132380Y-91727785D01*
X107132380Y-92013500D02*
X106132380Y-92013500D01*
X106275238Y-91918261D01*
X106370476Y-91823023D01*
X106418095Y-91727785D01*
X106132380Y-92918261D02*
X106132380Y-93013500D01*
X106180000Y-93108738D01*
X106227619Y-93156357D01*
X106322857Y-93203976D01*
X106513333Y-93251595D01*
X106751428Y-93251595D01*
X106941904Y-93203976D01*
X107037142Y-93156357D01*
X107084761Y-93108738D01*
X107132380Y-93013500D01*
X107132380Y-92918261D01*
X107084761Y-92823023D01*
X107037142Y-92775404D01*
X106941904Y-92727785D01*
X106751428Y-92680166D01*
X106513333Y-92680166D01*
X106322857Y-92727785D01*
X106227619Y-92775404D01*
X106180000Y-92823023D01*
X106132380Y-92918261D01*
X101503428Y-87034666D02*
X101027238Y-87034666D01*
X101598666Y-87320380D02*
X101265333Y-86320380D01*
X100932000Y-87320380D01*
X100741523Y-86653714D02*
X100360571Y-86653714D01*
X100598666Y-87320380D02*
X100598666Y-86463238D01*
X100551047Y-86368000D01*
X100455809Y-86320380D01*
X100360571Y-86320380D01*
X100170095Y-86653714D02*
X99789142Y-86653714D01*
X100027238Y-87320380D02*
X100027238Y-86463238D01*
X99979619Y-86368000D01*
X99884380Y-86320380D01*
X99789142Y-86320380D01*
X99455809Y-87320380D02*
X99455809Y-86653714D01*
X99455809Y-86320380D02*
X99503428Y-86368000D01*
X99455809Y-86415619D01*
X99408190Y-86368000D01*
X99455809Y-86320380D01*
X99455809Y-86415619D01*
X99074857Y-87320380D02*
X98551047Y-86653714D01*
X99074857Y-86653714D02*
X98551047Y-87320380D01*
X97408190Y-87320380D02*
X97408190Y-86320380D01*
X96979619Y-87320380D02*
X96979619Y-86796571D01*
X97027238Y-86701333D01*
X97122476Y-86653714D01*
X97265333Y-86653714D01*
X97360571Y-86701333D01*
X97408190Y-86748952D01*
X96122476Y-87272761D02*
X96217714Y-87320380D01*
X96408190Y-87320380D01*
X96503428Y-87272761D01*
X96551047Y-87177523D01*
X96551047Y-86796571D01*
X96503428Y-86701333D01*
X96408190Y-86653714D01*
X96217714Y-86653714D01*
X96122476Y-86701333D01*
X96074857Y-86796571D01*
X96074857Y-86891809D01*
X96551047Y-86987047D01*
X95217714Y-87320380D02*
X95217714Y-86796571D01*
X95265333Y-86701333D01*
X95360571Y-86653714D01*
X95551047Y-86653714D01*
X95646285Y-86701333D01*
X95217714Y-87272761D02*
X95312952Y-87320380D01*
X95551047Y-87320380D01*
X95646285Y-87272761D01*
X95693904Y-87177523D01*
X95693904Y-87082285D01*
X95646285Y-86987047D01*
X95551047Y-86939428D01*
X95312952Y-86939428D01*
X95217714Y-86891809D01*
X94312952Y-87320380D02*
X94312952Y-86320380D01*
X94312952Y-87272761D02*
X94408190Y-87320380D01*
X94598666Y-87320380D01*
X94693904Y-87272761D01*
X94741523Y-87225142D01*
X94789142Y-87129904D01*
X94789142Y-86844190D01*
X94741523Y-86748952D01*
X94693904Y-86701333D01*
X94598666Y-86653714D01*
X94408190Y-86653714D01*
X94312952Y-86701333D01*
X93455809Y-87272761D02*
X93551047Y-87320380D01*
X93741523Y-87320380D01*
X93836761Y-87272761D01*
X93884380Y-87177523D01*
X93884380Y-86796571D01*
X93836761Y-86701333D01*
X93741523Y-86653714D01*
X93551047Y-86653714D01*
X93455809Y-86701333D01*
X93408190Y-86796571D01*
X93408190Y-86891809D01*
X93884380Y-86987047D01*
X92979619Y-87320380D02*
X92979619Y-86653714D01*
X92979619Y-86844190D02*
X92932000Y-86748952D01*
X92884380Y-86701333D01*
X92789142Y-86653714D01*
X92693904Y-86653714D01*
X91741523Y-86653714D02*
X91360571Y-86653714D01*
X91598666Y-86320380D02*
X91598666Y-87177523D01*
X91551047Y-87272761D01*
X91455809Y-87320380D01*
X91360571Y-87320380D01*
X91027238Y-87320380D02*
X91027238Y-86320380D01*
X90598666Y-87320380D02*
X90598666Y-86796571D01*
X90646285Y-86701333D01*
X90741523Y-86653714D01*
X90884380Y-86653714D01*
X90979619Y-86701333D01*
X91027238Y-86748952D01*
X90122476Y-87320380D02*
X90122476Y-86653714D01*
X90122476Y-86320380D02*
X90170095Y-86368000D01*
X90122476Y-86415619D01*
X90074857Y-86368000D01*
X90122476Y-86320380D01*
X90122476Y-86415619D01*
X89693904Y-87272761D02*
X89598666Y-87320380D01*
X89408190Y-87320380D01*
X89312952Y-87272761D01*
X89265333Y-87177523D01*
X89265333Y-87129904D01*
X89312952Y-87034666D01*
X89408190Y-86987047D01*
X89551047Y-86987047D01*
X89646285Y-86939428D01*
X89693904Y-86844190D01*
X89693904Y-86796571D01*
X89646285Y-86701333D01*
X89551047Y-86653714D01*
X89408190Y-86653714D01*
X89312952Y-86701333D01*
X88122476Y-87272761D02*
X88027238Y-87320380D01*
X87836761Y-87320380D01*
X87741523Y-87272761D01*
X87693904Y-87177523D01*
X87693904Y-87129904D01*
X87741523Y-87034666D01*
X87836761Y-86987047D01*
X87979619Y-86987047D01*
X88074857Y-86939428D01*
X88122476Y-86844190D01*
X88122476Y-86796571D01*
X88074857Y-86701333D01*
X87979619Y-86653714D01*
X87836761Y-86653714D01*
X87741523Y-86701333D01*
X87265333Y-87320380D02*
X87265333Y-86653714D01*
X87265333Y-86320380D02*
X87312952Y-86368000D01*
X87265333Y-86415619D01*
X87217714Y-86368000D01*
X87265333Y-86320380D01*
X87265333Y-86415619D01*
X86360571Y-87320380D02*
X86360571Y-86320380D01*
X86360571Y-87272761D02*
X86455809Y-87320380D01*
X86646285Y-87320380D01*
X86741523Y-87272761D01*
X86789142Y-87225142D01*
X86836761Y-87129904D01*
X86836761Y-86844190D01*
X86789142Y-86748952D01*
X86741523Y-86701333D01*
X86646285Y-86653714D01*
X86455809Y-86653714D01*
X86360571Y-86701333D01*
X85503428Y-87272761D02*
X85598666Y-87320380D01*
X85789142Y-87320380D01*
X85884380Y-87272761D01*
X85932000Y-87177523D01*
X85932000Y-86796571D01*
X85884380Y-86701333D01*
X85789142Y-86653714D01*
X85598666Y-86653714D01*
X85503428Y-86701333D01*
X85455809Y-86796571D01*
X85455809Y-86891809D01*
X85932000Y-86987047D01*
X83979619Y-87701333D02*
X84027238Y-87653714D01*
X84122476Y-87510857D01*
X84170095Y-87415619D01*
X84217714Y-87272761D01*
X84265333Y-87034666D01*
X84265333Y-86844190D01*
X84217714Y-86606095D01*
X84170095Y-86463238D01*
X84122476Y-86368000D01*
X84027238Y-86225142D01*
X83979619Y-86177523D01*
X83598666Y-87320380D02*
X83598666Y-86653714D01*
X83598666Y-86844190D02*
X83551047Y-86748952D01*
X83503428Y-86701333D01*
X83408190Y-86653714D01*
X83312952Y-86653714D01*
X82598666Y-87272761D02*
X82693904Y-87320380D01*
X82884380Y-87320380D01*
X82979619Y-87272761D01*
X83027238Y-87177523D01*
X83027238Y-86796571D01*
X82979619Y-86701333D01*
X82884380Y-86653714D01*
X82693904Y-86653714D01*
X82598666Y-86701333D01*
X82551047Y-86796571D01*
X82551047Y-86891809D01*
X83027238Y-86987047D01*
X81693904Y-87320380D02*
X81693904Y-86796571D01*
X81741523Y-86701333D01*
X81836761Y-86653714D01*
X82027238Y-86653714D01*
X82122476Y-86701333D01*
X81693904Y-87272761D02*
X81789142Y-87320380D01*
X82027238Y-87320380D01*
X82122476Y-87272761D01*
X82170095Y-87177523D01*
X82170095Y-87082285D01*
X82122476Y-86987047D01*
X82027238Y-86939428D01*
X81789142Y-86939428D01*
X81693904Y-86891809D01*
X81217714Y-87320380D02*
X81217714Y-86653714D01*
X81217714Y-86844190D02*
X81170095Y-86748952D01*
X81122476Y-86701333D01*
X81027238Y-86653714D01*
X80932000Y-86653714D01*
X80693904Y-87701333D02*
X80646285Y-87653714D01*
X80551047Y-87510857D01*
X80503428Y-87415619D01*
X80455809Y-87272761D01*
X80408190Y-87034666D01*
X80408190Y-86844190D01*
X80455809Y-86606095D01*
X80503428Y-86463238D01*
X80551047Y-86368000D01*
X80646285Y-86225142D01*
X80693904Y-86177523D01*
M02*
