G04 #@! TF.GenerationSoftware,KiCad,Pcbnew,(5.1.0)-1*
G04 #@! TF.CreationDate,2021-10-08T02:53:16-05:00*
G04 #@! TF.ProjectId,nixie_legacy-digit,6e697869-655f-46c6-9567-6163792d6469,rev?*
G04 #@! TF.SameCoordinates,Original*
G04 #@! TF.FileFunction,Copper,L1,Top*
G04 #@! TF.FilePolarity,Positive*
%FSLAX46Y46*%
G04 Gerber Fmt 4.6, Leading zero omitted, Abs format (unit mm)*
G04 Created by KiCad (PCBNEW (5.1.0)-1) date 2021-10-08 02:53:16*
%MOMM*%
%LPD*%
G04 APERTURE LIST*
%ADD10O,1.700000X1.700000*%
%ADD11R,1.700000X1.700000*%
%ADD12C,2.397760*%
%ADD13C,1.524000*%
%ADD14O,1.600000X1.600000*%
%ADD15C,0.381000*%
G04 APERTURE END LIST*
D10*
X100330000Y-115570000D03*
X102870000Y-115570000D03*
X100330000Y-113030000D03*
X102870000Y-113030000D03*
X100330000Y-110490000D03*
X102870000Y-110490000D03*
X100330000Y-107950000D03*
X102870000Y-107950000D03*
X100330000Y-105410000D03*
X102870000Y-105410000D03*
X100330000Y-102870000D03*
X102870000Y-102870000D03*
X100330000Y-100330000D03*
X102870000Y-100330000D03*
D11*
X102870000Y-118110000D03*
D10*
X100330000Y-118110000D03*
D12*
X120048020Y-113718340D03*
X110302040Y-117218460D03*
X108551980Y-113718340D03*
X108551980Y-109220000D03*
X108551980Y-104721660D03*
X110302040Y-101221540D03*
X114300000Y-100220780D03*
X118297960Y-101221540D03*
X120048020Y-104721660D03*
X120048020Y-109220000D03*
X118297960Y-117218460D03*
X114300000Y-118219220D03*
X94648020Y-113718340D03*
X84902040Y-117218460D03*
X83151980Y-113718340D03*
X83151980Y-109220000D03*
X83151980Y-104721660D03*
X84902040Y-101221540D03*
X88900000Y-100220780D03*
X92897960Y-101221540D03*
X94648020Y-104721660D03*
X94648020Y-109220000D03*
X92897960Y-117218460D03*
X88900000Y-118219220D03*
D13*
X81534000Y-118618000D03*
D14*
X112014000Y-96520000D03*
X91186000Y-96520000D03*
D13*
X109220000Y-88900000D03*
X99060000Y-88900000D03*
X106680000Y-88900000D03*
X96520000Y-88900000D03*
X104140000Y-88900000D03*
X93980000Y-88900000D03*
D15*
X100330000Y-97790000D02*
X109220000Y-88900000D01*
X100330000Y-100330000D02*
X100330000Y-97790000D01*
X99821999Y-88138001D02*
X99060000Y-88900000D01*
X100330000Y-87630000D02*
X99821999Y-88138001D01*
X109982000Y-87630000D02*
X100330000Y-87630000D01*
X110744000Y-88392000D02*
X109982000Y-87630000D01*
X102870000Y-100330000D02*
X110744000Y-92456000D01*
X110744000Y-92456000D02*
X110744000Y-88392000D01*
X105918001Y-89661999D02*
X106680000Y-88900000D01*
X98806000Y-96774000D02*
X105918001Y-89661999D01*
X100330000Y-102870000D02*
X98806000Y-101346000D01*
X98806000Y-101346000D02*
X98806000Y-96774000D01*
X96520000Y-88900000D02*
X96520000Y-88392000D01*
X104394000Y-101346000D02*
X102870000Y-102870000D01*
X98552000Y-86868000D02*
X110490000Y-86868000D01*
X96520000Y-88900000D02*
X98552000Y-86868000D01*
X110490000Y-86868000D02*
X111506000Y-87884000D01*
X111506000Y-87884000D02*
X111506000Y-93472000D01*
X111506000Y-93472000D02*
X104394000Y-100584000D01*
X104394000Y-100584000D02*
X104394000Y-101346000D01*
X103378001Y-89661999D02*
X104140000Y-88900000D01*
X98044000Y-94996000D02*
X103378001Y-89661999D01*
X100330000Y-105410000D02*
X98044000Y-103124000D01*
X98044000Y-103124000D02*
X98044000Y-94996000D01*
X94741999Y-88138001D02*
X93980000Y-88900000D01*
X96774000Y-86106000D02*
X94741999Y-88138001D01*
X104902000Y-103378000D02*
X104902000Y-101659673D01*
X102870000Y-105410000D02*
X104902000Y-103378000D01*
X104902000Y-101659673D02*
X112268000Y-94293673D01*
X112268000Y-94293673D02*
X112268000Y-87376000D01*
X112268000Y-87376000D02*
X110998000Y-86106000D01*
X110998000Y-86106000D02*
X96774000Y-86106000D01*
X84582000Y-106934000D02*
X82550000Y-106934000D01*
X81026000Y-108458000D02*
X81026000Y-114554000D01*
X81026000Y-114554000D02*
X83690460Y-117218460D01*
X91694000Y-105410000D02*
X86106000Y-105410000D01*
X100330000Y-107950000D02*
X98806000Y-107950000D01*
X83690460Y-117218460D02*
X84902040Y-117218460D01*
X93472000Y-107188000D02*
X91694000Y-105410000D01*
X82550000Y-106934000D02*
X81026000Y-108458000D01*
X98044000Y-107188000D02*
X93472000Y-107188000D01*
X86106000Y-105410000D02*
X84582000Y-106934000D01*
X98806000Y-107950000D02*
X98044000Y-107188000D01*
X101570501Y-109249499D02*
X98776501Y-109249499D01*
X97028000Y-110998000D02*
X91974244Y-110998000D01*
X89180244Y-113792000D02*
X83225640Y-113792000D01*
X102870000Y-107950000D02*
X101570501Y-109249499D01*
X83225640Y-113792000D02*
X83151980Y-113718340D01*
X91974244Y-110998000D02*
X89180244Y-113792000D01*
X98776501Y-109249499D02*
X97028000Y-110998000D01*
X102870000Y-107950000D02*
X103124000Y-107950000D01*
X106680000Y-104394000D02*
X106680000Y-103886000D01*
X103124000Y-107950000D02*
X106680000Y-104394000D01*
X106680000Y-103886000D02*
X107696000Y-102870000D01*
X108551980Y-113718340D02*
X108531660Y-113718340D01*
X110490000Y-103886000D02*
X110490000Y-111780320D01*
X107696000Y-102870000D02*
X109474000Y-102870000D01*
X109474000Y-102870000D02*
X110490000Y-103886000D01*
X109750859Y-112519461D02*
X108551980Y-113718340D01*
X110490000Y-111780320D02*
X109750859Y-112519461D01*
X102870000Y-110490000D02*
X101570501Y-111789499D01*
X81953101Y-105920539D02*
X83151980Y-104721660D01*
X80264000Y-107609640D02*
X81953101Y-105920539D01*
X101570501Y-111789499D02*
X92680501Y-111789499D01*
X80264000Y-115471457D02*
X80264000Y-107609640D01*
X86106000Y-119126000D02*
X83918543Y-119126000D01*
X86868000Y-117602000D02*
X86868000Y-118364000D01*
X83918543Y-119126000D02*
X80264000Y-115471457D01*
X86868000Y-118364000D02*
X86106000Y-119126000D01*
X92680501Y-111789499D02*
X86868000Y-117602000D01*
X108551980Y-104808020D02*
X108551980Y-104721660D01*
X102870000Y-110490000D02*
X108551980Y-104808020D01*
X114300000Y-100220780D02*
X113101121Y-99021901D01*
X90098879Y-99021901D02*
X88900000Y-100220780D01*
X103601827Y-106650501D02*
X99734559Y-106650501D01*
X113101121Y-99021901D02*
X109766099Y-99021901D01*
X97282000Y-104197942D02*
X97282000Y-102870000D01*
X105664000Y-104588328D02*
X103601827Y-106650501D01*
X109766099Y-99021901D02*
X105664000Y-103124000D01*
X105664000Y-103124000D02*
X105664000Y-104588328D01*
X93433901Y-99021901D02*
X90098879Y-99021901D01*
X97282000Y-102870000D02*
X93433901Y-99021901D01*
X99734559Y-106650501D02*
X97282000Y-104197942D01*
X117444085Y-103364865D02*
X115498879Y-101419659D01*
X105410000Y-115570000D02*
X112776000Y-115570000D01*
X117444085Y-110901915D02*
X117444085Y-103364865D01*
X115498879Y-101419659D02*
X114300000Y-100220780D01*
X102870000Y-113030000D02*
X105410000Y-115570000D01*
X112776000Y-115570000D02*
X117444085Y-110901915D01*
X118110000Y-111760000D02*
X118110000Y-106659680D01*
X112268000Y-117602000D02*
X118110000Y-111760000D01*
X118849141Y-105920539D02*
X120048020Y-104721660D01*
X112268000Y-118618000D02*
X112268000Y-117602000D01*
X111506000Y-119380000D02*
X112268000Y-118618000D01*
X118110000Y-106659680D02*
X118849141Y-105920539D01*
X102870000Y-115570000D02*
X106680000Y-119380000D01*
X106680000Y-119380000D02*
X111506000Y-119380000D01*
X118437660Y-113718340D02*
X116418883Y-115737117D01*
X116418883Y-115737117D02*
X116418883Y-119039117D01*
X104140000Y-118110000D02*
X102870000Y-118110000D01*
X116418883Y-119039117D02*
X115316000Y-120142000D01*
X120048020Y-113718340D02*
X118437660Y-113718340D01*
X115316000Y-120142000D02*
X106172000Y-120142000D01*
X106172000Y-120142000D02*
X104140000Y-118110000D01*
X98868208Y-119634000D02*
X94648020Y-115413812D01*
X94648020Y-115413812D02*
X94648020Y-113718340D01*
X102870000Y-118110000D02*
X101346000Y-119634000D01*
X101346000Y-119634000D02*
X98868208Y-119634000D01*
X87231220Y-119888000D02*
X82804000Y-119888000D01*
X82804000Y-119888000D02*
X81534000Y-118618000D01*
X88900000Y-118219220D02*
X87231220Y-119888000D01*
X120221532Y-117218460D02*
X122174000Y-115265992D01*
X122174000Y-115265992D02*
X122174000Y-101600000D01*
X118297960Y-117218460D02*
X120221532Y-117218460D01*
X122174000Y-101600000D02*
X117094000Y-96520000D01*
X117094000Y-96520000D02*
X112014000Y-96520000D01*
M02*
